<?xml version="1.0" encoding="UTF-8" standalone="no"?>
<svg
   xmlns:dc="http://purl.org/dc/elements/1.1/"
   xmlns:cc="http://creativecommons.org/ns#"
   xmlns:rdf="http://www.w3.org/1999/02/22-rdf-syntax-ns#"
   xmlns:svg="http://www.w3.org/2000/svg"
   xmlns="http://www.w3.org/2000/svg"
   xmlns:sodipodi="http://sodipodi.sourceforge.net/DTD/sodipodi-0.dtd"
   xmlns:inkscape="http://www.inkscape.org/namespaces/inkscape"
   width="8.4666662mm"
   height="8.4666662mm"
   viewBox="0 0 8.4666662 8.4666662"
   version="1.1"
   id="svg2981"
   inkscape:version="1.0 (4035a4fb49, 2020-05-01)"
   sodipodi:docname="frame_light.svg"
   inkscape:export-filename="D:\Calcatz\Icon Pack\Adventure Narative Inspired by Arrival\GUI\Navigation Buttons\Frame\png\frame_light.png"
   inkscape:export-xdpi="96"
   inkscape:export-ydpi="96">
  <defs
     id="defs2975" />
  <sodipodi:namedview
     id="base"
     pagecolor="#ffffff"
     bordercolor="#666666"
     borderopacity="1.0"
     inkscape:pageopacity="0.0"
     inkscape:pageshadow="2"
     inkscape:zoom="0.59152944"
     inkscape:cx="337.14877"
     inkscape:cy="-0.9967373"
     inkscape:document-units="mm"
     inkscape:current-layer="layer1"
     inkscape:document-rotation="0"
     showgrid="false"
     fit-margin-top="0"
     fit-margin-left="0"
     fit-margin-right="0"
     fit-margin-bottom="0"
     inkscape:window-width="1366"
     inkscape:window-height="705"
     inkscape:window-x="-8"
     inkscape:window-y="-8"
     inkscape:window-maximized="1" />
  <metadata
     id="metadata2978">
    <rdf:RDF>
      <cc:Work
         rdf:about="">
        <dc:format>image/svg+xml</dc:format>
        <dc:type
           rdf:resource="http://purl.org/dc/dcmitype/StillImage" />
        <dc:title />
      </cc:Work>
    </rdf:RDF>
  </metadata>
  <g
     inkscape:label="Layer 1"
     inkscape:groupmode="layer"
     id="layer1"
     transform="translate(-219.68683,-302.47421)">
    <rect
       style="fill:#666666;stroke:none;stroke-width:0.13229167;stroke-linecap:round;paint-order:fill markers stroke;stroke-opacity:1;stroke-miterlimit:4;stroke-dasharray:none;fill-opacity:1"
       id="rect831"
       width="8.4666662"
       height="8.4666662"
       x="219.68683"
       y="302.47421" />
    <path
       d="m 223.58207,310.60604 c 0.035,-0.0419 0.068,-0.0846 0.1044,-0.12528 0.1615,-0.18091 -0.0119,0.0238 0.14981,-0.15689 0.013,-0.0138 0.022,-0.028 0.034,-0.0416 0.045,-5.2e-4 0.089,2.6e-4 0.13351,-0.003 0.15978,-0.01 1.55199,-0.30013 0.7906,-0.18668 -0.091,0.0139 -0.39211,0.0824 -0.7915,0.095 0.034,-0.0173 0.067,-0.0349 0.1007,-0.0451 0.092,-0.006 0.18507,-0.0151 0.28077,-0.0295 0.65112,-0.10527 1.06752,-0.3825 1.18552,-0.47225 0.1432,-0.10902 0.079,-0.0783 -0.19851,0.0535 0.14282,-0.11317 -0.1745,0.21427 -1.25349,0.28217 -0.1636,-0.0864 -0.26411,-0.2584 -0.3311,-0.40245 0,-0.003 0,-0.006 2.1e-4,-0.008 0,-0.0127 0,-0.0251 0,-0.0377 0,-0.0137 0.01,-0.0284 0.01,-0.0426 0.0101,-0.0544 0,-0.0262 0.0169,-0.0746 0,-0.0224 -0.033,-0.0314 -0.037,-0.002 -1.1e-4,0.0233 0,0.0513 0,0.0742 0,0.0124 -0.0101,0.0252 -0.0101,0.0378 0,-0.004 0,-0.0105 -0.01,-0.0151 -0.0101,-0.0172 -0.0161,-0.0339 -0.048,-0.11181 -0.0209,-0.051 -0.034,-0.1059 -0.061,-0.15343 -0.027,-0.0478 -0.067,-0.0869 -0.099,-0.13006 -0.0101,-0.01 -0.014,-0.013 -0.0209,-0.014 -0.023,-0.003 -0.049,0.0246 -0.032,0.051 0.03,0.0414 0.066,0.0791 0.091,0.12498 0.01,0.0151 0.0159,0.0349 0.0241,0.056 -0.0101,-0.0142 -0.0169,-0.0283 -0.022,-0.0365 -0.044,-0.0701 -0.018,-0.0313 -0.06,-0.092 -0.0101,-0.0107 -0.0259,0.002 -0.0169,0.0131 0.0101,0.0132 0.0169,0.0256 0.0259,0.0382 0.0119,0.0166 0.0241,0.0316 0.033,0.0497 0.0101,0.0151 0.0101,0.0329 0.0151,0.0488 0,0.006 0,0.009 0.01,0.0137 -0.01,-0.007 -0.0151,-0.0133 -0.023,-0.0174 -0.023,-0.0144 -0.05,-0.0187 -0.075,-0.0285 -0.029,-0.0151 -0.054,0.0285 -0.0249,0.0432 0.019,0.0104 0.041,0.0202 0.059,0.0332 0.028,0.0213 0.062,0.0567 0.082,0.0876 0,0 0,2.6e-4 0,2.6e-4 -0.064,-0.0151 -0.12409,-0.0405 -0.18529,-0.0619 -0.1257,-0.044 -0.034,-0.007 -0.14801,-0.0561 -0.01,-0.003 -0.0161,0.0103 -0.01,0.0137 0.0241,0.008 0.047,0.0167 0.071,0.0242 0.027,0.008 0.056,0.01 0.082,0.0209 0.027,0.009 0.049,0.0295 0.076,0.0414 0.0151,0.007 0.0259,0.011 0.036,0.0158 0,8e-5 0,10e-5 -0.01,-2.6e-4 -0.45889,-0.0212 0.18209,0.10565 -0.29009,0.009 -0.01,-0.008 -0.0119,-0.0163 -0.0241,-0.0314 -0.01,-0.0157 -0.023,-0.0315 -0.032,-0.0487 -0.0101,-0.0187 -0.0169,-0.0396 -0.0259,-0.0591 -0.041,-0.0868 -0.0241,-0.0296 -0.042,-0.11737 -0.0101,-0.0138 -0.0241,-0.006 -0.0201,0.009 0.018,0.0611 0.0151,0.0577 0.044,0.11834 0.018,0.0374 0.039,0.0732 0.057,0.11047 0,0.002 0,0.008 0.01,0.0128 -0.033,-0.007 -0.041,-0.009 -0.074,-0.0156 -0.037,-0.008 -0.10729,-0.0419 -0.13809,-0.08 0,-0.002 0,-0.004 0,-0.008 -0.0101,-0.0128 -0.0101,-0.0245 -0.013,-0.037 -0.01,-0.0249 -0.01,-0.0527 -0.01,-0.0783 -0.0101,-0.0382 -0.049,-0.0223 -0.043,0.0157 0.0101,0.0248 0.0169,0.0481 0.0201,0.0744 0,0.01 0,0.0225 0,0.0338 0,-5.3e-4 0,-8e-4 0,-8e-4 0,-0.003 0,-0.006 0,-0.01 -0.023,-0.06 0,-0.0155 -0.038,-0.0786 -0.0101,-0.0137 -0.022,-0.002 -0.0161,0.0121 0.01,0.0176 0.0119,0.0324 0.014,0.0336 -0.056,-0.062 -0.0249,-0.0191 -0.075,-0.0863 -0.0101,-0.007 -0.018,0.007 -0.0101,0.0152 0.0161,0.0104 0.031,0.0188 0.045,0.0333 0.0169,0.0179 0.029,0.0408 0.044,0.0622 0,0.003 0.0101,0.006 0.0101,0.01 0,0.002 0,0.008 0,0.013 0,0.009 0.0101,0.0132 0.014,0.013 0,0.008 0.0101,0.0168 0.0151,0.0239 0,0 1.1e-4,2.6e-4 1.1e-4,2.6e-4 -0.0201,-0.006 -0.042,-0.008 -0.064,-0.0119 -0.042,-0.006 -0.093,-0.0332 -0.097,-0.0953 0,-0.0193 0,-0.0387 0,-0.0577 0,-10e-4 0,-0.003 0.01,-0.004 0.037,-0.0704 0.018,-0.032 0.066,-0.15356 0,-0.007 0,-0.008 0,-0.003 -0.047,0.0831 -0.046,0.0846 -0.062,0.10237 0.01,-0.0239 0.014,-0.0468 0.018,-0.0706 0.022,-0.11453 0,-0.0326 0.019,-0.0994 -1.1e-4,-10e-4 -0.072,-0.15223 -0.09,0.007 0,0.058 0,-0.007 -0.01,0.0846 0,0.0309 0,0.0623 -0.0101,0.0934 0,0.005 -2.1e-4,0.008 0,0.013 0,-0.0254 0,-0.0138 -0.0111,-0.0857 0,-0.0225 0,-0.0455 0,-0.067 -0.01,-0.0406 -0.0169,-0.0696 -0.027,-0.10604 0,-0.0105 -0.019,-8e-4 -0.014,0.01 0.0101,0.0138 0.0119,0.0268 0.0151,0.0418 0,0.019 0.0101,0.0389 0.0101,0.059 0.01,0.0417 0.01,0.0844 0,0.12805 -0.0101,-0.0343 0.01,-0.0132 -0.032,-0.0506 -0.027,-0.0317 -0.07,0.0207 -0.042,0.0529 0.022,0.0201 0.0259,0.0203 0.044,0.0567 0.0101,0.02 0.0151,0.0425 0.0241,0.0633 0,10e-4 0,10e-4 0,0.002 -0.01,-0.0159 -0.019,-0.0334 -0.028,-0.0472 -0.013,-0.0183 -0.0241,-0.0384 -0.035,-0.0567 -0.033,-0.0536 -0.0259,-0.0328 -0.035,-0.0717 -0.014,-0.0195 -0.04,0.007 -0.0259,0.0264 0.01,0.002 0.014,0.003 0.019,0.008 0.036,0.0362 0.039,0.0551 0.061,0.10684 0,0.004 0,0.01 0.01,0.013 0.0101,0.0411 -0.0209,0.0353 -0.043,0.0223 -0.0209,-0.0138 -0.05,-0.0487 -0.072,-0.0654 -0.033,-0.0344 -0.055,-0.0604 -0.095,-0.11139 0,-5.3e-4 0,-10e-4 -8e-5,-10e-4 8e-5,-0.0312 0,-0.0613 0,-0.092 0,-0.033 0,-0.0661 0.0101,-0.0989 0,-0.0155 -0.018,-0.0142 -0.0191,10e-4 0,0.0322 0,0.0646 -0.01,0.097 0,0.013 0,0.0314 -0.01,0.0504 -0.0209,-0.0298 -0.038,-0.0541 -0.046,-0.0688 0,7.9e-4 0,0.003 0,0.001 0.0161,0.0228 0.032,0.0447 0.048,0.0672 0,0.0209 -0.0101,0.0423 -0.0111,0.0608 -0.052,-0.0463 -0.10001,-0.0941 -0.1438,-0.14245 -0.028,-0.0295 -0.052,-0.0701 -0.029,-0.0849 0.0101,-0.002 0.013,-0.006 0.0201,-0.007 0.047,-0.0147 0.094,-0.0217 0.13912,-0.0348 0.032,-0.007 0.03,-0.0572 0,-0.0505 -0.05,0.004 -0.10012,7.9e-4 -0.15233,0.006 -0.01,2.6e-4 -0.0159,0.002 -0.0259,0.006 0,-10e-4 0,-0.003 0,-0.004 0.11689,-0.15401 -0.056,0.0797 0.10999,-0.14631 -0.036,0.0375 -0.07,0.077 -0.10761,0.10906 0,-0.004 0.0101,-0.0104 0.0111,-0.0181 0.046,-0.0758 0.031,-0.0471 0.061,-0.10967 0.022,-0.0548 -0.042,-0.0761 -0.065,-0.0216 0,0.01 0,0.0228 0,0.0339 -0.01,0.0222 -0.0241,0.0421 -0.037,0.0622 -0.03,0.0465 -0.038,0.0582 -0.054,0.0746 -1.1e-4,-0.001 0,-0.001 0,-0.002 0,-0.006 0,-0.0136 0,-0.0199 0.01,-0.0617 0.019,-0.12245 0.0259,-0.18323 0,-0.0249 0,-0.0488 0.0101,-0.0732 0,-0.005 -0.0101,-0.005 -0.0101,2.6e-4 0,0.0239 0,0.048 0,0.0724 0,0.0378 -0.01,0.0764 -0.018,0.11448 0,0.0138 -0.0101,0.0236 -0.0101,0.0352 0,-0.0166 -0.0101,-0.0324 -0.0101,-0.0489 0,-0.0226 0,-0.0468 0,-0.0694 -0.01,-0.0311 -0.013,-0.0608 -0.019,-0.0913 0,-0.0219 0,-0.0438 -0.01,-0.0658 0,-0.0209 -0.033,-0.01 -0.029,0.0123 0.01,0.0198 0.013,0.0394 0.0209,0.0588 0.01,0.0956 0.01,0.07 0.0111,0.16184 0,0.005 0,0.0665 0,0.0861 -0.01,-0.013 -0.01,-0.0292 -0.0151,-0.0413 -1.1e-4,-5.3e-4 -1.1e-4,-0.001 -2.1e-4,-0.001 0,-0.004 -0.0101,-0.01 -0.0101,-0.0142 0,-0.008 -0.01,-0.0161 -0.0119,-0.0251 -0.0101,-0.0188 -0.023,-0.0378 -0.033,-0.0578 -0.013,-0.0293 -0.0241,-0.0607 -0.037,-0.0901 -0.01,-0.0164 -0.023,-0.0488 -0.036,-0.0772 0.0249,0.0579 0.044,0.10917 0.063,0.17259 0.01,0.0222 0.01,0.0453 0.0161,0.0678 -0.027,-0.0313 -0.054,-0.0624 -0.079,-0.0955 -0.037,-0.0261 -0.074,-0.0591 -0.11059,-0.0942 -0.013,-0.0127 -0.029,-0.0372 -0.035,-0.0638 -0.0249,-0.12545 -0.041,-0.25109 -0.05,-0.37569 -1.9e-4,-0.001 0,-0.001 0,10e-4 0.01,0.10566 0.03,0.23496 0.036,0.34644 0,0.0135 0,0.0256 0,0.0385 -0.0101,-0.007 -0.0249,-0.0252 -0.032,-0.0327 -0.013,-0.0127 -0.0241,-0.0391 -0.034,-0.0613 0,0 -1.1e-4,-2.6e-4 -1.1e-4,-2.6e-4 -0.01,-0.0172 -0.013,-0.0336 -0.019,-0.051 -0.01,-0.0286 -0.0161,-0.0579 -0.0249,-0.0867 0,-0.013 -0.0101,-0.0342 -0.014,-0.0466 0.0119,0.0574 0.0169,0.11681 0.023,0.17675 -0.014,-0.0156 -0.029,-0.0376 -0.039,-0.0669 -0.013,-0.0605 -0.0241,-0.11118 -0.031,-0.14617 0.01,-0.002 0.01,-0.0102 0.01,-0.0206 0,-0.01 -0.01,-0.0224 -0.01,-0.0341 0,-0.01 0,-0.0217 0,-0.0333 0.01,0.0164 0.0159,0.033 0.0241,0.0504 -0.0101,-0.0251 -0.0119,-0.0451 -0.0151,-0.0592 0,-0.005 -0.01,-0.006 -0.01,-0.003 0,-0.025 0.01,-0.0499 0.01,-0.0717 0.0111,-0.10189 0,-0.0608 0.028,-0.1455 1e-4,-2e-4 -0.013,-0.0255 -0.018,-0.002 0,0.0213 0,0.0427 -0.0101,0.064 0,0.0275 -0.014,0.0543 -0.0201,0.0819 -0.0101,0.0221 -0.0101,0.0442 -0.0119,0.0668 0,0.005 0,0.006 0,0.007 -0.0101,-0.0515 -0.0169,-0.10301 -0.0259,-0.15382 -0.033,-0.18157 -0.043,-0.24873 -0.047,-0.27317 0,-0.0323 0,-0.0203 -0.0101,-0.0767 -0.0101,-0.0239 -0.0119,-0.0469 -0.0169,-0.0705 -0.031,-0.0641 -0.13049,-0.0162 -0.099,0.0477 0.013,0.0142 0.0251,0.0297 0.038,0.044 0.097,0.27519 0.0241,0.018 0.081,0.34073 0.023,0.12971 0.054,0.22549 0.072,0.34828 0,-0.01 -0.0101,-0.0192 -0.0101,-0.0348 -0.0119,-0.038 -0.0259,-0.0752 -0.037,-0.11343 0.0101,0.0241 0.0101,0.0497 0.0241,0.11688 0.01,0.0174 0.01,0.0342 0.0119,0.0514 -0.0209,-0.0168 -0.042,-0.0404 -0.06,-0.0745 -0.0101,-0.0188 -0.0151,-0.0379 -0.023,-0.0568 -0.097,-0.26079 0.01,-1.2e-4 -0.057,-0.17085 -0.0151,-0.0297 -0.05,-0.0217 -0.062,3e-5 -0.0151,-0.045 -0.028,-0.0872 -0.036,-0.11654 -1.1e-4,-5.3e-4 0,-5.3e-4 0,2.6e-4 0.01,0.0326 0.0151,0.0652 0.0241,0.0978 0,0.01 0.0101,0.0208 0.0101,0.0311 0,0.006 0,0.0135 0,0.021 0,5.3e-4 0,2.6e-4 0,0.001 0.01,0.0128 0.01,0.0238 0.0119,0.0362 0.019,0.0658 0.0161,0.0598 0.028,0.11988 0.013,0.0246 0.047,0.006 0.034,-0.0196 -0.0101,-0.013 -0.0119,-0.0249 -0.018,-0.0366 -0.013,-0.0216 -0.0241,-0.0439 -0.034,-0.067 0,-0.007 -0.0101,-0.0151 -0.0101,-0.023 0.013,0.009 0.0259,0.0175 0.034,0.0303 0.0259,0.0448 0.044,0.11734 0.061,0.17666 -0.013,-0.005 -0.0241,-0.009 -0.035,-0.0146 -0.0101,-0.003 -0.0249,-0.002 -0.034,-8e-4 -0.0101,-0.0113 -0.0159,-0.0217 -0.023,-0.0339 0,-0.01 -0.0101,-0.0187 -0.0159,-0.0284 0.0119,0.0248 0.0201,0.0396 0.031,0.0625 0,0 -0.2994,-0.35173 -0.4667,-0.6225 0,-0.002 -0.01,-0.001 -0.01,-0.003 -0.07,-0.237 -0.11361,-0.45938 -0.11232,-0.66712 0,-0.0349 0,-0.0612 0,-0.0863 -1.1e-4,-10e-4 0,-0.0127 0,-0.0137 0.0101,-0.006 0.0101,-0.009 0.0161,-0.025 0.0101,-0.0137 0,-0.11164 0.0119,-0.23106 0.038,-0.19128 0.023,0.0561 0.034,0.26948 0,0.0413 0.01,0.0827 0.01,0.12446 0,-0.0365 0,-0.0782 -0.01,-0.12439 -0.0101,-0.24878 0.014,-0.64008 0.18092,-1.09899 0.12949,-0.32792 0.31459,-0.63355 0.54719,-0.89593 0.1103,-0.12482 0.2318,-0.24026 0.36261,-0.34438 0.40809,-0.34809 0.6573,-0.44334 0.69119,-0.47921 0.0209,-0.0227 -0.11689,-0.007 -0.40269,0.14673 -0.0101,-0.006 -0.0169,-0.01 0,-0.0283 -0.2041,0.12304 -0.39428,0.26852 -0.5651,0.43343 0.20061,-0.18604 0.40122,-0.31609 0.5655,-0.40447 0.019,0.007 0.03,0.0143 -0.1391,0.14471 -0.2369,0.18547 -0.46159,0.3276 -0.50411,0.36891 -0.03,0.0295 -0.06,0.0597 -0.089,0.0901 -0.083,0.0873 -0.16082,0.17911 -0.23341,0.27415 0.068,-0.0994 0.1416,-0.19445 0.22078,-0.28512 0.056,-0.0649 0.11572,-0.12708 0.17802,-0.18648 -0.061,0.0558 -0.12179,0.1176 -0.1804,0.18459 -0.12029,0.13313 -0.23301,0.28509 -0.33401,0.45462 -0.037,0.0568 -0.073,0.11531 -0.10739,0.17489 0.1153,-0.22612 0.25929,-0.44189 0.43219,-0.63777 0.3759,-0.42608 0.85151,-0.71699 1.32642,-0.87664 0.068,-0.0215 0.13678,-0.0409 0.20708,-0.0585 0.11492,-0.0255 0.45011,-0.0508 0.692,-0.0634 0.0151,-10e-4 0.033,-0.002 0.051,-0.002 0.56261,-0.0234 0.78959,0.0601 0.85471,0.0635 0.064,0.002 -0.03,-0.0354 -0.12521,-0.0652 -0.094,-0.0294 -0.18492,-0.0486 -0.098,-0.0295 0,10e-4 0.4404,0.0859 0.90671,0.35355 0.469,0.22722 0.54161,0.34837 0.56308,0.38227 0.03,0.0485 -0.033,5.3e-4 0.10501,0.13216 0.0101,0.01 0.0209,0.0203 0.033,0.0318 0.18669,0.17824 0.065,0.0309 0.1448,0.1031 0.041,0.0363 0.10869,0.11444 0.16971,0.18791 0.69127,0.88099 0.68397,1.56091 0.72289,1.63025 0.039,0.0693 0.1428,-0.45959 -0.3647,-1.34253 0.027,-0.002 -0.12131,-0.36835 -0.5488,-0.77973 -0.034,-0.0327 -0.07,-0.0647 -0.1067,-0.0983 0.037,0.0303 0.075,0.0606 0.1125,0.0922 0.057,0.0502 0.11459,0.10339 0.1716,0.16028 -0.053,-0.0585 -0.10731,-0.11437 -0.1634,-0.16899 -0.47688,-0.45771 -1.09156,-0.76755 -1.74347,-0.88533 -0.23461,-0.0423 -0.46872,-0.0608 -0.69821,-0.0548 -0.37841,0.0102 -0.7832,0.0872 -1.1839,0.25845 -0.4622,0.19753 -0.87368,0.49962 -1.2001,0.87654 -0.16219,0.18781 -0.30268,0.3931 -0.4205,0.61075 -0.0151,-0.003 0.11231,-0.31705 -0.048,-0.006 -0.18859,0.36627 -0.235,0.68467 -0.2804,0.95037 -0.032,0.18588 -0.059,0.41186 -0.059,0.68571 0,0.0985 0,0.19001 0.0101,0.27596 0.06,0.98099 0.244,1.11625 0.27662,1.21529 0,0.006 0,0.013 0.0101,0.018 -0.041,-0.0482 -0.083,-0.0962 -0.11988,-0.14903 -0.038,-0.056 -0.066,-0.11718 -0.099,-0.17625 -0.028,-0.0504 -0.057,-0.10055 -0.083,-0.15132 -0.03,-0.0597 -0.058,-0.11997 -0.086,-0.18081 -0.022,-0.049 -0.081,-0.0197 -0.059,0.029 0.028,0.0635 0.055,0.1277 0.088,0.18877 0.06,0.1108 0.14179,0.20718 0.20961,0.31275 0.043,0.0674 0.082,0.13875 0.12469,0.20655 0.04,0.0636 0.068,0.0985 0.10848,0.16205 -0.01,-0.007 -0.0151,-0.0157 -0.023,-0.0241 -0.044,-0.0512 -0.072,-0.0971 -0.11129,-0.15355 -0.072,-0.10172 -0.036,-0.0405 -0.084,-0.12825 -0.0101,-0.01 -0.0101,-0.0174 -0.0119,-0.0268 -0.014,-0.0225 -0.042,-0.006 -0.027,0.0185 0.0101,0.007 0.0169,0.0127 0.0241,0.0185 0.013,0.0184 0.0241,0.0369 0.036,0.055 0.0161,0.0249 0.033,0.049 0.05,0.0734 0.1393,0.19461 -0.014,-0.0193 0.11321,0.15355 0.0119,0.0167 0.0259,0.033 0.038,0.0496 0.033,0.0778 0.053,0.16382 0.056,0.19346 0,0.0202 0.0101,0.0365 0.0101,0.0515 -0.0249,-0.0243 -0.048,-0.0496 -0.073,-0.0743 -0.073,-0.0776 -0.1071,-0.11423 -0.1895,-0.21387 -0.0101,-0.006 -0.0111,8e-5 -0.0101,0.006 0.027,0.036 0.14211,0.18623 0.17701,0.22773 0.0241,0.0286 0.05,0.0555 0.073,0.0848 0.01,0.009 0.032,0.045 0.055,0.0768 0,0.004 0,0.01 0,0.0172 0.0159,0.0157 0.034,0.0293 0.048,0.0468 0.041,0.0524 0.16539,0.23076 0.2018,0.2855 0,0.004 0,0.01 0.01,0.0142 -0.0201,-0.0137 -0.04,-0.0257 -0.06,-0.0384 -0.018,-0.0109 -0.036,-0.0229 -0.054,-0.0341 -0.041,-0.03 -0.069,0.0229 -0.027,0.0535 0.018,0.0142 0.035,0.0297 0.054,0.0417 0.023,0.0145 0.048,0.0249 0.072,0.0392 0.01,0.008 0.019,0.0133 0.028,0.0192 -0.01,-2.6e-4 -0.01,-0.002 -0.014,-5.3e-4 -0.0201,-0.003 -0.04,-0.008 -0.06,-0.0109 -0.048,-0.0107 -0.073,-0.0237 -0.12039,-0.0432 -0.0201,-0.009 -0.04,-0.0199 -0.059,-0.0306 -0.0161,-0.01 -0.023,0.012 -0.01,0.0218 0.0209,0.01 0.041,0.0202 0.061,0.0298 0.01,0.006 0.0201,0.0138 0.031,0.0196 -0.15078,-0.0466 -0.24888,-0.10871 -0.41879,-0.22052 -0.0209,-0.0138 -0.029,0.0166 -0.0101,0.0291 0.076,0.047 0.1508,0.0953 0.2291,0.13283 0.10002,0.0476 0.2045,0.08 0.30382,0.11763 0.039,0.0147 0.069,0.0257 0.096,0.036 0.093,0.0464 0.1397,0.0827 0.1801,0.12715 0.064,0.0702 0.1448,0.14392 0.23659,0.21448 -0.022,-0.006 -0.045,-0.0111 -0.063,-0.0167 -0.031,-0.008 -0.062,-0.0186 -0.092,-0.0309 -0.0241,-0.01 -0.16899,-0.0803 -0.19162,-0.0921 -0.0201,-0.0162 -0.04,-0.0331 -0.059,-0.0508 -0.0159,-0.0105 -0.0259,0.007 -0.0101,0.0183 0.022,0.0142 0.045,0.0251 0.068,0.0374 0.033,0.018 0.064,0.0362 0.097,0.0525 0.066,0.033 0.12099,0.0549 0.18809,0.0799 0.028,0.01 0.056,0.0212 0.084,0.0299 0.0101,0.003 0.0201,0.006 0.031,0.008 0.1175,0.0848 0.2436,0.15875 0.37031,0.21773 -0.061,-0.0143 -0.12171,-0.0336 -0.1823,-0.053 -0.078,-0.0241 -0.15671,-0.0492 -0.23479,-0.0778 0.095,0.0411 0.15938,0.0674 0.21169,0.0883 -0.041,-0.01 -0.044,-0.009 0.15219,0.059 -0.0101,0.002 -0.0191,0.005 -0.029,0.007 -0.037,0.007 -0.073,0.0172 -0.11168,0.018 -0.045,2.6e-4 -0.092,-0.008 -0.1389,-0.0129 0,4e-5 0,0.003 0,0.002 0.047,0.006 0.093,0.0108 0.13888,0.0129 0.04,10e-4 0.08,-0.004 0.11901,-0.004 0.0101,-1.2e-4 0.0151,-10e-4 0.0241,8e-5 0.042,0.0205 0.084,0.0395 0.126,0.0582 -0.0101,0.002 -0.014,0.007 -0.0209,0.008 -0.058,0.0191 -0.095,0.03 -0.11682,0.0352 0.053,-0.012 0.10639,-0.0235 0.1606,-0.0336 0.022,0.0101 0.045,0.0194 0.069,0.0289 -0.022,-0.0101 -0.045,-0.0193 -0.067,-0.0289 0.0169,-0.005 0.035,-0.007 0.052,-0.009 0.03,-0.005 0.055,-0.006 0.084,-0.006 0,-4e-5 0,-10e-5 0.01,2.6e-4 0.0101,0.003 0.0169,0.005 0.0241,0.009 0.062,0.0177 0.117,0.0483 0.17201,0.081 -0.023,0.007 -0.043,0.0122 -0.051,0.013 -0.0101,0.002 -0.03,0.002 -0.054,0.004 -0.054,-0.0185 -0.10638,-0.0378 -0.15869,-0.0589 0.05,0.0207 0.10088,0.041 0.15219,0.059 -0.076,0.004 -0.1473,-1.3e-4 -0.1845,-7.9e-4 -0.0169,-0.002 -0.0101,0.0215 0,0.0227 0.044,0.003 0.087,0.0107 0.1301,0.0101 0.042,5.3e-4 0.083,-0.004 0.1238,-0.007 0,-1.4e-4 0,-2.6e-4 0,-10e-4 0.01,10e-4 0.01,0.003 0.014,0.006 0,2.6e-4 0.01,5.3e-4 0.01,0.003 0,-2.6e-4 -0.01,-0.002 -0.01,-0.003 0,-10e-4 -0.0101,-10e-4 -0.0101,-0.003 0.045,-0.004 0.074,-0.009 0.086,-0.0113 0.03,0.0173 0.06,0.0346 0.092,0.0488 -0.06,-0.006 -0.1261,-0.0222 -0.15949,-0.0314 0.042,0.0144 0.10649,0.0405 0.17259,0.0579 0.018,-2.6e-4 0.035,-0.001 0.049,-0.002 0,-2.1e-4 0,-2.6e-4 0,-10e-4 0.01,-0.002 0.082,-0.0126 0.1253,-0.0106 0.019,7.9e-4 0.047,0.002 0.07,0.004 0,2.6e-4 0,0.001 -0.0101,0.002 -0.035,0.0203 -0.045,0.0285 -0.046,0.0314 -0.051,0.0216 -0.10441,0.0397 -0.16021,0.0533 -0.0101,0.002 -0.018,0.006 -0.028,0.006 0.0101,-0.001 0.0201,-0.002 0.028,-0.005 0.039,-0.007 0.06,-0.009 0.079,-0.014 -0.0101,0.0146 0.01,0.0327 0.032,0.0244 0.027,-0.009 1.9e-4,10e-4 0.036,-0.021 0.0111,-0.007 0.0241,-0.0124 0.034,-0.0199 0,-10e-4 0,-0.003 0.0101,-0.006 -0.12899,0.033 0.1516,-0.0388 0.023,-0.006 0.0101,-0.002 0.0101,-2.6e-4 0.014,-0.006 -0.01,0.0143 -0.01,0.0193 -0.0111,0.0289 0,0.002 -0.0101,0.004 -0.0111,0.007 -0.046,0.026 -0.094,0.049 -0.14419,0.0683 0.039,-0.0123 0.078,-0.0224 0.1157,-0.0349 -0.014,0.01 -0.032,0.026 -0.057,0.0441 -0.1832,0.13622 -0.12581,0.0735 -0.10602,0.0537 -0.013,0.0127 -0.052,0.0477 -0.12359,0.11232 0,0.003 -0.0101,0.005 -0.0159,0.009 -0.023,0.0103 -0.0169,0.0344 0,0.0501 0.013,0.008 0.03,0.008 0.046,-0.006 0.29279,-0.19369 0.0151,-0.008 0.24429,-0.17509 0.0209,-0.0156 0.044,-0.0295 0.066,-0.0442 0,0.003 0,0.006 0,0.008 0,0.0138 -0.0101,0.0242 -0.0151,0.0368 -0.013,0.0459 -0.0101,0.0239 -0.0209,0.0682 -0.0101,0.0222 0.032,0.0261 0.036,0.003 0.0201,-0.0999 -0.0101,0.0385 0.0201,-0.0647 0,-0.0138 0,-0.0252 0.01,-0.0373 0.0101,-0.0164 0.0101,-0.0313 0.018,-0.0456 0,-5.3e-4 0,-0.002 0.0101,-0.006 0.0251,-0.0211 0.043,-0.0487 0.068,-0.0694 0.0151,-0.008 0.032,-0.0151 0.048,-0.0196 -0.0111,0.0251 -0.032,0.0708 -0.037,0.0914 0,0.006 0,0.0562 0,0.0659 0,0.006 -0.01,0.0127 -0.01,0.0167 0,0.0213 0.043,0.0361 0.046,2.6e-4 0,-0.003 0,-0.0138 0,-0.0179 0,-0.009 0,-0.0174 0,-0.0264 0,-0.0266 0,-0.0548 0.0101,-0.0807 0.01,-0.0183 0.01,-0.0372 0.0169,-0.0548 8e-5,-2e-4 0,-5.3e-4 8e-5,-5.3e-4 0.10001,-0.0225 0.2077,-0.004 0.23471,-0.002 0.11581,-0.004 0.2204,-0.0533 0.31869,-0.11166 -0.037,0.0291 -0.082,0.0556 -0.11369,0.0753 -0.0209,0.0137 -0.042,0.0254 -0.063,0.0377 0.0209,-0.0127 0.043,-0.024 0.065,-0.0354 0.10708,-0.0554 0.13819,-0.0698 0.1437,-0.0708 0,-0.001 0.0101,-0.005 0.0101,-0.005 -0.039,0.0516 -0.10102,0.1331 -0.1023,0.13495 -0.034,0.0424 -0.069,0.0838 -0.1038,0.12608 0,8e-4 0,10e-4 0,2.6e-4 z m -0.014,-0.14939 c -0.034,0.0196 -0.069,0.0391 -0.1038,0.0584 0,-5.2e-4 0,0.001 0,8e-4 0.034,-0.0199 0.069,-0.0399 0.1029,-0.0599 z m -0.73851,0.12114 c -0.0241,0.007 -0.047,0.013 -0.072,0.0198 -0.022,0.006 -0.044,0.0131 -0.067,0.0195 -0.027,-1e-4 -0.055,-7.9e-4 -0.083,-0.003 0.027,0.003 0.054,0.006 0.082,0.007 0.023,-0.006 0.046,-0.013 0.069,-0.0192 0.0241,-0.007 0.047,-0.0152 0.07,-0.0243 z m -0.22058,0.0372 c -0.041,-0.004 -0.083,-0.0104 -0.1247,-0.0177 0.035,0.007 0.07,0.0116 0.10499,0.0158 0.0101,5.3e-4 0.014,5.3e-4 0.0201,10e-4 z m -0.1247,-0.0177 c -0.014,-0.003 -0.029,-0.006 -0.043,-0.008 0,2.2e-4 0,10e-4 0,10e-4 0.014,0.003 0.029,0.006 0.043,0.007 z m 0.25839,-0.0747 c 0,-10e-4 -0.032,0.006 -0.03,0.005 -0.045,-0.006 -0.09,-0.0107 -0.13441,-0.0181 0,0 -1.9e-4,2.5e-4 -1.9e-4,2.5e-4 0.044,0.008 0.09,0.0147 0.13399,0.0185 0.01,-0.002 0.0201,-0.005 0.03,-0.006 z m -1.11979,-2.35264 c 0.01,0.0255 0.0151,0.0512 0.0209,0.0735 0,-0.0189 -0.0101,-0.0376 -0.014,-0.0561 0,-0.006 -0.01,-0.0128 -0.01,-0.0182 z m 0.30958,0.35541 c 0,-0.008 -0.01,-0.0137 -0.01,-0.0214 -0.01,-0.0182 -0.0169,-0.035 -0.0249,-0.052 0.0101,0.0225 0.022,0.0473 0.034,0.0736 z m -0.034,-0.0736 c -0.0101,-0.01 -0.0101,-0.0195 -0.0119,-0.0268 0,-5.2e-4 0,0 0,5.3e-4 0.01,0.01 0.01,0.0173 0.013,0.0261 z m 4.32411,0.73742 c 0.04,-0.0132 0.17679,-0.1461 0.40158,-0.47785 0.6101,-0.89848 0.45281,-0.95775 0.40762,-0.82703 -0.045,0.13067 -0.09,0.37666 0.058,-0.24695 -0.069,0.18479 -0.1346,0.24659 -0.1605,0.2845 -0.2172,0.61075 -0.5325,0.99891 -0.67022,1.17645 -0.048,0.0627 -0.06,0.0985 -0.036,0.0909 z m 0.86688,-1.55194 c 0.046,-0.12288 0.13372,-0.40865 0.13412,-0.81536 0,-0.32325 -0.057,-0.80938 -0.3147,-1.34538 -0.16952,-0.35297 -0.3833,-0.63446 -0.59772,-0.85115 0.18772,0.2086 0.3516,0.44479 0.48601,0.70252 0.3029,0.58064 0.3773,1.1247 0.38291,1.4951 0,0.35504 -0.05,0.64372 -0.09,0.81427 z m -4.8767,2.61186 c -0.041,-0.0183 -0.082,-0.0376 -0.12229,-0.0577 0.0151,-2.2e-4 0.027,1.2e-4 0.041,-2.6e-4 0.0101,1.4e-4 0.014,-5.2e-4 0.018,-0.001 0.044,0.0139 0.088,0.0236 0.13258,0.0324 -0.0241,0.009 -0.047,0.0185 -0.069,0.0273 z m -0.23669,0.0621 c -0.014,0.003 -0.036,0.006 -0.06,0.008 0,1.9e-4 0,10e-4 0,10e-4 0.0201,-0.002 0.04,-0.006 0.059,-0.009 z m 1.44581,-1.00926 c 0.014,-0.006 0.0209,-0.025 0.0101,-0.0339 -0.041,-0.0183 -0.0101,-0.003 -0.053,-0.0259 -0.01,-0.002 -0.014,-0.007 -0.0201,-0.0115 0,-10e-4 -0.01,-10e-4 -0.01,-10e-4 -0.018,2.5e-4 -0.029,0.0251 -0.0101,0.0344 0.0101,5.2e-4 0.014,0.003 0.0201,0.007 0.0101,0.006 0.0159,0.0106 0.0249,0.0176 0.0169,0.009 0.0101,0.006 0.0249,0.0128 0,0.003 0.0101,0.003 0.0161,10e-4 z m -0.71022,-0.0337 c -1.8e-4,-5.2e-4 -1.8e-4,-5.2e-4 0,-10e-4 0,-1.7e-4 0,-2.6e-4 0,-2.6e-4 -1e-4,5.3e-4 -2.1e-4,0.001 0,0.001 z m -0.2055,-0.003 c -0.029,-0.0215 -0.066,-0.0493 -0.068,-0.0845 0,-0.008 0,-0.0137 0,-0.0222 0.0201,0.0275 0.041,0.0555 0.049,0.0695 0.0101,0.0101 0.013,0.024 0.0169,0.0372 z m -1.24219,0.1108 c 0,-0.002 -0.0101,-0.006 -0.0101,-0.007 -0.04,-0.046 -0.079,-0.0933 -0.11588,-0.1418 -0.077,-0.1 -0.088,-0.11417 -0.10221,-0.14067 0.0101,0.001 0.0101,0.003 0.014,0.003 0.034,0.0395 0.078,0.0923 0.14589,0.17221 0.022,0.0383 0.044,0.0763 0.067,0.11443 z m -0.21921,-0.0219 c 0.018,5.2e-4 0.0259,-0.0219 0.0101,-0.0404 0,-8e-4 0,-0.003 -0.0101,-0.006 -0.01,-0.006 -0.0169,-0.01 -0.0251,-0.0171 -0.014,-0.01 -0.0259,-0.0202 -0.04,-0.0286 -0.019,-0.0134 -0.04,-0.0234 -0.059,-0.0355 -0.013,-0.0106 -0.022,0.006 -0.01,0.0161 0.018,0.0164 0.036,0.0321 0.054,0.0485 0.087,0.0817 -0.01,-10e-4 0.055,0.0509 0.0101,0.007 0.013,0.01 0.0201,0.009 z m 0.47652,-1.20798 c -0.0119,-0.0396 -0.022,-0.0791 -0.032,-0.11876 0,-0.002 0,-10e-4 0,10e-4 0.018,0.067 0.028,0.0944 0.035,0.11787 z m -0.20741,-0.0385 c -0.048,-0.0971 -0.063,-0.13438 -0.069,-0.14593 0,0.002 0,0.004 0,0.008 0.0209,0.0465 0.043,0.0924 0.066,0.1378 z m -0.069,-0.14593 c -0.033,-0.0731 -0.059,-0.13888 -0.087,-0.21137 0,-0.002 -0.01,-5.3e-4 0,0.003 0.0119,0.0305 0.022,0.0611 0.035,0.091 0.1061,0.24698 0.043,0.0875 0.057,0.11841 z m -0.4067,0.25057 c 0,-0.004 0,-0.01 -0.01,-0.0137 -0.11311,-0.27456 -0.23021,-0.57865 -0.27051,-0.89492 -0.029,-0.22445 0.028,0.0842 0.0119,-0.13703 -0.0101,-0.099 -0.0111,-0.19126 -0.0101,-0.27566 0.0101,-0.71638 0.089,-0.91523 0.11729,-0.95056 0.0101,-0.031 0.0259,-0.0657 0.10351,-0.23671 -0.17799,0.47827 -0.16869,0.82056 -0.14949,0.87881 0,-0.0433 0,-0.0855 0,-0.12862 0,-0.0993 0.058,-0.36021 0.15711,-0.61728 0.09,-0.23303 0.18201,-0.39311 0.112,-0.22394 -0.12689,0.30615 -0.22359,0.63507 -0.26459,0.97955 0,3e-5 0,-0.009 0,-0.0105 0,0.0155 0,0.0284 0,0.0408 0,-0.009 0,-0.0197 0,-0.0289 0,0.001 0.0101,5.3e-4 0.0111,-0.009 0.0101,-0.0159 0.0169,-0.0696 0.03,-0.13444 -0.0161,0.11003 -0.0241,0.21731 -0.028,0.32121 -0.01,-0.0368 -0.0119,-0.0815 -0.0161,-0.14404 -0.0101,0.0873 -0.0161,0.17518 -0.018,0.26378 0,0.0916 0,0.18367 0.0101,0.27562 0.0241,0.3168 0.097,0.6304 0.21272,0.92925 0,0.0387 0,0.0776 0,0.11625 z m -0.15729,-2.2717 c -0.018,0.0466 -0.01,0.0283 0.01,0.003 0,-0.0111 0,-0.0137 -0.01,-0.003 z m 0.83669,1.87768 c 0,-0.001 -0.0101,-0.0772 -0.0111,-0.11966 0,0.0135 0,0.01 0,0.0311 0,0.0439 0.01,0.0913 0.01,0.0886 z m -0.59441,-0.46939 c 0.0101,0.039 -0.028,-0.13665 -0.044,-0.33058 0.014,0.18892 0.043,0.32811 0.044,0.33058 z m -0.11229,-1.16722 c 0,-0.0124 0.01,-0.0248 0.01,-0.0378 0.018,-0.0706 0.037,-0.14072 0.059,-0.2101 -0.0101,0.0358 -0.0201,0.0714 -0.029,0.10521 -0.014,0.0474 -0.0259,0.095 -0.038,0.14294 z m 0.0111,-0.0524 c 0.022,-0.10634 0.051,-0.21429 0.088,-0.3236 0.022,-0.0657 0.0101,-0.0179 0,0.0206 -0.034,0.099 -0.063,0.20017 -0.086,0.30294 z"
       style="fill:#d9d9d9;fill-opacity:1;stroke:none;stroke-width:0.160957px;stroke-linecap:butt;stroke-linejoin:miter;stroke-opacity:1"
       id="path4666" />
    <rect
       y="302.47421"
       x="232.49884"
       height="16.933332"
       width="16.933332"
       id="rect833"
       style="fill:#666666;stroke:none;stroke-width:0.13229167;stroke-linecap:round;paint-order:fill markers stroke;fill-opacity:1;stroke-opacity:1;stroke-miterlimit:4;stroke-dasharray:none"
       inkscape:export-filename="D:\Calcatz\Icon Pack\Adventure Narative Inspired by Arrival\GUI\Navigation Buttons\Frame\png\64px\frame_light.png"
       inkscape:export-xdpi="96"
       inkscape:export-ydpi="96" />
    <path
       id="path835"
       style="fill:#d9d9d9;fill-opacity:1;stroke:none;stroke-width:0.321914px;stroke-linecap:butt;stroke-linejoin:miter;stroke-opacity:1"
       d="m 240.28932,318.73787 c 0.07,-0.0838 0.136,-0.1692 0.2088,-0.25056 0.323,-0.36182 -0.0238,0.0476 0.29962,-0.31378 0.026,-0.0276 0.044,-0.056 0.068,-0.0832 0.09,-10e-4 0.178,5.2e-4 0.26702,-0.006 0.31956,-0.02 3.10398,-0.60026 1.5812,-0.37336 -0.182,0.0278 -0.78422,0.1648 -1.583,0.19 0.068,-0.0346 0.134,-0.0698 0.2014,-0.0902 0.184,-0.012 0.37014,-0.0302 0.56154,-0.059 1.30224,-0.21054 2.13504,-0.765 2.37104,-0.9445 0.2864,-0.21804 0.158,-0.1566 -0.39702,0.107 0.28564,-0.22634 -0.349,0.42854 -2.50698,0.56434 -0.3272,-0.1728 -0.52822,-0.5168 -0.6622,-0.8049 0,-0.006 0,-0.012 4.2e-4,-0.016 0,-0.0254 0,-0.0502 0,-0.0754 0,-0.0274 0.02,-0.0568 0.02,-0.0852 0.0202,-0.1088 0,-0.0524 0.0338,-0.1492 0,-0.0448 -0.066,-0.0628 -0.074,-0.004 -2.2e-4,0.0466 0,0.1026 0,0.1484 0,0.0248 -0.0202,0.0504 -0.0202,0.0756 0,-0.008 0,-0.021 -0.02,-0.0302 -0.0202,-0.0344 -0.0322,-0.0678 -0.096,-0.22362 -0.0418,-0.102 -0.068,-0.2118 -0.122,-0.30686 -0.054,-0.0956 -0.134,-0.1738 -0.198,-0.26012 -0.0202,-0.02 -0.028,-0.026 -0.0418,-0.028 -0.046,-0.006 -0.098,0.0492 -0.064,0.102 0.06,0.0828 0.132,0.1582 0.182,0.24996 0.02,0.0302 0.0318,0.0698 0.0482,0.112 -0.0202,-0.0284 -0.0338,-0.0566 -0.044,-0.073 -0.088,-0.1402 -0.036,-0.0626 -0.12,-0.184 -0.0202,-0.0214 -0.0518,0.004 -0.0338,0.0262 0.0202,0.0264 0.0338,0.0512 0.0518,0.0764 0.0238,0.0332 0.0482,0.0632 0.066,0.0994 0.0202,0.0302 0.0202,0.0658 0.0302,0.0976 0,0.012 0,0.018 0.02,0.0274 -0.02,-0.014 -0.0302,-0.0266 -0.046,-0.0348 -0.046,-0.0288 -0.1,-0.0374 -0.15,-0.057 -0.058,-0.0302 -0.108,0.057 -0.0498,0.0864 0.038,0.0208 0.082,0.0404 0.118,0.0664 0.056,0.0426 0.124,0.1134 0.164,0.1752 0,0 0,5.2e-4 0,5.2e-4 -0.128,-0.0302 -0.24818,-0.081 -0.37058,-0.1238 -0.2514,-0.088 -0.068,-0.014 -0.29602,-0.1122 -0.02,-0.006 -0.0322,0.0206 -0.02,0.0274 0.0482,0.016 0.094,0.0334 0.142,0.0484 0.054,0.016 0.112,0.02 0.164,0.0418 0.054,0.018 0.098,0.059 0.152,0.0828 0.0302,0.014 0.0518,0.022 0.072,0.0316 0,1.6e-4 0,2e-4 -0.02,-5.2e-4 -0.91778,-0.0424 0.36418,0.2113 -0.58018,0.018 -0.02,-0.016 -0.0238,-0.0326 -0.0482,-0.0628 -0.02,-0.0314 -0.046,-0.063 -0.064,-0.0974 -0.0202,-0.0374 -0.0338,-0.0792 -0.0518,-0.1182 -0.082,-0.1736 -0.0482,-0.0592 -0.084,-0.23474 -0.0202,-0.0276 -0.0482,-0.012 -0.0402,0.018 0.036,0.1222 0.0302,0.1154 0.088,0.23668 0.036,0.0748 0.078,0.1464 0.114,0.22094 0,0.004 0,0.016 0.02,0.0256 -0.066,-0.014 -0.082,-0.018 -0.148,-0.0312 -0.074,-0.016 -0.21458,-0.0838 -0.27618,-0.16 0,-0.004 0,-0.008 0,-0.016 -0.0202,-0.0256 -0.0202,-0.049 -0.026,-0.074 -0.02,-0.0498 -0.02,-0.1054 -0.02,-0.1566 -0.0202,-0.0764 -0.098,-0.0446 -0.086,0.0314 0.0202,0.0496 0.0338,0.0962 0.0402,0.1488 0,0.02 0,0.045 0,0.0676 0,-0.001 0,-0.002 0,-0.002 0,-0.006 0,-0.012 0,-0.02 -0.046,-0.12 0,-0.031 -0.076,-0.1572 -0.0202,-0.0274 -0.044,-0.004 -0.0322,0.0242 0.02,0.0352 0.0238,0.0648 0.028,0.0672 -0.112,-0.124 -0.0498,-0.0382 -0.15,-0.1726 -0.0202,-0.014 -0.036,0.014 -0.0202,0.0304 0.0322,0.0208 0.062,0.0376 0.09,0.0666 0.0338,0.0358 0.058,0.0816 0.088,0.1244 0,0.006 0.0202,0.012 0.0202,0.02 0,0.004 0,0.016 0,0.026 0,0.018 0.0202,0.0264 0.028,0.026 0,0.016 0.0202,0.0336 0.0302,0.0478 0,0 2.2e-4,5.2e-4 2.2e-4,5.2e-4 -0.0402,-0.012 -0.084,-0.016 -0.128,-0.0238 -0.084,-0.012 -0.186,-0.0664 -0.194,-0.1906 0,-0.0386 0,-0.0774 0,-0.1154 0,-0.002 0,-0.006 0.02,-0.008 0.074,-0.1408 0.036,-0.064 0.132,-0.30712 0,-0.014 0,-0.016 0,-0.006 -0.094,0.1662 -0.092,0.1692 -0.124,0.20474 0.02,-0.0478 0.028,-0.0936 0.036,-0.1412 0.044,-0.22906 0,-0.0652 0.038,-0.1988 -2.2e-4,-0.002 -0.144,-0.30446 -0.18,0.014 0,0.116 0,-0.014 -0.02,0.1692 0,0.0618 0,0.1246 -0.0202,0.1868 0,0.01 -4.2e-4,0.016 0,0.026 0,-0.0508 0,-0.0276 -0.0222,-0.1714 0,-0.045 0,-0.091 0,-0.134 -0.02,-0.0812 -0.0338,-0.1392 -0.054,-0.21208 0,-0.021 -0.038,-0.002 -0.028,0.02 0.0202,0.0276 0.0238,0.0536 0.0302,0.0836 0,0.038 0.0202,0.0778 0.0202,0.118 0.02,0.0834 0.02,0.1688 0,0.2561 -0.0202,-0.0686 0.02,-0.0264 -0.064,-0.1012 -0.054,-0.0634 -0.14,0.0414 -0.084,0.1058 0.044,0.0402 0.0518,0.0406 0.088,0.1134 0.0202,0.04 0.0302,0.085 0.0482,0.1266 0,0.002 0,0.002 0,0.004 -0.02,-0.0318 -0.038,-0.0668 -0.056,-0.0944 -0.026,-0.0366 -0.0482,-0.0768 -0.07,-0.1134 -0.066,-0.1072 -0.0518,-0.0656 -0.07,-0.1434 -0.028,-0.039 -0.08,0.014 -0.0518,0.0528 0.02,0.004 0.028,0.006 0.038,0.016 0.072,0.0724 0.078,0.1102 0.122,0.21368 0,0.008 0,0.02 0.02,0.026 0.0202,0.0822 -0.0418,0.0706 -0.086,0.0446 -0.0418,-0.0276 -0.1,-0.0974 -0.144,-0.1308 -0.066,-0.0688 -0.11,-0.1208 -0.19,-0.22278 0,-10e-4 0,-0.002 -1.6e-4,-0.002 1.6e-4,-0.0624 0,-0.1226 0,-0.184 0,-0.066 0,-0.1322 0.0202,-0.1978 0,-0.031 -0.036,-0.0284 -0.0382,0.002 0,0.0644 0,0.1292 -0.02,0.194 0,0.026 0,0.0628 -0.02,0.1008 -0.0418,-0.0596 -0.076,-0.1082 -0.092,-0.1376 0,0.002 0,0.006 0,0.002 0.0322,0.0456 0.064,0.0894 0.096,0.1344 0,0.0418 -0.0202,0.0846 -0.0222,0.1216 -0.104,-0.0926 -0.20002,-0.1882 -0.2876,-0.2849 -0.056,-0.059 -0.104,-0.1402 -0.058,-0.1698 0.0202,-0.004 0.026,-0.012 0.0402,-0.014 0.094,-0.0294 0.188,-0.0434 0.27824,-0.0696 0.064,-0.014 0.06,-0.1144 0,-0.101 -0.1,0.008 -0.20024,0.002 -0.30466,0.012 -0.02,5.2e-4 -0.0318,0.004 -0.0518,0.012 0,-0.002 0,-0.006 0,-0.008 0.23378,-0.30802 -0.112,0.1594 0.21998,-0.29262 -0.072,0.075 -0.14,0.154 -0.21522,0.21812 0,-0.008 0.0202,-0.0208 0.0222,-0.0362 0.092,-0.1516 0.062,-0.0942 0.122,-0.21934 0.044,-0.1096 -0.084,-0.1522 -0.13,-0.0432 0,0.02 0,0.0456 0,0.0678 -0.02,0.0444 -0.0482,0.0842 -0.074,0.1244 -0.06,0.093 -0.076,0.1164 -0.108,0.1492 -2.2e-4,-0.002 0,-0.002 0,-0.004 0,-0.012 0,-0.0272 0,-0.0398 0.02,-0.1234 0.038,-0.2449 0.0518,-0.36646 0,-0.0498 0,-0.0976 0.0202,-0.1464 0,-0.01 -0.0202,-0.01 -0.0202,5.2e-4 0,0.0478 0,0.096 0,0.1448 0,0.0756 -0.02,0.1528 -0.036,0.22896 0,0.0276 -0.0202,0.0472 -0.0202,0.0704 0,-0.0332 -0.0202,-0.0648 -0.0202,-0.0978 0,-0.0452 0,-0.0936 0,-0.1388 -0.02,-0.0622 -0.026,-0.1216 -0.038,-0.1826 0,-0.0438 0,-0.0876 -0.02,-0.1316 0,-0.0418 -0.066,-0.02 -0.058,0.0246 0.02,0.0396 0.026,0.0788 0.0418,0.1176 0.02,0.1912 0.02,0.14 0.0222,0.32368 0,0.01 0,0.133 0,0.1722 -0.02,-0.026 -0.02,-0.0584 -0.0302,-0.0826 -2.2e-4,-10e-4 -2.2e-4,-0.002 -4.2e-4,-0.002 0,-0.008 -0.0202,-0.02 -0.0202,-0.0284 0,-0.016 -0.02,-0.0322 -0.0238,-0.0502 -0.0202,-0.0376 -0.046,-0.0756 -0.066,-0.1156 -0.026,-0.0586 -0.0482,-0.1214 -0.074,-0.1802 -0.02,-0.0328 -0.046,-0.0976 -0.072,-0.1544 0.0498,0.1158 0.088,0.21834 0.126,0.34518 0.02,0.0444 0.02,0.0906 0.0322,0.1356 -0.054,-0.0626 -0.108,-0.1248 -0.158,-0.191 -0.074,-0.0522 -0.148,-0.1182 -0.22118,-0.1884 -0.026,-0.0254 -0.058,-0.0744 -0.07,-0.1276 -0.0498,-0.2509 -0.082,-0.50218 -0.1,-0.75138 -3.8e-4,-0.002 0,-0.002 0,0.002 0.02,0.21132 0.06,0.46992 0.072,0.69288 0,0.027 0,0.0512 0,0.077 -0.0202,-0.014 -0.0498,-0.0504 -0.064,-0.0654 -0.026,-0.0254 -0.0482,-0.0782 -0.068,-0.1226 0,0 -2.2e-4,-5.2e-4 -2.2e-4,-5.2e-4 -0.02,-0.0344 -0.026,-0.0672 -0.038,-0.102 -0.02,-0.0572 -0.0322,-0.1158 -0.0498,-0.1734 0,-0.026 -0.0202,-0.0684 -0.028,-0.0932 0.0238,0.1148 0.0338,0.23362 0.046,0.3535 -0.028,-0.0312 -0.058,-0.0752 -0.078,-0.1338 -0.026,-0.121 -0.0482,-0.22236 -0.062,-0.29234 0.02,-0.004 0.02,-0.0204 0.02,-0.0412 0,-0.02 -0.02,-0.0448 -0.02,-0.0682 0,-0.02 0,-0.0434 0,-0.0666 0.02,0.0328 0.0318,0.066 0.0482,0.1008 -0.0202,-0.0502 -0.0238,-0.0902 -0.0302,-0.1184 0,-0.01 -0.02,-0.012 -0.02,-0.006 0,-0.05 0.02,-0.0998 0.02,-0.1434 0.0222,-0.20378 0,-0.1216 0.056,-0.291 2e-4,-4e-4 -0.026,-0.051 -0.036,-0.004 0,0.0426 0,0.0854 -0.0202,0.128 0,0.055 -0.028,0.1086 -0.0402,0.1638 -0.0202,0.0442 -0.0202,0.0884 -0.0238,0.1336 0,0.01 0,0.012 0,0.014 -0.0202,-0.103 -0.0338,-0.20602 -0.0518,-0.30764 -0.066,-0.36314 -0.086,-0.49746 -0.094,-0.54634 0,-0.0646 0,-0.0406 -0.0202,-0.1534 -0.0202,-0.0478 -0.0238,-0.0938 -0.0338,-0.141 -0.062,-0.1282 -0.26098,-0.0324 -0.198,0.0954 0.026,0.0284 0.0502,0.0594 0.076,0.088 0.194,0.55038 0.0482,0.036 0.162,0.68146 0.046,0.25942 0.108,0.45098 0.144,0.69656 0,-0.02 -0.0202,-0.0384 -0.0202,-0.0696 -0.0238,-0.076 -0.0518,-0.1504 -0.074,-0.22686 0.0202,0.0482 0.0202,0.0994 0.0482,0.23376 0.02,0.0348 0.02,0.0684 0.0238,0.1028 -0.0418,-0.0336 -0.084,-0.0808 -0.12,-0.149 -0.0202,-0.0376 -0.0302,-0.0758 -0.046,-0.1136 -0.194,-0.52158 0.02,-2.4e-4 -0.114,-0.3417 -0.0302,-0.0594 -0.1,-0.0434 -0.124,6e-5 -0.0302,-0.09 -0.056,-0.1744 -0.072,-0.23308 -2.2e-4,-10e-4 0,-10e-4 0,5.2e-4 0.02,0.0652 0.0302,0.1304 0.0482,0.1956 0,0.02 0.0202,0.0416 0.0202,0.0622 0,0.012 0,0.027 0,0.042 0,10e-4 0,5.2e-4 0,0.002 0.02,0.0256 0.02,0.0476 0.0238,0.0724 0.038,0.1316 0.0322,0.1196 0.056,0.23976 0.026,0.0492 0.094,0.012 0.068,-0.0392 -0.0202,-0.026 -0.0238,-0.0498 -0.036,-0.0732 -0.026,-0.0432 -0.0482,-0.0878 -0.068,-0.134 0,-0.014 -0.0202,-0.0302 -0.0202,-0.046 0.026,0.018 0.0518,0.035 0.068,0.0606 0.0518,0.0896 0.088,0.23468 0.122,0.35332 -0.026,-0.01 -0.0482,-0.018 -0.07,-0.0292 -0.0202,-0.006 -0.0498,-0.004 -0.068,-0.002 -0.0202,-0.0226 -0.0318,-0.0434 -0.046,-0.0678 0,-0.02 -0.0202,-0.0374 -0.0318,-0.0568 0.0238,0.0496 0.0402,0.0792 0.062,0.125 0,0 -0.5988,-0.70346 -0.9334,-1.245 0,-0.004 -0.02,-0.002 -0.02,-0.006 -0.14,-0.474 -0.22722,-0.91876 -0.22464,-1.33424 0,-0.0698 0,-0.1224 0,-0.1726 -2.2e-4,-0.002 0,-0.0254 0,-0.0274 0.0202,-0.012 0.0202,-0.018 0.0322,-0.05 0.0202,-0.0274 0,-0.22328 0.0238,-0.46212 0.076,-0.38256 0.046,0.1122 0.068,0.53896 0,0.0826 0.02,0.1654 0.02,0.24892 0,-0.073 0,-0.1564 -0.02,-0.24878 -0.0202,-0.49756 0.028,-1.28016 0.36184,-2.19798 0.25898,-0.65584 0.62918,-1.2671 1.09438,-1.79186 0.2206,-0.24964 0.4636,-0.48052 0.72522,-0.68876 0.81618,-0.69618 1.3146,-0.88668 1.38238,-0.95842 0.0418,-0.0454 -0.23378,-0.014 -0.80538,0.29346 -0.0202,-0.012 -0.0338,-0.02 0,-0.0566 -0.4082,0.24608 -0.78856,0.53704 -1.1302,0.86686 0.40122,-0.37208 0.80244,-0.63218 1.131,-0.80894 0.038,0.014 0.06,0.0286 -0.2782,0.28942 -0.4738,0.37094 -0.92318,0.6552 -1.00822,0.73782 -0.06,0.059 -0.12,0.1194 -0.178,0.1802 -0.166,0.1746 -0.32164,0.35822 -0.46682,0.5483 0.136,-0.1988 0.2832,-0.3889 0.44156,-0.57024 0.112,-0.1298 0.23144,-0.25416 0.35604,-0.37296 -0.122,0.1116 -0.24358,0.2352 -0.3608,0.36918 -0.24058,0.26626 -0.46602,0.57018 -0.66802,0.90924 -0.074,0.1136 -0.146,0.23062 -0.21478,0.34978 0.2306,-0.45224 0.51858,-0.88378 0.86438,-1.27554 0.7518,-0.85216 1.70302,-1.43398 2.65284,-1.75328 0.136,-0.043 0.27356,-0.0818 0.41416,-0.117 0.22984,-0.051 0.90022,-0.1016 1.384,-0.1268 0.0302,-0.002 0.066,-0.004 0.102,-0.004 1.12522,-0.0468 1.57918,0.1202 1.70942,0.127 0.128,0.004 -0.06,-0.0708 -0.25042,-0.1304 -0.188,-0.0588 -0.36984,-0.0972 -0.196,-0.059 0,0.002 0.8808,0.1718 1.81342,0.7071 0.938,0.45444 1.08322,0.69674 1.12616,0.76454 0.06,0.097 -0.066,10e-4 0.21002,0.26432 0.0202,0.02 0.0418,0.0406 0.066,0.0636 0.37338,0.35648 0.13,0.0618 0.2896,0.2062 0.082,0.0726 0.21738,0.22888 0.33942,0.37582 1.38254,1.76198 1.36794,3.12182 1.44578,3.2605 0.078,0.1386 0.2856,-0.91918 -0.7294,-2.68506 0.054,-0.004 -0.24262,-0.7367 -1.0976,-1.55946 -0.068,-0.0654 -0.14,-0.1294 -0.2134,-0.1966 0.074,0.0606 0.15,0.1212 0.225,0.1844 0.114,0.1004 0.22918,0.20678 0.3432,0.32056 -0.106,-0.117 -0.21462,-0.22874 -0.3268,-0.33798 -0.95376,-0.91542 -2.18312,-1.5351 -3.48694,-1.77066 -0.46922,-0.0846 -0.93744,-0.1216 -1.39642,-0.1096 -0.75682,0.0204 -1.5664,0.1744 -2.3678,0.5169 -0.9244,0.39506 -1.74736,0.99924 -2.4002,1.75308 -0.32438,0.37562 -0.60536,0.7862 -0.841,1.2215 -0.0302,-0.006 0.22462,-0.6341 -0.096,-0.012 -0.37718,0.73254 -0.47,1.36934 -0.5608,1.90074 -0.064,0.37176 -0.118,0.82372 -0.118,1.37142 0,0.197 0,0.38002 0.0202,0.55192 0.12,1.96198 0.488,2.2325 0.55324,2.43058 0,0.012 0,0.026 0.0202,0.036 -0.082,-0.0964 -0.166,-0.1924 -0.23976,-0.29806 -0.076,-0.112 -0.132,-0.23436 -0.198,-0.3525 -0.056,-0.1008 -0.114,-0.2011 -0.166,-0.30264 -0.06,-0.1194 -0.116,-0.23994 -0.172,-0.36162 -0.044,-0.098 -0.162,-0.0394 -0.118,0.058 0.056,0.127 0.11,0.2554 0.176,0.37754 0.12,0.2216 0.28358,0.41436 0.41922,0.6255 0.086,0.1348 0.164,0.2775 0.24938,0.4131 0.08,0.1272 0.136,0.197 0.21696,0.3241 -0.02,-0.014 -0.0302,-0.0314 -0.046,-0.0482 -0.088,-0.1024 -0.144,-0.1942 -0.22258,-0.3071 -0.144,-0.20344 -0.072,-0.081 -0.168,-0.2565 -0.0202,-0.02 -0.0202,-0.0348 -0.0238,-0.0536 -0.028,-0.045 -0.084,-0.012 -0.054,0.037 0.0202,0.014 0.0338,0.0254 0.0482,0.037 0.026,0.0368 0.0482,0.0738 0.072,0.11 0.0322,0.0498 0.066,0.098 0.1,0.1468 0.2786,0.38922 -0.028,-0.0386 0.22642,0.3071 0.0238,0.0334 0.0518,0.066 0.076,0.0992 0.066,0.1556 0.106,0.32764 0.112,0.38692 0,0.0404 0.0202,0.073 0.0202,0.103 -0.0498,-0.0486 -0.096,-0.0992 -0.146,-0.1486 -0.146,-0.1552 -0.2142,-0.22846 -0.379,-0.42774 -0.0202,-0.012 -0.0222,1.6e-4 -0.0202,0.012 0.054,0.072 0.28422,0.37246 0.35402,0.45546 0.0482,0.0572 0.1,0.111 0.146,0.1696 0.02,0.018 0.064,0.09 0.11,0.1536 0,0.008 0,0.02 0,0.0344 0.0318,0.0314 0.068,0.0586 0.096,0.0936 0.082,0.1048 0.33078,0.46152 0.4036,0.571 0,0.008 0,0.02 0.02,0.0284 -0.0402,-0.0274 -0.08,-0.0514 -0.12,-0.0768 -0.036,-0.0218 -0.072,-0.0458 -0.108,-0.0682 -0.082,-0.06 -0.138,0.0458 -0.054,0.107 0.036,0.0284 0.07,0.0594 0.108,0.0834 0.046,0.029 0.096,0.0498 0.144,0.0784 0.02,0.016 0.038,0.0266 0.056,0.0384 -0.02,-5.2e-4 -0.02,-0.004 -0.028,-0.001 -0.0402,-0.006 -0.08,-0.016 -0.12,-0.0218 -0.096,-0.0214 -0.146,-0.0474 -0.24078,-0.0864 -0.0402,-0.018 -0.08,-0.0398 -0.118,-0.0612 -0.0322,-0.02 -0.046,0.024 -0.02,0.0436 0.0418,0.02 0.082,0.0404 0.122,0.0596 0.02,0.012 0.0402,0.0276 0.062,0.0392 -0.30156,-0.0932 -0.49776,-0.21742 -0.83758,-0.44104 -0.0418,-0.0276 -0.058,0.0332 -0.0202,0.0582 0.152,0.094 0.3016,0.1906 0.4582,0.26566 0.20004,0.0952 0.409,0.16 0.60764,0.23526 0.078,0.0294 0.138,0.0514 0.192,0.072 0.186,0.0928 0.2794,0.1654 0.3602,0.2543 0.128,0.1404 0.2896,0.28784 0.47318,0.42896 -0.044,-0.012 -0.09,-0.0222 -0.126,-0.0334 -0.062,-0.016 -0.124,-0.0372 -0.184,-0.0618 -0.0482,-0.02 -0.33798,-0.1606 -0.38324,-0.1842 -0.0402,-0.0324 -0.08,-0.0662 -0.118,-0.1016 -0.0318,-0.021 -0.0518,0.014 -0.0202,0.0366 0.044,0.0284 0.09,0.0502 0.136,0.0748 0.066,0.036 0.128,0.0724 0.194,0.105 0.132,0.066 0.24198,0.1098 0.37618,0.1598 0.056,0.02 0.112,0.0424 0.168,0.0598 0.0202,0.006 0.0402,0.012 0.062,0.016 0.235,0.1696 0.4872,0.3175 0.74062,0.43546 -0.122,-0.0286 -0.24342,-0.0672 -0.3646,-0.106 -0.156,-0.0482 -0.31342,-0.0984 -0.46958,-0.1556 0.19,0.0822 0.31876,0.1348 0.42338,0.1766 -0.082,-0.02 -0.088,-0.018 0.30438,0.118 -0.0202,0.004 -0.0382,0.01 -0.058,0.014 -0.074,0.014 -0.146,0.0344 -0.22336,0.036 -0.09,5.2e-4 -0.184,-0.016 -0.2778,-0.0258 0,8e-5 0,0.006 0,0.004 0.094,0.012 0.186,0.0216 0.27776,0.0258 0.08,0.002 0.16,-0.008 0.23802,-0.008 0.0202,-2.4e-4 0.0302,-0.002 0.0482,1.6e-4 0.084,0.041 0.168,0.079 0.252,0.1164 -0.0202,0.004 -0.028,0.014 -0.0418,0.016 -0.116,0.0382 -0.19,0.06 -0.23364,0.0704 0.106,-0.024 0.21278,-0.047 0.3212,-0.0672 0.044,0.0202 0.09,0.0388 0.138,0.0578 -0.044,-0.0202 -0.09,-0.0386 -0.134,-0.0578 0.0338,-0.01 0.07,-0.014 0.104,-0.018 0.06,-0.01 0.11,-0.012 0.168,-0.012 0,-8e-5 0,-2e-4 0.02,5.2e-4 0.0202,0.006 0.0338,0.01 0.0482,0.018 0.124,0.0354 0.234,0.0966 0.34402,0.162 -0.046,0.014 -0.086,0.0244 -0.102,0.026 -0.0202,0.004 -0.06,0.004 -0.108,0.008 -0.108,-0.037 -0.21276,-0.0756 -0.31738,-0.1178 0.1,0.0414 0.20176,0.082 0.30438,0.118 -0.152,0.008 -0.2946,-2.6e-4 -0.369,-0.002 -0.0338,-0.004 -0.0202,0.043 0,0.0454 0.088,0.006 0.174,0.0214 0.2602,0.0202 0.084,10e-4 0.166,-0.008 0.2476,-0.014 0,-2.8e-4 0,-5.2e-4 0,-0.002 0.02,0.002 0.02,0.006 0.028,0.012 0,5.2e-4 0.02,10e-4 0.02,0.006 0,-5.2e-4 -0.02,-0.004 -0.02,-0.006 0,-0.002 -0.0202,-0.002 -0.0202,-0.006 0.09,-0.008 0.148,-0.018 0.172,-0.0226 0.06,0.0346 0.12,0.0692 0.184,0.0976 -0.12,-0.012 -0.2522,-0.0444 -0.31898,-0.0628 0.084,0.0288 0.21298,0.081 0.34518,0.1158 0.036,-5.2e-4 0.07,-0.002 0.098,-0.004 0,-4.2e-4 0,-5.2e-4 0,-0.002 0.02,-0.004 0.164,-0.0252 0.2506,-0.0212 0.038,0.002 0.094,0.004 0.14,0.008 0,5.2e-4 0,0.002 -0.0202,0.004 -0.07,0.0406 -0.09,0.057 -0.092,0.0628 -0.102,0.0432 -0.20882,0.0794 -0.32042,0.1066 -0.0202,0.004 -0.036,0.012 -0.056,0.012 0.0202,-0.002 0.0402,-0.004 0.056,-0.01 0.078,-0.014 0.12,-0.018 0.158,-0.028 -0.0202,0.0292 0.02,0.0654 0.064,0.0488 0.054,-0.018 3.8e-4,0.002 0.072,-0.042 0.0222,-0.014 0.0482,-0.0248 0.068,-0.0398 0,-0.002 0,-0.006 0.0202,-0.012 -0.25798,0.066 0.3032,-0.0776 0.046,-0.012 0.0202,-0.004 0.0202,-5.2e-4 0.028,-0.012 -0.02,0.0286 -0.02,0.0386 -0.0222,0.0578 0,0.004 -0.0202,0.008 -0.0222,0.014 -0.092,0.052 -0.188,0.098 -0.28838,0.1366 0.078,-0.0246 0.156,-0.0448 0.2314,-0.0698 -0.028,0.02 -0.064,0.052 -0.114,0.0882 -0.3664,0.27244 -0.25162,0.147 -0.21204,0.1074 -0.026,0.0254 -0.104,0.0954 -0.24718,0.22464 0,0.006 -0.0202,0.01 -0.0318,0.018 -0.046,0.0206 -0.0338,0.0688 0,0.1002 0.026,0.016 0.06,0.016 0.092,-0.012 0.58558,-0.38738 0.0302,-0.016 0.48858,-0.35018 0.0418,-0.0312 0.088,-0.059 0.132,-0.0884 0,0.006 0,0.012 0,0.016 0,0.0276 -0.0202,0.0484 -0.0302,0.0736 -0.026,0.0918 -0.0202,0.0478 -0.0418,0.1364 -0.0202,0.0444 0.064,0.0522 0.072,0.006 0.0402,-0.1998 -0.0202,0.077 0.0402,-0.1294 0,-0.0276 0,-0.0504 0.02,-0.0746 0.0202,-0.0328 0.0202,-0.0626 0.036,-0.0912 0,-10e-4 0,-0.004 0.0202,-0.012 0.0502,-0.0422 0.086,-0.0974 0.136,-0.1388 0.0302,-0.016 0.064,-0.0302 0.096,-0.0392 -0.0222,0.0502 -0.064,0.1416 -0.074,0.1828 0,0.012 0,0.1124 0,0.1318 0,0.012 -0.02,0.0254 -0.02,0.0334 0,0.0426 0.086,0.0722 0.092,5.2e-4 0,-0.006 0,-0.0276 0,-0.0358 0,-0.018 0,-0.0348 0,-0.0528 0,-0.0532 0,-0.1096 0.0202,-0.1614 0.02,-0.0366 0.02,-0.0744 0.0338,-0.1096 1.6e-4,-4e-4 0,-10e-4 1.6e-4,-10e-4 0.20002,-0.045 0.4154,-0.008 0.46942,-0.004 0.23162,-0.008 0.4408,-0.1066 0.63738,-0.22332 -0.074,0.0582 -0.164,0.1112 -0.22738,0.1506 -0.0418,0.0274 -0.084,0.0508 -0.126,0.0754 0.0418,-0.0254 0.086,-0.048 0.13,-0.0708 0.21416,-0.1108 0.27638,-0.1396 0.2874,-0.1416 0,-0.002 0.0202,-0.01 0.0202,-0.01 -0.078,0.1032 -0.20204,0.2662 -0.2046,0.2699 -0.068,0.0848 -0.138,0.1676 -0.2076,0.25216 0,0.002 0,0.002 0,5.2e-4 z m -0.028,-0.29878 c -0.068,0.0392 -0.138,0.0782 -0.2076,0.1168 0,-10e-4 0,0.002 0,0.002 0.068,-0.0398 0.138,-0.0798 0.2058,-0.1198 z m -1.47702,0.24228 c -0.0482,0.014 -0.094,0.026 -0.144,0.0396 -0.044,0.012 -0.088,0.0262 -0.134,0.039 -0.054,-2e-4 -0.11,-0.002 -0.166,-0.006 0.054,0.006 0.108,0.012 0.164,0.014 0.046,-0.012 0.092,-0.026 0.138,-0.0384 0.0482,-0.014 0.094,-0.0304 0.14,-0.0486 z m -0.44116,0.0744 c -0.082,-0.008 -0.166,-0.0208 -0.2494,-0.0354 0.07,0.014 0.14,0.0232 0.20998,0.0316 0.0202,0.001 0.028,0.001 0.0402,0.002 z m -0.2494,-0.0354 c -0.028,-0.006 -0.058,-0.012 -0.086,-0.016 0,4.4e-4 0,0.002 0,0.002 0.028,0.006 0.058,0.012 0.086,0.014 z m 0.51678,-0.1494 c 0,-0.002 -0.064,0.012 -0.06,0.01 -0.09,-0.012 -0.18,-0.0214 -0.26882,-0.0362 0,0 -3.8e-4,5e-4 -3.8e-4,5e-4 0.088,0.016 0.18,0.0294 0.26798,0.037 0.02,-0.004 0.0402,-0.01 0.06,-0.012 z m -2.23958,-4.70528 c 0.02,0.051 0.0302,0.1024 0.0418,0.147 0,-0.0378 -0.0202,-0.0752 -0.028,-0.1122 0,-0.012 -0.02,-0.0256 -0.02,-0.0364 z m 0.61916,0.71082 c 0,-0.016 -0.02,-0.0274 -0.02,-0.0428 -0.02,-0.0364 -0.0338,-0.07 -0.0498,-0.104 0.0202,0.045 0.044,0.0946 0.068,0.1472 z m -0.068,-0.1472 c -0.0202,-0.02 -0.0202,-0.039 -0.0238,-0.0536 0,-0.001 0,0 0,10e-4 0.02,0.02 0.02,0.0346 0.026,0.0522 z m 8.64822,1.47484 c 0.08,-0.0264 0.35358,-0.2922 0.80316,-0.9557 1.2202,-1.79696 0.90562,-1.9155 0.81524,-1.65406 -0.09,0.26134 -0.18,0.75332 0.116,-0.4939 -0.138,0.36958 -0.2692,0.49318 -0.321,0.569 -0.4344,1.2215 -1.065,1.99782 -1.34044,2.3529 -0.096,0.1254 -0.12,0.197 -0.072,0.1818 z m 1.73376,-3.10388 c 0.092,-0.24576 0.26744,-0.8173 0.26824,-1.63072 0,-0.6465 -0.114,-1.61876 -0.6294,-2.69076 -0.33904,-0.70594 -0.7666,-1.26892 -1.19544,-1.7023 0.37544,0.4172 0.7032,0.88958 0.97202,1.40504 0.6058,1.16128 0.7546,2.2494 0.76582,2.9902 0,0.71008 -0.1,1.28744 -0.18,1.62854 z m -9.7534,5.22372 c -0.082,-0.0366 -0.164,-0.0752 -0.24458,-0.1154 0.0302,-4.4e-4 0.054,2.4e-4 0.082,-5.2e-4 0.0202,2.8e-4 0.028,-0.001 0.036,-0.002 0.088,0.0278 0.176,0.0472 0.26516,0.0648 -0.0482,0.018 -0.094,0.037 -0.138,0.0546 z m -0.47338,0.1242 c -0.028,0.006 -0.072,0.012 -0.12,0.016 0,3.8e-4 0,0.002 0,0.002 0.0402,-0.004 0.08,-0.012 0.118,-0.018 z m 2.89162,-2.01852 c 0.028,-0.012 0.0418,-0.05 0.0202,-0.0678 -0.082,-0.0366 -0.0202,-0.006 -0.106,-0.0518 -0.02,-0.004 -0.028,-0.014 -0.0402,-0.023 0,-0.002 -0.02,-0.002 -0.02,-0.002 -0.036,5e-4 -0.058,0.0502 -0.0202,0.0688 0.0202,10e-4 0.028,0.006 0.0402,0.014 0.0202,0.012 0.0318,0.0212 0.0498,0.0352 0.0338,0.018 0.0202,0.012 0.0498,0.0256 0,0.006 0.0202,0.006 0.0322,0.002 z m -1.42044,-0.0674 c -3.6e-4,-0.001 -3.6e-4,-0.001 0,-0.002 0,-3.4e-4 0,-5.2e-4 0,-5.2e-4 -2e-4,10e-4 -4.2e-4,0.002 0,0.002 z m -0.411,-0.006 c -0.058,-0.043 -0.132,-0.0986 -0.136,-0.169 0,-0.016 0,-0.0274 0,-0.0444 0.0402,0.055 0.082,0.111 0.098,0.139 0.0202,0.0202 0.026,0.048 0.0338,0.0744 z m -2.48438,0.2216 c 0,-0.004 -0.0202,-0.012 -0.0202,-0.014 -0.08,-0.092 -0.158,-0.1866 -0.23176,-0.2836 -0.154,-0.2 -0.176,-0.22834 -0.20442,-0.28134 0.0202,0.002 0.0202,0.006 0.028,0.006 0.068,0.079 0.156,0.1846 0.29178,0.34442 0.044,0.0766 0.088,0.1526 0.134,0.22886 z m -0.43842,-0.0438 c 0.036,0.001 0.0518,-0.0438 0.0202,-0.0808 0,-0.002 0,-0.006 -0.0202,-0.012 -0.02,-0.012 -0.0338,-0.02 -0.0502,-0.0342 -0.028,-0.02 -0.0518,-0.0404 -0.08,-0.0572 -0.038,-0.0268 -0.08,-0.0468 -0.118,-0.071 -0.026,-0.0212 -0.044,0.012 -0.02,0.0322 0.036,0.0328 0.072,0.0642 0.108,0.097 0.174,0.1634 -0.02,-0.002 0.11,0.1018 0.0202,0.014 0.026,0.02 0.0402,0.018 z m 0.95304,-2.41596 c -0.0238,-0.0792 -0.044,-0.1582 -0.064,-0.23752 0,-0.004 0,-0.002 0,0.002 0.036,0.134 0.056,0.1888 0.07,0.23574 z m -0.41482,-0.077 c -0.096,-0.1942 -0.126,-0.26876 -0.138,-0.29186 0,0.004 0,0.008 0,0.016 0.0418,0.093 0.086,0.1848 0.132,0.2756 z m -0.138,-0.29186 c -0.066,-0.1462 -0.118,-0.27776 -0.174,-0.42274 0,-0.004 -0.02,-10e-4 0,0.006 0.0238,0.061 0.044,0.1222 0.07,0.182 0.2122,0.49396 0.086,0.175 0.114,0.23682 z m -0.8134,0.50114 c 0,-0.008 0,-0.02 -0.02,-0.0274 -0.22622,-0.54912 -0.46042,-1.1573 -0.54102,-1.78984 -0.058,-0.4489 0.056,0.1684 0.0238,-0.27406 -0.0202,-0.198 -0.0222,-0.38252 -0.0202,-0.55132 0.0202,-1.43276 0.178,-1.83046 0.23458,-1.90112 0.0202,-0.062 0.0518,-0.1314 0.20702,-0.47342 -0.35598,0.95654 -0.33738,1.64112 -0.29898,1.75762 0,-0.0866 0,-0.171 0,-0.25724 0,-0.1986 0.116,-0.72042 0.31422,-1.23456 0.18,-0.46606 0.36402,-0.78622 0.224,-0.44788 -0.25378,0.6123 -0.44718,1.27014 -0.52918,1.9591 0,6e-5 0,-0.018 0,-0.021 0,0.031 0,0.0568 0,0.0816 0,-0.018 0,-0.0394 0,-0.0578 0,0.002 0.0202,10e-4 0.0222,-0.018 0.0202,-0.0318 0.0338,-0.1392 0.06,-0.26888 -0.0322,0.22006 -0.0482,0.43462 -0.056,0.64242 -0.02,-0.0736 -0.0238,-0.163 -0.0322,-0.28808 -0.0202,0.1746 -0.0322,0.35036 -0.036,0.52756 0,0.1832 0,0.36734 0.0202,0.55124 0.0482,0.6336 0.194,1.2608 0.42544,1.8585 0,0.0774 0,0.1552 0,0.2325 z m -0.31458,-4.5434 c -0.036,0.0932 -0.02,0.0566 0.02,0.006 0,-0.0222 0,-0.0274 -0.02,-0.006 z m 1.67338,3.75536 c 0,-0.002 -0.0202,-0.1544 -0.0222,-0.23932 0,0.027 0,0.02 0,0.0622 0,0.0878 0.02,0.1826 0.02,0.1772 z m -1.18882,-0.93878 c 0.0202,0.078 -0.056,-0.2733 -0.088,-0.66116 0.028,0.37784 0.086,0.65622 0.088,0.66116 z m -0.22458,-2.33444 c 0,-0.0248 0.02,-0.0496 0.02,-0.0756 0.036,-0.1412 0.074,-0.28144 0.118,-0.4202 -0.0202,0.0716 -0.0402,0.1428 -0.058,0.21042 -0.028,0.0948 -0.0518,0.19 -0.076,0.28588 z m 0.0222,-0.1048 c 0.044,-0.21268 0.102,-0.42858 0.176,-0.6472 0.044,-0.1314 0.0202,-0.0358 0,0.0412 -0.068,0.198 -0.126,0.40034 -0.172,0.60588 z" />
    <rect
       style="fill:#666666;stroke:none;stroke-width:0.13229167;stroke-linecap:round;paint-order:fill markers stroke;fill-opacity:1;stroke-opacity:1;stroke-miterlimit:4;stroke-dasharray:none"
       id="rect837"
       width="33.866665"
       height="33.866665"
       x="254.55977"
       y="302.47421"
       inkscape:export-filename="D:\Calcatz\Icon Pack\Adventure Narative Inspired by Arrival\GUI\Navigation Buttons\Frame\png\128px\frame_light.png"
       inkscape:export-xdpi="96"
       inkscape:export-ydpi="96" />
    <path
       d="m 270.14071,335.00153 c 0.14,-0.1676 0.272,-0.3384 0.4176,-0.50112 0.646,-0.72364 -0.0476,0.0952 0.59924,-0.62756 0.052,-0.0552 0.088,-0.112 0.136,-0.1664 0.18,-0.002 0.356,10e-4 0.53404,-0.012 0.63912,-0.04 6.20796,-1.20052 3.1624,-0.74672 -0.364,0.0556 -1.56844,0.3296 -3.166,0.38 0.136,-0.0692 0.268,-0.1396 0.4028,-0.1804 0.368,-0.024 0.74028,-0.0604 1.12308,-0.118 2.60448,-0.42108 4.27008,-1.53 4.74208,-1.889 0.5728,-0.43608 0.316,-0.3132 -0.79404,0.214 0.57128,-0.45268 -0.698,0.85708 -5.01396,1.12868 -0.6544,-0.3456 -1.05644,-1.0336 -1.3244,-1.6098 0,-0.012 0,-0.024 8.4e-4,-0.032 0,-0.0508 0,-0.1004 0,-0.1508 0,-0.0548 0.04,-0.1136 0.04,-0.1704 0.0404,-0.2176 0,-0.1048 0.0676,-0.2984 0,-0.0896 -0.132,-0.1256 -0.148,-0.008 -4.4e-4,0.0932 0,0.2052 0,0.2968 0,0.0496 -0.0404,0.1008 -0.0404,0.1512 0,-0.016 0,-0.042 -0.04,-0.0604 -0.0404,-0.0688 -0.0644,-0.1356 -0.192,-0.44724 -0.0836,-0.204 -0.136,-0.4236 -0.244,-0.61372 -0.108,-0.1912 -0.268,-0.3476 -0.396,-0.52024 -0.0404,-0.04 -0.056,-0.052 -0.0836,-0.056 -0.092,-0.012 -0.196,0.0984 -0.128,0.204 0.12,0.1656 0.264,0.3164 0.364,0.49992 0.04,0.0604 0.0636,0.1396 0.0964,0.224 -0.0404,-0.0568 -0.0676,-0.1132 -0.088,-0.146 -0.176,-0.2804 -0.072,-0.1252 -0.24,-0.368 -0.0404,-0.0428 -0.1036,0.008 -0.0676,0.0524 0.0404,0.0528 0.0676,0.1024 0.1036,0.1528 0.0476,0.0664 0.0964,0.1264 0.132,0.1988 0.0404,0.0604 0.0404,0.1316 0.0604,0.1952 0,0.024 0,0.036 0.04,0.0548 -0.04,-0.028 -0.0604,-0.0532 -0.092,-0.0696 -0.092,-0.0576 -0.2,-0.0748 -0.3,-0.114 -0.116,-0.0604 -0.216,0.114 -0.0996,0.1728 0.076,0.0416 0.164,0.0808 0.236,0.1328 0.112,0.0852 0.248,0.2268 0.328,0.3504 0,0 0,0.001 0,0.001 -0.256,-0.0604 -0.49636,-0.162 -0.74116,-0.2476 -0.5028,-0.176 -0.136,-0.028 -0.59204,-0.2244 -0.04,-0.012 -0.0644,0.0412 -0.04,0.0548 0.0964,0.032 0.188,0.0668 0.284,0.0968 0.108,0.032 0.224,0.04 0.328,0.0836 0.108,0.036 0.196,0.118 0.304,0.1656 0.0604,0.028 0.1036,0.044 0.144,0.0632 0,3.2e-4 0,4e-4 -0.04,-10e-4 -1.83556,-0.0848 0.72836,0.4226 -1.16036,0.036 -0.04,-0.032 -0.0476,-0.0652 -0.0964,-0.1256 -0.04,-0.0628 -0.092,-0.126 -0.128,-0.1948 -0.0404,-0.0748 -0.0676,-0.1584 -0.1036,-0.2364 -0.164,-0.3472 -0.0964,-0.1184 -0.168,-0.46948 -0.0404,-0.0552 -0.0964,-0.024 -0.0804,0.036 0.072,0.2444 0.0604,0.2308 0.176,0.47336 0.072,0.1496 0.156,0.2928 0.228,0.44188 0,0.008 0,0.032 0.04,0.0512 -0.132,-0.028 -0.164,-0.036 -0.296,-0.0624 -0.148,-0.032 -0.42916,-0.1676 -0.55236,-0.32 0,-0.008 0,-0.016 0,-0.032 -0.0404,-0.0512 -0.0404,-0.098 -0.052,-0.148 -0.04,-0.0996 -0.04,-0.2108 -0.04,-0.3132 -0.0404,-0.1528 -0.196,-0.0892 -0.172,0.0628 0.0404,0.0992 0.0676,0.1924 0.0804,0.2976 0,0.04 0,0.09 0,0.1352 0,-0.002 0,-0.004 0,-0.004 0,-0.012 0,-0.024 0,-0.04 -0.092,-0.24 0,-0.062 -0.152,-0.3144 -0.0404,-0.0548 -0.088,-0.008 -0.0644,0.0484 0.04,0.0704 0.0476,0.1296 0.056,0.1344 -0.224,-0.248 -0.0996,-0.0764 -0.3,-0.3452 -0.0404,-0.028 -0.072,0.028 -0.0404,0.0608 0.0644,0.0416 0.124,0.0752 0.18,0.1332 0.0676,0.0716 0.116,0.1632 0.176,0.2488 0,0.012 0.0404,0.024 0.0404,0.04 0,0.008 0,0.032 0,0.052 0,0.036 0.0404,0.0528 0.056,0.052 0,0.032 0.0404,0.0672 0.0604,0.0956 0,0 4.4e-4,10e-4 4.4e-4,10e-4 -0.0804,-0.024 -0.168,-0.032 -0.256,-0.0476 -0.168,-0.024 -0.372,-0.1328 -0.388,-0.3812 0,-0.0772 0,-0.1548 0,-0.2308 0,-0.004 0,-0.012 0.04,-0.016 0.148,-0.2816 0.072,-0.128 0.264,-0.61424 0,-0.028 0,-0.032 0,-0.012 -0.188,0.3324 -0.184,0.3384 -0.248,0.40948 0.04,-0.0956 0.056,-0.1872 0.072,-0.2824 0.088,-0.45812 0,-0.1304 0.076,-0.3976 -4.4e-4,-0.004 -0.288,-0.60892 -0.36,0.028 0,0.232 0,-0.028 -0.04,0.3384 0,0.1236 0,0.2492 -0.0404,0.3736 0,0.02 -8.4e-4,0.032 0,0.052 0,-0.1016 0,-0.0552 -0.0444,-0.3428 0,-0.09 0,-0.182 0,-0.268 -0.04,-0.1624 -0.0676,-0.2784 -0.108,-0.42416 0,-0.042 -0.076,-0.004 -0.056,0.04 0.0404,0.0552 0.0476,0.1072 0.0604,0.1672 0,0.076 0.0404,0.1556 0.0404,0.236 0.04,0.1668 0.04,0.3376 0,0.5122 -0.0404,-0.1372 0.04,-0.0528 -0.128,-0.2024 -0.108,-0.1268 -0.28,0.0828 -0.168,0.2116 0.088,0.0804 0.1036,0.0812 0.176,0.2268 0.0404,0.08 0.0604,0.17 0.0964,0.2532 0,0.004 0,0.004 0,0.008 -0.04,-0.0636 -0.076,-0.1336 -0.112,-0.1888 -0.052,-0.0732 -0.0964,-0.1536 -0.14,-0.2268 -0.132,-0.2144 -0.1036,-0.1312 -0.14,-0.2868 -0.056,-0.078 -0.16,0.028 -0.1036,0.1056 0.04,0.008 0.056,0.012 0.076,0.032 0.144,0.1448 0.156,0.2204 0.244,0.42736 0,0.016 0,0.04 0.04,0.052 0.0404,0.1644 -0.0836,0.1412 -0.172,0.0892 -0.0836,-0.0552 -0.2,-0.1948 -0.288,-0.2616 -0.132,-0.1376 -0.22,-0.2416 -0.38,-0.44556 0,-0.002 0,-0.004 -3.2e-4,-0.004 3.2e-4,-0.1248 0,-0.2452 0,-0.368 0,-0.132 0,-0.2644 0.0404,-0.3956 0,-0.062 -0.072,-0.0568 -0.0764,0.004 0,0.1288 0,0.2584 -0.04,0.388 0,0.052 0,0.1256 -0.04,0.2016 -0.0836,-0.1192 -0.152,-0.2164 -0.184,-0.2752 0,0.004 0,0.012 0,0.004 0.0644,0.0912 0.128,0.1788 0.192,0.2688 0,0.0836 -0.0404,0.1692 -0.0444,0.2432 -0.208,-0.1852 -0.40004,-0.3764 -0.5752,-0.5698 -0.112,-0.118 -0.208,-0.2804 -0.116,-0.3396 0.0404,-0.008 0.052,-0.024 0.0804,-0.028 0.188,-0.0588 0.376,-0.0868 0.55648,-0.1392 0.128,-0.028 0.12,-0.2288 0,-0.202 -0.2,0.016 -0.40048,0.004 -0.60932,0.024 -0.04,10e-4 -0.0636,0.008 -0.1036,0.024 0,-0.004 0,-0.012 0,-0.016 0.46756,-0.61604 -0.224,0.3188 0.43996,-0.58524 -0.144,0.15 -0.28,0.308 -0.43044,0.43624 0,-0.016 0.0404,-0.0416 0.0444,-0.0724 0.184,-0.3032 0.124,-0.1884 0.244,-0.43868 0.088,-0.2192 -0.168,-0.3044 -0.26,-0.0864 0,0.04 0,0.0912 0,0.1356 -0.04,0.0888 -0.0964,0.1684 -0.148,0.2488 -0.12,0.186 -0.152,0.2328 -0.216,0.2984 -4.4e-4,-0.004 0,-0.004 0,-0.008 0,-0.024 0,-0.0544 0,-0.0796 0.04,-0.2468 0.076,-0.4898 0.1036,-0.73292 0,-0.0996 0,-0.1952 0.0404,-0.2928 0,-0.02 -0.0404,-0.02 -0.0404,10e-4 0,0.0956 0,0.192 0,0.2896 0,0.1512 -0.04,0.3056 -0.072,0.45792 0,0.0552 -0.0404,0.0944 -0.0404,0.1408 0,-0.0664 -0.0404,-0.1296 -0.0404,-0.1956 0,-0.0904 0,-0.1872 0,-0.2776 -0.04,-0.1244 -0.052,-0.2432 -0.076,-0.3652 0,-0.0876 0,-0.1752 -0.04,-0.2632 0,-0.0836 -0.132,-0.04 -0.116,0.0492 0.04,0.0792 0.052,0.1576 0.0836,0.2352 0.04,0.3824 0.04,0.28 0.0444,0.64736 0,0.02 0,0.266 0,0.3444 -0.04,-0.052 -0.04,-0.1168 -0.0604,-0.1652 -4.4e-4,-0.002 -4.4e-4,-0.004 -8.4e-4,-0.004 0,-0.016 -0.0404,-0.04 -0.0404,-0.0568 0,-0.032 -0.04,-0.0644 -0.0476,-0.1004 -0.0404,-0.0752 -0.092,-0.1512 -0.132,-0.2312 -0.052,-0.1172 -0.0964,-0.2428 -0.148,-0.3604 -0.04,-0.0656 -0.092,-0.1952 -0.144,-0.3088 0.0996,0.2316 0.176,0.43668 0.252,0.69036 0.04,0.0888 0.04,0.1812 0.0644,0.2712 -0.108,-0.1252 -0.216,-0.2496 -0.316,-0.382 -0.148,-0.1044 -0.296,-0.2364 -0.44236,-0.3768 -0.052,-0.0508 -0.116,-0.1488 -0.14,-0.2552 -0.0996,-0.5018 -0.164,-1.00436 -0.2,-1.50276 -7.6e-4,-0.004 0,-0.004 0,0.004 0.04,0.42264 0.12,0.93984 0.144,1.38576 0,0.054 0,0.1024 0,0.154 -0.0404,-0.028 -0.0996,-0.1008 -0.128,-0.1308 -0.052,-0.0508 -0.0964,-0.1564 -0.136,-0.2452 0,0 -4.4e-4,-0.001 -4.4e-4,-0.001 -0.04,-0.0688 -0.052,-0.1344 -0.076,-0.204 -0.04,-0.1144 -0.0644,-0.2316 -0.0996,-0.3468 0,-0.052 -0.0404,-0.1368 -0.056,-0.1864 0.0476,0.2296 0.0676,0.46724 0.092,0.707 -0.056,-0.0624 -0.116,-0.1504 -0.156,-0.2676 -0.052,-0.242 -0.0964,-0.44472 -0.124,-0.58468 0.04,-0.008 0.04,-0.0408 0.04,-0.0824 0,-0.04 -0.04,-0.0896 -0.04,-0.1364 0,-0.04 0,-0.0868 0,-0.1332 0.04,0.0656 0.0636,0.132 0.0964,0.2016 -0.0404,-0.1004 -0.0476,-0.1804 -0.0604,-0.2368 0,-0.02 -0.04,-0.024 -0.04,-0.012 0,-0.1 0.04,-0.1996 0.04,-0.2868 0.0444,-0.40756 0,-0.2432 0.112,-0.582 4e-4,-8e-4 -0.052,-0.102 -0.072,-0.008 0,0.0852 0,0.1708 -0.0404,0.256 0,0.11 -0.056,0.2172 -0.0804,0.3276 -0.0404,0.0884 -0.0404,0.1768 -0.0476,0.2672 0,0.02 0,0.024 0,0.028 -0.0404,-0.206 -0.0676,-0.41204 -0.1036,-0.61528 -0.132,-0.72628 -0.172,-0.99492 -0.188,-1.09268 0,-0.1292 0,-0.0812 -0.0404,-0.3068 -0.0404,-0.0956 -0.0476,-0.1876 -0.0676,-0.282 -0.124,-0.2564 -0.52196,-0.0648 -0.396,0.1908 0.052,0.0568 0.1004,0.1188 0.152,0.176 0.388,1.10076 0.0964,0.072 0.324,1.36292 0.092,0.51884 0.216,0.90196 0.288,1.39312 0,-0.04 -0.0404,-0.0768 -0.0404,-0.1392 -0.0476,-0.152 -0.1036,-0.3008 -0.148,-0.45372 0.0404,0.0964 0.0404,0.1988 0.0964,0.46752 0.04,0.0696 0.04,0.1368 0.0476,0.2056 -0.0836,-0.0672 -0.168,-0.1616 -0.24,-0.298 -0.0404,-0.0752 -0.0604,-0.1516 -0.092,-0.2272 -0.388,-1.04316 0.04,-4.8e-4 -0.228,-0.6834 -0.0604,-0.1188 -0.2,-0.0868 -0.248,1.2e-4 -0.0604,-0.18 -0.112,-0.3488 -0.144,-0.46616 -4.4e-4,-0.002 0,-0.002 0,10e-4 0.04,0.1304 0.0604,0.2608 0.0964,0.3912 0,0.04 0.0404,0.0832 0.0404,0.1244 0,0.024 0,0.054 0,0.084 0,0.002 0,10e-4 0,0.004 0.04,0.0512 0.04,0.0952 0.0476,0.1448 0.076,0.2632 0.0644,0.2392 0.112,0.47952 0.052,0.0984 0.188,0.024 0.136,-0.0784 -0.0404,-0.052 -0.0476,-0.0996 -0.072,-0.1464 -0.052,-0.0864 -0.0964,-0.1756 -0.136,-0.268 0,-0.028 -0.0404,-0.0604 -0.0404,-0.092 0.052,0.036 0.1036,0.07 0.136,0.1212 0.1036,0.1792 0.176,0.46936 0.244,0.70664 -0.052,-0.02 -0.0964,-0.036 -0.14,-0.0584 -0.0404,-0.012 -0.0996,-0.008 -0.136,-0.004 -0.0404,-0.0452 -0.0636,-0.0868 -0.092,-0.1356 0,-0.04 -0.0404,-0.0748 -0.0636,-0.1136 0.0476,0.0992 0.0804,0.1584 0.124,0.25 0,0 -1.1976,-1.40692 -1.8668,-2.49 0,-0.008 -0.04,-0.004 -0.04,-0.012 -0.28,-0.948 -0.45444,-1.83752 -0.44928,-2.66848 0,-0.1396 0,-0.2448 0,-0.3452 -4.4e-4,-0.004 0,-0.0508 0,-0.0548 0.0404,-0.024 0.0404,-0.036 0.0644,-0.1 0.0404,-0.0548 0,-0.44656 0.0476,-0.92424 0.152,-0.76512 0.092,0.2244 0.136,1.07792 0,0.1652 0.04,0.3308 0.04,0.49784 0,-0.146 0,-0.3128 -0.04,-0.49756 -0.0404,-0.99512 0.056,-2.56032 0.72368,-4.39596 0.51796,-1.31168 1.25836,-2.5342 2.18876,-3.58372 0.4412,-0.49928 0.9272,-0.96104 1.45044,-1.37752 1.63236,-1.39236 2.6292,-1.77336 2.76476,-1.91684 0.0836,-0.0908 -0.46756,-0.028 -1.61076,0.58692 -0.0404,-0.024 -0.0676,-0.04 0,-0.1132 -0.8164,0.49216 -1.57712,1.07408 -2.2604,1.73372 0.80244,-0.74416 1.60488,-1.26436 2.262,-1.61788 0.076,0.028 0.12,0.0572 -0.5564,0.57884 -0.9476,0.74188 -1.84636,1.3104 -2.01644,1.47564 -0.12,0.118 -0.24,0.2388 -0.356,0.3604 -0.332,0.3492 -0.64328,0.71644 -0.93364,1.0966 0.272,-0.3976 0.5664,-0.7778 0.88312,-1.14048 0.224,-0.2596 0.46288,-0.50832 0.71208,-0.74592 -0.244,0.2232 -0.48716,0.4704 -0.7216,0.73836 -0.48116,0.53252 -0.93204,1.14036 -1.33604,1.81848 -0.148,0.2272 -0.292,0.46124 -0.42956,0.69956 0.4612,-0.90448 1.03716,-1.76756 1.72876,-2.55108 1.5036,-1.70432 3.40604,-2.86796 5.30568,-3.50656 0.272,-0.086 0.54712,-0.1636 0.82832,-0.234 0.45968,-0.102 1.80044,-0.2032 2.768,-0.2536 0.0604,-0.004 0.132,-0.008 0.204,-0.008 2.25044,-0.0936 3.15836,0.2404 3.41884,0.254 0.256,0.008 -0.12,-0.1416 -0.50084,-0.2608 -0.376,-0.1176 -0.73968,-0.1944 -0.392,-0.118 0,0.004 1.7616,0.3436 3.62684,1.4142 1.876,0.90888 2.16644,1.39348 2.25232,1.52908 0.12,0.194 -0.132,0.002 0.42004,0.52864 0.0404,0.04 0.0836,0.0812 0.132,0.1272 0.74676,0.71296 0.26,0.1236 0.5792,0.4124 0.164,0.1452 0.43476,0.45776 0.67884,0.75164 2.76508,3.52396 2.73588,6.24364 2.89156,6.521 0.156,0.2772 0.5712,-1.83836 -1.4588,-5.37012 0.108,-0.008 -0.48524,-1.4734 -2.1952,-3.11892 -0.136,-0.1308 -0.28,-0.2588 -0.4268,-0.3932 0.148,0.1212 0.3,0.2424 0.45,0.3688 0.228,0.2008 0.45836,0.41356 0.6864,0.64112 -0.212,-0.234 -0.42924,-0.45748 -0.6536,-0.67596 -1.90752,-1.83084 -4.36624,-3.0702 -6.97388,-3.54132 -0.93844,-0.1692 -1.87488,-0.2432 -2.79284,-0.2192 -1.51364,0.0408 -3.1328,0.3488 -4.7356,1.0338 -1.8488,0.79012 -3.49472,1.99848 -4.8004,3.50616 -0.64876,0.75124 -1.21072,1.5724 -1.682,2.443 -0.0604,-0.012 0.44924,-1.2682 -0.192,-0.024 -0.75436,1.46508 -0.94,2.73868 -1.1216,3.80148 -0.128,0.74352 -0.236,1.64744 -0.236,2.74284 0,0.394 0,0.76004 0.0404,1.10384 0.24,3.92396 0.976,4.465 1.10648,4.86116 0,0.024 0,0.052 0.0404,0.072 -0.164,-0.1928 -0.332,-0.3848 -0.47952,-0.59612 -0.152,-0.224 -0.264,-0.46872 -0.396,-0.705 -0.112,-0.2016 -0.228,-0.4022 -0.332,-0.60528 -0.12,-0.2388 -0.232,-0.47988 -0.344,-0.72324 -0.088,-0.196 -0.324,-0.0788 -0.236,0.116 0.112,0.254 0.22,0.5108 0.352,0.75508 0.24,0.4432 0.56716,0.82872 0.83844,1.251 0.172,0.2696 0.328,0.555 0.49876,0.8262 0.16,0.2544 0.272,0.394 0.43392,0.6482 -0.04,-0.028 -0.0604,-0.0628 -0.092,-0.0964 -0.176,-0.2048 -0.288,-0.3884 -0.44516,-0.6142 -0.288,-0.40688 -0.144,-0.162 -0.336,-0.513 -0.0404,-0.04 -0.0404,-0.0696 -0.0476,-0.1072 -0.056,-0.09 -0.168,-0.024 -0.108,0.074 0.0404,0.028 0.0676,0.0508 0.0964,0.074 0.052,0.0736 0.0964,0.1476 0.144,0.22 0.0644,0.0996 0.132,0.196 0.2,0.2936 0.5572,0.77844 -0.056,-0.0772 0.45284,0.6142 0.0476,0.0668 0.1036,0.132 0.152,0.1984 0.132,0.3112 0.212,0.65528 0.224,0.77384 0,0.0808 0.0404,0.146 0.0404,0.206 -0.0996,-0.0972 -0.192,-0.1984 -0.292,-0.2972 -0.292,-0.3104 -0.4284,-0.45692 -0.758,-0.85548 -0.0404,-0.024 -0.0444,3.2e-4 -0.0404,0.024 0.108,0.144 0.56844,0.74492 0.70804,0.91092 0.0964,0.1144 0.2,0.222 0.292,0.3392 0.04,0.036 0.128,0.18 0.22,0.3072 0,0.016 0,0.04 0,0.0688 0.0636,0.0628 0.136,0.1172 0.192,0.1872 0.164,0.2096 0.66156,0.92304 0.8072,1.142 0,0.016 0,0.04 0.04,0.0568 -0.0804,-0.0548 -0.16,-0.1028 -0.24,-0.1536 -0.072,-0.0436 -0.144,-0.0916 -0.216,-0.1364 -0.164,-0.12 -0.276,0.0916 -0.108,0.214 0.072,0.0568 0.14,0.1188 0.216,0.1668 0.092,0.058 0.192,0.0996 0.288,0.1568 0.04,0.032 0.076,0.0532 0.112,0.0768 -0.04,-0.001 -0.04,-0.008 -0.056,-0.002 -0.0804,-0.012 -0.16,-0.032 -0.24,-0.0436 -0.192,-0.0428 -0.292,-0.0948 -0.48156,-0.1728 -0.0804,-0.036 -0.16,-0.0796 -0.236,-0.1224 -0.0644,-0.04 -0.092,0.048 -0.04,0.0872 0.0836,0.04 0.164,0.0808 0.244,0.1192 0.04,0.024 0.0804,0.0552 0.124,0.0784 -0.60312,-0.1864 -0.99552,-0.43484 -1.67516,-0.88208 -0.0836,-0.0552 -0.116,0.0664 -0.0404,0.1164 0.304,0.188 0.6032,0.3812 0.9164,0.53132 0.40008,0.1904 0.818,0.32 1.21528,0.47052 0.156,0.0588 0.276,0.1028 0.384,0.144 0.372,0.1856 0.5588,0.3308 0.7204,0.5086 0.256,0.2808 0.5792,0.57568 0.94636,0.85792 -0.088,-0.024 -0.18,-0.0444 -0.252,-0.0668 -0.124,-0.032 -0.248,-0.0744 -0.368,-0.1236 -0.0964,-0.04 -0.67596,-0.3212 -0.76648,-0.3684 -0.0804,-0.0648 -0.16,-0.1324 -0.236,-0.2032 -0.0636,-0.042 -0.1036,0.028 -0.0404,0.0732 0.088,0.0568 0.18,0.1004 0.272,0.1496 0.132,0.072 0.256,0.1448 0.388,0.21 0.264,0.132 0.48396,0.2196 0.75236,0.3196 0.112,0.04 0.224,0.0848 0.336,0.1196 0.0404,0.012 0.0804,0.024 0.124,0.032 0.47,0.3392 0.9744,0.635 1.48124,0.87092 -0.244,-0.0572 -0.48684,-0.1344 -0.7292,-0.212 -0.312,-0.0964 -0.62684,-0.1968 -0.93916,-0.3112 0.38,0.1644 0.63752,0.2696 0.84676,0.3532 -0.164,-0.04 -0.176,-0.036 0.60876,0.236 -0.0404,0.008 -0.0764,0.02 -0.116,0.028 -0.148,0.028 -0.292,0.0688 -0.44672,0.072 -0.18,10e-4 -0.368,-0.032 -0.5556,-0.0516 0,1.6e-4 0,0.012 0,0.008 0.188,0.024 0.372,0.0432 0.55552,0.0516 0.16,0.004 0.32,-0.016 0.47604,-0.016 0.0404,-4.8e-4 0.0604,-0.004 0.0964,3.2e-4 0.168,0.082 0.336,0.158 0.504,0.2328 -0.0404,0.008 -0.056,0.028 -0.0836,0.032 -0.232,0.0764 -0.38,0.12 -0.46728,0.1408 0.212,-0.048 0.42556,-0.094 0.6424,-0.1344 0.088,0.0404 0.18,0.0776 0.276,0.1156 -0.088,-0.0404 -0.18,-0.0772 -0.268,-0.1156 0.0676,-0.02 0.14,-0.028 0.208,-0.036 0.12,-0.02 0.22,-0.024 0.336,-0.024 0,-1.6e-4 0,-4e-4 0.04,0.001 0.0404,0.012 0.0676,0.02 0.0964,0.036 0.248,0.0708 0.468,0.1932 0.68804,0.324 -0.092,0.028 -0.172,0.0488 -0.204,0.052 -0.0404,0.008 -0.12,0.008 -0.216,0.016 -0.216,-0.074 -0.42552,-0.1512 -0.63476,-0.2356 0.2,0.0828 0.40352,0.164 0.60876,0.236 -0.304,0.016 -0.5892,-5.2e-4 -0.738,-0.004 -0.0676,-0.008 -0.0404,0.086 0,0.0908 0.176,0.012 0.348,0.0428 0.5204,0.0404 0.168,0.002 0.332,-0.016 0.4952,-0.028 0,-5.6e-4 0,-0.001 0,-0.004 0.04,0.004 0.04,0.012 0.056,0.024 0,10e-4 0.04,0.002 0.04,0.012 0,-10e-4 -0.04,-0.008 -0.04,-0.012 0,-0.004 -0.0404,-0.004 -0.0404,-0.012 0.18,-0.016 0.296,-0.036 0.344,-0.0452 0.12,0.0692 0.24,0.1384 0.368,0.1952 -0.24,-0.024 -0.5044,-0.0888 -0.63796,-0.1256 0.168,0.0576 0.42596,0.162 0.69036,0.2316 0.072,-0.001 0.14,-0.004 0.196,-0.008 0,-8.4e-4 0,-10e-4 0,-0.004 0.04,-0.008 0.328,-0.0504 0.5012,-0.0424 0.076,0.004 0.188,0.008 0.28,0.016 0,10e-4 0,0.004 -0.0404,0.008 -0.14,0.0812 -0.18,0.114 -0.184,0.1256 -0.204,0.0864 -0.41764,0.1588 -0.64084,0.2132 -0.0404,0.008 -0.072,0.024 -0.112,0.024 0.0404,-0.004 0.0804,-0.008 0.112,-0.02 0.156,-0.028 0.24,-0.036 0.316,-0.056 -0.0404,0.0584 0.04,0.1308 0.128,0.0976 0.108,-0.036 7.6e-4,0.004 0.144,-0.084 0.0444,-0.028 0.0964,-0.0496 0.136,-0.0796 0,-0.004 0,-0.012 0.0404,-0.024 -0.51596,0.132 0.6064,-0.1552 0.092,-0.024 0.0404,-0.008 0.0404,-10e-4 0.056,-0.024 -0.04,0.0572 -0.04,0.0772 -0.0444,0.1156 0,0.008 -0.0404,0.016 -0.0444,0.028 -0.184,0.104 -0.376,0.196 -0.57676,0.2732 0.156,-0.0492 0.312,-0.0896 0.4628,-0.1396 -0.056,0.04 -0.128,0.104 -0.228,0.1764 -0.7328,0.54488 -0.50324,0.294 -0.42408,0.2148 -0.052,0.0508 -0.208,0.1908 -0.49436,0.44928 0,0.012 -0.0404,0.02 -0.0636,0.036 -0.092,0.0412 -0.0676,0.1376 0,0.2004 0.052,0.032 0.12,0.032 0.184,-0.024 1.17116,-0.77476 0.0604,-0.032 0.97716,-0.70036 0.0836,-0.0624 0.176,-0.118 0.264,-0.1768 0,0.012 0,0.024 0,0.032 0,0.0552 -0.0404,0.0968 -0.0604,0.1472 -0.052,0.1836 -0.0404,0.0956 -0.0836,0.2728 -0.0404,0.0888 0.128,0.1044 0.144,0.012 0.0804,-0.3996 -0.0404,0.154 0.0804,-0.2588 0,-0.0552 0,-0.1008 0.04,-0.1492 0.0404,-0.0656 0.0404,-0.1252 0.072,-0.1824 0,-0.002 0,-0.008 0.0404,-0.024 0.1004,-0.0844 0.172,-0.1948 0.272,-0.2776 0.0604,-0.032 0.128,-0.0604 0.192,-0.0784 -0.0444,0.1004 -0.128,0.2832 -0.148,0.3656 0,0.024 0,0.2248 0,0.2636 0,0.024 -0.04,0.0508 -0.04,0.0668 0,0.0852 0.172,0.1444 0.184,10e-4 0,-0.012 0,-0.0552 0,-0.0716 0,-0.036 0,-0.0696 0,-0.1056 0,-0.1064 0,-0.2192 0.0404,-0.3228 0.04,-0.0732 0.04,-0.1488 0.0676,-0.2192 3.2e-4,-8e-4 0,-0.002 3.2e-4,-0.002 0.40004,-0.09 0.8308,-0.016 0.93884,-0.008 0.46324,-0.016 0.8816,-0.2132 1.27476,-0.44664 -0.148,0.1164 -0.328,0.2224 -0.45476,0.3012 -0.0836,0.0548 -0.168,0.1016 -0.252,0.1508 0.0836,-0.0508 0.172,-0.096 0.26,-0.1416 0.42832,-0.2216 0.55276,-0.2792 0.5748,-0.2832 0,-0.004 0.0404,-0.02 0.0404,-0.02 -0.156,0.2064 -0.40408,0.5324 -0.4092,0.5398 -0.136,0.1696 -0.276,0.3352 -0.4152,0.50432 0,0.004 0,0.004 0,0.001 z m -0.056,-0.59756 c -0.136,0.0784 -0.276,0.1564 -0.4152,0.2336 0,-0.002 0,0.004 0,0.004 0.136,-0.0796 0.276,-0.1596 0.4116,-0.2396 z m -2.95404,0.48456 c -0.0964,0.028 -0.188,0.052 -0.288,0.0792 -0.088,0.024 -0.176,0.0524 -0.268,0.078 -0.108,-4e-4 -0.22,-0.004 -0.332,-0.012 0.108,0.012 0.216,0.024 0.328,0.028 0.092,-0.024 0.184,-0.052 0.276,-0.0768 0.0964,-0.028 0.188,-0.0608 0.28,-0.0972 z m -0.88232,0.1488 c -0.164,-0.016 -0.332,-0.0416 -0.4988,-0.0708 0.14,0.028 0.28,0.0464 0.41996,0.0632 0.0404,0.002 0.056,0.002 0.0804,0.004 z m -0.4988,-0.0708 c -0.056,-0.012 -0.116,-0.024 -0.172,-0.032 0,8.8e-4 0,0.004 0,0.004 0.056,0.012 0.116,0.024 0.172,0.028 z m 1.03356,-0.2988 c 0,-0.004 -0.128,0.024 -0.12,0.02 -0.18,-0.024 -0.36,-0.0428 -0.53764,-0.0724 0,0 -7.6e-4,0.001 -7.6e-4,0.001 0.176,0.032 0.36,0.0588 0.53596,0.074 0.04,-0.008 0.0804,-0.02 0.12,-0.024 z m -4.47916,-9.41056 c 0.04,0.102 0.0604,0.2048 0.0836,0.294 0,-0.0756 -0.0404,-0.1504 -0.056,-0.2244 0,-0.024 -0.04,-0.0512 -0.04,-0.0728 z m 1.23832,1.42164 c 0,-0.032 -0.04,-0.0548 -0.04,-0.0856 -0.04,-0.0728 -0.0676,-0.14 -0.0996,-0.208 0.0404,0.09 0.088,0.1892 0.136,0.2944 z m -0.136,-0.2944 c -0.0404,-0.04 -0.0404,-0.078 -0.0476,-0.1072 0,-0.002 0,0 0,0.002 0.04,0.04 0.04,0.0692 0.052,0.1044 z m 17.29644,2.94968 c 0.16,-0.0528 0.70716,-0.5844 1.60632,-1.9114 2.4404,-3.59392 1.81124,-3.831 1.63048,-3.30812 -0.18,0.52268 -0.36,1.50664 0.232,-0.9878 -0.276,0.73916 -0.5384,0.98636 -0.642,1.138 -0.8688,2.443 -2.13,3.99564 -2.68088,4.7058 -0.192,0.2508 -0.24,0.394 -0.144,0.3636 z m 3.46752,-6.20776 c 0.184,-0.49152 0.53488,-1.6346 0.53648,-3.26144 0,-1.293 -0.228,-3.23752 -1.2588,-5.38152 -0.67808,-1.41188 -1.5332,-2.53784 -2.39088,-3.4046 0.75088,0.8344 1.4064,1.77916 1.94404,2.81008 1.2116,2.32256 1.5092,4.4988 1.53164,5.9804 0,1.42016 -0.2,2.57488 -0.36,3.25708 z m -19.5068,10.44744 c -0.164,-0.0732 -0.328,-0.1504 -0.48916,-0.2308 0.0604,-8.8e-4 0.108,4.8e-4 0.164,-10e-4 0.0404,5.6e-4 0.056,-0.002 0.072,-0.004 0.176,0.0556 0.352,0.0944 0.53032,0.1296 -0.0964,0.036 -0.188,0.074 -0.276,0.1092 z m -0.94676,0.2484 c -0.056,0.012 -0.144,0.024 -0.24,0.032 0,7.6e-4 0,0.004 0,0.004 0.0804,-0.008 0.16,-0.024 0.236,-0.036 z m 5.78324,-4.03704 c 0.056,-0.024 0.0836,-0.1 0.0404,-0.1356 -0.164,-0.0732 -0.0404,-0.012 -0.212,-0.1036 -0.04,-0.008 -0.056,-0.028 -0.0804,-0.046 0,-0.004 -0.04,-0.004 -0.04,-0.004 -0.072,0.001 -0.116,0.1004 -0.0404,0.1376 0.0404,0.002 0.056,0.012 0.0804,0.028 0.0404,0.024 0.0636,0.0424 0.0996,0.0704 0.0676,0.036 0.0404,0.024 0.0996,0.0512 0,0.012 0.0404,0.012 0.0644,0.004 z m -2.84088,-0.1348 c -7.2e-4,-0.002 -7.2e-4,-0.002 0,-0.004 0,-6.8e-4 0,-10e-4 0,-10e-4 -4e-4,0.002 -8.4e-4,0.004 0,0.004 z m -0.822,-0.012 c -0.116,-0.086 -0.264,-0.1972 -0.272,-0.338 0,-0.032 0,-0.0548 0,-0.0888 0.0804,0.11 0.164,0.222 0.196,0.278 0.0404,0.0404 0.052,0.096 0.0676,0.1488 z m -4.96876,0.4432 c 0,-0.008 -0.0404,-0.024 -0.0404,-0.028 -0.16,-0.184 -0.316,-0.3732 -0.46352,-0.5672 -0.308,-0.4 -0.352,-0.45668 -0.40884,-0.56268 0.0404,0.004 0.0404,0.012 0.056,0.012 0.136,0.158 0.312,0.3692 0.58356,0.68884 0.088,0.1532 0.176,0.3052 0.268,0.45772 z m -0.87684,-0.0876 c 0.072,0.002 0.1036,-0.0876 0.0404,-0.1616 0,-0.004 0,-0.012 -0.0404,-0.024 -0.04,-0.024 -0.0676,-0.04 -0.1004,-0.0684 -0.056,-0.04 -0.1036,-0.0808 -0.16,-0.1144 -0.076,-0.0536 -0.16,-0.0936 -0.236,-0.142 -0.052,-0.0424 -0.088,0.024 -0.04,0.0644 0.072,0.0656 0.144,0.1284 0.216,0.194 0.348,0.3268 -0.04,-0.004 0.22,0.2036 0.0404,0.028 0.052,0.04 0.0804,0.036 z m 1.90608,-4.83192 c -0.0476,-0.1584 -0.088,-0.3164 -0.128,-0.47504 0,-0.008 0,-0.004 0,0.004 0.072,0.268 0.112,0.3776 0.14,0.47148 z m -0.82964,-0.154 c -0.192,-0.3884 -0.252,-0.53752 -0.276,-0.58372 0,0.008 0,0.016 0,0.032 0.0836,0.186 0.172,0.3696 0.264,0.5512 z m -0.276,-0.58372 c -0.132,-0.2924 -0.236,-0.55552 -0.348,-0.84548 0,-0.008 -0.04,-0.002 0,0.012 0.0476,0.122 0.088,0.2444 0.14,0.364 0.4244,0.98792 0.172,0.35 0.228,0.47364 z m -1.6268,1.00228 c 0,-0.016 0,-0.04 -0.04,-0.0548 -0.45244,-1.09824 -0.92084,-2.3146 -1.08204,-3.57968 -0.116,-0.8978 0.112,0.3368 0.0476,-0.54812 -0.0404,-0.396 -0.0444,-0.76504 -0.0404,-1.10264 0.0404,-2.86552 0.356,-3.66092 0.46916,-3.80224 0.0404,-0.124 0.1036,-0.2628 0.41404,-0.94684 -0.71196,1.91308 -0.67476,3.28224 -0.59796,3.51524 0,-0.1732 0,-0.342 0,-0.51448 0,-0.3972 0.232,-1.44084 0.62844,-2.46912 0.36,-0.93212 0.72804,-1.57244 0.448,-0.89576 -0.50756,1.2246 -0.89436,2.54028 -1.05836,3.9182 0,1.2e-4 0,-0.036 0,-0.042 0,0.062 0,0.1136 0,0.1632 0,-0.036 0,-0.0788 0,-0.1156 0,0.004 0.0404,0.002 0.0444,-0.036 0.0404,-0.0636 0.0676,-0.2784 0.12,-0.53776 -0.0644,0.44012 -0.0964,0.86924 -0.112,1.28484 -0.04,-0.1472 -0.0476,-0.326 -0.0644,-0.57616 -0.0404,0.3492 -0.0644,0.70072 -0.072,1.05512 0,0.3664 0,0.73468 0.0404,1.10248 0.0964,1.2672 0.388,2.5216 0.85088,3.717 0,0.1548 0,0.3104 0,0.465 z m -0.62916,-9.0868 c -0.072,0.1864 -0.04,0.1132 0.04,0.012 0,-0.0444 0,-0.0548 -0.04,-0.012 z m 3.34676,7.51072 c 0,-0.004 -0.0404,-0.3088 -0.0444,-0.47864 0,0.054 0,0.04 0,0.1244 0,0.1756 0.04,0.3652 0.04,0.3544 z m -2.37764,-1.87756 c 0.0404,0.156 -0.112,-0.5466 -0.176,-1.32232 0.056,0.75568 0.172,1.31244 0.176,1.32232 z m -0.44916,-4.66888 c 0,-0.0496 0.04,-0.0992 0.04,-0.1512 0.072,-0.2824 0.148,-0.56288 0.236,-0.8404 -0.0404,0.1432 -0.0804,0.2856 -0.116,0.42084 -0.056,0.1896 -0.1036,0.38 -0.152,0.57176 z m 0.0444,-0.2096 c 0.088,-0.42536 0.204,-0.85716 0.352,-1.2944 0.088,-0.2628 0.0404,-0.0716 0,0.0824 -0.136,0.396 -0.252,0.80068 -0.344,1.21176 z"
       style="fill:#d9d9d9;fill-opacity:1;stroke:none;stroke-width:0.643828px;stroke-linecap:butt;stroke-linejoin:miter;stroke-opacity:1"
       id="path839" />
    <rect
       y="302.47421"
       x="292.69257"
       height="67.73333"
       width="67.73333"
       id="rect841"
       style="fill:#666666;stroke:none;stroke-width:0.13229167;stroke-linecap:round;paint-order:fill markers stroke;fill-opacity:1;stroke-opacity:1;stroke-miterlimit:4;stroke-dasharray:none"
       inkscape:export-filename="D:\Calcatz\Icon Pack\Adventure Narative Inspired by Arrival\GUI\Navigation Buttons\Frame\png\256px\frame_light.png"
       inkscape:export-xdpi="96"
       inkscape:export-ydpi="96" />
    <path
       id="path843"
       style="fill:#d9d9d9;fill-opacity:1;stroke:none;stroke-width:1.28766px;stroke-linecap:butt;stroke-linejoin:miter;stroke-opacity:1"
       d="m 323.85445,367.52885 c 0.28,-0.3352 0.544,-0.6768 0.8352,-1.00224 1.292,-1.44728 -0.0952,0.1904 1.19848,-1.25512 0.104,-0.1104 0.176,-0.224 0.272,-0.3328 0.36,-0.004 0.712,0.002 1.06808,-0.024 1.27824,-0.08 12.41592,-2.40104 6.3248,-1.49344 -0.728,0.1112 -3.13688,0.6592 -6.332,0.76 0.272,-0.1384 0.536,-0.2792 0.8056,-0.3608 0.736,-0.048 1.48056,-0.1208 2.24616,-0.236 5.20896,-0.84216 8.54016,-3.06 9.48416,-3.778 1.1456,-0.87216 0.632,-0.6264 -1.58808,0.428 1.14256,-0.90536 -1.396,1.71416 -10.02792,2.25736 -1.3088,-0.6912 -2.11288,-2.0672 -2.6488,-3.2196 0,-0.024 0,-0.048 0.002,-0.064 0,-0.1016 0,-0.2008 0,-0.3016 0,-0.1096 0.08,-0.2272 0.08,-0.3408 0.0808,-0.4352 0,-0.2096 0.1352,-0.5968 0,-0.1792 -0.264,-0.2512 -0.296,-0.016 -8.8e-4,0.1864 0,0.4104 0,0.5936 0,0.0992 -0.0808,0.2016 -0.0808,0.3024 0,-0.032 0,-0.084 -0.08,-0.1208 -0.0808,-0.1376 -0.1288,-0.2712 -0.384,-0.89448 -0.1672,-0.408 -0.272,-0.8472 -0.488,-1.22744 -0.216,-0.3824 -0.536,-0.6952 -0.792,-1.04048 -0.0808,-0.08 -0.112,-0.104 -0.1672,-0.112 -0.184,-0.024 -0.392,0.1968 -0.256,0.408 0.24,0.3312 0.528,0.6328 0.728,0.99984 0.08,0.1208 0.1272,0.2792 0.1928,0.448 -0.0808,-0.1136 -0.1352,-0.2264 -0.176,-0.292 -0.352,-0.5608 -0.144,-0.2504 -0.48,-0.736 -0.0808,-0.0856 -0.2072,0.016 -0.1352,0.1048 0.0808,0.1056 0.1352,0.2048 0.2072,0.3056 0.0952,0.1328 0.1928,0.2528 0.264,0.3976 0.0808,0.1208 0.0808,0.2632 0.1208,0.3904 0,0.048 0,0.072 0.08,0.1096 -0.08,-0.056 -0.1208,-0.1064 -0.184,-0.1392 -0.184,-0.1152 -0.4,-0.1496 -0.6,-0.228 -0.232,-0.1208 -0.432,0.228 -0.1992,0.3456 0.152,0.0832 0.328,0.1616 0.472,0.2656 0.224,0.1704 0.496,0.4536 0.656,0.7008 0,0 0,0.002 0,0.002 -0.512,-0.1208 -0.99272,-0.324 -1.48232,-0.4952 -1.0056,-0.352 -0.272,-0.056 -1.18408,-0.4488 -0.08,-0.024 -0.1288,0.0824 -0.08,0.1096 0.1928,0.064 0.376,0.1336 0.568,0.1936 0.216,0.064 0.448,0.08 0.656,0.1672 0.216,0.072 0.392,0.236 0.608,0.3312 0.1208,0.056 0.2072,0.088 0.288,0.1264 0,6.4e-4 0,8e-4 -0.08,-0.002 -3.67112,-0.1696 1.45672,0.8452 -2.32072,0.072 -0.08,-0.064 -0.0952,-0.1304 -0.1928,-0.2512 -0.08,-0.1256 -0.184,-0.252 -0.256,-0.3896 -0.0808,-0.1496 -0.1352,-0.3168 -0.2072,-0.4728 -0.328,-0.6944 -0.1928,-0.2368 -0.336,-0.93896 -0.0808,-0.1104 -0.1928,-0.048 -0.1608,0.072 0.144,0.4888 0.1208,0.4616 0.352,0.94672 0.144,0.2992 0.312,0.5856 0.456,0.88376 0,0.016 0,0.064 0.08,0.1024 -0.264,-0.056 -0.328,-0.072 -0.592,-0.1248 -0.296,-0.064 -0.85832,-0.3352 -1.10472,-0.64 0,-0.016 0,-0.032 0,-0.064 -0.0808,-0.1024 -0.0808,-0.196 -0.104,-0.296 -0.08,-0.1992 -0.08,-0.4216 -0.08,-0.6264 -0.0808,-0.3056 -0.392,-0.1784 -0.344,0.1256 0.0808,0.1984 0.1352,0.3848 0.1608,0.5952 0,0.08 0,0.18 0,0.2704 0,-0.004 0,-0.008 0,-0.008 0,-0.024 0,-0.048 0,-0.08 -0.184,-0.48 0,-0.124 -0.304,-0.6288 -0.0808,-0.1096 -0.176,-0.016 -0.1288,0.0968 0.08,0.1408 0.0952,0.2592 0.112,0.2688 -0.448,-0.496 -0.1992,-0.1528 -0.6,-0.6904 -0.0808,-0.056 -0.144,0.056 -0.0808,0.1216 0.1288,0.0832 0.248,0.1504 0.36,0.2664 0.1352,0.1432 0.232,0.3264 0.352,0.4976 0,0.024 0.0808,0.048 0.0808,0.08 0,0.016 0,0.064 0,0.104 0,0.072 0.0808,0.1056 0.112,0.104 0,0.064 0.0808,0.1344 0.1208,0.1912 0,0 8.8e-4,0.002 8.8e-4,0.002 -0.1608,-0.048 -0.336,-0.064 -0.512,-0.0952 -0.336,-0.048 -0.744,-0.2656 -0.776,-0.7624 0,-0.1544 0,-0.3096 0,-0.4616 0,-0.008 0,-0.024 0.08,-0.032 0.296,-0.5632 0.144,-0.256 0.528,-1.22848 0,-0.056 0,-0.064 0,-0.024 -0.376,0.6648 -0.368,0.6768 -0.496,0.81896 0.08,-0.1912 0.112,-0.3744 0.144,-0.5648 0.176,-0.91624 0,-0.2608 0.152,-0.7952 -8.8e-4,-0.008 -0.576,-1.21784 -0.72,0.056 0,0.464 0,-0.056 -0.08,0.6768 0,0.2472 0,0.4984 -0.0808,0.7472 0,0.04 -0.002,0.064 0,0.104 0,-0.2032 0,-0.1104 -0.0888,-0.6856 0,-0.18 0,-0.364 0,-0.536 -0.08,-0.3248 -0.1352,-0.5568 -0.216,-0.84832 0,-0.084 -0.152,-0.008 -0.112,0.08 0.0808,0.1104 0.0952,0.2144 0.1208,0.3344 0,0.152 0.0808,0.3112 0.0808,0.472 0.08,0.3336 0.08,0.6752 0,1.0244 -0.0808,-0.2744 0.08,-0.1056 -0.256,-0.4048 -0.216,-0.2536 -0.56,0.1656 -0.336,0.4232 0.176,0.1608 0.2072,0.1624 0.352,0.4536 0.0808,0.16 0.1208,0.34 0.1928,0.5064 0,0.008 0,0.008 0,0.016 -0.08,-0.1272 -0.152,-0.2672 -0.224,-0.3776 -0.104,-0.1464 -0.1928,-0.3072 -0.28,-0.4536 -0.264,-0.4288 -0.2072,-0.2624 -0.28,-0.5736 -0.112,-0.156 -0.32,0.056 -0.2072,0.2112 0.08,0.016 0.112,0.024 0.152,0.064 0.288,0.2896 0.312,0.4408 0.488,0.85472 0,0.032 0,0.08 0.08,0.104 0.0808,0.3288 -0.1672,0.2824 -0.344,0.1784 -0.1672,-0.1104 -0.4,-0.3896 -0.576,-0.5232 -0.264,-0.2752 -0.44,-0.4832 -0.76,-0.89112 0,-0.004 0,-0.008 -6.4e-4,-0.008 6.4e-4,-0.2496 0,-0.4904 0,-0.736 0,-0.264 0,-0.5288 0.0808,-0.7912 0,-0.124 -0.144,-0.1136 -0.1528,0.008 0,0.2576 0,0.5168 -0.08,0.776 0,0.104 0,0.2512 -0.08,0.4032 -0.1672,-0.2384 -0.304,-0.4328 -0.368,-0.5504 0,0.008 0,0.024 0,0.008 0.1288,0.1824 0.256,0.3576 0.384,0.5376 0,0.1672 -0.0808,0.3384 -0.0888,0.4864 -0.416,-0.3704 -0.80008,-0.7528 -1.1504,-1.1396 -0.224,-0.236 -0.416,-0.5608 -0.232,-0.6792 0.0808,-0.016 0.104,-0.048 0.1608,-0.056 0.376,-0.1176 0.752,-0.1736 1.11296,-0.2784 0.256,-0.056 0.24,-0.4576 0,-0.404 -0.4,0.032 -0.80096,0.008 -1.21864,0.048 -0.08,0.002 -0.1272,0.016 -0.2072,0.048 0,-0.008 0,-0.024 0,-0.032 0.93512,-1.23208 -0.448,0.6376 0.87992,-1.17048 -0.288,0.3 -0.56,0.616 -0.86088,0.87248 0,-0.032 0.0808,-0.0832 0.0888,-0.1448 0.368,-0.6064 0.248,-0.3768 0.488,-0.87736 0.176,-0.4384 -0.336,-0.6088 -0.52,-0.1728 0,0.08 0,0.1824 0,0.2712 -0.08,0.1776 -0.1928,0.3368 -0.296,0.4976 -0.24,0.372 -0.304,0.4656 -0.432,0.5968 -8.8e-4,-0.008 0,-0.008 0,-0.016 0,-0.048 0,-0.1088 0,-0.1592 0.08,-0.4936 0.152,-0.9796 0.2072,-1.46584 0,-0.1992 0,-0.3904 0.0808,-0.5856 0,-0.04 -0.0808,-0.04 -0.0808,0.002 0,0.1912 0,0.384 0,0.5792 0,0.3024 -0.08,0.6112 -0.144,0.91584 0,0.1104 -0.0808,0.1888 -0.0808,0.2816 0,-0.1328 -0.0808,-0.2592 -0.0808,-0.3912 0,-0.1808 0,-0.3744 0,-0.5552 -0.08,-0.2488 -0.104,-0.4864 -0.152,-0.7304 0,-0.1752 0,-0.3504 -0.08,-0.5264 0,-0.1672 -0.264,-0.08 -0.232,0.0984 0.08,0.1584 0.104,0.3152 0.1672,0.4704 0.08,0.7648 0.08,0.56 0.0888,1.29472 0,0.04 0,0.532 0,0.6888 -0.08,-0.104 -0.08,-0.2336 -0.1208,-0.3304 -8.8e-4,-0.004 -8.8e-4,-0.008 -0.002,-0.008 0,-0.032 -0.0808,-0.08 -0.0808,-0.1136 0,-0.064 -0.08,-0.1288 -0.0952,-0.2008 -0.0808,-0.1504 -0.184,-0.3024 -0.264,-0.4624 -0.104,-0.2344 -0.1928,-0.4856 -0.296,-0.7208 -0.08,-0.1312 -0.184,-0.3904 -0.288,-0.6176 0.1992,0.4632 0.352,0.87336 0.504,1.38072 0.08,0.1776 0.08,0.3624 0.1288,0.5424 -0.216,-0.2504 -0.432,-0.4992 -0.632,-0.764 -0.296,-0.2088 -0.592,-0.4728 -0.88472,-0.7536 -0.104,-0.1016 -0.232,-0.2976 -0.28,-0.5104 -0.1992,-1.0036 -0.328,-2.00872 -0.4,-3.00552 -0.002,-0.008 0,-0.008 0,0.008 0.08,0.84528 0.24,1.87968 0.288,2.77152 0,0.108 0,0.2048 0,0.308 -0.0808,-0.056 -0.1992,-0.2016 -0.256,-0.2616 -0.104,-0.1016 -0.1928,-0.3128 -0.272,-0.4904 0,0 -8.8e-4,-0.002 -8.8e-4,-0.002 -0.08,-0.1376 -0.104,-0.2688 -0.152,-0.408 -0.08,-0.2288 -0.1288,-0.4632 -0.1992,-0.6936 0,-0.104 -0.0808,-0.2736 -0.112,-0.3728 0.0952,0.4592 0.1352,0.93448 0.184,1.414 -0.112,-0.1248 -0.232,-0.3008 -0.312,-0.5352 -0.104,-0.484 -0.1928,-0.88944 -0.248,-1.16936 0.08,-0.016 0.08,-0.0816 0.08,-0.1648 0,-0.08 -0.08,-0.1792 -0.08,-0.2728 0,-0.08 0,-0.1736 0,-0.2664 0.08,0.1312 0.1272,0.264 0.1928,0.4032 -0.0808,-0.2008 -0.0952,-0.3608 -0.1208,-0.4736 0,-0.04 -0.08,-0.048 -0.08,-0.024 0,-0.2 0.08,-0.3992 0.08,-0.5736 0.0888,-0.81512 0,-0.4864 0.224,-1.164 8e-4,-0.002 -0.104,-0.204 -0.144,-0.016 0,0.1704 0,0.3416 -0.0808,0.512 0,0.22 -0.112,0.4344 -0.1608,0.6552 -0.0808,0.1768 -0.0808,0.3536 -0.0952,0.5344 0,0.04 0,0.048 0,0.056 -0.0808,-0.412 -0.1352,-0.82408 -0.2072,-1.23056 -0.264,-1.45256 -0.344,-1.98984 -0.376,-2.18536 0,-0.2584 0,-0.1624 -0.0808,-0.6136 -0.0808,-0.1912 -0.0952,-0.3752 -0.1352,-0.564 -0.248,-0.5128 -1.04392,-0.1296 -0.792,0.3816 0.104,0.1136 0.2008,0.2376 0.304,0.352 0.776,2.20152 0.1928,0.144 0.648,2.72584 0.184,1.03768 0.432,1.80392 0.576,2.78624 0,-0.08 -0.0808,-0.1536 -0.0808,-0.2784 -0.0952,-0.304 -0.2072,-0.6016 -0.296,-0.90744 0.0808,0.1928 0.0808,0.3976 0.1928,0.93504 0.08,0.1392 0.08,0.2736 0.0952,0.4112 -0.1672,-0.1344 -0.336,-0.3232 -0.48,-0.596 -0.0808,-0.1504 -0.1208,-0.3032 -0.184,-0.4544 -0.776,-2.08632 0.08,-9.6e-4 -0.456,-1.3668 -0.1208,-0.2376 -0.4,-0.1736 -0.496,2.4e-4 -0.1208,-0.36 -0.224,-0.6976 -0.288,-0.93232 -8.8e-4,-0.004 0,-0.004 0,0.002 0.08,0.2608 0.1208,0.5216 0.1928,0.7824 0,0.08 0.0808,0.1664 0.0808,0.2488 0,0.048 0,0.108 0,0.168 0,0.004 0,0.002 0,0.008 0.08,0.1024 0.08,0.1904 0.0952,0.2896 0.152,0.5264 0.1288,0.4784 0.224,0.95904 0.104,0.1968 0.376,0.048 0.272,-0.1568 -0.0808,-0.104 -0.0952,-0.1992 -0.144,-0.2928 -0.104,-0.1728 -0.1928,-0.3512 -0.272,-0.536 0,-0.056 -0.0808,-0.1208 -0.0808,-0.184 0.104,0.072 0.2072,0.14 0.272,0.2424 0.2072,0.3584 0.352,0.93872 0.488,1.41328 -0.104,-0.04 -0.1928,-0.072 -0.28,-0.1168 -0.0808,-0.024 -0.1992,-0.016 -0.272,-0.008 -0.0808,-0.0904 -0.1272,-0.1736 -0.184,-0.2712 0,-0.08 -0.0808,-0.1496 -0.1272,-0.2272 0.0952,0.1984 0.1608,0.3168 0.248,0.5 0,0 -2.3952,-2.81384 -3.7336,-4.98 0,-0.016 -0.08,-0.008 -0.08,-0.024 -0.56,-1.896 -0.90888,-3.67504 -0.89856,-5.33696 0,-0.2792 0,-0.4896 0,-0.6904 -8.8e-4,-0.008 0,-0.1016 0,-0.1096 0.0808,-0.048 0.0808,-0.072 0.1288,-0.2 0.0808,-0.1096 0,-0.89312 0.0952,-1.84848 0.304,-1.53024 0.184,0.4488 0.272,2.15584 0,0.3304 0.08,0.6616 0.08,0.99568 0,-0.292 0,-0.6256 -0.08,-0.99512 -0.0808,-1.99024 0.112,-5.12064 1.44736,-8.79192 1.03592,-2.62336 2.51672,-5.0684 4.37752,-7.16744 0.8824,-0.99856 1.8544,-1.92208 2.90088,-2.75504 3.26472,-2.78472 5.2584,-3.54672 5.52952,-3.83368 0.1672,-0.1816 -0.93512,-0.056 -3.22152,1.17384 -0.0808,-0.048 -0.1352,-0.08 0,-0.2264 -1.6328,0.98432 -3.15424,2.14816 -4.5208,3.46744 1.60488,-1.48832 3.20976,-2.52872 4.524,-3.23576 0.152,0.056 0.24,0.1144 -1.1128,1.15768 -1.8952,1.48376 -3.69272,2.6208 -4.03288,2.95128 -0.24,0.236 -0.48,0.4776 -0.712,0.7208 -0.664,0.6984 -1.28656,1.43288 -1.86728,2.1932 0.544,-0.7952 1.1328,-1.5556 1.76624,-2.28096 0.448,-0.5192 0.92576,-1.01664 1.42416,-1.49184 -0.488,0.4464 -0.97432,0.9408 -1.4432,1.47672 -0.96232,1.06504 -1.86408,2.28072 -2.67208,3.63696 -0.296,0.4544 -0.584,0.92248 -0.85912,1.39912 0.9224,-1.80896 2.07432,-3.53512 3.45752,-5.10216 3.0072,-3.40864 6.81208,-5.73592 10.61136,-7.01312 0.544,-0.172 1.09424,-0.3272 1.65664,-0.468 0.91936,-0.204 3.60088,-0.4064 5.536,-0.5072 0.1208,-0.008 0.264,-0.016 0.408,-0.016 4.50088,-0.1872 6.31672,0.4808 6.83768,0.508 0.512,0.016 -0.24,-0.2832 -1.00168,-0.5216 -0.752,-0.2352 -1.47936,-0.3888 -0.784,-0.236 0,0.008 3.5232,0.6872 7.25368,2.8284 3.752,1.81776 4.33288,2.78696 4.50464,3.05816 0.24,0.388 -0.264,0.004 0.84008,1.05728 0.0808,0.08 0.1672,0.1624 0.264,0.2544 1.49352,1.42592 0.52,0.2472 1.1584,0.8248 0.328,0.2904 0.86952,0.91552 1.35768,1.50328 5.53016,7.04792 5.47176,12.48728 5.78312,13.042 0.312,0.5544 1.1424,-3.67672 -2.9176,-10.74024 0.216,-0.016 -0.97048,-2.9468 -4.3904,-6.23784 -0.272,-0.2616 -0.56,-0.5176 -0.8536,-0.7864 0.296,0.2424 0.6,0.4848 0.9,0.7376 0.456,0.4016 0.91672,0.82712 1.3728,1.28224 -0.424,-0.468 -0.85848,-0.91496 -1.3072,-1.35192 -3.81504,-3.66168 -8.73248,-6.1404 -13.94776,-7.08264 -1.87688,-0.3384 -3.74976,-0.4864 -5.58568,-0.4384 -3.02728,0.0816 -6.2656,0.6976 -9.4712,2.0676 -3.6976,1.58024 -6.98944,3.99696 -9.6008,7.01232 -1.29752,1.50248 -2.42144,3.1448 -3.364,4.886 -0.1208,-0.024 0.89848,-2.5364 -0.384,-0.048 -1.50872,2.93016 -1.88,5.47736 -2.2432,7.60296 -0.256,1.48704 -0.472,3.29488 -0.472,5.48568 0,0.788 0,1.52008 0.0808,2.20768 0.48,7.84792 1.952,8.93 2.21296,9.72232 0,0.048 0,0.104 0.0808,0.144 -0.328,-0.3856 -0.664,-0.7696 -0.95904,-1.19224 -0.304,-0.448 -0.528,-0.93744 -0.792,-1.41 -0.224,-0.4032 -0.456,-0.8044 -0.664,-1.21056 -0.24,-0.4776 -0.464,-0.95976 -0.688,-1.44648 -0.176,-0.392 -0.648,-0.1576 -0.472,0.232 0.224,0.508 0.44,1.0216 0.704,1.51016 0.48,0.8864 1.13432,1.65744 1.67688,2.502 0.344,0.5392 0.656,1.11 0.99752,1.6524 0.32,0.5088 0.544,0.788 0.86784,1.2964 -0.08,-0.056 -0.1208,-0.1256 -0.184,-0.1928 -0.352,-0.4096 -0.576,-0.7768 -0.89032,-1.2284 -0.576,-0.81376 -0.288,-0.324 -0.672,-1.026 -0.0808,-0.08 -0.0808,-0.1392 -0.0952,-0.2144 -0.112,-0.18 -0.336,-0.048 -0.216,0.148 0.0808,0.056 0.1352,0.1016 0.1928,0.148 0.104,0.1472 0.1928,0.2952 0.288,0.44 0.1288,0.1992 0.264,0.392 0.4,0.5872 1.1144,1.55688 -0.112,-0.1544 0.90568,1.2284 0.0952,0.1336 0.2072,0.264 0.304,0.3968 0.264,0.6224 0.424,1.31056 0.448,1.54768 0,0.1616 0.0808,0.292 0.0808,0.412 -0.1992,-0.1944 -0.384,-0.3968 -0.584,-0.5944 -0.584,-0.6208 -0.8568,-0.91384 -1.516,-1.71096 -0.0808,-0.048 -0.0888,6.4e-4 -0.0808,0.048 0.216,0.288 1.13688,1.48984 1.41608,1.82184 0.1928,0.2288 0.4,0.444 0.584,0.6784 0.08,0.072 0.256,0.36 0.44,0.6144 0,0.032 0,0.08 0,0.1376 0.1272,0.1256 0.272,0.2344 0.384,0.3744 0.328,0.4192 1.32312,1.84608 1.6144,2.284 0,0.032 0,0.08 0.08,0.1136 -0.1608,-0.1096 -0.32,-0.2056 -0.48,-0.3072 -0.144,-0.0872 -0.288,-0.1832 -0.432,-0.2728 -0.328,-0.24 -0.552,0.1832 -0.216,0.428 0.144,0.1136 0.28,0.2376 0.432,0.3336 0.184,0.116 0.384,0.1992 0.576,0.3136 0.08,0.064 0.152,0.1064 0.224,0.1536 -0.08,-0.002 -0.08,-0.016 -0.112,-0.004 -0.1608,-0.024 -0.32,-0.064 -0.48,-0.0872 -0.384,-0.0856 -0.584,-0.1896 -0.96312,-0.3456 -0.1608,-0.072 -0.32,-0.1592 -0.472,-0.2448 -0.1288,-0.08 -0.184,0.096 -0.08,0.1744 0.1672,0.08 0.328,0.1616 0.488,0.2384 0.08,0.048 0.1608,0.1104 0.248,0.1568 -1.20624,-0.3728 -1.99104,-0.86968 -3.35032,-1.76416 -0.1672,-0.1104 -0.232,0.1328 -0.0808,0.2328 0.608,0.376 1.2064,0.7624 1.8328,1.06264 0.80016,0.3808 1.636,0.64 2.43056,0.94104 0.312,0.1176 0.552,0.2056 0.768,0.288 0.744,0.3712 1.1176,0.6616 1.4408,1.0172 0.512,0.5616 1.1584,1.15136 1.89272,1.71584 -0.176,-0.048 -0.36,-0.0888 -0.504,-0.1336 -0.248,-0.064 -0.496,-0.1488 -0.736,-0.2472 -0.1928,-0.08 -1.35192,-0.6424 -1.53296,-0.7368 -0.1608,-0.1296 -0.32,-0.2648 -0.472,-0.4064 -0.1272,-0.084 -0.2072,0.056 -0.0808,0.1464 0.176,0.1136 0.36,0.2008 0.544,0.2992 0.264,0.144 0.512,0.2896 0.776,0.42 0.528,0.264 0.96792,0.4392 1.50472,0.6392 0.224,0.08 0.448,0.1696 0.672,0.2392 0.0808,0.024 0.1608,0.048 0.248,0.064 0.94,0.6784 1.9488,1.27 2.96248,1.74184 -0.488,-0.1144 -0.97368,-0.2688 -1.4584,-0.424 -0.624,-0.1928 -1.25368,-0.3936 -1.87832,-0.6224 0.76,0.3288 1.27504,0.5392 1.69352,0.7064 -0.328,-0.08 -0.352,-0.072 1.21752,0.472 -0.0808,0.016 -0.1528,0.04 -0.232,0.056 -0.296,0.056 -0.584,0.1376 -0.89344,0.144 -0.36,0.002 -0.736,-0.064 -1.1112,-0.1032 0,3.2e-4 0,0.024 0,0.016 0.376,0.048 0.744,0.0864 1.11104,0.1032 0.32,0.008 0.64,-0.032 0.95208,-0.032 0.0808,-9.6e-4 0.1208,-0.008 0.1928,6.4e-4 0.336,0.164 0.672,0.316 1.008,0.4656 -0.0808,0.016 -0.112,0.056 -0.1672,0.064 -0.464,0.1528 -0.76,0.24 -0.93456,0.2816 0.424,-0.096 0.85112,-0.188 1.2848,-0.2688 0.176,0.0808 0.36,0.1552 0.552,0.2312 -0.176,-0.0808 -0.36,-0.1544 -0.536,-0.2312 0.1352,-0.04 0.28,-0.056 0.416,-0.072 0.24,-0.04 0.44,-0.048 0.672,-0.048 0,-3.2e-4 0,-8e-4 0.08,0.002 0.0808,0.024 0.1352,0.04 0.1928,0.072 0.496,0.1416 0.936,0.3864 1.37608,0.648 -0.184,0.056 -0.344,0.0976 -0.408,0.104 -0.0808,0.016 -0.24,0.016 -0.432,0.032 -0.432,-0.148 -0.85104,-0.3024 -1.26952,-0.4712 0.4,0.1656 0.80704,0.328 1.21752,0.472 -0.608,0.032 -1.1784,-0.001 -1.476,-0.008 -0.1352,-0.016 -0.0808,0.172 0,0.1816 0.352,0.024 0.696,0.0856 1.0408,0.0808 0.336,0.004 0.664,-0.032 0.9904,-0.056 0,-0.001 0,-0.002 0,-0.008 0.08,0.008 0.08,0.024 0.112,0.048 0,0.002 0.08,0.004 0.08,0.024 0,-0.002 -0.08,-0.016 -0.08,-0.024 0,-0.008 -0.0808,-0.008 -0.0808,-0.024 0.36,-0.032 0.592,-0.072 0.688,-0.0904 0.24,0.1384 0.48,0.2768 0.736,0.3904 -0.48,-0.048 -1.0088,-0.1776 -1.27592,-0.2512 0.336,0.1152 0.85192,0.324 1.38072,0.4632 0.144,-0.002 0.28,-0.008 0.392,-0.016 0,-0.002 0,-0.002 0,-0.008 0.08,-0.016 0.656,-0.1008 1.0024,-0.0848 0.152,0.008 0.376,0.016 0.56,0.032 0,0.002 0,0.008 -0.0808,0.016 -0.28,0.1624 -0.36,0.228 -0.368,0.2512 -0.408,0.1728 -0.83528,0.3176 -1.28168,0.4264 -0.0808,0.016 -0.144,0.048 -0.224,0.048 0.0808,-0.008 0.1608,-0.016 0.224,-0.04 0.312,-0.056 0.48,-0.072 0.632,-0.112 -0.0808,0.1168 0.08,0.2616 0.256,0.1952 0.216,-0.072 0.002,0.008 0.288,-0.168 0.0888,-0.056 0.1928,-0.0992 0.272,-0.1592 0,-0.008 0,-0.024 0.0808,-0.048 -1.03192,0.264 1.2128,-0.3104 0.184,-0.048 0.0808,-0.016 0.0808,-0.002 0.112,-0.048 -0.08,0.1144 -0.08,0.1544 -0.0888,0.2312 0,0.016 -0.0808,0.032 -0.0888,0.056 -0.368,0.208 -0.752,0.392 -1.15352,0.5464 0.312,-0.0984 0.624,-0.1792 0.9256,-0.2792 -0.112,0.08 -0.256,0.208 -0.456,0.3528 -1.4656,1.08976 -1.00648,0.588 -0.84816,0.4296 -0.104,0.1016 -0.416,0.3816 -0.98872,0.89856 0,0.024 -0.0808,0.04 -0.1272,0.072 -0.184,0.0824 -0.1352,0.2752 0,0.4008 0.104,0.064 0.24,0.064 0.368,-0.048 2.34232,-1.54952 0.1208,-0.064 1.95432,-1.40072 0.1672,-0.1248 0.352,-0.236 0.528,-0.3536 0,0.024 0,0.048 0,0.064 0,0.1104 -0.0808,0.1936 -0.1208,0.2944 -0.104,0.3672 -0.0808,0.1912 -0.1672,0.5456 -0.0808,0.1776 0.256,0.2088 0.288,0.024 0.1608,-0.7992 -0.0808,0.308 0.1608,-0.5176 0,-0.1104 0,-0.2016 0.08,-0.2984 0.0808,-0.1312 0.0808,-0.2504 0.144,-0.3648 0,-0.004 0,-0.016 0.0808,-0.048 0.2008,-0.1688 0.344,-0.3896 0.544,-0.5552 0.1208,-0.064 0.256,-0.1208 0.384,-0.1568 -0.0888,0.2008 -0.256,0.5664 -0.296,0.7312 0,0.048 0,0.4496 0,0.5272 0,0.048 -0.08,0.1016 -0.08,0.1336 0,0.1704 0.344,0.2888 0.368,0.002 0,-0.024 0,-0.1104 0,-0.1432 0,-0.072 0,-0.1392 0,-0.2112 0,-0.2128 0,-0.4384 0.0808,-0.6456 0.08,-0.1464 0.08,-0.2976 0.1352,-0.4384 6.4e-4,-0.002 0,-0.004 6.4e-4,-0.004 0.80008,-0.18 1.6616,-0.032 1.87768,-0.016 0.92648,-0.032 1.7632,-0.4264 2.54952,-0.89328 -0.296,0.2328 -0.656,0.4448 -0.90952,0.6024 -0.1672,0.1096 -0.336,0.2032 -0.504,0.3016 0.1672,-0.1016 0.344,-0.192 0.52,-0.2832 0.85664,-0.4432 1.10552,-0.5584 1.1496,-0.5664 0,-0.008 0.0808,-0.04 0.0808,-0.04 -0.312,0.4128 -0.80816,1.0648 -0.8184,1.0796 -0.272,0.3392 -0.552,0.6704 -0.8304,1.00864 0,0.008 0,0.008 0,0.002 z m -0.112,-1.19512 c -0.272,0.1568 -0.552,0.3128 -0.8304,0.4672 0,-0.004 0,0.008 0,0.008 0.272,-0.1592 0.552,-0.3192 0.8232,-0.4792 z m -5.90808,0.96912 c -0.1928,0.056 -0.376,0.104 -0.576,0.1584 -0.176,0.048 -0.352,0.1048 -0.536,0.156 -0.216,-8e-4 -0.44,-0.008 -0.664,-0.024 0.216,0.024 0.432,0.048 0.656,0.056 0.184,-0.048 0.368,-0.104 0.552,-0.1536 0.1928,-0.056 0.376,-0.1216 0.56,-0.1944 z m -1.76464,0.2976 c -0.328,-0.032 -0.664,-0.0832 -0.9976,-0.1416 0.28,0.056 0.56,0.0928 0.83992,0.1264 0.0808,0.004 0.112,0.004 0.1608,0.008 z m -0.9976,-0.1416 c -0.112,-0.024 -0.232,-0.048 -0.344,-0.064 0,0.002 0,0.008 0,0.008 0.112,0.024 0.232,0.048 0.344,0.056 z m 2.06712,-0.5976 c 0,-0.008 -0.256,0.048 -0.24,0.04 -0.36,-0.048 -0.72,-0.0856 -1.07528,-0.1448 0,0 -0.002,0.002 -0.002,0.002 0.352,0.064 0.72,0.1176 1.07192,0.148 0.08,-0.016 0.1608,-0.04 0.24,-0.048 z m -8.95832,-18.82112 c 0.08,0.204 0.1208,0.4096 0.1672,0.588 0,-0.1512 -0.0808,-0.3008 -0.112,-0.4488 0,-0.048 -0.08,-0.1024 -0.08,-0.1456 z m 2.47664,2.84328 c 0,-0.064 -0.08,-0.1096 -0.08,-0.1712 -0.08,-0.1456 -0.1352,-0.28 -0.1992,-0.416 0.0808,0.18 0.176,0.3784 0.272,0.5888 z m -0.272,-0.5888 c -0.0808,-0.08 -0.0808,-0.156 -0.0952,-0.2144 0,-0.004 0,0 0,0.004 0.08,0.08 0.08,0.1384 0.104,0.2088 z m 34.59288,5.89936 c 0.32,-0.1056 1.41432,-1.1688 3.21264,-3.8228 4.8808,-7.18784 3.62248,-7.662 3.26096,-6.61624 -0.36,1.04536 -0.72,3.01328 0.464,-1.9756 -0.552,1.47832 -1.0768,1.97272 -1.284,2.276 -1.7376,4.886 -4.26,7.99128 -5.36176,9.4116 -0.384,0.5016 -0.48,0.788 -0.288,0.7272 z m 6.93504,-12.41552 c 0.368,-0.98304 1.06976,-3.2692 1.07296,-6.52288 0,-2.586 -0.456,-6.47504 -2.5176,-10.76304 -1.35616,-2.82376 -3.0664,-5.07568 -4.78176,-6.8092 1.50176,1.6688 2.8128,3.55832 3.88808,5.62016 2.4232,4.64512 3.0184,8.9976 3.06328,11.9608 0,2.84032 -0.4,5.14976 -0.72,6.51416 z m -39.0136,20.89488 c -0.328,-0.1464 -0.656,-0.3008 -0.97832,-0.4616 0.1208,-0.002 0.216,9.6e-4 0.328,-0.002 0.0808,0.001 0.112,-0.004 0.144,-0.008 0.352,0.1112 0.704,0.1888 1.06064,0.2592 -0.1928,0.072 -0.376,0.148 -0.552,0.2184 z m -1.89352,0.4968 c -0.112,0.024 -0.288,0.048 -0.48,0.064 0,0.002 0,0.008 0,0.008 0.1608,-0.016 0.32,-0.048 0.472,-0.072 z m 11.56648,-8.07408 c 0.112,-0.048 0.1672,-0.2 0.0808,-0.2712 -0.328,-0.1464 -0.0808,-0.024 -0.424,-0.2072 -0.08,-0.016 -0.112,-0.056 -0.1608,-0.092 0,-0.008 -0.08,-0.008 -0.08,-0.008 -0.144,0.002 -0.232,0.2008 -0.0808,0.2752 0.0808,0.004 0.112,0.024 0.1608,0.056 0.0808,0.048 0.1272,0.0848 0.1992,0.1408 0.1352,0.072 0.0808,0.048 0.1992,0.1024 0,0.024 0.0808,0.024 0.1288,0.008 z m -5.68176,-0.2696 c -0.001,-0.004 -0.001,-0.004 0,-0.008 0,-10e-4 0,-0.002 0,-0.002 -8e-4,0.004 -0.002,0.008 0,0.008 z m -1.644,-0.024 c -0.232,-0.172 -0.528,-0.3944 -0.544,-0.676 0,-0.064 0,-0.1096 0,-0.1776 0.1608,0.22 0.328,0.444 0.392,0.556 0.0808,0.0808 0.104,0.192 0.1352,0.2976 z m -9.93752,0.8864 c 0,-0.016 -0.0808,-0.048 -0.0808,-0.056 -0.32,-0.368 -0.632,-0.7464 -0.92704,-1.1344 -0.616,-0.8 -0.704,-0.91336 -0.81768,-1.12536 0.0808,0.008 0.0808,0.024 0.112,0.024 0.272,0.316 0.624,0.7384 1.16712,1.37768 0.176,0.3064 0.352,0.6104 0.536,0.91544 z m -1.75368,-0.1752 c 0.144,0.004 0.2072,-0.1752 0.0808,-0.3232 0,-0.008 0,-0.024 -0.0808,-0.048 -0.08,-0.048 -0.1352,-0.08 -0.2008,-0.1368 -0.112,-0.08 -0.2072,-0.1616 -0.32,-0.2288 -0.152,-0.1072 -0.32,-0.1872 -0.472,-0.284 -0.104,-0.0848 -0.176,0.048 -0.08,0.1288 0.144,0.1312 0.288,0.2568 0.432,0.388 0.696,0.6536 -0.08,-0.008 0.44,0.4072 0.0808,0.056 0.104,0.08 0.1608,0.072 z m 3.81216,-9.66384 c -0.0952,-0.3168 -0.176,-0.6328 -0.256,-0.95008 0,-0.016 0,-0.008 0,0.008 0.144,0.536 0.224,0.7552 0.28,0.94296 z m -1.65928,-0.308 c -0.384,-0.7768 -0.504,-1.07504 -0.552,-1.16744 0,0.016 0,0.032 0,0.064 0.1672,0.372 0.344,0.7392 0.528,1.1024 z m -0.552,-1.16744 c -0.264,-0.5848 -0.472,-1.11104 -0.696,-1.69096 0,-0.016 -0.08,-0.004 0,0.024 0.0952,0.244 0.176,0.4888 0.28,0.728 0.8488,1.97584 0.344,0.7 0.456,0.94728 z m -3.2536,2.00456 c 0,-0.032 0,-0.08 -0.08,-0.1096 -0.90488,-2.19648 -1.84168,-4.6292 -2.16408,-7.15936 -0.232,-1.7956 0.224,0.6736 0.0952,-1.09624 -0.0808,-0.792 -0.0888,-1.53008 -0.0808,-2.20528 0.0808,-5.73104 0.712,-7.32184 0.93832,-7.60448 0.0808,-0.248 0.2072,-0.5256 0.82808,-1.89368 -1.42392,3.82616 -1.34952,6.56448 -1.19592,7.03048 0,-0.3464 0,-0.684 0,-1.02896 0,-0.7944 0.464,-2.88168 1.25688,-4.93824 0.72,-1.86424 1.45608,-3.14488 0.896,-1.79152 -1.01512,2.4492 -1.78872,5.08056 -2.11672,7.8364 0,2.4e-4 0,-0.072 0,-0.084 0,0.124 0,0.2272 0,0.3264 0,-0.072 0,-0.1576 0,-0.2312 0,0.008 0.0808,0.004 0.0888,-0.072 0.0808,-0.1272 0.1352,-0.5568 0.24,-1.07552 -0.1288,0.88024 -0.1928,1.73848 -0.224,2.56968 -0.08,-0.2944 -0.0952,-0.652 -0.1288,-1.15232 -0.0808,0.6984 -0.1288,1.40144 -0.144,2.11024 0,0.7328 0,1.46936 0.0808,2.20496 0.1928,2.5344 0.776,5.0432 1.70176,7.434 0,0.3096 0,0.6208 0,0.93 z m -1.25832,-18.1736 c -0.144,0.3728 -0.08,0.2264 0.08,0.024 0,-0.0888 0,-0.1096 -0.08,-0.024 z m 6.69352,15.02144 c 0,-0.008 -0.0808,-0.6176 -0.0888,-0.95728 0,0.108 0,0.08 0,0.2488 0,0.3512 0.08,0.7304 0.08,0.7088 z m -4.75528,-3.75512 c 0.0808,0.312 -0.224,-1.0932 -0.352,-2.64464 0.112,1.51136 0.344,2.62488 0.352,2.64464 z m -0.89832,-9.33776 c 0,-0.0992 0.08,-0.1984 0.08,-0.3024 0.144,-0.5648 0.296,-1.12576 0.472,-1.6808 -0.0808,0.2864 -0.1608,0.5712 -0.232,0.84168 -0.112,0.3792 -0.2072,0.76 -0.304,1.14352 z m 0.0888,-0.4192 c 0.176,-0.85072 0.408,-1.71432 0.704,-2.5888 0.176,-0.5256 0.0808,-0.1432 0,0.1648 -0.272,0.792 -0.504,1.60136 -0.688,2.42352 z" />
  </g>
</svg>
