<?xml version="1.0" encoding="UTF-8" standalone="no"?>
<svg
   xmlns:dc="http://purl.org/dc/elements/1.1/"
   xmlns:cc="http://creativecommons.org/ns#"
   xmlns:rdf="http://www.w3.org/1999/02/22-rdf-syntax-ns#"
   xmlns:svg="http://www.w3.org/2000/svg"
   xmlns="http://www.w3.org/2000/svg"
   xmlns:sodipodi="http://sodipodi.sourceforge.net/DTD/sodipodi-0.dtd"
   xmlns:inkscape="http://www.inkscape.org/namespaces/inkscape"
   inkscape:export-ydpi="96"
   inkscape:export-xdpi="96"
   inkscape:export-filename="D:\Calcatz\Icon Pack\Adventure Narative Inspired by Arrival\GUI\Settings\png\dropdown_item - background_detail_2.png"
   sodipodi:docname="dropdown_item - background_detail_2.svg"
   inkscape:version="1.0 (4035a4fb49, 2020-05-01)"
   id="svg4702"
   version="1.1"
   viewBox="0 0 8.0697899 1.6037344"
   height="1.6037344mm"
   width="8.0697899mm">
  <defs
     id="defs4696" />
  <sodipodi:namedview
     inkscape:window-maximized="1"
     inkscape:window-y="-8"
     inkscape:window-x="-8"
     inkscape:window-height="705"
     inkscape:window-width="1366"
     fit-margin-bottom="0"
     fit-margin-right="0"
     fit-margin-left="0"
     fit-margin-top="0"
     showgrid="false"
     inkscape:document-rotation="0"
     inkscape:current-layer="layer1"
     inkscape:document-units="mm"
     inkscape:cy="-3.5209701"
     inkscape:cx="11.965992"
     inkscape:zoom="7.593161"
     inkscape:pageshadow="2"
     inkscape:pageopacity="0.0"
     borderopacity="1.0"
     bordercolor="#666666"
     pagecolor="#ffffff"
     id="base" />
  <metadata
     id="metadata4699">
    <rdf:RDF>
      <cc:Work
         rdf:about="">
        <dc:format>image/svg+xml</dc:format>
        <dc:type
           rdf:resource="http://purl.org/dc/dcmitype/StillImage" />
        <dc:title></dc:title>
      </cc:Work>
    </rdf:RDF>
  </metadata>
  <g
     transform="translate(-101.79844,-147.3648)"
     id="layer1"
     inkscape:groupmode="layer"
     inkscape:label="Layer 1">
    <g
       style="fill:#1f2123;fill-opacity:1"
       transform="translate(-652.23848,-66.943721)"
       id="g12493">
      <path
         style="fill:#1f2123;fill-opacity:1;stroke:none;stroke-width:0.264583px;stroke-linecap:butt;stroke-linejoin:miter;stroke-opacity:1"
         d="m 754.03692,214.57313 c 0,0 1.19009,0.4724 1.81901,0.52916 0.64022,0.0578 1.27546,-0.2064 1.91823,-0.19843 0.77799,0.01 1.54439,0.40431 2.3151,0.29765 0.72412,-0.10021 2.01745,-0.85989 2.01745,-0.85989 l -4.26641,-0.0331 z"
         id="path12451"
         sodipodi:nodetypes="csssccc" />
      <path
         style="fill:#1f2123;fill-opacity:1;stroke:none;stroke-width:0.702;stroke-linecap:round;stroke-miterlimit:4;stroke-dasharray:none;stroke-opacity:1;paint-order:markers stroke fill"
         id="path12453"
         d="m 755.52758,215.00739 c 0.05,0.0413 0.10604,0.0762 0.15005,0.12385 0.12387,0.13422 0.18478,0.27136 0.28471,0.42262 0.19116,0.28929 0.0783,0.0687 0.19418,0.31814 0.0887,0.10611 0.23873,-0.0193 0.15005,-0.12541 v 0 c -0.0681,-0.0725 -0.1832,-0.19159 -0.23281,-0.2648 -0.0506,-0.0747 -0.0847,-0.1596 -0.13213,-0.2364 -0.009,-0.0143 -0.22146,-0.32321 -0.25041,-0.36529 -0.09,-0.11572 -0.25365,0.0116 -0.16364,0.12729 z" />
      <path
         style="fill:#1f2123;fill-opacity:1;stroke:none;stroke-width:0.702;stroke-linecap:round;stroke-miterlimit:4;stroke-dasharray:none;stroke-opacity:1;paint-order:markers stroke fill"
         id="path12455"
         d="m 755.76888,215.11272 c 0.0988,0.0739 0.12036,0.0975 0.2458,0.15203 0.0498,0.0217 0.10305,0.0346 0.15459,0.0518 0.0911,0.0469 0.15743,-0.0819 0.0663,-0.12882 v 0 c -0.0442,-0.03 -0.0872,-0.062 -0.13274,-0.09 -0.20047,-0.12342 -0.0637,-0.011 -0.22053,-0.15518 -0.12033,-0.0802 -0.23376,0.0899 -0.11345,0.17016 z" />
      <path
         style="fill:#1f2123;fill-opacity:1;stroke:none;stroke-width:0.702;stroke-linecap:round;stroke-miterlimit:4;stroke-dasharray:none;stroke-opacity:1;paint-order:markers stroke fill"
         id="path12457"
         d="m 760.30005,214.90689 c -0.0655,0.0943 -0.22092,0.32128 -0.28712,0.40251 -0.0609,0.0747 -0.13658,0.13709 -0.19368,0.21476 -0.0535,0.0728 -0.0909,0.15613 -0.13636,0.2342 -0.0519,0.066 0.0415,0.13942 0.0934,0.0734 v 0 c 0.10962,-0.16236 0.19912,-0.30102 0.3207,-0.45577 0.0542,-0.0691 0.10639,-0.14082 0.17042,-0.20093 0.0557,-0.0523 0.12411,-0.0892 0.18619,-0.13386 0.095,-0.10854 -0.0585,-0.24286 -0.15352,-0.13431 z" />
      <path
         style="fill:#1f2123;fill-opacity:1;stroke:none;stroke-width:0.702;stroke-linecap:round;stroke-miterlimit:4;stroke-dasharray:none;stroke-opacity:1;paint-order:markers stroke fill"
         id="path12459"
         d="m 760.17586,215.0591 c -0.0106,0.056 -0.0212,0.112 -0.0317,0.16799 -0.0241,0.0658 -0.0583,0.1287 -0.0726,0.1973 -0.0151,0.0721 -0.008,0.14719 -0.0146,0.22061 -0.004,0.0472 -0.0114,0.094 -0.0169,0.14104 0.005,0.14308 0.20748,0.13583 0.20235,-0.007 v 0 c -0.0164,-0.0375 -0.0466,-0.0716 -0.0493,-0.11249 -0.0122,-0.1837 0.0941,-0.33826 0.17505,-0.49185 0.0816,-0.13594 -0.11068,-0.2513 -0.19225,-0.11535 z" />
      <path
         style="fill:#1f2123;fill-opacity:1;stroke:none;stroke-width:0.702;stroke-linecap:round;stroke-miterlimit:4;stroke-dasharray:none;stroke-opacity:1;paint-order:markers stroke fill"
         id="path12461"
         d="m 760.30516,215.02413 c -0.007,0.27793 -0.0114,0.14798 0.0236,0.49219 0.0116,0.1143 0.0249,0.22845 0.0371,0.34267 0,0.0128 0.019,0.0113 0.018,-0.002 v 0 c -0.006,-0.11323 -0.0204,-0.22629 -0.0193,-0.33969 0.003,-0.25846 0.0148,-0.25595 0.0781,-0.46311 0.0217,-0.0974 -0.11607,-0.12797 -0.13769,-0.0306 z" />
      <path
         style="fill:#1f2123;fill-opacity:1;stroke:none;stroke-width:0.702;stroke-linecap:round;stroke-miterlimit:4;stroke-dasharray:none;stroke-opacity:1;paint-order:markers stroke fill"
         id="path12463"
         d="m 760.13488,215.11492 c -0.19966,0.14844 -0.15833,0.12763 -0.44125,0.27163 -0.11589,0.059 -0.23127,0.12037 -0.35293,0.16634 -0.0809,0.0306 -0.16782,0.0414 -0.25172,0.0622 -0.0452,0.018 -0.0198,0.082 0.0254,0.064 v 0 c 0.30855,-0.16078 0.20378,-0.11565 0.59161,-0.26529 0.3348,-0.12917 0.23249,-0.0982 0.49971,-0.15708 0.1002,-0.0501 0.0293,-0.19183 -0.0709,-0.14173 z" />
      <path
         style="fill:#1f2123;fill-opacity:1;stroke:none;stroke-width:0.702;stroke-linecap:round;stroke-miterlimit:4;stroke-dasharray:none;stroke-opacity:1;paint-order:markers stroke fill"
         id="path12465"
         d="m 755.80566,215.23489 c 0.26257,0.18904 0.0929,0.0751 0.52432,0.31769 0.004,0.003 0.008,-0.003 0.004,-0.005 v 0 c -0.36171,-0.30645 -0.23659,-0.15706 -0.41865,-0.40807 -0.0678,-0.0774 -0.17732,0.0184 -0.10954,0.0959 z" />
      <path
         style="fill:#1f2123;fill-opacity:1;stroke:none;stroke-width:0.702;stroke-linecap:round;stroke-miterlimit:4;stroke-dasharray:none;stroke-opacity:1;paint-order:markers stroke fill"
         id="path12467"
         d="m 755.53311,214.99937 c 0.0368,0.27261 0.003,0.0431 0.0654,0.38165 0.0153,0.0829 0.0291,0.16605 0.0436,0.24908 0.005,0.0314 0.0491,0.0247 0.0444,-0.007 v 0 c -0.0114,-0.10309 -0.0438,-0.36193 -0.0405,-0.4731 0.003,-0.0509 0.0159,-0.10064 0.0241,-0.15095 0,-0.0968 -0.13682,-0.0968 -0.13682,0 z" />
      <path
         style="fill:#1f2123;fill-opacity:1;stroke:none;stroke-width:0.702;stroke-linecap:round;stroke-miterlimit:4;stroke-dasharray:none;stroke-opacity:1;paint-order:markers stroke fill"
         id="path12469"
         d="m 756.64703,215.05323 c 0.35946,0.17026 -0.0841,-0.0333 0.38857,0.15587 0.0831,0.0333 0.16354,0.0728 0.24532,0.10923 0.0421,0.0186 0.0684,-0.041 0.0262,-0.0596 v 0 c -0.0826,-0.0323 -0.16777,-0.0588 -0.24791,-0.0969 -0.18936,-0.09 -0.20201,-0.11415 -0.34832,-0.23637 -0.0904,-0.0452 -0.15426,0.0826 -0.0639,0.12779 z" />
      <path
         style="fill:#1f2123;fill-opacity:1;stroke:none;stroke-width:0.702;stroke-linecap:round;stroke-miterlimit:4;stroke-dasharray:none;stroke-opacity:1;paint-order:markers stroke fill"
         id="path12471"
         d="m 758.96566,214.95062 c -0.0479,0.0191 -0.0969,0.0354 -0.14354,0.0574 -0.14028,0.0659 -0.37449,0.19865 -0.50369,0.2668 -0.0664,0.035 -0.13385,0.068 -0.20079,0.10198 -0.0303,0.018 -0.005,0.0609 0.0254,0.0429 v 0 c 0.0616,-0.0418 0.11795,-0.0926 0.18473,-0.12551 0.0931,-0.0459 0.19352,-0.0752 0.29155,-0.10919 0.24497,-0.0851 0.17073,-0.0695 0.37168,-0.0814 0.10814,-0.018 0.0827,-0.17095 -0.0254,-0.15293 z" />
      <path
         style="fill:#1f2123;fill-opacity:1;stroke:none;stroke-width:0.702;stroke-linecap:round;stroke-miterlimit:4;stroke-dasharray:none;stroke-opacity:1;paint-order:markers stroke fill"
         id="path12473"
         d="m 758.80325,215.11063 c -0.15451,0.17931 -0.0716,0.0865 -0.24971,0.27749 -0.0116,0.0109 0.004,0.0275 0.0154,0.0166 v 0 c 0.20597,-0.15221 0.10797,-0.0801 0.29395,-0.21655 0.0549,-0.0422 -0.005,-0.11978 -0.0597,-0.0776 z" />
      <path
         style="fill:#1f2123;fill-opacity:1;stroke:none;stroke-width:0.702;stroke-linecap:round;stroke-miterlimit:4;stroke-dasharray:none;stroke-opacity:1;paint-order:markers stroke fill"
         id="path12475"
         d="m 757.96558,215.09543 c -0.0665,0.0569 -0.13298,0.11378 -0.19949,0.17067 -3e-5,2e-5 0,5e-5 2e-5,3e-5 v 0 c 0.0755,-0.0434 0.151,-0.0868 0.22649,-0.1302 0.0286,-0.0191 0.003,-0.0596 -0.027,-0.0405 z" />
      <path
         style="fill:#1f2123;fill-opacity:1;stroke:none;stroke-width:0.702;stroke-linecap:round;stroke-miterlimit:4;stroke-dasharray:none;stroke-opacity:1;paint-order:markers stroke fill"
         id="path12477"
         d="m 758.4721,215.02348 c -0.17772,0.14566 -0.061,0.0604 -0.30572,0.20354 -0.24996,0.14619 -0.11798,0.0843 -0.32256,0.16947 -0.0287,0.0177 -0.004,0.0583 0.0251,0.0406 v 0 c 0.0356,-0.0271 0.0685,-0.0581 0.10673,-0.0813 0.065,-0.0396 0.13279,-0.0749 0.20201,-0.10663 0.11652,-0.0535 0.24093,-0.0885 0.3578,-0.14125 0.0597,-0.0448 -0.004,-0.12917 -0.0633,-0.0844 z" />
      <path
         style="fill:#1f2123;fill-opacity:1;stroke:none;stroke-width:0.702;stroke-linecap:round;stroke-miterlimit:4;stroke-dasharray:none;stroke-opacity:1;paint-order:markers stroke fill"
         id="path12479"
         d="m 756.74667,215.04096 c 0.0177,0.01 0.16831,0.0924 0.17566,0.0953 0.0424,0.0171 0.0863,0.0318 0.13139,0.0394 0.10949,0.0184 0.33851,0.004 0.42662,0.009 0.0812,0.004 0.16166,0.019 0.24249,0.0284 0.0209,8e-4 0.022,-0.029 0,-0.0297 v 0 c -0.43686,-0.008 -0.0486,0.0135 -0.50176,-0.0563 -0.0488,-0.008 -0.0998,0.001 -0.14769,-0.0109 -0.0407,-0.0102 -0.0765,-0.0346 -0.11321,-0.0548 -0.0369,-0.0202 -0.11131,-0.0713 -0.15005,-0.0974 -0.0547,-0.0456 -0.11919,0.0318 -0.0645,0.0774 z" />
      <path
         style="fill:#1f2123;fill-opacity:1;stroke:none;stroke-width:0.702;stroke-linecap:round;stroke-miterlimit:4;stroke-dasharray:none;stroke-opacity:1;paint-order:markers stroke fill"
         id="path12481"
         d="m 756.57078,215.04729 c 0.10406,0.0821 0.13809,0.1063 0.24357,0.20305 0.0492,0.0451 0.0961,0.0927 0.1441,0.13907 0.0196,0.0196 0.0472,-0.008 0.0276,-0.0276 v 0 c -0.0491,-0.0451 -0.10179,-0.0866 -0.1474,-0.13523 -0.0806,-0.0859 -0.12941,-0.16641 -0.19326,-0.26224 -0.0586,-0.0528 -0.13335,0.0302 -0.0747,0.083 z" />
      <path
         style="fill:#1f2123;fill-opacity:1;stroke:none;stroke-width:0.702;stroke-linecap:round;stroke-miterlimit:4;stroke-dasharray:none;stroke-opacity:1;paint-order:markers stroke fill"
         id="path12483"
         d="m 755.4908,214.97494 c -0.0743,0.20405 -0.0106,0.069 -0.161,0.27695 -0.0359,0.0495 -0.0687,0.10111 -0.10302,0.15167 -0.018,0.0256 0.018,0.0512 0.0361,0.0256 v 0 c 0.0994,-0.138 0.19687,-0.27812 0.31202,-0.40375 0.0357,-0.0595 -0.0484,-0.10996 -0.0841,-0.0505 z" />
      <path
         style="fill:#1f2123;fill-opacity:1;stroke:none;stroke-width:0.702;stroke-linecap:round;stroke-miterlimit:4;stroke-dasharray:none;stroke-opacity:1;paint-order:markers stroke fill"
         id="path12485"
         d="m 755.50745,215.06053 c -0.003,0.04 -0.006,0.0801 -0.009,0.12015 -0.0103,0.0511 0.062,0.0656 0.0723,0.0145 v 0 c 0.0116,-0.0419 0.0233,-0.0838 0.0347,-0.12572 0.006,-0.0691 -0.0914,-0.078 -0.0977,-0.009 z" />
      <path
         style="fill:#1f2123;fill-opacity:1;stroke:none;stroke-width:0.702;stroke-linecap:round;stroke-miterlimit:4;stroke-dasharray:none;stroke-opacity:1;paint-order:markers stroke fill"
         id="path12487"
         d="m 760.8855,214.84242 c 0.0204,0.0776 0.0278,0.0862 0.0251,0.1743 0,0.0371 -0.0135,0.0736 -0.0122,0.11072 0,0.0322 0.013,0.0632 0.0193,0.0948 0.007,0.0652 0.0992,0.0551 0.0922,-0.0101 v 0 c -0.0132,-0.0282 -0.0363,-0.0537 -0.0394,-0.0847 -0.004,-0.0373 0.0167,-0.0734 0.0204,-0.11072 0.0196,-0.20778 -0.0236,-0.006 0.0177,-0.1743 0,-0.087 -0.12309,-0.087 -0.12309,0 z" />
      <path
         style="fill:#1f2123;fill-opacity:1;stroke:none;stroke-width:0.702;stroke-linecap:round;stroke-miterlimit:4;stroke-dasharray:none;stroke-opacity:1;paint-order:markers stroke fill"
         id="path12489"
         d="m 760.86907,214.88534 c -0.004,0.0334 -0.003,0.0677 -0.0122,0.10014 -0.0204,0.0754 -0.10142,0.2593 -0.12917,0.32486 -0.008,0.0142 0.0124,0.025 0.0201,0.0109 v 0 c 0.0778,-0.14272 0.16039,-0.28397 0.21955,-0.43585 0,-0.0695 -0.0983,-0.0695 -0.0983,0 z" />
      <path
         style="fill:#1f2123;fill-opacity:1;stroke:none;stroke-width:0.702;stroke-linecap:round;stroke-miterlimit:4;stroke-dasharray:none;stroke-opacity:1;paint-order:markers stroke fill"
         id="path12491"
         d="m 758.92853,215.02991 c -0.0359,0.0654 -0.0769,0.14286 -0.11768,0.20382 -0.0201,0.0301 -0.044,0.0576 -0.066,0.0863 -0.0317,0.0506 0.0399,0.0954 0.0716,0.0448 v 0 c 0.0161,-0.0312 0.0298,-0.0638 0.0483,-0.0936 0.067,-0.10779 0.0765,-0.10968 0.15788,-0.19428 0.0333,-0.0666 -0.0609,-0.11366 -0.0942,-0.0471 z" />
    </g>
  </g>
</svg>
