<?xml version="1.0" encoding="UTF-8" standalone="no"?>
<svg
   xmlns:dc="http://purl.org/dc/elements/1.1/"
   xmlns:cc="http://creativecommons.org/ns#"
   xmlns:rdf="http://www.w3.org/1999/02/22-rdf-syntax-ns#"
   xmlns:svg="http://www.w3.org/2000/svg"
   xmlns="http://www.w3.org/2000/svg"
   xmlns:sodipodi="http://sodipodi.sourceforge.net/DTD/sodipodi-0.dtd"
   xmlns:inkscape="http://www.inkscape.org/namespaces/inkscape"
   inkscape:export-ydpi="96"
   inkscape:export-xdpi="96"
   inkscape:export-filename="D:\Calcatz\Icon Pack\Adventure Narative Inspired by Arrival\GUI\Settings\png\dropdown_item_highlight - background_detail_3.png"
   sodipodi:docname="dropdown_item_highlight - background_detail_3.svg"
   inkscape:version="1.0 (4035a4fb49, 2020-05-01)"
   id="svg8995"
   version="1.1"
   viewBox="0 0 3.5831001 1.4266949"
   height="1.4266949mm"
   width="3.5831001mm">
  <defs
     id="defs8989" />
  <sodipodi:namedview
     inkscape:window-maximized="1"
     inkscape:window-y="-8"
     inkscape:window-x="-8"
     inkscape:window-height="705"
     inkscape:window-width="1366"
     fit-margin-bottom="0"
     fit-margin-right="0"
     fit-margin-left="0"
     fit-margin-top="0"
     showgrid="false"
     inkscape:document-rotation="0"
     inkscape:current-layer="layer1"
     inkscape:document-units="mm"
     inkscape:cy="11.828139"
     inkscape:cx="17.566158"
     inkscape:zoom="10.738351"
     inkscape:pageshadow="2"
     inkscape:pageopacity="0.0"
     borderopacity="1.0"
     bordercolor="#666666"
     pagecolor="#ffffff"
     id="base" />
  <metadata
     id="metadata8992">
    <rdf:RDF>
      <cc:Work
         rdf:about="">
        <dc:format>image/svg+xml</dc:format>
        <dc:type
           rdf:resource="http://purl.org/dc/dcmitype/StillImage" />
        <dc:title></dc:title>
      </cc:Work>
    </rdf:RDF>
  </metadata>
  <g
     transform="translate(49.098627,-33.978508)"
     id="layer1"
     inkscape:groupmode="layer"
     inkscape:label="Layer 1">
    <path
       id="path3772"
       style="fill:#e5e5e5;fill-opacity:0.2;stroke:none;stroke-width:0.264583px;stroke-linecap:butt;stroke-linejoin:miter;stroke-opacity:1"
       d="m -47.138027,33.978508 -1.9606,0.23099 c 0.074,0.0619 0.1575,0.12604 0.2434,0.18708 0,0.033 -0.01,0.0719 -0.01,0.0723 -0.011,0.0444 -0.027,0.088 -0.05,0.12763 -0.02,0.0346 -0.051,0.0612 -0.076,0.092 -0.012,0.0183 0.014,0.0353 0.026,0.017 0.021,-0.0339 0.043,-0.068 0.065,-0.10179 0.027,-0.0413 0.061,-0.0783 0.081,-0.1235 0.01,-0.0114 0.01,-0.0319 0.01,-0.0501 0.041,0.0277 0.082,0.0576 0.1225,0.0812 0.035,0.0199 0.09,0.0624 0.1137,0.13848 2e-4,0.001 2e-4,0.002 5e-4,0.004 -8.99e-4,0.002 0,0.005 0,0.007 -0.043,0.10173 -0.069,0.14761 -0.1545,0.23254 -0.03,0.0295 -0.067,0.0495 -0.1008,0.0744 -0.01,0.007 -1e-4,0.0204 0.011,0.0129 0.031,-0.0286 0.061,-0.0577 0.092,-0.0853 0.044,-0.0387 0.095,-0.0706 0.1354,-0.11369 0.015,-0.0162 0.024,-0.0366 0.036,-0.0558 0.01,0.0333 0.014,0.0665 0.014,0.10025 0,0.0519 -0.029,0.10165 -0.027,0.15349 0,0.04 0.027,0.0754 0.037,0.11419 0.01,0.0402 0.014,0.0817 0.021,0.12248 0.059,0.13771 0.2531,0.0545 0.1943,-0.0832 -0.028,-0.0467 -0.074,-0.11597 -0.08,-0.16952 -0.01,-0.0484 0.01,-0.0971 0.011,-0.1457 2.99e-4,-0.007 1e-4,-0.005 5e-4,-0.0114 0.016,0.0204 0.019,0.0297 0.05,0.0661 0.1342,0.16119 0.071,0.0404 0.1292,0.1695 0.093,0.0638 0.1836,-0.0685 0.09,-0.13229 -0.078,-0.008 -0.043,0.004 -0.1245,-0.10232 -0.021,-0.0267 -0.038,-0.0557 -0.056,-0.0837 0,-0.0207 0,-0.0372 0.011,-0.0512 0.032,0.0114 0.064,0.0229 0.096,0.0346 0.096,0.0353 0.191801,0.0734 0.288901,0.10697 -0.011,0.006 -0.013,0.0104 -0.031,0.0202 -0.03,0.022 0,0.0648 0.031,0.0429 0.015,-0.0162 0.029,-0.0331 0.045,-0.0486 0.013,0.004 0.026,0.008 0.039,0.0119 -0.013,-0.004 -0.025,-0.009 -0.038,-0.0134 0,-0.004 0.01,-0.008 0.011,-0.0114 0.038,-0.0308 0.081,-0.0557 0.122899,-0.0822 0.057,-0.0365 0.115,-0.0714 0.1727,-0.10697 0.052,-0.0152 0.1073,-0.0122 0.1405,0.006 0.054,0.0298 0.1083,0.0622 0.1633,0.0884 0.05,0.0236 0.073,0.0536 0.037,0.10491 -0.071,0.048 -0.1409,0.0973 -0.2165,0.13695 -0.079,0.0412 -0.1654,0.064 -0.2481,0.0961 -0.094,0.0543 -0.017,0.18764 0.077,0.13333 0.069,-0.0533 0.1308,-0.11819 0.2073,-0.16021 0.065,-0.0356 0.2032,-0.0878 0.34,-0.13745 -0.021,0.0152 -0.032,0.0243 -0.071,0.0517 -0.037,0.0258 -0.074,0.0508 -0.1127,0.0739 -0.094,0.0566 -0.044,0.006 -0.097,0.0682 -0.021,0.0566 0.059,0.086 0.08,0.0294 -0.031,-0.038 -0.03,-0.022 0.031,-0.077 0.034,-0.03 0.068,-0.0591 0.1059,-0.0837 0.031,-0.0204 0.1385,-0.0767 0.2124,-0.11626 -0.034,0.0989 -0.071,0.19495 -0.1064,0.25165 -0.05,0.0801 -0.1291,0.13814 -0.1938,0.20722 -0.052,0.0632 0.037,0.13703 0.089,0.0739 0.057,-0.0786 0.113,-0.15764 0.1705,-0.23564 0.1735,-0.23529 0.197,-0.26374 0.2248,-0.30488 0.01,0.0193 0.01,0.024 0.02,0.0527 0.035,0.0874 0.083,0.16951 0.1111,0.25939 0.024,0.0756 0.029,0.15571 0.043,0.2336 0.012,0.0448 0.075,0.0283 0.063,-0.0165 -0.024,-0.0753 -0.053,-0.14904 -0.072,-0.22585 -0.022,-0.09 -0.033,-0.18233 -0.051,-0.27337 -0.013,-0.0672 -0.014,-0.0672 -0.019,-0.0894 0.052,0.0532 0.1062,0.0765 0.1731,0.11163 0.032,0.0173 0.056,-0.0277 0.025,-0.045 -0.032,-0.012 -0.066,-0.0179 -0.095,-0.0362 -0.025,-0.0158 -0.037,-0.0323 -0.05,-0.0491 0,-0.0386 0.048,-0.0758 0.09,-0.0894 0.103,-0.0337 0.2052,-0.0735 0.303901,-0.11367 0,0.005 0.01,0.01 0.01,0.015 0.022,0.0579 0.038,0.11776 0.058,0.17621 0.028,0.0807 0.058,0.16089 0.087,0.24133 -0.025,-0.0818 -0.054,-0.16241 -0.074,-0.24546 -0.011,-0.0445 -0.017,-0.1071 -0.024,-0.16692 0.012,0.005 0,-0.003 0.032,0.014 0.029,0.016 0.053,0.0383 0.08,0.0574 0.023,0.0155 0.044,-0.0166 0.022,-0.032 -0.026,-0.0207 -0.053,-0.0404 -0.078,-0.062 -0.042,-0.0361 -0.028,-0.0233 -0.033,-0.0284 0.3193,-0.13528 0.574599,-0.2739 0.574599,-0.2739 z m -0.6739,0.86196 c 0.05,0.0176 0.1002,0.0351 0.1499,0.0527 -0.01,-0.002 0,-0.009 0,-0.007 -0.05,-0.0152 -0.1,-0.0303 -0.1499,-0.0455 z m 0.046,-0.29972 c 0.045,-0.003 0.09,-0.002 0.1339,0.004 0.01,0.001 0.015,0.005 0.022,0.006 -0.03,0.0154 -0.061,0.0329 -0.08,0.0403 -0.043,0.0167 -0.088,0.0309 -0.1339,0.0403 -0.031,0.006 -0.063,0.005 -0.094,0.007 -0.038,0.01 -0.024,0.0631 0.014,0.0532 0.028,-0.0132 0.056,-0.03 0.086,-0.0393 0.045,-0.014 0.093,-0.0192 0.1389,-0.0305 0.1101,-0.0269 0.084,-0.0196 0.081,-0.0202 -0.026,0.0218 -0.045,0.0413 -0.1364,0.10647 -0.1098,0.0789 -0.1059,0.0742 -0.1587,0.10335 -0.097,-0.0355 -0.1941,-0.0682 -0.2873,-0.1111 -0.039,-0.018 -0.06,-0.0326 -0.084,-0.0481 0.025,-0.0204 0.062,-0.0324 0.092,-0.0377 0.1345,-0.0224 0.2709,-0.0653 0.4056,-0.0744 z" />
  </g>
</svg>
