<?xml version="1.0" encoding="UTF-8" standalone="no"?>
<svg
   xmlns:dc="http://purl.org/dc/elements/1.1/"
   xmlns:cc="http://creativecommons.org/ns#"
   xmlns:rdf="http://www.w3.org/1999/02/22-rdf-syntax-ns#"
   xmlns:svg="http://www.w3.org/2000/svg"
   xmlns="http://www.w3.org/2000/svg"
   xmlns:sodipodi="http://sodipodi.sourceforge.net/DTD/sodipodi-0.dtd"
   xmlns:inkscape="http://www.inkscape.org/namespaces/inkscape"
   inkscape:export-ydpi="96"
   inkscape:export-xdpi="96"
   inkscape:export-filename="D:\Calcatz\Icon Pack\Adventure Narative Inspired by Arrival\GUI\Settings\png\dropdown_item - background_detail_1.png"
   sodipodi:docname="dropdown_item - background_detail_1.svg"
   inkscape:version="1.0 (4035a4fb49, 2020-05-01)"
   id="svg4061"
   version="1.1"
   viewBox="0 0 1.4538044 7.9980302"
   height="7.9980302mm"
   width="1.4538044mm">
  <defs
     id="defs4055" />
  <sodipodi:namedview
     inkscape:window-maximized="1"
     inkscape:window-y="-8"
     inkscape:window-x="-8"
     inkscape:window-height="705"
     inkscape:window-width="1366"
     fit-margin-bottom="0"
     fit-margin-right="0"
     fit-margin-left="0"
     fit-margin-top="0"
     showgrid="false"
     inkscape:document-rotation="0"
     inkscape:current-layer="layer1"
     inkscape:document-units="mm"
     inkscape:cy="56.504664"
     inkscape:cx="88.759619"
     inkscape:zoom="1.8982902"
     inkscape:pageshadow="2"
     inkscape:pageopacity="0.0"
     borderopacity="1.0"
     bordercolor="#666666"
     pagecolor="#ffffff"
     id="base" />
  <metadata
     id="metadata4058">
    <rdf:RDF>
      <cc:Work
         rdf:about="">
        <dc:format>image/svg+xml</dc:format>
        <dc:type
           rdf:resource="http://purl.org/dc/dcmitype/StillImage" />
        <dc:title></dc:title>
      </cc:Work>
    </rdf:RDF>
  </metadata>
  <g
     transform="translate(-49.733976,-138.71067)"
     id="layer1"
     inkscape:groupmode="layer"
     inkscape:label="Layer 1">
    <g
       style="fill:#1f2123;fill-opacity:1"
       transform="translate(-699.45029,-65.520005)"
       id="g12533">
      <path
         style="fill:#1f2123;fill-opacity:1;stroke:none;stroke-width:0.264583px;stroke-linecap:butt;stroke-linejoin:miter;stroke-opacity:1"
         d="m 750.55296,204.23067 c 0,0 -0.57635,1.31108 -0.67818,2.0112 -0.0617,0.42456 -0.0183,0.86217 0.0468,1.28623 0.0491,0.31965 0.23472,0.61284 0.25725,0.93545 0.0296,0.42344 -0.16149,0.83838 -0.1637,1.26284 -0.002,0.32971 0.0627,0.657 0.11692,0.98222 0.0853,0.51125 0.32743,1.52009 0.32743,1.52009 l 0.10839,-1.94104 0.0702,-3.88209 z"
         id="path12495"
         sodipodi:nodetypes="cssssscccc" />
      <path
         style="fill:#1f2123;fill-opacity:1;stroke:none;stroke-width:0.702;stroke-linecap:round;stroke-miterlimit:4;stroke-dasharray:none;stroke-opacity:1;paint-order:markers stroke fill"
         id="path12497"
         d="m 750.02917,206.01171 c -0.18066,-0.0344 -0.21376,-0.0269 -0.38614,-0.12426 -0.0448,-0.0253 -0.0811,-0.0633 -0.12162,-0.095 -0.10216,-0.0708 -0.20236,0.0737 -0.10018,0.14449 v 0 c 0.0505,0.0337 0.0981,0.0722 0.15153,0.10108 0.12158,0.0656 0.25617,0.10481 0.37679,0.17267 0.14074,0.0563 0.22032,-0.14272 0.0796,-0.19901 z" />
      <path
         style="fill:#1f2123;fill-opacity:1;stroke:none;stroke-width:0.702;stroke-linecap:round;stroke-miterlimit:4;stroke-dasharray:none;stroke-opacity:1;paint-order:markers stroke fill"
         id="path12499"
         d="m 749.91238,206.06204 c -0.35168,0.004 0.12785,-0.009 -0.31755,0.0339 -0.0859,0.008 -0.17251,0.007 -0.25876,0.01 -0.0895,0.006 -0.0806,0.13281 0.009,0.12656 v 0 c 0.0845,0.0128 0.16814,0.0365 0.2536,0.0384 0.11253,0.002 0.22204,-0.0573 0.33658,-0.0272 0.12832,-0.016 0.10564,-0.19753 -0.0228,-0.18149 z" />
      <path
         style="fill:#1f2123;fill-opacity:1;stroke:none;stroke-width:0.702;stroke-linecap:round;stroke-miterlimit:4;stroke-dasharray:none;stroke-opacity:1;paint-order:markers stroke fill"
         id="path12501"
         d="m 749.92109,209.63693 c -0.1827,0.20126 -0.0731,0.10547 -0.33298,0.27073 -0.0468,0.0298 -0.0935,0.0597 -0.14031,0.0896 -0.10806,0.0621 -0.0204,0.21486 0.0878,0.15278 v 0 c 0.047,-0.0405 0.0894,-0.087 0.14094,-0.12148 0.42228,-0.28196 0.0775,0.0189 0.38444,-0.2692 0.0866,-0.0989 -0.0533,-0.22135 -0.13988,-0.12242 z" />
      <path
         style="fill:#1f2123;fill-opacity:1;stroke:none;stroke-width:0.702;stroke-linecap:round;stroke-miterlimit:4;stroke-dasharray:none;stroke-opacity:1;paint-order:markers stroke fill"
         id="path12503"
         d="m 749.91765,209.7515 c -0.0705,0.13138 -0.11862,0.27237 -0.171,0.41136 -0.0801,0.21245 -0.0124,0.0179 -0.0775,0.21016 -0.0286,0.14412 0.17521,0.18457 0.20381,0.0404 v 0 c 0.0156,-0.11058 0.0343,-0.2259 0.0831,-0.32772 0.0514,-0.10723 0.0918,-0.14941 0.16071,-0.23473 0.0704,-0.14075 -0.12866,-0.24027 -0.19904,-0.0995 z" />
      <path
         style="fill:#1f2123;fill-opacity:1;stroke:none;stroke-width:0.702;stroke-linecap:round;stroke-miterlimit:4;stroke-dasharray:none;stroke-opacity:1;paint-order:markers stroke fill"
         id="path12505"
         d="m 750.02237,205.9699 c -0.0827,-0.23222 -0.11353,-0.28069 -0.14338,-0.53876 -0.008,-0.0683 0,-0.13751 0,-0.20626 -0.006,-0.0657 -0.0993,-0.0568 -0.093,0.009 v 0 c 0.018,0.0681 0.0409,0.13511 0.0539,0.20433 0.0347,0.18475 0.0384,0.37469 0.0886,0.55696 0.0177,0.0669 0.11247,0.0417 0.0946,-0.0252 z" />
      <path
         style="fill:#1f2123;fill-opacity:1;stroke:none;stroke-width:0.702;stroke-linecap:round;stroke-miterlimit:4;stroke-dasharray:none;stroke-opacity:1;paint-order:markers stroke fill"
         id="path12507"
         d="m 749.87698,206.18948 c -0.0924,0.10478 -0.11856,0.24773 -0.19505,0.36119 -0.0404,0.0599 -0.0992,0.10511 -0.1488,0.15767 -0.0317,0.0459 0.0332,0.0909 0.065,0.0449 v 0 c 0.0408,-0.0582 0.0774,-0.11971 0.12247,-0.17467 0.0817,-0.0995 0.1828,-0.18198 0.25953,-0.28599 0.0729,-0.0729 -0.0302,-0.17605 -0.10313,-0.10313 z" />
      <path
         style="fill:#1f2123;fill-opacity:1;stroke:none;stroke-width:0.702;stroke-linecap:round;stroke-miterlimit:4;stroke-dasharray:none;stroke-opacity:1;paint-order:markers stroke fill"
         id="path12509"
         d="m 750.08642,207.17473 c -0.21021,0.2067 0.0267,-0.0212 -0.27477,0.24524 -0.0624,0.0551 -0.12221,0.11302 -0.18333,0.16953 -0.0352,0.0295 0.007,0.0793 0.0417,0.0498 v 0 c 0.0648,-0.0507 0.12742,-0.10446 0.19455,-0.15213 0.10131,-0.072 0.21362,-0.12765 0.31152,-0.20481 0.0761,-0.0634 -0.0135,-0.17106 -0.0897,-0.10764 z" />
      <path
         style="fill:#1f2123;fill-opacity:1;stroke:none;stroke-width:0.702;stroke-linecap:round;stroke-miterlimit:4;stroke-dasharray:none;stroke-opacity:1;paint-order:markers stroke fill"
         id="path12511"
         d="m 749.8706,207.35463 c -0.0132,0.0535 -0.0209,0.10879 -0.0401,0.16044 -0.0627,0.16802 -0.16388,0.33903 -0.24894,0.49498 -0.0161,0.0315 0.0286,0.0542 0.0446,0.0227 v 0 c 0.0467,-0.0854 0.0908,-0.17218 0.1401,-0.25608 0.0887,-0.15095 0.15103,-0.2367 0.24646,-0.37462 0.0335,-0.10048 -0.10861,-0.14785 -0.14211,-0.0474 z" />
      <path
         style="fill:#1f2123;fill-opacity:1;stroke:none;stroke-width:0.702;stroke-linecap:round;stroke-miterlimit:4;stroke-dasharray:none;stroke-opacity:1;paint-order:markers stroke fill"
         id="path12513"
         d="m 749.96622,209.61001 c -0.14803,0.0283 -0.27493,0.0574 -0.43114,0.0575 -0.10813,5e-5 -0.21552,-0.0181 -0.32329,-0.0271 -0.0335,-0.003 -0.0379,0.0442 -0.005,0.0473 v 0 c 0.1092,0.007 0.21852,0.0126 0.32756,0.0219 0.0435,0.004 0.37737,0.0406 0.46122,0.0499 0.10567,-0.0211 0.0758,-0.17061 -0.0299,-0.14948 z" />
      <path
         style="fill:#1f2123;fill-opacity:1;stroke:none;stroke-width:0.702;stroke-linecap:round;stroke-miterlimit:4;stroke-dasharray:none;stroke-opacity:1;paint-order:markers stroke fill"
         id="path12515"
         d="m 749.91672,209.9015 c 0.006,0.031 0.0185,0.0614 0.0177,0.093 0,0.0618 -0.0161,0.12255 -0.0233,0.18394 -0.0153,0.13255 -0.04,0.40299 -0.0662,0.52875 -0.0167,0.0801 -0.0455,0.15711 -0.0683,0.23566 -0.008,0.0373 0.045,0.0484 0.0528,0.0111 v 0 c 0.0545,-0.22796 0.0648,-0.2769 0.12745,-0.51275 0.0217,-0.0822 0.0503,-0.16273 0.0678,-0.24594 0.0135,-0.0633 0.0111,-0.12927 0.0246,-0.19254 0.007,-0.0353 0.0254,-0.0675 0.0381,-0.10118 0,-0.12071 -0.17071,-0.12071 -0.17071,0 z" />
      <path
         style="fill:#1f2123;fill-opacity:1;stroke:none;stroke-width:0.702;stroke-linecap:round;stroke-miterlimit:4;stroke-dasharray:none;stroke-opacity:1;paint-order:markers stroke fill"
         id="path12517"
         d="m 750.16347,209.38921 c -0.0847,-0.149 -0.0278,-0.0525 -0.17878,-0.28464 -0.007,-0.0149 -0.0282,-0.005 -0.0209,0.0101 v 0 c 0.0884,0.26398 0.0418,0.16003 0.12076,0.31966 0.0319,0.0559 0.11093,0.0107 0.079,-0.0452 z" />
      <path
         style="fill:#1f2123;fill-opacity:1;stroke:none;stroke-width:0.702;stroke-linecap:round;stroke-miterlimit:4;stroke-dasharray:none;stroke-opacity:1;paint-order:markers stroke fill"
         id="path12519"
         d="m 750.35569,209.15714 c -0.17857,-0.0954 0.14161,0.0827 -0.15632,-0.13143 -0.074,-0.0532 -0.15898,-0.0893 -0.23503,-0.13953 -0.80113,-0.52914 0.18886,0.0903 -0.47048,-0.31777 -0.008,-0.004 -0.0135,0.007 -0.006,0.0109 v 0 c 0.0719,0.0388 0.14706,0.0721 0.21572,0.11636 0.16401,0.1057 0.31824,0.22666 0.44937,0.37178 0.0341,0.0378 0.0565,0.0848 0.0878,0.12489 0.0172,0.022 0.0381,0.0406 0.0572,0.0609 0.068,0.0408 0.12568,-0.0554 0.0577,-0.0961 z" />
      <path
         style="fill:#1f2123;fill-opacity:1;stroke:none;stroke-width:0.702;stroke-linecap:round;stroke-miterlimit:4;stroke-dasharray:none;stroke-opacity:1;paint-order:markers stroke fill"
         id="path12521"
         d="m 750.22171,209.04667 c -0.0109,0.003 -0.0233,0.014 -0.0326,0.008 -0.0193,-0.013 -0.0269,-0.038 -0.0403,-0.0571 -0.0313,-0.0445 -0.0623,-0.0891 -0.0939,-0.13344 -0.0455,-0.0639 -0.0973,-0.12378 -0.13729,-0.19128 -0.0317,-0.0533 -0.13359,-0.27863 -0.1704,-0.35899 -0.0246,-0.0375 -0.0776,-0.003 -0.053,0.0349 v 0 c 0.0328,0.0379 0.0716,0.0714 0.0985,0.11382 0.046,0.0727 0.17354,0.35187 0.21248,0.43084 0.004,0.008 0.11642,0.23155 0.14174,0.25937 0.0106,0.0115 0.03,0.008 0.045,0.0126 0.0838,0.021 0.11351,-0.0976 0.0296,-0.11859 z" />
      <path
         style="fill:#1f2123;fill-opacity:1;stroke:none;stroke-width:0.702;stroke-linecap:round;stroke-miterlimit:4;stroke-dasharray:none;stroke-opacity:1;paint-order:markers stroke fill"
         id="path12523"
         d="m 750.28899,208.87669 c -0.0665,-0.11951 -0.0254,-0.0499 -0.12787,-0.20588 -0.0146,-0.0313 -0.0589,-0.0106 -0.0442,0.0207 v 0 c 0.0511,0.17018 0.0259,0.10063 0.0689,0.21096 0.0182,0.073 0.12147,0.0472 0.10324,-0.0258 z" />
      <path
         style="fill:#1f2123;fill-opacity:1;stroke:none;stroke-width:0.702;stroke-linecap:round;stroke-miterlimit:4;stroke-dasharray:none;stroke-opacity:1;paint-order:markers stroke fill"
         id="path12525"
         d="m 749.82634,206.16274 c -0.50578,0.19517 0.21674,-0.0791 -0.38423,0.13141 -0.064,0.0224 -0.12589,0.0502 -0.18883,0.0753 -0.0265,0.0108 -0.0111,0.0484 0.0153,0.0375 v 0 c 0.0605,-0.0281 0.11835,-0.0628 0.18151,-0.0843 0.13565,-0.0461 0.25114,-0.0556 0.38981,-0.0741 0.0608,-0.01 0.0472,-0.0956 -0.0135,-0.086 z" />
      <path
         style="fill:#1f2123;fill-opacity:1;stroke:none;stroke-width:0.702;stroke-linecap:round;stroke-miterlimit:4;stroke-dasharray:none;stroke-opacity:1;paint-order:markers stroke fill"
         id="path12527"
         d="m 749.97535,206.07994 c -0.13502,-0.32382 0.0764,0.17109 -0.13166,-0.26107 -0.0233,-0.0483 -0.0394,-0.0997 -0.0591,-0.14958 -0.0161,-0.0355 -0.0663,-0.0127 -0.0502,0.0229 v 0 c 0.0233,0.0475 0.0505,0.0934 0.07,0.14261 0.0404,0.10182 0.054,0.17447 0.0775,0.2763 0.022,0.066 0.11533,0.0349 0.0933,-0.0311 z" />
      <path
         style="fill:#1f2123;fill-opacity:1;stroke:none;stroke-width:0.702;stroke-linecap:round;stroke-miterlimit:4;stroke-dasharray:none;stroke-opacity:1;paint-order:markers stroke fill"
         id="path12529"
         d="m 749.80869,206.50449 c -0.0748,0.23868 -0.0384,0.0983 -0.0932,0.42507 0.003,-0.007 -0.008,-0.0104 -0.01,-0.003 v 0 c 0.14311,-0.29412 0.0785,-0.16362 0.19285,-0.39206 0.0212,-0.0633 -0.0684,-0.0931 -0.0895,-0.0298 z" />
      <path
         style="fill:#1f2123;fill-opacity:1;stroke:none;stroke-width:0.702;stroke-linecap:round;stroke-miterlimit:4;stroke-dasharray:none;stroke-opacity:1;paint-order:markers stroke fill"
         id="path12531"
         d="m 749.99247,207.63904 c -0.13404,0.17231 -0.0577,0.091 -0.23148,0.2417 -0.0282,0.0219 0.003,0.0619 0.031,0.0399 v 0 c 0.17899,-0.1493 0.0873,-0.0836 0.27347,-0.1995 0.0581,-0.0516 -0.0148,-0.13376 -0.073,-0.0821 z" />
    </g>
  </g>
</svg>
