<?xml version="1.0" encoding="UTF-8" standalone="no"?>
<svg
   xmlns:dc="http://purl.org/dc/elements/1.1/"
   xmlns:cc="http://creativecommons.org/ns#"
   xmlns:rdf="http://www.w3.org/1999/02/22-rdf-syntax-ns#"
   xmlns:svg="http://www.w3.org/2000/svg"
   xmlns="http://www.w3.org/2000/svg"
   xmlns:sodipodi="http://sodipodi.sourceforge.net/DTD/sodipodi-0.dtd"
   xmlns:inkscape="http://www.inkscape.org/namespaces/inkscape"
   inkscape:export-ydpi="96"
   inkscape:export-xdpi="96"
   inkscape:export-filename="D:\Calcatz\Icon Pack\Adventure Narative Inspired by Arrival\GUI\Settings\png\dropdown - background_detail_2.png"
   sodipodi:docname="dropdown - background_detail_2.svg"
   inkscape:version="1.0 (4035a4fb49, 2020-05-01)"
   id="svg5994"
   version="1.1"
   viewBox="0 0 18.586981 2.6128519"
   height="2.6128519mm"
   width="18.586981mm">
  <defs
     id="defs5988" />
  <sodipodi:namedview
     inkscape:window-maximized="1"
     inkscape:window-y="-8"
     inkscape:window-x="-8"
     inkscape:window-height="705"
     inkscape:window-width="1366"
     fit-margin-bottom="0"
     fit-margin-right="0"
     fit-margin-left="0"
     fit-margin-top="0"
     showgrid="false"
     inkscape:document-rotation="0"
     inkscape:current-layer="layer1"
     inkscape:document-units="mm"
     inkscape:cy="5.2910577"
     inkscape:cx="18.882981"
     inkscape:zoom="5.3691756"
     inkscape:pageshadow="2"
     inkscape:pageopacity="0.0"
     borderopacity="1.0"
     bordercolor="#666666"
     pagecolor="#ffffff"
     id="base" />
  <metadata
     id="metadata5991">
    <rdf:RDF>
      <cc:Work
         rdf:about="">
        <dc:format>image/svg+xml</dc:format>
        <dc:type
           rdf:resource="http://purl.org/dc/dcmitype/StillImage" />
        <dc:title></dc:title>
      </cc:Work>
    </rdf:RDF>
  </metadata>
  <g
     transform="translate(-98.72433,-118.53817)"
     id="layer1"
     inkscape:groupmode="layer"
     inkscape:label="Layer 1">
    <g
       id="g11135"
       transform="translate(-566.85843,-22.716233)">
      <path
         style="fill:#cccccc;fill-opacity:1;stroke:none;stroke-width:0.264583px;stroke-linecap:butt;stroke-linejoin:miter;stroke-opacity:1"
         d="m 665.58276,142.74271 c 0,0 4.15891,0.54865 5.79344,0.62603 0.73508,0.0348 1.44696,-0.32163 2.18281,-0.33073 1.05555,-0.013 2.08692,0.23442 3.14193,0.1981 0.74114,-0.0255 1.44512,-0.15524 2.18281,-0.23117 1.0309,-0.10611 2.1985,0.45807 3.2024,0.20076 0.52076,-0.13348 2.08359,-0.3638 2.08359,-0.3638 l -4.36563,-1.5875 -7.8052,0.0992 -3.83646,0.1323 z"
         id="path11087"
         sodipodi:nodetypes="csssssccccc" />
      <path
         style="fill:#cccccc;fill-opacity:1;stroke:none;stroke-width:0.527624;stroke-linecap:round;stroke-miterlimit:4;stroke-dasharray:none;stroke-opacity:1;paint-order:markers stroke fill"
         id="path11089"
         d="m 681.72488,142.93984 c -0.0866,0.27689 -0.24627,0.49756 -0.43109,0.71533 -0.068,0.12761 0.11248,0.22377 0.18047,0.0962 v 0 c 0.0434,-0.11643 0.0899,-0.25004 0.15617,-0.35041 0.003,-0.005 0.25185,-0.29419 0.30485,-0.35587 0.0744,-0.14878 -0.13602,-0.25398 -0.2104,-0.10521 z" />
      <path
         style="fill:#cccccc;fill-opacity:1;stroke:none;stroke-width:0.547035;stroke-linecap:round;stroke-miterlimit:4;stroke-dasharray:none;stroke-opacity:1;paint-order:markers stroke fill"
         id="path11091"
         d="m 675.87971,143.04707 c 0.0426,0.10058 0.13717,0.1654 0.18996,0.25834 0.23704,0.41737 -0.11594,-0.0669 0.15131,0.30893 0.10973,0.15434 0.0831,0.0529 0.10055,0.18911 0.0982,0.14888 0.30874,0.01 0.21053,-0.13888 v 0 c -0.02,-0.0167 -0.0437,-0.0297 -0.0599,-0.05 -0.0293,-0.0366 -0.0494,-0.0798 -0.075,-0.11904 -0.0272,-0.0416 -0.055,-0.0829 -0.0834,-0.12372 -0.0697,-0.10009 -0.14408,-0.1843 -0.18556,-0.30207 -0.013,-0.0369 -0.009,-0.0778 -0.0132,-0.11667 -0.0665,-0.16623 -0.30157,-0.0721 -0.23508,0.094 z" />
      <path
         style="fill:#cccccc;fill-opacity:1;stroke:none;stroke-width:0.547035;stroke-linecap:round;stroke-miterlimit:4;stroke-dasharray:none;stroke-opacity:1;paint-order:markers stroke fill"
         id="path11093"
         d="m 676.08318,143.21039 c 0.16683,0.0808 0.0438,0.0164 0.24875,0.14416 0.0609,0.038 0.12358,0.0733 0.18405,0.11198 0.1253,0.0802 0.19199,0.14248 0.32997,0.19843 0.0413,0.0168 0.0865,0.0219 0.12974,0.0328 0.16204,0.0215 0.19249,-0.20762 0.0305,-0.22915 v 0 c -0.13556,0.0368 -0.0661,0.0369 -0.23943,-0.0413 -0.0545,-0.0246 -0.11311,-0.043 -0.16199,-0.0776 -0.0596,-0.0422 -0.1053,-0.10131 -0.15977,-0.14997 -0.29716,-0.26542 0.027,0.041 -0.21255,-0.18833 -0.1407,-0.10552 -0.28991,0.0934 -0.14923,0.19896 z" />
      <path
         style="fill:#cccccc;fill-opacity:1;stroke:none;stroke-width:0.586542;stroke-linecap:round;stroke-miterlimit:4;stroke-dasharray:none;stroke-opacity:1;paint-order:markers stroke fill"
         id="path11095"
         d="m 671.53775,142.93629 c -0.0339,0.0499 -0.0651,0.10166 -0.10168,0.14961 -0.0368,0.0483 -0.0823,0.0897 -0.11816,0.13883 -0.21181,0.29024 0.023,0.004 -0.14969,0.25397 -0.0109,0.0157 -0.0277,0.0263 -0.0416,0.0395 -0.0997,0.17844 0.15265,0.31944 0.25236,0.14101 v 0 c 0.005,-0.11053 -0.009,-0.0515 0.0561,-0.17005 0.023,-0.0419 0.0422,-0.0859 0.0687,-0.12563 0.0775,-0.11622 0.1188,-0.14479 0.21987,-0.24127 0.1315,-0.13149 -0.0545,-0.31745 -0.18596,-0.18596 z" />
      <path
         style="fill:#cccccc;fill-opacity:1;stroke:none;stroke-width:0.702;stroke-linecap:round;stroke-miterlimit:4;stroke-dasharray:none;stroke-opacity:1;paint-order:markers stroke fill"
         id="path11097"
         d="m 681.6391,143.1551 c 0.0423,0.2955 -0.008,-0.0931 0.0167,0.28692 0.004,0.0609 0.0222,0.12071 0.0227,0.18176 0,0.0577 -0.0132,0.11458 -0.0196,0.17187 0,0.0654 0.0925,0.0654 0.0925,0 v 0 c 0.003,-0.3781 -0.007,0.0397 0.0227,-0.35363 0.0257,-0.34471 -0.0172,-0.0165 0.022,-0.28692 0,-0.11095 -0.15689,-0.11095 -0.15689,0 z" />
      <path
         style="fill:#cccccc;fill-opacity:1;stroke:none;stroke-width:0.547035;stroke-linecap:round;stroke-miterlimit:4;stroke-dasharray:none;stroke-opacity:1;paint-order:markers stroke fill"
         id="path11099"
         d="m 675.82104,143.01274 c 0.0421,0.11854 0.10903,0.26667 0.087,0.39417 -0.024,0.13909 -0.0768,0.19722 -0.14954,0.30956 -0.0257,0.0355 0.0244,0.0718 0.0501,0.0363 v 0 c 0.0795,-0.13513 0.12243,-0.18742 0.16226,-0.34591 0.0352,-0.14013 0.0114,-0.15102 -0.007,-0.2821 -0.0442,-0.31028 0.0171,0.0608 -0.0173,-0.14337 -0.0221,-0.0885 -0.14734,-0.0573 -0.12521,0.0313 z" />
      <path
         style="fill:#cccccc;fill-opacity:1;stroke:none;stroke-width:0.586542;stroke-linecap:round;stroke-miterlimit:4;stroke-dasharray:none;stroke-opacity:1;paint-order:markers stroke fill"
         id="path11101"
         d="m 671.50379,143.16058 c -0.002,0.0372 -0.004,0.0744 -0.006,0.11158 -0.003,0.0494 -0.006,0.0986 -0.008,0.14802 0,0.0125 -0.006,0.24825 -0.008,0.28134 -0.003,0.0193 -0.0236,0.0463 -0.008,0.0575 0.0337,0.0239 0.0811,0.0156 0.12176,0.0234 0.0524,-0.0854 -0.0684,-0.15944 -0.12077,-0.074 v 0 c 0.0413,0.0129 0.0807,0.0424 0.12382,0.0388 0.0172,-0.002 -0.0184,-0.0303 -0.0212,-0.0475 -0.007,-0.0382 -0.006,-0.0773 -0.007,-0.11597 -0.003,-0.0524 -0.005,-0.10495 -0.003,-0.15728 0.007,-0.1118 0.0238,-0.16105 0.05,-0.2659 0,-0.0818 -0.11571,-0.0818 -0.11571,0 z" />
      <path
         style="fill:#cccccc;fill-opacity:1;stroke:none;stroke-width:0.702;stroke-linecap:round;stroke-miterlimit:4;stroke-dasharray:none;stroke-opacity:1;paint-order:markers stroke fill"
         id="path11103"
         d="m 672.4355,142.59231 c 0.0414,0.0369 0.0877,0.0689 0.12409,0.11075 0.06,0.0689 0.10938,0.14641 0.16362,0.21995 0.0946,0.12829 0.18847,0.25714 0.28292,0.38554 0.28255,0.38409 0.20198,0.20016 0.30279,0.51051 0.0399,0.0534 0.11552,-0.003 0.0755,-0.0565 v 0 c -0.044,-0.0411 -0.0945,-0.0763 -0.13219,-0.12325 -0.25466,-0.31738 -0.25693,-0.39148 -0.46908,-0.75626 -0.0468,-0.0804 -0.10215,-0.15557 -0.14904,-0.23589 -0.0316,-0.0541 -0.0575,-0.11144 -0.0863,-0.16716 -0.0794,-0.0794 -0.19177,0.0329 -0.11235,0.11234 z" />
      <path
         style="fill:#cccccc;fill-opacity:1;stroke:none;stroke-width:0.586542;stroke-linecap:round;stroke-miterlimit:4;stroke-dasharray:none;stroke-opacity:1;paint-order:markers stroke fill"
         id="path11105"
         d="m 671.16012,143.18331 c -0.0117,0.0218 -0.0201,0.0456 -0.0349,0.0654 -0.10074,0.13539 -0.22334,0.21378 -0.3818,0.26966 -0.0304,0.0107 -0.0633,0.0123 -0.0949,0.0185 -0.0648,0.0187 -0.0384,0.11051 0.0265,0.0918 v 0 c 0.0325,-0.0158 0.064,-0.0338 0.0975,-0.0473 0.0573,-0.0231 0.12037,-0.0329 0.1746,-0.0627 0.0529,-0.0291 0.0946,-0.0749 0.14274,-0.11149 0.15028,-0.1141 0.0774,-0.0428 0.17303,-0.14676 0.0545,-0.0727 -0.0483,-0.14975 -0.10277,-0.0771 z" />
      <path
         style="fill:#cccccc;fill-opacity:1;stroke:none;stroke-width:0.702;stroke-linecap:round;stroke-miterlimit:4;stroke-dasharray:none;stroke-opacity:1;paint-order:markers stroke fill"
         id="path11107"
         d="m 678.11345,143.15657 c 0.0689,0.024 0.13774,0.0479 0.20661,0.0718 0.0967,0.0405 0.19169,0.0852 0.29007,0.12138 0.59031,0.21708 0.10218,0.003 0.51964,0.19379 0.0404,0.0113 0.0565,-0.0458 0.0161,-0.0572 v 0 c -0.26176,-0.0573 -0.22495,-0.038 -0.52052,-0.16919 -0.0937,-0.0416 -0.18896,-0.0821 -0.27485,-0.13816 -0.0601,-0.0392 -0.10604,-0.0966 -0.15906,-0.14488 -0.0866,-0.0551 -0.1645,0.0673 -0.0779,0.12243 z" />
      <path
         style="fill:#cccccc;fill-opacity:1;stroke:none;stroke-width:0.702;stroke-linecap:round;stroke-miterlimit:4;stroke-dasharray:none;stroke-opacity:1;paint-order:markers stroke fill"
         id="path11109"
         d="m 678.24384,142.96437 c 0.0428,0.0464 0.1175,0.13027 0.16372,0.1646 0.24932,0.18508 0.32157,0.19897 0.59404,0.36907 0.0678,0.0423 0.13174,0.0907 0.19762,0.1361 0.0486,0.0252 0.0842,-0.0436 0.0356,-0.0687 v 0 c -0.0795,-0.0199 -0.16582,-0.0218 -0.23855,-0.0596 -0.23715,-0.12322 -0.34137,-0.25977 -0.50377,-0.45672 -0.0265,-0.032 -0.0516,-0.0653 -0.0736,-0.10051 -0.0114,-0.0182 -0.0172,-0.0393 -0.0259,-0.0589 -0.0528,-0.10557 -0.20209,-0.0309 -0.14928,0.0746 z" />
      <path
         style="fill:#cccccc;fill-opacity:1;stroke:none;stroke-width:0.702;stroke-linecap:round;stroke-miterlimit:4;stroke-dasharray:none;stroke-opacity:1;paint-order:markers stroke fill"
         id="path11111"
         d="m 677.37391,143.18393 c 0.12854,0.11562 0.2649,0.16171 0.42834,0.21349 0.15761,0.0499 0.31072,0.0929 0.47577,0.11132 0.0821,0.009 0.16499,0.007 0.24749,0.0105 0.0466,0.005 0.0535,-0.0609 0.007,-0.0659 v 0 c -0.15258,-0.0171 -0.32747,-0.0327 -0.47778,-0.0658 -0.0755,-0.0166 -0.15142,-0.034 -0.22315,-0.0626 -0.0616,-0.0246 -0.11727,-0.062 -0.17405,-0.0963 -0.0386,-0.0233 -0.0776,-0.0469 -0.11189,-0.0762 -0.0198,-0.0169 -0.0324,-0.0406 -0.0486,-0.0609 -0.0653,-0.0871 -0.18843,0.005 -0.12313,0.0924 z" />
      <path
         style="fill:#cccccc;fill-opacity:1;stroke:none;stroke-width:0.702;stroke-linecap:round;stroke-miterlimit:4;stroke-dasharray:none;stroke-opacity:1;paint-order:markers stroke fill"
         id="path11113"
         d="m 679.68354,142.94254 c 0.0272,0.0295 0.0518,0.0615 0.0815,0.0885 0.0368,0.0333 0.32755,0.26288 0.34811,0.28035 0.0624,0.0529 0.12086,0.1103 0.18227,0.16435 0.0454,0.04 0.0921,0.0785 0.13819,0.11775 0.0546,0.0407 0.11216,-0.0365 0.0576,-0.0772 v 0 c -0.0529,-0.0281 -0.10946,-0.0503 -0.15873,-0.0844 -0.0665,-0.0461 -0.12753,-0.1 -0.18695,-0.15498 -0.13989,-0.12947 -0.26339,-0.27523 -0.35129,-0.44501 -0.0783,-0.0783 -0.18899,0.0324 -0.1107,0.11072 z" />
      <path
         style="fill:#cccccc;fill-opacity:1;stroke:none;stroke-width:0.702;stroke-linecap:round;stroke-miterlimit:4;stroke-dasharray:none;stroke-opacity:1;paint-order:markers stroke fill"
         id="path11115"
         d="m 680.09862,143.0546 c 0.006,0.0255 0.0172,0.0504 0.0177,0.0765 0.003,0.11035 -0.0355,0.18461 -0.0793,0.2873 -0.0262,0.0618 -0.0474,0.12694 -0.0848,0.18273 -0.0257,0.0382 -0.0671,0.0628 -0.10064,0.0941 -0.0516,0.0654 0.0408,0.13839 0.0924,0.073 v 0 c 0.18894,-0.27844 -0.0273,0.0563 0.17026,-0.31935 0.0316,-0.0601 0.0799,-0.11094 0.10761,-0.1729 0.0328,-0.0733 0.0347,-0.14517 0.0408,-0.22148 0,-0.11601 -0.16407,-0.11601 -0.16407,0 z" />
      <path
         style="fill:#cccccc;fill-opacity:1;stroke:none;stroke-width:0.702;stroke-linecap:round;stroke-miterlimit:4;stroke-dasharray:none;stroke-opacity:1;paint-order:markers stroke fill"
         id="path11117"
         d="m 679.61851,142.93545 c 0.0106,0.16558 -0.007,0.0162 0.0534,0.22133 0.0175,0.0586 0.0293,0.11868 0.044,0.17801 0.0154,0.0737 0.11952,0.0519 0.10414,-0.0217 v 0 c -0.0151,-0.0597 -0.034,-0.11858 -0.0449,-0.17918 -0.0143,-0.0798 -0.009,-0.12331 -0.005,-0.19842 0,-0.10726 -0.15168,-0.10726 -0.15168,0 z" />
      <path
         style="fill:#cccccc;fill-opacity:1;stroke:none;stroke-width:0.702;stroke-linecap:round;stroke-miterlimit:4;stroke-dasharray:none;stroke-opacity:1;paint-order:markers stroke fill"
         id="path11119"
         d="m 681.6132,143.22071 c 0.10221,0.12216 0.0727,0.09 0.19362,0.21939 0.0439,0.047 0.14666,0.13955 0.1728,0.21143 0.006,0.0163 -0.005,0.0344 -0.008,0.0516 0.0296,0.0768 0.13812,0.035 0.10856,-0.0418 v 0 c -0.0924,-0.0946 -0.004,-0.002 -0.12414,-0.13477 -0.0365,-0.0402 -0.0767,-0.0772 -0.11049,-0.11972 -0.0712,-0.0895 -0.0956,-0.14216 -0.14745,-0.23717 -0.0361,-0.0601 -0.12108,-0.009 -0.085,0.051 z" />
      <path
         style="fill:#cccccc;fill-opacity:1;stroke:none;stroke-width:0.702;stroke-linecap:round;stroke-miterlimit:4;stroke-dasharray:none;stroke-opacity:1;paint-order:markers stroke fill"
         id="path11121"
         d="m 681.58441,143.0931 c -0.0415,0.13671 -0.10789,0.24803 -0.24074,0.31595 -0.0468,0.0239 -0.0992,0.0348 -0.14888,0.0522 -0.0379,0.0162 -0.0151,0.0698 0.023,0.0536 v 0 c 0.0781,-0.0344 0.21367,-0.0889 0.28538,-0.14006 0.0357,-0.0255 0.0673,-0.0569 0.0956,-0.0904 0.038,-0.0449 0.0542,-0.10578 0.0993,-0.14588 0.0322,-0.0803 -0.0815,-0.12577 -0.11358,-0.0454 z" />
      <path
         style="fill:#cccccc;fill-opacity:1;stroke:none;stroke-width:0.702;stroke-linecap:round;stroke-miterlimit:4;stroke-dasharray:none;stroke-opacity:1;paint-order:markers stroke fill"
         id="path11123"
         d="m 679.5572,142.88549 c -0.005,0.0255 -0.0127,0.0507 -0.014,0.0766 -0.003,0.0457 0.008,0.0918 0.003,0.13729 -0.0164,0.1464 -0.0652,0.3666 -0.12493,0.50335 -0.0169,0.0388 -0.0492,0.069 -0.0737,0.10354 -0.0193,0.0433 0.042,0.0705 0.0612,0.0272 v 0 c 0.008,-0.0422 0.0135,-0.0853 0.0251,-0.12676 0.0167,-0.0595 0.14595,-0.44394 0.16344,-0.49701 0.0143,-0.0431 0.0297,-0.0858 0.0418,-0.12957 0.007,-0.0264 0.0109,-0.0537 0.0164,-0.0805 0.0101,-0.0697 -0.0887,-0.0838 -0.0986,-0.0141 z" />
      <path
         style="fill:#cccccc;fill-opacity:1;stroke:none;stroke-width:0.702;stroke-linecap:round;stroke-miterlimit:4;stroke-dasharray:none;stroke-opacity:1;paint-order:markers stroke fill"
         id="path11125"
         d="m 672.78225,143.01498 c 0.20527,0.20315 -0.14337,-0.13615 0.16873,0.13956 0.0381,0.0336 0.0677,0.0761 0.10602,0.10954 0.0678,0.0591 0.15123,0.10995 0.22712,0.15886 0.0407,0.0269 0.0787,-0.0306 0.038,-0.0575 v 0 c -0.0351,-0.0154 -0.0735,-0.0247 -0.10533,-0.0461 -0.0429,-0.0288 -0.0777,-0.0682 -0.1161,-0.10276 -0.0366,-0.033 -0.0762,-0.063 -0.10895,-0.0999 -0.0471,-0.053 -0.0746,-0.12144 -0.1261,-0.17124 -0.0492,-0.059 -0.13259,0.0105 -0.0834,0.0695 z" />
      <path
         style="fill:#cccccc;fill-opacity:1;stroke:none;stroke-width:0.702;stroke-linecap:round;stroke-miterlimit:4;stroke-dasharray:none;stroke-opacity:1;paint-order:markers stroke fill"
         id="path11127"
         d="m 672.84523,143.08642 c -0.003,0.0606 0.0241,0.11901 0.0228,0.17922 -0.003,0.0992 -0.0529,0.22174 -0.0819,0.30949 -0.008,0.019 0.0185,0.0307 0.0269,0.0117 v 0 c 0.0323,-0.0605 0.0725,-0.11742 0.0968,-0.18153 0.0169,-0.0442 0.0177,-0.0929 0.0251,-0.13965 0.0138,-0.0856 0.014,-0.10292 0.0201,-0.17922 0,-0.0779 -0.1101,-0.0779 -0.1101,0 z" />
      <path
         style="fill:#cccccc;fill-opacity:1;stroke:none;stroke-width:0.702;stroke-linecap:round;stroke-miterlimit:4;stroke-dasharray:none;stroke-opacity:1;paint-order:markers stroke fill"
         id="path11129"
         d="m 672.40567,143.10295 c 0,0.10933 0.008,0.0768 -0.0313,0.2047 -0.0156,0.0514 -0.0292,0.10388 -0.0521,0.1525 -0.0249,0.0531 -0.0604,0.10068 -0.0906,0.15102 -0.0143,0.0254 0.0217,0.0458 0.036,0.0203 v 0 c 0.17222,-0.27567 0.0304,-0.0303 0.16034,-0.30697 0.0917,-0.19528 0.0459,-0.0448 0.0895,-0.22157 0,-0.0791 -0.1119,-0.0791 -0.1119,0 z" />
      <path
         style="fill:#cccccc;fill-opacity:1;stroke:none;stroke-width:0.702;stroke-linecap:round;stroke-miterlimit:4;stroke-dasharray:none;stroke-opacity:1;paint-order:markers stroke fill"
         id="path11131"
         d="m 674.27839,142.94063 c 0.10621,0.12368 0.20072,0.25769 0.2912,0.39309 0.0577,0.0864 0.10766,0.17807 0.16942,0.26165 0.0606,0.082 0.13123,0.15612 0.19685,0.23417 0.005,0.006 0.0138,-0.001 0.009,-0.007 v 0 c -0.0659,-0.0774 -0.1388,-0.14929 -0.19773,-0.23209 -0.0122,-0.0171 -0.245,-0.4138 -0.27193,-0.46945 -0.22416,-0.46321 0.0641,0.0665 -0.1079,-0.24351 -0.0447,-0.0626 -0.13332,5.3e-4 -0.0886,0.0633 z" />
      <path
         style="fill:#cccccc;fill-opacity:1;stroke:none;stroke-width:0.702;stroke-linecap:round;stroke-miterlimit:4;stroke-dasharray:none;stroke-opacity:1;paint-order:markers stroke fill"
         id="path11133"
         d="m 674.31925,143.06072 c 0.24553,0.0967 0.47818,0.22243 0.71993,0.32784 0.16658,0.0726 0.33528,0.14033 0.50294,0.2105 0.004,0.002 0.007,-0.004 0.003,-0.006 v 0 c -0.25112,-0.10151 -0.58185,-0.22074 -0.82629,-0.36248 -0.0776,-0.045 -0.14621,-0.10411 -0.21987,-0.15535 -0.0444,-0.0309 -0.0897,-0.0607 -0.13452,-0.0911 -0.0543,-0.0317 -0.099,0.0451 -0.0448,0.0767 z" />
    </g>
  </g>
</svg>
