<?xml version="1.0" encoding="UTF-8" standalone="no"?>
<svg
   xmlns:dc="http://purl.org/dc/elements/1.1/"
   xmlns:cc="http://creativecommons.org/ns#"
   xmlns:rdf="http://www.w3.org/1999/02/22-rdf-syntax-ns#"
   xmlns:svg="http://www.w3.org/2000/svg"
   xmlns="http://www.w3.org/2000/svg"
   xmlns:sodipodi="http://sodipodi.sourceforge.net/DTD/sodipodi-0.dtd"
   xmlns:inkscape="http://www.inkscape.org/namespaces/inkscape"
   inkscape:export-ydpi="96"
   inkscape:export-xdpi="96"
   inkscape:export-filename="D:\Calcatz\Icon Pack\Adventure Narative Inspired by Arrival\GUI\Settings\png\dropdown_item.png"
   sodipodi:docname="dropdown_item.svg"
   inkscape:version="1.0 (4035a4fb49, 2020-05-01)"
   id="svg2893"
   version="1.1"
   viewBox="0 0 41.83363 29.456293"
   height="29.456293mm"
   width="41.83363mm">
  <defs
     id="defs2887" />
  <sodipodi:namedview
     inkscape:window-maximized="1"
     inkscape:window-y="-8"
     inkscape:window-x="-8"
     inkscape:window-height="705"
     inkscape:window-width="1366"
     fit-margin-bottom="0"
     fit-margin-right="0"
     fit-margin-left="0"
     fit-margin-top="0"
     showgrid="false"
     inkscape:document-rotation="0"
     inkscape:current-layer="layer1"
     inkscape:document-units="mm"
     inkscape:cy="16.386344"
     inkscape:cx="182.08045"
     inkscape:zoom="1.3422939"
     inkscape:pageshadow="2"
     inkscape:pageopacity="0.0"
     borderopacity="1.0"
     bordercolor="#666666"
     pagecolor="#ffffff"
     id="base" />
  <metadata
     id="metadata2890">
    <rdf:RDF>
      <cc:Work
         rdf:about="">
        <dc:format>image/svg+xml</dc:format>
        <dc:type
           rdf:resource="http://purl.org/dc/dcmitype/StillImage" />
        <dc:title></dc:title>
      </cc:Work>
    </rdf:RDF>
  </metadata>
  <g
     transform="translate(-84.916394,-133.43715)"
     id="layer1"
     inkscape:groupmode="layer"
     inkscape:label="Layer 1">
    <path
       id="rect13258"
       style="fill:#1f2123;fill-opacity:1;stroke:none;stroke-width:1.4183;stroke-linecap:round;paint-order:markers stroke fill"
       d="m 87.28043,133.44447 c -0.732896,8e-5 -1.322917,0.59002 -1.322917,1.32292 v 17.08475 c -0.09297,0.25016 -0.185155,0.51956 -0.254767,0.77152 -0.04117,-0.11445 -0.07004,-0.20671 -0.09147,-0.39168 -0.01005,-0.0683 0,-0.13746 0,-0.20619 -0.01005,-0.0657 -0.09901,-0.057 -0.09303,0.009 0.01799,0.0681 0.04127,0.13541 0.05427,0.20462 0.03429,0.18098 0.03876,0.36688 0.08681,0.54571 -0.0127,-0.0222 -0.03482,-0.0647 -0.08319,-0.16537 -0.02302,-0.0483 -0.03942,-0.0995 -0.05943,-0.14935 -0.01587,-0.0355 -0.06562,-0.013 -0.04961,0.0228 0.02302,0.0475 0.04977,0.0934 0.06977,0.14261 0.02064,0.0523 0.03442,0.0973 0.04598,0.14213 -0.05763,-0.0146 -0.113876,-0.0364 -0.207751,-0.0894 -0.04498,-0.0254 -0.08072,-0.0634 -0.121443,-0.0951 -0.102077,-0.0708 -0.202433,0.0739 -0.100251,0.1447 0.05101,0.0337 0.09792,0.0724 0.151421,0.10128 0.03389,0.0183 0.07009,0.0322 0.10541,0.0475 -0.029,0.003 -0.03395,0.006 -0.08319,0.0103 -0.08599,0.008 -0.172694,0.007 -0.258895,0.01 -0.09001,0.006 -0.08067,0.13288 0.01032,0.12663 0.0625,0.01 0.124989,0.0222 0.188119,0.0305 -0.03537,0.0122 -0.03495,0.0111 -0.092,0.031 -0.064,0.0225 -0.126127,0.0503 -0.189124,0.0754 -0.02593,0.0109 -0.01111,0.0481 0.01508,0.0372 0.06101,-0.0281 0.118295,-0.0627 0.181399,-0.0842 0.134276,-0.0456 0.249343,-0.0552 0.386,-0.0734 -0.05969,0.0956 -0.09057,0.20836 -0.153458,0.30179 -0.04,0.0599 -0.09903,0.10504 -0.148828,0.15761 -0.03202,0.0459 0.0331,0.091 0.06511,0.045 0.04098,-0.0582 0.07654,-0.1197 0.121946,-0.17465 0.04302,-0.0522 0.09078,-0.10044 0.13798,-0.14886 0,0.0143 -0.0026,0.0286 -0.0037,0.0429 -0.01852,-2.1e-4 -0.03731,0.007 -0.04598,0.032 -0.06943,0.22088 -0.0477,0.14349 -0.08784,0.39066 0.07414,-0.15266 0.09618,-0.19621 0.127106,-0.25786 -0.0026,0.22757 0.0164,0.4558 0.04599,0.68212 -0.0093,0.009 -0.01746,0.019 -0.02276,0.0346 v 0 c -0.0026,0.007 -0.0037,0.0135 -0.0053,0.0201 -0.02461,0.0212 -0.0063,0.004 -0.05374,0.0455 -0.06199,0.0551 -0.122343,0.113 -0.183462,0.16952 -0.03498,0.0295 0.0098,0.0791 0.04186,0.0496 0.05358,-0.0418 0.106601,-0.0842 0.160735,-0.12507 -1.32e-4,0 0,0 0,0 -0.063,0.16801 -0.16346,0.33912 -0.24855,0.49506 -0.01587,0.0315 0.02895,0.0542 0.04495,0.0228 0.04699,-0.0854 0.09094,-0.1724 0.140044,-0.2563 0.05681,-0.0963 0.106548,-0.16552 0.157083,-0.23926 0.0079,0.0488 0.02196,0.0964 0.03514,0.14417 -0.06443,0.085 -0.05305,0.0731 -0.197909,0.19897 -0.02799,0.022 0,0.0623 0.03101,0.0403 0.12565,-0.10481 0.141499,-0.11769 0.190156,-0.1478 0.07387,0.22915 0.180181,0.45167 0.196903,0.6904 0.0053,0.0764 0.0026,0.15251 -0.0048,0.22842 -0.0079,-0.0116 -0.0029,-0.005 -0.01349,-0.0212 -0.01508,-0.0313 -0.05892,-0.0106 -0.04392,0.0206 0.03106,0.10361 0.03466,0.10811 0.04186,0.12869 -0.0077,0.0512 -0.01746,0.10234 -0.02738,0.15346 -0.0254,-0.0364 -0.0508,-0.0732 -0.07699,-0.10954 -0.04501,-0.0639 -0.09726,-0.12372 -0.137477,-0.19121 -0.03199,-0.0533 -0.133218,-0.27826 -0.169995,-0.35865 -0.02514,-0.0375 -0.07824,-0.003 -0.05323,0.0346 0.03299,0.0379 0.0722,0.0713 0.09922,0.1137 0.04599,0.0727 0.173488,0.352 0.212381,0.43098 0,0 0.01032,0.0201 0.01244,0.0249 -0.01799,-0.0103 -0.03635,-0.0206 -0.05374,-0.032 -0.01588,-0.0106 -0.01085,-0.007 -0.0254,-0.0169 0.03694,0.0302 0.06911,0.0655 0.103875,0.0982 0.02408,0.0471 0.04135,0.0775 0.06768,0.12247 -0.01138,0.054 -0.02196,0.10819 -0.03307,0.16227 -0.01508,-0.0238 -0.01429,-0.027 -0.0925,-0.14729 -0.01006,-0.0148 -0.02818,-0.005 -0.02117,0.01 0.06453,0.19354 0.068,0.20841 0.09043,0.25529 -0.01429,0.0783 -0.02566,0.15687 -0.03204,0.23564 -0.02196,-0.007 -0.04667,-0.006 -0.07027,0.007 -0.141711,0.0274 -0.266144,0.0547 -0.417036,0.0548 -0.108082,5e-5 -0.215159,-0.018 -0.322977,-0.0269 -0.034,-0.003 -0.03781,0.0439 -0.0098,0.047 0.109194,0.007 0.218017,0.0124 0.327105,0.0217 0.02752,0.003 0.171,0.0185 0.29509,0.032 -0.03829,0.0399 -0.06744,0.0592 -0.236168,0.1664 -0.04699,0.0298 -0.09274,0.0595 -0.140043,0.0894 -0.108003,0.0621 -0.02011,0.21502 0.08784,0.15295 0.04702,-0.0405 0.08908,-0.087 0.141076,-0.12144 0.08623,-0.0575 0.124857,-0.0792 0.159173,-0.0982 -0.03119,0.0769 -0.06011,0.15489 -0.0894,0.23254 -0.08001,0.21246 -0.01191,0.0175 -0.07699,0.20981 -0.029,0.14412 0.174995,0.18447 0.203597,0.0403 0.0085,-0.0576 0.01799,-0.11604 0.03154,-0.17361 -0.01508,0.14205 -0.0359,0.35628 -0.05892,0.46767 -0.01693,0.0801 -0.04622,0.15709 -0.06821,0.23564 -0.01005,0.0373 0.04522,0.0481 0.05323,0.0108 0.054,-0.22796 0.06472,-0.27678 0.127106,-0.51263 0.02196,-0.0822 0.05022,-0.16277 0.06821,-0.24598 0.0074,-0.0339 0.01058,-0.0683 0.01349,-0.10285 0.02328,0.20635 0.05861,0.41191 0.0925,0.61651 0.02222,0.13446 0.05617,0.30319 0.09303,0.47905 v 2.23243 c 0,0.73287 0.590021,1.32291 1.322917,1.32291 h 2.954337 c 0.284242,0.10017 0.634392,0.21371 0.966364,0.28991 -0.02513,0.072 -0.02064,0.0546 -0.139012,0.21857 -0.03601,0.0495 -0.06884,0.10139 -0.102843,0.15195 -0.01799,0.0257 0.01773,0.0509 0.03567,0.0254 0.0771,-0.10747 0.155892,-0.21408 0.240294,-0.31626 -0.0027,0.0227 -0.0056,0.0455 -0.0056,0.0682 -0.009,0.0462 0.04712,0.0595 0.06562,0.0243 0.0045,0.0217 0.0087,0.0376 0.03514,0.17569 0.01508,0.0829 0.02895,0.16605 0.04395,0.24907 0,0.0314 0.04892,0.0251 0.04392,-0.007 -0.01111,-0.10308 -0.04384,-0.36216 -0.04082,-0.47334 0,-0.0135 0.0042,-0.0269 0.0061,-0.0403 0.0085,0.008 0.01852,0.0135 0.02646,0.0217 0.123799,0.13423 0.184732,0.27144 0.284745,0.4227 0.191109,0.2893 0.07821,0.0684 0.19431,0.31782 0.08898,0.1061 0.238548,-0.019 0.14986,-0.12507 -0.068,-0.0725 -0.182959,-0.19187 -0.232542,-0.26508 -0.02196,-0.0321 -0.03884,-0.0669 -0.05686,-0.10129 0.04437,0.0251 0.105198,0.0554 0.312658,0.17209 0,0.003 0.01005,-0.003 0,-0.005 -0.280089,-0.23725 -0.270987,-0.20579 -0.335916,-0.29397 0.0087,0.004 0.01085,0.007 0.02064,0.0109 0.04998,0.0217 0.103002,0.035 0.15449,0.0522 0.09102,0.0469 0.157559,-0.0823 0.06615,-0.12917 -0.03868,-0.0265 -0.07713,-0.0537 -0.116787,-0.0791 0.154623,-0.005 0.309139,-0.0273 0.46355,-0.0517 0.09337,0.0735 0.131921,0.10101 0.232542,0.19328 0.049,0.0451 0.09607,0.0932 0.144172,0.13951 0.02011,0.0196 0.04691,-0.008 0.02791,-0.0279 -0.049,-0.0451 -0.10168,-0.0868 -0.147294,-0.13541 -0.04252,-0.0451 -0.07646,-0.0887 -0.108003,-0.13383 0.03352,0.0159 -0.03712,-0.0198 0.304377,0.11679 0.083,0.0333 0.163671,0.0726 0.24548,0.10903 0.04199,0.0185 0.06784,-0.0408 0.02593,-0.0594 -0.06948,-0.027 -0.139488,-0.052 -0.207724,-0.0811 0.117766,0.0109 0.302313,0.003 0.381371,0.007 0.08099,0.004 0.161448,0.019 0.242358,0.0284 0.0209,0 0.02196,-0.0288 0,-0.0295 -0.436907,-0.008 -0.04897,0.0135 -0.501782,-0.0563 -0.049,-0.008 -0.100092,0 -0.147797,-0.0108 -0.04098,-0.0103 -0.07697,-0.0346 -0.113162,-0.0548 -0.01958,-0.0106 -0.04953,-0.0321 -0.07906,-0.0517 0.296836,-0.0542 0.594095,-0.10964 0.892969,-0.10594 0.32258,0.004 0.642964,0.0762 0.962713,0.14933 -0.138219,0.0704 -0.31123,0.16508 -0.418571,0.2217 -0.06601,0.035 -0.133615,0.0678 -0.200501,0.10181 -0.03,0.018 -0.01032,0.0609 0.02487,0.0429 0.06202,-0.0418 0.118215,-0.0927 0.184996,-0.12557 0.093,-0.0459 0.193358,-0.075 0.291465,-0.10904 0.102368,-0.0356 0.134726,-0.0471 0.16899,-0.0569 -0.118772,0.13814 -0.06805,0.0809 -0.234606,0.25996 -0.01191,0.0108 -2.7e-5,0.0274 0.01508,0.0164 0.174836,-0.12925 0.153061,-0.11319 0.249608,-0.18397 -0.0027,0.004 -0.0048,0.009 -0.0071,0.013 -0.02011,0.0301 -0.04363,0.0576 -0.06562,0.0863 -0.03201,0.0506 0.03982,0.0955 0.07183,0.045 0.01587,-0.0312 0.03006,-0.0637 0.04805,-0.0935 0.05487,-0.0883 0.07847,-0.11247 0.127132,-0.16227 0.338745,0.0746 0.677094,0.12959 1.015946,0.0977 -0.06763,0.0483 -0.125968,0.084 -0.314192,0.17984 -0.115888,0.059 -0.231775,0.12044 -0.353457,0.16639 -0.08102,0.0306 -0.167772,0.0412 -0.251671,0.062 -0.04501,0.018 -0.01958,0.0821 0.0254,0.0641 0.308609,-0.16078 0.203887,-0.11546 0.591687,-0.26511 0.196241,-0.0757 0.255349,-0.0977 0.31369,-0.11369 -0.0026,0.003 -0.0053,0.007 -0.0066,0.009 -0.06101,0.0747 -0.136181,0.13679 -0.193278,0.21445 -0.053,0.0728 -0.09102,0.15655 -0.136419,0.23463 -0.05199,0.066 0.04101,0.13938 0.09303,0.0734 0.103929,-0.15396 0.191029,-0.28726 0.303319,-0.43254 -0.0026,0.008 -0.0063,0.0164 -0.0082,0.0249 -0.01508,0.0721 -0.01058,0.14724 -0.01561,0.22066 0,0.0472 -0.01058,0.094 -0.0164,0.14108 0.01005,0.14308 0.207248,0.1361 0.202062,-0.007 -0.01614,-0.0375 -0.0471,-0.0718 -0.04911,-0.11266 -0.009,-0.13716 0.05003,-0.2567 0.113188,-0.37312 0.004,0.0425 0.0093,0.0812 0.02381,0.22273 0.01191,0.1143 0.02513,0.22841 0.0372,0.34263 0,0.0127 0.01905,0.0111 0.01799,-0.003 -0.01005,-0.11324 -0.02011,-0.22611 -0.01905,-0.33951 0,-0.21696 0.0172,-0.26728 0.05789,-0.39481 0.140388,-0.0426 0.287814,-0.0987 0.436668,-0.16021 -0.0026,0.008 1.85e-4,0.0159 -0.0026,0.0233 -0.02011,0.0754 -0.101388,0.25948 -0.129196,0.32504 -0.01005,0.0143 0.01217,0.0249 0.02011,0.0109 0.05609,-0.1026 0.111363,-0.206 0.161739,-0.3116 -7.9e-5,0.003 0,0.003 0,0.007 0,0.0371 -0.01376,0.074 -0.01191,0.1111 0,0.0322 0.01323,0.063 0.01905,0.0946 0.01005,0.0652 0.09898,0.0554 0.092,-0.01 -0.01296,-0.0282 -0.03627,-0.0537 -0.03929,-0.0847 0,-0.0373 0.0172,-0.0738 0.02011,-0.1111 0.01111,-0.11438 0.0053,-0.11282 0.0026,-0.10903 0.122317,-0.0534 0.242491,-0.10882 0.356553,-0.16433 h 7.178569 c 0.10673,0.0364 0.19174,0.0669 0.31575,0.10697 0,0 2.1e-4,0.003 0,0.003 v 0 c 0.014,0.0259 0.0249,0.0533 0.0398,0.078 0.006,0.009 0.0122,0.0172 0.018,0.0259 0.0309,0.0877 0.0586,0.177 0.0775,0.28731 0.019,0.11078 0.0127,0.22423 0.0196,0.33641 0,0.0294 0.0454,0.0246 0.0424,-0.005 -0.0159,-0.11123 -0.044,-0.22156 -0.0481,-0.33385 -0.003,-0.0787 -1e-4,-0.10422 0,-0.15192 0.099,0.14166 0.0888,0.12509 0.20466,0.29869 0.038,0.0533 0.11292,5e-5 0.0749,-0.0532 -0.041,-0.0438 -0.0883,-0.0825 -0.12301,-0.13176 -0.0637,-0.0917 -0.10313,-0.19487 -0.13435,-0.30076 0.28374,0.0887 0.57935,0.17545 0.85836,0.2403 -0.0111,0.0172 -0.0222,0.0346 -0.0341,0.0511 -0.16682,0.22601 -0.19283,0.2481 -0.36743,0.4496 v 0 c 0.23918,-0.27141 0.11808,-0.14515 0.4036,-0.416 0.0238,-0.0228 0.0723,-0.0682 0.0723,-0.0682 v 0 c -0.003,0.0947 -0.0236,0.18875 -0.0532,0.27802 -0.0201,0.0621 -0.0418,0.12396 -0.0718,0.18191 -0.0191,0.0357 -0.0489,0.0641 -0.0729,0.0961 -0.045,0.0764 0.0629,0.14102 0.108,0.0646 0.1674,-0.45884 -0.1202,0.33162 0.11369,-0.32351 0.0241,-0.0658 0.0549,-0.12877 0.0729,-0.19637 0.006,-0.0243 0.008,-0.0494 0.0103,-0.0744 0.0145,0.0238 0.0254,0.0424 0.0548,0.0889 -0.0331,-0.013 -0.0765,0.003 -0.0765,0.0522 v 0 c 0.014,0.1176 0.01,0.0522 0.0169,0.19584 0,0.0446 0.063,0.0446 0.063,0 0.0206,-0.14147 0.0109,-0.0827 0.0326,-0.19275 0.0295,0.0426 0.0609,0.0839 0.0853,0.12973 0.063,0.12096 0.0617,0.15155 0.0816,0.26561 0.06,0.14174 0.2609,0.0565 0.2005,-0.0853 -0.13107,-0.12245 -0.0642,-0.0501 -0.1266,-0.18862 0.0686,0.038 0.1416,0.0703 0.19896,0.10078 0.071,0.0377 0.14044,0.0783 0.21082,0.11729 0.088,0.0497 0.15889,-0.0754 0.0703,-0.12504 -0.067,-0.0359 -0.13893,-0.0637 -0.20103,-0.1075 -0.008,-0.006 -0.0661,-0.0623 -0.11522,-0.10697 0.0148,0.003 0.0292,0.005 0.0439,0.007 0.1451,0.0204 0.29115,0.0369 0.43614,0.0579 0.10356,0.0151 0.20672,0.032 0.31006,0.0486 0.0328,0.0376 0.0663,0.0746 0.0966,0.11419 0.031,0.0409 0.0573,0.0858 0.0863,0.12867 0.0249,0.0283 0.0648,-0.007 0.0398,-0.0356 -0.037,-0.0347 -0.08,-0.0639 -0.1111,-0.10388 -0.0241,-0.0306 -0.0451,-0.0632 -0.0651,-0.0961 0.0251,0.004 0.0503,0.008 0.0754,0.0119 0.014,0.003 0.0169,-0.0183 0,-0.0201 -0.0341,-0.004 -0.0559,-0.007 -0.0873,-0.0114 -0.0396,-0.0678 -0.074,-0.13837 -0.108,-0.20928 0.20479,-0.0191 0.40971,-0.042 0.61394,-0.0532 0.0673,-0.004 0.1347,-0.0122 0.20204,-0.0172 -0.0765,0.13361 -0.17778,0.24677 -0.28472,0.36174 -0.17441,0.18748 -0.10507,0.13398 -0.27596,0.23307 -0.036,0.0303 0.01,0.0809 0.0429,0.0506 0.095,-0.11473 0.12422,-0.15359 0.24442,-0.27337 0.058,-0.0579 0.12417,-0.10771 0.18037,-0.16743 0.0626,-0.0668 0.11594,-0.14213 0.17621,-0.21135 0.18844,-0.0151 0.37698,-0.0299 0.56533,-0.0501 -0.0365,0.0292 -0.067,0.0557 -0.12866,0.0956 -0.065,0.0423 -0.13886,0.0714 -0.20826,0.10697 -0.041,0.0236 -0.01,0.0814 0.0331,0.0579 0.066,-0.0436 0.12849,-0.0922 0.19741,-0.13075 0.084,-0.0469 0.17322,-0.0835 0.25993,-0.12505 0.0145,-0.009 0.0293,-0.0172 0.0439,-0.0259 0.0927,-0.0101 0.18528,-0.0201 0.27802,-0.03 -0.0148,0.0193 -0.0286,0.0395 -0.046,0.0563 -0.08,0.0772 -0.17346,0.13989 -0.26405,0.20466 -0.15762,0.11271 -0.31311,0.20923 -0.48422,0.29765 -0.028,0.0143 -0.0583,0.0243 -0.0873,0.0367 -0.071,0.0752 0.0351,0.176 0.10647,0.10078 0.0101,-0.0228 0.013,-0.0495 0.029,-0.0682 0.15208,-0.1756 0.24678,-0.21016 0.45268,-0.34364 0.095,-0.0615 0.18952,-0.12374 0.28421,-0.18552 0.003,0 0.003,-0.003 0.004,-0.003 -0.0323,0.10877 -0.0433,0.22574 -0.0558,0.33641 -0.0101,0.0631 0.0824,0.0734 0.0894,0.0103 0.0101,-0.0574 0.01,-0.11631 0.0206,-0.17208 0.031,-0.11562 0.0819,-0.17306 0.14677,-0.26715 0.005,-0.008 0.008,-0.0164 0.01,-0.0243 0.17134,-0.0172 0.34282,-0.0292 0.51419,-0.0403 -0.0999,0.0891 -0.20611,0.17108 -0.3111,0.25374 -0.0151,0.0106 1.9e-4,0.0313 0.0151,0.0206 0.057,-0.045 0.11081,-0.0925 0.16952,-0.13486 0.0706,-0.051 0.14362,-0.0986 0.21651,-0.14626 0.0758,-0.004 0.15158,-0.008 0.22738,-0.0109 -0.004,0.0333 -0.009,0.0667 -0.0103,0.10025 v 0.24082 0.17881 c 0,0.0328 0.048,0.0315 0.046,-0.003 -0.0101,-0.0589 -0.0249,-0.11772 -0.0249,-0.17725 0,-0.0958 0.022,-0.22958 0.0491,-0.34263 0.18447,-0.004 0.36891,-0.004 0.55346,0.007 0.0886,0.005 0.17618,0.0188 0.26352,0.0346 -0.29321,0.18444 -0.16415,0.11014 -0.70435,0.36586 v 0 c 0.60781,-0.24159 0.33489,-0.15002 0.81288,-0.29456 0.0204,-0.0116 0.0287,-0.0277 0.031,-0.0444 0.005,0 0.0103,0.003 0.0156,0.004 -0.0589,0.0974 -0.0727,0.11777 -0.22944,0.31988 -0.1855,0.23927 -0.10859,0.15484 -0.27078,0.31523 -0.043,0.0542 0.034,0.11517 0.077,0.061 0.019,-0.0473 0.0268,-0.10023 0.0558,-0.14214 0.051,-0.0734 0.11803,-0.13414 0.17931,-0.19894 0.18465,-0.19531 0.19873,-0.20439 0.20878,-0.21394 0,0.073 0,0.13787 -0.0196,0.26405 -0.0101,0.0637 -0.0241,0.12653 -0.0362,0.18966 -0.01,0.0603 0.0777,0.0705 0.0847,0.0103 0,-0.0637 0,-0.12827 0.0114,-0.19122 0.0111,-0.0637 0.0254,-0.11337 0.0413,-0.16277 0.004,0.0212 0.01,0.0421 0.0109,0.0635 0.01,0.12441 -0.0159,0.30848 -0.029,0.43564 0,0.0643 0.091,0.0643 0.091,0 v -0.19482 c 0.043,-0.9099 0.01,0.32571 0.0279,-0.43563 0,-0.0292 -0.0156,-0.0449 -0.0341,-0.0543 0,-0.003 0.003,-0.005 0.003,-0.008 0.003,-0.004 0,-0.008 0,-0.013 0.3188,0.0836 0.63577,0.18227 0.96274,0.18706 0.21114,0.003 0.42032,-0.0198 0.62889,-0.0517 -0.0307,0.0295 -0.076,0.0765 -0.092,0.0899 -0.086,0.0721 -0.18177,0.13174 -0.27286,0.1974 -0.059,0.0443 5e-5,0.127 0.0631,0.0827 0.088,-0.07 0.16875,-0.14941 0.26355,-0.20978 0.0939,-0.0598 0.12351,-0.0746 0.17105,-0.10182 -0.045,0.0776 -0.0878,0.15635 -0.13748,0.23099 -0.10099,0.15197 -0.23238,0.31197 -0.34829,0.45733 -0.06,0.10641 0.0914,0.19119 0.15089,0.0848 0.078,-0.18084 0.1356,-0.32996 0.2527,-0.50025 0.0555,-0.0806 0.12039,-0.15454 0.18706,-0.22632 v 0.0169 c -0.0101,0.10258 -0.0241,0.3647 -0.0341,0.47336 0,0.0402 -0.0101,0.0803 -0.014,0.12041 0.01,0.0837 0.12544,0.074 0.11835,-0.01 -0.038,-0.18155 -0.0238,-0.0697 -0.013,-0.32657 0,-0.0826 -1.8e-4,-0.16605 0.01,-0.24805 0.004,-0.029 0.0169,-0.0762 0.0274,-0.11885 0.0279,-0.0257 0.0558,-0.0517 0.0853,-0.076 0.004,0.0274 0.004,0.0568 0.004,0.14677 1.1e-4,0.056 -0.0101,0.11252 0,0.16848 0,0.0586 0.0143,0.11637 0.0212,0.17465 0,0.0352 0.0531,0.0309 0.0501,-0.004 -0.01,-0.15544 -0.0106,-0.18356 -0.0145,-0.33848 0,-0.0496 -0.01,-0.0995 0,-0.14882 0,-0.008 0.003,-0.0148 0.004,-0.0222 0.29811,-0.0635 0.59579,-0.13354 0.89503,-0.18294 -0.0406,0.0619 -0.0741,0.10883 -0.15967,0.20413 -0.053,0.0593 -0.10642,0.11938 -0.16743,0.17052 -0.037,0.0308 -0.0818,0.0489 -0.12351,0.0734 -0.043,0.0382 0.0108,0.0997 0.0537,0.0615 0.023,-0.0448 0.0363,-0.097 0.0703,-0.13435 0.054,-0.0595 0.12743,-0.0981 0.18913,-0.14986 0.0388,-0.0325 0.078,-0.0706 0.11782,-0.10697 -0.0236,0.0526 -0.0485,0.0871 -0.1695,0.24389 -0.0259,0.0374 0.0272,0.0736 0.0532,0.0362 0.20199,-0.2563 0.10182,-0.1266 0.29972,-0.38912 0.008,-0.0132 0.007,-0.0251 0.007,-0.0372 0.41199,-0.0643 0.64958,-0.0998 1.14102,-0.17465 h 8.70646 c 0.73289,0 1.32291,-0.59005 1.32291,-1.32292 v -13.57332 c 0.0869,-0.18515 0.17241,-0.38769 0.2403,-0.58705 0.003,0.01 0.006,0.0198 0.009,0.0295 0,0.0164 0,0.0327 -0.006,0.0491 0,0.0378 -0.01,0.076 -0.0119,0.11369 -0.013,0.11088 -0.018,0.17042 -0.048,0.27905 -0.0101,0.0279 -0.0201,0.0539 -0.03,0.0811 -0.01,0.0292 0.0338,0.0396 0.0408,0.0103 0.014,-0.10215 0.0127,-0.11197 0.0408,-0.22841 0.0111,-0.045 0.0262,-0.089 0.0372,-0.13383 0.005,-0.0164 0.008,-0.033 0.0109,-0.0496 0.01,0.0351 0.0206,0.07 0.0254,0.10592 0.01,0.0462 0,0.1484 0,0.20515 0.01,0.0942 0.14274,0.0808 0.13332,-0.0135 -0.023,-0.11771 -0.0111,-0.0479 -0.0341,-0.20931 -0.0292,-0.15393 -0.0779,-0.30361 -0.0987,-0.45887 0.0254,-0.0968 0.0444,-0.19018 0.0532,-0.27596 0.003,-0.0225 0,-0.0443 0.003,-0.0667 0.004,0.006 0.008,0.0135 0.0124,0.019 0.0148,0.10327 -2.4e-4,0.15426 0.009,0.26975 0,0.0544 0.0122,0.10837 0.0201,0.16226 0.018,0.12542 0.0138,0.10399 0.0377,0.19588 0.018,0.0369 0.0712,0.0106 0.0522,-0.0265 -0.072,-0.0663 -0.0518,-0.0309 -0.0708,-0.17103 -0.027,-0.19315 -0.0101,-0.12827 0,-0.32195 0.003,-0.0339 0,-0.0169 0,-0.0352 0.0473,0.0712 0.0797,0.14431 0.11319,0.35608 0.013,0.0798 1.9e-4,0.16155 -0.01,0.24236 0.0159,0.0973 0.15314,0.0752 0.13745,-0.0222 -0.055,-0.48242 0.0132,0.005 -0.12247,-0.59272 -0.003,-0.014 -0.004,-0.0287 -0.007,-0.0429 0.11567,0.0988 0.25074,0.21524 0.31522,0.26202 0.041,0.03 0.0871,0.0526 0.13126,0.0791 0.11369,0.0393 0.16907,-0.12145 0.0548,-0.16071 -0.04,-0.003 -0.0827,0.007 -0.11935,-0.01 -0.16484,-0.0755 -0.30454,-0.21 -0.41341,-0.35193 -0.003,-0.01 -0.003,-0.0196 -0.006,-0.0294 -0.0212,-0.0132 -0.006,-0.007 0.15605,0.0816 -0.0315,-0.0241 -0.0968,-0.0827 -0.15555,-0.13591 0.0329,0.009 0.0662,0.0175 0.0972,0.0315 0.30231,0.13713 -0.0494,0.0132 0.21291,0.10025 0.048,0.0193 0.0754,-0.0484 0.0274,-0.0677 -0.032,-0.0103 -0.0651,-0.0172 -0.0951,-0.0305 -0.0407,-0.018 -0.0796,-0.0418 -0.11938,-0.0625 0.0517,-0.006 0.10321,-0.0122 0.15502,-0.0114 0.099,0.003 0.19627,0.0196 0.29456,0.0295 0.0259,0.003 0.029,-0.0345 0,-0.0367 -0.3841,-0.0512 -0.18976,-0.0109 -0.53176,-0.10644 -0.0217,-0.006 -0.0792,-0.0217 -0.12454,-0.0372 0.0591,-0.0167 0.11843,-0.0336 0.17777,-0.0496 0.091,-0.0246 0.18227,-0.0481 0.27337,-0.0723 0.08,-0.0212 0.15957,-0.0422 0.23926,-0.0635 0.0101,-0.003 0,-0.0143 0,-0.0119 -0.069,0.0198 -0.45423,0.13189 -0.51003,0.14419 -0.13071,0.0286 -0.17037,0.0267 -0.2367,0.0259 -0.01,-0.009 -0.0183,-0.0193 -0.0268,-0.03 -0.0259,-0.15076 -0.0617,-0.30083 -0.0987,-0.45111 5e-5,0 0,0 0,-0.003 v 0 c 0,-0.009 0.004,-0.0177 0.005,-0.0269 0.003,0.003 0.004,0.005 0.008,0.006 h 0.003 c 0.0191,0.003 0.0373,0.006 0.0563,0.009 0.3661,0.0649 -0.20251,-0.0328 0.2894,0.0506 0.0101,0.003 0.0101,-0.007 0,-0.008 -0.19166,-0.0685 -0.15158,-0.0561 -0.22016,-0.0879 0.0646,-0.0198 0.13295,-0.0424 0.17518,-0.0501 0,-0.003 -0.0159,-0.003 -0.0274,-0.004 0.003,-0.007 0.004,-0.0161 -0.003,-0.0254 -0.031,-0.0414 -0.06,-0.0836 -0.092,-0.12401 -0.0114,-0.0143 -0.0227,-0.0284 -0.0346,-0.0424 0.0124,-0.0143 0.0236,-0.0319 0.0362,-0.0444 0.053,-0.053 0.1174,-0.0942 0.17621,-0.14108 0.0119,-0.009 -8e-5,-0.0251 -0.0119,-0.0164 -0.067,0.0418 -0.14033,0.0745 -0.20103,0.12507 -0.0127,0.0106 -0.0228,0.0238 -0.0341,0.0357 -0.003,-0.003 -0.003,-0.004 -0.005,-0.006 0.0209,-0.0432 0.0436,-0.0858 0.0672,-0.13279 0.0111,-0.0204 -0.0185,-0.0353 -0.0295,-0.0151 -0.0124,0.0193 -0.0417,0.0685 -0.0687,0.11059 -0.0109,-0.0132 -0.0222,-0.0262 -0.0326,-0.0398 -0.0934,-0.12245 -0.11401,-0.16129 -0.18087,-0.27233 -0.007,-0.0952 -0.0114,-0.19055 -0.0109,-0.28578 0.0306,0.0463 0.0368,0.0628 0.14211,0.15608 0.0169,0.0151 0.0733,0.0561 0.12817,0.0982 -0.0906,-0.0772 -0.13859,-0.13507 -0.20929,-0.23567 -0.0214,-0.0297 -0.0417,-0.0596 -0.0589,-0.0915 0,-0.0284 0.003,-0.0568 0.003,-0.0852 v 0 c 0,0 0.22244,0.15364 0.25323,0.18343 0.034,0.0331 0.0557,0.0769 0.0837,0.11525 0.027,0.0283 0.0673,-0.0106 0.0403,-0.0388 -0.03,-0.0375 -0.0579,-0.0778 -0.0909,-0.11266 -0.0946,-0.0988 -0.12261,-0.12607 -0.14883,-0.15139 0.0251,0 0.0409,0 0.0791,0.004 0.063,0.006 0.12655,0.0169 0.18966,0.0254 0.065,0.0116 0.082,-0.0807 0.0172,-0.0925 -0.066,-0.0109 -0.13206,-0.0233 -0.19844,-0.032 -0.14086,-0.0185 -0.15489,-0.0164 -0.16589,-0.0161 0.004,-0.0116 0.0164,-0.0425 0.0196,-0.048 0.1397,-0.11657 0.25564,-0.17793 0.41341,-0.25992 0.0103,0.0222 0.0241,0.0503 0.0336,0.0703 -0.01,-0.0243 -0.0193,-0.0486 -0.0289,-0.0729 0.0392,-0.0204 0.0625,-0.0328 0.11163,-0.0594 v -0.003 c -0.0274,0.0143 -0.0766,0.0401 -0.11319,0.0589 -0.0311,-0.0781 -0.0621,-0.15623 -0.0925,-0.2346 v -0.005 h -0.003 c -0.004,-0.0101 -0.008,-0.0204 -0.0119,-0.0305 -0.0356,-0.092 -0.01,-0.0249 -0.0284,-0.0734 0.0429,0.01 0.0676,0.018 0.20256,0.0641 0.032,0.0132 0.0501,-0.0318 0.0191,-0.045 -0.056,-0.027 -0.11081,-0.0547 -0.1669,-0.0806 -0.0273,-0.0127 -0.0609,-0.0279 -0.0951,-0.0418 -0.003,-0.006 -0.0188,-0.0488 -0.0185,-0.0486 0.0931,-0.0419 0.19619,-0.09 0.21651,-0.0961 0.11322,-0.0342 0.23072,-0.0546 0.3483,-0.0682 0.087,-0.01 0.17428,0 0.26149,-0.003 0.04,-0.005 0.0342,-0.0616 -0.01,-0.0568 -0.17751,0.0257 -0.44606,0.0628 -0.61238,0.0941 -0.0198,0.004 -0.0396,0.009 -0.0594,0.0135 0.0275,-0.0177 0.0556,-0.0344 0.0956,-0.0501 0.049,-0.0193 0.10123,-0.0259 0.15192,-0.0388 0.0111,-0.003 0.0101,-0.0188 0,-0.0156 -0.051,0.014 -0.10226,0.0273 -0.15295,0.0419 -0.13349,0.0384 -0.13579,0.042 -0.20103,0.0687 0.0409,-0.0622 0.0975,-0.12078 0.15917,-0.15865 0.032,-0.0193 0.0687,-0.0262 0.10335,-0.0393 0.0201,-0.009 0.0101,-0.0369 -0.0119,-0.0284 -0.035,0.0164 -0.073,0.0287 -0.10594,0.0491 -0.0819,0.0506 -0.15182,0.11869 -0.22326,0.18296 0.003,0.006 -1.6e-4,-0.004 -0.0811,-0.20932 -0.005,-0.0106 -0.0138,-0.0132 -0.0206,-0.0196 0.0148,-0.0946 0.0246,-0.1891 0.0377,-0.28369 0.0402,0.0298 0.0567,0.0343 0.21291,0.0842 0.028,0.0143 0.0477,-0.0254 0.0196,-0.0398 -0.1778,-0.0981 -0.11144,-0.0397 -0.21444,-0.15761 0,0 -0.003,0 -0.003,-0.003 0.01,-0.0779 0.023,-0.15568 0.03,-0.23357 0.004,-0.0418 0.0106,-0.0837 0.0153,-0.12557 0,0.004 0.004,0.008 0.006,0.0124 0.0101,0.0188 0.0138,0.0378 0.0217,0.0563 0.013,0.03 0.0313,0.0578 0.0424,0.0889 0.0151,0.0442 0.0228,0.0906 0.0346,0.13591 0,0.0124 0.0212,0.008 0.018,-0.004 -0.007,-0.0522 -0.0159,-0.10647 -0.0243,-0.1602 0.005,0.0127 0.0106,0.0254 0.0164,0.0377 0.018,0.0382 0.0389,0.0756 0.0589,0.11316 0.049,0.0794 0.16176,0.01 0.11265,-0.0697 -0.1276,-0.19012 -0.014,-0.0143 -0.14313,-0.23616 -0.0233,-0.0399 -0.0517,-0.077 -0.0718,-0.11835 0.0481,0.0292 0.0985,0.0543 0.1633,0.0822 0.051,0.0217 0.10374,0.0369 0.15555,0.0553 0.046,0.0122 0.0631,-0.0524 0.0169,-0.0646 -0.0509,-0.01 -0.10284,-0.0132 -0.15136,-0.031 -0.11417,-0.0419 -0.16053,-0.0832 -0.22323,-0.16124 0.027,-0.18616 0.0526,-0.37248 0.0723,-0.55861 0.009,0.0217 0.0143,0.0374 0.03,0.0687 0.039,0.0794 0.0842,0.15645 0.12557,0.2346 0,0.006 0.0109,0.003 0.01,-0.003 -0.097,-0.34499 -0.0339,-0.15517 -0.13539,-0.41547 -0.005,-0.0135 -0.0111,-0.0268 -0.0156,-0.0408 0.003,-0.0369 0.007,-0.0737 0.009,-0.11059 0.018,0.004 0.0483,0.0172 0.093,0.0403 0.0505,0.0664 0.0589,0.0727 0.10594,0.17312 0.018,0.0373 0.0299,0.0768 0.045,0.11525 0.01,0.0191 0.0349,0.008 0.0269,-0.0108 -0.014,-0.0395 -0.0268,-0.079 -0.0398,-0.11834 -0.0292,-0.085 -0.0354,-0.0914 -0.0429,-0.11007 0.0177,0.009 0.0368,0.0148 0.0527,0.0269 0.053,0.0399 0.094,0.0927 0.14158,0.13899 0.11131,0.0791 0.22283,-0.0785 0.11163,-0.15761 -0.053,-0.0393 -0.1052,-0.0781 -0.15762,-0.11782 -0.048,-0.0364 -0.0922,-0.079 -0.14314,-0.11057 -0.022,-0.0135 -0.0466,-0.0204 -0.0708,-0.029 0.0286,-0.004 0.0349,-0.006 0.11679,-0.0109 0.034,0 0.033,-0.048 0,-0.0475 -0.10824,-0.007 -0.08,-0.006 -0.15658,-0.008 0.0562,-0.0377 0.11184,-0.0749 0.17415,-0.0998 0.069,-0.0276 0.1461,-0.0318 0.2191,-0.0476 0.087,-0.0268 0.0493,-0.14927 -0.0377,-0.12245 -0.073,0.0257 -0.14705,0.0519 -0.22066,0.077 -0.0439,0.0151 -0.0419,0.0145 -0.0682,0.0238 0.005,-0.007 0.008,-0.0151 0.0135,-0.0212 0.044,-0.048 0.10059,-0.0838 0.15139,-0.12504 0.0602,-0.049 0.12097,-0.0976 0.1814,-0.14626 -0.12319,0.0687 -0.26715,0.14483 -0.3788,0.22998 -0.0177,0.0135 -0.0326,0.0298 -0.0486,0.045 0.0124,-0.0636 0.0201,-0.0759 0.0967,-0.24752 0.027,-0.0574 -0.0536,-0.0951 -0.0806,-0.0377 -0.0815,0.14907 -0.0936,0.17894 -0.11369,0.2191 -0.009,-0.0551 -0.0164,-0.10837 -0.0295,-0.16846 0,-0.003 0,-0.003 0.003,-0.005 0.042,-0.0709 0.0952,-0.13403 0.1633,-0.18137 0.031,-0.0214 0.0666,-0.033 0.0997,-0.0496 0.0241,-0.0124 0.0103,-0.0459 -0.0175,-0.0336 -0.034,0.0204 -0.0705,0.0378 -0.10335,0.061 -0.036,0.0262 -0.0707,0.0543 -0.10231,0.0863 -0.0206,0.0209 -0.0367,0.0456 -0.0543,0.0692 -0.003,-0.007 -0.004,-0.0135 -0.005,-0.0201 0.0678,-0.15304 0.14523,-0.29134 0.22995,-0.45321 v -0.003 c -0.062,0.112 -0.12478,0.22389 -0.18706,0.33589 -0.0175,0.0272 -0.0348,0.0547 -0.0527,0.0816 -0.0304,-0.12425 -0.10896,-0.38085 -0.10896,-0.38085 v 0 c 0,0 0.003,-0.0164 0.003,-0.0268 0.0354,-0.042 0.0776,-0.084 0.15193,-0.14573 0.051,-0.0425 0.11226,-0.0714 0.16846,-0.10698 0.05,-0.0361 0,-0.10697 -0.0506,-0.0708 -0.0762,0.0672 -0.15433,0.13227 -0.23101,0.19897 0.0402,-0.098 0.10602,-0.2159 0.17105,-0.29612 0.031,-0.0382 0.0713,-0.0679 0.10697,-0.10182 0.0151,-0.0164 -0.0103,-0.0376 -0.0233,-0.0212 -0.029,0.0397 -0.0588,0.0796 -0.0878,0.11935 -0.038,0.0517 -0.0777,0.10263 -0.11472,0.15505 -0.0196,0.0272 -0.0379,0.0555 -0.0563,0.0832 0.003,-0.0116 0.003,-0.0122 0.007,-0.0268 0.0201,-0.0691 0.0356,-0.14007 0.0656,-0.20516 0.058,-0.1251 0.11605,-0.18431 0.19793,-0.28215 0.023,-0.0287 -0.0172,-0.0614 -0.0414,-0.0326 -0.086,0.12978 -0.10194,0.14528 -0.17774,0.30644 -0.031,0.0655 -0.0517,0.13515 -0.0827,0.2005 -0.029,0.0609 -0.0402,0.0817 -0.0532,0.10647 -0.0298,-0.091 -0.0576,-0.18249 -0.0884,-0.26924 0.007,-0.0217 0.0167,-0.043 0.0398,-0.0899 0.022,-0.0444 0.0429,-0.09 0.0729,-0.12972 0.0201,-0.0275 0.0499,-0.0464 0.0749,-0.0697 0.019,-0.0233 -0.014,-0.0502 -0.0331,-0.0269 -0.15269,0.21082 0.0443,-0.067 -0.13592,0.21601 -0.0108,0.0169 -0.023,0.0331 -0.0351,0.0491 -0.0522,-0.14582 -0.096,-0.25744 -0.14054,-0.37206 v -3.57137 c 4e-5,-0.7329 -0.58998,-1.323 -1.32287,-1.32292 z m 39.19781,6.18463 c 0.01,-0.005 0.0204,-0.0114 0.0294,-0.0164 0,0.003 -0.01,-0.004 0,-0.007 -0.01,0.008 -0.0196,0.0159 -0.0294,0.0238 z m -0.35502,3.43908 c 0,0.005 0.003,0.008 0.004,0.0124 -0.01,-0.003 0,-0.006 0,-0.003 -0.003,-0.003 -0.003,-0.007 -0.004,-0.0103 z m -0.26045,0.76534 c 0.007,0.006 0.0103,0.0111 0.018,0.0175 0.023,0.0188 0.0481,0.0349 0.0723,0.0522 -0.0372,-0.0281 -0.0516,-0.04 -0.0904,-0.0697 z m 0.0904,0.0697 c 0.0494,0.0374 0.1093,0.0841 0.12041,0.0925 0,0.003 0.0101,-0.003 0,-0.006 -0.04,-0.0289 -0.12041,-0.13637 -0.12041,-0.0868 z m 0.0909,0.55398 c -0.003,0.007 0.0908,-0.008 0.18036,-0.0233 -0.0597,0.007 -0.11964,0.0122 -0.1788,0.0228 0,8e-5 0,0 -0.003,0 z m 0.18036,-0.0233 c 0.0611,-0.007 0.12195,-0.0156 0.18294,-0.0233 v -0.006 c 0,-0.19052 -0.13259,0.0204 -0.18294,0.029 z m -0.0744,0.96843 c 0.003,0.003 0.013,0.0119 0.0151,0.0135 0.0417,0.0275 0.0874,0.0481 0.13229,0.0703 -0.0425,-0.0249 -0.0849,-0.0497 -0.12816,-0.0734 -0.0246,-0.0135 0,0 -0.0191,-0.0103 z m 0.1473,0.0837 c 0.0331,0.0193 0.0665,0.0383 0.0997,0.0574 v -0.004 c -0.0331,-0.0177 -0.0658,-0.0365 -0.0997,-0.0532 z M 85.671184,155.6699 c -0.07615,-0.0623 -0.156448,-0.12025 -0.239263,-0.17362 -0.01931,-0.0124 -0.04077,-0.022 -0.06099,-0.0331 -0.01191,-0.004 0.05599,0.045 0.300249,0.20669 z m -0.300249,-0.20669 c 0.02302,0.007 0.281384,0.16965 -0.144701,-0.0941 -0.01005,-0.004 -0.01429,0.007 -0.01032,0.0108 0.05162,0.0278 0.103743,0.055 0.155019,0.0832 z m 0.08218,-1.76684 c -0.009,0.0183 -0.0037,0.008 -0.01508,0.031 0,-0.007 0.0098,-0.004 0.0098,0.003 0.0037,-0.0228 0.0026,-0.0156 0.0053,-0.0341 z M 126.26014,139.596 c -0.006,-2e-5 -0.0127,0.003 -0.0185,0.009 -0.0259,0.0222 -0.052,0.0448 -0.078,0.0672 -0.032,0.0368 0.0196,0.0824 0.0517,0.0454 0.0201,-0.0262 0.0415,-0.0526 0.0615,-0.079 0.018,-0.0188 0.003,-0.0423 -0.0167,-0.0424 z m -0.24029,0.52401 c -8e-5,0 0,0 0,0.003 0,-2.4e-4 0,0 -0.003,0 h 0.003 z m -0.29094,2.21692 c 0.0246,0.0314 0.0506,0.0618 0.0718,0.0956 -0.0293,0.005 -0.0592,0.009 -0.0889,0.013 0.006,-0.0361 0.0111,-0.0724 0.0169,-0.10853 z m 0.11785,0.1819 c 0,0 0.003,0.003 0.003,0.004 -0.003,0 -0.004,-0.003 -0.006,-0.003 0.003,0 0.003,0 0.004,-0.003 z m -0.16124,0.0935 c 0,-0.0101 0.0169,0.0119 0.03,0.0119 h 0.013 c 0.10181,0 0.0369,0.0143 0.15349,0.093 0.032,0.0217 0.0651,0.0427 0.0972,0.0641 0.003,0.003 0.004,-0.003 0.006,0 0.0375,0.0774 0.0708,0.1469 0.10284,0.21497 -0.12221,0.063 -0.25196,0.13256 -0.37931,0.20516 0.007,-0.0132 0.004,-0.006 0.0164,-0.03 0.096,-0.1865 0.0122,-0.0447 0.10904,-0.20103 0.0151,-0.0251 -0.0196,-0.0463 -0.0357,-0.0212 -0.0529,0.1 -0.1048,0.20179 -0.16796,0.29609 -0.007,0.004 -0.0172,0.01 -0.0238,0.0135 0.004,-0.0492 0.008,-0.0981 0.013,-0.1473 0.0185,-0.0262 0.04,-0.0572 0.0429,-0.0605 0.036,-0.0389 0.0749,-0.0757 0.11679,-0.10748 0.045,-0.0342 0.0971,-0.0594 0.14523,-0.0894 v -0.005 c 0,-0.0573 -0.10282,0.0533 -0.15142,0.0842 -0.0512,0.0324 -0.0988,0.0692 -0.14677,0.10593 0.0161,-0.14152 0.037,-0.28323 0.0589,-0.42478 z m 0.14005,0.006 c 0,0.0148 0.0294,0.006 0.0444,0.009 0.0259,0.005 0.0241,0.006 0.0403,0.009 0.0138,0.0267 0.0272,0.0485 0.0408,0.076 -0.014,-0.0119 -0.0279,-0.0241 -0.0424,-0.0351 -0.0623,-0.0482 -0.0752,-0.0535 -0.0832,-0.0589 z m -0.21032,1.37975 c 0.0274,0.03 0.0528,0.0612 0.13745,0.16536 0.0138,0.0169 0.027,0.0343 0.0408,0.0512 -0.0375,0.0589 -0.0744,0.11407 -0.0915,0.14727 -0.006,0.0114 -0.01,0.0233 -0.014,0.0351 -0.0304,-0.13049 -0.20976,-0.39894 -0.0728,-0.39894 z m 0.24389,0.29819 c 0.006,0.0135 0.0188,0.0233 0.0279,0.0351 0.0301,0.0395 0.0557,0.0816 0.0837,0.12247 -0.0307,0 -0.0449,-0.003 -0.13023,0 -0.0212,0 -0.0429,0.007 -0.0641,0.0114 h -0.004 c -0.014,0 0.004,-0.0278 0.005,-0.0419 0.0236,-0.0455 0.0591,-0.17412 0.0811,-0.12763 z m 0.28371,1.36683 c -0.0437,-0.005 -0.0864,0.0453 -0.0501,0.0935 0.067,0.06 0.0351,0.0254 0.0941,0.10491 0.039,0.0481 0.10721,-0.007 0.0682,-0.0548 -0.059,-0.0816 -0.0368,-0.0415 -0.0708,-0.11835 -0.0119,-0.0161 -0.0268,-0.0238 -0.0413,-0.0254 z m -31.893348,16.14887 c -0.01349,-0.003 -0.02918,0 -0.04495,0.0124 v 0 c -0.177694,0.14566 -0.06122,0.0605 -0.305911,0.2036 -0.249899,0.14618 -0.117978,0.0843 -0.322474,0.16949 -0.029,0.0177 -1.86e-4,0.0585 0.02487,0.0408 0.03598,-0.0271 0.06927,-0.0579 0.106971,-0.0811 0.06498,-0.0396 0.132847,-0.0753 0.202036,-0.10697 0.116522,-0.0535 0.240717,-0.0884 0.35761,-0.14108 0.04501,-0.0336 0.02249,-0.0897 -0.01799,-0.0966 z m -0.531733,0.0796 c -0.0061,-0.003 -0.01349,-1e-4 -0.02011,0.005 -0.06699,0.0569 -0.13298,0.11364 -0.199469,0.17053 0.07501,-0.0434 0.151368,-0.0868 0.226853,-0.13023 0.0217,-0.0143 0.01085,-0.0407 -0.0071,-0.045 z m 0.895535,0.0212 c -0.0027,0.003 -0.0032,0.005 -0.0045,0.008 -0.0027,-0.003 -0.0056,-0.004 -0.0082,-0.007 h 0.01296 z m 12.299186,0.11732 0.0119,0.0151 c 0.034,0.0475 0.0671,0.0966 0.10334,0.14264 0.0101,0.0127 0.0209,0.0249 0.0315,0.0372 -0.25016,-0.0309 -0.44278,-0.0529 -0.71673,-0.13955 -0.0355,-0.0114 -0.07,-0.0266 -0.10387,-0.0429 0.22391,0.014 0.67384,0.21363 0.67384,-0.0124 z"
       sodipodi:nodetypes="sscccccscsccccsccscscccsccscsccscccccccccsccccccccccccsccccccsccsccsccccsccccsscscsccscsccccccsscscssccsccccccccccssccsccccsccccsscscssccccccsscscsccssccccscccccssccscsccccccccccccccccccccccccccccccccscsccscccccccccssccccccscccccccccccsccscsscsccscscccscsccssccsccscccssscccsscccccccccsccccscscsccccccsccsscsccscccscccccscsccscsccsccccccsccscccccccssccssccccccssccccccccscccccccscccccccsccccscscccccccsccsccccscssccsccsccccccscccccscsccscccccsccsccccsscccccccscccccccccscscccsccssccscsscscsccsccccccscsccsccccsccscsccscccccsccccccccsccssccccsccsccscsccccccssccsccccccsscscccsccsscccccssccscccsccssscccccscccsccccccccsccccccccsccccccscccccccccccccccsccccccccccccccccsccccccccscsccscccsccsccscscccsssccccsccccsscsscccscsscccsccccccscscccccscccsscccccccscscsc" />
  </g>
</svg>
