<?xml version="1.0" encoding="UTF-8" standalone="no"?>
<svg
   xmlns:dc="http://purl.org/dc/elements/1.1/"
   xmlns:cc="http://creativecommons.org/ns#"
   xmlns:rdf="http://www.w3.org/1999/02/22-rdf-syntax-ns#"
   xmlns:svg="http://www.w3.org/2000/svg"
   xmlns="http://www.w3.org/2000/svg"
   xmlns:sodipodi="http://sodipodi.sourceforge.net/DTD/sodipodi-0.dtd"
   xmlns:inkscape="http://www.inkscape.org/namespaces/inkscape"
   inkscape:export-ydpi="96"
   inkscape:export-xdpi="96"
   inkscape:export-filename="D:\Calcatz\Icon Pack\Adventure Narative Inspired by Arrival\GUI\Settings\png\dropdown_item_highlight.png"
   sodipodi:docname="dropdown - item_highlight.svg"
   inkscape:version="1.0 (4035a4fb49, 2020-05-01)"
   id="svg6659"
   version="1.1"
   viewBox="0 0 30.0422 11.055335"
   height="11.055335mm"
   width="30.0422mm">
  <defs
     id="defs6653" />
  <sodipodi:namedview
     inkscape:window-maximized="1"
     inkscape:window-y="-8"
     inkscape:window-x="-8"
     inkscape:window-height="705"
     inkscape:window-width="1366"
     fit-margin-bottom="0"
     fit-margin-right="0"
     fit-margin-left="0"
     fit-margin-top="0"
     showgrid="false"
     inkscape:document-rotation="0"
     inkscape:current-layer="layer1"
     inkscape:document-units="mm"
     inkscape:cy="20.903684"
     inkscape:cx="53.171126"
     inkscape:zoom="5.3691756"
     inkscape:pageshadow="2"
     inkscape:pageopacity="0.0"
     borderopacity="1.0"
     bordercolor="#666666"
     pagecolor="#ffffff"
     id="base" />
  <metadata
     id="metadata6656">
    <rdf:RDF>
      <cc:Work
         rdf:about="">
        <dc:format>image/svg+xml</dc:format>
        <dc:type
           rdf:resource="http://purl.org/dc/dcmitype/StillImage" />
        <dc:title></dc:title>
      </cc:Work>
    </rdf:RDF>
  </metadata>
  <g
     transform="translate(-119.80407,-108.00931)"
     id="layer1"
     inkscape:groupmode="layer"
     inkscape:label="Layer 1">
    <path
       d="m 132.50437,108.00945 c -0.01,4.2e-4 -0.014,0.004 -0.02,0.0109 -0.082,0.20004 0.044,-0.0992 -0.1121,0.22789 -10e-4,0.002 0,0.004 0,0.006 0.025,-0.0519 0.053,-0.10154 0.094,-0.15348 0.016,-0.0202 0.041,-0.0313 0.062,-0.047 0.018,-0.0215 -2.9e-4,-0.0457 -0.021,-0.0444 z m 0.1783,0.0176 c -0.025,9e-5 -0.051,0.0103 -0.074,0.0351 -0.017,0.0353 -0.029,0.0733 -0.05,0.10593 -0.05,0.0761 -0.1065,0.14734 -0.1623,0.21911 -0.09,0.11514 -0.1007,0.12441 -0.125,0.15245 0.01,-0.0326 0.016,-0.0657 0.026,-0.0977 0.019,-0.0574 0.037,-0.10635 0.058,-0.15452 -0.022,0.0506 -0.042,0.10178 -0.066,0.15142 -0.055,0.1146 -0.028,0.0555 -0.046,0.0894 -0.01,-0.0648 -0.013,-0.12993 0,-0.19586 0,-0.0274 0.017,-0.0523 0.026,-0.0785 0,-0.0998 -0.1411,-0.0998 -0.1411,0 0,0.049 0.012,0.19944 0.012,0.22582 0,0.0405 -0.01,0.0786 -0.01,0.11731 -0.03,0.0769 -0.1399,0.13448 -0.2108,0.15348 -0.1226,0.0328 -0.2446,0.0767 -0.3669,0.108 0.025,-0.0726 0.04,-0.11331 0.1,-0.21653 0.029,-0.049 0.062,-0.0948 0.093,-0.14211 l 0.054,-0.0822 c 0.012,-0.0191 -0.016,-0.0355 -0.027,-0.0165 -0.013,0.0303 -0.023,0.0623 -0.04,0.0909 -0.028,0.0494 -0.062,0.0948 -0.093,0.14263 -0.1211,0.18874 -0.062,0.1046 -0.1613,0.23926 -0.081,0.0162 -0.1626,0.0268 -0.2449,0.0181 -0.083,-0.009 -0.157,-0.0487 -0.231,-0.091 -0.031,-0.0178 -0.058,-0.0456 -0.074,-0.0827 0.066,-0.0406 0.1317,-0.079 0.2114,-0.10749 -0.074,0.0232 -0.1478,0.0466 -0.2212,0.0713 0,-0.0232 -0.01,-0.0488 0,-0.078 0.011,-0.0163 0.028,-0.0451 0.033,-0.0512 0.01,-0.008 0.014,-0.014 0.021,-0.0217 0.013,0.005 0.027,0.006 0.042,-0.006 l -0.001,-5.2e-4 c 0.013,-0.0122 0.024,-0.027 0.04,-0.0367 0.084,-0.0534 0.1688,-0.0831 0.2635,-0.10749 -0.053,0.008 -0.1053,0.0154 -0.1576,0.0258 -0.027,0.005 -0.058,0.0151 -0.089,0.0233 0,-0.003 0.01,-0.007 0.01,-0.01 0.042,-0.035 0.089,-0.067 0.1395,-0.0879 0.028,-0.0115 0.061,-0.004 0.091,-0.007 0.085,-0.0295 0.043,-0.14992 -0.042,-0.12041 -0.037,0.0128 -0.079,0.0177 -0.1116,0.0388 -0.051,0.0321 -0.091,0.078 -0.1354,0.11782 -0.048,0.043 -0.098,0.0843 -0.1436,0.13023 -0.028,0.0281 -0.053,0.0586 -0.079,0.0889 v -0.0486 c 0,-0.14975 0.034,-0.24575 0.066,-0.39997 v -5.2e-4 c -0.023,0.0817 -0.05,0.16231 -0.07,0.24496 -0.012,0.0511 -0.017,0.10367 -0.025,0.15554 -4e-4,0.003 -1e-4,9.7e-4 -5e-4,0.004 -0.01,-0.0256 -0.016,-0.0507 -0.02,-0.077 -0.01,-0.0516 0,-0.10444 -0.01,-0.1566 -0.043,-0.12855 -0.2246,-0.0675 -0.1814,0.061 0,0.0136 0.01,0.0274 0.012,0.0408 -0.01,-0.009 -0.012,-0.0184 -0.017,-0.0274 -0.023,-0.0414 -0.042,-0.0852 -0.065,-0.1266 -0.025,-0.0447 -0.052,-0.0878 -0.078,-0.13177 -0.01,-0.0127 -0.025,-0.002 -0.018,0.0103 0.1173,0.21002 0.037,0.05 0.1214,0.2651 0.05,0.12814 0.04,0.0842 0.052,0.14469 0,0.10933 -0.076,0.12889 -0.123,0.12713 -0.1747,-0.005 -0.35,0.006 -0.5255,0.0253 0.01,-0.0183 0.018,-0.0358 0.026,-0.0543 0.041,-0.0956 0.042,-0.11997 0.091,-0.21137 0.01,-0.0187 0.024,-0.0352 0.036,-0.0527 0.019,-0.036 -0.032,-0.0623 -0.051,-0.0263 -0.027,0.0827 -0.02,0.0693 -0.069,0.16588 -0.018,0.0354 -0.038,0.07 -0.057,0.1049 -0.014,0.0265 -0.031,0.0519 -0.043,0.0796 -5e-4,10e-4 -6.1e-4,0.002 -0.001,0.004 -0.069,0.008 -0.1385,0.0187 -0.2077,0.0289 0.01,-0.0431 0.015,-0.0892 0.035,-0.12092 0.064,-0.10245 0.1301,-0.17943 0.2072,-0.25011 -0.021,0.0188 -0.02,0.0165 -0.049,0.0424 -0.068,0.0613 -0.1391,0.12094 -0.1979,0.1912 -0.016,0.0194 -0.048,0.0996 -0.067,0.14728 -0.039,0.006 -0.077,0.01 -0.1158,0.016 -0.069,0.011 -0.1633,4.7e-4 -0.2026,-0.0615 -0.01,-0.0277 -0.012,-0.0552 -0.011,-0.0832 0,-0.0914 0.039,-0.20302 0.079,-0.28319 0.016,-0.032 0.04,-0.0588 0.059,-0.0884 0.014,-0.0238 -0.02,-0.0439 -0.034,-0.0202 -0.014,0.0341 -0.028,0.0684 -0.042,0.10232 -0.021,0.0495 -0.049,0.0969 -0.065,0.14831 -0.014,0.0456 -0.019,0.0939 -0.026,0.14108 v 0.0356 c -0.016,-0.0912 -0.036,-0.19282 -0.038,-0.23151 -0.01,-0.0899 0.013,-0.17995 0.02,-0.26975 0,-0.0246 -0.035,-0.0246 -0.035,0 0,0.0898 0,0.1803 -0.01,0.26975 -0.01,0.0852 -0.024,0.16923 -0.038,0.25373 -0.056,0.14753 -0.1625,0.16767 -0.2449,0.1788 -0.048,-0.0606 -0.054,-0.0657 -0.108,-0.16691 -0.025,-0.0477 -0.044,-0.0992 -0.072,-0.14573 -0.023,-0.039 -0.051,-0.0747 -0.077,-0.11162 0,-0.007 0.01,-0.0141 0.01,-0.0212 0.01,-0.02 -0.022,-0.0261 -0.028,-0.008 0,-0.003 0,-0.005 -0.01,-0.008 -0.024,-0.0376 -0.046,-0.0772 -0.069,-0.11575 -0.021,-0.0244 -0.055,0.005 -0.035,0.0289 0.033,0.0296 0.073,0.0531 0.1,0.0889 0,0.004 0,0.009 0.01,0.0134 0,0.0325 -0.01,0.0652 -0.01,0.0977 0.01,-0.0226 0.017,-0.0451 0.027,-0.0672 0.02,0.0372 0.038,0.0761 0.057,0.1142 0.024,0.0487 0.048,0.0979 0.069,0.14779 0.064,0.14638 0.059,0.14121 0.07,0.16175 -0.087,0.0109 -0.174,0.0193 -0.261,0.0258 0,-0.0617 -0.01,-0.11223 -0.01,-0.15813 -0.013,0.0521 -0.027,0.10512 -0.041,0.16071 -0.051,0.003 -0.1009,0.008 -0.1514,0.009 -0.2463,0.006 -0.4927,-0.0162 -0.739,-0.0346 -0.024,-0.002 -0.049,-0.009 -0.07,-0.0176 0.061,-0.0114 0.1228,-0.0208 0.1845,-0.0295 0.047,-0.007 0.076,-0.009 0.1132,-0.0139 -0.1003,0.01 -0.1677,0.0228 -0.3219,0.0315 -0.025,-0.0186 -0.029,-0.046 0.013,-0.0837 0.086,-0.0493 0.1753,-0.0923 0.3085,-0.12298 0.078,-0.018 0.1606,-0.001 0.2408,-0.002 0.1073,-0.0226 0.075,-0.17451 -0.032,-0.15193 -0.08,0.0225 -0.1607,0.042 -0.2398,0.0672 -0.1193,0.038 -0.2817,0.0968 -0.433,0.14728 0.054,-0.0377 0.1023,-0.0654 0.1483,-0.0884 -0.051,0.0184 -0.1025,0.0343 -0.153,0.0532 0.089,-0.0782 0.1731,-0.16209 0.2599,-0.24289 0.032,-0.0221 2e-4,-0.0681 -0.031,-0.046 -0.1209,0.0724 -0.2434,0.14219 -0.3627,0.21704 -0.2275,0.14261 -0.2407,0.15654 -0.2786,0.17466 0,-0.006 0,-0.007 -0.01,-0.0124 -2e-4,-0.024 0,-0.0508 0.01,-0.1142 0.01,-0.0551 0.011,-0.11031 0.024,-0.16433 0.013,-0.0563 0.034,-0.11029 0.052,-0.16537 0,-0.0109 -0.011,-0.0159 -0.015,-0.005 -0.016,0.0557 -0.034,0.11088 -0.05,0.16692 -0.015,0.0542 -0.027,0.1094 -0.041,0.16381 0,0.0156 -0.01,0.0348 -0.014,0.0522 -0.012,-0.0224 -0.032,-0.0619 -0.033,-0.0625 -0.024,-0.0393 -0.048,-0.0809 -0.082,-0.11162 -0.077,-0.0688 -0.1326,-0.0621 -0.2274,-0.0749 -0.1041,0.0193 -0.077,0.16659 0.027,0.14728 0.01,-0.007 0.018,-0.0212 0.031,-0.0217 0.092,-0.003 0.098,0.0393 0.1411,0.11679 0.024,0.0438 0.031,0.0582 0.039,0.0765 0,0.003 -2e-4,0.006 -5e-4,0.009 -0.022,-0.0151 -0.043,-0.0333 -0.066,-0.0444 -0.033,-0.0162 -0.067,-0.0326 -0.1033,-0.0393 -0.058,-0.0108 -0.1174,-0.008 -0.1762,-0.0129 -0.011,-0.001 -0.013,0.0141 0,0.0155 0.1305,0.0271 0.1532,0.02 0.2579,0.0739 0.027,0.0139 0.054,0.0286 0.078,0.0476 -0.039,0.0637 -0.1464,0.0777 -0.1912,0.0832 -0.3013,0.0372 -0.6437,0.0978 -0.9783,0.16124 h -4.4886 c -0.7329,0 -1.3229,0.59001 -1.3229,1.32291 v 6.40426 c 0,0.7329 0.59,1.32292 1.3229,1.32292 h 23.6456 c -9e-4,0.0173 0,0.0416 0,0.0419 -0.011,0.0444 -0.027,0.088 -0.05,0.12764 -0.02,0.0346 -0.051,0.0617 -0.076,0.0925 -0.012,0.0183 0.014,0.0348 0.026,0.0165 0.021,-0.0339 0.043,-0.068 0.065,-0.10181 0.027,-0.0413 0.061,-0.0783 0.081,-0.1235 0.01,-0.0113 0.01,-0.0317 0.01,-0.0496 0.04,0.0273 0.08,0.0579 0.1204,0.0811 0.034,0.0199 0.091,0.062 0.1142,0.13797 8e-4,0.004 0,0.008 0,0.0119 -0.043,0.10138 -0.07,0.14672 -0.155,0.23152 -0.03,0.0295 -0.067,0.05 -0.1008,0.0749 -0.01,0.007 0,0.0204 0.01,0.0129 0.031,-0.0286 0.061,-0.0582 0.092,-0.0858 0.044,-0.0387 0.095,-0.0701 0.1354,-0.11317 0.014,-0.0148 0.022,-0.0338 0.033,-0.0512 0.01,0.0317 0.012,0.0634 0.012,0.0956 0,0.0519 -0.028,0.10165 -0.026,0.15348 0,0.04 0.027,0.0754 0.037,0.1142 0.01,0.0402 0.015,0.0812 0.022,0.12196 0.059,0.1377 0.2536,0.0545 0.1948,-0.0832 -0.028,-0.0467 -0.074,-0.11595 -0.08,-0.1695 -0.01,-0.0484 0.01,-0.0971 0.011,-0.14573 2.9e-4,-0.006 2e-4,-0.005 5e-4,-0.0109 0.015,0.0204 0.019,0.0292 0.05,0.0656 0.1343,0.16119 0.071,0.0409 0.1292,0.17002 0.093,0.0638 0.184,-0.0685 0.09,-0.1323 -0.078,-0.008 -0.044,0.004 -0.1251,-0.10283 -0.02,-0.0267 -0.038,-0.0553 -0.056,-0.0832 0,-0.0206 0,-0.0372 0.011,-0.0512 0.032,0.0113 0.064,0.0225 0.096,0.0341 0.097,0.0354 0.1921,0.0739 0.2894,0.10748 -0.011,0.006 -0.013,0.0103 -0.031,0.0202 -0.03,0.022 -1e-4,0.0648 0.031,0.0429 0.015,-0.0163 0.029,-0.0336 0.045,-0.0491 0.01,0.002 0.014,0.004 0.022,0.007 -0.01,-0.002 -0.014,-0.005 -0.021,-0.007 0,-0.004 0.01,-0.009 0.011,-0.0119 0.039,-0.0308 0.081,-0.0557 0.123,-0.0822 0.057,-0.0363 0.1143,-0.0712 0.1716,-0.10646 0.053,-0.0158 0.1076,-0.0129 0.1416,0.006 0.054,0.0298 0.1083,0.0616 0.1633,0.0879 0.05,0.0237 0.074,0.0538 0.038,0.10541 -0.071,0.048 -0.141,0.0968 -0.2166,0.13643 -0.079,0.0412 -0.1658,0.0645 -0.24849,0.0966 -0.094,0.0543 -0.017,0.18714 0.077,0.13281 0.069,-0.0533 0.1307,-0.11767 0.2072,-0.15968 0.065,-0.0356 0.20329,-0.0883 0.34009,-0.13798 -0.021,0.0152 -0.032,0.0244 -0.071,0.0517 -0.037,0.0258 -0.074,0.0508 -0.1127,0.0739 -0.094,0.0566 -0.044,0.006 -0.096,0.0687 -0.021,0.0566 0.059,0.0861 0.08,0.0295 -0.031,-0.038 -0.03,-0.0225 0.031,-0.0775 0.034,-0.03 0.068,-0.0586 0.1059,-0.0832 0.031,-0.0204 0.1384,-0.0772 0.2124,-0.11679 -0.034,0.0991 -0.071,0.19536 -0.1069,0.25218 -0.05,0.0801 -0.1292,0.13813 -0.1938,0.20722 -0.052,0.0632 0.037,0.13702 0.089,0.0739 0.057,-0.0786 0.1129,-0.15816 0.1705,-0.23616 0.1731,-0.23475 0.1967,-0.26349 0.2243,-0.30438 0.01,0.0193 0.01,0.0236 0.02,0.0522 0.035,0.0874 0.083,0.17003 0.1111,0.25993 0.024,0.0756 0.029,0.15571 0.043,0.23358 0.012,0.0448 0.075,0.0283 0.063,-0.0165 -0.024,-0.0753 -0.054,-0.14955 -0.073,-0.22634 -0.022,-0.09 -0.033,-0.18234 -0.051,-0.27337 -0.013,-0.067 -0.014,-0.0667 -0.019,-0.0889 0.053,0.0532 0.1062,0.0765 0.1731,0.11162 0.032,0.0173 0.057,-0.0282 0.025,-0.0455 -0.032,-0.012 -0.066,-0.0174 -0.095,-0.0357 -0.024,-0.0156 -0.036,-0.0324 -0.049,-0.0491 0,-0.0387 0.048,-0.0758 0.09,-0.0894 0.103,-0.0338 0.205,-0.074 0.3038,-0.1142 0,0.005 0.01,0.01 0.01,0.015 0.022,0.0579 0.038,0.11778 0.058,0.17622 0.028,0.0809 0.058,0.16124 0.087,0.24184 -0.025,-0.0818 -0.054,-0.16241 -0.074,-0.24546 -0.011,-0.0444 -0.017,-0.10718 -0.025,-0.16691 0.012,0.005 0.001,-0.003 0.032,0.014 0.029,0.016 0.053,0.0378 0.08,0.0568 0.023,0.0155 0.045,-0.0165 0.022,-0.032 -0.026,-0.0207 -0.053,-0.0404 -0.079,-0.062 -0.043,-0.0365 -0.029,-0.0234 -0.033,-0.0284 0.08,-0.0339 0.1351,-0.062 0.2041,-0.094 h 0.7793 c 0.7329,0 1.3229,-0.59002 1.3229,-1.32292 v -6.40426 c 0,-0.7329 -0.59,-1.32291 -1.3229,-1.32291 h -4.11189 c -0.1561,-0.0529 -0.326,-0.10819 -0.4956,-0.154 -0.041,-0.0111 -0.1024,-0.0505 -0.155,-0.0971 0.01,-0.0106 0.017,-0.0214 0.025,-0.032 0.091,-0.11355 0.074,-0.0904 0.184,-0.21084 0.01,-0.004 -2e-4,-0.0105 -0.01,-0.007 -0.066,0.0537 -0.1562,0.12381 -0.2186,0.18552 -0.012,0.0121 -0.014,0.0174 -0.022,0.0263 -0.024,-0.0259 -0.043,-0.0516 -0.052,-0.076 0.01,-0.0389 0.019,-0.0774 0.039,-0.1111 0.025,-0.0412 0.065,-0.0698 0.098,-0.10491 0.044,-0.0523 -0.03,-0.11485 -0.074,-0.0625 -0.038,0.0457 -0.083,0.0861 -0.1131,0.13694 -0.01,0.012 -0.01,0.0217 -0.014,0.0331 -3.9e-4,-0.0108 -2.9e-4,-0.008 -0.001,-0.0238 0,-0.0393 -0.01,-0.0787 -0.01,-0.11782 0,-0.03 0.016,-0.0579 0.024,-0.0868 0,-0.0412 -0.055,-0.046 -0.058,-0.005 0.022,0.18803 0.01,-0.0146 -0.01,0.20929 -0.01,0.11268 0,0.11364 0,0.11007 -0.025,-0.0253 -0.049,-0.0488 -0.074,-0.0806 -0.045,-0.0581 -0.081,-0.1233 -0.121,-0.185 -0.061,-0.0889 -0.1868,-0.002 -0.1255,0.0868 0.026,0.0371 0.051,0.0742 0.077,0.11111 -0.042,-0.0157 -0.084,-0.031 -0.1251,-0.0481 -0.095,-0.0392 -0.1881,-0.0827 -0.2821,-0.12402 -0.066,-0.029 -0.1066,0.064 -0.041,0.093 0.086,0.0504 0.1729,0.10096 0.2594,0.15141 0.067,0.0391 0.072,0.0415 0.1013,0.0579 0.051,0.0741 -0.064,0.0797 -0.086,0.0817 -0.08,0.007 -0.1616,0.0185 -0.2424,0.0315 -0.044,0.007 -0.1031,-0.01 -0.1493,-0.0553 -0.034,-0.0707 -0.053,-0.1231 -0.06,-0.20516 0,-0.0263 0,-0.0528 0.01,-0.0791 0,-0.0334 -0.049,-0.031 -0.047,0.002 0.01,0.0274 0.01,0.0548 0.014,0.0822 0.014,0.0965 0.013,0.14184 0.048,0.23358 0.01,0.0138 0.013,0.0265 0.02,0.0393 -0.019,-0.0131 -0.028,-0.021 -0.091,-0.061 -0.056,-0.0352 -0.1119,-0.0696 -0.168,-0.10439 -0.062,-0.0387 -0.1166,0.0486 -0.055,0.0873 0.037,0.0254 0.074,0.0511 0.1106,0.0765 0.018,0.0366 -0.021,0.0532 -0.066,0.061 -0.1803,0.0296 -0.3592,0.0471 -0.5348,0.0351 -0.013,-0.012 -0.028,-0.0216 -0.038,-0.0362 -0.045,-0.07 -0.072,-0.16183 -0.099,-0.23823 -0.052,-0.14961 -0.048,-0.0869 -0.041,-0.19637 -0.01,-0.0413 -0.068,-0.0268 -0.058,0.0145 0.01,0.0196 0.02,0.0382 0.027,0.0584 0.01,0.0283 0.078,0.24989 0.086,0.27492 0.011,0.0381 0.018,0.0777 0.032,0.11472 -0.056,-0.008 -0.1128,-0.0179 -0.1685,-0.0341 -0.084,-0.0244 -0.1766,-0.0622 -0.2806,-0.0935 -0.042,-0.0127 -0.1023,-0.0341 -0.069,-0.10128 0.019,-0.0261 0.037,-0.0532 0.059,-0.0765 0.066,-0.0692 0.1844,-0.15544 0.2687,-0.19224 0.036,-0.0159 0.077,-0.0154 0.1163,-0.0232 0.029,-0.0102 0.014,-0.0505 -0.014,-0.0403 -0.035,0.0199 -0.069,0.0407 -0.1044,0.0594 -0.056,0.0296 -0.1174,0.0505 -0.1705,0.0853 -0.041,0.0269 -0.072,0.0655 -0.1091,0.0982 -0.033,0.0298 -0.067,0.059 -0.1002,0.0889 0,-0.0186 -0.01,-0.034 -0.01,-0.0837 -1e-4,-0.0336 0,-0.0677 0,-0.10077 0.01,-0.0564 0.03,-0.11071 0.045,-0.16588 -0.027,0.0538 -0.058,0.10582 -0.079,0.16227 -0.012,0.0331 -0.013,0.0695 -0.018,0.10438 0,0.0203 0,0.045 -0.01,0.0693 -0.033,-0.0727 -0.06,-0.14745 -0.052,-0.23358 0,-0.029 0.029,-0.0507 0.043,-0.076 0.01,-0.15372 -0.2105,-0.16348 -0.2176,-0.01 0,0.0364 0,0.0728 0.01,0.10904 0,0.0354 0.012,0.0702 0.018,0.10542 -0.01,-0.008 -0.015,-0.015 -0.022,-0.0233 -0.023,-0.0285 -0.042,-0.0603 -0.064,-0.0899 -0.057,-0.077 -0.055,-0.0715 -0.1162,-0.14211 -0.021,-0.0255 -0.057,0.005 -0.036,0.03 0.057,0.0561 0.075,0.0699 0.1235,0.13539 0.022,0.0291 0.041,0.0601 0.061,0.0904 0.019,0.0282 0.039,0.0557 0.055,0.0853 0.01,0.012 0.011,0.0276 0.016,0.0419 -0.1458,-0.0572 -0.3244,-0.12808 -0.3876,-0.1509 -0.1204,-0.0435 -0.2426,-0.0825 -0.3638,-0.1235 0.1173,0.0487 0.2374,0.092 0.3514,0.14779 0.08,0.0392 0.1481,0.0798 0.216,0.12144 0.036,0.0551 0,0.0609 -0.055,0.0667 -0.3215,0.0298 -0.5948,0.051 -0.8801,0.0677 0.018,-0.0382 0.037,-0.0766 0.055,-0.11472 0.035,-0.073 0.071,-0.14601 0.1065,-0.21911 0.023,-0.0469 0.023,-0.051 0.031,-0.0718 -0.012,0.0196 -0.016,0.0243 -0.039,0.0677 -0.079,0.14936 -0.1212,0.21763 -0.2129,0.34054 -0.1467,0.008 -0.2905,0.0163 -0.464,0.0207 0.01,-0.0127 0.02,-0.0262 0.032,-0.0377 0.025,-0.0255 0.051,-0.0503 0.08,-0.0723 0.069,-0.0532 0.1554,-0.1045 0.2372,-0.13487 0.023,-0.009 0.2417,-0.0646 0.2697,-0.0718 0.016,-0.005 0.01,-0.0273 -0.01,-0.0227 -0.043,0.0127 -0.087,0.0258 -0.1302,0.0382 -0.047,0.0133 -0.095,0.0228 -0.1406,0.0393 -0.086,0.0311 -0.171,0.0798 -0.2506,0.12454 -0.021,0.0118 -0.042,0.0237 -0.062,0.0357 0.013,-0.0181 0.048,-0.0643 0.1023,-0.13384 0.015,-0.003 -6.1e-4,3.7e-4 0.015,-0.003 v -0.002 c 0,6.5e-4 -0.01,0.002 -0.013,0.003 0.01,-0.007 0,-0.005 0.01,-0.0124 0.045,-0.0573 0.097,-0.1092 0.1457,-0.16381 v -0.003 c -0.049,0.0547 -0.097,0.1094 -0.1457,0.16433 -0.01,0.007 -0.01,0.0102 -0.015,0.0165 -0.1946,0.036 -0.5004,0.0943 -0.7163,0.12196 -0.01,-0.0131 -0.01,-0.0286 0.01,-0.0465 0.1019,-0.0559 0.264,-0.1293 0.3488,-0.16743 0.095,-0.0411 0.037,-0.17546 -0.058,-0.13436 -0.055,0.0342 -0.1073,0.0719 -0.1638,0.10284 -0.093,0.0511 -0.189,0.0978 -0.2847,0.14417 0.01,-0.01 0.01,-0.0194 0.016,-0.0289 0.04,-0.0675 0.075,-0.1251 0.1333,-0.18035 0.03,-0.0287 0.064,-0.0539 0.099,-0.076 0.023,-0.0145 0.05,-0.0221 0.075,-0.0331 0.029,-0.0162 0.01,-0.0574 -0.023,-0.0413 -0.056,0.0366 -0.1308,0.0827 -0.1778,0.12713 -0.031,0.0292 -0.054,0.0656 -0.083,0.0971 -0.023,0.0261 -0.05,0.049 -0.072,0.076 0,0.004 -0.01,0.008 -0.01,0.0114 0.014,-0.0748 0.028,-0.14938 0.055,-0.22066 0.018,-0.0478 0.048,-0.0902 0.072,-0.13539 0.02,-0.0405 -0.017,-0.072 -0.049,-0.0625 -0.01,0.003 -0.021,0.0108 -0.027,0.0243 -0.029,0.0467 -0.063,0.0902 -0.086,0.14005 -0.025,0.0549 -0.035,0.11557 -0.056,0.17208 -0.054,0.14465 -0.058,0.14528 -0.058,0.13952 0,0.003 0,0.006 -0.01,0.009 0,-0.005 -0.01,-0.009 -0.013,-0.0134 -0.012,-0.0163 -0.022,-0.0352 -0.034,-0.0517 -0.037,-0.0497 -0.06,-0.0716 -0.1028,-0.11834 -0.038,-0.0317 -0.083,0.0226 -0.045,0.0543 0.02,0.0136 0.043,0.0238 0.06,0.0408 0.016,0.0153 0.025,0.036 0.037,0.0543 0.019,0.0288 0.036,0.0586 0.054,0.0884 -0.043,0.0432 -0.095,0.0799 -0.1292,0.0904 -0.1931,0.0591 -0.3965,0.15116 -0.5571,0.22945 h -4.2855 c -0.2387,-0.0919 -0.5751,-0.21361 -0.9167,-0.28474 -0.05,-0.0105 -0.095,-0.0376 -0.04,-0.12764 0.024,-0.0274 0.047,-0.056 0.074,-0.0806 0.1481,-0.13573 0.2661,-0.22392 0.4636,-0.27853 0.053,-0.0147 0.1106,-0.004 0.1658,-0.005 0.079,-0.0171 0.055,-0.12874 -0.024,-0.11162 -0.1096,0.0471 -0.3339,0.14119 -0.4206,0.19017 -0.1528,0.0863 -0.1997,0.12545 -0.2491,0.16846 0.058,-0.0914 0.1211,-0.17913 0.1948,-0.25838 0.022,-0.0236 0.054,-0.0354 0.081,-0.0532 0.07,-0.0744 0.01,-0.16668 -0.066,-0.16639 z m 7.584,0.40411 c 0,-0.002 -0.01,-0.003 -0.013,-0.005 v 0.001 c 0,0.001 0.01,0.003 0.013,0.004 z m 1.0361,-0.0842 c 0,-0.005 0.01,-0.01 0.01,-0.015 v -5.2e-4 c -0.001,0.005 0,0.0104 0,0.0155 z m 4.4969,10.14615 c 0.055,0.0194 0.1091,0.0386 0.1638,0.0579 v -0.007 c -0.056,-0.0169 -0.1114,-0.0339 -0.1669,-0.0512 z m -17.9751,-9.69663 c 0.037,-0.004 0.061,-0.008 0.1204,-0.0103 0.075,-0.003 0.1501,0.003 0.2253,0.002 0.019,-3.4e-4 0.038,-10e-4 0.057,-0.002 -0.019,-0.002 -0.038,-0.006 -0.056,-0.006 -0.1429,-0.006 -0.2341,0.002 -0.3462,0.016 z m 0.4026,-0.01 c 0.038,0.004 0.075,0.008 0.1126,0.0124 0.011,5.3e-4 0.012,-0.0151 0,-0.0155 -0.038,0.001 -0.075,0.002 -0.1126,0.003 z m 0.3018,-0.0641 c 0.014,-0.0594 0.028,-0.11892 0.039,-0.18603 v -0.0382 c 0,0.012 -0.011,0.0232 -0.014,0.0357 -0.019,0.0813 -0.026,0.13552 -0.028,0.18862 z m 2.7817,-0.34158 0.051,-0.009 c 0.042,-0.008 0.084,-0.0161 0.1256,-0.0243 -0.043,0.005 -0.086,0.009 -0.1277,0.0186 -0.018,0.004 -0.032,0.0102 -0.049,0.0145 z m 0.1767,-0.0331 c 0.036,-0.004 0.072,-0.0103 0.108,-0.0155 v -0.005 c -0.036,0.007 -0.072,0.0136 -0.108,0.0207 z m -0.3508,0.26303 c 0.05,-0.018 0.1043,-0.0231 0.1565,-0.0346 0.011,-0.003 0.01,-0.018 0,-0.015 -0.051,0.016 -0.1018,0.0335 -0.1529,0.0496 z m -0.9054,-0.48989 c -0.011,0.006 -0.021,0.0116 -0.032,0.017 0.015,-0.008 0.013,-0.007 0.032,-0.0165 z m -0.032,0.017 c -0.049,0.0242 -0.099,0.0455 -0.1432,0.0765 -0.037,0.0258 -0.07,0.0512 -0.1018,0.0765 0.063,-0.0538 0.1278,-0.0951 0.245,-0.15296 z m 9.957,0.12041 c -0.018,0 -0.037,10e-4 -0.044,0.0248 0.014,0.0426 0.018,0.058 0.017,0.0729 0.01,-0.0126 0.014,-0.019 0.05,-0.0522 0.01,-0.0235 -0.01,-0.0403 -0.022,-0.0455 z m -11.8773,0.0827 c -0.3265,0.0956 -0.3875,0.11165 -0.4387,0.12919 0.1449,-0.047 0.2925,-0.0862 0.4387,-0.12919 z m -0.4393,0.12919 c -0.1466,0.0475 -0.2364,0.0765 -0.3281,0.12195 0.2467,-0.0901 0.2823,-0.10625 0.3281,-0.12195 z m 11.6551,0.154 c -0.067,0.0773 -0.1105,0.13292 -0.185,0.20412 -0.01,0.009 -0.021,0.0159 -0.031,0.0238 v 0.003 c -0.1319,-0.005 -0.2636,-0.0322 -0.3948,-0.0594 -0.019,-0.004 -0.047,-0.0152 -0.07,-0.0274 0.5461,-0.12346 -0.047,-0.0101 0.6847,-0.14366 z m 6.3686,9.57461 c 0.045,-0.003 0.09,-0.002 0.1339,0.004 0.01,0.001 0.015,0.004 0.022,0.006 -0.03,0.0155 -0.061,0.0334 -0.08,0.0408 -0.043,0.0167 -0.088,0.0304 -0.1339,0.0398 -0.031,0.006 -0.063,0.005 -0.094,0.007 -0.038,0.01 -0.024,0.0636 0.014,0.0537 0.028,-0.0132 0.055,-0.0305 0.085,-0.0398 0.045,-0.014 0.093,-0.0187 0.1396,-0.03 0.11,-0.0269 0.083,-0.0196 0.081,-0.0202 -0.026,0.0216 -0.046,0.0415 -0.1359,0.10645 -0.1099,0.0789 -0.1063,0.0742 -0.1592,0.10336 -0.097,-0.0359 -0.1964,-0.0678 -0.2904,-0.11111 -0.038,-0.0175 -0.058,-0.0319 -0.082,-0.047 0.026,-0.0213 0.062,-0.0334 0.094,-0.0388 0.1345,-0.0224 0.2714,-0.0653 0.4061,-0.0744 z"
       style="fill:#e5e5e5;fill-opacity:0.2;stroke:none;stroke-width:0.329999;stroke-linecap:round;stroke-miterlimit:4;stroke-dasharray:none;stroke-opacity:1;paint-order:markers stroke fill"
       id="path13256"
       sodipodi:nodetypes="scscscsscccccccccccsscsccscccccsscccccccccccccscscsscssccscccccssccsccccsccscscccccsccccscccsccccscccccccccccccccsccccccscccccsccscccccscccccccccccccccccssscscscssssccsccscccccssccscscccccsccccsccscccccccscsscsccscsccccsccccscccccssccccccccscscscccccsssscsccccsccccscccsccscccccsscscssccccsccssccccccccsccssccsccssccsccsccccccccsccccccscsccccscscccccccsssccccccccccccccsccssccscccscscsscccccccscsccsccsccscscccccsccscccccccccssccscsccsscccccccccsscsccsscccccccccsscsssccccsccccccccccsccccccscccsscccscscc" />
  </g>
</svg>
