<?xml version="1.0" encoding="UTF-8" standalone="no"?>
<svg
   xmlns:dc="http://purl.org/dc/elements/1.1/"
   xmlns:cc="http://creativecommons.org/ns#"
   xmlns:rdf="http://www.w3.org/1999/02/22-rdf-syntax-ns#"
   xmlns:svg="http://www.w3.org/2000/svg"
   xmlns="http://www.w3.org/2000/svg"
   xmlns:sodipodi="http://sodipodi.sourceforge.net/DTD/sodipodi-0.dtd"
   xmlns:inkscape="http://www.inkscape.org/namespaces/inkscape"
   inkscape:export-ydpi="96"
   inkscape:export-xdpi="96"
   inkscape:export-filename="D:\Calcatz\Icon Pack\Adventure Narative Inspired by Arrival\GUI\Settings\png\dropdown_item_highlight - background_detail_1.png"
   sodipodi:docname="dropdown_item_highlight - background_detail_1.svg"
   inkscape:version="1.0 (4035a4fb49, 2020-05-01)"
   id="svg7818"
   version="1.1"
   viewBox="0 0 9.3767004 1.4132011"
   height="1.4132011mm"
   width="9.3767004mm">
  <defs
     id="defs7812" />
  <sodipodi:namedview
     inkscape:window-maximized="1"
     inkscape:window-y="-8"
     inkscape:window-x="-8"
     inkscape:window-height="705"
     inkscape:window-width="1366"
     fit-margin-bottom="0"
     fit-margin-right="0"
     fit-margin-left="0"
     fit-margin-top="0"
     showgrid="false"
     inkscape:document-rotation="0"
     inkscape:current-layer="layer1"
     inkscape:document-units="mm"
     inkscape:cy="10.145391"
     inkscape:cx="23.993284"
     inkscape:zoom="7.593161"
     inkscape:pageshadow="2"
     inkscape:pageopacity="0.0"
     borderopacity="1.0"
     bordercolor="#666666"
     pagecolor="#ffffff"
     id="base" />
  <metadata
     id="metadata7815">
    <rdf:RDF>
      <cc:Work
         rdf:about="">
        <dc:format>image/svg+xml</dc:format>
        <dc:type
           rdf:resource="http://purl.org/dc/dcmitype/StillImage" />
        <dc:title></dc:title>
      </cc:Work>
    </rdf:RDF>
  </metadata>
  <g
     transform="translate(-49.714818,-69.465562)"
     id="layer1"
     inkscape:groupmode="layer"
     inkscape:label="Layer 1">
    <path
       id="path3770"
       style="fill:#e5e5e5;fill-opacity:0.2;stroke:none;stroke-width:0.264583px;stroke-linecap:butt;stroke-linejoin:miter;stroke-opacity:1"
       d="m 57.892288,69.465784 c -0.01,4.2e-4 -0.014,0.004 -0.02,0.0114 -0.082,0.20002 0.044,-0.0992 -0.1127,0.22788 0,0.002 0,0.004 0,0.006 0.024,-0.0519 0.053,-0.10152 0.094,-0.15346 0.016,-0.0202 0.041,-0.0313 0.062,-0.047 0.018,-0.0215 -10e-5,-0.0462 -0.021,-0.045 z m -0.1354,0.24545 c -0.01,0.0116 -0.011,0.0253 -0.016,0.0372 0.01,-0.0125 0.01,-0.0249 0.016,-0.0372 z m -0.016,0.0372 c -0.021,0.0492 -0.04,0.099 -0.063,0.14727 -0.051,0.10686 -0.025,0.0476 -0.043,0.0832 -0.01,-0.0627 -0.012,-0.12584 0,-0.18966 0,-0.0274 0.017,-0.0524 0.026,-0.0786 0,-0.0998 -0.1411,-0.0998 -0.1411,0 0,0.049 0.012,0.19944 0.012,0.22582 0,0.0408 -0.01,0.0793 -0.01,0.11835 -0.031,0.0763 -0.1388,0.13356 -0.2097,0.15243 -0.1228,0.0329 -0.2449,0.0772 -0.3675,0.10853 0.025,-0.073 0.04,-0.11361 0.1,-0.21704 0.028,-0.049 0.062,-0.0948 0.094,-0.14211 0.018,-0.0274 0.036,-0.0548 0.054,-0.0822 0.012,-0.0191 -0.015,-0.0355 -0.027,-0.0165 -0.013,0.0303 -0.024,0.0623 -0.04,0.091 -0.028,0.0494 -0.062,0.0948 -0.093,0.14261 -0.1211,0.18875 -0.063,0.10459 -0.1618,0.23926 -0.081,0.0161 -0.1619,0.0268 -0.2439,0.0181 -0.083,-0.009 -0.1575,-0.0488 -0.2315,-0.091 -0.031,-0.0179 -0.058,-0.0458 -0.074,-0.0832 0.064,-0.0392 0.1281,-0.0759 0.2041,-0.10387 -0.071,0.0225 -0.1425,0.0454 -0.2134,0.0692 -0.01,-0.0237 -0.01,-0.05 0,-0.0801 0.01,-0.0158 0.027,-0.0442 0.031,-0.0501 0.01,-0.008 0.014,-0.0141 0.021,-0.0217 0.013,0.005 0.027,0.005 0.042,-0.006 l -10e-4,-5.11e-4 c 0.013,-0.0122 0.024,-0.027 0.04,-0.0367 0.084,-0.0534 0.1693,-0.0836 0.2641,-0.10801 -0.053,0.008 -0.1058,0.0159 -0.1581,0.0264 -0.027,0.005 -0.059,0.015 -0.089,0.0233 0,-0.003 0.01,-0.007 0.01,-0.01 0.042,-0.035 0.089,-0.0669 0.1395,-0.0879 0.028,-0.0115 0.061,-0.004 0.091,-0.007 0.085,-0.0295 0.043,-0.14991 -0.042,-0.12041 -0.03699,0.0128 -0.078,0.0177 -0.111095,0.0388 -0.051,0.0321 -0.091,0.078 -0.1354,0.11782 -0.048,0.043 -0.098,0.0844 -0.1442,0.13023 -0.028,0.0281 -0.053,0.0586 -0.079,0.0889 -0.001,-0.0162 0,-0.0324 0,-0.0486 0,-0.14978 0.034,-0.24577 0.066,-0.39997 -0.023,0.0815 -0.05,0.16195 -0.07,0.24443 -0.012,0.0511 -0.016,0.10366 -0.025,0.15554 -7.94e-4,0.005 -2.91e-4,0.002 -10e-4,0.006 -0.01,-0.0264 -0.017,-0.0525 -0.021,-0.0796 -0.01,-0.0516 2e-4,-0.10441 -0.01,-0.15658 -0.043,-0.12854 -0.2251,-0.0675 -0.181901,0.061 0,0.008 0,0.0156 0.01,0.0233 0,-0.003 0,-0.007 -0.01,-0.01 -0.023,-0.0414 -0.042,-0.0852 -0.065,-0.12661 -0.025,-0.0447 -0.052,-0.0878 -0.078,-0.13179 -0.01,-0.0127 -0.025,-0.002 -0.018,0.0104 0.1173,0.21002 0.037,0.05 0.1214,0.26508 0.051,0.13142 0.039,0.0792 0.053,0.1478 0,0.10647 -0.076,0.12578 -0.1229,0.12404 -0.1739,-0.005 -0.348399,0.006 -0.523,0.0248 0.01,-0.0181 0.018,-0.0355 0.026,-0.0537 0.041,-0.0956 0.041,-0.11996 0.091,-0.21135 0.01,-0.0187 0.024,-0.0352 0.036,-0.0527 0.019,-0.036 -0.032,-0.0624 -0.051,-0.0264 -0.027,0.0827 -0.02,0.0693 -0.069,0.16589 -0.018,0.0354 -0.038,0.07 -0.057,0.10491 -0.014,0.0265 -0.031,0.0519 -0.043,0.0796 -6.08e-4,10e-4 -5.02e-4,0.002 -10e-4,0.003 -0.07,0.008 -0.1399,0.0191 -0.2098,0.0294 0.01,-0.043 0.014,-0.0892 0.034,-0.12091 0.054,-0.0866 0.1083,-0.15563 0.170501,-0.21757 -0.01,0.006 -0.01,0.004 -0.012,0.01 -0.068,0.0613 -0.139101,0.12095 -0.197901,0.19122 -0.016,0.0195 -0.047,0.0996 -0.067,0.14727 -0.038,0.006 -0.077,0.01 -0.1152,0.016 -0.069,0.0111 -0.1648,5.61e-4 -0.2036,-0.0625 -0.01,-0.0273 -0.012,-0.0545 -0.011,-0.0822 0,-0.0914 0.039,-0.20302 0.079,-0.28318 0.016,-0.032 0.04,-0.0588 0.059,-0.0884 0.014,-0.0238 -0.02,-0.0439 -0.034,-0.0202 -0.014,0.0341 -0.028,0.0684 -0.042,0.10232 -0.021,0.0495 -0.049,0.0969 -0.065,0.14832 -0.014,0.0456 -0.018,0.0939 -0.026,0.14108 0,0.026 0,0.0337 -0.01,0.0496 -0.018,-0.10237 -0.034,-0.20217 -0.036,-0.24546 0,-0.0899 0.013,-0.17996 0.02,-0.26976 0,-0.0246 -0.035,-0.0246 -0.035,0 0,0.0898 -2.91e-4,0.18031 -0.01,0.26976 -0.01,0.0887 -0.025,0.17609 -0.039,0.26406 -0.05697,0.13655 -0.159873,0.15819 -0.239774,0.16899 -0.049,-0.061 -0.054,-0.066 -0.108,-0.16743 -0.025,-0.0477 -0.044,-0.0992 -0.072,-0.14573 -0.023,-0.0391 -0.051,-0.0747 -0.077,-0.11163 0,-0.007 0.01,-0.0141 0.01,-0.0212 0.01,-0.0202 -0.022,-0.0262 -0.028,-0.007 0,-0.003 0,-0.006 -0.01,-0.009 -0.024,-0.0376 -0.046,-0.0772 -0.069,-0.11576 -0.021,-0.0244 -0.055,0.005 -0.034,0.029 0.033,0.0296 0.073,0.0531 0.099,0.0889 0,0.005 0.01,0.0101 0.01,0.015 -6.87e-4,0.0319 -0.01,0.0638 -0.01,0.0956 0.01,-0.0222 0.017,-0.0444 0.027,-0.0661 0.02,0.037 0.038,0.0758 0.056,0.11369 0.024,0.0487 0.048,0.0979 0.069,0.14777 0.063,0.14624 0.059,0.14134 0.07,0.16177 -0.086,0.0109 -0.172899,0.0193 -0.259399,0.0258 0,-0.075 -0.01,-0.13615 -5.03e-4,-0.19325 -0.015,0.0635 -0.028,0.12856 -0.045,0.19585 -0.05,0.003 -0.101,0.008 -0.1514,0.009 -0.2462,0.006 -0.4927,-0.0162 -0.739,-0.0346 -0.023,-0.002 -0.047,-0.009 -0.069,-0.0181 0.061,-0.0113 0.1219,-0.0204 0.1829,-0.029 0.047,-0.007 0.077,-0.009 0.1142,-0.0139 -0.1004,0.01 -0.1685,0.0222 -0.3209,0.031 -0.026,-0.0186 -0.032,-0.046 0.011,-0.0837 0.086,-0.0492 0.1759,-0.0918 0.309,-0.12247 0.078,-0.018 0.1605,-0.001 0.2408,-0.002 0.1073,-0.0226 0.075,-0.17452 -0.032,-0.15195 -0.08,0.0225 -0.1607,0.042 -0.2398,0.0672 -0.1191,0.0379 -0.2814,0.0964 -0.4325,0.14676 0.054,-0.0375 0.1019,-0.0655 0.1477,-0.0884 -0.05,0.0186 -0.1025,0.0347 -0.1534,0.0538 0.089,-0.0782 0.1736,-0.16206 0.2604,-0.24289 0.032,-0.0221 0,-0.0681 -0.031,-0.046 -0.1209,0.0724 -0.2434,0.14218 -0.3627,0.21703 -0.2275,0.14261 -0.2406,0.15653 -0.2786,0.17465 0,-0.007 0,-0.008 -0.01,-0.0145 -2e-4,-0.0236 0,-0.0501 0.01,-0.11213 0.01,-0.0551 0.011,-0.11081 0.024,-0.16483 0.013,-0.0563 0.035,-0.10978 0.052,-0.16487 0,-0.0109 -0.012,-0.0158 -0.015,-0.005 -0.016,0.0557 -0.034,0.11089 -0.05,0.16693 -0.015,0.0542 -0.026,0.10941 -0.04,0.1638 0,0.0147 -0.01,0.0328 -0.014,0.0491 -0.011,-0.0206 -0.031,-0.0588 -0.031,-0.0594 -0.024,-0.0393 -0.048,-0.0809 -0.082,-0.1116 -0.077,-0.0688 -0.1327,-0.0627 -0.2274,-0.0755 -0.1042,0.0193 -0.077,0.16711 0.027,0.14779 0.01,-0.007 0.018,-0.0212 0.031,-0.0217 0.092,-0.003 0.098,0.0393 0.141,0.11679 0.025,0.0441 0.031,0.0586 0.04,0.077 0,0.003 -1e-4,0.006 -5e-4,0.009 -0.023,-0.0153 -0.043,-0.0337 -0.066,-0.045 -0.033,-0.0162 -0.067,-0.0326 -0.1034,-0.0393 -0.058,-0.0108 -0.1174,-0.008 -0.1762,-0.0129 -0.011,-0.001 -0.013,0.0141 0,0.0155 0.1305,0.0271 0.1527,0.02 0.2574,0.0739 0.026,0.0137 0.053,0.0286 0.076,0.0471 -0.038,0.0642 -0.1467,0.0782 -0.1917,0.0837 -0.912098,0.11255 -2.276898,0.43254 -2.276898,0.43254 l 7.012,0.11626 2.3647,-0.28215 c 0,0 -0.6711,-0.28218 -1.1896,-0.39016 -0.05,-0.0105 -0.095,-0.0376 -0.041,-0.12763 0.024,-0.0274 0.047,-0.056 0.074,-0.0806 0.1481,-0.13573 0.265599,-0.22394 0.463,-0.27855 0.053,-0.0147 0.1107,-0.004 0.1659,-0.005 0.079,-0.0171 0.055,-0.12875 -0.024,-0.11163 -0.1096,0.0471 -0.3338,0.14121 -0.4206,0.19018 -0.1531,0.0865 -0.2,0.12578 -0.2496,0.16899 0.058,-0.0916 0.121,-0.17952 0.1948,-0.25892 0.022,-0.0236 0.054,-0.0354 0.081,-0.0532 0.093,-0.0992 -0.047,-0.2305 -0.14,-0.13126 -0.017,0.0353 -0.029,0.0733 -0.05,0.10594 -0.05,0.0761 -0.1065,0.14732 -0.1623,0.2191 -0.093,0.11962 -0.1063,0.13065 -0.1302,0.15814 0.01,-0.0346 0.017,-0.0695 0.028,-0.10337 0.018,-0.0558 0.036,-0.10334 0.056,-0.15036 z m -4.524301,0.50488 c 0.037,-0.004 0.061,-0.008 0.119399,-0.0104 0.075,-0.003 0.150301,0.003 0.225301,0.002 0.019,-3.2e-4 0.038,-10e-4 0.057,-0.002 -0.019,-0.002 -0.037,-0.006 -0.056,-0.006 -0.1425,-0.006 -0.2335,0.002 -0.3452,0.016 z m 0.4016,-0.01 c 0.037,0.004 0.075,0.008 0.1126,0.0124 0.011,5.29e-4 0.012,-0.0151 0,-0.0155 -0.037,0.001 -0.075,0.002 -0.1126,0.003 z m 0.3059,-0.0992 c 0.011,-0.0489 0.026,-0.0961 0.035,-0.15092 0,-0.0128 0,-0.0258 0,-0.0387 0,0.0121 -0.011,0.0235 -0.014,0.0362 -0.016,0.0661 -0.02,0.10927 -0.024,0.15348 z m 2.7781,-0.30697 c 0.017,-0.003 0.034,-0.005 0.051,-0.008 0.042,-0.008 0.084,-0.0161 0.1255,-0.0243 -0.043,0.005 -0.086,0.009 -0.1276,0.0186 -0.018,0.004 -0.032,0.01 -0.049,0.0139 z m 0.1767,-0.0325 c 0.036,-0.005 0.072,-0.0103 0.108,-0.0155 v -0.005 c -0.036,0.007 -0.072,0.0136 -0.108,0.0207 z m -0.3586,0.26612 c 0.01,-0.002 0.011,-0.003 0.017,-0.005 0,0.001 -0.01,9.21e-4 -0.01,0.002 0,9.5e-4 0,0.002 -0.01,0.003 z m 0.017,-0.005 c 0.047,-0.0154 0.098,-0.0218 0.1467,-0.0326 0.011,-0.003 0.01,-0.018 0,-0.015 -0.049,0.0154 -0.098,0.0321 -0.1467,0.0476 z m -0.915699,-0.48784 c -0.015,0.008 -0.029,0.0163 -0.044,0.0238 0.02,-0.01 0.019,-0.01 0.045,-0.0233 0,0 -5.03e-4,-5.3e-4 -5.03e-4,-5.3e-4 z m -0.044,0.0238 c -0.1006,0.0494 -0.1713,0.0943 -0.2294,0.14367 0.031,-0.0245 0.063,-0.0489 0.099,-0.0739 0.04,-0.0283 0.086,-0.048 0.1302,-0.0698 z m -0.2294,0.14367 c -0.035,0.0276 -0.068,0.0561 -0.098,0.0853 0.047,-0.0426 0.073,-0.064 0.098,-0.0853 z m -1.678,0.0527 c -0.3264,0.0956 -0.3874,0.11165 -0.4387,0.12917 0.145,-0.047 0.2925,-0.0862 0.4387,-0.12917 z m -0.4392,0.12917 c -0.1467,0.0476 -0.2369,0.0764 -0.3287,0.12197 0.2468,-0.0901 0.2828,-0.10626 0.3287,-0.12197 z" />
  </g>
</svg>
