<?xml version="1.0" encoding="UTF-8" standalone="no"?>
<svg
   xmlns:dc="http://purl.org/dc/elements/1.1/"
   xmlns:cc="http://creativecommons.org/ns#"
   xmlns:rdf="http://www.w3.org/1999/02/22-rdf-syntax-ns#"
   xmlns:svg="http://www.w3.org/2000/svg"
   xmlns="http://www.w3.org/2000/svg"
   xmlns:sodipodi="http://sodipodi.sourceforge.net/DTD/sodipodi-0.dtd"
   xmlns:inkscape="http://www.inkscape.org/namespaces/inkscape"
   inkscape:export-ydpi="96"
   inkscape:export-xdpi="96"
   inkscape:export-filename="D:\Calcatz\Icon Pack\Adventure Narative Inspired by Arrival\GUI\Settings\png\dropdown - background_detail_1.png"
   sodipodi:docname="dropdown - background_detail_1.svg"
   inkscape:version="1.0 (4035a4fb49, 2020-05-01)"
   id="svg5338"
   version="1.1"
   viewBox="0 0 16.299801 2.1083295"
   height="2.1083295mm"
   width="16.299801mm">
  <defs
     id="defs5332" />
  <sodipodi:namedview
     inkscape:window-maximized="1"
     inkscape:window-y="-8"
     inkscape:window-x="-8"
     inkscape:window-height="705"
     inkscape:window-width="1366"
     fit-margin-bottom="0"
     fit-margin-right="0"
     fit-margin-left="0"
     fit-margin-top="0"
     showgrid="false"
     inkscape:document-rotation="0"
     inkscape:current-layer="layer1"
     inkscape:document-units="mm"
     inkscape:cy="8.2364506"
     inkscape:cx="36.97009"
     inkscape:zoom="3.7965805"
     inkscape:pageshadow="2"
     inkscape:pageopacity="0.0"
     borderopacity="1.0"
     bordercolor="#666666"
     pagecolor="#ffffff"
     id="base" />
  <metadata
     id="metadata5335">
    <rdf:RDF>
      <cc:Work
         rdf:about="">
        <dc:format>image/svg+xml</dc:format>
        <dc:type
           rdf:resource="http://purl.org/dc/dcmitype/StillImage" />
        <dc:title></dc:title>
      </cc:Work>
    </rdf:RDF>
  </metadata>
  <g
     transform="translate(-22.5997,-132.98255)"
     id="layer1"
     inkscape:groupmode="layer"
     inkscape:label="Layer 1">
    <g
       id="g11216"
       transform="translate(-1433.0492,473.22193)">
      <path
         style="fill:#cccccc;fill-opacity:1;stroke:none;stroke-width:0.318505px;stroke-linecap:butt;stroke-linejoin:miter;stroke-opacity:1"
         d="m 1455.6489,-339.06011 c 0,0 1.3152,-0.25814 2.3818,-0.39942 0.081,-0.0108 0.1256,-0.0258 0.081,-0.0897 -0.013,-0.0187 0.1999,-0.0189 0.2214,-0.0128 0.09,0.0255 0.179,0.0324 0.2637,0.0318 0.062,-3.8e-4 0.1337,-0.0171 0.097,-0.12537 -0.01,-0.0189 0.1194,0.11436 0.1392,0.11316 1.1033,-0.0651 2.2133,0.12433 3.3168,0.0687 0.048,-0.002 0.1971,-0.0301 0.2048,-0.12556 0,-0.0504 0.039,0.10943 0.089,0.10509 0.03,-0.002 0.2914,-0.14257 0.2755,-0.11749 -0.057,0.0909 0.052,0.0854 0.1702,0.0715 0.5691,-0.0666 1.1319,-0.15535 1.7039,-0.17961 0.1241,-0.005 0.3133,-0.0298 0.3238,-0.18993 10e-4,-0.024 0.098,0.18496 0.1218,0.18563 0.093,0.002 0.527,-0.10629 0.46,-0.0421 -0.072,0.069 -0.01,0.0728 0.079,0.0827 0.2651,0.0306 0.5282,0.074 0.7925,0.11725 0.077,0.0125 0.1798,0.0497 0.2804,-0.0548 0.012,-0.0123 -0.016,0.0974 7e-4,0.10003 0.095,0.0148 0.1904,0.0291 0.2862,0.0421 1.7208,0.23412 5.0111,0.30626 5.0111,0.30626 l -2.3648,0.7038 -5.912,0.33782 -4.9829,-0.59119 z"
         id="path11168"
         sodipodi:nodetypes="cssssssssssssssssssssccccc" />
      <path
         style="fill:#cccccc;fill-opacity:1;stroke:none;stroke-width:0.845067;stroke-linecap:round;stroke-miterlimit:4;stroke-dasharray:none;stroke-opacity:1;paint-order:markers stroke fill"
         id="path11170"
         d="m 1458.6928,-339.04109 c 0.09,-0.13065 0.1281,-0.17155 0.1891,-0.33766 0.039,-0.10738 0.045,-0.22728 0.096,-0.32942 0.036,-0.0715 0.1068,-0.1193 0.1602,-0.17895 0.075,-0.13183 -0.1111,-0.23827 -0.1865,-0.10641 v 0 c -0.085,0.22759 -0.1019,0.30193 -0.2416,0.52591 -0.038,0.0602 -0.089,0.11027 -0.1332,0.16625 -0.021,0.0272 -0.041,0.0555 -0.062,0.0832 -0.1252,0.12522 0.052,0.30232 0.1771,0.17709 z" />
      <path
         style="fill:#cccccc;fill-opacity:1;stroke:none;stroke-width:0.845067;stroke-linecap:round;stroke-miterlimit:4;stroke-dasharray:none;stroke-opacity:1;paint-order:markers stroke fill"
         id="path11172"
         d="m 1458.8486,-339.2629 c 0.1566,-0.13605 0.1697,-0.15322 0.3677,-0.29077 0.1035,-0.0719 0.2015,-0.15493 0.3161,-0.20752 0.1195,-0.0549 0.2525,-0.0743 0.3787,-0.11147 0.065,-0.0223 0.034,-0.11424 -0.032,-0.092 v 0 c -0.3233,0.11183 -0.4331,0.14318 -0.7449,0.27687 -0.094,0.0401 -0.1838,0.0878 -0.2767,0.12939 -0.062,0.0279 -0.1263,0.053 -0.1895,0.0794 -0.1527,0.12728 0.027,0.34328 0.18,0.21601 z" />
      <path
         style="fill:#cccccc;fill-opacity:1;stroke:none;stroke-width:0.845067;stroke-linecap:round;stroke-miterlimit:4;stroke-dasharray:none;stroke-opacity:1;paint-order:markers stroke fill"
         id="path11174"
         d="m 1464.8754,-339.27793 c 0.121,-0.32539 -0.049,0.0973 0.1685,-0.30207 0.1142,-0.20976 0.068,-0.2415 0.2199,-0.4077 0.017,-0.0183 0.044,-0.022 0.067,-0.0331 0.1219,-0.13003 -0.062,-0.3024 -0.1839,-0.17237 v 0 c -0.1498,0.15864 -0.03,0.0122 -0.166,0.28656 -0.088,0.17849 -0.1953,0.35072 -0.3431,0.48605 -0.1009,0.1681 0.1369,0.31074 0.2378,0.14264 z" />
      <path
         style="fill:#cccccc;fill-opacity:1;stroke:none;stroke-width:0.845067;stroke-linecap:round;stroke-miterlimit:4;stroke-dasharray:none;stroke-opacity:1;paint-order:markers stroke fill"
         id="path11176"
         d="m 1465.1596,-339.54991 c 0.038,-0.0494 0.068,-0.10545 0.1126,-0.14819 0.085,-0.0811 0.2534,-0.16307 0.3536,-0.2174 0.079,-0.0312 0.034,-0.14233 -0.044,-0.11112 v 0 c -0.083,0.0196 -0.1712,0.0265 -0.2507,0.0589 -0.1228,0.0501 -0.2066,0.17322 -0.3375,0.21024 -0.1468,0.11749 0.019,0.32513 0.1661,0.20766 z" />
      <path
         style="fill:#cccccc;fill-opacity:1;stroke:none;stroke-width:0.845067;stroke-linecap:round;stroke-miterlimit:4;stroke-dasharray:none;stroke-opacity:1;paint-order:markers stroke fill"
         id="path11178"
         d="m 1458.8825,-339.56619 c -0.057,-0.0737 -0.041,-0.0572 -0.133,-0.14747 -0.041,-0.0403 -0.08,-0.0833 -0.1259,-0.11846 -0.044,-0.0338 -0.094,-0.0584 -0.1415,-0.0875 -0.039,-0.0296 -0.081,0.0255 -0.042,0.0551 v 0 c 0.1044,0.0673 0.1689,0.0947 0.2429,0.1997 0.028,0.0392 0.038,0.0885 0.062,0.13036 0.012,0.0219 0.03,0.0401 0.046,0.0602 0.065,0.065 0.157,-0.027 0.092,-0.092 z" />
      <path
         style="fill:#cccccc;fill-opacity:1;stroke:none;stroke-width:0.845067;stroke-linecap:round;stroke-miterlimit:4;stroke-dasharray:none;stroke-opacity:1;paint-order:markers stroke fill"
         id="path11180"
         d="m 1458.9653,-339.57903 c 0.1331,-0.12935 0.044,-0.0485 0.2465,-0.20609 0.078,-0.0604 0.1499,-0.12868 0.2327,-0.18197 0.081,-0.0521 0.1712,-0.0887 0.2567,-0.13307 0.016,-0.01 0,-0.0327 -0.014,-0.0231 v 0 c -0.079,0.0562 -0.1512,0.12167 -0.2356,0.1688 -0.087,0.0488 -0.1848,0.0761 -0.2759,0.11701 -0.1566,0.0703 -0.1693,0.08 -0.2926,0.1493 -0.077,0.0579 0.01,0.16698 0.082,0.10907 z" />
      <path
         style="fill:#cccccc;fill-opacity:1;stroke:none;stroke-width:0.845067;stroke-linecap:round;stroke-miterlimit:4;stroke-dasharray:none;stroke-opacity:1;paint-order:markers stroke fill"
         id="path11182"
         d="m 1459.2393,-339.48625 c 0.3895,-0.0934 0.7808,-0.17902 1.174,-0.25544 0.1301,-0.0253 0.2599,-0.0532 0.3909,-0.0732 0.08,-0.0122 0.1609,-0.0155 0.2413,-0.0232 0.024,-0.004 0.019,-0.0371 0,-0.0337 v 0 c -0.6655,0.14636 0.3307,-0.0705 -0.6281,0.12733 -0.1276,0.0264 -0.2531,0.0631 -0.3816,0.0843 -0.1151,0.0189 -0.2319,0.0256 -0.3481,0.0359 -0.2741,0.0241 -0.218,0.0202 -0.4436,0.015 -0.087,0 -0.087,0.12312 0,0.12312 z" />
      <path
         style="fill:#cccccc;fill-opacity:1;stroke:none;stroke-width:0.845067;stroke-linecap:round;stroke-miterlimit:4;stroke-dasharray:none;stroke-opacity:1;paint-order:markers stroke fill"
         id="path11184"
         d="m 1462.5625,-339.39032 c 0,-0.0206 0,-0.0423 0.01,-0.0619 0.013,-0.037 0.034,-0.071 0.052,-0.10593 0.1074,-0.20772 0.06,-0.11569 0.1923,-0.31994 0.1237,-0.19096 0.028,-0.0543 0.1224,-0.18628 0.011,-0.0108 0.021,-0.0212 0.031,-0.0318 0.029,-0.0892 -0.097,-0.13045 -0.1262,-0.0412 v 0 c 0,0.006 0,0.0108 0,0.0171 -0.024,0.0721 -0.043,0.14028 -0.082,0.20734 -0.033,0.0566 -0.076,0.10714 -0.1138,0.16083 -0.035,0.0502 -0.073,0.0986 -0.1052,0.1509 -0.024,0.0385 -0.04,0.0811 -0.061,0.12082 -0.017,0.0306 -0.035,0.0599 -0.052,0.0899 0,0.0951 0.1343,0.0951 0.1343,0 z" />
      <path
         style="fill:#cccccc;fill-opacity:1;stroke:none;stroke-width:0.845067;stroke-linecap:round;stroke-miterlimit:4;stroke-dasharray:none;stroke-opacity:1;paint-order:markers stroke fill"
         id="path11186"
         d="m 1462.5578,-339.44537 c 0.1609,-0.16531 0.3345,-0.3195 0.5515,-0.40726 0.035,-0.0143 0.075,-0.0154 0.1119,-0.0231 0.061,-0.0226 0.029,-0.1081 -0.032,-0.0855 v 0 c -0.036,0.0183 -0.074,0.0346 -0.109,0.055 -0.065,0.0374 -0.1262,0.0793 -0.1896,0.11845 -0.066,0.0409 -0.1319,0.0827 -0.199,0.12195 -0.051,0.0296 -0.1036,0.0556 -0.1547,0.0846 -0.03,0.0171 -0.059,0.0358 -0.089,0.0537 -0.058,0.0774 0.051,0.15951 0.1094,0.0821 z" />
      <path
         style="fill:#cccccc;fill-opacity:1;stroke:none;stroke-width:0.845067;stroke-linecap:round;stroke-miterlimit:4;stroke-dasharray:none;stroke-opacity:1;paint-order:markers stroke fill"
         id="path11188"
         d="m 1462.523,-339.4534 c -0.1045,-0.13135 -0.165,-0.28946 -0.2389,-0.43805 -0.033,-0.0666 -0.069,-0.13182 -0.1034,-0.19774 -0.013,-0.0291 -0.055,-0.01 -0.041,0.0191 v 0 c 0.093,0.19027 0.1178,0.22628 0.1893,0.43418 0.019,0.0566 0.03,0.11604 0.049,0.17272 0.01,0.0309 0.026,0.06 0.039,0.0899 0.056,0.0755 0.1633,-0.005 0.1067,-0.08 z" />
      <path
         style="fill:#cccccc;fill-opacity:1;stroke:none;stroke-width:0.845067;stroke-linecap:round;stroke-miterlimit:4;stroke-dasharray:none;stroke-opacity:1;paint-order:markers stroke fill"
         id="path11190"
         d="m 1465.0317,-339.62919 c 0,-0.0197 0,-0.0395 0,-0.0592 0,-0.0279 -0.012,-0.0551 -0.014,-0.0831 0,-0.0217 -0.01,-0.17369 -0.01,-0.19749 0,-0.0251 0,-0.0504 0,-0.0755 0,-0.019 -0.01,-0.0374 -0.012,-0.0562 -0.025,-0.0832 -0.1421,-0.0488 -0.1177,0.0344 v 0 c 0.032,0.0592 0.02,0.0252 0.026,0.10401 0,0.0688 0.011,0.12072 0.01,0.19065 0,0.0278 -0.01,0.0554 -0.01,0.0831 0,0.0197 0,0.0395 0,0.0592 0,0.0896 0.1266,0.0896 0.1266,0 z" />
      <path
         style="fill:#cccccc;fill-opacity:1;stroke:none;stroke-width:0.845067;stroke-linecap:round;stroke-miterlimit:4;stroke-dasharray:none;stroke-opacity:1;paint-order:markers stroke fill"
         id="path11192"
         d="m 1465.0203,-339.68255 c -0.1235,-0.0466 -0.201,-0.15742 -0.2961,-0.24167 -0.1479,-0.11641 -0.084,-0.0619 -0.1941,-0.16076 -0.062,-0.0391 -0.1174,0.0486 -0.055,0.0878 v 0 c 0.025,0.013 0.053,0.0238 0.077,0.0392 0.088,0.0559 0.1645,0.11592 0.235,0.19345 0.034,0.0378 0.061,0.0817 0.094,0.12094 0.022,0.0267 0.047,0.0512 0.071,0.0767 0.082,0.0491 0.1512,-0.0666 0.069,-0.11568 z" />
      <path
         style="fill:#cccccc;fill-opacity:1;stroke:none;stroke-width:0.845067;stroke-linecap:round;stroke-miterlimit:4;stroke-dasharray:none;stroke-opacity:1;paint-order:markers stroke fill"
         id="path11194"
         d="m 1465.3341,-339.67867 c 0.2751,-0.12971 0.1192,-0.0707 0.4738,-0.16042 0.032,-0.008 0.02,-0.0537 -0.012,-0.0454 v 0 c -0.3523,0.10329 -0.1869,0.0767 -0.4926,0.0988 -0.076,0.0217 -0.045,0.12858 0.031,0.10702 z" />
      <path
         style="fill:#cccccc;fill-opacity:1;stroke:none;stroke-width:0.845067;stroke-linecap:round;stroke-miterlimit:4;stroke-dasharray:none;stroke-opacity:1;paint-order:markers stroke fill"
         id="path11196"
         d="m 1464.2365,-339.68995 c -0.3371,-0.11966 -0.1544,-0.0569 -0.5487,-0.18587 0,10e-4 0.01,-0.004 0,-0.005 v 0 c 0.3657,0.18721 0.1985,0.0955 0.5038,0.27149 0.057,0.0303 0.1,-0.0502 0.043,-0.0805 z" />
      <path
         style="fill:#cccccc;fill-opacity:1;stroke:none;stroke-width:0.845067;stroke-linecap:round;stroke-miterlimit:4;stroke-dasharray:none;stroke-opacity:1;paint-order:markers stroke fill"
         id="path11198"
         d="m 1461.3593,-339.2477 c 0.01,-0.0128 0.019,-0.025 0.027,-0.0382 0.053,-0.0823 0.09,-0.17608 0.1558,-0.2484 0.1145,-0.12588 0.3417,-0.27702 0.4897,-0.38081 0.025,-0.0182 -3e-4,-0.0539 -0.026,-0.0358 v 0 c -0.06,0.0578 -0.1178,0.11893 -0.1813,0.17342 -0.095,0.0812 -0.1951,0.15554 -0.2927,0.23332 -0.08,0.0644 -0.1613,0.12635 -0.239,0.19307 -0.024,0.0211 -0.045,0.0467 -0.067,0.0701 -0.024,0.0943 0.1098,0.12763 0.1333,0.0334 z" />
      <path
         style="fill:#cccccc;fill-opacity:1;stroke:none;stroke-width:0.845067;stroke-linecap:round;stroke-miterlimit:4;stroke-dasharray:none;stroke-opacity:1;paint-order:markers stroke fill"
         id="path11200"
         d="m 1462.4343,-339.36291 c 0.017,-0.0222 0.04,-0.0407 0.051,-0.0665 0.018,-0.0423 0.019,-0.0893 0.032,-0.13334 0.031,-0.10966 0.065,-0.21139 0.1183,-0.31261 0.014,-0.0268 0.035,-0.0497 0.052,-0.0746 0.038,-0.0713 -0.063,-0.12507 -0.1009,-0.0538 v 0 c -0.01,0.0338 -0.01,0.0687 -0.018,0.10149 -0.017,0.0531 -0.04,0.10388 -0.062,0.15497 -0.044,0.10341 -0.09,0.20856 -0.1595,0.29806 -0.061,0.061 0.025,0.14735 0.086,0.0863 z" />
      <path
         style="fill:#cccccc;fill-opacity:1;stroke:none;stroke-width:0.845067;stroke-linecap:round;stroke-miterlimit:4;stroke-dasharray:none;stroke-opacity:1;paint-order:markers stroke fill"
         id="path11202"
         d="m 1462.5186,-339.38403 c -0.052,-0.0373 -0.301,-0.21498 -0.3211,-0.2262 -0.095,-0.0532 -0.523,-0.24078 -0.6269,-0.287 0,-9.5e-4 0,0.002 0,0.004 v 0 c 0.1984,0.0918 0.4254,0.1859 0.605,0.31376 0.1137,0.081 0.1797,0.17327 0.2635,0.2772 0.057,0.0573 0.1382,-0.0237 0.081,-0.081 z" />
      <path
         style="fill:#cccccc;fill-opacity:1;stroke:none;stroke-width:0.845067;stroke-linecap:round;stroke-miterlimit:4;stroke-dasharray:none;stroke-opacity:1;paint-order:markers stroke fill"
         id="path11204"
         d="m 1461.8322,-339.45657 c -0.251,-0.12476 -0.4881,-0.27545 -0.7375,-0.40305 -0.1022,-0.0523 -0.2089,-0.0953 -0.3133,-0.143 0,-0.001 -0.01,0.002 0,0.005 v 0 c 0.2558,0.11328 0.5039,0.21262 0.739,0.37145 0.098,0.066 0.1769,0.15585 0.2653,0.23379 0.045,0.0342 0.093,-0.0293 0.048,-0.0634 z" />
      <path
         style="fill:#cccccc;fill-opacity:1;stroke:none;stroke-width:0.845067;stroke-linecap:round;stroke-miterlimit:4;stroke-dasharray:none;stroke-opacity:1;paint-order:markers stroke fill"
         id="path11206"
         d="m 1458.4794,-339.42089 c -0.053,-0.0608 -0.079,-0.0926 -0.1437,-0.15105 -0.054,-0.0487 -0.1138,-0.0914 -0.1667,-0.14139 -0.043,-0.0409 -0.081,-0.0875 -0.1215,-0.13127 -0.039,-0.0342 -0.087,0.0206 -0.048,0.0548 v 0 c 0.047,0.0356 0.099,0.0649 0.1396,0.1069 0.049,0.0509 0.087,0.11231 0.1281,0.1696 0.017,0.0238 0.091,0.13449 0.1167,0.17227 0.057,0.0678 0.1524,-0.0122 0.096,-0.0799 z" />
      <path
         style="fill:#cccccc;fill-opacity:1;stroke:none;stroke-width:0.845067;stroke-linecap:round;stroke-miterlimit:4;stroke-dasharray:none;stroke-opacity:1;paint-order:markers stroke fill"
         id="path11208"
         d="m 1458.4325,-339.50088 c -0.1444,-0.0596 -0.1331,-0.0567 -0.2947,-0.1146 -0.049,-0.0176 -0.098,-0.0364 -0.1475,-0.0508 -0.035,-0.01 -0.072,-0.0153 -0.1078,-0.0229 -0.078,-10e-4 -0.08,0.10846 0,0.11002 v 0 c 0.03,-0.006 0.059,-0.0223 0.089,-0.0174 0.048,0.007 0.092,0.0335 0.1362,0.0537 0.1366,0.0621 0.1404,0.0702 0.2538,0.14493 0.073,0.0519 0.1461,-0.0509 0.073,-0.1028 z" />
      <path
         style="fill:#cccccc;fill-opacity:1;stroke:none;stroke-width:0.845067;stroke-linecap:round;stroke-miterlimit:4;stroke-dasharray:none;stroke-opacity:1;paint-order:markers stroke fill"
         id="path11210"
         d="m 1466.6525,-339.42071 c 0.1459,-0.0894 0.2244,-0.14558 0.3972,-0.20782 0.068,-0.0246 0.1409,-0.0333 0.2113,-0.0501 0.044,-0.0156 0.022,-0.0779 -0.022,-0.0621 v 0 c -0.067,0.0272 -0.133,0.0577 -0.2014,0.0815 -0.4452,0.15488 -0.099,0.005 -0.4235,0.15358 -0.06,0.0273 -0.021,0.11232 0.039,0.085 z" />
      <path
         style="fill:#cccccc;fill-opacity:1;stroke:none;stroke-width:0.845067;stroke-linecap:round;stroke-miterlimit:4;stroke-dasharray:none;stroke-opacity:1;paint-order:markers stroke fill"
         id="path11212"
         d="m 1466.6544,-339.44225 c 0.02,-0.0343 0.1191,-0.2054 0.1337,-0.2239 0.031,-0.0385 0.07,-0.0687 0.1056,-0.10317 0.043,-0.0485 -0.026,-0.10978 -0.069,-0.0613 v 0 c -0.032,0.0402 -0.062,0.0817 -0.095,0.12054 -0.057,0.0667 -0.1238,0.12535 -0.1798,0.19347 -0.053,0.0735 0.052,0.14779 0.104,0.0743 z" />
      <path
         style="fill:#cccccc;fill-opacity:1;stroke:none;stroke-width:0.845067;stroke-linecap:round;stroke-miterlimit:4;stroke-dasharray:none;stroke-opacity:1;paint-order:markers stroke fill"
         id="path11214"
         d="m 1466.5048,-339.38674 c 0.2778,-0.0762 -0.056,0.0214 0.2645,-0.0956 0.061,-0.0223 0.1241,-0.0388 0.1862,-0.058 0.1,-0.0309 0.1968,-0.0722 0.2992,-0.0926 0.093,-0.0184 0.1884,-0.0153 0.2826,-0.023 0.019,-0.002 0.014,-0.0291 0,-0.0261 v 0 c -0.6833,0.15677 0.161,-0.0187 -0.5957,0.0746 -0.1597,0.0196 -0.3017,0.11917 -0.4666,0.1075 -0.08,0.0241 -0.046,0.13742 0.034,0.1134 z" />
    </g>
  </g>
</svg>
