<?xml version="1.0" encoding="UTF-8" standalone="no"?>
<svg
   xmlns:dc="http://purl.org/dc/elements/1.1/"
   xmlns:cc="http://creativecommons.org/ns#"
   xmlns:rdf="http://www.w3.org/1999/02/22-rdf-syntax-ns#"
   xmlns:svg="http://www.w3.org/2000/svg"
   xmlns="http://www.w3.org/2000/svg"
   xmlns:sodipodi="http://sodipodi.sourceforge.net/DTD/sodipodi-0.dtd"
   xmlns:inkscape="http://www.inkscape.org/namespaces/inkscape"
   inkscape:export-ydpi="96"
   inkscape:export-xdpi="96"
   inkscape:export-filename="D:\Calcatz\Icon Pack\Adventure Narative Inspired by Arrival\GUI\Settings\png\dropdown_item - background_detail_4.png"
   sodipodi:docname="dropdown_item - background_detail_4.svg"
   inkscape:version="1.0 (4035a4fb49, 2020-05-01)"
   id="svg6011"
   version="1.1"
   viewBox="0 0 1.7231585 9.3596296"
   height="9.3596296mm"
   width="1.7231585mm">
  <defs
     id="defs6005" />
  <sodipodi:namedview
     inkscape:window-maximized="1"
     inkscape:window-y="-8"
     inkscape:window-x="-8"
     inkscape:window-height="705"
     inkscape:window-width="1366"
     fit-margin-bottom="0"
     fit-margin-right="0"
     fit-margin-left="0"
     fit-margin-top="0"
     showgrid="false"
     inkscape:document-rotation="0"
     inkscape:current-layer="layer1"
     inkscape:document-units="mm"
     inkscape:cy="19.219879"
     inkscape:cx="4.0170249"
     inkscape:zoom="7.593161"
     inkscape:pageshadow="2"
     inkscape:pageopacity="0.0"
     borderopacity="1.0"
     bordercolor="#666666"
     pagecolor="#ffffff"
     id="base" />
  <metadata
     id="metadata6008">
    <rdf:RDF>
      <cc:Work
         rdf:about="">
        <dc:format>image/svg+xml</dc:format>
        <dc:type
           rdf:resource="http://purl.org/dc/dcmitype/StillImage" />
        <dc:title></dc:title>
      </cc:Work>
    </rdf:RDF>
  </metadata>
  <g
     transform="translate(-104.97175,-143.48685)"
     id="layer1"
     inkscape:groupmode="layer"
     inkscape:label="Layer 1">
    <g
       style="fill:#1f2123;fill-opacity:1"
       transform="translate(-769.20254,-41.585238)"
       id="g12395">
      <path
         style="fill:#1f2123;fill-opacity:1;stroke:none;stroke-width:0.264583px;stroke-linecap:butt;stroke-linejoin:miter;stroke-opacity:1"
         d="m 874.48848,185.07209 c 0,0 0.55099,1.29487 0.62838,1.98437 0.0592,0.52769 -0.0849,1.05862 -0.13229,1.5875 -0.0722,0.80524 -0.31281,1.60995 -0.23151,2.41432 0.0568,0.56207 0.30546,1.05857 0.24805,1.62058 -0.0677,0.66259 -0.71107,1.75286 -0.71107,1.75286 l -0.11575,-2.61276 0.0661,-5.72161 z"
         id="path12303"
         sodipodi:nodetypes="csssscccc" />
      <path
         style="fill:#1f2123;fill-opacity:1;stroke:none;stroke-width:0.702;stroke-linecap:round;stroke-miterlimit:4;stroke-dasharray:none;stroke-opacity:1;paint-order:markers stroke fill"
         id="path12305"
         d="m 874.99428,187.32131 c 0.14436,-0.0449 0.25255,-0.16175 0.39103,-0.2169 0.0693,-0.0276 0.14589,-0.0315 0.21886,-0.0472 0.0868,-0.0268 0.0489,-0.14958 -0.0379,-0.12277 v 0 c -0.0734,0.0257 -0.14666,0.0519 -0.22027,0.077 -0.2599,0.0888 -0.15303,0.063 -0.37806,0.0992 -0.14896,0.0186 -0.12263,0.22929 0.0265,0.21067 z" />
      <path
         style="fill:#1f2123;fill-opacity:1;stroke:none;stroke-width:0.702;stroke-linecap:round;stroke-miterlimit:4;stroke-dasharray:none;stroke-opacity:1;paint-order:markers stroke fill"
         id="path12307"
         d="m 875.04011,187.41737 c 0.13242,0.0185 0.0754,-1.7e-4 0.19846,0.0618 0.0437,0.022 0.0915,0.0375 0.13044,0.067 0.0527,0.0399 0.0944,0.0927 0.14155,0.13902 0.11129,0.0791 0.22315,-0.0783 0.11187,-0.15737 v 0 c -0.0527,-0.0393 -0.10567,-0.0782 -0.15804,-0.11797 -0.048,-0.0364 -0.0917,-0.0788 -0.14292,-0.11043 -0.0656,-0.0404 -0.14941,-0.0452 -0.20971,-0.097 -0.15201,-0.0507 -0.22365,0.16429 -0.0716,0.21495 z" />
      <path
         style="fill:#1f2123;fill-opacity:1;stroke:none;stroke-width:0.702;stroke-linecap:round;stroke-miterlimit:4;stroke-dasharray:none;stroke-opacity:1;paint-order:markers stroke fill"
         id="path12309"
         d="m 874.71904,192.18438 c 0.1126,0.10877 0.20555,0.23663 0.31832,0.34515 0.0773,0.0744 0.36168,0.31036 0.45471,0.37782 0.0414,0.03 0.0874,0.0528 0.13113,0.0792 0.11371,0.0393 0.16922,-0.12153 0.0555,-0.1608 v 0 c -0.0399,-0.003 -0.0833,0.007 -0.11972,-0.0101 -0.16933,-0.0775 -0.31247,-0.21706 -0.42259,-0.36323 -0.0405,-0.0537 -0.16047,-0.27675 -0.2054,-0.35893 -0.0642,-0.1499 -0.27622,-0.059 -0.21198,0.0909 z" />
      <path
         style="fill:#1f2123;fill-opacity:1;stroke:none;stroke-width:0.702;stroke-linecap:round;stroke-miterlimit:4;stroke-dasharray:none;stroke-opacity:1;paint-order:markers stroke fill"
         id="path12311"
         d="m 874.91872,192.4573 c 0.005,0.017 0.007,0.0356 0.0161,0.0508 0.16131,0.26746 0.18777,0.19765 0.24384,0.55266 0.0127,0.0798 -0.004,0.1616 -0.006,0.2424 0.0156,0.0973 0.15333,0.0751 0.13761,-0.0223 v 0 c -0.0552,-0.48242 0.0132,0.005 -0.12269,-0.59269 -0.022,-0.0964 -0.0243,-0.19698 -0.0507,-0.29226 -0.0138,-0.0494 -0.0457,-0.0919 -0.0686,-0.13784 -0.14081,-0.10561 -0.29017,0.0935 -0.14935,0.19914 z" />
      <path
         style="fill:#1f2123;fill-opacity:1;stroke:none;stroke-width:0.702;stroke-linecap:round;stroke-miterlimit:4;stroke-dasharray:none;stroke-opacity:1;paint-order:markers stroke fill"
         id="path12313"
         d="m 875.17986,187.09843 c 0.0364,-0.20697 0.005,-0.0958 0.11345,-0.32806 0.0268,-0.0574 -0.0544,-0.0953 -0.0811,-0.0379 v 0 c -0.13618,0.24899 -0.0731,0.12683 -0.19021,0.36596 0,0.11165 0.1579,0.11165 0.1579,0 z" />
      <path
         style="fill:#1f2123;fill-opacity:1;stroke:none;stroke-width:0.702;stroke-linecap:round;stroke-miterlimit:4;stroke-dasharray:none;stroke-opacity:1;paint-order:markers stroke fill"
         id="path12315"
         d="m 874.79002,186.47289 c 0.11282,-0.17069 0.12383,-0.21073 0.29684,-0.35453 0.0512,-0.0425 0.11242,-0.0712 0.16865,-0.10682 0.0502,-0.0361 0,-0.10706 -0.0511,-0.0709 v 0 c -0.1715,0.15136 -0.34295,0.30291 -0.52015,0.44766 -0.0598,0.0748 0.0459,0.15938 0.10578,0.0846 z" />
      <path
         style="fill:#1f2123;fill-opacity:1;stroke:none;stroke-width:0.702;stroke-linecap:round;stroke-miterlimit:4;stroke-dasharray:none;stroke-opacity:1;paint-order:markers stroke fill"
         id="path12317"
         d="m 874.86583,188.21751 c -0.003,0.0246 -0.0143,0.0512 -0.004,0.0737 0.0214,0.048 0.0625,0.0846 0.0935,0.12702 0.0312,0.0427 0.0666,0.0827 0.0931,0.12837 0.0257,0.044 0.0404,0.0934 0.0624,0.13934 0.0183,0.0382 0.0391,0.0753 0.0586,0.11291 0.0492,0.0794 0.16139,0.01 0.11221,-0.0696 v 0 c -0.12758,-0.19012 -0.014,-0.0143 -0.14306,-0.23622 -0.0249,-0.0427 -0.0568,-0.0815 -0.0774,-0.12648 -0.0241,-0.053 -0.0246,-0.11488 -0.0522,-0.16698 -0.0127,-0.10116 -0.15568,-0.0833 -0.14306,0.0179 z" />
      <path
         style="fill:#1f2123;fill-opacity:1;stroke:none;stroke-width:0.702;stroke-linecap:round;stroke-miterlimit:4;stroke-dasharray:none;stroke-opacity:1;paint-order:markers stroke fill"
         id="path12319"
         d="m 874.79931,189.35081 c 0.0492,0.0654 0.1043,0.12681 0.14766,0.19625 0.10954,0.17533 0.23988,0.46405 0.32618,0.64524 -0.003,-0.004 -0.007,-10e-4 -0.005,0.002 v 0 c -0.0474,-0.11997 -0.0956,-0.2396 -0.14213,-0.3599 -0.26107,-0.67495 0.003,-0.0109 -0.2082,-0.53852 -0.0386,-0.0836 -0.15682,-0.029 -0.11822,0.0546 z" />
      <path
         style="fill:#1f2123;fill-opacity:1;stroke:none;stroke-width:0.702;stroke-linecap:round;stroke-miterlimit:4;stroke-dasharray:none;stroke-opacity:1;paint-order:markers stroke fill"
         id="path12321"
         d="m 874.83236,189.70352 c 0.0812,-0.037 0.38777,-0.178 0.42796,-0.19013 0.11327,-0.0342 0.23077,-0.0548 0.34832,-0.0684 0.0867,-0.01 0.17444,-10e-4 0.26168,-0.002 0.0404,-0.005 0.0337,-0.0619 -0.007,-0.0571 v 0 c -0.1774,0.0257 -0.44603,0.0631 -0.61235,0.0944 -0.0964,0.0181 -0.19097,0.0452 -0.28731,0.0637 -0.0583,0.0112 -0.1175,0.0169 -0.17624,0.0253 -0.0947,0.0316 -0.0501,0.16558 0.0447,0.13399 z" />
      <path
         style="fill:#1f2123;fill-opacity:1;stroke:none;stroke-width:0.702;stroke-linecap:round;stroke-miterlimit:4;stroke-dasharray:none;stroke-opacity:1;paint-order:markers stroke fill"
         id="path12323"
         d="m 874.65062,190.53518 c 0.14065,-0.009 0.15578,-0.0143 0.30937,-5.3e-4 0.0634,0.006 0.12616,0.017 0.18923,0.0255 0.0653,0.0117 0.0819,-0.0805 0.0167,-0.0923 v 0 c -0.0661,-0.0108 -0.13187,-0.0237 -0.19825,-0.0324 -0.30634,-0.0402 -0.0686,0.01 -0.317,-0.049 -0.10512,0 -0.10512,0.14867 0,0.14867 z" />
      <path
         style="fill:#1f2123;fill-opacity:1;stroke:none;stroke-width:0.702;stroke-linecap:round;stroke-miterlimit:4;stroke-dasharray:none;stroke-opacity:1;paint-order:markers stroke fill"
         id="path12325"
         d="m 874.87017,192.2534 c 0.086,0.0356 0.17467,0.10394 0.27133,0.10646 0.0924,0.002 0.18409,-0.0217 0.27651,-0.0202 0.0988,0.002 0.19656,0.0197 0.29485,0.0296 0.0257,0.002 0.0288,-0.0342 0.003,-0.0364 v 0 c -0.38407,-0.0512 -0.19013,-0.0112 -0.53208,-0.10669 -0.0301,-0.008 -0.14121,-0.0351 -0.17142,-0.054 -0.0172,-0.0108 -0.027,-0.0306 -0.0406,-0.0459 -0.0899,-0.0719 -0.19159,0.0552 -0.10168,0.12713 z" />
      <path
         style="fill:#1f2123;fill-opacity:1;stroke:none;stroke-width:0.702;stroke-linecap:round;stroke-miterlimit:4;stroke-dasharray:none;stroke-opacity:1;paint-order:markers stroke fill"
         id="path12327"
         d="m 874.81524,192.94196 c 0.013,0.0502 0.0262,0.10035 0.0392,0.15052 0.0182,0.0593 0.0386,0.11804 0.0551,0.17788 0.0145,0.0531 0.0308,0.10611 0.0382,0.16067 0.006,0.0462 0,0.1486 0,0.20535 0.009,0.0942 0.14258,0.0809 0.13321,-0.0133 v 0 c -0.023,-0.11771 -0.0106,-0.0481 -0.0345,-0.20949 -0.0318,-0.1686 -0.0907,-0.33095 -0.10681,-0.50249 -0.0217,-0.0872 -0.14513,-0.0564 -0.12332,0.0308 z" />
      <path
         style="fill:#1f2123;fill-opacity:1;stroke:none;stroke-width:0.702;stroke-linecap:round;stroke-miterlimit:4;stroke-dasharray:none;stroke-opacity:1;paint-order:markers stroke fill"
         id="path12329"
         d="m 874.93311,186.29107 c 0.007,-0.11329 0.003,-0.0967 0.0425,-0.23972 0.0196,-0.0691 0.0359,-0.13986 0.0662,-0.20496 0.0582,-0.1251 0.11557,-0.18428 0.19749,-0.28212 0.0233,-0.0287 -0.0175,-0.0617 -0.0406,-0.0329 v 0 c -0.0863,0.12977 -0.10208,0.14532 -0.17786,0.30649 -0.0308,0.0655 -0.0518,0.13536 -0.083,0.20073 -0.16108,0.33843 -0.0304,0.007 -0.12311,0.25253 0,0.0837 0.1184,0.0837 0.1184,0 z" />
      <path
         style="fill:#1f2123;fill-opacity:1;stroke:none;stroke-width:0.702;stroke-linecap:round;stroke-miterlimit:4;stroke-dasharray:none;stroke-opacity:1;paint-order:markers stroke fill"
         id="path12331"
         d="m 875.1806,187.18528 c 0.0464,-0.0502 0.0641,-0.12153 0.11023,-0.17132 0.0445,-0.048 0.10086,-0.0835 0.15163,-0.12478 0.07,-0.0569 0.14039,-0.11332 0.21058,-0.16999 -0.005,0.003 5e-5,0.0103 0.005,0.007 v 0 c -0.12854,0.0725 -0.28779,0.15495 -0.40801,0.24661 -0.0387,0.0296 -0.072,0.0657 -0.10743,0.0991 -0.0196,0.0184 -0.0383,0.0375 -0.0574,0.0562 -0.0405,0.0675 0.055,0.12486 0.0955,0.0573 z" />
      <path
         style="fill:#1f2123;fill-opacity:1;stroke:none;stroke-width:0.702;stroke-linecap:round;stroke-miterlimit:4;stroke-dasharray:none;stroke-opacity:1;paint-order:markers stroke fill"
         id="path12333"
         d="m 874.97063,186.99879 c 0,-0.0278 -0.007,-0.0571 0.003,-0.0835 0.0828,-0.24625 0.19035,-0.42799 0.31089,-0.65842 0,-0.002 -0.003,-0.004 -0.003,-0.002 v 0 c -0.0622,0.11199 -0.12454,0.22398 -0.18682,0.33598 -0.0653,0.10145 -0.13541,0.20001 -0.196,0.30436 -0.0185,0.0319 -0.0271,0.0687 -0.0406,0.10312 0,0.08 0.11311,0.08 0.11311,0 z" />
      <path
         style="fill:#1f2123;fill-opacity:1;stroke:none;stroke-width:0.702;stroke-linecap:round;stroke-miterlimit:4;stroke-dasharray:none;stroke-opacity:1;paint-order:markers stroke fill"
         id="path12335"
         d="m 874.98878,187.51186 c 0.007,0.004 0.0167,0.005 0.0217,0.0119 0.0733,0.094 0.0652,0.12306 0.12412,0.24175 0.0394,0.0794 0.0836,0.15631 0.12533,0.23447 0.003,0.006 0.0106,0.003 0.008,-0.003 v 0 c -0.0968,-0.34499 -0.0335,-0.15518 -0.13544,-0.41548 -0.0161,-0.0413 -0.0238,-0.0866 -0.0472,-0.12429 -0.0161,-0.026 -0.0451,-0.0412 -0.0676,-0.0619 -0.0825,-0.0206 -0.11173,0.0961 -0.0292,0.11676 z" />
      <path
         style="fill:#1f2123;fill-opacity:1;stroke:none;stroke-width:0.702;stroke-linecap:round;stroke-miterlimit:4;stroke-dasharray:none;stroke-opacity:1;paint-order:markers stroke fill"
         id="path12337"
         d="m 874.88091,188.21853 c 0.0172,0.0186 0.0318,0.0397 0.0513,0.0557 0.10507,0.0863 0.17698,0.12858 0.3029,0.18271 0.0506,0.0217 0.10372,0.0368 0.15557,0.0552 0.0457,0.0122 0.0629,-0.0524 0.0172,-0.0646 v 0 c -0.0506,-0.0102 -0.10326,-0.013 -0.15171,-0.0308 -0.13107,-0.0481 -0.16973,-0.0857 -0.25035,-0.19161 -0.0138,-0.018 -0.0212,-0.0399 -0.0318,-0.0599 -0.0376,-0.0658 -0.13073,-0.0126 -0.0931,0.0532 z" />
      <path
         style="fill:#1f2123;fill-opacity:1;stroke:none;stroke-width:0.702;stroke-linecap:round;stroke-miterlimit:4;stroke-dasharray:none;stroke-opacity:1;paint-order:markers stroke fill"
         id="path12339"
         d="m 874.87715,188.94749 c 0.14449,0.11013 0.0565,0.0598 0.27509,0.12945 0.0281,0.0144 0.0485,-0.0253 0.0204,-0.0398 v 0 c -0.17777,-0.0981 -0.11139,-0.0394 -0.21434,-0.15731 -0.0478,-0.0574 -0.12898,0.0102 -0.0812,0.0676 z" />
      <path
         style="fill:#1f2123;fill-opacity:1;stroke:none;stroke-width:0.702;stroke-linecap:round;stroke-miterlimit:4;stroke-dasharray:none;stroke-opacity:1;paint-order:markers stroke fill"
         id="path12341"
         d="m 874.86035,189.73772 c 0.029,0.008 0.0556,-0.0119 0.0837,-0.0104 0.0241,0.001 0.0473,0.009 0.0709,0.0143 0.17256,0.0361 0.0903,0.0154 0.29001,0.0838 0.0318,0.0132 0.0504,-0.0317 0.0188,-0.0449 v 0 c -0.0556,-0.027 -0.11067,-0.0551 -0.16677,-0.081 -0.0594,-0.0275 -0.14409,-0.0673 -0.21285,-0.0784 -0.0276,-0.004 -0.0561,0.0123 -0.0837,5.3e-4 -0.0821,0 -0.0821,0.11613 0,0.11613 z" />
      <path
         style="fill:#1f2123;fill-opacity:1;stroke:none;stroke-width:0.702;stroke-linecap:round;stroke-miterlimit:4;stroke-dasharray:none;stroke-opacity:1;paint-order:markers stroke fill"
         id="path12343"
         d="m 874.74306,190.53475 c 0.0515,0.036 0.22238,0.15373 0.25318,0.18352 0.0342,0.0331 0.0562,0.0769 0.0843,0.1153 0.0275,0.0283 0.0674,-0.0106 0.04,-0.0389 v 0 c -0.0303,-0.0375 -0.0576,-0.0777 -0.091,-0.11259 -0.48175,-0.50316 0.12438,0.16605 -0.22963,-0.22862 -0.0574,-0.0402 -0.11433,0.041 -0.0569,0.0813 z" />
      <path
         style="fill:#1f2123;fill-opacity:1;stroke:none;stroke-width:0.702;stroke-linecap:round;stroke-miterlimit:4;stroke-dasharray:none;stroke-opacity:1;paint-order:markers stroke fill"
         id="path12345"
         d="m 874.66194,191.00909 c 0.14092,0.14647 0.0891,0.0871 0.23643,0.26848 0.0452,0.0556 0.0913,0.11059 0.13433,0.16792 0.0305,0.0407 0.0574,0.0839 0.0861,0.12586 0.0206,0.0292 0.062,2e-5 0.0413,-0.0292 v 0 c -0.0306,-0.0414 -0.0599,-0.0837 -0.0917,-0.12411 -0.0447,-0.0566 -0.0939,-0.10955 -0.13769,-0.16683 -0.0982,-0.1284 -0.11407,-0.1609 -0.18937,-0.28546 -0.0306,-0.0562 -0.11012,-0.0128 -0.0794,0.0434 z" />
      <path
         style="fill:#1f2123;fill-opacity:1;stroke:none;stroke-width:0.702;stroke-linecap:round;stroke-miterlimit:4;stroke-dasharray:none;stroke-opacity:1;paint-order:markers stroke fill"
         id="path12347"
         d="m 874.87506,191.67861 c 0.004,-0.0237 0.003,-0.0485 0.0119,-0.071 0.0373,-0.0984 0.10922,-0.20438 0.18208,-0.27662 0.0534,-0.053 0.11764,-0.0938 0.17645,-0.14066 0.0119,-0.009 -2.1e-4,-0.0254 -0.0122,-0.0168 v 0 c -0.0671,0.0418 -0.14052,0.0747 -0.20119,0.12527 -0.0529,0.0441 -0.0927,0.10212 -0.13586,0.15585 -0.0993,0.12363 -0.0814,0.10092 -0.13155,0.22392 0,0.078 0.11028,0.078 0.11028,0 z" />
      <path
         style="fill:#1f2123;fill-opacity:1;stroke:none;stroke-width:0.702;stroke-linecap:round;stroke-miterlimit:4;stroke-dasharray:none;stroke-opacity:1;paint-order:markers stroke fill"
         id="path12349"
         d="m 874.91832,191.57951 c 0.003,-0.0267 0,-0.0541 0.006,-0.0801 0.0281,-0.11374 0.0793,-0.19866 0.13184,-0.30414 0.0106,-0.0203 -0.018,-0.0353 -0.0287,-0.015 v 0 c -0.033,0.0514 -0.14972,0.22877 -0.18391,0.29543 -0.0148,0.0287 -0.0236,0.0601 -0.0355,0.0901 -0.01,0.0778 0.10039,0.0916 0.1101,0.0138 z" />
      <path
         style="fill:#1f2123;fill-opacity:1;stroke:none;stroke-width:0.702;stroke-linecap:round;stroke-miterlimit:4;stroke-dasharray:none;stroke-opacity:1;paint-order:markers stroke fill"
         id="path12351"
         d="m 875.02624,192.34117 c 0.0669,0.0326 0.14333,0.04 0.21082,0.0707 0.30229,0.13712 -0.0486,0.0129 0.21336,0.10005 0.0477,0.0194 0.0751,-0.0481 0.0274,-0.0674 v 0 c -0.0317,-0.0102 -0.0646,-0.0174 -0.0951,-0.0307 -0.0415,-0.0181 -0.08,-0.0422 -0.12012,-0.0631 -0.13671,-0.0713 -0.0751,-0.0437 -0.20304,-0.0928 -0.0589,-0.0236 -0.0922,0.0597 -0.0333,0.0833 z" />
      <path
         style="fill:#1f2123;fill-opacity:1;stroke:none;stroke-width:0.702;stroke-linecap:round;stroke-miterlimit:4;stroke-dasharray:none;stroke-opacity:1;paint-order:markers stroke fill"
         id="path12353"
         d="m 875.23844,192.8706 c 0.0671,0.06 0.0349,0.0256 0.0944,0.105 0.0389,0.0481 0.10699,-0.007 0.068,-0.0551 v 0 c -0.0594,-0.0816 -0.0371,-0.0413 -0.0714,-0.11817 -0.0483,-0.0643 -0.13928,0.004 -0.091,0.0683 z" />
      <path
         style="fill:#1f2123;fill-opacity:1;stroke:none;stroke-width:0.702;stroke-linecap:round;stroke-miterlimit:4;stroke-dasharray:none;stroke-opacity:1;paint-order:markers stroke fill"
         id="path12355"
         d="m 874.94359,186.23918 c 0.009,-0.0318 0.0153,-0.0647 0.0277,-0.0953 0.04,-0.0987 0.10744,-0.2191 0.1734,-0.30039 0.031,-0.0382 0.0711,-0.0678 0.10668,-0.10171 0.0148,-0.0164 -0.008,-0.0374 -0.0233,-0.021 v 0 c -0.0294,0.0397 -0.0588,0.0795 -0.0883,0.11922 -0.0383,0.0517 -0.0776,0.10279 -0.11504,0.15521 -0.0307,0.043 -0.0592,0.0874 -0.0891,0.13092 -0.0199,0.0288 -0.0401,0.0573 -0.0602,0.0859 -0.0193,0.0481 0.0488,0.0753 0.068,0.0272 z" />
      <path
         style="fill:#1f2123;fill-opacity:1;stroke:none;stroke-width:0.702;stroke-linecap:round;stroke-miterlimit:4;stroke-dasharray:none;stroke-opacity:1;paint-order:markers stroke fill"
         id="path12357"
         d="m 874.77304,185.98081 c 0.018,-0.0965 0.0114,-0.0902 0.0628,-0.19517 0.0217,-0.0444 0.0432,-0.0897 0.0726,-0.12945 0.0204,-0.0275 0.0502,-0.0467 0.0753,-0.0701 0.019,-0.0232 -0.0138,-0.0502 -0.0329,-0.0269 v 0 c -0.15263,0.21082 0.0437,-0.0669 -0.13618,0.21613 -0.0238,0.0375 -0.0543,0.0705 -0.0776,0.10834 -0.0138,0.0223 -0.022,0.0476 -0.0328,0.0714 -0.0183,0.0486 0.0505,0.0744 0.0687,0.0258 z" />
      <path
         style="fill:#1f2123;fill-opacity:1;stroke:none;stroke-width:0.702;stroke-linecap:round;stroke-miterlimit:4;stroke-dasharray:none;stroke-opacity:1;paint-order:markers stroke fill"
         id="path12359"
         d="m 875.0114,186.89483 c 0.009,-0.0137 0.0193,-0.0265 0.0269,-0.041 0.0124,-0.0244 0.0188,-0.0519 0.0327,-0.0755 0.0418,-0.0709 0.0949,-0.13382 0.16306,-0.18117 0.0306,-0.0213 0.0668,-0.0331 0.10015,-0.0497 0.0238,-0.0123 0.007,-0.0461 -0.0175,-0.0338 v 0 c -0.0343,0.0204 -0.0705,0.0378 -0.1029,0.061 -0.0363,0.0261 -0.0714,0.0544 -0.10261,0.0864 -0.0278,0.0285 -0.048,0.0636 -0.0736,0.0941 -0.0185,0.022 -0.0394,0.0418 -0.0585,0.0632 -0.007,0.008 -0.0132,0.0163 -0.0198,0.0245 -0.0368,0.0368 0.0153,0.0888 0.052,0.052 z" />
      <path
         style="fill:#1f2123;fill-opacity:1;stroke:none;stroke-width:0.702;stroke-linecap:round;stroke-miterlimit:4;stroke-dasharray:none;stroke-opacity:1;paint-order:markers stroke fill"
         id="path12361"
         d="m 875.36094,186.83106 c 0.0204,-0.0263 0.0408,-0.0527 0.0612,-0.0791 0.0238,-0.0249 -0.0114,-0.0583 -0.0352,-0.0335 v 0 c -0.0262,0.0223 -0.0521,0.0446 -0.0782,0.067 -0.0323,0.0368 0.0198,0.0825 0.0521,0.0456 z" />
      <path
         style="fill:#1f2123;fill-opacity:1;stroke:none;stroke-width:0.702;stroke-linecap:round;stroke-miterlimit:4;stroke-dasharray:none;stroke-opacity:1;paint-order:markers stroke fill"
         id="path12363"
         d="m 875.20404,187.2746 c 0.10324,-0.0129 0.0487,-0.008 0.16357,-0.0151 0.0337,-5.2e-4 0.033,-0.0482 0,-0.0477 v 0 c -0.11869,-0.008 -0.0614,-0.006 -0.17172,-0.008 -0.0504,0.006 -0.0415,0.0776 0.009,0.0713 z" />
      <path
         style="fill:#1f2123;fill-opacity:1;stroke:none;stroke-width:0.702;stroke-linecap:round;stroke-miterlimit:4;stroke-dasharray:none;stroke-opacity:1;paint-order:markers stroke fill"
         id="path12365"
         d="m 875.2177,187.46578 c 0.0551,0.0727 0.0605,0.0743 0.10945,0.17789 0.0177,0.0373 0.0299,0.0768 0.0448,0.11522 0.008,0.0191 0.0346,0.008 0.027,-0.0108 v 0 c -0.0135,-0.0395 -0.0266,-0.0791 -0.0403,-0.11849 -0.0523,-0.15149 -0.0284,-0.0956 -0.0761,-0.19623 -0.023,-0.0459 -0.0878,-0.0134 -0.0648,0.0324 z" />
      <path
         style="fill:#1f2123;fill-opacity:1;stroke:none;stroke-width:0.702;stroke-linecap:round;stroke-miterlimit:4;stroke-dasharray:none;stroke-opacity:1;paint-order:markers stroke fill"
         id="path12367"
         d="m 874.9906,188.49777 c 0.005,0.011 0.0106,0.0218 0.0151,0.0329 0.008,0.0187 0.014,0.038 0.0222,0.0565 0.0132,0.03 0.0315,0.058 0.0422,0.0891 0.0151,0.0442 0.0233,0.0905 0.0351,0.1358 0.003,0.0124 0.0206,0.008 0.0177,-0.004 v 0 c -0.0114,-0.0781 -0.0225,-0.16134 -0.0368,-0.23958 -0.004,-0.0201 -0.009,-0.0399 -0.0127,-0.0601 -0.003,-0.01 -0.003,-0.0202 -0.003,-0.0303 -0.014,-0.0563 -0.0936,-0.0364 -0.0796,0.0199 z" />
      <path
         style="fill:#1f2123;fill-opacity:1;stroke:none;stroke-width:0.702;stroke-linecap:round;stroke-miterlimit:4;stroke-dasharray:none;stroke-opacity:1;paint-order:markers stroke fill"
         id="path12369"
         d="m 875.04569,189.57762 c 0.008,-0.0211 0.0135,-0.0439 0.0251,-0.0634 0.0405,-0.0679 0.10398,-0.13198 0.17068,-0.17293 0.0315,-0.0193 0.069,-0.0264 0.10356,-0.0396 0.0198,-0.009 0.008,-0.0367 -0.0122,-0.0282 v 0 c -0.0353,0.0163 -0.0728,0.0285 -0.10584,0.0489 -0.0883,0.0544 -0.16216,0.12896 -0.23926,0.19726 -0.041,0.0409 0.0169,0.0988 0.0579,0.0579 z" />
      <path
         style="fill:#1f2123;fill-opacity:1;stroke:none;stroke-width:0.702;stroke-linecap:round;stroke-miterlimit:4;stroke-dasharray:none;stroke-opacity:1;paint-order:markers stroke fill"
         id="path12371"
         d="m 875.07575,189.57531 c 0.0733,-0.0569 0.11454,-0.0951 0.20833,-0.13208 0.0487,-0.0192 0.10144,-0.0259 0.15216,-0.0388 0.0109,-0.003 0.006,-0.0186 -0.005,-0.0153 v 0 c -0.0509,0.014 -0.10202,0.0273 -0.15274,0.0419 -0.16161,0.0465 -0.11597,0.0314 -0.24387,0.0831 -0.0433,0.0288 -0.003,0.09 0.0408,0.0611 z" />
      <path
         style="fill:#1f2123;fill-opacity:1;stroke:none;stroke-width:0.702;stroke-linecap:round;stroke-miterlimit:4;stroke-dasharray:none;stroke-opacity:1;paint-order:markers stroke fill"
         id="path12373"
         d="m 874.86784,189.73362 c 0.11004,0.0534 0.0384,0.0142 0.15967,0.0964 0.0321,0.0218 0.0648,0.0428 0.0971,0.0642 0.0201,0.0141 0.04,-0.0142 0.0198,-0.0283 v 0 c -0.0298,-0.0249 -0.0587,-0.051 -0.0895,-0.0748 -0.12515,-0.0968 -0.0526,-0.021 -0.13602,-0.11902 -0.0435,-0.0362 -0.0947,0.0252 -0.0512,0.0615 z" />
      <path
         style="fill:#1f2123;fill-opacity:1;stroke:none;stroke-width:0.702;stroke-linecap:round;stroke-miterlimit:4;stroke-dasharray:none;stroke-opacity:1;paint-order:markers stroke fill"
         id="path12375"
         d="m 874.72655,190.47953 c 0.0124,-0.0201 0.0198,-0.0445 0.0375,-0.0602 0.21749,-0.19424 0.30912,-0.21865 0.58783,-0.36984 0.003,-0.001 0,-0.004 -0.003,-0.003 v 0 c -0.14975,0.078 -0.46712,0.23721 -0.62653,0.33968 -0.0233,0.015 -0.0406,0.038 -0.0608,0.0571 -0.0257,0.045 0.0379,0.0813 0.0636,0.0363 z" />
      <path
         style="fill:#1f2123;fill-opacity:1;stroke:none;stroke-width:0.702;stroke-linecap:round;stroke-miterlimit:4;stroke-dasharray:none;stroke-opacity:1;paint-order:markers stroke fill"
         id="path12377"
         d="m 874.78695,190.46105 c 0.0495,-0.13232 0.004,-0.0203 0.0844,-0.17775 0.0957,-0.18651 0.0119,-0.0448 0.10898,-0.20108 0.0151,-0.0252 -0.0204,-0.0466 -0.0356,-0.0215 v 0 c -0.0544,0.10209 -0.10631,0.20669 -0.17132,0.30263 -0.0122,0.018 -0.0272,0.0341 -0.0408,0.0511 -0.0329,0.0384 0.0214,0.0849 0.0543,0.0465 z" />
      <path
         style="fill:#1f2123;fill-opacity:1;stroke:none;stroke-width:0.702;stroke-linecap:round;stroke-miterlimit:4;stroke-dasharray:none;stroke-opacity:1;paint-order:markers stroke fill"
         id="path12379"
         d="m 874.72007,190.28793 c 0.0175,-0.0251 0.0821,-0.11839 0.0882,-0.12504 0.0359,-0.0389 0.0746,-0.0756 0.11689,-0.10742 0.0454,-0.0342 0.0967,-0.0598 0.14507,-0.0898 0.004,-0.002 0,-0.008 -0.003,-0.005 v 0 c -0.0503,0.028 -0.10236,0.0531 -0.15097,0.084 -0.0886,0.0563 -0.1665,0.12805 -0.25508,0.18439 -0.0419,0.0419 0.0175,0.10122 0.0593,0.0593 z" />
      <path
         style="fill:#1f2123;fill-opacity:1;stroke:none;stroke-width:0.702;stroke-linecap:round;stroke-miterlimit:4;stroke-dasharray:none;stroke-opacity:1;paint-order:markers stroke fill"
         id="path12381"
         d="m 874.64093,190.57444 c 0.0193,0.0209 0.0402,0.0403 0.0578,0.0626 0.1025,0.12937 0.0387,0.0858 0.18137,0.21191 0.0452,0.0399 0.30769,0.23693 0.33896,0.26061 0.004,0.003 0.009,-0.003 0.004,-0.006 v 0 c -0.0642,-0.0463 -0.13147,-0.0887 -0.19267,-0.13897 -0.10623,-0.0872 -0.15126,-0.14441 -0.22754,-0.25293 -0.0225,-0.0319 -0.0449,-0.064 -0.063,-0.0985 -0.0111,-0.0209 -0.0159,-0.0445 -0.0238,-0.0668 -0.0201,-0.0533 -0.0954,-0.0251 -0.0754,0.0283 z" />
      <path
         style="fill:#1f2123;fill-opacity:1;stroke:none;stroke-width:0.702;stroke-linecap:round;stroke-miterlimit:4;stroke-dasharray:none;stroke-opacity:1;paint-order:markers stroke fill"
         id="path12383"
         d="m 874.90541,191.65239 c 0.0812,-0.0256 0.21743,-0.0697 0.2857,-0.0819 0.11967,-0.0214 0.24116,-0.0306 0.36173,-0.0459 0.004,-5.3e-4 0.003,-0.007 0,-0.006 v 0 c -0.78036,0.11664 -0.0402,0.0265 -0.56692,0.0499 -0.0344,0.002 -0.0679,0.0118 -0.10186,0.0177 -0.0469,0.0156 -0.0249,0.082 0.0222,0.0663 z" />
      <path
         style="fill:#1f2123;fill-opacity:1;stroke:none;stroke-width:0.702;stroke-linecap:round;stroke-miterlimit:4;stroke-dasharray:none;stroke-opacity:1;paint-order:markers stroke fill"
         id="path12385"
         d="m 874.88911,191.65687 c 0.0185,0.003 0.0373,0.006 0.0558,0.009 0.36605,0.0649 -0.20214,-0.0324 0.28977,0.051 0.006,0.002 0.008,-0.007 0.003,-0.008 v 0 c -0.23615,-0.0844 -0.0872,-0.0259 -0.27173,-0.10787 -0.0185,-0.008 -0.0375,-0.0157 -0.0562,-0.0236 -0.0563,-0.0141 -0.0763,0.0656 -0.0198,0.0797 z" />
      <path
         style="fill:#1f2123;fill-opacity:1;stroke:none;stroke-width:0.702;stroke-linecap:round;stroke-miterlimit:4;stroke-dasharray:none;stroke-opacity:1;paint-order:markers stroke fill"
         id="path12387"
         d="m 874.86739,192.24835 c 0.0214,-0.008 0.0426,-0.0174 0.0645,-0.0243 0.038,-0.012 0.0768,-0.0217 0.11525,-0.0325 0.0621,-0.0175 0.1242,-0.0354 0.18653,-0.0522 0.091,-0.0246 0.1823,-0.0479 0.27337,-0.0721 0.0798,-0.0212 0.15949,-0.0426 0.23924,-0.064 0.008,-0.002 0.005,-0.0138 -0.003,-0.0115 v 0 c -0.0692,0.0199 -0.45437,0.13168 -0.51025,0.14396 -0.17581,0.0386 -0.1607,0.0214 -0.31186,0.0266 -0.018,5.2e-4 -0.0357,0.004 -0.0536,0.006 -0.0569,0 -0.0569,0.0805 0,0.0805 z" />
      <path
         style="fill:#1f2123;fill-opacity:1;stroke:none;stroke-width:0.702;stroke-linecap:round;stroke-miterlimit:4;stroke-dasharray:none;stroke-opacity:1;paint-order:markers stroke fill"
         id="path12389"
         d="m 875.03326,192.37551 c 0.35626,0.20317 -0.24914,-0.1401 0.28151,0.15088 0.0768,0.0421 0.1519,0.0872 0.22783,0.13072 0.003,0.002 0.005,-0.002 0.003,-0.004 v 0 c -0.0774,-0.0411 -0.15907,-0.0751 -0.23222,-0.12336 -0.0334,-0.0221 -0.18463,-0.16074 -0.23384,-0.20543 -0.0363,-0.0323 -0.082,0.0191 -0.0457,0.0514 z" />
      <path
         style="fill:#1f2123;fill-opacity:1;stroke:none;stroke-width:0.702;stroke-linecap:round;stroke-miterlimit:4;stroke-dasharray:none;stroke-opacity:1;paint-order:markers stroke fill"
         id="path12391"
         d="m 874.99232,192.55321 c 0.008,0.0218 0.0193,0.0426 0.023,0.0654 0.019,0.11421 0,0.16146 0.006,0.28258 0.003,0.0544 0.0124,0.1082 0.0204,0.16211 0.018,0.12541 0.0143,0.10381 0.0383,0.19569 0.0183,0.0369 0.0706,0.011 0.0523,-0.0259 v 0 c -0.0725,-0.0663 -0.0516,-0.0311 -0.071,-0.17123 -0.0267,-0.19313 -0.0103,-0.1283 0,-0.32199 0.0122,-0.24105 -0.0106,-0.0274 0.01,-0.1964 -0.007,-0.0554 -0.0852,-0.0456 -0.0783,0.01 z" />
      <path
         style="fill:#1f2123;fill-opacity:1;stroke:none;stroke-width:0.702;stroke-linecap:round;stroke-miterlimit:4;stroke-dasharray:none;stroke-opacity:1;paint-order:markers stroke fill"
         id="path12393"
         d="m 874.89207,193.17705 c -0.003,0.0254 -0.003,0.0508 -0.006,0.0762 -0.004,0.0378 -0.008,0.0755 -0.0122,0.11324 -0.0132,0.11089 -0.0182,0.17047 -0.0478,0.2791 -0.008,0.0279 -0.0198,0.0542 -0.0299,0.0814 -0.007,0.0292 0.0342,0.0394 0.0414,0.0102 v 0 c 0.0137,-0.10215 0.013,-0.11188 0.0411,-0.22833 0.0109,-0.045 0.0259,-0.0889 0.0373,-0.13376 0.009,-0.0355 0.0137,-0.072 0.0243,-0.10707 0.008,-0.0267 0.0206,-0.0518 0.0308,-0.0777 0.009,-0.0558 -0.0696,-0.069 -0.0789,-0.0132 z" />
    </g>
  </g>
</svg>
