<?xml version="1.0" encoding="UTF-8" standalone="no"?>
<svg
   xmlns:dc="http://purl.org/dc/elements/1.1/"
   xmlns:cc="http://creativecommons.org/ns#"
   xmlns:rdf="http://www.w3.org/1999/02/22-rdf-syntax-ns#"
   xmlns:svg="http://www.w3.org/2000/svg"
   xmlns="http://www.w3.org/2000/svg"
   xmlns:sodipodi="http://sodipodi.sourceforge.net/DTD/sodipodi-0.dtd"
   xmlns:inkscape="http://www.inkscape.org/namespaces/inkscape"
   inkscape:export-ydpi="96"
   inkscape:export-xdpi="96"
   inkscape:export-filename="D:\Calcatz\Icon Pack\Adventure Narative Inspired by Arrival\GUI\Settings\png\dropdown_item - background_detail_3.png"
   sodipodi:docname="dropdown_item - background_detail_3.svg"
   inkscape:version="1.0 (4035a4fb49, 2020-05-01)"
   id="svg5349"
   version="1.1"
   viewBox="0 0 13.32838 1.8872889"
   height="1.8872889mm"
   width="13.32838mm">
  <defs
     id="defs5343" />
  <sodipodi:namedview
     inkscape:window-maximized="1"
     inkscape:window-y="-8"
     inkscape:window-x="-8"
     inkscape:window-height="705"
     inkscape:window-width="1366"
     fit-margin-bottom="0"
     fit-margin-right="0"
     fit-margin-left="0"
     fit-margin-top="0"
     showgrid="false"
     inkscape:document-rotation="0"
     inkscape:current-layer="layer1"
     inkscape:document-units="mm"
     inkscape:cy="4.5247061"
     inkscape:cx="26.059104"
     inkscape:zoom="15.186322"
     inkscape:pageshadow="2"
     inkscape:pageopacity="0.0"
     borderopacity="1.0"
     bordercolor="#666666"
     pagecolor="#ffffff"
     id="base" />
  <metadata
     id="metadata5346">
    <rdf:RDF>
      <cc:Work
         rdf:about="">
        <dc:format>image/svg+xml</dc:format>
        <dc:type
           rdf:resource="http://purl.org/dc/dcmitype/StillImage" />
        <dc:title></dc:title>
      </cc:Work>
    </rdf:RDF>
  </metadata>
  <g
     transform="translate(-99.16914,-147.22302)"
     id="layer1"
     inkscape:groupmode="layer"
     inkscape:label="Layer 1">
    <g
       style="fill:#1f2123;fill-opacity:1"
       transform="translate(-753.65658,-66.986328)"
       id="g12449">
      <path
         style="fill:#1f2123;fill-opacity:1;stroke:none;stroke-width:0.264583px;stroke-linecap:butt;stroke-linejoin:miter;stroke-opacity:1"
         d="m 852.82572,214.54005 c 0,0 1.58277,0.59567 2.41432,0.69454 0.50405,0.0599 1.01453,-0.0382 1.52136,-0.0661 0.99289,-0.0547 1.98404,-0.25937 2.97656,-0.19844 0.52656,0.0323 1.02692,0.28993 1.55442,0.29766 0.69227,0.0101 1.36658,-0.22327 2.05053,-0.33073 0.93647,-0.14713 2.81119,-0.42995 2.81119,-0.42995 l -1.5875,-0.26458 -11.04635,-0.0331 z"
         id="path12397"
         sodipodi:nodetypes="cssssscccc" />
      <path
         style="fill:#1f2123;fill-opacity:1;stroke:none;stroke-width:0.702;stroke-linecap:round;stroke-miterlimit:4;stroke-dasharray:none;stroke-opacity:1;paint-order:markers stroke fill"
         id="path12399"
         d="m 854.82181,214.97179 c 0.0844,0.17164 0.0596,0.13152 0.1746,0.31341 0.0373,0.0589 0.0824,0.11312 0.11478,0.17486 0.0635,0.12098 0.0623,0.15158 0.0821,0.26563 0.0604,0.14176 0.2609,0.0563 0.20047,-0.0855 v 0 c -0.14954,-0.13967 -0.0312,-0.008 -0.15393,-0.24787 -0.0327,-0.064 -0.0769,-0.12154 -0.11055,-0.18504 -0.0868,-0.16395 -0.0773,-0.16291 -0.1211,-0.32873 -0.0659,-0.13181 -0.2523,-0.0386 -0.1864,0.0932 z" />
      <path
         style="fill:#1f2123;fill-opacity:1;stroke:none;stroke-width:0.702;stroke-linecap:round;stroke-miterlimit:4;stroke-dasharray:none;stroke-opacity:1;paint-order:markers stroke fill"
         id="path12401"
         d="m 854.97641,215.173 c 0.098,0.1548 -0.0299,-0.0305 0.10721,0.11228 0.022,0.0229 0.0321,0.0557 0.0548,0.0777 0.0864,0.0837 0.23027,0.13825 0.32713,0.18962 0.071,0.0377 0.14065,0.078 0.21098,0.11696 0.0883,0.0497 0.15864,-0.0752 0.0703,-0.12489 v 0 c -0.067,-0.0359 -0.13886,-0.0639 -0.20098,-0.10769 -0.0177,-0.0125 -0.19328,-0.16919 -0.24249,-0.22505 -0.0206,-0.0235 -0.0364,-0.0513 -0.0576,-0.0743 -0.0428,-0.0463 -0.0983,-0.0798 -0.13621,-0.13116 -0.11771,-0.0942 -0.2509,0.0723 -0.13319,0.16648 z" />
      <path
         style="fill:#1f2123;fill-opacity:1;stroke:none;stroke-width:0.702;stroke-linecap:round;stroke-miterlimit:4;stroke-dasharray:none;stroke-opacity:1;paint-order:markers stroke fill"
         id="path12403"
         d="m 862.33468,214.83111 c -0.0716,0.12269 -0.15509,0.2379 -0.22989,0.35859 -0.0646,0.10417 -0.12052,0.2137 -0.18839,0.31576 -0.10104,0.15196 -0.23201,0.31202 -0.34795,0.45739 -0.06,0.1064 0.0905,0.19123 0.1505,0.0848 v 0 c 0.0782,-0.18083 0.13594,-0.33025 0.25299,-0.50053 0.0689,-0.10029 0.15129,-0.19112 0.23545,-0.27902 0.0921,-0.0962 0.20699,-0.16862 0.29782,-0.26651 0.12054,-0.12057 -0.0499,-0.29107 -0.17053,-0.17051 z" />
      <path
         style="fill:#1f2123;fill-opacity:1;stroke:none;stroke-width:0.702;stroke-linecap:round;stroke-miterlimit:4;stroke-dasharray:none;stroke-opacity:1;paint-order:markers stroke fill"
         id="path12405"
         d="m 862.18453,214.95819 c -0.0881,0.0885 -0.29339,0.29633 -0.35507,0.34797 -0.0861,0.0721 -0.18211,0.13133 -0.27315,0.197 -0.0585,0.0443 0.004,0.1271 0.0627,0.0828 v 0 c 0.0879,-0.07 0.16899,-0.14952 0.26374,-0.2099 0.60439,-0.38513 0.0973,0.02 0.43056,-0.25685 0.11385,-0.0911 -0.0151,-0.25206 -0.12878,-0.16099 z" />
      <path
         style="fill:#1f2123;fill-opacity:1;stroke:none;stroke-width:0.702;stroke-linecap:round;stroke-miterlimit:4;stroke-dasharray:none;stroke-opacity:1;paint-order:markers stroke fill"
         id="path12407"
         d="m 862.18369,214.946 c -0.003,0.0552 -0.006,0.11043 -0.01,0.16562 -0.005,0.0755 -0.0103,0.15097 -0.0156,0.22645 -0.007,0.10258 -0.0243,0.36471 -0.0342,0.47336 -0.004,0.0402 -0.009,0.0803 -0.0138,0.12042 0.007,0.0837 0.12552,0.0737 0.1184,-0.0101 v 0 c -0.0377,-0.18157 -0.0238,-0.0696 -0.0127,-0.32647 0.003,-0.0826 0,-0.16593 0.01,-0.24794 0.0124,-0.0936 0.0716,-0.28876 0.0999,-0.38713 0.01,-0.10069 -0.13235,-0.11494 -0.1424,-0.0142 z" />
      <path
         style="fill:#1f2123;fill-opacity:1;stroke:none;stroke-width:0.702;stroke-linecap:round;stroke-miterlimit:4;stroke-dasharray:none;stroke-opacity:1;paint-order:markers stroke fill"
         id="path12409"
         d="m 863.35219,214.88477 c -0.12642,0.3067 -0.0445,0.16608 -0.24339,0.42319 -0.0257,0.0374 0.0273,0.0737 0.053,0.0363 v 0 c 0.20195,-0.2563 0.10199,-0.12661 0.29985,-0.38913 0.0497,-0.0774 -0.0597,-0.14772 -0.10941,-0.0703 z" />
      <path
         style="fill:#1f2123;fill-opacity:1;stroke:none;stroke-width:0.702;stroke-linecap:round;stroke-miterlimit:4;stroke-dasharray:none;stroke-opacity:1;paint-order:markers stroke fill"
         id="path12411"
         d="m 860.21799,214.93626 c -0.16097,0.26298 -0.085,0.15421 -0.29088,0.41976 -0.1855,0.23927 -0.10882,0.15487 -0.27101,0.31525 -0.043,0.0542 0.0336,0.115 0.0766,0.0608 v 0 c 0.0188,-0.0473 0.0275,-0.10012 0.0565,-0.14202 0.0507,-0.0734 0.11795,-0.13387 0.17923,-0.19868 0.33551,-0.35486 0.0679,-0.0454 0.34152,-0.37152 0.0591,-0.065 -0.0329,-0.14861 -0.092,-0.0836 z" />
      <path
         style="fill:#1f2123;fill-opacity:1;stroke:none;stroke-width:0.702;stroke-linecap:round;stroke-miterlimit:4;stroke-dasharray:none;stroke-opacity:1;paint-order:markers stroke fill"
         id="path12413"
         d="m 860.05122,214.974 c -0.41433,0.25875 -0.16737,0.11847 -0.7543,0.39629 0,1.7e-4 -1.8e-4,7.9e-4 2.4e-4,5.3e-4 v 0 c 0.6078,-0.24159 0.33473,-0.1497 0.81275,-0.29422 0.0726,-0.0415 0.014,-0.14416 -0.0587,-0.10267 z" />
      <path
         style="fill:#1f2123;fill-opacity:1;stroke:none;stroke-width:0.702;stroke-linecap:round;stroke-miterlimit:4;stroke-dasharray:none;stroke-opacity:1;paint-order:markers stroke fill"
         id="path12415"
         d="m 858.31442,214.79739 c -0.0384,0.0337 -0.081,0.0631 -0.1152,0.10102 -0.0572,0.0632 -0.0966,0.14204 -0.15798,0.20116 -0.0802,0.0772 -0.17328,0.14005 -0.26384,0.20482 -0.15764,0.11272 -0.31335,0.20941 -0.4844,0.29783 -0.0279,0.0144 -0.0579,0.0244 -0.0868,0.0367 -0.0713,0.0752 0.0351,0.176 0.10636,0.10079 v 0 c 0.01,-0.0228 0.0127,-0.0496 0.0288,-0.0683 0.15208,-0.1756 0.24675,-0.21029 0.45265,-0.34379 0.0948,-0.0615 0.18936,-0.12358 0.28403,-0.18537 0.0695,-0.05 0.13735,-0.10224 0.20841,-0.14991 0.0311,-0.0209 0.0652,-0.037 0.0977,-0.0554 0.0987,-0.0493 0.0289,-0.18886 -0.0698,-0.13953 z" />
      <path
         style="fill:#1f2123;fill-opacity:1;stroke:none;stroke-width:0.702;stroke-linecap:round;stroke-miterlimit:4;stroke-dasharray:none;stroke-opacity:1;paint-order:markers stroke fill"
         id="path12417"
         d="m 857.83031,214.88849 c -0.13499,0.14071 -0.16274,0.1826 -0.34708,0.30182 -0.0655,0.0423 -0.13875,0.0713 -0.20812,0.10693 -0.0408,0.0235 -0.007,0.0812 0.0333,0.0577 v 0 c 0.0657,-0.0436 0.12835,-0.0924 0.19722,-0.13092 0.0839,-0.0469 0.17341,-0.0832 0.26011,-0.12473 0.0543,-0.032 0.10861,-0.0641 0.1629,-0.0961 0.0811,-0.0695 -0.0172,-0.18418 -0.0983,-0.11468 z" />
      <path
         style="fill:#1f2123;fill-opacity:1;stroke:none;stroke-width:0.702;stroke-linecap:round;stroke-miterlimit:4;stroke-dasharray:none;stroke-opacity:1;paint-order:markers stroke fill"
         id="path12419"
         d="m 854.80869,215.00188 c 0.008,0.0325 0.0222,0.064 0.0238,0.0974 0.006,0.11525 -0.0214,0.23001 -0.0569,0.33829 -0.0204,0.0621 -0.0421,0.12434 -0.0724,0.18227 -0.0188,0.0357 -0.0488,0.0641 -0.0732,0.0961 -0.0454,0.0764 0.0627,0.14064 0.10808,0.0642 v 0 c 0.16741,-0.45885 -0.12017,0.33194 0.11367,-0.32319 0.0236,-0.0658 0.0553,-0.12885 0.0728,-0.19645 0.022,-0.0843 0.0119,-0.17459 0.037,-0.25861 0,-0.10809 -0.15284,-0.10809 -0.15284,0 z" />
      <path
         style="fill:#1f2123;fill-opacity:1;stroke:none;stroke-width:0.702;stroke-linecap:round;stroke-miterlimit:4;stroke-dasharray:none;stroke-opacity:1;paint-order:markers stroke fill"
         id="path12421"
         d="m 855.08187,215.2465 c 0.0445,0.017 0.0872,0.0403 0.13364,0.051 0.0852,0.0196 0.17267,0.0271 0.25922,0.0392 0.14517,0.0204 0.2908,0.0372 0.43587,0.0582 0.1443,0.0209 0.28813,0.0451 0.4322,0.0676 0.0143,0.002 0.0169,-0.0182 0.003,-0.0201 v 0 c -0.33734,-0.0445 -0.5285,-0.0547 -0.8546,-0.15779 -0.0765,-0.0242 -0.14753,-0.0636 -0.21818,-0.10168 -0.0321,-0.0173 -0.0594,-0.0425 -0.0891,-0.0638 -0.09,-0.072 -0.19188,0.0553 -0.10184,0.12732 z" />
      <path
         style="fill:#1f2123;fill-opacity:1;stroke:none;stroke-width:0.702;stroke-linecap:round;stroke-miterlimit:4;stroke-dasharray:none;stroke-opacity:1;paint-order:markers stroke fill"
         id="path12423"
         d="m 853.71911,214.78599 c 0.059,0.15581 0.10869,0.27717 0.13944,0.45714 0.019,0.11078 0.013,0.22439 0.0196,0.33658 0.003,0.0294 0.0448,0.0249 0.0417,-0.005 v 0 c -0.0159,-0.11122 -0.0438,-0.22137 -0.0478,-0.33365 -0.0212,-0.58784 0.0738,-0.19835 -0.0161,-0.51412 -0.0414,-0.0967 -0.17811,-0.0381 -0.13668,0.0586 z" />
      <path
         style="fill:#1f2123;fill-opacity:1;stroke:none;stroke-width:0.702;stroke-linecap:round;stroke-miterlimit:4;stroke-dasharray:none;stroke-opacity:1;paint-order:markers stroke fill"
         id="path12425"
         d="m 853.72305,214.85227 c 0.0135,0.026 0.0246,0.0532 0.0402,0.0779 0.0273,0.0434 0.0591,0.0838 0.0884,0.1259 0.14332,0.20527 0.0977,0.13901 0.22653,0.33151 0.0377,0.0533 0.11303,-1.2e-4 0.0753,-0.0534 v 0 c -0.0409,-0.0438 -0.0884,-0.0823 -0.12269,-0.1315 -0.0853,-0.12242 -0.13375,-0.26339 -0.16579,-0.40723 -0.0402,-0.10038 -0.18211,-0.0436 -0.14195,0.0568 z" />
      <path
         style="fill:#1f2123;fill-opacity:1;stroke:none;stroke-width:0.702;stroke-linecap:round;stroke-miterlimit:4;stroke-dasharray:none;stroke-opacity:1;paint-order:markers stroke fill"
         id="path12427"
         d="m 858.16054,214.96995 c -0.023,0.0433 -0.0525,0.0837 -0.0691,0.12982 -0.0428,0.11892 -0.0507,0.2519 -0.0652,0.37562 -0.007,0.0631 0.0819,0.0734 0.0892,0.0103 v 0 c 0.007,-0.0574 0.006,-0.11635 0.0209,-0.17213 0.0314,-0.11564 0.0817,-0.17283 0.14695,-0.26692 0.0542,-0.0868 -0.0685,-0.16355 -0.12279,-0.0767 z" />
      <path
         style="fill:#1f2123;fill-opacity:1;stroke:none;stroke-width:0.702;stroke-linecap:round;stroke-miterlimit:4;stroke-dasharray:none;stroke-opacity:1;paint-order:markers stroke fill"
         id="path12429"
         d="m 860.23553,215.15582 c 0.0114,0.0649 0.0303,0.129 0.0341,0.19481 0.007,0.12439 -0.0159,0.30891 -0.0287,0.43609 0,0.0643 0.0909,0.0643 0.0909,0 v 0 c 0,-0.065 -0.005,-0.12999 -0.003,-0.19488 0.0433,-0.90991 0.01,0.32531 0.0276,-0.43602 0,-0.086 -0.12161,-0.086 -0.12161,0 z" />
      <path
         style="fill:#1f2123;fill-opacity:1;stroke:none;stroke-width:0.702;stroke-linecap:round;stroke-miterlimit:4;stroke-dasharray:none;stroke-opacity:1;paint-order:markers stroke fill"
         id="path12431"
         d="m 860.17627,215.04959 c 0,0.17218 0.006,0.20123 -0.019,0.39168 -0.008,0.0637 -0.0241,0.12631 -0.0359,0.18946 -0.008,0.0603 0.0776,0.0709 0.0852,0.0107 v 0 c 0.004,-0.0637 0,-0.12832 0.0114,-0.19125 0.0249,-0.14395 0.0625,-0.22859 0.11154,-0.3568 0.031,-0.10836 -0.12229,-0.15215 -0.15324,-0.0438 z" />
      <path
         style="fill:#1f2123;fill-opacity:1;stroke:none;stroke-width:0.702;stroke-linecap:round;stroke-miterlimit:4;stroke-dasharray:none;stroke-opacity:1;paint-order:markers stroke fill"
         id="path12433"
         d="m 862.31394,215.04243 c 0.0319,0.1426 0.0275,0.0901 0.0279,0.257 1.3e-4,0.056 -0.006,0.11207 -0.003,0.16801 0.003,0.0586 0.0138,0.11658 0.0209,0.17486 0.003,0.0352 0.0528,0.031 0.0498,-0.004 v 0 c -0.008,-0.15543 -0.0103,-0.18371 -0.0138,-0.33862 0,-0.0496 -0.007,-0.0994 -0.003,-0.14877 0.004,-0.037 0.0182,-0.0722 0.0275,-0.10824 0,-0.0758 -0.10721,-0.0758 -0.10721,0 z" />
      <path
         style="fill:#1f2123;fill-opacity:1;stroke:none;stroke-width:0.702;stroke-linecap:round;stroke-miterlimit:4;stroke-dasharray:none;stroke-opacity:1;paint-order:markers stroke fill"
         id="path12435"
         d="m 863.35055,214.86567 c -0.0855,0.13106 -0.093,0.15132 -0.21225,0.28415 -0.0532,0.0593 -0.10641,0.11932 -0.16748,0.17047 -0.0367,0.0308 -0.0824,0.0489 -0.12366,0.0734 -0.0435,0.0382 0.0106,0.0998 0.0541,0.0616 v 0 c 0.0233,-0.0448 0.0359,-0.0972 0.07,-0.13454 0.0542,-0.0595 0.12761,-0.0982 0.18928,-0.14995 0.0889,-0.0745 0.18383,-0.16471 0.26998,-0.24517 0.0424,-0.0565 -0.0375,-0.11646 -0.0799,-0.0599 z" />
      <path
         style="fill:#1f2123;fill-opacity:1;stroke:none;stroke-width:0.702;stroke-linecap:round;stroke-miterlimit:4;stroke-dasharray:none;stroke-opacity:1;paint-order:markers stroke fill"
         id="path12437"
         d="m 858.97852,214.81097 c -0.14009,0.16365 -0.3144,0.29214 -0.48265,0.42463 -0.0148,0.0105 1.6e-4,0.0314 0.0148,0.0208 v 0 c 0.0566,-0.045 0.11133,-0.0925 0.16997,-0.13485 0.11739,-0.0848 0.24421,-0.15594 0.35964,-0.24362 0.0474,-0.0437 -0.0145,-0.11073 -0.0619,-0.067 z" />
      <path
         style="fill:#1f2123;fill-opacity:1;stroke:none;stroke-width:0.702;stroke-linecap:round;stroke-miterlimit:4;stroke-dasharray:none;stroke-opacity:1;paint-order:markers stroke fill"
         id="path12439"
         d="m 857.02376,215.03034 c -0.0766,0.19033 -0.20715,0.3348 -0.34507,0.48302 -0.17442,0.18747 -0.10525,0.13361 -0.2761,0.2327 -0.0359,0.0303 0.007,0.0811 0.0429,0.0508 v 0 c 0.0955,-0.11472 0.12451,-0.1536 0.24463,-0.27339 0.0581,-0.0579 0.12388,-0.1079 0.18008,-0.16763 0.0823,-0.0875 0.14282,-0.19402 0.23262,-0.27515 0.0356,-0.0559 -0.0435,-0.10624 -0.0791,-0.0503 z" />
      <path
         style="fill:#1f2123;fill-opacity:1;stroke:none;stroke-width:0.702;stroke-linecap:round;stroke-miterlimit:4;stroke-dasharray:none;stroke-opacity:1;paint-order:markers stroke fill"
         id="path12441"
         d="m 854.86833,214.97954 c -0.019,0.0252 -0.0393,0.0498 -0.0575,0.0757 -0.0318,0.0453 -0.0596,0.0934 -0.0925,0.13799 -0.16676,0.22599 -0.1924,0.24826 -0.36697,0.44975 0,8e-4 0,0.002 0,8e-4 v 0 c 0.23923,-0.2714 0.11768,-0.14511 0.40319,-0.41596 0.0374,-0.0354 0.0726,-0.0733 0.11256,-0.10585 0.0233,-0.0189 0.0507,-0.0318 0.076,-0.0478 0.067,-0.0536 -0.009,-0.14835 -0.0758,-0.0948 z" />
      <path
         style="fill:#1f2123;fill-opacity:1;stroke:none;stroke-width:0.702;stroke-linecap:round;stroke-miterlimit:4;stroke-dasharray:none;stroke-opacity:1;paint-order:markers stroke fill"
         id="path12443"
         d="m 854.91355,215.3269 c 0.014,0.11761 0.008,0.0523 0.0167,0.19597 0,0.0446 0.063,0.0446 0.063,0 v 0 c 0.0209,-0.14375 0.009,-0.0785 0.033,-0.19597 0,-0.0797 -0.11276,-0.0797 -0.11276,0 z" />
      <path
         style="fill:#1f2123;fill-opacity:1;stroke:none;stroke-width:0.702;stroke-linecap:round;stroke-miterlimit:4;stroke-dasharray:none;stroke-opacity:1;paint-order:markers stroke fill"
         id="path12445"
         d="m 856.00715,215.16482 c 0.0209,0.0265 0.0421,0.053 0.0632,0.0795 0.0344,0.0475 0.0668,0.0965 0.10322,0.14251 0.0462,0.0584 0.0989,0.11156 0.14427,0.17062 0.0314,0.0409 0.0571,0.0859 0.0857,0.12881 0.0251,0.0283 0.0651,-0.007 0.04,-0.0356 v 0 c -0.037,-0.0347 -0.0798,-0.0641 -0.11105,-0.10406 -0.10112,-0.1292 -0.16094,-0.28255 -0.23487,-0.42703 -0.032,-0.064 -0.12242,-0.0187 -0.0904,0.0452 z" />
      <path
         style="fill:#1f2123;fill-opacity:1;stroke:none;stroke-width:0.702;stroke-linecap:round;stroke-miterlimit:4;stroke-dasharray:none;stroke-opacity:1;paint-order:markers stroke fill"
         id="path12447"
         d="m 859.14532,214.72656 c -0.003,0.0446 -0.003,0.0894 -0.007,0.13391 -0.006,0.0682 -0.0188,0.13573 -0.0214,0.20406 -0.003,0.0802 0.003,0.16047 0.003,0.2407 0,0.0598 -0.003,0.11946 -0.005,0.17919 0,0.0328 0.0476,0.0311 0.0463,-0.002 v 0 c -0.008,-0.0589 -0.0251,-0.11729 -0.0251,-0.17683 0,-0.12001 0.032,-0.31068 0.0686,-0.42888 0.0111,-0.0361 0.0313,-0.0687 0.047,-0.10306 0.0335,-0.0755 -0.0732,-0.1229 -0.10673,-0.0474 z" />
    </g>
  </g>
</svg>
