<?xml version="1.0" encoding="UTF-8" standalone="no"?>
<svg
   xmlns:dc="http://purl.org/dc/elements/1.1/"
   xmlns:cc="http://creativecommons.org/ns#"
   xmlns:rdf="http://www.w3.org/1999/02/22-rdf-syntax-ns#"
   xmlns:svg="http://www.w3.org/2000/svg"
   xmlns="http://www.w3.org/2000/svg"
   xmlns:sodipodi="http://sodipodi.sourceforge.net/DTD/sodipodi-0.dtd"
   xmlns:inkscape="http://www.inkscape.org/namespaces/inkscape"
   inkscape:export-ydpi="96"
   inkscape:export-xdpi="96"
   inkscape:export-filename="D:\Calcatz\Icon Pack\Adventure Narative Inspired by Arrival\GUI\Settings\png\dropdown_item_highlight - background_detail_2.png"
   sodipodi:docname="dropdown_item_highlight - background_detail_2.svg"
   inkscape:version="1.0 (4035a4fb49, 2020-05-01)"
   id="svg8402"
   version="1.1"
   viewBox="0 0 7.4404001 1.3315734"
   height="1.3315734mm"
   width="7.4404001mm">
  <defs
     id="defs8396" />
  <sodipodi:namedview
     inkscape:window-maximized="1"
     inkscape:window-y="-8"
     inkscape:window-x="-8"
     inkscape:window-height="705"
     inkscape:window-width="1366"
     fit-margin-bottom="0"
     fit-margin-right="0"
     fit-margin-left="0"
     fit-margin-top="0"
     showgrid="false"
     inkscape:document-rotation="0"
     inkscape:current-layer="layer1"
     inkscape:document-units="mm"
     inkscape:cy="6.8933639"
     inkscape:cx="15.225713"
     inkscape:zoom="10.738351"
     inkscape:pageshadow="2"
     inkscape:pageopacity="0.0"
     borderopacity="1.0"
     bordercolor="#666666"
     pagecolor="#ffffff"
     id="base" />
  <metadata
     id="metadata8399">
    <rdf:RDF>
      <cc:Work
         rdf:about="">
        <dc:format>image/svg+xml</dc:format>
        <dc:type
           rdf:resource="http://purl.org/dc/dcmitype/StillImage" />
        <dc:title></dc:title>
      </cc:Work>
    </rdf:RDF>
  </metadata>
  <g
     transform="translate(122.77634,-22.199301)"
     id="layer1"
     inkscape:groupmode="layer"
     inkscape:label="Layer 1">
    <path
       id="path3774"
       style="fill:#e5e5e5;fill-opacity:0.2;stroke:none;stroke-width:0.264583px;stroke-linecap:butt;stroke-linejoin:miter;stroke-opacity:1"
       d="m -121.56894,22.201834 c -0.01,0.003 -0.021,0.0108 -0.027,0.0243 -0.029,0.0467 -0.063,0.0902 -0.086,0.14004 -0.025,0.0549 -0.035,0.11557 -0.056,0.17209 -0.053,0.14245 -0.057,0.14258 -0.057,0.13745 0,0.004 -0.01,0.008 -0.01,0.0114 0,-0.005 -0.01,-0.009 -0.013,-0.014 -0.012,-0.0163 -0.022,-0.0347 -0.034,-0.0512 -0.037,-0.0497 -0.06,-0.0721 -0.1028,-0.11885 -0.038,-0.0317 -0.083,0.0226 -0.045,0.0542 0.02,0.0136 0.043,0.0238 0.06,0.0408 0.016,0.0153 0.025,0.036 0.036,0.0543 0.019,0.029 0.037,0.0595 0.055,0.0894 -0.043,0.0428 -0.095,0.0794 -0.1287,0.0899 -0.3526,0.10795 -0.7989,0.35142 -0.7989,0.35142 l 1.2062,0.26509 3.4726,0.0827 2.7616,-0.29766 c 0,0 -0.5156,-0.20246 -0.9751,-0.3266 -0.043,-0.0117 -0.1086,-0.055 -0.1628,-0.10488 0.01,-0.008 0.013,-0.0163 0.019,-0.0243 0.091,-0.11356 0.073,-0.0899 0.1835,-0.21034 0.01,-0.004 10e-5,-0.011 -0.01,-0.007 -0.066,0.0537 -0.1567,0.12432 -0.2191,0.18602 -0.01,0.007 -0.01,0.01 -0.013,0.016 -0.022,-0.0255 -0.04,-0.0511 -0.048,-0.0744 -0.01,-0.005 0,0.0518 0,0.10078 -6.1e-4,-5.79e-4 0,-9.79e-4 0,-0.002 -0.01,-0.0231 -0.014,-0.046 -0.012,-0.0697 0,-0.0462 0.02,-0.0925 0.044,-0.13229 0.025,-0.0412 0.065,-0.0698 0.098,-0.1049 0.044,-0.0523 -0.03,-0.11486 -0.074,-0.0625 -0.038,0.0457 -0.083,0.0861 -0.1132,0.13695 -0.01,0.0124 -0.01,0.0224 -0.015,0.0341 -4e-4,-0.0111 -1e-4,-0.008 0,-0.0248 0,-0.0393 -0.01,-0.0782 -0.01,-0.11732 0,-0.03 0.016,-0.0584 0.025,-0.0873 0,-0.0412 -0.055,-0.0454 -0.058,-0.005 0.022,0.18802 0.01,-0.0146 -0.01,0.20929 -0.01,0.1052 -9e-4,0.10808 0,0.10491 -0.023,-0.0241 -0.047,-0.046 -0.07,-0.076 -0.045,-0.0581 -0.081,-0.12333 -0.1204,-0.18503 -0.061,-0.0889 -0.1874,-0.002 -0.1261,0.0868 0.026,0.0371 0.052,0.0741 0.078,0.1111 -0.042,-0.0157 -0.084,-0.0305 -0.125,-0.0476 -0.095,-0.0392 -0.1882,-0.0832 -0.2822,-0.12454 -0.066,-0.029 -0.1071,0.0645 -0.041,0.0935 0.087,0.0504 0.1729,0.10044 0.2594,0.15089 0.076,0.0443 0.085,0.0492 0.1147,0.0657 0.036,0.0654 -0.067,0.0725 -0.089,0.0744 -0.081,0.007 -0.1613,0.018 -0.2423,0.031 -0.047,0.008 -0.1122,-0.009 -0.1592,-0.062 -9e-4,-2.7e-4 1e-4,0.007 -5e-4,0.008 -0.034,-0.0712 -0.053,-0.12369 -0.06,-0.20619 0,-0.0263 3.9e-4,-0.0528 0.01,-0.0791 0,-0.0334 -0.049,-0.031 -0.047,0.002 0.01,0.0274 0.01,0.0548 0.014,0.0822 0.014,0.0965 0.013,0.14234 0.048,0.23407 0.01,0.0153 0.015,0.0292 0.023,0.0434 -0.018,-0.0127 -0.031,-0.0219 -0.099,-0.0651 -0.056,-0.0352 -0.1124,-0.0701 -0.1685,-0.10491 -0.062,-0.0387 -0.1163,0.0492 -0.055,0.0878 0.039,0.027 0.078,0.0541 0.1178,0.0811 0.011,0.0327 -0.025,0.0485 -0.068,0.0558 -0.1826,0.03 -0.3638,0.0476 -0.5416,0.0346 -0.013,-0.0115 -0.028,-0.021 -0.036,-0.0351 -0.045,-0.07 -0.072,-0.16235 -0.099,-0.23876 -0.052,-0.1496 -0.048,-0.0869 -0.041,-0.19638 -0.01,-0.0413 -0.068,-0.0268 -0.058,0.0145 0.01,0.0196 0.02,0.0387 0.027,0.0589 0.01,0.0283 0.078,0.24937 0.086,0.2744 0.011,0.0377 0.018,0.077 0.032,0.11369 -0.055,-0.008 -0.10969,-0.0173 -0.16379,-0.0331 -0.084,-0.0244 -0.1767,-0.0622 -0.2806,-0.0935 -0.045,-0.0135 -0.1142,-0.035 -0.064,-0.11369 0,0 5e-4,-5.29e-4 5e-4,-5.29e-4 0.016,-0.0216 0.03,-0.0438 0.049,-0.0631 0.066,-0.0692 0.1844,-0.15542 0.2687,-0.19222 0.036,-0.0159 0.078,-0.0155 0.1163,-0.0233 0.029,-0.0102 0.014,-0.051 -0.015,-0.0408 -0.035,0.0199 -0.069,0.0412 -0.1039,0.0599 -0.056,0.0296 -0.1179,0.05 -0.171,0.0848 -0.041,0.0269 -0.073,0.066 -0.1091,0.0987 -0.033,0.0295 -0.066,0.0583 -0.099,0.0878 0,-0.0185 -0.01,-0.0337 -0.01,-0.0832 -1e-4,-0.0336 0,-0.0676 0,-0.10078 0.011,-0.0613 0.033,-0.12022 0.05,-0.18034 -0.029,0.0589 -0.063,0.11531 -0.086,0.17674 -0.012,0.0331 -0.013,0.0695 -0.017,0.10438 0,0.0175 0,0.0391 0,0.0599 -0.031,-0.0697 -0.055,-0.14126 -0.048,-0.22376 0,-0.029 0.029,-0.0512 0.043,-0.0765 0.01,-0.15373 -0.2105,-0.16349 -0.2176,-0.01 0,0.0364 2.9e-4,0.0728 0.01,0.10904 0,0.0362 0.012,0.072 0.018,0.108 -0.01,-0.009 -0.016,-0.0168 -0.024,-0.0259 -0.023,-0.0285 -0.042,-0.0598 -0.064,-0.0894 -0.057,-0.077 -0.055,-0.072 -0.1163,-0.14261 -0.021,-0.0255 -0.057,0.005 -0.036,0.0305 0.057,0.0561 0.075,0.0693 0.124,0.13488 0.022,0.0291 0.041,0.0601 0.061,0.0904 0.019,0.0282 0.039,0.0557 0.055,0.0852 0.01,0.012 0.011,0.0276 0.017,0.0419 -0.1458,-0.0572 -0.3252,-0.128 -0.3886,-0.15089 -0.1203,-0.0434 -0.242,-0.0825 -0.3633,-0.12351 0.1173,0.0487 0.2369,0.092 0.3509,0.1478 0.083,0.0406 0.1542,0.0824 0.2243,0.12557 0.03,0.0504 0,0.0569 -0.057,0.0625 -0.3232,0.0299 -0.5978,0.051 -0.8847,0.0677 0.018,-0.0382 0.037,-0.0765 0.056,-0.11473 0.035,-0.073 0.071,-0.14599 0.1059,-0.2191 0.021,-0.0439 0.021,-0.0465 0.029,-0.0672 -0.012,0.0194 -0.015,0.023 -0.037,0.0636 -0.079,0.14938 -0.1217,0.21762 -0.2135,0.34054 -0.1471,0.008 -0.2906,0.0163 -0.4651,0.0207 0.01,-0.0129 0.02,-0.026 0.032,-0.0377 0.025,-0.0255 0.051,-0.0509 0.08,-0.0729 0.069,-0.0532 0.155,-0.10451 0.2367,-0.13489 0.023,-0.009 0.2422,-0.0646 0.2702,-0.0718 0.016,-0.005 0.01,-0.0268 -0.01,-0.0222 -0.043,0.0127 -0.087,0.0253 -0.1302,0.0377 -0.047,0.0133 -0.095,0.0228 -0.1406,0.0393 -0.086,0.0311 -0.171,0.0798 -0.2506,0.12454 -0.019,0.0111 -0.039,0.0225 -0.058,0.0336 0.013,-0.0182 0.047,-0.0632 0.1002,-0.13073 0.016,-0.003 -7e-4,-3e-5 0.016,-0.003 v -0.002 c 0,6.59e-4 -0.01,0.002 -0.014,0.003 0.01,-0.007 0,-0.005 0.01,-0.0129 0.045,-0.0573 0.097,-0.10919 0.1457,-0.1638 v -0.003 c -0.049,0.0547 -0.097,0.10887 -0.1457,0.1638 -0.01,0.007 -0.01,0.0102 -0.015,0.0165 -0.1931,0.0357 -0.4992,0.0934 -0.7162,0.12144 -0.01,-0.014 -0.01,-0.0301 0.012,-0.0496 0.1029,-0.0556 0.2586,-0.12658 0.3416,-0.1638 0.095,-0.0411 0.037,-0.17547 -0.058,-0.13436 -0.055,0.0342 -0.1074,0.0719 -0.1638,0.10282 -0.093,0.0509 -0.1883,0.0975 -0.2837,0.14367 0.01,-0.009 0.01,-0.0191 0.016,-0.0284 0.04,-0.0675 0.075,-0.12459 0.1333,-0.17984 0.03,-0.0287 0.064,-0.0539 0.099,-0.076 0.023,-0.0145 0.05,-0.0221 0.075,-0.0331 0.029,-0.0162 0.01,-0.058 -0.023,-0.0419 -0.056,0.0366 -0.1313,0.0832 -0.1783,0.12764 -0.031,0.0292 -0.054,0.0656 -0.082,0.0971 -0.023,0.0261 -0.05,0.049 -0.073,0.076 0,0.003 -0.01,0.007 -0.01,0.0109 0.014,-0.0748 0.028,-0.14938 0.055,-0.22066 0.018,-0.0478 0.048,-0.0902 0.072,-0.13539 0.02,-0.0405 -0.017,-0.072 -0.049,-0.0625 z m 1.42,0.25786 c 0.018,-0.0283 0.037,-0.0647 0.039,-0.078 -0.01,0.01 -0.028,0.0504 -0.039,0.078 z m 0.039,-0.078 c 0.01,-0.0124 0.014,-0.0188 0.05,-0.0517 0.015,-0.047 -0.052,-0.0677 -0.066,-0.0207 0.014,0.0422 0.018,0.0576 0.016,0.0724 z m 0.1374,0.0754 c 0,-0.002 -0.01,-0.003 -0.013,-0.005 v 0.001 c 0,0.001 0.01,0.003 0.013,0.004 z m -0.7673,0.19328 c -0.062,0.0712 -0.107,0.12464 -0.1711,0.18759 -0.01,0.008 -0.014,0.0145 -0.022,0.0217 0,0 0,5.21e-4 0,5.21e-4 -0.01,0.006 -0.016,0.012 -0.024,0.0181 0,3.89e-4 0,0.002 0,0.003 -0.1314,-0.006 -0.2627,-0.0324 -0.3933,-0.0594 -0.02,-0.004 -0.049,-0.0156 -0.072,-0.0284 0.5426,-0.1228 -0.064,-0.005 0.6868,-0.14264 z" />
  </g>
</svg>
