<?xml version="1.0" encoding="UTF-8" standalone="no"?>
<svg
   xmlns:dc="http://purl.org/dc/elements/1.1/"
   xmlns:cc="http://creativecommons.org/ns#"
   xmlns:rdf="http://www.w3.org/1999/02/22-rdf-syntax-ns#"
   xmlns:svg="http://www.w3.org/2000/svg"
   xmlns="http://www.w3.org/2000/svg"
   xmlns:sodipodi="http://sodipodi.sourceforge.net/DTD/sodipodi-0.dtd"
   xmlns:inkscape="http://www.inkscape.org/namespaces/inkscape"
   inkscape:export-ydpi="96"
   inkscape:export-xdpi="96"
   inkscape:export-filename="D:\Calcatz\Icon Pack\Adventure Narative Inspired by Arrival\GUI\Settings\png\dropdown.png"
   sodipodi:docname="dropdown.svg"
   inkscape:version="1.0 (4035a4fb49, 2020-05-01)"
   id="svg3020"
   version="1.1"
   viewBox="0 0 40.92091 10.802875"
   height="10.802875mm"
   width="40.92091mm">
  <defs
     id="defs3014" />
  <sodipodi:namedview
     inkscape:window-maximized="1"
     inkscape:window-y="-8"
     inkscape:window-x="-8"
     inkscape:window-height="705"
     inkscape:window-width="1366"
     fit-margin-bottom="0"
     fit-margin-right="0"
     fit-margin-left="0"
     fit-margin-top="0"
     showgrid="false"
     inkscape:document-rotation="0"
     inkscape:current-layer="layer1"
     inkscape:document-units="mm"
     inkscape:cy="15.471594"
     inkscape:cx="111.49739"
     inkscape:zoom="2.6845878"
     inkscape:pageshadow="2"
     inkscape:pageopacity="0.0"
     borderopacity="1.0"
     bordercolor="#666666"
     pagecolor="#ffffff"
     id="base" />
  <metadata
     id="metadata3017">
    <rdf:RDF>
      <cc:Work
         rdf:about="">
        <dc:format>image/svg+xml</dc:format>
        <dc:type
           rdf:resource="http://purl.org/dc/dcmitype/StillImage" />
        <dc:title></dc:title>
      </cc:Work>
    </rdf:RDF>
  </metadata>
  <g
     transform="translate(-97.806939,-149.92347)"
     id="layer1"
     inkscape:groupmode="layer"
     inkscape:label="Layer 1">
    <path
       id="rect13104"
       style="fill:#cccccc;fill-opacity:1;stroke:none;stroke-width:0.329999;stroke-linecap:round;stroke-miterlimit:4;stroke-dasharray:none;stroke-opacity:1;paint-order:markers stroke fill"
       d="m 110.02134,149.92347 c -0.0325,8e-5 -0.0672,0.0135 -0.0977,0.046 -0.13361,0.1415 -0.0615,0.0557 -0.13901,0.22685 v -0.003 -0.0755 c 0,-0.019 -0.01,-0.0375 -0.0119,-0.0563 -0.0249,-0.0832 -0.14221,-0.0486 -0.11782,0.0346 0.032,0.0592 0.0198,0.0251 0.0259,0.10385 0,0.0326 0.003,0.0617 0.005,0.0904 -0.01,0.0328 -0.0296,0.0559 -0.0537,0.076 -0.0441,-0.0423 -0.0855,-0.0881 -0.13076,-0.12816 -0.14787,-0.11642 -0.0837,-0.0619 -0.19378,-0.16071 -0.062,-0.0391 -0.11768,0.0481 -0.0553,0.0873 0.0251,0.013 0.053,0.0238 0.077,0.0393 0.088,0.0559 0.16463,0.11626 0.23511,0.19378 0.003,0.003 0.004,0.006 0.007,0.009 -0.0634,0.0257 -0.1397,0.0332 -0.2005,0.0357 -0.12417,0.005 -0.24759,0.0148 -0.37102,0.0254 -0.28694,-0.10197 -0.19336,-0.0698 -0.50697,-0.17209 0.21413,0.10925 0.26863,0.13764 0.35245,0.18603 -0.39312,0.0386 -0.7842,0.0945 -1.17824,0.14055 -0.10816,0.0127 -0.20257,0.0146 -0.17518,-0.0542 0.11811,-0.10512 0.24569,-0.19809 0.39481,-0.25839 0.035,-0.0143 0.0752,-0.0156 0.11216,-0.0233 0.061,-0.0225 0.029,-0.10787 -0.032,-0.0852 -0.036,0.0182 -0.0741,0.0344 -0.10904,0.0548 -0.065,0.0374 -0.12626,0.0797 -0.18965,0.11886 -0.066,0.0409 -0.13187,0.0827 -0.19897,0.12194 -0.004,0.003 -0.009,0.005 -0.013,0.007 0.0299,-0.0543 0.0469,-0.079 0.13798,-0.21963 0.12369,-0.19095 0.0281,-0.0546 0.12247,-0.18656 0.0111,-0.0109 0.0209,-0.0209 0.031,-0.0315 0.029,-0.0892 -0.0969,-0.1306 -0.12608,-0.0414 v 0.0169 c -0.0241,0.0721 -0.0432,0.14015 -0.0822,0.20723 -0.033,0.0566 -0.0759,0.10752 -0.11369,0.16123 -0.035,0.0502 -0.0732,0.0986 -0.10541,0.1509 -0.004,0.007 -0.008,0.0156 -0.0119,0.0233 -0.004,0.003 -0.007,0.004 -0.0108,0.006 0.0303,-0.10625 0.0639,-0.20539 0.11576,-0.30384 0.014,-0.0268 0.0347,-0.0495 0.0517,-0.0744 0.038,-0.0713 -0.0629,-0.12502 -0.10078,-0.0537 -0.0101,0.0338 -0.0101,0.0685 -0.018,0.10128 -0.0169,0.0531 -0.04,0.10393 -0.062,0.15502 -0.0228,0.0532 -0.0463,0.10639 -0.0729,0.15815 -0.0554,-0.0979 -0.1,-0.20193 -0.14986,-0.30232 -0.033,-0.0666 -0.069,-0.132 -0.10334,-0.19791 -0.013,-0.0291 -0.0548,-0.0101 -0.0408,0.019 0.093,0.19029 0.11764,0.22673 0.18913,0.43461 0.006,0.0185 0.0108,0.0378 0.0161,0.0569 -0.007,0.019 -0.0172,0.0361 -0.0336,0.0491 -0.0457,-0.0322 -0.10654,-0.0766 -0.11369,-0.0806 -0.0549,-0.0307 -0.20873,-0.1007 -0.35914,-0.16793 0.0677,-0.0485 0.13769,-0.098 0.19328,-0.13695 0.0251,-0.0183 -1.6e-4,-0.0538 -0.0259,-0.0357 -0.0583,0.0561 -0.11489,0.1152 -0.17622,0.16846 -0.10583,-0.0472 -0.21645,-0.0958 -0.25889,-0.11472 v 0.004 c 0.081,0.0375 0.16735,0.0764 0.2527,0.11679 -0.0764,0.0652 -0.1561,0.12578 -0.23513,0.18759 -0.0214,-0.0119 -0.0433,-0.023 -0.0646,-0.0352 0.0191,0.013 0.0354,0.0294 0.0532,0.044 -0.0151,0.0119 -0.03,0.0238 -0.045,0.0356 -0.0315,0.0254 -0.0625,0.051 -0.0941,0.076 -0.63521,-0.0153 -1.27172,-0.0733 -1.90685,-0.0847 0.15592,-0.0357 0.31218,-0.0703 0.46871,-0.10335 -0.10346,0.0148 -0.20799,0.0228 -0.31213,0.032 -0.24141,0.0212 -0.24765,0.0201 -0.39481,0.0161 0.0768,-0.0563 0.15356,-0.1134 0.23979,-0.15295 0.11948,-0.0549 0.25207,-0.0744 0.37825,-0.11163 0.065,-0.0222 0.034,-0.11422 -0.032,-0.092 -0.32329,0.11182 -0.43285,0.1433 -0.74464,0.27699 -0.0365,0.0156 -0.0718,0.0331 -0.1075,0.0501 0.0299,-0.0281 0.0468,-0.0397 0.18502,-0.14727 0.0607,-0.047 0.11901,-0.0969 0.18034,-0.14264 -0.0711,0.0322 -0.14528,0.0585 -0.21653,0.0904 -0.0858,0.0385 -0.11893,0.0597 -0.16018,0.0817 0.0375,-0.0462 0.0831,-0.0872 0.12298,-0.13179 0.075,-0.13182 -0.11115,-0.23831 -0.18656,-0.10644 -0.0555,0.14867 -0.093,0.24238 -0.14364,0.34467 -0.014,-0.0151 -0.018,-0.0249 -0.0584,-0.0646 -0.041,-0.0403 -0.0802,-0.0832 -0.12611,-0.11835 -0.044,-0.0338 -0.0941,-0.0587 -0.1416,-0.0878 -0.039,-0.0296 -0.0809,0.0257 -0.0419,0.0553 0.10441,0.0673 0.16889,0.095 0.24289,0.19998 0.006,0.008 0.009,0.019 0.0135,0.0284 0.0196,0.0879 -0.0424,0.10557 -0.0997,0.10594 -0.0801,0 -0.16405,-0.007 -0.24908,-0.0295 -0.005,-0.004 -0.007,-0.008 -0.0119,-0.0124 -0.054,-0.0487 -0.11401,-0.0911 -0.1669,-0.14111 -0.043,-0.0409 -0.081,-0.0875 -0.12144,-0.13123 -0.039,-0.0342 -0.0871,0.0206 -0.0481,0.0548 0.047,0.0356 0.0989,0.065 0.13954,0.10697 0.0276,0.0287 0.0492,0.0628 0.0723,0.0956 -0.0238,-0.009 -0.0332,-0.014 -0.0734,-0.0284 -0.049,-0.0175 -0.0983,-0.0362 -0.14779,-0.0506 -0.035,-0.0101 -0.0717,-0.0156 -0.1075,-0.0233 -0.078,0 -0.08,0.10851 0,0.11007 0.03,-0.006 0.0589,-0.022 0.0889,-0.0169 0.048,0.007 0.0922,0.0335 0.13642,0.0537 0.004,0.003 0.004,0.003 0.008,0.004 0.0305,0.0536 -0.01,0.069 -0.0853,0.0791 -0.10626,0.014 -0.21799,0.0326 -0.32764,0.0486 h -3.350705 c -0.732895,0 -1.322916,0.59002 -1.322916,1.32292 v 6.40427 c 0,0.73289 0.590021,1.32291 1.322916,1.32291 h 18.482735 c 1.23711,0.15317 2.72709,0.32724 3.85403,0.4036 -0.0831,0.0785 -0.17918,0.13224 -0.29507,0.17311 -0.03,0.0106 -0.0631,0.0119 -0.0951,0.018 -0.065,0.0188 -0.0376,0.11068 0.0274,0.092 0.033,-0.0159 0.0636,-0.0335 0.0966,-0.047 0.057,-0.023 0.12039,-0.0333 0.17468,-0.0631 0.053,-0.0291 0.0949,-0.075 0.14264,-0.11162 0.0515,-0.0391 0.0586,-0.0426 0.0734,-0.0527 0.0201,0 0.0441,0.003 0.0635,0.004 -0.0127,0.0288 0.0614,-0.053 -0.0584,0.12041 -0.0111,0.0156 -0.0278,0.0262 -0.0419,0.0393 -0.1,0.17846 0.15248,0.31951 0.2522,0.14108 0,-0.11052 -0.01,-0.0515 0.0563,-0.17 0.0169,-0.0309 0.0332,-0.0619 0.0506,-0.0925 0,0.008 -0.003,0.0159 -0.003,0.0238 0,0.0124 -0.01,0.23977 -0.01,0.2775 -0.003,0.004 -0.007,0.006 -0.009,0.0103 0.003,0 0.004,0.003 0.006,0.003 -0.005,0.018 -0.0193,0.0385 -0.007,0.048 0.034,0.0238 0.0812,0.0159 0.12197,0.0238 0.0254,-0.0416 0.009,-0.0801 -0.0196,-0.0992 -0.006,-0.0329 -0.008,-0.0666 -0.008,-0.0997 v -0.15703 c 0.003,-0.0249 0.006,-0.0405 0.008,-0.0605 0.27816,-0.0103 0.55369,-0.0653 0.82891,-0.1297 -0.005,0.018 -0.007,0.0297 -0.0201,0.0713 -0.0161,0.0514 -0.0292,0.10383 -0.0522,0.15246 -0.0251,0.0531 -0.06,0.10054 -0.0909,0.15089 -0.014,0.0254 0.0222,0.0457 0.0362,0.0201 0.1722,-0.27567 0.0299,-0.0303 0.16021,-0.30697 0.0426,-0.0904 0.0523,-0.0995 0.0584,-0.10851 0.12158,-0.0289 0.2435,-0.0554 0.36534,-0.0817 0.007,0.0439 0.0172,0.0875 0.0164,0.13176 0,0.0992 -0.0532,0.22128 -0.0821,0.30904 -0.01,0.019 0.0193,0.0309 0.0274,0.0119 0.032,-0.0605 0.0716,-0.11727 0.0966,-0.18137 0.0169,-0.0442 0.0183,-0.0928 0.0254,-0.13955 0.004,-0.0222 0.003,-0.0313 0.005,-0.0465 0.022,0.0298 0.0437,0.0596 0.0656,0.0894 0.0444,0.0605 0.0406,0.0524 0.0692,0.0889 -0.0446,-0.0684 -0.0925,-0.15068 -0.13023,-0.22066 0,-0.007 0.003,-0.018 0.003,-0.0249 0.003,0.003 0,0 0.003,0.003 0.038,0.0336 0.0679,0.0761 0.10594,0.10957 0.068,0.0591 0.15147,0.10972 0.22738,0.15864 0.041,0.0269 0.0787,-0.0305 0.0377,-0.0574 -0.035,-0.0154 -0.073,-0.0251 -0.10544,-0.0465 -0.043,-0.0288 -0.0777,-0.0678 -0.11575,-0.10232 -0.037,-0.033 -0.0761,-0.0634 -0.10904,-0.10025 -0.003,-0.004 -0.005,-0.008 -0.008,-0.0119 0.19077,-0.0369 0.38246,-0.0643 0.57566,-0.0666 0.26008,-0.003 0.51834,0.01 0.77618,0.03 0.0225,0.009 0.0443,0.0201 0.0667,0.0294 0.058,0.0773 0.11388,0.15603 0.16743,0.23617 0.058,0.0864 0.10779,0.17841 0.16949,0.26199 0.061,0.082 0.13129,0.15605 0.1969,0.2341 0,0.006 0.0138,0 0.01,-0.007 -0.066,-0.0774 -0.13851,-0.14922 -0.1974,-0.23201 -0.0116,-0.0167 -0.2277,-0.3846 -0.26459,-0.4563 0.12322,0.0549 0.24641,0.10978 0.36846,0.16743 -0.0467,-0.0233 -0.0941,-0.0462 -0.13644,-0.0708 -0.0734,-0.0423 -0.13793,-0.0972 -0.20669,-0.14624 0.46095,0.0417 0.92056,0.0998 1.38183,0.13229 0.0175,0.0644 0.0275,0.12965 0.0169,0.19016 -0.0241,0.13909 -0.0768,0.19719 -0.14933,0.30954 -0.0259,0.0355 0.0241,0.0717 0.0501,0.0362 0.08,-0.13515 0.12248,-0.18725 0.16227,-0.34573 0.0228,-0.0906 0.0183,-0.13502 0.008,-0.185 0.009,0 0.0175,0 0.0265,0 0.0228,0.0265 0.0469,0.0524 0.0641,0.0827 0.23702,0.41738 -0.11578,-0.0673 0.15142,0.3085 0.1097,0.15436 0.0832,0.0529 0.10078,0.18915 0.098,0.14889 0.30851,0.0103 0.21032,-0.13851 -0.0201,-0.0167 -0.044,-0.0298 -0.06,-0.0501 -0.029,-0.0366 -0.0489,-0.0801 -0.0749,-0.11938 -0.027,-0.0416 -0.0552,-0.0827 -0.0832,-0.1235 -0.013,-0.0185 -0.0251,-0.0359 -0.0383,-0.0537 0.0198,0.013 0.0148,0.0109 0.0563,0.0367 0.061,0.038 0.12348,0.0729 0.18397,0.1116 0.1253,0.0802 0.19171,0.1425 0.32969,0.19844 0.041,0.0167 0.087,0.0222 0.12973,0.0331 0.16208,0.0214 0.19246,-0.20791 0.0299,-0.22945 -0.1355,0.0368 -0.0658,0.0369 -0.23927,-0.0413 -0.054,-0.0246 -0.11284,-0.0429 -0.16174,-0.0775 -0.0456,-0.0321 -0.0838,-0.073 -0.12297,-0.11266 0.0731,5e-5 0.14626,0.003 0.2196,0 0.22818,-0.008 0.45225,-0.0271 0.67543,-0.0501 0.12785,0.11393 0.26339,0.16044 0.42582,0.21188 0.15759,0.0499 0.31083,0.0927 0.47593,0.1111 0.082,0.009 0.16452,0.007 0.24702,0.0103 0.047,0.005 0.0533,-0.0606 0.0103,-0.0656 -0.15248,-0.0172 -0.32769,-0.0331 -0.478,-0.0661 -0.075,-0.0167 -0.15155,-0.0339 -0.22323,-0.0625 -0.062,-0.0246 -0.11694,-0.0618 -0.17364,-0.0961 -0.0329,-0.0196 -0.0647,-0.0408 -0.0946,-0.0641 0.16975,-0.0196 0.34139,-0.0384 0.51107,-0.0605 0.003,0.019 0.0138,0.0379 0.0362,0.0522 v 0 c 0.069,0.0241 0.13782,0.0474 0.20671,0.0713 0.097,0.0405 0.19151,0.0853 0.28991,0.12144 0.21569,0.0793 0.27159,0.0958 0.29609,0.10078 0.0294,0.0185 0.056,0.0374 0.0904,0.0553 0.009,0.005 0.0204,0.006 0.03,0.009 -0.008,-0.006 -0.0161,-0.0116 -0.0249,-0.0169 -0.0325,-0.0204 -0.0454,-0.0265 -0.0729,-0.0429 0.007,-0.003 -0.019,-0.0122 0.20101,0.0883 0.04,0.0114 0.056,-0.0454 0.0161,-0.0568 -0.15269,-0.0334 -0.21831,-0.0491 -0.293,-0.0755 -0.0114,-0.007 -0.0243,-0.0145 -0.0352,-0.0206 0.005,0.004 0.009,0.008 0.014,0.0119 -0.0508,-0.0188 -0.0945,-0.0357 -0.20619,-0.0853 -0.094,-0.0416 -0.18902,-0.0819 -0.27493,-0.13798 -0.0403,-0.0265 -0.0745,-0.0606 -0.10851,-0.0951 0.0357,-0.005 0.0717,-0.009 0.10748,-0.0135 0.0209,0.0206 0.0415,0.0463 0.0579,0.0584 0.17433,0.12943 0.28011,0.18754 0.41029,0.26149 -0.12187,-0.0942 -0.20945,-0.20093 -0.32192,-0.33745 0.12954,-0.0161 0.25678,-0.0345 0.38806,-0.048 0.21561,-0.0222 0.4377,-0.0114 0.66252,0.0114 0.003,0.0277 0.003,0.0557 -0.003,0.0832 -0.0159,0.1464 -0.0651,0.36658 -0.12504,0.50335 -0.0169,0.0388 -0.0489,0.0688 -0.0739,0.10334 -0.019,0.0433 0.042,0.0707 0.061,0.0274 0.0101,-0.0422 0.0138,-0.0851 0.0249,-0.1266 0.0169,-0.0595 0.14642,-0.44405 0.1638,-0.49713 0.009,-0.0288 0.0185,-0.0579 0.0279,-0.0868 0,1.3e-4 0.003,-1.1e-4 0.003,0 0.003,0.01 0.0124,0.0225 0.0465,0.13385 0.018,0.0586 0.0289,0.11843 0.0439,0.17777 0.0151,0.0737 0.1198,0.0519 0.10441,-0.0217 -0.0151,-0.0597 -0.034,-0.11819 -0.045,-0.17878 -0.006,-0.0367 -0.009,-0.0651 -0.009,-0.093 0.005,0 0.01,0.003 0.0146,0.003 0.051,0.0436 0.25736,0.20658 0.308,0.24754 -0.0138,0.0409 -0.0307,0.081 -0.0506,0.12764 -0.0259,0.0618 -0.0473,0.12713 -0.0853,0.18293 -0.0259,0.0382 -0.0671,0.0628 -0.10076,0.0941 -0.052,0.0654 0.041,0.13824 0.092,0.0729 0.189,-0.27845 -0.0268,0.0563 0.17053,-0.31938 0.0161,-0.0304 0.0362,-0.0585 0.0558,-0.0868 0.0419,0.038 0.0836,0.0763 0.12607,0.11369 0.045,0.04 0.0919,0.0786 0.13798,0.11782 0.055,0.0407 0.11208,-0.0363 0.0579,-0.077 -0.053,-0.0281 -0.10935,-0.0506 -0.15864,-0.0848 -0.0484,-0.0338 -0.0925,-0.0742 -0.13695,-0.11369 0.008,-0.014 0.0185,-0.0269 0.0254,-0.0419 0.0233,-0.0519 0.0299,-0.10401 0.0346,-0.15658 0.41915,0.0745 0.83915,0.15391 1.24383,0.15399 -0.0386,0.0547 -0.0889,0.1008 -0.15658,0.13538 -0.047,0.0238 -0.0989,0.0348 -0.14883,0.0522 -0.038,0.0161 -0.0153,0.07 0.0228,0.0537 0.078,-0.0344 0.21405,-0.0889 0.28575,-0.14004 0.004,-0.003 0.007,-0.008 0.0114,-0.0109 -0.0669,0.1002 -0.14078,0.19621 -0.22116,0.29093 -0.068,0.12761 0.11287,0.22421 0.18087,0.0967 0.043,-0.11644 0.0898,-0.25053 0.15605,-0.35089 0,0 0.0198,-0.0227 0.0222,-0.0259 0,0.0243 0,0.0282 0.003,0.0672 0,0.0609 0.0222,0.12086 0.0233,0.1819 0,0.0577 -0.0132,0.11428 -0.0201,0.17159 0,0.0654 0.092,0.0654 0.092,0 0,-0.37812 -0.01,0.0399 0.0233,-0.35349 0.003,-0.0374 1.6e-4,-0.014 0.003,-0.0372 0.0127,0.0138 0.0116,0.0143 0.031,0.0351 0.044,0.047 0.14692,0.13949 0.17311,0.21135 0.0101,0.0164 -0.0103,0.0345 -0.0103,0.0517 0.03,0.0768 0.13812,0.0349 0.10851,-0.0419 -0.092,-0.0946 8e-5,-0.003 -0.12401,-0.13488 -0.036,-0.0402 -0.0771,-0.0769 -0.1106,-0.11938 -0.0283,-0.0356 -0.0463,-0.0641 -0.0646,-0.093 0,-0.003 0.004,-0.0583 0.003,-0.0563 0.10277,-0.0109 0.20455,-0.0262 0.30438,-0.0517 0.32361,-0.083 0.93946,-0.18484 1.4428,-0.26408 h 3.44733 c 0.7329,0 1.32292,-0.59002 1.32292,-1.32292 v -6.40431 c 0,-0.7329 -0.59002,-1.32292 -1.32292,-1.32292 h -25.08966 c -0.21138,-0.0212 -0.41794,-0.0434 -0.59997,-0.0682 -0.0406,-0.006 -0.0809,-0.0116 -0.12145,-0.0175 0.0463,-0.0148 0.0926,-0.0296 0.13902,-0.0439 0.10001,-0.0309 0.19682,-0.0721 0.29921,-0.0925 0.004,0 0.008,0 0.0114,0 -0.0206,-0.003 -0.11512,0.005 -0.24804,0.0196 0.0122,-0.005 0.0185,-0.009 0.0315,-0.014 0.068,-0.0246 0.14097,-0.0333 0.21135,-0.0501 0.044,-0.0156 0.0222,-0.0778 -0.0217,-0.062 -0.067,0.0272 -0.13314,0.0573 -0.20154,0.0812 -0.30366,0.10562 -0.28604,0.0935 -0.31728,0.10697 0.0296,-0.0502 0.0603,-0.1043 0.0677,-0.11369 0.031,-0.0385 0.0704,-0.0689 0.10593,-0.10335 0.043,-0.0485 -0.0262,-0.10946 -0.0692,-0.061 -0.032,0.0402 -0.0621,0.0816 -0.0951,0.12041 -0.0287,0.0335 -0.0594,0.0655 -0.0904,0.0972 -0.0969,0.0905 -0.1946,0.0585 -0.26871,0.0465 -0.26429,-0.0432 -0.5276,-0.0867 -0.79271,-0.11729 -0.0789,-0.009 -0.13095,-0.0154 -0.093,-0.0641 0.0548,-0.0236 0.0974,-0.0344 0.32297,-0.0915 0.032,-0.008 0.0201,-0.0538 -0.0119,-0.0455 -0.27315,0.0801 -0.27802,0.0833 -0.38962,0.0904 0.0763,-0.0462 0.15965,-0.0889 0.2196,-0.12144 0.079,-0.0312 0.0341,-0.14232 -0.0439,-0.1111 -0.083,0.0196 -0.17113,0.0265 -0.25061,0.0589 -0.0594,0.0241 -0.10986,0.0655 -0.16074,0.10594 0.0198,-0.0353 0.0459,-0.0734 0.0936,-0.1256 0.0169,-0.0182 0.0437,-0.022 0.0666,-0.0331 0.0914,-0.0975 0.0111,-0.21886 -0.0863,-0.21857 z m 2.02161,0.60513 c 0.0373,0.005 0.0892,-0.006 0.11575,-0.013 -0.0388,0.003 -0.0775,0.006 -0.11575,0.013 z m 0.11575,-0.013 c 0.0519,-0.003 0.10377,-0.004 0.15555,-0.009 0.019,-0.003 0.014,-0.0293 0,-0.0265 -0.19667,0.0451 -0.13737,0.0307 -0.15555,0.0351 z m 17.29571,9.85935 c 0.0586,0.0382 0.11496,0.0797 0.17261,0.11938 0.049,0.0251 0.0842,-0.0436 0.0362,-0.0687 -0.0697,-0.0172 -0.14271,-0.0249 -0.20878,-0.0506 z M 125.28,160.16158 c 0.0605,0.0301 0.12266,0.0588 0.18706,0.0868 -0.063,-0.0275 -0.12491,-0.0574 -0.18706,-0.0868 z m 0.18706,0.0868 c 0.066,0.0287 0.12763,0.0546 0.19378,0.0811 -0.0646,-0.0269 -0.1296,-0.0532 -0.19378,-0.0811 z m 0.19378,0.0811 c 0.10311,0.043 0.206,0.0866 0.30903,0.12972 0,0.003 0.0101,-0.004 0,-0.006 -0.0934,-0.0378 -0.20214,-0.0806 -0.30903,-0.12351 z m -2.15749,-0.0718 c 0.0424,0.065 0.0935,0.13713 0.16742,0.22995 -0.0193,-0.0422 -0.0819,-0.12097 -0.16742,-0.22995 z m 0.16742,0.22995 c 0.0153,0.0333 0.0286,0.0762 0.0661,0.19171 0.04,0.0534 0.11544,-0.003 0.0749,-0.0568 -0.044,-0.0411 -0.0941,-0.076 -0.13229,-0.123 -0.004,-0.005 -0.005,-0.007 -0.009,-0.0119 z M 104.169,150.23504 c 0.0198,-0.009 0.0405,-0.0161 0.0594,-0.0269 0.0436,-0.0243 0.0838,-0.0539 0.12351,-0.0842 -0.0446,0.0217 -0.0891,0.045 -0.13073,0.0718 -0.0183,0.0119 -0.0347,0.0262 -0.0522,0.0393 z m 0.18293,-0.11109 c 0.0422,-0.0206 0.0846,-0.04 0.1261,-0.0615 0.0159,-0.0101 3e-5,-0.0329 -0.014,-0.0233 -0.0382,0.0272 -0.075,0.0564 -0.11213,0.0847 z m 0.42479,0.3824 c 0.0119,-0.003 0.0241,-0.003 0.0362,-0.004 0.0803,-0.0132 0.15904,-0.0342 0.23823,-0.0532 -0.0917,0.0183 -0.18296,0.0376 -0.2744,0.0569 z m 0.2744,-0.0569 c 0.0464,-0.009 0.0926,-0.0193 0.13901,-0.0284 0.1301,-0.0254 0.26019,-0.0534 0.39119,-0.0734 0.08,-0.0122 0.16092,-0.0156 0.24132,-0.0233 0.0241,-0.004 0.019,-0.037 0,-0.0336 -0.6655,0.14637 0.33042,-0.0707 -0.62838,0.12713 -0.0479,0.01 -0.0956,0.0201 -0.14314,0.0315 z m 1.24952,0.0894 c 0,0 -0.003,-0.003 -0.003,-0.003 -0.1319,-0.0891 -0.26858,-0.15862 -0.40773,-0.22326 0.13886,0.0718 0.27469,0.14891 0.41082,0.22582 z m -0.41082,-0.22582 c -0.006,-0.003 -0.0119,-0.007 -0.018,-0.01 -0.10218,-0.0523 -0.20876,-0.0954 -0.31313,-0.14314 0,0 -0.0101,0.003 0,0.005 0.11228,0.0497 0.22235,0.0972 0.33123,0.1478 z m 2.60242,-0.0169 c -0.0156,-0.008 -0.009,-0.005 -0.0274,-0.014 0.01,0 0,0.006 0,0.005 0.0196,0.006 0.0106,0.004 0.0274,0.009 z m -1.88463,0.094 c 0.12123,0.0576 0.24051,0.11912 0.34467,0.19328 0.0347,0.0246 0.0597,0.0523 0.0873,0.0791 -0.0428,0.0175 -0.0896,0.0254 -0.11266,0.0265 -0.11144,0.006 -0.22328,0.007 -0.33485,0.008 -0.0744,-0.0374 -0.14693,-0.0784 -0.21964,-0.11885 0.0675,-0.0632 0.1482,-0.12568 0.23514,-0.18812 z m -0.24649,0.19897 c 0.0426,0.0353 0.0849,0.0711 0.12505,0.10956 -0.071,-5e-5 -0.14193,-0.003 -0.21291,-0.004 0.0148,-0.0228 0.0278,-0.0466 0.046,-0.0667 0.0114,-0.0127 0.0283,-0.0262 0.0418,-0.0393 z m 24.0183,9.3405 c 0.0522,0.008 0.10422,0.0153 0.15658,0.0243 0.003,0.0124 0.008,0.0246 0.009,0.0372 0,0.0367 -0.009,0.0665 -0.0156,0.0977 -0.0522,-0.0512 -0.10425,-0.10239 -0.14986,-0.15917 z"
       sodipodi:nodetypes="scccscccccccccscscccscscccsscsccccsssccscccscsccsccsccccccccccscccscsccscscsccccssccscscssccscsscccscscssssccsccsscccsccscsccccccsccccsccscccccsccscccscccccscsccscccsccsccsccsccssccscscsssccsscscssccssscccccscscsccccccssccsccsccscccsccsccsccccsccsccccscsccsccscccsccccsccsccccsccscsssscscssccsccsccccscsccsccccscscscccccccccccccccccccccccccccsccscsccccccscccssccsccccccsccccccccsccccccccscccccc" />
  </g>
</svg>
