<?xml version="1.0" encoding="UTF-8" standalone="no"?>
<svg
   xmlns:dc="http://purl.org/dc/elements/1.1/"
   xmlns:cc="http://creativecommons.org/ns#"
   xmlns:rdf="http://www.w3.org/1999/02/22-rdf-syntax-ns#"
   xmlns:svg="http://www.w3.org/2000/svg"
   xmlns="http://www.w3.org/2000/svg"
   xmlns:sodipodi="http://sodipodi.sourceforge.net/DTD/sodipodi-0.dtd"
   xmlns:inkscape="http://www.inkscape.org/namespaces/inkscape"
   inkscape:export-ydpi="96"
   inkscape:export-xdpi="96"
   inkscape:export-filename="D:\Calcatz\Icon Pack\Adventure Narative Inspired by Arrival\GUI\Settings\png\highlight_bar.png"
   sodipodi:docname="highlight_bar.svg"
   inkscape:version="1.0 (4035a4fb49, 2020-05-01)"
   id="svg2311"
   version="1.1"
   viewBox="0 0 61.608482 12.291564"
   height="12.291564mm"
   width="61.608482mm">
  <defs
     id="defs2305" />
  <sodipodi:namedview
     inkscape:window-maximized="1"
     inkscape:window-y="-8"
     inkscape:window-x="-8"
     inkscape:window-height="705"
     inkscape:window-width="1366"
     fit-margin-bottom="0"
     fit-margin-right="0"
     fit-margin-left="0"
     fit-margin-top="0"
     showgrid="false"
     inkscape:document-rotation="0"
     inkscape:current-layer="layer1"
     inkscape:document-units="mm"
     inkscape:cy="13.155086"
     inkscape:cx="84.156304"
     inkscape:zoom="2.6845878"
     inkscape:pageshadow="2"
     inkscape:pageopacity="0.0"
     borderopacity="1.0"
     bordercolor="#666666"
     pagecolor="#ffffff"
     id="base" />
  <metadata
     id="metadata2308">
    <rdf:RDF>
      <cc:Work
         rdf:about="">
        <dc:format>image/svg+xml</dc:format>
        <dc:type
           rdf:resource="http://purl.org/dc/dcmitype/StillImage" />
        <dc:title></dc:title>
      </cc:Work>
    </rdf:RDF>
  </metadata>
  <g
     transform="translate(-96.924866,-138.14079)"
     id="layer1"
     inkscape:groupmode="layer"
     inkscape:label="Layer 1">
    <path
       d="m 149.8256,138.14162 c -0.018,-0.002 -0.038,-5.3e-4 -0.059,0.006 -0.2507,0.0913 -0.49891,0.19125 -0.75241,0.2744 -0.616,0.20202 -1.488,0.42169 -2.09289,0.66972 -0.2702,0.11084 -0.50821,0.29413 -0.7829,0.39378 -0.1173,0.0426 -0.23971,0.0672 -0.36331,0.0879 -0.4713,0.0308 -1.1176,0.0675 -2.24269,0.13901 -0.027,0.002 -0.052,0.002 -0.079,0.004 0.2049,-0.075 0.4298,-0.15277 0.6992,-0.23876 0.5498,-0.17545 1.1176,-0.28874 1.6764,-0.43305 0.1007,-0.0266 0.063,-0.1687 -0.038,-0.14211 -1.426,0.29354 -2.8523,0.58278 -4.2907,0.80978 -0.096,0.0214 -0.1686,0.0634 -0.2228,0.11627 -0.2198,0.0129 -0.442,0.0256 -0.6604,0.0444 0.1265,-0.0865 0.2105,-0.14297 0.6299,-0.42994 0.5579,-0.33472 0.084,-1.1233 -0.4733,-0.78858 -0.7999,0.41209 -0.9022,0.46797 -1.1209,0.58291 0,0.002 -0.01,0.002 -0.016,0.005 -0.5799,0.34658 -1.66301,0.28852 -2.422,0.14314 -1.06201,-0.20342 -2.2446,-0.35505 -3.589,-0.43615 h -15.445 c -4.0756,0 -5.9299,0.5882 -7.2667,1.39423 -0.2454,0.14793 -0.607,0.23555 -0.956,0.19119 -0.18,-0.0298 -0.3482,-0.0578 -0.5282,-0.0868 -0.026,-0.0166 -0.055,-0.0316 -0.087,-0.0444 -0.3363,-0.0747 -0.6843,-0.10836 -1.0087,-0.22428 -0.9886,-0.35328 -2.0066,-0.99001 -2.9047,-1.49965 -0.1653,-0.09 -0.2924,0.14406 -0.1271,0.2341 0.5191,0.29062 1.0529,0.55659 1.5575,0.87178 0.2448,0.15293 0.4156,0.26389 0.5741,0.36742 -0.2018,-0.027 -0.4137,-0.0586 -0.6067,-0.0817 -3.7374,-0.44677 -2.0128,0.27852 -4.2142,-0.90589 -1.0935,-0.0291 -1.1348,1.51703 -0.041,1.54617 0.3933,-0.18199 0.7465,-0.53701 1.1798,-0.54571 0.9976,-0.02 1.9854,0.23787 2.9574,0.46303 0.7991,0.18506 1.5809,0.41897 2.3549,0.67592 -0.3576,0.0377 -0.6884,0.006 -1.9595,-0.0284 -0.505,-0.0139 -1.0095,-0.0466 -1.5142,-0.0698 -0.5405,0 -0.5405,0.76481 0,0.76481 0.5047,-0.051 1.0071,-0.16451 1.5142,-0.15297 0.3751,0.009 0.7475,0.0543 1.1198,0.10698 0.24,0.0731 0.1823,0.22771 -0.039,0.36689 -0.6291,0.39514 -1.3873,0.78164 -2.4061,1.13068 -0.5013,0.16023 -1.0204,0.17251 -1.3844,0.23049 -0.01,-7.9e-4 -0.01,-0.002 -0.013,-0.003 -0.3257,0.0474 -0.6481,0.13499 -0.9772,0.14211 -0.8227,0.0178 -2.5473,-0.16732 -3.329,-0.30697 -0.341704,-0.061 -0.670804,-0.17867 -1.006104,-0.2682 -0.3487,-0.0456 -0.4133,0.44737 -0.065,0.493 0.3483,-0.008 0.6978,-0.0558 1.044904,-0.0248 0.579,0.0517 1.152,0.15968 1.7224,0.27182 0.35,0.0688 0.5281,0.10575 0.7844,0.1571 -0.5511,0.0717 -3.721204,0.48427 -3.761504,0.49041 -0.6034,0.0918 -1.2012,0.2153 -1.802,0.32298 -0.1044,0.0159 -0.082,0.16371 0.022,0.14779 0.594,-0.14775 1.1749,-0.36821 1.7823,-0.44338 1.472904,-0.18227 2.180504,-0.0786 3.378104,0.077 0.1716,0.0275 0.4922,0.10505 0.6481,0.16227 0.7463,0.27761 1.4826,0.59847 2.3006,0.9219 0.1765,0.0763 0.2094,0.18548 0.025,0.25632 -0.6769,0.11636 -1.3555,0.22888 -2.0211,0.39791 -0.5761,0.14631 -1.1297,0.37033 -1.6944,0.55552 -0.3534,0.10509 -0.2046,0.6048 0.1488,0.49971 0.5363,-0.23797 1.0434,-0.55631 1.6087,-0.71365 0.6754,-0.188 1.3791,-0.29417 2.0799,-0.31316 0.6891,-0.0187 1.3144,0.10828 1.9441,0.26562 0.028,0.0125 0.057,0.0264 0.084,0.0388 0.4301,0.19293 0.8145,0.3914 1.6097,0.75396 0.3538,0.16364 0.704,0.32109 1.0532,0.47439 -0.7945,0.33301 -1.5691,0.7265 -2.4019,0.94052 -0.462,0.11869 -0.9307,0.2099 -1.402,0.28835 0.1258,-0.1764 0.042,-0.47646 -0.2599,-0.47646 -1.0055,0.1352 -0.458,0.0841 -1.8015,0.11886 -0.41,0.0106 -0.8198,0.0193 -1.2299,0.0289 -0.08,-0.002 -0.082,0.11136 0,0.11317 0.4094,0.0167 0.8198,0.0136 1.2279,0.0501 0.6437,0.0575 1.0428,0.13836 1.5663,0.24443 -0.5564,0.0778 -1.1161,0.13496 -1.6754,0.17312 -1.0707,0.0731 -2.1455,-0.0513 -3.2184,-0.077 -0.5782,0.0473 -0.5116,0.86538 0.067,0.81804 1.0578,-0.18662 2.1071,-0.43111 3.1735,-0.56017 0.7373,-0.0893 2.2304,-0.17475 3.6824,-0.26975 -0.2042,0.0724 0.016,-0.0142 -1.4397,0.58549 -0.2072,0.0918 -0.078,0.38477 0.1297,0.29301 0.7249,-0.32055 1.5554,-0.72185 2.3477,-0.95085 0.7886,-0.058 1.5165,-0.11955 1.9823,-0.19017 0.032,-0.005 0.056,-0.01 0.087,-0.0145 0.1689,0.009 1.4156,-0.25204 2.0831,0.0641 1.7061,0.64622 3.4019,0.72294 5.3035,0.63304 h 15.4449 c 0.1499,-0.004 0.3023,-0.0112 0.4573,-0.0212 0.527,-0.0331 2.0898,0.66379 2.0898,0.0501 v -5.3e-4 c 1.7407,0.16487 3.4883,0.23086 5.2348,0.31109 0.087,0.01 0.1011,-0.11196 0.014,-0.12196 -0.9918,-0.1568 -1.9938,-0.2595 -2.9755,-0.47077 -0.3387,-0.0729 -0.6701,-0.17449 -0.9999,-0.28163 0.5756,-0.12762 1.1643,-0.27217 1.7637,-0.43564 0.6363,-0.17358 2.1159,-0.18303 3.0065,-0.15296 0.5588,0.0674 1.1201,0.11822 1.6816,0.16795 0.5115,0.15936 1.0789,0.33459 1.3239,0.41083 -0.1624,-0.0747 -0.4599,-0.22061 -0.7214,-0.3514 0.07,0.007 0.1406,0.0137 0.2109,0.0207 0.039,0.0115 0.084,0.0152 0.1322,0.0129 0.1408,0.0144 0.2823,0.0255 0.4228,0.0419 2.3905,0.27842 3.3553,0.46374 5.6048,0.83975 0.7058,0.0322 0.7518,-0.96565 0.046,-0.99788 -0.7903,0.0127 -1.5833,0.1048 -2.3709,0.0382 -0.8371,-0.0708 -1.6746,-0.18282 -2.497,-0.35709 0.7216,-0.26228 1.346,-0.44955 2.451,-0.61908 0.013,-0.002 0.026,-0.002 0.039,-0.004 0.5953,0.17159 1.1975,0.31667 1.8014,0.4563 -0.5955,-0.14379 -1.1899,-0.29194 -1.7792,-0.45888 0.6586,-0.0938 1.3284,-0.0772 1.9927,-0.11731 0.1634,-0.0223 0.1318,-0.2533 -0.031,-0.23099 -0.6584,0.11469 -1.3133,0.24902 -1.9746,0.34468 -0.026,-0.007 -0.053,-0.0142 -0.079,-0.0217 -0.539,-0.15478 -1.0713,-0.33115 -1.6025,-0.5116 0.5287,0.18706 1.0614,0.36207 1.5994,0.51934 0.021,0.006 0.042,0.0111 0.062,0.0171 -0.01,10e-4 -0.019,0.003 -0.028,0.005 -1.4688,0.20804 -2.2202,0.25276 -3.5161,0.34881 -0.3837,-0.1244 -0.7591,-0.27493 -1.1332,-0.42994 0.1511,-0.0601 0.3028,-0.11752 0.4589,-0.16278 0.9167,-0.26584 1.4485,-0.35211 2.1357,-0.43925 0.1403,0.0479 0.2809,0.0944 0.4212,0.14211 -0.13399,-0.0474 -0.2676,-0.0961 -0.401,-0.14522 0.2956,-0.0373 0.6149,-0.0757 1.0165,-0.12764 0.3532,-0.0294 0.31141,-0.52858 -0.042,-0.49919 -0.4383,0.0417 -0.8763,0.0857 -1.31469,0.12506 -0.16381,-0.0537 -0.096,-0.18838 0.31269,-0.35295 0.6726,-0.27076 1.3312,-0.54517 1.9678,-0.81804 0.2988,-0.12807 1.101,-0.27141 1.4459,-0.37311 0.4569,-0.0985 0.67761,-0.12511 1.54511,-0.14675 0.58969,-0.0147 1.17989,0.0388 1.76939,0.0202 0.7428,-0.0235 1.6753,-0.12866 2.5611,-0.1695 -0.1642,2.6e-4 -0.2911,0.003 -0.5028,10e-4 -0.687,-0.006 -1.3723,-0.0708 -2.0583,-0.10956 -0.5899,-0.0333 -1.1792,-0.0773 -1.76939,-0.10645 -0.21561,-0.0107 -0.43151,-0.012 -0.64751,-0.0155 0.8089,-0.37588 1.68691,-0.58999 2.5394,-0.83664 0.2082,-0.0415 0.1498,-0.33604 -0.058,-0.29455 -0.5012,0.0759 -1.0056,0.13422 -1.5038,0.22789 -0.5189,0.0976 -0.7882,0.15339 -0.96319,0.19275 -0.5133,0.0689 -1.38901,0.0921 -1.77671,-0.0217 -2.1521,-0.63189 -3.80249,-1.5332 -5.6001,-2.39882 -0.3133,-0.1508 -0.3072,-0.24532 -0.038,-0.29507 1.3499,0.0779 2.0225,0.0571 3.6152,0.47387 0.7461,0.19523 1.4523,0.52091 2.1782,0.78135 0.2741,0.0814 0.3888,-0.30618 0.1147,-0.38757 -2.9398,-0.75712 -1.5997,-0.36255 -4.546,-1.32447 -0.352,-0.11492 -0.6979,-0.25085 -1.049,-0.36897 1.174,-0.21538 2.3603,-0.39324 3.1755,-0.42736 0.8046,-0.0337 1.605,0.13084 2.4076,0.19637 0.7619,-0.007 0.7526,-1.08414 -0.01,-1.07746 -1.32159,0.21583 -1.88669,0.31942 -2.3383,0.38344 0.054,-0.0272 0.096,-0.0513 0.15601,-0.0796 0.31959,-0.14949 0.6541,-0.26391 0.9788,-0.40204 1.3413,-0.57069 0.60259,-0.37084 1.8019,-0.59635 0.14889,-0.0432 0.029,-0.12722 -0.011,-0.24649 z m 5.9051,6.73189 c 0.2715,-5.2e-4 0.5207,-0.005 0.7079,-0.0134 -0.2303,-0.002 -0.46581,0.002 -0.7079,0.0134 z m 0.7079,-0.0134 c 0.25809,0.002 0.50859,0.0104 0.739,0.0362 0.3625,0.0406 0.6935,0.22706 1.0403,0.34054 0.4206,0 0.4206,-0.5948 0,-0.5948 -0.8695,0.13275 -1.2051,0.19321 -1.7793,0.21808 z m -6.0947,3.4964 c 0.49709,0.12002 0.9946,0.23794 1.4903,0.36277 0.01,0.002 0.013,-0.0116 0,-0.0139 -0.4963,-0.12163 -0.99531,-0.23366 -1.49341,-0.34881 z m -5.1185,0.91985 c 0.6139,0.28222 0.89459,0.3095 2.95529,0.91725 -1.46699,-0.45425 -2.40839,-0.74707 -2.95529,-0.91725 z m 2.95529,0.91725 c 0.381,0.11797 0.1926,0.0602 0.7674,0.23823 0.01,0.003 0.01,-0.008 0,-0.0104 -0.3072,-0.0928 -0.52039,-0.15445 -0.76939,-0.22788 z"
       style="fill:#e5e5e5;fill-opacity:1;stroke:none;stroke-width:0.257651;stroke-linejoin:round;paint-order:markers stroke fill"
       id="path2301"
       sodipodi:nodetypes="ccssscscscccccccccscsscccsccscscccsccccscscccscccssccccsccccsccsscsccsccsccccsccsccccscccccscccscsccccccsccscsccccccscsccccsccccccsscsscssscccscsscsccscscccsscscccccccccccccccccccsccc" />
  </g>
</svg>
