<?xml version="1.0" encoding="UTF-8" standalone="no"?>
<svg
   xmlns:dc="http://purl.org/dc/elements/1.1/"
   xmlns:cc="http://creativecommons.org/ns#"
   xmlns:rdf="http://www.w3.org/1999/02/22-rdf-syntax-ns#"
   xmlns:svg="http://www.w3.org/2000/svg"
   xmlns="http://www.w3.org/2000/svg"
   xmlns:sodipodi="http://sodipodi.sourceforge.net/DTD/sodipodi-0.dtd"
   xmlns:inkscape="http://www.inkscape.org/namespaces/inkscape"
   inkscape:export-ydpi="96"
   inkscape:export-xdpi="96"
   inkscape:export-filename="D:\Calcatz\Icon Pack\Adventure Narative Inspired by Arrival\GUI\Settings\png\menu_highlight.png"
   sodipodi:docname="menu_highlight.svg"
   inkscape:version="1.0 (4035a4fb49, 2020-05-01)"
   id="svg2318"
   version="1.1"
   viewBox="0 0 51.985184 12.452192"
   height="12.452192mm"
   width="51.985184mm">
  <defs
     id="defs2312" />
  <sodipodi:namedview
     fit-margin-bottom="0"
     fit-margin-right="0"
     fit-margin-left="0"
     fit-margin-top="0"
     inkscape:window-maximized="1"
     inkscape:window-y="-8"
     inkscape:window-x="-8"
     inkscape:window-height="705"
     inkscape:window-width="1366"
     showgrid="false"
     inkscape:document-rotation="0"
     inkscape:current-layer="layer1"
     inkscape:document-units="mm"
     inkscape:cy="57.348682"
     inkscape:cx="116.03959"
     inkscape:zoom="1.8982902"
     inkscape:pageshadow="2"
     inkscape:pageopacity="0.0"
     borderopacity="1.0"
     bordercolor="#666666"
     pagecolor="#ffffff"
     id="base" />
  <metadata
     id="metadata2315">
    <rdf:RDF>
      <cc:Work
         rdf:about="">
        <dc:format>image/svg+xml</dc:format>
        <dc:type
           rdf:resource="http://purl.org/dc/dcmitype/StillImage" />
        <dc:title></dc:title>
      </cc:Work>
    </rdf:RDF>
  </metadata>
  <g
     transform="translate(-108.32974,-153.82951)"
     id="layer1"
     inkscape:groupmode="layer"
     inkscape:label="Layer 1">
    <path
       sodipodi:nodetypes="cccccscccsccccccccsccccccccscccccccccccscscccccccccccccccccccccsccsccccscccscsscsccscsccccccscscccssccccsccsscccccccc"
       d="m 151.49565,153.82951 v 0.001 c -0.018,-0.002 -0.038,-8.5e-4 -0.06,0.006 -0.254,0.0925 -0.5053,0.19381 -0.7622,0.27802 -0.6241,0.20468 -1.5074,0.42725 -2.1203,0.67853 -0.2738,0.11231 -0.5149,0.29847 -0.7932,0.39944 -0.1119,0.0406 -0.2286,0.064 -0.3462,0.0842 -0.4803,0.032 -1.1091,0.0693 -2.294,0.1447 -0.028,0.002 -0.053,0.002 -0.081,0.004 0.2077,-0.076 0.4359,-0.15415 0.709,-0.24133 0.557,-0.17777 1.1325,-0.29202 1.6986,-0.43823 0.102,-0.0269 0.064,-0.1711 -0.038,-0.14417 -1.4446,0.29737 -2.8897,0.59016 -4.347,0.8201 -0.097,0.0216 -0.1709,0.0644 -0.2258,0.11782 -0.2224,0.013 -0.4473,0.026 -0.6682,0.045 0.1282,-0.0876 0.213,-0.14459 0.6376,-0.43513 0.5652,-0.33909 0.085,-1.13903 -0.48,-0.79994 -1.0454,0.53856 -0.9433,0.48712 -1.4645,0.76224 -0.6042,0.15324 -1.414,0.0958 -2.0221,-0.0207 -1.0758,-0.20609 -2.2745,-0.36016 -3.6365,-0.44233 h -26.87211 v 11.01328 h 26.87521 c 0.1518,-0.004 0.306,-0.0113 0.463,-0.0212 0.507,-0.0318 1.3875,0.0175 2.0082,0.046 1.7615,0.16661 3.5294,0.23868 5.2968,0.31988 0.088,0.01 0.1025,-0.11385 0.015,-0.12404 -1.0047,-0.15883 -2.0198,-0.26291 -3.0143,-0.47696 -0.3272,-0.0704 -0.6481,-0.16645 -0.9669,-0.26924 0.606,-0.1329 1.2264,-0.28541 1.8588,-0.45784 0.6146,-0.16769 1.9943,-0.18182 2.9053,-0.15658 0.5741,0.0698 1.151,0.12147 1.7281,0.17259 0.5153,0.16058 1.0883,0.33742 1.3358,0.41444 -0.164,-0.0754 -0.4641,-0.2227 -0.7276,-0.35449 0.072,0.007 0.1446,0.0145 0.217,0.0217 0.039,0.011 0.083,0.0151 0.1302,0.0129 0.1428,0.0146 0.286,0.0253 0.4284,0.0419 2.4219,0.28207 3.3998,0.47019 5.6788,0.85111 0.7151,0.0326 0.7612,-0.97864 0.046,-1.01129 -0.8007,0.0129 -1.6035,0.10623 -2.4014,0.0388 -0.848,-0.0717 -1.6965,-0.18473 -2.5296,-0.36123 0.7309,-0.26565 1.3633,-0.45615 2.4825,-0.62786 0.013,-0.002 0.026,-0.003 0.039,-0.004 0.5925,0.17078 1.1922,0.31615 1.7932,0.45526 -0.5927,-0.14321 -1.1844,-0.29167 -1.771,-0.45783 0.6675,-0.0952 1.3467,-0.0782 2.02,-0.11885 0.1655,-0.0226 0.1335,-0.25622 -0.032,-0.2336 -0.6672,0.11623 -1.3312,0.25241 -2.0014,0.34935 -0.026,-0.007 -0.053,-0.0146 -0.079,-0.0222 -0.5397,-0.15497 -1.0726,-0.33052 -1.6045,-0.5111 0.5293,0.18696 1.0633,0.3614 1.6019,0.51885 0.021,0.006 0.042,0.0116 0.063,0.0176 -0.01,0.001 -0.019,0.003 -0.029,0.004 -1.4876,0.21069 -2.2489,0.25622 -3.561,0.35345 -0.389,-0.12604 -0.7696,-0.2785 -1.1488,-0.43561 0.153,-0.0608 0.3066,-0.11903 0.4646,-0.16486 0.9283,-0.26918 1.467,-0.35668 2.1627,-0.44492 0.1487,0.0508 0.2982,0.10036 0.447,0.15089 -0.1421,-0.0502 -0.2844,-0.10144 -0.4259,-0.15348 0.2997,-0.0378 0.623,-0.0771 1.03,-0.1297 0.3578,-0.0298 0.3158,-0.5357 -0.042,-0.50591 -0.4124,0.0393 -0.8247,0.0792 -1.2371,0.11729 -0.1339,-0.0595 -0.053,-0.19019 0.3405,-0.3483 0.6814,-0.27429 1.3482,-0.55245 1.9932,-0.82889 0.3134,-0.13433 1.1841,-0.28625 1.5099,-0.38965 0.02,-0.006 0.021,-0.0136 0.015,-0.0217 0.3541,-0.069 0.633,-0.0964 1.3875,-0.11523 0.5974,-0.0149 1.1954,0.0394 1.7927,0.0207 0.7514,-0.0238 1.6942,-0.13057 2.5905,-0.17208 -0.1655,2.6e-4 -0.2926,0.003 -0.5053,0.001 -0.6961,-0.006 -1.3903,-0.0712 -2.0852,-0.1106 -0.5977,-0.0337 -1.1947,-0.079 -1.7927,-0.1085 -0.2187,-0.0108 -0.4383,-0.0125 -0.6573,-0.016 0.8196,-0.38095 1.7097,-0.59704 2.5735,-0.84696 0.2109,-0.042 0.1521,-0.3402 -0.059,-0.29819 -0.5077,0.0769 -1.0187,0.13557 -1.5234,0.23048 -0.624,0.11732 -0.9117,0.17851 -1.0656,0.21601 -0.5254,0.0505 -1.2461,0.0592 -1.5921,-0.0424 -2.1803,-0.64019 -3.8518,-1.5539 -5.6731,-2.43086 -0.3072,-0.14796 -0.3066,-0.24083 -0.06,-0.2925 1.3004,0.0723 1.9906,0.062 3.5646,0.47387 0.7558,0.1978 1.4712,0.52784 2.2066,0.79169 0.2777,0.0824 0.3944,-0.31031 0.1168,-0.39275 -2.9783,-0.76703 -1.6206,-0.36753 -4.6054,-1.34205 -0.3567,-0.11644 -0.7077,-0.25392 -1.0635,-0.37362 1.1895,-0.2182 2.3915,-0.39846 3.2174,-0.43304 0.8152,-0.0341 1.626,0.13309 2.4391,0.19947 0.7718,-0.007 0.7624,-1.09871 -0.01,-1.09191 -1.3606,0.2222 -1.8947,0.31679 -2.356,0.38137 0.051,-0.0253 0.089,-0.0477 0.1447,-0.0739 0.3238,-0.15144 0.6638,-0.26678 0.9927,-0.40669 1.359,-0.57817 0.6102,-0.37563 1.8252,-0.60409 0.1509,-0.0438 0.1153,-0.23633 -0.012,-0.25012 z m 8.4997,6.58615 c -0.8777,0.13401 -1.2186,0.19579 -1.7963,0.22119 0.2592,0.002 0.5116,0.0108 0.7431,0.0367 0.3673,0.0412 0.7019,0.22971 1.0532,0.3447 0.4261,0 0.4261,-0.60256 0,-0.60256 z m -8.013,3.75583 c 0.026,0.006 0.053,0.0125 0.079,0.0186 -0.025,-0.006 -0.051,-0.0125 -0.076,-0.0186 z m 0.079,0.0186 c 0.4892,0.11795 0.9792,0.23318 1.4671,0.35605 0.01,0.002 0.014,-0.0111 0,-0.014 -0.4875,-0.11946 -0.9778,-0.22918 -1.4671,-0.34208 z m -5.2322,0.91932 c 0.6294,0.28962 0.9121,0.31554 3.0504,0.94721 -1.5605,-0.48318 -2.4852,-0.77137 -3.0504,-0.94721 z m 3.0592,0.9498 c 0.3563,0.11034 0.1795,0.0561 0.7158,0.22223 0.01,0.002 0.01,-0.008 0,-0.0104 -0.286,-0.0863 -0.4815,-0.14269 -0.7158,-0.21188 z"
       style="fill:#e5e5e5;fill-opacity:0.3;stroke:none;stroke-width:0.261026;stroke-linejoin:round;paint-order:markers stroke fill"
       id="path10894" />
  </g>
</svg>
