<?xml version="1.0" encoding="UTF-8" standalone="no"?>
<svg
   xmlns:dc="http://purl.org/dc/elements/1.1/"
   xmlns:cc="http://creativecommons.org/ns#"
   xmlns:rdf="http://www.w3.org/1999/02/22-rdf-syntax-ns#"
   xmlns:svg="http://www.w3.org/2000/svg"
   xmlns="http://www.w3.org/2000/svg"
   xmlns:sodipodi="http://sodipodi.sourceforge.net/DTD/sodipodi-0.dtd"
   xmlns:inkscape="http://www.inkscape.org/namespaces/inkscape"
   inkscape:export-ydpi="96"
   inkscape:export-xdpi="96"
   inkscape:export-filename="D:\Calcatz\Icon Pack\Adventure Narative Inspired by Arrival\GUI\Settings\png\progress_bar - background_detail_2.png"
   sodipodi:docname="progress_bar - background_detail_2.svg"
   inkscape:version="1.0 (4035a4fb49, 2020-05-01)"
   id="svg3587"
   version="1.1"
   viewBox="0 0 9.2709951 1.4401132"
   height="1.4401132mm"
   width="9.2709951mm">
  <defs
     id="defs3581">
    <filter
       height="1.0000529"
       y="-2.6463173e-05"
       width="1.0000052"
       x="-2.63937e-06"
       id="filter1816"
       style="color-interpolation-filters:sRGB"
       inkscape:collect="always">
      <feGaussianBlur
         id="feGaussianBlur1818"
         stdDeviation="1.385755e-05"
         inkscape:collect="always" />
    </filter>
  </defs>
  <sodipodi:namedview
     inkscape:window-maximized="1"
     inkscape:window-y="-8"
     inkscape:window-x="-8"
     inkscape:window-height="705"
     inkscape:window-width="1366"
     fit-margin-bottom="0"
     fit-margin-right="0"
     fit-margin-left="0"
     fit-margin-top="0"
     showgrid="false"
     inkscape:document-rotation="0"
     inkscape:current-layer="layer1"
     inkscape:document-units="mm"
     inkscape:cy="-0.17201055"
     inkscape:cx="21.225172"
     inkscape:zoom="15.186322"
     inkscape:pageshadow="2"
     inkscape:pageopacity="0.0"
     borderopacity="1.0"
     bordercolor="#666666"
     pagecolor="#ffffff"
     id="base" />
  <metadata
     id="metadata3584">
    <rdf:RDF>
      <cc:Work
         rdf:about="">
        <dc:format>image/svg+xml</dc:format>
        <dc:type
           rdf:resource="http://purl.org/dc/dcmitype/StillImage" />
        <dc:title></dc:title>
      </cc:Work>
    </rdf:RDF>
  </metadata>
  <g
     transform="translate(-132.55503,-231.87307)"
     id="layer1"
     inkscape:groupmode="layer"
     inkscape:label="Layer 1">
    <g
       id="g10810"
       transform="translate(-117.42858,67.041648)">
      <path
         transform="matrix(0.73574033,0,0,0.73574033,67.011051,43.754204)"
         sodipodi:nodetypes="csssssssssssssssssssssscccc"
         id="path10762"
         d="m 248.69179,166.02605 c 0,0 0.60689,-0.25185 1.13858,-0.39966 0.0868,-0.0241 0.187,-0.082 0.19376,-0.16224 10e-4,-0.0156 0.0881,0.0934 0.10299,0.0904 0.0537,-0.0106 0.10474,-0.0189 0.15217,-0.0246 0.50461,-0.0603 1.01316,0.0998 1.52136,0.0992 0.089,-1.1e-4 0.178,-0.003 0.2669,-0.008 0.0417,-0.002 0.0903,-0.0137 0.1151,-0.0605 0.002,-0.004 0.0181,0.0513 0.0223,0.051 0.13792,-0.0109 0.27572,-0.0258 0.41349,-0.0412 0.0392,-0.004 0.0995,-0.0271 0.16116,-0.0737 0.007,-0.005 -0.0268,0.0585 -0.0184,0.0576 0.29071,-0.0327 0.58136,-0.063 0.87257,-0.0602 0.0394,3.8e-4 0.11392,0.0112 0.17441,-0.0967 0.0166,-0.0296 0.0115,0.10339 0.0452,0.10629 0.54365,0.0467 1.07242,0.27095 1.61839,0.25803 0.0719,-0.002 0.14349,-0.006 0.21475,-0.0126 0.0519,-0.005 0.10927,-0.0149 0.10891,-0.0835 -7e-5,-0.0138 0.0736,0.0623 0.0873,0.0604 0.53629,-0.0765 1.05858,-0.25128 1.59418,-0.31014 0.12379,-0.0136 0.16998,-0.0239 0.10879,-0.12183 -0.0121,-0.0193 0.31064,0.10304 0.3335,0.1039 0.44641,0.0167 0.91966,0.31759 1.35599,0.41341 0.68686,0.15083 2.01744,0.28112 2.01744,0.28112 l -3.30729,0.42995 -7.97057,-0.0661 z"
         style="fill:#1f2123;fill-opacity:1;stroke:none;stroke-width:0.264583px;stroke-linecap:butt;stroke-linejoin:miter;stroke-opacity:1;filter:url(#filter1816)" />
      <path
         d="m 251.06534,165.82466 c 0.0255,-0.021 0.0553,-0.0376 0.0764,-0.0631 0.0539,-0.0652 0.0877,-0.14653 0.14685,-0.20704 0.1548,-0.15838 0.25872,-0.19696 0.44302,-0.2935 0.0674,-0.0479 -2.3e-4,-0.14312 -0.0676,-0.0953 v 0 c -0.21219,0.15245 -0.20404,0.14892 -0.44307,0.30909 -0.0731,0.0491 -0.14867,0.0946 -0.22092,0.14497 -0.0194,0.0135 -0.0356,0.0309 -0.0535,0.0464 -0.11204,0.084 0.007,0.24249 0.11884,0.15845 z"
         id="path10764"
         style="fill:#1f2123;fill-opacity:1;stroke:none;stroke-width:0.611878;stroke-linecap:round;stroke-miterlimit:4;stroke-dasharray:none;stroke-opacity:1;paint-order:markers stroke fill" />
      <path
         d="m 257.04976,165.61412 c -0.17267,-0.10323 -0.0853,-0.0368 -0.28321,-0.29514 -0.23383,-0.30534 -0.18035,-0.17428 -0.24211,-0.44627 -0.0377,-0.0825 -0.15436,-0.0292 -0.11668,0.0533 v 0 c 0.0411,0.0454 0.0899,0.0849 0.12333,0.13624 0.15276,0.23416 0.23476,0.51783 0.43392,0.72138 0.11986,0.0599 0.20461,-0.10959 0.0847,-0.16951 z"
         id="path10766"
         style="fill:#1f2123;fill-opacity:1;stroke:none;stroke-width:0.603294;stroke-linecap:round;stroke-miterlimit:4;stroke-dasharray:none;stroke-opacity:1;paint-order:markers stroke fill" />
      <path
         d="m 256.82097,165.42719 c -0.16852,-0.13468 -0.17534,-0.14945 -0.37986,-0.26676 -0.0659,-0.0378 -0.13561,-0.0687 -0.20341,-0.10315 -0.0748,-0.0402 -0.13171,0.0657 -0.0568,0.10587 v 0 c 0.0641,0.0297 0.13239,0.0516 0.19224,0.0892 0.1109,0.0695 0.24673,0.19865 0.34651,0.2889 0.0806,0.0717 0.182,-0.0424 0.10137,-0.11403 z"
         id="path10768"
         style="fill:#1f2123;fill-opacity:1;stroke:none;stroke-width:0.603294;stroke-linecap:round;stroke-miterlimit:4;stroke-dasharray:none;stroke-opacity:1;paint-order:markers stroke fill" />
      <path
         d="m 253.88583,165.67424 c 0.0502,-0.0833 0.0509,-0.0972 0.12836,-0.16684 0.0209,-0.0188 0.0461,-0.0322 0.0691,-0.0483 0.0913,-0.0733 -0.0124,-0.20245 -0.10366,-0.12914 v 0 c -0.0256,0.027 -0.0496,0.0556 -0.0768,0.0809 -0.15719,0.14704 -0.0422,0.0128 -0.15758,0.15803 -0.0745,0.0993 0.066,0.20473 0.14051,0.10538 z"
         id="path10770"
         style="fill:#1f2123;fill-opacity:1;stroke:none;stroke-width:0.606908;stroke-linecap:round;stroke-miterlimit:4;stroke-dasharray:none;stroke-opacity:1;paint-order:markers stroke fill" />
      <path
         d="m 253.96011,165.63904 c 0.42907,-0.16662 -0.39534,0.15431 0.30657,-0.1234 0.0807,-0.0319 0.15914,-0.0707 0.2429,-0.0932 0.0722,-0.0194 0.14807,-0.021 0.2221,-0.0315 0.0397,-0.009 0.0272,-0.0649 -0.0125,-0.0561 v 0 c -0.0732,0.0187 -0.14666,0.0363 -0.21955,0.0561 -0.19615,0.0534 -0.39054,0.12114 -0.59477,0.13761 -0.0781,0.0391 -0.0229,0.14954 0.0552,0.11047 z"
         id="path10772"
         style="fill:#1f2123;fill-opacity:1;stroke:none;stroke-width:0.606908;stroke-linecap:round;stroke-miterlimit:4;stroke-dasharray:none;stroke-opacity:1;paint-order:markers stroke fill" />
      <path
         d="m 251.10945,165.6014 c -0.0334,-0.0652 -0.11473,-0.22158 -0.13173,-0.27181 -0.0197,-0.0582 -0.0255,-0.12018 -0.0381,-0.18026 -0.0159,-0.06 -0.10064,-0.0376 -0.0848,0.0224 v 0 c 0.0573,0.16391 0.11524,0.32799 0.15207,0.49804 0.0484,0.0725 0.15093,0.004 0.10258,-0.0684 z"
         id="path10774"
         style="fill:#1f2123;fill-opacity:1;stroke:none;stroke-width:0.611878;stroke-linecap:round;stroke-miterlimit:4;stroke-dasharray:none;stroke-opacity:1;paint-order:markers stroke fill" />
      <path
         d="m 256.97415,165.5249 c 0.022,-0.15151 -0.002,-0.0738 0.081,-0.22953 0.0306,-0.0504 -0.0407,-0.0937 -0.0712,-0.0433 v 0 c -0.11543,0.1889 -0.0719,0.0966 -0.13871,0.27284 0,0.0912 0.12898,0.0912 0.12898,0 z"
         id="path10776"
         style="fill:#1f2123;fill-opacity:1;stroke:none;stroke-width:0.603294;stroke-linecap:round;stroke-miterlimit:4;stroke-dasharray:none;stroke-opacity:1;paint-order:markers stroke fill" />
      <path
         d="m 256.88195,165.29197 c -0.0228,-0.1435 -0.0134,-0.0616 -0.0215,-0.24623 0,-0.029 -0.041,-0.029 -0.041,0 v 0 c -0.009,0.18452 2.2e-4,0.10263 -0.0206,0.24623 0,0.0588 0.0831,0.0588 0.0831,0 z"
         id="path10778"
         style="fill:#1f2123;fill-opacity:1;stroke:none;stroke-width:0.603294;stroke-linecap:round;stroke-miterlimit:4;stroke-dasharray:none;stroke-opacity:1;paint-order:markers stroke fill" />
      <path
         d="m 253.80011,165.56376 c 4.6e-4,-0.0479 -0.005,-0.0963 0.002,-0.14372 0.015,-0.10975 0.0554,-0.22437 0.0889,-0.33007 0.007,-0.0275 -0.0318,-0.0374 -0.0389,-0.01 v 0 c -0.009,0.0484 -0.0141,0.0979 -0.0275,0.14532 -0.0311,0.1103 -0.083,0.21399 -0.11284,0.32479 -0.01,0.0628 0.0792,0.0765 0.0888,0.0137 z"
         id="path10780"
         style="fill:#1f2123;fill-opacity:1;stroke:none;stroke-width:0.606908;stroke-linecap:round;stroke-miterlimit:4;stroke-dasharray:none;stroke-opacity:1;paint-order:markers stroke fill" />
      <path
         d="m 255.23784,165.83588 c 0.0207,-0.0204 0.046,-0.037 0.062,-0.0612 0.0275,-0.0417 0.0406,-0.0916 0.0668,-0.13406 0.0341,-0.0552 0.0773,-0.10428 0.11345,-0.15812 0.0351,-0.0522 0.0668,-0.10653 0.10017,-0.15979 0.0103,-0.0159 -0.0122,-0.0306 -0.0226,-0.0147 v 0 c -0.13605,0.20353 -0.0697,0.11273 -0.22316,0.30766 -0.0278,0.0353 -0.0517,0.0741 -0.0837,0.10557 -0.0131,0.0129 -0.0327,0.0166 -0.049,0.0249 -0.0634,0.0254 -0.0275,0.11506 0.0359,0.0897 z"
         id="path10782"
         style="fill:#1f2123;fill-opacity:1;stroke:none;stroke-width:0.609774;stroke-linecap:round;stroke-miterlimit:4;stroke-dasharray:none;stroke-opacity:1;paint-order:markers stroke fill" />
      <path
         d="m 255.29574,165.80563 c -0.009,-0.14478 0.0306,-0.28685 0.0639,-0.42624 0.006,-0.0234 -0.0268,-0.0323 -0.0332,-0.009 v 0 c -0.0123,0.0479 -0.0211,0.0969 -0.0368,0.14393 -0.0157,0.0472 -0.0407,0.0908 -0.057,0.13775 -0.0131,0.0378 -0.028,0.1075 -0.0381,0.15342 0,0.0716 0.10118,0.0716 0.10118,0 z"
         id="path10784"
         style="fill:#1f2123;fill-opacity:1;stroke:none;stroke-width:0.609774;stroke-linecap:round;stroke-miterlimit:4;stroke-dasharray:none;stroke-opacity:1;paint-order:markers stroke fill" />
      <path
         d="m 251.15264,165.62022 c -0.006,-0.0881 -0.0178,-0.18587 0.002,-0.27264 0.0164,-0.0716 0.0503,-0.13807 0.0754,-0.2071 0.002,-0.005 -0.005,-0.008 -0.007,-0.003 v 0 c -0.0357,0.087 -0.11773,0.27585 -0.14303,0.37532 -0.009,0.0349 -0.008,0.0715 -0.0119,0.1072 0,0.0598 0.0845,0.0598 0.0845,0 z"
         id="path10786"
         style="fill:#1f2123;fill-opacity:1;stroke:none;stroke-width:0.611878;stroke-linecap:round;stroke-miterlimit:4;stroke-dasharray:none;stroke-opacity:1;paint-order:markers stroke fill" />
      <path
         d="m 251.2213,165.56221 c 0.12382,-0.31164 0.0406,-0.14985 0.26855,-0.47515 0.003,-0.005 -0.003,-0.009 -0.007,-0.004 v 0 c -0.21156,0.33549 -0.10235,0.18942 -0.31743,0.44563 -0.0241,0.0394 0.0316,0.0735 0.0557,0.0341 z"
         id="path10788"
         style="fill:#1f2123;fill-opacity:1;stroke:none;stroke-width:0.611878;stroke-linecap:round;stroke-miterlimit:4;stroke-dasharray:none;stroke-opacity:1;paint-order:markers stroke fill" />
      <path
         d="m 251.29062,165.58725 c 0.0273,-0.015 0.0526,-0.034 0.0819,-0.0449 0.0519,-0.0194 0.4065,-0.11155 0.41587,-0.11386 0.31297,-0.0773 0.25158,-0.0623 0.52765,-0.10826 2.3e-4,-6e-5 2.2e-4,-4.6e-4 -8e-5,-4.6e-4 v 0 c -0.61767,0.10431 0.27179,-0.0486 -0.5291,0.10113 -0.0852,0.016 -0.17078,0.0304 -0.25671,0.0418 -0.0617,0.008 -0.12481,0.005 -0.18598,0.0172 -0.0384,0.007 -0.0737,0.0259 -0.11047,0.0389 -0.0484,0.0403 0.009,0.10876 0.057,0.0684 z"
         id="path10790"
         style="fill:#1f2123;fill-opacity:1;stroke:none;stroke-width:0.611878;stroke-linecap:round;stroke-miterlimit:4;stroke-dasharray:none;stroke-opacity:1;paint-order:markers stroke fill" />
      <path
         d="m 252.57139,165.71312 c 0.0847,-0.10589 0.0315,-0.0493 0.16491,-0.15826 0.0551,-0.045 0.10614,-0.0953 0.16507,-0.13503 0.0715,-0.0483 0.14986,-0.0854 0.22478,-0.12808 -0.006,0.004 -0.001,0.0119 0.005,0.008 v 0 c -0.0981,0.0527 -0.31351,0.16628 -0.41531,0.22843 -0.041,0.025 -0.079,0.0545 -0.11902,0.0811 -0.027,0.018 -0.0547,0.0349 -0.0821,0.0523 -0.0361,0.0402 0.0206,0.0912 0.0568,0.0511 z"
         id="path10792"
         style="fill:#1f2123;fill-opacity:1;stroke:none;stroke-width:0.523;stroke-linecap:round;stroke-miterlimit:4;stroke-dasharray:none;stroke-opacity:1;paint-order:markers stroke fill" />
      <path
         d="m 252.49824,165.75676 c 0.0133,-0.0127 0.0289,-0.0235 0.0398,-0.0383 0.0137,-0.0187 0.0233,-0.0402 0.0332,-0.0612 0.0126,-0.0266 0.0258,-0.0531 0.0342,-0.0813 0.0101,-0.034 0.0402,-0.19385 0.0476,-0.23224 0.005,-0.0292 -0.0358,-0.0368 -0.0413,-0.008 v 0 c -0.0243,0.13492 -0.009,0.0853 -0.0581,0.21586 -0.009,0.0253 -0.0164,0.0519 -0.0299,0.0752 -0.0151,0.026 -0.0427,0.0444 -0.0659,0.0622 -0.0477,0.0286 -0.007,0.0961 0.0405,0.0675 z"
         id="path10794"
         style="fill:#1f2123;fill-opacity:1;stroke:none;stroke-width:0.523;stroke-linecap:round;stroke-miterlimit:4;stroke-dasharray:none;stroke-opacity:1;paint-order:markers stroke fill" />
      <path
         d="m 254.03175,165.60555 c 0.16363,-0.11688 0.34722,-0.2026 0.52546,-0.29394 -0.003,0.002 -8.6e-4,0.006 0.002,0.004 v 0 c -0.0874,0.0374 -0.17367,0.0773 -0.2621,0.11211 -0.1015,0.0399 -0.20717,0.0684 -0.30894,0.10762 -0.0495,0.0309 -0.006,0.10083 0.0437,0.0699 z"
         id="path10796"
         style="fill:#1f2123;fill-opacity:1;stroke:none;stroke-width:0.606908;stroke-linecap:round;stroke-miterlimit:4;stroke-dasharray:none;stroke-opacity:1;paint-order:markers stroke fill" />
      <path
         d="m 254.06095,165.55757 c 0.0445,-0.0478 0.0846,-0.10027 0.13357,-0.1435 0.1619,-0.14277 0.33347,-0.25078 0.51148,-0.37153 -8.6e-4,6.8e-4 -3e-5,0.003 8.7e-4,0.002 v 0 c -0.22793,0.15305 -0.45387,0.30979 -0.69011,0.44995 -0.045,0.0311 -8.6e-4,0.0946 0.044,0.0635 z"
         id="path10798"
         style="fill:#1f2123;fill-opacity:1;stroke:none;stroke-width:0.606908;stroke-linecap:round;stroke-miterlimit:4;stroke-dasharray:none;stroke-opacity:1;paint-order:markers stroke fill" />
      <path
         d="m 255.30445,165.76254 c -0.008,-0.0235 -0.0149,-0.0472 -0.0223,-0.0707 -0.0142,-0.0453 -0.0283,-0.0906 -0.0425,-0.13595 -0.0268,-0.0721 -0.0562,-0.14323 -0.0804,-0.21622 -0.0238,-0.0721 -0.0424,-0.14582 -0.0636,-0.21873 -0.003,-0.0123 -0.021,-0.007 -0.0174,0.005 v 0 c 0.0661,0.2013 0.0837,0.22952 0.11927,0.43924 0.007,0.0433 0.0114,0.0872 0.0118,0.13102 2e-4,0.0223 -0.007,0.0441 -0.01,0.0662 0,0.0743 0.10507,0.0743 0.10507,0 z"
         id="path10800"
         style="fill:#1f2123;fill-opacity:1;stroke:none;stroke-width:0.609774;stroke-linecap:round;stroke-miterlimit:4;stroke-dasharray:none;stroke-opacity:1;paint-order:markers stroke fill" />
      <path
         d="m 256.11876,165.6713 c 0.0177,-0.0208 0.037,-0.0403 0.053,-0.0623 0.0527,-0.072 0.17868,-0.26897 0.21859,-0.33047 0.004,-0.006 -0.004,-0.0116 -0.008,-0.006 v 0 c -0.0712,0.0896 -0.16044,0.21181 -0.24883,0.29209 -0.0216,0.0196 -0.0482,0.0326 -0.0724,0.0489 -0.0407,0.0407 0.0168,0.0984 0.0577,0.0577 z"
         id="path10802"
         style="fill:#1f2123;fill-opacity:1;stroke:none;stroke-width:0.603294;stroke-linecap:round;stroke-miterlimit:4;stroke-dasharray:none;stroke-opacity:1;paint-order:markers stroke fill" />
      <path
         d="m 254.65102,165.92379 c 0.0327,-0.0222 0.0657,-0.044 0.098,-0.0667 0.0525,-0.0367 0.10681,-0.071 0.15667,-0.11115 0.11792,-0.095 0.22992,-0.20824 0.33855,-0.31371 0.003,-0.003 -8.7e-4,-0.007 -0.004,-0.003 v 0 c -0.10978,0.10788 -0.2119,0.2192 -0.34423,0.30168 -0.0873,0.0545 -0.17121,0.0748 -0.26537,0.10248 -0.0645,0.0143 -0.0443,0.10563 0.0203,0.0913 z"
         id="path10804"
         style="fill:#1f2123;fill-opacity:1;stroke:none;stroke-width:0.609774;stroke-linecap:round;stroke-miterlimit:4;stroke-dasharray:none;stroke-opacity:1;paint-order:markers stroke fill" />
      <path
         d="m 252.86422,165.72699 c 0.0148,-0.0431 -0.006,0.011 0.0574,-0.068 0.0267,-0.0332 0.0465,-0.0718 0.0741,-0.10415 0.0323,-0.0379 0.0699,-0.0709 0.10523,-0.10583 0.12034,-0.11916 0.0663,-0.0785 0.17899,-0.14769 0.0282,-0.0243 -0.006,-0.0643 -0.0344,-0.04 v 0 c -0.0215,0.0202 -0.0436,0.0398 -0.0644,0.0607 -0.12302,0.12331 -0.0807,0.091 -0.20828,0.21051 -0.0302,0.0283 -0.062,0.055 -0.093,0.0825 -0.0203,0.018 -0.0413,0.0352 -0.0608,0.054 -0.0124,0.0119 -0.0232,0.0253 -0.0348,0.038 -0.0142,0.0565 0.0659,0.0765 0.08,0.02 z"
         id="path10806"
         style="fill:#1f2123;fill-opacity:1;stroke:none;stroke-width:0.523;stroke-linecap:round;stroke-miterlimit:4;stroke-dasharray:none;stroke-opacity:1;paint-order:markers stroke fill" />
      <path
         d="m 256.95247,165.61151 c 0.0302,-0.0381 0.1011,-0.12876 0.12481,-0.15039 0.0512,-0.0468 0.11092,-0.0833 0.16434,-0.1275 0.29892,-0.24733 0.0516,-0.0702 0.34243,-0.26676 0.0102,-0.008 -8.5e-4,-0.0224 -0.0113,-0.0144 v 0 c -0.0526,0.0403 -0.10584,0.0798 -0.15787,0.12094 -0.0614,0.0485 -0.11875,0.10236 -0.18254,0.1477 -0.0571,0.0406 -0.12021,0.0719 -0.17933,0.10952 -0.11102,0.0706 -0.0995,0.0643 -0.18296,0.13148 -0.035,0.0583 0.0474,0.10767 0.0824,0.0494 z"
         id="path10808"
         style="fill:#1f2123;fill-opacity:1;stroke:none;stroke-width:0.603294;stroke-linecap:round;stroke-miterlimit:4;stroke-dasharray:none;stroke-opacity:1;paint-order:markers stroke fill" />
    </g>
  </g>
</svg>
