<?xml version="1.0" encoding="UTF-8" standalone="no"?>
<svg
   xmlns:dc="http://purl.org/dc/elements/1.1/"
   xmlns:cc="http://creativecommons.org/ns#"
   xmlns:rdf="http://www.w3.org/1999/02/22-rdf-syntax-ns#"
   xmlns:svg="http://www.w3.org/2000/svg"
   xmlns="http://www.w3.org/2000/svg"
   xmlns:sodipodi="http://sodipodi.sourceforge.net/DTD/sodipodi-0.dtd"
   xmlns:inkscape="http://www.inkscape.org/namespaces/inkscape"
   inkscape:export-ydpi="96"
   inkscape:export-xdpi="96"
   inkscape:export-filename="D:\Calcatz\Icon Pack\Adventure Narative Inspired by Arrival\GUI\Settings\png\progress_bar - background_detail_1.png"
   sodipodi:docname="progress_bar - background_detail_1.svg"
   inkscape:version="1.0 (4035a4fb49, 2020-05-01)"
   id="svg2906"
   version="1.1"
   viewBox="0 0 6.2240772 1.2941995"
   height="1.2941995mm"
   width="6.2240772mm">
  <defs
     id="defs2900" />
  <sodipodi:namedview
     fit-margin-bottom="0"
     fit-margin-right="0"
     fit-margin-left="0"
     fit-margin-top="0"
     inkscape:window-maximized="1"
     inkscape:window-y="-8"
     inkscape:window-x="-8"
     inkscape:window-height="705"
     inkscape:window-width="1366"
     showgrid="false"
     inkscape:document-rotation="0"
     inkscape:current-layer="layer1"
     inkscape:document-units="mm"
     inkscape:cy="3.8552048"
     inkscape:cx="15.06878"
     inkscape:zoom="15.186322"
     inkscape:pageshadow="2"
     inkscape:pageopacity="0.0"
     borderopacity="1.0"
     bordercolor="#666666"
     pagecolor="#ffffff"
     id="base" />
  <metadata
     id="metadata2903">
    <rdf:RDF>
      <cc:Work
         rdf:about="">
        <dc:format>image/svg+xml</dc:format>
        <dc:type
           rdf:resource="http://purl.org/dc/dcmitype/StillImage" />
        <dc:title></dc:title>
      </cc:Work>
    </rdf:RDF>
  </metadata>
  <g
     transform="translate(-105.69424,-127.08201)"
     id="layer1"
     inkscape:groupmode="layer"
     inkscape:label="Layer 1">
    <g
       id="g10760"
       transform="matrix(0.82151392,0,0,0.82151392,-64.322809,-8.3675553)">
      <path
         d="m 212.30767,166.26954 c 0.15275,-0.17898 0.34097,-0.40675 0.50831,-0.55239 0.14663,-0.12761 0.31247,-0.23131 0.46871,-0.34696 0.0827,-0.0656 -0.0101,-0.18259 -0.0928,-0.11699 v 0 c -0.15073,0.12441 -0.2964,0.25522 -0.45219,0.37323 -0.20068,0.15199 -0.42221,0.27509 -0.61861,0.43322 -0.14842,0.13193 0.0382,0.34181 0.18656,0.20989 z"
         id="path10716"
         style="fill:#1f2123;fill-opacity:1;stroke:none;stroke-width:0.702;stroke-linecap:round;stroke-miterlimit:4;stroke-dasharray:none;stroke-opacity:1;paint-order:markers stroke fill" />
      <path
         d="m 208.52004,166.04458 c -0.0105,-0.18316 -0.002,-0.26038 -0.0749,-0.44445 -0.0588,-0.14922 -0.15515,-0.27236 -0.24597,-0.40148 -0.12422,-0.14421 -0.32816,0.0315 -0.20394,0.17568 v 0 c 0.0304,0.0423 0.0603,0.085 0.0912,0.12696 0.0396,0.0537 0.0954,0.0979 0.12048,0.15974 0.0232,0.0573 0.0239,0.32665 0.0252,0.38355 0,0.20353 0.28783,0.20353 0.28783,0 z"
         id="path10718"
         style="fill:#1f2123;fill-opacity:1;stroke:none;stroke-width:0.702;stroke-linecap:round;stroke-miterlimit:4;stroke-dasharray:none;stroke-opacity:1;paint-order:markers stroke fill" />
      <path
         d="m 208.50172,166.04793 c 0.0223,-0.0801 0.13344,-0.48589 0.15662,-0.53069 0.055,-0.10622 0.12795,-0.20462 0.2129,-0.2888 0.0509,-0.0505 0.12441,-0.0714 0.18661,-0.1071 0.13825,-0.13928 -0.0587,-0.33479 -0.19696,-0.19552 v 0 c -0.19801,0.3178 -0.0775,0.14385 -0.37704,0.51083 -0.11101,0.16836 -0.16096,0.37187 -0.27813,0.53728 -0.0523,0.2093 0.24367,0.2833 0.296,0.074 z"
         id="path10720"
         style="fill:#1f2123;fill-opacity:1;stroke:none;stroke-width:0.702;stroke-linecap:round;stroke-miterlimit:4;stroke-dasharray:none;stroke-opacity:1;paint-order:markers stroke fill" />
      <path
         d="m 210.50973,166.08238 c 0.16158,-0.46584 0.0532,-0.21504 0.35323,-0.73957 0.0444,-0.0719 -0.0572,-0.13461 -0.10163,-0.0628 v 0 c -0.39141,0.47253 -0.20936,0.26586 -0.53916,0.62612 -0.12461,0.20331 0.16292,0.37954 0.28753,0.17623 z"
         id="path10722"
         style="fill:#1f2123;fill-opacity:1;stroke:none;stroke-width:0.702;stroke-linecap:round;stroke-miterlimit:4;stroke-dasharray:none;stroke-opacity:1;paint-order:markers stroke fill" />
      <path
         d="m 212.56503,165.89901 c 0.0264,-0.10596 0.13392,-0.53914 0.15132,-0.60197 0.0257,-0.0929 0.0567,-0.18432 0.0851,-0.27648 0.0209,-0.0692 -0.077,-0.0988 -0.0979,-0.0296 v 0 c -0.0206,0.0934 -0.0305,0.18984 -0.0619,0.28019 -0.0347,0.0999 -0.19991,0.43458 -0.26037,0.55896 -0.0487,0.12993 0.13503,0.19884 0.18376,0.0689 z"
         id="path10724"
         style="fill:#1f2123;fill-opacity:1;stroke:none;stroke-width:0.702;stroke-linecap:round;stroke-miterlimit:4;stroke-dasharray:none;stroke-opacity:1;paint-order:markers stroke fill" />
      <path
         d="m 210.50862,165.77129 c -0.0179,-0.10916 -0.0736,-0.20972 -0.0903,-0.31896 -0.008,-0.0509 0.002,-0.10309 0.003,-0.15463 -0.0123,-0.0847 -0.13216,-0.0672 -0.1198,0.0175 v 0 c 0.009,0.0501 0.0186,0.10008 0.028,0.15015 0.0412,0.23386 0.0426,0.13317 0.009,0.33076 0.0175,0.12034 0.18773,0.0955 0.17017,-0.0248 z"
         id="path10726"
         style="fill:#1f2123;fill-opacity:1;stroke:none;stroke-width:0.702;stroke-linecap:round;stroke-miterlimit:4;stroke-dasharray:none;stroke-opacity:1;paint-order:markers stroke fill" />
      <path
         d="m 210.58,165.82112 c 0.17671,-0.15413 -0.0472,0.0458 0.16824,-0.16701 0.0445,-0.044 0.0884,-0.0891 0.1381,-0.12718 0.13718,-0.10501 0.18174,-0.11969 0.32128,-0.18714 0.0721,-0.0392 0.0166,-0.14127 -0.0555,-0.102 v 0 c -0.0379,0.0376 -0.0698,0.0821 -0.11346,0.11266 -0.0633,0.0443 -0.13782,0.0698 -0.20405,0.10951 -0.0539,0.0323 -0.10273,0.0724 -0.15581,0.106 -0.21495,0.13587 -0.04,0.009 -0.18054,0.11406 -0.0997,0.0578 -0.018,0.19887 0.0818,0.14105 z"
         id="path10728"
         style="fill:#1f2123;fill-opacity:1;stroke:none;stroke-width:0.702;stroke-linecap:round;stroke-miterlimit:4;stroke-dasharray:none;stroke-opacity:1;paint-order:markers stroke fill" />
      <path
         d="m 208.59766,165.90682 c 0.0227,-0.0314 0.0428,-0.0648 0.0682,-0.0941 0.11396,-0.13157 0.23643,-0.24937 0.38948,-0.33755 0.11521,-0.0664 0.24164,-0.11101 0.36246,-0.16651 -0.0111,0.005 -0.005,0.0204 0.007,0.0158 v 0 c -0.12978,0.039 -0.26364,0.0663 -0.38934,0.11688 -0.15673,0.0631 -0.32778,0.17906 -0.46173,0.28594 -0.0342,0.0273 -0.0642,0.0594 -0.0963,0.089 -0.064,0.0854 0.0567,0.17593 0.12073,0.0906 z"
         id="path10730"
         style="fill:#1f2123;fill-opacity:1;stroke:none;stroke-width:0.702;stroke-linecap:round;stroke-miterlimit:4;stroke-dasharray:none;stroke-opacity:1;paint-order:markers stroke fill" />
      <path
         d="m 213.7951,165.87377 c 7.9e-4,-0.11648 -0.003,-0.32203 0.0237,-0.42472 0.0185,-0.0718 0.0631,-0.13414 0.0947,-0.20121 0.0202,-0.0615 -0.0668,-0.0901 -0.087,-0.0285 v 0 c -0.0222,0.0729 -0.0438,0.14597 -0.0665,0.21869 -0.0982,0.31365 -0.0649,0.15469 -0.10451,0.40085 -0.0247,0.0988 0.11508,0.13379 0.13979,0.0349 z"
         id="path10732"
         style="fill:#1f2123;fill-opacity:1;stroke:none;stroke-width:0.702;stroke-linecap:round;stroke-miterlimit:4;stroke-dasharray:none;stroke-opacity:1;paint-order:markers stroke fill" />
      <path
         d="m 209.37226,165.87666 c 0.13987,-0.41517 0.0547,-0.1828 0.26641,-0.69299 -0.002,0.004 0.004,0.007 0.006,0.003 v 0 c -0.25701,0.48562 -0.12742,0.2779 -0.37144,0.63365 -0.0401,0.0701 0.0591,0.12673 0.0991,0.0566 z"
         id="path10734"
         style="fill:#1f2123;fill-opacity:1;stroke:none;stroke-width:0.702;stroke-linecap:round;stroke-miterlimit:4;stroke-dasharray:none;stroke-opacity:1;paint-order:markers stroke fill" />
      <path
         d="m 209.00065,165.96724 c 0.0388,-0.0264 0.0754,-0.0563 0.1164,-0.0792 0.18572,-0.10387 0.53902,-0.24956 0.69439,-0.3183 0.26611,-0.11774 0.53188,-0.23627 0.79782,-0.35441 0.002,-0.001 7.9e-4,-0.004 -0.001,-0.003 v 0 c -0.29636,0.12507 -0.91805,0.40186 -1.28118,0.5155 -0.0513,0.0161 -0.30935,0.0622 -0.39534,0.078 -0.11424,0.049 -0.045,0.21052 0.0693,0.16156 z"
         id="path10736"
         style="fill:#1f2123;fill-opacity:1;stroke:none;stroke-width:0.702;stroke-linecap:round;stroke-miterlimit:4;stroke-dasharray:none;stroke-opacity:1;paint-order:markers stroke fill" />
      <path
         d="m 209.94503,165.80703 c 0.12128,-0.21388 0.19793,-0.37288 0.37268,-0.56067 0.084,-0.0903 0.1878,-0.16007 0.2817,-0.2401 0.0139,-0.0122 -0.003,-0.0318 -0.0172,-0.0196 v 0 c -0.0882,0.0866 -0.17853,0.17096 -0.26455,0.25967 -0.16242,0.16751 -0.31249,0.34673 -0.47848,0.5109 -0.0352,0.0749 0.0707,0.12469 0.10587,0.0498 z"
         id="path10738"
         style="fill:#1f2123;fill-opacity:1;stroke:none;stroke-width:0.702;stroke-linecap:round;stroke-miterlimit:4;stroke-dasharray:none;stroke-opacity:1;paint-order:markers stroke fill" />
      <path
         sodipodi:nodetypes="cssssssssssssssssssssssssssssssccccc"
         id="path10740"
         d="m 206.95577,165.87331 c 0,0 0.52413,-0.13155 1.09628,-0.19171 0.0896,-0.009 0.11906,-0.0634 0.10252,-0.0993 -0.0108,-0.0235 0.21484,0.0597 0.24035,0.057 0.0308,-0.003 0.0615,-0.006 0.092,-0.009 0.0316,-0.003 0.16215,-0.1159 0.15926,-0.085 -0.004,0.04 0.003,0.0715 0.0366,0.0694 0.13405,-0.009 0.25952,-0.0119 0.36877,-0.007 0.0827,0.004 0.16394,0.0172 0.24468,0.0344 0.0329,0.007 0.0958,-5.3e-4 0.12356,-0.0267 0.005,-0.005 -0.0109,0.0525 -0.004,0.0542 0.12152,0.029 0.24268,0.0592 0.36622,0.0692 0.0332,0.003 0.083,-0.0112 0.12164,-0.0433 0.009,-0.007 0.002,0.0459 0.0132,0.0454 0.125,-0.006 0.24375,-0.0303 0.36057,-0.0601 0.0419,-0.0107 0.0773,-0.0208 0.0773,-0.0851 2e-5,-0.0117 0.0704,0.0453 0.0817,0.0422 0.17724,-0.049 0.3546,-0.0969 0.54748,-0.0974 0.23477,-6.2e-4 0.44222,0.10969 0.67436,0.14478 0.18113,0.0274 0.36637,-0.0911 0.54956,-0.0895 0.0552,4.7e-4 0.11068,0.004 0.16619,0.009 0.0504,0.005 0.1008,0.004 0.14236,-0.0487 0.0126,-0.0159 0.0489,0.0742 0.0689,0.0776 0.059,0.01 0.12659,0.008 0.21023,-0.0471 0.008,-0.005 -0.0162,0.0827 -0.007,0.0844 0.0406,0.008 0.081,0.0156 0.12124,0.0231 0.12245,0.0227 0.25064,0.0391 0.37324,0.061 0.0773,0.0138 0.1549,0.0121 0.23238,0.004 0.0644,-0.007 0.12728,-0.0114 0.16242,-0.1069 0.005,-0.0148 0.0614,0.0709 0.0769,0.0682 0.14519,-0.0251 0.28883,-0.0424 0.42869,0.007 0.14124,0.0497 0.34875,0.28317 0.34875,0.28317 l -1.359,0.35262 -3.61392,0.0902 -1.85752,-0.23569 z"
         style="fill:#1f2123;fill-opacity:1;stroke:none;stroke-width:0.264583px;stroke-linecap:butt;stroke-linejoin:miter;stroke-opacity:1" />
      <path
         d="m 210.7711,165.58957 c 0.0275,-0.0369 0.0478,-0.0787 0.0756,-0.11533 0.025,-0.033 0.0543,-0.0625 0.0801,-0.0949 0.0334,-0.042 0.0631,-0.087 0.0975,-0.12819 0.044,-0.0526 0.14538,-0.15935 0.2002,-0.2176 0.005,-0.006 -0.003,-0.0134 -0.008,-0.007 v 0 c -0.10881,0.14368 -0.0373,0.0546 -0.19064,0.22617 -0.0357,0.0399 -0.0698,0.0814 -0.10658,0.12028 -0.0287,0.0303 -0.0595,0.0587 -0.0899,0.0873 -0.11217,0.10571 -0.0239,0.0165 -0.0966,0.0911 -0.0273,0.0273 0.0113,0.0658 0.0385,0.0386 z"
         id="path10742"
         style="fill:#1f2123;fill-opacity:1;stroke:none;stroke-width:0.702;stroke-linecap:round;stroke-miterlimit:4;stroke-dasharray:none;stroke-opacity:1;paint-order:markers stroke fill" />
      <path
         d="m 212.56035,165.64424 c -0.007,-0.022 -0.0158,-0.0436 -0.0213,-0.0661 -0.0325,-0.13173 -0.0367,-0.26769 -0.0547,-0.40163 -0.006,-0.0408 -0.0133,-0.0812 -0.0199,-0.1218 -5.3e-4,-0.004 -0.006,-0.003 -0.005,8e-4 v 0 c 0.009,0.0403 0.0218,0.0799 0.0274,0.12076 0.007,0.0509 0.008,0.10244 0.0104,0.15372 0.003,0.0479 0.004,0.0959 0.007,0.14386 0.002,0.0363 0.005,0.0725 0.006,0.10882 5.3e-4,0.0205 -0.002,0.0411 -0.003,0.0616 0,0.0378 0.0534,0.0378 0.0534,0 z"
         id="path10744"
         style="fill:#1f2123;fill-opacity:1;stroke:none;stroke-width:0.702;stroke-linecap:round;stroke-miterlimit:4;stroke-dasharray:none;stroke-opacity:1;paint-order:markers stroke fill" />
      <path
         d="m 212.6263,165.66306 c 0.0253,-0.0568 0.0304,-0.0728 0.0683,-0.13128 0.0195,-0.0301 0.0386,-0.0609 0.0629,-0.0873 0.0566,-0.0616 0.0883,-0.0747 0.1555,-0.1144 0.014,-0.009 10e-4,-0.0289 -0.0127,-0.0199 v 0 c -0.0157,0.0132 -0.14622,0.12252 -0.15116,0.12742 -0.0259,0.0256 -0.0474,0.0554 -0.0712,0.0829 -0.0778,0.0899 -0.0408,0.0415 -0.0979,0.12196 -0.0145,0.0327 0.0317,0.0533 0.0463,0.0206 z"
         id="path10746"
         style="fill:#1f2123;fill-opacity:1;stroke:none;stroke-width:0.702;stroke-linecap:round;stroke-miterlimit:4;stroke-dasharray:none;stroke-opacity:1;paint-order:markers stroke fill" />
      <path
         d="m 212.87379,165.68885 c 0.028,-0.0133 0.0553,-0.0282 0.0841,-0.0399 0.0486,-0.0197 0.0984,-0.0362 0.14778,-0.054 0.24297,-0.0876 0.14684,-0.0551 0.38598,-0.12833 5.3e-4,-1.3e-4 2.4e-4,-7.9e-4 -1.9e-4,-5.3e-4 v 0 c -0.0627,0.0189 -0.12562,0.0371 -0.18812,0.0566 -0.14571,0.0456 -0.29001,0.10076 -0.4421,0.12231 -0.031,0.009 -0.0185,0.0527 0.0125,0.0439 z"
         id="path10748"
         style="fill:#1f2123;fill-opacity:1;stroke:none;stroke-width:0.702;stroke-linecap:round;stroke-miterlimit:4;stroke-dasharray:none;stroke-opacity:1;paint-order:markers stroke fill" />
      <path
         d="m 212.03588,165.7096 c -0.007,-0.0539 -0.0126,-0.0839 -0.011,-0.14133 0.001,-0.0351 0.005,-0.07 0.009,-0.10486 0.004,-0.045 0.005,-0.0907 0.0149,-0.13496 0.007,-0.0348 0.0237,-0.0671 0.0356,-0.10059 0.003,-0.0101 -0.0113,-0.0142 -0.0143,-0.004 v 0 c -0.008,0.0348 -0.0145,0.0698 -0.0229,0.1044 -0.0107,0.0445 -0.0258,0.0879 -0.0345,0.13283 -0.007,0.0353 -0.008,0.0715 -0.012,0.1073 -0.0134,0.12841 -10e-4,0.036 -0.0162,0.14133 0,0.0364 0.0515,0.0364 0.0515,0 z"
         id="path10750"
         style="fill:#1f2123;fill-opacity:1;stroke:none;stroke-width:0.702;stroke-linecap:round;stroke-miterlimit:4;stroke-dasharray:none;stroke-opacity:1;paint-order:markers stroke fill" />
      <path
         d="m 211.94466,165.77586 c 0.006,-0.0112 0.0116,-0.0229 0.0186,-0.0336 0.0101,-0.0154 0.0228,-0.0291 0.0328,-0.0446 0.015,-0.0232 0.0281,-0.0475 0.0422,-0.0713 0.0179,-0.0301 0.036,-0.0601 0.0537,-0.0904 0.0186,-0.0317 0.0363,-0.064 0.055,-0.0956 0.0161,-0.0271 0.0329,-0.0536 0.0494,-0.0804 0.0136,-0.0192 0.0271,-0.0385 0.0407,-0.0577 0.0117,-0.0186 -0.0145,-0.0351 -0.0262,-0.0166 v 0 c -0.0109,0.0213 -0.0218,0.0426 -0.0327,0.0639 -0.0193,0.0362 -0.0782,0.14781 -0.0982,0.17858 -0.0325,0.05 -0.0763,0.0995 -0.11451,0.14573 -0.0115,0.0139 -0.0214,0.0294 -0.0344,0.0419 -0.008,0.008 -0.0186,0.0122 -0.028,0.0184 -0.0294,0.0294 0.0122,0.0711 0.0416,0.0416 z"
         id="path10752"
         style="fill:#1f2123;fill-opacity:1;stroke:none;stroke-width:0.702;stroke-linecap:round;stroke-miterlimit:4;stroke-dasharray:none;stroke-opacity:1;paint-order:markers stroke fill" />
      <path
         d="m 211.52023,165.76142 c 0.0701,-0.0921 0.0747,-0.10257 0.16884,-0.19956 0.0429,-0.0442 0.0887,-0.0854 0.13299,-0.12814 0.002,-0.002 -5.3e-4,-0.004 -0.002,-0.002 v 0 c -0.0425,0.0446 -0.0821,0.0921 -0.12746,0.13385 -0.0127,0.0117 -0.16734,0.13208 -0.2038,0.16054 -0.0252,0.0224 0.006,0.0581 0.0317,0.0357 z"
         id="path10754"
         style="fill:#1f2123;fill-opacity:1;stroke:none;stroke-width:0.702;stroke-linecap:round;stroke-miterlimit:4;stroke-dasharray:none;stroke-opacity:1;paint-order:markers stroke fill" />
      <path
         d="m 213.69347,165.77244 c 0.006,-0.031 0.0172,-0.0609 0.0226,-0.0921 0.005,-0.0291 0.009,-0.0584 0.0111,-0.0879 0.002,-0.0351 1.8e-4,-0.0704 -5.3e-4,-0.10556 -0.001,-0.0795 -0.004,-0.1375 -0.007,-0.21508 -0.001,-0.0142 -0.0212,-0.0126 -0.02,0.002 v 0 c 0.0184,0.10298 0.0232,0.0973 0.0152,0.2127 -0.007,0.10705 -0.0139,0.0865 -0.0379,0.18233 -0.0179,0.0712 0.006,0.0398 -0.0343,0.0784 -0.0181,0.0362 0.0331,0.0619 0.0513,0.0256 z"
         id="path10756"
         style="fill:#1f2123;fill-opacity:1;stroke:none;stroke-width:0.702;stroke-linecap:round;stroke-miterlimit:4;stroke-dasharray:none;stroke-opacity:1;paint-order:markers stroke fill" />
      <path
         d="m 213.72118,165.67819 c -0.009,-0.0555 -0.0246,-0.15376 -0.0371,-0.20164 -0.0126,-0.0485 -0.03,-0.0957 -0.0451,-0.14349 0.001,0.005 0.008,0.003 0.006,-0.002 v 0 c 0.0107,0.0487 0.0254,0.0966 0.0322,0.14601 0.0136,0.0993 0.006,0.11413 -0.008,0.20086 0,0.0365 0.0516,0.0365 0.0516,0 z"
         id="path10758"
         style="fill:#1f2123;fill-opacity:1;stroke:none;stroke-width:0.702;stroke-linecap:round;stroke-miterlimit:4;stroke-dasharray:none;stroke-opacity:1;paint-order:markers stroke fill" />
    </g>
  </g>
</svg>
