<?xml version="1.0" encoding="UTF-8" standalone="no"?>
<svg
   xmlns:dc="http://purl.org/dc/elements/1.1/"
   xmlns:cc="http://creativecommons.org/ns#"
   xmlns:rdf="http://www.w3.org/1999/02/22-rdf-syntax-ns#"
   xmlns:svg="http://www.w3.org/2000/svg"
   xmlns="http://www.w3.org/2000/svg"
   xmlns:sodipodi="http://sodipodi.sourceforge.net/DTD/sodipodi-0.dtd"
   xmlns:inkscape="http://www.inkscape.org/namespaces/inkscape"
   inkscape:export-ydpi="96"
   inkscape:export-xdpi="96"
   inkscape:export-filename="D:\Calcatz\Icon Pack\Adventure Narative Inspired by Arrival\GUI\Settings\png\progress_bar - background_detail_3.png"
   sodipodi:docname="progress_bar - background_detail_3.svg"
   inkscape:version="1.0 (4035a4fb49, 2020-05-01)"
   id="svg2309"
   version="1.1"
   viewBox="0 0 7.9868898 1.2740501"
   height="1.2740501mm"
   width="7.9868898mm">
  <defs
     id="defs2303" />
  <sodipodi:namedview
     inkscape:window-maximized="1"
     inkscape:window-y="-8"
     inkscape:window-x="-8"
     inkscape:window-height="705"
     inkscape:window-width="1366"
     fit-margin-bottom="0"
     fit-margin-right="0"
     fit-margin-left="0"
     fit-margin-top="0"
     showgrid="false"
     inkscape:document-rotation="0"
     inkscape:current-layer="layer1"
     inkscape:document-units="mm"
     inkscape:cy="2.698223"
     inkscape:cx="17.251049"
     inkscape:zoom="10.738351"
     inkscape:pageshadow="2"
     inkscape:pageopacity="0.0"
     borderopacity="1.0"
     bordercolor="#666666"
     pagecolor="#ffffff"
     id="base" />
  <metadata
     id="metadata2306">
    <rdf:RDF>
      <cc:Work
         rdf:about="">
        <dc:format>image/svg+xml</dc:format>
        <dc:type
           rdf:resource="http://purl.org/dc/dcmitype/StillImage" />
        <dc:title></dc:title>
      </cc:Work>
    </rdf:RDF>
  </metadata>
  <g
     transform="translate(-101.83989,-147.52964)"
     id="layer1"
     inkscape:groupmode="layer"
     inkscape:label="Layer 1">
    <g
       transform="translate(-152.92078,-22.300158)"
       id="g10890">
      <path
         sodipodi:nodetypes="csssssssssssssssssscsssssccccc"
         id="path10812"
         d="m 254.76067,170.39166 c 0,0 0.62031,0.25729 1.12881,0.37469 0.0392,0.009 0.0812,0.003 0.10702,0.071 0.003,0.008 0.0256,-0.0432 0.0342,-0.0417 0.0422,0.008 0.083,0.0139 0.12189,0.0186 0.0276,0.003 0.11148,0.0774 0.10151,0.0539 -0.0188,-0.0445 0.0439,-0.0443 0.0766,-0.0455 0.3054,-0.0113 0.60311,-0.14967 0.91046,-0.1664 0.0589,-0.003 0.11778,-0.003 0.17665,-0.001 0.0152,4.9e-4 -0.01,0.0272 0.005,0.0246 0.0603,-0.0104 0.12167,-0.018 0.16235,-0.0147 0.1883,0.0152 0.37663,0.0406 0.56528,0.0411 0.005,10e-6 -0.002,0.0471 0.002,0.0434 0.0348,-0.0322 0.0965,-0.0448 0.13745,-0.0468 0.38407,-0.0189 0.76708,-0.10796 1.15033,-0.0793 0.2011,0.0151 0.394,0.0894 0.58953,0.14285 0.0402,0.011 0.1026,0.0281 0.11788,0.074 0.004,0.0132 0.0304,-0.0389 0.0441,-0.0364 0.0396,0.007 0.0794,0.0127 0.11958,0.0157 0.0128,9.9e-4 0.0549,0.0333 0.0777,0.0219 -0.006,-0.0206 0.0194,-0.0165 0.0632,-0.0211 0.24156,-0.0252 0.48052,-0.10483 0.72434,-0.11433 0.2704,-0.0105 0.54611,0.10821 0.81029,0.0496 0.02,-0.004 0.0321,0.054 0.0452,0.0353 0.0239,-0.0343 0.09,-0.079 0.12814,-0.0959 0.27001,-0.1202 0.58738,-0.35273 0.58738,-0.35273 l -1.52135,-0.51264 h -3.57188 l -1.67018,0.14883 z"
         style="fill:#1f2123;fill-opacity:1;stroke:none;stroke-width:0.264583px;stroke-linecap:butt;stroke-linejoin:miter;stroke-opacity:1" />
      <path
         d="m 255.9484,170.74443 c 0.0396,0.0363 0.0883,0.0786 0.12175,0.1203 0.0232,0.0288 0.0438,0.0597 0.0633,0.0911 0.0121,0.0196 0.0207,0.0412 0.031,0.0617 0.0187,0.0307 0.0621,0.004 0.0434,-0.0264 v 0 c -0.0641,-0.0894 -0.0299,-0.0374 -0.0987,-0.15831 -0.15251,-0.21471 0.0122,0.0636 -0.10074,-0.13518 -0.033,-0.0425 -0.0931,0.004 -0.0601,0.0467 z"
         id="path10814"
         style="fill:#1f2123;fill-opacity:1;stroke:none;stroke-width:0.702;stroke-linecap:round;stroke-miterlimit:4;stroke-dasharray:none;stroke-opacity:1;paint-order:markers stroke fill" />
      <path
         d="m 256.07355,170.80695 c 0.0167,0.0127 0.0333,0.0254 0.05,0.0381 0.0234,0.0124 0.0485,0.0219 0.0701,0.0372 0.0223,0.0157 0.0382,0.0392 0.0604,0.0551 0.0234,0.0168 0.0503,0.0279 0.0752,0.0422 0.0219,0.0125 0.0435,0.0254 0.0652,0.0381 0.0394,0.0189 0.0661,-0.0368 0.0267,-0.0557 v 0 c -0.021,-0.007 -0.0432,-0.0117 -0.0629,-0.0218 -0.0621,-0.0318 -0.0808,-0.0575 -0.13288,-0.10205 -0.0543,-0.0465 -0.0602,-0.0497 -0.11318,-0.0892 -0.0409,-0.0273 -0.0795,0.0306 -0.0386,0.0579 z"
         id="path10816"
         style="fill:#1f2123;fill-opacity:1;stroke:none;stroke-width:0.702;stroke-linecap:round;stroke-miterlimit:4;stroke-dasharray:none;stroke-opacity:1;paint-order:markers stroke fill" />
      <path
         d="m 255.99076,170.80412 c 0.005,0.0147 0.003,0.0283 0.003,0.0434 -5e-5,0.0105 0.002,0.021 5.3e-4,0.0315 -0.001,0.0116 -0.004,0.0228 -0.006,0.0343 -0.001,0.008 -0.003,0.0167 -0.004,0.0251 -0.005,0.0537 0.0706,0.0613 0.0759,0.008 v 0 c -1.2e-4,-0.007 -10e-4,-0.0149 -2.6e-4,-0.0223 0.002,-0.0258 0.01,-0.0521 0.01,-0.0781 -10e-6,-0.0144 -0.007,-0.0655 -0.0141,-0.0797 -0.007,-0.0135 -0.0185,-0.0239 -0.0277,-0.0359 -0.0524,-0.0262 -0.0895,0.0479 -0.0371,0.0742 z"
         id="path10818"
         style="fill:#1f2123;fill-opacity:1;stroke:none;stroke-width:0.702;stroke-linecap:round;stroke-miterlimit:4;stroke-dasharray:none;stroke-opacity:1;paint-order:markers stroke fill" />
      <path
         d="m 258.14637,170.6282 c -0.0208,0.0233 -0.0271,0.0553 -0.045,0.0802 -0.0147,0.0205 -0.0325,0.0386 -0.0505,0.0563 -0.0432,0.0423 -0.0872,0.0794 -0.14112,0.10736 -0.0191,0.01 -0.0403,0.0149 -0.0604,0.0224 -0.0123,0.002 -0.0246,0.003 -0.0369,0.005 -0.0416,0.0135 -0.0225,0.0722 0.019,0.0588 v 0 c 0.0156,-0.003 0.0311,-0.006 0.0467,-0.008 0.0249,-0.0152 0.11564,-0.0702 0.13353,-0.0837 0.0263,-0.02 0.0492,-0.0441 0.0744,-0.0654 0.023,-0.0194 0.0488,-0.0355 0.0701,-0.0567 0.0499,-0.0493 0.0439,-0.0542 0.0636,-0.11581 0,-0.052 -0.0735,-0.052 -0.0735,0 z"
         id="path10820"
         style="fill:#1f2123;fill-opacity:1;stroke:none;stroke-width:0.702;stroke-linecap:round;stroke-miterlimit:4;stroke-dasharray:none;stroke-opacity:1;paint-order:markers stroke fill" />
      <path
         d="m 260.12665,170.78866 c 0.009,0.007 0.0202,0.0128 0.028,0.0217 0.0133,0.0151 0.0236,0.0326 0.0345,0.0494 0.0499,0.0768 0.051,0.0826 0.0946,0.16256 0.0105,0.0219 0.0414,0.007 0.0309,-0.0148 v 0 c -0.0322,-0.081 -0.0635,-0.16324 -0.1042,-0.24054 -0.007,-0.0133 -0.0156,-0.0258 -0.0233,-0.0387 -0.0427,-0.0427 -0.10312,0.0177 -0.0604,0.0604 z"
         id="path10822"
         style="fill:#1f2123;fill-opacity:1;stroke:none;stroke-width:0.702;stroke-linecap:round;stroke-miterlimit:4;stroke-dasharray:none;stroke-opacity:1;paint-order:markers stroke fill" />
      <path
         d="m 260.20538,170.84454 c 0.019,0.003 0.0392,7.9e-4 0.0569,0.008 0.0235,0.01 0.043,0.027 0.0641,0.0412 0.0413,0.0277 0.0713,0.0447 0.0998,0.0856 0.006,0.008 0.007,0.0191 0.0101,0.0286 0.0292,0.0378 0.0826,-0.003 0.0534,-0.0413 v 0 c -0.0445,-0.0571 0.004,2.4e-4 -0.0756,-0.0688 -0.0198,-0.0171 -0.0353,-0.0391 -0.0563,-0.0546 -0.15494,-0.11505 0.004,0.0347 -0.11739,-0.0863 -0.0619,-0.0248 -0.0969,0.0628 -0.035,0.0875 z"
         id="path10824"
         style="fill:#1f2123;fill-opacity:1;stroke:none;stroke-width:0.702;stroke-linecap:round;stroke-miterlimit:4;stroke-dasharray:none;stroke-opacity:1;paint-order:markers stroke fill" />
      <path
         d="m 262.05416,170.65378 c -0.0152,0.0166 -0.0311,0.0326 -0.0455,0.0499 -0.0181,0.0219 -0.0325,0.0468 -0.0519,0.0676 -0.0427,0.0458 -0.0708,0.0593 -0.11902,0.0954 -0.034,0.0254 -0.0691,0.0547 -0.10201,0.0816 -0.0461,0.0337 -0.0252,0.0176 -0.0631,0.048 -0.0268,0.0515 0.0461,0.0895 0.0729,0.038 v 0 c -0.009,-0.0228 -0.007,-0.008 0.0252,-0.0377 0.0174,-0.0126 0.0357,-0.024 0.0522,-0.0377 0.0183,-0.0151 0.0347,-0.0325 0.0523,-0.0486 0.0175,-0.016 0.0351,-0.0319 0.053,-0.0474 0.0213,-0.0184 0.0438,-0.0356 0.0648,-0.0544 0.10109,-0.091 0.02,-0.0299 0.1112,-0.0945 0.0426,-0.0355 -0.008,-0.0956 -0.0502,-0.0602 z"
         id="path10826"
         style="fill:#1f2123;fill-opacity:1;stroke:none;stroke-width:0.702;stroke-linecap:round;stroke-miterlimit:4;stroke-dasharray:none;stroke-opacity:1;paint-order:markers stroke fill" />
      <path
         d="m 261.97168,170.70007 c -0.0261,0.0238 -0.0497,0.0506 -0.0782,0.0714 -0.0716,0.0521 -0.18374,0.11197 -0.26751,0.13977 -0.0428,0.0142 -0.0882,0.019 -0.13227,0.0285 -0.0143,0.003 -0.009,0.0237 0.005,0.0202 v 0 c 0.0438,-0.0129 0.0881,-0.0241 0.13135,-0.0386 0.13301,-0.0448 0.26023,-0.10349 0.38502,-0.16729 0.0382,-0.0305 -0.005,-0.0846 -0.0432,-0.054 z"
         id="path10828"
         style="fill:#1f2123;fill-opacity:1;stroke:none;stroke-width:0.702;stroke-linecap:round;stroke-miterlimit:4;stroke-dasharray:none;stroke-opacity:1;paint-order:markers stroke fill" />
      <path
         d="m 255.97067,170.76939 c -0.003,0.01 -0.004,0.0208 -0.009,0.0299 -0.032,0.0586 -0.0869,0.10092 -0.1362,0.14379 -0.006,0.005 5.2e-4,0.013 0.006,0.008 v 0 c 0.0198,-0.015 0.0405,-0.0289 0.0594,-0.0451 0.0434,-0.0373 0.0781,-0.0824 0.11638,-0.12458 0.009,-0.0264 -0.0286,-0.0389 -0.0374,-0.0125 z"
         id="path10830"
         style="fill:#1f2123;fill-opacity:1;stroke:none;stroke-width:0.702;stroke-linecap:round;stroke-miterlimit:4;stroke-dasharray:none;stroke-opacity:1;paint-order:markers stroke fill" />
      <path
         d="m 258.12189,170.71514 c -0.0319,0.0765 -0.001,0.011 -0.0561,0.0978 -0.0907,0.14313 -0.0139,0.0384 -0.10279,0.15342 -0.002,0.003 0.002,0.007 0.005,0.003 v 0 c 0.0141,-0.023 0.0259,-0.0475 0.0423,-0.0689 0.0214,-0.0278 0.0485,-0.0508 0.0707,-0.0779 0.13865,-0.16908 -0.0417,0.0336 0.0703,-0.0904 0.0123,-0.0205 -0.0167,-0.0379 -0.029,-0.0174 z"
         id="path10832"
         style="fill:#1f2123;fill-opacity:1;stroke:none;stroke-width:0.702;stroke-linecap:round;stroke-miterlimit:4;stroke-dasharray:none;stroke-opacity:1;paint-order:markers stroke fill" />
      <path
         d="m 258.12875,170.70264 c 10e-4,0.01 0.003,0.0193 0.003,0.0291 2.7e-4,0.011 -0.003,0.0221 -0.001,0.033 0.005,0.0377 0.0165,0.0464 0.0303,0.0822 0.005,0.0127 0.008,0.026 0.012,0.039 0.009,0.0188 0.0357,0.006 0.0265,-0.0129 v 0 c -0.0155,-0.0271 -0.0265,-0.0425 -0.0349,-0.0735 -0.008,-0.0304 -0.004,-0.0624 8e-4,-0.0928 0.003,-0.0261 -0.0341,-0.0302 -0.037,-0.004 z"
         id="path10834"
         style="fill:#1f2123;fill-opacity:1;stroke:none;stroke-width:0.702;stroke-linecap:round;stroke-miterlimit:4;stroke-dasharray:none;stroke-opacity:1;paint-order:markers stroke fill" />
      <path
         d="m 260.13572,170.78583 c 0.0163,0.0487 0.0124,0.0245 0.0115,0.0821 -2.4e-4,0.0156 -2.2e-4,0.0312 -10e-4,0.0468 -0.002,0.0393 10e-4,0.0284 -0.0121,0.0515 -0.003,0.0286 0.0373,0.033 0.0404,0.004 v 0 c -0.007,-0.028 -0.004,-0.0135 -0.006,-0.0555 -8e-4,-0.016 -0.003,-0.0321 -0.002,-0.0481 0.004,-0.0973 0.0109,-0.005 0.002,-0.0901 -0.006,-0.023 -0.0388,-0.0141 -0.0325,0.009 z"
         id="path10836"
         style="fill:#1f2123;fill-opacity:1;stroke:none;stroke-width:0.702;stroke-linecap:round;stroke-miterlimit:4;stroke-dasharray:none;stroke-opacity:1;paint-order:markers stroke fill" />
      <path
         d="m 260.30513,170.84386 c 0.008,0.002 0.0149,0.005 0.0226,0.005 0.27948,0.0303 -0.19131,-0.0316 0.2141,0.0241 10e-4,1.8e-4 10e-4,-0.001 2.5e-4,-0.002 v 0 c -0.0434,-0.008 -0.0875,-0.0127 -0.13016,-0.0242 -0.0372,-0.01 -0.0704,-0.0316 -0.10675,-0.044 -0.0284,0 -0.0284,0.0402 0,0.0402 z"
         id="path10838"
         style="fill:#1f2123;fill-opacity:1;stroke:none;stroke-width:0.702;stroke-linecap:round;stroke-miterlimit:4;stroke-dasharray:none;stroke-opacity:1;paint-order:markers stroke fill" />
      <path
         d="m 262.0488,170.70307 c -0.005,0.0162 -0.009,0.0326 -0.0146,0.0486 -0.009,0.0256 -0.0192,0.0506 -0.0279,0.0762 -0.0378,0.11153 -0.049,0.1517 -0.0817,0.26034 -2.5e-4,7.9e-4 10e-4,0.001 10e-4,2.6e-4 v 0 c 0.0319,-0.11248 0.0377,-0.14594 0.0863,-0.25796 0.0106,-0.0245 0.0236,-0.0481 0.0382,-0.0705 0.009,-0.0138 0.0218,-0.025 0.0326,-0.0374 0.0138,-0.0242 -0.0204,-0.0437 -0.0342,-0.0196 z"
         id="path10840"
         style="fill:#1f2123;fill-opacity:1;stroke:none;stroke-width:0.702;stroke-linecap:round;stroke-miterlimit:4;stroke-dasharray:none;stroke-opacity:1;paint-order:markers stroke fill" />
      <path
         d="m 261.98318,170.76382 c 5.3e-4,0.008 0.003,0.0154 0.002,0.023 -0.002,0.012 -0.007,0.0234 -0.012,0.0345 -0.0283,0.0652 -0.0507,0.1127 -0.10228,0.16595 -0.0274,0.0283 -0.0615,0.0493 -0.0922,0.0739 -0.002,0.002 5.3e-4,0.004 0.002,0.003 v 0 c 0.0587,-0.0564 0.10838,-0.10099 0.16068,-0.16344 0.0187,-0.0223 0.0355,-0.0463 0.0518,-0.0705 0.009,-0.0139 0.0222,-0.0414 0.0302,-0.0581 0.006,-0.0286 -0.0347,-0.0367 -0.0404,-0.008 z"
         id="path10842"
         style="fill:#1f2123;fill-opacity:1;stroke:none;stroke-width:0.702;stroke-linecap:round;stroke-miterlimit:4;stroke-dasharray:none;stroke-opacity:1;paint-order:markers stroke fill" />
      <path
         d="m 261.06747,170.70448 c 0.0428,0.02 0.0918,0.019 0.13554,0.0353 0.12742,0.063 0.0635,0.0361 0.19122,0.0818 1e-4,4e-5 1.6e-4,-1.1e-4 6e-5,-1.6e-4 v 0 c -0.0305,-0.0128 -0.0609,-0.0256 -0.0914,-0.0383 -0.0335,-0.014 -0.0677,-0.0264 -0.1004,-0.0421 -0.0258,-0.0124 -0.0497,-0.0282 -0.0746,-0.0421 -0.0157,-0.009 -0.0315,-0.0172 -0.0473,-0.0259 -0.0222,-0.009 -0.0353,0.0222 -0.0131,0.0314 z"
         id="path10844"
         style="fill:#1f2123;fill-opacity:1;stroke:none;stroke-width:0.702;stroke-linecap:round;stroke-miterlimit:4;stroke-dasharray:none;stroke-opacity:1;paint-order:markers stroke fill" />
      <path
         d="m 261.13382,170.66811 c 0.0292,0.0179 0.054,0.0418 0.0833,0.0597 0.0184,0.0112 0.0383,0.0197 0.0566,0.031 0.0228,0.0142 0.0443,0.0303 0.0665,0.0454 0.0353,0.021 0.0706,0.0419 0.10595,0.0629 0.001,8e-4 0.002,-0.001 0.001,-0.002 v 0 c -0.0614,-0.0418 -0.10948,-0.0722 -0.16578,-0.11724 -0.0444,-0.0355 -0.043,-0.0378 -0.0799,-0.0725 -0.0605,-0.0569 2.6e-4,0.002 -0.0423,-0.0394 -0.0225,-0.018 -0.048,0.0138 -0.0254,0.0318 z"
         id="path10846"
         style="fill:#1f2123;fill-opacity:1;stroke:none;stroke-width:0.702;stroke-linecap:round;stroke-miterlimit:4;stroke-dasharray:none;stroke-opacity:1;paint-order:markers stroke fill" />
      <path
         d="m 260.52701,170.73145 c 0.006,5.3e-4 0.0118,-5.3e-4 0.0171,0.002 0.0158,0.007 0.0299,0.0167 0.0452,0.0243 0.0232,0.0116 0.0469,0.0224 0.0703,0.0335 0.0255,0.0121 0.0499,0.0268 0.0764,0.0363 0.0216,0.008 0.0448,0.0103 0.0671,0.0155 0.006,0.002 0.008,-0.007 0.002,-0.009 v 0 c -0.0641,-0.0148 -0.0806,-0.014 -0.14139,-0.05 -0.0269,-0.016 -0.078,-0.0614 -0.10615,-0.0817 -0.005,-0.003 -0.0105,-0.006 -0.0158,-0.008 -0.0267,-0.0107 -0.0417,0.027 -0.0151,0.0377 z"
         id="path10848"
         style="fill:#1f2123;fill-opacity:1;stroke:none;stroke-width:0.702;stroke-linecap:round;stroke-miterlimit:4;stroke-dasharray:none;stroke-opacity:1;paint-order:markers stroke fill" />
      <path
         d="m 259.59633,170.5194 c -0.003,0.038 -0.003,0.0583 -0.0109,0.0985 -0.005,0.0265 -0.0116,0.0526 -0.0182,0.0787 -0.008,0.0302 -0.0148,0.0606 -0.0243,0.0903 -0.009,0.0275 -0.0203,0.054 -0.0305,0.081 -5.3e-4,0.002 0.002,0.002 0.002,8e-4 v 0 c 0.0236,-0.0628 0.0402,-0.10508 0.0613,-0.16938 0.008,-0.0258 0.0148,-0.0521 0.0237,-0.0778 0.0462,-0.13393 0.004,0.008 0.0343,-0.0974 0.003,-0.0266 -0.0344,-0.0314 -0.0377,-0.005 z"
         id="path10850"
         style="fill:#1f2123;fill-opacity:1;stroke:none;stroke-width:0.702;stroke-linecap:round;stroke-miterlimit:4;stroke-dasharray:none;stroke-opacity:1;paint-order:markers stroke fill" />
      <path
         d="m 259.68981,170.54865 c -0.0444,0.022 -0.0242,0.0107 -0.0743,0.0422 -0.0177,0.0111 -0.0354,0.0225 -0.0531,0.0336 -0.0207,0.0131 -0.0422,0.0252 -0.0623,0.0392 -0.20928,0.14686 0.0919,-0.0526 -0.13371,0.0948 -0.0847,0.0663 -0.0424,0.0444 -0.12182,0.0745 -0.0118,0.008 -6e-5,0.0249 0.0117,0.0166 v 0 c 0.064,-0.053 0.0265,-0.0242 0.11483,-0.0839 0.0586,-0.0356 0.0826,-0.0494 0.13886,-0.0869 0.0201,-0.0134 0.039,-0.0288 0.0597,-0.0413 0.026,-0.0157 0.0701,-0.0358 0.10007,-0.046 0.009,-0.003 0.0192,-0.005 0.0288,-0.007 0.0252,-0.006 0.0163,-0.0419 -0.009,-0.0356 z"
         id="path10852"
         style="fill:#1f2123;fill-opacity:1;stroke:none;stroke-width:0.702;stroke-linecap:round;stroke-miterlimit:4;stroke-dasharray:none;stroke-opacity:1;paint-order:markers stroke fill" />
      <path
         d="m 259.00643,170.55494 c -0.0345,0.0565 -0.0596,0.10082 -0.1098,0.15325 -0.0765,0.0799 -0.17604,0.1546 -0.26363,0.22367 -5.3e-4,2.6e-4 6e-5,7.9e-4 5.3e-4,5.3e-4 v 0 c 0.0378,-0.0299 0.077,-0.058 0.11325,-0.0896 0.0331,-0.0289 0.20014,-0.1882 0.24743,-0.23331 0.0136,-0.013 0.0272,-0.0261 0.0409,-0.0392 0.0109,-0.0202 -0.0177,-0.0356 -0.0286,-0.0154 z"
         id="path10854"
         style="fill:#1f2123;fill-opacity:1;stroke:none;stroke-width:0.702;stroke-linecap:round;stroke-miterlimit:4;stroke-dasharray:none;stroke-opacity:1;paint-order:markers stroke fill" />
      <path
         d="m 258.83147,170.5751 c 0.005,0.0277 0.005,0.0177 -5.3e-4,0.0535 -0.003,0.0194 -0.003,0.0395 -0.01,0.0581 -0.0197,0.0586 -0.0552,0.11087 -0.0977,0.15525 -0.0195,0.0204 -0.0438,0.0354 -0.0657,0.0531 -0.004,0.004 0.001,0.01 0.005,0.006 v 0 c 0.02,-0.0198 0.0408,-0.0388 0.0601,-0.0594 0.0236,-0.0252 0.0475,-0.0504 0.0685,-0.0779 0.0303,-0.0398 0.0546,-0.0831 0.0698,-0.13079 10e-4,-0.004 0.008,-0.0459 0.01,-0.0579 0,-0.0283 -0.0401,-0.0283 -0.0401,0 z"
         id="path10856"
         style="fill:#1f2123;fill-opacity:1;stroke:none;stroke-width:0.702;stroke-linecap:round;stroke-miterlimit:4;stroke-dasharray:none;stroke-opacity:1;paint-order:markers stroke fill" />
      <path
         d="m 258.12942,170.67437 c -0.026,0.009 -0.0513,0.0202 -0.0781,0.026 -0.0442,0.01 -0.0895,0.0135 -0.13427,0.0199 -0.63029,0.0891 0.29532,-0.0441 -0.37842,0.0532 -2.6e-4,3e-5 -2.1e-4,2.6e-4 4e-5,2.6e-4 v 0 c 0.1549,-0.0209 0.22618,-0.0301 0.37862,-0.052 0.0448,-0.006 0.0892,-0.0156 0.1343,-0.0199 0.0283,-0.003 0.0569,-5.3e-4 0.0853,-7.9e-4 0.019,-0.005 0.0115,-0.0322 -0.007,-0.0269 z"
         id="path10858"
         style="fill:#1f2123;fill-opacity:1;stroke:none;stroke-width:0.702;stroke-linecap:round;stroke-miterlimit:4;stroke-dasharray:none;stroke-opacity:1;paint-order:markers stroke fill" />
      <path
         d="m 257.59703,170.59154 c -0.0175,0.007 -0.0351,0.014 -0.0526,0.0213 -0.0323,0.0134 -0.0644,0.0276 -0.0968,0.0408 -0.10336,0.0422 -0.21242,0.0809 -0.31091,0.1339 -0.0537,0.0289 -0.10341,0.0646 -0.15512,0.0969 -8e-4,5.3e-4 -1.1e-4,0.002 7.9e-4,10e-4 v 0 c 0.0516,-0.0325 0.10147,-0.0678 0.15469,-0.0975 0.10196,-0.057 0.19951,-0.10023 0.311,-0.13318 0.0584,-0.0172 0.10154,-0.0214 0.15845,-0.0288 0.0245,-0.007 0.0151,-0.0414 -0.009,-0.0347 z"
         id="path10860"
         style="fill:#1f2123;fill-opacity:1;stroke:none;stroke-width:0.702;stroke-linecap:round;stroke-miterlimit:4;stroke-dasharray:none;stroke-opacity:1;paint-order:markers stroke fill" />
      <path
         d="m 256.77795,170.67463 c -0.015,0.0522 -0.0186,0.0763 -0.0503,0.1259 -0.017,0.0266 -0.0372,0.0512 -0.0586,0.0745 -0.0609,0.0662 -0.11046,0.107 -0.17605,0.16435 7.9e-4,-5.3e-4 -7e-5,-0.002 -8e-4,-0.001 v 0 c 0.0436,-0.0367 0.14927,-0.12413 0.18259,-0.1589 0.022,-0.023 0.0392,-0.0503 0.0578,-0.0761 0.0433,-0.0604 0.0411,-0.06 0.0729,-0.11802 0.007,-0.0195 -0.02,-0.03 -0.0275,-0.0106 z"
         id="path10862"
         style="fill:#1f2123;fill-opacity:1;stroke:none;stroke-width:0.702;stroke-linecap:round;stroke-miterlimit:4;stroke-dasharray:none;stroke-opacity:1;paint-order:markers stroke fill" />
      <path
         d="m 256.6556,170.70894 c 0.003,0.0267 0.008,0.0691 0.006,0.0937 -0.004,0.0369 -0.0226,0.0935 -0.0393,0.12641 -0.0275,0.0545 -0.0462,0.0704 -0.0862,0.11717 -0.0181,0.0152 -0.0362,0.0305 -0.0543,0.0457 -0.007,0.006 0.002,0.0162 0.009,0.01 v 0 c 0.0186,-0.0155 0.0371,-0.031 0.0556,-0.0464 0.0236,-0.0298 0.0707,-0.0864 0.089,-0.12114 0.0106,-0.0201 0.0179,-0.0419 0.0246,-0.0637 0.0164,-0.0528 0.0215,-0.10777 0.0328,-0.16161 0,-0.0262 -0.037,-0.0262 -0.037,0 z"
         id="path10864"
         style="fill:#1f2123;fill-opacity:1;stroke:none;stroke-width:0.702;stroke-linecap:round;stroke-miterlimit:4;stroke-dasharray:none;stroke-opacity:1;paint-order:markers stroke fill" />
      <path
         d="m 258.11795,170.65407 c -0.04,0.0293 -0.11966,0.0902 -0.1624,0.10983 -0.0255,0.0117 -0.0536,0.0168 -0.0811,0.0217 -0.0137,0.002 -0.0282,0.004 -0.0416,-1.1e-4 -0.004,-0.001 0.004,-0.013 0.006,-0.01 0.008,0.0118 0.0106,0.027 0.0159,0.0406 0.0323,-0.0229 -1.4e-4,-0.0686 -0.0324,-0.0457 v 0 c -0.002,0.0189 -0.0131,0.0388 -0.007,0.0566 0.003,0.008 0.0176,-0.002 0.0258,-0.005 0.014,-0.005 0.0268,-0.0129 0.0404,-0.0189 0.0254,-0.0113 0.0509,-0.0224 0.0766,-0.0332 0.1429,-0.0604 0.0548,-0.0191 0.18206,-0.0821 0.0241,-0.0161 10e-4,-0.0502 -0.0227,-0.0341 z"
         id="path10866"
         style="fill:#1f2123;fill-opacity:1;stroke:none;stroke-width:0.702;stroke-linecap:round;stroke-miterlimit:4;stroke-dasharray:none;stroke-opacity:1;paint-order:markers stroke fill" />
      <path
         d="m 257.40594,170.56318 c -0.0447,0.0656 -0.0416,0.0632 -0.0965,0.13223 -0.0216,0.0272 -0.0434,0.0542 -0.0662,0.0804 -0.0213,0.0246 -0.042,0.0498 -0.066,0.0718 -0.0243,0.0222 -0.0521,0.0402 -0.0782,0.0602 -0.009,0.007 7.9e-4,0.0204 0.0102,0.0132 v 0 c 0.0268,-0.0205 0.0548,-0.0395 0.0803,-0.0615 0.0907,-0.0783 0.0547,-0.0588 0.13656,-0.14914 0.03,-0.0331 0.0854,-0.0836 0.1201,-0.11594 0.0221,-0.0284 -0.0181,-0.0597 -0.0402,-0.0313 z"
         id="path10868"
         style="fill:#1f2123;fill-opacity:1;stroke:none;stroke-width:0.702;stroke-linecap:round;stroke-miterlimit:4;stroke-dasharray:none;stroke-opacity:1;paint-order:markers stroke fill" />
      <path
         d="m 257.45484,170.60949 c -0.0709,0.0365 -0.0512,0.0281 -0.14513,0.0654 -0.0432,0.0172 -0.0859,0.0358 -0.13016,0.0498 -0.0991,0.0313 -0.19315,0.0485 -0.29428,0.0696 -0.003,5.3e-4 -0.002,0.004 7.9e-4,0.004 v 0 c 0.21798,-0.054 0.0555,-0.013 0.29271,-0.0753 0.0447,-0.0118 0.0888,-0.0266 0.13432,-0.0349 0.0339,-0.006 0.0689,-0.004 0.10298,-0.008 0.0187,-0.003 0.0366,-0.009 0.0549,-0.0133 0.0401,-0.0115 0.0239,-0.0681 -0.0162,-0.0567 z"
         id="path10870"
         style="fill:#1f2123;fill-opacity:1;stroke:none;stroke-width:0.702;stroke-linecap:round;stroke-miterlimit:4;stroke-dasharray:none;stroke-opacity:1;paint-order:markers stroke fill" />
      <path
         d="m 258.95777,170.60486 c -10e-5,0.0651 -0.0152,0.12462 -0.0366,0.18573 -0.0262,0.0747 -0.0137,0.024 -0.0256,0.0798 -0.005,0.037 0.0473,0.0443 0.0524,0.007 v 0 c -0.003,-0.0345 -0.005,-0.0349 0.006,-0.0769 0.006,-0.0202 0.015,-0.0391 0.0216,-0.059 0.0147,-0.0451 0.0231,-0.0918 0.0374,-0.13694 0,-0.0392 -0.0554,-0.0392 -0.0554,0 z"
         id="path10872"
         style="fill:#1f2123;fill-opacity:1;stroke:none;stroke-width:0.702;stroke-linecap:round;stroke-miterlimit:4;stroke-dasharray:none;stroke-opacity:1;paint-order:markers stroke fill" />
      <path
         d="m 259.50629,170.68678 c -0.0799,0.10387 -0.033,0.0487 -0.14441,0.1623 -0.008,0.009 0.004,0.0201 0.0121,0.0115 v 0 c 0.11479,-0.10938 0.0612,-0.061 0.15944,-0.14663 0.0192,-0.0192 -0.008,-0.0464 -0.0272,-0.0272 z"
         id="path10874"
         style="fill:#1f2123;fill-opacity:1;stroke:none;stroke-width:0.702;stroke-linecap:round;stroke-miterlimit:4;stroke-dasharray:none;stroke-opacity:1;paint-order:markers stroke fill" />
      <path
         d="m 258.29344,170.6417 c 0.0162,0.0109 0.0329,0.0211 0.0487,0.0326 0.0249,0.0179 0.0491,0.0369 0.0735,0.0555 0.11282,0.0867 0.0579,0.0447 0.16484,0.12606 0.002,0.002 0.004,-0.002 0.002,-0.003 v 0 c -0.0395,-0.0283 -0.13162,-0.0932 -0.16636,-0.12367 -0.0229,-0.0201 -0.044,-0.0424 -0.0638,-0.0656 -0.0117,-0.0137 -0.0201,-0.0299 -0.0302,-0.0448 -0.0164,-0.0205 -0.0453,0.003 -0.029,0.0232 z"
         id="path10876"
         style="fill:#1f2123;fill-opacity:1;stroke:none;stroke-width:0.702;stroke-linecap:round;stroke-miterlimit:4;stroke-dasharray:none;stroke-opacity:1;paint-order:markers stroke fill" />
      <path
         d="m 258.42922,170.64171 c 0.0195,0.0395 0.0301,0.0826 0.0517,0.12132 0.0111,0.02 0.0222,0.0405 0.0377,0.0574 0.0172,0.0188 0.0393,0.0322 0.059,0.0484 0.005,0.005 0.0122,-0.003 0.007,-0.008 v 0 c -0.0167,-0.0171 -0.035,-0.0326 -0.05,-0.0512 -0.0206,-0.0255 -0.048,-0.0729 -0.0577,-0.10555 -0.009,-0.0312 -0.006,-0.0421 -0.004,-0.0699 -0.005,-0.0308 -0.0487,-0.0235 -0.0435,0.007 z"
         id="path10878"
         style="fill:#1f2123;fill-opacity:1;stroke:none;stroke-width:0.702;stroke-linecap:round;stroke-miterlimit:4;stroke-dasharray:none;stroke-opacity:1;paint-order:markers stroke fill" />
      <path
         d="m 257.04935,170.71009 c -0.14048,0.0738 -0.069,0.0354 -0.21424,0.11546 0.001,-7.9e-4 2.7e-4,-0.002 -10e-4,-0.002 v 0 c 0.14565,-0.0793 0.072,-0.0457 0.22017,-0.10212 0.008,-0.003 0.003,-0.0151 -0.005,-0.0116 z"
         id="path10880"
         style="fill:#1f2123;fill-opacity:1;stroke:none;stroke-width:0.702;stroke-linecap:round;stroke-miterlimit:4;stroke-dasharray:none;stroke-opacity:1;paint-order:markers stroke fill" />
      <path
         d="m 256.86712,170.74877 c -0.0348,0.0447 -0.0376,0.0543 -0.0842,0.0889 -0.0755,0.056 -0.0145,-0.005 -0.0644,0.0486 -0.0147,0.0178 0.0106,0.0386 0.0252,0.0208 v 0 c 0.0179,-0.0274 0.0197,-0.0328 0.048,-0.0592 0.0313,-0.0291 0.0685,-0.0516 0.097,-0.084 0.0107,-0.0153 -0.0109,-0.0304 -0.0217,-0.0151 z"
         id="path10882"
         style="fill:#1f2123;fill-opacity:1;stroke:none;stroke-width:0.702;stroke-linecap:round;stroke-miterlimit:4;stroke-dasharray:none;stroke-opacity:1;paint-order:markers stroke fill" />
      <path
         d="m 256.02971,170.73517 c -0.0511,0.0336 -0.0558,0.0394 -0.12567,0.0665 -0.04,0.0155 -0.0814,0.027 -0.12206,0.0405 4e-5,-1e-5 2e-5,-8e-5 -2e-5,-6e-5 v 0 c 0.0409,-0.013 0.0813,-0.0273 0.12254,-0.0391 0.0307,-0.009 0.0621,-0.0153 0.0932,-0.023 0.0179,-0.005 0.0357,-0.0107 0.0535,-0.0161 0.0203,-0.0152 -10e-4,-0.0439 -0.0215,-0.0287 z"
         id="path10884"
         style="fill:#1f2123;fill-opacity:1;stroke:none;stroke-width:0.702;stroke-linecap:round;stroke-miterlimit:4;stroke-dasharray:none;stroke-opacity:1;paint-order:markers stroke fill" />
      <path
         d="m 256.02847,170.75515 c -0.003,0.005 -0.006,0.009 -0.008,0.0144 -0.01,0.0194 -0.0178,0.0395 -0.0282,0.0585 -0.0185,0.0336 -0.0885,0.14338 -0.10343,0.16787 -0.0141,0.0232 -0.0275,0.0469 -0.0412,0.0704 -0.002,0.003 0.002,0.006 0.004,0.003 v 0 c 0.0505,-0.0903 0.0354,-0.0679 0.1031,-0.16519 0.0159,-0.0229 0.0313,-0.0462 0.0491,-0.0676 0.014,-0.0168 0.0312,-0.0307 0.0463,-0.0466 0.005,-0.005 0.009,-0.0111 0.0138,-0.0166 0.0126,-0.0253 -0.0231,-0.0431 -0.0357,-0.0179 z"
         id="path10886"
         style="fill:#1f2123;fill-opacity:1;stroke:none;stroke-width:0.702;stroke-linecap:round;stroke-miterlimit:4;stroke-dasharray:none;stroke-opacity:1;paint-order:markers stroke fill" />
      <path
         d="m 256.12074,170.80598 c 0.0341,0.0136 0.0688,0.0258 0.10403,0.0364 0.0343,0.0103 0.0684,0.0214 0.10322,0.03 0.1011,0.0251 0.26348,0.0556 0.36024,0.0746 0.001,2.2e-4 0.001,-0.001 2.7e-4,-0.002 v 0 c -0.0526,-0.0101 -0.29342,-0.0538 -0.35969,-0.0757 -0.0334,-0.0111 -0.0628,-0.0318 -0.0948,-0.0465 -0.0151,-0.007 -0.0319,-0.0103 -0.0464,-0.0184 -0.003,-0.001 -0.0332,-0.0283 -0.0403,-0.0344 -0.0251,-0.0188 -0.0517,0.0167 -0.0266,0.0355 z"
         id="path10888"
         style="fill:#1f2123;fill-opacity:1;stroke:none;stroke-width:0.702;stroke-linecap:round;stroke-miterlimit:4;stroke-dasharray:none;stroke-opacity:1;paint-order:markers stroke fill" />
    </g>
  </g>
</svg>
