<?xml version="1.0" encoding="UTF-8" standalone="no"?>
<svg
   xmlns:dc="http://purl.org/dc/elements/1.1/"
   xmlns:cc="http://creativecommons.org/ns#"
   xmlns:rdf="http://www.w3.org/1999/02/22-rdf-syntax-ns#"
   xmlns:svg="http://www.w3.org/2000/svg"
   xmlns="http://www.w3.org/2000/svg"
   xmlns:sodipodi="http://sodipodi.sourceforge.net/DTD/sodipodi-0.dtd"
   xmlns:inkscape="http://www.inkscape.org/namespaces/inkscape"
   inkscape:export-ydpi="96"
   inkscape:export-xdpi="96"
   inkscape:export-filename="D:\Calcatz\Icon Pack\Adventure Narative Inspired by Arrival\GUI\Settings\png\radio_button.png"
   sodipodi:docname="radio_button.svg"
   inkscape:version="1.0 (4035a4fb49, 2020-05-01)"
   id="svg3480"
   version="1.1"
   viewBox="0 0 8.1121788 8.1121788"
   height="8.1121788mm"
   width="8.1121788mm">
  <defs
     id="defs3474" />
  <sodipodi:namedview
     inkscape:window-maximized="1"
     inkscape:window-y="-8"
     inkscape:window-x="-8"
     inkscape:window-height="705"
     inkscape:window-width="1366"
     fit-margin-bottom="0"
     fit-margin-right="0"
     fit-margin-left="0"
     fit-margin-top="0"
     showgrid="false"
     inkscape:document-rotation="0"
     inkscape:current-layer="layer1"
     inkscape:document-units="mm"
     inkscape:cy="21.09119"
     inkscape:cx="28.706471"
     inkscape:zoom="10.738351"
     inkscape:pageshadow="2"
     inkscape:pageopacity="0.0"
     borderopacity="1.0"
     bordercolor="#666666"
     pagecolor="#ffffff"
     id="base" />
  <metadata
     id="metadata3477">
    <rdf:RDF>
      <cc:Work
         rdf:about="">
        <dc:format>image/svg+xml</dc:format>
        <dc:type
           rdf:resource="http://purl.org/dc/dcmitype/StillImage" />
        <dc:title></dc:title>
      </cc:Work>
    </rdf:RDF>
  </metadata>
  <g
     transform="translate(129.41984,-117.36541)"
     id="layer1"
     inkscape:groupmode="layer"
     inkscape:label="Layer 1">
    <path
       d="m -122.07939,120.72255 c -0.049,-0.0228 -0.099,-0.0439 -0.148,-0.0684 -0.2165,-0.1092 0.026,0.005 -0.1903,-0.1041 -0.017,-0.009 -0.033,-0.0143 -0.049,-0.0226 -0.012,-0.0429 -0.023,-0.0856 -0.037,-0.12822 -0.051,-0.15178 -0.6916,-1.42143 -0.3849,-0.71534 0.037,0.0845 0.181,0.35739 0.2966,0.73992 -0.025,-0.028 -0.051,-0.0557 -0.07,-0.0856 -0.03,-0.0871 -0.062,-0.1749 -0.1012,-0.2636 -0.2702,-0.60166 -0.6458,-0.93209 -0.763,-1.02286 -0.1424,-0.11015 -0.096,-0.0562 0.103,0.17791 -0.1463,-0.10871 0.2522,0.11312 0.597,1.13776 -0.041,0.1804 -0.1812,0.32193 -0.303,0.42392 0,-5.3e-4 -0.01,10e-4 -0.01,0.002 -0.012,0.003 -0.024,0.007 -0.037,0.009 -0.013,0.003 -0.029,0.002 -0.043,0.004 -0.055,0.006 -0.026,0.004 -0.076,0.003 -0.022,0.004 -0.022,0.0398 0.01,0.0357 0.023,-0.006 0.05,-0.0136 0.073,-0.0154 0.013,5.3e-4 0.026,1.7e-4 0.039,-5.2e-4 0,0.004 -0.01,0.007 -0.012,0.0117 -0.015,0.0102 -0.029,0.0239 -0.096,0.0756 -0.044,0.0333 -0.093,0.0606 -0.1323,0.099 -0.039,0.0386 -0.067,0.0869 -0.1,0.1297 -0.01,0.007 -0.01,0.0166 -0.01,0.0243 0,0.0233 0.036,0.0405 0.057,0.0172 0.032,-0.0398 0.059,-0.0845 0.097,-0.11976 0.013,-0.0117 0.03,-0.0243 0.048,-0.0374 -0.012,0.0119 -0.023,0.0237 -0.03,0.0307 -0.056,0.0603 -0.025,0.026 -0.073,0.0813 -0.01,0.0114 0.01,0.0242 0.017,0.0134 0.011,-0.0106 0.02,-0.0231 0.03,-0.0346 0.013,-0.0162 0.024,-0.0319 0.039,-0.0451 0.013,-0.0117 0.029,-0.0179 0.043,-0.0275 0.01,-0.003 0.01,-0.004 0.012,-0.01 -0.01,0.009 -0.01,0.0179 -0.011,0.0268 -0.01,0.0259 0,0.0535 -0.01,0.0801 -0.01,0.0322 0.042,0.0452 0.048,0.0128 0.01,-0.0215 0.01,-0.0444 0.017,-0.0656 0.013,-0.0329 0.039,-0.0749 0.063,-0.10179 0,0 2e-4,-1.7e-4 2e-4,-1.7e-4 0,0.0657 -0.01,0.13044 -0.012,0.19507 -0.01,0.1328 0,0.0352 -0.016,0.1575 0,0.009 0.014,0.0128 0.015,0.003 0,-0.0254 0,-0.0496 0.01,-0.0747 0,-0.0281 -0.01,-0.0568 0,-0.0847 0,-0.0288 0.016,-0.0551 0.02,-0.0837 0,-0.0166 0,-0.0276 0.01,-0.0388 0,0.001 0,0.001 0,0.005 0.098,0.44871 0.055,-0.20331 0.083,0.2779 -0.01,0.008 -0.013,0.0158 -0.024,0.0316 -0.013,0.0138 -0.024,0.0304 -0.039,0.0438 -0.015,0.0147 -0.034,0.0266 -0.05,0.0402 -0.073,0.0621 -0.022,0.0308 -0.1024,0.0711 -0.012,0.009 0,0.0251 0.014,0.0171 0.054,-0.0329 0.052,-0.0294 0.103,-0.0728 0.032,-0.027 0.061,-0.0563 0.092,-0.0835 0,-0.002 0.01,-0.005 0.011,-0.009 0,0.0331 0,0.0421 0,0.0753 0,0.0383 -0.013,0.11449 -0.042,0.1541 0,0.002 0,0.004 -0.01,0.006 -0.011,0.009 -0.022,0.0142 -0.032,0.0224 -0.022,0.0122 -0.049,0.0203 -0.073,0.0289 -0.035,0.0167 -0.01,0.0526 0.026,0.0372 0.022,-0.0122 0.042,-0.0287 0.067,-0.0387 0.01,-0.004 0.021,-0.007 0.033,-0.009 0,5.3e-4 0,7.9e-4 0,7.9e-4 0,-5.3e-4 -0.01,10e-4 -0.01,0.004 -0.052,0.0378 -0.014,0.007 -0.066,0.057 -0.012,0.01 0,0.0213 0.016,0.0127 0.015,-0.0106 0.028,-0.0203 0.029,-0.0217 -0.045,0.0704 -0.012,0.0289 -0.064,0.0948 -0.01,0.009 0.011,0.0159 0.017,0.005 0.01,-0.0178 0.01,-0.0353 0.021,-0.0517 0.013,-0.0207 0.032,-0.039 0.049,-0.0586 0,-0.003 0.01,-0.006 0.01,-0.007 0,-0.002 0.01,-0.003 0.012,-0.005 0.01,-0.004 0.011,-0.0106 0.01,-0.0166 0.01,-0.006 0.014,-0.0138 0.019,-0.0212 0,0 0,-1.5e-4 0,-1.5e-4 0,0.0213 0,0.043 0,0.0647 0.01,0.0424 -0.01,0.0984 -0.067,0.11802 -0.019,0.004 -0.037,0.01 -0.056,0.0141 0,-0.002 0,-0.003 -0.01,-0.007 -0.078,-0.0172 -0.035,-0.009 -0.1654,-0.0239 -0.01,-5.3e-4 -0.01,0.005 0,0.005 0.093,0.0244 0.094,0.0228 0.1149,0.0331 -0.024,7.9e-4 -0.049,-10e-4 -0.073,5.3e-4 -0.1164,0.008 -0.031,0.0103 -0.101,0.007 0,2.6e-4 -0.1283,0.10927 0.03,0.0849 0.055,-0.0202 -0.01,-5.3e-4 0.084,-0.0142 0.031,-0.005 0.061,-0.0144 0.092,-0.0174 0.01,-0.001 0.01,-0.002 0.013,-0.002 -0.024,0.009 -0.013,0.006 -0.08,0.0331 -0.021,0.008 -0.043,0.0134 -0.063,0.0224 -0.038,0.0161 -0.063,0.0342 -0.095,0.0533 -0.01,0.007 0,0.0182 0.013,0.0112 0.012,-0.009 0.023,-0.0188 0.036,-0.0251 0.017,-0.009 0.036,-0.0169 0.055,-0.0241 0.039,-0.0163 0.08,-0.0279 0.1223,-0.0384 -0.031,0.0158 -0.015,-0.004 -0.041,0.0436 -0.023,0.0347 0.038,0.0627 0.062,0.0265 0.014,-0.026 0.013,-0.0304 0.043,-0.0572 0.017,-0.0136 0.037,-0.0254 0.055,-0.0391 0,-5.3e-4 0,-5.3e-4 0,-0.002 -0.013,0.0127 -0.027,0.0269 -0.039,0.0389 -0.014,0.0169 -0.031,0.033 -0.046,0.0486 -0.043,0.0453 -0.025,0.0333 -0.06,0.0529 -0.015,0.0184 0.017,0.0368 0.032,0.0183 0,-0.007 0,-0.0141 0,-0.0205 0.026,-0.0443 0.043,-0.0517 0.087,-0.087 0,-0.004 0.01,-0.007 0.011,-0.009 0.038,-0.0163 0.04,0.0109 0.033,0.0357 -0.01,0.0236 -0.034,0.0608 -0.044,0.0869 -0.025,0.0408 -0.044,0.0685 -0.083,0.12058 0,1.4e-4 0,2.4e-4 0,2.6e-4 -0.03,0.008 -0.058,0.0198 -0.088,0.0272 -0.032,0.008 -0.065,0.0135 -0.097,0.0189 -0.015,0.003 -0.01,0.0213 0.01,0.0182 0.032,-0.005 0.063,-0.013 0.096,-0.0172 0.013,-0.002 0.032,-0.003 0.051,-0.005 -0.023,0.0283 -0.043,0.0505 -0.054,0.0625 0,-8e-4 0,7.9e-4 0,0.002 0.018,-0.0211 0.035,-0.0424 0.052,-0.0641 0.021,-0.003 0.043,-0.003 0.062,-0.005 -0.031,0.0622 -0.065,0.12073 -0.1004,0.17584 -0.021,0.0347 -0.054,0.0683 -0.074,0.05 0,-0.006 -0.01,-0.0108 -0.012,-0.0175 -0.026,-0.0415 -0.045,-0.085 -0.07,-0.12539 -0.015,-0.0287 -0.063,-0.0144 -0.048,0.0146 0.017,0.0469 0.027,0.0965 0.045,0.14544 0,0.006 0.01,0.0154 0.013,0.0241 0,-9e-5 0,-8e-4 0,-0.002 -0.179,-0.073 0.091,0.0331 -0.1698,-0.0683 0.045,0.0251 0.092,0.0477 0.1332,0.0757 0,-0.002 -0.012,-0.003 -0.02,-0.006 -0.085,-0.0252 -0.053,-0.0174 -0.1218,-0.0308 -0.059,-0.007 -0.063,0.0603 0,0.0686 0.01,-10e-4 0.022,-0.008 0.033,-0.007 0.024,0.004 0.047,0.0122 0.07,0.02 0.053,0.0171 0.066,0.0217 0.086,0.0326 0,2.6e-4 0,5.3e-4 0,0.002 -0.01,0.002 -0.013,0.004 -0.019,0.006 -0.062,0.009 -0.1232,0.0132 -0.1838,0.0218 -0.025,0.004 -0.048,0.009 -0.072,0.0127 0,10e-4 0,0.007 0,0.006 0.023,-0.005 0.046,-0.0128 0.07,-0.0171 0.037,-0.007 0.076,-0.011 0.1151,-0.0126 0.014,-0.001 0.025,7.9e-4 0.037,1.8e-4 -0.016,0.006 -0.029,0.0154 -0.045,0.0217 -0.021,0.008 -0.045,0.0138 -0.066,0.023 -0.029,0.0125 -0.055,0.0282 -0.083,0.0421 -0.021,0.008 -0.041,0.0156 -0.062,0.0234 -0.019,0.01 0,0.0344 0.019,0.0245 0.017,-0.012 0.035,-0.023 0.051,-0.0354 0.09,-0.0318 0.065,-0.0269 0.1535,-0.0525 0.01,-0.001 0.065,-0.0156 0.084,-0.0202 -0.011,0.009 -0.026,0.0145 -0.036,0.025 0,2.6e-4 0,2.6e-4 0,5.3e-4 0,0.004 -0.01,0.007 -0.012,0.0119 -0.01,0.006 -0.014,0.0116 -0.021,0.0184 -0.015,0.0148 -0.031,0.0322 -0.047,0.0469 -0.025,0.0201 -0.053,0.0387 -0.077,0.0591 -0.014,0.0119 -0.041,0.0348 -0.065,0.0552 0.05,-0.0391 0.094,-0.071 0.1505,-0.10511 0.02,-0.0113 0.041,-0.0209 0.061,-0.0327 -0.023,0.0342 -0.046,0.0683 -0.072,0.10112 -0.015,0.0429 -0.038,0.0864 -0.062,0.13121 -0.01,0.0156 -0.028,0.0374 -0.053,0.0502 -0.1147,0.0564 -0.2319,0.10472 -0.3499,0.14577 0,5.3e-4 0,0.003 0,0.002 0.1,-0.0354 0.2191,-0.0901 0.3253,-0.12475 0.013,-0.004 0.025,-0.006 0.038,-0.008 -0.01,0.009 -0.018,0.0307 -0.023,0.0396 -0.01,0.0156 -0.031,0.0337 -0.05,0.049 0,0 0,1.6e-4 0,1.6e-4 -0.015,0.0101 -0.029,0.0217 -0.044,0.0316 -0.025,0.0156 -0.052,0.0308 -0.077,0.0462 -0.012,0.005 -0.031,0.0183 -0.041,0.0261 0.052,-0.0264 0.1084,-0.0469 0.1649,-0.0677 -0.011,0.0178 -0.029,0.0379 -0.055,0.0547 -0.055,0.0281 -0.1012,0.0519 -0.1333,0.0674 0,-0.006 -0.012,-0.006 -0.022,-0.002 -0.01,0.005 -0.02,0.0116 -0.031,0.0157 -0.01,0.004 -0.021,0.006 -0.032,0.008 0.014,-0.0119 0.028,-0.0245 0.043,-0.0357 -0.023,0.0132 -0.04,0.0234 -0.053,0.03 -0.01,0.002 0,0.007 0,0.009 -0.024,0.005 -0.05,0.007 -0.071,0.0111 -0.1013,0.0159 -0.059,0.0152 -0.1478,0.0108 -2e-4,-10e-6 -0.021,0.019 0,0.0175 0.021,-0.004 0.042,-0.009 0.063,-0.0105 0.028,-0.002 0.056,-7.9e-4 0.084,-0.002 0.023,-2.6e-4 0.045,-0.003 0.067,-0.006 0.01,-5.3e-4 0.01,-1e-4 0.01,-5.3e-4 -0.048,0.0212 -0.095,0.0427 -0.1419,0.0646 -0.1669,0.0786 -0.2291,0.10603 -0.2518,0.11579 -0.031,0.0103 -0.019,0.007 -0.072,0.026 -0.022,0.0116 -0.042,0.0239 -0.064,0.0347 -0.054,0.0469 0.018,0.13023 0.072,0.0831 0.01,-0.016 0.022,-0.0323 0.033,-0.0484 0.2406,-0.16521 0.011,-0.0275 0.3081,-0.1666 0.1193,-0.0561 0.2038,-0.11052 0.3179,-0.15923 -0.01,0.005 -0.017,0.0113 -0.031,0.0184 -0.034,0.0216 -0.066,0.0446 -0.1,0.0654 0.022,-0.0119 0.046,-0.022 0.1066,-0.0538 0.016,-0.009 0.031,-0.0157 0.047,-0.0249 -0.011,0.0247 -0.028,0.0509 -0.057,0.0772 -0.016,0.0121 -0.033,0.0247 -0.049,0.0366 -0.2268,0.16113 0,-0.007 -0.1503,0.0993 -0.025,0.0223 -0.01,0.0539 0.016,0.0596 -0.04,0.0265 -0.077,0.0495 -0.1031,0.0654 0,2.6e-4 -2e-4,5.3e-4 0,0.001 0.03,-0.0153 0.059,-0.0318 0.088,-0.0488 0.01,-0.005 0.019,-0.0114 0.028,-0.0162 0.01,-0.001 0.013,-0.004 0.019,-0.01 2e-4,-7.9e-4 10e-5,-10e-4 0,-0.003 0.011,-0.009 0.021,-0.0134 0.032,-0.0213 0.059,-0.0351 0.054,-0.0306 0.1085,-0.0582 0.02,-0.0192 -0.01,-0.047 -0.028,-0.0279 -0.011,0.009 -0.021,0.0182 -0.031,0.0268 -0.017,0.0183 -0.036,0.0345 -0.056,0.05 -0.01,0.004 -0.013,0.0103 -0.02,0.0141 0.01,-0.015 0.01,-0.0297 0.02,-0.0412 0.036,-0.0372 0.1019,-0.0728 0.1549,-0.1045 0,0.0137 0,0.0252 -0.01,0.0379 0,0.009 0.01,0.0249 0.01,0.0325 -0.01,0.01 -0.017,0.0211 -0.027,0.0306 -0.01,0.007 -0.015,0.0146 -0.023,0.0226 0.021,-0.0181 0.033,-0.0295 0.052,-0.0464 0,0 -0.2622,0.38023 -0.4804,0.61191 0,0.002 0,0.007 -2e-4,0.0103 -0.2107,0.12937 -0.4144,0.22867 -0.6153,0.28117 -0.034,0.009 -0.059,0.0144 -0.084,0.0197 0,2.6e-4 -0.012,0.003 -0.013,0.003 -0.01,-0.003 -0.011,-0.007 -0.028,-0.009 -0.015,-0.002 -0.109,0.0245 -0.2263,0.0483 -0.1946,0.0128 0.048,-0.0369 0.2515,-0.10257 0.039,-0.0124 0.079,-0.0261 0.1181,-0.04 -0.035,0.0113 -0.074,0.0251 -0.1187,0.0376 -0.2388,0.07 -0.6219,0.152 -1.1083,0.10971 -0.3503,-0.0402 -0.6934,-0.13986 -1.0071,-0.29665 -0.1491,-0.0742 -0.292,-0.1617 -0.4265,-0.26114 -0.4418,-0.30406 -0.5983,-0.52012 -0.6417,-0.5436 -0.028,-0.0148 0.023,0.11487 0.2459,0.35107 0,0.008 0,0.019 -0.027,0.008 0.1717,0.16528 0.3615,0.31131 0.565,0.43367 -0.2317,-0.14563 -0.4092,-0.30575 -0.5371,-0.44161 0,-0.0201 0.01,-0.0327 0.1758,0.0969 0.2405,0.18086 0.4359,0.36113 0.4868,0.39144 0.036,0.0217 0.073,0.0424 0.11,0.0625 0.1059,0.0576 0.2147,0.10903 0.3253,0.1545 -0.1136,-0.0399 -0.2245,-0.0864 -0.3326,-0.13945 -0.077,-0.0377 -0.1527,-0.0789 -0.2262,-0.12366 0.07,0.0449 0.1451,0.0872 0.225,0.12643 0.1598,0.0818 0.3357,0.15132 0.5256,0.20494 0.065,0.0215 0.1303,0.041 0.1967,0.0585 -0.2482,-0.0528 -0.4939,-0.13612 -0.7279,-0.25238 -0.5088,-0.25279 -0.9129,-0.6369 -1.19,-1.05431 -0.038,-0.06 -0.075,-0.12162 -0.1101,-0.18495 -0.054,-0.1044 -0.1656,-0.42162 -0.2403,-0.65199 -0.01,-0.0147 -0.011,-0.0317 -0.015,-0.0488 -0.1682,-0.5374 -0.1464,-0.77829 -0.16,-0.84203 -0.014,-0.0625 -0.027,0.0379 -0.031,0.13785 0,0.0985 0,0.1912 0,0.10266 0,-0.003 -0.031,-0.44764 0.1069,-0.96733 0.098,-0.51179 0.1962,-0.61325 0.2234,-0.64281 0.039,-0.0417 0.01,0.0317 0.1006,-0.13563 0.01,-0.0111 0.014,-0.0258 0.022,-0.0403 0.1238,-0.2265 0.013,-0.0706 0.062,-0.1666 0.025,-0.0486 0.082,-0.13464 0.1374,-0.21252 0.6722,-0.89576 1.3308,-1.06467 1.3878,-1.1202 0.057,-0.0555 -0.481,-0.019 -1.2026,0.69968 -0.01,-0.0255 -0.3244,0.21255 -0.6111,0.73191 -0.023,0.0413 -0.044,0.0848 -0.067,0.12857 0.02,-0.044 0.039,-0.0883 0.06,-0.13251 0.034,-0.0683 0.07,-0.13749 0.1105,-0.20723 -0.043,0.0661 -0.083,0.13324 -0.121,0.20151 -0.3186,0.57914 -0.4589,1.25312 -0.4038,1.91324 0.02,0.23753 0.063,0.46842 0.1276,0.68861 0.1078,0.36289 0.2869,0.73392 0.5561,1.07664 0.3105,0.39534 0.7087,0.71467 1.1573,0.93237 0.2234,0.10808 0.4581,0.19068 0.6987,0.24806 0,0.0157 -0.3353,-0.0264 0.01,0.0479 0.4027,0.0874 0.7223,0.0498 0.9906,0.0249 0.1878,-0.0175 0.4132,-0.0495 0.6776,-0.12075 0.095,-0.025 0.1824,-0.0533 0.2643,-0.0801 0.9318,-0.31219 1.0151,-0.52457 1.1022,-0.58169 0.01,-0.003 0.012,-0.005 0.016,-0.01 -0.036,0.0521 -0.071,0.10554 -0.1129,0.15438 -0.044,0.051 -0.096,0.0945 -0.1447,0.14114 -0.042,0.0398 -0.083,0.0806 -0.1246,0.11977 -0.05,0.0442 -0.1007,0.0875 -0.1524,0.1295 -0.042,0.0341 0,0.0837 0.043,0.0495 0.054,-0.0436 0.1092,-0.0858 0.1596,-0.13351 0.091,-0.087 0.1634,-0.19064 0.2478,-0.28346 0.054,-0.0594 0.113,-0.11462 0.1673,-0.17389 0.051,-0.0555 0.078,-0.0914 0.1284,-0.1467 -0.01,0.009 -0.011,0.0188 -0.017,0.0282 -0.038,0.0558 -0.075,0.0943 -0.1194,0.14722 -0.08,0.0959 -0.03,0.0455 -0.1023,0.11418 -0.01,0.007 -0.014,0.0131 -0.023,0.0187 -0.018,0.0194 0,0.0417 0.025,0.0212 0.01,-0.009 0.01,-0.0194 0.012,-0.0282 0.014,-0.0171 0.029,-0.0329 0.044,-0.0493 0.02,-0.0223 0.039,-0.0442 0.058,-0.0669 0.152,-0.18493 -0.015,0.0181 0.1192,-0.14913 0.013,-0.0163 0.025,-0.0336 0.038,-0.0499 0.066,-0.0524 0.1445,-0.0931 0.1723,-0.10429 0.019,-0.007 0.034,-0.015 0.048,-0.0212 -0.017,0.0302 -0.035,0.0597 -0.053,0.0897 -0.056,0.091 -0.083,0.1331 -0.1575,0.23844 0,0.006 0,0.0109 0.01,0.005 0.028,-0.0359 0.1431,-0.18546 0.1741,-0.22986 0.021,-0.0309 0.041,-0.0624 0.063,-0.0929 0.01,-0.01 0.035,-0.0428 0.06,-0.0727 0,0.002 0.01,1.7e-4 0.016,-0.005 0.011,-0.0192 0.02,-0.04 0.033,-0.0581 0.04,-0.0532 0.1801,-0.21951 0.2236,-0.2688 0,-0.004 0.01,-0.007 0.012,-0.0119 -0.01,0.023 -0.014,0.0455 -0.022,0.0682 -0.01,0.0199 -0.013,0.0403 -0.019,0.0607 -0.018,0.0476 0.04,0.0609 0.059,0.0125 0.01,-0.0214 0.02,-0.0418 0.026,-0.0634 0.01,-0.026 0.012,-0.053 0.019,-0.0796 0.01,-0.0105 0.01,-0.0214 0.011,-0.0317 0,0.005 0,0.009 0,0.0134 0,0.0197 0,0.0404 0.01,0.0608 0,0.0488 0,0.0766 -0.011,0.12751 0,0.0219 -0.01,0.0435 -0.014,0.0654 0,0.0183 0.018,0.0194 0.023,0.001 0,-0.0224 0.01,-0.0445 0.013,-0.0668 0,-0.0115 0.01,-0.0233 0.011,-0.0349 -0.01,0.15765 -0.041,0.26848 -0.1046,0.46157 -0.01,0.0236 0.024,0.024 0.03,5.3e-4 0.026,-0.0857 0.053,-0.17037 0.069,-0.2557 0.02,-0.10856 0.024,-0.21823 0.035,-0.32387 0,-0.0418 0.01,-0.0734 0.01,-0.1017 0.021,-0.10189 0.044,-0.15635 0.076,-0.20691 0.051,-0.0805 0.1015,-0.17706 0.1459,-0.28399 1e-4,0.0231 0,0.0462 1e-4,0.0648 0,0.0318 0,0.0644 -0.01,0.0969 0,0.0259 -0.034,0.18399 -0.039,0.20883 -0.01,0.0239 -0.022,0.0474 -0.034,0.0704 -0.01,0.0183 0.014,0.0234 0.02,0.005 0.01,-0.0251 0.013,-0.0505 0.018,-0.0756 0.01,-0.036 0.018,-0.0714 0.026,-0.10726 0.015,-0.0727 0.022,-0.13106 0.028,-0.20235 0,-0.0297 0.01,-0.0596 0.01,-0.0892 2e-4,-0.0103 0,-0.0211 0,-0.0318 0.052,-0.1354 0.09,-0.27636 0.1145,-0.41399 0,0.0625 0,0.12625 0,0.18983 0,0.0818 -0.01,0.16402 -0.014,0.24686 0.015,-0.10277 0.024,-0.1714 0.031,-0.22734 0,0.0419 0,0.045 0.018,-0.16227 0,0.008 0.01,0.0174 0.014,0.0261 0.016,0.0334 0.035,0.0657 0.046,0.10328 0.012,0.0433 0.016,0.0912 0.024,0.13751 0,0.001 0,7.9e-4 0,-0.002 -0.01,-0.0468 -0.014,-0.0928 -0.024,-0.13751 -0.01,-0.0393 -0.024,-0.0761 -0.035,-0.11384 0,-0.007 -0.01,-0.0147 -0.01,-0.0227 0.01,-0.0454 0.016,-0.091 0.024,-0.1368 0,0.006 0.01,0.0115 0.014,0.0182 0.033,0.0507 0.054,0.0843 0.064,0.1037 -0.025,-0.0478 -0.05,-0.0967 -0.074,-0.14642 0,-0.0242 0.01,-0.0489 0.01,-0.0736 0,0.0242 -0.01,0.0483 -0.01,0.0724 -0.01,-0.0156 -0.016,-0.0318 -0.023,-0.048 -0.012,-0.0277 -0.02,-0.0514 -0.028,-0.0798 0,-0.001 0,-0.001 0,-0.005 0,-0.009 0,-0.0175 0,-0.0259 0,-0.0647 0.016,-0.12547 0.034,-0.1871 0.013,0.0208 0.023,0.0385 0.026,0.0462 0,0.008 0.01,0.0279 0.018,0.0509 0,0.0566 -0.01,0.11257 -0.016,0.16856 0.01,-0.054 0.014,-0.10813 0.018,-0.16226 0.023,0.0721 0.038,0.14232 0.047,0.17837 0,0.0172 0.023,0.004 0.021,-0.0102 -0.01,-0.0431 -0.012,-0.0871 -0.024,-0.12822 -0.01,-0.041 -0.025,-0.0796 -0.039,-0.1179 0,-10e-4 0,-10e-4 0,-0.002 -10e-5,-0.006 0,-0.009 0,-0.0147 0,-10e-4 0,-0.006 0,-0.009 -10e-5,0.001 0,0.007 0,0.009 0,0.003 0,0.007 -2.9e-4,0.0103 -0.016,-0.042 -0.028,-0.0694 -0.033,-0.0803 0.01,-0.0334 0.018,-0.0672 0.023,-0.10155 0.01,0.0598 0.011,0.12758 0.011,0.16217 0,-0.0446 0.012,-0.11335 0.011,-0.18167 0,-0.0176 -0.01,-0.0332 -0.014,-0.0466 0,-0.001 0,-0.001 0,-0.002 0,-0.008 -0.033,-0.0758 -0.043,-0.11829 0,-0.0184 -0.01,-0.0461 -0.014,-0.0687 0,0.001 0,0.002 0,0.005 0.029,0.0285 0.039,0.036 0.042,0.0363 0.034,0.0439 0.065,0.0906 0.093,0.14093 0,0.008 0.01,0.016 0.013,0.0252 0,-0.007 -0.01,-0.0193 -0.012,-0.0257 -0.017,-0.0355 -0.024,-0.0552 -0.034,-0.0729 0.016,0.002 0.029,-0.0165 0.015,-0.0367 -0.015,-0.0239 0,-5.3e-4 -0.029,-0.0289 -0.01,-0.009 -0.018,-0.0197 -0.028,-0.0281 0,-0.002 0,-0.003 -0.01,-0.006 0.065,0.11608 -0.077,-0.13634 -0.012,-0.0202 0,-0.008 0,-0.006 -0.01,-0.0119 0.016,0.006 0.021,0.003 0.031,0.003 0,0.002 0.01,0.007 0.01,0.009 0.037,0.0379 0.072,0.0784 0.1034,0.12167 -0.022,-0.0343 -0.042,-0.0691 -0.064,-0.10273 0.013,0.0111 0.033,0.0239 0.057,0.0434 0.1791,0.14168 0.1036,0.10251 0.079,0.0885 0.016,0.009 0.059,0.0378 0.1406,0.0903 0,0.003 0.01,0.008 0.012,0.013 0.016,0.0195 0.038,0.007 0.048,-0.0145 0,-0.0147 1e-4,-0.0313 -0.017,-0.0434 -0.263,-0.23272 -0.012,-0.0125 -0.2324,-0.19062 -0.021,-0.0165 -0.04,-0.0349 -0.06,-0.0523 0,5.3e-4 0.01,-1e-4 0.01,-0.001 0.014,-0.001 0.026,0.003 0.039,0.005 0.048,0.001 0.024,-8e-4 0.071,0.003 0.023,-1.9e-4 0.017,-0.0374 -0.01,-0.0358 -0.1015,0.007 0.04,-5.3e-4 -0.068,-0.003 -0.014,10e-4 -0.025,0.004 -0.038,0.003 -0.017,-8e-4 -0.033,-0.002 -0.049,-0.006 0,-5.3e-4 0,-0.002 -0.01,-0.004 -0.027,-0.019 -0.058,-0.029 -0.085,-0.0477 -0.012,-0.0124 -0.023,-0.0266 -0.032,-0.0417 0.027,0.004 0.077,0.0125 0.098,0.0121 0.01,-1.1e-4 0.055,-0.011 0.065,-0.0134 0.01,-1.1e-4 0.014,0.002 0.018,0.004 0.021,-0.005 0.024,-0.051 -0.011,-0.0441 0,-5.3e-4 -0.014,10e-4 -0.018,0.002 -0.01,0.004 -0.016,0.009 -0.024,0.0113 -0.025,0.009 -0.054,0.0107 -0.081,0.0108 -0.019,-5.3e-4 -0.038,0.002 -0.057,-0.002 -2.9e-4,-3e-5 0,1.1e-4 0,5e-5 -0.048,-0.0907 -0.058,-0.19965 -0.063,-0.22614 -0.034,-0.11075 -0.1087,-0.19913 -0.1904,-0.27896 0.038,0.0287 0.075,0.0648 0.1021,0.0904 0.019,0.0165 0.035,0.0338 0.053,0.0515 -0.018,-0.0172 -0.034,-0.0353 -0.051,-0.0537 -0.081,-0.0892 -0.1032,-0.11548 -0.1055,-0.12056 0,-0.002 -0.01,-0.005 -0.01,-0.008 0.06,0.0242 0.1547,0.0631 0.1567,0.0639 0.05,0.0218 0.099,0.0452 0.1487,0.0677 0,5.3e-4 0,-5.3e-4 2e-4,-0.001 z m -0.1406,0.0522 c 0.028,0.028 0.056,0.0566 0.083,0.0851 0,-8e-4 0,-0.003 0,-8e-4 -0.028,-0.0281 -0.056,-0.0561 -0.085,-0.0838 z m 0.3081,0.682 c 0.013,0.0211 0.025,0.0425 0.038,0.0639 0.011,0.02 0.024,0.0394 0.036,0.0593 0.01,0.0265 0.013,0.0532 0.019,0.0806 0,-0.027 -0.01,-0.054 -0.015,-0.0805 -0.012,-0.0202 -0.024,-0.0407 -0.036,-0.0617 -0.013,-0.0211 -0.027,-0.0416 -0.042,-0.0612 z m 0.093,0.20338 c 0.01,0.0403 0.011,0.0825 0.015,0.12511 0,-0.0358 -0.01,-0.0709 -0.012,-0.10559 0,-0.006 0,-0.0134 0,-0.0197 z m 0.015,0.12511 c 0,0.014 0,0.0291 0,0.0435 10e-5,-5.3e-4 0,-5.3e-4 0,-2.6e-4 0,-0.014 0,-0.0292 0,-0.0432 z m -0.139,-0.23028 c 0,-0.002 0.014,0.0293 0.012,0.0274 0.01,0.0446 0.013,0.0892 0.017,0.1345 0,0 0,8e-5 0,8e-5 0,-0.0449 -0.01,-0.0902 -0.017,-0.13425 0,-0.008 -0.01,-0.0178 -0.014,-0.0276 z m -1.9827,1.69052 c 0.023,-0.0136 0.046,-0.0274 0.066,-0.0388 -0.017,0.009 -0.034,0.0179 -0.05,0.0285 -0.01,0.002 -0.011,0.009 -0.016,0.0113 z m 0.2632,-0.39105 c -0.01,0.005 -0.012,0.01 -0.018,0.0139 -0.016,0.0114 -0.03,0.0252 -0.044,0.0381 0.019,-0.0152 0.04,-0.0335 0.062,-0.0523 z m -0.062,0.0523 c -0.01,0.007 -0.017,0.0129 -0.023,0.0188 0,5.3e-4 0,0.001 0,7.9e-4 0.01,-0.007 0.014,-0.013 0.022,-0.0197 z m -0.4069,-4.36762 c -0.023,-0.0348 -0.1868,-0.13295 -0.5655,-0.26426 -1.0257,-0.35676 -1.0423,-0.18945 -0.9043,-0.17963 0.138,0.01 0.3872,-0.0103 -0.2535,0.008 0.1964,0.0191 0.273,0.0662 0.3163,0.0814 0.6462,0.0517 1.1027,0.25578 1.3099,0.34288 0.073,0.0303 0.1106,0.0323 0.097,0.0114 z m -1.7234,-0.43563 c -0.1306,-0.0129 -0.4293,-0.0234 -0.8222,0.0815 -0.3121,0.0843 -0.767,0.26491 -1.2181,0.65218 -0.2971,0.25501 -0.5137,0.53446 -0.6675,0.79758 0.1529,-0.23526 0.3386,-0.45473 0.5528,-0.65123 0.4825,-0.44288 0.9887,-0.65553 1.3451,-0.75683 0.3419,-0.0957 0.6347,-0.11823 0.8099,-0.12338 z m 3.7851,4.03444 c -0.01,0.0445 -0.015,0.0889 -0.024,0.13313 0,-0.0141 -0.01,-0.0266 -0.011,-0.0396 0,-0.008 0,-0.013 -0.01,-0.0167 0,-0.0462 -10e-5,-0.0915 0,-0.13651 0.015,0.0204 0.03,0.0405 0.044,0.0599 z m 0.1213,0.21259 c 0.01,0.0127 0.015,0.0335 0.023,0.0556 0,0.001 0,-2.6e-4 0,-5.3e-4 -0.01,-0.019 -0.016,-0.0367 -0.024,-0.0545 z m -1.3491,-1.13529 c -0.01,-0.0119 -0.03,-0.0137 -0.034,0.003 -0.01,0.0445 -2e-4,0.0103 -0.011,0.0581 0,0.007 0,0.0151 -0.01,0.0221 0,0.003 1e-4,0.006 0,0.007 0.01,0.0177 0.032,0.0219 0.036,2.6e-4 0,-0.006 0,-0.014 0,-0.0211 0,-0.0104 0.01,-0.0187 0.011,-0.0283 0,-0.0183 0,-0.008 0.01,-0.0272 0,-0.005 1e-4,-0.0103 0,-0.0152 z m 0.1512,0.69473 c 0,2.6e-4 0,2.6e-4 0,5.3e-4 -2e-4,-2.6e-4 0,-2.6e-4 0,-8e-4 0,-7e-5 0,-9e-5 0,9e-5 z m 0.051,0.19913 c -0.013,0.0332 -0.031,0.0763 -0.064,0.0876 -0.01,0.001 -0.013,0.003 -0.022,0.004 0.021,-0.0268 0.043,-0.0538 0.054,-0.0652 0.01,-0.009 0.02,-0.0184 0.032,-0.0262 z m 0.4286,1.1712 c 0,0.002 0,0.007 -0.01,0.008 -0.034,0.0508 -0.07,0.1002 -0.107,0.14868 -0.077,0.10044 -0.088,0.1142 -0.1094,0.13514 -1e-4,-0.006 0,-0.009 0,-0.014 0.029,-0.0429 0.069,-0.099 0.1285,-0.18549 0.031,-0.0311 0.062,-0.0623 0.093,-0.0939 z m 0.036,0.21738 c 0,-0.017 -0.028,-0.0196 -0.042,0.001 0,7.9e-4 0,0.003 0,0.007 0,0.0104 -0.01,0.0188 -0.01,0.0286 -0.01,0.0156 -0.013,0.0302 -0.017,0.0459 -0.01,0.022 -0.012,0.0444 -0.019,0.0666 -0.01,0.0148 0.011,0.02 0.018,0.005 0.011,-0.0214 0.022,-0.0434 0.033,-0.0648 0.056,-0.10546 0,0.008 0.035,-0.0664 0.01,-0.009 0.01,-0.0155 0,-0.0218 z m -1.2902,-0.14759 c -0.035,0.022 -0.071,0.042 -0.1063,0.062 0,0.002 0,0.003 0,0.002 0.06,-0.0352 0.084,-0.0518 0.1049,-0.0643 z m 0.016,0.21029 c -0.081,0.0713 -0.1134,0.096 -0.1231,0.10441 0,-0.002 0,-0.004 0.01,-0.006 0.039,-0.0322 0.078,-0.0657 0.1161,-0.099 z m -0.1231,0.10441 c -0.062,0.0505 -0.1188,0.0932 -0.1817,0.13852 0,0.002 0,0.006 0,0.003 0.026,-0.0197 0.053,-0.0373 0.079,-0.0572 0.2111,-0.16644 0.073,-0.0638 0.1,-0.0862 z m 0.3473,0.32802 c 0,0.004 -0.01,0.007 -0.011,0.01 -0.2359,0.18028 -0.4994,0.37211 -0.7944,0.49284 -0.2094,0.0857 0.074,-0.0486 -0.1354,0.0244 -0.094,0.0326 -0.182,0.0596 -0.2639,0.08 -0.6936,0.17914 -0.907,0.15099 -0.9485,0.13273 -0.033,-0.002 -0.07,-0.008 -0.2554,-0.0387 0.508,0.0482 0.8362,-0.0494 0.8875,-0.083 -0.042,0.0117 -0.082,0.0231 -0.1245,0.0323 -0.097,0.0215 -0.363,0.037 -0.6369,0.008 -0.2483,-0.0266 -0.4268,-0.0741 -0.2453,-0.0502 0.3286,0.0433 0.6713,0.0516 1.0148,0.002 1e-4,10e-4 -0.01,0.004 -0.01,0.007 0.015,-0.005 0.027,-0.008 0.039,-0.0111 -0.01,2.6e-4 -0.019,0.004 -0.029,0.004 0,-0.003 0,-0.006 -0.011,-0.008 -0.017,-0.003 -0.071,0.002 -0.1377,0.006 0.1105,-0.0132 0.2162,-0.0329 0.3175,-0.056 -0.034,0.0164 -0.075,0.0331 -0.1349,0.0525 0.087,-0.0135 0.1733,-0.0298 0.2592,-0.0512 0.089,-0.0217 0.1777,-0.0468 0.2643,-0.079 0.2999,-0.10488 0.5837,-0.25723 0.8424,-0.44602 0.038,-0.009 0.075,-0.0186 0.1125,-0.0294 z m -2.1536,0.73985 c 0.05,0.005 0.029,-0.002 0,-0.009 -0.012,-0.002 -0.013,0.003 0,0.009 z m 1.5972,-1.29414 c 0,5.3e-4 -0.073,0.0261 -0.1128,0.0414 0.013,-0.004 0.01,-0.005 0.029,-0.0125 0.041,-0.0156 0.086,-0.0308 0.084,-0.0289 z m -0.2996,0.69564 c 0.036,-0.0181 -0.1248,0.0622 -0.3079,0.12827 0.179,-0.0622 0.3057,-0.12693 0.3079,-0.12827 z m -1.0984,0.41057 c -0.013,-5.3e-4 -0.025,0.001 -0.039,0.002 -0.073,10e-4 -0.1456,2.6e-4 -0.2183,-0.003 0.037,3e-5 0.074,5.3e-4 0.1092,7.9e-4 0.049,0.001 0.099,7.9e-4 0.1479,-5.3e-4 z m -0.053,0.003 c -0.1084,0.006 -0.2202,0.006 -0.3352,-10e-4 -0.069,-0.004 -0.02,-0.004 0.02,-0.004 0.1043,0.007 0.2097,0.009 0.315,0.005 z"
       style="fill:#e5e5e5;fill-opacity:1;stroke:none;stroke-width:0.160957px;stroke-linecap:butt;stroke-linejoin:miter;stroke-opacity:1"
       id="path10149" />
  </g>
</svg>
