<?xml version="1.0" encoding="UTF-8" standalone="no"?>
<svg
   xmlns:dc="http://purl.org/dc/elements/1.1/"
   xmlns:cc="http://creativecommons.org/ns#"
   xmlns:rdf="http://www.w3.org/1999/02/22-rdf-syntax-ns#"
   xmlns:svg="http://www.w3.org/2000/svg"
   xmlns="http://www.w3.org/2000/svg"
   xmlns:sodipodi="http://sodipodi.sourceforge.net/DTD/sodipodi-0.dtd"
   xmlns:inkscape="http://www.inkscape.org/namespaces/inkscape"
   inkscape:export-ydpi="96"
   inkscape:export-xdpi="96"
   inkscape:export-filename="D:\Calcatz\Icon Pack\Adventure Narative Inspired by Arrival\GUI\Settings\png\slider_head.png"
   sodipodi:docname="slider_head.svg"
   inkscape:version="1.0 (4035a4fb49, 2020-05-01)"
   id="svg6408"
   version="1.1"
   viewBox="0 0 2.7941272 5.1113219"
   height="5.1113219mm"
   width="2.7941272mm">
  <defs
     id="defs6402" />
  <sodipodi:namedview
     inkscape:window-maximized="1"
     inkscape:window-y="-8"
     inkscape:window-x="-8"
     inkscape:window-height="705"
     inkscape:window-width="1366"
     fit-margin-bottom="0"
     fit-margin-right="0"
     fit-margin-left="0"
     fit-margin-top="0"
     showgrid="false"
     inkscape:document-rotation="0"
     inkscape:current-layer="layer1"
     inkscape:document-units="mm"
     inkscape:cy="7.9342892"
     inkscape:cx="3.4854239"
     inkscape:zoom="10.738351"
     inkscape:pageshadow="2"
     inkscape:pageopacity="0.0"
     borderopacity="1.0"
     bordercolor="#666666"
     pagecolor="#ffffff"
     id="base" />
  <metadata
     id="metadata6405">
    <rdf:RDF>
      <cc:Work
         rdf:about="">
        <dc:format>image/svg+xml</dc:format>
        <dc:type
           rdf:resource="http://purl.org/dc/dcmitype/StillImage" />
        <dc:title></dc:title>
      </cc:Work>
    </rdf:RDF>
  </metadata>
  <g
     transform="translate(-86.121028,-164.59601)"
     id="layer1"
     inkscape:groupmode="layer"
     inkscape:label="Layer 1">
    <path
       id="path10179"
       style="fill:#808080;fill-opacity:1;stroke-width:0.472813;stroke-linecap:round;paint-order:markers stroke fill"
       d="m 86.315535,164.59601 -5e-4,2.75181 0.2413,0.35202 c 0.027,0.0502 0.025,0.0723 -0.026,0.12002 -0.061,0.0171 -0.097,0.0198 -0.2085,0.012 -0.064,0.007 -0.054,0.0971 0.01,0.0903 0.1282,-0.0423 0.1578,-0.0512 0.2741,-0.0748 -0.059,0.0473 -0.1176,0.0869 -0.2302,0.1361 -0.05,0.022 -0.1057,0.0304 -0.1584,0.0457 -0.051,0.0228 -0.019,0.0943 0.032,0.0718 0.05,-0.0231 0.1011,-0.0441 0.1504,-0.0693 0.4326,-0.22247 0.2875,-0.15356 0.2808,-0.15033 l 0.027,0.0402 c -0.033,0.0731 -0.048,0.10571 -0.1274,0.2852 -0.2507,0.5669 -0.1123,0.39421 -0.4312,0.68857 -0.1181,0.20318 0.1695,0.37021 0.2877,0.16704 0.016,-0.0912 0.016,-0.18674 0.049,-0.27345 0.056,-0.14953 0.1282,-0.29232 0.2029,-0.43368 -7.99e-4,0.012 -2.99e-4,0.0237 0,0.0353 -0.01,0.048 -0.043,0.09 -0.045,0.13858 0,0.0721 0.024,0.14225 0.035,0.21343 2.99e-4,0.0497 7.99e-4,0.0995 0,0.14911 0.019,0.11398 0.1797,0.0868 0.1609,-0.0272 -0.014,-0.0429 -0.027,-0.0852 -0.041,-0.12807 -1e-4,-0.028 -0.01,-0.26502 0,-0.31799 0.01,-0.0605 0.02,-0.0882 0.031,-0.11936 0.047,-0.0545 0.097,-0.0641 0.1367,-0.002 l 0.3501,0.51102 c -0.01,0.0437 -0.024,0.0739 -0.097,0.21035 -0.025,0.0466 -0.05,0.0934 -0.077,0.13858 -0.013,0.022 -0.048,0.037 -0.045,0.0625 0,0.0372 0.041,0.0626 0.062,0.094 0.092,0.0188 0.1202,-0.0934 0.051,-0.13177 0.015,-0.0479 0.04,-0.0922 0.062,-0.13734 0.033,-0.068 0.063,-0.11673 0.092,-0.16767 l 0.02,0.0303 c 0.011,0.0344 0.021,0.0706 0.031,0.11565 0,0.0854 0,0.17118 -0.01,0.25612 0,0.031 -0.011,0.0609 -0.016,0.0916 0,0.12532 0.1776,0.12532 0.1776,0 -0.012,-0.0307 -0.032,-0.059 -0.037,-0.0916 -0.011,-0.0634 -0.01,-0.12697 0,-0.18993 0.01,-0.0339 0.019,-0.0759 0.037,-0.0977 v -0.007 c 0.024,0.0359 0.054,0.0831 0.06,0.091 0.049,0.0608 0.1036,0.11673 0.1578,0.17261 0.106,0.10943 0.3331,0.32898 0.4516,0.44421 0.048,0.046 0.1126,-0.0214 0.065,-0.0674 -0.075,-0.0544 -0.1576,-0.0984 -0.224,-0.16269 -0.2277,-0.22044 -0.1903,-0.23241 -0.3279,-0.46153 -0.013,-0.0209 -0.026,-0.0415 -0.041,-0.0613 -0.024,-0.0918 0.01,-0.15742 0.048,-0.23138 l 0.245,-0.35821 c 0.037,-0.0608 0.08,-0.10607 0.1516,-0.034 0.3969,0.88843 -0.2289,-0.20547 0.1664,0.46398 0.1026,0.16801 0.3402,0.0226 0.2376,-0.14538 -0.1835,-0.29079 -0.063,-0.0821 -0.2654,-0.52215 -0.024,-0.0533 -0.021,-0.0423 -0.038,-0.0773 0.035,0.0188 0.046,0.0268 0.1169,0.0613 0.064,0.0311 0.1338,0.0499 0.2005,0.0748 0.1111,0.0597 0.1952,-0.0973 0.084,-0.15713 -0.063,-0.0307 -0.1279,-0.0569 -0.1881,-0.0922 -0.016,-0.01 -0.016,-0.0108 -0.029,-0.0186 -0.051,-0.0505 -0.054,-0.10559 -0.034,-0.14043 l 0.087,-0.12807 c 0.016,-0.0274 0.036,-0.028 0.056,-0.0148 0.043,0.0749 -0.069,-0.0281 0.1571,0.23199 0.061,0.0703 0.132,0.13067 0.198,0.19612 0.01,0.007 0.017,-7.9e-4 0.011,-0.008 -0.06,-0.0687 -0.130099,-0.12969 -0.179999,-0.20601 -0.043,-0.0661 -0.063,-0.14476 -0.096,-0.21653 -0.029,-0.0621 -0.01,-0.0225 -0.022,-0.0471 -0.016,-0.0632 -0.013,-0.0918 0.01,-0.12435 l 0.067,-0.0977 v -2.75181 z" />
  </g>
</svg>
