<?xml version="1.0" encoding="UTF-8" standalone="no"?>
<svg
   xmlns:dc="http://purl.org/dc/elements/1.1/"
   xmlns:cc="http://creativecommons.org/ns#"
   xmlns:rdf="http://www.w3.org/1999/02/22-rdf-syntax-ns#"
   xmlns:svg="http://www.w3.org/2000/svg"
   xmlns="http://www.w3.org/2000/svg"
   xmlns:sodipodi="http://sodipodi.sourceforge.net/DTD/sodipodi-0.dtd"
   xmlns:inkscape="http://www.inkscape.org/namespaces/inkscape"
   inkscape:export-ydpi="96"
   inkscape:export-xdpi="96"
   inkscape:export-filename="D:\Calcatz\Icon Pack\Adventure Narative Inspired by Arrival\GUI\Settings\png\slider - background_detail_2.png"
   sodipodi:docname="slider - background_detail_2.svg"
   inkscape:version="1.0 (4035a4fb49, 2020-05-01)"
   id="svg8864"
   version="1.1"
   viewBox="0 0 6.3330102 1.2211742"
   height="1.2211742mm"
   width="6.3330102mm">
  <defs
     id="defs8858" />
  <sodipodi:namedview
     inkscape:window-maximized="1"
     inkscape:window-y="-8"
     inkscape:window-x="-8"
     inkscape:window-height="705"
     inkscape:window-width="1366"
     fit-margin-bottom="0"
     fit-margin-right="0"
     fit-margin-left="0"
     fit-margin-top="0"
     showgrid="false"
     inkscape:document-rotation="0"
     inkscape:current-layer="layer1"
     inkscape:document-units="mm"
     inkscape:cy="3.2422202"
     inkscape:cx="10.983702"
     inkscape:zoom="15.186322"
     inkscape:pageshadow="2"
     inkscape:pageopacity="0.0"
     borderopacity="1.0"
     bordercolor="#666666"
     pagecolor="#ffffff"
     id="base" />
  <metadata
     id="metadata8861">
    <rdf:RDF>
      <cc:Work
         rdf:about="">
        <dc:format>image/svg+xml</dc:format>
        <dc:type
           rdf:resource="http://purl.org/dc/dcmitype/StillImage" />
        <dc:title></dc:title>
      </cc:Work>
    </rdf:RDF>
  </metadata>
  <g
     transform="translate(-102.66683,-147.55608)"
     id="layer1"
     inkscape:groupmode="layer"
     inkscape:label="Layer 1">
    <g
       transform="translate(-150.2831,-3.2339162)"
       id="g10409">
      <path
         style="fill:#1f2123;fill-opacity:1;stroke:none;stroke-width:0.264583px;stroke-linecap:butt;stroke-linejoin:miter;stroke-opacity:1"
         d="m 252.94993,151.81295 c 0,0 0.51111,-0.1701 0.92608,-0.23752 0.0611,-0.01 0.1676,-0.0507 0.23704,-0.13178 0.0244,-0.0285 0.011,0.10471 0.044,0.10472 0.0515,1e-5 0.34496,-0.13224 0.30555,-0.0994 -0.10633,0.0887 -0.0519,0.13986 -0.002,0.15497 0.12366,0.0372 0.2467,0.0814 0.37407,0.0932 0.35144,0.0326 0.70725,0.003 1.05833,-0.0331 0.3786,-0.0391 0.74504,-0.16855 1.12448,-0.19844 0.0533,-0.004 0.12865,-0.0209 0.0988,-0.0851 -0.016,-0.0345 0.13741,0.071 0.17547,0.0698 0.0998,-0.003 0.19981,-0.003 0.29961,-5.1e-4 0.0381,0.001 0.18353,-0.13776 0.17695,-0.10028 -0.0134,0.0764 0.0534,0.11318 0.11134,0.11914 0.0379,0.004 0.0757,0.008 0.11344,0.0134 0.43989,0.0592 1.28985,0.33072 1.28985,0.33072 l -1.27331,0.0992 -2.23242,0.0496 -1.86862,0.0496 z"
         id="path10373"
         sodipodi:nodetypes="cssssssssssssssccccc" />
      <path
         style="fill:#1f2123;fill-opacity:1;stroke:none;stroke-width:0.702;stroke-linecap:round;stroke-miterlimit:4;stroke-dasharray:none;stroke-opacity:1;paint-order:markers stroke fill"
         id="path10375"
         d="m 254.08009,151.8092 c 0.0702,-0.0728 0.22687,-0.23685 0.28238,-0.28284 0.0904,-0.0749 0.19154,-0.1357 0.28484,-0.20687 0.49462,-0.37731 0.0894,-0.097 0.5033,-0.37448 0.0654,-0.0463 1e-5,-0.13884 -0.0654,-0.0926 v 0 c -0.0708,0.0499 -0.14319,0.0977 -0.21249,0.14968 -0.0992,0.0744 -0.19138,0.15815 -0.29278,0.22953 -0.0971,0.0684 -0.20212,0.12495 -0.30205,0.1892 -0.33108,0.21282 -0.082,0.068 -0.36146,0.22465 -0.11576,0.11575 0.0479,0.27946 0.16371,0.1637 z" />
      <path
         style="fill:#1f2123;fill-opacity:1;stroke:none;stroke-width:0.702;stroke-linecap:round;stroke-miterlimit:4;stroke-dasharray:none;stroke-opacity:1;paint-order:markers stroke fill"
         id="path10377"
         d="m 254.20282,151.67541 c 0.0561,-0.10308 0.0752,-0.22121 0.12479,-0.32674 0.13322,-0.22922 0.0776,-0.11591 0.17106,-0.33784 0.0431,-0.1176 -0.12325,-0.1785 -0.16632,-0.0609 v 0 c -0.0378,0.10362 -0.0844,0.23842 -0.13255,0.33483 -0.0269,0.0538 -0.14642,0.24218 -0.18159,0.29835 -0.0653,0.13054 0.11934,0.22284 0.18461,0.0923 z" />
      <path
         style="fill:#1f2123;fill-opacity:1;stroke:none;stroke-width:0.702;stroke-linecap:round;stroke-miterlimit:4;stroke-dasharray:none;stroke-opacity:1;paint-order:markers stroke fill"
         id="path10379"
         d="m 254.30352,151.78111 c 0.0753,-0.0286 0.3624,-0.13889 0.41764,-0.15454 0.0709,-0.0201 0.14453,-0.0283 0.2168,-0.0424 0.11319,-0.0355 0.063,-0.19554 -0.0502,-0.16007 v 0 c -0.0676,0.0252 -0.13319,0.0564 -0.20269,0.0756 -0.18322,0.0507 -0.22044,0.0468 -0.38159,0.0566 -0.15902,0 -0.15902,0.2249 0,0.2249 z" />
      <path
         style="fill:#1f2123;fill-opacity:1;stroke:none;stroke-width:0.702;stroke-linecap:round;stroke-miterlimit:4;stroke-dasharray:none;stroke-opacity:1;paint-order:markers stroke fill"
         id="path10381"
         d="m 257.56227,151.51964 c -0.11333,-0.26428 -0.0446,-0.0448 -0.0641,-0.33282 -0.004,-0.0532 -0.0172,-0.10531 -0.0258,-0.15797 10e-4,-0.11406 -0.16023,-0.1156 -0.16132,-0.002 v 0 c -0.002,0.0609 -0.0102,0.12189 -0.006,0.18263 0.002,0.0218 0.0602,0.33152 0.0658,0.36178 0.0368,0.13505 0.22782,0.083 0.19099,-0.0521 z" />
      <path
         style="fill:#1f2123;fill-opacity:1;stroke:none;stroke-width:0.702;stroke-linecap:round;stroke-miterlimit:4;stroke-dasharray:none;stroke-opacity:1;paint-order:markers stroke fill"
         id="path10383"
         d="m 257.47788,151.91359 c 0.0197,-0.0919 0.0611,-0.3025 0.0955,-0.37662 0.0358,-0.077 0.0912,-0.14327 0.13873,-0.21358 0.0583,-0.0861 0.1079,-0.1796 0.17876,-0.25571 0.0558,-0.0599 0.131,-0.0983 0.19651,-0.14737 0.0783,-0.0646 -0.013,-0.17534 -0.0913,-0.11078 v 0 c -0.057,0.0673 -0.10861,0.13966 -0.17112,0.20193 -0.0823,0.082 -0.18909,0.13938 -0.26219,0.2297 -0.0569,0.0702 -0.083,0.16065 -0.12039,0.24295 -0.17438,0.38422 -0.005,0.0712 -0.17446,0.36949 -0.0424,0.14845 0.16753,0.20844 0.20994,0.06 z" />
      <path
         style="fill:#1f2123;fill-opacity:1;stroke:none;stroke-width:0.702;stroke-linecap:round;stroke-miterlimit:4;stroke-dasharray:none;stroke-opacity:1;paint-order:markers stroke fill"
         id="path10385"
         d="m 257.51452,151.54694 c -0.16171,-0.12297 -0.29931,-0.27302 -0.44297,-0.41569 -0.0932,-0.0811 -0.20783,0.0507 -0.11463,0.13181 v 0 c 0.0459,0.0342 0.0955,0.064 0.13776,0.10259 0.14245,0.13016 0.14928,0.15924 0.24809,0.3101 0.0911,0.12145 0.26283,-0.007 0.17175,-0.12881 z" />
      <path
         style="fill:#1f2123;fill-opacity:1;stroke:none;stroke-width:0.702;stroke-linecap:round;stroke-miterlimit:4;stroke-dasharray:none;stroke-opacity:1;paint-order:markers stroke fill"
         id="path10387"
         d="m 253.44423,151.77482 c 0.0691,-0.1276 0.0727,-0.154 0.20025,-0.26895 0.0724,-0.0653 0.15512,-0.11816 0.23268,-0.17724 0.0262,-0.0177 0.001,-0.0547 -0.025,-0.0371 v 0 c -0.0832,0.0569 -0.16692,0.11319 -0.24967,0.17081 -0.21542,0.15 -0.14053,0.0853 -0.28836,0.23811 -0.0526,0.092 0.0775,0.16631 0.13008,0.0743 z" />
      <path
         style="fill:#1f2123;fill-opacity:1;stroke:none;stroke-width:0.702;stroke-linecap:round;stroke-miterlimit:4;stroke-dasharray:none;stroke-opacity:1;paint-order:markers stroke fill"
         id="path10389"
         d="m 253.75361,151.75754 c 0.032,-0.13968 0.0573,-0.27217 0.13298,-0.40214 0.0548,-0.0941 0.13875,-0.16781 0.20812,-0.25172 0.009,-0.0115 -0.007,-0.0241 -0.0163,-0.0127 v 0 c -0.16654,0.19534 -0.33833,0.38839 -0.4763,0.60592 -0.0428,0.1071 0.10862,0.16768 0.15146,0.0606 z" />
      <path
         style="fill:#1f2123;fill-opacity:1;stroke:none;stroke-width:0.702;stroke-linecap:round;stroke-miterlimit:4;stroke-dasharray:none;stroke-opacity:1;paint-order:markers stroke fill"
         id="path10391"
         d="m 257.12914,151.47312 c -0.22371,-0.0752 -0.11434,-0.03 -0.37165,-0.16348 -0.076,-0.0394 -0.15167,-0.0796 -0.22751,-0.11946 -0.0366,-0.0177 -0.0616,0.0341 -0.025,0.0518 v 0 c 0.0723,0.0425 0.14529,0.0838 0.21689,0.12738 0.2274,0.13857 0.1595,0.0903 0.32607,0.23365 0.0918,0.0574 0.17304,-0.0725 0.0812,-0.1299 z" />
      <path
         style="fill:#1f2123;fill-opacity:1;stroke:none;stroke-width:0.702;stroke-linecap:round;stroke-miterlimit:4;stroke-dasharray:none;stroke-opacity:1;paint-order:markers stroke fill"
         id="path10393"
         d="m 256.97701,151.64086 c -0.0611,-0.11643 -0.14964,-0.21568 -0.21449,-0.3296 -0.0629,-0.1105 -0.11589,-0.22634 -0.17383,-0.3395 -0.0111,-0.0245 -0.0457,-0.009 -0.0346,0.0157 v 0 c 0.11064,0.24279 0.2265,0.48407 0.31804,0.73503 0.0577,0.0742 0.16264,-0.007 0.10493,-0.0816 z" />
      <path
         style="fill:#1f2123;fill-opacity:1;stroke:none;stroke-width:0.702;stroke-linecap:round;stroke-miterlimit:4;stroke-dasharray:none;stroke-opacity:1;paint-order:markers stroke fill"
         id="path10395"
         d="m 257.71202,151.53442 c 0.008,-0.04 0.008,-0.083 0.0251,-0.11985 0.0815,-0.1703 0.18486,-0.20973 0.34112,-0.3278 0.025,-0.0173 5.3e-4,-0.0526 -0.0245,-0.0353 v 0 c -0.0918,0.0551 -0.19057,0.10003 -0.27539,0.16537 -0.12534,0.0966 -0.14657,0.1624 -0.21356,0.28819 -0.0208,0.10405 0.12633,0.13348 0.14714,0.0294 z" />
      <path
         style="fill:#1f2123;fill-opacity:1;stroke:none;stroke-width:0.702;stroke-linecap:round;stroke-miterlimit:4;stroke-dasharray:none;stroke-opacity:1;paint-order:markers stroke fill"
         id="path10397"
         d="m 257.68912,151.54079 c 0.0324,-0.0387 0.0594,-0.0827 0.0973,-0.11604 0.1,-0.088 0.27313,-0.18312 0.38491,-0.24945 -2e-4,1.2e-4 -3e-5,5.3e-4 1.7e-4,2.7e-4 v 0 c -0.0696,0.0395 -0.14096,0.0761 -0.20892,0.11836 -0.69758,0.43398 0.21343,-0.10922 -0.31415,0.20305 -0.031,0.0288 0.01,0.0725 0.0407,0.0438 z" />
      <path
         style="fill:#1f2123;fill-opacity:1;stroke:none;stroke-width:0.702;stroke-linecap:round;stroke-miterlimit:4;stroke-dasharray:none;stroke-opacity:1;paint-order:markers stroke fill"
         id="path10399"
         d="m 255.23876,151.81543 c 0.007,-0.0221 0.009,-0.0463 0.0199,-0.0665 0.0215,-0.0381 0.0496,-0.0722 0.0772,-0.10612 0.12479,-0.15362 0.1172,-0.13734 0.2572,-0.26219 0.003,-0.002 -8e-4,-0.006 -0.003,-0.004 v 0 c -0.0442,0.0365 -0.0908,0.0702 -0.13263,0.10938 -0.0483,0.0452 -0.0901,0.0969 -0.13745,0.14315 -0.2815,0.27511 0.0228,-0.0393 -0.15672,0.14796 -0.0268,0.0536 0.049,0.0914 0.0757,0.0379 z" />
      <path
         style="fill:#1f2123;fill-opacity:1;stroke:none;stroke-width:0.702;stroke-linecap:round;stroke-miterlimit:4;stroke-dasharray:none;stroke-opacity:1;paint-order:markers stroke fill"
         id="path10401"
         d="m 255.57493,151.80255 c 0.009,-0.0233 0.0136,-0.0494 0.0281,-0.07 0.0326,-0.0464 0.18785,-0.18945 0.21576,-0.2131 0.054,-0.0458 0.10965,-0.0899 0.16747,-0.13086 0.12086,-0.0856 0.19304,-0.12255 0.31612,-0.19153 0.009,-0.005 0.002,-0.0185 -0.008,-0.0131 v 0 c -0.0437,0.0283 -0.0872,0.057 -0.13122,0.0848 -0.0604,0.0382 -0.12397,0.0716 -0.18207,0.11315 -0.0577,0.0413 -0.10751,0.093 -0.16465,0.13512 -0.0488,0.036 -0.10385,0.063 -0.15272,0.099 -0.0889,0.0653 -0.0953,0.0808 -0.15749,0.15609 -0.0215,0.0484 0.0469,0.0788 0.0684,0.0304 z" />
      <path
         style="fill:#1f2123;fill-opacity:1;stroke:none;stroke-width:0.702;stroke-linecap:round;stroke-miterlimit:4;stroke-dasharray:none;stroke-opacity:1;paint-order:markers stroke fill"
         id="path10403"
         d="m 256.39988,151.69523 c -0.0141,-0.11282 -0.018,-0.11316 -0.0115,-0.2499 0.003,-0.0595 0.003,-0.11985 0.016,-0.17785 0.009,-0.0408 0.0343,-0.0764 0.0514,-0.11456 0.007,-0.0235 -0.026,-0.0338 -0.0332,-0.0103 v 0 c -0.008,0.0413 -0.0166,0.0824 -0.024,0.12383 -0.0254,0.14295 -0.0424,0.28772 -0.0774,0.42878 0,0.0557 0.0787,0.0557 0.0787,0 z" />
      <path
         style="fill:#1f2123;fill-opacity:1;stroke:none;stroke-width:0.702;stroke-linecap:round;stroke-miterlimit:4;stroke-dasharray:none;stroke-opacity:1;paint-order:markers stroke fill"
         id="path10405"
         d="m 258.54843,151.60741 c -0.0156,-0.0148 -0.0327,-0.0282 -0.0468,-0.0444 -0.0384,-0.0443 -0.11669,-0.15838 -0.14855,-0.19697 -0.0357,-0.0432 -0.0755,-0.0829 -0.11256,-0.12493 -0.0377,-0.0428 -0.0745,-0.0865 -0.11168,-0.12967 -0.003,-0.004 -0.009,0.001 -0.006,0.005 v 0 c 0.0334,0.0457 0.0662,0.092 0.10029,0.13725 0.0334,0.0444 0.07,0.0864 0.10199,0.13182 0.0294,0.0418 0.0993,0.15687 0.12512,0.21035 0.008,0.0163 0.0124,0.0342 0.0187,0.0512 0.028,0.0559 0.10704,0.0164 0.0791,-0.0396 z" />
      <path
         style="fill:#1f2123;fill-opacity:1;stroke:none;stroke-width:0.702;stroke-linecap:round;stroke-miterlimit:4;stroke-dasharray:none;stroke-opacity:1;paint-order:markers stroke fill"
         id="path10407"
         d="m 254.0934,151.60682 c -0.0163,-0.0954 -0.0222,-0.11113 -0.0216,-0.22498 2.6e-4,-0.051 0.006,-0.10189 0.009,-0.15283 10e-4,-0.0153 -0.0206,-0.0166 -0.0216,-10e-4 v 0 c -0.005,0.0513 -0.011,0.10261 -0.0164,0.15392 -0.0178,0.16799 -0.005,0.0951 -0.0303,0.21519 -0.007,0.057 0.0735,0.0671 0.0806,0.0101 z" />
    </g>
  </g>
</svg>
