<?xml version="1.0" encoding="UTF-8" standalone="no"?>
<svg
   xmlns:dc="http://purl.org/dc/elements/1.1/"
   xmlns:cc="http://creativecommons.org/ns#"
   xmlns:rdf="http://www.w3.org/1999/02/22-rdf-syntax-ns#"
   xmlns:svg="http://www.w3.org/2000/svg"
   xmlns="http://www.w3.org/2000/svg"
   xmlns:sodipodi="http://sodipodi.sourceforge.net/DTD/sodipodi-0.dtd"
   xmlns:inkscape="http://www.inkscape.org/namespaces/inkscape"
   inkscape:export-ydpi="96"
   inkscape:export-xdpi="96"
   inkscape:export-filename="D:\Calcatz\Icon Pack\Adventure Narative Inspired by Arrival\GUI\Settings\png\slider - background_detail_1.png"
   sodipodi:docname="slider - background_detail_1.svg"
   inkscape:version="1.0 (4035a4fb49, 2020-05-01)"
   id="svg8166"
   version="1.1"
   viewBox="0 0 8.0046997 1.7879474"
   height="1.7879474mm"
   width="8.0046997mm">
  <defs
     id="defs8160" />
  <sodipodi:namedview
     inkscape:window-maximized="1"
     inkscape:window-y="-8"
     inkscape:window-x="-8"
     inkscape:window-height="705"
     inkscape:window-width="1366"
     fit-margin-bottom="0"
     fit-margin-right="0"
     fit-margin-left="0"
     fit-margin-top="0"
     showgrid="false"
     inkscape:document-rotation="0"
     inkscape:current-layer="layer1"
     inkscape:document-units="mm"
     inkscape:cy="7.8535976"
     inkscape:cx="28.720879"
     inkscape:zoom="7.593161"
     inkscape:pageshadow="2"
     inkscape:pageopacity="0.0"
     borderopacity="1.0"
     bordercolor="#666666"
     pagecolor="#ffffff"
     id="base" />
  <metadata
     id="metadata8163">
    <rdf:RDF>
      <cc:Work
         rdf:about="">
        <dc:format>image/svg+xml</dc:format>
        <dc:type
           rdf:resource="http://purl.org/dc/dcmitype/StillImage" />
        <dc:title></dc:title>
      </cc:Work>
    </rdf:RDF>
  </metadata>
  <g
     transform="translate(151.4427,-5.4136326)"
     id="layer1"
     inkscape:groupmode="layer"
     inkscape:label="Layer 1">
    <g
       transform="translate(-1664.9588,385.76844)"
       id="g10525">
      <path
         style="fill:#1f2123;fill-opacity:1;stroke:none;stroke-width:0.264583px;stroke-linecap:butt;stroke-linejoin:miter;stroke-opacity:1"
         d="m 1513.5161,-379.36191 c 0,0 0.3982,-0.0588 0.7977,-0.11481 0.05,-0.007 0.1237,-0.01 0.09,-0.0837 -0.014,-0.0303 0.1257,0.0538 0.1579,0.0494 0.1047,-0.0143 0.2034,-0.0273 0.2877,-0.038 0.468,-0.0591 0.9426,0.0179 1.4149,0.0259 0.045,7.9e-4 0.088,-0.003 0.069,-0.0378 -0.016,-0.0285 0.1324,0.0366 0.165,0.0352 0.2525,-0.0109 0.5042,-0.0338 0.7555,-0.0575 0.096,-0.009 0.176,-0.0154 0.1331,-0.068 -0.01,-0.0103 0.1814,0.0385 0.1947,0.0373 0.2075,-0.0185 0.415,-0.0344 0.6226,-0.0412 0.088,-0.003 0.1835,-0.0101 0.1109,-0.094 -0.02,-0.0232 0.2149,0.0915 0.2456,0.0922 0.022,5.2e-4 0.079,-0.1365 0.088,-0.11636 0.049,0.11367 0.1106,0.12518 0.1769,0.13066 0.161,0.0133 0.3171,0.0289 0.4717,0.0475 0.056,0.007 0.1492,-0.0242 0.1272,-0.084 -0.01,-0.0166 0.074,0.11 0.092,0.11245 0.058,0.008 0.1164,0.0167 0.1747,0.0258 0.01,10e-4 0.1278,-0.024 0.1214,-0.0175 -0.04,0.0402 0.01,0.0382 0.058,0.047 0.08,0.0137 0.1597,0.0284 0.2409,0.0441 0.4623,0.0895 1.4093,0.13362 1.4093,0.13362 l -0.2517,0.20551 -3.7418,0.56128 -3.1922,-0.28065 z"
         id="path10467"
         sodipodi:nodetypes="cssssssssssssssssssssssccccc" />
      <path
         style="fill:#1f2123;fill-opacity:1;stroke:none;stroke-width:0.702;stroke-linecap:round;stroke-miterlimit:4;stroke-dasharray:none;stroke-opacity:1;paint-order:markers stroke fill"
         id="path10469"
         d="m 1514.7254,-379.3436 c 0.03,-0.15452 8e-4,-0.0325 0.078,-0.23808 0.02,-0.0534 0.032,-0.10987 0.056,-0.16164 0.1184,-0.25513 0.036,-0.002 0.084,-0.16039 0.044,-0.1411 -0.1559,-0.20287 -0.1995,-0.0618 v 0 c 0,0.0982 0.01,-0.003 -0.051,0.15276 -0.019,0.0528 -0.026,0.11042 -0.049,0.16158 -0.026,0.0556 -0.064,0.10396 -0.097,0.15596 -0.021,0.0505 -0.041,0.10103 -0.062,0.15156 0,0.16927 0.2393,0.16927 0.2393,0 z" />
      <path
         style="fill:#1f2123;fill-opacity:1;stroke:none;stroke-width:0.702;stroke-linecap:round;stroke-miterlimit:4;stroke-dasharray:none;stroke-opacity:1;paint-order:markers stroke fill"
         id="path10471"
         d="m 1514.8155,-379.44306 c 0.099,-0.15558 0.1091,-0.20736 0.2806,-0.31211 0.043,-0.0261 0.095,-0.0301 0.143,-0.0452 0.1178,-0.0603 0.032,-0.22683 -0.085,-0.1665 v 0 c -0.046,0.0379 -0.091,0.078 -0.1385,0.11386 -0.3013,0.22552 -0.1405,0.0571 -0.351,0.31923 -0.064,0.10693 0.087,0.19766 0.1512,0.0907 z" />
      <path
         style="fill:#1f2123;fill-opacity:1;stroke:none;stroke-width:0.702;stroke-linecap:round;stroke-miterlimit:4;stroke-dasharray:none;stroke-opacity:1;paint-order:markers stroke fill"
         id="path10473"
         d="m 1518.7717,-379.49838 c -0.2972,-0.21551 -0.261,-0.17874 -0.552,-0.43682 -0.3862,-0.3425 -0.084,-0.0965 -0.3245,-0.28888 -0.1279,-0.0698 -0.2266,0.11101 -0.099,0.18082 v 0 c 0.1845,0.0339 0.1461,0.0127 0.3653,0.17779 0.2706,0.20378 0.2812,0.24485 0.4841,0.49294 0.089,0.089 0.2148,-0.0369 0.1258,-0.12585 z" />
      <path
         style="fill:#1f2123;fill-opacity:1;stroke:none;stroke-width:0.702;stroke-linecap:round;stroke-miterlimit:4;stroke-dasharray:none;stroke-opacity:1;paint-order:markers stroke fill"
         id="path10475"
         d="m 1518.7722,-379.55235 c -0.1125,-0.14503 -0.1196,-0.14052 -0.2106,-0.34721 -0.034,-0.0767 -0.071,-0.15406 -0.084,-0.2368 -0.01,-0.04 0.018,-0.079 0.027,-0.11848 -0.023,-0.15353 -0.2404,-0.12053 -0.2171,0.033 v 0 c 0.071,0.14169 0.1073,0.20583 0.1631,0.37395 0.1479,0.44543 -0.01,0.11877 0.1537,0.4301 0.095,0.11892 0.2633,-0.0156 0.1682,-0.13455 z" />
      <path
         style="fill:#1f2123;fill-opacity:1;stroke:none;stroke-width:0.702;stroke-linecap:round;stroke-miterlimit:4;stroke-dasharray:none;stroke-opacity:1;paint-order:markers stroke fill"
         id="path10477"
         d="m 1514.9449,-379.52277 c 0.2636,-0.17151 0.1253,-0.095 0.4155,-0.22844 0.016,-0.007 0.01,-0.0299 -0.01,-0.0227 v 0 c -0.2931,0.13394 -0.1443,0.0735 -0.4463,0.18143 -0.049,0.029 -0.01,0.0987 0.041,0.0697 z" />
      <path
         style="fill:#1f2123;fill-opacity:1;stroke:none;stroke-width:0.702;stroke-linecap:round;stroke-miterlimit:4;stroke-dasharray:none;stroke-opacity:1;paint-order:markers stroke fill"
         id="path10479"
         d="m 1514.59,-379.46587 c -0.023,-0.0196 -0.046,-0.0392 -0.069,-0.0587 -0.031,-0.0303 -0.061,-0.0626 -0.094,-0.0909 -0.091,-0.0775 -0.2183,-0.17251 -0.3281,-0.21634 -0.071,-0.0285 -0.1489,-0.0381 -0.2234,-0.0571 -0.01,-0.002 -0.01,0.005 0,0.007 v 0 c 0.069,0.028 0.1405,0.0497 0.2065,0.0839 0.061,0.0317 0.1181,0.0718 0.1737,0.11273 0.077,0.0571 0.1531,0.12713 0.2113,0.20474 0.017,0.0233 0.03,0.0501 0.044,0.0751 0.043,0.057 0.1234,-0.003 0.081,-0.0605 z" />
      <path
         style="fill:#1f2123;fill-opacity:1;stroke:none;stroke-width:0.702;stroke-linecap:round;stroke-miterlimit:4;stroke-dasharray:none;stroke-opacity:1;paint-order:markers stroke fill"
         id="path10481"
         d="m 1514.605,-379.5332 c -0.059,-0.0996 -0.031,-0.0491 -0.084,-0.15124 -0.018,-0.049 -0.087,-0.0234 -0.069,0.0256 v 0 c 0.035,0.11444 0.016,0.0586 0.056,0.16764 0.03,0.0692 0.1276,0.0273 0.098,-0.042 z" />
      <path
         style="fill:#1f2123;fill-opacity:1;stroke:none;stroke-width:0.702;stroke-linecap:round;stroke-miterlimit:4;stroke-dasharray:none;stroke-opacity:1;paint-order:markers stroke fill"
         id="path10483"
         d="m 1518.7025,-379.57526 c -0.057,-0.17039 -0.081,-0.32846 -0.052,-0.51006 0.01,-0.0572 0.033,-0.11111 0.049,-0.16666 0.01,-0.035 -0.04,-0.0482 -0.049,-0.0132 v 0 c -0.075,0.31762 -0.021,0.031 -0.044,0.38963 -0.01,0.0979 -0.034,0.17956 -0.022,0.275 0,0.0188 0.011,0.0362 0.016,0.0543 0.02,0.0719 0.1222,0.0428 0.1017,-0.0291 z" />
      <path
         style="fill:#1f2123;fill-opacity:1;stroke:none;stroke-width:0.702;stroke-linecap:round;stroke-miterlimit:4;stroke-dasharray:none;stroke-opacity:1;paint-order:markers stroke fill"
         id="path10485"
         d="m 1519.6266,-379.51481 c 0.011,-0.10323 0.01,-0.13612 0.05,-0.24099 0.015,-0.0375 0.038,-0.0711 0.057,-0.10671 0.018,-0.0348 -0.031,-0.0606 -0.049,-0.0258 v 0 c -0.021,0.038 -0.045,0.0744 -0.062,0.11405 -0.1358,0.3106 0.04,-0.02 -0.1087,0.24696 -0.01,0.0796 0.1038,0.0922 0.1126,0.0125 z" />
      <path
         style="fill:#1f2123;fill-opacity:1;stroke:none;stroke-width:0.702;stroke-linecap:round;stroke-miterlimit:4;stroke-dasharray:none;stroke-opacity:1;paint-order:markers stroke fill"
         id="path10487"
         d="m 1519.6332,-379.47757 c 0.01,-0.0273 0,-0.057 0.016,-0.0819 0.044,-0.0887 0.1136,-0.15362 0.196,-0.20597 0.08,-0.0505 0.066,-0.0527 0.1024,-0.0167 0.075,0.009 0.088,-0.0972 0.013,-0.10647 v 0 c -0.022,0.005 -0.046,0.006 -0.067,0.0159 -0.086,0.0393 -0.1384,0.0957 -0.2033,0.16587 -0.073,0.0786 -0.1082,0.13042 -0.1695,0.2132 -0.011,0.0799 0.1015,0.096 0.1129,0.0161 z" />
      <path
         style="fill:#1f2123;fill-opacity:1;stroke:none;stroke-width:0.702;stroke-linecap:round;stroke-miterlimit:4;stroke-dasharray:none;stroke-opacity:1;paint-order:markers stroke fill"
         id="path10489"
         d="m 1516.6275,-379.48307 c -0.08,-0.13329 -0.1897,-0.24464 -0.2809,-0.36985 -0.036,-0.0494 -0.053,-0.0812 -0.08,-0.12792 -0.063,-0.0442 -0.1256,0.045 -0.062,0.0892 v 0 c 0.01,-0.002 0.018,-0.0107 0.025,-0.007 0.1147,0.0588 0.1046,0.0977 0.1789,0.21391 0.1202,0.18817 0.067,0.0644 0.128,0.24188 0.029,0.0645 0.1198,0.024 0.091,-0.0405 z" />
      <path
         style="fill:#1f2123;fill-opacity:1;stroke:none;stroke-width:0.702;stroke-linecap:round;stroke-miterlimit:4;stroke-dasharray:none;stroke-opacity:1;paint-order:markers stroke fill"
         id="path10491"
         d="m 1516.5681,-379.53346 c -0.014,-8e-4 -0.028,0.003 -0.04,-0.002 -0.018,-0.008 -0.03,-0.0265 -0.048,-0.0359 -0.03,-0.0159 -0.063,-0.0258 -0.094,-0.0392 -0.041,-0.0176 -0.081,-0.0358 -0.1221,-0.0536 -0.037,-0.0172 -0.061,0.0345 -0.024,0.0517 v 0 c 0.1374,0.0854 0.075,0.0439 0.1882,0.12242 0.018,0.0123 0.036,0.0233 0.053,0.0368 0.012,0.009 0.021,0.0208 0.032,0.0312 0.079,0.0393 0.1343,-0.0719 0.056,-0.11125 z" />
      <path
         style="fill:#1f2123;fill-opacity:1;stroke:none;stroke-width:0.702;stroke-linecap:round;stroke-miterlimit:4;stroke-dasharray:none;stroke-opacity:1;paint-order:markers stroke fill"
         id="path10493"
         d="m 1517.7308,-379.57671 c -0.068,-0.0175 -0.1264,-0.0584 -0.1927,-0.0789 -0.082,-0.0254 -0.1672,-0.0399 -0.2504,-0.0619 -0.087,-0.0229 -0.1729,-0.047 -0.2587,-0.0726 -0.087,-0.0261 -0.175,-0.0564 -0.2616,-0.0859 -0.075,0.0105 -0.06,0.11719 0.015,0.10664 v 0 c 0.096,-0.0712 0.055,-0.0589 0.2454,-0.0163 0.3044,0.068 0.2091,0.0663 0.4752,0.20351 0.1819,0.0938 0.07,10e-4 0.1789,0.10335 0.069,0.0346 0.1183,-0.0633 0.049,-0.098 z" />
      <path
         style="fill:#1f2123;fill-opacity:1;stroke:none;stroke-width:0.702;stroke-linecap:round;stroke-miterlimit:4;stroke-dasharray:none;stroke-opacity:1;paint-order:markers stroke fill"
         id="path10495"
         d="m 1517.5171,-379.48517 c 0.041,-0.11208 0.047,-0.13804 0.1151,-0.26108 0.029,-0.0519 0.064,-0.10029 0.096,-0.15043 0.019,-0.028 -0.021,-0.0543 -0.04,-0.0263 v 0 c -0.035,0.0495 -0.073,0.0973 -0.1065,0.14846 -0.2143,0.33103 0,0.0388 -0.1549,0.24422 -0.032,0.0638 0.058,0.10895 0.09,0.0451 z" />
      <path
         style="fill:#1f2123;fill-opacity:1;stroke:none;stroke-width:0.702;stroke-linecap:round;stroke-miterlimit:4;stroke-dasharray:none;stroke-opacity:1;paint-order:markers stroke fill"
         id="path10497"
         d="m 1519.5669,-379.55286 c -0.1321,-0.22926 -0.014,-0.0337 -0.1897,-0.29006 -0.029,-0.0421 -0.056,-0.0858 -0.084,-0.12868 -0.013,-0.0194 -0.041,-5.3e-4 -0.027,0.0189 v 0 c 0.028,0.0417 0.061,0.0804 0.083,0.1251 0.2193,0.43189 -0.055,-0.0203 0.1514,0.30764 0.023,0.0466 0.089,0.0137 0.066,-0.0329 z" />
      <path
         style="fill:#1f2123;fill-opacity:1;stroke:none;stroke-width:0.702;stroke-linecap:round;stroke-miterlimit:4;stroke-dasharray:none;stroke-opacity:1;paint-order:markers stroke fill"
         id="path10499"
         d="m 1515.386,-379.52817 c 0,-0.021 -5e-4,-0.0427 0.01,-0.063 0.016,-0.0569 0.056,-0.1299 0.1,-0.1699 0.02,-0.0182 0.048,-0.0262 0.071,-0.0393 0.014,-0.009 5e-4,-0.0281 -0.013,-0.019 v 0 c -0.024,0.0157 -0.051,0.0274 -0.072,0.0471 -0.048,0.0457 -0.087,0.11535 -0.1143,0.17503 -0.01,0.0223 -0.016,0.0461 -0.024,0.0692 0,0.0332 0.047,0.0332 0.047,0 z" />
      <path
         style="fill:#1f2123;fill-opacity:1;stroke:none;stroke-width:0.702;stroke-linecap:round;stroke-miterlimit:4;stroke-dasharray:none;stroke-opacity:1;paint-order:markers stroke fill"
         id="path10501"
         d="m 1515.4361,-379.48333 c 0.022,-0.0253 0.042,-0.0541 0.067,-0.0759 0.046,-0.0387 0.096,-0.0719 0.1465,-0.10482 0.1962,-0.12877 0.1857,-0.11569 0.3896,-0.21316 0,8e-4 -6e-4,0.003 10e-4,0.003 v 0 c -0.064,0.0294 -0.1299,0.055 -0.192,0.0882 -0.069,0.0367 -0.1336,0.08 -0.1997,0.12107 -0.2107,0.13098 -0.081,0.0624 -0.2469,0.14458 -0.026,0.0239 0.01,0.0614 0.034,0.0375 z" />
      <path
         style="fill:#1f2123;fill-opacity:1;stroke:none;stroke-width:0.702;stroke-linecap:round;stroke-miterlimit:4;stroke-dasharray:none;stroke-opacity:1;paint-order:markers stroke fill"
         id="path10503"
         d="m 1515.8845,-379.52271 c 0.057,-0.0949 0.091,-0.15801 0.1648,-0.24715 0.032,-0.0387 0.066,-0.0765 0.1049,-0.10841 0.018,-0.0149 0.043,-0.0198 0.064,-0.0298 0.014,-0.0102 -3e-4,-0.0302 -0.014,-0.0199 v 0 c -0.019,0.0144 -0.04,0.0263 -0.056,0.0431 -0.035,0.0359 -0.066,0.0758 -0.099,0.11437 -0.18,0.21442 -0.038,0.0548 -0.1928,0.22539 -0.016,0.0203 0.013,0.0427 0.029,0.0223 z" />
      <path
         style="fill:#1f2123;fill-opacity:1;stroke:none;stroke-width:0.702;stroke-linecap:round;stroke-miterlimit:4;stroke-dasharray:none;stroke-opacity:1;paint-order:markers stroke fill"
         id="path10505"
         d="m 1516.7533,-379.5076 c -0.011,-0.0168 -0.022,-0.0337 -0.034,-0.0503 -0.016,-0.0224 -0.031,-0.0452 -0.047,-0.0669 -0.1271,-0.1678 -0.01,0.002 -0.1333,-0.16454 -0.013,-0.017 -0.024,-0.0353 -0.037,-0.053 -0.013,-0.0164 -0.036,0.002 -0.023,0.0181 v 0 c 0.081,0.0649 0.036,0.0204 0.109,0.12978 0.041,0.0617 0.084,0.11468 0.1052,0.18685 0,0.0422 0.06,0.0422 0.06,0 z" />
      <path
         style="fill:#1f2123;fill-opacity:1;stroke:none;stroke-width:0.702;stroke-linecap:round;stroke-miterlimit:4;stroke-dasharray:none;stroke-opacity:1;paint-order:markers stroke fill"
         id="path10507"
         d="m 1516.5871,-379.48542 c -0.01,-0.0203 -0.017,-0.0515 -0.019,-0.0712 0,-0.0217 0,-0.0437 0,-0.0656 0,-0.0795 -0.01,-0.0983 0,-0.18127 10e-4,-0.0226 0.01,-0.045 0.01,-0.0675 6e-4,-0.0217 -0.03,-0.0225 -0.031,-8e-4 v 0 c 0,0.0226 0.01,0.0451 0.01,0.0678 0,0.0327 -0.01,0.0652 -0.01,0.0978 0,0.0282 0,0.0564 -0.01,0.0846 0,0.0463 -0.01,0.076 0,0.12077 10e-4,0.009 0.01,0.0167 0.01,0.025 0.01,0.0343 0.055,0.0246 0.048,-0.01 z" />
      <path
         style="fill:#1f2123;fill-opacity:1;stroke:none;stroke-width:0.702;stroke-linecap:round;stroke-miterlimit:4;stroke-dasharray:none;stroke-opacity:1;paint-order:markers stroke fill"
         id="path10509"
         d="m 1517.5243,-379.55563 c 0.014,-0.0243 0.082,-0.13993 0.087,-0.14485 0.054,-0.0617 0.1412,-0.11406 0.2079,-0.15887 0.01,-0.003 3e-4,-0.01 0,-0.007 v 0 c -0.068,0.048 -0.15,0.10252 -0.213,0.15762 -0.027,0.0237 -0.051,0.0511 -0.076,0.0768 -0.014,0.014 -0.028,0.0282 -0.041,0.0424 -0.024,0.0285 0.016,0.062 0.04,0.0335 z" />
      <path
         style="fill:#1f2123;fill-opacity:1;stroke:none;stroke-width:0.702;stroke-linecap:round;stroke-miterlimit:4;stroke-dasharray:none;stroke-opacity:1;paint-order:markers stroke fill"
         id="path10511"
         d="m 1518.4293,-379.68147 c -0.025,-0.009 -0.049,-0.0181 -0.074,-0.0273 -0.03,-0.0112 -0.06,-0.0229 -0.09,-0.034 -0.051,-0.019 -0.1005,-0.035 -0.1504,-0.0572 -0.061,-0.027 -0.021,-0.0163 -0.061,-0.0253 -0.038,2.6e-4 -0.038,0.0548 5e-4,0.0545 v 0 c 0.013,-0.0213 0,-0.0124 0.05,-0.002 0.067,0.0154 0.083,0.0234 0.1508,0.0522 0.097,0.041 0.072,0.0297 0.1554,0.0773 0.027,0.0127 0.045,-0.0258 0.018,-0.0385 z" />
      <path
         style="fill:#1f2123;fill-opacity:1;stroke:none;stroke-width:0.702;stroke-linecap:round;stroke-miterlimit:4;stroke-dasharray:none;stroke-opacity:1;paint-order:markers stroke fill"
         id="path10513"
         d="m 1518.5114,-379.70818 c -0.023,-0.0184 -0.049,-0.0342 -0.07,-0.0553 -0.077,-0.0785 -0.12,-0.14936 -0.1841,-0.23898 -0.089,-0.12405 -0.054,-0.0584 -0.1018,-0.16347 -0.014,-0.0181 -0.04,0.002 -0.026,0.0204 v 0 c 0.1068,0.0994 -0.01,-0.0147 0.1209,0.14788 0.033,0.0411 0.073,0.0761 0.1043,0.11836 0.05,0.0679 0.079,0.13251 0.1153,0.20593 0.025,0.0288 0.065,-0.006 0.041,-0.0349 z" />
      <path
         style="fill:#1f2123;fill-opacity:1;stroke:none;stroke-width:0.702;stroke-linecap:round;stroke-miterlimit:4;stroke-dasharray:none;stroke-opacity:1;paint-order:markers stroke fill"
         id="path10515"
         d="m 1519.6207,-379.4959 c 0.017,-0.005 0.034,-0.0101 0.05,-0.0151 0.019,-0.007 0.037,-0.0159 0.056,-0.0217 0.023,-0.007 0.047,-0.008 0.069,-0.0166 0.4032,-0.16355 -0.144,0.0337 0.1964,-0.0862 0.014,-0.006 0.01,-0.0265 -0.01,-0.0205 v 0 c -0.028,0.0144 -0.055,0.0319 -0.085,0.0431 -0.1083,0.0413 -0.09,0.0231 -0.1815,0.0449 -0.018,0.004 -0.035,0.0133 -0.053,0.0163 -0.014,0.002 -0.029,-6e-5 -0.044,-1e-4 -0.04,0 -0.04,0.0559 0,0.0559 z" />
      <path
         style="fill:#1f2123;fill-opacity:1;stroke:none;stroke-width:0.702;stroke-linecap:round;stroke-miterlimit:4;stroke-dasharray:none;stroke-opacity:1;paint-order:markers stroke fill"
         id="path10517"
         d="m 1520.1603,-379.44135 c 0.018,-0.0227 0.029,-0.0501 0.048,-0.0724 0.015,-0.0185 0.032,-0.0357 0.05,-0.0515 0.019,-0.0168 0.041,-0.0308 0.061,-0.0462 0.015,-0.011 -8e-4,-0.0317 -0.015,-0.0207 v 0 c -0.081,0.0611 -0.045,0.0322 -0.1209,0.097 -0.017,0.0144 -0.035,0.0271 -0.051,0.0433 -0.01,0.0104 -0.016,0.0239 -0.023,0.0358 -0.011,0.0366 0.041,0.0513 0.052,0.0148 z" />
      <path
         style="fill:#1f2123;fill-opacity:1;stroke:none;stroke-width:0.702;stroke-linecap:round;stroke-miterlimit:4;stroke-dasharray:none;stroke-opacity:1;paint-order:markers stroke fill"
         id="path10519"
         d="m 1519.1975,-379.55605 c 0,-0.009 -0.01,-0.0188 -0.014,-0.027 -0.026,-0.0363 -0.064,-0.0697 -0.096,-0.0982 -0.056,-0.0494 -0.1272,-0.10813 -0.19,-0.14833 -0.042,-0.0269 -0.087,-0.0494 -0.13,-0.074 2e-4,7e-5 3e-4,-1e-4 2e-4,-1.8e-4 v 0 c 0.089,0.0554 0.1487,0.0866 0.225,0.15623 0.028,0.0253 0.051,0.0549 0.076,0.0827 0.018,0.0194 0.039,0.0362 0.052,0.0587 0.068,0.11611 -0.024,0.009 0.023,0.0609 0.01,0.038 0.061,0.0273 0.054,-0.0107 z" />
      <path
         style="fill:#1f2123;fill-opacity:1;stroke:none;stroke-width:0.702;stroke-linecap:round;stroke-miterlimit:4;stroke-dasharray:none;stroke-opacity:1;paint-order:markers stroke fill"
         id="path10521"
         d="m 1519.0568,-379.60255 c -0.1577,-0.1206 0.012,0.0144 -0.1863,-0.16725 -0.046,-0.042 -0.092,-0.0845 -0.1417,-0.12145 -0.046,-0.0336 -0.096,-0.0596 -0.1442,-0.0894 5e-4,2.6e-4 0,-5.3e-4 5e-4,-8e-4 v 0 c 0.048,0.0305 0.098,0.057 0.1427,0.0914 0.049,0.0378 0.094,0.081 0.1383,0.12459 0.095,0.0933 0.093,0.0988 0.1579,0.19213 0.021,0.0232 0.053,-0.006 0.033,-0.0292 z" />
      <path
         style="fill:#1f2123;fill-opacity:1;stroke:none;stroke-width:0.702;stroke-linecap:round;stroke-miterlimit:4;stroke-dasharray:none;stroke-opacity:1;paint-order:markers stroke fill"
         id="path10523"
         d="m 1519.2531,-379.58608 c -0.071,-0.0487 -0.051,-0.0324 -0.1323,-0.10601 -0.035,-0.0317 -0.072,-0.0617 -0.104,-0.0968 -0.058,-0.0638 -0.1035,-0.13207 -0.1338,-0.2125 -0.01,-0.0184 -0.01,-0.0386 -0.011,-0.0579 0,0.008 0,0.0155 0,0.0232 0.032,-0.0225 10e-5,-0.0677 -0.032,-0.0452 v 0 c 0,0.012 -0.01,0.024 -0.01,0.0361 0.05,0.0787 0.026,0.0429 0.098,0.14263 0.027,0.0382 0.053,0.0773 0.082,0.1143 0.029,0.0374 0.061,0.0725 0.092,0.10857 0.024,0.0277 0.05,0.0535 0.072,0.0827 0.012,0.0163 0.02,0.0355 0.03,0.0533 0.03,0.03 0.072,-0.0124 0.042,-0.0424 z" />
    </g>
  </g>
</svg>
