<?xml version="1.0" encoding="UTF-8" standalone="no"?>
<svg
   xmlns:dc="http://purl.org/dc/elements/1.1/"
   xmlns:cc="http://creativecommons.org/ns#"
   xmlns:rdf="http://www.w3.org/1999/02/22-rdf-syntax-ns#"
   xmlns:svg="http://www.w3.org/2000/svg"
   xmlns="http://www.w3.org/2000/svg"
   xmlns:sodipodi="http://sodipodi.sourceforge.net/DTD/sodipodi-0.dtd"
   xmlns:inkscape="http://www.inkscape.org/namespaces/inkscape"
   inkscape:export-ydpi="96"
   inkscape:export-xdpi="96"
   inkscape:export-filename="D:\Calcatz\Icon Pack\Adventure Narative Inspired by Arrival\GUI\Settings\png\vertical_line_separator.png"
   sodipodi:docname="vertical_line_separator.svg"
   inkscape:version="1.0 (4035a4fb49, 2020-05-01)"
   id="svg6733"
   version="1.1"
   viewBox="0 0 1.1057793 140.59383"
   height="140.59383mm"
   width="1.1057793mm">
  <defs
     id="defs6727" />
  <sodipodi:namedview
     inkscape:window-maximized="1"
     inkscape:window-y="-8"
     inkscape:window-x="-8"
     inkscape:window-height="705"
     inkscape:window-width="1366"
     fit-margin-bottom="0"
     fit-margin-right="0"
     fit-margin-left="0"
     fit-margin-top="0"
     showgrid="false"
     inkscape:document-rotation="0"
     inkscape:current-layer="layer1"
     inkscape:document-units="mm"
     inkscape:cy="265.68912"
     inkscape:cx="2.0896707"
     inkscape:zoom="0.33557348"
     inkscape:pageshadow="2"
     inkscape:pageopacity="0.0"
     borderopacity="1.0"
     bordercolor="#666666"
     pagecolor="#ffffff"
     id="base" />
  <metadata
     id="metadata6730">
    <rdf:RDF>
      <cc:Work
         rdf:about="">
        <dc:format>image/svg+xml</dc:format>
        <dc:type
           rdf:resource="http://purl.org/dc/dcmitype/StillImage" />
        <dc:title></dc:title>
      </cc:Work>
    </rdf:RDF>
  </metadata>
  <g
     transform="translate(-105.28044,-77.869753)"
     id="layer1"
     inkscape:groupmode="layer"
     inkscape:label="Layer 1">
    <path
       id="path10892"
       d="m 105.81173,217.93217 c -0.207,-4.79217 0,-4.87626 -0.2186,-14.31086 -0.1388,-6.14026 0.2103,-12.29641 0.2921,-18.44612 0.088,-6.58175 0.1792,-13.16384 0.2159,-19.74758 0.032,-5.71457 -0.01,-11.4291 -0.011,-17.1438 0,-6.09989 0,-12.19978 0,-18.29967 0.1332,-17.61402 0.1339,-16.72876 0.234,-33.563463 0.022,-3.665691 0.073,-7.331981 0.06,-10.997391 -0.01,-2.31139 -0.083,-4.61769 -0.1243,-6.92658 -0.015,-0.87548 -0.5338,-0.81461 -0.5183,0.061 -0.073,8.27475 -0.113,8.1917 0.036,17.86123 0.3737,24.178414 0.5122,7.591824 -0.1182,33.563724 -0.045,6.09978 -0.09,12.19956 -0.135,18.29933 0.1153,5.71509 0.3492,11.42145 0.3458,17.14498 0,6.58695 -0.3478,13.16 -0.3675,19.747 -0.019,6.1542 0.1688,12.29872 0.2533,18.44802 -0.1562,3.37425 -0.3829,6.73527 -0.4685,10.12278 -0.035,1.39661 0.071,2.79074 0.1071,4.1861 0,0.70938 0.4173,0.71084 0.4198,0.001 z"
       style="fill:#e5e5e5;fill-opacity:1;stroke:none;stroke-width:0.264583px;stroke-linecap:butt;stroke-linejoin:miter;stroke-opacity:1"
       sodipodi:nodetypes="cc" />
  </g>
</svg>
