<?xml version="1.0" encoding="UTF-8" standalone="no"?>
<svg
   xmlns:dc="http://purl.org/dc/elements/1.1/"
   xmlns:cc="http://creativecommons.org/ns#"
   xmlns:rdf="http://www.w3.org/1999/02/22-rdf-syntax-ns#"
   xmlns:svg="http://www.w3.org/2000/svg"
   xmlns="http://www.w3.org/2000/svg"
   xmlns:sodipodi="http://sodipodi.sourceforge.net/DTD/sodipodi-0.dtd"
   xmlns:inkscape="http://www.inkscape.org/namespaces/inkscape"
   inkscape:export-ydpi="96"
   inkscape:export-xdpi="96"
   inkscape:export-filename="D:\Calcatz\Icon Pack\Adventure Narative Inspired by Arrival\GUI\Navigation Buttons\Xbox\Light\png\dpad_all.png"
   sodipodi:docname="dpad_all.svg"
   inkscape:version="1.0 (4035a4fb49, 2020-05-01)"
   id="svg4850"
   version="1.1"
   viewBox="0 0 8.4666662 8.4666662"
   height="31.999998"
   width="31.999998">
  <defs
     id="defs4844" />
  <sodipodi:namedview
     inkscape:window-maximized="1"
     inkscape:window-y="-8"
     inkscape:window-x="-8"
     inkscape:window-height="705"
     inkscape:window-width="1366"
     fit-margin-bottom="0"
     fit-margin-right="0"
     fit-margin-left="0"
     fit-margin-top="0"
     showgrid="false"
     inkscape:document-rotation="0"
     inkscape:current-layer="layer1"
     inkscape:document-units="mm"
     inkscape:cy="128.45281"
     inkscape:cx="251.2605"
     inkscape:zoom="1.2339194"
     inkscape:pageshadow="2"
     inkscape:pageopacity="0.0"
     borderopacity="1.0"
     bordercolor="#666666"
     pagecolor="#ffffff"
     id="base"
     units="px" />
  <metadata
     id="metadata4847">
    <rdf:RDF>
      <cc:Work
         rdf:about="">
        <dc:format>image/svg+xml</dc:format>
        <dc:type
           rdf:resource="http://purl.org/dc/dcmitype/StillImage" />
        <dc:title />
      </cc:Work>
    </rdf:RDF>
  </metadata>
  <g
     transform="translate(-104.57294,-110.88055)"
     id="layer1"
     inkscape:groupmode="layer"
     inkscape:label="Layer 1">
    <rect
       y="110.88055"
       x="104.57294"
       height="8.4666662"
       width="8.4666662"
       id="rect832"
       style="fill:#cccccc;fill-opacity:1;stroke-width:0.258448;stroke-linecap:round;paint-order:fill markers stroke" />
    <path
       d="m 110.58559,115.11389 a 1.7793123,1.7793123 0 0 1 -1.77931,1.77931 1.7793123,1.7793123 0 0 1 -1.77931,-1.77931 1.7793123,1.7793123 0 0 1 1.77931,-1.77931 1.7793123,1.7793123 0 0 1 1.77931,1.77931"
       style="fill:none;fill-opacity:1;stroke:#8c8c8c;stroke-width:0.276;stroke-linecap:round;stroke-miterlimit:4;stroke-dasharray:none;stroke-dashoffset:0;stroke-opacity:1;paint-order:fill markers stroke"
       id="circle5172" />
    <path
       id="path5170"
       style="fill:#1f2123;fill-opacity:1;stroke:none;stroke-width:0.276;stroke-linecap:round;stroke-miterlimit:4;stroke-dasharray:none;stroke-opacity:1;paint-order:markers stroke fill"
       d="m 108.37329,113.65427 v 1.03045 h -1.03042 c -0.0705,0.28724 -0.0737,0.57292 0,0.85627 h 1.03042 v 1.03042 c 0.30778,0.0958 0.58685,0.0686 0.85627,0 v -1.03042 h 1.02992 c 0.0814,-0.28912 0.09,-0.57494 0,-0.85627 h -1.02992 v -1.03045 c -0.28998,-0.0933 -0.57404,-0.0654 -0.85627,0 z"
       sodipodi:nodetypes="ccccccccccccc" />
    <rect
       inkscape:export-ydpi="96"
       inkscape:export-xdpi="96"
       inkscape:export-filename="D:\Calcatz\Icon Pack\Adventure Narative Inspired by Arrival\GUI\Navigation Buttons\Xbox\Light\png\64px\dpad_all.png"
       style="fill:#cccccc;fill-opacity:1;stroke-width:0.516896;stroke-linecap:round;paint-order:fill markers stroke"
       id="rect834"
       width="16.933332"
       height="16.933332"
       x="115.71712"
       y="110.88055" />
    <path
       id="path836"
       style="fill:none;fill-opacity:1;stroke:#8c8c8c;stroke-width:0.552;stroke-linecap:round;stroke-miterlimit:4;stroke-dasharray:none;stroke-dashoffset:0;stroke-opacity:1;paint-order:fill markers stroke"
       d="m 127.74242,119.34723 a 3.5586246,3.5586246 0 0 1 -3.55862,3.55862 3.5586246,3.5586246 0 0 1 -3.55862,-3.55862 3.5586246,3.5586246 0 0 1 3.55862,-3.55862 3.5586246,3.5586246 0 0 1 3.55862,3.55862" />
    <path
       sodipodi:nodetypes="ccccccccccccc"
       d="m 123.31782,116.42799 v 2.0609 h -2.06084 c -0.141,0.57448 -0.1474,1.14584 0,1.71254 h 2.06084 v 2.06084 c 0.61556,0.1916 1.1737,0.1372 1.71254,0 v -2.06084 h 2.05984 c 0.1628,-0.57824 0.18,-1.14988 0,-1.71254 h -2.05984 v -2.0609 c -0.57996,-0.1866 -1.14808,-0.1308 -1.71254,0 z"
       style="fill:#1f2123;fill-opacity:1;stroke:none;stroke-width:0.552;stroke-linecap:round;stroke-miterlimit:4;stroke-dasharray:none;stroke-opacity:1;paint-order:markers stroke fill"
       id="path838" />
    <rect
       inkscape:export-ydpi="96"
       inkscape:export-xdpi="96"
       inkscape:export-filename="D:\Calcatz\Icon Pack\Adventure Narative Inspired by Arrival\GUI\Navigation Buttons\Xbox\Light\png\128px\dpad_all.png"
       y="110.88055"
       x="135.12466"
       height="33.866665"
       width="33.866665"
       id="rect840"
       style="fill:#cccccc;fill-opacity:1;stroke-width:1.03379;stroke-linecap:round;paint-order:fill markers stroke" />
    <path
       d="m 159.17528,127.81391 a 7.1172492,7.1172492 0 0 1 -7.11724,7.11724 7.1172492,7.1172492 0 0 1 -7.11724,-7.11724 7.1172492,7.1172492 0 0 1 7.11724,-7.11724 7.1172492,7.1172492 0 0 1 7.11724,7.11724"
       style="fill:none;fill-opacity:1;stroke:#8c8c8c;stroke-width:1.104;stroke-linecap:round;stroke-miterlimit:4;stroke-dasharray:none;stroke-dashoffset:0;stroke-opacity:1;paint-order:fill markers stroke"
       id="path842" />
    <path
       id="path844"
       style="fill:#1f2123;fill-opacity:1;stroke:none;stroke-width:1.104;stroke-linecap:round;stroke-miterlimit:4;stroke-dasharray:none;stroke-opacity:1;paint-order:markers stroke fill"
       d="m 150.32608,121.97543 v 4.1218 h -4.12168 c -0.282,1.14896 -0.2948,2.29168 0,3.42508 h 4.12168 v 4.12168 c 1.23112,0.3832 2.3474,0.2744 3.42508,0 v -4.12168 h 4.11968 c 0.3256,-1.15648 0.36,-2.29976 0,-3.42508 h -4.11968 v -4.1218 c -1.15992,-0.3732 -2.29616,-0.2616 -3.42508,0 z"
       sodipodi:nodetypes="ccccccccccccc" />
    <rect
       inkscape:export-ydpi="96"
       inkscape:export-xdpi="96"
       inkscape:export-filename="D:\Calcatz\Icon Pack\Adventure Narative Inspired by Arrival\GUI\Navigation Buttons\Xbox\Light\png\256px\dpad_all.png"
       style="fill:#cccccc;fill-opacity:1;stroke-width:2.06758;stroke-linecap:round;paint-order:fill markers stroke"
       id="rect846"
       width="67.73333"
       height="67.73333"
       x="174.243"
       y="110.88055" />
    <path
       id="path848"
       style="fill:none;fill-opacity:1;stroke:#8c8c8c;stroke-width:2.208;stroke-linecap:round;stroke-miterlimit:4;stroke-dasharray:none;stroke-dashoffset:0;stroke-opacity:1;paint-order:fill markers stroke"
       d="m 222.34424,144.74727 a 14.234498,14.234498 0 0 1 -14.23448,14.23448 14.234498,14.234498 0 0 1 -14.23448,-14.23448 14.234498,14.234498 0 0 1 14.23448,-14.23448 14.234498,14.234498 0 0 1 14.23448,14.23448" />
    <path
       sodipodi:nodetypes="ccccccccccccc"
       d="m 204.64584,133.07031 v 8.2436 h -8.24336 c -0.564,2.29792 -0.5896,4.58336 0,6.85016 h 8.24336 v 8.24336 c 2.46224,0.7664 4.6948,0.5488 6.85016,0 v -8.24336 h 8.23936 c 0.6512,-2.31296 0.72,-4.59952 0,-6.85016 H 211.496 v -8.2436 c -2.31984,-0.7464 -4.59232,-0.5232 -6.85016,0 z"
       style="fill:#1f2123;fill-opacity:1;stroke:none;stroke-width:2.208;stroke-linecap:round;stroke-miterlimit:4;stroke-dasharray:none;stroke-opacity:1;paint-order:markers stroke fill"
       id="path850" />
  </g>
</svg>
