<?xml version="1.0" encoding="UTF-8" standalone="no"?>
<svg
   xmlns:dc="http://purl.org/dc/elements/1.1/"
   xmlns:cc="http://creativecommons.org/ns#"
   xmlns:rdf="http://www.w3.org/1999/02/22-rdf-syntax-ns#"
   xmlns:svg="http://www.w3.org/2000/svg"
   xmlns="http://www.w3.org/2000/svg"
   xmlns:sodipodi="http://sodipodi.sourceforge.net/DTD/sodipodi-0.dtd"
   xmlns:inkscape="http://www.inkscape.org/namespaces/inkscape"
   inkscape:export-ydpi="96"
   inkscape:export-xdpi="96"
   inkscape:export-filename="D:\Calcatz\Icon Pack\Adventure Narative Inspired by Arrival\GUI\Navigation Buttons\Xbox\Light\png\dpad_leftright.png"
   sodipodi:docname="dpad_leftright.svg"
   inkscape:version="1.0 (4035a4fb49, 2020-05-01)"
   id="svg8432"
   version="1.1"
   viewBox="0 0 8.4666662 8.4666662"
   height="31.999998"
   width="31.999998">
  <defs
     id="defs8426" />
  <sodipodi:namedview
     inkscape:window-maximized="1"
     inkscape:window-y="-8"
     inkscape:window-x="-8"
     inkscape:window-height="705"
     inkscape:window-width="1366"
     fit-margin-bottom="0"
     fit-margin-right="0"
     fit-margin-left="0"
     fit-margin-top="0"
     showgrid="false"
     inkscape:document-rotation="0"
     inkscape:current-layer="layer1"
     inkscape:document-units="mm"
     inkscape:cy="90.376055"
     inkscape:cx="307.98845"
     inkscape:zoom="1.2339194"
     inkscape:pageshadow="2"
     inkscape:pageopacity="0.0"
     borderopacity="1.0"
     bordercolor="#666666"
     pagecolor="#ffffff"
     id="base"
     units="px" />
  <metadata
     id="metadata8429">
    <rdf:RDF>
      <cc:Work
         rdf:about="">
        <dc:format>image/svg+xml</dc:format>
        <dc:type
           rdf:resource="http://purl.org/dc/dcmitype/StillImage" />
        <dc:title />
      </cc:Work>
    </rdf:RDF>
  </metadata>
  <g
     transform="translate(-101.59999,-143.93333)"
     id="layer1"
     inkscape:groupmode="layer"
     inkscape:label="Layer 1">
    <rect
       y="143.93333"
       x="101.59999"
       height="8.4666662"
       width="8.4666662"
       id="rect834"
       style="fill:#cccccc;fill-opacity:1;stroke-width:0.497628;stroke-linecap:round;paint-order:fill markers stroke" />
    <path
       d="m 105.40045,149.62413 c 0.30779,0.0958 0.58687,0.0686 0.8563,0 v -0.82476 -0.20566 -0.85627 -1.03045 c -0.14499,-0.0466 -0.28842,-0.0629 -0.43098,-0.0594 -0.14253,0.003 -0.28422,0.0267 -0.42532,0.0594 v 0.95345 0.077 0.85627 z"
       style="fill:#8c8c8c;fill-opacity:1;stroke:none;stroke-width:0.276;stroke-linecap:round;stroke-miterlimit:4;stroke-dasharray:none;stroke-opacity:1;paint-order:markers stroke fill"
       id="path5212" />
    <path
       d="m 106.2567,147.73766 v 0.85629 h 1.02992 c 0.0814,-0.28913 0.09,-0.57496 0,-0.85629 z"
       style="fill:#1f2123;fill-opacity:1;stroke:none;stroke-width:0.276;stroke-linecap:round;stroke-miterlimit:4;stroke-dasharray:none;stroke-opacity:1;paint-order:markers stroke fill"
       id="path5214" />
    <path
       d="m 107.61266,148.16667 a 1.7793123,1.7793123 0 0 1 -1.77932,1.77931 1.7793123,1.7793123 0 0 1 -1.77931,-1.77931 1.7793123,1.7793123 0 0 1 1.77931,-1.77931 1.7793123,1.7793123 0 0 1 1.77932,1.77931"
       style="fill:none;fill-opacity:1;stroke:#8c8c8c;stroke-width:0.276;stroke-linecap:round;stroke-miterlimit:4;stroke-dasharray:none;stroke-dashoffset:0;stroke-opacity:1;paint-order:fill markers stroke"
       id="circle5210" />
    <path
       d="m 104.31577,148.16739 c -4e-4,0.14274 0.0174,0.28463 0.0543,0.42632 h 1.03042 v -0.85627 h -1.03042 c -0.0352,0.14361 -0.0539,0.2872 -0.0543,0.42995 z"
       style="fill:#1f2123;fill-opacity:1;stroke:none;stroke-width:0.276;stroke-linecap:round;stroke-miterlimit:4;stroke-dasharray:none;stroke-opacity:1;paint-order:markers stroke fill"
       id="path5216" />
    <rect
       inkscape:export-ydpi="96"
       inkscape:export-xdpi="96"
       inkscape:export-filename="D:\Calcatz\Icon Pack\Adventure Narative Inspired by Arrival\GUI\Navigation Buttons\Xbox\Light\png\64px\dpad_leftright.png"
       style="fill:#cccccc;fill-opacity:1;stroke-width:0.995256;stroke-linecap:round;paint-order:fill markers stroke"
       id="rect836"
       width="16.933332"
       height="16.933332"
       x="111.62437"
       y="143.93333" />
    <path
       id="path838"
       style="fill:#8c8c8c;fill-opacity:1;stroke:none;stroke-width:0.552;stroke-linecap:round;stroke-miterlimit:4;stroke-dasharray:none;stroke-opacity:1;paint-order:markers stroke fill"
       d="m 119.22529,155.31493 c 0.61558,0.1916 1.17374,0.1372 1.7126,0 v -1.64952 -0.41132 -1.71254 -2.0609 c -0.28998,-0.0932 -0.57684,-0.1258 -0.86196,-0.1188 -0.28506,0.006 -0.56844,0.0534 -0.85064,0.1188 v 1.9069 0.154 1.71254 z" />
    <path
       id="path840"
       style="fill:#1f2123;fill-opacity:1;stroke:none;stroke-width:0.552;stroke-linecap:round;stroke-miterlimit:4;stroke-dasharray:none;stroke-opacity:1;paint-order:markers stroke fill"
       d="m 120.93779,151.54199 v 1.71258 h 2.05984 c 0.1628,-0.57826 0.18,-1.14992 0,-1.71258 z" />
    <path
       id="path842"
       style="fill:none;fill-opacity:1;stroke:#8c8c8c;stroke-width:0.552;stroke-linecap:round;stroke-miterlimit:4;stroke-dasharray:none;stroke-dashoffset:0;stroke-opacity:1;paint-order:fill markers stroke"
       d="m 123.64971,152.40001 a 3.5586246,3.5586246 0 0 1 -3.55864,3.55862 3.5586246,3.5586246 0 0 1 -3.55862,-3.55862 3.5586246,3.5586246 0 0 1 3.55862,-3.55862 3.5586246,3.5586246 0 0 1 3.55864,3.55862" />
    <path
       id="path844"
       style="fill:#1f2123;fill-opacity:1;stroke:none;stroke-width:0.552;stroke-linecap:round;stroke-miterlimit:4;stroke-dasharray:none;stroke-opacity:1;paint-order:markers stroke fill"
       d="m 117.05593,152.40145 c -8e-4,0.28548 0.0348,0.56926 0.1086,0.85264 h 2.06084 v -1.71254 h -2.06084 c -0.0704,0.28722 -0.1078,0.5744 -0.1086,0.8599 z" />
    <rect
       inkscape:export-ydpi="96"
       inkscape:export-xdpi="96"
       inkscape:export-filename="D:\Calcatz\Icon Pack\Adventure Narative Inspired by Arrival\GUI\Navigation Buttons\Xbox\Light\png\128px\dpad_leftright.png"
       y="143.93333"
       x="131.48679"
       height="33.866665"
       width="33.866665"
       id="rect846"
       style="fill:#cccccc;fill-opacity:1;stroke-width:1.99051;stroke-linecap:round;paint-order:fill markers stroke" />
    <path
       d="m 146.68861,166.69653 c 1.23116,0.3832 2.34748,0.2744 3.4252,0 v -3.29904 -0.82264 -3.42508 -4.1218 c -0.57996,-0.1864 -1.15368,-0.2516 -1.72392,-0.2376 -0.57012,0.012 -1.13688,0.1068 -1.70128,0.2376 v 3.8138 0.308 3.42508 z"
       style="fill:#8c8c8c;fill-opacity:1;stroke:none;stroke-width:1.104;stroke-linecap:round;stroke-miterlimit:4;stroke-dasharray:none;stroke-opacity:1;paint-order:markers stroke fill"
       id="path848" />
    <path
       d="m 150.11361,159.15065 v 3.42516 h 4.11968 c 0.3256,-1.15652 0.36,-2.29984 0,-3.42516 z"
       style="fill:#1f2123;fill-opacity:1;stroke:none;stroke-width:1.104;stroke-linecap:round;stroke-miterlimit:4;stroke-dasharray:none;stroke-opacity:1;paint-order:markers stroke fill"
       id="path850" />
    <path
       d="m 155.53745,160.86669 a 7.1172492,7.1172492 0 0 1 -7.11728,7.11724 7.1172492,7.1172492 0 0 1 -7.11724,-7.11724 7.1172492,7.1172492 0 0 1 7.11724,-7.11724 7.1172492,7.1172492 0 0 1 7.11728,7.11724"
       style="fill:none;fill-opacity:1;stroke:#8c8c8c;stroke-width:1.104;stroke-linecap:round;stroke-miterlimit:4;stroke-dasharray:none;stroke-dashoffset:0;stroke-opacity:1;paint-order:fill markers stroke"
       id="path852" />
    <path
       d="m 142.34989,160.86957 c -0.002,0.57096 0.0696,1.13852 0.2172,1.70528 h 4.12168 v -3.42508 h -4.12168 c -0.1408,0.57444 -0.2156,1.1488 -0.2172,1.7198 z"
       style="fill:#1f2123;fill-opacity:1;stroke:none;stroke-width:1.104;stroke-linecap:round;stroke-miterlimit:4;stroke-dasharray:none;stroke-opacity:1;paint-order:markers stroke fill"
       id="path854" />
    <rect
       inkscape:export-ydpi="96"
       inkscape:export-xdpi="96"
       inkscape:export-filename="D:\Calcatz\Icon Pack\Adventure Narative Inspired by Arrival\GUI\Navigation Buttons\Xbox\Light\png\256px\dpad_leftright.png"
       style="fill:#cccccc;fill-opacity:1;stroke-width:3.98102;stroke-linecap:round;paint-order:fill markers stroke"
       id="rect856"
       width="67.73333"
       height="67.73333"
       x="172.87083"
       y="143.93333" />
    <path
       id="path858"
       style="fill:#8c8c8c;fill-opacity:1;stroke:none;stroke-width:2.208;stroke-linecap:round;stroke-miterlimit:4;stroke-dasharray:none;stroke-opacity:1;paint-order:markers stroke fill"
       d="m 203.27449,189.45973 c 2.46232,0.7664 4.69496,0.5488 6.8504,0 v -6.59808 -1.64528 -6.85016 -8.2436 c -1.15992,-0.3728 -2.30736,-0.5032 -3.44784,-0.4752 -1.14024,0.024 -2.27376,0.2136 -3.40256,0.4752 v 7.6276 0.616 6.85016 z" />
    <path
       id="path860"
       style="fill:#1f2123;fill-opacity:1;stroke:none;stroke-width:2.208;stroke-linecap:round;stroke-miterlimit:4;stroke-dasharray:none;stroke-opacity:1;paint-order:markers stroke fill"
       d="m 210.12449,174.36797 v 6.85032 h 8.23936 c 0.6512,-2.31304 0.72,-4.59968 0,-6.85032 z" />
    <path
       id="path862"
       style="fill:none;fill-opacity:1;stroke:#8c8c8c;stroke-width:2.208;stroke-linecap:round;stroke-miterlimit:4;stroke-dasharray:none;stroke-dashoffset:0;stroke-opacity:1;paint-order:fill markers stroke"
       d="m 220.97217,177.80005 a 14.234498,14.234498 0 0 1 -14.23456,14.23448 14.234498,14.234498 0 0 1 -14.23448,-14.23448 14.234498,14.234498 0 0 1 14.23448,-14.23448 14.234498,14.234498 0 0 1 14.23456,14.23448" />
    <path
       id="path864"
       style="fill:#1f2123;fill-opacity:1;stroke:none;stroke-width:2.208;stroke-linecap:round;stroke-miterlimit:4;stroke-dasharray:none;stroke-opacity:1;paint-order:markers stroke fill"
       d="m 194.59705,177.80581 c -0.004,1.14192 0.1392,2.27704 0.4344,3.41056 h 8.24336 v -6.85016 h -8.24336 c -0.2816,1.14888 -0.4312,2.2976 -0.4344,3.4396 z" />
  </g>
</svg>
