<?xml version="1.0" encoding="UTF-8" standalone="no"?>
<svg
   xmlns:dc="http://purl.org/dc/elements/1.1/"
   xmlns:cc="http://creativecommons.org/ns#"
   xmlns:rdf="http://www.w3.org/1999/02/22-rdf-syntax-ns#"
   xmlns:svg="http://www.w3.org/2000/svg"
   xmlns="http://www.w3.org/2000/svg"
   xmlns:sodipodi="http://sodipodi.sourceforge.net/DTD/sodipodi-0.dtd"
   xmlns:inkscape="http://www.inkscape.org/namespaces/inkscape"
   inkscape:export-ydpi="96"
   inkscape:export-xdpi="96"
   inkscape:export-filename="D:\Calcatz\Icon Pack\Adventure Narative Inspired by Arrival\GUI\Navigation Buttons\Xbox\Light\png\dpad_left.png"
   sodipodi:docname="dpad_left.svg"
   inkscape:version="1.0 (4035a4fb49, 2020-05-01)"
   id="svg6638"
   version="1.1"
   viewBox="0 0 8.4666662 8.4666662"
   height="31.999998"
   width="31.999998">
  <defs
     id="defs6632" />
  <sodipodi:namedview
     inkscape:window-maximized="1"
     inkscape:window-y="-8"
     inkscape:window-x="-8"
     inkscape:window-height="705"
     inkscape:window-width="1366"
     fit-margin-bottom="0"
     fit-margin-right="0"
     fit-margin-left="0"
     fit-margin-top="0"
     showgrid="false"
     inkscape:document-rotation="0"
     inkscape:current-layer="layer1"
     inkscape:document-units="mm"
     inkscape:cy="89.606698"
     inkscape:cx="230.31913"
     inkscape:zoom="1.2339194"
     inkscape:pageshadow="2"
     inkscape:pageopacity="0.0"
     borderopacity="1.0"
     bordercolor="#666666"
     pagecolor="#ffffff"
     id="base"
     units="px" />
  <metadata
     id="metadata6635">
    <rdf:RDF>
      <cc:Work
         rdf:about="">
        <dc:format>image/svg+xml</dc:format>
        <dc:type
           rdf:resource="http://purl.org/dc/dcmitype/StillImage" />
        <dc:title />
      </cc:Work>
    </rdf:RDF>
  </metadata>
  <g
     transform="translate(27.886871,-81.707855)"
     id="layer1"
     inkscape:groupmode="layer"
     inkscape:label="Layer 1">
    <rect
       y="81.707855"
       x="-27.886871"
       height="8.4666662"
       width="8.4666662"
       id="rect833"
       style="fill:#cccccc;fill-opacity:1;stroke-width:0.435724;stroke-linecap:round;paint-order:fill markers stroke" />
    <path
       id="path5188"
       style="fill:#8c8c8c;fill-opacity:1;stroke:none;stroke-width:0.276;stroke-linecap:round;stroke-miterlimit:4;stroke-dasharray:none;stroke-opacity:1;paint-order:markers stroke fill"
       d="m -23.645823,87.460262 c 0.14253,-0.003 0.28419,-0.0267 0.42529,-0.0594 v -1.03042 h 1.03042 c 0.0705,-0.28726 0.0737,-0.57293 0,-0.85629 h -1.03042 v -1.03042 c -0.30779,-0.0958 -0.58685,-0.0686 -0.85627,0 v 0.82475 0.20567 0.85629 1.03042 c 0.14499,0.0466 0.28842,0.0629 0.43098,0.0594 z" />
    <path
       id="path5190"
       style="fill:#1f2123;fill-opacity:1;stroke:none;stroke-width:0.276;stroke-linecap:round;stroke-miterlimit:4;stroke-dasharray:none;stroke-opacity:1;paint-order:markers stroke fill"
       d="m -24.076803,86.370412 v -0.85629 h -1.02992 c -0.0814,0.28913 -0.09,0.57496 0,0.85629 z" />
    <path
       d="m -25.432844,85.941193 a -1.7793123,-1.7793123 0 0 1 1.779312,-1.779313 -1.7793123,-1.7793123 0 0 1 1.779312,1.779313 -1.7793123,-1.7793123 0 0 1 -1.779312,1.779312 -1.7793123,-1.7793123 0 0 1 -1.779312,-1.779312"
       style="fill:none;fill-opacity:1;stroke:#8c8c8c;stroke-width:0.276;stroke-linecap:round;stroke-miterlimit:4;stroke-dasharray:none;stroke-dashoffset:0;stroke-opacity:1;paint-order:fill markers stroke"
       id="circle5186" />
    <rect
       inkscape:export-ydpi="96"
       inkscape:export-xdpi="96"
       inkscape:export-filename="D:\Calcatz\Icon Pack\Adventure Narative Inspired by Arrival\GUI\Navigation Buttons\Xbox\Light\png\64px\dpad_left.png"
       style="fill:#cccccc;fill-opacity:1;stroke-width:0.871448;stroke-linecap:round;paint-order:fill markers stroke"
       id="rect835"
       width="16.933332"
       height="16.933332"
       x="-18.221003"
       y="81.707855" />
    <path
       d="m -9.7389054,93.212669 c 0.28506,-0.006 0.56838,-0.0534 0.85058,-0.1188 v -2.06084 h 2.06084 c 0.141,-0.57452 0.1474,-1.14586 0,-1.71258 h -2.06084 v -2.06084 c -0.61558,-0.1916 -1.1736996,-0.1372 -1.7125396,0 v 1.6495 0.41134 1.71258 2.06084 c 0.28998,0.0932 0.57684,0.1258 0.8619596,0.1188 z"
       style="fill:#8c8c8c;fill-opacity:1;stroke:none;stroke-width:0.552;stroke-linecap:round;stroke-miterlimit:4;stroke-dasharray:none;stroke-opacity:1;paint-order:markers stroke fill"
       id="path837" />
    <path
       d="m -10.600865,91.032969 v -1.71258 h -2.05984 c -0.1628,0.57826 -0.18,1.14992 0,1.71258 z"
       style="fill:#1f2123;fill-opacity:1;stroke:none;stroke-width:0.552;stroke-linecap:round;stroke-miterlimit:4;stroke-dasharray:none;stroke-opacity:1;paint-order:markers stroke fill"
       id="path839" />
    <path
       id="path841"
       style="fill:none;fill-opacity:1;stroke:#8c8c8c;stroke-width:0.552;stroke-linecap:round;stroke-miterlimit:4;stroke-dasharray:none;stroke-dashoffset:0;stroke-opacity:1;paint-order:fill markers stroke"
       d="m -13.312947,90.174531 a 3.5586246,3.5586246 0 0 1 3.5586236,-3.558626 3.5586246,3.5586246 0 0 1 3.558624,3.558626 3.5586246,3.5586246 0 0 1 -3.558624,3.558624 3.5586246,3.5586246 0 0 1 -3.5586236,-3.558624" />
    <rect
       inkscape:export-ydpi="96"
       inkscape:export-xdpi="96"
       inkscape:export-filename="D:\Calcatz\Icon Pack\Adventure Narative Inspired by Arrival\GUI\Navigation Buttons\Xbox\Light\png\128px\dpad_left.png"
       y="81.707855"
       x="0.97004735"
       height="33.866665"
       width="33.866665"
       id="rect843"
       style="fill:#cccccc;fill-opacity:1;stroke-width:1.7429;stroke-linecap:round;paint-order:fill markers stroke" />
    <path
       id="path845"
       style="fill:#8c8c8c;fill-opacity:1;stroke:none;stroke-width:1.104;stroke-linecap:round;stroke-miterlimit:4;stroke-dasharray:none;stroke-opacity:1;paint-order:markers stroke fill"
       d="m 17.934242,104.71748 c 0.57012,-0.012 1.136761,-0.1068 1.701161,-0.2376 v -4.12168 h 4.12168 c 0.282,-1.149037 0.2948,-2.291717 0,-3.425157 h -4.12168 v -4.12168 c -1.231161,-0.3832 -2.3474,-0.2744 -3.42508,0 v 3.299 0.82268 3.425157 4.12168 c 0.57996,0.1864 1.15368,0.2516 1.723919,0.2376 z" />
    <path
       id="path847"
       style="fill:#1f2123;fill-opacity:1;stroke:none;stroke-width:1.104;stroke-linecap:round;stroke-miterlimit:4;stroke-dasharray:none;stroke-opacity:1;paint-order:markers stroke fill"
       d="m 16.210323,100.35808 v -3.425157 h -4.11968 c -0.3256,1.15652 -0.36,2.29984 0,3.425157 z" />
    <path
       d="m 10.786159,98.641207 a 7.1172492,7.1172492 0 0 1 7.117247,-7.117252 7.1172492,7.1172492 0 0 1 7.117249,7.117252 7.1172492,7.1172492 0 0 1 -7.117249,7.117243 7.1172492,7.1172492 0 0 1 -7.117247,-7.117243"
       style="fill:none;fill-opacity:1;stroke:#8c8c8c;stroke-width:1.104;stroke-linecap:round;stroke-miterlimit:4;stroke-dasharray:none;stroke-dashoffset:0;stroke-opacity:1;paint-order:fill markers stroke"
       id="path849" />
    <rect
       inkscape:export-ydpi="96"
       inkscape:export-xdpi="96"
       inkscape:export-filename="D:\Calcatz\Icon Pack\Adventure Narative Inspired by Arrival\GUI\Navigation Buttons\Xbox\Light\png\256px\dpad_left.png"
       style="fill:#cccccc;fill-opacity:1;stroke-width:3.4858;stroke-linecap:round;paint-order:fill markers stroke"
       id="rect851"
       width="67.73333"
       height="67.73333"
       x="39.780998"
       y="81.707855" />
    <path
       d="m 73.709386,127.7271 c 1.14024,-0.024 2.273522,-0.2136 3.402322,-0.4752 v -8.24336 h 8.24336 c 0.564,-2.29807 0.5896,-4.58343 0,-6.85031 h -8.24336 v -8.24336 c -2.462322,-0.7664 -4.6948,-0.5488 -6.85016,0 v 6.598 1.64536 6.85031 8.24336 c 1.15992,0.3728 2.30736,0.5032 3.447838,0.4752 z"
       style="fill:#8c8c8c;fill-opacity:1;stroke:none;stroke-width:2.208;stroke-linecap:round;stroke-miterlimit:4;stroke-dasharray:none;stroke-opacity:1;paint-order:markers stroke fill"
       id="path853" />
    <path
       d="m 70.261548,119.0083 v -6.85031 h -8.23936 c -0.6512,2.31304 -0.72,4.59968 0,6.85031 z"
       style="fill:#1f2123;fill-opacity:1;stroke:none;stroke-width:2.208;stroke-linecap:round;stroke-miterlimit:4;stroke-dasharray:none;stroke-opacity:1;paint-order:markers stroke fill"
       id="path855" />
    <path
       id="path857"
       style="fill:none;fill-opacity:1;stroke:#8c8c8c;stroke-width:2.208;stroke-linecap:round;stroke-miterlimit:4;stroke-dasharray:none;stroke-dashoffset:0;stroke-opacity:1;paint-order:fill markers stroke"
       d="M 59.41322,115.57456 A 14.234498,14.234498 0 0 1 73.647714,101.34005 14.234498,14.234498 0 0 1 87.882212,115.57456 14.234498,14.234498 0 0 1 73.647714,129.80904 14.234498,14.234498 0 0 1 59.41322,115.57456" />
  </g>
</svg>
