<?xml version="1.0" encoding="UTF-8" standalone="no"?>
<svg
   xmlns:dc="http://purl.org/dc/elements/1.1/"
   xmlns:cc="http://creativecommons.org/ns#"
   xmlns:rdf="http://www.w3.org/1999/02/22-rdf-syntax-ns#"
   xmlns:svg="http://www.w3.org/2000/svg"
   xmlns="http://www.w3.org/2000/svg"
   xmlns:sodipodi="http://sodipodi.sourceforge.net/DTD/sodipodi-0.dtd"
   xmlns:inkscape="http://www.inkscape.org/namespaces/inkscape"
   inkscape:export-ydpi="96"
   inkscape:export-xdpi="96"
   inkscape:export-filename="D:\Calcatz\Icon Pack\Adventure Narative Inspired by Arrival\GUI\Navigation Buttons\Xbox\Light\png\dpad_right.png"
   sodipodi:docname="dpad_right.svg"
   inkscape:version="1.0 (4035a4fb49, 2020-05-01)"
   id="svg5444"
   version="1.1"
   viewBox="0 0 8.4666662 8.4666662"
   height="31.999998"
   width="31.999998">
  <defs
     id="defs5438" />
  <sodipodi:namedview
     inkscape:window-maximized="1"
     inkscape:window-y="-8"
     inkscape:window-x="-8"
     inkscape:window-height="705"
     inkscape:window-width="1366"
     fit-margin-bottom="0"
     fit-margin-right="0"
     fit-margin-left="0"
     fit-margin-top="0"
     showgrid="false"
     inkscape:document-rotation="0"
     inkscape:current-layer="layer1"
     inkscape:document-units="mm"
     inkscape:cy="115.02757"
     inkscape:cx="429.14224"
     inkscape:zoom="0.87251276"
     inkscape:pageshadow="2"
     inkscape:pageopacity="0.0"
     borderopacity="1.0"
     bordercolor="#666666"
     pagecolor="#ffffff"
     id="base"
     units="px" />
  <metadata
     id="metadata5441">
    <rdf:RDF>
      <cc:Work
         rdf:about="">
        <dc:format>image/svg+xml</dc:format>
        <dc:type
           rdf:resource="http://purl.org/dc/dcmitype/StillImage" />
        <dc:title />
      </cc:Work>
    </rdf:RDF>
  </metadata>
  <g
     transform="translate(-81.707855,-104.57294)"
     id="layer1"
     inkscape:groupmode="layer"
     inkscape:label="Layer 1">
    <rect
       y="104.57294"
       x="81.707855"
       height="8.4666662"
       width="8.4666662"
       id="rect833"
       style="fill:#cccccc;fill-opacity:1;stroke-width:0.477158;stroke-linecap:round;paint-order:fill markers stroke" />
    <path
       id="path5176"
       style="fill:#8c8c8c;fill-opacity:1;stroke:none;stroke-width:0.276;stroke-linecap:round;stroke-miterlimit:4;stroke-dasharray:none;stroke-opacity:1;paint-order:markers stroke fill"
       d="m 85.933494,107.28719 c -0.14253,0.003 -0.28419,0.0267 -0.42529,0.0594 v 1.03042 h -1.03042 c -0.0705,0.28726 -0.0737,0.57293 0,0.8563 h 1.03042 v 1.03042 c 0.30779,0.0958 0.58684,0.0686 0.85627,0 v -0.82476 -0.20566 -0.8563 -1.03042 c -0.14499,-0.0466 -0.28842,-0.0629 -0.43098,-0.0594 z" />
    <path
       id="path5178"
       style="fill:#1f2123;fill-opacity:1;stroke:none;stroke-width:0.276;stroke-linecap:round;stroke-miterlimit:4;stroke-dasharray:none;stroke-opacity:1;paint-order:markers stroke fill"
       d="m 86.364474,108.37703 v 0.8563 h 1.02992 c 0.0814,-0.28914 0.09,-0.57497 0,-0.8563 z" />
    <path
       d="m 87.720505,108.80628 a 1.7793123,1.7793123 0 0 1 -1.779312,1.77931 1.7793123,1.7793123 0 0 1 -1.779313,-1.77931 1.7793123,1.7793123 0 0 1 1.779313,-1.77931 1.7793123,1.7793123 0 0 1 1.779312,1.77931"
       style="fill:none;fill-opacity:1;stroke:#8c8c8c;stroke-width:0.276;stroke-linecap:round;stroke-miterlimit:4;stroke-dasharray:none;stroke-dashoffset:0;stroke-opacity:1;paint-order:fill markers stroke"
       id="circle5174" />
    <rect
       inkscape:export-ydpi="96"
       inkscape:export-xdpi="96"
       inkscape:export-filename="D:\Calcatz\Icon Pack\Adventure Narative Inspired by Arrival\GUI\Navigation Buttons\Xbox\Light\png\64px\dpad_right.png"
       style="fill:#cccccc;fill-opacity:1;stroke-width:0.954316;stroke-linecap:round;paint-order:fill markers stroke"
       id="rect835"
       width="16.933332"
       height="16.933332"
       x="92.429115"
       y="104.57294" />
    <path
       d="m 100.88039,110.00144 c -0.28506,0.006 -0.56838,0.0534 -0.85058,0.1188 v 2.06084 h -2.060843 c -0.141,0.57452 -0.1474,1.14586 0,1.7126 h 2.060843 v 2.06084 c 0.61558,0.1916 1.17368,0.1372 1.71254,0 v -1.64952 -0.41132 -1.7126 -2.06084 c -0.28998,-0.0932 -0.57684,-0.1258 -0.86196,-0.1188 z"
       style="fill:#8c8c8c;fill-opacity:1;stroke:none;stroke-width:0.552;stroke-linecap:round;stroke-miterlimit:4;stroke-dasharray:none;stroke-opacity:1;paint-order:markers stroke fill"
       id="path837" />
    <path
       d="m 101.74235,112.18112 v 1.7126 h 2.05984 c 0.1628,-0.57828 0.18,-1.14994 0,-1.7126 z"
       style="fill:#1f2123;fill-opacity:1;stroke:none;stroke-width:0.552;stroke-linecap:round;stroke-miterlimit:4;stroke-dasharray:none;stroke-opacity:1;paint-order:markers stroke fill"
       id="path839" />
    <path
       id="path841"
       style="fill:none;fill-opacity:1;stroke:#8c8c8c;stroke-width:0.552;stroke-linecap:round;stroke-miterlimit:4;stroke-dasharray:none;stroke-dashoffset:0;stroke-opacity:1;paint-order:fill markers stroke"
       d="m 104.45441,113.03962 a 3.5586246,3.5586246 0 0 1 -3.55863,3.55862 3.5586246,3.5586246 0 0 1 -3.558621,-3.55862 3.5586246,3.5586246 0 0 1 3.558621,-3.55862 3.5586246,3.5586246 0 0 1 3.55863,3.55862" />
    <rect
       inkscape:export-ydpi="96"
       inkscape:export-xdpi="96"
       inkscape:export-filename="D:\Calcatz\Icon Pack\Adventure Narative Inspired by Arrival\GUI\Navigation Buttons\Xbox\Light\png\128px\dpad_right.png"
       y="104.57294"
       x="112.04902"
       height="33.866665"
       width="33.866665"
       id="rect843"
       style="fill:#cccccc;fill-opacity:1;stroke-width:1.90863;stroke-linecap:round;paint-order:fill markers stroke" />
    <path
       id="path845"
       style="fill:#8c8c8c;fill-opacity:1;stroke:none;stroke-width:1.104;stroke-linecap:round;stroke-miterlimit:4;stroke-dasharray:none;stroke-opacity:1;paint-order:markers stroke fill"
       d="m 128.95156,115.42994 c -0.57012,0.012 -1.13676,0.1068 -1.70116,0.2376 v 4.12168 h -4.12168 c -0.282,1.14904 -0.2948,2.29172 0,3.4252 h 4.12168 v 4.12168 c 1.23116,0.3832 2.34736,0.2744 3.42508,0 v -3.29904 -0.82264 -3.4252 -4.12168 c -0.57996,-0.1864 -1.15368,-0.2516 -1.72392,-0.2376 z" />
    <path
       id="path847"
       style="fill:#1f2123;fill-opacity:1;stroke:none;stroke-width:1.104;stroke-linecap:round;stroke-miterlimit:4;stroke-dasharray:none;stroke-opacity:1;paint-order:markers stroke fill"
       d="m 130.67548,119.7893 v 3.4252 h 4.11968 c 0.3256,-1.15656 0.36,-2.29988 0,-3.4252 z" />
    <path
       d="m 136.0996,121.5063 a 7.1172492,7.1172492 0 0 1 -7.11726,7.11724 7.1172492,7.1172492 0 0 1 -7.11724,-7.11724 7.1172492,7.1172492 0 0 1 7.11724,-7.11724 7.1172492,7.1172492 0 0 1 7.11726,7.11724"
       style="fill:none;fill-opacity:1;stroke:#8c8c8c;stroke-width:1.104;stroke-linecap:round;stroke-miterlimit:4;stroke-dasharray:none;stroke-dashoffset:0;stroke-opacity:1;paint-order:fill markers stroke"
       id="path849" />
    <rect
       inkscape:export-ydpi="96"
       inkscape:export-xdpi="96"
       inkscape:export-filename="D:\Calcatz\Icon Pack\Adventure Narative Inspired by Arrival\GUI\Navigation Buttons\Xbox\Light\png\256px\dpad_right.png"
       style="fill:#cccccc;fill-opacity:1;stroke-width:3.81726;stroke-linecap:round;paint-order:fill markers stroke"
       id="rect851"
       width="67.73333"
       height="67.73333"
       x="150.40926"
       y="104.57294" />
    <path
       d="m 184.21432,126.28694 c -1.14024,0.024 -2.27352,0.2136 -3.40232,0.4752 v 8.24336 h -8.24336 c -0.564,2.29808 -0.5896,4.58344 0,6.8504 h 8.24336 v 8.24336 c 2.46232,0.7664 4.69472,0.5488 6.85016,0 v -6.59808 -1.64528 -6.8504 -8.24336 c -1.15992,-0.3728 -2.30736,-0.5032 -3.44784,-0.4752 z"
       style="fill:#8c8c8c;fill-opacity:1;stroke:none;stroke-width:2.208;stroke-linecap:round;stroke-miterlimit:4;stroke-dasharray:none;stroke-opacity:1;paint-order:markers stroke fill"
       id="path853" />
    <path
       d="m 187.66216,135.00566 v 6.8504 h 8.23936 c 0.6512,-2.31312 0.72,-4.59976 0,-6.8504 z"
       style="fill:#1f2123;fill-opacity:1;stroke:none;stroke-width:2.208;stroke-linecap:round;stroke-miterlimit:4;stroke-dasharray:none;stroke-opacity:1;paint-order:markers stroke fill"
       id="path855" />
    <path
       id="path857"
       style="fill:none;fill-opacity:1;stroke:#8c8c8c;stroke-width:2.208;stroke-linecap:round;stroke-miterlimit:4;stroke-dasharray:none;stroke-dashoffset:0;stroke-opacity:1;paint-order:fill markers stroke"
       d="m 198.5104,138.43966 a 14.234498,14.234498 0 0 1 -14.23452,14.23448 14.234498,14.234498 0 0 1 -14.23448,-14.23448 14.234498,14.234498 0 0 1 14.23448,-14.23448 14.234498,14.234498 0 0 1 14.23452,14.23448" />
  </g>
</svg>
