<?xml version="1.0" encoding="UTF-8" standalone="no"?>
<svg
   xmlns:dc="http://purl.org/dc/elements/1.1/"
   xmlns:cc="http://creativecommons.org/ns#"
   xmlns:rdf="http://www.w3.org/1999/02/22-rdf-syntax-ns#"
   xmlns:svg="http://www.w3.org/2000/svg"
   xmlns="http://www.w3.org/2000/svg"
   xmlns:sodipodi="http://sodipodi.sourceforge.net/DTD/sodipodi-0.dtd"
   xmlns:inkscape="http://www.inkscape.org/namespaces/inkscape"
   inkscape:export-ydpi="96"
   inkscape:export-xdpi="96"
   inkscape:export-filename="D:\Calcatz\Icon Pack\Adventure Narative Inspired by Arrival\GUI\Navigation Buttons\Xbox\Light\png\dpad_down.png"
   sodipodi:docname="dpad_down.svg"
   inkscape:version="1.0 (4035a4fb49, 2020-05-01)"
   id="svg7235"
   version="1.1"
   viewBox="0 0 8.4666662 8.4666662"
   height="31.999998"
   width="31.999998">
  <defs
     id="defs7229" />
  <sodipodi:namedview
     inkscape:window-maximized="1"
     inkscape:window-y="-8"
     inkscape:window-x="-8"
     inkscape:window-height="705"
     inkscape:window-width="1366"
     fit-margin-bottom="0"
     fit-margin-right="0"
     fit-margin-left="0"
     fit-margin-top="0"
     showgrid="false"
     inkscape:document-rotation="0"
     inkscape:current-layer="layer1"
     inkscape:document-units="mm"
     inkscape:cy="98.566842"
     inkscape:cx="299.33611"
     inkscape:zoom="1.2339194"
     inkscape:pageshadow="2"
     inkscape:pageopacity="0.0"
     borderopacity="1.0"
     bordercolor="#666666"
     pagecolor="#ffffff"
     id="base"
     units="px" />
  <metadata
     id="metadata7232">
    <rdf:RDF>
      <cc:Work
         rdf:about="">
        <dc:format>image/svg+xml</dc:format>
        <dc:type
           rdf:resource="http://purl.org/dc/dcmitype/StillImage" />
        <dc:title />
      </cc:Work>
    </rdf:RDF>
  </metadata>
  <g
     transform="translate(62.578728,-38.343037)"
     id="layer1"
     inkscape:groupmode="layer"
     inkscape:label="Layer 1">
    <rect
       y="38.343037"
       x="-62.578728"
       height="8.4666662"
       width="8.4666662"
       id="rect833"
       style="fill:#cccccc;fill-opacity:1;stroke-width:0.252751;stroke-linecap:round;paint-order:fill markers stroke" />
    <path
       d="m -58.345387,44.355686 a 1.7793123,1.7793123 0 0 1 -1.779312,-1.779312 1.7793123,1.7793123 0 0 1 1.779312,-1.779312 1.7793123,1.7793123 0 0 1 1.779313,1.779312 1.7793123,1.7793123 0 0 1 -1.779313,1.779312"
       style="fill:none;fill-opacity:1;stroke:#8c8c8c;stroke-width:0.276;stroke-linecap:round;stroke-miterlimit:4;stroke-dasharray:none;stroke-dashoffset:0;stroke-opacity:1;paint-order:fill markers stroke"
       id="circle5194" />
    <path
       d="m -56.82742,42.573564 c -0.003,-0.14253 -0.0267,-0.28419 -0.0594,-0.42529 h -1.03042 v -1.03042 c -0.28726,-0.0705 -0.57293,-0.0737 -0.85629,0 v 1.03042 h -1.03042 c -0.0958,0.30779 -0.0686,0.58685 0,0.85627 h 0.82475 0.20567 0.85629 1.03042 c 0.0466,-0.14499 0.0629,-0.28842 0.0594,-0.43098 z"
       style="fill:#8c8c8c;fill-opacity:1;stroke:none;stroke-width:0.276;stroke-linecap:round;stroke-miterlimit:4;stroke-dasharray:none;stroke-opacity:1;paint-order:markers stroke fill"
       id="path5192" />
    <path
       d="m -57.91727,43.004544 h -0.85629 v 1.02992 c 0.28913,0.0814 0.57496,0.09 0.85629,0 z"
       style="fill:#1f2123;fill-opacity:1;stroke:none;stroke-width:0.276;stroke-linecap:round;stroke-miterlimit:4;stroke-dasharray:none;stroke-opacity:1;paint-order:markers stroke fill"
       id="path5196" />
    <rect
       inkscape:export-ydpi="96"
       inkscape:export-xdpi="96"
       inkscape:export-filename="D:\Calcatz\Icon Pack\Adventure Narative Inspired by Arrival\GUI\Navigation Buttons\Xbox\Light\png\64px\dpad_down.png"
       style="fill:#cccccc;fill-opacity:1;stroke-width:0.505502;stroke-linecap:round;paint-order:fill markers stroke"
       id="rect835"
       width="16.933332"
       height="16.933332"
       x="-52.071896"
       y="38.343037" />
    <path
       id="path837"
       style="fill:none;fill-opacity:1;stroke:#8c8c8c;stroke-width:0.552;stroke-linecap:round;stroke-miterlimit:4;stroke-dasharray:none;stroke-dashoffset:0;stroke-opacity:1;paint-order:fill markers stroke"
       d="m -43.605214,50.368335 a 3.5586246,3.5586246 0 0 1 -3.558624,-3.558624 3.5586246,3.5586246 0 0 1 3.558624,-3.558624 3.5586246,3.5586246 0 0 1 3.558626,3.558624 3.5586246,3.5586246 0 0 1 -3.558626,3.558624" />
    <path
       id="path839"
       style="fill:#8c8c8c;fill-opacity:1;stroke:none;stroke-width:0.552;stroke-linecap:round;stroke-miterlimit:4;stroke-dasharray:none;stroke-opacity:1;paint-order:markers stroke fill"
       d="m -40.56928,46.804091 c -0.006,-0.28506 -0.0534,-0.56838 -0.1188,-0.85058 h -2.06084 v -2.06084 c -0.57452,-0.141 -1.14586,-0.1474 -1.71258,0 v 2.06084 h -2.06084 c -0.1916,0.61558 -0.1372,1.1737 0,1.71254 h 1.6495 0.41134 1.71258 2.06084 c 0.0932,-0.28998 0.1258,-0.57684 0.1188,-0.86196 z" />
    <path
       id="path841"
       style="fill:#1f2123;fill-opacity:1;stroke:none;stroke-width:0.552;stroke-linecap:round;stroke-miterlimit:4;stroke-dasharray:none;stroke-opacity:1;paint-order:markers stroke fill"
       d="m -42.74898,47.666051 h -1.71258 v 2.05984 c 0.57826,0.1628 1.14992,0.18 1.71258,0 z" />
    <rect
       inkscape:export-ydpi="96"
       inkscape:export-xdpi="96"
       inkscape:export-filename="D:\Calcatz\Icon Pack\Adventure Narative Inspired by Arrival\GUI\Navigation Buttons\Xbox\Light\png\128px\dpad_down.png"
       y="38.343037"
       x="-31.915932"
       height="33.866665"
       width="33.866665"
       id="rect843"
       style="fill:#cccccc;fill-opacity:1;stroke-width:1.011;stroke-linecap:round;paint-order:fill markers stroke" />
    <path
       d="m -14.98257,62.393633 a 7.1172492,7.1172492 0 0 1 -7.117248,-7.117248 7.1172492,7.1172492 0 0 1 7.117248,-7.117248 7.1172492,7.1172492 0 0 1 7.1172517,7.117248 7.1172492,7.1172492 0 0 1 -7.1172517,7.117248"
       style="fill:none;fill-opacity:1;stroke:#8c8c8c;stroke-width:1.104;stroke-linecap:round;stroke-miterlimit:4;stroke-dasharray:none;stroke-dashoffset:0;stroke-opacity:1;paint-order:fill markers stroke"
       id="path845" />
    <path
       d="m -8.9107023,55.265145 c -0.012,-0.57012 -0.1068,-1.13676 -0.2376,-1.70116 h -4.1216797 v -4.12168 c -1.14904,-0.282 -2.29172,-0.2948 -3.42516,0 v 4.12168 h -4.12168 c -0.3832,1.23116 -0.2744,2.3474 0,3.42508 h 3.299 0.82268 3.42516 4.1216797 c 0.1864,-0.57996 0.2516,-1.15368 0.2376,-1.72392 z"
       style="fill:#8c8c8c;fill-opacity:1;stroke:none;stroke-width:1.104;stroke-linecap:round;stroke-miterlimit:4;stroke-dasharray:none;stroke-opacity:1;paint-order:markers stroke fill"
       id="path847" />
    <path
       d="m -13.270102,56.989065 h -3.42516 v 4.11968 c 1.15652,0.3256 2.29984,0.36 3.42516,0 z"
       style="fill:#1f2123;fill-opacity:1;stroke:none;stroke-width:1.104;stroke-linecap:round;stroke-miterlimit:4;stroke-dasharray:none;stroke-opacity:1;paint-order:markers stroke fill"
       id="path849" />
    <rect
       inkscape:export-ydpi="96"
       inkscape:export-xdpi="96"
       inkscape:export-filename="D:\Calcatz\Icon Pack\Adventure Narative Inspired by Arrival\GUI\Navigation Buttons\Xbox\Light\png\256px\dpad_down.png"
       style="fill:#cccccc;fill-opacity:1;stroke-width:2.022;stroke-linecap:round;paint-order:fill markers stroke"
       id="rect851"
       width="67.73333"
       height="67.73333"
       x="8.1815691"
       y="38.343037" />
    <path
       id="path853"
       style="fill:none;fill-opacity:1;stroke:#8c8c8c;stroke-width:2.208;stroke-linecap:round;stroke-miterlimit:4;stroke-dasharray:none;stroke-dashoffset:0;stroke-opacity:1;paint-order:fill markers stroke"
       d="M 42.048293,86.444229 A 14.234498,14.234498 0 0 1 27.813797,72.209733 14.234498,14.234498 0 0 1 42.048293,57.975237 14.234498,14.234498 0 0 1 56.282797,72.209733 14.234498,14.234498 0 0 1 42.048293,86.444229" />
    <path
       id="path855"
       style="fill:#8c8c8c;fill-opacity:1;stroke:none;stroke-width:2.208;stroke-linecap:round;stroke-miterlimit:4;stroke-dasharray:none;stroke-opacity:1;paint-order:markers stroke fill"
       d="m 54.192029,72.187253 c -0.024,-1.14024 -0.2136,-2.27352 -0.4752,-3.40232 h -8.24336 v -8.24336 c -2.29808,-0.564 -4.58344,-0.5896 -6.85032,0 v 8.24336 h -8.24336 c -0.7664,2.46232 -0.5488,4.6948 0,6.85016 h 6.598 1.64536 6.85032 8.24336 c 0.3728,-1.15992 0.5032,-2.30736 0.4752,-3.44784 z" />
    <path
       id="path857"
       style="fill:#1f2123;fill-opacity:1;stroke:none;stroke-width:2.208;stroke-linecap:round;stroke-miterlimit:4;stroke-dasharray:none;stroke-opacity:1;paint-order:markers stroke fill"
       d="m 45.473229,75.635093 h -6.85032 v 8.23936 c 2.31304,0.6512 4.59968,0.72 6.85032,0 z" />
  </g>
</svg>
