<?xml version="1.0" encoding="UTF-8" standalone="no"?>
<svg
   xmlns:dc="http://purl.org/dc/elements/1.1/"
   xmlns:cc="http://creativecommons.org/ns#"
   xmlns:rdf="http://www.w3.org/1999/02/22-rdf-syntax-ns#"
   xmlns:svg="http://www.w3.org/2000/svg"
   xmlns="http://www.w3.org/2000/svg"
   xmlns:sodipodi="http://sodipodi.sourceforge.net/DTD/sodipodi-0.dtd"
   xmlns:inkscape="http://www.inkscape.org/namespaces/inkscape"
   inkscape:export-ydpi="96"
   inkscape:export-xdpi="96"
   inkscape:export-filename="D:\Calcatz\Icon Pack\Adventure Narative Inspired by Arrival\GUI\Navigation Buttons\Xbox\Light\png\l3.png"
   sodipodi:docname="l3.svg"
   inkscape:version="1.0 (4035a4fb49, 2020-05-01)"
   id="svg7328"
   version="1.1"
   viewBox="0 0 8.4666662 8.4666662"
   height="31.999998"
   width="31.999998">
  <defs
     id="defs7322" />
  <sodipodi:namedview
     inkscape:window-maximized="1"
     inkscape:window-y="-8"
     inkscape:window-x="-8"
     inkscape:window-height="705"
     inkscape:window-width="1366"
     fit-margin-bottom="0"
     fit-margin-right="0"
     fit-margin-left="0"
     fit-margin-top="0"
     showgrid="false"
     inkscape:document-rotation="0"
     inkscape:current-layer="layer1"
     inkscape:document-units="mm"
     inkscape:cy="42.017405"
     inkscape:cx="481.00127"
     inkscape:zoom="0.61695969"
     inkscape:pageshadow="2"
     inkscape:pageopacity="0.0"
     borderopacity="1.0"
     bordercolor="#666666"
     pagecolor="#ffffff"
     id="base"
     units="px" />
  <metadata
     id="metadata7325">
    <rdf:RDF>
      <cc:Work
         rdf:about="">
        <dc:format>image/svg+xml</dc:format>
        <dc:type
           rdf:resource="http://purl.org/dc/dcmitype/StillImage" />
        <dc:title />
      </cc:Work>
    </rdf:RDF>
  </metadata>
  <g
     transform="translate(-111.669,-138.47635)"
     id="layer1"
     inkscape:groupmode="layer"
     inkscape:label="Layer 1">
    <rect
       y="138.47635"
       x="111.669"
       height="8.4666662"
       width="8.4666662"
       id="rect835"
       style="fill:#cccccc;fill-opacity:1;stroke-width:0.767575;stroke-linecap:round;paint-order:fill markers stroke" />
    <path
       d="m 118.06166,142.70969 a 2.1593168,2.1593168 0 0 1 -2.15932,2.15931 2.1593168,2.1593168 0 0 1 -2.15931,-2.15931 2.1593168,2.1593168 0 0 1 2.15931,-2.15932 2.1593168,2.1593168 0 0 1 2.15932,2.15932"
       style="fill:none;fill-opacity:1;stroke:#8c8c8c;stroke-width:0.276;stroke-linecap:round;stroke-miterlimit:4;stroke-dasharray:none;stroke-dashoffset:0;stroke-opacity:1;paint-order:fill markers stroke"
       id="circle4946" />
    <g
       transform="translate(-303.81891,-271.48498)"
       aria-label="L"
       id="text5220"
       style="font-weight:bold;font-size:2.64583px;line-height:1.05;font-family:'Overlock SC';-inkscape-font-specification:'Overlock SC Bold';text-align:end;text-anchor:end;fill:#1f2123;fill-opacity:1;stroke:#ffffff;stroke-width:0.905998;stroke-linecap:round;stroke-miterlimit:4;stroke-dasharray:none;stroke-opacity:1;paint-order:markers stroke fill">
      <path
         d="m 418.69713,414.48039 v -0.54768 q 0,-0.37307 -0.0185,-0.61384 0.045,-0.008 0.10848,-0.008 0.12965,0 0.12965,0.10054 0,0.0159 -0.005,0.10848 -0.005,0.09 -0.0106,0.22754 -0.005,0.13494 -0.005,0.25664 v 0.23813 q 0,0.55033 0.0185,0.66675 0.11113,0.005 0.17463,0.005 0.41275,0 0.53181,-0.0609 0.0185,0.0556 0.0185,0.11641 0,0.0476 -0.0238,0.0688 -0.045,0.0397 -0.40481,0.0397 -0.3175,0 -0.39688,-0.005 -0.0714,-0.003 -0.0979,-0.037 -0.0238,-0.0344 -0.0238,-0.11377 0,-0.0423 0.003,-0.19579 0.003,-0.15346 0.003,-0.24607 z"
         style="font-size:2.64583px;fill:#1f2123;fill-opacity:1;stroke:none;stroke-width:0.905998"
         id="path7928" />
    </g>
    <g
       transform="translate(-303.81891,-271.48498)"
       aria-label="3"
       id="text5224"
       style="font-weight:bold;font-size:2.64583px;line-height:1.05;font-family:'Overlock SC';-inkscape-font-specification:'Overlock SC Bold';text-align:end;text-anchor:end;fill:#1f2123;fill-opacity:1;stroke:#ffffff;stroke-width:0.905998;stroke-linecap:round;stroke-miterlimit:4;stroke-dasharray:none;stroke-opacity:1;paint-order:markers stroke fill">
      <path
         d="m 420.03896,414.09541 q 0.24607,0 0.36777,-0.0926 0.12436,-0.0926 0.12436,-0.21961 0,-0.10054 -0.0741,-0.17462 -0.0714,-0.0767 -0.18785,-0.0767 -0.0926,0 -0.18256,0.0556 -0.0873,0.0556 -0.14023,0.15875 -0.0503,0 -0.082,-0.0265 -0.0318,-0.0265 -0.0318,-0.0609 0,-0.09 0.13494,-0.17992 0.13758,-0.0926 0.3122,-0.0926 0.20373,0 0.3175,0.11377 0.11642,0.11112 0.11642,0.26458 0,0.10583 -0.0661,0.20108 -0.0635,0.0926 -0.18785,0.14288 0.14287,0.045 0.22225,0.16139 0.082,0.11378 0.082,0.2593 0,0.23548 -0.17462,0.38364 -0.17463,0.15081 -0.47625,0.15081 -0.1323,0 -0.20373,-0.0397 -0.0688,-0.037 -0.0688,-0.0952 0,-0.0767 0.0873,-0.0979 0.0794,0.0794 0.2196,0.0794 0.20109,0 0.31486,-0.0979 0.11377,-0.0953 0.11377,-0.24606 0,-0.15875 -0.11907,-0.24871 -0.11906,-0.0926 -0.32543,-0.0926 -0.0503,0 -0.0741,-0.0159 -0.0212,-0.0159 -0.0212,-0.0767 z"
         style="font-size:2.64583px;fill:#1f2123;fill-opacity:1;stroke:none;stroke-width:0.905998"
         id="path7931" />
    </g>
    <rect
       inkscape:export-ydpi="96"
       inkscape:export-xdpi="96"
       inkscape:export-filename="D:\Calcatz\Icon Pack\Adventure Narative Inspired by Arrival\GUI\Navigation Buttons\Xbox\Light\png\64px\l3.png"
       style="fill:#cccccc;fill-opacity:1;stroke-width:1.53515;stroke-linecap:round;paint-order:fill markers stroke"
       id="rect837"
       width="16.933332"
       height="16.933332"
       x="121.37173"
       y="138.47635" />
    <path
       id="path839"
       style="fill:none;fill-opacity:1;stroke:#8c8c8c;stroke-width:0.552;stroke-linecap:round;stroke-miterlimit:4;stroke-dasharray:none;stroke-dashoffset:0;stroke-opacity:1;paint-order:fill markers stroke"
       d="m 134.15707,146.94303 a 4.3186336,4.3186336 0 0 1 -4.31864,4.31862 4.3186336,4.3186336 0 0 1 -4.31862,-4.31862 4.3186336,4.3186336 0 0 1 4.31862,-4.31864 4.3186336,4.3186336 0 0 1 4.31864,4.31864" />
    <g
       style="font-weight:bold;font-size:2.64583px;line-height:1.05;font-family:'Overlock SC';-inkscape-font-specification:'Overlock SC Bold';text-align:end;text-anchor:end;fill:#1f2123;fill-opacity:1;stroke:#ffffff;stroke-width:0.905998;stroke-linecap:round;stroke-miterlimit:4;stroke-dasharray:none;stroke-opacity:1;paint-order:markers stroke fill"
       id="g843"
       aria-label="L"
       transform="matrix(2,0,0,2,-709.60407,-681.44631)">
      <path
         id="path841"
         style="font-size:2.64583px;fill:#1f2123;fill-opacity:1;stroke:none;stroke-width:0.905998"
         d="m 418.69713,414.48039 v -0.54768 q 0,-0.37307 -0.0185,-0.61384 0.045,-0.008 0.10848,-0.008 0.12965,0 0.12965,0.10054 0,0.0159 -0.005,0.10848 -0.005,0.09 -0.0106,0.22754 -0.005,0.13494 -0.005,0.25664 v 0.23813 q 0,0.55033 0.0185,0.66675 0.11113,0.005 0.17463,0.005 0.41275,0 0.53181,-0.0609 0.0185,0.0556 0.0185,0.11641 0,0.0476 -0.0238,0.0688 -0.045,0.0397 -0.40481,0.0397 -0.3175,0 -0.39688,-0.005 -0.0714,-0.003 -0.0979,-0.037 -0.0238,-0.0344 -0.0238,-0.11377 0,-0.0423 0.003,-0.19579 0.003,-0.15346 0.003,-0.24607 z" />
    </g>
    <g
       style="font-weight:bold;font-size:2.64583px;line-height:1.05;font-family:'Overlock SC';-inkscape-font-specification:'Overlock SC Bold';text-align:end;text-anchor:end;fill:#1f2123;fill-opacity:1;stroke:#ffffff;stroke-width:0.905998;stroke-linecap:round;stroke-miterlimit:4;stroke-dasharray:none;stroke-opacity:1;paint-order:markers stroke fill"
       id="g847"
       aria-label="3"
       transform="matrix(2,0,0,2,-709.60407,-681.44631)">
      <path
         id="path845"
         style="font-size:2.64583px;fill:#1f2123;fill-opacity:1;stroke:none;stroke-width:0.905998"
         d="m 420.03896,414.09541 q 0.24607,0 0.36777,-0.0926 0.12436,-0.0926 0.12436,-0.21961 0,-0.10054 -0.0741,-0.17462 -0.0714,-0.0767 -0.18785,-0.0767 -0.0926,0 -0.18256,0.0556 -0.0873,0.0556 -0.14023,0.15875 -0.0503,0 -0.082,-0.0265 -0.0318,-0.0265 -0.0318,-0.0609 0,-0.09 0.13494,-0.17992 0.13758,-0.0926 0.3122,-0.0926 0.20373,0 0.3175,0.11377 0.11642,0.11112 0.11642,0.26458 0,0.10583 -0.0661,0.20108 -0.0635,0.0926 -0.18785,0.14288 0.14287,0.045 0.22225,0.16139 0.082,0.11378 0.082,0.2593 0,0.23548 -0.17462,0.38364 -0.17463,0.15081 -0.47625,0.15081 -0.1323,0 -0.20373,-0.0397 -0.0688,-0.037 -0.0688,-0.0952 0,-0.0767 0.0873,-0.0979 0.0794,0.0794 0.2196,0.0794 0.20109,0 0.31486,-0.0979 0.11377,-0.0953 0.11377,-0.24606 0,-0.15875 -0.11907,-0.24871 -0.11906,-0.0926 -0.32543,-0.0926 -0.0503,0 -0.0741,-0.0159 -0.0212,-0.0159 -0.0212,-0.0767 z" />
    </g>
    <rect
       inkscape:export-ydpi="96"
       inkscape:export-xdpi="96"
       inkscape:export-filename="D:\Calcatz\Icon Pack\Adventure Narative Inspired by Arrival\GUI\Navigation Buttons\Xbox\Light\png\128px\l3.png"
       y="138.47635"
       x="140.42169"
       height="33.866665"
       width="33.866665"
       id="rect849"
       style="fill:#cccccc;fill-opacity:1;stroke-width:3.0703;stroke-linecap:round;paint-order:fill markers stroke" />
    <path
       d="m 165.99247,155.40971 a 8.6372672,8.6372672 0 0 1 -8.63728,8.63724 8.6372672,8.6372672 0 0 1 -8.63724,-8.63724 8.6372672,8.6372672 0 0 1 8.63724,-8.63728 8.6372672,8.6372672 0 0 1 8.63728,8.63728"
       style="fill:none;fill-opacity:1;stroke:#8c8c8c;stroke-width:1.104;stroke-linecap:round;stroke-miterlimit:4;stroke-dasharray:none;stroke-dashoffset:0;stroke-opacity:1;paint-order:fill markers stroke"
       id="path851" />
    <g
       transform="matrix(4,0,0,4,-1521.5298,-1501.369)"
       aria-label="L"
       id="g855"
       style="font-weight:bold;font-size:2.64583px;line-height:1.05;font-family:'Overlock SC';-inkscape-font-specification:'Overlock SC Bold';text-align:end;text-anchor:end;fill:#1f2123;fill-opacity:1;stroke:#ffffff;stroke-width:0.905998;stroke-linecap:round;stroke-miterlimit:4;stroke-dasharray:none;stroke-opacity:1;paint-order:markers stroke fill">
      <path
         d="m 418.69713,414.48039 v -0.54768 q 0,-0.37307 -0.0185,-0.61384 0.045,-0.008 0.10848,-0.008 0.12965,0 0.12965,0.10054 0,0.0159 -0.005,0.10848 -0.005,0.09 -0.0106,0.22754 -0.005,0.13494 -0.005,0.25664 v 0.23813 q 0,0.55033 0.0185,0.66675 0.11113,0.005 0.17463,0.005 0.41275,0 0.53181,-0.0609 0.0185,0.0556 0.0185,0.11641 0,0.0476 -0.0238,0.0688 -0.045,0.0397 -0.40481,0.0397 -0.3175,0 -0.39688,-0.005 -0.0714,-0.003 -0.0979,-0.037 -0.0238,-0.0344 -0.0238,-0.11377 0,-0.0423 0.003,-0.19579 0.003,-0.15346 0.003,-0.24607 z"
         style="font-size:2.64583px;fill:#1f2123;fill-opacity:1;stroke:none;stroke-width:0.905998"
         id="path853" />
    </g>
    <g
       transform="matrix(4,0,0,4,-1521.5298,-1501.369)"
       aria-label="3"
       id="g859"
       style="font-weight:bold;font-size:2.64583px;line-height:1.05;font-family:'Overlock SC';-inkscape-font-specification:'Overlock SC Bold';text-align:end;text-anchor:end;fill:#1f2123;fill-opacity:1;stroke:#ffffff;stroke-width:0.905998;stroke-linecap:round;stroke-miterlimit:4;stroke-dasharray:none;stroke-opacity:1;paint-order:markers stroke fill">
      <path
         d="m 420.03896,414.09541 q 0.24607,0 0.36777,-0.0926 0.12436,-0.0926 0.12436,-0.21961 0,-0.10054 -0.0741,-0.17462 -0.0714,-0.0767 -0.18785,-0.0767 -0.0926,0 -0.18256,0.0556 -0.0873,0.0556 -0.14023,0.15875 -0.0503,0 -0.082,-0.0265 -0.0318,-0.0265 -0.0318,-0.0609 0,-0.09 0.13494,-0.17992 0.13758,-0.0926 0.3122,-0.0926 0.20373,0 0.3175,0.11377 0.11642,0.11112 0.11642,0.26458 0,0.10583 -0.0661,0.20108 -0.0635,0.0926 -0.18785,0.14288 0.14287,0.045 0.22225,0.16139 0.082,0.11378 0.082,0.2593 0,0.23548 -0.17462,0.38364 -0.17463,0.15081 -0.47625,0.15081 -0.1323,0 -0.20373,-0.0397 -0.0688,-0.037 -0.0688,-0.0952 0,-0.0767 0.0873,-0.0979 0.0794,0.0794 0.2196,0.0794 0.20109,0 0.31486,-0.0979 0.11377,-0.0953 0.11377,-0.24606 0,-0.15875 -0.11907,-0.24871 -0.11906,-0.0926 -0.32543,-0.0926 -0.0503,0 -0.0741,-0.0159 -0.0212,-0.0159 -0.0212,-0.0767 z"
         style="font-size:2.64583px;fill:#1f2123;fill-opacity:1;stroke:none;stroke-width:0.905998"
         id="path857" />
    </g>
    <rect
       inkscape:export-ydpi="96"
       inkscape:export-xdpi="96"
       inkscape:export-filename="D:\Calcatz\Icon Pack\Adventure Narative Inspired by Arrival\GUI\Navigation Buttons\Xbox\Light\png\256px\l3.png"
       style="fill:#cccccc;fill-opacity:1;stroke-width:6.1406;stroke-linecap:round;paint-order:fill markers stroke"
       id="rect861"
       width="67.73333"
       height="67.73333"
       x="177.87219"
       y="138.47635" />
    <path
       id="path863"
       style="fill:none;fill-opacity:1;stroke:#8c8c8c;stroke-width:2.208;stroke-linecap:round;stroke-miterlimit:4;stroke-dasharray:none;stroke-dashoffset:0;stroke-opacity:1;paint-order:fill markers stroke"
       d="m 229.01375,172.34307 a 17.274534,17.274534 0 0 1 -17.27456,17.27448 17.274534,17.274534 0 0 1 -17.27448,-17.27448 17.274534,17.274534 0 0 1 17.27448,-17.27456 17.274534,17.274534 0 0 1 17.27456,17.27456" />
    <g
       style="font-weight:bold;font-size:2.64583px;line-height:1.05;font-family:'Overlock SC';-inkscape-font-specification:'Overlock SC Bold';text-align:end;text-anchor:end;fill:#1f2123;fill-opacity:1;stroke:#ffffff;stroke-width:0.905998;stroke-linecap:round;stroke-miterlimit:4;stroke-dasharray:none;stroke-opacity:1;paint-order:markers stroke fill"
       id="g867"
       aria-label="L"
       transform="matrix(8,0,0,8,-3146.0308,-3141.2143)">
      <path
         id="path865"
         style="font-size:2.64583px;fill:#1f2123;fill-opacity:1;stroke:none;stroke-width:0.905998"
         d="m 418.69713,414.48039 v -0.54768 q 0,-0.37307 -0.0185,-0.61384 0.045,-0.008 0.10848,-0.008 0.12965,0 0.12965,0.10054 0,0.0159 -0.005,0.10848 -0.005,0.09 -0.0106,0.22754 -0.005,0.13494 -0.005,0.25664 v 0.23813 q 0,0.55033 0.0185,0.66675 0.11113,0.005 0.17463,0.005 0.41275,0 0.53181,-0.0609 0.0185,0.0556 0.0185,0.11641 0,0.0476 -0.0238,0.0688 -0.045,0.0397 -0.40481,0.0397 -0.3175,0 -0.39688,-0.005 -0.0714,-0.003 -0.0979,-0.037 -0.0238,-0.0344 -0.0238,-0.11377 0,-0.0423 0.003,-0.19579 0.003,-0.15346 0.003,-0.24607 z" />
    </g>
    <g
       style="font-weight:bold;font-size:2.64583px;line-height:1.05;font-family:'Overlock SC';-inkscape-font-specification:'Overlock SC Bold';text-align:end;text-anchor:end;fill:#1f2123;fill-opacity:1;stroke:#ffffff;stroke-width:0.905998;stroke-linecap:round;stroke-miterlimit:4;stroke-dasharray:none;stroke-opacity:1;paint-order:markers stroke fill"
       id="g871"
       aria-label="3"
       transform="matrix(8,0,0,8,-3146.0308,-3141.2143)">
      <path
         id="path869"
         style="font-size:2.64583px;fill:#1f2123;fill-opacity:1;stroke:none;stroke-width:0.905998"
         d="m 420.03896,414.09541 q 0.24607,0 0.36777,-0.0926 0.12436,-0.0926 0.12436,-0.21961 0,-0.10054 -0.0741,-0.17462 -0.0714,-0.0767 -0.18785,-0.0767 -0.0926,0 -0.18256,0.0556 -0.0873,0.0556 -0.14023,0.15875 -0.0503,0 -0.082,-0.0265 -0.0318,-0.0265 -0.0318,-0.0609 0,-0.09 0.13494,-0.17992 0.13758,-0.0926 0.3122,-0.0926 0.20373,0 0.3175,0.11377 0.11642,0.11112 0.11642,0.26458 0,0.10583 -0.0661,0.20108 -0.0635,0.0926 -0.18785,0.14288 0.14287,0.045 0.22225,0.16139 0.082,0.11378 0.082,0.2593 0,0.23548 -0.17462,0.38364 -0.17463,0.15081 -0.47625,0.15081 -0.1323,0 -0.20373,-0.0397 -0.0688,-0.037 -0.0688,-0.0952 0,-0.0767 0.0873,-0.0979 0.0794,0.0794 0.2196,0.0794 0.20109,0 0.31486,-0.0979 0.11377,-0.0953 0.11377,-0.24606 0,-0.15875 -0.11907,-0.24871 -0.11906,-0.0926 -0.32543,-0.0926 -0.0503,0 -0.0741,-0.0159 -0.0212,-0.0159 -0.0212,-0.0767 z" />
    </g>
  </g>
</svg>
