<?xml version="1.0" encoding="UTF-8" standalone="no"?>
<svg
   xmlns:dc="http://purl.org/dc/elements/1.1/"
   xmlns:cc="http://creativecommons.org/ns#"
   xmlns:rdf="http://www.w3.org/1999/02/22-rdf-syntax-ns#"
   xmlns:svg="http://www.w3.org/2000/svg"
   xmlns="http://www.w3.org/2000/svg"
   xmlns:sodipodi="http://sodipodi.sourceforge.net/DTD/sodipodi-0.dtd"
   xmlns:inkscape="http://www.inkscape.org/namespaces/inkscape"
   inkscape:export-ydpi="96"
   inkscape:export-xdpi="96"
   inkscape:export-filename="D:\Calcatz\Icon Pack\Adventure Narative Inspired by Arrival\GUI\Navigation Buttons\Xbox\Light\png\lb.png"
   sodipodi:docname="lb.svg"
   inkscape:version="1.0 (4035a4fb49, 2020-05-01)"
   id="svg3682"
   version="1.1"
   viewBox="0 0 8.4666662 8.4666662"
   height="8.4666662mm"
   width="8.4666662mm">
  <defs
     id="defs3676" />
  <sodipodi:namedview
     inkscape:window-maximized="1"
     inkscape:window-y="-8"
     inkscape:window-x="-8"
     inkscape:window-height="705"
     inkscape:window-width="1366"
     fit-margin-bottom="0"
     fit-margin-right="0"
     fit-margin-left="0"
     fit-margin-top="0"
     showgrid="false"
     inkscape:document-rotation="0"
     inkscape:current-layer="layer1"
     inkscape:document-units="mm"
     inkscape:cy="107.12315"
     inkscape:cx="296.00352"
     inkscape:zoom="1.2339194"
     inkscape:pageshadow="2"
     inkscape:pageopacity="0.0"
     borderopacity="1.0"
     bordercolor="#666666"
     pagecolor="#ffffff"
     id="base" />
  <metadata
     id="metadata3679">
    <rdf:RDF>
      <cc:Work
         rdf:about="">
        <dc:format>image/svg+xml</dc:format>
        <dc:type
           rdf:resource="http://purl.org/dc/dcmitype/StillImage" />
        <dc:title />
      </cc:Work>
    </rdf:RDF>
  </metadata>
  <g
     transform="translate(-106.14985,-169.22595)"
     id="layer1"
     inkscape:groupmode="layer"
     inkscape:label="Layer 1">
    <rect
       y="169.22595"
       x="106.14985"
       height="8.4666662"
       width="8.4666662"
       id="rect833"
       style="fill:#cccccc;fill-opacity:1;stroke-width:0.144377;stroke-linecap:round;paint-order:fill markers stroke" />
    <path
       d="m 109.48182,173.68682 v -0.43816 q 0,-0.29845 -0.0148,-0.49106 0.036,-0.006 0.0868,-0.006 0.10371,0 0.10371,0.0804 0,0.0127 -0.004,0.0868 -0.004,0.072 -0.008,0.18204 -0.004,0.10795 -0.004,0.20532 v 0.1905 q 0,0.44026 0.0148,0.5334 0.0889,0.004 0.1397,0.004 0.3302,0 0.42545,-0.0487 0.0148,0.0444 0.0148,0.0931 0,0.0381 -0.019,0.055 -0.036,0.0317 -0.32385,0.0317 -0.254,0 -0.3175,-0.004 -0.0572,-0.002 -0.0783,-0.0296 -0.019,-0.0275 -0.019,-0.091 0,-0.0339 0.002,-0.15663 0.002,-0.12277 0.002,-0.19685 z"
       style="font-weight:bold;font-size:2.11667px;line-height:1.05;font-family:'Overlock SC';-inkscape-font-specification:'Overlock SC Bold';text-align:end;text-anchor:end;fill:#1f2123;fill-opacity:1;stroke:none;stroke-width:0.905997;stroke-linecap:round;stroke-miterlimit:4;stroke-dasharray:none;stroke-opacity:1;paint-order:markers stroke fill"
       id="path4272" />
    <path
       d="m 110.71094,172.86555 q -0.0508,0 -0.14393,0.008 0.008,0.1778 0.008,0.47626 0.0677,0.004 0.11641,0.004 0.3937,0 0.3937,-0.2413 0,-0.24765 -0.37465,-0.24765 z m 0.1016,1.18745 q 0.13759,0 0.23072,-0.0762 0.0931,-0.0783 0.0931,-0.21167 0,-0.14816 -0.10583,-0.22648 -0.10372,-0.0783 -0.25612,-0.0783 -0.13758,0 -0.20108,0.0106 0,0.16933 -0.0275,0.50588 0.0402,0.0318 0.11642,0.055 0.0783,0.0212 0.15028,0.0212 z m -0.42968,-0.004 q 0.0339,-0.2413 0.0339,-0.70697 0,-0.3937 -0.0275,-0.57997 0.15663,-0.0254 0.33655,-0.0254 0.23072,0 0.37677,0.0847 0.14605,0.0847 0.14605,0.2794 0,0.21167 -0.18415,0.29422 0.23495,0.0995 0.23495,0.36195 0,0.20108 -0.13124,0.31326 -0.12911,0.11219 -0.3175,0.11219 -0.30691,0 -0.46778,-0.13335 z"
       style="font-weight:bold;font-size:2.11667px;line-height:1.05;font-family:'Overlock SC';-inkscape-font-specification:'Overlock SC Bold';text-align:end;text-anchor:end;fill:#1f2123;fill-opacity:1;stroke:none;stroke-width:0.905997;stroke-linecap:round;stroke-miterlimit:4;stroke-dasharray:none;stroke-opacity:1;paint-order:markers stroke fill"
       id="path4274" />
    <path
       sodipodi:nodetypes="cccssc"
       d="m 112.28657,172.00847 v 2.90164 h -4.05479 v -1.44471 c 0,-0.63992 0.81907,-1.45695 1.45693,-1.45695 z"
       style="fill:none;fill-opacity:1;stroke:#8c8c8c;stroke-width:0.276;stroke-linecap:round;stroke-miterlimit:4;stroke-dasharray:none;stroke-opacity:1;paint-order:markers stroke fill"
       id="path5494" />
    <rect
       inkscape:export-ydpi="96"
       inkscape:export-xdpi="96"
       inkscape:export-filename="D:\Calcatz\Icon Pack\Adventure Narative Inspired by Arrival\GUI\Navigation Buttons\Xbox\Light\png\64px\lb.png"
       style="fill:#cccccc;fill-opacity:1;stroke-width:0.288754;stroke-linecap:round;paint-order:fill markers stroke"
       id="rect835"
       width="16.933332"
       height="16.933332"
       x="116.12062"
       y="169.22595" />
    <path
       id="path837"
       style="font-weight:bold;font-size:2.11667px;line-height:1.05;font-family:'Overlock SC';-inkscape-font-specification:'Overlock SC Bold';text-align:end;text-anchor:end;fill:#1f2123;fill-opacity:1;stroke:none;stroke-width:1.81199;stroke-linecap:round;stroke-miterlimit:4;stroke-dasharray:none;stroke-opacity:1;paint-order:markers stroke fill"
       d="m 122.78456,178.14769 v -0.87632 q 0,-0.5969 -0.0296,-0.98212 0.072,-0.012 0.1736,-0.012 0.20742,0 0.20742,0.1608 0,0.0254 -0.008,0.1736 -0.008,0.144 -0.016,0.36408 -0.008,0.2159 -0.008,0.41064 v 0.381 q 0,0.88052 0.0296,1.0668 0.1778,0.008 0.2794,0.008 0.6604,0 0.8509,-0.0974 0.0296,0.0888 0.0296,0.1862 0,0.0762 -0.038,0.11 -0.072,0.0634 -0.6477,0.0634 -0.508,0 -0.635,-0.008 -0.1144,-0.004 -0.1566,-0.0592 -0.038,-0.055 -0.038,-0.182 0,-0.0678 0.004,-0.31326 0.004,-0.24554 0.004,-0.3937 z" />
    <path
       id="path839"
       style="font-weight:bold;font-size:2.11667px;line-height:1.05;font-family:'Overlock SC';-inkscape-font-specification:'Overlock SC Bold';text-align:end;text-anchor:end;fill:#1f2123;fill-opacity:1;stroke:none;stroke-width:1.81199;stroke-linecap:round;stroke-miterlimit:4;stroke-dasharray:none;stroke-opacity:1;paint-order:markers stroke fill"
       d="m 125.2428,176.50515 q -0.1016,0 -0.28786,0.016 0.016,0.3556 0.016,0.95252 0.1354,0.008 0.23282,0.008 0.7874,0 0.7874,-0.4826 0,-0.4953 -0.7493,-0.4953 z m 0.2032,2.3749 q 0.27518,0 0.46144,-0.1524 0.1862,-0.1566 0.1862,-0.42334 0,-0.29632 -0.21166,-0.45296 -0.20744,-0.1566 -0.51224,-0.1566 -0.27516,0 -0.40216,0.0212 0,0.33866 -0.055,1.01176 0.0804,0.0636 0.23284,0.11 0.1566,0.0424 0.30056,0.0424 z m -0.85936,-0.008 q 0.0678,-0.4826 0.0678,-1.41394 0,-0.7874 -0.055,-1.15994 0.31326,-0.0508 0.6731,-0.0508 0.46144,0 0.75354,0.1694 0.2921,0.1694 0.2921,0.5588 0,0.42334 -0.3683,0.58844 0.4699,0.199 0.4699,0.7239 0,0.40216 -0.26248,0.62652 -0.25822,0.22438 -0.635,0.22438 -0.61382,0 -0.93556,-0.2667 z" />
    <path
       id="path841"
       style="fill:none;fill-opacity:1;stroke:#8c8c8c;stroke-width:0.552;stroke-linecap:round;stroke-miterlimit:4;stroke-dasharray:none;stroke-opacity:1;paint-order:markers stroke fill"
       d="m 128.39406,174.79099 v 5.80328 h -8.10958 v -2.88942 c 0,-1.27984 1.63814,-2.9139 2.91386,-2.9139 z"
       sodipodi:nodetypes="cccssc" />
    <rect
       inkscape:export-ydpi="96"
       inkscape:export-xdpi="96"
       inkscape:export-filename="D:\Calcatz\Icon Pack\Adventure Narative Inspired by Arrival\GUI\Navigation Buttons\Xbox\Light\png\128px\lb.png"
       y="169.22595"
       x="135.74052"
       height="33.866665"
       width="33.866665"
       id="rect843"
       style="fill:#cccccc;fill-opacity:1;stroke-width:0.577508;stroke-linecap:round;paint-order:fill markers stroke" />
    <path
       d="m 149.0684,187.06943 v -1.75264 q 0,-1.1938 -0.0592,-1.96424 0.144,-0.024 0.3472,-0.024 0.41484,0 0.41484,0.3216 0,0.0508 -0.016,0.3472 -0.016,0.288 -0.032,0.72816 -0.016,0.4318 -0.016,0.82128 v 0.762 q 0,1.76104 0.0592,2.1336 0.3556,0.016 0.5588,0.016 1.3208,0 1.7018,-0.1948 0.0592,0.1776 0.0592,0.3724 0,0.1524 -0.076,0.22 -0.144,0.1268 -1.2954,0.1268 -1.016,0 -1.27,-0.016 -0.2288,-0.008 -0.3132,-0.1184 -0.076,-0.11 -0.076,-0.364 0,-0.1356 0.008,-0.62652 0.008,-0.49108 0.008,-0.7874 z"
       style="font-weight:bold;font-size:2.11667px;line-height:1.05;font-family:'Overlock SC';-inkscape-font-specification:'Overlock SC Bold';text-align:end;text-anchor:end;fill:#1f2123;fill-opacity:1;stroke:none;stroke-width:3.62398;stroke-linecap:round;stroke-miterlimit:4;stroke-dasharray:none;stroke-opacity:1;paint-order:markers stroke fill"
       id="path845" />
    <path
       d="m 153.98488,183.78435 q -0.2032,0 -0.57572,0.032 0.032,0.7112 0.032,1.90504 0.2708,0.016 0.46564,0.016 1.5748,0 1.5748,-0.9652 0,-0.9906 -1.4986,-0.9906 z m 0.4064,4.7498 q 0.55036,0 0.92288,-0.3048 0.3724,-0.3132 0.3724,-0.84668 0,-0.59264 -0.42332,-0.90592 -0.41488,-0.3132 -1.02448,-0.3132 -0.55032,0 -0.80432,0.0424 0,0.67732 -0.11,2.02352 0.1608,0.1272 0.46568,0.22 0.3132,0.0848 0.60112,0.0848 z m -1.71872,-0.016 q 0.1356,-0.9652 0.1356,-2.82788 0,-1.5748 -0.11,-2.31988 0.62652,-0.1016 1.3462,-0.1016 0.92288,0 1.50708,0.3388 0.5842,0.3388 0.5842,1.1176 0,0.84668 -0.7366,1.17688 0.9398,0.398 0.9398,1.4478 0,0.80432 -0.52496,1.25304 -0.51644,0.44876 -1.27,0.44876 -1.22764,0 -1.87112,-0.5334 z"
       style="font-weight:bold;font-size:2.11667px;line-height:1.05;font-family:'Overlock SC';-inkscape-font-specification:'Overlock SC Bold';text-align:end;text-anchor:end;fill:#1f2123;fill-opacity:1;stroke:none;stroke-width:3.62398;stroke-linecap:round;stroke-miterlimit:4;stroke-dasharray:none;stroke-opacity:1;paint-order:markers stroke fill"
       id="path847" />
    <path
       sodipodi:nodetypes="cccssc"
       d="m 160.2874,180.35603 v 11.60656 h -16.21916 v -5.77884 c 0,-2.55968 3.27628,-5.8278 5.82772,-5.8278 z"
       style="fill:none;fill-opacity:1;stroke:#8c8c8c;stroke-width:1.104;stroke-linecap:round;stroke-miterlimit:4;stroke-dasharray:none;stroke-opacity:1;paint-order:markers stroke fill"
       id="path849" />
    <rect
       inkscape:export-ydpi="96"
       inkscape:export-xdpi="96"
       inkscape:export-filename="D:\Calcatz\Icon Pack\Adventure Narative Inspired by Arrival\GUI\Navigation Buttons\Xbox\Light\png\256px\lb.png"
       style="fill:#cccccc;fill-opacity:1;stroke-width:1.15502;stroke-linecap:round;paint-order:fill markers stroke"
       id="rect851"
       width="67.73333"
       height="67.73333"
       x="174.01541"
       y="169.22595" />
    <path
       id="path853"
       style="font-weight:bold;font-size:2.11667px;line-height:1.05;font-family:'Overlock SC';-inkscape-font-specification:'Overlock SC Bold';text-align:end;text-anchor:end;fill:#1f2123;fill-opacity:1;stroke:none;stroke-width:7.24796;stroke-linecap:round;stroke-miterlimit:4;stroke-dasharray:none;stroke-opacity:1;paint-order:markers stroke fill"
       d="m 200.67117,204.91291 v -3.50528 q 0,-2.3876 -0.1184,-3.92848 0.288,-0.048 0.6944,-0.048 0.82968,0 0.82968,0.6432 0,0.1016 -0.032,0.6944 -0.032,0.576 -0.064,1.45632 -0.032,0.8636 -0.032,1.64256 v 1.524 q 0,3.52208 0.1184,4.2672 0.7112,0.032 1.1176,0.032 2.6416,0 3.4036,-0.3896 0.1184,0.3552 0.1184,0.7448 0,0.3048 -0.152,0.44 -0.288,0.2536 -2.5908,0.2536 -2.032,0 -2.54,-0.032 -0.4576,-0.016 -0.6264,-0.2368 -0.152,-0.22 -0.152,-0.728 0,-0.2712 0.016,-1.25304 0.016,-0.98216 0.016,-1.5748 z" />
    <path
       id="path855"
       style="font-weight:bold;font-size:2.11667px;line-height:1.05;font-family:'Overlock SC';-inkscape-font-specification:'Overlock SC Bold';text-align:end;text-anchor:end;fill:#1f2123;fill-opacity:1;stroke:none;stroke-width:7.24796;stroke-linecap:round;stroke-miterlimit:4;stroke-dasharray:none;stroke-opacity:1;paint-order:markers stroke fill"
       d="m 210.50413,198.34275 q -0.4064,0 -1.15144,0.064 0.064,1.4224 0.064,3.81008 0.5416,0.032 0.93128,0.032 3.1496,0 3.1496,-1.9304 0,-1.9812 -2.9972,-1.9812 z m 0.8128,9.4996 q 1.10072,0 1.84576,-0.6096 0.7448,-0.6264 0.7448,-1.69336 0,-1.18528 -0.84664,-1.81184 -0.82976,-0.6264 -2.04896,-0.6264 -1.10064,0 -1.60864,0.0848 0,1.35464 -0.22,4.04704 0.3216,0.2544 0.93136,0.44 0.6264,0.1696 1.20224,0.1696 z m -3.43744,-0.032 q 0.2712,-1.9304 0.2712,-5.65576 0,-3.1496 -0.22,-4.63976 1.25304,-0.2032 2.6924,-0.2032 1.84576,0 3.01416,0.6776 1.1684,0.6776 1.1684,2.2352 0,1.69336 -1.4732,2.35376 1.8796,0.796 1.8796,2.8956 0,1.60864 -1.04992,2.50608 -1.03288,0.89752 -2.54,0.89752 -2.45528,0 -3.74224,-1.0668 z" />
    <path
       id="path857"
       style="fill:none;fill-opacity:1;stroke:#8c8c8c;stroke-width:2.208;stroke-linecap:round;stroke-miterlimit:4;stroke-dasharray:none;stroke-opacity:1;paint-order:markers stroke fill"
       d="m 223.10917,191.48611 v 23.21312 h -32.43832 v -11.55768 c 0,-5.11936 6.55256,-11.6556 11.65544,-11.6556 z"
       sodipodi:nodetypes="cccssc" />
  </g>
</svg>
