<?xml version="1.0" encoding="UTF-8" standalone="no"?>
<svg
   xmlns:dc="http://purl.org/dc/elements/1.1/"
   xmlns:cc="http://creativecommons.org/ns#"
   xmlns:rdf="http://www.w3.org/1999/02/22-rdf-syntax-ns#"
   xmlns:svg="http://www.w3.org/2000/svg"
   xmlns="http://www.w3.org/2000/svg"
   xmlns:sodipodi="http://sodipodi.sourceforge.net/DTD/sodipodi-0.dtd"
   xmlns:inkscape="http://www.inkscape.org/namespaces/inkscape"
   inkscape:export-ydpi="96"
   inkscape:export-xdpi="96"
   inkscape:export-filename="D:\Calcatz\Icon Pack\Adventure Narative Inspired by Arrival\GUI\Navigation Buttons\Xbox\Light\png\lstick_updown.png"
   sodipodi:docname="lstick_updown.svg"
   inkscape:version="1.0 (4035a4fb49, 2020-05-01)"
   id="svg6114"
   version="1.1"
   viewBox="0 0 8.4666662 8.4666662"
   height="31.999998"
   width="31.999998">
  <defs
     id="defs6108" />
  <sodipodi:namedview
     inkscape:window-maximized="1"
     inkscape:window-y="-8"
     inkscape:window-x="-8"
     inkscape:window-height="705"
     inkscape:window-width="1366"
     fit-margin-bottom="0"
     fit-margin-right="0"
     fit-margin-left="0"
     fit-margin-top="0"
     showgrid="false"
     inkscape:document-rotation="0"
     inkscape:current-layer="layer1"
     inkscape:document-units="mm"
     inkscape:cy="74.714862"
     inkscape:cx="283.7133"
     inkscape:zoom="1.2339194"
     inkscape:pageshadow="2"
     inkscape:pageopacity="0.0"
     borderopacity="1.0"
     bordercolor="#666666"
     pagecolor="#ffffff"
     id="base"
     units="px" />
  <metadata
     id="metadata6111">
    <rdf:RDF>
      <cc:Work
         rdf:about="">
        <dc:format>image/svg+xml</dc:format>
        <dc:type
           rdf:resource="http://purl.org/dc/dcmitype/StillImage" />
        <dc:title />
      </cc:Work>
    </rdf:RDF>
  </metadata>
  <g
     transform="translate(-47.804447,-92.746178)"
     id="layer1"
     inkscape:groupmode="layer"
     inkscape:label="Layer 1">
    <rect
       y="92.746178"
       x="47.804447"
       height="8.4666662"
       width="8.4666662"
       id="rect835"
       style="fill:#cccccc;fill-opacity:1;stroke-width:0.386337;stroke-linecap:round;paint-order:fill markers stroke" />
    <path
       d="m 52.688343,98.569242 h -0.650544 -0.650544 l 0.325272,0.553598 0.325272,0.553592 0.325272,-0.553592 z"
       inkscape:transform-center-y="0.18452527"
       inkscape:transform-center-x="9.9297713e-06"
       style="fill:#1f2123;fill-opacity:1;stroke:none;stroke-width:0.176;stroke-linecap:round;stroke-miterlimit:4;stroke-dasharray:none;stroke-opacity:1;paint-order:markers stroke fill"
       id="path4852" />
    <path
       d="m 52.688343,95.440018 h -0.650544 -0.650544 l 0.325272,-0.553598 0.325272,-0.553592 0.325272,0.553592 z"
       inkscape:transform-center-y="-0.18452761"
       inkscape:transform-center-x="9.9297713e-06"
       style="fill:#1f2123;fill-opacity:1;stroke:none;stroke-width:0.176;stroke-linecap:round;stroke-miterlimit:4;stroke-dasharray:none;stroke-opacity:1;paint-order:markers stroke fill"
       id="path4864" />
    <g
       style="font-weight:bold;font-size:2.64583px;line-height:1.05;font-family:'Overlock SC';-inkscape-font-specification:'Overlock SC Bold';text-align:end;text-anchor:end;fill:#1f2123;fill-opacity:1;stroke:#ffffff;stroke-width:0.905997;stroke-linecap:round;stroke-miterlimit:4;stroke-dasharray:none;stroke-opacity:1;paint-order:markers stroke fill"
       id="text4850"
       aria-label="L">
      <path
         id="path6710"
         style="font-size:2.64583px;fill:#1f2123;fill-opacity:1;stroke:none;stroke-width:0.905997"
         d="M 51.576079,97.265267 V 96.71758 q 0,-0.373062 -0.01852,-0.613832 0.04498,-0.0079 0.108479,-0.0079 0.129646,0 0.129646,0.100542 0,0.01587 -0.0053,0.108479 -0.0053,0.08996 -0.01058,0.227541 -0.0053,0.134938 -0.0053,0.256646 v 0.238124 q 0,0.550333 0.01852,0.66675 0.111125,0.0053 0.174625,0.0053 0.412749,0 0.531812,-0.06085 0.01852,0.05556 0.01852,0.116417 0,0.04762 -0.02381,0.06879 -0.04498,0.03969 -0.404812,0.03969 -0.3175,0 -0.396874,-0.0053 -0.07144,-0.0026 -0.0979,-0.03704 -0.02381,-0.0344 -0.02381,-0.11377 0,-0.04233 0.0026,-0.195792 0.0026,-0.153458 0.0026,-0.246062 z" />
    </g>
    <path
       sodipodi:nodetypes="csccsc"
       d="m 50.958149,98.849536 c -0.84638,-0.48866 -1.25903,-1.48488 -1.00608,-2.4289 0.15219,-0.56797 0.52248,-1.03184 1.006189,-1.31127 m 2.159661,3.31e-4 c 0.48344,0.27946 0.8535,0.74319 1.00563,1.31094 0.25295,0.94402 -0.1597,1.94024 -1.00608,2.4289"
       style="fill:none;fill-opacity:1;stroke:#8c8c8c;stroke-width:0.276;stroke-linecap:round;stroke-miterlimit:4;stroke-dasharray:none;stroke-dashoffset:0;stroke-opacity:1;paint-order:fill markers stroke"
       id="path5436" />
    <rect
       inkscape:export-ydpi="96"
       inkscape:export-xdpi="96"
       inkscape:export-filename="D:\Calcatz\Icon Pack\Adventure Narative Inspired by Arrival\GUI\Navigation Buttons\Xbox\Light\png\64px\lstick_updown.png"
       style="fill:#cccccc;fill-opacity:1;stroke-width:0.772674;stroke-linecap:round;paint-order:fill markers stroke"
       id="rect837"
       width="16.933332"
       height="16.933332"
       x="58.525703"
       y="92.746178" />
    <path
       id="path839"
       style="fill:#1f2123;fill-opacity:1;stroke:none;stroke-width:0.352;stroke-linecap:round;stroke-miterlimit:4;stroke-dasharray:none;stroke-opacity:1;paint-order:markers stroke fill"
       inkscape:transform-center-x="1.9429367e-05"
       inkscape:transform-center-y="0.36905421"
       d="m 68.293497,104.39231 h -1.301088 -1.301088 l 0.650544,1.10719 0.650544,1.10719 0.650544,-1.10719 z" />
    <path
       id="path841"
       style="fill:#1f2123;fill-opacity:1;stroke:none;stroke-width:0.352;stroke-linecap:round;stroke-miterlimit:4;stroke-dasharray:none;stroke-opacity:1;paint-order:markers stroke fill"
       inkscape:transform-center-x="1.9429367e-05"
       inkscape:transform-center-y="-0.36905555"
       d="m 68.293497,98.133858 h -1.301088 -1.301088 l 0.650544,-1.107196 0.650544,-1.107184 0.650544,1.107184 z" />
    <g
       transform="matrix(2,0,0,2,-37.083189,-92.746178)"
       aria-label="L"
       id="g845"
       style="font-weight:bold;font-size:2.64583px;line-height:1.05;font-family:'Overlock SC';-inkscape-font-specification:'Overlock SC Bold';text-align:end;text-anchor:end;fill:#1f2123;fill-opacity:1;stroke:#ffffff;stroke-width:0.905997;stroke-linecap:round;stroke-miterlimit:4;stroke-dasharray:none;stroke-opacity:1;paint-order:markers stroke fill">
      <path
         d="M 51.576079,97.265267 V 96.71758 q 0,-0.373062 -0.01852,-0.613832 0.04498,-0.0079 0.108479,-0.0079 0.129646,0 0.129646,0.100542 0,0.01587 -0.0053,0.108479 -0.0053,0.08996 -0.01058,0.227541 -0.0053,0.134938 -0.0053,0.256646 v 0.238124 q 0,0.550333 0.01852,0.66675 0.111125,0.0053 0.174625,0.0053 0.412749,0 0.531812,-0.06085 0.01852,0.05556 0.01852,0.116417 0,0.04762 -0.02381,0.06879 -0.04498,0.03969 -0.404812,0.03969 -0.3175,0 -0.396874,-0.0053 -0.07144,-0.0026 -0.0979,-0.03704 -0.02381,-0.0344 -0.02381,-0.11377 0,-0.04233 0.0026,-0.195792 0.0026,-0.153458 0.0026,-0.246062 z"
         style="font-size:2.64583px;fill:#1f2123;fill-opacity:1;stroke:none;stroke-width:0.905997"
         id="path843" />
    </g>
    <path
       id="path847"
       style="fill:none;fill-opacity:1;stroke:#8c8c8c;stroke-width:0.552;stroke-linecap:round;stroke-miterlimit:4;stroke-dasharray:none;stroke-dashoffset:0;stroke-opacity:1;paint-order:fill markers stroke"
       d="m 64.833109,104.95289 c -1.69276,-0.97732 -2.51806,-2.96976 -2.01216,-4.8578 0.30438,-1.135936 1.04496,-2.063676 2.012378,-2.622536 m 4.319322,6.62e-4 c 0.96688,0.55892 1.707,1.48638 2.01126,2.621884 0.5059,1.88804 -0.3194,3.88048 -2.01216,4.8578"
       sodipodi:nodetypes="csccsc" />
    <rect
       inkscape:export-ydpi="96"
       inkscape:export-xdpi="96"
       inkscape:export-filename="D:\Calcatz\Icon Pack\Adventure Narative Inspired by Arrival\GUI\Navigation Buttons\Xbox\Light\png\128px\lstick_updown.png"
       y="92.746178"
       x="77.823967"
       height="33.866665"
       width="33.866665"
       id="rect849"
       style="fill:#cccccc;fill-opacity:1;stroke-width:1.54535;stroke-linecap:round;paint-order:fill markers stroke" />
    <path
       d="m 97.359553,116.03844 h -2.602176 -2.602176 l 1.301088,2.21438 1.301088,2.21438 1.301088,-2.21438 z"
       inkscape:transform-center-y="0.73810609"
       inkscape:transform-center-x="3.8878754e-05"
       style="fill:#1f2123;fill-opacity:1;stroke:none;stroke-width:0.704;stroke-linecap:round;stroke-miterlimit:4;stroke-dasharray:none;stroke-opacity:1;paint-order:markers stroke fill"
       id="path851" />
    <path
       d="m 97.359553,103.52154 h -2.602176 -2.602176 l 1.301088,-2.21439 1.301088,-2.214372 1.301088,2.214372 z"
       inkscape:transform-center-y="-0.73811043"
       inkscape:transform-center-x="3.8878754e-05"
       style="fill:#1f2123;fill-opacity:1;stroke:none;stroke-width:0.704;stroke-linecap:round;stroke-miterlimit:4;stroke-dasharray:none;stroke-opacity:1;paint-order:markers stroke fill"
       id="path853" />
    <g
       style="font-weight:bold;font-size:2.64583px;line-height:1.05;font-family:'Overlock SC';-inkscape-font-specification:'Overlock SC Bold';text-align:end;text-anchor:end;fill:#1f2123;fill-opacity:1;stroke:#ffffff;stroke-width:0.905997;stroke-linecap:round;stroke-miterlimit:4;stroke-dasharray:none;stroke-opacity:1;paint-order:markers stroke fill"
       id="g857"
       aria-label="L"
       transform="matrix(4,0,0,4,-113.39382,-278.23853)">
      <path
         id="path855"
         style="font-size:2.64583px;fill:#1f2123;fill-opacity:1;stroke:none;stroke-width:0.905997"
         d="M 51.576079,97.265267 V 96.71758 q 0,-0.373062 -0.01852,-0.613832 0.04498,-0.0079 0.108479,-0.0079 0.129646,0 0.129646,0.100542 0,0.01587 -0.0053,0.108479 -0.0053,0.08996 -0.01058,0.227541 -0.0053,0.134938 -0.0053,0.256646 v 0.238124 q 0,0.550333 0.01852,0.66675 0.111125,0.0053 0.174625,0.0053 0.412749,0 0.531812,-0.06085 0.01852,0.05556 0.01852,0.116417 0,0.04762 -0.02381,0.06879 -0.04498,0.03969 -0.404812,0.03969 -0.3175,0 -0.396874,-0.0053 -0.07144,-0.0026 -0.0979,-0.03704 -0.02381,-0.0344 -0.02381,-0.11377 0,-0.04233 0.0026,-0.195792 0.0026,-0.153458 0.0026,-0.246062 z" />
    </g>
    <path
       sodipodi:nodetypes="csccsc"
       d="m 90.438777,117.1596 c -3.38552,-1.95464 -5.03612,-5.93952 -4.02432,-9.7156 0.60876,-2.27187 2.08992,-4.12735 4.024756,-5.24507 m 8.638644,10e-4 c 1.933763,1.11784 3.414003,2.97276 4.022523,5.24377 1.0118,3.77608 -0.6388,7.76096 -4.024323,9.7156"
       style="fill:none;fill-opacity:1;stroke:#8c8c8c;stroke-width:1.104;stroke-linecap:round;stroke-miterlimit:4;stroke-dasharray:none;stroke-dashoffset:0;stroke-opacity:1;paint-order:fill markers stroke"
       id="path859" />
    <rect
       inkscape:export-ydpi="96"
       inkscape:export-xdpi="96"
       inkscape:export-filename="D:\Calcatz\Icon Pack\Adventure Narative Inspired by Arrival\GUI\Navigation Buttons\Xbox\Light\png\256px\lstick_updown.png"
       style="fill:#cccccc;fill-opacity:1;stroke-width:3.0907;stroke-linecap:round;paint-order:fill markers stroke"
       id="rect861"
       width="67.73333"
       height="67.73333"
       x="115.97913"
       y="92.746178" />
    <path
       id="path863"
       style="fill:#1f2123;fill-opacity:1;stroke:none;stroke-width:1.408;stroke-linecap:round;stroke-miterlimit:4;stroke-dasharray:none;stroke-opacity:1;paint-order:markers stroke fill"
       inkscape:transform-center-x="7.4151551e-05"
       inkscape:transform-center-y="1.4762099"
       d="m 155.05029,139.3307 h -5.20434 -5.20436 l 2.60218,4.42876 2.60218,4.42876 2.60218,-4.42876 z" />
    <path
       id="path865"
       style="fill:#1f2123;fill-opacity:1;stroke:none;stroke-width:1.408;stroke-linecap:round;stroke-miterlimit:4;stroke-dasharray:none;stroke-opacity:1;paint-order:markers stroke fill"
       inkscape:transform-center-x="7.4151551e-05"
       inkscape:transform-center-y="-1.4762212"
       d="m 155.05029,114.2969 h -5.20434 -5.20436 l 2.60218,-4.42878 2.60218,-4.42874 2.60218,4.42874 z" />
    <g
       transform="matrix(8,0,0,8,-266.45645,-649.22324)"
       aria-label="L"
       id="g869"
       style="font-weight:bold;font-size:2.64583px;line-height:1.05;font-family:'Overlock SC';-inkscape-font-specification:'Overlock SC Bold';text-align:end;text-anchor:end;fill:#1f2123;fill-opacity:1;stroke:#ffffff;stroke-width:0.905997;stroke-linecap:round;stroke-miterlimit:4;stroke-dasharray:none;stroke-opacity:1;paint-order:markers stroke fill">
      <path
         d="M 51.576079,97.265267 V 96.71758 q 0,-0.373062 -0.01852,-0.613832 0.04498,-0.0079 0.108479,-0.0079 0.129646,0 0.129646,0.100542 0,0.01587 -0.0053,0.108479 -0.0053,0.08996 -0.01058,0.227541 -0.0053,0.134938 -0.0053,0.256646 v 0.238124 q 0,0.550333 0.01852,0.66675 0.111125,0.0053 0.174625,0.0053 0.412749,0 0.531812,-0.06085 0.01852,0.05556 0.01852,0.116417 0,0.04762 -0.02381,0.06879 -0.04498,0.03969 -0.404812,0.03969 -0.3175,0 -0.396874,-0.0053 -0.07144,-0.0026 -0.0979,-0.03704 -0.02381,-0.0344 -0.02381,-0.11377 0,-0.04233 0.0026,-0.195792 0.0026,-0.153458 0.0026,-0.246062 z"
         style="font-size:2.64583px;fill:#1f2123;fill-opacity:1;stroke:none;stroke-width:0.905997"
         id="path867" />
    </g>
    <path
       id="path871"
       style="fill:none;fill-opacity:1;stroke:#8c8c8c;stroke-width:2.208;stroke-linecap:round;stroke-miterlimit:4;stroke-dasharray:none;stroke-dashoffset:0;stroke-opacity:1;paint-order:fill markers stroke"
       d="m 141.20875,141.57302 c -6.77104,-3.90928 -10.07224,-11.87904 -8.04864,-19.4312 1.21752,-4.54374 4.17984,-8.2547 8.0495,-10.49014 m 17.2773,0.002 c 3.86752,2.23568 6.828,5.94552 8.04504,10.48754 2.0236,7.55216 -1.2776,15.52192 -8.04864,19.4312"
       sodipodi:nodetypes="csccsc" />
  </g>
</svg>
