<?xml version="1.0" encoding="UTF-8" standalone="no"?>
<svg
   xmlns:dc="http://purl.org/dc/elements/1.1/"
   xmlns:cc="http://creativecommons.org/ns#"
   xmlns:rdf="http://www.w3.org/1999/02/22-rdf-syntax-ns#"
   xmlns:svg="http://www.w3.org/2000/svg"
   xmlns="http://www.w3.org/2000/svg"
   xmlns:sodipodi="http://sodipodi.sourceforge.net/DTD/sodipodi-0.dtd"
   xmlns:inkscape="http://www.inkscape.org/namespaces/inkscape"
   inkscape:export-ydpi="96"
   inkscape:export-xdpi="96"
   inkscape:export-filename="D:\Calcatz\Icon Pack\Adventure Narative Inspired by Arrival\GUI\Navigation Buttons\Xbox\Light\png\lstick_leftright.png"
   sodipodi:docname="lstick_leftright.svg"
   inkscape:version="1.0 (4035a4fb49, 2020-05-01)"
   id="svg6721"
   version="1.1"
   viewBox="0 0 8.4666662 8.4666662"
   height="31.999998"
   width="31.999998">
  <defs
     id="defs6715" />
  <sodipodi:namedview
     inkscape:window-maximized="1"
     inkscape:window-y="-8"
     inkscape:window-x="-8"
     inkscape:window-height="705"
     inkscape:window-width="1366"
     fit-margin-bottom="0"
     fit-margin-right="0"
     fit-margin-left="0"
     fit-margin-top="0"
     showgrid="false"
     inkscape:document-rotation="0"
     inkscape:current-layer="layer1"
     inkscape:document-units="mm"
     inkscape:cy="123.7865"
     inkscape:cx="206.12174"
     inkscape:zoom="1.2339194"
     inkscape:pageshadow="2"
     inkscape:pageopacity="0.0"
     borderopacity="1.0"
     bordercolor="#666666"
     pagecolor="#ffffff"
     id="base"
     units="px" />
  <metadata
     id="metadata6718">
    <rdf:RDF>
      <cc:Work
         rdf:about="">
        <dc:format>image/svg+xml</dc:format>
        <dc:type
           rdf:resource="http://purl.org/dc/dcmitype/StillImage" />
        <dc:title />
      </cc:Work>
    </rdf:RDF>
  </metadata>
  <g
     transform="translate(-80.919403,-140.05325)"
     id="layer1"
     inkscape:groupmode="layer"
     inkscape:label="Layer 1">
    <rect
       y="140.05325"
       x="80.919403"
       height="8.4666662"
       width="8.4666662"
       id="rect835"
       style="fill:#cccccc;fill-opacity:1;stroke-width:0.586657;stroke-linecap:round;paint-order:fill markers stroke" />
    <path
       d="m 83.544108,144.93712 v -0.65054 -0.65054 l -0.553598,0.32527 -0.553592,0.32527 0.553592,0.32527 z"
       inkscape:transform-center-y="-9.047805e-06"
       inkscape:transform-center-x="0.18452615"
       style="fill:#1f2123;fill-opacity:1;stroke:none;stroke-width:0.176;stroke-linecap:round;stroke-miterlimit:4;stroke-dasharray:none;stroke-opacity:1;paint-order:markers stroke fill"
       id="path4866" />
    <path
       d="m 86.673362,144.93712 v -0.65054 -0.65054 l 0.553598,0.32527 0.553592,0.32527 -0.553592,0.32527 z"
       inkscape:transform-center-y="-9.047805e-06"
       inkscape:transform-center-x="-0.18452673"
       style="fill:#1f2123;fill-opacity:1;stroke:none;stroke-width:0.176;stroke-linecap:round;stroke-miterlimit:4;stroke-dasharray:none;stroke-opacity:1;paint-order:markers stroke fill"
       id="path4868" />
    <g
       style="font-weight:bold;font-size:2.64583px;line-height:1.05;font-family:'Overlock SC';-inkscape-font-specification:'Overlock SC Bold';text-align:end;text-anchor:end;fill:#1f2123;fill-opacity:1;stroke:#ffffff;stroke-width:0.905997;stroke-linecap:round;stroke-miterlimit:4;stroke-dasharray:none;stroke-opacity:1;paint-order:markers stroke fill"
       id="text4856"
       aria-label="L">
      <path
         id="path7317"
         style="font-size:2.64583px;fill:#1f2123;fill-opacity:1;stroke:none;stroke-width:0.905997"
         d="m 84.691031,144.57234 v -0.54768 q 0,-0.37307 -0.01852,-0.61384 0.04498,-0.008 0.108479,-0.008 0.129646,0 0.129646,0.10054 0,0.0159 -0.0053,0.10848 -0.0053,0.09 -0.01058,0.22754 -0.0053,0.13494 -0.0053,0.25664 v 0.23813 q 0,0.55033 0.01852,0.66675 0.111125,0.005 0.174625,0.005 0.412749,0 0.531812,-0.0609 0.01852,0.0556 0.01852,0.11642 0,0.0476 -0.02381,0.0688 -0.04498,0.0397 -0.404812,0.0397 -0.317499,0 -0.396874,-0.005 -0.07144,-0.003 -0.0979,-0.037 -0.02381,-0.0344 -0.02381,-0.11377 0,-0.0423 0.0026,-0.1958 0.0026,-0.15345 0.0026,-0.24606 z" />
    </g>
    <path
       id="path5438"
       style="fill:none;fill-opacity:1;stroke:#8c8c8c;stroke-width:0.276;stroke-linecap:round;stroke-miterlimit:4;stroke-dasharray:none;stroke-dashoffset:0;stroke-opacity:1;paint-order:fill markers stroke"
       d="m 83.282664,143.20693 c 0.48866,-0.84638 1.48488,-1.25903 2.4289,-1.00608 0.56797,0.15219 1.03184,0.52248 1.31127,1.00619 m -3.17e-4,2.15966 c -0.279461,0.48344 -0.74319,0.8535 -1.310941,1.00563 -0.94402,0.25295 -1.94024,-0.1597 -2.4289,-1.00608"
       sodipodi:nodetypes="csccsc" />
    <rect
       inkscape:export-ydpi="96"
       inkscape:export-xdpi="96"
       inkscape:export-filename="D:\Calcatz\Icon Pack\Adventure Narative Inspired by Arrival\GUI\Navigation Buttons\Xbox\Light\png\64px\lstick_leftright.png"
       style="fill:#cccccc;fill-opacity:1;stroke-width:1.17331;stroke-linecap:round;paint-order:fill markers stroke"
       id="rect837"
       width="16.933332"
       height="16.933332"
       x="92.015907"
       y="140.05325" />
    <path
       id="path839"
       style="fill:#1f2123;fill-opacity:1;stroke:none;stroke-width:0.352;stroke-linecap:round;stroke-miterlimit:4;stroke-dasharray:none;stroke-opacity:1;paint-order:markers stroke fill"
       inkscape:transform-center-x="0.36905201"
       inkscape:transform-center-y="-1.4921782e-05"
       d="m 97.265311,149.82099 v -1.30108 -1.30108 l -1.107196,0.65054 -1.107184,0.65054 1.107184,0.65054 z" />
    <path
       id="path841"
       style="fill:#1f2123;fill-opacity:1;stroke:none;stroke-width:0.352;stroke-linecap:round;stroke-miterlimit:4;stroke-dasharray:none;stroke-opacity:1;paint-order:markers stroke fill"
       inkscape:transform-center-x="-0.36905475"
       inkscape:transform-center-y="-1.4921782e-05"
       d="m 103.52382,149.82099 v -1.30108 -1.30108 l 1.10719,0.65054 1.10719,0.65054 -1.10719,0.65054 z" />
    <g
       transform="matrix(2,0,0,2,-69.822905,-140.05325)"
       aria-label="L"
       id="g845"
       style="font-weight:bold;font-size:2.64583px;line-height:1.05;font-family:'Overlock SC';-inkscape-font-specification:'Overlock SC Bold';text-align:end;text-anchor:end;fill:#1f2123;fill-opacity:1;stroke:#ffffff;stroke-width:0.905997;stroke-linecap:round;stroke-miterlimit:4;stroke-dasharray:none;stroke-opacity:1;paint-order:markers stroke fill">
      <path
         d="m 84.691031,144.57234 v -0.54768 q 0,-0.37307 -0.01852,-0.61384 0.04498,-0.008 0.108479,-0.008 0.129646,0 0.129646,0.10054 0,0.0159 -0.0053,0.10848 -0.0053,0.09 -0.01058,0.22754 -0.0053,0.13494 -0.0053,0.25664 v 0.23813 q 0,0.55033 0.01852,0.66675 0.111125,0.005 0.174625,0.005 0.412749,0 0.531812,-0.0609 0.01852,0.0556 0.01852,0.11642 0,0.0476 -0.02381,0.0688 -0.04498,0.0397 -0.404812,0.0397 -0.317499,0 -0.396874,-0.005 -0.07144,-0.003 -0.0979,-0.037 -0.02381,-0.0344 -0.02381,-0.11377 0,-0.0423 0.0026,-0.1958 0.0026,-0.15345 0.0026,-0.24606 z"
         style="font-size:2.64583px;fill:#1f2123;fill-opacity:1;stroke:none;stroke-width:0.905997"
         id="path843" />
    </g>
    <path
       sodipodi:nodetypes="csccsc"
       d="m 96.742423,146.36061 c 0.97732,-1.69276 2.96976,-2.51806 4.857797,-2.01216 1.13594,0.30438 2.06368,1.04496 2.62254,2.01238 m -6.3e-4,4.31932 c -0.55892,0.96688 -1.48638,1.707 -2.62188,2.01126 -1.888043,0.5059 -3.880483,-0.3194 -4.857803,-2.01216"
       style="fill:none;fill-opacity:1;stroke:#8c8c8c;stroke-width:0.552;stroke-linecap:round;stroke-miterlimit:4;stroke-dasharray:none;stroke-dashoffset:0;stroke-opacity:1;paint-order:fill markers stroke"
       id="path847" />
    <rect
       inkscape:export-ydpi="96"
       inkscape:export-xdpi="96"
       inkscape:export-filename="D:\Calcatz\Icon Pack\Adventure Narative Inspired by Arrival\GUI\Navigation Buttons\Xbox\Light\png\128px\lstick_leftright.png"
       y="140.05325"
       x="113.13053"
       height="33.866665"
       width="33.866665"
       id="rect849"
       style="fill:#cccccc;fill-opacity:1;stroke-width:2.34662;stroke-linecap:round;paint-order:fill markers stroke" />
    <path
       d="m 123.62935,159.58873 v -2.60216 -2.60216 l -2.2144,1.30108 -2.21436,1.30108 2.21436,1.30108 z"
       inkscape:transform-center-y="-2.6669736e-05"
       inkscape:transform-center-x="0.73810271"
       style="fill:#1f2123;fill-opacity:1;stroke:none;stroke-width:0.704;stroke-linecap:round;stroke-miterlimit:4;stroke-dasharray:none;stroke-opacity:1;paint-order:markers stroke fill"
       id="path851" />
    <path
       d="m 136.14635,159.58873 v -2.60216 -2.60216 l 2.21438,1.30108 2.21438,1.30108 -2.21438,1.30108 z"
       inkscape:transform-center-y="-2.6669736e-05"
       inkscape:transform-center-x="-0.73811081"
       style="fill:#1f2123;fill-opacity:1;stroke:none;stroke-width:0.704;stroke-linecap:round;stroke-miterlimit:4;stroke-dasharray:none;stroke-opacity:1;paint-order:markers stroke fill"
       id="path853" />
    <g
       style="font-weight:bold;font-size:2.64583px;line-height:1.05;font-family:'Overlock SC';-inkscape-font-specification:'Overlock SC Bold';text-align:end;text-anchor:end;fill:#1f2123;fill-opacity:1;stroke:#ffffff;stroke-width:0.905997;stroke-linecap:round;stroke-miterlimit:4;stroke-dasharray:none;stroke-opacity:1;paint-order:markers stroke fill"
       id="g857"
       aria-label="L"
       transform="matrix(4,0,0,4,-210.54709,-420.15975)">
      <path
         id="path855"
         style="font-size:2.64583px;fill:#1f2123;fill-opacity:1;stroke:none;stroke-width:0.905997"
         d="m 84.691031,144.57234 v -0.54768 q 0,-0.37307 -0.01852,-0.61384 0.04498,-0.008 0.108479,-0.008 0.129646,0 0.129646,0.10054 0,0.0159 -0.0053,0.10848 -0.0053,0.09 -0.01058,0.22754 -0.0053,0.13494 -0.0053,0.25664 v 0.23813 q 0,0.55033 0.01852,0.66675 0.111125,0.005 0.174625,0.005 0.412749,0 0.531812,-0.0609 0.01852,0.0556 0.01852,0.11642 0,0.0476 -0.02381,0.0688 -0.04498,0.0397 -0.404812,0.0397 -0.317499,0 -0.396874,-0.005 -0.07144,-0.003 -0.0979,-0.037 -0.02381,-0.0344 -0.02381,-0.11377 0,-0.0423 0.0026,-0.1958 0.0026,-0.15345 0.0026,-0.24606 z" />
    </g>
    <path
       id="path859"
       style="fill:none;fill-opacity:1;stroke:#8c8c8c;stroke-width:1.104;stroke-linecap:round;stroke-miterlimit:4;stroke-dasharray:none;stroke-dashoffset:0;stroke-opacity:1;paint-order:fill markers stroke"
       d="m 122.58357,152.66797 c 1.95464,-3.38552 5.93952,-5.03612 9.71558,-4.02432 2.27188,0.60876 4.12736,2.08992 5.24508,4.02476 m -0.001,8.63864 c -1.11784,1.93376 -2.97276,3.414 -5.24376,4.02252 -3.77608,1.0118 -7.76096,-0.6388 -9.7156,-4.02432"
       sodipodi:nodetypes="csccsc" />
    <rect
       inkscape:export-ydpi="96"
       inkscape:export-xdpi="96"
       inkscape:export-filename="D:\Calcatz\Icon Pack\Adventure Narative Inspired by Arrival\GUI\Navigation Buttons\Xbox\Light\png\256px\lstick_leftright.png"
       style="fill:#cccccc;fill-opacity:1;stroke-width:4.69324;stroke-linecap:round;paint-order:fill markers stroke"
       id="rect861"
       width="67.73333"
       height="67.73333"
       x="150.97656"
       y="140.05325" />
    <path
       id="path863"
       style="fill:#1f2123;fill-opacity:1;stroke:none;stroke-width:1.408;stroke-linecap:round;stroke-miterlimit:4;stroke-dasharray:none;stroke-opacity:1;paint-order:markers stroke fill"
       inkscape:transform-center-x="1.4762029"
       inkscape:transform-center-y="-5.0165644e-05"
       d="m 171.97422,179.12421 v -5.20432 -5.20432 l -4.4288,2.60216 -4.42872,2.60216 4.42872,2.60216 z" />
    <path
       id="path865"
       style="fill:#1f2123;fill-opacity:1;stroke:none;stroke-width:1.408;stroke-linecap:round;stroke-miterlimit:4;stroke-dasharray:none;stroke-opacity:1;paint-order:markers stroke fill"
       inkscape:transform-center-x="-1.4762241"
       inkscape:transform-center-y="-5.0165644e-05"
       d="m 197.00822,179.12421 v -5.20432 -5.20432 l 4.42876,2.60216 4.42876,2.60216 -4.42876,2.60216 z" />
    <g
       transform="matrix(8,0,0,8,-496.37866,-980.37275)"
       aria-label="L"
       id="g869"
       style="font-weight:bold;font-size:2.64583px;line-height:1.05;font-family:'Overlock SC';-inkscape-font-specification:'Overlock SC Bold';text-align:end;text-anchor:end;fill:#1f2123;fill-opacity:1;stroke:#ffffff;stroke-width:0.905997;stroke-linecap:round;stroke-miterlimit:4;stroke-dasharray:none;stroke-opacity:1;paint-order:markers stroke fill">
      <path
         d="m 84.691031,144.57234 v -0.54768 q 0,-0.37307 -0.01852,-0.61384 0.04498,-0.008 0.108479,-0.008 0.129646,0 0.129646,0.10054 0,0.0159 -0.0053,0.10848 -0.0053,0.09 -0.01058,0.22754 -0.0053,0.13494 -0.0053,0.25664 v 0.23813 q 0,0.55033 0.01852,0.66675 0.111125,0.005 0.174625,0.005 0.412749,0 0.531812,-0.0609 0.01852,0.0556 0.01852,0.11642 0,0.0476 -0.02381,0.0688 -0.04498,0.0397 -0.404812,0.0397 -0.317499,0 -0.396874,-0.005 -0.07144,-0.003 -0.0979,-0.037 -0.02381,-0.0344 -0.02381,-0.11377 0,-0.0423 0.0026,-0.1958 0.0026,-0.15345 0.0026,-0.24606 z"
         style="font-size:2.64583px;fill:#1f2123;fill-opacity:1;stroke:none;stroke-width:0.905997"
         id="path867" />
    </g>
    <path
       sodipodi:nodetypes="csccsc"
       d="m 169.88266,165.28269 c 3.90928,-6.77104 11.87904,-10.07224 19.43116,-8.04864 4.54376,1.21752 8.25472,4.17984 10.49016,8.04952 m -0.002,17.27728 c -2.23568,3.86752 -5.94552,6.828 -10.48752,8.04504 -7.55216,2.0236 -15.52192,-1.2776 -19.4312,-8.04864"
       style="fill:none;fill-opacity:1;stroke:#8c8c8c;stroke-width:2.208;stroke-linecap:round;stroke-miterlimit:4;stroke-dasharray:none;stroke-dashoffset:0;stroke-opacity:1;paint-order:fill markers stroke"
       id="path871" />
  </g>
</svg>
