<?xml version="1.0" encoding="UTF-8" standalone="no"?>
<svg
   xmlns:dc="http://purl.org/dc/elements/1.1/"
   xmlns:cc="http://creativecommons.org/ns#"
   xmlns:rdf="http://www.w3.org/1999/02/22-rdf-syntax-ns#"
   xmlns:svg="http://www.w3.org/2000/svg"
   xmlns="http://www.w3.org/2000/svg"
   xmlns:sodipodi="http://sodipodi.sourceforge.net/DTD/sodipodi-0.dtd"
   xmlns:inkscape="http://www.inkscape.org/namespaces/inkscape"
   inkscape:export-ydpi="96"
   inkscape:export-xdpi="96"
   inkscape:export-filename="D:\Calcatz\Icon Pack\Adventure Narative Inspired by Arrival\GUI\Navigation Buttons\Xbox\Light\png\lstick_left.png"
   sodipodi:docname="lstick_left.svg"
   inkscape:version="1.0 (4035a4fb49, 2020-05-01)"
   id="svg4291"
   version="1.1"
   viewBox="0 0 8.4666662 8.4666662"
   height="31.999998"
   width="31.999998">
  <defs
     id="defs4285" />
  <sodipodi:namedview
     inkscape:window-maximized="1"
     inkscape:window-y="-8"
     inkscape:window-x="-8"
     inkscape:window-height="705"
     inkscape:window-width="1366"
     fit-margin-bottom="0"
     fit-margin-right="0"
     fit-margin-left="0"
     fit-margin-top="0"
     showgrid="false"
     inkscape:document-rotation="0"
     inkscape:current-layer="layer1"
     inkscape:document-units="mm"
     inkscape:cy="118.17331"
     inkscape:cx="132.16836"
     inkscape:zoom="0.87251276"
     inkscape:pageshadow="2"
     inkscape:pageopacity="0.0"
     borderopacity="1.0"
     bordercolor="#666666"
     pagecolor="#ffffff"
     id="base"
     units="px" />
  <metadata
     id="metadata4288">
    <rdf:RDF>
      <cc:Work
         rdf:about="">
        <dc:format>image/svg+xml</dc:format>
        <dc:type
           rdf:resource="http://purl.org/dc/dcmitype/StillImage" />
        <dc:title />
      </cc:Work>
    </rdf:RDF>
  </metadata>
  <g
     transform="translate(-91.169273,-154.24538)"
     id="layer1"
     inkscape:groupmode="layer"
     inkscape:label="Layer 1">
    <rect
       y="154.24538"
       x="91.169273"
       height="8.4666662"
       width="8.4666662"
       id="rect834"
       style="fill:#cccccc;stroke-width:0.538684;stroke-linecap:round;paint-order:fill markers stroke;fill-opacity:1" />
    <path
       d="m 93.747548,159.12924 v -0.65054 -0.65054 l -0.553598,0.32527 -0.553592,0.32527 0.553592,0.32527 z"
       inkscape:transform-center-y="-8.8886874e-06"
       inkscape:transform-center-x="0.18452804"
       style="fill:#1f2123;fill-opacity:1;stroke:none;stroke-width:0.176;stroke-linecap:round;stroke-miterlimit:4;stroke-dasharray:none;stroke-opacity:1;paint-order:markers stroke fill"
       id="path4830" />
    <path
       d="m 93.532588,157.39915 a 2.1593168,2.1593168 0 0 1 2.428895,-1.00608 2.1593168,2.1593168 0 0 1 1.600445,2.08574 2.1593168,2.1593168 0 0 1 -1.600445,2.08574 2.1593168,2.1593168 0 0 1 -2.428895,-1.00609"
       style="fill:none;fill-opacity:1;stroke:#8c8c8c;stroke-width:0.276;stroke-linecap:round;stroke-miterlimit:4;stroke-dasharray:none;stroke-dashoffset:0;stroke-opacity:1;paint-order:fill markers stroke"
       id="path5432" />
    <g
       style="font-weight:bold;font-size:2.64583px;line-height:1.05;font-family:'Overlock SC';-inkscape-font-specification:'Overlock SC Bold';text-align:end;text-anchor:end;fill:#1f2123;fill-opacity:1;stroke:#ffffff;stroke-width:0.905997;stroke-linecap:round;stroke-miterlimit:4;stroke-dasharray:none;stroke-opacity:1;paint-order:markers stroke fill"
       id="text4828"
       aria-label="L">
      <path
         id="path4884"
         style="font-size:2.64583px;fill:#1f2123;fill-opacity:1;stroke:none;stroke-width:0.905997"
         d="m 94.940901,158.76447 v -0.54769 q 0,-0.37306 -0.01852,-0.61383 0.04498,-0.008 0.108479,-0.008 0.129645,0 0.129645,0.10054 0,0.0159 -0.0053,0.10848 -0.0053,0.09 -0.01058,0.22754 -0.0053,0.13494 -0.0053,0.25665 v 0.23812 q 0,0.55033 0.01852,0.66675 0.111124,0.005 0.174624,0.005 0.41275,0 0.531812,-0.0608 0.01852,0.0556 0.01852,0.11641 0,0.0476 -0.02381,0.0688 -0.04498,0.0397 -0.404812,0.0397 -0.317499,0 -0.396874,-0.005 -0.07144,-0.003 -0.0979,-0.037 -0.02381,-0.0344 -0.02381,-0.11377 0,-0.0423 0.0026,-0.19579 0.0026,-0.15346 0.0026,-0.24606 z" />
    </g>
    <rect
       inkscape:export-ydpi="96"
       inkscape:export-xdpi="96"
       inkscape:export-filename="D:\Calcatz\Icon Pack\Adventure Narative Inspired by Arrival\GUI\Navigation Buttons\Xbox\Light\png\64px\lstick_left.png"
       style="fill:#cccccc;fill-opacity:1;stroke-width:1.07737;stroke-linecap:round;paint-order:fill markers stroke"
       id="rect836"
       width="16.933332"
       height="16.933332"
       x="102.76832"
       y="154.24538" />
    <path
       id="path838"
       style="fill:#1f2123;fill-opacity:1;stroke:none;stroke-width:0.352;stroke-linecap:round;stroke-miterlimit:4;stroke-dasharray:none;stroke-opacity:1;paint-order:markers stroke fill"
       inkscape:transform-center-x="0.3690579"
       inkscape:transform-center-y="-2.1190461e-05"
       d="m 107.92486,164.0131 v -1.30108 -1.30108 l -1.1072,0.65054 -1.10718,0.65054 1.10718,0.65054 z" />
    <path
       id="path840"
       style="fill:none;fill-opacity:1;stroke:#8c8c8c;stroke-width:0.552;stroke-linecap:round;stroke-miterlimit:4;stroke-dasharray:none;stroke-dashoffset:0;stroke-opacity:1;paint-order:fill markers stroke"
       d="m 107.49494,160.55292 a 4.3186336,4.3186336 0 0 1 4.8578,-2.01216 4.3186336,4.3186336 0 0 1 3.20088,4.17148 4.3186336,4.3186336 0 0 1 -3.20088,4.17148 4.3186336,4.3186336 0 0 1 -4.8578,-2.01218" />
    <g
       transform="matrix(2,0,0,2,-79.570234,-154.24538)"
       aria-label="L"
       id="g844"
       style="font-weight:bold;font-size:2.64583px;line-height:1.05;font-family:'Overlock SC';-inkscape-font-specification:'Overlock SC Bold';text-align:end;text-anchor:end;fill:#1f2123;fill-opacity:1;stroke:#ffffff;stroke-width:0.905997;stroke-linecap:round;stroke-miterlimit:4;stroke-dasharray:none;stroke-opacity:1;paint-order:markers stroke fill">
      <path
         d="m 94.940901,158.76447 v -0.54769 q 0,-0.37306 -0.01852,-0.61383 0.04498,-0.008 0.108479,-0.008 0.129645,0 0.129645,0.10054 0,0.0159 -0.0053,0.10848 -0.0053,0.09 -0.01058,0.22754 -0.0053,0.13494 -0.0053,0.25665 v 0.23812 q 0,0.55033 0.01852,0.66675 0.111124,0.005 0.174624,0.005 0.41275,0 0.531812,-0.0608 0.01852,0.0556 0.01852,0.11641 0,0.0476 -0.02381,0.0688 -0.04498,0.0397 -0.404812,0.0397 -0.317499,0 -0.396874,-0.005 -0.07144,-0.003 -0.0979,-0.037 -0.02381,-0.0344 -0.02381,-0.11377 0,-0.0423 0.0026,-0.19579 0.0026,-0.15346 0.0026,-0.24606 z"
         style="font-size:2.64583px;fill:#1f2123;fill-opacity:1;stroke:none;stroke-width:0.905997"
         id="path842" />
    </g>
    <rect
       inkscape:export-ydpi="96"
       inkscape:export-xdpi="96"
       inkscape:export-filename="D:\Calcatz\Icon Pack\Adventure Narative Inspired by Arrival\GUI\Navigation Buttons\Xbox\Light\png\128px\lstick_left.png"
       y="154.24538"
       x="122.32748"
       height="33.866665"
       width="33.866665"
       id="rect846"
       style="fill:#cccccc;fill-opacity:1;stroke-width:2.15474;stroke-linecap:round;paint-order:fill markers stroke" />
    <path
       d="m 132.64058,173.78082 v -2.60216 -2.60216 l -2.2144,1.30108 -2.21436,1.30108 2.21436,1.30108 z"
       inkscape:transform-center-y="-4.5794008e-05"
       inkscape:transform-center-x="0.7381193"
       style="fill:#1f2123;fill-opacity:1;stroke:none;stroke-width:0.704;stroke-linecap:round;stroke-miterlimit:4;stroke-dasharray:none;stroke-opacity:1;paint-order:markers stroke fill"
       id="path848" />
    <path
       d="m 131.78074,166.86046 a 8.6372672,8.6372672 0 0 1 9.7156,-4.02432 8.6372672,8.6372672 0 0 1 6.40176,8.34296 8.6372672,8.6372672 0 0 1 -6.40176,8.34296 8.6372672,8.6372672 0 0 1 -9.7156,-4.02436"
       style="fill:none;fill-opacity:1;stroke:#8c8c8c;stroke-width:1.104;stroke-linecap:round;stroke-miterlimit:4;stroke-dasharray:none;stroke-dashoffset:0;stroke-opacity:1;paint-order:fill markers stroke"
       id="path850" />
    <g
       style="font-weight:bold;font-size:2.64583px;line-height:1.05;font-family:'Overlock SC';-inkscape-font-specification:'Overlock SC Bold';text-align:end;text-anchor:end;fill:#1f2123;fill-opacity:1;stroke:#ffffff;stroke-width:0.905997;stroke-linecap:round;stroke-miterlimit:4;stroke-dasharray:none;stroke-opacity:1;paint-order:markers stroke fill"
       id="g854"
       aria-label="L"
       transform="matrix(4,0,0,4,-242.3496,-462.73614)">
      <path
         id="path852"
         style="font-size:2.64583px;fill:#1f2123;fill-opacity:1;stroke:none;stroke-width:0.905997"
         d="m 94.940901,158.76447 v -0.54769 q 0,-0.37306 -0.01852,-0.61383 0.04498,-0.008 0.108479,-0.008 0.129645,0 0.129645,0.10054 0,0.0159 -0.0053,0.10848 -0.0053,0.09 -0.01058,0.22754 -0.0053,0.13494 -0.0053,0.25665 v 0.23812 q 0,0.55033 0.01852,0.66675 0.111124,0.005 0.174624,0.005 0.41275,0 0.531812,-0.0608 0.01852,0.0556 0.01852,0.11641 0,0.0476 -0.02381,0.0688 -0.04498,0.0397 -0.404812,0.0397 -0.317499,0 -0.396874,-0.005 -0.07144,-0.003 -0.0979,-0.037 -0.02381,-0.0344 -0.02381,-0.11377 0,-0.0423 0.0026,-0.19579 0.0026,-0.15346 0.0026,-0.24606 z" />
    </g>
    <rect
       inkscape:export-ydpi="96"
       inkscape:export-xdpi="96"
       inkscape:export-filename="D:\Calcatz\Icon Pack\Adventure Narative Inspired by Arrival\GUI\Navigation Buttons\Xbox\Light\png\256px\lstick_left.png"
       style="fill:#cccccc;fill-opacity:1;stroke-width:4.30948;stroke-linecap:round;paint-order:fill markers stroke"
       id="rect856"
       width="67.73333"
       height="67.73333"
       x="160.08122"
       y="154.24538" />
    <path
       id="path858"
       style="fill:#1f2123;fill-opacity:1;stroke:none;stroke-width:1.408;stroke-linecap:round;stroke-miterlimit:4;stroke-dasharray:none;stroke-opacity:1;paint-order:markers stroke fill"
       inkscape:transform-center-x="1.4762361"
       inkscape:transform-center-y="-9.5001102e-05"
       d="m 180.70744,193.31626 v -5.20432 -5.20432 l -4.4288,2.60216 -4.42872,2.60216 4.42872,2.60216 z" />
    <path
       id="path860"
       style="fill:none;fill-opacity:1;stroke:#8c8c8c;stroke-width:2.208;stroke-linecap:round;stroke-miterlimit:4;stroke-dasharray:none;stroke-dashoffset:0;stroke-opacity:1;paint-order:fill markers stroke"
       d="m 178.98776,179.47554 a 17.274534,17.274534 0 0 1 19.4312,-8.04864 17.274534,17.274534 0 0 1 12.80352,16.68592 17.274534,17.274534 0 0 1 -12.80352,16.68592 17.274534,17.274534 0 0 1 -19.4312,-8.04872" />
    <g
       transform="matrix(8,0,0,8,-569.27292,-1079.7177)"
       aria-label="L"
       id="g864"
       style="font-weight:bold;font-size:2.64583px;line-height:1.05;font-family:'Overlock SC';-inkscape-font-specification:'Overlock SC Bold';text-align:end;text-anchor:end;fill:#1f2123;fill-opacity:1;stroke:#ffffff;stroke-width:0.905997;stroke-linecap:round;stroke-miterlimit:4;stroke-dasharray:none;stroke-opacity:1;paint-order:markers stroke fill">
      <path
         d="m 94.940901,158.76447 v -0.54769 q 0,-0.37306 -0.01852,-0.61383 0.04498,-0.008 0.108479,-0.008 0.129645,0 0.129645,0.10054 0,0.0159 -0.0053,0.10848 -0.0053,0.09 -0.01058,0.22754 -0.0053,0.13494 -0.0053,0.25665 v 0.23812 q 0,0.55033 0.01852,0.66675 0.111124,0.005 0.174624,0.005 0.41275,0 0.531812,-0.0608 0.01852,0.0556 0.01852,0.11641 0,0.0476 -0.02381,0.0688 -0.04498,0.0397 -0.404812,0.0397 -0.317499,0 -0.396874,-0.005 -0.07144,-0.003 -0.0979,-0.037 -0.02381,-0.0344 -0.02381,-0.11377 0,-0.0423 0.0026,-0.19579 0.0026,-0.15346 0.0026,-0.24606 z"
         style="font-size:2.64583px;fill:#1f2123;fill-opacity:1;stroke:none;stroke-width:0.905997"
         id="path862" />
    </g>
  </g>
</svg>
