<?xml version="1.0" encoding="UTF-8" standalone="no"?>
<svg
   xmlns:dc="http://purl.org/dc/elements/1.1/"
   xmlns:cc="http://creativecommons.org/ns#"
   xmlns:rdf="http://www.w3.org/1999/02/22-rdf-syntax-ns#"
   xmlns:svg="http://www.w3.org/2000/svg"
   xmlns="http://www.w3.org/2000/svg"
   xmlns:sodipodi="http://sodipodi.sourceforge.net/DTD/sodipodi-0.dtd"
   xmlns:inkscape="http://www.inkscape.org/namespaces/inkscape"
   inkscape:export-ydpi="96"
   inkscape:export-xdpi="96"
   inkscape:export-filename="D:\Calcatz\Icon Pack\Adventure Narative Inspired by Arrival\GUI\Navigation Buttons\Xbox\Light\png\lstick_down.png"
   sodipodi:docname="lstick_down.svg"
   inkscape:version="1.0 (4035a4fb49, 2020-05-01)"
   id="svg5510"
   version="1.1"
   viewBox="0 0 8.4666662 8.4666662"
   height="31.999998"
   width="31.999998">
  <defs
     id="defs5504" />
  <sodipodi:namedview
     inkscape:window-maximized="1"
     inkscape:window-y="-8"
     inkscape:window-x="-8"
     inkscape:window-height="705"
     inkscape:window-width="1366"
     fit-margin-bottom="0"
     fit-margin-right="0"
     fit-margin-left="0"
     fit-margin-top="0"
     showgrid="false"
     inkscape:document-rotation="0"
     inkscape:current-layer="layer1"
     inkscape:document-units="mm"
     inkscape:cy="61.0913"
     inkscape:cx="213.93526"
     inkscape:zoom="1.7450255"
     inkscape:pageshadow="2"
     inkscape:pageopacity="0.0"
     borderopacity="1.0"
     bordercolor="#666666"
     pagecolor="#ffffff"
     id="base"
     units="px" />
  <metadata
     id="metadata5507">
    <rdf:RDF>
      <cc:Work
         rdf:about="">
        <dc:format>image/svg+xml</dc:format>
        <dc:type
           rdf:resource="http://purl.org/dc/dcmitype/StillImage" />
        <dc:title />
      </cc:Work>
    </rdf:RDF>
  </metadata>
  <g
     transform="translate(-80.130951,-114.8228)"
     id="layer1"
     inkscape:groupmode="layer"
     inkscape:label="Layer 1">
    <rect
       y="114.8228"
       x="80.130951"
       height="8.4666662"
       width="8.4666662"
       id="rect834"
       style="fill:#cccccc;fill-opacity:1;stroke-width:0.679696;stroke-linecap:round;paint-order:fill markers stroke" />
    <path
       d="m 85.014843,120.64588 h -0.650544 -0.650544 l 0.325272,0.5536 0.325272,0.55359 0.325272,-0.55359 z"
       inkscape:transform-center-y="0.18452527"
       inkscape:transform-center-x="9.9297713e-06"
       style="fill:#1f2123;fill-opacity:1;stroke:none;stroke-width:0.176;stroke-linecap:round;stroke-miterlimit:4;stroke-dasharray:none;stroke-opacity:1;paint-order:markers stroke fill"
       id="path4862" />
    <path
       d="m 83.28463,120.92616 a -2.1593168,-2.1593168 0 0 1 -1.006081,-2.4289 -2.1593168,-2.1593168 0 0 1 2.085739,-1.60044 -2.1593168,-2.1593168 0 0 1 2.08574,1.60044 -2.1593168,-2.1593168 0 0 1 -1.006081,2.4289"
       style="fill:none;fill-opacity:1;stroke:#8c8c8c;stroke-width:0.276;stroke-linecap:round;stroke-miterlimit:4;stroke-dasharray:none;stroke-dashoffset:0;stroke-opacity:1;paint-order:fill markers stroke"
       id="path5434" />
    <g
       style="font-weight:bold;font-size:2.64583px;line-height:1.05;font-family:'Overlock SC';-inkscape-font-specification:'Overlock SC Bold';text-align:end;text-anchor:end;fill:#1f2123;fill-opacity:1;stroke:#ffffff;stroke-width:0.905997;stroke-linecap:round;stroke-miterlimit:4;stroke-dasharray:none;stroke-opacity:1;paint-order:markers stroke fill"
       id="text4860"
       aria-label="L">
      <path
         id="path6103"
         style="font-size:2.64583px;fill:#1f2123;fill-opacity:1;stroke:none;stroke-width:0.905997"
         d="m 83.902579,119.3419 v -0.54769 q 0,-0.37306 -0.01852,-0.61383 0.04498,-0.008 0.108479,-0.008 0.129646,0 0.129646,0.10054 0,0.0159 -0.0053,0.10848 -0.0053,0.09 -0.01058,0.22754 -0.0053,0.13494 -0.0053,0.25665 v 0.23812 q 0,0.55033 0.01852,0.66675 0.111125,0.005 0.174625,0.005 0.412749,0 0.531812,-0.0609 0.01852,0.0556 0.01852,0.11642 0,0.0476 -0.02381,0.0688 -0.04498,0.0397 -0.404812,0.0397 -0.3175,0 -0.396874,-0.005 -0.07144,-0.003 -0.0979,-0.037 -0.02381,-0.0344 -0.02381,-0.11377 0,-0.0423 0.0026,-0.19579 0.0026,-0.15346 0.0026,-0.24606 z" />
    </g>
    <rect
       inkscape:export-ydpi="96"
       inkscape:export-xdpi="96"
       inkscape:export-filename="D:\Calcatz\Icon Pack\Adventure Narative Inspired by Arrival\GUI\Navigation Buttons\Xbox\Light\png\64px\lstick_down.png"
       style="fill:#cccccc;fill-opacity:1;stroke-width:1.35939;stroke-linecap:round;paint-order:fill markers stroke"
       id="rect836"
       width="16.933332"
       height="16.933332"
       x="89.672867"
       y="114.8228" />
    <path
       id="path838"
       style="fill:#1f2123;fill-opacity:1;stroke:none;stroke-width:0.352;stroke-linecap:round;stroke-miterlimit:4;stroke-dasharray:none;stroke-opacity:1;paint-order:markers stroke fill"
       inkscape:transform-center-x="2.0038254e-05"
       inkscape:transform-center-y="0.36905022"
       d="m 99.440657,126.46896 h -1.301088 -1.301088 l 0.650544,1.1072 0.650544,1.10718 0.650544,-1.10718 z" />
    <path
       id="path840"
       style="fill:none;fill-opacity:1;stroke:#8c8c8c;stroke-width:0.552;stroke-linecap:round;stroke-miterlimit:4;stroke-dasharray:none;stroke-dashoffset:0;stroke-opacity:1;paint-order:fill markers stroke"
       d="m 95.980231,127.02952 a 4.3186336,4.3186336 0 0 1 -2.012162,-4.8578 4.3186336,4.3186336 0 0 1 4.171478,-3.20088 4.3186336,4.3186336 0 0 1 4.171483,3.20088 4.3186336,4.3186336 0 0 1 -2.01216,4.8578" />
    <g
       transform="matrix(2,0,0,2,-70.589029,-114.8228)"
       aria-label="L"
       id="g844"
       style="font-weight:bold;font-size:2.64583px;line-height:1.05;font-family:'Overlock SC';-inkscape-font-specification:'Overlock SC Bold';text-align:end;text-anchor:end;fill:#1f2123;fill-opacity:1;stroke:#ffffff;stroke-width:0.905997;stroke-linecap:round;stroke-miterlimit:4;stroke-dasharray:none;stroke-opacity:1;paint-order:markers stroke fill">
      <path
         d="m 83.902579,119.3419 v -0.54769 q 0,-0.37306 -0.01852,-0.61383 0.04498,-0.008 0.108479,-0.008 0.129646,0 0.129646,0.10054 0,0.0159 -0.0053,0.10848 -0.0053,0.09 -0.01058,0.22754 -0.0053,0.13494 -0.0053,0.25665 v 0.23812 q 0,0.55033 0.01852,0.66675 0.111125,0.005 0.174625,0.005 0.412749,0 0.531812,-0.0609 0.01852,0.0556 0.01852,0.11642 0,0.0476 -0.02381,0.0688 -0.04498,0.0397 -0.404812,0.0397 -0.3175,0 -0.396874,-0.005 -0.07144,-0.003 -0.0979,-0.037 -0.02381,-0.0344 -0.02381,-0.11377 0,-0.0423 0.0026,-0.19579 0.0026,-0.15346 0.0026,-0.24606 z"
         style="font-size:2.64583px;fill:#1f2123;fill-opacity:1;stroke:none;stroke-width:0.905997"
         id="path842" />
    </g>
    <rect
       inkscape:export-ydpi="96"
       inkscape:export-xdpi="96"
       inkscape:export-filename="D:\Calcatz\Icon Pack\Adventure Narative Inspired by Arrival\GUI\Navigation Buttons\Xbox\Light\png\128px\lstick_down.png"
       y="114.8228"
       x="108.00622"
       height="33.866665"
       width="33.866665"
       id="rect846"
       style="fill:#cccccc;fill-opacity:1;stroke-width:2.71878;stroke-linecap:round;paint-order:fill markers stroke" />
    <path
       d="m 127.5418,138.11512 h -2.60218 -2.60218 l 1.30108,2.2144 1.3011,2.21436 1.30108,-2.21436 z"
       inkscape:transform-center-y="0.73810012"
       inkscape:transform-center-x="4.2119965e-05"
       style="fill:#1f2123;fill-opacity:1;stroke:none;stroke-width:0.704;stroke-linecap:round;stroke-miterlimit:4;stroke-dasharray:none;stroke-opacity:1;paint-order:markers stroke fill"
       id="path848" />
    <path
       d="m 120.62094,139.23624 a 8.6372672,8.6372672 0 0 1 -4.02432,-9.7156 8.6372672,8.6372672 0 0 1 8.34296,-6.40176 8.6372672,8.6372672 0 0 1 8.34296,6.40176 8.6372672,8.6372672 0 0 1 -4.02432,9.7156"
       style="fill:none;fill-opacity:1;stroke:#8c8c8c;stroke-width:1.104;stroke-linecap:round;stroke-miterlimit:4;stroke-dasharray:none;stroke-dashoffset:0;stroke-opacity:1;paint-order:fill markers stroke"
       id="path850" />
    <g
       style="font-weight:bold;font-size:2.64583px;line-height:1.05;font-family:'Overlock SC';-inkscape-font-specification:'Overlock SC Bold';text-align:end;text-anchor:end;fill:#1f2123;fill-opacity:1;stroke:#ffffff;stroke-width:0.905997;stroke-linecap:round;stroke-miterlimit:4;stroke-dasharray:none;stroke-opacity:1;paint-order:markers stroke fill"
       id="g854"
       aria-label="L"
       transform="matrix(4,0,0,4,-212.51758,-344.4684)">
      <path
         id="path852"
         style="font-size:2.64583px;fill:#1f2123;fill-opacity:1;stroke:none;stroke-width:0.905997"
         d="m 83.902579,119.3419 v -0.54769 q 0,-0.37306 -0.01852,-0.61383 0.04498,-0.008 0.108479,-0.008 0.129646,0 0.129646,0.10054 0,0.0159 -0.0053,0.10848 -0.0053,0.09 -0.01058,0.22754 -0.0053,0.13494 -0.0053,0.25665 v 0.23812 q 0,0.55033 0.01852,0.66675 0.111125,0.005 0.174625,0.005 0.412749,0 0.531812,-0.0609 0.01852,0.0556 0.01852,0.11642 0,0.0476 -0.02381,0.0688 -0.04498,0.0397 -0.404812,0.0397 -0.3175,0 -0.396874,-0.005 -0.07144,-0.003 -0.0979,-0.037 -0.02381,-0.0344 -0.02381,-0.11377 0,-0.0423 0.0026,-0.19579 0.0026,-0.15346 0.0026,-0.24606 z" />
    </g>
    <rect
       inkscape:export-ydpi="96"
       inkscape:export-xdpi="96"
       inkscape:export-filename="D:\Calcatz\Icon Pack\Adventure Narative Inspired by Arrival\GUI\Navigation Buttons\Xbox\Light\png\256px\lstick_down.png"
       style="fill:#cccccc;fill-opacity:1;stroke-width:5.43756;stroke-linecap:round;paint-order:fill markers stroke"
       id="rect856"
       width="67.73333"
       height="67.73333"
       x="145.60834"
       y="114.8228" />
    <path
       id="path858"
       style="fill:#1f2123;fill-opacity:1;stroke:none;stroke-width:1.408;stroke-linecap:round;stroke-miterlimit:4;stroke-dasharray:none;stroke-opacity:1;paint-order:markers stroke fill"
       inkscape:transform-center-x="8.6837586e-05"
       inkscape:transform-center-y="1.4761999"
       d="m 184.6795,161.40744 h -5.20436 -5.20436 l 2.60216,4.4288 2.6022,4.42872 2.60216,-4.42872 z" />
    <path
       id="path860"
       style="fill:none;fill-opacity:1;stroke:#8c8c8c;stroke-width:2.208;stroke-linecap:round;stroke-miterlimit:4;stroke-dasharray:none;stroke-dashoffset:0;stroke-opacity:1;paint-order:fill markers stroke"
       d="m 170.83778,163.64968 a 17.274534,17.274534 0 0 1 -8.04864,-19.4312 17.274534,17.274534 0 0 1 16.68592,-12.80352 17.274534,17.274534 0 0 1 16.68592,12.80352 17.274534,17.274534 0 0 1 -8.04864,19.4312" />
    <g
       transform="matrix(8,0,0,8,-495.43926,-803.7596)"
       aria-label="L"
       id="g864"
       style="font-weight:bold;font-size:2.64583px;line-height:1.05;font-family:'Overlock SC';-inkscape-font-specification:'Overlock SC Bold';text-align:end;text-anchor:end;fill:#1f2123;fill-opacity:1;stroke:#ffffff;stroke-width:0.905997;stroke-linecap:round;stroke-miterlimit:4;stroke-dasharray:none;stroke-opacity:1;paint-order:markers stroke fill">
      <path
         d="m 83.902579,119.3419 v -0.54769 q 0,-0.37306 -0.01852,-0.61383 0.04498,-0.008 0.108479,-0.008 0.129646,0 0.129646,0.10054 0,0.0159 -0.0053,0.10848 -0.0053,0.09 -0.01058,0.22754 -0.0053,0.13494 -0.0053,0.25665 v 0.23812 q 0,0.55033 0.01852,0.66675 0.111125,0.005 0.174625,0.005 0.412749,0 0.531812,-0.0609 0.01852,0.0556 0.01852,0.11642 0,0.0476 -0.02381,0.0688 -0.04498,0.0397 -0.404812,0.0397 -0.3175,0 -0.396874,-0.005 -0.07144,-0.003 -0.0979,-0.037 -0.02381,-0.0344 -0.02381,-0.11377 0,-0.0423 0.0026,-0.19579 0.0026,-0.15346 0.0026,-0.24606 z"
         style="font-size:2.64583px;fill:#1f2123;fill-opacity:1;stroke:none;stroke-width:0.905997"
         id="path862" />
    </g>
  </g>
</svg>
