<?xml version="1.0" encoding="UTF-8" standalone="no"?>
<svg
   xmlns:dc="http://purl.org/dc/elements/1.1/"
   xmlns:cc="http://creativecommons.org/ns#"
   xmlns:rdf="http://www.w3.org/1999/02/22-rdf-syntax-ns#"
   xmlns:svg="http://www.w3.org/2000/svg"
   xmlns="http://www.w3.org/2000/svg"
   xmlns:sodipodi="http://sodipodi.sourceforge.net/DTD/sodipodi-0.dtd"
   xmlns:inkscape="http://www.inkscape.org/namespaces/inkscape"
   inkscape:export-ydpi="96"
   inkscape:export-xdpi="96"
   inkscape:export-filename="D:\Calcatz\Icon Pack\Adventure Narative Inspired by Arrival\GUI\Navigation Buttons\Xbox\Light\png\lt.png"
   sodipodi:docname="lt.svg"
   inkscape:version="1.0 (4035a4fb49, 2020-05-01)"
   id="svg4285"
   version="1.1"
   viewBox="0 0 8.4666662 8.4666662"
   height="31.999998"
   width="31.999998">
  <defs
     id="defs4279" />
  <sodipodi:namedview
     inkscape:window-maximized="1"
     inkscape:window-y="-8"
     inkscape:window-x="-8"
     inkscape:window-height="705"
     inkscape:window-width="1366"
     fit-margin-bottom="0"
     fit-margin-right="0"
     fit-margin-left="0"
     fit-margin-top="0"
     showgrid="false"
     inkscape:document-rotation="0"
     inkscape:current-layer="layer1"
     inkscape:document-units="mm"
     inkscape:cy="155.14138"
     inkscape:cx="237.38663"
     inkscape:zoom="1.2339194"
     inkscape:pageshadow="2"
     inkscape:pageopacity="0.0"
     borderopacity="1.0"
     bordercolor="#666666"
     pagecolor="#ffffff"
     id="base"
     units="px" />
  <metadata
     id="metadata4282">
    <rdf:RDF>
      <cc:Work
         rdf:about="">
        <dc:format>image/svg+xml</dc:format>
        <dc:type
           rdf:resource="http://purl.org/dc/dcmitype/StillImage" />
        <dc:title />
      </cc:Work>
    </rdf:RDF>
  </metadata>
  <g
     transform="translate(-102.20758,-144.78397)"
     id="layer1"
     inkscape:groupmode="layer"
     inkscape:label="Layer 1">
    <rect
       y="144.78397"
       x="102.20758"
       height="8.4666662"
       width="8.4666662"
       id="rect833"
       style="fill:#cccccc;fill-opacity:1;stroke-width:0.220541;stroke-linecap:round;paint-order:fill markers stroke" />
    <path
       d="m 105.57869,149.24483 v -0.43815 q 0,-0.29845 -0.0148,-0.49107 0.036,-0.006 0.0868,-0.006 0.10372,0 0.10372,0.0804 0,0.0127 -0.004,0.0868 -0.004,0.072 -0.008,0.18203 -0.004,0.10795 -0.004,0.20532 v 0.1905 q 0,0.44027 0.0148,0.5334 0.0889,0.004 0.1397,0.004 0.3302,0 0.42545,-0.0487 0.0148,0.0444 0.0148,0.0931 0,0.0381 -0.0191,0.055 -0.036,0.0317 -0.32385,0.0317 -0.254,0 -0.3175,-0.004 -0.0571,-0.002 -0.0783,-0.0296 -0.0191,-0.0275 -0.0191,-0.091 0,-0.0339 0.002,-0.15663 0.002,-0.12277 0.002,-0.19685 z"
       style="font-weight:bold;font-size:2.11667px;line-height:1.05;font-family:'Overlock SC';-inkscape-font-specification:'Overlock SC Bold';text-align:end;text-anchor:end;fill:#1f2123;fill-opacity:1;stroke:none;stroke-width:0.905997;stroke-linecap:round;stroke-miterlimit:4;stroke-dasharray:none;stroke-opacity:1;paint-order:markers stroke fill"
       id="path4875" />
    <path
       d="m 106.74854,149.23001 v -0.42333 q 0,-0.19685 -0.006,-0.36195 -0.30056,0 -0.40216,0.008 -0.006,-0.0191 -0.006,-0.0572 0,-0.0423 0.0212,-0.0572 0.0233,-0.0148 0.072,-0.0169 0.0529,-0.002 0.22648,-0.002 h 0.24977 q 0.33443,0 0.40852,-0.006 0.006,0.019 0.006,0.055 0,0.0423 -0.0233,0.0572 -0.0212,0.0148 -0.0699,0.0169 -0.0656,0.002 -0.30268,0.002 -0.0148,0.30268 -0.0148,0.4191 v 0.42545 q 0,0.28575 0.0402,0.4191 -0.0381,0.0169 -0.0995,0.0169 -0.0614,0 -0.0825,-0.0275 -0.0212,-0.0275 -0.0212,-0.0931 0,-0.0339 0.002,-0.16721 0.002,-0.13335 0.002,-0.20744 z"
       style="font-weight:bold;font-size:2.11667px;line-height:1.05;font-family:'Overlock SC';-inkscape-font-specification:'Overlock SC Bold';text-align:end;text-anchor:end;fill:#1f2123;fill-opacity:1;stroke:none;stroke-width:0.905997;stroke-linecap:round;stroke-miterlimit:4;stroke-dasharray:none;stroke-opacity:1;paint-order:markers stroke fill"
       id="path4877" />
    <path
       sodipodi:nodetypes="ssccss"
       d="m 106.44094,146.90605 c -0.95541,0 -1.72445,0.76957 -1.72445,1.72495 v 1.76993 h 3.44887 V 148.631 c 0,-0.95538 -0.76904,-1.72495 -1.72442,-1.72495 z"
       style="fill:none;stroke:#8c8c8c;stroke-width:0.276;stroke-linecap:round;stroke-miterlimit:4;stroke-dasharray:none;stroke-opacity:1;paint-order:markers stroke fill"
       id="path5498" />
    <rect
       inkscape:export-ydpi="96"
       inkscape:export-xdpi="96"
       inkscape:export-filename="D:\Calcatz\Icon Pack\Adventure Narative Inspired by Arrival\GUI\Navigation Buttons\Xbox\Light\png\64px\lt.png"
       style="fill:#cccccc;fill-opacity:1;stroke-width:0.441082;stroke-linecap:round;paint-order:fill markers stroke"
       id="rect835"
       width="16.933332"
       height="16.933332"
       x="113.25047"
       y="144.78397" />
    <path
       id="path837"
       style="font-weight:bold;font-size:2.11667px;line-height:1.05;font-family:'Overlock SC';-inkscape-font-specification:'Overlock SC Bold';text-align:end;text-anchor:end;fill:#1f2123;fill-opacity:1;stroke:none;stroke-width:1.81199;stroke-linecap:round;stroke-miterlimit:4;stroke-dasharray:none;stroke-opacity:1;paint-order:markers stroke fill"
       d="m 119.99269,153.70569 v -0.8763 q 0,-0.5969 -0.0296,-0.98214 0.072,-0.012 0.1736,-0.012 0.20744,0 0.20744,0.1608 0,0.0254 -0.008,0.1736 -0.008,0.144 -0.016,0.36406 -0.008,0.2159 -0.008,0.41064 v 0.381 q 0,0.88054 0.0296,1.0668 0.1778,0.008 0.2794,0.008 0.6604,0 0.8509,-0.0974 0.0296,0.0888 0.0296,0.1862 0,0.0762 -0.0382,0.11 -0.072,0.0634 -0.6477,0.0634 -0.508,0 -0.635,-0.008 -0.1142,-0.004 -0.1566,-0.0592 -0.0382,-0.055 -0.0382,-0.182 0,-0.0678 0.004,-0.31326 0.004,-0.24554 0.004,-0.3937 z" />
    <path
       id="path839"
       style="font-weight:bold;font-size:2.11667px;line-height:1.05;font-family:'Overlock SC';-inkscape-font-specification:'Overlock SC Bold';text-align:end;text-anchor:end;fill:#1f2123;fill-opacity:1;stroke:none;stroke-width:1.81199;stroke-linecap:round;stroke-miterlimit:4;stroke-dasharray:none;stroke-opacity:1;paint-order:markers stroke fill"
       d="m 122.33239,153.67605 v -0.84666 q 0,-0.3937 -0.012,-0.7239 -0.60112,0 -0.80432,0.016 -0.012,-0.0382 -0.012,-0.1144 0,-0.0846 0.0424,-0.1144 0.0466,-0.0296 0.144,-0.0338 0.1058,-0.004 0.45296,-0.004 h 0.49954 q 0.66886,0 0.81704,-0.012 0.012,0.038 0.012,0.11 0,0.0846 -0.0466,0.1144 -0.0424,0.0296 -0.1398,0.0338 -0.1312,0.004 -0.60536,0.004 -0.0296,0.60536 -0.0296,0.8382 v 0.8509 q 0,0.5715 0.0804,0.8382 -0.0762,0.0338 -0.199,0.0338 -0.1228,0 -0.165,-0.055 -0.0424,-0.055 -0.0424,-0.1862 0,-0.0678 0.004,-0.33442 0.004,-0.2667 0.004,-0.41488 z" />
    <path
       id="path841"
       style="fill:none;stroke:#8c8c8c;stroke-width:0.552;stroke-linecap:round;stroke-miterlimit:4;stroke-dasharray:none;stroke-opacity:1;paint-order:markers stroke fill"
       d="m 121.71719,149.02813 c -1.91082,0 -3.4489,1.53914 -3.4489,3.4499 v 3.53986 h 6.89774 v -3.53986 c 0,-1.91076 -1.53808,-3.4499 -3.44884,-3.4499 z"
       sodipodi:nodetypes="ssccss" />
    <rect
       inkscape:export-ydpi="96"
       inkscape:export-xdpi="96"
       inkscape:export-filename="D:\Calcatz\Icon Pack\Adventure Narative Inspired by Arrival\GUI\Navigation Buttons\Xbox\Light\png\128px\lt.png"
       y="144.78397"
       x="132.44153"
       height="33.866665"
       width="33.866665"
       id="rect843"
       style="fill:#cccccc;fill-opacity:1;stroke-width:0.882164;stroke-linecap:round;paint-order:fill markers stroke" />
    <path
       d="m 145.92595,162.62741 v -1.7526 q 0,-1.1938 -0.0592,-1.96428 0.144,-0.024 0.3472,-0.024 0.41488,0 0.41488,0.3216 0,0.0508 -0.016,0.3472 -0.016,0.288 -0.032,0.72812 -0.016,0.4318 -0.016,0.82128 v 0.762 q 0,1.76108 0.0592,2.1336 0.3556,0.016 0.5588,0.016 1.3208,0 1.7018,-0.1948 0.0592,0.1776 0.0592,0.3724 0,0.1524 -0.0764,0.22 -0.144,0.1268 -1.2954,0.1268 -1.016,0 -1.27,-0.016 -0.2284,-0.008 -0.3132,-0.1184 -0.0764,-0.11 -0.0764,-0.364 0,-0.1356 0.008,-0.62652 0.008,-0.49108 0.008,-0.7874 z"
       style="font-weight:bold;font-size:2.11667px;line-height:1.05;font-family:'Overlock SC';-inkscape-font-specification:'Overlock SC Bold';text-align:end;text-anchor:end;fill:#1f2123;fill-opacity:1;stroke:none;stroke-width:3.62398;stroke-linecap:round;stroke-miterlimit:4;stroke-dasharray:none;stroke-opacity:1;paint-order:markers stroke fill"
       id="path845" />
    <path
       d="m 150.60535,162.56813 v -1.69332 q 0,-0.7874 -0.024,-1.4478 -1.20224,0 -1.60864,0.032 -0.024,-0.0764 -0.024,-0.2288 0,-0.1692 0.0848,-0.2288 0.0932,-0.0592 0.288,-0.0676 0.2116,-0.008 0.90592,-0.008 h 0.99908 q 1.33772,0 1.63408,-0.024 0.024,0.076 0.024,0.22 0,0.1692 -0.0932,0.2288 -0.0848,0.0592 -0.2796,0.0676 -0.2624,0.008 -1.21072,0.008 -0.0592,1.21072 -0.0592,1.6764 v 1.7018 q 0,1.143 0.1608,1.6764 -0.1524,0.0676 -0.398,0.0676 -0.2456,0 -0.33,-0.11 -0.0848,-0.11 -0.0848,-0.3724 0,-0.1356 0.008,-0.66884 0.008,-0.5334 0.008,-0.82976 z"
       style="font-weight:bold;font-size:2.11667px;line-height:1.05;font-family:'Overlock SC';-inkscape-font-specification:'Overlock SC Bold';text-align:end;text-anchor:end;fill:#1f2123;fill-opacity:1;stroke:none;stroke-width:3.62398;stroke-linecap:round;stroke-miterlimit:4;stroke-dasharray:none;stroke-opacity:1;paint-order:markers stroke fill"
       id="path847" />
    <path
       sodipodi:nodetypes="ssccss"
       d="m 149.37495,153.27229 c -3.82164,0 -6.8978,3.07828 -6.8978,6.8998 v 7.07972 h 13.79548 v -7.07972 c 0,-3.82152 -3.07616,-6.8998 -6.89768,-6.8998 z"
       style="fill:none;stroke:#8c8c8c;stroke-width:1.104;stroke-linecap:round;stroke-miterlimit:4;stroke-dasharray:none;stroke-opacity:1;paint-order:markers stroke fill"
       id="path849" />
    <rect
       inkscape:export-ydpi="96"
       inkscape:export-xdpi="96"
       inkscape:export-filename="D:\Calcatz\Icon Pack\Adventure Narative Inspired by Arrival\GUI\Navigation Buttons\Xbox\Light\png\256px\lt.png"
       style="fill:#cccccc;fill-opacity:1;stroke-width:1.76433;stroke-linecap:round;paint-order:fill markers stroke"
       id="rect851"
       width="67.73333"
       height="67.73333"
       x="171.03806"
       y="144.78397" />
    <path
       id="path853"
       style="font-weight:bold;font-size:2.11667px;line-height:1.05;font-family:'Overlock SC';-inkscape-font-specification:'Overlock SC Bold';text-align:end;text-anchor:end;fill:#1f2123;fill-opacity:1;stroke:none;stroke-width:7.24796;stroke-linecap:round;stroke-miterlimit:4;stroke-dasharray:none;stroke-opacity:1;paint-order:markers stroke fill"
       d="m 198.0069,180.47085 v -3.5052 q 0,-2.3876 -0.1184,-3.92856 0.288,-0.048 0.6944,-0.048 0.82976,0 0.82976,0.6432 0,0.1016 -0.032,0.6944 -0.032,0.576 -0.064,1.45624 -0.032,0.8636 -0.032,1.64256 v 1.524 q 0,3.52216 0.1184,4.2672 0.7112,0.032 1.1176,0.032 2.6416,0 3.4036,-0.3896 0.1184,0.3552 0.1184,0.7448 0,0.3048 -0.1528,0.44 -0.288,0.2536 -2.5908,0.2536 -2.032,0 -2.54,-0.032 -0.4568,-0.016 -0.6264,-0.2368 -0.1528,-0.22 -0.1528,-0.728 0,-0.2712 0.016,-1.25304 0.016,-0.98216 0.016,-1.5748 z" />
    <path
       id="path855"
       style="font-weight:bold;font-size:2.11667px;line-height:1.05;font-family:'Overlock SC';-inkscape-font-specification:'Overlock SC Bold';text-align:end;text-anchor:end;fill:#1f2123;fill-opacity:1;stroke:none;stroke-width:7.24796;stroke-linecap:round;stroke-miterlimit:4;stroke-dasharray:none;stroke-opacity:1;paint-order:markers stroke fill"
       d="m 207.3657,180.35229 v -3.38664 q 0,-1.5748 -0.048,-2.8956 -2.40448,0 -3.21728,0.064 -0.048,-0.1528 -0.048,-0.4576 0,-0.3384 0.1696,-0.4576 0.1864,-0.1184 0.576,-0.1352 0.4232,-0.016 1.81184,-0.016 h 1.99816 q 2.67544,0 3.26816,-0.048 0.048,0.152 0.048,0.44 0,0.3384 -0.1864,0.4576 -0.1696,0.1184 -0.5592,0.1352 -0.5248,0.016 -2.42144,0.016 -0.1184,2.42144 -0.1184,3.3528 v 3.4036 q 0,2.286 0.3216,3.3528 -0.3048,0.1352 -0.796,0.1352 -0.4912,0 -0.66,-0.22 -0.1696,-0.22 -0.1696,-0.7448 0,-0.2712 0.016,-1.33768 0.016,-1.0668 0.016,-1.65952 z" />
    <path
       id="path857"
       style="fill:none;stroke:#8c8c8c;stroke-width:2.208;stroke-linecap:round;stroke-miterlimit:4;stroke-dasharray:none;stroke-opacity:1;paint-order:markers stroke fill"
       d="m 204.9049,161.76061 c -7.64328,0 -13.7956,6.15656 -13.7956,13.7996 v 14.15944 h 27.59096 v -14.15944 c 0,-7.64304 -6.15232,-13.7996 -13.79536,-13.7996 z"
       sodipodi:nodetypes="ssccss" />
  </g>
</svg>
