<?xml version="1.0" encoding="UTF-8" standalone="no"?>
<svg
   xmlns:dc="http://purl.org/dc/elements/1.1/"
   xmlns:cc="http://creativecommons.org/ns#"
   xmlns:rdf="http://www.w3.org/1999/02/22-rdf-syntax-ns#"
   xmlns:svg="http://www.w3.org/2000/svg"
   xmlns="http://www.w3.org/2000/svg"
   xmlns:sodipodi="http://sodipodi.sourceforge.net/DTD/sodipodi-0.dtd"
   xmlns:inkscape="http://www.inkscape.org/namespaces/inkscape"
   inkscape:export-ydpi="96"
   inkscape:export-xdpi="96"
   inkscape:export-filename="D:\Calcatz\Icon Pack\Adventure Narative Inspired by Arrival\GUI\Navigation Buttons\Xbox\Light\png\r3.png"
   sodipodi:docname="r3.svg"
   inkscape:version="1.0 (4035a4fb49, 2020-05-01)"
   id="svg7307"
   version="1.1"
   viewBox="0 0 8.4666662 8.4666662"
   height="31.999998"
   width="31.999998">
  <defs
     id="defs7301" />
  <sodipodi:namedview
     inkscape:window-maximized="1"
     inkscape:window-y="-8"
     inkscape:window-x="-8"
     inkscape:window-height="705"
     inkscape:window-width="1366"
     fit-margin-bottom="0"
     fit-margin-right="0"
     fit-margin-left="0"
     fit-margin-top="0"
     showgrid="false"
     inkscape:document-rotation="0"
     inkscape:current-layer="layer1"
     inkscape:document-units="mm"
     inkscape:cy="146.15331"
     inkscape:cx="251.58736"
     inkscape:zoom="1.2339194"
     inkscape:pageshadow="2"
     inkscape:pageopacity="0.0"
     borderopacity="1.0"
     bordercolor="#666666"
     pagecolor="#ffffff"
     id="base"
     units="px" />
  <metadata
     id="metadata7304">
    <rdf:RDF>
      <cc:Work
         rdf:about="">
        <dc:format>image/svg+xml</dc:format>
        <dc:type
           rdf:resource="http://purl.org/dc/dcmitype/StillImage" />
        <dc:title />
      </cc:Work>
    </rdf:RDF>
  </metadata>
  <g
     transform="translate(-34.400776,-196.03329)"
     id="layer1"
     inkscape:groupmode="layer"
     inkscape:label="Layer 1">
    <rect
       y="196.03329"
       x="34.400776"
       height="8.4666662"
       width="8.4666662"
       id="rect835"
       style="fill:#cccccc;fill-opacity:1;stroke-width:0.485785;stroke-linecap:round;paint-order:fill markers stroke" />
    <path
       d="m 38.634117,198.10732 a 2.1593168,2.1593168 0 0 1 2.159317,2.15931 2.1593168,2.1593168 0 0 1 -2.159317,2.15932 2.1593168,2.1593168 0 0 1 -2.159317,-2.15932 2.1593168,2.1593168 0 0 1 2.159317,-2.15931"
       style="fill:none;fill-opacity:1;stroke:#8c8c8c;stroke-width:0.276;stroke-linecap:round;stroke-miterlimit:4;stroke-dasharray:none;stroke-dashoffset:0;stroke-opacity:1;paint-order:fill markers stroke"
       id="circle5454" />
    <g
       transform="translate(-381.10327,-196.39798)"
       aria-label="R"
       id="text5244"
       style="font-weight:bold;font-size:2.64583px;line-height:1.05;font-family:'Overlock SC';-inkscape-font-specification:'Overlock SC Bold';text-align:end;text-anchor:end;fill:#1f2123;fill-opacity:1;stroke:#ffffff;stroke-width:0.905998;stroke-linecap:round;stroke-miterlimit:4;stroke-dasharray:none;stroke-opacity:1;paint-order:markers stroke fill">
      <path
         d="m 419.57067,397.31944 q 0.0688,0.0767 0.16933,0.0767 0.0317,0 0.0714,-0.008 0.0238,0.0476 0.0238,0.0794 0,0.10055 -0.19844,0.10055 -0.0503,0 -0.10054,-0.0238 -0.0503,-0.0238 -0.10054,-0.082 -0.0503,-0.0582 -0.0873,-0.10319 -0.0344,-0.045 -0.0873,-0.14022 -0.0503,-0.0953 -0.0714,-0.13494 -0.0212,-0.0423 -0.0714,-0.15081 -0.0503,-0.11113 -0.0582,-0.127 -0.0741,-0.0106 -0.0741,-0.0582 0,-0.0238 0.0132,-0.0714 0.0741,0.0132 0.12435,0.0132 0.17727,0 0.27781,-0.10319 0.10055,-0.10583 0.10055,-0.28575 0,-0.21166 -0.11113,-0.29368 -0.11112,-0.0847 -0.34131,-0.0847 -0.0847,0 -0.20638,0.0106 0.0106,0.15346 0.0106,0.53975 v 0.53181 q 0,0.35719 0.0503,0.52388 -0.0476,0.0212 -0.12436,0.0212 -0.0767,0 -0.10318,-0.0344 -0.0265,-0.0344 -0.0265,-0.11642 0,-0.0423 0.003,-0.20902 0.003,-0.16669 0.003,-0.25929 v -0.52917 q 0,-0.36512 -0.0344,-0.60854 0.1958,-0.0318 0.39423,-0.0318 0.70908,0 0.70908,0.52652 0,0.21696 -0.11906,0.3519 -0.11906,0.13229 -0.31485,0.16933 0,0.003 0.045,0.0979 0.045,0.0952 0.0609,0.127 0.0185,0.0318 0.0556,0.10319 0.0371,0.0714 0.0635,0.11377 0.0291,0.0423 0.0556,0.0688 z"
         style="font-size:2.64583px;fill:#1f2123;fill-opacity:1;stroke:none;stroke-width:0.905998"
         id="path7906" />
    </g>
    <g
       transform="translate(-381.10327,-196.39798)"
       aria-label="3"
       id="text5248"
       style="font-weight:bold;font-size:2.64583px;line-height:1.05;font-family:'Overlock SC';-inkscape-font-specification:'Overlock SC Bold';text-align:end;text-anchor:end;fill:#1f2123;fill-opacity:1;stroke:#ffffff;stroke-width:0.905998;stroke-linecap:round;stroke-miterlimit:4;stroke-dasharray:none;stroke-opacity:1;paint-order:markers stroke fill">
      <path
         d="m 420.12899,396.54753 q 0.24606,0 0.36777,-0.0926 0.12435,-0.0926 0.12435,-0.2196 0,-0.10054 -0.0741,-0.17462 -0.0714,-0.0767 -0.18785,-0.0767 -0.0926,0 -0.18257,0.0556 -0.0873,0.0556 -0.14022,0.15875 -0.0503,0 -0.082,-0.0265 -0.0317,-0.0265 -0.0317,-0.0609 0,-0.09 0.13493,-0.17992 0.13759,-0.0926 0.31221,-0.0926 0.20373,0 0.3175,0.11377 0.11642,0.11112 0.11642,0.26458 0,0.10583 -0.0661,0.20108 -0.0635,0.0926 -0.18785,0.14288 0.14287,0.045 0.22225,0.16139 0.082,0.11377 0.082,0.25929 0,0.23548 -0.17463,0.38365 -0.17462,0.15081 -0.47625,0.15081 -0.13229,0 -0.20373,-0.0397 -0.0688,-0.037 -0.0688,-0.0952 0,-0.0767 0.0873,-0.0979 0.0794,0.0794 0.2196,0.0794 0.20108,0 0.31485,-0.0979 0.11377,-0.0952 0.11377,-0.24606 0,-0.15875 -0.11906,-0.24871 -0.11906,-0.0926 -0.32544,-0.0926 -0.0503,0 -0.0741,-0.0159 -0.0212,-0.0159 -0.0212,-0.0767 z"
         style="font-size:2.64583px;fill:#1f2123;fill-opacity:1;stroke:none;stroke-width:0.905998"
         id="path7909" />
    </g>
    <rect
       inkscape:export-ydpi="96"
       inkscape:export-xdpi="96"
       inkscape:export-filename="D:\Calcatz\Icon Pack\Adventure Narative Inspired by Arrival\GUI\Navigation Buttons\Xbox\Light\png\64px\r3.png"
       style="fill:#cccccc;fill-opacity:1;stroke-width:0.97157;stroke-linecap:round;paint-order:fill markers stroke"
       id="rect837"
       width="16.933332"
       height="16.933332"
       x="43.9963"
       y="196.03329" />
    <path
       id="path839"
       style="fill:none;fill-opacity:1;stroke:#8c8c8c;stroke-width:0.552;stroke-linecap:round;stroke-miterlimit:4;stroke-dasharray:none;stroke-dashoffset:0;stroke-opacity:1;paint-order:fill markers stroke"
       d="m 52.462984,200.18135 a 4.3186336,4.3186336 0 0 1 4.318634,4.31862 4.3186336,4.3186336 0 0 1 -4.318634,4.31864 4.3186336,4.3186336 0 0 1 -4.318634,-4.31864 4.3186336,4.3186336 0 0 1 4.318634,-4.31862" />
    <g
       style="font-weight:bold;font-size:2.64583px;line-height:1.05;font-family:'Overlock SC';-inkscape-font-specification:'Overlock SC Bold';text-align:end;text-anchor:end;fill:#1f2123;fill-opacity:1;stroke:#ffffff;stroke-width:0.905998;stroke-linecap:round;stroke-miterlimit:4;stroke-dasharray:none;stroke-opacity:1;paint-order:markers stroke fill"
       id="g843"
       aria-label="R"
       transform="matrix(2,0,0,2,-787.0118,-588.82925)">
      <path
         id="path841"
         style="font-size:2.64583px;fill:#1f2123;fill-opacity:1;stroke:none;stroke-width:0.905998"
         d="m 419.57067,397.31944 q 0.0688,0.0767 0.16933,0.0767 0.0317,0 0.0714,-0.008 0.0238,0.0476 0.0238,0.0794 0,0.10055 -0.19844,0.10055 -0.0503,0 -0.10054,-0.0238 -0.0503,-0.0238 -0.10054,-0.082 -0.0503,-0.0582 -0.0873,-0.10319 -0.0344,-0.045 -0.0873,-0.14022 -0.0503,-0.0953 -0.0714,-0.13494 -0.0212,-0.0423 -0.0714,-0.15081 -0.0503,-0.11113 -0.0582,-0.127 -0.0741,-0.0106 -0.0741,-0.0582 0,-0.0238 0.0132,-0.0714 0.0741,0.0132 0.12435,0.0132 0.17727,0 0.27781,-0.10319 0.10055,-0.10583 0.10055,-0.28575 0,-0.21166 -0.11113,-0.29368 -0.11112,-0.0847 -0.34131,-0.0847 -0.0847,0 -0.20638,0.0106 0.0106,0.15346 0.0106,0.53975 v 0.53181 q 0,0.35719 0.0503,0.52388 -0.0476,0.0212 -0.12436,0.0212 -0.0767,0 -0.10318,-0.0344 -0.0265,-0.0344 -0.0265,-0.11642 0,-0.0423 0.003,-0.20902 0.003,-0.16669 0.003,-0.25929 v -0.52917 q 0,-0.36512 -0.0344,-0.60854 0.1958,-0.0318 0.39423,-0.0318 0.70908,0 0.70908,0.52652 0,0.21696 -0.11906,0.3519 -0.11906,0.13229 -0.31485,0.16933 0,0.003 0.045,0.0979 0.045,0.0952 0.0609,0.127 0.0185,0.0318 0.0556,0.10319 0.0371,0.0714 0.0635,0.11377 0.0291,0.0423 0.0556,0.0688 z" />
    </g>
    <g
       style="font-weight:bold;font-size:2.64583px;line-height:1.05;font-family:'Overlock SC';-inkscape-font-specification:'Overlock SC Bold';text-align:end;text-anchor:end;fill:#1f2123;fill-opacity:1;stroke:#ffffff;stroke-width:0.905998;stroke-linecap:round;stroke-miterlimit:4;stroke-dasharray:none;stroke-opacity:1;paint-order:markers stroke fill"
       id="g847"
       aria-label="3"
       transform="matrix(2,0,0,2,-787.0118,-588.82925)">
      <path
         id="path845"
         style="font-size:2.64583px;fill:#1f2123;fill-opacity:1;stroke:none;stroke-width:0.905998"
         d="m 420.12899,396.54753 q 0.24606,0 0.36777,-0.0926 0.12435,-0.0926 0.12435,-0.2196 0,-0.10054 -0.0741,-0.17462 -0.0714,-0.0767 -0.18785,-0.0767 -0.0926,0 -0.18257,0.0556 -0.0873,0.0556 -0.14022,0.15875 -0.0503,0 -0.082,-0.0265 -0.0317,-0.0265 -0.0317,-0.0609 0,-0.09 0.13493,-0.17992 0.13759,-0.0926 0.31221,-0.0926 0.20373,0 0.3175,0.11377 0.11642,0.11112 0.11642,0.26458 0,0.10583 -0.0661,0.20108 -0.0635,0.0926 -0.18785,0.14288 0.14287,0.045 0.22225,0.16139 0.082,0.11377 0.082,0.25929 0,0.23548 -0.17463,0.38365 -0.17462,0.15081 -0.47625,0.15081 -0.13229,0 -0.20373,-0.0397 -0.0688,-0.037 -0.0688,-0.0952 0,-0.0767 0.0873,-0.0979 0.0794,0.0794 0.2196,0.0794 0.20108,0 0.31485,-0.0979 0.11377,-0.0952 0.11377,-0.24606 0,-0.15875 -0.11906,-0.24871 -0.11906,-0.0926 -0.32544,-0.0926 -0.0503,0 -0.0741,-0.0159 -0.0212,-0.0159 -0.0212,-0.0767 z" />
    </g>
    <rect
       inkscape:export-ydpi="96"
       inkscape:export-xdpi="96"
       inkscape:export-filename="D:\Calcatz\Icon Pack\Adventure Narative Inspired by Arrival\GUI\Navigation Buttons\Xbox\Light\png\128px\r3.png"
       y="196.03329"
       x="64.920059"
       height="33.866665"
       width="33.866665"
       id="rect849"
       style="fill:#cccccc;fill-opacity:1;stroke-width:1.94314;stroke-linecap:round;paint-order:fill markers stroke" />
    <path
       d="m 81.853435,204.32941 a 8.6372672,8.6372672 0 0 1 8.637268,8.63724 8.6372672,8.6372672 0 0 1 -8.637268,8.63728 8.6372672,8.6372672 0 0 1 -8.637268,-8.63728 8.6372672,8.6372672 0 0 1 8.637268,-8.63724"
       style="fill:none;fill-opacity:1;stroke:#8c8c8c;stroke-width:1.104;stroke-linecap:round;stroke-miterlimit:4;stroke-dasharray:none;stroke-dashoffset:0;stroke-opacity:1;paint-order:fill markers stroke"
       id="path851" />
    <g
       transform="matrix(4,0,0,4,-1597.0961,-1373.6918)"
       aria-label="R"
       id="g855"
       style="font-weight:bold;font-size:2.64583px;line-height:1.05;font-family:'Overlock SC';-inkscape-font-specification:'Overlock SC Bold';text-align:end;text-anchor:end;fill:#1f2123;fill-opacity:1;stroke:#ffffff;stroke-width:0.905998;stroke-linecap:round;stroke-miterlimit:4;stroke-dasharray:none;stroke-opacity:1;paint-order:markers stroke fill">
      <path
         d="m 419.57067,397.31944 q 0.0688,0.0767 0.16933,0.0767 0.0317,0 0.0714,-0.008 0.0238,0.0476 0.0238,0.0794 0,0.10055 -0.19844,0.10055 -0.0503,0 -0.10054,-0.0238 -0.0503,-0.0238 -0.10054,-0.082 -0.0503,-0.0582 -0.0873,-0.10319 -0.0344,-0.045 -0.0873,-0.14022 -0.0503,-0.0953 -0.0714,-0.13494 -0.0212,-0.0423 -0.0714,-0.15081 -0.0503,-0.11113 -0.0582,-0.127 -0.0741,-0.0106 -0.0741,-0.0582 0,-0.0238 0.0132,-0.0714 0.0741,0.0132 0.12435,0.0132 0.17727,0 0.27781,-0.10319 0.10055,-0.10583 0.10055,-0.28575 0,-0.21166 -0.11113,-0.29368 -0.11112,-0.0847 -0.34131,-0.0847 -0.0847,0 -0.20638,0.0106 0.0106,0.15346 0.0106,0.53975 v 0.53181 q 0,0.35719 0.0503,0.52388 -0.0476,0.0212 -0.12436,0.0212 -0.0767,0 -0.10318,-0.0344 -0.0265,-0.0344 -0.0265,-0.11642 0,-0.0423 0.003,-0.20902 0.003,-0.16669 0.003,-0.25929 v -0.52917 q 0,-0.36512 -0.0344,-0.60854 0.1958,-0.0318 0.39423,-0.0318 0.70908,0 0.70908,0.52652 0,0.21696 -0.11906,0.3519 -0.11906,0.13229 -0.31485,0.16933 0,0.003 0.045,0.0979 0.045,0.0952 0.0609,0.127 0.0185,0.0318 0.0556,0.10319 0.0371,0.0714 0.0635,0.11377 0.0291,0.0423 0.0556,0.0688 z"
         style="font-size:2.64583px;fill:#1f2123;fill-opacity:1;stroke:none;stroke-width:0.905998"
         id="path853" />
    </g>
    <g
       transform="matrix(4,0,0,4,-1597.0961,-1373.6918)"
       aria-label="3"
       id="g859"
       style="font-weight:bold;font-size:2.64583px;line-height:1.05;font-family:'Overlock SC';-inkscape-font-specification:'Overlock SC Bold';text-align:end;text-anchor:end;fill:#1f2123;fill-opacity:1;stroke:#ffffff;stroke-width:0.905998;stroke-linecap:round;stroke-miterlimit:4;stroke-dasharray:none;stroke-opacity:1;paint-order:markers stroke fill">
      <path
         d="m 420.12899,396.54753 q 0.24606,0 0.36777,-0.0926 0.12435,-0.0926 0.12435,-0.2196 0,-0.10054 -0.0741,-0.17462 -0.0714,-0.0767 -0.18785,-0.0767 -0.0926,0 -0.18257,0.0556 -0.0873,0.0556 -0.14022,0.15875 -0.0503,0 -0.082,-0.0265 -0.0317,-0.0265 -0.0317,-0.0609 0,-0.09 0.13493,-0.17992 0.13759,-0.0926 0.31221,-0.0926 0.20373,0 0.3175,0.11377 0.11642,0.11112 0.11642,0.26458 0,0.10583 -0.0661,0.20108 -0.0635,0.0926 -0.18785,0.14288 0.14287,0.045 0.22225,0.16139 0.082,0.11377 0.082,0.25929 0,0.23548 -0.17463,0.38365 -0.17462,0.15081 -0.47625,0.15081 -0.13229,0 -0.20373,-0.0397 -0.0688,-0.037 -0.0688,-0.0952 0,-0.0767 0.0873,-0.0979 0.0794,0.0794 0.2196,0.0794 0.20108,0 0.31485,-0.0979 0.11377,-0.0952 0.11377,-0.24606 0,-0.15875 -0.11906,-0.24871 -0.11906,-0.0926 -0.32544,-0.0926 -0.0503,0 -0.0741,-0.0159 -0.0212,-0.0159 -0.0212,-0.0767 z"
         style="font-size:2.64583px;fill:#1f2123;fill-opacity:1;stroke:none;stroke-width:0.905998"
         id="path857" />
    </g>
    <rect
       inkscape:export-ydpi="96"
       inkscape:export-xdpi="96"
       inkscape:export-filename="D:\Calcatz\Icon Pack\Adventure Narative Inspired by Arrival\GUI\Navigation Buttons\Xbox\Light\png\256px\r3.png"
       style="fill:#cccccc;fill-opacity:1;stroke-width:3.88628;stroke-linecap:round;paint-order:fill markers stroke"
       id="rect861"
       width="67.73333"
       height="67.73333"
       x="103.73515"
       y="196.03329" />
    <path
       id="path863"
       style="fill:none;fill-opacity:1;stroke:#8c8c8c;stroke-width:2.208;stroke-linecap:round;stroke-miterlimit:4;stroke-dasharray:none;stroke-dashoffset:0;stroke-opacity:1;paint-order:fill markers stroke"
       d="m 137.60191,212.62553 a 17.274534,17.274534 0 0 1 17.27454,17.27448 17.274534,17.274534 0 0 1 -17.27454,17.27456 17.274534,17.274534 0 0 1 -17.27454,-17.27456 17.274534,17.274534 0 0 1 17.27454,-17.27448" />
    <g
       style="font-weight:bold;font-size:2.64583px;line-height:1.05;font-family:'Overlock SC';-inkscape-font-specification:'Overlock SC Bold';text-align:end;text-anchor:end;fill:#1f2123;fill-opacity:1;stroke:#ffffff;stroke-width:0.905998;stroke-linecap:round;stroke-miterlimit:4;stroke-dasharray:none;stroke-opacity:1;paint-order:markers stroke fill"
       id="g867"
       aria-label="R"
       transform="matrix(8,0,0,8,-3220.2972,-2943.4169)">
      <path
         id="path865"
         style="font-size:2.64583px;fill:#1f2123;fill-opacity:1;stroke:none;stroke-width:0.905998"
         d="m 419.57067,397.31944 q 0.0688,0.0767 0.16933,0.0767 0.0317,0 0.0714,-0.008 0.0238,0.0476 0.0238,0.0794 0,0.10055 -0.19844,0.10055 -0.0503,0 -0.10054,-0.0238 -0.0503,-0.0238 -0.10054,-0.082 -0.0503,-0.0582 -0.0873,-0.10319 -0.0344,-0.045 -0.0873,-0.14022 -0.0503,-0.0953 -0.0714,-0.13494 -0.0212,-0.0423 -0.0714,-0.15081 -0.0503,-0.11113 -0.0582,-0.127 -0.0741,-0.0106 -0.0741,-0.0582 0,-0.0238 0.0132,-0.0714 0.0741,0.0132 0.12435,0.0132 0.17727,0 0.27781,-0.10319 0.10055,-0.10583 0.10055,-0.28575 0,-0.21166 -0.11113,-0.29368 -0.11112,-0.0847 -0.34131,-0.0847 -0.0847,0 -0.20638,0.0106 0.0106,0.15346 0.0106,0.53975 v 0.53181 q 0,0.35719 0.0503,0.52388 -0.0476,0.0212 -0.12436,0.0212 -0.0767,0 -0.10318,-0.0344 -0.0265,-0.0344 -0.0265,-0.11642 0,-0.0423 0.003,-0.20902 0.003,-0.16669 0.003,-0.25929 v -0.52917 q 0,-0.36512 -0.0344,-0.60854 0.1958,-0.0318 0.39423,-0.0318 0.70908,0 0.70908,0.52652 0,0.21696 -0.11906,0.3519 -0.11906,0.13229 -0.31485,0.16933 0,0.003 0.045,0.0979 0.045,0.0952 0.0609,0.127 0.0185,0.0318 0.0556,0.10319 0.0371,0.0714 0.0635,0.11377 0.0291,0.0423 0.0556,0.0688 z" />
    </g>
    <g
       style="font-weight:bold;font-size:2.64583px;line-height:1.05;font-family:'Overlock SC';-inkscape-font-specification:'Overlock SC Bold';text-align:end;text-anchor:end;fill:#1f2123;fill-opacity:1;stroke:#ffffff;stroke-width:0.905998;stroke-linecap:round;stroke-miterlimit:4;stroke-dasharray:none;stroke-opacity:1;paint-order:markers stroke fill"
       id="g871"
       aria-label="3"
       transform="matrix(8,0,0,8,-3220.2972,-2943.4169)">
      <path
         id="path869"
         style="font-size:2.64583px;fill:#1f2123;fill-opacity:1;stroke:none;stroke-width:0.905998"
         d="m 420.12899,396.54753 q 0.24606,0 0.36777,-0.0926 0.12435,-0.0926 0.12435,-0.2196 0,-0.10054 -0.0741,-0.17462 -0.0714,-0.0767 -0.18785,-0.0767 -0.0926,0 -0.18257,0.0556 -0.0873,0.0556 -0.14022,0.15875 -0.0503,0 -0.082,-0.0265 -0.0317,-0.0265 -0.0317,-0.0609 0,-0.09 0.13493,-0.17992 0.13759,-0.0926 0.31221,-0.0926 0.20373,0 0.3175,0.11377 0.11642,0.11112 0.11642,0.26458 0,0.10583 -0.0661,0.20108 -0.0635,0.0926 -0.18785,0.14288 0.14287,0.045 0.22225,0.16139 0.082,0.11377 0.082,0.25929 0,0.23548 -0.17463,0.38365 -0.17462,0.15081 -0.47625,0.15081 -0.13229,0 -0.20373,-0.0397 -0.0688,-0.037 -0.0688,-0.0952 0,-0.0767 0.0873,-0.0979 0.0794,0.0794 0.2196,0.0794 0.20108,0 0.31485,-0.0979 0.11377,-0.0952 0.11377,-0.24606 0,-0.15875 -0.11906,-0.24871 -0.11906,-0.0926 -0.32544,-0.0926 -0.0503,0 -0.0741,-0.0159 -0.0212,-0.0159 -0.0212,-0.0767 z" />
    </g>
  </g>
</svg>
