<?xml version="1.0" encoding="UTF-8" standalone="no"?>
<svg
   xmlns:dc="http://purl.org/dc/elements/1.1/"
   xmlns:cc="http://creativecommons.org/ns#"
   xmlns:rdf="http://www.w3.org/1999/02/22-rdf-syntax-ns#"
   xmlns:svg="http://www.w3.org/2000/svg"
   xmlns="http://www.w3.org/2000/svg"
   xmlns:sodipodi="http://sodipodi.sourceforge.net/DTD/sodipodi-0.dtd"
   xmlns:inkscape="http://www.inkscape.org/namespaces/inkscape"
   width="31.999998"
   height="31.999998"
   viewBox="0 0 8.466666 8.466666"
   version="1.1"
   id="svg2489"
   inkscape:version="1.0 (4035a4fb49, 2020-05-01)"
   sodipodi:docname="rb.svg"
   inkscape:export-filename="D:\Calcatz\Icon Pack\Adventure Narative Inspired by Arrival\GUI\Navigation Buttons\Xbox\Light\png\rb.png"
   inkscape:export-xdpi="96"
   inkscape:export-ydpi="96">
  <defs
     id="defs2483" />
  <sodipodi:namedview
     id="base"
     pagecolor="#ffffff"
     bordercolor="#666666"
     borderopacity="1.0"
     inkscape:pageopacity="0.0"
     inkscape:pageshadow="2"
     inkscape:zoom="1.2339194"
     inkscape:cx="186.34745"
     inkscape:cy="157.44174"
     inkscape:document-units="mm"
     inkscape:current-layer="layer1"
     inkscape:document-rotation="0"
     showgrid="false"
     fit-margin-top="0"
     fit-margin-left="0"
     fit-margin-right="0"
     fit-margin-bottom="0"
     inkscape:window-width="1366"
     inkscape:window-height="705"
     inkscape:window-x="-8"
     inkscape:window-y="-8"
     inkscape:window-maximized="1"
     units="px" />
  <metadata
     id="metadata2486">
    <rdf:RDF>
      <cc:Work
         rdf:about="">
        <dc:format>image/svg+xml</dc:format>
        <dc:type
           rdf:resource="http://purl.org/dc/dcmitype/StillImage" />
        <dc:title />
      </cc:Work>
    </rdf:RDF>
  </metadata>
  <g
     inkscape:label="Layer 1"
     inkscape:groupmode="layer"
     id="layer1"
     transform="translate(-101.59999,-143.93333)">
    <rect
       y="143.93333"
       x="101.59999"
       height="8.4666662"
       width="8.4666662"
       id="rect833"
       style="fill:#cccccc;fill-opacity:1;stroke-width:0.193633;stroke-linecap:round;paint-order:fill markers stroke" />
    <path
       id="path3066"
       style="font-weight:bold;font-size:2.11667px;line-height:1.05;font-family:'Overlock SC';-inkscape-font-specification:'Overlock SC Bold';text-align:end;text-anchor:end;fill:#1f2123;fill-opacity:1;stroke:none;stroke-width:0.905997;stroke-linecap:round;stroke-miterlimit:4;stroke-dasharray:none;stroke-opacity:1;paint-order:markers stroke fill"
       d="m 105.5716,148.69053 q 0.055,0.0614 0.13546,0.0614 0.0254,0 0.0572,-0.006 0.019,0.0381 0.019,0.0635 0,0.0804 -0.15875,0.0804 -0.0402,0 -0.0804,-0.019 -0.0402,-0.019 -0.0804,-0.0656 -0.0402,-0.0466 -0.0699,-0.0825 -0.0275,-0.036 -0.0699,-0.11218 -0.0402,-0.0762 -0.0571,-0.10795 -0.0169,-0.0339 -0.0572,-0.12065 -0.0402,-0.0889 -0.0466,-0.1016 -0.0593,-0.008 -0.0593,-0.0466 0,-0.019 0.0106,-0.0572 0.0593,0.0106 0.0995,0.0106 0.14182,0 0.22225,-0.0825 0.0804,-0.0847 0.0804,-0.2286 0,-0.16933 -0.0889,-0.23495 -0.0889,-0.0677 -0.27305,-0.0677 -0.0677,0 -0.1651,0.008 0.008,0.12276 0.008,0.4318 v 0.42545 q 0,0.28575 0.0402,0.4191 -0.0381,0.0169 -0.0995,0.0169 -0.0614,0 -0.0825,-0.0275 -0.0212,-0.0275 -0.0212,-0.0931 0,-0.0339 0.002,-0.16722 0.002,-0.13335 0.002,-0.20743 v -0.42333 q 0,-0.2921 -0.0275,-0.48684 0.15664,-0.0254 0.31539,-0.0254 0.56726,0 0.56726,0.42122 0,0.17357 -0.0953,0.28152 -0.0952,0.10583 -0.25188,0.13546 0,0.002 0.036,0.0783 0.036,0.0762 0.0487,0.1016 0.0148,0.0254 0.0444,0.0825 0.0296,0.0572 0.0508,0.091 0.0233,0.0339 0.0444,0.055 z" />
    <path
       id="path3068"
       style="font-weight:bold;font-size:2.11667px;line-height:1.05;font-family:'Overlock SC';-inkscape-font-specification:'Overlock SC Bold';text-align:end;text-anchor:end;fill:#1f2123;fill-opacity:1;stroke:none;stroke-width:0.905997;stroke-linecap:round;stroke-miterlimit:4;stroke-dasharray:none;stroke-opacity:1;paint-order:markers stroke fill"
       d="m 106.26649,147.57293 q -0.0508,0 -0.14393,0.008 0.008,0.1778 0.008,0.47625 0.0677,0.004 0.11641,0.004 0.3937,0 0.3937,-0.2413 0,-0.24765 -0.37465,-0.24765 z m 0.1016,1.18745 q 0.13759,0 0.23072,-0.0762 0.0931,-0.0783 0.0931,-0.21167 0,-0.14816 -0.10583,-0.22648 -0.10372,-0.0783 -0.25612,-0.0783 -0.13758,0 -0.20108,0.0106 0,0.16933 -0.0275,0.50588 0.0402,0.0317 0.11642,0.055 0.0783,0.0212 0.15028,0.0212 z m -0.42968,-0.004 q 0.0339,-0.2413 0.0339,-0.70697 0,-0.3937 -0.0275,-0.57997 0.15663,-0.0254 0.33655,-0.0254 0.23072,0 0.37677,0.0847 0.14605,0.0847 0.14605,0.2794 0,0.21167 -0.18415,0.29422 0.23495,0.0995 0.23495,0.36195 0,0.20108 -0.13124,0.31327 -0.12911,0.11218 -0.3175,0.11218 -0.30691,0 -0.46778,-0.13335 z" />
    <path
       sodipodi:nodetypes="cccssc"
       d="m 103.80596,146.71585 v 2.90164 h 4.05479 v -1.44471 c 0,-0.63992 -0.81907,-1.45695 -1.45693,-1.45695 z"
       style="fill:none;fill-opacity:1;stroke:#8c8c8c;stroke-width:0.276;stroke-linecap:round;stroke-miterlimit:4;stroke-dasharray:none;stroke-opacity:1;paint-order:markers stroke fill"
       id="path5500" />
    <rect
       inkscape:export-ydpi="96"
       inkscape:export-xdpi="96"
       inkscape:export-filename="D:\Calcatz\Icon Pack\Adventure Narative Inspired by Arrival\GUI\Navigation Buttons\Xbox\Light\png\64px\rb.png"
       style="fill:#cccccc;fill-opacity:1;stroke-width:0.387266;stroke-linecap:round;paint-order:fill markers stroke"
       id="rect835"
       width="16.933332"
       height="16.933332"
       x="112.21349"
       y="143.93333" />
    <path
       d="m 120.15671,153.44773 q 0.11,0.1228 0.27092,0.1228 0.0508,0 0.1144,-0.012 0.038,0.0762 0.038,0.127 0,0.1608 -0.3175,0.1608 -0.0804,0 -0.1608,-0.038 -0.0804,-0.038 -0.1608,-0.1312 -0.0804,-0.0932 -0.1398,-0.165 -0.055,-0.072 -0.1398,-0.22436 -0.0804,-0.1524 -0.1142,-0.2159 -0.0338,-0.0678 -0.1144,-0.2413 -0.0804,-0.1778 -0.0932,-0.2032 -0.1186,-0.016 -0.1186,-0.0932 0,-0.038 0.0212,-0.1144 0.1186,0.0212 0.199,0.0212 0.28364,0 0.4445,-0.165 0.1608,-0.1694 0.1608,-0.4572 0,-0.33866 -0.1778,-0.4699 -0.1778,-0.1354 -0.5461,-0.1354 -0.1354,0 -0.3302,0.016 0.016,0.24552 0.016,0.8636 v 0.8509 q 0,0.5715 0.0804,0.8382 -0.0762,0.0338 -0.199,0.0338 -0.1228,0 -0.165,-0.055 -0.0424,-0.055 -0.0424,-0.1862 0,-0.0678 0.004,-0.33444 0.004,-0.2667 0.004,-0.41486 v -0.84666 q 0,-0.5842 -0.055,-0.97368 0.31328,-0.0508 0.63078,-0.0508 1.13452,0 1.13452,0.84244 0,0.34714 -0.1906,0.56304 -0.1904,0.21166 -0.50376,0.27092 0,0.004 0.072,0.1566 0.072,0.1524 0.0974,0.2032 0.0296,0.0508 0.0888,0.165 0.0592,0.1144 0.1016,0.182 0.0466,0.0678 0.0888,0.11 z"
       style="font-weight:bold;font-size:2.11667px;line-height:1.05;font-family:'Overlock SC';-inkscape-font-specification:'Overlock SC Bold';text-align:end;text-anchor:end;fill:#1f2123;fill-opacity:1;stroke:none;stroke-width:1.81199;stroke-linecap:round;stroke-miterlimit:4;stroke-dasharray:none;stroke-opacity:1;paint-order:markers stroke fill"
       id="path837" />
    <path
       d="m 121.54649,151.21253 q -0.1016,0 -0.28786,0.016 0.016,0.3556 0.016,0.9525 0.1354,0.008 0.23282,0.008 0.7874,0 0.7874,-0.4826 0,-0.4953 -0.7493,-0.4953 z m 0.2032,2.3749 q 0.27518,0 0.46144,-0.1524 0.1862,-0.1566 0.1862,-0.42334 0,-0.29632 -0.21166,-0.45296 -0.20744,-0.1566 -0.51224,-0.1566 -0.27516,0 -0.40216,0.0212 0,0.33866 -0.055,1.01176 0.0804,0.0634 0.23284,0.11 0.1566,0.0424 0.30056,0.0424 z m -0.85936,-0.008 q 0.0678,-0.4826 0.0678,-1.41394 0,-0.7874 -0.055,-1.15994 0.31326,-0.0508 0.6731,-0.0508 0.46144,0 0.75354,0.1694 0.2921,0.1694 0.2921,0.5588 0,0.42334 -0.3683,0.58844 0.4699,0.199 0.4699,0.7239 0,0.40216 -0.26248,0.62654 -0.25822,0.22436 -0.635,0.22436 -0.61382,0 -0.93556,-0.2667 z"
       style="font-weight:bold;font-size:2.11667px;line-height:1.05;font-family:'Overlock SC';-inkscape-font-specification:'Overlock SC Bold';text-align:end;text-anchor:end;fill:#1f2123;fill-opacity:1;stroke:none;stroke-width:1.81199;stroke-linecap:round;stroke-miterlimit:4;stroke-dasharray:none;stroke-opacity:1;paint-order:markers stroke fill"
       id="path839" />
    <path
       id="path841"
       style="fill:none;fill-opacity:1;stroke:#8c8c8c;stroke-width:0.552;stroke-linecap:round;stroke-miterlimit:4;stroke-dasharray:none;stroke-opacity:1;paint-order:markers stroke fill"
       d="m 116.62543,149.49837 v 5.80328 h 8.10958 v -2.88942 c 0,-1.27984 -1.63814,-2.9139 -2.91386,-2.9139 z"
       sodipodi:nodetypes="cccssc" />
    <rect
       inkscape:export-ydpi="96"
       inkscape:export-xdpi="96"
       inkscape:export-filename="D:\Calcatz\Icon Pack\Adventure Narative Inspired by Arrival\GUI\Navigation Buttons\Xbox\Light\png\128px\rb.png"
       y="143.93333"
       x="131.62105"
       height="33.866665"
       width="33.866665"
       id="rect843"
       style="fill:#cccccc;fill-opacity:1;stroke-width:0.774532;stroke-linecap:round;paint-order:fill markers stroke" />
    <path
       id="path845"
       style="font-weight:bold;font-size:2.11667px;line-height:1.05;font-family:'Overlock SC';-inkscape-font-specification:'Overlock SC Bold';text-align:end;text-anchor:end;fill:#1f2123;fill-opacity:1;stroke:none;stroke-width:3.62398;stroke-linecap:round;stroke-miterlimit:4;stroke-dasharray:none;stroke-opacity:1;paint-order:markers stroke fill"
       d="m 147.50747,162.96213 q 0.22,0.2456 0.54184,0.2456 0.1016,0 0.2288,-0.024 0.076,0.1524 0.076,0.254 0,0.3216 -0.635,0.3216 -0.1608,0 -0.3216,-0.076 -0.1608,-0.076 -0.3216,-0.2624 -0.1608,-0.1864 -0.2796,-0.33 -0.11,-0.144 -0.2796,-0.44872 -0.1608,-0.3048 -0.2284,-0.4318 -0.0676,-0.1356 -0.2288,-0.4826 -0.1608,-0.3556 -0.1864,-0.4064 -0.2372,-0.032 -0.2372,-0.1864 0,-0.076 0.0424,-0.2288 0.2372,0.0424 0.398,0.0424 0.56728,0 0.889,-0.33 0.3216,-0.3388 0.3216,-0.9144 0,-0.67732 -0.3556,-0.9398 -0.3556,-0.2708 -1.0922,-0.2708 -0.2708,0 -0.6604,0.032 0.032,0.49104 0.032,1.7272 v 1.7018 q 0,1.143 0.1608,1.6764 -0.1524,0.0676 -0.398,0.0676 -0.2456,0 -0.33,-0.11 -0.0848,-0.11 -0.0848,-0.3724 0,-0.1356 0.008,-0.66888 0.008,-0.5334 0.008,-0.82972 v -1.69332 q 0,-1.1684 -0.11,-1.94736 0.62656,-0.1016 1.26156,-0.1016 2.26904,0 2.26904,1.68488 0,0.69428 -0.3812,1.12608 -0.3808,0.42332 -1.00752,0.54184 0,0.008 0.144,0.3132 0.144,0.3048 0.1948,0.4064 0.0592,0.1016 0.1776,0.33 0.1184,0.2288 0.2032,0.364 0.0932,0.1356 0.1776,0.22 z" />
    <path
       id="path847"
       style="font-weight:bold;font-size:2.11667px;line-height:1.05;font-family:'Overlock SC';-inkscape-font-specification:'Overlock SC Bold';text-align:end;text-anchor:end;fill:#1f2123;fill-opacity:1;stroke:none;stroke-width:3.62398;stroke-linecap:round;stroke-miterlimit:4;stroke-dasharray:none;stroke-opacity:1;paint-order:markers stroke fill"
       d="m 150.28703,158.49173 q -0.2032,0 -0.57572,0.032 0.032,0.7112 0.032,1.905 0.2708,0.016 0.46564,0.016 1.5748,0 1.5748,-0.9652 0,-0.9906 -1.4986,-0.9906 z m 0.4064,4.7498 q 0.55036,0 0.92288,-0.3048 0.3724,-0.3132 0.3724,-0.84668 0,-0.59264 -0.42332,-0.90592 -0.41488,-0.3132 -1.02448,-0.3132 -0.55032,0 -0.80432,0.0424 0,0.67732 -0.11,2.02352 0.1608,0.1268 0.46568,0.22 0.3132,0.0848 0.60112,0.0848 z m -1.71872,-0.016 q 0.1356,-0.9652 0.1356,-2.82788 0,-1.5748 -0.11,-2.31988 0.62652,-0.1016 1.3462,-0.1016 0.92288,0 1.50708,0.3388 0.5842,0.3388 0.5842,1.1176 0,0.84668 -0.7366,1.17688 0.9398,0.398 0.9398,1.4478 0,0.80432 -0.52496,1.25308 -0.51644,0.44872 -1.27,0.44872 -1.22764,0 -1.87112,-0.5334 z" />
    <path
       sodipodi:nodetypes="cccssc"
       d="m 140.44491,155.06341 v 11.60656 h 16.21916 v -5.77884 c 0,-2.55968 -3.27628,-5.8278 -5.82772,-5.8278 z"
       style="fill:none;fill-opacity:1;stroke:#8c8c8c;stroke-width:1.104;stroke-linecap:round;stroke-miterlimit:4;stroke-dasharray:none;stroke-opacity:1;paint-order:markers stroke fill"
       id="path849" />
    <rect
       inkscape:export-ydpi="96"
       inkscape:export-xdpi="96"
       inkscape:export-filename="D:\Calcatz\Icon Pack\Adventure Narative Inspired by Arrival\GUI\Navigation Buttons\Xbox\Light\png\256px\rb.png"
       style="fill:#cccccc;fill-opacity:1;stroke-width:1.54906;stroke-linecap:round;paint-order:fill markers stroke"
       id="rect851"
       width="67.73333"
       height="67.73333"
       x="170.64642"
       y="143.93333" />
    <path
       d="m 202.41928,181.99093 q 0.44,0.4912 1.08368,0.4912 0.2032,0 0.4576,-0.048 0.152,0.3048 0.152,0.508 0,0.6432 -1.27,0.6432 -0.3216,0 -0.6432,-0.152 -0.3216,-0.152 -0.6432,-0.5248 -0.3216,-0.3728 -0.5592,-0.66 -0.22,-0.288 -0.5592,-0.89744 -0.3216,-0.6096 -0.4568,-0.8636 -0.1352,-0.2712 -0.4576,-0.9652 -0.3216,-0.7112 -0.3728,-0.8128 -0.4744,-0.064 -0.4744,-0.3728 0,-0.152 0.0848,-0.4576 0.4744,0.0848 0.796,0.0848 1.13456,0 1.778,-0.66 0.6432,-0.6776 0.6432,-1.8288 0,-1.35464 -0.7112,-1.8796 -0.7112,-0.5416 -2.1844,-0.5416 -0.5416,0 -1.3208,0.064 0.064,0.98208 0.064,3.4544 v 3.4036 q 0,2.286 0.3216,3.3528 -0.3048,0.1352 -0.796,0.1352 -0.4912,0 -0.66,-0.22 -0.1696,-0.22 -0.1696,-0.7448 0,-0.2712 0.016,-1.33776 0.016,-1.0668 0.016,-1.65944 v -3.38664 q 0,-2.3368 -0.22,-3.89472 1.25312,-0.2032 2.52312,-0.2032 4.53808,0 4.53808,3.36976 0,1.38856 -0.7624,2.25216 -0.7616,0.84664 -2.01504,1.08368 0,0.016 0.288,0.6264 0.288,0.6096 0.3896,0.8128 0.1184,0.2032 0.3552,0.66 0.2368,0.4576 0.4064,0.728 0.1864,0.2712 0.3552,0.44 z"
       style="font-weight:bold;font-size:2.11667px;line-height:1.05;font-family:'Overlock SC';-inkscape-font-specification:'Overlock SC Bold';text-align:end;text-anchor:end;fill:#1f2123;fill-opacity:1;stroke:none;stroke-width:7.24796;stroke-linecap:round;stroke-miterlimit:4;stroke-dasharray:none;stroke-opacity:1;paint-order:markers stroke fill"
       id="path853" />
    <path
       d="m 207.9784,173.05013 q -0.4064,0 -1.15144,0.064 0.064,1.4224 0.064,3.81 0.5416,0.032 0.93128,0.032 3.1496,0 3.1496,-1.9304 0,-1.9812 -2.9972,-1.9812 z m 0.8128,9.4996 q 1.10072,0 1.84576,-0.6096 0.7448,-0.6264 0.7448,-1.69336 0,-1.18528 -0.84664,-1.81184 -0.82976,-0.6264 -2.04896,-0.6264 -1.10064,0 -1.60864,0.0848 0,1.35464 -0.22,4.04704 0.3216,0.2536 0.93136,0.44 0.6264,0.1696 1.20224,0.1696 z m -3.43744,-0.032 q 0.2712,-1.9304 0.2712,-5.65576 0,-3.1496 -0.22,-4.63976 1.25304,-0.2032 2.6924,-0.2032 1.84576,0 3.01416,0.6776 1.1684,0.6776 1.1684,2.2352 0,1.69336 -1.4732,2.35376 1.8796,0.796 1.8796,2.8956 0,1.60864 -1.04992,2.50616 -1.03288,0.89744 -2.54,0.89744 -2.45528,0 -3.74224,-1.0668 z"
       style="font-weight:bold;font-size:2.11667px;line-height:1.05;font-family:'Overlock SC';-inkscape-font-specification:'Overlock SC Bold';text-align:end;text-anchor:end;fill:#1f2123;fill-opacity:1;stroke:none;stroke-width:7.24796;stroke-linecap:round;stroke-miterlimit:4;stroke-dasharray:none;stroke-opacity:1;paint-order:markers stroke fill"
       id="path855" />
    <path
       id="path857"
       style="fill:none;fill-opacity:1;stroke:#8c8c8c;stroke-width:2.208;stroke-linecap:round;stroke-miterlimit:4;stroke-dasharray:none;stroke-opacity:1;paint-order:markers stroke fill"
       d="m 188.29416,166.19349 v 23.21312 h 32.43832 v -11.55768 c 0,-5.11936 -6.55256,-11.6556 -11.65544,-11.6556 z"
       sodipodi:nodetypes="cccssc" />
  </g>
</svg>
