<?xml version="1.0" encoding="UTF-8" standalone="no"?>
<svg
   xmlns:dc="http://purl.org/dc/elements/1.1/"
   xmlns:cc="http://creativecommons.org/ns#"
   xmlns:rdf="http://www.w3.org/1999/02/22-rdf-syntax-ns#"
   xmlns:svg="http://www.w3.org/2000/svg"
   xmlns="http://www.w3.org/2000/svg"
   xmlns:sodipodi="http://sodipodi.sourceforge.net/DTD/sodipodi-0.dtd"
   xmlns:inkscape="http://www.inkscape.org/namespaces/inkscape"
   inkscape:export-ydpi="96"
   inkscape:export-xdpi="96"
   inkscape:export-filename="D:\Calcatz\Icon Pack\Adventure Narative Inspired by Arrival\GUI\Navigation Buttons\Xbox\Light\png\rstick_right.png"
   sodipodi:docname="rstick_right.svg"
   inkscape:version="1.0 (4035a4fb49, 2020-05-01)"
   id="svg3666"
   version="1.1"
   viewBox="0 0 8.4666662 8.4666662"
   height="31.999998"
   width="31.999998">
  <defs
     id="defs3660" />
  <sodipodi:namedview
     inkscape:window-maximized="1"
     inkscape:window-y="-8"
     inkscape:window-x="-8"
     inkscape:window-height="705"
     inkscape:window-width="1366"
     fit-margin-bottom="0"
     fit-margin-right="0"
     fit-margin-left="0"
     fit-margin-top="0"
     showgrid="false"
     inkscape:document-rotation="0"
     inkscape:current-layer="layer1"
     inkscape:document-units="mm"
     inkscape:cy="121.97828"
     inkscape:cx="275.80271"
     inkscape:zoom="1.7450255"
     inkscape:pageshadow="2"
     inkscape:pageopacity="0.0"
     borderopacity="1.0"
     bordercolor="#666666"
     pagecolor="#ffffff"
     id="base"
     units="px" />
  <metadata
     id="metadata3663">
    <rdf:RDF>
      <cc:Work
         rdf:about="">
        <dc:format>image/svg+xml</dc:format>
        <dc:type
           rdf:resource="http://purl.org/dc/dcmitype/StillImage" />
        <dc:title />
      </cc:Work>
    </rdf:RDF>
  </metadata>
  <g
     transform="translate(115.40496,-43.073742)"
     id="layer1"
     inkscape:groupmode="layer"
     inkscape:label="Layer 1">
    <rect
       y="43.073742"
       x="-115.40496"
       height="8.4666662"
       width="8.4666662"
       id="rect834"
       style="fill:#cccccc;fill-opacity:1;stroke-width:0.330164;stroke-linecap:round;paint-order:fill markers stroke" />
    <path
       d="m -109.5158,47.980633 v -0.650544 -0.650544 l 0.5536,0.325272 0.55359,0.325272 -0.55359,0.325272 z"
       inkscape:transform-center-y="-8.8886874e-06"
       inkscape:transform-center-x="-0.18453202"
       style="fill:#1f2123;fill-opacity:1;stroke:none;stroke-width:0.276;stroke-linecap:round;stroke-miterlimit:4;stroke-dasharray:none;stroke-opacity:1;paint-order:markers stroke fill"
       id="path4900" />
    <path
       d="m -109.3016,48.386742 a 2.1593168,2.1593168 0 0 1 -2.4289,1.006081 2.1593168,2.1593168 0 0 1 -1.60044,-2.08574 2.1593168,2.1593168 0 0 1 1.60044,-2.08574 2.1593168,2.1593168 0 0 1 2.4289,1.006082"
       style="fill:none;fill-opacity:1;stroke:#8c8c8c;stroke-width:0.276;stroke-linecap:round;stroke-miterlimit:4;stroke-dasharray:none;stroke-dashoffset:0;stroke-opacity:1;paint-order:fill markers stroke"
       id="path5444" />
    <g
       style="font-weight:bold;font-size:2.64583px;line-height:1.05;font-family:'Overlock SC';-inkscape-font-specification:'Overlock SC Bold';text-align:end;text-anchor:end;fill:#1f2123;fill-opacity:1;stroke:#ffffff;stroke-width:0.905997;stroke-linecap:round;stroke-miterlimit:4;stroke-dasharray:none;stroke-opacity:1;paint-order:markers stroke fill"
       id="text4898"
       aria-label="R">
      <path
         id="path4259"
         style="font-size:2.64583px;fill:#1f2123;fill-opacity:1;stroke:none;stroke-width:0.905997"
         d="m -110.82898,47.961909 q 0.0688,0.07673 0.16933,0.07673 0.0318,0 0.0714,-0.0079 0.0238,0.04762 0.0238,0.07937 0,0.100542 -0.19844,0.100542 -0.0503,0 -0.10054,-0.02381 -0.0503,-0.02381 -0.10054,-0.08202 -0.0503,-0.05821 -0.0873,-0.103187 -0.0344,-0.04498 -0.0873,-0.140229 -0.0503,-0.09525 -0.0714,-0.134937 -0.0212,-0.04233 -0.0714,-0.150813 -0.0503,-0.111124 -0.0582,-0.126999 -0.0741,-0.01058 -0.0741,-0.05821 0,-0.02381 0.0132,-0.07144 0.0741,0.01323 0.12435,0.01323 0.17727,0 0.27781,-0.103187 0.10054,-0.105833 0.10054,-0.28575 0,-0.211666 -0.11112,-0.293687 -0.11113,-0.08467 -0.34131,-0.08467 -0.0847,0 -0.20638,0.01058 0.0106,0.153458 0.0106,0.539749 v 0.531812 q 0,0.357187 0.0503,0.523874 -0.0476,0.02117 -0.12436,0.02117 -0.0767,0 -0.10318,-0.0344 -0.0265,-0.0344 -0.0265,-0.116416 0,-0.04233 0.003,-0.209021 0.003,-0.166687 0.003,-0.259291 v -0.529166 q 0,-0.365125 -0.0344,-0.608541 0.19579,-0.03175 0.39423,-0.03175 0.70908,0 0.70908,0.52652 0,0.216958 -0.11906,0.351895 -0.11906,0.132292 -0.31485,0.169333 0,0.0026 0.045,0.0979 0.045,0.09525 0.0609,0.127 0.0185,0.03175 0.0556,0.103187 0.037,0.07144 0.0635,0.113771 0.0291,0.04233 0.0556,0.06879 z" />
    </g>
    <rect
       inkscape:export-ydpi="96"
       inkscape:export-xdpi="96"
       inkscape:export-filename="D:\Calcatz\Icon Pack\Adventure Narative Inspired by Arrival\GUI\Navigation Buttons\Xbox\Light\png\64px\rstick_right.png"
       style="fill:#cccccc;fill-opacity:1;stroke-width:0.660328;stroke-linecap:round;paint-order:fill markers stroke"
       id="rect836"
       width="16.933332"
       height="16.933332"
       x="-105.92862"
       y="43.073742" />
    <path
       id="path838"
       style="fill:#1f2123;fill-opacity:1;stroke:none;stroke-width:0.552;stroke-linecap:round;stroke-miterlimit:4;stroke-dasharray:none;stroke-opacity:1;paint-order:markers stroke fill"
       inkscape:transform-center-x="-0.36906366"
       inkscape:transform-center-y="-1.7864533e-05"
       d="m -94.150301,52.887524 v -1.301088 -1.301088 l 1.107204,0.650544 1.10718,0.650544 -1.10718,0.650544 z" />
    <path
       id="path840"
       style="fill:none;fill-opacity:1;stroke:#8c8c8c;stroke-width:0.552;stroke-linecap:round;stroke-miterlimit:4;stroke-dasharray:none;stroke-dashoffset:0;stroke-opacity:1;paint-order:fill markers stroke"
       d="m -93.721897,53.699742 a 4.3186336,4.3186336 0 0 1 -4.857804,2.012162 4.3186336,4.3186336 0 0 1 -3.200879,-4.17148 4.3186336,4.3186336 0 0 1 3.200879,-4.17148 4.3186336,4.3186336 0 0 1 4.857804,2.012164" />
    <g
       transform="matrix(2,0,0,2,124.8813,-43.073742)"
       aria-label="R"
       id="g844"
       style="font-weight:bold;font-size:2.64583px;line-height:1.05;font-family:'Overlock SC';-inkscape-font-specification:'Overlock SC Bold';text-align:end;text-anchor:end;fill:#1f2123;fill-opacity:1;stroke:#ffffff;stroke-width:0.905997;stroke-linecap:round;stroke-miterlimit:4;stroke-dasharray:none;stroke-opacity:1;paint-order:markers stroke fill">
      <path
         d="m -110.82898,47.961909 q 0.0688,0.07673 0.16933,0.07673 0.0318,0 0.0714,-0.0079 0.0238,0.04762 0.0238,0.07937 0,0.100542 -0.19844,0.100542 -0.0503,0 -0.10054,-0.02381 -0.0503,-0.02381 -0.10054,-0.08202 -0.0503,-0.05821 -0.0873,-0.103187 -0.0344,-0.04498 -0.0873,-0.140229 -0.0503,-0.09525 -0.0714,-0.134937 -0.0212,-0.04233 -0.0714,-0.150813 -0.0503,-0.111124 -0.0582,-0.126999 -0.0741,-0.01058 -0.0741,-0.05821 0,-0.02381 0.0132,-0.07144 0.0741,0.01323 0.12435,0.01323 0.17727,0 0.27781,-0.103187 0.10054,-0.105833 0.10054,-0.28575 0,-0.211666 -0.11112,-0.293687 -0.11113,-0.08467 -0.34131,-0.08467 -0.0847,0 -0.20638,0.01058 0.0106,0.153458 0.0106,0.539749 v 0.531812 q 0,0.357187 0.0503,0.523874 -0.0476,0.02117 -0.12436,0.02117 -0.0767,0 -0.10318,-0.0344 -0.0265,-0.0344 -0.0265,-0.116416 0,-0.04233 0.003,-0.209021 0.003,-0.166687 0.003,-0.259291 v -0.529166 q 0,-0.365125 -0.0344,-0.608541 0.19579,-0.03175 0.39423,-0.03175 0.70908,0 0.70908,0.52652 0,0.216958 -0.11906,0.351895 -0.11906,0.132292 -0.31485,0.169333 0,0.0026 0.045,0.0979 0.045,0.09525 0.0609,0.127 0.0185,0.03175 0.0556,0.103187 0.037,0.07144 0.0635,0.113771 0.0291,0.04233 0.0556,0.06879 z"
         style="font-size:2.64583px;fill:#1f2123;fill-opacity:1;stroke:none;stroke-width:0.905997"
         id="path842" />
    </g>
    <rect
       inkscape:export-ydpi="96"
       inkscape:export-xdpi="96"
       inkscape:export-filename="D:\Calcatz\Icon Pack\Adventure Narative Inspired by Arrival\GUI\Navigation Buttons\Xbox\Light\png\128px\rstick_right.png"
       y="43.073742"
       x="-85.558228"
       height="33.866665"
       width="33.866665"
       id="rect846"
       style="fill:#cccccc;fill-opacity:1;stroke-width:1.32066;stroke-linecap:round;paint-order:fill markers stroke" />
    <path
       d="M -62.001598,62.701306 V 60.09913 57.496954 l 2.214408,1.301088 2.21436,1.301088 -2.21436,1.301088 z"
       inkscape:transform-center-y="-3.5816224e-05"
       inkscape:transform-center-x="-0.73812778"
       style="fill:#1f2123;fill-opacity:1;stroke:none;stroke-width:1.104;stroke-linecap:round;stroke-miterlimit:4;stroke-dasharray:none;stroke-opacity:1;paint-order:markers stroke fill"
       id="path848" />
    <path
       d="m -61.14479,64.325742 a 8.6372672,8.6372672 0 0 1 -9.715608,4.024324 8.6372672,8.6372672 0 0 1 -6.401758,-8.34296 8.6372672,8.6372672 0 0 1 6.401758,-8.34296 8.6372672,8.6372672 0 0 1 9.715608,4.024328"
       style="fill:none;fill-opacity:1;stroke:#8c8c8c;stroke-width:1.104;stroke-linecap:round;stroke-miterlimit:4;stroke-dasharray:none;stroke-dashoffset:0;stroke-opacity:1;paint-order:fill markers stroke"
       id="path850" />
    <g
       style="font-weight:bold;font-size:2.64583px;line-height:1.05;font-family:'Overlock SC';-inkscape-font-specification:'Overlock SC Bold';text-align:end;text-anchor:end;fill:#1f2123;fill-opacity:1;stroke:#ffffff;stroke-width:0.905997;stroke-linecap:round;stroke-miterlimit:4;stroke-dasharray:none;stroke-opacity:1;paint-order:markers stroke fill"
       id="g854"
       aria-label="R"
       transform="matrix(4,0,0,4,376.06161,-129.22123)">
      <path
         id="path852"
         style="font-size:2.64583px;fill:#1f2123;fill-opacity:1;stroke:none;stroke-width:0.905997"
         d="m -110.82898,47.961909 q 0.0688,0.07673 0.16933,0.07673 0.0318,0 0.0714,-0.0079 0.0238,0.04762 0.0238,0.07937 0,0.100542 -0.19844,0.100542 -0.0503,0 -0.10054,-0.02381 -0.0503,-0.02381 -0.10054,-0.08202 -0.0503,-0.05821 -0.0873,-0.103187 -0.0344,-0.04498 -0.0873,-0.140229 -0.0503,-0.09525 -0.0714,-0.134937 -0.0212,-0.04233 -0.0714,-0.150813 -0.0503,-0.111124 -0.0582,-0.126999 -0.0741,-0.01058 -0.0741,-0.05821 0,-0.02381 0.0132,-0.07144 0.0741,0.01323 0.12435,0.01323 0.17727,0 0.27781,-0.103187 0.10054,-0.105833 0.10054,-0.28575 0,-0.211666 -0.11112,-0.293687 -0.11113,-0.08467 -0.34131,-0.08467 -0.0847,0 -0.20638,0.01058 0.0106,0.153458 0.0106,0.539749 v 0.531812 q 0,0.357187 0.0503,0.523874 -0.0476,0.02117 -0.12436,0.02117 -0.0767,0 -0.10318,-0.0344 -0.0265,-0.0344 -0.0265,-0.116416 0,-0.04233 0.003,-0.209021 0.003,-0.166687 0.003,-0.259291 v -0.529166 q 0,-0.365125 -0.0344,-0.608541 0.19579,-0.03175 0.39423,-0.03175 0.70908,0 0.70908,0.52652 0,0.216958 -0.11906,0.351895 -0.11906,0.132292 -0.31485,0.169333 0,0.0026 0.045,0.0979 0.045,0.09525 0.0609,0.127 0.0185,0.03175 0.0556,0.103187 0.037,0.07144 0.0635,0.113771 0.0291,0.04233 0.0556,0.06879 z" />
    </g>
    <rect
       inkscape:export-ydpi="96"
       inkscape:export-xdpi="96"
       inkscape:export-filename="D:\Calcatz\Icon Pack\Adventure Narative Inspired by Arrival\GUI\Navigation Buttons\Xbox\Light\png\256px\rstick_right.png"
       style="fill:#cccccc;fill-opacity:1;stroke-width:2.64132;stroke-linecap:round;paint-order:fill markers stroke"
       id="rect856"
       width="67.73333"
       height="67.73333"
       x="-45.031876"
       y="43.073742" />
    <path
       id="path858"
       style="fill:#1f2123;fill-opacity:1;stroke:none;stroke-width:2.208;stroke-linecap:round;stroke-miterlimit:4;stroke-dasharray:none;stroke-opacity:1;paint-order:markers stroke fill"
       inkscape:transform-center-x="-1.4762557"
       inkscape:transform-center-y="-7.1719606e-05"
       d="m 2.0813816,82.32887 v -5.204352 -5.204352 l 4.428816,2.602176 4.4287204,2.602176 -4.4287204,2.602176 z" />
    <path
       id="path860"
       style="fill:none;fill-opacity:1;stroke:#8c8c8c;stroke-width:2.208;stroke-linecap:round;stroke-miterlimit:4;stroke-dasharray:none;stroke-dashoffset:0;stroke-opacity:1;paint-order:fill markers stroke"
       d="M 3.7949976,85.577742 A 17.274534,17.274534 0 0 1 -15.636218,93.62639 17.274534,17.274534 0 0 1 -28.439734,76.94047 17.274534,17.274534 0 0 1 -15.636218,60.25455 17.274534,17.274534 0 0 1 3.7949976,68.303206" />
    <g
       transform="matrix(8,0,0,8,878.2078,-301.5162)"
       aria-label="R"
       id="g864"
       style="font-weight:bold;font-size:2.64583px;line-height:1.05;font-family:'Overlock SC';-inkscape-font-specification:'Overlock SC Bold';text-align:end;text-anchor:end;fill:#1f2123;fill-opacity:1;stroke:#ffffff;stroke-width:0.905997;stroke-linecap:round;stroke-miterlimit:4;stroke-dasharray:none;stroke-opacity:1;paint-order:markers stroke fill">
      <path
         d="m -110.82898,47.961909 q 0.0688,0.07673 0.16933,0.07673 0.0318,0 0.0714,-0.0079 0.0238,0.04762 0.0238,0.07937 0,0.100542 -0.19844,0.100542 -0.0503,0 -0.10054,-0.02381 -0.0503,-0.02381 -0.10054,-0.08202 -0.0503,-0.05821 -0.0873,-0.103187 -0.0344,-0.04498 -0.0873,-0.140229 -0.0503,-0.09525 -0.0714,-0.134937 -0.0212,-0.04233 -0.0714,-0.150813 -0.0503,-0.111124 -0.0582,-0.126999 -0.0741,-0.01058 -0.0741,-0.05821 0,-0.02381 0.0132,-0.07144 0.0741,0.01323 0.12435,0.01323 0.17727,0 0.27781,-0.103187 0.10054,-0.105833 0.10054,-0.28575 0,-0.211666 -0.11112,-0.293687 -0.11113,-0.08467 -0.34131,-0.08467 -0.0847,0 -0.20638,0.01058 0.0106,0.153458 0.0106,0.539749 v 0.531812 q 0,0.357187 0.0503,0.523874 -0.0476,0.02117 -0.12436,0.02117 -0.0767,0 -0.10318,-0.0344 -0.0265,-0.0344 -0.0265,-0.116416 0,-0.04233 0.003,-0.209021 0.003,-0.166687 0.003,-0.259291 v -0.529166 q 0,-0.365125 -0.0344,-0.608541 0.19579,-0.03175 0.39423,-0.03175 0.70908,0 0.70908,0.52652 0,0.216958 -0.11906,0.351895 -0.11906,0.132292 -0.31485,0.169333 0,0.0026 0.045,0.0979 0.045,0.09525 0.0609,0.127 0.0185,0.03175 0.0556,0.103187 0.037,0.07144 0.0635,0.113771 0.0291,0.04233 0.0556,0.06879 z"
         style="font-size:2.64583px;fill:#1f2123;fill-opacity:1;stroke:none;stroke-width:0.905997"
         id="path862" />
    </g>
  </g>
</svg>
