<?xml version="1.0" encoding="UTF-8" standalone="no"?>
<svg
   xmlns:dc="http://purl.org/dc/elements/1.1/"
   xmlns:cc="http://creativecommons.org/ns#"
   xmlns:rdf="http://www.w3.org/1999/02/22-rdf-syntax-ns#"
   xmlns:svg="http://www.w3.org/2000/svg"
   xmlns="http://www.w3.org/2000/svg"
   xmlns:sodipodi="http://sodipodi.sourceforge.net/DTD/sodipodi-0.dtd"
   xmlns:inkscape="http://www.inkscape.org/namespaces/inkscape"
   inkscape:export-ydpi="96"
   inkscape:export-xdpi="96"
   inkscape:export-filename="D:\Calcatz\Icon Pack\Adventure Narative Inspired by Arrival\GUI\Navigation Buttons\Xbox\Light\png\rstick_all.png"
   sodipodi:docname="rstick_all.svg"
   inkscape:version="1.0 (4035a4fb49, 2020-05-01)"
   id="svg4874"
   version="1.1"
   viewBox="0 0 8.4666662 8.4666662"
   height="31.999998"
   width="31.999998">
  <defs
     id="defs4868" />
  <sodipodi:namedview
     inkscape:window-maximized="1"
     inkscape:window-y="-8"
     inkscape:window-x="-8"
     inkscape:window-height="705"
     inkscape:window-width="1366"
     fit-margin-bottom="0"
     fit-margin-right="0"
     fit-margin-left="0"
     fit-margin-top="0"
     showgrid="false"
     inkscape:document-rotation="0"
     inkscape:current-layer="layer1"
     inkscape:document-units="mm"
     inkscape:cy="101.52652"
     inkscape:cx="136.30625"
     inkscape:zoom="0.87251276"
     inkscape:pageshadow="2"
     inkscape:pageopacity="0.0"
     borderopacity="1.0"
     bordercolor="#666666"
     pagecolor="#ffffff"
     id="base"
     units="px" />
  <metadata
     id="metadata4871">
    <rdf:RDF>
      <cc:Work
         rdf:about="">
        <dc:format>image/svg+xml</dc:format>
        <dc:type
           rdf:resource="http://purl.org/dc/dcmitype/StillImage" />
        <dc:title />
      </cc:Work>
    </rdf:RDF>
  </metadata>
  <g
     transform="translate(-57.265865,-132.16873)"
     id="layer1"
     inkscape:groupmode="layer"
     inkscape:label="Layer 1">
    <rect
       y="132.16873"
       x="57.265865"
       height="8.4666662"
       width="8.4666662"
       id="rect837"
       style="fill:#cccccc;fill-opacity:1;stroke-width:0.13769;stroke-linecap:round;paint-order:fill markers stroke" />
    <path
       d="m 62.149703,134.86261 h -0.650544 -0.650544 l 0.325272,-0.5536 0.325272,-0.55359 0.325272,0.55359 z"
       inkscape:transform-center-y="-0.18452761"
       inkscape:transform-center-x="9.9297713e-06"
       style="fill:#1f2123;fill-opacity:1;stroke:none;stroke-width:0.176;stroke-linecap:round;stroke-miterlimit:4;stroke-dasharray:none;stroke-opacity:1;paint-order:markers stroke fill"
       id="path2465" />
    <path
       d="m 59.890518,137.05262 v -0.65054 -0.65054 l -0.553598,0.32527 -0.553592,0.32527 0.553592,0.32527 z"
       inkscape:transform-center-y="-9.047805e-06"
       inkscape:transform-center-x="0.18452615"
       style="fill:#1f2123;fill-opacity:1;stroke:none;stroke-width:0.176;stroke-linecap:round;stroke-miterlimit:4;stroke-dasharray:none;stroke-opacity:1;paint-order:markers stroke fill"
       id="path2467" />
    <path
       d="m 62.149703,137.99182 h -0.650544 -0.650544 l 0.325272,0.5536 0.325272,0.55359 0.325272,-0.55359 z"
       inkscape:transform-center-y="0.18452527"
       inkscape:transform-center-x="9.9297713e-06"
       style="fill:#1f2123;fill-opacity:1;stroke:none;stroke-width:0.176;stroke-linecap:round;stroke-miterlimit:4;stroke-dasharray:none;stroke-opacity:1;paint-order:markers stroke fill"
       id="path2463" />
    <path
       id="path2469"
       style="fill:none;fill-opacity:1;stroke:#8c8c8c;stroke-width:0.276;stroke-linecap:round;stroke-miterlimit:4;stroke-dasharray:none;stroke-dashoffset:0;stroke-opacity:1;paint-order:fill markers stroke"
       d="m 63.369776,137.48148 c -0.18976,0.32815 -0.46339,0.60172 -0.79158,0.79142 m -2.15966,-9.5e-4 c -0.32697,-0.18938 -0.59966,-0.46205 -0.78907,-0.78898 m 0,-2.16178 c 0.18932,-0.32677 0.46184,-0.59933 0.78859,-0.78868 m 2.15971,-0.001 c 0.3291,0.19012 0.60337,0.46457 0.79326,0.79382"
       sodipodi:nodetypes="cccccccc" />
    <path
       d="m 63.019762,137.05262 v -0.65054 -0.65054 l 0.553598,0.32527 0.553592,0.32527 -0.553592,0.32527 z"
       inkscape:transform-center-y="-9.047805e-06"
       inkscape:transform-center-x="-0.18452673"
       style="fill:#1f2123;fill-opacity:1;stroke:none;stroke-width:0.176;stroke-linecap:round;stroke-miterlimit:4;stroke-dasharray:none;stroke-opacity:1;paint-order:markers stroke fill"
       id="path2471" />
    <g
       style="font-weight:bold;font-size:2.64583px;line-height:1.05;font-family:'Overlock SC';-inkscape-font-specification:'Overlock SC Bold';text-align:end;text-anchor:end;fill:#1f2123;fill-opacity:1;stroke:#ffffff;stroke-width:0.905997;stroke-linecap:round;stroke-miterlimit:4;stroke-dasharray:none;stroke-opacity:1;paint-order:markers stroke fill"
       id="text2475"
       aria-label="R">
      <path
         id="path5480"
         style="font-size:2.64583px;fill:#1f2123;fill-opacity:1;stroke:none;stroke-width:0.905997"
         d="m 61.841846,137.05689 q 0.06879,0.0767 0.169333,0.0767 0.03175,0 0.07144,-0.008 0.02381,0.0476 0.02381,0.0794 0,0.10054 -0.198437,0.10054 -0.05027,0 -0.100542,-0.0238 -0.05027,-0.0238 -0.100541,-0.082 -0.05027,-0.0582 -0.08731,-0.10319 -0.0344,-0.045 -0.08731,-0.14023 -0.05027,-0.0952 -0.07144,-0.13493 -0.02117,-0.0423 -0.07144,-0.15082 -0.05027,-0.11112 -0.05821,-0.127 -0.07408,-0.0106 -0.07408,-0.0582 0,-0.0238 0.01323,-0.0714 0.07408,0.0132 0.124354,0.0132 0.17727,0 0.277812,-0.10319 0.100541,-0.10583 0.100541,-0.28575 0,-0.21167 -0.111124,-0.29369 -0.111125,-0.0847 -0.341312,-0.0847 -0.08467,0 -0.206375,0.0106 0.01058,0.15346 0.01058,0.53975 v 0.53181 q 0,0.35719 0.05027,0.52388 -0.04763,0.0212 -0.124354,0.0212 -0.07673,0 -0.103187,-0.0344 -0.02646,-0.0344 -0.02646,-0.11642 0,-0.0423 0.0026,-0.20902 0.0026,-0.16669 0.0026,-0.25929 v -0.52917 q 0,-0.36512 -0.0344,-0.60854 0.195792,-0.0317 0.394229,-0.0317 0.709082,0 0.709082,0.52652 0,0.21696 -0.119062,0.3519 -0.119062,0.13229 -0.314854,0.16933 0,0.003 0.04498,0.0979 0.04498,0.0952 0.06085,0.12699 0.01852,0.0317 0.05556,0.10319 0.03704,0.0714 0.0635,0.11377 0.0291,0.0423 0.05556,0.0688 z" />
    </g>
    <rect
       inkscape:export-ydpi="96"
       inkscape:export-xdpi="96"
       inkscape:export-filename="D:\Calcatz\Icon Pack\Adventure Narative Inspired by Arrival\GUI\Navigation Buttons\Xbox\Light\png\64px\rstick_all.png"
       style="fill:#cccccc;fill-opacity:1;stroke-width:0.27538;stroke-linecap:round;paint-order:fill markers stroke"
       id="rect839"
       width="16.933332"
       height="16.933332"
       x="68.030991"
       y="132.16873" />
    <path
       id="path841"
       style="fill:#1f2123;fill-opacity:1;stroke:none;stroke-width:0.352;stroke-linecap:round;stroke-miterlimit:4;stroke-dasharray:none;stroke-opacity:1;paint-order:markers stroke fill"
       inkscape:transform-center-x="2.0258957e-05"
       inkscape:transform-center-y="-0.36905353"
       d="m 77.798663,137.55649 h -1.301088 -1.301088 l 0.650544,-1.1072 0.650544,-1.10718 0.650544,1.10718 z" />
    <path
       id="path843"
       style="fill:#1f2123;fill-opacity:1;stroke:none;stroke-width:0.352;stroke-linecap:round;stroke-miterlimit:4;stroke-dasharray:none;stroke-opacity:1;paint-order:markers stroke fill"
       inkscape:transform-center-x="0.3690527"
       inkscape:transform-center-y="-1.6406157e-05"
       d="m 73.280293,141.93651 v -1.30108 -1.30108 l -1.107196,0.65054 -1.107184,0.65054 1.107184,0.65054 z" />
    <path
       id="path845"
       style="fill:#1f2123;fill-opacity:1;stroke:none;stroke-width:0.352;stroke-linecap:round;stroke-miterlimit:4;stroke-dasharray:none;stroke-opacity:1;paint-order:markers stroke fill"
       inkscape:transform-center-x="2.0258957e-05"
       inkscape:transform-center-y="0.36905223"
       d="m 77.798663,143.81491 h -1.301088 -1.301088 l 0.650544,1.1072 0.650544,1.10718 0.650544,-1.10718 z" />
    <path
       sodipodi:nodetypes="cccccccc"
       d="m 80.238809,142.79423 c -0.37952,0.6563 -0.92678,1.20344 -1.58316,1.58284 m -4.31932,-0.002 c -0.65394,-0.37876 -1.19932,-0.9241 -1.57814,-1.57796 m 0,-4.32356 c 0.37864,-0.65354 0.92368,-1.19866 1.57718,-1.57736 m 4.31942,-0.002 c 0.6582,0.38024 1.20674,0.92914 1.58652,1.58764"
       style="fill:none;fill-opacity:1;stroke:#8c8c8c;stroke-width:0.552;stroke-linecap:round;stroke-miterlimit:4;stroke-dasharray:none;stroke-dashoffset:0;stroke-opacity:1;paint-order:fill markers stroke"
       id="path847" />
    <path
       id="path849"
       style="fill:#1f2123;fill-opacity:1;stroke:none;stroke-width:0.352;stroke-linecap:round;stroke-miterlimit:4;stroke-dasharray:none;stroke-opacity:1;paint-order:markers stroke fill"
       inkscape:transform-center-x="-0.36905306"
       inkscape:transform-center-y="-1.6406157e-05"
       d="m 79.538781,141.93651 v -1.30108 -1.30108 l 1.107196,0.65054 1.107184,0.65054 -1.107184,0.65054 z" />
    <g
       transform="matrix(2,0,0,2,-46.500743,-132.16873)"
       aria-label="R"
       id="g853"
       style="font-weight:bold;font-size:2.64583px;line-height:1.05;font-family:'Overlock SC';-inkscape-font-specification:'Overlock SC Bold';text-align:end;text-anchor:end;fill:#1f2123;fill-opacity:1;stroke:#ffffff;stroke-width:0.905997;stroke-linecap:round;stroke-miterlimit:4;stroke-dasharray:none;stroke-opacity:1;paint-order:markers stroke fill">
      <path
         d="m 61.841846,137.05689 q 0.06879,0.0767 0.169333,0.0767 0.03175,0 0.07144,-0.008 0.02381,0.0476 0.02381,0.0794 0,0.10054 -0.198437,0.10054 -0.05027,0 -0.100542,-0.0238 -0.05027,-0.0238 -0.100541,-0.082 -0.05027,-0.0582 -0.08731,-0.10319 -0.0344,-0.045 -0.08731,-0.14023 -0.05027,-0.0952 -0.07144,-0.13493 -0.02117,-0.0423 -0.07144,-0.15082 -0.05027,-0.11112 -0.05821,-0.127 -0.07408,-0.0106 -0.07408,-0.0582 0,-0.0238 0.01323,-0.0714 0.07408,0.0132 0.124354,0.0132 0.17727,0 0.277812,-0.10319 0.100541,-0.10583 0.100541,-0.28575 0,-0.21167 -0.111124,-0.29369 -0.111125,-0.0847 -0.341312,-0.0847 -0.08467,0 -0.206375,0.0106 0.01058,0.15346 0.01058,0.53975 v 0.53181 q 0,0.35719 0.05027,0.52388 -0.04763,0.0212 -0.124354,0.0212 -0.07673,0 -0.103187,-0.0344 -0.02646,-0.0344 -0.02646,-0.11642 0,-0.0423 0.0026,-0.20902 0.0026,-0.16669 0.0026,-0.25929 v -0.52917 q 0,-0.36512 -0.0344,-0.60854 0.195792,-0.0317 0.394229,-0.0317 0.709082,0 0.709082,0.52652 0,0.21696 -0.119062,0.3519 -0.119062,0.13229 -0.314854,0.16933 0,0.003 0.04498,0.0979 0.04498,0.0952 0.06085,0.12699 0.01852,0.0317 0.05556,0.10319 0.03704,0.0714 0.0635,0.11377 0.0291,0.0423 0.05556,0.0688 z"
         style="font-size:2.64583px;fill:#1f2123;fill-opacity:1;stroke:none;stroke-width:0.905997"
         id="path851" />
    </g>
    <rect
       inkscape:export-ydpi="96"
       inkscape:export-xdpi="96"
       inkscape:export-filename="D:\Calcatz\Icon Pack\Adventure Narative Inspired by Arrival\GUI\Navigation Buttons\Xbox\Light\png\128px\rstick_all.png"
       y="132.16873"
       x="88.499886"
       height="33.866665"
       width="33.866665"
       id="rect855"
       style="fill:#cccccc;fill-opacity:1;stroke-width:0.55076;stroke-linecap:round;paint-order:fill markers stroke" />
    <path
       d="m 108.03524,142.94425 h -2.60218 -2.60218 l 1.30109,-2.2144 1.30109,-2.21436 1.30109,2.21436 z"
       inkscape:transform-center-y="-0.73810537"
       inkscape:transform-center-x="4.0958832e-05"
       style="fill:#1f2123;fill-opacity:1;stroke:none;stroke-width:0.704;stroke-linecap:round;stroke-miterlimit:4;stroke-dasharray:none;stroke-opacity:1;paint-order:markers stroke fill"
       id="path857" />
    <path
       d="m 98.998496,151.70429 v -2.60216 -2.60216 l -2.214392,1.30108 -2.214368,1.30108 2.214368,1.30108 z"
       inkscape:transform-center-y="-3.1122861e-05"
       inkscape:transform-center-x="0.73810584"
       style="fill:#1f2123;fill-opacity:1;stroke:none;stroke-width:0.704;stroke-linecap:round;stroke-miterlimit:4;stroke-dasharray:none;stroke-opacity:1;paint-order:markers stroke fill"
       id="path859" />
    <path
       d="m 108.03524,155.46109 h -2.60218 -2.60218 l 1.30109,2.2144 1.30109,2.21436 1.30109,-2.21436 z"
       inkscape:transform-center-y="0.73810615"
       inkscape:transform-center-x="4.0958832e-05"
       style="fill:#1f2123;fill-opacity:1;stroke:none;stroke-width:0.704;stroke-linecap:round;stroke-miterlimit:4;stroke-dasharray:none;stroke-opacity:1;paint-order:markers stroke fill"
       id="path861" />
    <path
       id="path863"
       style="fill:none;fill-opacity:1;stroke:#8c8c8c;stroke-width:1.104;stroke-linecap:round;stroke-miterlimit:4;stroke-dasharray:none;stroke-dashoffset:0;stroke-opacity:1;paint-order:fill markers stroke"
       d="m 112.91553,153.41973 c -0.75904,1.3126 -1.85356,2.40688 -3.16632,3.16568 m -8.63864,-0.004 c -1.307882,-0.75752 -2.398642,-1.8482 -3.156282,-3.15592 m 0,-8.64712 c 0.75728,-1.30708 1.84736,-2.39732 3.154362,-3.15472 m 8.63884,-0.004 c 1.3164,0.76048 2.41348,1.85828 3.17304,3.17528"
       sodipodi:nodetypes="cccccccc" />
    <path
       d="m 111.51547,151.70429 v -2.60216 -2.60216 l 2.2144,1.30108 2.21436,1.30108 -2.21436,1.30108 z"
       inkscape:transform-center-y="-3.1122861e-05"
       inkscape:transform-center-x="-0.73810168"
       style="fill:#1f2123;fill-opacity:1;stroke:none;stroke-width:0.704;stroke-linecap:round;stroke-miterlimit:4;stroke-dasharray:none;stroke-opacity:1;paint-order:markers stroke fill"
       id="path865" />
    <g
       style="font-weight:bold;font-size:2.64583px;line-height:1.05;font-family:'Overlock SC';-inkscape-font-specification:'Overlock SC Bold';text-align:end;text-anchor:end;fill:#1f2123;fill-opacity:1;stroke:#ffffff;stroke-width:0.905997;stroke-linecap:round;stroke-miterlimit:4;stroke-dasharray:none;stroke-opacity:1;paint-order:markers stroke fill"
       id="g869"
       aria-label="R"
       transform="matrix(4,0,0,4,-140.56358,-396.50619)">
      <path
         id="path867"
         style="font-size:2.64583px;fill:#1f2123;fill-opacity:1;stroke:none;stroke-width:0.905997"
         d="m 61.841846,137.05689 q 0.06879,0.0767 0.169333,0.0767 0.03175,0 0.07144,-0.008 0.02381,0.0476 0.02381,0.0794 0,0.10054 -0.198437,0.10054 -0.05027,0 -0.100542,-0.0238 -0.05027,-0.0238 -0.100541,-0.082 -0.05027,-0.0582 -0.08731,-0.10319 -0.0344,-0.045 -0.08731,-0.14023 -0.05027,-0.0952 -0.07144,-0.13493 -0.02117,-0.0423 -0.07144,-0.15082 -0.05027,-0.11112 -0.05821,-0.127 -0.07408,-0.0106 -0.07408,-0.0582 0,-0.0238 0.01323,-0.0714 0.07408,0.0132 0.124354,0.0132 0.17727,0 0.277812,-0.10319 0.100541,-0.10583 0.100541,-0.28575 0,-0.21167 -0.111124,-0.29369 -0.111125,-0.0847 -0.341312,-0.0847 -0.08467,0 -0.206375,0.0106 0.01058,0.15346 0.01058,0.53975 v 0.53181 q 0,0.35719 0.05027,0.52388 -0.04763,0.0212 -0.124354,0.0212 -0.07673,0 -0.103187,-0.0344 -0.02646,-0.0344 -0.02646,-0.11642 0,-0.0423 0.0026,-0.20902 0.0026,-0.16669 0.0026,-0.25929 v -0.52917 q 0,-0.36512 -0.0344,-0.60854 0.195792,-0.0317 0.394229,-0.0317 0.709082,0 0.709082,0.52652 0,0.21696 -0.119062,0.3519 -0.119062,0.13229 -0.314854,0.16933 0,0.003 0.04498,0.0979 0.04498,0.0952 0.06085,0.12699 0.01852,0.0317 0.05556,0.10319 0.03704,0.0714 0.0635,0.11377 0.0291,0.0423 0.05556,0.0688 z" />
    </g>
    <rect
       inkscape:export-ydpi="96"
       inkscape:export-xdpi="96"
       inkscape:export-filename="D:\Calcatz\Icon Pack\Adventure Narative Inspired by Arrival\GUI\Navigation Buttons\Xbox\Light\png\256px\rstick_all.png"
       style="fill:#cccccc;fill-opacity:1;stroke-width:1.10152;stroke-linecap:round;paint-order:fill markers stroke"
       id="rect871"
       width="67.73333"
       height="67.73333"
       x="130.65065"
       y="132.16873" />
    <path
       id="path873"
       style="fill:#1f2123;fill-opacity:1;stroke:none;stroke-width:1.408;stroke-linecap:round;stroke-miterlimit:4;stroke-dasharray:none;stroke-opacity:1;paint-order:markers stroke fill"
       inkscape:transform-center-x="8.189325e-05"
       inkscape:transform-center-y="-1.4762091"
       d="m 169.72137,153.71977 h -5.20436 -5.20436 l 2.60218,-4.4288 2.60218,-4.42872 2.60218,4.42872 z" />
    <path
       id="path875"
       style="fill:#1f2123;fill-opacity:1;stroke:none;stroke-width:1.408;stroke-linecap:round;stroke-miterlimit:4;stroke-dasharray:none;stroke-opacity:1;paint-order:markers stroke fill"
       inkscape:transform-center-x="1.4762117"
       inkscape:transform-center-y="-6.0556269e-05"
       d="m 151.64787,171.23985 v -5.20432 -5.20432 l -4.42878,2.60216 -4.42874,2.60216 4.42874,2.60216 z" />
    <path
       id="path877"
       style="fill:#1f2123;fill-opacity:1;stroke:none;stroke-width:1.408;stroke-linecap:round;stroke-miterlimit:4;stroke-dasharray:none;stroke-opacity:1;paint-order:markers stroke fill"
       inkscape:transform-center-x="8.189325e-05"
       inkscape:transform-center-y="1.476214"
       d="m 169.72137,178.75345 h -5.20436 -5.20436 l 2.60218,4.4288 2.60218,4.42872 2.60218,-4.42872 z" />
    <path
       sodipodi:nodetypes="cccccccc"
       d="m 179.48195,174.67073 c -1.51808,2.6252 -3.70712,4.81376 -6.33264,6.33136 m -17.27728,-0.008 c -2.61576,-1.51504 -4.79728,-3.6964 -6.31256,-6.31184 m 0,-17.29424 c 1.51456,-2.61416 3.69472,-4.79464 6.30872,-6.30944 m 17.27768,-0.008 c 2.6328,1.52096 4.82696,3.71656 6.34608,6.35056"
       style="fill:none;fill-opacity:1;stroke:#8c8c8c;stroke-width:2.208;stroke-linecap:round;stroke-miterlimit:4;stroke-dasharray:none;stroke-dashoffset:0;stroke-opacity:1;paint-order:fill markers stroke"
       id="path879" />
    <path
       id="path881"
       style="fill:#1f2123;fill-opacity:1;stroke:none;stroke-width:1.408;stroke-linecap:round;stroke-miterlimit:4;stroke-dasharray:none;stroke-opacity:1;paint-order:markers stroke fill"
       inkscape:transform-center-x="-1.4762034"
       inkscape:transform-center-y="-6.0556269e-05"
       d="m 176.68183,171.23985 v -5.20432 -5.20432 l 4.4288,2.60216 4.42872,2.60216 -4.42872,2.60216 z" />
    <g
       transform="matrix(8,0,0,8,-327.47627,-925.18111)"
       aria-label="R"
       id="g885"
       style="font-weight:bold;font-size:2.64583px;line-height:1.05;font-family:'Overlock SC';-inkscape-font-specification:'Overlock SC Bold';text-align:end;text-anchor:end;fill:#1f2123;fill-opacity:1;stroke:#ffffff;stroke-width:0.905997;stroke-linecap:round;stroke-miterlimit:4;stroke-dasharray:none;stroke-opacity:1;paint-order:markers stroke fill">
      <path
         d="m 61.841846,137.05689 q 0.06879,0.0767 0.169333,0.0767 0.03175,0 0.07144,-0.008 0.02381,0.0476 0.02381,0.0794 0,0.10054 -0.198437,0.10054 -0.05027,0 -0.100542,-0.0238 -0.05027,-0.0238 -0.100541,-0.082 -0.05027,-0.0582 -0.08731,-0.10319 -0.0344,-0.045 -0.08731,-0.14023 -0.05027,-0.0952 -0.07144,-0.13493 -0.02117,-0.0423 -0.07144,-0.15082 -0.05027,-0.11112 -0.05821,-0.127 -0.07408,-0.0106 -0.07408,-0.0582 0,-0.0238 0.01323,-0.0714 0.07408,0.0132 0.124354,0.0132 0.17727,0 0.277812,-0.10319 0.100541,-0.10583 0.100541,-0.28575 0,-0.21167 -0.111124,-0.29369 -0.111125,-0.0847 -0.341312,-0.0847 -0.08467,0 -0.206375,0.0106 0.01058,0.15346 0.01058,0.53975 v 0.53181 q 0,0.35719 0.05027,0.52388 -0.04763,0.0212 -0.124354,0.0212 -0.07673,0 -0.103187,-0.0344 -0.02646,-0.0344 -0.02646,-0.11642 0,-0.0423 0.0026,-0.20902 0.0026,-0.16669 0.0026,-0.25929 v -0.52917 q 0,-0.36512 -0.0344,-0.60854 0.195792,-0.0317 0.394229,-0.0317 0.709082,0 0.709082,0.52652 0,0.21696 -0.119062,0.3519 -0.119062,0.13229 -0.314854,0.16933 0,0.003 0.04498,0.0979 0.04498,0.0952 0.06085,0.12699 0.01852,0.0317 0.05556,0.10319 0.03704,0.0714 0.0635,0.11377 0.0291,0.0423 0.05556,0.0688 z"
         style="font-size:2.64583px;fill:#1f2123;fill-opacity:1;stroke:none;stroke-width:0.905997"
         id="path883" />
    </g>
  </g>
</svg>
