<?xml version="1.0" encoding="UTF-8" standalone="no"?>
<svg
   xmlns:dc="http://purl.org/dc/elements/1.1/"
   xmlns:cc="http://creativecommons.org/ns#"
   xmlns:rdf="http://www.w3.org/1999/02/22-rdf-syntax-ns#"
   xmlns:svg="http://www.w3.org/2000/svg"
   xmlns="http://www.w3.org/2000/svg"
   xmlns:sodipodi="http://sodipodi.sourceforge.net/DTD/sodipodi-0.dtd"
   xmlns:inkscape="http://www.inkscape.org/namespaces/inkscape"
   inkscape:export-ydpi="96"
   inkscape:export-xdpi="96"
   inkscape:export-filename="D:\Calcatz\Icon Pack\Adventure Narative Inspired by Arrival\GUI\Navigation Buttons\Xbox\Light\png\rstick_up.png"
   sodipodi:docname="rstick_up.svg"
   inkscape:version="1.0 (4035a4fb49, 2020-05-01)"
   id="svg3062"
   version="1.1"
   viewBox="0 0 8.4666662 8.4666662"
   height="31.999998"
   width="31.999998">
  <defs
     id="defs3056" />
  <sodipodi:namedview
     inkscape:window-maximized="1"
     inkscape:window-y="-8"
     inkscape:window-x="-8"
     inkscape:window-height="705"
     inkscape:window-width="1366"
     fit-margin-bottom="0"
     fit-margin-right="0"
     fit-margin-left="0"
     fit-margin-top="0"
     showgrid="false"
     inkscape:document-rotation="0"
     inkscape:current-layer="layer1"
     inkscape:document-units="mm"
     inkscape:cy="176.11505"
     inkscape:cx="162.3998"
     inkscape:zoom="1.2339194"
     inkscape:pageshadow="2"
     inkscape:pageopacity="0.0"
     borderopacity="1.0"
     bordercolor="#666666"
     pagecolor="#ffffff"
     id="base"
     units="px" />
  <metadata
     id="metadata3059">
    <rdf:RDF>
      <cc:Work
         rdf:about="">
        <dc:format>image/svg+xml</dc:format>
        <dc:type
           rdf:resource="http://purl.org/dc/dcmitype/StillImage" />
        <dc:title />
      </cc:Work>
    </rdf:RDF>
  </metadata>
  <g
     transform="translate(58.636471,-75.400246)"
     id="layer1"
     inkscape:groupmode="layer"
     inkscape:label="Layer 1">
    <rect
       y="75.400246"
       x="-58.636471"
       height="8.4666662"
       width="8.4666662"
       id="rect834"
       style="fill:#cccccc;fill-opacity:1;stroke-width:0.131486;stroke-linecap:round;paint-order:fill markers stroke" />
    <path
       d="m -53.752517,78.061278 h -0.650544 -0.650544 l 0.325272,-0.553598 0.325272,-0.553592 0.325272,0.553592 z"
       inkscape:transform-center-y="-0.18452779"
       inkscape:transform-center-x="9.9297713e-06"
       style="fill:#1f2123;fill-opacity:1;stroke:none;stroke-width:0.276;stroke-linecap:round;stroke-miterlimit:4;stroke-dasharray:none;stroke-opacity:1;paint-order:markers stroke fill"
       id="path4894" />
    <path
       d="m -53.323471,77.76356 a 2.1593168,2.1593168 0 0 1 1.006081,2.428895 2.1593168,2.1593168 0 0 1 -2.08574,1.600445 2.1593168,2.1593168 0 0 1 -2.085739,-1.600445 2.1593168,2.1593168 0 0 1 1.006081,-2.428895"
       style="fill:none;fill-opacity:1;stroke:#8c8c8c;stroke-width:0.276;stroke-linecap:round;stroke-miterlimit:4;stroke-dasharray:none;stroke-dashoffset:0;stroke-opacity:1;paint-order:fill markers stroke"
       id="path5442" />
    <g
       style="font-weight:bold;font-size:2.64583px;line-height:1.05;font-family:'Overlock SC';-inkscape-font-specification:'Overlock SC Bold';text-align:end;text-anchor:end;fill:#1f2123;fill-opacity:1;stroke:#ffffff;stroke-width:0.905997;stroke-linecap:round;stroke-miterlimit:4;stroke-dasharray:none;stroke-opacity:1;paint-order:markers stroke fill"
       id="text4892"
       aria-label="R">
      <path
         id="path3655"
         style="font-size:2.64583px;fill:#1f2123;fill-opacity:1;stroke:none;stroke-width:0.905997"
         d="m -54.06049,80.288409 q 0.06879,0.07673 0.169333,0.07673 0.03175,0 0.07144,-0.0079 0.02381,0.04762 0.02381,0.07937 0,0.100542 -0.198437,0.100542 -0.05027,0 -0.100542,-0.02381 -0.05027,-0.02381 -0.100541,-0.08202 -0.05027,-0.05821 -0.08731,-0.103187 -0.0344,-0.04498 -0.08731,-0.140229 -0.05027,-0.09525 -0.07144,-0.134937 -0.02117,-0.04233 -0.07144,-0.150813 -0.05027,-0.111124 -0.05821,-0.126999 -0.07408,-0.01058 -0.07408,-0.05821 0,-0.02381 0.01323,-0.07144 0.07408,0.01323 0.124354,0.01323 0.17727,0 0.277812,-0.103187 0.100541,-0.105834 0.100541,-0.28575 0,-0.211666 -0.111124,-0.293687 -0.111125,-0.08467 -0.341313,-0.08467 -0.08467,0 -0.206374,0.01058 0.01058,0.153458 0.01058,0.539749 v 0.531812 q 0,0.357187 0.05027,0.523874 -0.04763,0.02117 -0.124354,0.02117 -0.07673,0 -0.103188,-0.0344 -0.02646,-0.0344 -0.02646,-0.116417 0,-0.04233 0.0026,-0.20902 0.0026,-0.166687 0.0026,-0.259291 v -0.529166 q 0,-0.365125 -0.0344,-0.608541 0.195791,-0.03175 0.394229,-0.03175 0.709082,0 0.709082,0.52652 0,0.216958 -0.119062,0.351895 -0.119063,0.132292 -0.314854,0.169333 0,0.0026 0.04498,0.0979 0.04498,0.09525 0.06085,0.127 0.01852,0.03175 0.05556,0.103187 0.03704,0.07144 0.0635,0.113771 0.0291,0.04233 0.05556,0.06879 z" />
    </g>
    <rect
       inkscape:export-ydpi="96"
       inkscape:export-xdpi="96"
       inkscape:export-filename="D:\Calcatz\Icon Pack\Adventure Narative Inspired by Arrival\GUI\Navigation Buttons\Xbox\Light\png\64px\rstick_up.png"
       style="fill:#cccccc;fill-opacity:1;stroke-width:0.262972;stroke-linecap:round;paint-order:fill markers stroke"
       id="rect836"
       width="16.933332"
       height="16.933332"
       x="-48.098778"
       y="75.400246" />
    <path
       id="path838"
       style="fill:#1f2123;fill-opacity:1;stroke:none;stroke-width:0.552;stroke-linecap:round;stroke-miterlimit:4;stroke-dasharray:none;stroke-opacity:1;paint-order:markers stroke fill"
       inkscape:transform-center-x="1.9630539e-05"
       inkscape:transform-center-y="-0.36905591"
       d="m -38.330872,80.72231 h -1.301088 -1.301088 l 0.650544,-1.107196 0.650544,-1.107184 0.650544,1.107184 z" />
    <path
       id="path840"
       style="fill:none;fill-opacity:1;stroke:#8c8c8c;stroke-width:0.552;stroke-linecap:round;stroke-miterlimit:4;stroke-dasharray:none;stroke-dashoffset:0;stroke-opacity:1;paint-order:fill markers stroke"
       d="m -37.47278,80.126874 a 4.3186336,4.3186336 0 0 1 2.012162,4.85779 4.3186336,4.3186336 0 0 1 -4.17148,3.20089 4.3186336,4.3186336 0 0 1 -4.171478,-3.20089 4.3186336,4.3186336 0 0 1 2.012162,-4.85779" />
    <g
       transform="matrix(2,0,0,2,69.174162,-75.400246)"
       aria-label="R"
       id="g844"
       style="font-weight:bold;font-size:2.64583px;line-height:1.05;font-family:'Overlock SC';-inkscape-font-specification:'Overlock SC Bold';text-align:end;text-anchor:end;fill:#1f2123;fill-opacity:1;stroke:#ffffff;stroke-width:0.905997;stroke-linecap:round;stroke-miterlimit:4;stroke-dasharray:none;stroke-opacity:1;paint-order:markers stroke fill">
      <path
         d="m -54.06049,80.288409 q 0.06879,0.07673 0.169333,0.07673 0.03175,0 0.07144,-0.0079 0.02381,0.04762 0.02381,0.07937 0,0.100542 -0.198437,0.100542 -0.05027,0 -0.100542,-0.02381 -0.05027,-0.02381 -0.100541,-0.08202 -0.05027,-0.05821 -0.08731,-0.103187 -0.0344,-0.04498 -0.08731,-0.140229 -0.05027,-0.09525 -0.07144,-0.134937 -0.02117,-0.04233 -0.07144,-0.150813 -0.05027,-0.111124 -0.05821,-0.126999 -0.07408,-0.01058 -0.07408,-0.05821 0,-0.02381 0.01323,-0.07144 0.07408,0.01323 0.124354,0.01323 0.17727,0 0.277812,-0.103187 0.100541,-0.105834 0.100541,-0.28575 0,-0.211666 -0.111124,-0.293687 -0.111125,-0.08467 -0.341313,-0.08467 -0.08467,0 -0.206374,0.01058 0.01058,0.153458 0.01058,0.539749 v 0.531812 q 0,0.357187 0.05027,0.523874 -0.04763,0.02117 -0.124354,0.02117 -0.07673,0 -0.103188,-0.0344 -0.02646,-0.0344 -0.02646,-0.116417 0,-0.04233 0.0026,-0.20902 0.0026,-0.166687 0.0026,-0.259291 v -0.529166 q 0,-0.365125 -0.0344,-0.608541 0.195791,-0.03175 0.394229,-0.03175 0.709082,0 0.709082,0.52652 0,0.216958 -0.119062,0.351895 -0.119063,0.132292 -0.314854,0.169333 0,0.0026 0.04498,0.0979 0.04498,0.09525 0.06085,0.127 0.01852,0.03175 0.05556,0.103187 0.03704,0.07144 0.0635,0.113771 0.0291,0.04233 0.05556,0.06879 z"
         style="font-size:2.64583px;fill:#1f2123;fill-opacity:1;stroke:none;stroke-width:0.905997"
         id="path842" />
    </g>
    <rect
       inkscape:export-ydpi="96"
       inkscape:export-xdpi="96"
       inkscape:export-filename="D:\Calcatz\Icon Pack\Adventure Narative Inspired by Arrival\GUI\Navigation Buttons\Xbox\Light\png\128px\rstick_up.png"
       y="75.400246"
       x="-29.070284"
       height="33.866665"
       width="33.866665"
       id="rect846"
       style="fill:#cccccc;fill-opacity:1;stroke-width:0.525944;stroke-linecap:round;paint-order:fill markers stroke" />
    <path
       d="m -9.5344721,86.044374 h -2.6021759 -2.602176 l 1.301088,-2.214392 1.301088,-2.214368 1.301088,2.214368 z"
       inkscape:transform-center-y="-0.73811215"
       inkscape:transform-center-x="3.9200849e-05"
       style="fill:#1f2123;fill-opacity:1;stroke:none;stroke-width:1.104;stroke-linecap:round;stroke-miterlimit:4;stroke-dasharray:none;stroke-opacity:1;paint-order:markers stroke fill"
       id="path848" />
    <path
       d="m -7.8182881,84.853502 a 8.6372672,8.6372672 0 0 1 4.024324,9.71558 8.6372672,8.6372672 0 0 1 -8.3429599,6.401778 8.6372672,8.6372672 0 0 1 -8.342956,-6.401778 8.6372672,8.6372672 0 0 1 4.024324,-9.71558"
       style="fill:none;fill-opacity:1;stroke:#8c8c8c;stroke-width:1.104;stroke-linecap:round;stroke-miterlimit:4;stroke-dasharray:none;stroke-dashoffset:0;stroke-opacity:1;paint-order:fill markers stroke"
       id="path850" />
    <g
       style="font-weight:bold;font-size:2.64583px;line-height:1.05;font-family:'Overlock SC';-inkscape-font-specification:'Overlock SC Bold';text-align:end;text-anchor:end;fill:#1f2123;fill-opacity:1;stroke:#ffffff;stroke-width:0.905997;stroke-linecap:round;stroke-miterlimit:4;stroke-dasharray:none;stroke-opacity:1;paint-order:markers stroke fill"
       id="g854"
       aria-label="R"
       transform="matrix(4,0,0,4,205.4756,-226.20074)">
      <path
         id="path852"
         style="font-size:2.64583px;fill:#1f2123;fill-opacity:1;stroke:none;stroke-width:0.905997"
         d="m -54.06049,80.288409 q 0.06879,0.07673 0.169333,0.07673 0.03175,0 0.07144,-0.0079 0.02381,0.04762 0.02381,0.07937 0,0.100542 -0.198437,0.100542 -0.05027,0 -0.100542,-0.02381 -0.05027,-0.02381 -0.100541,-0.08202 -0.05027,-0.05821 -0.08731,-0.103187 -0.0344,-0.04498 -0.08731,-0.140229 -0.05027,-0.09525 -0.07144,-0.134937 -0.02117,-0.04233 -0.07144,-0.150813 -0.05027,-0.111124 -0.05821,-0.126999 -0.07408,-0.01058 -0.07408,-0.05821 0,-0.02381 0.01323,-0.07144 0.07408,0.01323 0.124354,0.01323 0.17727,0 0.277812,-0.103187 0.100541,-0.105834 0.100541,-0.28575 0,-0.211666 -0.111124,-0.293687 -0.111125,-0.08467 -0.341313,-0.08467 -0.08467,0 -0.206374,0.01058 0.01058,0.153458 0.01058,0.539749 v 0.531812 q 0,0.357187 0.05027,0.523874 -0.04763,0.02117 -0.124354,0.02117 -0.07673,0 -0.103188,-0.0344 -0.02646,-0.0344 -0.02646,-0.116417 0,-0.04233 0.0026,-0.20902 0.0026,-0.166687 0.0026,-0.259291 v -0.529166 q 0,-0.365125 -0.0344,-0.608541 0.195791,-0.03175 0.394229,-0.03175 0.709082,0 0.709082,0.52652 0,0.216958 -0.119062,0.351895 -0.119063,0.132292 -0.314854,0.169333 0,0.0026 0.04498,0.0979 0.04498,0.09525 0.06085,0.127 0.01852,0.03175 0.05556,0.103187 0.03704,0.07144 0.0635,0.113771 0.0291,0.04233 0.05556,0.06879 z" />
    </g>
    <rect
       inkscape:export-ydpi="96"
       inkscape:export-xdpi="96"
       inkscape:export-filename="D:\Calcatz\Icon Pack\Adventure Narative Inspired by Arrival\GUI\Navigation Buttons\Xbox\Light\png\256px\rstick_up.png"
       style="fill:#cccccc;fill-opacity:1;stroke-width:1.05189;stroke-linecap:round;paint-order:fill markers stroke"
       id="rect856"
       width="67.73333"
       height="67.73333"
       x="9.6334534"
       y="75.400246" />
    <path
       id="path858"
       style="fill:#1f2123;fill-opacity:1;stroke:none;stroke-width:2.208;stroke-linecap:round;stroke-miterlimit:4;stroke-dasharray:none;stroke-opacity:1;paint-order:markers stroke fill"
       inkscape:transform-center-x="7.8032557e-05"
       inkscape:transform-center-y="-1.4762246"
       d="m 48.705077,96.688502 h -5.20435 -5.204352 l 2.602176,-4.428784 2.602176,-4.428736 2.602176,4.428736 z" />
    <path
       id="path860"
       style="fill:none;fill-opacity:1;stroke:#8c8c8c;stroke-width:2.208;stroke-linecap:round;stroke-miterlimit:4;stroke-dasharray:none;stroke-dashoffset:0;stroke-opacity:1;paint-order:fill markers stroke"
       d="M 52.137445,94.306758 A 17.274534,17.274534 0 0 1 60.186093,113.73792 17.274534,17.274534 0 0 1 43.500175,126.54147 17.274534,17.274534 0 0 1 26.814263,113.73792 17.274534,17.274534 0 0 1 34.862911,94.306758" />
    <g
       transform="matrix(8,0,0,8,478.72523,-527.80173)"
       aria-label="R"
       id="g864"
       style="font-weight:bold;font-size:2.64583px;line-height:1.05;font-family:'Overlock SC';-inkscape-font-specification:'Overlock SC Bold';text-align:end;text-anchor:end;fill:#1f2123;fill-opacity:1;stroke:#ffffff;stroke-width:0.905997;stroke-linecap:round;stroke-miterlimit:4;stroke-dasharray:none;stroke-opacity:1;paint-order:markers stroke fill">
      <path
         d="m -54.06049,80.288409 q 0.06879,0.07673 0.169333,0.07673 0.03175,0 0.07144,-0.0079 0.02381,0.04762 0.02381,0.07937 0,0.100542 -0.198437,0.100542 -0.05027,0 -0.100542,-0.02381 -0.05027,-0.02381 -0.100541,-0.08202 -0.05027,-0.05821 -0.08731,-0.103187 -0.0344,-0.04498 -0.08731,-0.140229 -0.05027,-0.09525 -0.07144,-0.134937 -0.02117,-0.04233 -0.07144,-0.150813 -0.05027,-0.111124 -0.05821,-0.126999 -0.07408,-0.01058 -0.07408,-0.05821 0,-0.02381 0.01323,-0.07144 0.07408,0.01323 0.124354,0.01323 0.17727,0 0.277812,-0.103187 0.100541,-0.105834 0.100541,-0.28575 0,-0.211666 -0.111124,-0.293687 -0.111125,-0.08467 -0.341313,-0.08467 -0.08467,0 -0.206374,0.01058 0.01058,0.153458 0.01058,0.539749 v 0.531812 q 0,0.357187 0.05027,0.523874 -0.04763,0.02117 -0.124354,0.02117 -0.07673,0 -0.103188,-0.0344 -0.02646,-0.0344 -0.02646,-0.116417 0,-0.04233 0.0026,-0.20902 0.0026,-0.166687 0.0026,-0.259291 v -0.529166 q 0,-0.365125 -0.0344,-0.608541 0.195791,-0.03175 0.394229,-0.03175 0.709082,0 0.709082,0.52652 0,0.216958 -0.119062,0.351895 -0.119063,0.132292 -0.314854,0.169333 0,0.0026 0.04498,0.0979 0.04498,0.09525 0.06085,0.127 0.01852,0.03175 0.05556,0.103187 0.03704,0.07144 0.0635,0.113771 0.0291,0.04233 0.05556,0.06879 z"
         style="font-size:2.64583px;fill:#1f2123;fill-opacity:1;stroke:none;stroke-width:0.905997"
         id="path862" />
    </g>
  </g>
</svg>
