<?xml version="1.0" encoding="UTF-8" standalone="no"?>
<svg
   xmlns:dc="http://purl.org/dc/elements/1.1/"
   xmlns:cc="http://creativecommons.org/ns#"
   xmlns:rdf="http://www.w3.org/1999/02/22-rdf-syntax-ns#"
   xmlns:svg="http://www.w3.org/2000/svg"
   xmlns="http://www.w3.org/2000/svg"
   xmlns:sodipodi="http://sodipodi.sourceforge.net/DTD/sodipodi-0.dtd"
   xmlns:inkscape="http://www.inkscape.org/namespaces/inkscape"
   inkscape:export-ydpi="96"
   inkscape:export-xdpi="96"
   inkscape:export-filename="D:\Calcatz\Icon Pack\Adventure Narative Inspired by Arrival\GUI\Navigation Buttons\Xbox\Light\png\rstick_leftright.png"
   sodipodi:docname="rstick_leftright.svg"
   inkscape:version="1.0 (4035a4fb49, 2020-05-01)"
   id="svg6700"
   version="1.1"
   viewBox="0 0 8.4666662 8.4666662"
   height="31.999998"
   width="31.999998">
  <defs
     id="defs6694" />
  <sodipodi:namedview
     inkscape:window-maximized="1"
     inkscape:window-y="-8"
     inkscape:window-x="-8"
     inkscape:window-height="705"
     inkscape:window-width="1366"
     fit-margin-bottom="0"
     fit-margin-right="0"
     fit-margin-left="0"
     fit-margin-top="0"
     showgrid="false"
     inkscape:document-rotation="0"
     inkscape:current-layer="layer1"
     inkscape:document-units="mm"
     inkscape:cy="340.59315"
     inkscape:cx="174.06796"
     inkscape:zoom="0.87251276"
     inkscape:pageshadow="2"
     inkscape:pageopacity="0.0"
     borderopacity="1.0"
     bordercolor="#666666"
     pagecolor="#ffffff"
     id="base"
     units="px" />
  <metadata
     id="metadata6697">
    <rdf:RDF>
      <cc:Work
         rdf:about="">
        <dc:format>image/svg+xml</dc:format>
        <dc:type
           rdf:resource="http://purl.org/dc/dcmitype/StillImage" />
        <dc:title />
      </cc:Work>
    </rdf:RDF>
  </metadata>
  <g
     transform="translate(-102.20758,-126.64958)"
     id="layer1"
     inkscape:groupmode="layer"
     inkscape:label="Layer 1">
    <rect
       y="126.64958"
       x="102.20758"
       height="8.4666662"
       width="8.4666662"
       id="rect835"
       style="fill:#cccccc;fill-opacity:1;stroke-width:0.21372;stroke-linecap:round;paint-order:fill markers stroke" />
    <path
       d="m 104.83236,131.47037 v -0.65054 -0.65054 l -0.5536,0.32527 -0.55359,0.32527 0.55359,0.32527 z"
       inkscape:transform-center-y="-9.047805e-06"
       inkscape:transform-center-x="0.18452615"
       style="fill:#1f2123;fill-opacity:1;stroke:none;stroke-width:0.276;stroke-linecap:round;stroke-miterlimit:4;stroke-dasharray:none;stroke-opacity:1;paint-order:markers stroke fill"
       id="path4942" />
    <path
       d="m 107.96157,131.47037 v -0.65054 -0.65054 l 0.5536,0.32527 0.55359,0.32527 -0.55359,0.32527 z"
       inkscape:transform-center-y="-9.047805e-06"
       inkscape:transform-center-x="-0.18452673"
       style="fill:#1f2123;fill-opacity:1;stroke:none;stroke-width:0.276;stroke-linecap:round;stroke-miterlimit:4;stroke-dasharray:none;stroke-opacity:1;paint-order:markers stroke fill"
       id="path4944" />
    <g
       style="font-weight:bold;font-size:2.64583px;line-height:1.05;font-family:'Overlock SC';-inkscape-font-specification:'Overlock SC Bold';text-align:end;text-anchor:end;fill:#1f2123;fill-opacity:1;stroke:#ffffff;stroke-width:0.905997;stroke-linecap:round;stroke-miterlimit:4;stroke-dasharray:none;stroke-opacity:1;paint-order:markers stroke fill"
       id="text4932"
       aria-label="R">
      <path
         id="path7296"
         style="font-size:2.64583px;fill:#1f2123;fill-opacity:1;stroke:none;stroke-width:0.905997"
         d="m 106.78357,131.53774 q 0.0688,0.0767 0.16933,0.0767 0.0318,0 0.0714,-0.008 0.0238,0.0476 0.0238,0.0794 0,0.10054 -0.19844,0.10054 -0.0503,0 -0.10054,-0.0238 -0.0503,-0.0238 -0.10054,-0.082 -0.0503,-0.0582 -0.0873,-0.10319 -0.0344,-0.045 -0.0873,-0.14023 -0.0503,-0.0952 -0.0714,-0.13493 -0.0212,-0.0423 -0.0714,-0.15082 -0.0503,-0.11112 -0.0582,-0.127 -0.0741,-0.0106 -0.0741,-0.0582 0,-0.0238 0.0132,-0.0714 0.0741,0.0132 0.12435,0.0132 0.17727,0 0.27781,-0.10319 0.10054,-0.10583 0.10054,-0.28575 0,-0.21167 -0.11112,-0.29369 -0.11113,-0.0847 -0.34131,-0.0847 -0.0847,0 -0.20638,0.0106 0.0106,0.15346 0.0106,0.53975 v 0.53181 q 0,0.35719 0.0503,0.52388 -0.0476,0.0212 -0.12436,0.0212 -0.0767,0 -0.10319,-0.0344 -0.0264,-0.0344 -0.0264,-0.11642 0,-0.0423 0.003,-0.20902 0.003,-0.16669 0.003,-0.25929 v -0.52917 q 0,-0.36512 -0.0344,-0.60854 0.19579,-0.0317 0.39423,-0.0317 0.70908,0 0.70908,0.52652 0,0.21696 -0.11906,0.3519 -0.11906,0.13229 -0.31485,0.16933 0,0.003 0.045,0.0979 0.045,0.0952 0.0609,0.127 0.0185,0.0317 0.0556,0.10318 0.037,0.0714 0.0635,0.11377 0.0291,0.0423 0.0556,0.0688 z" />
    </g>
    <path
       id="path5452"
       style="fill:none;fill-opacity:1;stroke:#8c8c8c;stroke-width:0.276;stroke-linecap:round;stroke-miterlimit:4;stroke-dasharray:none;stroke-dashoffset:0;stroke-opacity:1;paint-order:fill markers stroke"
       d="m 104.57086,129.80326 c 0.48866,-0.84638 1.48488,-1.25903 2.4289,-1.00608 0.56797,0.15219 1.03184,0.52248 1.31127,1.00619 m -3.2e-4,2.15966 c -0.27946,0.48344 -0.74319,0.8535 -1.31094,1.00563 -0.94402,0.25295 -1.94024,-0.1597 -2.4289,-1.00608"
       sodipodi:nodetypes="csccsc" />
    <rect
       inkscape:export-ydpi="96"
       inkscape:export-xdpi="96"
       inkscape:export-filename="D:\Calcatz\Icon Pack\Adventure Narative Inspired by Arrival\GUI\Navigation Buttons\Xbox\Light\png\64px\rstick_leftright.png"
       style="fill:#cccccc;fill-opacity:1;stroke-width:0.42744;stroke-linecap:round;paint-order:fill markers stroke"
       id="rect837"
       width="16.933332"
       height="16.933332"
       x="113.50338"
       y="126.64958" />
    <path
       id="path839"
       style="fill:#1f2123;fill-opacity:1;stroke:none;stroke-width:0.552;stroke-linecap:round;stroke-miterlimit:4;stroke-dasharray:none;stroke-opacity:1;paint-order:markers stroke fill"
       inkscape:transform-center-x="0.36905248"
       inkscape:transform-center-y="-1.618643e-05"
       d="m 118.75294,136.29116 v -1.30108 -1.30108 l -1.1072,0.65054 -1.10718,0.65054 1.10718,0.65054 z" />
    <path
       id="path841"
       style="fill:#1f2123;fill-opacity:1;stroke:none;stroke-width:0.552;stroke-linecap:round;stroke-miterlimit:4;stroke-dasharray:none;stroke-opacity:1;paint-order:markers stroke fill"
       inkscape:transform-center-x="-0.36905328"
       inkscape:transform-center-y="-1.618643e-05"
       d="m 125.01136,136.29116 v -1.30108 -1.30108 l 1.1072,0.65054 1.10718,0.65054 -1.10718,0.65054 z" />
    <g
       transform="matrix(2,0,0,2,-90.91178,-126.64958)"
       aria-label="R"
       id="g845"
       style="font-weight:bold;font-size:2.64583px;line-height:1.05;font-family:'Overlock SC';-inkscape-font-specification:'Overlock SC Bold';text-align:end;text-anchor:end;fill:#1f2123;fill-opacity:1;stroke:#ffffff;stroke-width:0.905997;stroke-linecap:round;stroke-miterlimit:4;stroke-dasharray:none;stroke-opacity:1;paint-order:markers stroke fill">
      <path
         d="m 106.78357,131.53774 q 0.0688,0.0767 0.16933,0.0767 0.0318,0 0.0714,-0.008 0.0238,0.0476 0.0238,0.0794 0,0.10054 -0.19844,0.10054 -0.0503,0 -0.10054,-0.0238 -0.0503,-0.0238 -0.10054,-0.082 -0.0503,-0.0582 -0.0873,-0.10319 -0.0344,-0.045 -0.0873,-0.14023 -0.0503,-0.0952 -0.0714,-0.13493 -0.0212,-0.0423 -0.0714,-0.15082 -0.0503,-0.11112 -0.0582,-0.127 -0.0741,-0.0106 -0.0741,-0.0582 0,-0.0238 0.0132,-0.0714 0.0741,0.0132 0.12435,0.0132 0.17727,0 0.27781,-0.10319 0.10054,-0.10583 0.10054,-0.28575 0,-0.21167 -0.11112,-0.29369 -0.11113,-0.0847 -0.34131,-0.0847 -0.0847,0 -0.20638,0.0106 0.0106,0.15346 0.0106,0.53975 v 0.53181 q 0,0.35719 0.0503,0.52388 -0.0476,0.0212 -0.12436,0.0212 -0.0767,0 -0.10319,-0.0344 -0.0264,-0.0344 -0.0264,-0.11642 0,-0.0423 0.003,-0.20902 0.003,-0.16669 0.003,-0.25929 v -0.52917 q 0,-0.36512 -0.0344,-0.60854 0.19579,-0.0317 0.39423,-0.0317 0.70908,0 0.70908,0.52652 0,0.21696 -0.11906,0.3519 -0.11906,0.13229 -0.31485,0.16933 0,0.003 0.045,0.0979 0.045,0.0952 0.0609,0.127 0.0185,0.0317 0.0556,0.10318 0.037,0.0714 0.0635,0.11377 0.0291,0.0423 0.0556,0.0688 z"
         style="font-size:2.64583px;fill:#1f2123;fill-opacity:1;stroke:none;stroke-width:0.905997"
         id="path843" />
    </g>
    <path
       sodipodi:nodetypes="csccsc"
       d="m 118.22994,132.95694 c 0.97732,-1.69276 2.96976,-2.51806 4.8578,-2.01216 1.13594,0.30438 2.06368,1.04496 2.62254,2.01238 m -6.4e-4,4.31932 c -0.55892,0.96688 -1.48638,1.707 -2.62188,2.01126 -1.88804,0.5059 -3.88048,-0.3194 -4.8578,-2.01216"
       style="fill:none;fill-opacity:1;stroke:#8c8c8c;stroke-width:0.552;stroke-linecap:round;stroke-miterlimit:4;stroke-dasharray:none;stroke-dashoffset:0;stroke-opacity:1;paint-order:fill markers stroke"
       id="path847" />
    <rect
       inkscape:export-ydpi="96"
       inkscape:export-xdpi="96"
       inkscape:export-filename="D:\Calcatz\Icon Pack\Adventure Narative Inspired by Arrival\GUI\Navigation Buttons\Xbox\Light\png\128px\rstick_leftright.png"
       y="126.64958"
       x="133.21417"
       height="33.866665"
       width="33.866665"
       id="rect849"
       style="fill:#cccccc;fill-opacity:1;stroke-width:0.85488;stroke-linecap:round;paint-order:fill markers stroke" />
    <path
       d="m 143.71329,145.93274 v -2.60216 -2.60216 l -2.2144,1.30108 -2.21436,1.30108 2.21436,1.30108 z"
       inkscape:transform-center-y="-3.046368e-05"
       inkscape:transform-center-x="0.7381026"
       style="fill:#1f2123;fill-opacity:1;stroke:none;stroke-width:1.104;stroke-linecap:round;stroke-miterlimit:4;stroke-dasharray:none;stroke-opacity:1;paint-order:markers stroke fill"
       id="path851" />
    <path
       d="m 156.23013,145.93274 v -2.60216 -2.60216 l 2.2144,1.30108 2.21436,1.30108 -2.21436,1.30108 z"
       inkscape:transform-center-y="-3.046368e-05"
       inkscape:transform-center-x="-0.73810892"
       style="fill:#1f2123;fill-opacity:1;stroke:none;stroke-width:1.104;stroke-linecap:round;stroke-miterlimit:4;stroke-dasharray:none;stroke-opacity:1;paint-order:markers stroke fill"
       id="path853" />
    <g
       style="font-weight:bold;font-size:2.64583px;line-height:1.05;font-family:'Overlock SC';-inkscape-font-specification:'Overlock SC Bold';text-align:end;text-anchor:end;fill:#1f2123;fill-opacity:1;stroke:#ffffff;stroke-width:0.905997;stroke-linecap:round;stroke-miterlimit:4;stroke-dasharray:none;stroke-opacity:1;paint-order:markers stroke fill"
       id="g857"
       aria-label="R"
       transform="matrix(4,0,0,4,-275.61615,-379.94874)">
      <path
         id="path855"
         style="font-size:2.64583px;fill:#1f2123;fill-opacity:1;stroke:none;stroke-width:0.905997"
         d="m 106.78357,131.53774 q 0.0688,0.0767 0.16933,0.0767 0.0318,0 0.0714,-0.008 0.0238,0.0476 0.0238,0.0794 0,0.10054 -0.19844,0.10054 -0.0503,0 -0.10054,-0.0238 -0.0503,-0.0238 -0.10054,-0.082 -0.0503,-0.0582 -0.0873,-0.10319 -0.0344,-0.045 -0.0873,-0.14023 -0.0503,-0.0952 -0.0714,-0.13493 -0.0212,-0.0423 -0.0714,-0.15082 -0.0503,-0.11112 -0.0582,-0.127 -0.0741,-0.0106 -0.0741,-0.0582 0,-0.0238 0.0132,-0.0714 0.0741,0.0132 0.12435,0.0132 0.17727,0 0.27781,-0.10319 0.10054,-0.10583 0.10054,-0.28575 0,-0.21167 -0.11112,-0.29369 -0.11113,-0.0847 -0.34131,-0.0847 -0.0847,0 -0.20638,0.0106 0.0106,0.15346 0.0106,0.53975 v 0.53181 q 0,0.35719 0.0503,0.52388 -0.0476,0.0212 -0.12436,0.0212 -0.0767,0 -0.10319,-0.0344 -0.0264,-0.0344 -0.0264,-0.11642 0,-0.0423 0.003,-0.20902 0.003,-0.16669 0.003,-0.25929 v -0.52917 q 0,-0.36512 -0.0344,-0.60854 0.19579,-0.0317 0.39423,-0.0317 0.70908,0 0.70908,0.52652 0,0.21696 -0.11906,0.3519 -0.11906,0.13229 -0.31485,0.16933 0,0.003 0.045,0.0979 0.045,0.0952 0.0609,0.127 0.0185,0.0317 0.0556,0.10318 0.037,0.0714 0.0635,0.11377 0.0291,0.0423 0.0556,0.0688 z" />
    </g>
    <path
       id="path859"
       style="fill:none;fill-opacity:1;stroke:#8c8c8c;stroke-width:1.104;stroke-linecap:round;stroke-miterlimit:4;stroke-dasharray:none;stroke-dashoffset:0;stroke-opacity:1;paint-order:fill markers stroke"
       d="m 142.66729,139.2643 c 1.95464,-3.38552 5.93952,-5.03612 9.7156,-4.02432 2.27188,0.60876 4.12736,2.08992 5.24508,4.02476 m -0.001,8.63864 c -1.11784,1.93376 -2.97276,3.414 -5.24376,4.02252 -3.77608,1.0118 -7.76096,-0.6388 -9.7156,-4.02432"
       sodipodi:nodetypes="csccsc" />
    <rect
       inkscape:export-ydpi="96"
       inkscape:export-xdpi="96"
       inkscape:export-filename="D:\Calcatz\Icon Pack\Adventure Narative Inspired by Arrival\GUI\Navigation Buttons\Xbox\Light\png\256px\rstick_leftright.png"
       style="fill:#cccccc;fill-opacity:1;stroke-width:1.70976;stroke-linecap:round;paint-order:fill markers stroke"
       id="rect861"
       width="67.73333"
       height="67.73333"
       x="173.6971"
       y="126.64958" />
    <path
       id="path863"
       style="fill:#1f2123;fill-opacity:1;stroke:none;stroke-width:2.208;stroke-linecap:round;stroke-miterlimit:4;stroke-dasharray:none;stroke-opacity:1;paint-order:markers stroke fill"
       inkscape:transform-center-x="1.4762074"
       inkscape:transform-center-y="-5.901818e-05"
       d="m 194.69534,165.2159 v -5.20432 -5.20432 l -4.4288,2.60216 -4.42872,2.60216 4.42872,2.60216 z" />
    <path
       id="path865"
       style="fill:#1f2123;fill-opacity:1;stroke:none;stroke-width:2.208;stroke-linecap:round;stroke-miterlimit:4;stroke-dasharray:none;stroke-opacity:1;paint-order:markers stroke fill"
       inkscape:transform-center-x="-1.4762156"
       inkscape:transform-center-y="-5.901818e-05"
       d="m 219.72902,165.2159 v -5.20432 -5.20432 l 4.4288,2.60216 4.42872,2.60216 -4.42872,2.60216 z" />
    <g
       transform="matrix(8,0,0,8,-643.96354,-886.54706)"
       aria-label="R"
       id="g869"
       style="font-weight:bold;font-size:2.64583px;line-height:1.05;font-family:'Overlock SC';-inkscape-font-specification:'Overlock SC Bold';text-align:end;text-anchor:end;fill:#1f2123;fill-opacity:1;stroke:#ffffff;stroke-width:0.905997;stroke-linecap:round;stroke-miterlimit:4;stroke-dasharray:none;stroke-opacity:1;paint-order:markers stroke fill">
      <path
         d="m 106.78357,131.53774 q 0.0688,0.0767 0.16933,0.0767 0.0318,0 0.0714,-0.008 0.0238,0.0476 0.0238,0.0794 0,0.10054 -0.19844,0.10054 -0.0503,0 -0.10054,-0.0238 -0.0503,-0.0238 -0.10054,-0.082 -0.0503,-0.0582 -0.0873,-0.10319 -0.0344,-0.045 -0.0873,-0.14023 -0.0503,-0.0952 -0.0714,-0.13493 -0.0212,-0.0423 -0.0714,-0.15082 -0.0503,-0.11112 -0.0582,-0.127 -0.0741,-0.0106 -0.0741,-0.0582 0,-0.0238 0.0132,-0.0714 0.0741,0.0132 0.12435,0.0132 0.17727,0 0.27781,-0.10319 0.10054,-0.10583 0.10054,-0.28575 0,-0.21167 -0.11112,-0.29369 -0.11113,-0.0847 -0.34131,-0.0847 -0.0847,0 -0.20638,0.0106 0.0106,0.15346 0.0106,0.53975 v 0.53181 q 0,0.35719 0.0503,0.52388 -0.0476,0.0212 -0.12436,0.0212 -0.0767,0 -0.10319,-0.0344 -0.0264,-0.0344 -0.0264,-0.11642 0,-0.0423 0.003,-0.20902 0.003,-0.16669 0.003,-0.25929 v -0.52917 q 0,-0.36512 -0.0344,-0.60854 0.19579,-0.0317 0.39423,-0.0317 0.70908,0 0.70908,0.52652 0,0.21696 -0.11906,0.3519 -0.11906,0.13229 -0.31485,0.16933 0,0.003 0.045,0.0979 0.045,0.0952 0.0609,0.127 0.0185,0.0317 0.0556,0.10318 0.037,0.0714 0.0635,0.11377 0.0291,0.0423 0.0556,0.0688 z"
         style="font-size:2.64583px;fill:#1f2123;fill-opacity:1;stroke:none;stroke-width:0.905997"
         id="path867" />
    </g>
    <path
       sodipodi:nodetypes="csccsc"
       d="m 192.60334,151.87902 c 3.90928,-6.77104 11.87904,-10.07224 19.4312,-8.04864 4.54376,1.21752 8.25472,4.17984 10.49016,8.04952 m -0.002,17.27728 c -2.23568,3.86752 -5.94552,6.828 -10.48752,8.04504 -7.55216,2.0236 -15.52192,-1.2776 -19.4312,-8.04864"
       style="fill:none;fill-opacity:1;stroke:#8c8c8c;stroke-width:2.208;stroke-linecap:round;stroke-miterlimit:4;stroke-dasharray:none;stroke-dashoffset:0;stroke-opacity:1;paint-order:fill markers stroke"
       id="path871" />
  </g>
</svg>
