<?xml version="1.0" encoding="UTF-8" standalone="no"?>
<svg
   xmlns:dc="http://purl.org/dc/elements/1.1/"
   xmlns:cc="http://creativecommons.org/ns#"
   xmlns:rdf="http://www.w3.org/1999/02/22-rdf-syntax-ns#"
   xmlns:svg="http://www.w3.org/2000/svg"
   xmlns="http://www.w3.org/2000/svg"
   xmlns:sodipodi="http://sodipodi.sourceforge.net/DTD/sodipodi-0.dtd"
   xmlns:inkscape="http://www.inkscape.org/namespaces/inkscape"
   inkscape:export-ydpi="96"
   inkscape:export-xdpi="96"
   inkscape:export-filename="D:\Calcatz\Icon Pack\Adventure Narative Inspired by Arrival\GUI\Navigation Buttons\Xbox\Light\png\rt.png"
   sodipodi:docname="rt.svg"
   inkscape:version="1.0 (4035a4fb49, 2020-05-01)"
   id="svg3079"
   version="1.1"
   viewBox="0 0 8.4666662 8.4666662"
   height="31.999998"
   width="31.999998">
  <defs
     id="defs3073" />
  <sodipodi:namedview
     inkscape:window-maximized="1"
     inkscape:window-y="-8"
     inkscape:window-x="-8"
     inkscape:window-height="705"
     inkscape:window-width="1366"
     fit-margin-bottom="0"
     fit-margin-right="0"
     fit-margin-left="0"
     fit-margin-top="0"
     showgrid="false"
     inkscape:document-rotation="0"
     inkscape:current-layer="layer1"
     inkscape:document-units="mm"
     inkscape:cy="134.46375"
     inkscape:cx="198.57692"
     inkscape:zoom="1.2339194"
     inkscape:pageshadow="2"
     inkscape:pageopacity="0.0"
     borderopacity="1.0"
     bordercolor="#666666"
     pagecolor="#ffffff"
     id="base"
     units="px" />
  <metadata
     id="metadata3076">
    <rdf:RDF>
      <cc:Work
         rdf:about="">
        <dc:format>image/svg+xml</dc:format>
        <dc:type
           rdf:resource="http://purl.org/dc/dcmitype/StillImage" />
        <dc:title />
      </cc:Work>
    </rdf:RDF>
  </metadata>
  <g
     transform="translate(123.28948,-84.861662)"
     id="layer1"
     inkscape:groupmode="layer"
     inkscape:label="Layer 1">
    <rect
       y="84.861664"
       x="-123.28948"
       height="8.4666662"
       width="8.4666662"
       id="rect833"
       style="fill:#cccccc;fill-opacity:1;stroke-width:0.111115;stroke-linecap:round;paint-order:fill markers stroke" />
    <path
       d="m -119.27871,89.618861 q 0.055,0.06138 0.13546,0.06138 0.0254,0 0.0572,-0.0063 0.019,0.0381 0.019,0.0635 0,0.08043 -0.15875,0.08043 -0.0402,0 -0.0804,-0.01905 -0.0402,-0.01905 -0.0804,-0.06562 -0.0402,-0.04657 -0.0699,-0.08255 -0.0275,-0.03598 -0.0698,-0.112183 -0.0402,-0.0762 -0.0572,-0.107951 -0.0169,-0.03387 -0.0571,-0.12065 -0.0402,-0.0889 -0.0466,-0.1016 -0.0593,-0.0085 -0.0593,-0.04657 0,-0.01905 0.0106,-0.05715 0.0593,0.01058 0.0995,0.01058 0.14182,0 0.22225,-0.08255 0.0804,-0.08467 0.0804,-0.228601 0,-0.169333 -0.0889,-0.23495 -0.0889,-0.06773 -0.27305,-0.06773 -0.0677,0 -0.1651,0.0085 0.008,0.122767 0.008,0.431801 v 0.42545 q 0,0.285751 0.0402,0.419101 -0.0381,0.01693 -0.0995,0.01693 -0.0614,0 -0.0825,-0.02752 -0.0212,-0.02752 -0.0212,-0.09313 0,-0.03387 0.002,-0.167217 0.002,-0.13335 0.002,-0.207433 v -0.423334 q 0,-0.292101 -0.0275,-0.486834 0.15664,-0.0254 0.31539,-0.0254 0.56726,0 0.56726,0.421217 0,0.173567 -0.0952,0.281517 -0.0953,0.105833 -0.25188,0.135467 0,0.0021 0.036,0.07832 0.036,0.0762 0.0487,0.1016 0.0148,0.0254 0.0445,0.08255 0.0296,0.05715 0.0508,0.09102 0.0233,0.03387 0.0444,0.05503 z"
       style="font-weight:bold;font-size:2.11667px;line-height:1.05;font-family:'Overlock SC';-inkscape-font-specification:'Overlock SC Bold';text-align:end;text-anchor:end;fill:#1f2123;fill-opacity:1;stroke:none;stroke-width:0.905997;stroke-linecap:round;stroke-miterlimit:4;stroke-dasharray:none;stroke-opacity:1;paint-order:markers stroke fill"
       id="path3669" />
    <path
       d="m -118.64308,89.307711 v -0.423334 q 0,-0.196851 -0.006,-0.361951 -0.30057,0 -0.40217,0.0085 -0.006,-0.01905 -0.006,-0.05715 0,-0.04233 0.0212,-0.05715 0.0233,-0.01482 0.072,-0.01693 0.0529,-0.0021 0.22649,-0.0021 h 0.24976 q 0.33444,0 0.40852,-0.0063 0.006,0.01905 0.006,0.05503 0,0.04233 -0.0233,0.05715 -0.0212,0.01482 -0.0699,0.01693 -0.0656,0.0021 -0.30269,0.0021 -0.0148,0.302684 -0.0148,0.419101 v 0.42545 q 0,0.285751 0.0402,0.419101 -0.0381,0.01693 -0.0995,0.01693 -0.0614,0 -0.0826,-0.02752 -0.0212,-0.02752 -0.0212,-0.09313 0,-0.03387 0.002,-0.167217 0.002,-0.13335 0.002,-0.207433 z"
       style="font-weight:bold;font-size:2.11667px;line-height:1.05;font-family:'Overlock SC';-inkscape-font-specification:'Overlock SC Bold';text-align:end;text-anchor:end;fill:#1f2123;fill-opacity:1;stroke:none;stroke-width:0.905997;stroke-linecap:round;stroke-miterlimit:4;stroke-dasharray:none;stroke-opacity:1;paint-order:markers stroke fill"
       id="path3671" />
    <path
       id="path5496"
       style="fill:none;stroke:#8c8c8c;stroke-width:0.276;stroke-linecap:round;stroke-miterlimit:4;stroke-dasharray:none;stroke-opacity:1;paint-order:markers stroke fill"
       d="m -119.05613,86.98375 c -0.95541,0 -1.72445,0.76957 -1.72445,1.72495 v 1.76993 h 3.44887 V 88.7087 c 0,-0.95538 -0.76904,-1.72495 -1.72442,-1.72495 z"
       sodipodi:nodetypes="ssccss" />
    <rect
       inkscape:export-ydpi="96"
       inkscape:export-xdpi="96"
       inkscape:export-filename="D:\Calcatz\Icon Pack\Adventure Narative Inspired by Arrival\GUI\Navigation Buttons\Xbox\Light\png\64px\rt.png"
       style="fill:#cccccc;fill-opacity:1;stroke-width:0.22223;stroke-linecap:round;paint-order:fill markers stroke"
       id="rect835"
       width="16.933332"
       height="16.933332"
       x="-112.3538"
       y="84.861664" />
    <path
       id="path837"
       style="font-weight:bold;font-size:2.11667px;line-height:1.05;font-family:'Overlock SC';-inkscape-font-specification:'Overlock SC Bold';text-align:end;text-anchor:end;fill:#1f2123;fill-opacity:1;stroke:none;stroke-width:1.81199;stroke-linecap:round;stroke-miterlimit:4;stroke-dasharray:none;stroke-opacity:1;paint-order:markers stroke fill"
       d="m -104.33226,94.376058 q 0.11,0.12276 0.27092,0.12276 0.0508,0 0.1144,-0.0126 0.038,0.0762 0.038,0.127 0,0.16086 -0.3175,0.16086 -0.0804,0 -0.1608,-0.0381 -0.0804,-0.0381 -0.1608,-0.13124 -0.0804,-0.09314 -0.1398,-0.1651 -0.055,-0.07196 -0.1396,-0.224366 -0.0804,-0.1524 -0.1144,-0.215902 -0.0338,-0.06774 -0.1142,-0.2413 -0.0804,-0.1778 -0.0932,-0.2032 -0.1186,-0.017 -0.1186,-0.09314 0,-0.0381 0.0212,-0.1143 0.1186,0.02116 0.199,0.02116 0.28364,0 0.4445,-0.1651 0.1608,-0.16934 0.1608,-0.457202 0,-0.338666 -0.1778,-0.4699 -0.1778,-0.13546 -0.5461,-0.13546 -0.1354,0 -0.3302,0.017 0.016,0.245534 0.016,0.863602 v 0.8509 q 0,0.571502 0.0804,0.838202 -0.0762,0.03386 -0.199,0.03386 -0.1228,0 -0.165,-0.05504 -0.0424,-0.05504 -0.0424,-0.18626 0,-0.06774 0.004,-0.334434 0.004,-0.2667 0.004,-0.414866 v -0.846668 q 0,-0.584202 -0.055,-0.973668 0.31328,-0.0508 0.63078,-0.0508 1.13452,0 1.13452,0.842434 0,0.347134 -0.1904,0.563034 -0.1906,0.211666 -0.50376,0.270934 0,0.0042 0.072,0.15664 0.072,0.1524 0.0974,0.2032 0.0296,0.0508 0.089,0.1651 0.0592,0.1143 0.1016,0.18204 0.0466,0.06774 0.0888,0.11006 z" />
    <path
       id="path839"
       style="font-weight:bold;font-size:2.11667px;line-height:1.05;font-family:'Overlock SC';-inkscape-font-specification:'Overlock SC Bold';text-align:end;text-anchor:end;fill:#1f2123;fill-opacity:1;stroke:none;stroke-width:1.81199;stroke-linecap:round;stroke-miterlimit:4;stroke-dasharray:none;stroke-opacity:1;paint-order:markers stroke fill"
       d="M -103.061,93.753758 V 92.90709 q 0,-0.393702 -0.012,-0.723902 -0.60114,0 -0.80434,0.017 -0.012,-0.0381 -0.012,-0.1143 0,-0.08466 0.0424,-0.1143 0.0466,-0.02964 0.144,-0.03386 0.1058,-0.0042 0.45298,-0.0042 h 0.49952 q 0.66888,0 0.81704,-0.0126 0.012,0.0381 0.012,0.11006 0,0.08466 -0.0466,0.1143 -0.0424,0.02964 -0.1398,0.03386 -0.1312,0.0042 -0.60538,0.0042 -0.0296,0.605368 -0.0296,0.838202 v 0.8509 q 0,0.571502 0.0804,0.838202 -0.0762,0.03386 -0.199,0.03386 -0.1228,0 -0.1652,-0.05504 -0.0424,-0.05504 -0.0424,-0.18626 0,-0.06774 0.004,-0.334434 0.004,-0.2667 0.004,-0.414866 z" />
    <path
       sodipodi:nodetypes="ssccss"
       d="m -103.8871,89.105836 c -1.91082,0 -3.4489,1.53914 -3.4489,3.4499 v 3.53986 h 6.89774 v -3.53986 c 0,-1.91076 -1.53808,-3.4499 -3.44884,-3.4499 z"
       style="fill:none;stroke:#8c8c8c;stroke-width:0.552;stroke-linecap:round;stroke-miterlimit:4;stroke-dasharray:none;stroke-opacity:1;paint-order:markers stroke fill"
       id="path841" />
    <rect
       inkscape:export-ydpi="96"
       inkscape:export-xdpi="96"
       inkscape:export-filename="D:\Calcatz\Icon Pack\Adventure Narative Inspired by Arrival\GUI\Navigation Buttons\Xbox\Light\png\128px\rt.png"
       y="84.861664"
       x="-91.876198"
       height="33.866665"
       width="33.866665"
       id="rect843"
       style="fill:#cccccc;fill-opacity:1;stroke-width:0.44446;stroke-linecap:round;paint-order:fill markers stroke" />
    <path
       d="m -75.83312,103.89045 q 0.22,0.24552 0.54184,0.24552 0.1016,0 0.2288,-0.0252 0.076,0.1524 0.076,0.254 0,0.32172 -0.635,0.32172 -0.1608,0 -0.3216,-0.0762 -0.1608,-0.0762 -0.3216,-0.26248 -0.1608,-0.18628 -0.2796,-0.3302 -0.11,-0.14392 -0.2792,-0.44873 -0.1608,-0.3048 -0.2288,-0.4318 -0.0676,-0.13548 -0.2284,-0.4826 -0.1608,-0.3556 -0.1864,-0.4064 -0.2372,-0.034 -0.2372,-0.18628 0,-0.0762 0.0424,-0.2286 0.2372,0.0423 0.398,0.0423 0.56728,0 0.889,-0.3302 0.3216,-0.33868 0.3216,-0.91441 0,-0.67733 -0.3556,-0.939798 -0.3556,-0.27092 -1.0922,-0.27092 -0.2708,0 -0.6604,0.034 0.032,0.491068 0.032,1.727208 v 1.7018 q 0,1.143 0.1608,1.6764 -0.1524,0.0677 -0.398,0.0677 -0.2456,0 -0.33,-0.11008 -0.0848,-0.11008 -0.0848,-0.37252 0,-0.13548 0.008,-0.66887 0.008,-0.5334 0.008,-0.82973 v -1.69334 q 0,-1.1684 -0.11,-1.947332 0.62656,-0.1016 1.26156,-0.1016 2.26904,0 2.26904,1.684872 0,0.69426 -0.3808,1.12606 -0.3812,0.42334 -1.00752,0.54187 0,0.008 0.144,0.31328 0.144,0.3048 0.1948,0.4064 0.0592,0.1016 0.178,0.3302 0.1184,0.2286 0.2032,0.36408 0.0932,0.13548 0.1776,0.22012 z"
       style="font-weight:bold;font-size:2.11667px;line-height:1.05;font-family:'Overlock SC';-inkscape-font-specification:'Overlock SC Bold';text-align:end;text-anchor:end;fill:#1f2123;fill-opacity:1;stroke:none;stroke-width:3.62398;stroke-linecap:round;stroke-miterlimit:4;stroke-dasharray:none;stroke-opacity:1;paint-order:markers stroke fill"
       id="path845" />
    <path
       d="m -73.2906,102.64585 v -1.69333 q 0,-0.78741 -0.024,-1.447808 -1.20228,0 -1.60868,0.034 -0.024,-0.0762 -0.024,-0.2286 0,-0.16932 0.0848,-0.2286 0.0932,-0.05928 0.288,-0.06772 0.2116,-0.0084 0.90596,-0.0084 h 0.99904 q 1.33776,0 1.63408,-0.0252 0.024,0.0762 0.024,0.22012 0,0.16932 -0.0932,0.2286 -0.0848,0.05928 -0.2796,0.06772 -0.2624,0.0084 -1.21076,0.0084 -0.0592,1.210738 -0.0592,1.676408 v 1.7018 q 0,1.143 0.1608,1.6764 -0.1524,0.0677 -0.398,0.0677 -0.2456,0 -0.3304,-0.11008 -0.0848,-0.11008 -0.0848,-0.37252 0,-0.13548 0.008,-0.66887 0.008,-0.5334 0.008,-0.82973 z"
       style="font-weight:bold;font-size:2.11667px;line-height:1.05;font-family:'Overlock SC';-inkscape-font-specification:'Overlock SC Bold';text-align:end;text-anchor:end;fill:#1f2123;fill-opacity:1;stroke:none;stroke-width:3.62398;stroke-linecap:round;stroke-miterlimit:4;stroke-dasharray:none;stroke-opacity:1;paint-order:markers stroke fill"
       id="path847" />
    <path
       id="path849"
       style="fill:none;stroke:#8c8c8c;stroke-width:1.104;stroke-linecap:round;stroke-miterlimit:4;stroke-dasharray:none;stroke-opacity:1;paint-order:markers stroke fill"
       d="m -74.9428,93.350008 c -3.82164,0 -6.8978,3.07828 -6.8978,6.899802 v 7.07972 h 13.79548 v -7.07972 c 0,-3.821522 -3.07616,-6.899802 -6.89768,-6.899802 z"
       sodipodi:nodetypes="ssccss" />
    <rect
       inkscape:export-ydpi="96"
       inkscape:export-xdpi="96"
       inkscape:export-filename="D:\Calcatz\Icon Pack\Adventure Narative Inspired by Arrival\GUI\Navigation Buttons\Xbox\Light\png\256px\rt.png"
       style="fill:#cccccc;fill-opacity:1;stroke-width:0.88892;stroke-linecap:round;paint-order:fill markers stroke"
       id="rect851"
       width="67.73333"
       height="67.73333"
       x="-52.636398"
       y="84.861664" />
    <path
       id="path853"
       style="font-weight:bold;font-size:2.11667px;line-height:1.05;font-family:'Overlock SC';-inkscape-font-specification:'Overlock SC Bold';text-align:end;text-anchor:end;fill:#1f2123;fill-opacity:1;stroke:none;stroke-width:7.24796;stroke-linecap:round;stroke-miterlimit:4;stroke-dasharray:none;stroke-opacity:1;paint-order:markers stroke fill"
       d="m -20.550242,122.91924 q 0.44,0.49104 1.08368,0.49104 0.2032,0 0.4576,-0.0504 0.152,0.3048 0.152,0.508 0,0.64344 -1.27,0.64344 -0.3216,0 -0.6432,-0.1524 -0.3216,-0.1524 -0.6432,-0.52496 -0.3216,-0.37256 -0.5592,-0.6604 -0.22,-0.28784 -0.5584,-0.89746 -0.3216,-0.6096 -0.4576,-0.8636 -0.1352,-0.27096 -0.4568,-0.9652 -0.3216,-0.7112 -0.3728,-0.8128 -0.4744,-0.068 -0.4744,-0.37256 0,-0.1524 0.0848,-0.4572 0.4744,0.0846 0.796,0.0846 1.13456,0 1.778,-0.6604 0.6432,-0.67736 0.6432,-1.82882 0,-1.35466 -0.7112,-1.8796 -0.7112,-0.54184 -2.1844,-0.54184 -0.5416,0 -1.3208,0.068 0.064,0.98214 0.064,3.45442 v 3.4036 q 0,2.286 0.3216,3.3528 -0.3048,0.1354 -0.796,0.1354 -0.4912,0 -0.66,-0.22016 -0.1696,-0.22016 -0.1696,-0.74504 0,-0.27096 0.016,-1.33774 0.016,-1.0668 0.016,-1.65946 v -3.38668 q 0,-2.3368 -0.22,-3.89467 1.25312,-0.2032 2.52312,-0.2032 4.53808,0 4.53808,3.36975 0,1.38852 -0.7616,2.25212 -0.7624,0.84668 -2.01504,1.08374 0,0.016 0.288,0.62656 0.288,0.6096 0.3896,0.8128 0.1184,0.2032 0.356,0.6604 0.2368,0.4572 0.4064,0.72816 0.1864,0.27096 0.3552,0.44024 z" />
    <path
       id="path855"
       style="font-weight:bold;font-size:2.11667px;line-height:1.05;font-family:'Overlock SC';-inkscape-font-specification:'Overlock SC Bold';text-align:end;text-anchor:end;fill:#1f2123;fill-opacity:1;stroke:none;stroke-width:7.24796;stroke-linecap:round;stroke-miterlimit:4;stroke-dasharray:none;stroke-opacity:1;paint-order:markers stroke fill"
       d="m -15.465202,120.43004 v -3.38666 q 0,-1.57482 -0.048,-2.89562 -2.40456,0 -3.21736,0.068 -0.048,-0.1524 -0.048,-0.4572 0,-0.33864 0.1696,-0.4572 0.1864,-0.11856 0.576,-0.13544 0.4232,-0.0168 1.81192,-0.0168 h 1.99808 q 2.67552,0 3.26816,-0.0504 0.048,0.1524 0.048,0.44024 0,0.33864 -0.1864,0.4572 -0.1696,0.11856 -0.5592,0.13544 -0.5248,0.0168 -2.42152,0.0168 -0.1184,2.42148 -0.1184,3.35282 v 3.4036 q 0,2.286 0.3216,3.3528 -0.3048,0.1354 -0.796,0.1354 -0.4912,0 -0.6608,-0.22016 -0.1696,-0.22016 -0.1696,-0.74504 0,-0.27096 0.016,-1.33774 0.016,-1.0668 0.016,-1.65946 z" />
    <path
       sodipodi:nodetypes="ssccss"
       d="m -18.769602,101.83835 c -7.64328,0 -13.7956,6.15656 -13.7956,13.79961 v 14.15944 h 27.5909603 v -14.15944 c 0,-7.64305 -6.1523203,-13.79961 -13.7953603,-13.79961 z"
       style="fill:none;stroke:#8c8c8c;stroke-width:2.208;stroke-linecap:round;stroke-miterlimit:4;stroke-dasharray:none;stroke-opacity:1;paint-order:markers stroke fill"
       id="path857" />
  </g>
</svg>
