<?xml version="1.0" encoding="UTF-8" standalone="no"?>
<svg
   xmlns:dc="http://purl.org/dc/elements/1.1/"
   xmlns:cc="http://creativecommons.org/ns#"
   xmlns:rdf="http://www.w3.org/1999/02/22-rdf-syntax-ns#"
   xmlns:svg="http://www.w3.org/2000/svg"
   xmlns="http://www.w3.org/2000/svg"
   xmlns:sodipodi="http://sodipodi.sourceforge.net/DTD/sodipodi-0.dtd"
   xmlns:inkscape="http://www.inkscape.org/namespaces/inkscape"
   inkscape:export-ydpi="96"
   inkscape:export-xdpi="96"
   inkscape:export-filename="D:\Calcatz\Icon Pack\Adventure Narative Inspired by Arrival\GUI\Navigation Buttons\Xbox\Light\png\xbox_button.png"
   sodipodi:docname="xbox_button.svg"
   inkscape:version="1.0 (4035a4fb49, 2020-05-01)"
   id="svg6097"
   version="1.1"
   viewBox="0 0 8.4666662 8.4666662"
   height="31.999998"
   width="31.999998">
  <defs
     id="defs6091" />
  <sodipodi:namedview
     inkscape:window-maximized="1"
     inkscape:window-y="-8"
     inkscape:window-x="-8"
     inkscape:window-height="705"
     inkscape:window-width="1366"
     fit-margin-bottom="0"
     fit-margin-right="0"
     fit-margin-left="0"
     fit-margin-top="0"
     showgrid="false"
     inkscape:document-rotation="0"
     inkscape:current-layer="layer1"
     inkscape:document-units="mm"
     inkscape:cy="116.52115"
     inkscape:cx="131.5847"
     inkscape:zoom="1.2339194"
     inkscape:pageshadow="2"
     inkscape:pageopacity="0.0"
     borderopacity="1.0"
     bordercolor="#666666"
     pagecolor="#ffffff"
     id="base"
     units="px" />
  <metadata
     id="metadata6094">
    <rdf:RDF>
      <cc:Work
         rdf:about="">
        <dc:format>image/svg+xml</dc:format>
        <dc:type
           rdf:resource="http://purl.org/dc/dcmitype/StillImage" />
        <dc:title />
      </cc:Work>
    </rdf:RDF>
  </metadata>
  <g
     transform="translate(-101.59999,-143.93333)"
     id="layer1"
     inkscape:groupmode="layer"
     inkscape:label="Layer 1">
    <rect
       y="143.93333"
       x="101.59999"
       height="8.4666662"
       width="8.4666662"
       id="rect832"
       style="fill:#cccccc;fill-opacity:1;stroke-width:0.213609;stroke-linecap:round;paint-order:fill markers stroke" />
    <path
       id="circle5422"
       style="fill:none;fill-opacity:1;stroke:#8c8c8c;stroke-width:0.276;stroke-linecap:round;stroke-miterlimit:4;stroke-dasharray:none;stroke-dashoffset:0;stroke-opacity:1;paint-order:fill markers stroke"
       d="m 107.78826,148.16667 a 1.9549105,1.9549105 0 0 1 -1.95491,1.95491 1.9549105,1.9549105 0 0 1 -1.95491,-1.95491 1.9549105,1.9549105 0 0 1 1.95491,-1.95491 1.9549105,1.9549105 0 0 1 1.95491,1.95491" />
    <path
       d="m 104.96755,146.57194 a 1.8185818,1.8185818 0 0 0 -0.36912,0.26627 c 0.0203,2.5e-4 0.0428,0.005 0.0777,0.0166 0.14342,0.0472 0.28166,0.14022 0.50607,0.34083 0.075,0.0671 0.1485,0.13418 0.14953,0.13651 5.4e-4,8.5e-4 -0.0214,0.0297 -0.0489,0.0633 -0.20293,0.2482 -0.402,0.53679 -0.57117,0.8285 -0.23063,0.39768 -0.33944,0.67389 -0.35834,0.90705 -0.003,0.0351 -8.7e-4,0.0649 0.003,0.0925 a 1.8185818,1.8185818 0 0 0 0.22945,0.26405 c -0.005,-0.0168 -0.007,-0.0258 -0.007,-0.066 5e-5,-0.0366 0.002,-0.0583 0.006,-0.0777 0.0546,-0.25544 0.32677,-0.64751 0.74498,-1.07278 0.22479,-0.22858 0.48204,-0.45309 0.51908,-0.45309 0.0301,0 0.19994,0.15093 0.44725,0.39786 0.23287,0.23251 0.34138,0.35113 0.45531,0.49798 0.20431,0.26339 0.33203,0.4981 0.3579,0.65694 0.006,0.0348 0.005,0.0679 4.4e-4,0.098 a 1.8185818,1.8185818 0 0 0 0.22138,-0.26313 c 0.0102,-0.11007 -0.0212,-0.28126 -0.0858,-0.44454 -0.0807,-0.20419 -0.23505,-0.49223 -0.41491,-0.77506 -0.13484,-0.21202 -0.24564,-0.36824 -0.39966,-0.56219 -0.0378,-0.0477 -0.0696,-0.0886 -0.0705,-0.0906 -0.002,-0.005 0.16596,-0.15927 0.25504,-0.23352 0.16012,-0.13331 0.27837,-0.20594 0.4028,-0.24739 0.0215,-0.007 0.0404,-0.0102 0.0593,-0.0134 a 1.8185818,1.8185818 0 0 0 -0.36418,-0.2636 c -0.198,-0.005 -0.41947,0.0541 -0.72249,0.19848 -0.0824,0.0391 -0.14845,0.0687 -0.15404,0.0687 -0.003,0 -0.0459,-0.0204 -0.097,-0.0459 v -4.7e-4 c -0.10817,-0.0535 -0.14411,-0.0705 -0.21285,-0.0984 -0.12114,-0.0491 -0.26318,-0.0945 -0.34802,-0.11138 -0.0548,-0.011 -0.0949,-0.0137 -0.18005,-0.0134 -0.0169,8e-5 -0.0182,-6.6e-4 -0.0315,-8.6e-4 z"
       style="fill:#1f2123;fill-opacity:1;stroke:none;stroke-width:0.276;stroke-linecap:round;stroke-miterlimit:4;stroke-dasharray:none;stroke-dashoffset:0;stroke-opacity:0.105882;paint-order:fill markers stroke"
       id="path5424" />
    <rect
       inkscape:export-ydpi="96"
       inkscape:export-xdpi="96"
       inkscape:export-filename="D:\Calcatz\Icon Pack\Adventure Narative Inspired by Arrival\GUI\Navigation Buttons\Xbox\Light\png\64px\xbox_button.png"
       style="fill:#cccccc;fill-opacity:1;stroke-width:0.427218;stroke-linecap:round;paint-order:fill markers stroke"
       id="rect834"
       width="16.933332"
       height="16.933332"
       x="112.66836"
       y="143.93333" />
    <path
       d="m 125.0449,152.40001 a 3.909821,3.909821 0 0 1 -3.90982,3.90982 3.909821,3.909821 0 0 1 -3.90982,-3.90982 3.909821,3.909821 0 0 1 3.90982,-3.90982 3.909821,3.909821 0 0 1 3.90982,3.90982"
       style="fill:none;fill-opacity:1;stroke:#8c8c8c;stroke-width:0.552;stroke-linecap:round;stroke-miterlimit:4;stroke-dasharray:none;stroke-dashoffset:0;stroke-opacity:1;paint-order:fill markers stroke"
       id="path836" />
    <path
       id="path838"
       style="fill:#1f2123;fill-opacity:1;stroke:none;stroke-width:0.552;stroke-linecap:round;stroke-miterlimit:4;stroke-dasharray:none;stroke-dashoffset:0;stroke-opacity:0.105882;paint-order:fill markers stroke"
       d="m 119.40348,149.21055 a 3.6371636,3.6371636 0 0 0 -0.73824,0.53254 c 0.0406,5e-4 0.0856,0.01 0.1554,0.0332 0.28684,0.0944 0.56332,0.28044 1.01214,0.68166 0.15,0.1342 0.297,0.26836 0.29906,0.27302 0.001,0.002 -0.0428,0.0594 -0.0978,0.1266 -0.40586,0.4964 -0.804,1.07358 -1.14234,1.657 -0.46126,0.79536 -0.67888,1.34778 -0.71668,1.8141 -0.006,0.0702 -0.002,0.1298 0.006,0.185 a 3.6371636,3.6371636 0 0 0 0.4589,0.5281 c -0.01,-0.0336 -0.014,-0.0516 -0.014,-0.132 1e-4,-0.0732 0.004,-0.1166 0.012,-0.1554 0.1092,-0.51088 0.65354,-1.29502 1.48996,-2.14556 0.44958,-0.45716 0.96408,-0.90618 1.03816,-0.90618 0.0602,0 0.39988,0.30186 0.8945,0.79572 0.46574,0.46502 0.68276,0.70226 0.91062,0.99596 0.40862,0.52678 0.66406,0.9962 0.7158,1.31388 0.012,0.0696 0.01,0.1358 8.8e-4,0.196 a 3.6371636,3.6371636 0 0 0 0.44276,-0.52626 c 0.0204,-0.22014 -0.0424,-0.56252 -0.1716,-0.88908 -0.1614,-0.40838 -0.4701,-0.98446 -0.82982,-1.55012 -0.26968,-0.42404 -0.49128,-0.73648 -0.79932,-1.12438 -0.0756,-0.0954 -0.1392,-0.1772 -0.141,-0.1812 -0.004,-0.01 0.33192,-0.31854 0.51008,-0.46704 0.32024,-0.26662 0.55674,-0.41188 0.8056,-0.49478 0.043,-0.014 0.0808,-0.0204 0.1186,-0.0268 a 3.6371636,3.6371636 0 0 0 -0.72836,-0.5272 c -0.396,-0.01 -0.83894,0.1082 -1.44498,0.39696 -0.1648,0.0782 -0.2969,0.1374 -0.30808,0.1374 -0.006,0 -0.0918,-0.0408 -0.194,-0.0918 v -9.4e-4 c -0.21634,-0.107 -0.28822,-0.141 -0.4257,-0.1968 -0.24228,-0.0982 -0.52636,-0.189 -0.69604,-0.22276 -0.1096,-0.022 -0.1898,-0.0274 -0.3601,-0.0268 -0.0338,1.6e-4 -0.0364,-0.001 -0.063,-0.002 z" />
    <rect
       inkscape:export-ydpi="96"
       inkscape:export-xdpi="96"
       inkscape:export-filename="D:\Calcatz\Icon Pack\Adventure Narative Inspired by Arrival\GUI\Navigation Buttons\Xbox\Light\png\128px\xbox_button.png"
       y="143.93333"
       x="132.00009"
       height="33.866665"
       width="33.866665"
       id="rect840"
       style="fill:#cccccc;fill-opacity:1;stroke-width:0.854436;stroke-linecap:round;paint-order:fill markers stroke" />
    <path
       id="path842"
       style="fill:none;fill-opacity:1;stroke:#8c8c8c;stroke-width:1.104;stroke-linecap:round;stroke-miterlimit:4;stroke-dasharray:none;stroke-dashoffset:0;stroke-opacity:1;paint-order:fill markers stroke"
       d="m 156.75319,160.86669 a 7.819642,7.819642 0 0 1 -7.81964,7.81964 7.819642,7.819642 0 0 1 -7.81964,-7.81964 7.819642,7.819642 0 0 1 7.81964,-7.81964 7.819642,7.819642 0 0 1 7.81964,7.81964" />
    <path
       d="m 145.47035,154.48777 a 7.2743272,7.2743272 0 0 0 -1.47648,1.06508 c 0.0812,0.001 0.1712,0.02 0.3108,0.0664 0.57368,0.1888 1.12664,0.56088 2.02428,1.36332 0.3,0.2684 0.594,0.53672 0.59812,0.54604 0.002,0.004 -0.0856,0.1188 -0.1956,0.2532 -0.81172,0.9928 -1.608,2.14716 -2.28468,3.314 -0.92252,1.59072 -1.35776,2.69556 -1.43336,3.6282 -0.012,0.1404 -0.004,0.2596 0.012,0.37 a 7.2743272,7.2743272 0 0 0 0.9178,1.0562 c -0.02,-0.0672 -0.028,-0.1032 -0.028,-0.264 2e-4,-0.1464 0.008,-0.2332 0.024,-0.3108 0.2184,-1.02176 1.30708,-2.59004 2.97992,-4.29112 0.89916,-0.91432 1.92816,-1.81236 2.07632,-1.81236 0.1204,0 0.79976,0.60372 1.789,1.59144 0.93148,0.93004 1.36552,1.40452 1.82124,1.99192 0.81724,1.05356 1.32812,1.9924 1.4316,2.62776 0.024,0.1392 0.02,0.2716 0.002,0.392 a 7.2743272,7.2743272 0 0 0 0.88552,-1.05252 c 0.0408,-0.44028 -0.0848,-1.12504 -0.3432,-1.77816 -0.3228,-0.81676 -0.9402,-1.96892 -1.65964,-3.10024 -0.53936,-0.84808 -0.98256,-1.47296 -1.59864,-2.24876 -0.1512,-0.1908 -0.2784,-0.3544 -0.282,-0.3624 -0.008,-0.02 0.66384,-0.63708 1.02016,-0.93408 0.64048,-0.53324 1.11348,-0.82376 1.6112,-0.98956 0.086,-0.028 0.1616,-0.0408 0.2372,-0.0536 a 7.2743272,7.2743272 0 0 0 -1.45672,-1.0544 c -0.792,-0.02 -1.67788,0.2164 -2.88996,0.79392 -0.3296,0.1564 -0.5938,0.2748 -0.61616,0.2748 -0.012,0 -0.1836,-0.0816 -0.388,-0.1836 v -0.002 c -0.43268,-0.214 -0.57644,-0.282 -0.8514,-0.3936 -0.48456,-0.1964 -1.05272,-0.378 -1.39208,-0.44552 -0.2192,-0.044 -0.3796,-0.0548 -0.7202,-0.0536 -0.0676,3.2e-4 -0.0728,-0.002 -0.126,-0.004 z"
       style="fill:#1f2123;fill-opacity:1;stroke:none;stroke-width:1.104;stroke-linecap:round;stroke-miterlimit:4;stroke-dasharray:none;stroke-dashoffset:0;stroke-opacity:0.105882;paint-order:fill markers stroke"
       id="path844" />
    <rect
       inkscape:export-ydpi="96"
       inkscape:export-xdpi="96"
       inkscape:export-filename="D:\Calcatz\Icon Pack\Adventure Narative Inspired by Arrival\GUI\Navigation Buttons\Xbox\Light\png\256px\xbox_button.png"
       style="fill:#cccccc;fill-opacity:1;stroke-width:1.70887;stroke-linecap:round;paint-order:fill markers stroke"
       id="rect846"
       width="67.73333"
       height="67.73333"
       x="170.20869"
       y="143.93333" />
    <path
       d="m 219.71491,177.80005 a 15.639284,15.639284 0 0 1 -15.63928,15.63928 15.639284,15.639284 0 0 1 -15.63928,-15.63928 15.639284,15.639284 0 0 1 15.63928,-15.63928 15.639284,15.639284 0 0 1 15.63928,15.63928"
       style="fill:none;fill-opacity:1;stroke:#8c8c8c;stroke-width:2.208;stroke-linecap:round;stroke-miterlimit:4;stroke-dasharray:none;stroke-dashoffset:0;stroke-opacity:1;paint-order:fill markers stroke"
       id="path848" />
    <path
       id="path850"
       style="fill:#1f2123;fill-opacity:1;stroke:none;stroke-width:2.208;stroke-linecap:round;stroke-miterlimit:4;stroke-dasharray:none;stroke-dashoffset:0;stroke-opacity:0.105882;paint-order:fill markers stroke"
       d="m 197.14923,165.04221 a 14.548654,14.548654 0 0 0 -2.95296,2.13016 c 0.1624,0.002 0.3424,0.04 0.6216,0.1328 1.14736,0.3776 2.25328,1.12176 4.04856,2.72664 0.6,0.5368 1.188,1.07344 1.19624,1.09208 0.004,0.008 -0.1712,0.2376 -0.3912,0.5064 -1.62344,1.9856 -3.216,4.29432 -4.56936,6.628 -1.84504,3.18144 -2.71552,5.39112 -2.86672,7.2564 -0.024,0.2808 -0.008,0.5192 0.024,0.74 a 14.548654,14.548654 0 0 0 1.8356,2.1124 c -0.04,-0.1344 -0.056,-0.2064 -0.056,-0.528 4e-4,-0.2928 0.016,-0.4664 0.048,-0.6216 0.4368,-2.04352 2.61416,-5.18008 5.95984,-8.58224 1.79832,-1.82864 3.85632,-3.62472 4.15264,-3.62472 0.2408,0 1.59952,1.20744 3.578,3.18288 1.86296,1.86008 2.73104,2.80904 3.64248,3.98384 1.63448,2.10712 2.65624,3.9848 2.8632,5.25552 0.048,0.2784 0.04,0.5432 0.004,0.784 a 14.548654,14.548654 0 0 0 1.77104,-2.10504 c 0.0816,-0.88056 -0.1696,-2.25008 -0.6864,-3.55632 -0.6456,-1.63352 -1.8804,-3.93784 -3.31928,-6.20048 -1.07872,-1.69616 -1.96512,-2.94592 -3.19728,-4.49752 -0.3024,-0.3816 -0.5568,-0.7088 -0.564,-0.7248 -0.016,-0.04 1.32768,-1.27416 2.04032,-1.86816 1.28096,-1.06648 2.22696,-1.64752 3.2224,-1.97912 0.172,-0.056 0.3232,-0.0816 0.4744,-0.1072 a 14.548654,14.548654 0 0 0 -2.91344,-2.1088 c -1.584,-0.04 -3.35576,0.4328 -5.77992,1.58784 -0.6592,0.3128 -1.1876,0.5496 -1.23232,0.5496 -0.024,0 -0.3672,-0.1632 -0.776,-0.3672 v -0.004 c -0.86536,-0.428 -1.15288,-0.564 -1.7028,-0.7872 -0.96912,-0.3928 -2.10544,-0.756 -2.78416,-0.89104 -0.4384,-0.088 -0.7592,-0.1096 -1.4404,-0.1072 -0.1352,6.4e-4 -0.1456,-0.004 -0.252,-0.008 z" />
  </g>
</svg>
