<?xml version="1.0" encoding="UTF-8" standalone="no"?>
<svg
   xmlns:dc="http://purl.org/dc/elements/1.1/"
   xmlns:cc="http://creativecommons.org/ns#"
   xmlns:rdf="http://www.w3.org/1999/02/22-rdf-syntax-ns#"
   xmlns:svg="http://www.w3.org/2000/svg"
   xmlns="http://www.w3.org/2000/svg"
   xmlns:sodipodi="http://sodipodi.sourceforge.net/DTD/sodipodi-0.dtd"
   xmlns:inkscape="http://www.inkscape.org/namespaces/inkscape"
   inkscape:export-ydpi="96"
   inkscape:export-xdpi="96"
   inkscape:export-filename="D:\Calcatz\Icon Pack\Adventure Narative Inspired by Arrival\GUI\Navigation Buttons\Playstation\Light\png\circle.png"
   sodipodi:docname="circle.svg"
   inkscape:version="1.0 (4035a4fb49, 2020-05-01)"
   id="svg2441"
   version="1.1"
   viewBox="0 0 8.4666662 8.4666662"
   height="31.999998"
   width="31.999998">
  <defs
     id="defs2435" />
  <sodipodi:namedview
     inkscape:window-maximized="1"
     inkscape:window-y="-8"
     inkscape:window-x="-8"
     inkscape:window-height="705"
     inkscape:window-width="1366"
     fit-margin-bottom="0"
     fit-margin-right="0"
     fit-margin-left="0"
     fit-margin-top="0"
     showgrid="false"
     inkscape:document-rotation="0"
     inkscape:current-layer="layer1"
     inkscape:document-units="mm"
     inkscape:cy="95.990564"
     inkscape:cx="157.49874"
     inkscape:zoom="1.2339194"
     inkscape:pageshadow="2"
     inkscape:pageopacity="0.0"
     borderopacity="1.0"
     bordercolor="#666666"
     pagecolor="#ffffff"
     id="base"
     units="px" />
  <metadata
     id="metadata2438">
    <rdf:RDF>
      <cc:Work
         rdf:about="">
        <dc:format>image/svg+xml</dc:format>
        <dc:type
           rdf:resource="http://purl.org/dc/dcmitype/StillImage" />
        <dc:title />
      </cc:Work>
    </rdf:RDF>
  </metadata>
  <g
     transform="translate(130.38553,-1.2858257)"
     id="layer1"
     inkscape:groupmode="layer"
     inkscape:label="Layer 1">
    <rect
       y="1.2858257"
       x="-130.38553"
       height="8.4666662"
       width="8.4666662"
       id="rect831"
       style="fill:#cccccc;fill-opacity:1;stroke-width:0.167075;stroke-linecap:round;paint-order:fill markers stroke" />
    <path
       d="m -124.77201,5.519165 a 1.3801887,1.3801887 0 0 1 -1.38019,1.3801887 1.3801887,1.3801887 0 0 1 -1.38019,-1.3801887 1.3801887,1.3801887 0 0 1 1.38019,-1.3801887 1.3801887,1.3801887 0 0 1 1.38019,1.3801887"
       style="fill:none;fill-opacity:1;stroke:#1f2123;stroke-width:0.276;stroke-linecap:round;stroke-miterlimit:4;stroke-dasharray:none;stroke-dashoffset:0;stroke-opacity:1;paint-order:fill markers stroke"
       id="circle4662" />
    <rect
       inkscape:export-ydpi="96"
       inkscape:export-xdpi="96"
       inkscape:export-filename="D:\Calcatz\Icon Pack\Adventure Narative Inspired by Arrival\GUI\Navigation Buttons\Playstation\Light\png\64px\circle.png"
       style="fill:#cccccc;fill-opacity:1;stroke-width:0.33415;stroke-linecap:round;paint-order:fill markers stroke"
       id="rect833"
       width="16.933332"
       height="16.933332"
       x="-120.87128"
       y="1.2858257" />
    <path
       id="path835"
       style="fill:none;fill-opacity:1;stroke:#1f2123;stroke-width:0.552;stroke-linecap:round;stroke-miterlimit:4;stroke-dasharray:none;stroke-dashoffset:0;stroke-opacity:1;paint-order:fill markers stroke"
       d="m -109.64424,9.7525043 a 2.7603774,2.7603774 0 0 1 -2.76038,2.7603777 2.7603774,2.7603774 0 0 1 -2.76038,-2.7603777 2.7603774,2.7603774 0 0 1 2.76038,-2.7603774 2.7603774,2.7603774 0 0 1 2.76038,2.7603774" />
    <rect
       inkscape:export-ydpi="96"
       inkscape:export-xdpi="96"
       inkscape:export-filename="D:\Calcatz\Icon Pack\Adventure Narative Inspired by Arrival\GUI\Navigation Buttons\Playstation\Light\png\128px\circle.png"
       y="1.2858257"
       x="-101.91859"
       height="33.866665"
       width="33.866665"
       id="rect837"
       style="fill:#cccccc;fill-opacity:1;stroke-width:0.6683;stroke-linecap:round;paint-order:fill markers stroke" />
    <path
       d="m -79.464525,18.219183 a 5.5207548,5.5207548 0 0 1 -5.52076,5.520755 5.5207548,5.5207548 0 0 1 -5.52076,-5.520755 5.5207548,5.5207548 0 0 1 5.52076,-5.520755 5.5207548,5.5207548 0 0 1 5.52076,5.520755"
       style="fill:none;fill-opacity:1;stroke:#1f2123;stroke-width:1.104;stroke-linecap:round;stroke-miterlimit:4;stroke-dasharray:none;stroke-dashoffset:0;stroke-opacity:1;paint-order:fill markers stroke"
       id="path839" />
    <rect
       inkscape:export-ydpi="96"
       inkscape:export-xdpi="96"
       inkscape:export-filename="D:\Calcatz\Icon Pack\Adventure Narative Inspired by Arrival\GUI\Navigation Buttons\Playstation\Light\png\256px\circle.png"
       style="fill:#cccccc;fill-opacity:1;stroke-width:1.3366;stroke-linecap:round;paint-order:fill markers stroke"
       id="rect841"
       width="67.73333"
       height="67.73333"
       x="-63.322063"
       y="1.2858257" />
    <path
       id="path843"
       style="fill:none;fill-opacity:1;stroke:#1f2123;stroke-width:2.208;stroke-linecap:round;stroke-miterlimit:4;stroke-dasharray:none;stroke-dashoffset:0;stroke-opacity:1;paint-order:fill markers stroke"
       d="m -18.413937,35.15254 a 11.04151,11.04151 0 0 1 -11.04152,11.04151 11.04151,11.04151 0 0 1 -11.04152,-11.04151 11.04151,11.04151 0 0 1 11.04152,-11.04151 11.04151,11.04151 0 0 1 11.04152,11.04151" />
  </g>
</svg>
