<?xml version="1.0" encoding="UTF-8" standalone="no"?>
<svg
   xmlns:dc="http://purl.org/dc/elements/1.1/"
   xmlns:cc="http://creativecommons.org/ns#"
   xmlns:rdf="http://www.w3.org/1999/02/22-rdf-syntax-ns#"
   xmlns:svg="http://www.w3.org/2000/svg"
   xmlns="http://www.w3.org/2000/svg"
   xmlns:sodipodi="http://sodipodi.sourceforge.net/DTD/sodipodi-0.dtd"
   xmlns:inkscape="http://www.inkscape.org/namespaces/inkscape"
   inkscape:export-ydpi="96"
   inkscape:export-xdpi="96"
   inkscape:export-filename="D:\Calcatz\Icon Pack\Adventure Narative Inspired by Arrival\GUI\Navigation Buttons\Playstation\Light\png\l1.png"
   sodipodi:docname="l1.svg"
   inkscape:version="1.0 (4035a4fb49, 2020-05-01)"
   id="svg3692"
   version="1.1"
   viewBox="0 0 8.4666662 8.4666662"
   height="31.999998"
   width="31.999998">
  <defs
     id="defs3686" />
  <sodipodi:namedview
     inkscape:window-maximized="1"
     inkscape:window-y="-8"
     inkscape:window-x="-8"
     inkscape:window-height="705"
     inkscape:window-width="1366"
     fit-margin-bottom="0"
     fit-margin-right="0"
     fit-margin-left="0"
     fit-margin-top="0"
     showgrid="false"
     inkscape:document-rotation="0"
     inkscape:current-layer="layer1"
     inkscape:document-units="mm"
     inkscape:cy="171.04843"
     inkscape:cx="75.156829"
     inkscape:zoom="0.61695969"
     inkscape:pageshadow="2"
     inkscape:pageopacity="0.0"
     borderopacity="1.0"
     bordercolor="#666666"
     pagecolor="#ffffff"
     id="base"
     units="px" />
  <metadata
     id="metadata3689">
    <rdf:RDF>
      <cc:Work
         rdf:about="">
        <dc:format>image/svg+xml</dc:format>
        <dc:type
           rdf:resource="http://purl.org/dc/dcmitype/StillImage" />
        <dc:title />
      </cc:Work>
    </rdf:RDF>
  </metadata>
  <g
     transform="translate(-101.59999,-143.93333)"
     id="layer1"
     inkscape:groupmode="layer"
     inkscape:label="Layer 1">
    <rect
       y="143.93333"
       x="101.59999"
       height="8.4666662"
       width="8.4666662"
       id="rect835"
       style="fill:#cccccc;fill-opacity:1;stroke-width:0.35496;stroke-linecap:round;paint-order:fill markers stroke" />
    <g
       transform="translate(-322.53716,-239.94571)"
       aria-label="1"
       id="text5292"
       style="font-weight:bold;font-size:2.64583px;line-height:1.05;font-family:'Overlock SC';-inkscape-font-specification:'Overlock SC Bold';text-align:end;text-anchor:end;fill:#1f2123;fill-opacity:1;stroke:#ffffff;stroke-width:0.905998;stroke-linecap:round;stroke-miterlimit:4;stroke-dasharray:none;stroke-opacity:1;paint-order:markers stroke fill">
      <path
         d="m 428.95893,388.67582 q 0.10054,0 0.22225,-0.0106 0.0106,0.0318 0.0106,0.0582 0,0.10054 -0.10318,0.10054 -0.0159,0 -0.13229,-0.003 -0.11642,-0.003 -0.23019,-0.003 -0.14817,0 -0.23019,0.003 -0.0132,-0.0397 -0.0132,-0.0635 0,-0.09 0.15346,-0.09 h 0.127 q 0,-0.0344 0.003,-0.20373 0.003,-0.16933 0.003,-0.30691 0,-0.23284 -0.008,-0.43127 -0.2196,0.0265 -0.27516,0.037 -0.005,-0.0265 -0.005,-0.045 0,-0.0979 0.10318,-0.11377 0.254,-0.0423 0.27252,-0.0423 0.0397,0 0.0714,0.0238 0.0344,0.0238 0.0344,0.0767 0,0.0159 -0.005,0.10054 -0.005,0.0847 -0.0106,0.21431 -0.005,0.12965 -0.005,0.25135 v 0.09 q 0,0.24077 0.0185,0.35719 z"
         style="font-size:2.64583px;fill:#1f2123;fill-opacity:1;stroke:none;stroke-width:0.905998"
         id="path4294" />
    </g>
    <path
       id="path5458"
       style="fill:none;fill-opacity:1;stroke:#8c8c8c;stroke-width:0.276;stroke-linecap:round;stroke-miterlimit:4;stroke-dasharray:none;stroke-opacity:1;paint-order:markers stroke fill"
       d="m 104.83386,146.71571 c -0.63785,0 -1.15115,0.51495 -1.15115,1.15487 v 1.74703 h 4.30128 v -1.74703 c 0,-0.63992 -0.51328,-1.15487 -1.15115,-1.15487 z"
       sodipodi:nodetypes="ssccsss" />
    <g
       transform="translate(-322.53716,-239.94571)"
       aria-label="L"
       id="text5288"
       style="font-weight:bold;font-size:2.11667px;line-height:1.05;font-family:'Overlock SC';-inkscape-font-specification:'Overlock SC Bold';text-align:end;text-anchor:end;fill:#1f2123;fill-opacity:1;stroke:#ffffff;stroke-width:0.905998;stroke-linecap:round;stroke-miterlimit:4;stroke-dasharray:none;stroke-opacity:1;paint-order:markers stroke fill">
      <path
         d="m 427.56407,388.33629 v -0.43815 q 0,-0.29845 -0.0148,-0.49107 0.036,-0.006 0.0868,-0.006 0.10372,0 0.10372,0.0804 0,0.0127 -0.004,0.0868 -0.004,0.072 -0.008,0.18203 -0.004,0.10795 -0.004,0.20532 v 0.1905 q 0,0.44027 0.0148,0.5334 0.0889,0.004 0.1397,0.004 0.3302,0 0.42545,-0.0487 0.0148,0.0444 0.0148,0.0931 0,0.0381 -0.019,0.055 -0.036,0.0317 -0.32385,0.0317 -0.254,0 -0.3175,-0.004 -0.0572,-0.002 -0.0783,-0.0296 -0.019,-0.0275 -0.019,-0.091 0,-0.0339 0.002,-0.15663 0.002,-0.12277 0.002,-0.19685 z"
         style="font-size:2.11667px;fill:#1f2123;fill-opacity:1;stroke:none;stroke-width:0.905998"
         id="path4291" />
    </g>
    <rect
       inkscape:export-ydpi="96"
       inkscape:export-xdpi="96"
       inkscape:export-filename="D:\Calcatz\Icon Pack\Adventure Narative Inspired by Arrival\GUI\Navigation Buttons\Playstation\Light\png\64px\l1.png"
       style="fill:#cccccc;fill-opacity:1;stroke-width:0.70992;stroke-linecap:round;paint-order:fill markers stroke"
       id="rect837"
       width="16.933332"
       height="16.933332"
       x="111.0615"
       y="143.93333" />
    <g
       style="font-weight:bold;font-size:2.64583px;line-height:1.05;font-family:'Overlock SC';-inkscape-font-specification:'Overlock SC Bold';text-align:end;text-anchor:end;fill:#1f2123;fill-opacity:1;stroke:#ffffff;stroke-width:0.905998;stroke-linecap:round;stroke-miterlimit:4;stroke-dasharray:none;stroke-opacity:1;paint-order:markers stroke fill"
       id="g841"
       aria-label="1"
       transform="matrix(2,0,0,2,-737.2128,-623.82475)">
      <path
         id="path839"
         style="font-size:2.64583px;fill:#1f2123;fill-opacity:1;stroke:none;stroke-width:0.905998"
         d="m 428.95893,388.67582 q 0.10054,0 0.22225,-0.0106 0.0106,0.0318 0.0106,0.0582 0,0.10054 -0.10318,0.10054 -0.0159,0 -0.13229,-0.003 -0.11642,-0.003 -0.23019,-0.003 -0.14817,0 -0.23019,0.003 -0.0132,-0.0397 -0.0132,-0.0635 0,-0.09 0.15346,-0.09 h 0.127 q 0,-0.0344 0.003,-0.20373 0.003,-0.16933 0.003,-0.30691 0,-0.23284 -0.008,-0.43127 -0.2196,0.0265 -0.27516,0.037 -0.005,-0.0265 -0.005,-0.045 0,-0.0979 0.10318,-0.11377 0.254,-0.0423 0.27252,-0.0423 0.0397,0 0.0714,0.0238 0.0344,0.0238 0.0344,0.0767 0,0.0159 -0.005,0.10054 -0.005,0.0847 -0.0106,0.21431 -0.005,0.12965 -0.005,0.25135 v 0.09 q 0,0.24077 0.0185,0.35719 z" />
    </g>
    <path
       sodipodi:nodetypes="ssccsss"
       d="m 117.52924,149.49809 c -1.2757,0 -2.3023,1.0299 -2.3023,2.30974 v 3.49406 h 8.60256 v -3.49406 c 0,-1.27984 -1.02656,-2.30974 -2.3023,-2.30974 z"
       style="fill:none;fill-opacity:1;stroke:#8c8c8c;stroke-width:0.552;stroke-linecap:round;stroke-miterlimit:4;stroke-dasharray:none;stroke-opacity:1;paint-order:markers stroke fill"
       id="path843" />
    <g
       style="font-weight:bold;font-size:2.11667px;line-height:1.05;font-family:'Overlock SC';-inkscape-font-specification:'Overlock SC Bold';text-align:end;text-anchor:end;fill:#1f2123;fill-opacity:1;stroke:#ffffff;stroke-width:0.905998;stroke-linecap:round;stroke-miterlimit:4;stroke-dasharray:none;stroke-opacity:1;paint-order:markers stroke fill"
       id="g847"
       aria-label="L"
       transform="matrix(2,0,0,2,-737.2128,-623.82475)">
      <path
         id="path845"
         style="font-size:2.11667px;fill:#1f2123;fill-opacity:1;stroke:none;stroke-width:0.905998"
         d="m 427.56407,388.33629 v -0.43815 q 0,-0.29845 -0.0148,-0.49107 0.036,-0.006 0.0868,-0.006 0.10372,0 0.10372,0.0804 0,0.0127 -0.004,0.0868 -0.004,0.072 -0.008,0.18203 -0.004,0.10795 -0.004,0.20532 v 0.1905 q 0,0.44027 0.0148,0.5334 0.0889,0.004 0.1397,0.004 0.3302,0 0.42545,-0.0487 0.0148,0.0444 0.0148,0.0931 0,0.0381 -0.019,0.055 -0.036,0.0317 -0.32385,0.0317 -0.254,0 -0.3175,-0.004 -0.0572,-0.002 -0.0783,-0.0296 -0.019,-0.0275 -0.019,-0.091 0,-0.0339 0.002,-0.15663 0.002,-0.12277 0.002,-0.19685 z" />
    </g>
    <rect
       inkscape:export-ydpi="96"
       inkscape:export-xdpi="96"
       inkscape:export-filename="D:\Calcatz\Icon Pack\Adventure Narative Inspired by Arrival\GUI\Navigation Buttons\Playstation\Light\png\128px\l1.png"
       y="143.93333"
       x="130.54486"
       height="33.866665"
       width="33.866665"
       id="rect849"
       style="fill:#cccccc;fill-opacity:1;stroke-width:1.41984;stroke-linecap:round;paint-order:fill markers stroke" />
    <g
       transform="matrix(4,0,0,4,-1566.0037,-1391.5828)"
       aria-label="1"
       id="g853"
       style="font-weight:bold;font-size:2.64583px;line-height:1.05;font-family:'Overlock SC';-inkscape-font-specification:'Overlock SC Bold';text-align:end;text-anchor:end;fill:#1f2123;fill-opacity:1;stroke:#ffffff;stroke-width:0.905998;stroke-linecap:round;stroke-miterlimit:4;stroke-dasharray:none;stroke-opacity:1;paint-order:markers stroke fill">
      <path
         d="m 428.95893,388.67582 q 0.10054,0 0.22225,-0.0106 0.0106,0.0318 0.0106,0.0582 0,0.10054 -0.10318,0.10054 -0.0159,0 -0.13229,-0.003 -0.11642,-0.003 -0.23019,-0.003 -0.14817,0 -0.23019,0.003 -0.0132,-0.0397 -0.0132,-0.0635 0,-0.09 0.15346,-0.09 h 0.127 q 0,-0.0344 0.003,-0.20373 0.003,-0.16933 0.003,-0.30691 0,-0.23284 -0.008,-0.43127 -0.2196,0.0265 -0.27516,0.037 -0.005,-0.0265 -0.005,-0.045 0,-0.0979 0.10318,-0.11377 0.254,-0.0423 0.27252,-0.0423 0.0397,0 0.0714,0.0238 0.0344,0.0238 0.0344,0.0767 0,0.0159 -0.005,0.10054 -0.005,0.0847 -0.0106,0.21431 -0.005,0.12965 -0.005,0.25135 v 0.09 q 0,0.24077 0.0185,0.35719 z"
         style="font-size:2.64583px;fill:#1f2123;fill-opacity:1;stroke:none;stroke-width:0.905998"
         id="path851" />
    </g>
    <path
       id="path855"
       style="fill:none;fill-opacity:1;stroke:#8c8c8c;stroke-width:1.104;stroke-linecap:round;stroke-miterlimit:4;stroke-dasharray:none;stroke-opacity:1;paint-order:markers stroke fill"
       d="m 143.48034,155.06285 c -2.5514,0 -4.6046,2.0598 -4.6046,4.61948 v 6.98812 h 17.20512 v -6.98812 c 0,-2.55968 -2.05312,-4.61948 -4.6046,-4.61948 z"
       sodipodi:nodetypes="ssccsss" />
    <g
       transform="matrix(4,0,0,4,-1566.0037,-1391.5828)"
       aria-label="L"
       id="g859"
       style="font-weight:bold;font-size:2.11667px;line-height:1.05;font-family:'Overlock SC';-inkscape-font-specification:'Overlock SC Bold';text-align:end;text-anchor:end;fill:#1f2123;fill-opacity:1;stroke:#ffffff;stroke-width:0.905998;stroke-linecap:round;stroke-miterlimit:4;stroke-dasharray:none;stroke-opacity:1;paint-order:markers stroke fill">
      <path
         d="m 427.56407,388.33629 v -0.43815 q 0,-0.29845 -0.0148,-0.49107 0.036,-0.006 0.0868,-0.006 0.10372,0 0.10372,0.0804 0,0.0127 -0.004,0.0868 -0.004,0.072 -0.008,0.18203 -0.004,0.10795 -0.004,0.20532 v 0.1905 q 0,0.44027 0.0148,0.5334 0.0889,0.004 0.1397,0.004 0.3302,0 0.42545,-0.0487 0.0148,0.0444 0.0148,0.0931 0,0.0381 -0.019,0.055 -0.036,0.0317 -0.32385,0.0317 -0.254,0 -0.3175,-0.004 -0.0572,-0.002 -0.0783,-0.0296 -0.019,-0.0275 -0.019,-0.091 0,-0.0339 0.002,-0.15663 0.002,-0.12277 0.002,-0.19685 z"
         style="font-size:2.11667px;fill:#1f2123;fill-opacity:1;stroke:none;stroke-width:0.905998"
         id="path857" />
    </g>
    <rect
       inkscape:export-ydpi="96"
       inkscape:export-xdpi="96"
       inkscape:export-filename="D:\Calcatz\Icon Pack\Adventure Narative Inspired by Arrival\GUI\Navigation Buttons\Playstation\Light\png\256px\l1.png"
       style="fill:#cccccc;fill-opacity:1;stroke-width:2.83968;stroke-linecap:round;paint-order:fill markers stroke"
       id="rect861"
       width="67.73333"
       height="67.73333"
       x="171.28564"
       y="143.93333" />
    <g
       style="font-weight:bold;font-size:2.64583px;line-height:1.05;font-family:'Overlock SC';-inkscape-font-specification:'Overlock SC Bold';text-align:end;text-anchor:end;fill:#1f2123;fill-opacity:1;stroke:#ffffff;stroke-width:0.905998;stroke-linecap:round;stroke-miterlimit:4;stroke-dasharray:none;stroke-opacity:1;paint-order:markers stroke fill"
       id="g865"
       aria-label="1"
       transform="matrix(8,0,0,8,-3221.8114,-2927.0989)">
      <path
         id="path863"
         style="font-size:2.64583px;fill:#1f2123;fill-opacity:1;stroke:none;stroke-width:0.905998"
         d="m 428.95893,388.67582 q 0.10054,0 0.22225,-0.0106 0.0106,0.0318 0.0106,0.0582 0,0.10054 -0.10318,0.10054 -0.0159,0 -0.13229,-0.003 -0.11642,-0.003 -0.23019,-0.003 -0.14817,0 -0.23019,0.003 -0.0132,-0.0397 -0.0132,-0.0635 0,-0.09 0.15346,-0.09 h 0.127 q 0,-0.0344 0.003,-0.20373 0.003,-0.16933 0.003,-0.30691 0,-0.23284 -0.008,-0.43127 -0.2196,0.0265 -0.27516,0.037 -0.005,-0.0265 -0.005,-0.045 0,-0.0979 0.10318,-0.11377 0.254,-0.0423 0.27252,-0.0423 0.0397,0 0.0714,0.0238 0.0344,0.0238 0.0344,0.0767 0,0.0159 -0.005,0.10054 -0.005,0.0847 -0.0106,0.21431 -0.005,0.12965 -0.005,0.25135 v 0.09 q 0,0.24077 0.0185,0.35719 z" />
    </g>
    <path
       sodipodi:nodetypes="ssccsss"
       d="m 197.1566,166.19237 c -5.1028,0 -9.2092,4.1196 -9.2092,9.23896 v 13.97624 h 34.41024 v -13.97624 c 0,-5.11936 -4.10624,-9.23896 -9.2092,-9.23896 z"
       style="fill:none;fill-opacity:1;stroke:#8c8c8c;stroke-width:2.208;stroke-linecap:round;stroke-miterlimit:4;stroke-dasharray:none;stroke-opacity:1;paint-order:markers stroke fill"
       id="path867" />
    <g
       style="font-weight:bold;font-size:2.11667px;line-height:1.05;font-family:'Overlock SC';-inkscape-font-specification:'Overlock SC Bold';text-align:end;text-anchor:end;fill:#1f2123;fill-opacity:1;stroke:#ffffff;stroke-width:0.905998;stroke-linecap:round;stroke-miterlimit:4;stroke-dasharray:none;stroke-opacity:1;paint-order:markers stroke fill"
       id="g871"
       aria-label="L"
       transform="matrix(8,0,0,8,-3221.8114,-2927.0989)">
      <path
         id="path869"
         style="font-size:2.11667px;fill:#1f2123;fill-opacity:1;stroke:none;stroke-width:0.905998"
         d="m 427.56407,388.33629 v -0.43815 q 0,-0.29845 -0.0148,-0.49107 0.036,-0.006 0.0868,-0.006 0.10372,0 0.10372,0.0804 0,0.0127 -0.004,0.0868 -0.004,0.072 -0.008,0.18203 -0.004,0.10795 -0.004,0.20532 v 0.1905 q 0,0.44027 0.0148,0.5334 0.0889,0.004 0.1397,0.004 0.3302,0 0.42545,-0.0487 0.0148,0.0444 0.0148,0.0931 0,0.0381 -0.019,0.055 -0.036,0.0317 -0.32385,0.0317 -0.254,0 -0.3175,-0.004 -0.0572,-0.002 -0.0783,-0.0296 -0.019,-0.0275 -0.019,-0.091 0,-0.0339 0.002,-0.15663 0.002,-0.12277 0.002,-0.19685 z" />
    </g>
  </g>
</svg>
