<?xml version="1.0" encoding="UTF-8" standalone="no"?>
<svg
   xmlns:dc="http://purl.org/dc/elements/1.1/"
   xmlns:cc="http://creativecommons.org/ns#"
   xmlns:rdf="http://www.w3.org/1999/02/22-rdf-syntax-ns#"
   xmlns:svg="http://www.w3.org/2000/svg"
   xmlns="http://www.w3.org/2000/svg"
   xmlns:sodipodi="http://sodipodi.sourceforge.net/DTD/sodipodi-0.dtd"
   xmlns:inkscape="http://www.inkscape.org/namespaces/inkscape"
   inkscape:export-ydpi="96"
   inkscape:export-xdpi="96"
   inkscape:export-filename="D:\Calcatz\Icon Pack\Adventure Narative Inspired by Arrival\GUI\Navigation Buttons\Playstation\Light\png\l2.png"
   sodipodi:docname="l2.svg"
   inkscape:version="1.0 (4035a4fb49, 2020-05-01)"
   id="svg4307"
   version="1.1"
   viewBox="0 0 8.4666662 8.4666662"
   height="31.999998"
   width="31.999998">
  <defs
     id="defs4301" />
  <sodipodi:namedview
     inkscape:window-maximized="1"
     inkscape:window-y="-8"
     inkscape:window-x="-8"
     inkscape:window-height="705"
     inkscape:window-width="1366"
     fit-margin-bottom="0"
     fit-margin-right="0"
     fit-margin-left="0"
     fit-margin-top="0"
     showgrid="false"
     inkscape:document-rotation="0"
     inkscape:current-layer="layer1"
     inkscape:document-units="mm"
     inkscape:cy="162.04273"
     inkscape:cx="121.58529"
     inkscape:zoom="0.87251276"
     inkscape:pageshadow="2"
     inkscape:pageopacity="0.0"
     borderopacity="1.0"
     bordercolor="#666666"
     pagecolor="#ffffff"
     id="base"
     units="px" />
  <metadata
     id="metadata4304">
    <rdf:RDF>
      <cc:Work
         rdf:about="">
        <dc:format>image/svg+xml</dc:format>
        <dc:type
           rdf:resource="http://purl.org/dc/dcmitype/StillImage" />
        <dc:title />
      </cc:Work>
    </rdf:RDF>
  </metadata>
  <g
     transform="translate(-111.669,-140.05325)"
     id="layer1"
     inkscape:groupmode="layer"
     inkscape:label="Layer 1">
    <rect
       y="140.05325"
       x="111.669"
       height="8.4666662"
       width="8.4666662"
       id="rect835"
       style="fill:#cccccc;fill-opacity:1;stroke-width:0.314995;stroke-linecap:round;paint-order:fill markers stroke" />
    <g
       transform="translate(-303.64611,-243.61081)"
       aria-label="2"
       id="text5312"
       style="font-weight:bold;font-size:2.64583px;line-height:1.05;font-family:'Overlock SC';-inkscape-font-specification:'Overlock SC Bold';text-align:end;text-anchor:end;fill:#1f2123;fill-opacity:1;stroke:#ffffff;stroke-width:0.905998;stroke-linecap:round;stroke-miterlimit:4;stroke-dasharray:none;stroke-opacity:1;paint-order:markers stroke fill">
      <path
         d="m 419.9425,388.44233 q 0.20637,0 0.5662,-0.0212 0.16934,-0.005 0.28046,-0.0344 0.0318,0.045 0.0318,0.0952 0,0.11113 -0.1905,0.11906 -0.20637,0.008 -0.43656,0.008 -0.17462,0 -0.381,-0.005 -0.12171,0 -0.12171,-0.11906 0,-0.0212 0.003,-0.0317 0.0423,-0.0291 0.18785,-0.11907 0.14552,-0.0926 0.21961,-0.14552 0.0741,-0.0556 0.17462,-0.14023 0.10319,-0.0847 0.14817,-0.16404 0.0476,-0.082 0.0476,-0.16139 0,-0.0979 -0.0741,-0.1614 -0.0714,-0.0635 -0.18785,-0.0635 -0.0847,0 -0.17727,0.0609 -0.0926,0.0609 -0.15082,0.15345 -0.0953,-0.0132 -0.0953,-0.082 0,-0.0926 0.14288,-0.18785 0.14287,-0.0952 0.3175,-0.0952 0.1905,0 0.30427,0.0926 0.11377,0.0926 0.11377,0.23813 0,0.18256 -0.17992,0.38894 -0.17991,0.20637 -0.54239,0.3757 z"
         style="font-size:2.64583px;fill:#1f2123;fill-opacity:1;stroke:none;stroke-width:0.905998"
         id="path4909" />
    </g>
    <path
       sodipodi:nodetypes="sccs"
       id="path5460"
       style="fill:none;fill-opacity:1;stroke:#8c8c8c;stroke-width:0.276;stroke-linecap:round;stroke-miterlimit:4;stroke-dasharray:none;stroke-opacity:1;paint-order:markers stroke fill"
       d="m 116.37366,142.73861 c 1.30329,-3e-5 1.36208,1.34829 1.46399,3.09594 h -3.87059 c 0.10192,-1.74765 1.09779,-3.09592 2.4066,-3.09594 z" />
    <g
       transform="translate(-303.64611,-243.61081)"
       aria-label="L"
       id="text5308"
       style="font-weight:bold;font-size:2.11667px;line-height:1.05;font-family:'Overlock SC';-inkscape-font-specification:'Overlock SC Bold';text-align:end;text-anchor:end;fill:#1f2123;fill-opacity:1;stroke:#ffffff;stroke-width:0.905998;stroke-linecap:round;stroke-miterlimit:4;stroke-dasharray:none;stroke-opacity:1;paint-order:markers stroke fill">
      <path
         d="m 418.82869,388.12132 v -0.43815 q 0,-0.29845 -0.0148,-0.49106 0.036,-0.006 0.0868,-0.006 0.10371,0 0.10371,0.0804 0,0.0127 -0.004,0.0868 -0.004,0.072 -0.008,0.18204 -0.004,0.10795 -0.004,0.20531 v 0.1905 q 0,0.44027 0.0148,0.53341 0.0889,0.004 0.1397,0.004 0.3302,0 0.42545,-0.0487 0.0148,0.0444 0.0148,0.0931 0,0.0381 -0.019,0.055 -0.036,0.0317 -0.32385,0.0317 -0.254,0 -0.3175,-0.004 -0.0572,-0.002 -0.0783,-0.0296 -0.019,-0.0275 -0.019,-0.091 0,-0.0339 0.002,-0.15663 0.002,-0.12277 0.002,-0.19686 z"
         style="font-size:2.11667px;fill:#1f2123;fill-opacity:1;stroke:none;stroke-width:0.905998"
         id="path4906" />
    </g>
    <rect
       inkscape:export-ydpi="96"
       inkscape:export-xdpi="96"
       inkscape:export-filename="D:\Calcatz\Icon Pack\Adventure Narative Inspired by Arrival\GUI\Navigation Buttons\Playstation\Light\png\64px\l2.png"
       style="fill:#cccccc;fill-opacity:1;stroke-width:0.62999;stroke-linecap:round;paint-order:fill markers stroke"
       id="rect837"
       width="16.933332"
       height="16.933332"
       x="121.52439"
       y="140.05325" />
    <g
       style="font-weight:bold;font-size:2.64583px;line-height:1.05;font-family:'Overlock SC';-inkscape-font-specification:'Overlock SC Bold';text-align:end;text-anchor:end;fill:#1f2123;fill-opacity:1;stroke:#ffffff;stroke-width:0.905998;stroke-linecap:round;stroke-miterlimit:4;stroke-dasharray:none;stroke-opacity:1;paint-order:markers stroke fill"
       id="g841"
       aria-label="2"
       transform="matrix(2,0,0,2,-709.10581,-627.27487)">
      <path
         id="path839"
         style="font-size:2.64583px;fill:#1f2123;fill-opacity:1;stroke:none;stroke-width:0.905998"
         d="m 419.9425,388.44233 q 0.20637,0 0.5662,-0.0212 0.16934,-0.005 0.28046,-0.0344 0.0318,0.045 0.0318,0.0952 0,0.11113 -0.1905,0.11906 -0.20637,0.008 -0.43656,0.008 -0.17462,0 -0.381,-0.005 -0.12171,0 -0.12171,-0.11906 0,-0.0212 0.003,-0.0317 0.0423,-0.0291 0.18785,-0.11907 0.14552,-0.0926 0.21961,-0.14552 0.0741,-0.0556 0.17462,-0.14023 0.10319,-0.0847 0.14817,-0.16404 0.0476,-0.082 0.0476,-0.16139 0,-0.0979 -0.0741,-0.1614 -0.0714,-0.0635 -0.18785,-0.0635 -0.0847,0 -0.17727,0.0609 -0.0926,0.0609 -0.15082,0.15345 -0.0953,-0.0132 -0.0953,-0.082 0,-0.0926 0.14288,-0.18785 0.14287,-0.0952 0.3175,-0.0952 0.1905,0 0.30427,0.0926 0.11377,0.0926 0.11377,0.23813 0,0.18256 -0.17992,0.38894 -0.17991,0.20637 -0.54239,0.3757 z" />
    </g>
    <path
       d="m 130.93373,145.42397 c 2.60658,-6e-5 2.72416,2.69658 2.92798,6.19188 h -7.74118 c 0.20384,-3.4953 2.19558,-6.19184 4.8132,-6.19188 z"
       style="fill:none;fill-opacity:1;stroke:#8c8c8c;stroke-width:0.552;stroke-linecap:round;stroke-miterlimit:4;stroke-dasharray:none;stroke-opacity:1;paint-order:markers stroke fill"
       id="path843"
       sodipodi:nodetypes="sccs" />
    <g
       style="font-weight:bold;font-size:2.11667px;line-height:1.05;font-family:'Overlock SC';-inkscape-font-specification:'Overlock SC Bold';text-align:end;text-anchor:end;fill:#1f2123;fill-opacity:1;stroke:#ffffff;stroke-width:0.905998;stroke-linecap:round;stroke-miterlimit:4;stroke-dasharray:none;stroke-opacity:1;paint-order:markers stroke fill"
       id="g847"
       aria-label="L"
       transform="matrix(2,0,0,2,-709.10581,-627.27487)">
      <path
         id="path845"
         style="font-size:2.11667px;fill:#1f2123;fill-opacity:1;stroke:none;stroke-width:0.905998"
         d="m 418.82869,388.12132 v -0.43815 q 0,-0.29845 -0.0148,-0.49106 0.036,-0.006 0.0868,-0.006 0.10371,0 0.10371,0.0804 0,0.0127 -0.004,0.0868 -0.004,0.072 -0.008,0.18204 -0.004,0.10795 -0.004,0.20531 v 0.1905 q 0,0.44027 0.0148,0.53341 0.0889,0.004 0.1397,0.004 0.3302,0 0.42545,-0.0487 0.0148,0.0444 0.0148,0.0931 0,0.0381 -0.019,0.055 -0.036,0.0317 -0.32385,0.0317 -0.254,0 -0.3175,-0.004 -0.0572,-0.002 -0.0783,-0.0296 -0.019,-0.0275 -0.019,-0.091 0,-0.0339 0.002,-0.15663 0.002,-0.12277 0.002,-0.19686 z" />
    </g>
    <rect
       inkscape:export-ydpi="96"
       inkscape:export-xdpi="96"
       inkscape:export-filename="D:\Calcatz\Icon Pack\Adventure Narative Inspired by Arrival\GUI\Navigation Buttons\Playstation\Light\png\128px\l2.png"
       y="140.05325"
       x="140.93195"
       height="33.866665"
       width="33.866665"
       id="rect849"
       style="fill:#cccccc;fill-opacity:1;stroke-width:1.25998;stroke-linecap:round;paint-order:fill markers stroke" />
    <g
       transform="matrix(4,0,0,4,-1520.3285,-1394.603)"
       aria-label="2"
       id="g853"
       style="font-weight:bold;font-size:2.64583px;line-height:1.05;font-family:'Overlock SC';-inkscape-font-specification:'Overlock SC Bold';text-align:end;text-anchor:end;fill:#1f2123;fill-opacity:1;stroke:#ffffff;stroke-width:0.905998;stroke-linecap:round;stroke-miterlimit:4;stroke-dasharray:none;stroke-opacity:1;paint-order:markers stroke fill">
      <path
         d="m 419.9425,388.44233 q 0.20637,0 0.5662,-0.0212 0.16934,-0.005 0.28046,-0.0344 0.0318,0.045 0.0318,0.0952 0,0.11113 -0.1905,0.11906 -0.20637,0.008 -0.43656,0.008 -0.17462,0 -0.381,-0.005 -0.12171,0 -0.12171,-0.11906 0,-0.0212 0.003,-0.0317 0.0423,-0.0291 0.18785,-0.11907 0.14552,-0.0926 0.21961,-0.14552 0.0741,-0.0556 0.17462,-0.14023 0.10319,-0.0847 0.14817,-0.16404 0.0476,-0.082 0.0476,-0.16139 0,-0.0979 -0.0741,-0.1614 -0.0714,-0.0635 -0.18785,-0.0635 -0.0847,0 -0.17727,0.0609 -0.0926,0.0609 -0.15082,0.15345 -0.0953,-0.0132 -0.0953,-0.082 0,-0.0926 0.14288,-0.18785 0.14287,-0.0952 0.3175,-0.0952 0.1905,0 0.30427,0.0926 0.11377,0.0926 0.11377,0.23813 0,0.18256 -0.17992,0.38894 -0.17991,0.20637 -0.54239,0.3757 z"
         style="font-size:2.64583px;fill:#1f2123;fill-opacity:1;stroke:none;stroke-width:0.905998"
         id="path851" />
    </g>
    <path
       sodipodi:nodetypes="sccs"
       id="path855"
       style="fill:none;fill-opacity:1;stroke:#8c8c8c;stroke-width:1.104;stroke-linecap:round;stroke-miterlimit:4;stroke-dasharray:none;stroke-opacity:1;paint-order:markers stroke fill"
       d="m 159.75061,150.79469 c 5.21316,-1.2e-4 5.44832,5.39316 5.85596,12.38376 h -15.48236 c 0.40768,-6.9906 4.39116,-12.38368 9.6264,-12.38376 z" />
    <g
       transform="matrix(4,0,0,4,-1520.3285,-1394.603)"
       aria-label="L"
       id="g859"
       style="font-weight:bold;font-size:2.11667px;line-height:1.05;font-family:'Overlock SC';-inkscape-font-specification:'Overlock SC Bold';text-align:end;text-anchor:end;fill:#1f2123;fill-opacity:1;stroke:#ffffff;stroke-width:0.905998;stroke-linecap:round;stroke-miterlimit:4;stroke-dasharray:none;stroke-opacity:1;paint-order:markers stroke fill">
      <path
         d="m 418.82869,388.12132 v -0.43815 q 0,-0.29845 -0.0148,-0.49106 0.036,-0.006 0.0868,-0.006 0.10371,0 0.10371,0.0804 0,0.0127 -0.004,0.0868 -0.004,0.072 -0.008,0.18204 -0.004,0.10795 -0.004,0.20531 v 0.1905 q 0,0.44027 0.0148,0.53341 0.0889,0.004 0.1397,0.004 0.3302,0 0.42545,-0.0487 0.0148,0.0444 0.0148,0.0931 0,0.0381 -0.019,0.055 -0.036,0.0317 -0.32385,0.0317 -0.254,0 -0.3175,-0.004 -0.0572,-0.002 -0.0783,-0.0296 -0.019,-0.0275 -0.019,-0.091 0,-0.0339 0.002,-0.15663 0.002,-0.12277 0.002,-0.19686 z"
         style="font-size:2.11667px;fill:#1f2123;fill-opacity:1;stroke:none;stroke-width:0.905998"
         id="path857" />
    </g>
    <rect
       inkscape:export-ydpi="96"
       inkscape:export-xdpi="96"
       inkscape:export-filename="D:\Calcatz\Icon Pack\Adventure Narative Inspired by Arrival\GUI\Navigation Buttons\Playstation\Light\png\256px\l2.png"
       style="fill:#cccccc;fill-opacity:1;stroke-width:2.51996;stroke-linecap:round;paint-order:fill markers stroke"
       id="rect861"
       width="67.73333"
       height="67.73333"
       x="178.38245"
       y="140.05325" />
    <g
       style="font-weight:bold;font-size:2.64583px;line-height:1.05;font-family:'Overlock SC';-inkscape-font-specification:'Overlock SC Bold';text-align:end;text-anchor:end;fill:#1f2123;fill-opacity:1;stroke:#ffffff;stroke-width:0.905998;stroke-linecap:round;stroke-miterlimit:4;stroke-dasharray:none;stroke-opacity:1;paint-order:markers stroke fill"
       id="g865"
       aria-label="2"
       transform="matrix(8,0,0,8,-3144.1384,-2929.2593)">
      <path
         id="path863"
         style="font-size:2.64583px;fill:#1f2123;fill-opacity:1;stroke:none;stroke-width:0.905998"
         d="m 419.9425,388.44233 q 0.20637,0 0.5662,-0.0212 0.16934,-0.005 0.28046,-0.0344 0.0318,0.045 0.0318,0.0952 0,0.11113 -0.1905,0.11906 -0.20637,0.008 -0.43656,0.008 -0.17462,0 -0.381,-0.005 -0.12171,0 -0.12171,-0.11906 0,-0.0212 0.003,-0.0317 0.0423,-0.0291 0.18785,-0.11907 0.14552,-0.0926 0.21961,-0.14552 0.0741,-0.0556 0.17462,-0.14023 0.10319,-0.0847 0.14817,-0.16404 0.0476,-0.082 0.0476,-0.16139 0,-0.0979 -0.0741,-0.1614 -0.0714,-0.0635 -0.18785,-0.0635 -0.0847,0 -0.17727,0.0609 -0.0926,0.0609 -0.15082,0.15345 -0.0953,-0.0132 -0.0953,-0.082 0,-0.0926 0.14288,-0.18785 0.14287,-0.0952 0.3175,-0.0952 0.1905,0 0.30427,0.0926 0.11377,0.0926 0.11377,0.23813 0,0.18256 -0.17992,0.38894 -0.17991,0.20637 -0.54239,0.3757 z" />
    </g>
    <path
       d="m 216.01977,161.53613 c 10.42632,-2.4e-4 10.89664,10.78632 11.71192,24.76752 h -30.96472 c 0.81536,-13.9812 8.78232,-24.76736 19.2528,-24.76752 z"
       style="fill:none;fill-opacity:1;stroke:#8c8c8c;stroke-width:2.208;stroke-linecap:round;stroke-miterlimit:4;stroke-dasharray:none;stroke-opacity:1;paint-order:markers stroke fill"
       id="path867"
       sodipodi:nodetypes="sccs" />
    <g
       style="font-weight:bold;font-size:2.11667px;line-height:1.05;font-family:'Overlock SC';-inkscape-font-specification:'Overlock SC Bold';text-align:end;text-anchor:end;fill:#1f2123;fill-opacity:1;stroke:#ffffff;stroke-width:0.905998;stroke-linecap:round;stroke-miterlimit:4;stroke-dasharray:none;stroke-opacity:1;paint-order:markers stroke fill"
       id="g871"
       aria-label="L"
       transform="matrix(8,0,0,8,-3144.1384,-2929.2593)">
      <path
         id="path869"
         style="font-size:2.11667px;fill:#1f2123;fill-opacity:1;stroke:none;stroke-width:0.905998"
         d="m 418.82869,388.12132 v -0.43815 q 0,-0.29845 -0.0148,-0.49106 0.036,-0.006 0.0868,-0.006 0.10371,0 0.10371,0.0804 0,0.0127 -0.004,0.0868 -0.004,0.072 -0.008,0.18204 -0.004,0.10795 -0.004,0.20531 v 0.1905 q 0,0.44027 0.0148,0.53341 0.0889,0.004 0.1397,0.004 0.3302,0 0.42545,-0.0487 0.0148,0.0444 0.0148,0.0931 0,0.0381 -0.019,0.055 -0.036,0.0317 -0.32385,0.0317 -0.254,0 -0.3175,-0.004 -0.0572,-0.002 -0.0783,-0.0296 -0.019,-0.0275 -0.019,-0.091 0,-0.0339 0.002,-0.15663 0.002,-0.12277 0.002,-0.19686 z" />
    </g>
  </g>
</svg>
