<?xml version="1.0" encoding="UTF-8" standalone="no"?>
<svg
   xmlns:dc="http://purl.org/dc/elements/1.1/"
   xmlns:cc="http://creativecommons.org/ns#"
   xmlns:rdf="http://www.w3.org/1999/02/22-rdf-syntax-ns#"
   xmlns:svg="http://www.w3.org/2000/svg"
   xmlns="http://www.w3.org/2000/svg"
   xmlns:sodipodi="http://sodipodi.sourceforge.net/DTD/sodipodi-0.dtd"
   xmlns:inkscape="http://www.inkscape.org/namespaces/inkscape"
   inkscape:export-ydpi="96"
   inkscape:export-xdpi="96"
   inkscape:export-filename="D:\Calcatz\Icon Pack\Adventure Narative Inspired by Arrival\GUI\Navigation Buttons\Playstation\Light\png\lstick_all.png"
   sodipodi:docname="lstick_all.svg"
   inkscape:version="1.0 (4035a4fb49, 2020-05-01)"
   id="svg4895"
   version="1.1"
   viewBox="0 0 8.4666662 8.4666662"
   height="31.999998"
   width="31.999998">
  <defs
     id="defs4889" />
  <sodipodi:namedview
     inkscape:window-maximized="1"
     inkscape:window-y="-8"
     inkscape:window-x="-8"
     inkscape:window-height="705"
     inkscape:window-width="1366"
     fit-margin-bottom="0"
     fit-margin-right="0"
     fit-margin-left="0"
     fit-margin-top="0"
     showgrid="false"
     inkscape:document-rotation="0"
     inkscape:current-layer="layer1"
     inkscape:document-units="mm"
     inkscape:cy="86.832554"
     inkscape:cx="183.44026"
     inkscape:zoom="1.7450255"
     inkscape:pageshadow="2"
     inkscape:pageopacity="0.0"
     borderopacity="1.0"
     bordercolor="#666666"
     pagecolor="#ffffff"
     id="base"
     units="px" />
  <metadata
     id="metadata4892">
    <rdf:RDF>
      <cc:Work
         rdf:about="">
        <dc:format>image/svg+xml</dc:format>
        <dc:type
           rdf:resource="http://purl.org/dc/dcmitype/StillImage" />
        <dc:title />
      </cc:Work>
    </rdf:RDF>
  </metadata>
  <g
     transform="translate(-53.323612,-137.6879)"
     id="layer1"
     inkscape:groupmode="layer"
     inkscape:label="Layer 1">
    <rect
       y="137.6879"
       x="53.323612"
       height="8.4666662"
       width="8.4666662"
       id="rect837"
       style="fill:#cccccc;fill-opacity:1;stroke-width:0.338396;stroke-linecap:round;paint-order:fill markers stroke" />
    <g
       style="font-weight:bold;font-size:2.64583px;line-height:1.05;font-family:'Overlock SC';-inkscape-font-specification:'Overlock SC Bold';text-align:end;text-anchor:end;fill:#1f2123;fill-opacity:1;stroke:#ffffff;stroke-width:0.905997;stroke-linecap:round;stroke-miterlimit:4;stroke-dasharray:none;stroke-opacity:1;paint-order:markers stroke fill"
       id="text2449"
       aria-label="L">
      <path
         id="path5498"
         style="font-size:2.64583px;fill:#1f2123;fill-opacity:1;stroke:none;stroke-width:0.905997"
         d="m 57.09524,142.20699 v -0.54769 q 0,-0.37306 -0.01852,-0.61383 0.04498,-0.008 0.10848,-0.008 0.129645,0 0.129645,0.10054 0,0.0159 -0.0053,0.10848 -0.0053,0.09 -0.01058,0.22754 -0.0053,0.13494 -0.0053,0.25665 v 0.23812 q 0,0.55033 0.01852,0.66675 0.111125,0.005 0.174625,0.005 0.41275,0 0.531812,-0.0608 0.01852,0.0556 0.01852,0.11641 0,0.0476 -0.02381,0.0688 -0.04498,0.0397 -0.404812,0.0397 -0.317499,0 -0.396874,-0.005 -0.07144,-0.003 -0.0979,-0.037 -0.02381,-0.0344 -0.02381,-0.11377 0,-0.0423 0.0026,-0.19579 0.0026,-0.15346 0.0026,-0.24606 z" />
    </g>
    <path
       d="m 58.207483,140.38174 h -0.650544 -0.650544 l 0.325272,-0.5536 0.325272,-0.55359 0.325272,0.55359 z"
       inkscape:transform-center-y="-0.18452761"
       inkscape:transform-center-x="9.9297713e-06"
       style="fill:#1f2123;fill-opacity:1;stroke:none;stroke-width:0.176;stroke-linecap:round;stroke-miterlimit:4;stroke-dasharray:none;stroke-opacity:1;paint-order:markers stroke fill"
       id="path2451" />
    <path
       d="m 58.207483,143.51096 h -0.650544 -0.650544 l 0.325272,0.5536 0.325272,0.55359 0.325272,-0.55359 z"
       inkscape:transform-center-y="0.18452527"
       inkscape:transform-center-x="9.9297713e-06"
       style="fill:#1f2123;fill-opacity:1;stroke:none;stroke-width:0.176;stroke-linecap:round;stroke-miterlimit:4;stroke-dasharray:none;stroke-opacity:1;paint-order:markers stroke fill"
       id="path2445" />
    <path
       d="m 55.948298,142.57176 v -0.65054 -0.65054 l -0.553598,0.32527 -0.553592,0.32527 0.553592,0.32527 z"
       inkscape:transform-center-y="-9.047805e-06"
       inkscape:transform-center-x="0.18452615"
       style="fill:#1f2123;fill-opacity:1;stroke:none;stroke-width:0.176;stroke-linecap:round;stroke-miterlimit:4;stroke-dasharray:none;stroke-opacity:1;paint-order:markers stroke fill"
       id="path2453" />
    <path
       id="path2455"
       style="fill:none;fill-opacity:1;stroke:#8c8c8c;stroke-width:0.276;stroke-linecap:round;stroke-miterlimit:4;stroke-dasharray:none;stroke-dashoffset:0;stroke-opacity:1;paint-order:fill markers stroke"
       d="m 59.427539,143.00063 c -0.18976,0.32815 -0.46339,0.60172 -0.79158,0.79142 m -2.15966,-9.5e-4 c -0.32697,-0.18938 -0.59966,-0.46205 -0.78907,-0.78898 m 0,-2.16178 c 0.18932,-0.32677 0.46184,-0.59933 0.78859,-0.78868 m 2.15971,-0.001 c 0.3291,0.19012 0.60337,0.46457 0.79326,0.79382"
       sodipodi:nodetypes="cccccccc" />
    <path
       d="m 59.077542,142.57176 v -0.65054 -0.65054 l 0.553598,0.32527 0.553592,0.32527 -0.553592,0.32527 z"
       inkscape:transform-center-y="-9.047805e-06"
       inkscape:transform-center-x="-0.18452673"
       style="fill:#1f2123;fill-opacity:1;stroke:none;stroke-width:0.176;stroke-linecap:round;stroke-miterlimit:4;stroke-dasharray:none;stroke-opacity:1;paint-order:markers stroke fill"
       id="path2457" />
    <rect
       inkscape:export-ydpi="96"
       inkscape:export-xdpi="96"
       inkscape:export-filename="D:\Calcatz\Icon Pack\Adventure Narative Inspired by Arrival\GUI\Navigation Buttons\Playstation\Light\png\64px\lstick_all.png"
       style="fill:#cccccc;fill-opacity:1;stroke-width:0.676792;stroke-linecap:round;paint-order:fill markers stroke"
       id="rect839"
       width="16.933332"
       height="16.933332"
       x="63.4552"
       y="137.6879" />
    <g
       transform="matrix(2,0,0,2,-43.192024,-137.6879)"
       aria-label="L"
       id="g843"
       style="font-weight:bold;font-size:2.64583px;line-height:1.05;font-family:'Overlock SC';-inkscape-font-specification:'Overlock SC Bold';text-align:end;text-anchor:end;fill:#1f2123;fill-opacity:1;stroke:#ffffff;stroke-width:0.905997;stroke-linecap:round;stroke-miterlimit:4;stroke-dasharray:none;stroke-opacity:1;paint-order:markers stroke fill">
      <path
         d="m 57.09524,142.20699 v -0.54769 q 0,-0.37306 -0.01852,-0.61383 0.04498,-0.008 0.10848,-0.008 0.129645,0 0.129645,0.10054 0,0.0159 -0.0053,0.10848 -0.0053,0.09 -0.01058,0.22754 -0.0053,0.13494 -0.0053,0.25665 v 0.23812 q 0,0.55033 0.01852,0.66675 0.111125,0.005 0.174625,0.005 0.41275,0 0.531812,-0.0608 0.01852,0.0556 0.01852,0.11641 0,0.0476 -0.02381,0.0688 -0.04498,0.0397 -0.404812,0.0397 -0.317499,0 -0.396874,-0.005 -0.07144,-0.003 -0.0979,-0.037 -0.02381,-0.0344 -0.02381,-0.11377 0,-0.0423 0.0026,-0.19579 0.0026,-0.15346 0.0026,-0.24606 z"
         style="font-size:2.64583px;fill:#1f2123;fill-opacity:1;stroke:none;stroke-width:0.905997"
         id="path841" />
    </g>
    <path
       id="path845"
       style="fill:#1f2123;fill-opacity:1;stroke:none;stroke-width:0.352;stroke-linecap:round;stroke-miterlimit:4;stroke-dasharray:none;stroke-opacity:1;paint-order:markers stroke fill"
       inkscape:transform-center-x="1.966423e-05"
       inkscape:transform-center-y="-0.36905849"
       d="m 73.222942,143.07558 h -1.301088 -1.301088 l 0.650544,-1.1072 0.650544,-1.10718 0.650544,1.10718 z" />
    <path
       id="path847"
       style="fill:#1f2123;fill-opacity:1;stroke:none;stroke-width:0.352;stroke-linecap:round;stroke-miterlimit:4;stroke-dasharray:none;stroke-opacity:1;paint-order:markers stroke fill"
       inkscape:transform-center-x="1.966423e-05"
       inkscape:transform-center-y="0.36904727"
       d="m 73.222942,149.33402 h -1.301088 -1.301088 l 0.650544,1.1072 0.650544,1.10718 0.650544,-1.10718 z" />
    <path
       id="path849"
       style="fill:#1f2123;fill-opacity:1;stroke:none;stroke-width:0.352;stroke-linecap:round;stroke-miterlimit:4;stroke-dasharray:none;stroke-opacity:1;paint-order:markers stroke fill"
       inkscape:transform-center-x="0.3690521"
       inkscape:transform-center-y="-2.1367094e-05"
       d="m 68.704572,147.45562 v -1.30108 -1.30108 l -1.107196,0.65054 -1.107184,0.65054 1.107184,0.65054 z" />
    <path
       sodipodi:nodetypes="cccccccc"
       d="m 75.663054,148.31336 c -0.37952,0.6563 -0.92678,1.20344 -1.58316,1.58284 m -4.31932,-0.002 c -0.65394,-0.37876 -1.19932,-0.9241 -1.57814,-1.57796 m 0,-4.32356 c 0.37864,-0.65354 0.92368,-1.19866 1.57718,-1.57736 m 4.31942,-0.002 c 0.6582,0.38024 1.20674,0.92914 1.58652,1.58764"
       style="fill:none;fill-opacity:1;stroke:#8c8c8c;stroke-width:0.552;stroke-linecap:round;stroke-miterlimit:4;stroke-dasharray:none;stroke-dashoffset:0;stroke-opacity:1;paint-order:fill markers stroke"
       id="path851" />
    <path
       id="path853"
       style="fill:#1f2123;fill-opacity:1;stroke:none;stroke-width:0.352;stroke-linecap:round;stroke-miterlimit:4;stroke-dasharray:none;stroke-opacity:1;paint-order:markers stroke fill"
       inkscape:transform-center-x="-0.36905366"
       inkscape:transform-center-y="-2.1367094e-05"
       d="m 74.96306,147.45562 v -1.30108 -1.30108 l 1.107196,0.65054 1.107184,0.65054 -1.107184,0.65054 z" />
    <rect
       inkscape:export-ydpi="96"
       inkscape:export-xdpi="96"
       inkscape:export-filename="D:\Calcatz\Icon Pack\Adventure Narative Inspired by Arrival\GUI\Navigation Buttons\Playstation\Light\png\128px\lstick_all.png"
       y="137.6879"
       x="83.545044"
       height="33.866665"
       width="33.866665"
       id="rect855"
       style="fill:#cccccc;fill-opacity:1;stroke-width:1.35358;stroke-linecap:round;paint-order:fill markers stroke" />
    <g
       style="font-weight:bold;font-size:2.64583px;line-height:1.05;font-family:'Overlock SC';-inkscape-font-specification:'Overlock SC Bold';text-align:end;text-anchor:end;fill:#1f2123;fill-opacity:1;stroke:#ffffff;stroke-width:0.905997;stroke-linecap:round;stroke-miterlimit:4;stroke-dasharray:none;stroke-opacity:1;paint-order:markers stroke fill"
       id="g859"
       aria-label="L"
       transform="matrix(4,0,0,4,-129.7494,-413.0637)">
      <path
         id="path857"
         style="font-size:2.64583px;fill:#1f2123;fill-opacity:1;stroke:none;stroke-width:0.905997"
         d="m 57.09524,142.20699 v -0.54769 q 0,-0.37306 -0.01852,-0.61383 0.04498,-0.008 0.10848,-0.008 0.129645,0 0.129645,0.10054 0,0.0159 -0.0053,0.10848 -0.0053,0.09 -0.01058,0.22754 -0.0053,0.13494 -0.0053,0.25665 v 0.23812 q 0,0.55033 0.01852,0.66675 0.111125,0.005 0.174625,0.005 0.41275,0 0.531812,-0.0608 0.01852,0.0556 0.01852,0.11641 0,0.0476 -0.02381,0.0688 -0.04498,0.0397 -0.404812,0.0397 -0.317499,0 -0.396874,-0.005 -0.07144,-0.003 -0.0979,-0.037 -0.02381,-0.0344 -0.02381,-0.11377 0,-0.0423 0.0026,-0.19579 0.0026,-0.15346 0.0026,-0.24606 z" />
    </g>
    <path
       d="m 103.08053,148.46326 h -2.60218 -2.602172 l 1.301088,-2.2144 1.301084,-2.21436 1.30109,2.21436 z"
       inkscape:transform-center-y="-0.73812025"
       inkscape:transform-center-x="3.9383148e-05"
       style="fill:#1f2123;fill-opacity:1;stroke:none;stroke-width:0.704;stroke-linecap:round;stroke-miterlimit:4;stroke-dasharray:none;stroke-opacity:1;paint-order:markers stroke fill"
       id="path861" />
    <path
       d="m 103.08053,160.98014 h -2.60218 -2.602172 l 1.301088,2.2144 1.301084,2.21436 1.30109,-2.21436 z"
       inkscape:transform-center-y="0.73809127"
       inkscape:transform-center-x="3.9383148e-05"
       style="fill:#1f2123;fill-opacity:1;stroke:none;stroke-width:0.704;stroke-linecap:round;stroke-miterlimit:4;stroke-dasharray:none;stroke-opacity:1;paint-order:markers stroke fill"
       id="path863" />
    <path
       d="m 94.04379,157.22334 v -2.60216 -2.60216 l -2.214392,1.30108 -2.214368,1.30108 2.214368,1.30108 z"
       inkscape:transform-center-y="-4.6005672e-05"
       inkscape:transform-center-x="0.73810425"
       style="fill:#1f2123;fill-opacity:1;stroke:none;stroke-width:0.704;stroke-linecap:round;stroke-miterlimit:4;stroke-dasharray:none;stroke-opacity:1;paint-order:markers stroke fill"
       id="path865" />
    <path
       id="path867"
       style="fill:none;fill-opacity:1;stroke:#8c8c8c;stroke-width:1.104;stroke-linecap:round;stroke-miterlimit:4;stroke-dasharray:none;stroke-dashoffset:0;stroke-opacity:1;paint-order:fill markers stroke"
       d="m 107.96075,158.93882 c -0.75904,1.3126 -1.85356,2.40688 -3.16632,3.16568 m -8.638636,-0.004 c -1.30788,-0.75752 -2.39864,-1.8482 -3.15628,-3.15592 m 0,-8.64712 c 0.75728,-1.30708 1.84736,-2.39732 3.15436,-3.15472 m 8.638836,-0.004 c 1.3164,0.76048 2.41348,1.85828 3.17304,3.17528"
       sodipodi:nodetypes="cccccccc" />
    <path
       d="m 106.56077,157.22334 v -2.60216 -2.60216 l 2.21439,1.30108 2.21437,1.30108 -2.21437,1.30108 z"
       inkscape:transform-center-y="-4.6005672e-05"
       inkscape:transform-center-x="-0.73811127"
       style="fill:#1f2123;fill-opacity:1;stroke:none;stroke-width:0.704;stroke-linecap:round;stroke-miterlimit:4;stroke-dasharray:none;stroke-opacity:1;paint-order:markers stroke fill"
       id="path869" />
    <rect
       inkscape:export-ydpi="96"
       inkscape:export-xdpi="96"
       inkscape:export-filename="D:\Calcatz\Icon Pack\Adventure Narative Inspired by Arrival\GUI\Navigation Buttons\Playstation\Light\png\256px\lstick_all.png"
       style="fill:#cccccc;fill-opacity:1;stroke-width:2.70716;stroke-linecap:round;paint-order:fill markers stroke"
       id="rect871"
       width="67.73333"
       height="67.73333"
       x="123.26987"
       y="137.6879" />
    <g
       transform="matrix(8,0,0,8,-303.31902,-963.8153)"
       aria-label="L"
       id="g875"
       style="font-weight:bold;font-size:2.64583px;line-height:1.05;font-family:'Overlock SC';-inkscape-font-specification:'Overlock SC Bold';text-align:end;text-anchor:end;fill:#1f2123;fill-opacity:1;stroke:#ffffff;stroke-width:0.905997;stroke-linecap:round;stroke-miterlimit:4;stroke-dasharray:none;stroke-opacity:1;paint-order:markers stroke fill">
      <path
         d="m 57.09524,142.20699 v -0.54769 q 0,-0.37306 -0.01852,-0.61383 0.04498,-0.008 0.10848,-0.008 0.129645,0 0.129645,0.10054 0,0.0159 -0.0053,0.10848 -0.0053,0.09 -0.01058,0.22754 -0.0053,0.13494 -0.0053,0.25665 v 0.23812 q 0,0.55033 0.01852,0.66675 0.111125,0.005 0.174625,0.005 0.41275,0 0.531812,-0.0608 0.01852,0.0556 0.01852,0.11641 0,0.0476 -0.02381,0.0688 -0.04498,0.0397 -0.404812,0.0397 -0.317499,0 -0.396874,-0.005 -0.07144,-0.003 -0.0979,-0.037 -0.02381,-0.0344 -0.02381,-0.11377 0,-0.0423 0.0026,-0.19579 0.0026,-0.15346 0.0026,-0.24606 z"
         style="font-size:2.64583px;fill:#1f2123;fill-opacity:1;stroke:none;stroke-width:0.905997"
         id="path873" />
    </g>
    <path
       id="path877"
       style="fill:#1f2123;fill-opacity:1;stroke:none;stroke-width:1.408;stroke-linecap:round;stroke-miterlimit:4;stroke-dasharray:none;stroke-opacity:1;paint-order:markers stroke fill"
       inkscape:transform-center-x="8.1822937e-05"
       inkscape:transform-center-y="-1.4762438"
       d="m 162.34085,159.23862 h -5.20436 -5.20436 l 2.60218,-4.4288 2.60218,-4.42872 2.60218,4.42872 z" />
    <path
       id="path879"
       style="fill:#1f2123;fill-opacity:1;stroke:none;stroke-width:1.408;stroke-linecap:round;stroke-miterlimit:4;stroke-dasharray:none;stroke-opacity:1;paint-order:markers stroke fill"
       inkscape:transform-center-x="8.1822937e-05"
       inkscape:transform-center-y="1.4761793"
       d="m 162.34085,184.27238 h -5.20436 -5.20436 l 2.60218,4.4288 2.60218,4.42872 2.60218,-4.42872 z" />
    <path
       id="path881"
       style="fill:#1f2123;fill-opacity:1;stroke:none;stroke-width:1.408;stroke-linecap:round;stroke-miterlimit:4;stroke-dasharray:none;stroke-opacity:1;paint-order:markers stroke fill"
       inkscape:transform-center-x="1.4762116"
       inkscape:transform-center-y="-9.5282828e-05"
       d="m 144.26737,176.75878 v -5.20432 -5.20432 l -4.4288,2.60216 -4.42872,2.60216 4.42872,2.60216 z" />
    <path
       sodipodi:nodetypes="cccccccc"
       d="m 172.10129,180.18974 c -1.51808,2.6252 -3.70712,4.81376 -6.33264,6.33136 m -17.27728,-0.008 c -2.61576,-1.51504 -4.79728,-3.6964 -6.31256,-6.31184 m 0,-17.29424 c 1.51456,-2.61416 3.69472,-4.79464 6.30872,-6.30944 m 17.27768,-0.008 c 2.6328,1.52096 4.82696,3.71656 6.34608,6.35056"
       style="fill:none;fill-opacity:1;stroke:#8c8c8c;stroke-width:2.208;stroke-linecap:round;stroke-miterlimit:4;stroke-dasharray:none;stroke-dashoffset:0;stroke-opacity:1;paint-order:fill markers stroke"
       id="path883" />
    <path
       id="path885"
       style="fill:#1f2123;fill-opacity:1;stroke:none;stroke-width:1.408;stroke-linecap:round;stroke-miterlimit:4;stroke-dasharray:none;stroke-opacity:1;paint-order:markers stroke fill"
       inkscape:transform-center-x="-1.4762195"
       inkscape:transform-center-y="-9.5282828e-05"
       d="m 169.30133,176.75878 v -5.20432 -5.20432 l 4.42878,2.60216 4.42874,2.60216 -4.42874,2.60216 z" />
  </g>
</svg>
