<?xml version="1.0" encoding="UTF-8" standalone="no"?>
<svg
   xmlns:dc="http://purl.org/dc/elements/1.1/"
   xmlns:cc="http://creativecommons.org/ns#"
   xmlns:rdf="http://www.w3.org/1999/02/22-rdf-syntax-ns#"
   xmlns:svg="http://www.w3.org/2000/svg"
   xmlns="http://www.w3.org/2000/svg"
   xmlns:sodipodi="http://sodipodi.sourceforge.net/DTD/sodipodi-0.dtd"
   xmlns:inkscape="http://www.inkscape.org/namespaces/inkscape"
   inkscape:export-ydpi="96"
   inkscape:export-xdpi="96"
   inkscape:export-filename="D:\Calcatz\Icon Pack\Adventure Narative Inspired by Arrival\GUI\Navigation Buttons\Playstation\Light\png\lstick_none.png"
   sodipodi:docname="lstick_none.svg"
   inkscape:version="1.0 (4035a4fb49, 2020-05-01)"
   id="svg2483"
   version="1.1"
   viewBox="0 0 8.4666662 8.4666662"
   height="31.999998"
   width="31.999998">
  <defs
     id="defs2477" />
  <sodipodi:namedview
     fit-margin-bottom="0"
     fit-margin-right="0"
     fit-margin-left="0"
     fit-margin-top="0"
     inkscape:window-maximized="1"
     inkscape:window-y="-8"
     inkscape:window-x="-8"
     inkscape:window-height="705"
     inkscape:window-width="1366"
     showgrid="false"
     inkscape:document-rotation="0"
     inkscape:current-layer="layer1"
     inkscape:document-units="mm"
     inkscape:cy="204.0566"
     inkscape:cx="-126.49736"
     inkscape:zoom="0.61695969"
     inkscape:pageshadow="2"
     inkscape:pageopacity="0.0"
     borderopacity="1.0"
     bordercolor="#666666"
     pagecolor="#ffffff"
     id="base"
     units="px" />
  <metadata
     id="metadata2480">
    <rdf:RDF>
      <cc:Work
         rdf:about="">
        <dc:format>image/svg+xml</dc:format>
        <dc:type
           rdf:resource="http://purl.org/dc/dcmitype/StillImage" />
        <dc:title />
      </cc:Work>
    </rdf:RDF>
  </metadata>
  <g
     transform="translate(-147.14931,-145.5724)"
     id="layer1"
     inkscape:groupmode="layer"
     inkscape:label="Layer 1">
    <rect
       y="145.5724"
       x="147.14931"
       height="8.4666662"
       width="8.4666662"
       id="rect833"
       style="fill:#cccccc;fill-opacity:1;stroke-width:0.466981;stroke-linecap:round;paint-order:fill markers stroke" />
    <path
       d="m 153.54196,149.80574 a 2.1593168,2.1593168 0 0 1 -2.15932,2.15932 2.1593168,2.1593168 0 0 1 -2.15931,-2.15932 2.1593168,2.1593168 0 0 1 2.15931,-2.15932 2.1593168,2.1593168 0 0 1 2.15932,2.15932"
       style="fill:none;fill-opacity:1;stroke:#8c8c8c;stroke-width:0.276;stroke-linecap:round;stroke-miterlimit:4;stroke-dasharray:none;stroke-dashoffset:0;stroke-opacity:1;paint-order:fill markers stroke"
       id="circle4812" />
    <g
       style="font-weight:bold;font-size:2.64583px;line-height:1.05;font-family:'Overlock SC';-inkscape-font-specification:'Overlock SC Bold';text-align:end;text-anchor:end;fill:#1f2123;fill-opacity:1;stroke:#ffffff;stroke-width:0.905997;stroke-linecap:round;stroke-miterlimit:4;stroke-dasharray:none;stroke-opacity:1;paint-order:markers stroke fill"
       id="text4810"
       aria-label="L">
      <path
         id="path3074"
         style="font-size:2.64583px;fill:#1f2123;fill-opacity:1;stroke:none;stroke-width:0.905997"
         d="m 150.92094,150.09149 v -0.54768 q 0,-0.37307 -0.0185,-0.61384 0.045,-0.008 0.10848,-0.008 0.12965,0 0.12965,0.10054 0,0.0159 -0.005,0.10848 -0.005,0.09 -0.0106,0.22754 -0.005,0.13493 -0.005,0.25664 v 0.23813 q 0,0.55033 0.0185,0.66675 0.11113,0.005 0.17463,0.005 0.41275,0 0.53181,-0.0609 0.0185,0.0556 0.0185,0.11642 0,0.0476 -0.0238,0.0688 -0.045,0.0397 -0.40481,0.0397 -0.3175,0 -0.39688,-0.005 -0.0714,-0.003 -0.0979,-0.037 -0.0238,-0.0344 -0.0238,-0.11377 0,-0.0423 0.003,-0.1958 0.003,-0.15345 0.003,-0.24606 z" />
    </g>
    <rect
       inkscape:export-ydpi="96"
       inkscape:export-xdpi="96"
       inkscape:export-filename="D:\Calcatz\Icon Pack\Adventure Narative Inspired by Arrival\GUI\Navigation Buttons\Playstation\Light\png\64px\lstick_none.png"
       style="fill:#cccccc;fill-opacity:1;stroke-width:0.933962;stroke-linecap:round;paint-order:fill markers stroke"
       id="rect835"
       width="16.933332"
       height="16.933332"
       x="157.14688"
       y="145.5724" />
    <path
       id="path837"
       style="fill:none;fill-opacity:1;stroke:#8c8c8c;stroke-width:0.552;stroke-linecap:round;stroke-miterlimit:4;stroke-dasharray:none;stroke-dashoffset:0;stroke-opacity:1;paint-order:fill markers stroke"
       d="m 169.93218,154.03908 a 4.3186336,4.3186336 0 0 1 -4.31864,4.31864 4.3186336,4.3186336 0 0 1 -4.31862,-4.31864 4.3186336,4.3186336 0 0 1 4.31862,-4.31864 4.3186336,4.3186336 0 0 1 4.31864,4.31864" />
    <g
       transform="matrix(2,0,0,2,-137.15174,-145.5724)"
       aria-label="L"
       id="g841"
       style="font-weight:bold;font-size:2.64583px;line-height:1.05;font-family:'Overlock SC';-inkscape-font-specification:'Overlock SC Bold';text-align:end;text-anchor:end;fill:#1f2123;fill-opacity:1;stroke:#ffffff;stroke-width:0.905997;stroke-linecap:round;stroke-miterlimit:4;stroke-dasharray:none;stroke-opacity:1;paint-order:markers stroke fill">
      <path
         d="m 150.92094,150.09149 v -0.54768 q 0,-0.37307 -0.0185,-0.61384 0.045,-0.008 0.10848,-0.008 0.12965,0 0.12965,0.10054 0,0.0159 -0.005,0.10848 -0.005,0.09 -0.0106,0.22754 -0.005,0.13493 -0.005,0.25664 v 0.23813 q 0,0.55033 0.0185,0.66675 0.11113,0.005 0.17463,0.005 0.41275,0 0.53181,-0.0609 0.0185,0.0556 0.0185,0.11642 0,0.0476 -0.0238,0.0688 -0.045,0.0397 -0.40481,0.0397 -0.3175,0 -0.39688,-0.005 -0.0714,-0.003 -0.0979,-0.037 -0.0238,-0.0344 -0.0238,-0.11377 0,-0.0423 0.003,-0.1958 0.003,-0.15345 0.003,-0.24606 z"
         style="font-size:2.64583px;fill:#1f2123;fill-opacity:1;stroke:none;stroke-width:0.905997"
         id="path839" />
    </g>
    <rect
       inkscape:export-ydpi="96"
       inkscape:export-xdpi="96"
       inkscape:export-filename="D:\Calcatz\Icon Pack\Adventure Narative Inspired by Arrival\GUI\Navigation Buttons\Playstation\Light\png\128px\lstick_none.png"
       y="145.5724"
       x="176.1235"
       height="33.866665"
       width="33.866665"
       id="rect843"
       style="fill:#cccccc;fill-opacity:1;stroke-width:1.86792;stroke-linecap:round;paint-order:fill markers stroke" />
    <path
       d="m 201.6941,162.50576 a 8.6372672,8.6372672 0 0 1 -8.63728,8.63728 8.6372672,8.6372672 0 0 1 -8.63724,-8.63728 8.6372672,8.6372672 0 0 1 8.63724,-8.63728 8.6372672,8.6372672 0 0 1 8.63728,8.63728"
       style="fill:none;fill-opacity:1;stroke:#8c8c8c;stroke-width:1.104;stroke-linecap:round;stroke-miterlimit:4;stroke-dasharray:none;stroke-dashoffset:0;stroke-opacity:1;paint-order:fill markers stroke"
       id="path845" />
    <g
       style="font-weight:bold;font-size:2.64583px;line-height:1.05;font-family:'Overlock SC';-inkscape-font-specification:'Overlock SC Bold';text-align:end;text-anchor:end;fill:#1f2123;fill-opacity:1;stroke:#ffffff;stroke-width:0.905997;stroke-linecap:round;stroke-miterlimit:4;stroke-dasharray:none;stroke-opacity:1;paint-order:markers stroke fill"
       id="g849"
       aria-label="L"
       transform="matrix(4,0,0,4,-412.47374,-436.7172)">
      <path
         id="path847"
         style="font-size:2.64583px;fill:#1f2123;fill-opacity:1;stroke:none;stroke-width:0.905997"
         d="m 150.92094,150.09149 v -0.54768 q 0,-0.37307 -0.0185,-0.61384 0.045,-0.008 0.10848,-0.008 0.12965,0 0.12965,0.10054 0,0.0159 -0.005,0.10848 -0.005,0.09 -0.0106,0.22754 -0.005,0.13493 -0.005,0.25664 v 0.23813 q 0,0.55033 0.0185,0.66675 0.11113,0.005 0.17463,0.005 0.41275,0 0.53181,-0.0609 0.0185,0.0556 0.0185,0.11642 0,0.0476 -0.0238,0.0688 -0.045,0.0397 -0.40481,0.0397 -0.3175,0 -0.39688,-0.005 -0.0714,-0.003 -0.0979,-0.037 -0.0238,-0.0344 -0.0238,-0.11377 0,-0.0423 0.003,-0.1958 0.003,-0.15345 0.003,-0.24606 z" />
    </g>
    <rect
       inkscape:export-ydpi="96"
       inkscape:export-xdpi="96"
       inkscape:export-filename="D:\Calcatz\Icon Pack\Adventure Narative Inspired by Arrival\GUI\Navigation Buttons\Playstation\Light\png\256px\lstick_none.png"
       style="fill:#cccccc;fill-opacity:1;stroke-width:3.73584;stroke-linecap:round;paint-order:fill markers stroke"
       id="rect851"
       width="67.73333"
       height="67.73333"
       x="214.452"
       y="145.5724" />
    <path
       id="path853"
       style="fill:none;fill-opacity:1;stroke:#8c8c8c;stroke-width:2.208;stroke-linecap:round;stroke-miterlimit:4;stroke-dasharray:none;stroke-dashoffset:0;stroke-opacity:1;paint-order:fill markers stroke"
       d="m 265.59318,179.43912 a 17.274534,17.274534 0 0 1 -17.27456,17.27456 17.274534,17.274534 0 0 1 -17.27448,-17.27456 17.274534,17.274534 0 0 1 17.27448,-17.27456 17.274534,17.274534 0 0 1 17.27456,17.27456" />
    <g
       transform="matrix(8,0,0,8,-962.7425,-1019.0068)"
       aria-label="L"
       id="g857"
       style="font-weight:bold;font-size:2.64583px;line-height:1.05;font-family:'Overlock SC';-inkscape-font-specification:'Overlock SC Bold';text-align:end;text-anchor:end;fill:#1f2123;fill-opacity:1;stroke:#ffffff;stroke-width:0.905997;stroke-linecap:round;stroke-miterlimit:4;stroke-dasharray:none;stroke-opacity:1;paint-order:markers stroke fill">
      <path
         d="m 150.92094,150.09149 v -0.54768 q 0,-0.37307 -0.0185,-0.61384 0.045,-0.008 0.10848,-0.008 0.12965,0 0.12965,0.10054 0,0.0159 -0.005,0.10848 -0.005,0.09 -0.0106,0.22754 -0.005,0.13493 -0.005,0.25664 v 0.23813 q 0,0.55033 0.0185,0.66675 0.11113,0.005 0.17463,0.005 0.41275,0 0.53181,-0.0609 0.0185,0.0556 0.0185,0.11642 0,0.0476 -0.0238,0.0688 -0.045,0.0397 -0.40481,0.0397 -0.3175,0 -0.39688,-0.005 -0.0714,-0.003 -0.0979,-0.037 -0.0238,-0.0344 -0.0238,-0.11377 0,-0.0423 0.003,-0.1958 0.003,-0.15345 0.003,-0.24606 z"
         style="font-size:2.64583px;fill:#1f2123;fill-opacity:1;stroke:none;stroke-width:0.905997"
         id="path855" />
    </g>
  </g>
</svg>
