<?xml version="1.0" encoding="UTF-8" standalone="no"?>
<svg
   xmlns:dc="http://purl.org/dc/elements/1.1/"
   xmlns:cc="http://creativecommons.org/ns#"
   xmlns:rdf="http://www.w3.org/1999/02/22-rdf-syntax-ns#"
   xmlns:svg="http://www.w3.org/2000/svg"
   xmlns="http://www.w3.org/2000/svg"
   xmlns:sodipodi="http://sodipodi.sourceforge.net/DTD/sodipodi-0.dtd"
   xmlns:inkscape="http://www.inkscape.org/namespaces/inkscape"
   inkscape:export-ydpi="96"
   inkscape:export-xdpi="96"
   inkscape:export-filename="D:\Calcatz\Icon Pack\Adventure Narative Inspired by Arrival\GUI\Navigation Buttons\Playstation\Light\png\option.png"
   sodipodi:docname="option.svg"
   inkscape:version="1.0 (4035a4fb49, 2020-05-01)"
   id="svg4922"
   version="1.1"
   viewBox="0 0 8.4666662 8.4666662"
   height="31.999998"
   width="31.999998">
  <defs
     id="defs4916" />
  <sodipodi:namedview
     inkscape:window-maximized="1"
     inkscape:window-y="-8"
     inkscape:window-x="-8"
     inkscape:window-height="705"
     inkscape:window-width="1366"
     fit-margin-bottom="0"
     fit-margin-right="0"
     fit-margin-left="0"
     fit-margin-top="0"
     showgrid="false"
     inkscape:document-rotation="0"
     inkscape:current-layer="layer1"
     inkscape:document-units="mm"
     inkscape:cy="115.12042"
     inkscape:cx="207.17047"
     inkscape:zoom="1.2339194"
     inkscape:pageshadow="2"
     inkscape:pageopacity="0.0"
     borderopacity="1.0"
     bordercolor="#666666"
     pagecolor="#ffffff"
     id="base"
     units="px" />
  <metadata
     id="metadata4919">
    <rdf:RDF>
      <cc:Work
         rdf:about="">
        <dc:format>image/svg+xml</dc:format>
        <dc:type
           rdf:resource="http://purl.org/dc/dcmitype/StillImage" />
        <dc:title />
      </cc:Work>
    </rdf:RDF>
  </metadata>
  <g
     transform="translate(181.63487,17.637005)"
     id="layer1"
     inkscape:groupmode="layer"
     inkscape:label="Layer 1">
    <rect
       y="-17.637005"
       x="-181.63487"
       height="8.4666662"
       width="8.4666662"
       id="rect833"
       style="fill:#cccccc;fill-opacity:1;stroke-width:0.418097;stroke-linecap:round;paint-order:fill markers stroke" />
    <path
       d="m -177.40153,-15.232126 c 0.4987,0 0.90018,0.381152 0.90018,0.8546 v 1.947694 c 0,0.473449 -0.40148,0.854601 -0.90018,0.854601 -0.4987,0 -0.90018,-0.381152 -0.90018,-0.854601 v -1.947694 c 0,-0.473448 0.40148,-0.8546 0.90018,-0.8546 z"
       style="fill:none;fill-opacity:0.301961;stroke:#8c8c8c;stroke-width:0.276;stroke-linecap:round;stroke-miterlimit:4;stroke-dasharray:none;stroke-opacity:1;paint-order:markers stroke fill"
       id="rect5332" />
    <g
       style="font-weight:bold;font-size:1.85208px;line-height:1.05;font-family:'Overlock SC';-inkscape-font-specification:'Overlock SC Bold';text-align:end;text-anchor:end;fill:#1f2123;fill-opacity:1;stroke:none;stroke-width:0.276;stroke-linecap:round;stroke-miterlimit:4;stroke-dasharray:none;stroke-opacity:1;paint-order:markers stroke fill"
       id="text5336"
       aria-label="O">
      <path
         id="path5515"
         style="font-size:1.85208px;fill:#1f2123;fill-opacity:1;stroke-width:0.276"
         d="m -177.4034,-12.771192 q -0.25929,0 -0.41301,-0.172244 -0.15372,-0.172243 -0.15372,-0.459315 0,-0.290777 0.15372,-0.461168 0.15372,-0.172244 0.41301,-0.172244 0.26115,0 0.41487,0.172244 0.15557,0.170391 0.15557,0.461168 0,0.287072 -0.15557,0.459315 -0.15372,0.172244 -0.41487,0.172244 z m 0.41487,-0.598222 q 0,-0.103716 -0.0241,-0.198173 -0.0222,-0.09446 -0.0685,-0.175947 -0.0463,-0.08149 -0.12965,-0.129646 -0.0833,-0.05001 -0.19076,-0.05001 -0.19077,0 -0.30375,0.131498 -0.11297,0.129645 -0.11297,0.331522 0,0.109273 0.0222,0.207433 0.0241,0.09816 0.0704,0.183356 0.0463,0.0852 0.12779,0.135202 0.0833,0.05001 0.19262,0.05001 0.20003,0 0.30745,-0.13335 0.10927,-0.135202 0.10927,-0.351895 z" />
    </g>
    <rect
       inkscape:export-ydpi="96"
       inkscape:export-xdpi="96"
       inkscape:export-filename="D:\Calcatz\Icon Pack\Adventure Narative Inspired by Arrival\GUI\Navigation Buttons\Playstation\Light\png\64px\option.png"
       style="fill:#cccccc;fill-opacity:1;stroke-width:0.836194;stroke-linecap:round;paint-order:fill markers stroke"
       id="rect835"
       width="16.933332"
       height="16.933332"
       x="-171.90533"
       y="-17.637005" />
    <path
       id="path837"
       style="fill:none;fill-opacity:0.301961;stroke:#8c8c8c;stroke-width:0.552;stroke-linecap:round;stroke-miterlimit:4;stroke-dasharray:none;stroke-opacity:1;paint-order:markers stroke fill"
       d="m -163.43865,-12.827247 c 0.9974,0 1.80036,0.762304 1.80036,1.7092 v 3.8953879 c 0,0.946898 -0.80296,1.709202 -1.80036,1.709202 -0.9974,0 -1.80036,-0.762304 -1.80036,-1.709202 v -3.8953879 c 0,-0.946896 0.80296,-1.7092 1.80036,-1.7092 z" />
    <g
       transform="matrix(2,0,0,2,191.36442,17.637005)"
       aria-label="O"
       id="g841"
       style="font-weight:bold;font-size:1.85208px;line-height:1.05;font-family:'Overlock SC';-inkscape-font-specification:'Overlock SC Bold';text-align:end;text-anchor:end;fill:#1f2123;fill-opacity:1;stroke:none;stroke-width:0.276;stroke-linecap:round;stroke-miterlimit:4;stroke-dasharray:none;stroke-opacity:1;paint-order:markers stroke fill">
      <path
         d="m -177.4034,-12.771192 q -0.25929,0 -0.41301,-0.172244 -0.15372,-0.172243 -0.15372,-0.459315 0,-0.290777 0.15372,-0.461168 0.15372,-0.172244 0.41301,-0.172244 0.26115,0 0.41487,0.172244 0.15557,0.170391 0.15557,0.461168 0,0.287072 -0.15557,0.459315 -0.15372,0.172244 -0.41487,0.172244 z m 0.41487,-0.598222 q 0,-0.103716 -0.0241,-0.198173 -0.0222,-0.09446 -0.0685,-0.175947 -0.0463,-0.08149 -0.12965,-0.129646 -0.0833,-0.05001 -0.19076,-0.05001 -0.19077,0 -0.30375,0.131498 -0.11297,0.129645 -0.11297,0.331522 0,0.109273 0.0222,0.207433 0.0241,0.09816 0.0704,0.183356 0.0463,0.0852 0.12779,0.135202 0.0833,0.05001 0.19262,0.05001 0.20003,0 0.30745,-0.13335 0.10927,-0.135202 0.10927,-0.351895 z"
         style="font-size:1.85208px;fill:#1f2123;fill-opacity:1;stroke-width:0.276"
         id="path839" />
    </g>
    <rect
       inkscape:export-ydpi="96"
       inkscape:export-xdpi="96"
       inkscape:export-filename="D:\Calcatz\Icon Pack\Adventure Narative Inspired by Arrival\GUI\Navigation Buttons\Playstation\Light\png\128px\option.png"
       y="-17.637005"
       x="-152.57359"
       height="33.866665"
       width="33.866665"
       id="rect843"
       style="fill:#cccccc;fill-opacity:1;stroke-width:1.67239;stroke-linecap:round;paint-order:fill markers stroke" />
    <path
       d="m -135.64023,-8.0174891 c 1.9948,0 3.60072,1.524608 3.60072,3.4184 v 7.7907758 c 0,1.893796 -1.60592,3.418404 -3.60072,3.418404 -1.9948,0 -3.60072,-1.524608 -3.60072,-3.418404 v -7.7907758 c 0,-1.893792 1.60592,-3.4184 3.60072,-3.4184 z"
       style="fill:none;fill-opacity:0.301961;stroke:#8c8c8c;stroke-width:1.104;stroke-linecap:round;stroke-miterlimit:4;stroke-dasharray:none;stroke-opacity:1;paint-order:markers stroke fill"
       id="path845" />
    <g
       style="font-weight:bold;font-size:1.85208px;line-height:1.05;font-family:'Overlock SC';-inkscape-font-specification:'Overlock SC Bold';text-align:end;text-anchor:end;fill:#1f2123;fill-opacity:1;stroke:none;stroke-width:0.276;stroke-linecap:round;stroke-miterlimit:4;stroke-dasharray:none;stroke-opacity:1;paint-order:markers stroke fill"
       id="g849"
       aria-label="O"
       transform="matrix(4,0,0,4,573.96591,52.911015)">
      <path
         id="path847"
         style="font-size:1.85208px;fill:#1f2123;fill-opacity:1;stroke-width:0.276"
         d="m -177.4034,-12.771192 q -0.25929,0 -0.41301,-0.172244 -0.15372,-0.172243 -0.15372,-0.459315 0,-0.290777 0.15372,-0.461168 0.15372,-0.172244 0.41301,-0.172244 0.26115,0 0.41487,0.172244 0.15557,0.170391 0.15557,0.461168 0,0.287072 -0.15557,0.459315 -0.15372,0.172244 -0.41487,0.172244 z m 0.41487,-0.598222 q 0,-0.103716 -0.0241,-0.198173 -0.0222,-0.09446 -0.0685,-0.175947 -0.0463,-0.08149 -0.12965,-0.129646 -0.0833,-0.05001 -0.19076,-0.05001 -0.19077,0 -0.30375,0.131498 -0.11297,0.129645 -0.11297,0.331522 0,0.109273 0.0222,0.207433 0.0241,0.09816 0.0704,0.183356 0.0463,0.0852 0.12779,0.135202 0.0833,0.05001 0.19262,0.05001 0.20003,0 0.30745,-0.13335 0.10927,-0.135202 0.10927,-0.351895 z" />
    </g>
    <rect
       inkscape:export-ydpi="96"
       inkscape:export-xdpi="96"
       inkscape:export-filename="D:\Calcatz\Icon Pack\Adventure Narative Inspired by Arrival\GUI\Navigation Buttons\Playstation\Light\png\256px\option.png"
       style="fill:#cccccc;fill-opacity:1;stroke-width:3.34478;stroke-linecap:round;paint-order:fill markers stroke"
       id="rect851"
       width="67.73333"
       height="67.73333"
       x="-112.47609"
       y="-17.637005" />
    <path
       id="path853"
       style="fill:none;fill-opacity:0.301961;stroke:#8c8c8c;stroke-width:2.208;stroke-linecap:round;stroke-miterlimit:4;stroke-dasharray:none;stroke-opacity:1;paint-order:markers stroke fill"
       d="m -78.609369,1.6020267 c 3.9896,0 7.20144,3.049216 7.20144,6.8368 V 24.020378 c 0,3.787592 -3.21184,6.836808 -7.20144,6.836808 -3.9896,0 -7.20144,-3.049216 -7.20144,-6.836808 V 8.4388267 c 0,-3.787584 3.21184,-6.8368 7.20144,-6.8368 z" />
    <g
       transform="matrix(8,0,0,8,1340.6029,123.45903)"
       aria-label="O"
       id="g857"
       style="font-weight:bold;font-size:1.85208px;line-height:1.05;font-family:'Overlock SC';-inkscape-font-specification:'Overlock SC Bold';text-align:end;text-anchor:end;fill:#1f2123;fill-opacity:1;stroke:none;stroke-width:0.276;stroke-linecap:round;stroke-miterlimit:4;stroke-dasharray:none;stroke-opacity:1;paint-order:markers stroke fill">
      <path
         d="m -177.4034,-12.771192 q -0.25929,0 -0.41301,-0.172244 -0.15372,-0.172243 -0.15372,-0.459315 0,-0.290777 0.15372,-0.461168 0.15372,-0.172244 0.41301,-0.172244 0.26115,0 0.41487,0.172244 0.15557,0.170391 0.15557,0.461168 0,0.287072 -0.15557,0.459315 -0.15372,0.172244 -0.41487,0.172244 z m 0.41487,-0.598222 q 0,-0.103716 -0.0241,-0.198173 -0.0222,-0.09446 -0.0685,-0.175947 -0.0463,-0.08149 -0.12965,-0.129646 -0.0833,-0.05001 -0.19076,-0.05001 -0.19077,0 -0.30375,0.131498 -0.11297,0.129645 -0.11297,0.331522 0,0.109273 0.0222,0.207433 0.0241,0.09816 0.0704,0.183356 0.0463,0.0852 0.12779,0.135202 0.0833,0.05001 0.19262,0.05001 0.20003,0 0.30745,-0.13335 0.10927,-0.135202 0.10927,-0.351895 z"
         style="font-size:1.85208px;fill:#1f2123;fill-opacity:1;stroke-width:0.276"
         id="path855" />
    </g>
  </g>
</svg>
