<?xml version="1.0" encoding="UTF-8" standalone="no"?>
<svg
   xmlns:dc="http://purl.org/dc/elements/1.1/"
   xmlns:cc="http://creativecommons.org/ns#"
   xmlns:rdf="http://www.w3.org/1999/02/22-rdf-syntax-ns#"
   xmlns:svg="http://www.w3.org/2000/svg"
   xmlns="http://www.w3.org/2000/svg"
   xmlns:sodipodi="http://sodipodi.sourceforge.net/DTD/sodipodi-0.dtd"
   xmlns:inkscape="http://www.inkscape.org/namespaces/inkscape"
   inkscape:export-ydpi="96"
   inkscape:export-xdpi="96"
   inkscape:export-filename="D:\Calcatz\Icon Pack\Adventure Narative Inspired by Arrival\GUI\Navigation Buttons\Playstation\Light\png\playstation_button.png"
   sodipodi:docname="playstation_button.svg"
   inkscape:version="1.0 (4035a4fb49, 2020-05-01)"
   id="svg6124"
   version="1.1"
   viewBox="0 0 8.4666662 8.4666662"
   height="31.999998"
   width="31.999998">
  <defs
     id="defs6118" />
  <sodipodi:namedview
     inkscape:window-maximized="1"
     inkscape:window-y="-8"
     inkscape:window-x="-8"
     inkscape:window-height="705"
     inkscape:window-width="1366"
     fit-margin-bottom="0"
     fit-margin-right="0"
     fit-margin-left="0"
     fit-margin-top="0"
     showgrid="false"
     inkscape:document-rotation="0"
     inkscape:current-layer="layer1"
     inkscape:document-units="mm"
     inkscape:cy="88.446256"
     inkscape:cx="271.18609"
     inkscape:zoom="1.2339194"
     inkscape:pageshadow="2"
     inkscape:pageopacity="0.0"
     borderopacity="1.0"
     bordercolor="#666666"
     pagecolor="#ffffff"
     id="base"
     units="px" />
  <metadata
     id="metadata6121">
    <rdf:RDF>
      <cc:Work
         rdf:about="">
        <dc:format>image/svg+xml</dc:format>
        <dc:type
           rdf:resource="http://purl.org/dc/dcmitype/StillImage" />
        <dc:title />
      </cc:Work>
    </rdf:RDF>
  </metadata>
  <g
     transform="translate(-101.59999,-143.93333)"
     id="layer1"
     inkscape:groupmode="layer"
     inkscape:label="Layer 1">
    <rect
       y="143.93333"
       x="101.59999"
       height="8.4666662"
       width="8.4666662"
       id="rect832"
       style="fill:#cccccc;fill-opacity:1;stroke-width:0.317751;stroke-linecap:round;paint-order:fill markers stroke" />
    <path
       d="m 105.83334,146.00735 a 2.1593168,2.1593168 0 0 1 2.15932,2.15932 2.1593168,2.1593168 0 0 1 -2.15932,2.15932 2.1593168,2.1593168 0 0 1 -2.15931,-2.15932 2.1593168,2.1593168 0 0 1 2.15931,-2.15932"
       style="fill:none;fill-opacity:1;stroke:#8c8c8c;stroke-width:0.276;stroke-linecap:round;stroke-miterlimit:4;stroke-dasharray:none;stroke-dashoffset:0;stroke-opacity:1;paint-order:fill markers stroke"
       id="circle5456" />
    <path
       id="path5344"
       d="m 105.92388,149.12993 c -0.008,-0.002 -0.0508,-0.0157 -0.0949,-0.03 -0.0442,-0.0144 -0.13123,-0.0428 -0.19347,-0.0631 l -0.1131,-0.0369 v -0.0601 c 0,-0.0558 -2.9e-4,-0.06 -0.005,-0.0587 -0.002,6.3e-4 -0.0209,0.006 -0.0401,0.0117 -0.10301,0.0302 -0.19688,0.0422 -0.30662,0.0391 -0.0681,-0.002 -0.0942,-0.005 -0.21656,-0.024 -0.15936,-0.0251 -0.23269,-0.041 -0.28857,-0.0628 -0.069,-0.027 -0.1001,-0.0567 -0.103,-0.0987 -0.006,-0.0779 0.0517,-0.1543 0.15111,-0.20175 0.0137,-0.007 0.12009,-0.044 0.23655,-0.0832 0.36709,-0.12365 0.56658,-0.1913 0.56952,-0.19311 0.002,-0.001 0.002,-0.19125 0.002,-0.53455 0,-0.29303 9.5e-4,-0.53276 0.002,-0.53275 10e-4,1e-5 0.0167,0.003 0.0343,0.008 0.0176,0.005 0.10509,0.0277 0.19419,0.0513 0.0891,0.0236 0.18442,0.0487 0.21173,0.0559 0.0846,0.0223 0.13295,0.0361 0.16937,0.0484 0.2394,0.0811 0.38518,0.21443 0.43218,0.39532 0.0133,0.0513 0.0168,0.0911 0.0152,0.17065 -10e-4,0.0756 -0.006,0.10962 -0.0186,0.16354 -0.0182,0.0747 -0.0466,0.13015 -0.0883,0.17219 -0.077,0.0777 -0.19148,0.0973 -0.34712,0.0596 l -0.0328,-0.008 v -0.35121 c 0,-0.24712 -9.5e-4,-0.35572 -0.003,-0.36639 -0.005,-0.0204 -0.0208,-0.0383 -0.0426,-0.0464 -0.0459,-0.0172 -0.0944,-0.005 -0.10915,0.0274 -0.006,0.0116 -0.006,0.0289 -0.006,0.46393 -4e-5,0.24855 9.5e-4,0.45191 0.002,0.45191 10e-4,0 0.0199,-0.006 0.0416,-0.0133 0.25297,-0.0862 0.46173,-0.11519 0.67011,-0.0933 0.26919,0.0283 0.41732,0.0899 0.45174,0.18782 0.027,0.0769 -0.0387,0.15444 -0.17576,0.20734 -0.022,0.008 -0.58277,0.20602 -0.80269,0.28274 -0.0986,0.0344 -0.18004,0.063 -0.18106,0.0636 -9.5e-4,6.4e-4 -0.008,-6.3e-4 -0.0165,-0.002 z m 0.1008,-0.28779 c 0.0473,-0.0162 0.11438,-0.0391 0.14886,-0.0508 0.082,-0.0278 0.45939,-0.15744 0.47469,-0.16297 0.0351,-0.0126 0.0709,-0.0351 0.0803,-0.0505 0.006,-0.0104 0.006,-0.0116 0.002,-0.0201 -0.006,-0.0116 -0.018,-0.0179 -0.0452,-0.0237 -0.026,-0.006 -0.0847,-0.006 -0.12963,2.9e-4 -0.0401,0.005 -0.0767,0.0167 -0.44037,0.14134 -0.0987,0.0339 -0.17986,0.0615 -0.18033,0.0615 -3.2e-4,0 -9.5e-4,0.0303 -9.5e-4,0.0672 0,0.037 9.5e-4,0.0672 0.002,0.0672 0.001,0 0.041,-0.0132 0.0883,-0.0295 z m -0.70548,-0.13363 c 0.11078,-0.0372 0.20175,-0.0682 0.20228,-0.0687 6.4e-4,-6.4e-4 6.4e-4,-0.0343 1.5e-4,-0.0753 l -6.3e-4,-0.0744 -0.0467,0.0167 c -0.51623,0.1847 -0.46787,0.16673 -0.48271,0.17943 -0.0208,0.0177 -0.0218,0.0394 -0.002,0.0589 0.0234,0.0242 0.0508,0.0332 0.0972,0.0319 l 0.0321,-9.6e-4 z"
       style="fill:#1f2123;fill-opacity:1;stroke-width:0.999998" />
    <rect
       inkscape:export-ydpi="96"
       inkscape:export-xdpi="96"
       inkscape:export-filename="D:\Calcatz\Icon Pack\Adventure Narative Inspired by Arrival\GUI\Navigation Buttons\Playstation\Light\png\64px\playstation_button.png"
       style="fill:#cccccc;fill-opacity:1;stroke-width:0.635502;stroke-linecap:round;paint-order:fill markers stroke"
       id="rect834"
       width="16.933332"
       height="16.933332"
       x="111.11423"
       y="143.93333" />
    <path
       id="path836"
       style="fill:none;fill-opacity:1;stroke:#8c8c8c;stroke-width:0.552;stroke-linecap:round;stroke-miterlimit:4;stroke-dasharray:none;stroke-dashoffset:0;stroke-opacity:1;paint-order:fill markers stroke"
       d="m 119.58095,148.08137 a 4.3186336,4.3186336 0 0 1 4.31864,4.31864 4.3186336,4.3186336 0 0 1 -4.31864,4.31864 4.3186336,4.3186336 0 0 1 -4.31862,-4.31864 4.3186336,4.3186336 0 0 1 4.31862,-4.31864" />
    <path
       style="fill:#1f2123;fill-opacity:1;stroke-width:2"
       d="m 119.76203,154.32653 c -0.016,-0.004 -0.1016,-0.0314 -0.1898,-0.06 -0.0884,-0.0288 -0.26246,-0.0856 -0.38694,-0.1262 l -0.2262,-0.0738 v -0.1202 c 0,-0.1116 -5.8e-4,-0.12 -0.01,-0.1174 -0.004,10e-4 -0.0418,0.012 -0.0802,0.0234 -0.20602,0.0604 -0.39376,0.0844 -0.61324,0.0782 -0.1362,-0.004 -0.1884,-0.01 -0.43312,-0.048 -0.31872,-0.0502 -0.46538,-0.082 -0.57714,-0.1256 -0.138,-0.054 -0.2002,-0.1134 -0.206,-0.1974 -0.012,-0.1558 0.1034,-0.3086 0.30222,-0.4035 0.0274,-0.014 0.24018,-0.088 0.4731,-0.1664 0.73418,-0.2473 1.13316,-0.3826 1.13904,-0.38622 0.004,-0.002 0.004,-0.3825 0.004,-1.0691 0,-0.58606 0.002,-1.06552 0.004,-1.0655 0.002,2e-5 0.0334,0.006 0.0686,0.016 0.0352,0.01 0.21018,0.0554 0.38838,0.1026 0.1782,0.0472 0.36884,0.0974 0.42346,0.1118 0.1692,0.0446 0.2659,0.0722 0.33874,0.0968 0.4788,0.1622 0.77036,0.42886 0.86436,0.79064 0.0266,0.1026 0.0336,0.1822 0.0304,0.3413 -0.002,0.1512 -0.012,0.21924 -0.0372,0.32708 -0.0364,0.1494 -0.0932,0.2603 -0.1766,0.34438 -0.154,0.1554 -0.38296,0.1946 -0.69424,0.1192 l -0.0656,-0.016 v -0.70242 c 0,-0.49424 -0.002,-0.71144 -0.006,-0.73278 -0.01,-0.0408 -0.0416,-0.0766 -0.0852,-0.0928 -0.0918,-0.0344 -0.1888,-0.01 -0.2183,0.0548 -0.012,0.0232 -0.012,0.0578 -0.012,0.92786 -8e-5,0.4971 0.002,0.90382 0.004,0.90382 0.002,0 0.0398,-0.012 0.0832,-0.0266 0.50594,-0.1724 0.92346,-0.23038 1.34022,-0.1866 0.53838,0.0566 0.83464,0.1798 0.90348,0.37564 0.054,0.1538 -0.0774,0.30888 -0.35152,0.41468 -0.044,0.016 -1.16554,0.41204 -1.60538,0.56548 -0.1972,0.0688 -0.36008,0.126 -0.36212,0.1272 -0.002,10e-4 -0.016,-0.001 -0.033,-0.004 z m 0.2016,-0.57558 c 0.0946,-0.0324 0.22876,-0.0782 0.29772,-0.1016 0.164,-0.0556 0.91878,-0.31488 0.94938,-0.32594 0.0702,-0.0252 0.1418,-0.0702 0.1606,-0.101 0.012,-0.0208 0.012,-0.0232 0.004,-0.0402 -0.012,-0.0232 -0.036,-0.0358 -0.0904,-0.0474 -0.052,-0.012 -0.1694,-0.012 -0.25926,5.8e-4 -0.0802,0.01 -0.1534,0.0334 -0.88074,0.28268 -0.1974,0.0678 -0.35972,0.123 -0.36066,0.123 -6.4e-4,0 -0.002,0.0606 -0.002,0.1344 0,0.074 0.002,0.1344 0.004,0.1344 0.002,0 0.082,-0.0264 0.1766,-0.059 z m -1.41096,-0.26726 c 0.22156,-0.0744 0.4035,-0.1364 0.40456,-0.1374 0.001,-0.001 0.001,-0.0686 3e-4,-0.1506 l -0.001,-0.1488 -0.0934,0.0334 c -1.03246,0.3694 -0.93574,0.33346 -0.96542,0.35886 -0.0416,0.0354 -0.0436,0.0788 -0.004,0.1178 0.0468,0.0484 0.1016,0.0664 0.1944,0.0638 l 0.0642,-0.002 z"
       id="path838" />
    <rect
       inkscape:export-ydpi="96"
       inkscape:export-xdpi="96"
       inkscape:export-filename="D:\Calcatz\Icon Pack\Adventure Narative Inspired by Arrival\GUI\Navigation Buttons\Playstation\Light\png\128px\playstation_button.png"
       y="143.93333"
       x="131.05577"
       height="33.866665"
       width="33.866665"
       id="rect840"
       style="fill:#cccccc;fill-opacity:1;stroke-width:1.271;stroke-linecap:round;paint-order:fill markers stroke" />
    <path
       d="m 147.98921,152.22941 a 8.6372672,8.6372672 0 0 1 8.63728,8.63728 8.6372672,8.6372672 0 0 1 -8.63728,8.63728 8.6372672,8.6372672 0 0 1 -8.63724,-8.63728 8.6372672,8.6372672 0 0 1 8.63724,-8.63728"
       style="fill:none;fill-opacity:1;stroke:#8c8c8c;stroke-width:1.104;stroke-linecap:round;stroke-miterlimit:4;stroke-dasharray:none;stroke-dashoffset:0;stroke-opacity:1;paint-order:fill markers stroke"
       id="path842" />
    <path
       id="path844"
       d="m 148.35137,164.71973 c -0.032,-0.008 -0.2032,-0.0628 -0.3796,-0.12 -0.1768,-0.0576 -0.52492,-0.1712 -0.77388,-0.2524 l -0.4524,-0.1476 v -0.2404 c 0,-0.2232 -10e-4,-0.24 -0.02,-0.2348 -0.008,0.002 -0.0836,0.024 -0.1604,0.0468 -0.41204,0.1208 -0.78752,0.1688 -1.22648,0.1564 -0.2724,-0.008 -0.3768,-0.02 -0.86624,-0.096 -0.63744,-0.1004 -0.93076,-0.164 -1.15428,-0.2512 -0.276,-0.108 -0.4004,-0.2268 -0.412,-0.3948 -0.024,-0.3116 0.2068,-0.6172 0.60444,-0.807 0.0548,-0.028 0.48036,-0.176 0.9462,-0.3328 1.46836,-0.4946 2.26632,-0.7652 2.27808,-0.77244 0.008,-0.004 0.008,-0.765 0.008,-2.1382 0,-1.17212 0.004,-2.13104 0.008,-2.131 0.004,4e-5 0.0668,0.012 0.1372,0.032 0.0704,0.02 0.42036,0.1108 0.77676,0.2052 0.3564,0.0944 0.73768,0.1948 0.84692,0.2236 0.3384,0.0892 0.5318,0.1444 0.67748,0.1936 0.9576,0.3244 1.54072,0.85772 1.72872,1.58128 0.0532,0.2052 0.0672,0.3644 0.0608,0.6826 -0.004,0.3024 -0.024,0.43848 -0.0744,0.65416 -0.0728,0.2988 -0.1864,0.5206 -0.3532,0.68876 -0.308,0.3108 -0.76592,0.3892 -1.38848,0.2384 l -0.1312,-0.032 v -1.40484 c 0,-0.98848 -0.004,-1.42288 -0.012,-1.46556 -0.02,-0.0816 -0.0832,-0.1532 -0.1704,-0.1856 -0.1836,-0.0688 -0.3776,-0.02 -0.4366,0.1096 -0.024,0.0464 -0.024,0.1156 -0.024,1.85572 -1.6e-4,0.9942 0.004,1.80764 0.008,1.80764 0.004,0 0.0796,-0.024 0.1664,-0.0532 1.01188,-0.3448 1.84692,-0.46076 2.68044,-0.3732 1.07676,0.1132 1.66928,0.3596 1.80696,0.75128 0.108,0.3076 -0.1548,0.61776 -0.70304,0.82936 -0.088,0.032 -2.33108,0.82408 -3.21076,1.13096 -0.3944,0.1376 -0.72016,0.252 -0.72424,0.2544 -0.004,0.002 -0.032,-0.002 -0.066,-0.008 z m 0.4032,-1.15116 c 0.1892,-0.0648 0.45752,-0.1564 0.59544,-0.2032 0.328,-0.1112 1.83756,-0.62976 1.89876,-0.65188 0.1404,-0.0504 0.2836,-0.1404 0.3212,-0.202 0.024,-0.0416 0.024,-0.0464 0.008,-0.0804 -0.024,-0.0464 -0.072,-0.0716 -0.1808,-0.0948 -0.104,-0.024 -0.3388,-0.024 -0.51852,0.001 -0.1604,0.02 -0.3068,0.0668 -1.76148,0.56536 -0.3948,0.1356 -0.71944,0.246 -0.72132,0.246 -0.001,0 -0.004,0.1212 -0.004,0.2688 0,0.148 0.004,0.2688 0.008,0.2688 0.004,0 0.164,-0.0528 0.3532,-0.118 z m -2.82192,-0.53452 c 0.44312,-0.1488 0.807,-0.2728 0.80912,-0.2748 0.002,-0.002 0.002,-0.1372 6e-4,-0.3012 l -0.002,-0.2976 -0.1868,0.0668 c -2.06492,0.7388 -1.87148,0.66692 -1.93084,0.71772 -0.0832,0.0708 -0.0872,0.1576 -0.008,0.2356 0.0936,0.0968 0.2032,0.1328 0.3888,0.1276 l 0.1284,-0.004 z"
       style="fill:#1f2123;fill-opacity:1;stroke-width:4" />
    <rect
       inkscape:export-ydpi="96"
       inkscape:export-xdpi="96"
       inkscape:export-filename="D:\Calcatz\Icon Pack\Adventure Narative Inspired by Arrival\GUI\Navigation Buttons\Playstation\Light\png\256px\playstaion_button.png"
       style="fill:#cccccc;fill-opacity:1;stroke-width:2.542;stroke-linecap:round;paint-order:fill markers stroke"
       id="rect846"
       width="67.73333"
       height="67.73333"
       x="170.08115"
       y="143.93333" />
    <path
       id="path848"
       style="fill:none;fill-opacity:1;stroke:#8c8c8c;stroke-width:2.208;stroke-linecap:round;stroke-miterlimit:4;stroke-dasharray:none;stroke-dashoffset:0;stroke-opacity:1;paint-order:fill markers stroke"
       d="m 203.94803,160.52549 a 17.274534,17.274534 0 0 1 17.27456,17.27456 17.274534,17.274534 0 0 1 -17.27456,17.27456 17.274534,17.274534 0 0 1 -17.27448,-17.27456 17.274534,17.274534 0 0 1 17.27448,-17.27456" />
    <path
       style="fill:#1f2123;fill-opacity:1;stroke-width:8"
       d="m 204.67235,185.50613 c -0.064,-0.016 -0.4064,-0.1256 -0.7592,-0.24 -0.3536,-0.1152 -1.04984,-0.3424 -1.54776,-0.5048 l -0.9048,-0.2952 v -0.4808 c 0,-0.4464 -0.002,-0.48 -0.04,-0.4696 -0.016,0.004 -0.1672,0.048 -0.3208,0.0936 -0.82408,0.2416 -1.57504,0.3376 -2.45296,0.3128 -0.5448,-0.016 -0.7536,-0.04 -1.73248,-0.192 -1.27488,-0.2008 -1.86152,-0.328 -2.30856,-0.5024 -0.552,-0.216 -0.8008,-0.4536 -0.824,-0.7896 -0.048,-0.6232 0.4136,-1.2344 1.20888,-1.614 0.1096,-0.056 0.96072,-0.352 1.8924,-0.6656 2.93672,-0.9892 4.53264,-1.5304 4.55616,-1.54488 0.016,-0.008 0.016,-1.53 0.016,-4.2764 0,-2.34424 0.008,-4.26208 0.016,-4.262 0.008,8e-5 0.1336,0.024 0.2744,0.064 0.1408,0.04 0.84072,0.2216 1.55352,0.4104 0.7128,0.1888 1.47536,0.3896 1.69384,0.4472 0.6768,0.1784 1.0636,0.2888 1.35496,0.3872 1.9152,0.6488 3.08144,1.71544 3.45744,3.16256 0.1064,0.4104 0.1344,0.7288 0.1216,1.3652 -0.008,0.6048 -0.048,0.87696 -0.1488,1.30832 -0.1456,0.5976 -0.3728,1.0412 -0.7064,1.37752 -0.616,0.6216 -1.53184,0.7784 -2.77696,0.4768 l -0.2624,-0.064 v -2.80968 c 0,-1.97696 -0.008,-2.84576 -0.024,-2.93112 -0.04,-0.1632 -0.1664,-0.3064 -0.3408,-0.3712 -0.3672,-0.1376 -0.7552,-0.04 -0.8732,0.2192 -0.048,0.0928 -0.048,0.2312 -0.048,3.71144 -3.2e-4,1.9884 0.008,3.61528 0.016,3.61528 0.008,0 0.1592,-0.048 0.3328,-0.1064 2.02376,-0.6896 3.69384,-0.92152 5.36088,-0.7464 2.15352,0.2264 3.33856,0.7192 3.61392,1.50256 0.216,0.6152 -0.3096,1.23552 -1.40608,1.65872 -0.176,0.064 -4.66216,1.64816 -6.42152,2.26192 -0.7888,0.2752 -1.44032,0.504 -1.44848,0.5088 -0.008,0.004 -0.064,-0.004 -0.132,-0.016 z m 0.8064,-2.30232 c 0.3784,-0.1296 0.91504,-0.3128 1.19088,-0.4064 0.656,-0.2224 3.67512,-1.25952 3.79752,-1.30376 0.2808,-0.1008 0.5672,-0.2808 0.6424,-0.404 0.048,-0.0832 0.048,-0.0928 0.016,-0.1608 -0.048,-0.0928 -0.144,-0.1432 -0.3616,-0.1896 -0.208,-0.048 -0.6776,-0.048 -1.03704,0.002 -0.3208,0.04 -0.6136,0.1336 -3.52296,1.13072 -0.7896,0.2712 -1.43888,0.492 -1.44264,0.492 -0.002,0 -0.008,0.2424 -0.008,0.5376 0,0.296 0.008,0.5376 0.016,0.5376 0.008,0 0.328,-0.1056 0.7064,-0.236 z m -5.64384,-1.06904 c 0.88624,-0.2976 1.614,-0.5456 1.61824,-0.5496 0.004,-0.004 0.004,-0.2744 0.001,-0.6024 l -0.004,-0.5952 -0.3736,0.1336 c -4.12984,1.4776 -3.74296,1.33384 -3.86168,1.43544 -0.1664,0.1416 -0.1744,0.3152 -0.016,0.4712 0.1872,0.1936 0.4064,0.2656 0.7776,0.2552 l 0.2568,-0.008 z"
       id="path850" />
  </g>
</svg>
