<?xml version="1.0" encoding="UTF-8" standalone="no"?>
<svg
   xmlns:dc="http://purl.org/dc/elements/1.1/"
   xmlns:cc="http://creativecommons.org/ns#"
   xmlns:rdf="http://www.w3.org/1999/02/22-rdf-syntax-ns#"
   xmlns:svg="http://www.w3.org/2000/svg"
   xmlns="http://www.w3.org/2000/svg"
   xmlns:sodipodi="http://sodipodi.sourceforge.net/DTD/sodipodi-0.dtd"
   xmlns:inkscape="http://www.inkscape.org/namespaces/inkscape"
   inkscape:export-ydpi="96"
   inkscape:export-xdpi="96"
   inkscape:export-filename="D:\Calcatz\Icon Pack\Adventure Narative Inspired by Arrival\GUI\Navigation Buttons\Playstation\Light\png\rstick_updown.png"
   sodipodi:docname="rstick_updown.svg"
   inkscape:version="1.0 (4035a4fb49, 2020-05-01)"
   id="svg6093"
   version="1.1"
   viewBox="0 0 8.4666662 8.4666662"
   height="31.999998"
   width="31.999998">
  <defs
     id="defs6087" />
  <sodipodi:namedview
     inkscape:window-maximized="1"
     inkscape:window-y="-8"
     inkscape:window-x="-8"
     inkscape:window-height="705"
     inkscape:window-width="1366"
     fit-margin-bottom="0"
     fit-margin-right="0"
     fit-margin-left="0"
     fit-margin-top="0"
     showgrid="false"
     inkscape:document-rotation="0"
     inkscape:current-layer="layer1"
     inkscape:document-units="mm"
     inkscape:cy="78.108465"
     inkscape:cx="215.6644"
     inkscape:zoom="1.2339194"
     inkscape:pageshadow="2"
     inkscape:pageopacity="0.0"
     borderopacity="1.0"
     bordercolor="#666666"
     pagecolor="#ffffff"
     id="base"
     units="px" />
  <metadata
     id="metadata6090">
    <rdf:RDF>
      <cc:Work
         rdf:about="">
        <dc:format>image/svg+xml</dc:format>
        <dc:type
           rdf:resource="http://purl.org/dc/dcmitype/StillImage" />
        <dc:title />
      </cc:Work>
    </rdf:RDF>
  </metadata>
  <g
     transform="translate(105.15509,12.906297)"
     id="layer1"
     inkscape:groupmode="layer"
     inkscape:label="Layer 1">
    <rect
       y="-12.906297"
       x="-105.15509"
       height="8.4666662"
       width="8.4666662"
       id="rect835"
       style="fill:#cccccc;fill-opacity:1;stroke-width:0.38353;stroke-linecap:round;paint-order:fill markers stroke" />
    <path
       d="m -100.27121,-7.0832083 h -0.65054 -0.65054 l 0.32527,0.5535986 0.32527,0.5535919 0.32527,-0.5535919 z"
       inkscape:transform-center-y="0.18452527"
       inkscape:transform-center-x="9.9297713e-06"
       style="fill:#1f2123;fill-opacity:1;stroke:none;stroke-width:0.276;stroke-linecap:round;stroke-miterlimit:4;stroke-dasharray:none;stroke-opacity:1;paint-order:markers stroke fill"
       id="path4928" />
    <path
       d="m -100.27121,-10.212422 h -0.65054 -0.65054 l 0.32527,-0.553598 0.32527,-0.553592 0.32527,0.553592 z"
       inkscape:transform-center-y="-0.18452761"
       inkscape:transform-center-x="9.9297713e-06"
       style="fill:#1f2123;fill-opacity:1;stroke:none;stroke-width:0.276;stroke-linecap:round;stroke-miterlimit:4;stroke-dasharray:none;stroke-opacity:1;paint-order:markers stroke fill"
       id="path4940" />
    <g
       style="font-weight:bold;font-size:2.64583px;line-height:1.05;font-family:'Overlock SC';-inkscape-font-specification:'Overlock SC Bold';text-align:end;text-anchor:end;fill:#1f2123;fill-opacity:1;stroke:#ffffff;stroke-width:0.905997;stroke-linecap:round;stroke-miterlimit:4;stroke-dasharray:none;stroke-opacity:1;paint-order:markers stroke fill"
       id="text4926"
       aria-label="R">
      <path
         id="path6689"
         style="font-size:2.64583px;fill:#1f2123;fill-opacity:1;stroke:none;stroke-width:0.905997"
         d="m -100.57911,-8.0181324 q 0.0688,0.076729 0.16933,0.076729 0.0318,0 0.0714,-0.00794 0.0238,0.047625 0.0238,0.079375 0,0.1005415 -0.19844,0.1005415 -0.0503,0 -0.10054,-0.023813 -0.0503,-0.023812 -0.10054,-0.082021 -0.0503,-0.058208 -0.0873,-0.1031874 -0.0344,-0.044979 -0.0873,-0.140229 -0.0503,-0.09525 -0.0714,-0.1349373 -0.0212,-0.042333 -0.0714,-0.1508123 -0.0503,-0.1111248 -0.0582,-0.1269998 -0.0741,-0.010583 -0.0741,-0.058208 0,-0.023812 0.0132,-0.071437 0.0741,0.013229 0.12435,0.013229 0.17727,0 0.27781,-0.1031874 0.10055,-0.1058332 0.10055,-0.2857496 0,-0.2116664 -0.11113,-0.2936872 -0.11112,-0.084666 -0.34131,-0.084666 -0.0847,0 -0.20638,0.010583 0.0106,0.1534581 0.0106,0.5397493 v 0.5318118 q 0,0.3571871 0.0503,0.5238743 -0.0476,0.021167 -0.12436,0.021167 -0.0767,0 -0.10318,-0.034396 -0.0265,-0.034396 -0.0265,-0.1164165 0,-0.042333 0.003,-0.2090206 0.003,-0.1666873 0.003,-0.2592913 v -0.529166 q 0,-0.3651245 -0.0344,-0.6085409 0.1958,-0.03175 0.39423,-0.03175 0.70908,0 0.70908,0.5265201 0,0.2169581 -0.11906,0.3518954 -0.11906,0.1322915 -0.31485,0.1693331 0,0.00265 0.045,0.097896 0.045,0.09525 0.0609,0.1269999 0.0185,0.03175 0.0556,0.1031873 0.037,0.071437 0.0635,0.1137707 0.0291,0.042333 0.0556,0.068792 z" />
    </g>
    <path
       sodipodi:nodetypes="csccsc"
       d="m -102.00141,-6.8028794 c -0.84638,-0.48866 -1.25903,-1.48488 -1.00608,-2.4288998 0.15219,-0.5679702 0.52248,-1.0318398 1.00619,-1.3112698 m 2.159662,3.3e-4 c 0.48344,0.279461 0.8535,0.7431905 1.00563,1.3109405 0.25295,0.9440199 -0.1597,1.9402399 -1.00608,2.4288999"
       style="fill:none;fill-opacity:1;stroke:#8c8c8c;stroke-width:0.276;stroke-linecap:round;stroke-miterlimit:4;stroke-dasharray:none;stroke-dashoffset:0;stroke-opacity:1;paint-order:fill markers stroke"
       id="path5450" />
    <rect
       inkscape:export-ydpi="96"
       inkscape:export-xdpi="96"
       inkscape:export-filename="D:\Calcatz\Icon Pack\Adventure Narative Inspired by Arrival\GUI\Navigation Buttons\Playstation\Light\png\64px\rstick_updown.png"
       style="fill:#cccccc;fill-opacity:1;stroke-width:0.76706;stroke-linecap:round;paint-order:fill markers stroke"
       id="rect837"
       width="16.933332"
       height="16.933332"
       x="-94.75547"
       y="-12.906297" />
    <path
       id="path839"
       style="fill:#1f2123;fill-opacity:1;stroke:none;stroke-width:0.552;stroke-linecap:round;stroke-miterlimit:4;stroke-dasharray:none;stroke-opacity:1;paint-order:markers stroke fill"
       inkscape:transform-center-x="2.0135422e-05"
       inkscape:transform-center-y="0.36905052"
       d="m -84.987712,-1.2601199 h -1.30108 -1.30108 l 0.65054,1.10719723 0.65054,1.1071838 0.65054,-1.1071838 z" />
    <path
       id="path841"
       style="fill:#1f2123;fill-opacity:1;stroke:none;stroke-width:0.552;stroke-linecap:round;stroke-miterlimit:4;stroke-dasharray:none;stroke-opacity:1;paint-order:markers stroke fill"
       inkscape:transform-center-x="2.0135422e-05"
       inkscape:transform-center-y="-0.36905525"
       d="m -84.987712,-7.5185473 h -1.30108 -1.30108 l 0.65054,-1.107196 0.65054,-1.107184 0.65054,1.107184 z" />
    <g
       transform="matrix(2,0,0,2,115.55471,12.906297)"
       aria-label="R"
       id="g845"
       style="font-weight:bold;font-size:2.64583px;line-height:1.05;font-family:'Overlock SC';-inkscape-font-specification:'Overlock SC Bold';text-align:end;text-anchor:end;fill:#1f2123;fill-opacity:1;stroke:#ffffff;stroke-width:0.905997;stroke-linecap:round;stroke-miterlimit:4;stroke-dasharray:none;stroke-opacity:1;paint-order:markers stroke fill">
      <path
         d="m -100.57911,-8.0181324 q 0.0688,0.076729 0.16933,0.076729 0.0318,0 0.0714,-0.00794 0.0238,0.047625 0.0238,0.079375 0,0.1005415 -0.19844,0.1005415 -0.0503,0 -0.10054,-0.023813 -0.0503,-0.023812 -0.10054,-0.082021 -0.0503,-0.058208 -0.0873,-0.1031874 -0.0344,-0.044979 -0.0873,-0.140229 -0.0503,-0.09525 -0.0714,-0.1349373 -0.0212,-0.042333 -0.0714,-0.1508123 -0.0503,-0.1111248 -0.0582,-0.1269998 -0.0741,-0.010583 -0.0741,-0.058208 0,-0.023812 0.0132,-0.071437 0.0741,0.013229 0.12435,0.013229 0.17727,0 0.27781,-0.1031874 0.10055,-0.1058332 0.10055,-0.2857496 0,-0.2116664 -0.11113,-0.2936872 -0.11112,-0.084666 -0.34131,-0.084666 -0.0847,0 -0.20638,0.010583 0.0106,0.1534581 0.0106,0.5397493 v 0.5318118 q 0,0.3571871 0.0503,0.5238743 -0.0476,0.021167 -0.12436,0.021167 -0.0767,0 -0.10318,-0.034396 -0.0265,-0.034396 -0.0265,-0.1164165 0,-0.042333 0.003,-0.2090206 0.003,-0.1666873 0.003,-0.2592913 v -0.529166 q 0,-0.3651245 -0.0344,-0.6085409 0.1958,-0.03175 0.39423,-0.03175 0.70908,0 0.70908,0.5265201 0,0.2169581 -0.11906,0.3518954 -0.11906,0.1322915 -0.31485,0.1693331 0,0.00265 0.045,0.097896 0.045,0.09525 0.0609,0.1269999 0.0185,0.03175 0.0556,0.1031873 0.037,0.071437 0.0635,0.1137707 0.0291,0.042333 0.0556,0.068792 z"
         style="font-size:2.64583px;fill:#1f2123;fill-opacity:1;stroke:none;stroke-width:0.905997"
         id="path843" />
    </g>
    <path
       id="path847"
       style="fill:none;fill-opacity:1;stroke:#8c8c8c;stroke-width:0.552;stroke-linecap:round;stroke-miterlimit:4;stroke-dasharray:none;stroke-dashoffset:0;stroke-opacity:1;paint-order:fill markers stroke"
       d="m -88.448112,-0.69946207 c -1.69276,-0.97732003 -2.51806,-2.96976003 -2.01216,-4.85779963 0.30438,-1.1359404 1.04496,-2.0636796 2.01238,-2.6225396 m 4.319324,6.6e-4 c 0.96688,0.558922 1.707,1.486381 2.01126,2.621881 0.5059,1.8880398 -0.3194,3.8804798 -2.01216,4.85779983"
       sodipodi:nodetypes="csccsc" />
    <rect
       inkscape:export-ydpi="96"
       inkscape:export-xdpi="96"
       inkscape:export-filename="D:\Calcatz\Icon Pack\Adventure Narative Inspired by Arrival\GUI\Navigation Buttons\Playstation\Light\png\128px\rstick_updown.png"
       y="-12.906297"
       x="-75.778847"
       height="33.866665"
       width="33.866665"
       id="rect849"
       style="fill:#cccccc;fill-opacity:1;stroke-width:1.53412;stroke-linecap:round;paint-order:fill markers stroke" />
    <path
       d="m -56.243327,10.386057 h -2.60216 -2.60216 l 1.30108,2.214394 1.30108,2.214368 1.30108,-2.214368 z"
       inkscape:transform-center-y="0.73810108"
       inkscape:transform-center-x="4.0011567e-05"
       style="fill:#1f2123;fill-opacity:1;stroke:none;stroke-width:1.104;stroke-linecap:round;stroke-miterlimit:4;stroke-dasharray:none;stroke-opacity:1;paint-order:markers stroke fill"
       id="path851" />
    <path
       d="m -56.243327,-2.1307979 h -2.60216 -2.60216 l 1.30108,-2.214392 1.30108,-2.214368 1.30108,2.214368 z"
       inkscape:transform-center-y="-0.73811053"
       inkscape:transform-center-x="4.0011567e-05"
       style="fill:#1f2123;fill-opacity:1;stroke:none;stroke-width:1.104;stroke-linecap:round;stroke-miterlimit:4;stroke-dasharray:none;stroke-opacity:1;paint-order:markers stroke fill"
       id="path853" />
    <g
       style="font-weight:bold;font-size:2.64583px;line-height:1.05;font-family:'Overlock SC';-inkscape-font-specification:'Overlock SC Bold';text-align:end;text-anchor:end;fill:#1f2123;fill-opacity:1;stroke:#ffffff;stroke-width:0.905997;stroke-linecap:round;stroke-miterlimit:4;stroke-dasharray:none;stroke-opacity:1;paint-order:markers stroke fill"
       id="g857"
       aria-label="R"
       transform="matrix(4,0,0,4,344.84151,38.718891)">
      <path
         id="path855"
         style="font-size:2.64583px;fill:#1f2123;fill-opacity:1;stroke:none;stroke-width:0.905997"
         d="m -100.57911,-8.0181324 q 0.0688,0.076729 0.16933,0.076729 0.0318,0 0.0714,-0.00794 0.0238,0.047625 0.0238,0.079375 0,0.1005415 -0.19844,0.1005415 -0.0503,0 -0.10054,-0.023813 -0.0503,-0.023812 -0.10054,-0.082021 -0.0503,-0.058208 -0.0873,-0.1031874 -0.0344,-0.044979 -0.0873,-0.140229 -0.0503,-0.09525 -0.0714,-0.1349373 -0.0212,-0.042333 -0.0714,-0.1508123 -0.0503,-0.1111248 -0.0582,-0.1269998 -0.0741,-0.010583 -0.0741,-0.058208 0,-0.023812 0.0132,-0.071437 0.0741,0.013229 0.12435,0.013229 0.17727,0 0.27781,-0.1031874 0.10055,-0.1058332 0.10055,-0.2857496 0,-0.2116664 -0.11113,-0.2936872 -0.11112,-0.084666 -0.34131,-0.084666 -0.0847,0 -0.20638,0.010583 0.0106,0.1534581 0.0106,0.5397493 v 0.5318118 q 0,0.3571871 0.0503,0.5238743 -0.0476,0.021167 -0.12436,0.021167 -0.0767,0 -0.10318,-0.034396 -0.0265,-0.034396 -0.0265,-0.1164165 0,-0.042333 0.003,-0.2090206 0.003,-0.1666873 0.003,-0.2592913 v -0.529166 q 0,-0.3651245 -0.0344,-0.6085409 0.1958,-0.03175 0.39423,-0.03175 0.70908,0 0.70908,0.5265201 0,0.2169581 -0.11906,0.3518954 -0.11906,0.1322915 -0.31485,0.1693331 0,0.00265 0.045,0.097896 0.045,0.09525 0.0609,0.1269999 0.0185,0.03175 0.0556,0.1031873 0.037,0.071437 0.0635,0.1137707 0.0291,0.042333 0.0556,0.068792 z" />
    </g>
    <path
       sodipodi:nodetypes="csccsc"
       d="m -63.164127,11.507373 c -3.38552,-1.9546405 -5.03612,-5.9395205 -4.02432,-9.7155997 0.60876,-2.27188077 2.08992,-4.1273592 4.02476,-5.2450792 m 8.638648,0.00132 c 1.93376,1.117844 3.414,2.97276203 4.02252,5.243762 1.0118,3.7760796 -0.6388,7.7609596 -4.02432,9.7155999"
       style="fill:none;fill-opacity:1;stroke:#8c8c8c;stroke-width:1.104;stroke-linecap:round;stroke-miterlimit:4;stroke-dasharray:none;stroke-dashoffset:0;stroke-opacity:1;paint-order:fill markers stroke"
       id="path859" />
    <rect
       inkscape:export-ydpi="96"
       inkscape:export-xdpi="96"
       inkscape:export-filename="D:\Calcatz\Icon Pack\Adventure Narative Inspired by Arrival\GUI\Navigation Buttons\Playstation\Light\png\256px\rstick_updown.png"
       style="fill:#cccccc;fill-opacity:1;stroke-width:3.06824;stroke-linecap:round;paint-order:fill markers stroke"
       id="rect861"
       width="67.73333"
       height="67.73333"
       x="-38.783207"
       y="-12.906297" />
    <path
       id="path863"
       style="fill:#1f2123;fill-opacity:1;stroke:none;stroke-width:2.208;stroke-linecap:round;stroke-miterlimit:4;stroke-dasharray:none;stroke-opacity:1;paint-order:markers stroke fill"
       inkscape:transform-center-x="7.9992831e-05"
       inkscape:transform-center-y="1.4762024"
       d="M 0.28783094,33.678411 H -4.9164891 -10.120809 l 2.6021599,4.428788 2.60216,4.428736 2.60216,-4.428736 z" />
    <path
       id="path865"
       style="fill:#1f2123;fill-opacity:1;stroke:none;stroke-width:2.208;stroke-linecap:round;stroke-miterlimit:4;stroke-dasharray:none;stroke-opacity:1;paint-order:markers stroke fill"
       inkscape:transform-center-x="7.9992831e-05"
       inkscape:transform-center-y="-1.4762211"
       d="M 0.28783094,8.6447009 H -4.9164891 -10.120809 l 2.6021599,-4.428784 2.60216,-4.42873597 2.60216,4.42873597 z" />
    <g
       transform="matrix(8,0,0,8,802.45751,90.344079)"
       aria-label="R"
       id="g869"
       style="font-weight:bold;font-size:2.64583px;line-height:1.05;font-family:'Overlock SC';-inkscape-font-specification:'Overlock SC Bold';text-align:end;text-anchor:end;fill:#1f2123;fill-opacity:1;stroke:#ffffff;stroke-width:0.905997;stroke-linecap:round;stroke-miterlimit:4;stroke-dasharray:none;stroke-opacity:1;paint-order:markers stroke fill">
      <path
         d="m -100.57911,-8.0181324 q 0.0688,0.076729 0.16933,0.076729 0.0318,0 0.0714,-0.00794 0.0238,0.047625 0.0238,0.079375 0,0.1005415 -0.19844,0.1005415 -0.0503,0 -0.10054,-0.023813 -0.0503,-0.023812 -0.10054,-0.082021 -0.0503,-0.058208 -0.0873,-0.1031874 -0.0344,-0.044979 -0.0873,-0.140229 -0.0503,-0.09525 -0.0714,-0.1349373 -0.0212,-0.042333 -0.0714,-0.1508123 -0.0503,-0.1111248 -0.0582,-0.1269998 -0.0741,-0.010583 -0.0741,-0.058208 0,-0.023812 0.0132,-0.071437 0.0741,0.013229 0.12435,0.013229 0.17727,0 0.27781,-0.1031874 0.10055,-0.1058332 0.10055,-0.2857496 0,-0.2116664 -0.11113,-0.2936872 -0.11112,-0.084666 -0.34131,-0.084666 -0.0847,0 -0.20638,0.010583 0.0106,0.1534581 0.0106,0.5397493 v 0.5318118 q 0,0.3571871 0.0503,0.5238743 -0.0476,0.021167 -0.12436,0.021167 -0.0767,0 -0.10318,-0.034396 -0.0265,-0.034396 -0.0265,-0.1164165 0,-0.042333 0.003,-0.2090206 0.003,-0.1666873 0.003,-0.2592913 v -0.529166 q 0,-0.3651245 -0.0344,-0.6085409 0.1958,-0.03175 0.39423,-0.03175 0.70908,0 0.70908,0.5265201 0,0.2169581 -0.11906,0.3518954 -0.11906,0.1322915 -0.31485,0.1693331 0,0.00265 0.045,0.097896 0.045,0.09525 0.0609,0.1269999 0.0185,0.03175 0.0556,0.1031873 0.037,0.071437 0.0635,0.1137707 0.0291,0.042333 0.0556,0.068792 z"
         style="font-size:2.64583px;fill:#1f2123;fill-opacity:1;stroke:none;stroke-width:0.905997"
         id="path867" />
    </g>
    <path
       id="path871"
       style="fill:none;fill-opacity:1;stroke:#8c8c8c;stroke-width:2.208;stroke-linecap:round;stroke-miterlimit:4;stroke-dasharray:none;stroke-dashoffset:0;stroke-opacity:1;paint-order:fill markers stroke"
       d="m -13.553769,35.921043 c -6.77104,-3.909281 -10.07224,-11.879041 -8.04864,-19.4312 1.21752,-4.543761 4.17984,-8.2547181 8.04952,-10.4901581 m 17.2772959,0.00264 c 3.86752,2.235688 6.8280001,5.9455241 8.0450401,10.4875241 2.0236,7.552159 -1.2776,15.521919 -8.0486401,19.4312"
       sodipodi:nodetypes="csccsc" />
  </g>
</svg>
