<?xml version="1.0" encoding="UTF-8" standalone="no"?>
<svg
   xmlns:dc="http://purl.org/dc/elements/1.1/"
   xmlns:cc="http://creativecommons.org/ns#"
   xmlns:rdf="http://www.w3.org/1999/02/22-rdf-syntax-ns#"
   xmlns:svg="http://www.w3.org/2000/svg"
   xmlns="http://www.w3.org/2000/svg"
   xmlns:sodipodi="http://sodipodi.sourceforge.net/DTD/sodipodi-0.dtd"
   xmlns:inkscape="http://www.inkscape.org/namespaces/inkscape"
   inkscape:export-ydpi="96"
   inkscape:export-xdpi="96"
   inkscape:export-filename="D:\Calcatz\Icon Pack\Adventure Narative Inspired by Arrival\GUI\Navigation Buttons\Playstation\Light\png\rstick_none.png"
   sodipodi:docname="rstick_none.svg"
   inkscape:version="1.0 (4035a4fb49, 2020-05-01)"
   id="svg2462"
   version="1.1"
   viewBox="0 0 8.4666662 8.4666662"
   height="31.999998"
   width="31.999998">
  <defs
     id="defs2456" />
  <sodipodi:namedview
     inkscape:window-maximized="1"
     inkscape:window-y="-8"
     inkscape:window-x="-8"
     inkscape:window-height="705"
     inkscape:window-width="1366"
     fit-margin-bottom="0"
     fit-margin-right="0"
     fit-margin-left="0"
     fit-margin-top="0"
     showgrid="false"
     inkscape:document-rotation="0"
     inkscape:current-layer="layer1"
     inkscape:document-units="mm"
     inkscape:cy="87.135166"
     inkscape:cx="245.0958"
     inkscape:zoom="0.87251276"
     inkscape:pageshadow="2"
     inkscape:pageopacity="0.0"
     borderopacity="1.0"
     bordercolor="#666666"
     pagecolor="#ffffff"
     id="base"
     units="px" />
  <metadata
     id="metadata2459">
    <rdf:RDF>
      <cc:Work
         rdf:about="">
        <dc:format>image/svg+xml</dc:format>
        <dc:type
           rdf:resource="http://purl.org/dc/dcmitype/StillImage" />
        <dc:title />
      </cc:Work>
    </rdf:RDF>
  </metadata>
  <g
     transform="translate(-36.766132,-119.55352)"
     id="layer1"
     inkscape:groupmode="layer"
     inkscape:label="Layer 1">
    <rect
       y="119.55352"
       x="36.766132"
       height="8.4666662"
       width="8.4666662"
       id="rect833"
       style="fill:#cccccc;fill-opacity:1;stroke-width:0.382468;stroke-linecap:round;paint-order:fill markers stroke" />
    <g
       style="font-weight:bold;font-size:2.64583px;line-height:1.05;font-family:'Overlock SC';-inkscape-font-specification:'Overlock SC Bold';text-align:end;text-anchor:end;fill:#1f2123;fill-opacity:1;stroke:#ffffff;stroke-width:0.905997;stroke-linecap:round;stroke-miterlimit:4;stroke-dasharray:none;stroke-opacity:1;paint-order:markers stroke fill"
       id="text4888"
       aria-label="R">
      <path
         id="path3052"
         style="font-size:2.64583px;fill:#1f2123;fill-opacity:1;stroke:none;stroke-width:0.905997"
         d="m 41.342113,124.44168 q 0.06879,0.0767 0.169333,0.0767 0.03175,0 0.07144,-0.008 0.02381,0.0476 0.02381,0.0794 0,0.10054 -0.198437,0.10054 -0.05027,0 -0.100542,-0.0238 -0.05027,-0.0238 -0.100541,-0.082 -0.05027,-0.0582 -0.08731,-0.10319 -0.0344,-0.045 -0.08731,-0.14023 -0.05027,-0.0952 -0.07144,-0.13494 -0.02117,-0.0423 -0.07144,-0.15081 -0.05027,-0.11112 -0.05821,-0.127 -0.07408,-0.0106 -0.07408,-0.0582 0,-0.0238 0.01323,-0.0714 0.07408,0.0132 0.124354,0.0132 0.17727,0 0.277812,-0.10319 0.100542,-0.10583 0.100542,-0.28575 0,-0.21167 -0.111125,-0.29369 -0.111125,-0.0847 -0.341312,-0.0847 -0.08467,0 -0.206375,0.0106 0.01058,0.15346 0.01058,0.53975 v 0.53181 q 0,0.35719 0.05027,0.52387 -0.04763,0.0212 -0.124354,0.0212 -0.07673,0 -0.103187,-0.0344 -0.02646,-0.0344 -0.02646,-0.11641 0,-0.0423 0.0026,-0.20902 0.0026,-0.16669 0.0026,-0.25929 v -0.52917 q 0,-0.36512 -0.0344,-0.60854 0.195792,-0.0318 0.394229,-0.0318 0.709082,0 0.709082,0.52652 0,0.21696 -0.119062,0.35189 -0.119062,0.1323 -0.314854,0.16934 0,0.003 0.04498,0.0979 0.04498,0.0952 0.06085,0.127 0.01852,0.0318 0.05556,0.10319 0.03704,0.0714 0.0635,0.11377 0.0291,0.0423 0.05556,0.0688 z" />
    </g>
    <path
       d="m 43.15879,123.78686 a 2.1593168,2.1593168 0 0 1 -2.159316,2.15931 2.1593168,2.1593168 0 0 1 -2.159317,-2.15931 2.1593168,2.1593168 0 0 1 2.159317,-2.15932 2.1593168,2.1593168 0 0 1 2.159316,2.15932"
       style="fill:none;fill-opacity:1;stroke:#8c8c8c;stroke-width:0.276;stroke-linecap:round;stroke-miterlimit:4;stroke-dasharray:none;stroke-dashoffset:0;stroke-opacity:1;paint-order:fill markers stroke"
       id="circle5440" />
    <rect
       inkscape:export-ydpi="96"
       inkscape:export-xdpi="96"
       inkscape:export-filename="D:\Calcatz\Icon Pack\Adventure Narative Inspired by Arrival\GUI\Navigation Buttons\Playstation\Light\png\64px\rstick_none.png"
       style="fill:#cccccc;fill-opacity:1;stroke-width:0.764936;stroke-linecap:round;paint-order:fill markers stroke"
       id="rect835"
       width="16.933332"
       height="16.933332"
       x="46.545715"
       y="119.55352" />
    <g
       transform="matrix(2,0,0,2,-26.986546,-119.55352)"
       aria-label="R"
       id="g839"
       style="font-weight:bold;font-size:2.64583px;line-height:1.05;font-family:'Overlock SC';-inkscape-font-specification:'Overlock SC Bold';text-align:end;text-anchor:end;fill:#1f2123;fill-opacity:1;stroke:#ffffff;stroke-width:0.905997;stroke-linecap:round;stroke-miterlimit:4;stroke-dasharray:none;stroke-opacity:1;paint-order:markers stroke fill">
      <path
         d="m 41.342113,124.44168 q 0.06879,0.0767 0.169333,0.0767 0.03175,0 0.07144,-0.008 0.02381,0.0476 0.02381,0.0794 0,0.10054 -0.198437,0.10054 -0.05027,0 -0.100542,-0.0238 -0.05027,-0.0238 -0.100541,-0.082 -0.05027,-0.0582 -0.08731,-0.10319 -0.0344,-0.045 -0.08731,-0.14023 -0.05027,-0.0952 -0.07144,-0.13494 -0.02117,-0.0423 -0.07144,-0.15081 -0.05027,-0.11112 -0.05821,-0.127 -0.07408,-0.0106 -0.07408,-0.0582 0,-0.0238 0.01323,-0.0714 0.07408,0.0132 0.124354,0.0132 0.17727,0 0.277812,-0.10319 0.100542,-0.10583 0.100542,-0.28575 0,-0.21167 -0.111125,-0.29369 -0.111125,-0.0847 -0.341312,-0.0847 -0.08467,0 -0.206375,0.0106 0.01058,0.15346 0.01058,0.53975 v 0.53181 q 0,0.35719 0.05027,0.52387 -0.04763,0.0212 -0.124354,0.0212 -0.07673,0 -0.103187,-0.0344 -0.02646,-0.0344 -0.02646,-0.11641 0,-0.0423 0.0026,-0.20902 0.0026,-0.16669 0.0026,-0.25929 v -0.52917 q 0,-0.36512 -0.0344,-0.60854 0.195792,-0.0318 0.394229,-0.0318 0.709082,0 0.709082,0.52652 0,0.21696 -0.119062,0.35189 -0.119062,0.1323 -0.314854,0.16934 0,0.003 0.04498,0.0979 0.04498,0.0952 0.06085,0.127 0.01852,0.0318 0.05556,0.10319 0.03704,0.0714 0.0635,0.11377 0.0291,0.0423 0.05556,0.0688 z"
         style="font-size:2.64583px;fill:#1f2123;fill-opacity:1;stroke:none;stroke-width:0.905997"
         id="path837" />
    </g>
    <path
       id="path841"
       style="fill:none;fill-opacity:1;stroke:#8c8c8c;stroke-width:0.552;stroke-linecap:round;stroke-miterlimit:4;stroke-dasharray:none;stroke-dashoffset:0;stroke-opacity:1;paint-order:fill markers stroke"
       d="m 59.331035,128.0202 a 4.3186336,4.3186336 0 0 1 -4.318632,4.31862 4.3186336,4.3186336 0 0 1 -4.318634,-4.31862 4.3186336,4.3186336 0 0 1 4.318634,-4.31864 4.3186336,4.3186336 0 0 1 4.318632,4.31864" />
    <rect
       inkscape:export-ydpi="96"
       inkscape:export-xdpi="96"
       inkscape:export-filename="D:\Calcatz\Icon Pack\Adventure Narative Inspired by Arrival\GUI\Navigation Buttons\Playstation\Light\png\128px\rstick_none.png"
       y="119.55352"
       x="67.01461"
       height="33.866665"
       width="33.866665"
       id="rect843"
       style="fill:#cccccc;fill-opacity:1;stroke-width:1.52987;stroke-linecap:round;paint-order:fill markers stroke" />
    <g
       style="font-weight:bold;font-size:2.64583px;line-height:1.05;font-family:'Overlock SC';-inkscape-font-specification:'Overlock SC Bold';text-align:end;text-anchor:end;fill:#1f2123;fill-opacity:1;stroke:#ffffff;stroke-width:0.905997;stroke-linecap:round;stroke-miterlimit:4;stroke-dasharray:none;stroke-opacity:1;paint-order:markers stroke fill"
       id="g847"
       aria-label="R"
       transform="matrix(4,0,0,4,-80.049905,-358.66056)">
      <path
         id="path845"
         style="font-size:2.64583px;fill:#1f2123;fill-opacity:1;stroke:none;stroke-width:0.905997"
         d="m 41.342113,124.44168 q 0.06879,0.0767 0.169333,0.0767 0.03175,0 0.07144,-0.008 0.02381,0.0476 0.02381,0.0794 0,0.10054 -0.198437,0.10054 -0.05027,0 -0.100542,-0.0238 -0.05027,-0.0238 -0.100541,-0.082 -0.05027,-0.0582 -0.08731,-0.10319 -0.0344,-0.045 -0.08731,-0.14023 -0.05027,-0.0952 -0.07144,-0.13494 -0.02117,-0.0423 -0.07144,-0.15081 -0.05027,-0.11112 -0.05821,-0.127 -0.07408,-0.0106 -0.07408,-0.0582 0,-0.0238 0.01323,-0.0714 0.07408,0.0132 0.124354,0.0132 0.17727,0 0.277812,-0.10319 0.100542,-0.10583 0.100542,-0.28575 0,-0.21167 -0.111125,-0.29369 -0.111125,-0.0847 -0.341312,-0.0847 -0.08467,0 -0.206375,0.0106 0.01058,0.15346 0.01058,0.53975 v 0.53181 q 0,0.35719 0.05027,0.52387 -0.04763,0.0212 -0.124354,0.0212 -0.07673,0 -0.103187,-0.0344 -0.02646,-0.0344 -0.02646,-0.11641 0,-0.0423 0.0026,-0.20902 0.0026,-0.16669 0.0026,-0.25929 v -0.52917 q 0,-0.36512 -0.0344,-0.60854 0.195792,-0.0318 0.394229,-0.0318 0.709082,0 0.709082,0.52652 0,0.21696 -0.119062,0.35189 -0.119062,0.1323 -0.314854,0.16934 0,0.003 0.04498,0.0979 0.04498,0.0952 0.06085,0.127 0.01852,0.0318 0.05556,0.10319 0.03704,0.0714 0.0635,0.11377 0.0291,0.0423 0.05556,0.0688 z" />
    </g>
    <path
       d="m 92.585256,136.48688 a 8.6372672,8.6372672 0 0 1 -8.637264,8.63724 8.6372672,8.6372672 0 0 1 -8.637268,-8.63724 8.6372672,8.6372672 0 0 1 8.637268,-8.63728 8.6372672,8.6372672 0 0 1 8.637264,8.63728"
       style="fill:none;fill-opacity:1;stroke:#8c8c8c;stroke-width:1.104;stroke-linecap:round;stroke-miterlimit:4;stroke-dasharray:none;stroke-dashoffset:0;stroke-opacity:1;paint-order:fill markers stroke"
       id="path849" />
    <rect
       inkscape:export-ydpi="96"
       inkscape:export-xdpi="96"
       inkscape:export-filename="D:\Calcatz\Icon Pack\Adventure Narative Inspired by Arrival\GUI\Navigation Buttons\Playstation\Light\png\256px\rstick_none.png"
       style="fill:#cccccc;fill-opacity:1;stroke-width:3.05974;stroke-linecap:round;paint-order:fill markers stroke"
       id="rect851"
       width="67.73333"
       height="67.73333"
       x="109.16538"
       y="119.55352" />
    <g
       transform="matrix(8,0,0,8,-184.96365,-836.87464)"
       aria-label="R"
       id="g855"
       style="font-weight:bold;font-size:2.64583px;line-height:1.05;font-family:'Overlock SC';-inkscape-font-specification:'Overlock SC Bold';text-align:end;text-anchor:end;fill:#1f2123;fill-opacity:1;stroke:#ffffff;stroke-width:0.905997;stroke-linecap:round;stroke-miterlimit:4;stroke-dasharray:none;stroke-opacity:1;paint-order:markers stroke fill">
      <path
         d="m 41.342113,124.44168 q 0.06879,0.0767 0.169333,0.0767 0.03175,0 0.07144,-0.008 0.02381,0.0476 0.02381,0.0794 0,0.10054 -0.198437,0.10054 -0.05027,0 -0.100542,-0.0238 -0.05027,-0.0238 -0.100541,-0.082 -0.05027,-0.0582 -0.08731,-0.10319 -0.0344,-0.045 -0.08731,-0.14023 -0.05027,-0.0952 -0.07144,-0.13494 -0.02117,-0.0423 -0.07144,-0.15081 -0.05027,-0.11112 -0.05821,-0.127 -0.07408,-0.0106 -0.07408,-0.0582 0,-0.0238 0.01323,-0.0714 0.07408,0.0132 0.124354,0.0132 0.17727,0 0.277812,-0.10319 0.100542,-0.10583 0.100542,-0.28575 0,-0.21167 -0.111125,-0.29369 -0.111125,-0.0847 -0.341312,-0.0847 -0.08467,0 -0.206375,0.0106 0.01058,0.15346 0.01058,0.53975 v 0.53181 q 0,0.35719 0.05027,0.52387 -0.04763,0.0212 -0.124354,0.0212 -0.07673,0 -0.103187,-0.0344 -0.02646,-0.0344 -0.02646,-0.11641 0,-0.0423 0.0026,-0.20902 0.0026,-0.16669 0.0026,-0.25929 v -0.52917 q 0,-0.36512 -0.0344,-0.60854 0.195792,-0.0318 0.394229,-0.0318 0.709082,0 0.709082,0.52652 0,0.21696 -0.119062,0.35189 -0.119062,0.1323 -0.314854,0.16934 0,0.003 0.04498,0.0979 0.04498,0.0952 0.06085,0.127 0.01852,0.0318 0.05556,0.10319 0.03704,0.0714 0.0635,0.11377 0.0291,0.0423 0.05556,0.0688 z"
         style="font-size:2.64583px;fill:#1f2123;fill-opacity:1;stroke:none;stroke-width:0.905997"
         id="path853" />
    </g>
    <path
       id="path857"
       style="fill:none;fill-opacity:1;stroke:#8c8c8c;stroke-width:2.208;stroke-linecap:round;stroke-miterlimit:4;stroke-dasharray:none;stroke-dashoffset:0;stroke-opacity:1;paint-order:fill markers stroke"
       d="m 160.30666,153.42024 a 17.274534,17.274534 0 0 1 -17.27452,17.27448 17.274534,17.274534 0 0 1 -17.27454,-17.27448 17.274534,17.274534 0 0 1 17.27454,-17.27456 17.274534,17.274534 0 0 1 17.27452,17.27456" />
  </g>
</svg>
