<?xml version="1.0" encoding="UTF-8" standalone="no"?>
<svg
   xmlns:dc="http://purl.org/dc/elements/1.1/"
   xmlns:cc="http://creativecommons.org/ns#"
   xmlns:rdf="http://www.w3.org/1999/02/22-rdf-syntax-ns#"
   xmlns:svg="http://www.w3.org/2000/svg"
   xmlns="http://www.w3.org/2000/svg"
   xmlns:sodipodi="http://sodipodi.sourceforge.net/DTD/sodipodi-0.dtd"
   xmlns:inkscape="http://www.inkscape.org/namespaces/inkscape"
   inkscape:export-ydpi="96"
   inkscape:export-xdpi="96"
   inkscape:export-filename="D:\Calcatz\Icon Pack\Adventure Narative Inspired by Arrival\GUI\Navigation Buttons\Playstation\Light\png\rstick_left.png"
   sodipodi:docname="rstick_left.svg"
   inkscape:version="1.0 (4035a4fb49, 2020-05-01)"
   id="svg4270"
   version="1.1"
   viewBox="0 0 8.4666662 8.4666662"
   height="31.999998"
   width="31.999998">
  <defs
     id="defs4264" />
  <sodipodi:namedview
     inkscape:window-maximized="1"
     inkscape:window-y="-8"
     inkscape:window-x="-8"
     inkscape:window-height="705"
     inkscape:window-width="1366"
     fit-margin-bottom="0"
     fit-margin-right="0"
     fit-margin-left="0"
     fit-margin-top="0"
     showgrid="false"
     inkscape:document-rotation="0"
     inkscape:current-layer="layer1"
     inkscape:document-units="mm"
     inkscape:cy="62.015791"
     inkscape:cx="144.98874"
     inkscape:zoom="0.87251276"
     inkscape:pageshadow="2"
     inkscape:pageopacity="0.0"
     borderopacity="1.0"
     bordercolor="#666666"
     pagecolor="#ffffff"
     id="base"
     units="px" />
  <metadata
     id="metadata4267">
    <rdf:RDF>
      <cc:Work
         rdf:about="">
        <dc:format>image/svg+xml</dc:format>
        <dc:type
           rdf:resource="http://purl.org/dc/dcmitype/StillImage" />
        <dc:title />
      </cc:Work>
    </rdf:RDF>
  </metadata>
  <g
     transform="translate(-101.59999,-143.93333)"
     id="layer1"
     inkscape:groupmode="layer"
     inkscape:label="Layer 1">
    <rect
       y="143.93333"
       x="101.59999"
       height="8.4666662"
       width="8.4666662"
       id="rect834"
       style="fill:#cccccc;fill-opacity:1;stroke-width:0.409694;stroke-linecap:round;paint-order:fill markers stroke" />
    <path
       d="m 104.17831,148.84022 v -0.65054 -0.65054 l -0.5536,0.32527 -0.55359,0.32527 0.55359,0.32527 z"
       inkscape:transform-center-y="-8.8886874e-06"
       inkscape:transform-center-x="0.18452804"
       style="fill:#1f2123;fill-opacity:1;stroke:none;stroke-width:0.276;stroke-linecap:round;stroke-miterlimit:4;stroke-dasharray:none;stroke-opacity:1;paint-order:markers stroke fill"
       id="path4906" />
    <path
       d="m 103.96332,147.08701 a 2.1593168,2.1593168 0 0 1 2.4289,-1.00608 2.1593168,2.1593168 0 0 1 1.60044,2.08574 2.1593168,2.1593168 0 0 1 -1.60044,2.08574 2.1593168,2.1593168 0 0 1 -2.4289,-1.00608"
       style="fill:none;fill-opacity:1;stroke:#8c8c8c;stroke-width:0.276;stroke-linecap:round;stroke-miterlimit:4;stroke-dasharray:none;stroke-dashoffset:0;stroke-opacity:1;paint-order:fill markers stroke"
       id="path5446" />
    <g
       style="font-weight:bold;font-size:2.64583px;line-height:1.05;font-family:'Overlock SC';-inkscape-font-specification:'Overlock SC Bold';text-align:end;text-anchor:end;fill:#1f2123;fill-opacity:1;stroke:#ffffff;stroke-width:0.905997;stroke-linecap:round;stroke-miterlimit:4;stroke-dasharray:none;stroke-opacity:1;paint-order:markers stroke fill"
       id="text4904"
       aria-label="R">
      <path
         id="path4863"
         style="font-size:2.64583px;fill:#1f2123;fill-opacity:1;stroke:none;stroke-width:0.905997"
         d="m 106.17598,148.8215 q 0.0688,0.0767 0.16933,0.0767 0.0318,0 0.0714,-0.008 0.0238,0.0476 0.0238,0.0794 0,0.10055 -0.19844,0.10055 -0.0503,0 -0.10054,-0.0238 -0.0503,-0.0238 -0.10054,-0.082 -0.0503,-0.0582 -0.0873,-0.10319 -0.0344,-0.045 -0.0873,-0.14022 -0.0503,-0.0952 -0.0714,-0.13494 -0.0212,-0.0423 -0.0714,-0.15081 -0.0503,-0.11113 -0.0582,-0.127 -0.0741,-0.0106 -0.0741,-0.0582 0,-0.0238 0.0132,-0.0714 0.0741,0.0132 0.12435,0.0132 0.17727,0 0.27781,-0.10319 0.10054,-0.10583 0.10054,-0.28575 0,-0.21166 -0.11112,-0.29368 -0.11113,-0.0847 -0.34131,-0.0847 -0.0847,0 -0.20638,0.0106 0.0106,0.15346 0.0106,0.53975 v 0.53181 q 0,0.35719 0.0503,0.52388 -0.0476,0.0212 -0.12436,0.0212 -0.0767,0 -0.10319,-0.0344 -0.0264,-0.0344 -0.0264,-0.11642 0,-0.0423 0.003,-0.20902 0.003,-0.16669 0.003,-0.25929 v -0.52917 q 0,-0.36512 -0.0344,-0.60854 0.19579,-0.0317 0.39423,-0.0317 0.70908,0 0.70908,0.52652 0,0.21696 -0.11906,0.3519 -0.11906,0.13229 -0.31485,0.16933 0,0.003 0.045,0.0979 0.045,0.0952 0.0609,0.127 0.0185,0.0317 0.0556,0.10318 0.037,0.0714 0.0635,0.11378 0.0291,0.0423 0.0556,0.0688 z" />
    </g>
    <rect
       inkscape:export-ydpi="96"
       inkscape:export-xdpi="96"
       inkscape:export-filename="D:\Calcatz\Icon Pack\Adventure Narative Inspired by Arrival\GUI\Navigation Buttons\Playstation\Light\png\64px\rstick_left.png"
       style="fill:#cccccc;fill-opacity:1;stroke-width:0.819388;stroke-linecap:round;paint-order:fill markers stroke"
       id="rect836"
       width="16.933332"
       height="16.933332"
       x="111.57076"
       y="143.93333" />
    <path
       id="path838"
       style="fill:#1f2123;fill-opacity:1;stroke:none;stroke-width:0.552;stroke-linecap:round;stroke-miterlimit:4;stroke-dasharray:none;stroke-opacity:1;paint-order:markers stroke fill"
       inkscape:transform-center-x="0.36905345"
       inkscape:transform-center-y="-1.3426789e-05"
       d="m 116.7274,153.74711 v -1.30108 -1.30108 l -1.1072,0.65054 -1.10718,0.65054 1.10718,0.65054 z" />
    <path
       id="path840"
       style="fill:none;fill-opacity:1;stroke:#8c8c8c;stroke-width:0.552;stroke-linecap:round;stroke-miterlimit:4;stroke-dasharray:none;stroke-dashoffset:0;stroke-opacity:1;paint-order:fill markers stroke"
       d="m 116.29742,150.24069 a 4.3186336,4.3186336 0 0 1 4.8578,-2.01216 4.3186336,4.3186336 0 0 1 3.20088,4.17148 4.3186336,4.3186336 0 0 1 -3.20088,4.17148 4.3186336,4.3186336 0 0 1 -4.8578,-2.01216" />
    <g
       transform="matrix(2,0,0,2,-91.629225,-143.93333)"
       aria-label="R"
       id="g844"
       style="font-weight:bold;font-size:2.64583px;line-height:1.05;font-family:'Overlock SC';-inkscape-font-specification:'Overlock SC Bold';text-align:end;text-anchor:end;fill:#1f2123;fill-opacity:1;stroke:#ffffff;stroke-width:0.905997;stroke-linecap:round;stroke-miterlimit:4;stroke-dasharray:none;stroke-opacity:1;paint-order:markers stroke fill">
      <path
         d="m 106.17598,148.8215 q 0.0688,0.0767 0.16933,0.0767 0.0318,0 0.0714,-0.008 0.0238,0.0476 0.0238,0.0794 0,0.10055 -0.19844,0.10055 -0.0503,0 -0.10054,-0.0238 -0.0503,-0.0238 -0.10054,-0.082 -0.0503,-0.0582 -0.0873,-0.10319 -0.0344,-0.045 -0.0873,-0.14022 -0.0503,-0.0952 -0.0714,-0.13494 -0.0212,-0.0423 -0.0714,-0.15081 -0.0503,-0.11113 -0.0582,-0.127 -0.0741,-0.0106 -0.0741,-0.0582 0,-0.0238 0.0132,-0.0714 0.0741,0.0132 0.12435,0.0132 0.17727,0 0.27781,-0.10319 0.10054,-0.10583 0.10054,-0.28575 0,-0.21166 -0.11112,-0.29368 -0.11113,-0.0847 -0.34131,-0.0847 -0.0847,0 -0.20638,0.0106 0.0106,0.15346 0.0106,0.53975 v 0.53181 q 0,0.35719 0.0503,0.52388 -0.0476,0.0212 -0.12436,0.0212 -0.0767,0 -0.10319,-0.0344 -0.0264,-0.0344 -0.0264,-0.11642 0,-0.0423 0.003,-0.20902 0.003,-0.16669 0.003,-0.25929 v -0.52917 q 0,-0.36512 -0.0344,-0.60854 0.19579,-0.0317 0.39423,-0.0317 0.70908,0 0.70908,0.52652 0,0.21696 -0.11906,0.3519 -0.11906,0.13229 -0.31485,0.16933 0,0.003 0.045,0.0979 0.045,0.0952 0.0609,0.127 0.0185,0.0317 0.0556,0.10318 0.037,0.0714 0.0635,0.11378 0.0291,0.0423 0.0556,0.0688 z"
         style="font-size:2.64583px;fill:#1f2123;fill-opacity:1;stroke:none;stroke-width:0.905997"
         id="path842" />
    </g>
    <rect
       inkscape:export-ydpi="96"
       inkscape:export-xdpi="96"
       inkscape:export-filename="D:\Calcatz\Icon Pack\Adventure Narative Inspired by Arrival\GUI\Navigation Buttons\Playstation\Light\png\128px\rstick_left.png"
       y="143.93333"
       x="132.26709"
       height="33.866665"
       width="33.866665"
       id="rect846"
       style="fill:#cccccc;fill-opacity:1;stroke-width:1.63878;stroke-linecap:round;paint-order:fill markers stroke" />
    <path
       d="m 142.58037,163.56089 v -2.60216 -2.60216 l -2.2144,1.30108 -2.21436,1.30108 2.21436,1.30108 z"
       inkscape:transform-center-y="-2.2502992e-05"
       inkscape:transform-center-x="0.73810706"
       style="fill:#1f2123;fill-opacity:1;stroke:none;stroke-width:1.104;stroke-linecap:round;stroke-miterlimit:4;stroke-dasharray:none;stroke-opacity:1;paint-order:markers stroke fill"
       id="path848" />
    <path
       d="m 141.72041,156.54805 a 8.6372672,8.6372672 0 0 1 9.7156,-4.02432 8.6372672,8.6372672 0 0 1 6.40176,8.34296 8.6372672,8.6372672 0 0 1 -6.40176,8.34296 8.6372672,8.6372672 0 0 1 -9.7156,-4.02432"
       style="fill:none;fill-opacity:1;stroke:#8c8c8c;stroke-width:1.104;stroke-linecap:round;stroke-miterlimit:4;stroke-dasharray:none;stroke-dashoffset:0;stroke-opacity:1;paint-order:fill markers stroke"
       id="path850" />
    <g
       style="font-weight:bold;font-size:2.64583px;line-height:1.05;font-family:'Overlock SC';-inkscape-font-specification:'Overlock SC Bold';text-align:end;text-anchor:end;fill:#1f2123;fill-opacity:1;stroke:#ffffff;stroke-width:0.905997;stroke-linecap:round;stroke-miterlimit:4;stroke-dasharray:none;stroke-opacity:1;paint-order:markers stroke fill"
       id="g854"
       aria-label="R"
       transform="matrix(4,0,0,4,-274.13288,-431.79999)">
      <path
         id="path852"
         style="font-size:2.64583px;fill:#1f2123;fill-opacity:1;stroke:none;stroke-width:0.905997"
         d="m 106.17598,148.8215 q 0.0688,0.0767 0.16933,0.0767 0.0318,0 0.0714,-0.008 0.0238,0.0476 0.0238,0.0794 0,0.10055 -0.19844,0.10055 -0.0503,0 -0.10054,-0.0238 -0.0503,-0.0238 -0.10054,-0.082 -0.0503,-0.0582 -0.0873,-0.10319 -0.0344,-0.045 -0.0873,-0.14022 -0.0503,-0.0952 -0.0714,-0.13494 -0.0212,-0.0423 -0.0714,-0.15081 -0.0503,-0.11113 -0.0582,-0.127 -0.0741,-0.0106 -0.0741,-0.0582 0,-0.0238 0.0132,-0.0714 0.0741,0.0132 0.12435,0.0132 0.17727,0 0.27781,-0.10319 0.10054,-0.10583 0.10054,-0.28575 0,-0.21166 -0.11112,-0.29368 -0.11113,-0.0847 -0.34131,-0.0847 -0.0847,0 -0.20638,0.0106 0.0106,0.15346 0.0106,0.53975 v 0.53181 q 0,0.35719 0.0503,0.52388 -0.0476,0.0212 -0.12436,0.0212 -0.0767,0 -0.10319,-0.0344 -0.0264,-0.0344 -0.0264,-0.11642 0,-0.0423 0.003,-0.20902 0.003,-0.16669 0.003,-0.25929 v -0.52917 q 0,-0.36512 -0.0344,-0.60854 0.19579,-0.0317 0.39423,-0.0317 0.70908,0 0.70908,0.52652 0,0.21696 -0.11906,0.3519 -0.11906,0.13229 -0.31485,0.16933 0,0.003 0.045,0.0979 0.045,0.0952 0.0609,0.127 0.0185,0.0317 0.0556,0.10318 0.037,0.0714 0.0635,0.11378 0.0291,0.0423 0.0556,0.0688 z" />
    </g>
    <rect
       inkscape:export-ydpi="96"
       inkscape:export-xdpi="96"
       inkscape:export-filename="D:\Calcatz\Icon Pack\Adventure Narative Inspired by Arrival\GUI\Navigation Buttons\Playstation\Light\png\256px\rstick_left.png"
       style="fill:#cccccc;fill-opacity:1;stroke-width:3.27756;stroke-linecap:round;paint-order:fill markers stroke"
       id="rect856"
       width="67.73333"
       height="67.73333"
       x="175.23105"
       y="143.93333" />
    <path
       id="path858"
       style="fill:#1f2123;fill-opacity:1;stroke:none;stroke-width:2.208;stroke-linecap:round;stroke-miterlimit:4;stroke-dasharray:none;stroke-opacity:1;paint-order:markers stroke fill"
       inkscape:transform-center-x="1.4762155"
       inkscape:transform-center-y="-4.0655398e-05"
       d="m 195.85761,183.18845 v -5.20432 -5.20432 l -4.4288,2.60216 -4.42872,2.60216 4.42872,2.60216 z" />
    <path
       id="path860"
       style="fill:none;fill-opacity:1;stroke:#8c8c8c;stroke-width:2.208;stroke-linecap:round;stroke-miterlimit:4;stroke-dasharray:none;stroke-dashoffset:0;stroke-opacity:1;paint-order:fill markers stroke"
       d="m 194.13769,169.16277 a 17.274534,17.274534 0 0 1 19.4312,-8.04864 17.274534,17.274534 0 0 1 12.80352,16.68592 17.274534,17.274534 0 0 1 -12.80352,16.68592 17.274534,17.274534 0 0 1 -19.4312,-8.04864" />
    <g
       transform="matrix(8,0,0,8,-637.56889,-1007.5333)"
       aria-label="R"
       id="g864"
       style="font-weight:bold;font-size:2.64583px;line-height:1.05;font-family:'Overlock SC';-inkscape-font-specification:'Overlock SC Bold';text-align:end;text-anchor:end;fill:#1f2123;fill-opacity:1;stroke:#ffffff;stroke-width:0.905997;stroke-linecap:round;stroke-miterlimit:4;stroke-dasharray:none;stroke-opacity:1;paint-order:markers stroke fill">
      <path
         d="m 106.17598,148.8215 q 0.0688,0.0767 0.16933,0.0767 0.0318,0 0.0714,-0.008 0.0238,0.0476 0.0238,0.0794 0,0.10055 -0.19844,0.10055 -0.0503,0 -0.10054,-0.0238 -0.0503,-0.0238 -0.10054,-0.082 -0.0503,-0.0582 -0.0873,-0.10319 -0.0344,-0.045 -0.0873,-0.14022 -0.0503,-0.0952 -0.0714,-0.13494 -0.0212,-0.0423 -0.0714,-0.15081 -0.0503,-0.11113 -0.0582,-0.127 -0.0741,-0.0106 -0.0741,-0.0582 0,-0.0238 0.0132,-0.0714 0.0741,0.0132 0.12435,0.0132 0.17727,0 0.27781,-0.10319 0.10054,-0.10583 0.10054,-0.28575 0,-0.21166 -0.11112,-0.29368 -0.11113,-0.0847 -0.34131,-0.0847 -0.0847,0 -0.20638,0.0106 0.0106,0.15346 0.0106,0.53975 v 0.53181 q 0,0.35719 0.0503,0.52388 -0.0476,0.0212 -0.12436,0.0212 -0.0767,0 -0.10319,-0.0344 -0.0264,-0.0344 -0.0264,-0.11642 0,-0.0423 0.003,-0.20902 0.003,-0.16669 0.003,-0.25929 v -0.52917 q 0,-0.36512 -0.0344,-0.60854 0.19579,-0.0317 0.39423,-0.0317 0.70908,0 0.70908,0.52652 0,0.21696 -0.11906,0.3519 -0.11906,0.13229 -0.31485,0.16933 0,0.003 0.045,0.0979 0.045,0.0952 0.0609,0.127 0.0185,0.0317 0.0556,0.10318 0.037,0.0714 0.0635,0.11378 0.0291,0.0423 0.0556,0.0688 z"
         style="font-size:2.64583px;fill:#1f2123;fill-opacity:1;stroke:none;stroke-width:0.905997"
         id="path862" />
    </g>
  </g>
</svg>
