<?xml version="1.0" encoding="UTF-8" standalone="no"?>
<svg
   xmlns:dc="http://purl.org/dc/elements/1.1/"
   xmlns:cc="http://creativecommons.org/ns#"
   xmlns:rdf="http://www.w3.org/1999/02/22-rdf-syntax-ns#"
   xmlns:svg="http://www.w3.org/2000/svg"
   xmlns="http://www.w3.org/2000/svg"
   xmlns:sodipodi="http://sodipodi.sourceforge.net/DTD/sodipodi-0.dtd"
   xmlns:inkscape="http://www.inkscape.org/namespaces/inkscape"
   inkscape:export-ydpi="96"
   inkscape:export-xdpi="96"
   inkscape:export-filename="D:\Calcatz\Icon Pack\Adventure Narative Inspired by Arrival\GUI\Navigation Buttons\Playstation\Light\png\share.png"
   sodipodi:docname="share.svg"
   inkscape:version="1.0 (4035a4fb49, 2020-05-01)"
   id="svg5524"
   version="1.1"
   viewBox="0 0 8.4666662 8.4666662"
   height="31.999998"
   width="31.999998">
  <defs
     id="defs5518" />
  <sodipodi:namedview
     inkscape:window-maximized="1"
     inkscape:window-y="-8"
     inkscape:window-x="-8"
     inkscape:window-height="705"
     inkscape:window-width="1366"
     fit-margin-bottom="0"
     fit-margin-right="0"
     fit-margin-left="0"
     fit-margin-top="0"
     showgrid="false"
     inkscape:document-rotation="0"
     inkscape:current-layer="layer1"
     inkscape:document-units="mm"
     inkscape:cy="120.83149"
     inkscape:cx="130.47768"
     inkscape:zoom="0.87251276"
     inkscape:pageshadow="2"
     inkscape:pageopacity="0.0"
     borderopacity="1.0"
     bordercolor="#666666"
     pagecolor="#ffffff"
     id="base"
     units="px" />
  <metadata
     id="metadata5521">
    <rdf:RDF>
      <cc:Work
         rdf:about="">
        <dc:format>image/svg+xml</dc:format>
        <dc:type
           rdf:resource="http://purl.org/dc/dcmitype/StillImage" />
        <dc:title />
      </cc:Work>
    </rdf:RDF>
  </metadata>
  <g
     transform="translate(-70.66954,-166.07214)"
     id="layer1"
     inkscape:groupmode="layer"
     inkscape:label="Layer 1">
    <rect
       y="166.07214"
       x="70.66954"
       height="8.4666662"
       width="8.4666662"
       id="rect833"
       style="fill:#cccccc;fill-opacity:1;stroke-width:0.394129;stroke-linecap:round;paint-order:fill markers stroke" />
    <path
       d="m 74.902881,168.47702 c 0.498699,0 0.90018,0.38115 0.90018,0.8546 v 1.94769 c 0,0.47345 -0.401481,0.85461 -0.90018,0.85461 -0.4987,0 -0.90018,-0.38116 -0.90018,-0.85461 v -1.94769 c 0,-0.47345 0.40148,-0.8546 0.90018,-0.8546 z"
       style="fill:none;fill-opacity:0.301961;stroke:#8c8c8c;stroke-width:0.276;stroke-linecap:round;stroke-miterlimit:4;stroke-dasharray:none;stroke-opacity:1;paint-order:markers stroke fill"
       id="rect5338" />
    <g
       style="font-weight:bold;font-size:1.85208px;line-height:1.05;font-family:'Overlock SC';-inkscape-font-specification:'Overlock SC Bold';text-align:end;text-anchor:end;fill:#1f2123;fill-opacity:1;stroke:none;stroke-width:0.276;stroke-linecap:round;stroke-miterlimit:4;stroke-dasharray:none;stroke-opacity:1;paint-order:markers stroke fill"
       id="text5342"
       aria-label="S">
      <path
         id="path6115"
         style="font-size:1.85208px;fill:#1f2123;fill-opacity:1;stroke-width:0.276"
         d="m 75.165878,169.93227 q -0.03149,-0.0611 -0.112977,-0.10001 -0.08149,-0.0407 -0.168539,-0.0407 -0.09446,0 -0.159279,0.0519 -0.06297,0.0519 -0.06297,0.15187 0,0.0759 0.0463,0.12594 0.04815,0.0481 0.118534,0.0685 0.07038,0.0185 0.153722,0.0463 0.08334,0.0278 0.153723,0.0574 0.07038,0.0296 0.116681,0.10186 0.04815,0.0722 0.04815,0.17966 0,0.0963 -0.03704,0.17039 -0.03704,0.0722 -0.100012,0.11297 -0.06297,0.0408 -0.137054,0.0611 -0.07223,0.0185 -0.153723,0.0185 -0.144462,0 -0.255587,-0.05 -0.109272,-0.0519 -0.109272,-0.12409 0,-0.0241 0.01482,-0.0426 0.01667,-0.0204 0.03149,-0.0296 0.01482,-0.009 0.04815,-0.0259 0.03519,0.0685 0.125941,0.11298 0.0926,0.0426 0.18706,0.0426 0.103717,0 0.1778,-0.0556 0.07408,-0.0574 0.07408,-0.16298 0,-0.0871 -0.06668,-0.13706 -0.06482,-0.0519 -0.159279,-0.0778 -0.0926,-0.0259 -0.18706,-0.0574 -0.0926,-0.0315 -0.159279,-0.10557 -0.06482,-0.0759 -0.06482,-0.20002 0,-0.17039 0.111124,-0.26114 0.112977,-0.0908 0.287073,-0.0908 0.127793,0 0.235214,0.0445 0.109273,0.0444 0.109273,0.12224 0,0.0741 -0.105569,0.0926 z" />
    </g>
    <rect
       inkscape:export-ydpi="96"
       inkscape:export-xdpi="96"
       inkscape:export-filename="D:\Calcatz\Icon Pack\Adventure Narative Inspired by Arrival\GUI\Navigation Buttons\Playstation\Light\png\64px\share.png"
       style="fill:#cccccc;fill-opacity:1;stroke-width:0.788258;stroke-linecap:round;paint-order:fill markers stroke"
       id="rect835"
       width="16.933332"
       height="16.933332"
       x="80.449127"
       y="166.07214" />
    <path
       id="path837"
       style="fill:none;fill-opacity:0.301961;stroke:#8c8c8c;stroke-width:0.552;stroke-linecap:round;stroke-miterlimit:4;stroke-dasharray:none;stroke-opacity:1;paint-order:markers stroke fill"
       d="m 88.915805,170.8819 c 0.997398,0 1.80036,0.7623 1.80036,1.7092 v 3.89538 c 0,0.9469 -0.802962,1.70922 -1.80036,1.70922 -0.9974,0 -1.80036,-0.76232 -1.80036,-1.70922 v -3.89538 c 0,-0.9469 0.80296,-1.7092 1.80036,-1.7092 z" />
    <g
       transform="matrix(2,0,0,2,-60.889958,-166.07214)"
       aria-label="S"
       id="g841"
       style="font-weight:bold;font-size:1.85208px;line-height:1.05;font-family:'Overlock SC';-inkscape-font-specification:'Overlock SC Bold';text-align:end;text-anchor:end;fill:#1f2123;fill-opacity:1;stroke:none;stroke-width:0.276;stroke-linecap:round;stroke-miterlimit:4;stroke-dasharray:none;stroke-opacity:1;paint-order:markers stroke fill">
      <path
         d="m 75.165878,169.93227 q -0.03149,-0.0611 -0.112977,-0.10001 -0.08149,-0.0407 -0.168539,-0.0407 -0.09446,0 -0.159279,0.0519 -0.06297,0.0519 -0.06297,0.15187 0,0.0759 0.0463,0.12594 0.04815,0.0481 0.118534,0.0685 0.07038,0.0185 0.153722,0.0463 0.08334,0.0278 0.153723,0.0574 0.07038,0.0296 0.116681,0.10186 0.04815,0.0722 0.04815,0.17966 0,0.0963 -0.03704,0.17039 -0.03704,0.0722 -0.100012,0.11297 -0.06297,0.0408 -0.137054,0.0611 -0.07223,0.0185 -0.153723,0.0185 -0.144462,0 -0.255587,-0.05 -0.109272,-0.0519 -0.109272,-0.12409 0,-0.0241 0.01482,-0.0426 0.01667,-0.0204 0.03149,-0.0296 0.01482,-0.009 0.04815,-0.0259 0.03519,0.0685 0.125941,0.11298 0.0926,0.0426 0.18706,0.0426 0.103717,0 0.1778,-0.0556 0.07408,-0.0574 0.07408,-0.16298 0,-0.0871 -0.06668,-0.13706 -0.06482,-0.0519 -0.159279,-0.0778 -0.0926,-0.0259 -0.18706,-0.0574 -0.0926,-0.0315 -0.159279,-0.10557 -0.06482,-0.0759 -0.06482,-0.20002 0,-0.17039 0.111124,-0.26114 0.112977,-0.0908 0.287073,-0.0908 0.127793,0 0.235214,0.0445 0.109273,0.0444 0.109273,0.12224 0,0.0741 -0.105569,0.0926 z"
         style="font-size:1.85208px;fill:#1f2123;fill-opacity:1;stroke-width:0.276"
         id="path839" />
    </g>
    <rect
       inkscape:export-ydpi="96"
       inkscape:export-xdpi="96"
       inkscape:export-filename="D:\Calcatz\Icon Pack\Adventure Narative Inspired by Arrival\GUI\Navigation Buttons\Playstation\Light\png\128px\share.png"
       y="166.07214"
       x="100.91802"
       height="33.866665"
       width="33.866665"
       id="rect843"
       style="fill:#cccccc;fill-opacity:1;stroke-width:1.57652;stroke-linecap:round;paint-order:fill markers stroke" />
    <path
       d="m 117.85138,175.69166 c 1.9948,0 3.60072,1.5246 3.60072,3.4184 v 7.79076 c 0,1.8938 -1.60592,3.41844 -3.60072,3.41844 -1.9948,0 -3.60072,-1.52464 -3.60072,-3.41844 v -7.79076 c 0,-1.8938 1.60592,-3.4184 3.60072,-3.4184 z"
       style="fill:none;fill-opacity:0.301961;stroke:#8c8c8c;stroke-width:1.104;stroke-linecap:round;stroke-miterlimit:4;stroke-dasharray:none;stroke-opacity:1;paint-order:markers stroke fill"
       id="path845" />
    <g
       style="font-weight:bold;font-size:1.85208px;line-height:1.05;font-family:'Overlock SC';-inkscape-font-specification:'Overlock SC Bold';text-align:end;text-anchor:end;fill:#1f2123;fill-opacity:1;stroke:none;stroke-width:0.276;stroke-linecap:round;stroke-miterlimit:4;stroke-dasharray:none;stroke-opacity:1;paint-order:markers stroke fill"
       id="g849"
       aria-label="S"
       transform="matrix(4,0,0,4,-181.76014,-498.21642)">
      <path
         id="path847"
         style="font-size:1.85208px;fill:#1f2123;fill-opacity:1;stroke-width:0.276"
         d="m 75.165878,169.93227 q -0.03149,-0.0611 -0.112977,-0.10001 -0.08149,-0.0407 -0.168539,-0.0407 -0.09446,0 -0.159279,0.0519 -0.06297,0.0519 -0.06297,0.15187 0,0.0759 0.0463,0.12594 0.04815,0.0481 0.118534,0.0685 0.07038,0.0185 0.153722,0.0463 0.08334,0.0278 0.153723,0.0574 0.07038,0.0296 0.116681,0.10186 0.04815,0.0722 0.04815,0.17966 0,0.0963 -0.03704,0.17039 -0.03704,0.0722 -0.100012,0.11297 -0.06297,0.0408 -0.137054,0.0611 -0.07223,0.0185 -0.153723,0.0185 -0.144462,0 -0.255587,-0.05 -0.109272,-0.0519 -0.109272,-0.12409 0,-0.0241 0.01482,-0.0426 0.01667,-0.0204 0.03149,-0.0296 0.01482,-0.009 0.04815,-0.0259 0.03519,0.0685 0.125941,0.11298 0.0926,0.0426 0.18706,0.0426 0.103717,0 0.1778,-0.0556 0.07408,-0.0574 0.07408,-0.16298 0,-0.0871 -0.06668,-0.13706 -0.06482,-0.0519 -0.159279,-0.0778 -0.0926,-0.0259 -0.18706,-0.0574 -0.0926,-0.0315 -0.159279,-0.10557 -0.06482,-0.0759 -0.06482,-0.20002 0,-0.17039 0.111124,-0.26114 0.112977,-0.0908 0.287073,-0.0908 0.127793,0 0.235214,0.0445 0.109273,0.0444 0.109273,0.12224 0,0.0741 -0.105569,0.0926 z" />
    </g>
    <rect
       inkscape:export-ydpi="96"
       inkscape:export-xdpi="96"
       inkscape:export-filename="D:\Calcatz\Icon Pack\Adventure Narative Inspired by Arrival\GUI\Navigation Buttons\Playstation\Light\png\256px\share.png"
       style="fill:#cccccc;fill-opacity:1;stroke-width:3.15304;stroke-linecap:round;paint-order:fill markers stroke"
       id="rect851"
       width="67.73333"
       height="67.73333"
       x="139.88474"
       y="166.07214" />
    <path
       id="path853"
       style="fill:none;fill-opacity:0.301961;stroke:#8c8c8c;stroke-width:2.208;stroke-linecap:round;stroke-miterlimit:4;stroke-dasharray:none;stroke-opacity:1;paint-order:markers stroke fill"
       d="m 173.75146,185.31118 c 3.9896,0 7.20144,3.0492 7.20144,6.8368 v 15.58152 c 0,3.7876 -3.21184,6.83688 -7.20144,6.83688 -3.9896,0 -7.20144,-3.04928 -7.20144,-6.83688 v -15.58152 c 0,-3.7876 3.21184,-6.8368 7.20144,-6.8368 z" />
    <g
       transform="matrix(8,0,0,8,-425.47158,-1162.505)"
       aria-label="S"
       id="g857"
       style="font-weight:bold;font-size:1.85208px;line-height:1.05;font-family:'Overlock SC';-inkscape-font-specification:'Overlock SC Bold';text-align:end;text-anchor:end;fill:#1f2123;fill-opacity:1;stroke:none;stroke-width:0.276;stroke-linecap:round;stroke-miterlimit:4;stroke-dasharray:none;stroke-opacity:1;paint-order:markers stroke fill">
      <path
         d="m 75.165878,169.93227 q -0.03149,-0.0611 -0.112977,-0.10001 -0.08149,-0.0407 -0.168539,-0.0407 -0.09446,0 -0.159279,0.0519 -0.06297,0.0519 -0.06297,0.15187 0,0.0759 0.0463,0.12594 0.04815,0.0481 0.118534,0.0685 0.07038,0.0185 0.153722,0.0463 0.08334,0.0278 0.153723,0.0574 0.07038,0.0296 0.116681,0.10186 0.04815,0.0722 0.04815,0.17966 0,0.0963 -0.03704,0.17039 -0.03704,0.0722 -0.100012,0.11297 -0.06297,0.0408 -0.137054,0.0611 -0.07223,0.0185 -0.153723,0.0185 -0.144462,0 -0.255587,-0.05 -0.109272,-0.0519 -0.109272,-0.12409 0,-0.0241 0.01482,-0.0426 0.01667,-0.0204 0.03149,-0.0296 0.01482,-0.009 0.04815,-0.0259 0.03519,0.0685 0.125941,0.11298 0.0926,0.0426 0.18706,0.0426 0.103717,0 0.1778,-0.0556 0.07408,-0.0574 0.07408,-0.16298 0,-0.0871 -0.06668,-0.13706 -0.06482,-0.0519 -0.159279,-0.0778 -0.0926,-0.0259 -0.18706,-0.0574 -0.0926,-0.0315 -0.159279,-0.10557 -0.06482,-0.0759 -0.06482,-0.20002 0,-0.17039 0.111124,-0.26114 0.112977,-0.0908 0.287073,-0.0908 0.127793,0 0.235214,0.0445 0.109273,0.0444 0.109273,0.12224 0,0.0741 -0.105569,0.0926 z"
         style="font-size:1.85208px;fill:#1f2123;fill-opacity:1;stroke-width:0.276"
         id="path855" />
    </g>
  </g>
</svg>
