<?xml version="1.0" encoding="UTF-8" standalone="no"?>
<svg
   xmlns:dc="http://purl.org/dc/elements/1.1/"
   xmlns:cc="http://creativecommons.org/ns#"
   xmlns:rdf="http://www.w3.org/1999/02/22-rdf-syntax-ns#"
   xmlns:svg="http://www.w3.org/2000/svg"
   xmlns="http://www.w3.org/2000/svg"
   xmlns:sodipodi="http://sodipodi.sourceforge.net/DTD/sodipodi-0.dtd"
   xmlns:inkscape="http://www.inkscape.org/namespaces/inkscape"
   inkscape:export-ydpi="96"
   inkscape:export-xdpi="96"
   inkscape:export-filename="D:\Calcatz\Icon Pack\Adventure Narative Inspired by Arrival\GUI\Navigation Buttons\Playstation\Light\png\touchpad.png"
   sodipodi:docname="touchpad.svg"
   inkscape:version="1.0 (4035a4fb49, 2020-05-01)"
   id="svg6718"
   version="1.1"
   viewBox="0 0 8.4666662 8.4666662"
   height="31.999998"
   width="31.999998">
  <defs
     id="defs6712" />
  <sodipodi:namedview
     inkscape:window-maximized="1"
     inkscape:window-y="-8"
     inkscape:window-x="-8"
     inkscape:window-height="705"
     inkscape:window-width="1366"
     fit-margin-bottom="0"
     fit-margin-right="0"
     fit-margin-left="0"
     fit-margin-top="0"
     showgrid="false"
     inkscape:document-rotation="0"
     inkscape:current-layer="layer1"
     inkscape:document-units="mm"
     inkscape:cy="111.93604"
     inkscape:cx="176.01554"
     inkscape:zoom="1.2339194"
     inkscape:pageshadow="2"
     inkscape:pageopacity="0.0"
     borderopacity="1.0"
     bordercolor="#666666"
     pagecolor="#ffffff"
     id="base"
     units="px" />
  <metadata
     id="metadata6715">
    <rdf:RDF>
      <cc:Work
         rdf:about="">
        <dc:format>image/svg+xml</dc:format>
        <dc:type
           rdf:resource="http://purl.org/dc/dcmitype/StillImage" />
        <dc:title />
      </cc:Work>
    </rdf:RDF>
  </metadata>
  <g
     transform="translate(-60.41967,-136.89944)"
     id="layer1"
     inkscape:groupmode="layer"
     inkscape:label="Layer 1">
    <rect
       y="136.89944"
       x="60.41967"
       height="8.4666662"
       width="8.4666662"
       id="rect834"
       style="fill:#cccccc;fill-opacity:1;stroke-width:0.628848;stroke-linecap:round;paint-order:fill markers stroke" />
    <path
       d="m 62.972641,140.0083 h 3.36074 c 0.168419,0 0.304005,0.13559 0.304005,0.30401 v 1.64094 c 0,0.16842 -0.135586,0.30401 -0.304005,0.30401 h -3.36074 c -0.168418,0 -0.304005,-0.13559 -0.304005,-0.30401 v -1.64094 c 0,-0.16842 0.135587,-0.30401 0.304005,-0.30401 z"
       style="fill:none;fill-opacity:1;stroke:#8c8c8c;stroke-width:0.276;stroke-linecap:round;stroke-miterlimit:4;stroke-dasharray:none;stroke-opacity:1;paint-order:markers stroke fill"
       id="rect7285" />
    <path
       id="path7334"
       d="m 63.251953,140.54688 a 0.0825,0.0825 0 0 0 -0.08203,0.082 0.0825,0.0825 0 0 0 0.08203,0.082 h 0.164063 a 0.0825,0.0825 0 0 0 0.08203,-0.082 0.0825,0.0825 0 0 0 -0.08203,-0.082 z m 0.824219,0 a 0.0825,0.0825 0 0 0 -0.08203,0.082 0.0825,0.0825 0 0 0 0.08203,0.082 h 0.166016 a 0.0825,0.0825 0 0 0 0.08203,-0.082 0.0825,0.0825 0 0 0 -0.08203,-0.082 z m 0.826172,0 a 0.0825,0.0825 0 0 0 -0.08398,0.082 0.0825,0.0825 0 0 0 0.08398,0.082 h 0.164062 a 0.0825,0.0825 0 0 0 0.08203,-0.082 0.0825,0.0825 0 0 0 -0.08203,-0.082 z m 0.824218,0 a 0.0825,0.0825 0 0 0 -0.08203,0.082 0.0825,0.0825 0 0 0 0.08203,0.082 h 0.164063 a 0.0825,0.0825 0 0 0 0.08398,-0.082 0.0825,0.0825 0 0 0 -0.08398,-0.082 z"
       style="color:#000000;font-style:normal;font-variant:normal;font-weight:normal;font-stretch:normal;font-size:medium;line-height:normal;font-family:sans-serif;font-variant-ligatures:normal;font-variant-position:normal;font-variant-caps:normal;font-variant-numeric:normal;font-variant-alternates:normal;font-variant-east-asian:normal;font-feature-settings:normal;font-variation-settings:normal;text-indent:0;text-align:start;text-decoration:none;text-decoration-line:none;text-decoration-style:solid;text-decoration-color:#000000;letter-spacing:normal;word-spacing:normal;text-transform:none;writing-mode:lr-tb;direction:ltr;text-orientation:mixed;dominant-baseline:auto;baseline-shift:baseline;text-anchor:start;white-space:normal;shape-padding:0;shape-margin:0;inline-size:0;clip-rule:nonzero;display:inline;overflow:visible;visibility:visible;isolation:auto;mix-blend-mode:normal;color-interpolation:sRGB;color-interpolation-filters:linearRGB;solid-color:#000000;solid-opacity:1;vector-effect:none;fill:#1f2123;fill-opacity:1;fill-rule:nonzero;stroke:none;stroke-width:0.165;stroke-linecap:round;stroke-linejoin:miter;stroke-miterlimit:4;stroke-dasharray:0.165, 0.66;stroke-dashoffset:0;stroke-opacity:1;color-rendering:auto;image-rendering:auto;shape-rendering:auto;text-rendering:auto;enable-background:accumulate;stop-color:#000000" />
    <path
       id="path7338"
       d="m 63.251953,141.05078 a 0.0825,0.0825 0 0 0 -0.08203,0.082 0.0825,0.0825 0 0 0 0.08203,0.082 h 0.164063 a 0.0825,0.0825 0 0 0 0.08203,-0.082 0.0825,0.0825 0 0 0 -0.08203,-0.082 z m 0.824219,0 a 0.0825,0.0825 0 0 0 -0.08203,0.082 0.0825,0.0825 0 0 0 0.08203,0.082 h 0.166016 a 0.0825,0.0825 0 0 0 0.08203,-0.082 0.0825,0.0825 0 0 0 -0.08203,-0.082 z m 0.826172,0 a 0.0825,0.0825 0 0 0 -0.08398,0.082 0.0825,0.0825 0 0 0 0.08398,0.082 h 0.164062 a 0.0825,0.0825 0 0 0 0.08203,-0.082 0.0825,0.0825 0 0 0 -0.08203,-0.082 z m 0.824218,0 a 0.0825,0.0825 0 0 0 -0.08203,0.082 0.0825,0.0825 0 0 0 0.08203,0.082 h 0.164063 a 0.0825,0.0825 0 0 0 0.08398,-0.082 0.0825,0.0825 0 0 0 -0.08398,-0.082 z"
       style="color:#000000;font-style:normal;font-variant:normal;font-weight:normal;font-stretch:normal;font-size:medium;line-height:normal;font-family:sans-serif;font-variant-ligatures:normal;font-variant-position:normal;font-variant-caps:normal;font-variant-numeric:normal;font-variant-alternates:normal;font-variant-east-asian:normal;font-feature-settings:normal;font-variation-settings:normal;text-indent:0;text-align:start;text-decoration:none;text-decoration-line:none;text-decoration-style:solid;text-decoration-color:#000000;letter-spacing:normal;word-spacing:normal;text-transform:none;writing-mode:lr-tb;direction:ltr;text-orientation:mixed;dominant-baseline:auto;baseline-shift:baseline;text-anchor:start;white-space:normal;shape-padding:0;shape-margin:0;inline-size:0;clip-rule:nonzero;display:inline;overflow:visible;visibility:visible;isolation:auto;mix-blend-mode:normal;color-interpolation:sRGB;color-interpolation-filters:linearRGB;solid-color:#000000;solid-opacity:1;vector-effect:none;fill:#1f2123;fill-opacity:1;fill-rule:nonzero;stroke:none;stroke-width:0.165;stroke-linecap:round;stroke-linejoin:miter;stroke-miterlimit:4;stroke-dasharray:0.165, 0.66;stroke-dashoffset:0;stroke-opacity:1;color-rendering:auto;image-rendering:auto;shape-rendering:auto;text-rendering:auto;enable-background:accumulate;stop-color:#000000" />
    <path
       id="path7342"
       d="m 63.251953,141.55469 a 0.0825,0.0825 0 0 0 -0.08203,0.082 0.0825,0.0825 0 0 0 0.08203,0.082 h 0.164063 a 0.0825,0.0825 0 0 0 0.08203,-0.082 0.0825,0.0825 0 0 0 -0.08203,-0.082 z m 0.824219,0 a 0.0825,0.0825 0 0 0 -0.08203,0.082 0.0825,0.0825 0 0 0 0.08203,0.082 h 0.166016 a 0.0825,0.0825 0 0 0 0.08203,-0.082 0.0825,0.0825 0 0 0 -0.08203,-0.082 z m 0.826172,0 a 0.0825,0.0825 0 0 0 -0.08398,0.082 0.0825,0.0825 0 0 0 0.08398,0.082 h 0.164062 a 0.0825,0.0825 0 0 0 0.08203,-0.082 0.0825,0.0825 0 0 0 -0.08203,-0.082 z m 0.824218,0 a 0.0825,0.0825 0 0 0 -0.08203,0.082 0.0825,0.0825 0 0 0 0.08203,0.082 h 0.164063 a 0.0825,0.0825 0 0 0 0.08398,-0.082 0.0825,0.0825 0 0 0 -0.08398,-0.082 z"
       style="color:#000000;font-style:normal;font-variant:normal;font-weight:normal;font-stretch:normal;font-size:medium;line-height:normal;font-family:sans-serif;font-variant-ligatures:normal;font-variant-position:normal;font-variant-caps:normal;font-variant-numeric:normal;font-variant-alternates:normal;font-variant-east-asian:normal;font-feature-settings:normal;font-variation-settings:normal;text-indent:0;text-align:start;text-decoration:none;text-decoration-line:none;text-decoration-style:solid;text-decoration-color:#000000;letter-spacing:normal;word-spacing:normal;text-transform:none;writing-mode:lr-tb;direction:ltr;text-orientation:mixed;dominant-baseline:auto;baseline-shift:baseline;text-anchor:start;white-space:normal;shape-padding:0;shape-margin:0;inline-size:0;clip-rule:nonzero;display:inline;overflow:visible;visibility:visible;isolation:auto;mix-blend-mode:normal;color-interpolation:sRGB;color-interpolation-filters:linearRGB;solid-color:#000000;solid-opacity:1;vector-effect:none;fill:#1f2123;fill-opacity:1;fill-rule:nonzero;stroke:none;stroke-width:0.165;stroke-linecap:round;stroke-linejoin:miter;stroke-miterlimit:4;stroke-dasharray:0.165, 0.66;stroke-dashoffset:0;stroke-opacity:1;color-rendering:auto;image-rendering:auto;shape-rendering:auto;text-rendering:auto;enable-background:accumulate;stop-color:#000000" />
    <rect
       inkscape:export-ydpi="96"
       inkscape:export-xdpi="96"
       inkscape:export-filename="D:\Calcatz\Icon Pack\Adventure Narative Inspired by Arrival\GUI\Navigation Buttons\Playstation\Light\png\64px\touchpad.png"
       style="fill:#cccccc;fill-opacity:1;stroke-width:1.2577;stroke-linecap:round;paint-order:fill markers stroke"
       id="rect836"
       width="16.933332"
       height="16.933332"
       x="70.229622"
       y="136.89944" />
    <path
       id="path838"
       style="fill:none;fill-opacity:1;stroke:#8c8c8c;stroke-width:0.552;stroke-linecap:round;stroke-miterlimit:4;stroke-dasharray:none;stroke-opacity:1;paint-order:markers stroke fill"
       d="m 75.33556,143.11716 h 6.72148 c 0.336838,0 0.60801,0.27118 0.60801,0.60802 v 3.28188 c 0,0.33684 -0.271172,0.60802 -0.60801,0.60802 h -6.72148 c -0.336836,0 -0.60801,-0.27118 -0.60801,-0.60802 v -3.28188 c 0,-0.33684 0.271174,-0.60802 0.60801,-0.60802 z" />
    <path
       style="color:#000000;font-style:normal;font-variant:normal;font-weight:normal;font-stretch:normal;font-size:medium;line-height:normal;font-family:sans-serif;font-variant-ligatures:normal;font-variant-position:normal;font-variant-caps:normal;font-variant-numeric:normal;font-variant-alternates:normal;font-variant-east-asian:normal;font-feature-settings:normal;font-variation-settings:normal;text-indent:0;text-align:start;text-decoration:none;text-decoration-line:none;text-decoration-style:solid;text-decoration-color:#000000;letter-spacing:normal;word-spacing:normal;text-transform:none;writing-mode:lr-tb;direction:ltr;text-orientation:mixed;dominant-baseline:auto;baseline-shift:baseline;text-anchor:start;white-space:normal;shape-padding:0;shape-margin:0;inline-size:0;clip-rule:nonzero;display:inline;overflow:visible;visibility:visible;isolation:auto;mix-blend-mode:normal;color-interpolation:sRGB;color-interpolation-filters:linearRGB;solid-color:#000000;solid-opacity:1;vector-effect:none;fill:#1f2123;fill-opacity:1;fill-rule:nonzero;stroke:none;stroke-width:0.33;stroke-linecap:round;stroke-linejoin:miter;stroke-miterlimit:4;stroke-dasharray:0.33, 1.32;stroke-dashoffset:0;stroke-opacity:1;color-rendering:auto;image-rendering:auto;shape-rendering:auto;text-rendering:auto;enable-background:accumulate;stop-color:#000000"
       d="m 75.894184,144.19432 a 0.165,0.165 0 0 0 -0.16406,0.164 0.165,0.165 0 0 0 0.16406,0.164 h 0.328126 a 0.165,0.165 0 0 0 0.16406,-0.164 0.165,0.165 0 0 0 -0.16406,-0.164 z m 1.648438,0 a 0.165,0.165 0 0 0 -0.16406,0.164 0.165,0.165 0 0 0 0.16406,0.164 h 0.332032 a 0.165,0.165 0 0 0 0.16406,-0.164 0.165,0.165 0 0 0 -0.16406,-0.164 z m 1.652344,0 a 0.165,0.165 0 0 0 -0.16796,0.164 0.165,0.165 0 0 0 0.16796,0.164 h 0.328124 a 0.165,0.165 0 0 0 0.16406,-0.164 0.165,0.165 0 0 0 -0.16406,-0.164 z m 1.648436,0 a 0.165,0.165 0 0 0 -0.16406,0.164 0.165,0.165 0 0 0 0.16406,0.164 h 0.328126 a 0.165,0.165 0 0 0 0.16796,-0.164 0.165,0.165 0 0 0 -0.16796,-0.164 z"
       id="path840" />
    <path
       style="color:#000000;font-style:normal;font-variant:normal;font-weight:normal;font-stretch:normal;font-size:medium;line-height:normal;font-family:sans-serif;font-variant-ligatures:normal;font-variant-position:normal;font-variant-caps:normal;font-variant-numeric:normal;font-variant-alternates:normal;font-variant-east-asian:normal;font-feature-settings:normal;font-variation-settings:normal;text-indent:0;text-align:start;text-decoration:none;text-decoration-line:none;text-decoration-style:solid;text-decoration-color:#000000;letter-spacing:normal;word-spacing:normal;text-transform:none;writing-mode:lr-tb;direction:ltr;text-orientation:mixed;dominant-baseline:auto;baseline-shift:baseline;text-anchor:start;white-space:normal;shape-padding:0;shape-margin:0;inline-size:0;clip-rule:nonzero;display:inline;overflow:visible;visibility:visible;isolation:auto;mix-blend-mode:normal;color-interpolation:sRGB;color-interpolation-filters:linearRGB;solid-color:#000000;solid-opacity:1;vector-effect:none;fill:#1f2123;fill-opacity:1;fill-rule:nonzero;stroke:none;stroke-width:0.33;stroke-linecap:round;stroke-linejoin:miter;stroke-miterlimit:4;stroke-dasharray:0.33, 1.32;stroke-dashoffset:0;stroke-opacity:1;color-rendering:auto;image-rendering:auto;shape-rendering:auto;text-rendering:auto;enable-background:accumulate;stop-color:#000000"
       d="m 75.894184,145.20212 a 0.165,0.165 0 0 0 -0.16406,0.164 0.165,0.165 0 0 0 0.16406,0.164 h 0.328126 a 0.165,0.165 0 0 0 0.16406,-0.164 0.165,0.165 0 0 0 -0.16406,-0.164 z m 1.648438,0 a 0.165,0.165 0 0 0 -0.16406,0.164 0.165,0.165 0 0 0 0.16406,0.164 h 0.332032 a 0.165,0.165 0 0 0 0.16406,-0.164 0.165,0.165 0 0 0 -0.16406,-0.164 z m 1.652344,0 a 0.165,0.165 0 0 0 -0.16796,0.164 0.165,0.165 0 0 0 0.16796,0.164 h 0.328124 a 0.165,0.165 0 0 0 0.16406,-0.164 0.165,0.165 0 0 0 -0.16406,-0.164 z m 1.648436,0 a 0.165,0.165 0 0 0 -0.16406,0.164 0.165,0.165 0 0 0 0.16406,0.164 h 0.328126 a 0.165,0.165 0 0 0 0.16796,-0.164 0.165,0.165 0 0 0 -0.16796,-0.164 z"
       id="path842" />
    <path
       style="color:#000000;font-style:normal;font-variant:normal;font-weight:normal;font-stretch:normal;font-size:medium;line-height:normal;font-family:sans-serif;font-variant-ligatures:normal;font-variant-position:normal;font-variant-caps:normal;font-variant-numeric:normal;font-variant-alternates:normal;font-variant-east-asian:normal;font-feature-settings:normal;font-variation-settings:normal;text-indent:0;text-align:start;text-decoration:none;text-decoration-line:none;text-decoration-style:solid;text-decoration-color:#000000;letter-spacing:normal;word-spacing:normal;text-transform:none;writing-mode:lr-tb;direction:ltr;text-orientation:mixed;dominant-baseline:auto;baseline-shift:baseline;text-anchor:start;white-space:normal;shape-padding:0;shape-margin:0;inline-size:0;clip-rule:nonzero;display:inline;overflow:visible;visibility:visible;isolation:auto;mix-blend-mode:normal;color-interpolation:sRGB;color-interpolation-filters:linearRGB;solid-color:#000000;solid-opacity:1;vector-effect:none;fill:#1f2123;fill-opacity:1;fill-rule:nonzero;stroke:none;stroke-width:0.33;stroke-linecap:round;stroke-linejoin:miter;stroke-miterlimit:4;stroke-dasharray:0.33, 1.32;stroke-dashoffset:0;stroke-opacity:1;color-rendering:auto;image-rendering:auto;shape-rendering:auto;text-rendering:auto;enable-background:accumulate;stop-color:#000000"
       d="m 75.894184,146.20994 a 0.165,0.165 0 0 0 -0.16406,0.164 0.165,0.165 0 0 0 0.16406,0.164 h 0.328126 a 0.165,0.165 0 0 0 0.16406,-0.164 0.165,0.165 0 0 0 -0.16406,-0.164 z m 1.648438,0 a 0.165,0.165 0 0 0 -0.16406,0.164 0.165,0.165 0 0 0 0.16406,0.164 h 0.332032 a 0.165,0.165 0 0 0 0.16406,-0.164 0.165,0.165 0 0 0 -0.16406,-0.164 z m 1.652344,0 a 0.165,0.165 0 0 0 -0.16796,0.164 0.165,0.165 0 0 0 0.16796,0.164 h 0.328124 a 0.165,0.165 0 0 0 0.16406,-0.164 0.165,0.165 0 0 0 -0.16406,-0.164 z m 1.648436,0 a 0.165,0.165 0 0 0 -0.16406,0.164 0.165,0.165 0 0 0 0.16406,0.164 h 0.328126 a 0.165,0.165 0 0 0 0.16796,-0.164 0.165,0.165 0 0 0 -0.16796,-0.164 z"
       id="path844" />
    <rect
       inkscape:export-ydpi="96"
       inkscape:export-xdpi="96"
       inkscape:export-filename="D:\Calcatz\Icon Pack\Adventure Narative Inspired by Arrival\GUI\Navigation Buttons\Playstation\Light\png\128px\touchpad.png"
       y="136.89944"
       x="88.221291"
       height="33.866665"
       width="33.866665"
       id="rect846"
       style="fill:#cccccc;fill-opacity:1;stroke-width:2.5154;stroke-linecap:round;paint-order:fill markers stroke" />
    <path
       d="m 98.433165,149.33488 h 13.442965 c 0.67368,0 1.21602,0.54236 1.21602,1.21604 v 6.56376 c 0,0.67368 -0.54234,1.21604 -1.21602,1.21604 H 98.433165 c -0.673672,0 -1.21602,-0.54236 -1.21602,-1.21604 v -6.56376 c 0,-0.67368 0.542348,-1.21604 1.21602,-1.21604 z"
       style="fill:none;fill-opacity:1;stroke:#8c8c8c;stroke-width:1.104;stroke-linecap:round;stroke-miterlimit:4;stroke-dasharray:none;stroke-opacity:1;paint-order:markers stroke fill"
       id="path848" />
    <path
       id="path850"
       d="m 99.550413,151.4892 a 0.33,0.33 0 0 0 -0.32812,0.328 0.33,0.33 0 0 0 0.32812,0.328 h 0.656257 a 0.33,0.33 0 0 0 0.32812,-0.328 0.33,0.33 0 0 0 -0.32812,-0.328 z m 3.296877,0 a 0.33,0.33 0 0 0 -0.32812,0.328 0.33,0.33 0 0 0 0.32812,0.328 h 0.66406 a 0.33,0.33 0 0 0 0.32812,-0.328 0.33,0.33 0 0 0 -0.32812,-0.328 z m 3.30469,0 a 0.33,0.33 0 0 0 -0.33592,0.328 0.33,0.33 0 0 0 0.33592,0.328 h 0.65625 a 0.33,0.33 0 0 0 0.32812,-0.328 0.33,0.33 0 0 0 -0.32812,-0.328 z m 3.29687,0 a 0.33,0.33 0 0 0 -0.32812,0.328 0.33,0.33 0 0 0 0.32812,0.328 h 0.65625 a 0.33,0.33 0 0 0 0.33592,-0.328 0.33,0.33 0 0 0 -0.33592,-0.328 z"
       style="color:#000000;font-style:normal;font-variant:normal;font-weight:normal;font-stretch:normal;font-size:medium;line-height:normal;font-family:sans-serif;font-variant-ligatures:normal;font-variant-position:normal;font-variant-caps:normal;font-variant-numeric:normal;font-variant-alternates:normal;font-variant-east-asian:normal;font-feature-settings:normal;font-variation-settings:normal;text-indent:0;text-align:start;text-decoration:none;text-decoration-line:none;text-decoration-style:solid;text-decoration-color:#000000;letter-spacing:normal;word-spacing:normal;text-transform:none;writing-mode:lr-tb;direction:ltr;text-orientation:mixed;dominant-baseline:auto;baseline-shift:baseline;text-anchor:start;white-space:normal;shape-padding:0;shape-margin:0;inline-size:0;clip-rule:nonzero;display:inline;overflow:visible;visibility:visible;isolation:auto;mix-blend-mode:normal;color-interpolation:sRGB;color-interpolation-filters:linearRGB;solid-color:#000000;solid-opacity:1;vector-effect:none;fill:#1f2123;fill-opacity:1;fill-rule:nonzero;stroke:none;stroke-width:0.66;stroke-linecap:round;stroke-linejoin:miter;stroke-miterlimit:4;stroke-dasharray:0.66, 2.64;stroke-dashoffset:0;stroke-opacity:1;color-rendering:auto;image-rendering:auto;shape-rendering:auto;text-rendering:auto;enable-background:accumulate;stop-color:#000000" />
    <path
       id="path852"
       d="m 99.550413,153.5048 a 0.33,0.33 0 0 0 -0.32812,0.328 0.33,0.33 0 0 0 0.32812,0.328 h 0.656257 a 0.33,0.33 0 0 0 0.32812,-0.328 0.33,0.33 0 0 0 -0.32812,-0.328 z m 3.296877,0 a 0.33,0.33 0 0 0 -0.32812,0.328 0.33,0.33 0 0 0 0.32812,0.328 h 0.66406 a 0.33,0.33 0 0 0 0.32812,-0.328 0.33,0.33 0 0 0 -0.32812,-0.328 z m 3.30469,0 a 0.33,0.33 0 0 0 -0.33592,0.328 0.33,0.33 0 0 0 0.33592,0.328 h 0.65625 a 0.33,0.33 0 0 0 0.32812,-0.328 0.33,0.33 0 0 0 -0.32812,-0.328 z m 3.29687,0 a 0.33,0.33 0 0 0 -0.32812,0.328 0.33,0.33 0 0 0 0.32812,0.328 h 0.65625 a 0.33,0.33 0 0 0 0.33592,-0.328 0.33,0.33 0 0 0 -0.33592,-0.328 z"
       style="color:#000000;font-style:normal;font-variant:normal;font-weight:normal;font-stretch:normal;font-size:medium;line-height:normal;font-family:sans-serif;font-variant-ligatures:normal;font-variant-position:normal;font-variant-caps:normal;font-variant-numeric:normal;font-variant-alternates:normal;font-variant-east-asian:normal;font-feature-settings:normal;font-variation-settings:normal;text-indent:0;text-align:start;text-decoration:none;text-decoration-line:none;text-decoration-style:solid;text-decoration-color:#000000;letter-spacing:normal;word-spacing:normal;text-transform:none;writing-mode:lr-tb;direction:ltr;text-orientation:mixed;dominant-baseline:auto;baseline-shift:baseline;text-anchor:start;white-space:normal;shape-padding:0;shape-margin:0;inline-size:0;clip-rule:nonzero;display:inline;overflow:visible;visibility:visible;isolation:auto;mix-blend-mode:normal;color-interpolation:sRGB;color-interpolation-filters:linearRGB;solid-color:#000000;solid-opacity:1;vector-effect:none;fill:#1f2123;fill-opacity:1;fill-rule:nonzero;stroke:none;stroke-width:0.66;stroke-linecap:round;stroke-linejoin:miter;stroke-miterlimit:4;stroke-dasharray:0.66, 2.64;stroke-dashoffset:0;stroke-opacity:1;color-rendering:auto;image-rendering:auto;shape-rendering:auto;text-rendering:auto;enable-background:accumulate;stop-color:#000000" />
    <path
       id="path854"
       d="m 99.550413,155.52044 a 0.33,0.33 0 0 0 -0.32812,0.328 0.33,0.33 0 0 0 0.32812,0.328 h 0.656257 a 0.33,0.33 0 0 0 0.32812,-0.328 0.33,0.33 0 0 0 -0.32812,-0.328 z m 3.296877,0 a 0.33,0.33 0 0 0 -0.32812,0.328 0.33,0.33 0 0 0 0.32812,0.328 h 0.66406 a 0.33,0.33 0 0 0 0.32812,-0.328 0.33,0.33 0 0 0 -0.32812,-0.328 z m 3.30469,0 a 0.33,0.33 0 0 0 -0.33592,0.328 0.33,0.33 0 0 0 0.33592,0.328 h 0.65625 a 0.33,0.33 0 0 0 0.32812,-0.328 0.33,0.33 0 0 0 -0.32812,-0.328 z m 3.29687,0 a 0.33,0.33 0 0 0 -0.32812,0.328 0.33,0.33 0 0 0 0.32812,0.328 h 0.65625 a 0.33,0.33 0 0 0 0.33592,-0.328 0.33,0.33 0 0 0 -0.33592,-0.328 z"
       style="color:#000000;font-style:normal;font-variant:normal;font-weight:normal;font-stretch:normal;font-size:medium;line-height:normal;font-family:sans-serif;font-variant-ligatures:normal;font-variant-position:normal;font-variant-caps:normal;font-variant-numeric:normal;font-variant-alternates:normal;font-variant-east-asian:normal;font-feature-settings:normal;font-variation-settings:normal;text-indent:0;text-align:start;text-decoration:none;text-decoration-line:none;text-decoration-style:solid;text-decoration-color:#000000;letter-spacing:normal;word-spacing:normal;text-transform:none;writing-mode:lr-tb;direction:ltr;text-orientation:mixed;dominant-baseline:auto;baseline-shift:baseline;text-anchor:start;white-space:normal;shape-padding:0;shape-margin:0;inline-size:0;clip-rule:nonzero;display:inline;overflow:visible;visibility:visible;isolation:auto;mix-blend-mode:normal;color-interpolation:sRGB;color-interpolation-filters:linearRGB;solid-color:#000000;solid-opacity:1;vector-effect:none;fill:#1f2123;fill-opacity:1;fill-rule:nonzero;stroke:none;stroke-width:0.66;stroke-linecap:round;stroke-linejoin:miter;stroke-miterlimit:4;stroke-dasharray:0.66, 2.64;stroke-dashoffset:0;stroke-opacity:1;color-rendering:auto;image-rendering:auto;shape-rendering:auto;text-rendering:auto;enable-background:accumulate;stop-color:#000000" />
    <rect
       inkscape:export-ydpi="96"
       inkscape:export-xdpi="96"
       inkscape:export-filename="D:\Calcatz\Icon Pack\Adventure Narative Inspired by Arrival\GUI\Navigation Buttons\Playstation\Light\png\256px\touchpad.png"
       style="fill:#cccccc;fill-opacity:1;stroke-width:5.0308;stroke-linecap:round;paint-order:fill markers stroke"
       id="rect856"
       width="67.73333"
       height="67.73333"
       x="124.88799"
       y="136.89944" />
    <path
       id="path858"
       style="fill:none;fill-opacity:1;stroke:#8c8c8c;stroke-width:2.208;stroke-linecap:round;stroke-miterlimit:4;stroke-dasharray:none;stroke-opacity:1;paint-order:markers stroke fill"
       d="m 145.31173,161.77032 h 26.88594 c 1.34736,0 2.43204,1.08472 2.43204,2.43208 v 13.12752 c 0,1.34736 -1.08468,2.43208 -2.43204,2.43208 h -26.88594 c -1.34734,0 -2.43204,-1.08472 -2.43204,-2.43208 V 164.2024 c 0,-1.34736 1.0847,-2.43208 2.43204,-2.43208 z" />
    <path
       style="color:#000000;font-style:normal;font-variant:normal;font-weight:normal;font-stretch:normal;font-size:medium;line-height:normal;font-family:sans-serif;font-variant-ligatures:normal;font-variant-position:normal;font-variant-caps:normal;font-variant-numeric:normal;font-variant-alternates:normal;font-variant-east-asian:normal;font-feature-settings:normal;font-variation-settings:normal;text-indent:0;text-align:start;text-decoration:none;text-decoration-line:none;text-decoration-style:solid;text-decoration-color:#000000;letter-spacing:normal;word-spacing:normal;text-transform:none;writing-mode:lr-tb;direction:ltr;text-orientation:mixed;dominant-baseline:auto;baseline-shift:baseline;text-anchor:start;white-space:normal;shape-padding:0;shape-margin:0;inline-size:0;clip-rule:nonzero;display:inline;overflow:visible;visibility:visible;isolation:auto;mix-blend-mode:normal;color-interpolation:sRGB;color-interpolation-filters:linearRGB;solid-color:#000000;solid-opacity:1;vector-effect:none;fill:#1f2123;fill-opacity:1;fill-rule:nonzero;stroke:none;stroke-width:1.32;stroke-linecap:round;stroke-linejoin:miter;stroke-miterlimit:4;stroke-dasharray:1.32, 5.28;stroke-dashoffset:0;stroke-opacity:1;color-rendering:auto;image-rendering:auto;shape-rendering:auto;text-rendering:auto;enable-background:accumulate;stop-color:#000000"
       d="m 147.54623,166.07896 a 0.66,0.66 0 0 0 -0.65624,0.656 0.66,0.66 0 0 0 0.65624,0.656 h 1.31252 a 0.66,0.66 0 0 0 0.65624,-0.656 0.66,0.66 0 0 0 -0.65624,-0.656 z m 6.59376,0 a 0.66,0.66 0 0 0 -0.65624,0.656 0.66,0.66 0 0 0 0.65624,0.656 h 1.32812 a 0.66,0.66 0 0 0 0.65624,-0.656 0.66,0.66 0 0 0 -0.65624,-0.656 z m 6.60938,0 a 0.66,0.66 0 0 0 -0.67184,0.656 0.66,0.66 0 0 0 0.67184,0.656 h 1.3125 a 0.66,0.66 0 0 0 0.65624,-0.656 0.66,0.66 0 0 0 -0.65624,-0.656 z m 6.59374,0 a 0.66,0.66 0 0 0 -0.65624,0.656 0.66,0.66 0 0 0 0.65624,0.656 h 1.3125 a 0.66,0.66 0 0 0 0.67184,-0.656 0.66,0.66 0 0 0 -0.67184,-0.656 z"
       id="path860" />
    <path
       style="color:#000000;font-style:normal;font-variant:normal;font-weight:normal;font-stretch:normal;font-size:medium;line-height:normal;font-family:sans-serif;font-variant-ligatures:normal;font-variant-position:normal;font-variant-caps:normal;font-variant-numeric:normal;font-variant-alternates:normal;font-variant-east-asian:normal;font-feature-settings:normal;font-variation-settings:normal;text-indent:0;text-align:start;text-decoration:none;text-decoration-line:none;text-decoration-style:solid;text-decoration-color:#000000;letter-spacing:normal;word-spacing:normal;text-transform:none;writing-mode:lr-tb;direction:ltr;text-orientation:mixed;dominant-baseline:auto;baseline-shift:baseline;text-anchor:start;white-space:normal;shape-padding:0;shape-margin:0;inline-size:0;clip-rule:nonzero;display:inline;overflow:visible;visibility:visible;isolation:auto;mix-blend-mode:normal;color-interpolation:sRGB;color-interpolation-filters:linearRGB;solid-color:#000000;solid-opacity:1;vector-effect:none;fill:#1f2123;fill-opacity:1;fill-rule:nonzero;stroke:none;stroke-width:1.32;stroke-linecap:round;stroke-linejoin:miter;stroke-miterlimit:4;stroke-dasharray:1.32, 5.28;stroke-dashoffset:0;stroke-opacity:1;color-rendering:auto;image-rendering:auto;shape-rendering:auto;text-rendering:auto;enable-background:accumulate;stop-color:#000000"
       d="m 147.54623,170.11016 a 0.66,0.66 0 0 0 -0.65624,0.656 0.66,0.66 0 0 0 0.65624,0.656 h 1.31252 a 0.66,0.66 0 0 0 0.65624,-0.656 0.66,0.66 0 0 0 -0.65624,-0.656 z m 6.59376,0 a 0.66,0.66 0 0 0 -0.65624,0.656 0.66,0.66 0 0 0 0.65624,0.656 h 1.32812 a 0.66,0.66 0 0 0 0.65624,-0.656 0.66,0.66 0 0 0 -0.65624,-0.656 z m 6.60938,0 a 0.66,0.66 0 0 0 -0.67184,0.656 0.66,0.66 0 0 0 0.67184,0.656 h 1.3125 a 0.66,0.66 0 0 0 0.65624,-0.656 0.66,0.66 0 0 0 -0.65624,-0.656 z m 6.59374,0 a 0.66,0.66 0 0 0 -0.65624,0.656 0.66,0.66 0 0 0 0.65624,0.656 h 1.3125 a 0.66,0.66 0 0 0 0.67184,-0.656 0.66,0.66 0 0 0 -0.67184,-0.656 z"
       id="path862" />
    <path
       style="color:#000000;font-style:normal;font-variant:normal;font-weight:normal;font-stretch:normal;font-size:medium;line-height:normal;font-family:sans-serif;font-variant-ligatures:normal;font-variant-position:normal;font-variant-caps:normal;font-variant-numeric:normal;font-variant-alternates:normal;font-variant-east-asian:normal;font-feature-settings:normal;font-variation-settings:normal;text-indent:0;text-align:start;text-decoration:none;text-decoration-line:none;text-decoration-style:solid;text-decoration-color:#000000;letter-spacing:normal;word-spacing:normal;text-transform:none;writing-mode:lr-tb;direction:ltr;text-orientation:mixed;dominant-baseline:auto;baseline-shift:baseline;text-anchor:start;white-space:normal;shape-padding:0;shape-margin:0;inline-size:0;clip-rule:nonzero;display:inline;overflow:visible;visibility:visible;isolation:auto;mix-blend-mode:normal;color-interpolation:sRGB;color-interpolation-filters:linearRGB;solid-color:#000000;solid-opacity:1;vector-effect:none;fill:#1f2123;fill-opacity:1;fill-rule:nonzero;stroke:none;stroke-width:1.32;stroke-linecap:round;stroke-linejoin:miter;stroke-miterlimit:4;stroke-dasharray:1.32, 5.28;stroke-dashoffset:0;stroke-opacity:1;color-rendering:auto;image-rendering:auto;shape-rendering:auto;text-rendering:auto;enable-background:accumulate;stop-color:#000000"
       d="m 147.54623,174.14144 a 0.66,0.66 0 0 0 -0.65624,0.656 0.66,0.66 0 0 0 0.65624,0.656 h 1.31252 a 0.66,0.66 0 0 0 0.65624,-0.656 0.66,0.66 0 0 0 -0.65624,-0.656 z m 6.59376,0 a 0.66,0.66 0 0 0 -0.65624,0.656 0.66,0.66 0 0 0 0.65624,0.656 h 1.32812 a 0.66,0.66 0 0 0 0.65624,-0.656 0.66,0.66 0 0 0 -0.65624,-0.656 z m 6.60938,0 a 0.66,0.66 0 0 0 -0.67184,0.656 0.66,0.66 0 0 0 0.67184,0.656 h 1.3125 a 0.66,0.66 0 0 0 0.65624,-0.656 0.66,0.66 0 0 0 -0.65624,-0.656 z m 6.59374,0 a 0.66,0.66 0 0 0 -0.65624,0.656 0.66,0.66 0 0 0 0.65624,0.656 h 1.3125 a 0.66,0.66 0 0 0 0.67184,-0.656 0.66,0.66 0 0 0 -0.67184,-0.656 z"
       id="path864" />
  </g>
</svg>
