<?xml version="1.0" encoding="UTF-8" standalone="no"?>
<svg
   xmlns:dc="http://purl.org/dc/elements/1.1/"
   xmlns:cc="http://creativecommons.org/ns#"
   xmlns:rdf="http://www.w3.org/1999/02/22-rdf-syntax-ns#"
   xmlns:svg="http://www.w3.org/2000/svg"
   xmlns="http://www.w3.org/2000/svg"
   xmlns:sodipodi="http://sodipodi.sourceforge.net/DTD/sodipodi-0.dtd"
   xmlns:inkscape="http://www.inkscape.org/namespaces/inkscape"
   inkscape:export-ydpi="96"
   inkscape:export-xdpi="96"
   inkscape:export-filename="D:\Calcatz\Icon Pack\Adventure Narative Inspired by Arrival\GUI\Alert Box\png\alert_box - background_detail_6.png"
   sodipodi:docname="alert_box - background_detail_6.svg"
   inkscape:version="1.0 (4035a4fb49, 2020-05-01)"
   id="svg3976"
   version="1.1"
   viewBox="0 0 7.737257 7.2772551"
   height="7.2772551mm"
   width="7.737257mm">
  <defs
     id="defs3970" />
  <sodipodi:namedview
     inkscape:window-maximized="1"
     inkscape:window-y="-8"
     inkscape:window-x="-8"
     inkscape:window-height="705"
     inkscape:window-width="1366"
     fit-margin-bottom="0"
     fit-margin-right="0"
     fit-margin-left="0"
     fit-margin-top="0"
     showgrid="false"
     inkscape:document-rotation="0"
     inkscape:current-layer="layer1"
     inkscape:document-units="mm"
     inkscape:cy="15.772913"
     inkscape:cx="11.010855"
     inkscape:zoom="7.593161"
     inkscape:pageshadow="2"
     inkscape:pageopacity="0.0"
     borderopacity="1.0"
     bordercolor="#666666"
     pagecolor="#ffffff"
     id="base" />
  <metadata
     id="metadata3973">
    <rdf:RDF>
      <cc:Work
         rdf:about="">
        <dc:format>image/svg+xml</dc:format>
        <dc:type
           rdf:resource="http://purl.org/dc/dcmitype/StillImage" />
        <dc:title></dc:title>
      </cc:Work>
    </rdf:RDF>
  </metadata>
  <g
     transform="translate(-101.9647,-144.52804)"
     id="layer1"
     inkscape:groupmode="layer"
     inkscape:label="Layer 1">
    <path
       d="m 109.68056,146.74242 c 0.01,0.0644 -0.024,0.13258 -0.099,0.18406 -0.1333,0.07 -0.2728,0.12901 -0.3997,0.20993 -0.185,0.11802 -0.3669,0.24288 -0.5339,0.38536 -0.103,0.0879 -0.2006,0.18195 -0.2944,0.27979 -0.069,0.0912 -0.1354,0.20836 -0.2,0.3403 0.08,-0.007 0.1591,-0.0246 0.2389,-0.0336 0.4852,-0.0549 0.1933,-0.005 0.6046,-0.0873 0.068,-0.009 0.081,0.0875 0.013,0.0964 -0.086,0.0137 -0.1725,0.0295 -0.2593,0.041 -0.1153,0.0152 -0.2313,0.0246 -0.3467,0.0394 -0.1543,0.0197 -0.2269,0.0312 -0.2977,0.0443 -0.1282,0.27849 -0.2457,0.59733 -0.3475,0.85309 0.1669,-0.0936 0.2757,-0.16324 0.4668,-0.28092 0.021,-0.0149 0.042,0.0146 0.021,0.0298 -0.087,0.0787 -0.1714,0.16145 -0.2622,0.2362 -0.1904,0.15667 -0.2066,0.15849 -0.3119,0.22124 -0.032,0.0728 -0.063,0.13637 -0.09,0.1804 -0.1285,0.20626 -0.2157,0.30824 -0.3098,0.40182 0.068,-0.0185 0.1358,-0.0352 0.2029,-0.0556 -0.026,-0.0276 -0.032,-0.0749 0.012,-0.10677 0.1149,-0.067 0.2393,-0.11969 0.3447,-0.20101 0.2927,-0.22601 0.442,-0.421 0.6745,-0.68964 0.015,-0.0179 0.041,0.004 0.026,0.0219 -0.093,0.10325 -0.1807,0.21118 -0.2786,0.30966 -1.241,1.24903 0.1093,-0.1642 -0.6238,0.6083 0.1459,-0.0583 0.2543,-0.10708 0.3463,-0.15718 -0.1306,0.0807 -0.2585,0.16636 -0.3919,0.24263 -0.1016,0.0581 -0.2093,0.10462 -0.3132,0.15858 -0.066,0.0343 -0.1283,0.0762 -0.1964,0.10614 -0.02,0.009 -0.041,0.0134 -0.063,0.0173 -0.016,0.0158 -0.03,0.0298 -0.047,0.0474 -0.2186,0.23015 -0.7872,1.06367 -0.8648,1.53757 -0.02,0.12544 -0.5044,0.0929 -0.5115,0 -0.046,-0.60489 -0.4883,-1.30484 -0.847,-1.5393 -0.2608,-0.17043 -0.4953,-0.18809 -0.8183,-0.12844 -0.069,0.024 -0.1363,0.0527 -0.2003,0.0906 -0.086,0.051 -0.2555,0.22148 -0.3345,0.29805 -0.1678,0.15744 -0.3904,-0.0798 -0.2227,-0.23728 0.061,-0.0547 0.1167,-0.11598 0.1829,-0.16409 0.074,-0.0535 0.1738,-0.11321 0.2767,-0.16645 -0.01,0 -0.01,0 -0.01,-0.003 -0.086,0.0219 -0.171,0.0474 -0.2497,0.0749 -0.085,0.0298 -0.1662,0.071 -0.2507,0.10284 -0.2918,0.10991 -0.079,0.008 -0.2809,0.11086 -0.019,0.011 -0.038,0.0215 -0.057,0.0325 -0.1361,0.036 -0.187,-0.15635 -0.051,-0.19234 0.024,0 0.047,-3e-5 0.071,0 0.034,-0.004 0.067,-0.008 0.1009,-0.0122 0.062,-0.007 0.1257,-0.006 0.1863,-0.0219 0.088,-0.0228 0.1714,-0.061 0.2569,-0.0925 0.035,-0.0128 0.07,-0.0261 0.1047,-0.0394 -0.04,-0.009 -0.062,-0.0143 -0.1179,-0.0267 -0.1267,-0.0283 -0.2508,-0.0711 -0.3796,-0.0867 -0.2473,-0.0298 -0.2149,-0.0371 -0.3327,0.048 -0.3552,0.0694 -0.4534,-0.43294 -0.098,-0.50235 0.058,-0.004 0.11601,-0.0149 0.1741,-0.0116 0.349,0.0203 0.34401,0.0625 0.7111,0.12862 0.1055,0.0188 0.18591,0.0323 0.2544,0.0419 -0.12189,-0.0686 -0.23759,-0.13528 -0.4282,-0.26175 0.1377,0.082 0.28341,0.14339 0.4327,0.19457 -0.01,-0.11523 0,-0.23504 0.01,-0.35881 -0.104,-0.11826 -0.2319,-0.26244 -0.3133,-0.37812 -0.073,-0.10444 -0.1393,-0.21404 -0.2024,-0.32504 -0.069,-0.12097 -0.1283,-0.24683 -0.19249,-0.37026 -0.01,-0.017 0.016,-0.0283 0.024,-0.0113 0.062,0.12297 0.1137,0.25138 0.1855,0.36882 0.065,0.10666 0.1385,0.20976 0.2239,0.30104 0.064,0.068 0.178,0.15211 0.2845,0.22832 0,-0.0637 0.01,-0.12808 0.01,-0.19332 v -1.5e-4 c 0,-0.0311 -0.01,-0.0656 -0.01,-0.10176 -0.029,0.0149 -0.067,0.0134 -0.1,-0.0194 -0.044,-0.066 -0.093,-0.12944 -0.1334,-0.19815 -0.092,-0.15821 -0.17961,-0.31968 -0.26461,-0.48207 -0.02,-0.0369 -0.033,-0.0646 -0.051,-0.0988 0.02,0.0329 0.039,0.0658 0.057,0.0945 0.096,0.14919 0.21321,0.28444 0.3321,0.4161 0.04,0.0447 0.089,0.0802 0.1373,0.11699 -0.024,-0.15579 -0.06,-0.33312 -0.096,-0.51896 -0.071,-0.36309 -0.179,-0.79038 -0.28959,-1.28713 -0.037,-0.13871 -0.073,-0.27773 -0.12621,-0.41049 -0.087,-0.21641 -0.2166,-0.41373 -0.3125,-0.62653 -0.1085,-0.24059 -0.2002,-0.48845 -0.3002,-0.73267 -0.09,-0.22461 0.228,-0.35132 0.3176,-0.12671 0.09,0.24598 0.1699,0.49554 0.2685,0.73802 0.1144,0.28131 0.2594,0.59037 0.4216,0.86913 0.026,-0.21179 0.029,-0.58654 0.038,-0.77867 0.01,-0.1626 0.019,-0.32495 0.029,-0.48743 0,-0.003 0.01,-0.003 0.01,0 0,0.16248 0.01,0.32495 0.01,0.48743 0.01,0.15147 0,0.30313 0.01,0.45442 0.01,0.1145 0.013,0.18265 0.022,0.24385 0.03,0.0249 0.07,0.0423 0.111,0.0449 -0.019,-0.131 -0.026,-0.26406 -0.037,-0.39602 -0.023,-0.28809 -0.031,-0.37764 -0.023,-0.47688 0.01,0.15882 0.015,0.31783 0.027,0.47642 0.01,0.13257 0.028,0.2646 0.041,0.39697 0.03,2.6e-4 0.061,-0.007 0.089,-0.0267 0.04,-0.0289 0.084,-0.0556 0.1316,-0.0828 0.024,-0.10252 0.027,-0.11489 0.085,-0.41 0.01,-0.067 0.1041,-0.0536 0.095,0.0134 -0.013,0.20936 -0.017,0.26493 -0.02,0.31015 0.012,-0.006 0.022,-0.0119 0.035,-0.0185 0.2597,-0.13534 1.1008,-0.48381 1.1593,-1.007 0.016,-0.14959 0.5181,-0.27356 0.5535,-0.16849 0.1813,0.53762 0.4832,0.97895 0.8745,1.22149 0.054,0.0336 0.098,0.056 0.1344,0.0719 0.027,0.003 0.055,0.005 0.083,0.003 0.065,-0.006 0.1295,-0.0182 0.1936,-0.0315 0.034,-0.0449 0.075,-0.10513 0.1674,-0.25406 0.063,-0.10234 0.1155,-0.211 0.1733,-0.31656 0.01,-0.0116 0.023,-0.003 0.016,0.009 -0.058,0.10562 -0.1241,0.20751 -0.1752,0.31687 -0.034,0.0735 -0.063,0.14925 -0.091,0.22534 0.2134,-0.0481 0.324,-0.082 0.5348,-0.20823 0.06,-0.0359 0.1095,-0.0871 0.1642,-0.13064 0.068,-0.048 0.1353,0.0475 0.068,0.0955 -0.077,0.0367 -0.478,0.2296 -0.5079,0.24245 -0.096,0.0415 -0.1951,0.0756 -0.293,0.11273 -0.01,0 -0.01,0.003 -0.01,0.004 -0.01,0.0116 -0.01,0.0234 -0.013,0.0348 -0.01,0.0113 -0.012,0.0222 -0.018,0.0333 0.018,0.0261 0.038,0.0573 0.064,0.0992 0.1173,0.19046 0.3712,0.38952 0.5809,0.59998 0.033,0.0328 0.062,0.0561 0.091,0.0718 0.016,-0.0533 0.045,-0.15053 0.046,-0.15655 0.01,-0.0182 0.01,-0.0473 0.013,-0.0721 -0.01,0.0789 -0.012,0.15898 -0.015,0.2451 0.05,0.011 0.1047,-0.004 0.1786,-0.0507 0.08,-0.16542 0.073,-0.1973 0.201,-0.57974 0.058,-0.17545 0.1195,-0.35014 0.1791,-0.52522 0.029,-0.10876 0.1823,-0.0686 0.1538,0.0402 -0.1671,0.72775 -0.069,0.36561 -0.2876,1.0634 -0.035,0.11163 -0.07,0.22342 -0.1047,0.33509 -0.013,0.0398 -0.023,0.0802 -0.034,0.12058 0.065,-0.0434 0.1161,-0.0752 0.1524,-0.0931 0.06,-0.0463 0.1175,-0.0981 0.1834,-0.17633 0.13,-0.15445 0.253,-0.31589 0.3603,-0.48693 0.1115,-0.17773 0.1961,-0.37102 0.2941,-0.5565 0,-0.005 0.01,0 0.01,0.004 -0.094,0.18889 -0.1763,0.38368 -0.2813,0.56655 -0.063,0.11049 -0.2205,0.35211 -0.3665,0.54956 0.08,-0.0499 0.1962,-0.13551 0.4234,-0.32676 0.1178,-0.0992 0.2122,-0.22329 0.3184,-0.33492 0.163,-0.11322 0.324,0.01 0.3317,0.15135 z m -1.6948,0.0543 c 0.01,-0.1303 0.024,-0.26369 0.049,-0.44546 0.031,-0.23902 0.068,-0.47719 0.1039,-0.71556 -0.03,0.25427 -0.1014,0.8718 -0.1524,1.16102 z m 0.1524,-1.16102 c 0.01,-0.0371 0.016,-0.1372 0.018,-0.15279 0,-0.003 0.01,-0.003 0.01,0 -0.01,0.0507 -0.015,0.10122 -0.022,0.15184 z m -4.4441,-0.29269 c 0,-0.009 0,-0.0179 0,-0.0267 -0.01,-0.10322 -0.014,-0.20632 -0.021,-0.30951 0.01,-0.049 0.073,-0.0436 0.069,0.005 -0.026,0.17584 -0.041,0.25612 -0.047,0.33102 z m -0.5663,2.37608 c -0.1843,-0.31207 -0.4047,-0.79238 -0.547,-1.09053 0.01,0.008 0.015,0.003 0.012,-0.005 0.2112,0.44363 0.3222,0.6843 0.5353,1.09588 z m 0.1012,1.44446 c -0.01,-0.004 -0.013,-0.007 -0.019,-0.0103 -0.1287,-0.0787 -0.2514,-0.16676 -0.3726,-0.25703 0.1234,0.0868 0.2478,0.17223 0.3732,0.25594 0.01,0.004 0.011,0.007 0.018,0.0116 z m -0.3911,-0.2674 c -0.088,-0.0619 -0.1758,-0.12424 -0.2619,-0.18875 -0.048,-0.0362 -0.096,-0.0735 -0.143,-0.11131 0.043,0.0298 0.091,0.063 0.147,0.10565 0.086,0.0649 0.1716,0.13009 0.2579,0.19441 z m -0.4049,-0.30006 c -0.2511,-0.17262 -0.3028,-0.16092 -0.3172,-0.26147 0.1052,0.0879 0.2103,0.17585 0.3172,0.26147 z m -0.3172,-0.26147 c -0.046,-0.0385 -0.092,-0.0775 -0.1388,-0.11541 -0.052,-0.0904 0.075,-0.16451 0.128,-0.0741 0.01,0.093 0.01,0.15008 0.011,0.18952 z m 5.8602,1.27865 c 0.012,-0.008 0.024,-0.0158 0.037,-0.0234 0.069,-0.0416 0.1384,-0.0818 0.2077,-0.1223 -0.09,0.0561 -0.1685,0.10413 -0.2449,0.1457 z m 0.2449,-0.1457 c 0.054,-0.0332 0.1072,-0.0668 0.1784,-0.11025 0,-0.003 0.01,0.003 0,0.004 -0.06,0.0354 -0.1205,0.071 -0.1809,0.10632 z m 1.0644,-1.96784 c 0.01,0.0219 -0.01,0.046 -0.032,0.0617 -0.055,0.0357 -0.1076,0.0765 -0.1657,0.10741 -0.068,0.0362 -0.1402,0.0646 -0.2118,0.0934 -0.173,0.0695 -0.1602,0.0605 -0.3216,0.0955 -0.1267,0 -0.1267,-0.17915 0,-0.17915 0.039,-0.003 0.078,1.2e-4 0.1167,-0.005 0.1026,-0.0155 0.2815,-0.0642 0.3698,-0.10803 0.055,-0.0276 0.1023,-0.0706 0.1535,-0.10583 0.045,-0.0261 0.085,0.004 0.091,0.0407 z"
       inkscape:transform-center-y="-0.00017952643"
       inkscape:transform-center-x="-0.010615769"
       style="fill:#e6e6e6;fill-opacity:1;stroke-width:0.675222;stroke-linecap:round;paint-order:markers stroke fill"
       id="path5554" />
  </g>
</svg>
