<?xml version="1.0" encoding="UTF-8" standalone="no"?>
<svg
   xmlns:dc="http://purl.org/dc/elements/1.1/"
   xmlns:cc="http://creativecommons.org/ns#"
   xmlns:rdf="http://www.w3.org/1999/02/22-rdf-syntax-ns#"
   xmlns:svg="http://www.w3.org/2000/svg"
   xmlns="http://www.w3.org/2000/svg"
   xmlns:sodipodi="http://sodipodi.sourceforge.net/DTD/sodipodi-0.dtd"
   xmlns:inkscape="http://www.inkscape.org/namespaces/inkscape"
   inkscape:export-ydpi="96"
   inkscape:export-xdpi="96"
   inkscape:export-filename="D:\Calcatz\Icon Pack\Adventure Narative Inspired by Arrival\GUI\Alert Box\png\alert_box - background_detail_2.png"
   sodipodi:docname="alert_box - background_detail_2.svg"
   inkscape:version="1.0 (4035a4fb49, 2020-05-01)"
   id="svg1640"
   version="1.1"
   viewBox="0 0 18.536169 6.275198"
   height="6.275198mm"
   width="18.536169mm">
  <defs
     id="defs1634" />
  <sodipodi:namedview
     inkscape:window-maximized="1"
     inkscape:window-y="-8"
     inkscape:window-x="-8"
     inkscape:window-height="705"
     inkscape:window-width="1366"
     fit-margin-bottom="0"
     fit-margin-right="0"
     fit-margin-left="0"
     fit-margin-top="0"
     showgrid="false"
     inkscape:document-rotation="0"
     inkscape:current-layer="layer1"
     inkscape:document-units="mm"
     inkscape:cy="16.65821"
     inkscape:cx="32.37666"
     inkscape:zoom="7.593161"
     inkscape:pageshadow="2"
     inkscape:pageopacity="0.0"
     borderopacity="1.0"
     bordercolor="#666666"
     pagecolor="#ffffff"
     id="base" />
  <metadata
     id="metadata1637">
    <rdf:RDF>
      <cc:Work
         rdf:about="">
        <dc:format>image/svg+xml</dc:format>
        <dc:type
           rdf:resource="http://purl.org/dc/dcmitype/StillImage" />
        <dc:title></dc:title>
      </cc:Work>
    </rdf:RDF>
  </metadata>
  <g
     transform="translate(-41.981244,-103.30332)"
     id="layer1"
     inkscape:groupmode="layer"
     inkscape:label="Layer 1">
    <path
       id="path5506"
       style="fill:#e6e6e6;fill-opacity:1;stroke-width:0.662255;stroke-linecap:round;paint-order:markers stroke fill"
       d="m 45.184524,109.55312 c -0.0346,-0.001 -0.0704,-0.015 -0.10109,-0.0447 -0.16936,-0.14456 -0.36378,-0.27213 -0.50801,-0.43366 -0.14283,-0.15994 -0.22947,-0.34841 -0.34536,-0.52211 -0.17778,-0.26645 -0.22877,-0.32137 -0.26008,-0.3793 -0.0122,-0.0176 -0.0247,-0.0347 -0.0373,-0.0528 -0.009,0.0446 -0.023,0.0889 -0.0268,0.13395 -0.007,0.0808 0.009,0.17725 0.0203,0.25838 10e-4,0.0897 -0.1548,0.0913 -0.15615,0.001 0.0334,-0.17059 0.0188,-0.0731 0.0341,-0.26361 0.002,-0.0504 0.0136,-0.10024 0.0122,-0.15063 -5.29e-4,-0.044 -0.011,-0.0874 -0.0152,-0.1313 5.29e-4,-0.011 -10e-4,-0.0224 -10e-4,-0.0336 -0.38912,-0.53936 -0.9424,-1.1994 -1.77011,-1.40166 -0.066,-0.0161 -0.0644,-0.4283 0.001,-0.43854 0.3415,-0.0526 0.65733,-0.22508 0.97433,-0.42866 0.002,-0.005 0.005,-0.009 0.007,-0.0134 l -1.5e-4,-1e-5 c 0.18733,-0.23444 -0.13299,0.15801 0.15841,-0.15879 0.0455,-0.0494 0.0797,-0.10513 0.12303,-0.15593 0.40876,-0.47738 -0.20265,0.29966 0.52794,-0.58331 0.12485,-0.15088 0.23574,-0.30912 0.35362,-0.46365 0.002,-0.002 0.007,-2.2e-4 0.006,0.002 -0.11662,0.15518 -0.23582,0.30908 -0.34995,0.4655 -0.005,0.006 -0.21589,0.30485 -0.34817,0.49522 0.011,-0.007 0.0274,-0.0183 0.0357,-0.0243 0.0219,-0.005 0.14041,-0.0628 0.53574,-0.28314 0.0808,-0.0451 0.15976,-0.0922 0.23829,-0.13985 -0.0773,0.0489 -0.15472,0.0979 -0.23075,0.14808 -0.11491,0.0759 -0.27868,0.18026 -0.41537,0.29011 0.36371,-0.22771 0.7503,-0.4238 1.19636,-0.47062 v 1.2e-4 c 0.10526,-0.001 0.53335,0.0364 0.90643,-0.0685 2.3e-4,-5.3e-4 8e-5,-0.001 1.1e-4,-0.002 0.0198,-0.0641 0.0262,-0.1305 0.0339,-0.19627 0.011,-0.0919 0.0161,-0.19177 -0.005,-0.2839 -0.007,-0.0312 -0.0221,-0.0609 -0.033,-0.0913 10e-4,-0.0214 0.002,-0.0425 0.002,-0.0639 -0.011,-0.099 0.16269,-0.11039 0.17253,-0.011 -0.006,0.0205 -0.0136,0.0411 -0.0196,0.0617 0.002,0.0328 0.0242,0.21256 0.0223,0.23151 -0.007,0.0746 -0.0633,0.23814 -0.0906,0.32853 0.0619,-0.0219 0.12127,-0.0482 0.1762,-0.0799 0.0824,-0.0811 0.13421,-0.18216 0.21942,-0.26175 0.006,-0.005 0.0122,-0.01 0.0171,-0.0145 0.0192,-0.0526 0.0347,-0.10635 0.0425,-0.16498 0.006,-0.0436 -0.002,-0.0883 0.002,-0.13187 0.0539,-0.36903 0.0216,0.12176 0.0389,-0.23234 0.005,-0.0796 0.14299,-0.0747 0.13876,0.005 -0.0314,0.16135 -0.0181,0.0796 -0.0399,0.2448 -0.009,0.0441 -0.0249,0.0872 -0.0318,0.13145 -5.29e-4,0.009 -0.001,0.0175 -0.001,0.026 0.0756,-0.0568 0.15287,-0.11234 0.22397,-0.17268 1.04809,-0.89033 -0.45727,0.31754 0.80518,-0.68047 0.11577,-0.11504 0.31605,0.0177 0.2003,0.13283 -0.262005,0.28708 -0.377814,0.41783 -0.427574,0.4753 0.078,-0.0941 0.220799,-0.29037 -0.36714,0.21729 -0.0825,0.0713 -0.14238,0.12571 -0.18776,0.16936 0.137389,-0.0542 0.277729,-0.10415 0.41832,-0.15299 -0.177281,0.0815 -0.345501,0.17428 -0.5059,0.27811 -0.0136,0.009 -0.0262,0.0191 -0.0391,0.0286 -0.0122,0.034 0.002,0.0498 -0.0282,0.10329 0.0175,-0.006 0.0352,-0.011 0.0527,-0.0166 0.0418,-0.0133 0.0535,-0.0168 0.0824,-0.026 0.009,-0.007 0.0175,-0.0157 0.0273,-0.0227 0.0386,-0.0277 0.0833,-0.0499 0.121999,-0.0777 0.122721,-0.088 0.0245,-0.0432 0.12212,-0.0824 0.0819,-0.037 0.1501,0.0218 0.13785,0.0758 0.0711,-0.016 0.15205,-0.034 0.29293,-0.0674 0.0345,-0.009 0.069,-0.0165 0.103421,-0.0247 -0.0339,0.01 -0.0677,0.0181 -0.101091,0.0284 -0.202429,0.0626 -0.39476,0.13834 -0.5772,0.22837 -0.002,0.009 -0.0362,0.0394 -0.15647,0.12151 -0.005,0.004 -0.011,0.006 -0.0158,0.009 0.0883,-0.002 0.198721,-0.004 0.27143,-0.006 0.17017,-0.005 0.44264,-0.0628 0.47546,-0.068 0.002,-0.001 0.007,-0.002 0.011,-0.002 0.21894,-0.0425 0.613341,-0.0363 0.7914,-0.0443 -0.10916,0.013 -0.35155,0.0461 -0.547979,0.0949 0.11406,0.011 0.226479,0.0298 0.338669,0.0496 0.043,-0.0243 0.12878,-0.0707 0.27568,-0.14802 -0.0122,5.2e-4 -0.0249,0.002 -0.0372,0.002 -0.007,2.3e-4 -0.021,2.3e-4 -0.0292,10e-4 0.007,-5.3e-4 0.0227,-0.002 0.0289,-0.004 0.0155,-0.002 0.0309,-0.002 0.0466,-0.005 0.005,-0.002 0.002,-0.002 0.007,-0.004 0.12923,-0.0678 0.25809,-0.13674 0.39329,-0.19651 0.13633,-0.0603 0.28016,-0.10867 0.42023,-0.16295 0.0549,-0.0225 0.0943,0.0405 0.0394,0.0631 -0.0823,0.0383 -0.37889,0.17494 -0.58706,0.27574 0.1823,-0.0141 0.36506,-0.0247 0.5475,-0.0378 0.009,-5.2e-4 0.0174,-0.001 0.0262,-0.001 -0.009,5.3e-4 -0.0175,0.001 -0.0262,0.002 -0.18976,0.0145 -0.37937,0.0322 -0.56901,0.0478 -0.078,0.0379 -0.14284,0.0705 -0.17227,0.0881 -0.0254,0.0151 -0.0889,0.0612 -0.15965,0.11357 0.20926,0.0341 0.42062,0.0565 0.64381,0.0205 0.0289,-0.005 0.06,-0.009 0.0897,-0.0134 0.006,-0.002 0.011,-0.005 0.0172,-0.006 0.0945,-0.0497 0.17665,-0.0912 0.26635,-0.15327 0.0525,-0.0363 0.10465,-0.0751 0.15639,-0.11479 -0.0823,0.005 -0.16449,0.01 -0.24668,0.016 0.0833,-0.006 0.16666,-0.0123 0.25,-0.0186 0.15862,-0.12212 0.31006,-0.25467 0.45537,-0.38122 -0.0686,0.0654 -0.14827,0.14536 -0.31524,0.31494 -0.0172,0.0175 -0.0378,0.0405 -0.0559,0.0599 0.1553,-0.011 0.31059,-0.023 0.4659,-0.0345 0.0245,-0.0144 0.0491,-0.0286 0.073,-0.0436 0.11968,-0.0757 0.23178,-0.15907 0.35394,-0.23198 0.13739,-0.082 0.28271,-0.15499 0.42407,-0.23249 0.007,-0.004 0.0155,0.005 0.007,0.009 -0.14102,0.0773 -0.292259,0.14387 -0.423319,0.23215 -0.11564,0.0779 -0.20957,0.17463 -0.31253,0.26336 -0.0276,0.0238 -0.0544,0.0482 -0.0811,0.0726 2.119179,-0.43833 -1.74495,0.44983 1.31187,-0.26633 -0.27234,0.0799 -0.54386,0.16208 -0.81716,0.23992 -0.21211,0.0604 -0.43032,0.10721 -0.63921,0.17446 0.4731,-0.0386 0.98163,-0.0599 1.47036,-0.0593 0.0345,-0.0139 0.0691,-0.028 0.10439,-0.0405 0.0977,-0.0346 0.19766,-0.065 0.29684,-0.0969 0.25065,-0.0803 0.415169,-0.13323 0.673329,-0.19974 0.12017,-0.0309 0.24201,-0.0573 0.36306,-0.0861 0.0848,-0.0214 0.16953,-0.0427 0.25431,-0.0641 0.0654,-0.007 0.0787,0.0675 0.0136,0.0752 -0.0867,0.004 -0.17325,0.007 -0.25985,0.011 -0.0832,0.0224 -0.61365,0.16422 -0.699449,0.19231 -0.107821,0.0353 -0.212121,0.0778 -0.316201,0.11968 -0.0594,0.024 -0.13513,0.0571 -0.20994,0.0903 0.39253,0.006 0.76579,0.027 1.08769,0.065 0.20043,0.0238 0.41461,0.009 0.75611,-0.10403 0.0907,-0.0406 0.19111,-0.087 0.32376,-0.14993 0.33808,-0.16038 0.65335,-0.35144 0.99425,-0.50789 0.26313,-0.12078 0.5435,-0.21493 0.81524,-0.32241 0.0753,-0.0312 0.12983,0.0553 0.0544,0.0866 -0.66913,0.24224 -0.9619,0.32002 -1.4682,0.6172 0.0399,-0.011 0.0804,-0.0209 0.11944,-0.0334 0.0716,-0.0299 0.14314,-0.0599 0.21474,-0.0898 0.0603,-0.0213 0.0973,0.0478 0.037,0.0692 -0.0709,0.0276 -0.14177,0.0556 -0.21271,0.0832 -0.16529,0.079 -0.2443,0.11076 -0.39564,0.20645 -0.0617,0.039 -0.11955,0.0818 -0.17744,0.12433 -0.0136,0.01 -0.0274,0.0212 -0.0408,0.0318 0.0385,-0.007 0.0768,-0.0144 0.1143,-0.024 0.0928,-0.024 0.17869,-0.0636 0.27144,-0.0874 0.0759,-0.0197 0.15516,-0.0284 0.23278,-0.0425 0.17492,-0.0363 0.23813,0.16462 0.0632,0.20093 -0.072,0.0198 -0.14343,0.0405 -0.21561,0.0598 -0.0808,0.0214 -0.16307,0.04 -0.24366,0.0621 0.0187,0.005 0.0376,0.01 0.0568,0.0129 0.31451,0.0569 0.88666,0.12311 1.21594,0.12935 0.0791,10e-4 0.15655,-0.0182 0.23477,-0.0271 0.0296,5.3e-4 0.0455,0.0153 0.0499,0.0319 0.138,0.006 0.29063,0.0123 0.33263,0.011 0.13241,-0.005 0.26321,-0.024 0.39504,-0.0346 0.19059,-0.0153 0.85444,-0.0627 1.01336,-0.0742 0.027,-0.002 0.0319,0.0285 0.005,0.0312 -0.753,0.0985 -0.32685,0.0399 -1.00293,0.13899 -0.12213,0.018 -0.24459,0.0347 -0.36666,0.0534 0.0484,0.0222 0.10159,0.0494 0.16324,0.083 0.0958,0.0521 0.37591,0.17018 0.68235,0.22314 0.0759,-0.004 0.15155,-0.0126 0.22745,-0.0175 0.77895,-0.0488 -0.17375,0.0193 0.69013,-0.0557 0.1066,-0.01 0.21349,-0.0149 0.32017,-0.0225 0.0795,-0.006 0.15887,-0.0123 0.23831,-0.0177 0.0339,-0.0141 0.0676,-0.0282 0.10122,-0.0424 0.0985,-0.005 0.10806,0.1077 0.009,0.11319 -0.0353,-0.002 -0.0708,-0.004 -0.10611,-0.005 -0.44527,5.3e-4 -0.0209,-0.009 -0.55566,0.0353 -0.26276,0.0214 -0.43237,0.0155 -0.68892,0.0505 -0.0403,0.006 -0.0801,0.0133 -0.11968,0.0214 0.11015,0.001 0.23622,-0.01 0.71108,-0.0234 0.29303,-0.009 0.58726,-0.004 0.879,-0.0276 0.4561,-0.0373 0.9002,-0.14742 1.35623,-0.18525 0.25042,-0.0208 0.50264,-0.0219 0.75398,-0.033 0.19661,-0.01 0.21472,0.21533 0.0181,0.22572 -0.24473,0.0125 -0.48946,0.0251 -0.73418,0.0375 -0.21111,0.0156 -0.42192,0.0344 -0.63337,0.0467 -0.247271,0.0144 -0.49683,0.006 -0.74253,0.0335 -0.247201,0.0271 -0.488509,0.082 -0.733109,0.12176 0.14102,0.042 0.28512,0.0842 0.33729,0.0958 0.13209,0.0295 0.26835,0.0443 0.401979,0.0686 0.13603,0.0249 0.269891,0.0578 0.406831,0.0791 -0.137102,-0.0225 -0.276891,-0.032 -0.41431,-0.053 -0.134831,-0.0204 -0.267521,-0.0499 -0.402141,-0.0712 -0.216999,-0.0346 -0.34383,-0.0484 -0.526089,-0.0687 0.0337,0.011 0.0582,0.0191 0.102929,0.0341 0.125011,0.0422 0.240251,0.10293 0.36773,0.14002 0.137841,0.0401 0.63395,0.13022 0.7944,0.16039 0.011,0.002 0.007,0.0139 -0.002,0.0123 -0.12213,-0.0235 -0.245091,-0.0447 -0.36659,-0.0707 -0.0679,-0.0145 -0.72824,-0.16892 -0.81436,-0.18683 -0.0241,-0.005 -0.0482,-0.009 -0.0724,-0.0135 0.90646,0.2353 1.81807,0.90949 2.64998,1.02834 0.10232,0.0145 0.0594,0.35535 -0.0322,0.36825 -1.25541,0.17638 -3.21009,0.47402 -3.21009,0.47402 0.0993,0.007 0.19399,0.0128 0.29888,0.0187 -0.0462,-10e-4 -0.0922,-0.002 -0.13846,-0.002 -0.0582,2.6e-4 -0.11626,0.002 -0.17421,0.006 -0.0152,0.0262 -0.0456,0.0758 -0.0814,0.0985 -0.0441,0.0284 -0.0901,0.054 -0.13679,0.0789 0.25935,0.0611 0.56072,0.13805 0.79257,0.13352 0.0672,-10e-4 0.12878,-0.0275 0.19075,-0.0518 -0.0359,-0.005 -0.0765,-0.01 -0.10464,-0.0123 -0.10819,-0.01 -0.21736,-0.009 -0.32598,-0.0144 -0.0588,-0.002 -0.11736,-0.007 -0.17601,-0.01 -0.11956,-0.005 -0.11198,-0.1417 0.007,-0.13735 l 2.64e-4,1e-5 c 0.21814,0.0615 0.24821,0.0742 0.50391,0.12344 0.0529,0.01 0.10624,0.0188 0.15952,0.0276 0.002,-0.001 0.006,-0.002 0.009,-0.004 0.0358,2.6e-4 0.0648,0.009 0.0881,0.0202 0.0465,0.007 0.0928,0.0152 0.13891,0.0235 0.14177,0.0258 0.28289,0.0544 0.424339,0.0817 0.002,5.3e-4 0.002,0.004 -5.29e-4,0.004 -0.11956,-0.0177 -0.328829,-0.0494 -0.520709,-0.0762 0.0589,0.0713 0.0136,0.18995 -0.13392,0.18823 -0.79258,-0.0935 0.42196,0.0559 -0.77487,-0.12368 -0.0876,-0.0131 -0.17577,-0.0247 -0.2639,-0.0354 -0.1682,-0.009 -0.30598,0.011 -0.4223,0.0373 0.0718,0.023 0.1448,0.0435 0.21715,0.065 0.28402,0.0852 0.39489,0.11845 0.50073,0.14293 -0.002,-5.3e-4 -0.005,-10e-4 -0.007,-10e-4 -0.17091,-0.0337 -0.34404,-0.06 -0.51414,-0.0963 -0.0658,-0.0139 -0.11124,-0.0246 -0.15519,-0.035 0.49282,0.183 0.93297,0.26084 1.49739,0.40288 1.13702,0.28613 0.50924,0.20348 1.55246,0.26617 0.085,-0.0198 0.1699,-0.0398 0.25485,-0.0598 0.32931,-0.0123 0.3497,0.36653 0.0204,0.37825 -0.11173,-0.0145 -0.22349,-0.0291 -0.33522,-0.0436 -2.78249,-0.73975 1.83369,0.47578 -1.55834,-0.36961 -0.22382,-0.0559 -0.444419,-0.11943 -0.66478,-0.18381 0.011,0.007 0.0122,0.009 0.0244,0.0177 0.0756,0.0528 0.15473,0.10207 0.23046,0.15475 0.0939,0.0653 0.17938,0.13898 0.27834,0.19921 0.0774,0.0472 0.16573,0.0811 0.24858,0.12151 0.044,0.028 -0.005,0.0784 -0.0487,0.0505 -0.32419,-0.25029 -0.0978,-0.095 -0.52125,-0.32735 -0.0813,-0.0446 -0.17199,-0.0994 -0.2636,-0.14959 -10e-4,0.01 -0.0122,0.0192 -0.0303,0.016 -0.0554,-0.0125 -0.16365,-0.0373 -0.26778,-0.0606 0.0837,0.01 0.16897,0.0134 0.25342,0.0203 -0.0427,-0.0224 -0.0855,-0.0434 -0.12711,-0.0605 -0.0465,-0.0191 -0.0974,-0.0288 -0.14632,-0.0433 -0.0391,-0.0136 -0.055,-0.0384 -0.0554,-0.063 -0.14858,-0.0436 -0.36665,-0.10831 -0.62178,-0.18705 -0.13255,-0.0291 -0.24872,-0.0295 -0.34628,-0.0207 0.22987,0.10513 0.46353,0.20617 0.71152,0.27907 -0.0736,-0.0166 -0.1775,-0.0396 -0.21236,-0.048 -0.12938,-0.0309 -0.25666,-0.0678 -0.38635,-0.0979 -0.0786,-0.0182 -0.15877,-0.0315 -0.23821,-0.0472 -2.64e-4,-9e-5 -5.29e-4,-2.6e-4 -0.001,-5.3e-4 -0.10635,-0.0161 -0.24031,-0.0379 -0.31684,-0.0293 -0.0704,0.007 -0.14087,0.0152 -0.21114,0.0222 0.0405,0.0323 0.0823,0.0633 0.12968,0.0883 0.41586,0.21796 0.96729,0.40994 1.40829,0.57708 0.006,0.002 0.001,0.01 -0.005,0.007 -0.51748,-0.20095 -1.03573,-0.40036 -1.55471,-0.59871 -0.11125,-0.0364 -0.24753,-0.0477 -0.33019,-0.0394 -0.23681,0.0235 -0.46651,0.0494 -0.67939,0.0884 -0.19681,-0.007 -0.39374,-0.0125 -0.59072,-0.0176 2.6e-4,1.9e-4 1.7e-4,9e-5 5.29e-4,2.6e-4 0.0928,0.0414 0.18225,0.0881 0.278601,0.12367 0.27394,0.10086 0.529749,0.16814 0.815039,0.22629 -0.15465,-0.0267 -0.303719,-0.0533 -0.39631,-0.0731 -0.147979,-0.0318 -0.29082,-0.0785 -0.438699,-0.11099 -0.102451,-0.0224 -0.207711,-0.0355 -0.311611,-0.0531 -0.0408,-0.01 -0.0815,-0.0214 -0.122589,-0.0312 -0.0256,-0.006 -0.0517,-0.011 -0.0775,-0.0165 -0.002,-0.001 -0.005,-0.002 -0.006,-0.004 -0.0669,-0.0125 -0.12243,-0.0491 -0.18673,-0.0671 0.0817,0.0699 0.23362,0.19369 0.27226,0.22177 0.24405,0.17734 0.3054,0.19773 0.59939,0.35997 0.0955,0.0264 0.19119,0.0529 0.28679,0.0795 0.0906,0.0351 0.0295,0.13912 -0.061,0.10403 -0.0881,-0.0443 -0.17626,-0.0888 -0.26435,-0.13308 -0.13089,-0.0555 -0.26674,-0.10354 -0.39253,-0.16628 -0.0908,-0.0452 -0.16725,-0.10758 -0.25522,-0.15639 -0.0641,-0.0356 -0.13452,-0.0632 -0.19971,-0.0974 0.0231,0.0378 0.049,0.0753 0.0785,0.1132 0.0927,0.11895 0.20821,0.22544 0.32608,0.32854 0.076,0.0665 0.16895,0.11894 0.2534,0.17837 0.0174,0.0123 -0.002,0.0322 -0.0211,0.0202 -0.0811,-0.0638 -0.16754,-0.12329 -0.24288,-0.19156 -0.18484,-0.16753 -0.34783,-0.3486 -0.51518,-0.52698 -0.0219,-0.0163 -0.0436,-0.0329 -0.067,-0.0479 -0.006,-0.004 -0.005,-0.002 -0.009,-0.006 -0.007,0.0795 -0.001,0.1345 0.0334,0.32757 0.0152,0.0852 0.0218,0.17361 0.0608,0.25384 0.0191,0.0394 0.0715,0.0614 0.10721,0.0921 0.0973,0.19682 -0.24545,0.3086 -0.34275,0.11186 -0.0766,-0.21324 -0.0614,-0.15055 -0.11492,-0.43866 -0.006,-0.0347 -0.009,-0.0488 -0.0136,-0.0757 -0.0476,0.1804 -0.0594,0.36148 -0.0826,0.55303 -0.0625,-1.00415 -0.007,0.0378 -0.0229,-0.65729 -2.6e-4,-0.006 -5.29e-4,-0.011 -5.29e-4,-0.0172 -0.0336,0.0329 -0.0648,0.062 -0.0895,0.0804 -0.193071,0.14381 -0.420511,0.25389 -0.630741,0.38082 -0.120659,0.0921 -0.28086,-0.0466 -0.16033,-0.13846 0.16346,-0.13983 0.341441,-0.26938 0.49039,-0.41949 0.0213,-0.0214 0.0412,-0.0436 0.0606,-0.0664 0.048,-0.0949 -0.16794,-0.1463 -0.36267,-0.16595 -0.3112,-0.0313 -0.64738,-0.0678 -0.9813,-0.10171 0.0258,0.0649 0.0587,0.13684 0.0941,0.2067 0.12997,0.0315 0.25988,0.0631 0.38985,0.0945 -0.009,-0.002 -0.0122,0.009 -0.002,0.01 -0.0633,-0.0171 -0.22977,-0.0615 -0.38528,-0.10342 0.0329,0.0648 0.0661,0.12577 0.0932,0.16737 0.068,0.10476 0.15354,0.2016 0.23027,0.3024 0.0403,0.0473 -0.0421,0.0936 -0.0824,0.0462 -0.0806,-0.10171 -0.15678,-0.20582 -0.241709,-0.30516 -0.0787,-0.0921 -0.174301,-0.17443 -0.249031,-0.26869 -10e-4,-0.001 -0.002,-0.004 -0.002,-0.005 -0.444969,-0.10953 -0.31795,-0.0803 -0.68362,-0.16491 -0.1377,-0.0141 -0.34298,-0.0796 -0.46428,-0.0847 -0.12425,-0.005 -0.264709,0.0165 -0.16084,0.14045 0.0171,0.011 0.0287,0.0182 0.0517,0.033 0.199791,0.12704 0.26846,0.18783 0.51411,0.23611 0.035,0.007 0.0714,-0.006 0.10721,-0.01 0.11234,0.0374 0.0472,0.16651 -0.0652,0.12913 -0.15201,-0.11344 -0.0403,-0.0405 -0.32803,-0.1654 -0.0947,-0.0411 -0.19007,-0.0812 -0.28305,-0.12482 -0.0689,-0.0323 -0.1445,-0.0715 -0.2193,-0.11099 0.002,0.002 0.007,0.005 0.011,0.007 0.0762,0.0566 0.14556,0.12041 0.22981,0.16904 0.15328,0.0886 0.18493,0.0861 0.32865,0.11051 0.2085,0.0537 0.11503,0.29313 -0.0934,0.23939 -0.27116,-0.0546 -0.1695,-0.0141 -0.26581,-0.1121 0.0804,0.14348 0.17966,0.27889 0.30251,0.40263 0.0599,0.0603 0.12319,0.11907 0.19428,0.17069 0.0559,0.0406 0.12304,0.0697 0.18467,0.10452 0.0507,0.0286 5.3e-4,0.0869 -0.0499,0.0583 -0.146169,-0.0941 -0.279469,-0.17147 -0.401809,-0.28979 -0.0664,-0.0641 -0.11565,-0.1386 -0.17494,-0.20709 -0.19069,-0.22028 -0.16304,-0.18337 -0.22268,-0.26232 0.006,0.015 0.011,0.0304 0.0155,0.0453 0.0407,0.10745 0.11296,0.20559 0.15996,0.31135 0.12894,0.28967 -0.002,0.12664 0.14298,0.28514 0.14164,0.28245 -0.35015,0.44524 -0.49184,0.16277 -0.0122,-0.287 0.016,0.0884 -0.0901,-0.3547 -0.0204,-0.0847 -0.0215,-0.17216 -0.0345,-0.2578 -0.059,0.0962 -0.0295,0.067 -0.15055,0.42124 -0.005,0.0193 -0.0373,0.0155 -0.0339,-0.004 0.051,-0.48863 0.011,-0.29148 0.0854,-0.59555 0.009,-0.011 0.0204,-0.0203 0.0319,-0.0265 -0.0312,-0.0638 -0.0654,-0.12694 -0.0922,-0.19194 -0.1187,-0.19587 -0.40615,-0.22369 -0.62372,-0.19774 -0.11234,0.0134 -0.22465,0.0219 -0.33684,0.0237 1.6e-4,5.3e-4 -3e-5,10e-4 -7e-5,10e-4 0.0337,0.0219 0.0703,0.0452 0.10501,0.0665 0.0282,-0.006 0.0611,5.3e-4 0.0843,0.0286 0.0165,0.0197 0.0226,0.0274 0.0335,0.0405 0.0152,0.009 0.027,0.0156 0.0427,0.0241 0.10269,0.0555 0.20184,0.1176 0.3149,0.15745 0.0897,0.0317 0.1906,0.0363 0.2859,0.0545 0.0542,0.0163 0.0256,0.0784 -0.0286,0.062 -0.75911,-0.31649 0.25204,0.0999 -0.52105,-0.19754 0.0205,0.0182 0.038,0.0326 0.11271,0.099 0.0485,0.0386 -0.019,0.0944 -0.0672,0.0556 -0.2353,-0.15031 -0.13905,-0.0721 -0.29967,-0.22535 -0.011,-0.011 -0.0136,-0.023 -0.0152,-0.0339 -0.002,-0.001 -0.007,-0.002 -0.011,-0.004 0.0122,0.0385 0.0255,0.0765 0.0464,0.11246 0.0494,0.0853 0.13497,0.15333 0.20244,0.23001 0.0837,0.12278 -0.13013,0.21882 -0.21387,0.096 -0.0476,-0.085 -0.0818,-0.17558 -0.14252,-0.25475 -0.0383,-0.0498 -0.085,-0.0945 -0.13226,-0.13916 -0.16022,-0.12684 -0.47867,-0.23108 -0.64064,-0.24931 -0.19488,-0.022 -0.17116,-0.0197 -0.32096,-0.0367 0.009,0.0133 0.0192,0.0269 0.0296,0.0399 0.1022,0.12718 0.21646,0.24779 0.31837,0.37517 0.1698,0.21217 0.14722,0.19051 0.27459,0.40615 0.0296,0.0456 -0.0499,0.0796 -0.0793,0.0341 -0.146576,-0.31167 -0.02427,-0.0996 -0.267556,-0.40196 -0.0531,-0.0659 -0.0955,-0.13751 -0.15168,-0.20172 -0.0508,-0.0579 -0.11051,-0.11025 -0.16812,-0.16359 -0.0595,-0.0551 -0.0901,-0.0818 -0.1209,-0.10661 -2.04553,-0.23433 0.73343,0.0649 -1.21564,0.094 -0.006,0.001 -0.0122,5.3e-4 -0.0172,0.001 0.0447,0.0125 0.0914,0.0257 0.16089,0.0466 0.11833,0.0356 0.22426,0.0965 0.34461,0.12731 0.11626,0.0298 0.2408,0.0315 0.35971,0.0531 0.10672,0.0193 0.21118,0.0466 0.31674,0.0697 0.044,0.01 0.026,0.0607 -0.018,0.0505 -0.5207,-0.14827 -0.0966,-0.0352 -0.66278,-0.16279 -0.27216,-0.0613 -0.54149,-0.1363 -0.82026,-0.17578 2.6e-4,2.5e-4 -1e-5,5.3e-4 -5e-5,0.001 0.0989,0.10318 0.26042,0.22144 0.39574,0.28812 0.085,0.0419 0.18021,0.0686 0.27024,0.10293 0.13589,0.0462 0.0555,0.2023 -0.0804,0.15614 -0.11308,-0.0275 -0.23359,-0.04 -0.33941,-0.0826 -0.0384,-0.0155 -0.0737,-0.0348 -0.10842,-0.0555 0.0122,0.015 0.0231,0.0299 0.0331,0.0456 0.035,0.0544 0.0526,0.11612 0.094,0.16738 0.0491,0.0609 0.1165,0.11052 0.17461,0.16593 0.0443,0.0423 0.0883,0.0847 0.13241,0.12729 0.0447,0.037 -0.0196,0.0885 -0.0644,0.0515 -0.1902,-0.18195 -0.10439,-0.0969 -0.31022,-0.30961 -0.027,-0.028 -0.0721,-0.0742 -0.11638,-0.12054 0.0435,0.0723 0.0884,0.13758 0.13195,0.18996 0.12984,0.15583 0.31135,0.27855 0.4671,0.41784 0.0919,0.0889 -0.001,0.19024 -0.10537,0.18532 z m 9.17194,-0.78309 c 0.1401,0.024 0.26293,0.0445 0.38051,0.0638 -0.0916,-0.0124 -0.18309,-0.0247 -0.2733,-0.0419 -0.0369,-0.007 -0.0715,-0.0147 -0.10721,-0.0219 z m 0.38051,0.0638 c 0.0456,0.006 0.0914,0.0123 0.13695,0.0188 0.002,5.3e-4 0.002,0.004 -5.29e-4,0.004 -0.0332,-0.006 -0.0934,-0.0156 -0.13574,-0.0227 z m 1.51246,-0.31864 c 0.11503,0.0262 0.2028,0.0461 0.33184,0.0749 -0.0276,-0.004 -0.0551,-0.007 -0.0824,-0.0125 -0.085,-0.0171 -0.16783,-0.0384 -0.24942,-0.0623 z m 0.59129,-0.20483 c 0.028,0.006 0.0557,0.011 0.0837,0.0172 -0.0262,-0.005 -0.0593,-0.011 -0.0837,-0.0172 z m 0.0837,0.0172 c 0.10525,0.0209 0.2316,0.0414 0.53293,0.0975 0.011,0.002 0.006,0.0133 -0.002,0.011 -0.17651,-0.0363 -0.35281,-0.0732 -0.52957,-0.10904 z m 0.13663,-0.58108 c 0.15978,0.005 0.31944,0.0166 0.47918,0.023 0.21619,0.009 0.43239,0.0155 0.64857,0.0242 0.0155,5.3e-4 0.0232,0.001 0.0383,0.001 -0.055,-0.001 -0.22606,-0.007 -0.68675,-0.026 -0.0938,-0.004 -0.28601,-0.0123 -0.47917,-0.023 z m 1.16594,0.0489 c 0.14511,0.002 -0.58221,-0.0329 0.5599,0.002 0.13799,0.005 0.27563,0.0155 0.4134,0.0232 0.0174,5.3e-4 0.0164,0.0205 -10e-4,0.0198 -0.378541,-0.0188 -0.584481,-0.0297 -0.972211,-0.0456 z m 0.46179,-1.82098 c 0.16321,0.0254 0.55679,0.0601 0.72908,0.0764 0.0817,-10e-4 0.16319,-0.002 0.24482,-0.004 0.0833,0.009 0.0688,0.10391 -0.0152,0.0956 -0.0782,-0.0216 -0.15662,-0.043 -0.23496,-0.0647 -0.68028,-0.0513 -0.0136,0.0138 -0.72445,-0.10317 z m -7.48126,-1.67903 c 0.002,-0.001 0.006,-0.002 0.011,-0.002 -5.29e-4,5.3e-4 -2e-5,5.3e-4 -2e-5,5.3e-4 -0.006,0.002 -0.002,0.001 -0.011,0.002 z m -1.44846,-0.14299 c 0.0742,-0.0707 0.14963,-0.13568 0.26746,-0.23367 -0.059,0.0521 -0.11784,0.10452 -0.17767,0.15625 -0.0286,0.0248 -0.0605,0.052 -0.0897,0.0774 z m 0.26746,-0.23367 c 0.0527,-0.0467 0.10574,-0.093 0.15867,-0.13954 0.002,-0.002 0.007,0.001 0.005,0.004 -0.0731,0.0614 -0.11577,0.0967 -0.16317,0.13609 z m -2.59444,0.43982 c 0.18036,-0.0494 0.36589,-0.0868 0.54815,-0.13171 0,0 0,5.3e-4 0,5.3e-4 -0.18269,0.0436 -0.36539,0.0876 -0.54815,0.13111 z m -0.36751,-0.16845 c 0.0808,-0.0372 0.16319,-0.0727 0.24842,-0.10476 0.17196,-0.0645 0.33749,-0.11614 0.50442,-0.16354 -0.16724,0.0551 -0.32956,0.1198 -0.495,0.17845 -0.0856,0.0303 -0.17172,0.06 -0.25784,0.09 z m 0.75284,-0.26835 c 0.0209,-0.007 0.0411,-0.0139 0.0619,-0.0204 0.10854,-0.0336 0.22024,-0.0598 0.33182,-0.0859 -0.13392,0.0353 -0.26496,0.0699 -0.39372,0.10647 z m 0.39374,-0.10648 c 0.0449,-0.0123 0.0889,-0.0235 0.1348,-0.0357 -0.002,5.3e-4 -1.9e-4,0.004 -1.4e-4,0.002 -0.0452,0.011 -0.0906,0.0219 -0.13605,0.0326 z m -1.01002,0.14117 c -0.0322,0.0389 -0.0478,0.0553 0,0 z m -2.90688,0.85098 c 0.12379,-0.0785 0.2481,-0.15621 0.37174,-0.23476 -0.002,0.002 -2.6e-4,0.007 0.005,0.005 -0.126051,0.0759 -0.250161,0.15392 -0.375851,0.2302 z m -0.77405,0.423 c -0.0322,0.007 0.1454,-0.1011 0,0 z m 2.35485,3.80756 c -0.011,1e-4 -0.023,-0.001 -0.0359,-0.005 -0.0315,-0.011 -0.0637,-0.0207 -0.0951,-0.0317 -0.19804,-0.0694 -0.0551,-0.026 -0.24547,-0.0798 -0.10061,-0.0394 -0.0318,-0.155 0.0688,-0.11553 0.0381,0.0128 0.0763,0.0254 0.11443,0.0381 0.0395,0.0182 0.0766,0.0405 0.11846,0.0545 0.029,0.01 0.0612,0.011 0.0918,0.0167 0.0895,0.0267 0.06,0.1198 -0.0172,0.12237 z m 2.99002,-0.54916 c 10e-4,-0.001 10e-4,-0.002 0.002,-0.004 -0.001,-0.001 -0.002,-0.002 -0.005,-0.002 5.29e-4,0.002 10e-4,0.005 10e-4,0.007 z m 1.52381,-0.13983 c -0.0171,-0.0232 -0.0318,-0.0471 -0.0446,-0.0715 -0.0928,-0.10183 -0.32135,-0.11785 -0.49673,-0.1309 0.0505,0.0313 0.10172,0.0616 0.15851,0.0842 0.0712,0.0284 0.22181,0.0726 0.38281,0.11821 z m 3.84383,-3.27105 c 0.37068,0.011 0.61325,0.006 0.79756,0.002 0.009,-0.011 0.0209,-0.0202 0.0352,-0.0275 -0.14058,-0.0254 -0.13045,-0.0139 -0.60985,-0.0431 -0.21378,-0.013 -0.42752,-0.0291 -0.64174,-0.0358 -0.011,-2.7e-4 -0.021,2.2e-4 -0.0315,2.6e-4 0.1498,0.0363 0.2996,0.0718 0.45041,0.10366 z m -5.0377,-0.34635 c 0.15325,-0.0436 0.30637,-0.0874 0.46269,-0.1209 0.0168,-0.011 0.026,-0.017 0.0545,-0.0346 0.0418,-0.0255 0.0848,-0.0504 0.12758,-0.0753 -0.15171,0.01 -0.30338,0.0198 -0.45509,0.0296 -0.0605,0.0647 -0.12302,0.13242 -0.18965,0.201 z m 5.25181,-0.15486 c -0.11246,-0.002 -0.12999,-0.13853 -0.005,-0.15409 0.27479,-0.0423 -0.14933,0.0205 0.252521,-0.0265 0.0814,-0.01 0.16227,-0.0235 0.243369,-0.0351 0.0543,-0.011 0.0735,0.0515 0.0192,0.0623 -0.0748,0.0268 -0.14797,0.0567 -0.22443,0.0801 -0.0529,0.0161 -0.10845,0.0257 -0.16258,0.0385 -0.0329,0.011 -0.066,0.0222 -0.0991,0.0334 -0.007,10e-4 -0.0164,10e-4 -0.0237,10e-4 z" />
  </g>
</svg>
