<?xml version="1.0" encoding="UTF-8" standalone="no"?>
<svg
   xmlns:dc="http://purl.org/dc/elements/1.1/"
   xmlns:cc="http://creativecommons.org/ns#"
   xmlns:rdf="http://www.w3.org/1999/02/22-rdf-syntax-ns#"
   xmlns:svg="http://www.w3.org/2000/svg"
   xmlns="http://www.w3.org/2000/svg"
   xmlns:sodipodi="http://sodipodi.sourceforge.net/DTD/sodipodi-0.dtd"
   xmlns:inkscape="http://www.inkscape.org/namespaces/inkscape"
   inkscape:export-ydpi="96"
   inkscape:export-xdpi="96"
   inkscape:export-filename="D:\Calcatz\Icon Pack\Adventure Narative Inspired by Arrival\GUI\Alert Box\png\alert_box - background_detail_7.png"
   sodipodi:docname="alert_box - background_detail_7.svg"
   inkscape:version="1.0 (4035a4fb49, 2020-05-01)"
   id="svg4560"
   version="1.1"
   viewBox="0 0 5.1358423 15.164337"
   height="15.164337mm"
   width="5.1358423mm">
  <defs
     id="defs4554" />
  <sodipodi:namedview
     inkscape:window-maximized="1"
     inkscape:window-y="-8"
     inkscape:window-x="-8"
     inkscape:window-height="705"
     inkscape:window-width="1366"
     fit-margin-bottom="0"
     fit-margin-right="0"
     fit-margin-left="0"
     fit-margin-top="0"
     showgrid="false"
     inkscape:document-rotation="0"
     inkscape:current-layer="layer1"
     inkscape:document-units="mm"
     inkscape:cy="32.00006"
     inkscape:cx="6.4805021"
     inkscape:zoom="5.3691756"
     inkscape:pageshadow="2"
     inkscape:pageopacity="0.0"
     borderopacity="1.0"
     bordercolor="#666666"
     pagecolor="#ffffff"
     id="base" />
  <metadata
     id="metadata4557">
    <rdf:RDF>
      <cc:Work
         rdf:about="">
        <dc:format>image/svg+xml</dc:format>
        <dc:type
           rdf:resource="http://purl.org/dc/dcmitype/StillImage" />
        <dc:title></dc:title>
      </cc:Work>
    </rdf:RDF>
  </metadata>
  <g
     transform="translate(-103.87301,-120.14694)"
     id="layer1"
     inkscape:groupmode="layer"
     inkscape:label="Layer 1">
    <path
       d="m 108.98636,122.76739 c 0,-0.0283 -0.0122,-0.0576 -0.0366,-0.0827 -0.11824,-0.13854 -0.22259,-0.29758 -0.35473,-0.41556 -0.13083,-0.11684 -0.28501,-0.18772 -0.42711,-0.28252 -0.21797,-0.14542 -0.26289,-0.18713 -0.31028,-0.21275 -0.0143,-0.01 -0.0284,-0.0202 -0.0432,-0.0305 0.0365,-0.007 0.0727,-0.0188 0.10959,-0.0219 0.0661,-0.006 0.14499,0.007 0.21135,0.0166 0.0734,10e-4 0.0747,-0.12663 0,-0.12773 -0.13957,0.0273 -0.0598,0.0154 -0.21563,0.0279 -0.0412,0.002 -0.082,0.0111 -0.12322,0.01 -0.036,-5.3e-4 -0.0715,-0.009 -0.10742,-0.0124 -0.009,5.2e-4 -0.0183,-0.001 -0.0275,-0.001 -0.44119,-0.31832 -0.98113,-0.77092 -1.14657,-1.448 -0.0132,-0.054 -0.35036,-0.0527 -0.35875,0.001 -0.043,0.27936 -0.18412,0.53771 -0.35065,0.79703 -0.004,0.002 -0.007,0.004 -0.0111,0.006 v -1.2e-4 c -0.19177,0.15324 0.12925,-0.1088 -0.12988,0.12958 -0.0404,0.0372 -0.086,0.0652 -0.12756,0.10064 -0.39052,0.33437 0.24511,-0.16577 -0.47717,0.43187 -0.12343,0.10213 -0.25286,0.19283 -0.37928,0.28927 -0.003,0.002 -1.9e-4,0.006 0.003,0.005 0.12695,-0.0954 0.25284,-0.19291 0.38079,-0.28627 0.005,-0.004 0.24937,-0.1766 0.40511,-0.28481 -0.006,0.009 -0.0151,0.0224 -0.0198,0.0292 -0.004,0.0179 -0.0514,0.11486 -0.23161,0.43825 -0.0369,0.0661 -0.0754,0.13069 -0.11438,0.19493 0.04,-0.0632 0.0801,-0.12657 0.12112,-0.18876 0.0621,-0.094 0.14746,-0.22797 0.23731,-0.33978 -0.18627,0.29752 -0.34669,0.61376 -0.38497,0.97865 h 1e-4 c 0,0.0861 0.0298,0.43629 -0.056,0.74148 0,1.9e-4 0,6e-5 -0.003,9e-5 -0.0524,0.0162 -0.10674,0.0214 -0.16055,0.0277 -0.0752,0.009 -0.15687,0.0132 -0.23223,-0.004 -0.0254,-0.006 -0.0498,-0.0181 -0.0747,-0.027 -0.0175,10e-4 -0.0348,0.002 -0.0523,0.002 -0.081,-0.009 -0.0903,0.13308 -0.009,0.14113 0.0167,-0.005 0.0336,-0.0111 0.0505,-0.016 0.0268,0.002 0.17391,0.0198 0.18939,0.0182 0.061,-0.006 0.19481,-0.0518 0.26874,-0.0741 -0.018,0.0506 -0.0394,0.0992 -0.0654,0.14413 -0.0663,0.0674 -0.14902,0.10979 -0.21413,0.17949 -0.004,0.005 -0.008,0.01 -0.0119,0.014 -0.043,0.0157 -0.087,0.0284 -0.13496,0.0348 -0.0357,0.005 -0.0722,-0.002 -0.10787,0.002 -0.30186,0.0441 0.0996,0.0177 -0.19005,0.0318 -0.0651,0.004 -0.0611,0.11698 0.004,0.11352 0.132,-0.0257 0.0651,-0.0148 0.20026,-0.0326 0.0361,-0.007 0.0713,-0.0204 0.10753,-0.026 0.007,-2.7e-4 0.0143,-0.001 0.0214,-0.001 -0.0465,0.0618 -0.0919,0.12505 -0.14126,0.18321 -0.72832,0.85736 0.25977,-0.37406 -0.55663,0.65866 -0.0941,0.0947 0.0146,0.25853 0.10863,0.16385 0.23485,-0.21432 0.34182,-0.30905 0.38884,-0.34976 -0.077,0.0638 -0.23755,0.18062 0.17774,-0.30033 0.0583,-0.0675 0.10282,-0.11647 0.13854,-0.1536 -0.0443,0.1124 -0.0852,0.2272 -0.12515,0.34221 0.0667,-0.14502 0.14256,-0.28263 0.22749,-0.41384 0.007,-0.0111 0.0156,-0.0214 0.0236,-0.032 0.0278,-0.01 0.0407,0.002 0.0845,-0.0231 -0.005,0.0143 -0.009,0.0288 -0.0135,0.0431 -0.0109,0.0342 -0.0138,0.0438 -0.0214,0.0674 -0.006,0.007 -0.0127,0.0143 -0.0185,0.0223 -0.0228,0.0316 -0.0408,0.0681 -0.0636,0.0998 -0.072,0.10038 -0.0353,0.02 -0.0674,0.0999 -0.0303,0.067 0.0177,0.12278 0.062,0.11276 -0.013,0.0582 -0.0278,0.12438 -0.0551,0.23963 -0.007,0.0282 -0.0135,0.0564 -0.0201,0.0846 0.008,-0.0277 0.0148,-0.0554 0.0233,-0.0827 0.0512,-0.16559 0.11316,-0.32293 0.18682,-0.47216 0.007,-0.002 0.0322,-0.0296 0.0994,-0.128 0.003,-0.004 0.005,-0.009 0.007,-0.0129 -0.003,0.0722 -0.003,0.16256 -0.005,0.22204 -0.004,0.1392 -0.0514,0.36209 -0.0556,0.38894 0,0.002 -0.003,0.006 -0.003,0.009 -0.0348,0.1791 -0.0297,0.50173 -0.0362,0.64739 0.0106,-0.0893 0.0377,-0.28758 0.0776,-0.44826 0.009,0.0933 0.0243,0.18526 0.0406,0.27704 -0.0199,0.0352 -0.0578,0.10534 -0.12108,0.22551 0,-0.01 0.003,-0.0204 0.003,-0.0304 2.1e-4,-0.006 2.1e-4,-0.0172 0,-0.0239 0,0.006 -0.003,0.0186 -0.003,0.0236 -0.003,0.0127 -0.003,0.0253 -0.004,0.0381 -0.003,0.004 -0.003,0.002 -0.003,0.006 -0.0555,0.10571 -0.11184,0.21112 -0.16073,0.32172 -0.0493,0.11152 -0.0889,0.22918 -0.1333,0.34376 -0.0185,0.0449 0.0331,0.0771 0.0516,0.0322 0.0313,-0.0673 0.14312,-0.30994 0.22556,-0.48023 -0.0114,0.14913 -0.0201,0.29863 -0.0309,0.44787 0,0.007 0,0.0142 0,0.0214 0,-0.007 0,-0.0143 0.003,-0.0214 0.0119,-0.15523 0.0262,-0.31033 0.0391,-0.46546 0.031,-0.0638 0.0577,-0.11685 0.0721,-0.14092 0.0124,-0.0208 0.0501,-0.0727 0.0929,-0.1306 0.0279,0.17118 0.0462,0.34408 0.0167,0.52665 -0.004,0.0236 -0.007,0.0491 -0.0111,0.0734 -0.003,0.005 -0.004,0.009 -0.005,0.0141 -0.0407,0.0773 -0.0746,0.1445 -0.12539,0.21788 -0.0297,0.0429 -0.0614,0.0856 -0.0939,0.12793 0.004,-0.0673 0.008,-0.13456 0.013,-0.20179 -0.005,0.0681 -0.0101,0.13633 -0.0151,0.2045 -0.0999,0.12976 -0.20833,0.25364 -0.31186,0.37251 0.0535,-0.0561 0.1189,-0.12129 0.25762,-0.25788 0.0143,-0.0141 0.0331,-0.0309 0.049,-0.0457 -0.009,0.12704 -0.0188,0.25407 -0.0282,0.38112 -0.0119,0.02 -0.0233,0.0402 -0.0357,0.0597 -0.0619,0.0979 -0.13012,0.1896 -0.18976,0.28953 -0.0671,0.11239 -0.12679,0.23126 -0.19018,0.34689 -0.003,0.006 0.004,0.0127 0.007,0.006 0.0632,-0.11536 0.11768,-0.23907 0.18989,-0.34627 0.0637,-0.0946 0.14285,-0.17145 0.21545,-0.25567 0.0196,-0.0226 0.0394,-0.0445 0.0594,-0.0663 -0.35857,1.73354 0.36795,-1.42741 -0.21786,1.07314 0.0654,-0.22278 0.13258,-0.44489 0.19624,-0.66846 0.0494,-0.17351 0.0877,-0.35201 0.14272,-0.52289 -0.0316,0.38701 -0.049,0.803 -0.0485,1.20279 -0.0114,0.0282 -0.0228,0.0565 -0.0331,0.0854 -0.0283,0.0799 -0.0532,0.16169 -0.0793,0.24282 -0.0657,0.20504 -0.10898,0.33962 -0.16338,0.5508 -0.0254,0.0983 -0.0469,0.19797 -0.0704,0.29699 -0.0175,0.0694 -0.0349,0.13868 -0.0524,0.20803 -0.006,0.0535 0.0552,0.0644 0.0615,0.0111 0.003,-0.0709 0.006,-0.14172 0.009,-0.21256 0.0183,-0.0681 0.13433,-0.50197 0.1573,-0.57217 0.0289,-0.0882 0.0636,-0.17352 0.0979,-0.25866 0.0196,-0.0486 0.0467,-0.11054 0.0739,-0.17173 0.005,0.32111 0.022,0.62643 0.0532,0.88975 0.0196,0.16397 0.007,0.33916 -0.0851,0.61852 -0.0332,0.0742 -0.0712,0.15633 -0.12266,0.26484 -0.13118,0.27656 -0.28747,0.53446 -0.41545,0.81332 -0.0988,0.21526 -0.17581,0.4446 -0.26373,0.66689 -0.0254,0.0616 0.0452,0.1062 0.0708,0.0445 0.19814,-0.54737 0.26178,-0.78686 0.50488,-1.20102 -0.009,0.0326 -0.0172,0.0658 -0.0273,0.0977 -0.0246,0.0586 -0.049,0.11709 -0.0735,0.17566 -0.0175,0.0493 0.0391,0.0796 0.0566,0.0303 0.0228,-0.058 0.0455,-0.11597 0.0681,-0.174 0.0646,-0.13521 0.0906,-0.19983 0.16888,-0.32364 0.0319,-0.0505 0.0669,-0.0978 0.10171,-0.14515 0.008,-0.0111 0.0172,-0.0224 0.0259,-0.0334 -0.006,0.0315 -0.0119,0.0628 -0.0196,0.0935 -0.0196,0.0759 -0.052,0.14618 -0.0715,0.22204 -0.0161,0.0621 -0.0233,0.12693 -0.0348,0.19043 -0.0297,0.14308 0.13467,0.19479 0.16436,0.0517 0.0161,-0.0589 0.0331,-0.11733 0.0489,-0.17638 0.0175,-0.0661 0.0327,-0.1334 0.0508,-0.19931 0.004,0.0153 0.008,0.0308 0.0106,0.0465 0.0465,0.25728 0.10071,0.72531 0.10581,0.99467 0,0.0647 -0.0148,0.12806 -0.0222,0.19205 0,0.0242 0.0124,0.0372 0.0262,0.0408 0.005,0.11289 0.0101,0.23774 0.009,0.2721 -0.004,0.10831 -0.0196,0.21531 -0.0283,0.32315 -0.0124,0.15591 -0.0513,0.69895 -0.0607,0.82895 -0.003,0.0221 0.0233,0.0261 0.0254,0.004 0.0806,-0.61597 0.0326,-0.26737 0.11369,-0.82042 0.0148,-0.0999 0.0284,-0.20008 0.0437,-0.29993 0.0183,0.0396 0.0404,0.0831 0.0679,0.13353 0.0426,0.0784 0.1392,0.3075 0.18254,0.55818 -0.003,0.0621 -0.0103,0.12397 -0.0143,0.18606 -0.0399,0.6372 0.0159,-0.14213 -0.0456,0.56454 -0.008,0.0872 -0.0122,0.17464 -0.0185,0.26191 -0.005,0.065 -0.0101,0.12996 -0.0146,0.19494 -0.0114,0.0277 -0.023,0.0553 -0.0347,0.0828 -0.004,0.0806 0.0881,0.0884 0.0926,0.007 -0.003,-0.0289 -0.003,-0.0579 -0.004,-0.0868 0,-0.36424 -0.007,-0.0171 0.0289,-0.45454 0.0175,-0.21494 0.0127,-0.35369 0.0413,-0.56355 0.005,-0.033 0.0109,-0.0655 0.0175,-0.0979 0,0.0901 -0.008,0.19323 -0.019,0.58168 -0.007,0.2397 -0.003,0.48039 -0.0225,0.71904 -0.0305,0.3731 -0.12059,0.73638 -0.15155,1.10943 -0.0169,0.20485 -0.018,0.41117 -0.027,0.61677 -0.008,0.16083 0.17614,0.17565 0.18465,0.0148 0.0103,-0.2002 0.0204,-0.40039 0.0307,-0.60058 0.0127,-0.17269 0.0281,-0.34514 0.0382,-0.51811 0.0119,-0.20227 0.005,-0.40642 0.0274,-0.60741 0.0222,-0.20221 0.0671,-0.39961 0.0996,-0.5997 0.0344,0.11536 0.0689,0.23324 0.0784,0.27591 0.0241,0.10806 0.0362,0.21952 0.0561,0.32883 0.0204,0.11128 0.0473,0.22078 0.0647,0.3328 -0.0185,-0.11217 -0.0262,-0.22652 -0.0434,-0.33894 -0.0167,-0.11029 -0.0408,-0.21883 -0.0582,-0.32896 -0.0283,-0.17751 -0.0396,-0.28126 -0.0562,-0.43035 0.009,0.0276 0.0156,0.0476 0.0279,0.0842 0.0345,0.10227 0.0842,0.19653 0.11453,0.30081 0.0328,0.11276 0.10653,0.5186 0.13121,0.64984 0.003,0.009 0.0114,0.006 0.0101,-0.002 -0.019,-0.0999 -0.0366,-0.20049 -0.0578,-0.29987 -0.0119,-0.0555 -0.13819,-0.59572 -0.15282,-0.66616 -0.004,-0.0197 -0.007,-0.0394 -0.0111,-0.0592 0.19249,0.7415 0.74399,1.48722 0.84119,2.16774 0.0119,0.0837 0.2907,0.0486 0.30126,-0.0263 0.14428,-1.02695 0.38775,-2.62593 0.38775,-2.62593 0.006,0.0812 0.0106,0.1587 0.0153,0.2445 0,-0.0378 -0.003,-0.0754 -0.003,-0.11326 0,-0.0476 0.003,-0.0951 0.005,-0.14251 0.0214,-0.0124 0.062,-0.0373 0.0806,-0.0666 0.0233,-0.0361 0.0442,-0.0737 0.0645,-0.1119 0.05,0.21216 0.11292,0.45868 0.10922,0.64834 0,0.055 -0.0225,0.10535 -0.0424,0.15604 -0.004,-0.0294 -0.008,-0.0626 -0.0101,-0.0856 -0.008,-0.0885 -0.007,-0.1778 -0.0119,-0.26666 -0.003,-0.0481 -0.006,-0.096 -0.008,-0.14398 -0.004,-0.0978 -0.11591,-0.0916 -0.11234,0.006 v 2.4e-4 c 0.0503,0.17844 0.0607,0.20304 0.10099,0.41221 0.008,0.0433 0.0154,0.0869 0.0225,0.13049 0,0.002 -0.003,0.005 -0.003,0.007 2.6e-4,0.0293 0.007,0.053 0.0164,0.0721 0.006,0.038 0.0124,0.0759 0.0193,0.11363 0.0212,0.11597 0.0445,0.23141 0.0668,0.34712 0,0.002 0.003,0.002 0.003,-5.2e-4 -0.0146,-0.0978 -0.0404,-0.26899 -0.0623,-0.42595 0.0583,0.0482 0.15539,0.0111 0.15396,-0.10955 -0.0765,-0.64835 0.0457,0.34517 -0.10115,-0.63386 -0.0109,-0.0717 -0.0201,-0.14379 -0.029,-0.21588 -0.007,-0.13759 0.009,-0.2503 0.0305,-0.34545 0.0188,0.0587 0.0356,0.11845 0.0532,0.17763 0.0697,0.23234 0.0969,0.32303 0.11692,0.4096 0,-0.002 0,-0.004 0,-0.006 -0.0276,-0.13981 -0.0491,-0.28143 -0.0788,-0.42058 -0.0114,-0.0538 -0.0201,-0.091 -0.0286,-0.12695 0.1497,0.40314 0.21338,0.76319 0.32959,1.2249 0.23405,0.93011 0.16645,0.41657 0.21773,1.26995 -0.0161,0.0695 -0.0326,0.13898 -0.0489,0.20847 -0.01,0.26939 0.29986,0.28607 0.30943,0.0167 -0.0119,-0.0914 -0.0238,-0.18282 -0.0357,-0.27422 -0.60513,-2.27614 0.3892,1.5 -0.30236,-1.27476 -0.0457,-0.18309 -0.0977,-0.36354 -0.15034,-0.5438 0.006,0.009 0.007,0.01 0.0145,0.02 0.0432,0.0618 0.0835,0.12657 0.12658,0.18852 0.0534,0.0768 0.11369,0.14674 0.16297,0.22769 0.0386,0.0633 0.0663,0.13557 0.0994,0.20334 0.023,0.036 0.0641,-0.004 0.0413,-0.0398 -0.20473,-0.2652 -0.0777,-0.08 -0.26778,-0.4264 -0.0365,-0.0665 -0.0813,-0.14069 -0.12237,-0.21563 0.008,-0.001 0.0156,-0.01 0.0132,-0.0248 -0.0103,-0.0453 -0.0305,-0.13387 -0.0496,-0.21905 0.008,0.0685 0.0111,0.13822 0.0167,0.2073 -0.0183,-0.0349 -0.0355,-0.0699 -0.0495,-0.10398 -0.0156,-0.038 -0.0236,-0.0797 -0.0354,-0.11969 -0.0111,-0.032 -0.0314,-0.045 -0.0515,-0.0453 -0.0357,-0.12155 -0.0886,-0.29994 -0.15299,-0.50863 -0.0238,-0.10844 -0.0241,-0.20347 -0.0169,-0.28328 0.086,0.18804 0.16865,0.37918 0.22828,0.58205 -0.0135,-0.0602 -0.0324,-0.1452 -0.0393,-0.17372 -0.0254,-0.10583 -0.0555,-0.20995 -0.0801,-0.31604 -0.0148,-0.0643 -0.0257,-0.12987 -0.0386,-0.19486 -8e-5,-2.3e-4 -2.1e-4,-5.3e-4 0,-0.001 -0.0132,-0.087 -0.031,-0.19658 -0.0241,-0.2592 0.006,-0.0576 0.0124,-0.11522 0.0183,-0.1727 0.0265,0.0331 0.0518,0.0673 0.0722,0.10607 0.17831,0.34018 0.33534,0.79126 0.47207,1.15201 0.003,0.005 0.008,0.001 0.006,-0.004 -0.16439,-0.42331 -0.3275,-0.84725 -0.48977,-1.27179 -0.0298,-0.091 -0.039,-0.20248 -0.0322,-0.2701 0.0193,-0.19372 0.0404,-0.38162 0.0723,-0.55576 -0.006,-0.161 -0.0103,-0.32209 -0.0143,-0.48323 1.6e-4,2.4e-4 5e-5,1.4e-4 2.1e-4,5.3e-4 0.0339,0.0759 0.0721,0.14908 0.10115,0.2279 0.0825,0.22409 0.13756,0.43335 0.18513,0.66672 -0.0217,-0.12651 -0.0436,-0.24845 -0.0598,-0.32419 -0.0259,-0.12105 -0.0642,-0.2379 -0.0908,-0.35887 -0.0182,-0.0838 -0.029,-0.16991 -0.0434,-0.2549 -0.008,-0.0334 -0.0175,-0.0667 -0.0254,-0.10028 -0.005,-0.0209 -0.009,-0.0423 -0.0135,-0.0634 0,-0.002 -0.003,-0.004 -0.003,-0.005 -0.0103,-0.0547 -0.0402,-0.10015 -0.0549,-0.15275 0.0572,0.0668 0.15843,0.19111 0.1814,0.22272 0.14507,0.19964 0.16176,0.24982 0.29448,0.49031 0.0217,0.0781 0.0433,0.1564 0.065,0.2346 0.0287,0.0741 0.11382,0.0241 0.0851,-0.0499 -0.0362,-0.0721 -0.0726,-0.14419 -0.10888,-0.21625 -0.0454,-0.10707 -0.0847,-0.2182 -0.13602,-0.3211 -0.037,-0.0743 -0.088,-0.13681 -0.12793,-0.20877 -0.0291,-0.0524 -0.0517,-0.11004 -0.0797,-0.16337 0.0309,0.0189 0.0616,0.0401 0.0926,0.0642 0.0973,0.0758 0.18442,0.17032 0.26874,0.26674 0.0544,0.0622 0.0973,0.1382 0.14592,0.20729 0.01,0.0142 0.0262,-0.002 0.0164,-0.0173 -0.0522,-0.0663 -0.10086,-0.13705 -0.15671,-0.19868 -0.13703,-0.1512 -0.28517,-0.28453 -0.43109,-0.42143 -0.0132,-0.0179 -0.0269,-0.0357 -0.0392,-0.0548 -0.003,-0.005 -0.003,-0.004 -0.005,-0.007 0.065,-0.006 0.11002,-10e-4 0.26795,0.0273 0.0697,0.0124 0.14202,0.0178 0.20764,0.0497 0.0322,0.0156 0.0502,0.0585 0.0753,0.0877 0.161,0.0796 0.25244,-0.20078 0.0915,-0.28038 -0.17444,-0.0627 -0.12316,-0.0502 -0.35883,-0.094 -0.0284,-0.005 -0.0399,-0.007 -0.0619,-0.0111 0.14758,-0.0389 0.2957,-0.0486 0.45238,-0.0676 -0.82139,-0.0511 0.0309,-0.006 -0.53765,-0.0187 -0.005,-2.2e-4 -0.009,-5.3e-4 -0.014,-5.3e-4 0.0269,-0.0275 0.0507,-0.053 0.0658,-0.0732 0.11764,-0.15793 0.20768,-0.34399 0.31152,-0.51596 0.0753,-0.0987 -0.0381,-0.22975 -0.11326,-0.13115 -0.11441,0.13371 -0.22038,0.2793 -0.34317,0.40115 -0.0175,0.0174 -0.0357,0.0337 -0.0543,0.0496 -0.0776,0.0393 -0.11967,-0.13737 -0.13576,-0.29667 -0.0257,-0.25457 -0.0555,-0.52957 -0.0832,-0.80273 0.0531,0.0211 0.11195,0.048 0.1691,0.077 0.0257,0.10633 0.0516,0.2126 0.0773,0.31891 -0.003,-0.007 0.007,-0.01 0.008,-0.002 -0.014,-0.0518 -0.0503,-0.18796 -0.0846,-0.31517 0.053,0.0269 0.10287,0.0541 0.13689,0.0762 0.0857,0.0556 0.16492,0.1256 0.24739,0.18836 0.0387,0.033 0.0766,-0.0344 0.0378,-0.0674 -0.0832,-0.0659 -0.16835,-0.12825 -0.24961,-0.19773 -0.0753,-0.0644 -0.14269,-0.14258 -0.21979,-0.20371 0,-0.001 -0.003,-0.002 -0.004,-0.002 -0.0896,-0.364 -0.0657,-0.26009 -0.13488,-0.55922 -0.0114,-0.11264 -0.0651,-0.28057 -0.0693,-0.37979 -0.004,-0.10164 0.0135,-0.21654 0.11488,-0.13157 0.009,0.014 0.0148,0.0235 0.027,0.0423 0.10393,0.16343 0.15367,0.2196 0.19315,0.42055 0.006,0.0286 -0.005,0.0584 -0.008,0.0877 0.0306,0.0919 0.13621,0.0386 0.10562,-0.0533 -0.0928,-0.12435 -0.0331,-0.033 -0.1353,-0.26834 -0.0336,-0.0775 -0.0664,-0.15548 -0.10211,-0.23154 -0.0265,-0.0564 -0.0585,-0.1182 -0.0908,-0.17939 0.003,0.002 0.004,0.006 0.006,0.009 0.0463,0.0623 0.0985,0.11907 0.1383,0.18799 0.0725,0.12538 0.0704,0.15127 0.0904,0.26884 0.0439,0.17056 0.23979,0.0941 0.19584,-0.0764 -0.0447,-0.22182 -0.0114,-0.13866 -0.0917,-0.21744 0.11737,0.0658 0.22815,0.14696 0.32935,0.24746 0.0493,0.049 0.0974,0.10077 0.13965,0.15892 0.0332,0.0457 0.057,0.10065 0.0855,0.15107 0.0236,0.0415 0.0711,5.3e-4 0.0477,-0.0408 -0.077,-0.11957 -0.14028,-0.22861 -0.23706,-0.32868 -0.0524,-0.0543 -0.11338,-0.0946 -0.16939,-0.1431 -0.18021,-0.15599 -0.15002,-0.13338 -0.2146,-0.18216 0.0122,0.005 0.0249,0.009 0.0371,0.0127 0.0879,0.0333 0.1682,0.0924 0.25471,0.13084 0.23694,0.10548 0.10359,-0.002 0.23323,0.11696 0.23107,0.11587 0.36423,-0.28643 0.13317,-0.40233 -0.23479,-0.01 0.0723,0.0131 -0.29017,-0.0737 -0.0693,-0.0167 -0.14081,-0.0176 -0.21087,-0.0282 0.0787,-0.0483 0.0548,-0.0241 0.34459,-0.12315 0.0159,-0.004 0.0127,-0.0305 -0.003,-0.0277 -0.39971,0.0417 -0.23842,0.009 -0.48715,0.0699 -0.009,0.007 -0.0167,0.0167 -0.0217,0.0261 -0.0522,-0.0255 -0.10382,-0.0535 -0.157,-0.0754 -0.16023,-0.0971 -0.18299,-0.33224 -0.16177,-0.51022 0.0111,-0.0919 0.018,-0.18377 0.0193,-0.27554 0,1.3e-4 0,-3e-5 0,-6e-5 0.018,0.0276 0.037,0.0575 0.0544,0.0859 -0.005,0.0231 0,0.05 0.0236,0.069 0.0161,0.0135 0.0225,0.0185 0.0331,0.0274 0.007,0.0124 0.0127,0.0221 0.0196,0.0349 0.0454,0.084 0.0962,0.1651 0.1288,0.25759 0.0259,0.0734 0.0297,0.15591 0.0446,0.23387 0.0132,0.0443 0.0641,0.0209 0.0507,-0.0234 -0.2589,-0.62096 0.0817,0.20618 -0.16159,-0.42623 0.0148,0.0168 0.0267,0.0311 0.081,0.0922 0.0316,0.0397 0.0772,-0.0155 0.0455,-0.055 -0.12295,-0.19247 -0.059,-0.11374 -0.18433,-0.24513 -0.009,-0.009 -0.0188,-0.0111 -0.0277,-0.0124 0,-0.002 -0.003,-0.006 -0.003,-0.009 0.0315,0.01 0.0626,0.0209 0.092,0.038 0.0698,0.0404 0.12541,0.11041 0.18814,0.1656 0.10044,0.0685 0.17899,-0.10645 0.0785,-0.17496 -0.0695,-0.0389 -0.14363,-0.0669 -0.2084,-0.11655 -0.0407,-0.0313 -0.0773,-0.0695 -0.11382,-0.10818 -0.10377,-0.13107 -0.18902,-0.39157 -0.20394,-0.52406 -0.018,-0.15942 -0.0161,-0.14001 -0.03,-0.26256 0.0109,0.007 0.022,0.0157 0.0326,0.0242 0.10403,0.0836 0.2027,0.17707 0.30692,0.26043 0.17354,0.1389 0.15584,0.12043 0.33223,0.22462 0.0373,0.0242 0.0651,-0.0408 0.0279,-0.0649 -0.25495,-0.11993 -0.0815,-0.0199 -0.32882,-0.21889 -0.0539,-0.0434 -0.11248,-0.0781 -0.165,-0.12408 -0.0474,-0.0416 -0.0902,-0.0904 -0.13382,-0.13753 -0.0451,-0.0487 -0.0669,-0.0737 -0.0872,-0.0989 -0.19169,-1.67329 0.0531,0.59997 0.0769,-0.99442 0,-0.005 0,-0.01 0,-0.0141 0.0101,0.0366 0.0209,0.0748 0.0381,0.13161 0.0291,0.0968 0.0789,0.18345 0.10414,0.2819 0.0243,0.0951 0.0257,0.19698 0.0434,0.29425 0.0159,0.0873 0.0381,0.17275 0.057,0.2591 0.008,0.036 0.0497,0.0213 0.0413,-0.0147 -0.12129,-0.42594 -0.0288,-0.079 -0.13319,-0.54217 -0.0501,-0.22263 -0.1115,-0.44295 -0.14378,-0.67099 1.9e-4,2.3e-4 0,-1e-5 0,-4e-5 0.0844,0.0809 0.18116,0.21303 0.23569,0.32372 0.0343,0.0695 0.0561,0.14742 0.0842,0.22107 0.0378,0.11116 0.16547,0.0454 0.12771,-0.0658 -0.0225,-0.0925 -0.0327,-0.19108 -0.0676,-0.27764 -0.0127,-0.0314 -0.0285,-0.0603 -0.0454,-0.0887 0.0122,0.01 0.0246,0.0189 0.0373,0.0271 0.0445,0.0286 0.095,0.043 0.13692,0.0769 0.0498,0.0402 0.0904,0.0953 0.13573,0.14284 0.0346,0.0362 0.0693,0.0722 0.10411,0.10831 0.0303,0.0366 0.0724,-0.016 0.0421,-0.0527 -0.14886,-0.15559 -0.0793,-0.0854 -0.25329,-0.25377 -0.0227,-0.0221 -0.0607,-0.059 -0.0986,-0.0952 0.0591,0.0356 0.11255,0.0723 0.15539,0.10794 0.12748,0.10621 0.22789,0.25469 0.34181,0.3821 0.0727,0.0752 0.15563,-0.001 0.15161,-0.0862 z m -0.64061,7.50285 c 0.0196,0.11461 0.0364,0.21509 0.0522,0.31128 -0.0101,-0.0749 -0.0201,-0.14978 -0.0343,-0.22358 -0.006,-0.0302 -0.0119,-0.0585 -0.018,-0.0877 z m 0.0522,0.31128 c 0.005,0.0373 0.0101,0.0748 0.0154,0.11202 0,0.002 0.003,0.002 0.003,-5.3e-4 -0.005,-0.0272 -0.0127,-0.0764 -0.0185,-0.11103 z m -0.26064,1.23722 c 0.0214,0.0941 0.0377,0.1659 0.0613,0.27145 -0.003,-0.0226 -0.006,-0.0451 -0.0103,-0.0674 -0.014,-0.0695 -0.0314,-0.13729 -0.051,-0.20403 z m -0.16756,0.48369 c 0.005,0.0229 0.009,0.0456 0.014,0.0685 -0.004,-0.0214 -0.009,-0.0485 -0.014,-0.0685 z m 0.014,0.0685 c 0.0172,0.0861 0.0339,0.18945 0.0798,0.43595 0.003,0.009 0.0109,0.005 0.009,-0.002 -0.0297,-0.14439 -0.0599,-0.28862 -0.0892,-0.43321 z m -0.47532,0.11177 c 0.004,0.1307 0.0135,0.2613 0.0188,0.39197 0.007,0.17686 0.0127,0.35371 0.0199,0.53055 0,0.0127 0,0.019 0,0.0313 0,-0.045 -0.006,-0.18493 -0.0214,-0.56179 -0.003,-0.0767 -0.0101,-0.23395 -0.0188,-0.39197 z m 0.04,0.95376 c 0.003,0.1187 -0.0269,-0.47626 0.003,0.45802 0.004,0.11288 0.0127,0.22546 0.019,0.33817 0,0.0142 0.0167,0.0134 0.0161,-0.001 -0.0153,-0.30965 -0.0243,-0.47812 -0.0373,-0.79529 z m -1.48961,0.37776 c 0.0209,0.13351 0.0492,0.45546 0.0625,0.59641 0,0.0668 -0.003,0.13348 -0.003,0.20026 0.007,0.0681 0.085,0.0563 0.0782,-0.0124 -0.0177,-0.064 -0.0352,-0.12812 -0.0529,-0.19221 -0.042,-0.55648 0.0114,-0.0111 -0.0844,-0.59261 z m -1.37348,-6.11985 c 0,0.002 -0.003,0.005 -0.003,0.009 0,-5.3e-4 0,-2e-5 0,-2e-5 0.003,-0.005 0,-0.002 0.003,-0.009 z m -0.11697,-1.18487 c -0.0578,0.0607 -0.11099,0.1224 -0.19113,0.21879 0.0426,-0.0483 0.0855,-0.0964 0.12782,-0.14535 0.0204,-0.0234 0.0425,-0.0495 0.0633,-0.0734 z m -0.19113,0.21879 c -0.0382,0.0431 -0.0761,0.0865 -0.11417,0.1298 -0.003,0.002 0,0.006 0.003,0.004 0.0502,-0.0598 0.0791,-0.0947 0.11131,-0.13347 z m 0.35978,-2.12232 c -0.0404,0.14755 -0.071,0.29931 -0.10777,0.44841 0,0 0,-10e-6 0,-10e-6 0.0357,-0.14944 0.0717,-0.29889 0.10724,-0.4484 z m -0.1378,-0.30064 c -0.0304,0.0661 -0.0595,0.13349 -0.0857,0.20322 -0.0528,0.14067 -0.095,0.27607 -0.1338,0.41263 0.0451,-0.13681 0.098,-0.26959 0.146,-0.40493 0.0249,-0.07 0.0491,-0.14047 0.0736,-0.21092 z m -0.21952,0.61585 c -0.006,0.0171 -0.0114,0.0336 -0.0167,0.0506 -0.0275,0.0888 -0.0489,0.18016 -0.0703,0.27144 0.0289,-0.10954 0.0572,-0.21674 0.0871,-0.32207 z m -0.0871,0.32208 c -0.0101,0.0367 -0.0193,0.0727 -0.0292,0.11028 0,-0.002 0.003,-1.7e-4 0.003,-1.3e-4 0.009,-0.037 0.018,-0.0741 0.0267,-0.11128 z m 0.11549,-0.82622 c 0.0318,-0.0263 0.0452,-0.0391 0,0 z m 0.69612,-2.37789 c -0.0642,0.10126 -0.1278,0.20295 -0.19206,0.30409 0.003,-0.002 0.006,-2.7e-4 0.004,0.004 0.0621,-0.10311 0.12589,-0.20464 0.18831,-0.30746 z m 0.34602,-0.63319 c 0.006,-0.0263 -0.0827,0.11894 0,0 z m 3.11467,1.92632 c 8e-5,-0.009 0,-0.0188 -0.004,-0.0294 -0.009,-0.0258 -0.0169,-0.0521 -0.0259,-0.0778 -0.0568,-0.16201 -0.0214,-0.0451 -0.0653,-0.2008 -0.0322,-0.0823 -0.12679,-0.026 -0.0945,0.0563 0.0106,0.0312 0.0209,0.0624 0.0312,0.0936 0.0148,0.0323 0.0331,0.0627 0.0446,0.0969 0.008,0.0237 0.009,0.0501 0.0138,0.0751 0.0217,0.0732 0.098,0.0491 0.10009,-0.0141 z m -0.44923,2.4459 c 0,10e-4 -0.003,10e-4 -0.003,0.002 0,-0.001 -0.003,-0.002 -0.003,-0.004 0.003,2.6e-4 0.004,0.001 0.006,0.001 z m -0.11438,1.24652 c -0.019,-0.014 -0.0385,-0.026 -0.0585,-0.0365 -0.0833,-0.0759 -0.0964,-0.26287 -0.10708,-0.40633 0.0257,0.0413 0.0504,0.0832 0.0689,0.12967 0.0233,0.0582 0.0594,0.18144 0.0967,0.31314 z m -2.67581,3.14434 c 0.009,0.30323 0.005,0.50166 0.003,0.65242 -0.009,0.007 -0.0164,0.0171 -0.0225,0.0288 -0.0209,-0.11499 -0.0114,-0.10671 -0.0353,-0.49886 -0.0106,-0.17488 -0.0238,-0.34973 -0.0293,-0.52497 -2.6e-4,-0.009 1.9e-4,-0.0172 0,-0.0258 0.0297,0.12253 0.0587,0.24508 0.0848,0.36845 z m -0.28332,-4.12095 c -0.0357,0.12536 -0.0715,0.25061 -0.0989,0.37849 -0.009,0.0137 -0.014,0.0213 -0.0283,0.0446 -0.0209,0.0342 -0.0412,0.0694 -0.0616,0.10435 0.008,-0.1241 0.0161,-0.24816 0.0241,-0.37226 0.0529,-0.0495 0.10832,-0.10064 0.16441,-0.15515 z m -0.12668,4.2961 c -0.003,-0.092 -0.11332,-0.10633 -0.12605,-0.004 -0.0346,0.22479 0.0167,-0.12216 -0.0217,0.20657 -0.008,0.0666 -0.0193,0.13273 -0.0287,0.19907 -0.009,0.0444 0.0421,0.0601 0.051,0.0157 0.022,-0.0612 0.0464,-0.12105 0.0655,-0.1836 0.0132,-0.0433 0.0209,-0.0887 0.0315,-0.13299 0.009,-0.0269 0.0183,-0.054 0.0273,-0.0811 0,-0.006 0,-0.0134 0,-0.0194 z"
       style="fill:#e6e6e6;fill-opacity:1;stroke-width:0.541742;stroke-linecap:round;paint-order:markers stroke fill"
       id="path5552" />
  </g>
</svg>
