<?xml version="1.0" encoding="UTF-8" standalone="no"?>
<svg
   xmlns:dc="http://purl.org/dc/elements/1.1/"
   xmlns:cc="http://creativecommons.org/ns#"
   xmlns:rdf="http://www.w3.org/1999/02/22-rdf-syntax-ns#"
   xmlns:svg="http://www.w3.org/2000/svg"
   xmlns="http://www.w3.org/2000/svg"
   xmlns:sodipodi="http://sodipodi.sourceforge.net/DTD/sodipodi-0.dtd"
   xmlns:inkscape="http://www.inkscape.org/namespaces/inkscape"
   inkscape:export-ydpi="96"
   inkscape:export-xdpi="96"
   inkscape:export-filename="D:\Calcatz\Icon Pack\Adventure Narative Inspired by Arrival\GUI\Alert Box\png\alert_box - background_detail_1.png"
   sodipodi:docname="alert_box - background_detail_1.svg"
   inkscape:version="1.0 (4035a4fb49, 2020-05-01)"
   id="svg1056"
   version="1.1"
   viewBox="0 0 29.168835 9.2294006"
   height="9.2294006mm"
   width="29.168835mm">
  <defs
     id="defs1050" />
  <sodipodi:namedview
     inkscape:window-maximized="1"
     inkscape:window-y="-8"
     inkscape:window-x="-8"
     inkscape:window-height="705"
     inkscape:window-width="1366"
     fit-margin-bottom="0"
     fit-margin-right="0"
     fit-margin-left="0"
     fit-margin-top="0"
     showgrid="false"
     inkscape:document-rotation="0"
     inkscape:current-layer="layer1"
     inkscape:document-units="mm"
     inkscape:cy="29.471663"
     inkscape:cx="70.987819"
     inkscape:zoom="3.7965805"
     inkscape:pageshadow="2"
     inkscape:pageopacity="0.0"
     borderopacity="1.0"
     bordercolor="#666666"
     pagecolor="#ffffff"
     id="base" />
  <metadata
     id="metadata1053">
    <rdf:RDF>
      <cc:Work
         rdf:about="">
        <dc:format>image/svg+xml</dc:format>
        <dc:type
           rdf:resource="http://purl.org/dc/dcmitype/StillImage" />
        <dc:title></dc:title>
      </cc:Work>
    </rdf:RDF>
  </metadata>
  <g
     transform="translate(-91.248918,-143.55196)"
     id="layer1"
     inkscape:groupmode="layer"
     inkscape:label="Layer 1">
    <path
       d="m 100.67951,152.78119 c -0.10391,0.006 -0.15811,-0.1441 -0.042,-0.19959 0.087,0.08 0.063,0.0773 0.13829,-0.18952 0.096,-0.33832 0.1158,-0.68673 0.099,-1.03685 -0.01,-0.19249 -0.059,-0.38144 -0.07,-0.57386 -0.01,-0.13114 0.01,-0.26246 0.015,-0.39372 0,-0.0137 0.01,-0.0253 0.01,-0.0358 -0.1598,-0.1339 -0.3541,-0.21321 -0.5219,-0.203 -0.2262,0.0138 -0.452504,0.0191 -0.678904,0.0135 0.2031,0.29027 0.03,0.0893 0.524804,0.59007 0.041,0.0373 -0.012,0.0943 -0.053,0.057 -0.407904,-0.41028 -0.317304,-0.33507 -0.685904,-0.65455 -0.1577,-0.006 -0.3163,-0.0114 -0.4504,-0.0181 -0.1046,-0.005 -0.1806,0.0824 -0.2456,0.18987 0.1147,0.17141 0.2415,0.34176 0.3667,0.49112 0.069,0.0819 0.1466,0.15583 0.2198,0.23371 0.053,0.0592 -0.031,0.13398 -0.084,0.0747 -0.2185,-0.23098 -0.314,-0.31473 -0.5014,-0.60031 -0.021,-0.0316 -0.04,-0.0642 -0.059,-0.0971 -0.03,0.0568 -0.059,0.11079 -0.088,0.15745 0.076,0.37891 0.1342,0.57348 0.2683,1.08546 0.042,0.34826 -0.4503,0.40779 -0.4924,0.0596 -0.01,-0.22241 0.01,-0.44722 -0.028,-0.66717 -0.031,-0.19889 -0.083,-0.39383 -0.1378,-0.58786 -0.055,-0.0748 -0.1082,-0.15683 -0.1583,-0.23029 -10e-5,5.3e-4 0,0.002 0,0.003 -0.072,0.46244 -0.056,0.27907 -0.064,0.69276 -0.012,0.10097 -0.1552,0.0834 -0.1428,-0.0175 0.054,-0.35254 0.05,-0.29622 0.09,-0.68986 0.01,-0.0432 0.01,-0.0864 0.012,-0.12964 -0.031,-0.0361 -0.059,-0.064 -0.081,-0.0676 -0.6906,-0.11325 -0.4441,-0.27391 -0.7994,-0.44831 -0.1886,-0.005 -0.2692,-0.007 -0.7315,-0.0177 -0.2437,-0.006 -0.4876,-0.0159 -0.7313,-0.0114 -0.063,0.001 -0.2216,0.015 -0.3747,0.0292 0.089,0.0515 0.179,0.10122 0.2701,0.14875 0.2254,0.1176 0.4553,0.22701 0.6866,0.33248 0.01,0.001 0.01,0.001 0.01,0.002 -0.01,-5.3e-4 -0.01,-10e-4 -0.01,-0.002 -0.2388,-0.0927 -0.4829,-0.17219 -0.719,-0.27141 -0.103,-0.0433 -0.2085,-0.0928 -0.3139,-0.14483 -0.022,0.18506 -0.2362,0.3371 -0.4485,0.18407 -0.5938,-0.49944 0.043,0.0553 -0.4744,-0.45189 -0.077,-0.0753 -0.1313,-0.12764 -0.1701,-0.16394 -0.01,-0.0102 -0.014,-0.0203 -0.028,-0.037 -0.082,-0.0836 -0.1868,-0.18982 -0.3445,-0.34221 0,0 -1.4623,-0.89603 -2.297,-0.97048 -0.084,-0.007 -0.174899,-0.54517 -0.061,-0.54452 0.5826,0.004 1.593,-0.46981 2.1207,-0.58802 -0.029,-0.0326 -0.028,-0.0909 0.028,-0.11514 0.044,-0.0181 0.086,-0.0426 0.1317,-0.0543 0.2012,-0.051 0.4928,-0.0813 0.7138,-0.10934 -0.1312,0.0318 -0.2603,0.0728 -0.3881,0.11582 -0.1,0.0337 -0.1931,0.0854 -0.2887,0.13051 0.2282,-0.0624 0.2801,-0.0768 0.3622,-0.0995 0.016,-0.009 0.082,-0.0353 0.3036,-0.11497 0.048,-0.0172 0.096,-0.0325 0.1444,-0.0488 -0.034,0.005 -0.091,0.0113 -0.1328,0.0167 0.044,-0.0105 0.087,-0.0201 0.1313,-0.0283 0.023,-0.004 0.047,-0.008 0.07,-0.0118 0.1226,-0.0408 0.2454,-0.081 0.3682,-0.12129 -0.069,0.0318 -0.1375,0.0633 -0.2062,0.0948 0.073,-0.0107 0.146,-0.0202 0.2192,-0.0292 0.034,-0.0185 0.069,-0.0383 0.1065,-0.0452 0.1291,-0.0234 0.2619,-0.0172 0.3922,-0.0332 0.2061,-0.0253 0.4115,-0.0571 0.617,-0.0873 0.1551,-0.0583 0.3135,-0.12702 0.4716,-0.20266 0.018,-0.0795 0.036,-0.15918 0.045,-0.24002 0.014,-0.11533 0.01,-0.23232 0.012,-0.34834 0.016,-0.30302 0.023,-0.11668 0.014,-0.28898 -0.01,-0.13175 0.1835,-0.13583 0.1864,-0.004 -0.045,0.15466 -0.031,0.089 -0.057,0.31235 -0.019,0.16456 -0.034,0.32941 -0.048,0.49436 0.2122,-0.10688 0.4203,-0.2218 0.6168,-0.33605 0.15209,-0.14701 0.31869,-0.28194 0.43499,-0.45736 0.13591,-0.20481 0.19281,-0.45221 0.2847,-0.68013 0.18381,-0.45538 0.1906,-0.2849 0.13511,-0.57285 -0.019,-0.41313 0.5651,-0.44027 0.5843,-0.0271 -0.073,0.27657 -0.1512,0.61006 -0.27291,0.86028 -0.11509,0.2366 -0.25289,0.46276 -0.40359,0.67843 -0.096,0.13659 -0.1511,0.21387 -0.2174,0.30706 0.074,-0.0311 0.149,-0.0619 0.224,-0.094 0.2391,-0.10231 0.4793,-0.20247 0.7188,-0.30363 0.01,-0.002 0.01,0.004 0.01,0.006 -0.2338,0.11094 -0.4757,0.20598 -0.7013,0.33282 -0.1313,0.0738 -0.2548,0.15807 -0.3763,0.24497 -0.011,0.015 -0.012,0.0162 -0.023,0.0295 0.09,-0.002 0.1807,-0.002 0.2712,0 0.358,-0.19744 0.8299,-0.42264 1.1837,-0.56703 0.2254,-0.2718 0.085,-0.24197 0.4624,-0.46554 0.1241,-0.0737 0.2642,-0.11611 0.3964,-0.17417 0.110394,-0.0415 0.220894,-0.0831 0.331394,-0.12453 0.084,-0.0259 0.1212,0.0937 0.037,0.11959 -0.1059,0.0329 -0.2117,0.0656 -0.317594,0.0984 -0.1198,0.0622 -0.2466,0.1127 -0.3594,0.18662 -0.1013,0.0663 -0.1942,0.14587 -0.2797,0.23166 -0.012,0.0117 -0.022,0.0242 -0.033,0.0367 0.01,-0.001 0.01,-0.004 0.014,-0.005 0.4199,-0.14317 0.857694,-0.22653 1.286594,-0.33981 0.1832,-0.0613 0.2701,0.19778 0.087,0.25913 -0.3966,0.1239 -0.850294,0.24951 -1.286194,0.40566 0.087,0.0143 0.1736,0.0272 0.2613,0.0322 0.134,0.008 1.012794,-0.006 1.200594,-0.008 0.05,0 0.05,0.0711 0,0.0711 -0.1776,-0.011 -0.3549,-0.0353 -0.5327,-0.0329 -0.2232,0.003 -0.445194,0.0342 -0.667894,0.0493 -0.162,0.011 -0.3244,0.0169 -0.4863,0.0292 -0.049,0.004 -0.098,0.0125 -0.1467,0.0188 -0.011,0 -0.022,-0.002 -0.031,-0.004 -0.033,0.0141 -0.065,0.0288 -0.097,0.0435 -0.016,0.0218 -0.031,0.0439 -0.048,0.0647 -0.018,0.0225 -0.041,0.0412 -0.062,0.0617 -0.054,0.054 -0.119,0.0431 -0.1577,0.006 -0.022,0.0118 -0.043,0.0238 -0.065,0.036 0.3292,0.018 0.6584,0.035 0.987,0.0213 2.348294,-0.098 2.530894,-0.20997 2.692794,-0.23797 0.014,-0.006 0.026,-0.0117 0.039,-0.0166 0.1327,-0.0484 0.2736,-0.0727 0.4046,-0.12521 0.1713,-0.0687 0.3334,-0.15832 0.5001,-0.23746 0.1902,-0.0719 0.3805,-0.14389 0.5708,-0.2158 0.6709,-0.2451 0.2871,-0.076 0.7872,-0.34425 0.053,-0.0283 0.1071,-0.0538 0.1607,-0.0807 0.1098,-0.0477 0.1772,0.10771 0.067,0.15541 -0.3317,0.10604 -0.664,0.21057 -0.9891,0.33623 -0.1846,0.0854 -0.3673,0.17506 -0.5539,0.25606 -0.085,0.037 -0.1725,0.0699 -0.2595,0.1032 0.1159,-0.0222 0.2313,-0.0518 0.3489,-0.0519 0.1871,-1.3e-4 0.3731,0.0321 0.5596,0.0502 -0.1795,0.0236 -0.3578,0.0605 -0.536,0.0925 -0.1706,0.0306 -0.3374,0.076 -0.5036,0.12317 0.3435,0.041 0.8926,0.10732 1.9157,0.21528 0,0 1e-4,-1.7e-4 1e-4,-1.7e-4 0.3206,-0.1145 0.6294,-0.25878 0.9477,-0.37888 0.1702,-0.0642 0.3431,-0.12095 0.5153,-0.17963 -0.4002,0.15383 -0.7003,0.26126 -1.0972,0.46997 -0.039,0.0204 -0.076,0.0437 -0.1126,0.0677 0.6285,-0.0513 1.383,-0.12174 2.1608,-0.16496 0.09,-0.005 0.1816,-0.0356 0.2733,-0.0766 0.051,-0.10172 0.2494,-0.50006 0.2564,-0.51605 0.042,-0.0948 0.075,-0.19334 0.1126,-0.28999 0.036,-0.0929 0.072,-0.18583 0.1085,-0.27875 0.01,-0.062 0.02,-0.12411 0.029,-0.18612 0.02,-0.10576 0.1693,-0.0779 0.1496,0.0278 -0.024,0.064 -0.05,0.12805 -0.074,0.19209 -0.08,0.28539 -0.076,0.32551 -0.2105,0.58904 -0.05,0.0973 -0.1204,0.18356 -0.1648,0.28335 -0.014,0.0297 -0.024,0.0603 -0.034,0.0913 0.1749,-0.0951 0.3492,-0.19966 0.5168,-0.22159 0.1416,-0.0671 0.3109,-0.12261 0.5526,-0.17536 0.015,-0.003 0.029,-0.006 0.044,-0.009 0.058,-0.0708 0.1126,-0.1411 0.1617,-0.20778 0.066,-0.0896 0.1363,-0.17843 0.1835,-0.27926 0.034,-0.0723 0.037,-0.15522 0.056,-0.23285 0.049,-0.11899 0.217,-0.0499 0.1682,0.0691 -0.1147,0.21342 -0.1598,0.31594 -0.3182,0.51722 -0.02,0.0246 -0.054,0.0647 -0.086,0.10133 0.4699,-0.0819 0.9499,-0.10488 1.4228,-0.17058 0.4547,-0.0632 0.9081,-0.13648 1.3621,-0.20472 0.205,-0.0263 0.2422,0.26366 0.037,0.29001 -0.7324,0.0969 -2.2052,0.26158 -2.8818,0.48549 -0.067,0.022 -0.1315,0.0545 -0.1955,0.0914 0.2906,-0.0143 -0.1461,0.0424 0.681,-0.0609 0.1809,-0.0226 0.3596,-0.0636 0.5415,-0.0752 0.1756,-0.0112 0.3519,0.005 0.5279,0.007 0.1981,-0.002 0.3963,-0.004 0.5943,-0.006 0.058,0.002 0.056,0.0832 0,0.0817 -0.1968,-2.7e-4 -0.3937,-5.3e-4 -0.5905,-0.001 -0.1754,-0.0156 -0.3503,-0.0557 -0.5262,-0.0465 -0.1814,0.009 -0.3566,0.0698 -0.5355,0.10184 -0.1652,0.0296 -0.3315,0.0537 -0.4967,0.0836 0.2578,0.0107 0.5015,0.0305 0.723,0.0623 0.6606,0.0948 1.2788,0.42803 1.9331,0.56806 0.4542,0.0972 0.9196,0.1153 1.3814,0.14125 0.041,0.002 0.072,0.004 0.11,0.006 0.01,-0.002 0.01,-0.004 0.01,-0.006 0.3751,-0.0861 0.3565,-0.0831 0.44,-0.0949 0.061,-0.0133 0.1214,-0.0273 0.182,-0.0415 -0.022,0.008 -0.043,0.0157 -0.064,0.0237 0.088,-0.0141 0.2213,-0.0362 0.4502,-0.0768 0.3284,-0.0582 0.6534,-0.13745 0.9841,-0.18185 1.2256,-0.1646 1.8835,-0.12445 3.20712,-0.19822 0.72748,-0.0405 1.45408,-0.10044 2.18108,-0.15063 0.018,-0.002 0.02,0.0239 0,0.0254 -0.7254,0.0628 -1.4529,0.10546 -2.17628,0.18833 -1.10542,0.12662 -2.06232,0.27834 -3.12232,0.5423 -0.1845,0.0459 -0.3308,0.0849 -0.4588,0.12112 0.082,0.006 0.1643,0.0191 0.2469,0.0216 0.089,0.002 0.179,0.002 0.2685,0.002 -0.1256,0.007 -0.2613,0.0185 -0.3844,0.0304 0.5368,0.19103 1.0558,0.47004 2.1297,0.4338 0.2475,-0.008 0.4497,0.44309 0.3287,0.46367 -0.7333,0.1246 -1.6714,0.84275 -2.3465,1.01652 0.341,-0.009 0.6822,0.001 1.0233,-5.3e-4 0.5575,-0.002 0.6884,-0.011 0.7903,-0.0106 -0.2635,0.0122 -0.52659,0.0349 -0.7903,0.0384 -0.3468,0.004 -0.6937,-0.007 -1.0403,-0.0172 -0.01,-2.6e-4 -0.016,-5.3e-4 -0.025,-0.001 -0.073,0.0166 -0.1445,0.0282 -0.2106,0.0293 -0.2166,0.0329 -0.4365,0.046 -0.6501,0.0986 -0.3313,0.0816 -0.6494,0.22527 -0.981,0.30382 0.019,0.0121 0.037,0.0248 0.056,0.037 0,0 2e-4,-1.7e-4 2e-4,-1.7e-4 0.014,-0.01 0.033,-0.0147 0.056,-0.0101 0.442,0.12001 0.6275,0.18145 0.9761,0.23746 -0.41,-0.0343 -0.4455,-0.0383 -0.8148,-0.0839 0.2179,0.14589 0.4356,0.29244 0.6664,0.41436 0.1682,0.0741 0.352,0.14239 0.4833,0.18117 0.3742,0.11061 0.8157,0.19225 1.2034,0.23968 0.1273,0.0156 0.2559,0.0174 0.3839,0.0261 0,9e-5 0,0.002 0,0.002 -0.128,-0.009 -0.2565,-0.0115 -0.3839,-0.0272 -0.3731,-0.0458 -0.8453,-0.13036 -1.2052,-0.23559 -0.1416,-0.0414 -0.277,-0.10166 -0.4153,-0.15318 0.029,0.0145 0.058,0.0294 0.087,0.043 0.4555,0.21109 0.9403,0.35471 1.4224,0.49419 1.1954,0.34584 1.6156,0.3631 2.81472,0.53019 0.1549,0.0163 0.1318,0.23539 -0.023,0.21904 -0.4596,-0.0592 -0.92392,-0.0889 -1.37872,-0.17776 -0.8356,-0.16327 -2.1368,-0.56641 -2.9336,-0.8613 -0.4162,-0.15404 -0.8864,-0.34788 -1.3328,-0.56192 -0.024,-0.006 -0.049,-0.0112 -0.073,-0.0166 0.034,0.0778 0.069,0.15582 0.1053,0.23218 0.1095,-0.002 0.099,-0.002 0.2956,-0.006 0.016,-2.7e-4 0.017,0.0223 0,0.0225 -0.1383,0.004 -0.1915,0.006 -0.2838,0.008 0.035,0.0724 0.071,0.14464 0.1127,0.21648 0.1015,0.17495 0.2723,0.39812 0.3934,0.5626 0.055,0.0794 -0.057,0.15772 -0.1124,0.0783 -0.3575,-0.46273 -0.074,-0.0577 -0.3642,-0.5928 -0.082,-0.15048 -0.1183,-0.2153 -0.1454,-0.26117 -0.5091,0.0153 -0.3387,0.0107 -1.3403,-0.0102 -0.1066,-0.002 -0.2131,-0.006 -0.3196,-0.01 0.098,0.002 0.1569,0.002 0.3201,0.007 0.9118,-0.006 0.9662,-0.006 1.3255,-0.0135 -0.079,-0.13089 0.045,0.13415 -0.2095,-0.27976 -0.034,-0.006 -0.068,-0.0125 -0.1012,-0.0181 0.025,0.0275 0.012,0.0814 -0.039,0.0814 -0.1159,-0.004 -0.2317,-0.0142 -0.3477,-0.0126 -0.1135,0.002 -0.2268,0.0139 -0.3401,0.0223 -0.1543,0.0115 -0.3084,0.0281 -0.4626,0.0413 -0.1185,0 -0.1185,-0.16752 0,-0.16752 0.027,0.004 0.055,0.0101 0.082,0.0123 0.05,0.004 0.1005,0.004 0.1508,0.006 0.076,0.003 0.1517,0.006 0.2275,0.0102 0.1141,0.007 0.2279,0.0278 0.3422,0.0263 0.1057,-0.002 0.2103,-0.0192 0.3154,-0.0314 -0.813,-0.12613 -1.4405,-0.0423 -2.5633,0.0643 -0.083,0.008 -0.1589,0.0359 -0.2299,0.0728 0.013,0.007 0.025,0.0147 0.039,0.021 0,0.001 0.01,0.002 0.01,0.004 0.1072,0.0116 0.2173,0.0224 0.3434,0.0394 0.8269,0.1111 0.5606,0.10236 0.9713,0.10986 -0.1043,-0.002 -0.2087,-0.006 -0.313,-0.006 -0.1921,2.6e-4 -0.384,0.019 -0.576,0.0212 0.2668,0.0911 0.5536,0.17311 0.7704,0.2262 0.1263,0.0309 0.2557,0.0466 0.3836,0.0699 0.088,0.0185 0.1489,0.0623 0.1867,0.11686 0.034,0.0145 0.069,0.0276 0.1071,0.0377 0.2333,0.0613 0.4879,0.0883 0.7259,0.10508 0.1473,0.0104 0.2951,0.0109 0.4427,0.0164 0,4e-5 0,0.001 -2e-4,0.001 -0.1475,-0.005 -0.2953,-0.005 -0.4426,-0.0152 -0.2257,-0.0158 -0.5011,-0.0527 -0.7298,-0.0906 -0.027,-0.004 -0.054,-0.0102 -0.081,-0.0157 0.083,0.1806 -0.05,0.43728 -0.321,0.38059 -0.1774,-0.0545 -0.3542,-0.11076 -0.5307,-0.16769 0.031,0.0554 0.066,0.10861 0.1076,0.16018 0.058,0.0715 0.1245,0.13697 0.1916,0.20044 0.018,0.0174 0.037,0.0343 0.056,0.0515 -0.02,-0.017 -0.034,-0.0294 -0.058,-0.0502 -0.145,-0.13017 -0.2175,-0.2174 -0.3374,-0.36215 -0.01,-0.006 -0.01,-0.0116 -0.015,-0.0174 -0.3641,-0.11784 -0.727,-0.23941 -1.0899,-0.36096 -0.1053,-0.0353 -0.2007,-0.0663 -0.2965,-0.0988 0.018,0.0187 0.018,0.0204 0.043,0.0462 0.084,0.087 0.1694,0.17266 0.2559,0.25708 0.2326,0.22685 0.3264,0.32816 0.5954,0.50256 0.073,0.0474 0.154,0.0817 0.231,0.12265 0.039,0.008 0.078,0.0154 0.1177,0.0231 0.12791,0.068 0.032,0.24899 -0.096,0.181 -0.034,-0.0271 -0.068,-0.0543 -0.1027,-0.0814 -0.065,-0.062 -0.123,-0.13114 -0.1937,-0.18594 -0.9123,-0.70628 0.3184,0.33478 -0.6488,-0.45854 -0.4109,-0.33699 -0.133,-0.14184 -0.4712,-0.43535 -0.036,-0.0316 -0.078,-0.0566 -0.1169,-0.085 -0.01,-0.002 -0.01,-0.004 -0.01,-0.007 -1.2412,-0.35314 -1.6734,-0.19254 -1.8974,0.16154 0.055,0.0166 0.1103,0.0336 0.1656,0.0503 0.1276,5.3e-4 0.2554,-0.003 0.3829,5.3e-4 0.5007,0.0147 0.6017,0.0261 0.9388,0.0667 0.018,-0.0102 0.041,-0.0137 0.068,-0.004 0.015,0.007 0.018,0.009 0.029,0.0152 0.077,0.009 0.1435,0.0175 0.2503,0.0297 0.02,0.002 0.016,0.0299 -0.01,0.0278 -0.053,-0.004 -0.105,-0.008 -0.1575,-0.0119 0.048,0.0237 0.057,0.0213 0.2485,0.0838 0.066,0.0186 0.039,0.11105 -0.026,0.0925 -0.2929,-0.0814 -0.1607,-0.0523 -0.3948,-0.0955 -0.05,-0.0185 -0.061,-0.0624 -0.048,-0.0976 -0.1052,-0.008 -0.2106,-0.0156 -0.3158,-0.024 -0.1967,-0.0158 -0.3925,-0.0466 -0.5898,-0.0502 -0.103,-0.002 -0.1899,-1.1e-4 -0.2695,0.004 0.015,0.005 0.029,0.009 0.044,0.0143 0.1426,0.0535 0.2742,0.13547 0.4197,0.18066 0.7695,0.17457 0.4059,0.0692 1.0937,0.30655 0.1081,0.001 0.2163,0.002 0.3246,0.002 0.089,0.0115 0.073,0.13753 -0.016,0.12607 -0.1092,-0.0185 -0.2184,-0.037 -0.3277,-0.0554 -0.89801,-0.30051 -0.09,-0.0411 -1.0904,-0.32667 -0.1453,-0.0415 -0.2877,-0.093 -0.43341,-0.13289 -0.1177,-0.0322 -0.23659,-0.058 -0.35569,-0.0832 0,6e-5 0,1.1e-4 0,1.8e-4 -0.012,0.0249 -0.024,0.05 -0.035,0.0761 0.052,0.0367 0.1035,0.0728 0.1568,0.10696 0.39111,0.25069 0.80141,0.47018 1.2006,0.70777 0.36581,0.21769 0.72951,0.43861 1.09441,0.65797 0.1432,0.0818 0.028,0.2845 -0.1157,0.20265 -2.57541,-1.45612 0.4332,0.21045 -2.37221,-1.22824 -0.1,-0.0511 -0.19759,-0.10596 -0.29499,-0.16189 -0.17931,-0.048 -0.4312,-0.17946 -0.6843,-0.29887 0.034,0.0375 0.068,0.0746 0.1014,0.11276 0.1293,0.14865 0.2406,0.31397 0.3827,0.45052 0.13459,0.12947 0.2906,0.23521 0.443,0.34323 0.262,0.18572 0.2918,0.19248 0.51859,0.30075 0.10041,0.0589 0.017,0.20085 -0.083,0.14193 -0.05,-0.0424 -0.10039,-0.0834 -0.14879,-0.12709 -0.10471,-0.0945 -0.2008,-0.19863 -0.31041,-0.28727 -0.14639,-0.11825 -0.31199,-0.21152 -0.45609,-0.33248 -0.1509,-0.12678 -0.2804,-0.27725 -0.42701,-0.40907 -0.12339,-0.11111 -0.2579,-0.20934 -0.38259,-0.31917 -0.015,-0.0136 -0.029,-0.0284 -0.044,-0.0428 -0.1115,-0.0365 -0.2145,-0.0586 -0.3,-0.0539 -0.012,-0.002 -0.023,-0.003 -0.034,-0.004 0.01,0.007 0.015,0.0148 0.021,0.0201 0.056,0.0455 0.123,0.0746 0.1846,0.1119 0.01,0.006 0,0.017 -0.01,0.0116 -0.063,-0.0366 -0.1283,-0.0692 -0.1887,-0.10986 -0.022,-0.015 -0.04,-0.0278 -0.057,-0.0404 -0.1433,-0.0196 -0.2865,-0.0336 -0.4293,-0.0423 0.026,0.009 0.052,0.0174 0.077,0.0261 0.071,0.0143 0.052,0.11528 -0.02,0.10099 -0.064,-0.008 -0.1277,-0.0157 -0.1916,-0.0236 -0.064,-0.0107 -0.077,-0.0727 -0.051,-0.1114 -0.2406,-0.008 -0.4809,-0.002 -0.7209,0.0123 0.01,0.009 0.012,0.019 0.018,0.028 0.077,0.10696 0.2015,0.2612 0.3171,0.39679 0.2336,0.0971 0.4747,0.17552 0.7232,0.22757 0.099,0.0207 0.2009,0.0161 0.3014,0.024 0.101,0.0217 0.07,0.16461 -0.031,0.14296 -0.6829,-0.21785 0.1835,0.0604 -0.8171,-0.27107 -0.033,-0.0107 -0.065,-0.0205 -0.098,-0.0309 0.045,0.0514 0.086,0.0964 0.1178,0.1288 0.1278,0.13106 0.2697,0.2477 0.4045,0.37154 0.02,0.0162 -0.01,0.0437 -0.023,0.0275 -0.4406,-0.33716 -0.4241,-0.31232 -0.7365,-0.60372 -0.076,-0.024 -0.1512,-0.048 -0.2258,-0.0749 -0.132,-0.0477 -0.2578,-0.11138 -0.3891,-0.16122 -0.036,-0.0138 -0.074,-0.0251 -0.1112,-0.036 -0.1087,0.009 -0.2172,0.0188 -0.3255,0.0316 0.01,0.006 0.013,0.0125 0.02,0.0191 0.036,0.033 0.078,0.059 0.1162,0.0885 0.023,0.0223 -0.01,0.0552 -0.031,0.0329 -0.04,-0.0458 -0.081,-0.0921 -0.1223,-0.13869 -0.013,0.002 -0.026,0.002 -0.038,0.004 -0.2121,0.0283 -0.4215,0.0749 -0.633,0.10764 0.2052,0.11506 0.2835,0.13689 0.677,0.30843 0.1799,0.0128 0.3598,0.0254 0.5398,0.0382 0.063,0.0102 0.049,0.0999 -0.015,0.0897 -0.178,-0.034 -0.3558,-0.068 -0.5338,-0.10201 -0.1548,-0.0478 -0.5314,-0.15666 -0.8005,-0.2552 0.085,0.11663 0.1872,0.22093 0.2886,0.32395 0.4014,0.40777 0.5041,0.45206 0.9828,0.80484 0.2083,0.11624 0.044,0.41085 -0.1645,0.29461 -0.2332,-0.11242 -0.4845,-0.1932 -0.6996,-0.33726 -0.182,-0.12191 -0.3141,-0.30569 -0.4778,-0.45121 -0.1459,-0.12964 -0.2358,-0.20319 -0.2955,-0.24957 0.01,0.0256 0.015,0.051 0.026,0.0754 0.05,0.11635 0.1839,0.31657 0.2722,0.39952 0.053,0.0493 0.1206,0.0783 0.1809,0.11754 0.088,0.0652 -0.01,0.19022 -0.092,0.12504 -0.2517,-0.18125 -0.1819,-0.10799 -0.3954,-0.36608 -0.029,-0.036 -0.062,-0.0707 -0.092,-0.10679 0.1116,0.37879 0.3465,0.94617 0.4219,1.35055 0.016,0.0883 0,0.17958 -0.01,0.26936 0,0.4073 -0.5775,0.40491 -0.5759,-0.002 0.061,-0.39812 0.013,0.0272 -0.06,-0.72551 -0.028,-0.28744 -0.01,-0.5802 -0.051,-0.86489 -0.01,-0.0372 -0.015,-0.0739 -0.023,-0.11089 -0.017,0.15633 -0.021,0.25625 -0.029,0.61975 -0.01,0.19663 0.01,0.39336 0,0.58991 -0.01,0.0766 -0.029,0.58619 -0.091,0.72397 -0.02,0.0447 -0.072,0.0663 -0.1078,0.0995 -0.016,0.008 -0.033,0.012 -0.047,0.0128 z m 10.05469,-2.04742 c 0.1603,0.13994 0.219,0.17257 0.4214,0.30689 0,-0.001 0,0.001 0,0.002 -0.077,-0.0492 -0.15839,-0.0923 -0.2314,-0.14739 -0.066,-0.0499 -0.1281,-0.10489 -0.18919,-0.16104 z m 0.023,-1.09245 c 0.056,0.001 0.1114,0.002 0.1671,0.004 -0.052,-0.001 -0.1293,-0.003 -0.1671,-0.004 z m 3.3257,-0.26919 c 0.1035,0.009 0.1889,0.0156 0.383,0.0329 0.3074,0.0275 0.6137,0.0685 0.9219,0.0862 0.01,5.3e-4 0.019,5.3e-4 0.029,0.001 -0.01,-2.6e-4 -0.019,-5.3e-4 -0.029,-0.001 -0.3086,-0.0148 -0.6176,-0.0315 -0.9245,-0.0675 -0.1512,-0.0178 -0.2729,-0.0346 -0.3804,-0.0519 z m 1.3335,0.12044 c 0.2672,0.0124 0.5346,0.0188 0.8022,0.0213 -0.258,-5.3e-4 -0.5189,-0.006 -0.8022,-0.0213 z m 0.8022,0.0213 c 0.114,2.6e-4 0.2297,1.4e-4 0.3442,-0.001 -0.06,0.001 -0.1199,0.003 -0.1798,0.003 -0.055,-8e-5 -0.1096,-0.002 -0.1644,-0.002 z m 0.3442,-0.001 c 0.2387,-0.004 0.4775,-0.0127 0.7161,-0.0186 0.01,0 0.01,0.009 0,0.009 -0.2521,0.003 -0.4855,0.007 -0.7161,0.009 z m 0.1286,-0.85704 c 0.024,-0.001 0.048,-0.003 0.072,-0.004 0.1708,-0.006 0.3415,-0.006 0.5123,-0.009 0.037,0 0.037,0.0532 0,0.0532 -0.414,-0.0311 -0.4855,-0.04 -0.5848,-0.0404 z m -1.5411,-1.93328 c 0.063,-0.004 0.1233,-0.006 0.1723,-0.007 0.1182,-0.002 0.2365,-2.6e-4 0.3547,0.002 -0.1182,0.001 -0.2365,0.003 -0.3547,0.004 -0.058,1.3e-4 -0.1148,0.001 -0.1723,0.001 z m 0.527,-0.005 c 0.1038,-10e-4 0.2075,-0.002 0.3113,2.6e-4 0.5723,0.0117 0.9478,0.0407 1.4717,0.0776 -0.5704,-0.0356 -0.7887,-0.0515 -1.4717,-0.0703 -0.1038,-0.003 -0.2075,-0.006 -0.3113,-0.008 z m 1.783,0.0781 c 0.069,0.004 0.096,0.006 0.17822,0.0109 0.1716,0.0172 0.3431,0.0345 0.5147,0.0517 -1e-4,0 0,5.3e-4 0,5.3e-4 -0.1716,-0.017 -0.3431,-0.034 -0.5147,-0.051 -0.069,-0.005 -0.11472,-0.008 -0.17822,-0.0123 z m -3.8282,-0.39013 c 0.085,-0.0312 0.1702,-0.0617 0.2564,-0.0901 0.2072,-0.0683 0.4174,-0.12818 0.6284,-0.18424 -0.2063,0.0716 -0.4113,0.14729 -0.6213,0.20726 -0.087,0.0249 -0.1752,0.0465 -0.2635,0.067 z m 0.8848,-0.27431 c 0.054,-0.0187 0.1074,-0.0383 0.1616,-0.0558 0.055,-0.0178 0.1101,-0.0343 0.1652,-0.0513 -0.439,-0.0506 -0.8183,-0.0964 -1.1968,-0.13015 0.042,0.002 0.083,0.005 0.1252,0.008 0.3608,0.029 0.7196,0.0766 1.079,0.11992 0.1336,-0.041 0.2677,-0.0812 0.4014,-0.12214 0.048,-0.0129 0.066,0.0548 0.018,0.0677 -0.1119,0.0227 -0.2245,0.0426 -0.3366,0.0645 0.038,0.004 0.076,0.01 0.1142,0.0138 0,1.8e-4 0,0.002 0,0.002 -0.044,-0.005 -0.08,-0.009 -0.1225,-0.0142 -0.082,0.016 -0.1633,0.0329 -0.244,0.0532 -0.055,0.0139 -0.1099,0.0297 -0.1649,0.0443 z m -0.87,-0.23729 c -0.3699,-0.0247 -0.7409,-0.0306 -1.1112,-0.0495 -0.036,-0.002 -0.072,-0.004 -0.1085,-0.007 0.036,-5.3e-4 0.075,-0.002 0.1087,-0.002 0.42,0.006 0.7697,0.0275 1.111,0.058 z m -1.2197,-0.0561 c -0.2859,0.004 -0.6257,0.0371 -0.9101,0.079 -0.043,0.006 -0.086,0.0167 -0.1288,0.0251 -0.1028,0.0172 -0.127,-0.12817 -0.024,-0.14551 0.557,0.0349 -0.5815,-0.0331 0.463,0.007 0.2002,0.008 0.4002,0.0228 0.6002,0.0348 z m -6.1901,-0.41419 c 0.028,-0.0105 0.052,-0.0196 0.08,-0.0307 -0.01,0.001 0,0.004 0,0.003 -0.027,0.009 -0.054,0.0183 -0.081,0.0275 z m -2.3393,0.12776 c 0.07,-0.009 0.1406,-0.0168 0.2113,-0.0208 0.105,-0.006 0.2099,2.6e-4 0.3148,0.01 -0.1042,0.0129 -0.2086,0.0232 -0.3134,0.0232 -0.071,-4e-5 -0.142,-0.005 -0.2127,-0.012 z m 0.5261,-0.0112 c 0.1025,-0.0127 0.2048,-0.0279 0.3074,-0.038 0.046,0 0.046,0.0648 0,0.0648 -0.1025,-0.006 -0.205,-0.0178 -0.3074,-0.0268 z m -9.560604,0.75929 c 0.02,-0.009 0.039,-0.018 0.059,-0.0272 -0.01,0.002 -0.01,0.009 0.01,0.007 -0.02,0.007 -0.041,0.0134 -0.062,0.0201 z m -0.8344,2.92254 c 0.092,0.12923 -0.2233,-0.20908 0,0 z m 2.1301,0.8497 c 0.4505,0.1749 0.7007,0.27731 1.0015,0.40192 -0.3303,-0.0916 -0.3563,-0.10769 -1.0015,-0.40192 z m 1.0015,0.40192 c 0.098,0.0271 0.2133,0.0584 0.3912,0.10883 0.033,0.0112 0.017,0.0576 -0.016,0.0464 -0.1621,-0.0672 -0.2581,-0.10673 -0.3752,-0.15524 z m 5.043604,1.25826 c -0.02,1.2e-4 -0.043,-0.006 -0.065,-0.0215 -0.1216,-0.0805 -0.066,-0.0373 -0.1689,-0.12828 -0.07,-0.14608 0.1364,-0.24519 0.2066,-0.0991 0.033,0.0497 0.01,0.0269 0.077,0.059 0.097,0.0658 0.039,0.18935 -0.05,0.18987 z m 5.4115,-1.16325 c -0.01,2.6e-4 -0.014,-5.3e-4 -0.021,-0.004 -0.2794,-0.0893 -0.1513,-0.0364 -0.3868,-0.1525 -0.082,-0.0544 -0.01,-0.16972 0.077,-0.11532 0.2105,0.12003 0.097,0.0587 0.341,0.18202 0.053,0.0193 0.035,0.0874 -0.01,0.0894 z m 2.5629,-0.15029 c -0.01,1e-4 -0.011,-0.001 -0.017,-0.003 -0.3656,-0.0931 -0.2072,-0.0388 -0.4805,-0.14705 -0.096,-0.0577 -0.015,-0.19385 0.082,-0.13613 0.2211,0.16869 0.085,0.0862 0.4251,0.21579 0.042,0.0163 0.027,0.0699 -0.01,0.0706 z m -6.7829,-0.35909 c -0.08,-0.0774 -0.1573,-0.15889 -0.2244,-0.24769 -0.059,0.005 -0.1187,0.0107 -0.178,0.0166 0.1307,0.0827 0.2647,0.16024 0.4024,0.23115 z m -1.3576,-0.0551 c 0.1078,-5.3e-4 0.2241,-0.006 0.4381,-0.0174 0.01,-5.3e-4 0.018,-0.002 0.028,-0.002 -0.027,-0.0306 -0.054,-0.061 -0.08,-0.0911 -0.064,0.008 -0.1286,0.0165 -0.1928,0.0253 -0.092,0.0126 -0.2626,0.0212 -0.4328,0.0819 0.082,0.002 0.1734,0.004 0.2404,0.004 z m 0.4821,-0.0206 c 0.1063,-0.007 0.2125,-0.0153 0.3186,-0.0245 -0.021,-0.006 -0.043,-0.0122 -0.064,-0.0188 -0.042,-0.0185 -0.061,-0.0494 -0.067,-0.0815 -0.092,0.0107 -0.1844,0.0218 -0.2765,0.0338 0.027,0.0301 0.056,0.0606 0.088,0.0911 z m 5.8817,-0.0955 c -0.01,-0.002 -0.01,-0.001 -0.01,-0.002 0.01,0.001 0.01,5.3e-4 0.01,0.002 0,0 0,0.001 0,0.001 z m -0.01,-0.002 c -0.3177,-0.0949 -0.1943,-0.0432 -0.4069,-0.14313 -0.037,-0.0317 0.01,-0.0846 0.045,-0.0529 v 0 c 0.17959,0.12599 0.073,0.058 0.36159,0.19601 z m -11.369304,-0.3004 c -0.028,-0.0134 -0.057,-0.0269 -0.093,-0.0404 -0.01,-0.002 -0.01,-0.003 -0.015,-0.005 0.01,5.3e-4 0.01,0.002 0.01,0.002 -0.056,-0.0208 -0.12629,-0.0419 -0.2055,-0.0629 0.065,0.0207 0.1308,0.0409 0.1965,0.0606 -0.095,-0.0248 -0.1893,-0.0496 -0.2839,-0.0744 -0.1174,-0.0309 -0.106,-0.0279 -0.1712,-0.0452 -0.2352,-0.0474 -0.53899,-0.0949 -0.9541,-0.14211 -0.3169,-0.0361 -0.5428,-0.0407 -0.714,-0.0308 0.043,0.038 0.094,0.0685 0.1998,0.14467 0.037,0.0271 0.066,0.0573 0.086,0.0891 0.026,0.003 0.053,0.007 0.08,0.009 0.137199,0.0115 0.274799,0.0188 0.41211,0.028 0.24379,0.0162 0.48739,0.0383 0.73149,0.0485 0.2407,0.01 0.481399,0.0138 0.7223,0.0183 z m -2.73759,-3.01277 c 0.095,-0.0124 0.2589,-0.0398 0.5141,-0.0879 -0.018,-0.0334 -0.011,-0.0797 0.038,-0.10082 h 1.9e-4 c 0.012,-0.006 0.023,-0.0118 0.034,-0.0179 -0.085,0.0155 -0.170711,0.0312 -0.256211,0.0464 -0.10189,0.0469 -0.20349,0.0944 -0.30359,0.145 -0.01,0.005 -0.018,0.0104 -0.027,0.0152 z m 0.72641,-0.12965 c 0.14839,-0.0288 0.278,-0.0534 0.4826,-0.095 0.094,-0.0192 0.1925,-0.0472 0.2922,-0.0788 -0.073,0.007 -0.17031,0.017 -0.2604,0.0263 -0.18041,0.04 -0.35961,0.0872 -0.50231,0.14176 -0.01,0.002 -0.01,0.004 -0.012,0.006 z m 0.66269,-0.1781 c 0.056,-0.005 0.111,-0.009 0.1649,-0.0131 0.04,-0.0132 0.079,-0.0252 0.1195,-0.0401 -0.089,0.0153 -0.1835,0.033 -0.2844,0.0532 z"
       style="fill:#e6e6e6;fill-opacity:1;stroke:none;stroke-width:0.419121;stroke-linecap:round;stroke-opacity:1;paint-order:markers stroke fill"
       id="path5556" />
  </g>
</svg>
