<?xml version="1.0" encoding="UTF-8" standalone="no"?>
<svg
   xmlns:dc="http://purl.org/dc/elements/1.1/"
   xmlns:cc="http://creativecommons.org/ns#"
   xmlns:rdf="http://www.w3.org/1999/02/22-rdf-syntax-ns#"
   xmlns:svg="http://www.w3.org/2000/svg"
   xmlns="http://www.w3.org/2000/svg"
   xmlns:sodipodi="http://sodipodi.sourceforge.net/DTD/sodipodi-0.dtd"
   xmlns:inkscape="http://www.inkscape.org/namespaces/inkscape"
   inkscape:export-ydpi="96"
   inkscape:export-xdpi="96"
   inkscape:export-filename="D:\Calcatz\Icon Pack\Adventure Narative Inspired by Arrival\GUI\Alert Box\png\alert_box - background_silhouette.png"
   sodipodi:docname="alert_box - background_silhouette.svg"
   inkscape:version="1.0 (4035a4fb49, 2020-05-01)"
   id="svg3985"
   version="1.1"
   viewBox="0 0 106.64309 75.725731"
   height="75.725731mm"
   width="106.64309mm">
  <defs
     id="defs3979">
    <filter
       height="1.3372782"
       y="-0.16863909"
       width="1.7634805"
       x="-0.3817403"
       id="filter3482"
       style="color-interpolation-filters:sRGB"
       inkscape:collect="always">
      <feGaussianBlur
         id="feGaussianBlur3484"
         stdDeviation="3.9789513"
         inkscape:collect="always" />
    </filter>
    <filter
       height="1.3372782"
       y="-0.16863909"
       width="1.7634805"
       x="-0.3817403"
       id="filter3478"
       style="color-interpolation-filters:sRGB"
       inkscape:collect="always">
      <feGaussianBlur
         id="feGaussianBlur3480"
         stdDeviation="3.9789513"
         inkscape:collect="always" />
    </filter>
  </defs>
  <sodipodi:namedview
     inkscape:window-maximized="1"
     inkscape:window-y="-8"
     inkscape:window-x="-8"
     inkscape:window-height="705"
     inkscape:window-width="1366"
     fit-margin-bottom="0"
     fit-margin-right="0"
     fit-margin-left="0"
     fit-margin-top="0"
     showgrid="false"
     inkscape:document-rotation="0"
     inkscape:current-layer="layer1"
     inkscape:document-units="mm"
     inkscape:cy="29.148588"
     inkscape:cx="153.72919"
     inkscape:zoom="0.67114695"
     inkscape:pageshadow="2"
     inkscape:pageopacity="0.0"
     borderopacity="1.0"
     bordercolor="#666666"
     pagecolor="#ffffff"
     id="base" />
  <metadata
     id="metadata3982">
    <rdf:RDF>
      <cc:Work
         rdf:about="">
        <dc:format>image/svg+xml</dc:format>
        <dc:type
           rdf:resource="http://purl.org/dc/dcmitype/StillImage" />
        <dc:title></dc:title>
      </cc:Work>
    </rdf:RDF>
  </metadata>
  <g
     transform="translate(-39.715704,-123.76964)"
     id="layer1"
     inkscape:groupmode="layer"
     inkscape:label="Layer 1">
    <path
       sodipodi:nodetypes="sssssssssssss"
       id="path5508"
       d="m -623.19234,173.4312 c -5.58298,-2.79135 6.20677,-11.1985 6.92226,-17.39925 0.72285,-6.26449 -4.21995,-12.5633 -2.80632,-18.70887 1.77985,-7.73764 5.68392,-21.19669 13.47038,-19.64431 8.31249,1.65725 5.56737,16.4131 5.23849,24.88279 -0.21362,5.50134 -4.23029,10.35987 -4.64561,15.84967 -0.38111,5.03762 6.86282,13.55997 2.02637,15.01997 -3.77576,1.1398 -1.25394,-11.10732 -5.17052,-10.64263 -3.8603,0.45801 1.38236,11.58585 -2.50013,11.39098 -5.39256,-0.27066 3.51462,-15.70298 -1.87086,-16.08963 -5.34112,-0.38347 1.19843,16.18543 -4.11597,15.52836 -3.53093,-0.43656 3.29151,-9.73121 -0.13952,-10.67253 -3.95029,-1.08378 -2.74472,12.31728 -6.40857,10.48545 z"
       style="fill:#000000;fill-opacity:0.104839;stroke:none;stroke-width:0.264583px;stroke-linecap:butt;stroke-linejoin:miter;stroke-opacity:1;filter:url(#filter3478)"
       transform="matrix(-1,0,0,1,-487.87898,15.76379)" />
    <path
       style="fill:#000000;fill-opacity:0.104839;stroke:none;stroke-width:0.264583px;stroke-linecap:butt;stroke-linejoin:miter;stroke-opacity:1;filter:url(#filter3482)"
       d="m 50.761098,189.19501 c -5.582899,-2.79135 6.2068,-11.1985 6.9223,-17.39925 0.7228,-6.26449 -4.22,-12.5633 -2.8063,-18.70887 1.7798,-7.73764 5.6839,-21.19669 13.4704,-19.64431 8.312401,1.65725 5.5673,16.4131 5.2384,24.88279 -0.2136,5.50134 -4.2302,10.35987 -4.6456,15.84967 -0.3811,5.03762 6.862901,13.55997 2.0264,15.01997 -3.7758,1.1398 -1.2539,-11.10732 -5.1705,-10.64263 -3.8603,0.45801 1.3823,11.58585 -2.5001,11.39098 -5.3926,-0.27066 3.5146,-15.70298 -1.8709,-16.08963 -5.3411,-0.38347 1.1984,16.18543 -4.116,15.52836 -3.5309,-0.43656 3.2915,-9.73121 -0.1395,-10.67253 -3.9503,-1.08378 -2.7447,12.31728 -6.4086,10.48545 z"
       id="path5510"
       sodipodi:nodetypes="sssssssssssss" />
  </g>
</svg>
