<?xml version="1.0" encoding="UTF-8" standalone="no"?>
<svg
   xmlns:dc="http://purl.org/dc/elements/1.1/"
   xmlns:cc="http://creativecommons.org/ns#"
   xmlns:rdf="http://www.w3.org/1999/02/22-rdf-syntax-ns#"
   xmlns:svg="http://www.w3.org/2000/svg"
   xmlns="http://www.w3.org/2000/svg"
   xmlns:sodipodi="http://sodipodi.sourceforge.net/DTD/sodipodi-0.dtd"
   xmlns:inkscape="http://www.inkscape.org/namespaces/inkscape"
   inkscape:export-ydpi="96"
   inkscape:export-xdpi="96"
   inkscape:export-filename="D:\Calcatz\Icon Pack\Adventure Narative Inspired by Arrival\GUI\Alert Box\png\alert_box - background_detail_3.png"
   sodipodi:docname="alert_box - background_detail_3.svg"
   inkscape:version="1.0 (4035a4fb49, 2020-05-01)"
   id="svg2224"
   version="1.1"
   viewBox="0 0 17.949524 5.3514581"
   height="5.3514581mm"
   width="17.949524mm">
  <defs
     id="defs2218" />
  <sodipodi:namedview
     inkscape:window-maximized="1"
     inkscape:window-y="-8"
     inkscape:window-x="-8"
     inkscape:window-height="705"
     inkscape:window-width="1366"
     fit-margin-bottom="0"
     fit-margin-right="0"
     fit-margin-left="0"
     fit-margin-top="0"
     showgrid="false"
     inkscape:document-rotation="0"
     inkscape:current-layer="layer1"
     inkscape:document-units="mm"
     inkscape:cy="14.151314"
     inkscape:cx="52.369664"
     inkscape:zoom="5.3691756"
     inkscape:pageshadow="2"
     inkscape:pageopacity="0.0"
     borderopacity="1.0"
     bordercolor="#666666"
     pagecolor="#ffffff"
     id="base" />
  <metadata
     id="metadata2221">
    <rdf:RDF>
      <cc:Work
         rdf:about="">
        <dc:format>image/svg+xml</dc:format>
        <dc:type
           rdf:resource="http://purl.org/dc/dcmitype/StillImage" />
        <dc:title></dc:title>
      </cc:Work>
    </rdf:RDF>
  </metadata>
  <g
     transform="translate(-85.639398,-177.09116)"
     id="layer1"
     inkscape:groupmode="layer"
     inkscape:label="Layer 1">
    <path
       d="m 88.388001,182.4426 c -0.13729,0.002 -0.2539,-0.16649 -0.12738,-0.30604 0.20193,-0.18689 0.43517,-0.34475 0.6058,-0.56063 0.0996,-0.12605 0.19799,-0.2696 0.29295,-0.42213 -0.0322,0.0261 -0.0795,0.0572 -0.2514,0.18627 -0.007,0.008 -0.018,-0.003 -0.0108,-0.0102 0.22963,-0.32034 0.13109,-0.19221 0.28764,-0.38993 0.0352,-0.0361 0.0783,-0.0261 0.10144,0.001 0.0582,-0.10194 0.1117,-0.20661 0.16544,-0.31206 -0.1847,0.13473 -0.37073,0.26803 -0.55867,0.39839 -0.17467,0.11768 -0.34082,-0.12927 -0.16614,-0.24697 0.0977,-0.0523 0.20291,-0.0924 0.29293,-0.15701 0.0553,-0.0397 0.11214,-0.0889 0.16926,-0.14106 0.001,-0.006 0.001,-0.0113 0.003,-0.0171 -0.1426,0.082 -0.27928,0.17592 -0.42327,0.25205 -0.0771,0.0408 -0.15565,0.0789 -0.23488,0.11545 0.19958,-0.11183 0.46614,-0.27676 0.57131,-0.35269 0.0296,-0.0213 0.0572,-0.0452 0.0848,-0.069 -0.029,-0.12077 -0.21515,-0.15219 -0.38153,-0.15184 -0.13412,0.001 -0.36061,-0.031 -0.62865,-0.0804 -0.0242,0.0282 -0.0474,0.0576 -0.076,0.081 -0.23623,0.19322 -0.50668,0.28444 -0.78607,0.41697 0.18236,-0.10349 0.37278,-0.19403 0.54708,-0.31053 0.12248,-0.0819 0.15369,-0.13776 0.19382,-0.21066 -0.84839,-0.16468 -2.04631,-0.47177 -2.38569,-0.50142 -0.0431,-0.003 -0.0423,-0.14921 -0.0114,-0.16255 0.2451,-0.10494 1.72997,-0.39852 2.59838,-0.52056 -0.0494,-0.0364 -0.1174,-0.0798 -0.27787,-0.18794 -0.0775,-0.0523 -0.12192,-0.0828 -0.16814,-0.11437 0.0541,0.032 0.0819,0.0508 0.17536,0.10388 0.0921,0.0522 0.18788,0.0975 0.2817,0.14641 0.003,-0.0699 0.004,-0.13879 -0.003,-0.19513 -0.0106,-0.10007 -0.0327,-0.19887 -0.0556,-0.29687 -0.0174,-0.0747 -0.0432,-0.14721 -0.065,-0.22078 -0.009,-0.0341 0.0394,-0.0461 0.0481,-0.0121 0.0114,0.0765 0.0168,0.15408 0.034,0.22954 0.0225,0.0993 0.0581,0.19529 0.0847,0.29352 0.0355,0.13056 0.0483,0.18424 0.0592,0.23859 0.17515,-0.0229 0.32876,-0.0399 0.41759,-0.0411 h 2.65e-4 c 0.10141,-0.006 0.2628,-0.0316 0.40656,-0.0918 -0.0202,-0.0586 -0.0415,-0.11647 -0.0811,-0.16232 -0.033,-0.0382 -0.19646,-0.12395 -0.25873,-0.15775 -0.102601,-0.0647 -0.0113,-0.20978 0.0912,-0.14509 0.0377,0.0277 0.0795,0.0507 0.113189,0.0833 0.0506,0.0489 0.0943,0.10497 0.138261,0.15995 0.0658,0.0822 0.0922,0.11878 0.11816,0.1585 0.0362,-0.024 0.0693,-0.0506 0.0967,-0.0819 -3e-5,-0.004 -1.11e-4,-0.005 -1.3e-4,-0.0101 -0.001,-0.094 0.003,-0.18877 -0.009,-0.28209 -0.006,-0.0546 -0.03189,-0.10527 -0.04479,-0.15877 -0.025,-0.10367 0.0161,-0.0815 -0.0414,-0.1009 -0.0616,-0.11576 0.102109,-0.20249 0.16359,-0.0867 0.004,0.0234 0.0365,0.17763 0.0365,0.18029 7.93e-4,0.0557 -0.0187,0.10998 -0.0214,0.16563 -0.003,0.0501 -0.002,0.10024 -0.001,0.15033 0.0481,-0.0952 0.10659,-0.2059 0.13956,-0.26755 0.10027,-0.2087 0.395629,-0.0668 0.29536,0.14188 -0.20329,0.32203 -0.008,-0.0274 -0.0613,0.23341 -0.008,0.0429 0.0223,0.097 0.0708,0.13937 0.0777,-0.0631 0.10331,-0.0838 0.442679,-0.35943 0.0137,-0.0121 0.031,0.007 0.0173,0.0196 -0.27918,0.27483 -0.33833,0.32201 -0.39281,0.38455 0.0312,0.0143 0.0648,0.023 0.0984,0.0212 0.10043,-0.005 0.20061,-0.014 0.301,-0.0202 0.006,-0.0148 0.0168,-0.0282 0.0363,-0.0373 l -1e-5,-2.6e-4 c 0.16307,-0.0801 0.0856,-0.0367 0.26687,-0.15335 0.0591,-0.0379 0.11775,-0.0762 0.17664,-0.11437 0.0279,-0.0203 0.0568,0.0191 0.029,0.0394 -0.0536,0.0457 -0.10703,0.0913 -0.16063,0.13693 -0.0879,0.0747 -0.11187,0.0963 -0.13413,0.11417 0.10624,-0.007 0.21262,-0.0125 0.31874,-0.0214 0.17443,-0.0147 0.35251,-0.0302 0.52966,-0.0459 0.0327,-0.0549 0.0579,-0.11245 0.0892,-0.19629 0.0643,-0.17194 0.0633,-0.12506 0.0263,-0.24737 0.004,-0.0914 0.13356,-0.0849 0.12897,0.006 -0.0623,0.22736 0.0247,-0.0689 -0.10313,0.26307 -0.0235,0.0612 -0.0384,0.11383 -0.0545,0.16673 0.078,-0.006 0.15477,-0.0142 0.23202,-0.022 0.0531,-0.066 0.10285,-0.13423 0.13896,-0.20996 0.0466,-0.0976 0.0736,-0.20409 0.0979,-0.30953 0.0184,-0.0799 0.0195,-0.16294 0.0294,-0.24441 0.0118,-0.0739 0.11637,-0.0571 0.10466,0.0167 -0.0202,0.0838 -0.0384,0.16791 -0.0608,0.25115 -0.0453,0.16841 -0.0938,0.32221 -0.15028,0.47925 0.61686,-0.068 1.18553,-0.16905 1.54047,-0.37296 0.0464,-0.0538 0.12063,-0.14157 0.25628,-0.30014 0.31697,-0.37052 0.33296,-0.30821 0.4009,-0.72644 0.004,-0.021 -0.01,-0.0414 -0.0148,-0.0621 0.0995,-0.27165 0.48357,-0.13087 0.38406,0.14076 -0.21067,0.16358 -0.0322,0.006 -0.28196,0.36242 -0.1,0.14256 -0.21434,0.27501 -0.31273,0.41869 -0.0363,0.053 -0.0702,0.10783 -0.10405,0.16267 0.0366,-0.0196 0.0713,-0.0386 0.161,-0.0807 0.10274,-0.0483 0.21477,-0.0759 0.31537,-0.12851 0.20534,-0.10736 0.25616,-0.16976 0.41047,-0.31283 0.0716,-0.0531 0.1469,0.048 0.0752,0.10115 -0.0638,0.0335 -0.12947,0.0638 -0.19155,0.1005 -0.4362,0.25748 -0.0859,0.0818 -0.55372,0.34008 -0.0824,0.0455 -0.17334,0.0754 -0.25179,0.12736 -10e-4,7.9e-4 -0.002,0.002 -0.004,0.003 0.15084,-0.0203 0.30496,-0.0411 0.43445,-0.0584 0.004,-0.021 0.0165,-0.0414 0.0418,-0.0564 h 2.65e-4 c 0.25018,-0.099 0.43392,-0.16705 0.65557,-0.28008 -0.13245,0.0978 -0.26006,0.20263 -0.39389,0.29854 0.0678,-0.008 0.14415,-0.0187 0.20352,-0.0253 0.22273,-0.0525 0.44306,-0.11452 0.66429,-0.17378 0.0244,-0.0145 0.0422,-0.0226 0.0787,-0.0475 0.0685,-0.0468 0.13097,-0.10182 0.19623,-0.15311 0.0639,-0.0503 0.1289,-0.0994 0.19123,-0.15172 0.0524,-0.044 0.10183,-0.0916 0.15291,-0.13715 0.031,-0.0277 0.0623,-0.0549 0.0933,-0.0825 0.052,-0.0385 0.10645,0.0348 0.0545,0.0733 -0.0348,0.0212 -0.071,0.0402 -0.10431,0.0636 -0.0556,0.0392 -0.10831,0.0819 -0.16179,0.12389 -0.0643,0.0504 -0.12866,0.10096 -0.19153,0.15305 -0.0436,0.0361 -0.0858,0.0734 -0.12849,0.11042 1.28547,-0.32354 0.71497,-0.11351 1.70497,-0.54642 0.20147,-0.0718 0.3028,0.21313 0.10135,0.28492 -0.99725,0.26113 -0.54801,0.13051 -1.7675,0.52578 -0.0673,0.0218 -0.21493,0.0705 -0.31736,0.10446 -0.0541,0.0365 -0.0709,0.0755 -0.0558,0.11418 0.049,-0.005 0.10109,-0.0117 0.15007,-0.0183 -0.048,0.01 -0.0961,0.0178 -0.14355,0.0295 0.0584,0.10508 0.35085,0.20641 0.78345,0.25053 0.2681,0.0273 0.56976,0.056 0.90924,0.0859 0.24674,0.0217 0.4942,0.0287 0.74185,0.0315 0.004,-0.009 0.0103,-0.0181 0.015,-0.0273 0.0401,-0.0774 0.0786,-0.15565 0.1179,-0.23348 0.0111,-0.0322 0.0568,-0.0166 0.0457,0.0155 -0.0188,0.0817 -0.0345,0.16451 -0.0565,0.24541 0.0576,-8e-5 0.11511,7.9e-4 0.17273,7.9e-4 0.10413,-0.0208 0.20204,-0.0424 0.25029,-0.06 0.23526,-0.0864 0.38005,-0.21364 0.59265,-0.33353 0.32648,-0.18409 0.11007,-0.0147 0.34104,-0.21586 0.0236,-0.0263 0.0474,-0.0526 0.071,-0.0789 0.10029,-0.0859 0.22194,0.0559 0.12165,0.14173 -0.0359,0.0268 -0.0719,0.0536 -0.10779,0.0804 -0.0518,0.0265 -0.10195,0.0575 -0.15566,0.08 -0.69188,0.29 0.33225,-0.17879 -0.51876,0.19267 -0.11314,0.0494 -0.22231,0.10768 -0.33371,0.16088 -0.0227,0.0109 -0.0457,0.0215 -0.0685,0.0323 0.1963,-0.003 0.39263,-0.009 0.58898,-0.0131 0.13537,-0.0171 0.11333,-0.009 0.312,-0.10436 0.076,-0.0365 0.15405,-0.07 0.22516,-0.11532 0.07,-0.0445 0.12944,-0.1039 0.19622,-0.15311 0.0591,-0.0436 0.12126,-0.0831 0.18153,-0.12515 0.0394,-0.0275 0.0783,-0.0556 0.11746,-0.0835 0.0674,-0.0317 0.11216,0.0638 0.0447,0.0955 -0.0418,0.0142 -0.0856,0.0236 -0.12534,0.0427 -0.16737,0.0807 -0.2404,0.14814 -0.39647,0.25372 -0.0936,0.0633 -0.18849,0.12527 -0.28556,0.18338 0.10972,-0.003 0.21965,-0.006 0.32929,-0.008 0.27522,9e-5 0.36781,-0.10695 0.45184,-0.16337 0.0206,-0.0189 0.0454,-0.0352 0.0798,-0.0442 l 2.6e-4,-1e-5 c 0.22123,-0.0349 0.44314,-0.0647 0.66532,-0.0921 0.0601,-0.0486 0.12045,-0.0969 0.17991,-0.1462 0.10841,-0.0899 0.21287,-0.18443 0.32192,-0.27354 0.0203,-0.0166 0.0174,-0.0143 0.0327,-0.0272 -0.1343,0.12404 -0.30371,0.26398 -0.35197,0.30438 -0.0543,0.0454 -0.10726,0.0928 -0.16058,0.1396 0.39995,-0.049 0.80123,-0.0863 1.20287,-0.12031 -0.0419,0.006 -0.0839,0.0103 -0.12563,0.0173 -0.80065,0.1344 -0.97914,0.19856 -1.39301,0.38717 0.14623,-0.0364 0.26687,-0.0676 0.37809,-0.0942 -0.0776,0.0256 -0.16132,0.0594 -0.24911,0.0999 0.20828,-0.0337 0.41638,-0.0676 0.62467,-0.10129 0.40279,-0.0612 0.7419,0.10634 1.20779,0.26727 0.0325,-7.9e-4 0.10471,-0.006 0.25749,-0.021 0.45282,-0.0435 0.45379,-0.0548 0.89597,-0.14154 0.0605,-0.0169 0.12069,-0.0338 0.18113,-0.0508 0.0454,-0.01 0.0594,0.0543 0.0138,0.0641 -0.0637,0.004 -0.12732,0.007 -0.19101,0.0108 -0.14767,0.0228 -0.29612,0.0412 -0.443,0.0686 -0.15081,0.0281 -0.2998,0.0651 -0.44967,0.0977 -0.0346,0.008 -0.0693,0.0163 -0.1038,0.025 0.21121,0.0665 0.44698,0.12763 0.72782,0.1642 0.0844,0.0111 0.17261,0.55639 -0.0271,0.58011 -0.66083,0.0785 -1.8446,0.30283 -1.8446,0.30283 0,0 -0.2046,-0.0486 -0.30689,-0.0728 -0.0968,0.0583 -0.18784,0.129 -0.28211,0.19304 0.26135,0.0732 0.64928,0.13875 1.02906,0.18751 -0.42317,0.001 0.1325,0.0718 -1.11171,0.0519 -0.0108,-1.6e-4 -0.0215,-0.004 -0.0322,-0.003 0.11303,0.0517 0.22643,0.10233 0.34228,0.14631 0.0291,-0.009 0.0625,-0.005 0.095,0.0219 0.005,0.006 0.0105,0.0114 0.016,0.0172 0.006,-0.0643 0.0722,-0.12171 0.15429,-0.082 v 2.6e-4 c 0.13265,0.0397 0.35005,0.107 0.46484,0.12267 0.1469,0.02 0.29598,0.0218 0.44419,0.0255 0.45942,0.0116 0.57908,0.001 0.91492,-0.0219 -0.38366,0.0307 -0.17341,0.0157 -0.91488,0.0504 -0.14266,0.007 -0.2851,0.0203 -0.42786,0.0235 0.22428,0.0113 0.42394,-0.0111 0.69085,-0.0315 0.34319,0.0421 0.2837,0.52758 -0.0595,0.48546 -0.13325,-0.0473 -0.26416,-0.10234 -0.39982,-0.14223 -0.18156,-0.0534 -0.36514,-0.10004 -0.54881,-0.14604 0.11049,0.0833 0.231,0.16565 0.34683,0.2403 -0.0866,-0.0446 -0.14404,-0.0752 -0.27224,-0.13982 -0.20843,-0.10512 -0.31093,-0.15285 -0.36305,-0.1735 -0.0158,-0.004 -0.0315,-0.008 -0.0474,-0.0121 0.006,0.0174 0.1093,0.078 -0.034,-0.009 -0.1786,-0.0454 -0.35624,-0.0942 -0.53244,-0.14858 -0.001,-2.6e-4 -0.001,5.3e-4 -0.003,2.6e-4 -0.0899,-0.0302 -0.20142,-0.0537 -0.31927,-0.0736 0.0233,0.027 0.0464,0.0542 0.0729,0.0781 0.0795,0.0716 0.17594,0.12229 0.25716,0.19191 0.60079,0.51503 -0.10501,0.0108 0.67855,0.53168 0.002,-3e-5 7e-5,0.003 -0.002,0.002 -0.15081,-0.0708 -0.30993,-0.12615 -0.45258,-0.21219 -0.10894,-0.0658 -0.1993,-0.15834 -0.29693,-0.23995 -0.0823,-0.0688 -0.16007,-0.14308 -0.24268,-0.2115 -0.0702,-0.0582 -0.14256,-0.11362 -0.2157,-0.16834 -0.24672,-0.03 -0.49267,-0.0446 -0.62957,-0.0466 -0.25972,-0.004 -0.50976,-0.0433 -0.7714,-0.091 0.16438,0.22863 0.44683,0.4848 0.64875,0.63683 0.008,0.006 0.017,0.0117 0.0253,0.0178 -0.16534,-0.10267 -0.32731,-0.21 -0.51328,-0.35303 -0.10008,-0.077 -0.18683,-0.16979 -0.28136,-0.25353 -0.0337,-0.0298 -0.0683,-0.0586 -0.10253,-0.0877 -0.29356,-0.057 -0.61632,-0.12081 -1.01209,-0.17064 0.0138,0.0199 0.0286,0.0391 0.0413,0.0598 0.20969,0.34109 0.1249,0.26878 0.37345,0.6256 0.0519,0.0744 0.10912,0.14474 0.16608,0.21547 0.0276,0.0256 0.0553,0.051 0.083,0.0766 -0.0255,-0.0226 -0.0509,-0.0456 -0.0765,-0.0683 0.0199,0.0248 0.04,0.0494 0.0595,0.0746 0.0454,0.0484 0.0907,0.0971 0.13607,0.14556 0.0514,0.0739 -0.0531,0.14657 -0.104541,0.0727 -0.0277,-0.0612 -0.0553,-0.12221 -0.083,-0.1834 -0.250721,-0.3581 -0.225,-0.32422 -0.2052,-0.29232 -0.002,-0.001 -0.004,-0.004 -0.004,-0.005 10e-4,0.001 0.003,0.002 0.004,0.004 0.004,0.005 -0.006,-0.008 -0.004,-0.004 0.006,0.0117 -0.001,0.006 -0.0298,-0.0277 -0.0194,-0.0177 -0.0384,-0.0357 -0.0578,-0.0532 -0.25327,-0.22764 -0.50785,-0.44594 -0.76497,-0.66752 -0.006,-0.007 -0.009,-0.0137 -0.0123,-0.0206 -0.26055,-0.0217 -0.52104,-0.0394 -0.78165,-0.0541 -0.0124,0.13263 -0.0387,0.26405 -0.0435,0.3972 -0.001,0.0208 -1.2e-4,0.0415 -0.001,0.0623 0.009,0.008 0.0174,0.017 0.0267,0.0248 -0.009,-0.006 -0.0179,-0.0101 -0.0267,-0.0154 -7.94e-4,0.0437 -7.94e-4,0.0873 2.29e-4,0.13088 -0.0101,-0.0486 -0.0187,-0.0974 -0.0273,-0.14627 -0.11424,-0.0674 -0.232831,-0.12765 -0.34789,-0.19376 -0.069,-0.0397 -0.141081,-0.0754 -0.204431,-0.12363 -0.002,-0.001 -0.004,-0.004 -0.005,-0.006 -0.10261,-0.0761 -0.24735,-0.12683 -0.38356,-0.15414 0.0107,0.0382 0.022,0.0763 0.028,0.11546 0.0656,0.42701 0.0466,0.37673 0.0382,0.35167 0.0209,0.0183 0.0354,0.0464 0.0359,0.0846 -0.004,0.0168 -0.005,0.0302 -0.009,0.046 0.008,0.0364 -0.006,-0.026 0.0492,0.23739 0.0326,0.15335 0.05,0.31115 0.10122,0.45931 0.0478,0.13811 0.12894,0.26211 0.19342,0.39323 0.0511,0.0554 0.10233,0.11071 0.15341,0.16611 0.0422,0.0635 -0.0477,0.12353 -0.09,0.06 -0.0298,-0.0716 -0.0593,-0.14345 -0.0891,-0.21511 -0.28028,-0.65111 -0.0789,-0.15193 -0.32205,-0.8502 -0.008,-0.0231 -0.0173,-0.0458 -0.026,-0.0686 -0.003,0.0359 -0.005,0.0728 -0.003,0.11484 0.005,0.10363 0.0188,0.20701 0.0387,0.30883 0.0221,0.1129 0.0579,0.22265 0.0869,0.33398 0.014,0.05 -0.0566,0.0698 -0.0708,0.02 -0.0299,-0.11344 -0.0589,-0.22707 -0.0897,-0.34031 -0.029,-0.10713 -0.0664,-0.21226 -0.0891,-0.3209 -0.0133,-0.0635 -0.0131,-0.12928 -0.0202,-0.19389 -0.0153,0.0966 -0.0327,0.19287 -0.0429,0.2901 -0.009,0.0893 -0.006,0.17924 -0.01,0.26891 -0.0768,0.25162 -0.43266,0.14302 -0.35587,-0.10863 0.0444,-0.0595 0.1117,-0.10738 0.13332,-0.17844 0.0465,-0.15293 0.0471,-0.30575 0.0334,-0.45869 -0.004,-0.002 -0.007,-0.004 -0.0104,-0.006 -0.22591,-0.1154 -0.44522,-0.19996 -0.66711,-0.31694 0.0134,0.0157 0.0317,0.0272 0.14163,0.13511 0.1666,0.1618 -0.0621,0.39731 -0.22868,0.23553 -0.0895,-0.0814 -0.19345,-0.14915 -0.26853,-0.24396 -0.0204,-0.0257 -0.0315,-0.0479 -0.0454,-0.071 -0.0167,-0.0159 -0.0342,-0.0287 -0.0515,-0.0429 0.0539,0.2145 0.022,0.14729 0.11475,0.41866 0.0163,0.0476 0.0126,0.0329 0.0218,0.0576 0.0268,-0.0336 0.0852,-0.0402 0.11298,0.0137 0.0765,0.17483 0.0323,0.091 0.13272,0.25139 0.0374,0.06 -0.0476,0.11306 -0.085,0.0529 -0.067,-0.10476 -0.0832,-0.12367 -0.10574,-0.155 0.004,0.0136 0.004,0.0116 0.0213,0.0925 0.0146,0.0641 -0.076,0.085 -0.0908,0.0209 -0.004,-0.0441 -0.006,-0.0886 -0.0123,-0.13239 -0.0155,-0.0989 -0.0666,-0.32192 -0.0962,-0.40952 -0.0271,-0.0804 -0.065,-0.1565 -0.096,-0.23545 -0.0136,-0.0348 -0.01,-0.0258 -0.0181,-0.0486 -0.3056,-0.18733 -0.67501,-0.16183 -1.00487,-0.15668 -0.006,7e-5 -0.0111,1.1e-4 -0.0167,2e-4 0.0298,0.14746 0.0633,0.30593 0.0888,0.37546 0.0439,0.11964 0.1092,0.23015 0.16903,0.34267 0.009,0.0174 0.012,0.0228 0.0199,0.0379 0.01,0.004 0.0193,0.01 0.0289,0.0133 0.0963,0.0379 0.20066,0.0519 0.30091,0.0779 0.0509,0.0179 0.0255,0.0898 -0.0255,0.0719 -0.0952,-0.0438 -0.19221,-0.0836 -0.28551,-0.1313 -0.001,-5.3e-4 -0.002,-10e-4 -0.004,-0.002 0.10949,0.21138 0.0802,0.1737 0.26221,0.3254 0.066,0.0963 -0.0704,0.18972 -0.1364,0.0934 -0.0572,-0.19135 -0.0704,-0.2546 -0.16794,-0.44208 -0.24309,-0.12655 -0.4829,-0.2684 -0.70272,-0.4313 -0.0869,-0.0644 -0.16853,-0.13556 -0.25032,-0.20639 2.6e-4,0.0492 -5.29e-4,0.0702 0.001,0.14091 10e-4,0.0652 0.005,0.13026 0.008,0.19539 -0.004,-0.0647 -0.01,-0.1294 -0.0212,-0.19321 -0.0136,-0.0748 -0.0263,-0.13387 -0.0392,-0.18697 -0.0102,-0.009 -0.0202,-0.0178 -0.0305,-0.0264 -0.015,-0.0127 -0.0297,-0.0258 -0.0447,-0.0386 -0.32607,0.007 -0.65214,0.0118 -0.97822,0.0188 0.0618,0.0425 0.12193,0.0875 0.18866,0.12114 0.19685,0.0993 0.6741,0.27988 0.92834,0.37923 -7.94e-4,-0.0247 -0.002,-0.0493 -0.004,-0.0739 0.001,0.0252 0.006,0.0503 0.006,0.0756 0.0386,0.0151 0.11268,0.0434 0.13658,0.0532 0.22451,0.092 0.44626,0.19054 0.669421,0.28579 -0.128781,-0.0531 -0.477861,-0.19688 -0.805551,-0.3306 0.004,0.0682 0.006,0.13643 0.0126,0.20437 -2.6e-4,-0.006 -0.008,-0.005 -0.008,1e-4 -0.003,-0.0688 -0.005,-0.13739 -0.009,-0.20608 -0.198579,-0.081 -0.41242,-0.16865 -0.49695,-0.20026 -0.14763,-0.0552 -0.29991,-0.0969 -0.44843,-0.14967 -0.71528,-0.25405 0.0639,0.004 -0.40224,-0.14822 -0.004,-0.002 -0.004,-0.004 -0.007,-0.006 -0.0441,7.9e-4 -0.0883,0.001 -0.13251,0.003 0.0349,0.0484 0.0705,0.0961 0.104271,0.14529 0.0778,0.11333 0.145829,0.23345 0.22893,0.3429 0.19827,0.26104 0.334329,0.41187 0.490689,0.57793 -0.0358,-0.0334 -0.0723,-0.0661 -0.106059,-0.10142 -0.53355,-0.5588 -0.244661,-0.3107 -0.657321,-0.78472 -0.0486,-0.0558 -0.10487,-0.10467 -0.156959,-0.15733 -0.043,0.0286 -0.0839,0.0853 -0.100311,0.1683 -1.99e-4,0.001 -0.001,5.3e-4 -0.001,0.001 -0.007,0.0281 -0.0115,0.0563 -0.0126,0.0852 -0.006,0.15903 -0.008,0.32122 0.0245,0.47702 0.0303,0.14492 0.1077,0.27579 0.161551,0.41371 0.009,0.0258 -0.0275,0.0384 -0.0363,0.0125 -0.0481,-0.15177 -0.22608,-0.70381 -0.26756,-0.88303 -0.0407,0.21773 -0.0559,0.43824 -0.0603,0.65955 -0.01,-0.0906 -0.0213,-0.18128 -0.0285,-0.27211 -0.0277,-0.34677 -0.0171,-0.29759 -0.0273,-0.36052 -0.0384,0.0524 -0.0772,0.10481 -0.11484,0.15778 -0.86101,1.21182 -0.435111,0.57288 -1.123981,1.6491 -0.0421,0.0466 -0.09,0.0664 -0.13571,0.0673 z m 1.43039,-1.24156 c 0.004,0.0412 0.01,0.0823 0.0113,0.12372 0.005,0.13351 -0.004,0.26713 -0.006,0.40074 -8e-5,-0.005 -0.007,-0.005 -0.007,10e-5 -7e-5,-0.17431 -7.94e-4,-0.34961 0.002,-0.52456 z m 1.21281,0.10885 c 0.083,0.0773 0.16831,0.15215 0.25162,0.22915 0.004,0.007 0.008,0.014 0.012,0.0209 -0.0102,-5.2e-4 -0.0203,-0.002 -0.0305,-0.003 -0.098,-0.10383 -0.16138,-0.17128 -0.23309,-0.24743 z m 0.2636,0.25007 c 0.0393,0.003 0.0787,0.006 0.11796,0.01 0.0679,0.0406 0.0106,0.13668 -0.0574,0.0961 -0.0201,-0.0352 -0.0405,-0.0704 -0.0606,-0.10567 z m 4.63559,-0.71032 c 0.0106,0.0511 0.0213,0.1023 0.0287,0.15395 0.008,0.0545 0.011,0.10934 0.0155,0.16418 -0.0142,-0.0539 -0.0272,-0.10803 -0.0339,-0.16327 -0.006,-0.0514 -0.009,-0.10305 -0.0103,-0.15486 z m 0.0441,0.31813 c 0.0122,0.0461 0.0252,0.0921 0.0359,0.13846 0.002,0.0161 -0.0205,0.0193 -0.0228,0.004 -0.004,-0.0474 -0.009,-0.0947 -0.0132,-0.14208 z m -0.0178,-0.43361 c 0.004,0.003 0.008,0.004 0.0118,0.007 0.22674,0.14446 0.34046,0.21947 0.41516,0.27024 -0.13414,-0.0683 -0.26301,-0.14339 -0.41714,-0.26787 -0.004,-0.003 -0.006,-0.006 -0.01,-0.009 z m 0.42696,0.27712 c 0.0974,0.0496 0.194929,0.095 0.32029,0.15563 0.0309,0.0159 0.008,0.0598 -0.0225,0.0438 -1.02283,-0.60356 0.0709,0.0512 -0.29775,-0.19944 z m 1.5157,0.31793 c 0.0414,0.0367 0.0831,0.0732 0.123909,0.11057 0.002,0.002 -10e-6,0.004 -0.002,0.002 -0.0407,-0.0374 -0.0814,-0.0747 -0.12192,-0.11228 z m 1.245499,-0.11247 c 0.14547,0.0903 0.29305,0.17695 0.46887,0.28295 -0.006,-0.004 -0.0131,0.004 -0.006,0.009 -0.15396,-0.0978 -0.31522,-0.18509 -0.46262,-0.29239 z m 2.49871,0.0675 c 0.35213,0.1815 0.43075,0.23079 0.36078,0.20632 -0.0339,-0.017 -0.069,-0.0318 -0.10239,-0.0499 -0.0757,-0.0412 -0.1656,-0.0966 -0.25839,-0.15642 z m 0.36078,0.20632 c 0.0765,0.0386 0.15293,0.0775 0.23106,0.11291 -0.17361,-0.0773 -0.3383,-0.1504 -0.23106,-0.11291 z m 0.95238,-0.6862 c 0.0636,-0.005 0.0303,-0.003 0.14113,-0.0108 -0.002,3e-5 -0.002,0.002 3e-5,0.002 -0.0685,0.004 -0.088,0.005 -0.14116,0.009 z m -1.28759,-0.27864 c 0.14529,-5.3e-4 0.40324,0.006 0.89277,0.0285 0.133,0.006 0.26543,0.0189 0.39778,0.0338 -0.13307,0.0123 -0.26605,0.0212 -0.39947,0.0178 -0.21662,-0.006 -0.55003,-0.0364 -0.89109,-0.0801 z m 1.29055,0.0623 c 0.14419,-0.0133 0.28835,-0.0302 0.43264,-0.0403 0.063,0.001 0.0614,0.0902 -0.001,0.0891 -0.14385,-0.0144 -0.28737,-0.0327 -0.4311,-0.0488 z m -2.33101,-1.73598 c 0.16695,-0.0551 0.33354,-0.0856 0.5951,-0.11196 0.11577,-0.0115 0.23235,-0.0186 0.34889,-0.0198 -0.11605,0.005 -0.2321,0.0173 -0.34742,0.0299 -0.25902,0.0283 -0.42853,0.0619 -0.59657,0.10193 z m 0.94399,-0.13175 c 0.0795,-0.004 0.15907,-0.006 0.23834,5.2e-4 0.17287,0.0127 0.33875,0.0732 0.50819,0.10972 0.002,-2e-5 0.002,0.002 3e-5,0.002 -0.1693,-0.035 -0.33553,-0.0906 -0.50778,-0.10504 -0.0793,-0.006 -0.15903,-0.008 -0.23877,-0.007 z m 0.19658,-0.17858 c 0.45814,-0.067 0.92251,-0.0871 1.3835,-0.13296 -0.0157,0.001 -0.0134,0.0245 0.002,0.0224 -0.46165,0.0363 -0.92388,0.0715 -1.38578,0.11056 z m -0.69032,-0.32367 c 0.0656,-0.0606 0.12517,-0.11824 0.15367,-0.15727 0.0178,-0.0242 0.0113,-0.059 0.0169,-0.0886 0.0553,-0.0616 0.14238,0.0167 0.087,0.0782 -0.13682,0.0584 -0.11984,0.0529 -0.25765,0.16762 z m -5.697931,0.37562 c 0.12847,-0.0256 0.25797,-0.047 0.38746,-0.0668 0.0665,-0.0102 0.15466,-0.0198 0.23059,-0.0301 -0.0762,0.0135 -0.15236,0.0276 -0.2288,0.0394 -0.13955,0.0216 -0.26398,0.0405 -0.38925,0.0575 z m 0.61805,-0.0969 c 0.13154,-0.0233 0.263,-0.0466 0.39555,-0.0629 2.08752,-0.25704 -0.38377,0.0947 0.96011,-0.1005 0.0448,-0.003 0.0477,0.0612 0.003,0.0633 -0.11788,-5.3e-4 -0.23575,-0.009 -0.35351,-0.003 -0.29333,0.015 -0.67555,0.0582 -1.00494,0.10275 z m -1.088518,-0.41939 c 0.0481,-0.0355 0.0963,-0.0712 0.14664,-0.10363 0.26823,-0.152 0.32869,-0.18485 0.40283,-0.22702 -0.13822,0.0924 -0.27466,0.18066 -0.3912,0.24664 -0.0566,0.032 -0.1073,0.058 -0.15827,0.084 z m 0.54947,-0.33065 c 0.17941,-0.11987 0.36214,-0.24764 0.51141,-0.35092 0.0127,-0.008 0.0246,0.01 0.0119,0.0183 -0.33584,0.22108 -0.41053,0.26848 -0.52335,0.33265 z m -7.64694,0.92178 c -0.0674,-0.0399 -0.16168,-0.0966 -0.20816,-0.1286 0.0507,0.0245 0.11122,0.0623 0.20816,0.1286 z m -0.20816,-0.1286 c -0.0548,-0.0264 -0.1153,-0.0483 -0.26545,-0.10644 -0.0429,-0.0235 -0.009,-0.0841 0.0334,-0.0607 0.11576,0.0846 0.1704,0.12469 0.23208,0.1671 z m 0.9281,2.29266 c -0.0792,0.0444 -0.14978,0.0818 -0.19257,0.0998 -0.0849,0.0359 -0.17434,0.059 -0.26407,0.0813 0.0867,-0.0292 0.17343,-0.0587 0.2579,-0.0936 0.0669,-0.0277 0.13295,-0.0572 0.19874,-0.0875 z m -0.45664,0.18117 c -0.0484,0.0164 -0.0969,0.0326 -0.14499,0.0497 -0.008,0.003 -0.0116,-0.008 -0.004,-0.011 0.049,-0.0142 0.0989,-0.0263 0.14849,-0.0387 z m 9.51446,0.0307 c -0.0327,-0.0384 -0.0929,-0.11277 -0.22861,-0.29002 -0.20993,-0.27419 -0.26484,-0.35141 -0.26154,-0.35287 -0.0206,-0.0245 -0.0241,-0.0276 -0.0598,-0.0706 -0.023,-0.003 -0.0453,-0.005 -0.0687,-0.007 0.17407,0.25192 0.2267,0.32714 0.56178,0.66774 0.0182,0.0186 0.0382,0.0351 0.0569,0.0532 z m -4.9679,-0.10428 c -0.002,-0.004 -0.003,-0.005 -0.004,-0.009 -0.0608,-0.11417 -0.14092,-0.21755 -0.20335,-0.33084 -0.0744,-0.13495 -0.13089,-0.2633 -0.18777,-0.39564 -0.17546,0.003 -0.35095,0.007 -0.52642,0.0102 0.11492,0.13505 0.22864,0.26732 0.25574,0.29234 0.18788,0.1734 0.42675,0.32819 0.66627,0.43277 z m 2.01056,-0.22993 c -0.004,-0.0457 -0.0101,-0.0916 -0.0164,-0.13736 -0.10046,-0.33153 -0.30976,-0.37902 -0.48484,-0.3805 -0.093,-8e-4 -0.1859,-0.001 -0.27884,-8e-4 0.004,0.006 0.008,0.0129 0.012,0.0196 0.0467,0.0437 0.0945,0.088 0.12593,0.11053 0.0904,0.0648 0.19199,0.11167 0.28701,0.16942 0.26149,0.15902 0.29916,0.19418 0.35525,0.21946 z m 1.26529,-0.0304 c -10e-4,-0.0106 -0.004,-0.021 -0.006,-0.0317 -0.0187,-0.13397 -0.02,-0.27001 -0.037,-0.40425 -0.13287,-0.007 -0.26567,-0.014 -0.39858,-0.0193 0.0294,0.0472 0.0476,0.0656 0.1799,0.19623 0.0873,0.0862 0.17145,0.17609 0.261689,0.25913 z m -0.99247,0.004 c 5.29e-4,-2.7e-4 0.001,-8e-4 0.002,-0.001 -5.29e-4,-0.001 -5.29e-4,-0.004 -0.001,-0.004 -1.4e-4,0.002 -5.29e-4,0.004 -5.29e-4,0.005 z m -5.04136,-0.24827 c -4e-5,-0.003 -5.29e-4,-0.004 -5.29e-4,-0.006 -0.001,0.001 -0.002,0.004 -0.004,0.004 0.001,5.2e-4 0.003,0.001 0.004,0.002 z"
       style="fill:#e6e6e6;fill-opacity:1;stroke-width:1.43466;stroke-linecap:round;paint-order:markers stroke fill"
       id="path5546" />
  </g>
</svg>
