<?xml version="1.0" encoding="UTF-8" standalone="no"?>
<svg
   xmlns:dc="http://purl.org/dc/elements/1.1/"
   xmlns:cc="http://creativecommons.org/ns#"
   xmlns:rdf="http://www.w3.org/1999/02/22-rdf-syntax-ns#"
   xmlns:svg="http://www.w3.org/2000/svg"
   xmlns="http://www.w3.org/2000/svg"
   xmlns:sodipodi="http://sodipodi.sourceforge.net/DTD/sodipodi-0.dtd"
   xmlns:inkscape="http://www.inkscape.org/namespaces/inkscape"
   inkscape:export-ydpi="96"
   inkscape:export-xdpi="96"
   inkscape:export-filename="D:\Calcatz\Icon Pack\Adventure Narative Inspired by Arrival\GUI\Alert Box\png\alert_box - background_detail_5.png"
   sodipodi:docname="alert_box - background_detail_5.svg"
   inkscape:version="1.0 (4035a4fb49, 2020-05-01)"
   id="svg3392"
   version="1.1"
   viewBox="0 0 21.075811 7.515697"
   height="7.515697mm"
   width="21.075811mm">
  <defs
     id="defs3386" />
  <sodipodi:namedview
     inkscape:window-maximized="1"
     inkscape:window-y="-8"
     inkscape:window-x="-8"
     inkscape:window-height="705"
     inkscape:window-width="1366"
     fit-margin-bottom="0"
     fit-margin-right="0"
     fit-margin-left="0"
     fit-margin-top="0"
     showgrid="false"
     inkscape:document-rotation="0"
     inkscape:current-layer="layer1"
     inkscape:document-units="mm"
     inkscape:cy="14.751074"
     inkscape:cx="67.098201"
     inkscape:zoom="5.3691756"
     inkscape:pageshadow="2"
     inkscape:pageopacity="0.0"
     borderopacity="1.0"
     bordercolor="#666666"
     pagecolor="#ffffff"
     id="base" />
  <metadata
     id="metadata3389">
    <rdf:RDF>
      <cc:Work
         rdf:about="">
        <dc:format>image/svg+xml</dc:format>
        <dc:type
           rdf:resource="http://purl.org/dc/dcmitype/StillImage" />
        <dc:title></dc:title>
      </cc:Work>
    </rdf:RDF>
  </metadata>
  <g
     transform="translate(-99.056822,-217.00851)"
     id="layer1"
     inkscape:groupmode="layer"
     inkscape:label="Layer 1">
    <path
       d="m 109.64763,217.00856 c 0.1095,0.40779 0.196,0.82244 0.3282,1.2234 0.019,0.0575 0.034,0.096 0.051,0.14722 -0.1002,-0.41427 -0.2156,-0.7962 -0.377,-1.37067 0,0 1e-4,0.003 0,0 z m 0.3795,1.37062 c 0.054,0.22388 0.1046,0.47255 0.1523,0.75643 -0.2442,0.0105 -0.4752,-0.004 -0.6856,-0.0142 -0.1269,-0.006 -0.2519,-0.011 -0.3741,-0.0149 -0.043,-10e-4 -0.083,-10e-4 -0.1261,-0.002 0.025,-0.0315 0.049,-0.0638 0.073,-0.0958 0.094,-0.11022 -0.062,-0.24322 -0.156,-0.13297 -0.083,0.0737 -0.1754,0.13775 -0.2488,0.22111 -5.3e-4,5.3e-4 -10e-4,0.001 0,0.002 -0.02,-2.7e-4 -0.041,-0.001 -0.061,-0.002 0.057,-0.24286 0.091,-0.384 0.2036,-0.62533 -0.104,0.19832 -0.2242,0.43393 -0.319,0.62326 -0.4109,-0.004 -0.8073,0.002 -1.191,0.0176 2.6e-4,-0.008 -5.3e-4,-0.0169 -5.3e-4,-0.0253 -9e-5,-0.003 -2e-4,-0.007 0.01,-0.009 0.1949,-0.20551 0.4126,-0.37455 0.6638,-0.50897 0.11051,-0.0592 0.23321,-0.0916 0.34991,-0.13753 0.063,-0.0299 0.021,-0.11952 -0.042,-0.0895 -0.26841,0.14991 -0.48301,0.2675 -0.75141,0.42823 -0.075,0.0447 -0.1477,0.0916 -0.22109,0.13829 0,-0.065 0.01,-0.13002 0.01,-0.19501 -7.9e-4,-0.0341 0,-0.0682 0,-0.10228 0.022,-0.0154 0.059,-0.0373 0.082,-0.0525 0.1367,-0.04 0.2737,-0.0794 0.4097,-0.12182 0,0 -2e-4,-0.006 -1e-4,-0.005 -0.2013,0.0623 -0.2619,0.0821 -0.4055,0.12588 0.1366,-0.091 0.2719,-0.17384 0.4923,-0.31492 0.033,-0.0208 0,-0.0667 -0.029,-0.0459 -0.225,0.14831 -0.3855,0.25224 -0.5456,0.35953 0,-0.14397 -0.01,-0.28821 0,-0.43217 0.01,-0.15211 0.026,-0.30303 0.039,-0.45469 0.01,-0.0934 -0.1277,-0.0996 -0.1318,-0.006 -0.021,0.23217 -0.066,0.74044 -0.098,0.97862 -0.4797,0.1479 -0.8239,0.26126 -1.6544,0.58896 -0.037,0.0145 -0.072,0.0328 -0.1085,0.0479 -0.4949,0.0665 -0.9866,0.14965 -1.4867,0.25183 0.1593,-0.1253 0.3287,-0.2386 0.5436,-0.33311 0.294,-0.12933 0.6103,-0.20052 0.9154,-0.30059 0.1448,-0.0437 0.082,-0.24808 -0.062,-0.20437 -0.1653,0.0361 -0.332,0.0669 -0.498,0.10054 0.1964,-0.0918 0.3945,-0.16355 0.7747,-0.25972 0.3523,-0.0892 0.7159,-0.12608 1.074,-0.18887 0.01,-2.3e-4 -2e-4,-0.0112 -2e-4,-0.01 -0.3588,0.0605 -0.7187,0.11447 -1.0763,0.18168 -0.189,0.0355 -0.7811,0.16503 -1.1703,0.24944 0.01,-0.008 0.015,-0.0204 0.023,-0.032 0.1199,-0.11462 0.2418,-0.22733 0.3694,-0.33489 0.5032,-0.42433 1.0586,-0.78202 1.5881,-1.17316 0.058,-0.0414 0,-0.12427 -0.058,-0.0829 -0.5453,0.37747 -1.0778,0.77427 -1.636,1.13233 -0.06,0.0388 -0.1236,0.0738 -0.1857,0.11011 0.024,-0.0639 0.056,-0.13292 0.1193,-0.23683 0.082,-0.13471 0.1914,-0.25063 0.2872,-0.37596 0.029,-0.04 -0.027,-0.0806 -0.056,-0.0407 -0.09,0.13161 -0.183,0.26204 -0.2719,0.39479 -0.1828,0.27322 -0.2003,0.30701 -0.2391,0.35372 -0.2527,0.14035 -0.5101,0.2727 -0.7572,0.42164 0.025,-0.0623 0.049,-0.12467 0.077,-0.18574 0.068,-0.1497 0.1406,-0.29716 0.2139,-0.44414 0.073,-0.14562 0.1423,-0.29326 0.224,-0.43402 0.048,-0.0837 0.1108,-0.15859 0.1663,-0.23785 0.03,-0.0722 -0.072,-0.11493 -0.1023,-0.0427 -0.026,0.0913 -0.039,0.18692 -0.077,0.27359 -0.1388,0.31207 -0.3216,0.55431 -0.507,0.83835 -0.068,0.10329 -0.1283,0.21112 -0.1993,0.312 -0.033,0.0465 -0.074,0.0864 -0.1107,0.12963 -0.2029,0.15054 -0.3885,0.32315 -0.5731,0.49713 -0.1095,0.0786 -0.2249,0.14457 -0.3439,0.20098 0.073,-0.11087 0.1459,-0.2217 0.2185,-0.3326 0.043,-0.0536 -0.033,-0.11437 -0.075,-0.0608 -0.1495,0.13082 -0.2991,0.26167 -0.4487,0.39251 -0.027,0.048 -0.023,0.0918 -0.01,0.1268 -0.2176,0.0772 -0.436,0.13798 -0.6366,0.19719 -0.1009,0.0331 -0.2202,0.0797 -0.3317,0.12062 0.028,-0.0401 0.055,-0.0807 0.085,-0.11925 0.1712,-0.21901 0.6347,-0.7622 0.7964,-0.95334 -1e-4,-0.006 -2.7e-4,-0.0134 -0.01,-0.007 -0.147,0.17173 -0.2902,0.34721 -0.4413,0.51538 -0.2407,0.26801 -0.397,0.4517 -0.6939,0.63575 -0.033,0.02 -0.074,0.0193 -0.11,0.0289 -0.035,0.0147 -0.054,0.0374 -0.067,0.0625 -0.660004,0.25962 -1.331914,0.54802 -1.518814,0.56787 -0.047,0.005 -0.031,0.14061 0.013,0.14288 0.60841,0.039 1.520514,0.34847 2.220414,0.52366 0.01,0.008 0.019,0.0163 0.031,0.0236 0.064,0.0348 0.1292,0.0626 0.1963,0.0876 0.018,0.0297 0.044,0.0567 0.088,0.073 0.07,0.0526 0.1772,0.13133 0.23989,0.18744 0.05,0.0449 0.10741,0.0854 0.14481,0.14151 0.098,0.14802 0.095,0.23198 0.1193,0.39327 0.08,0.18577 0.3424,0.0729 0.2628,-0.11286 -0.023,-0.0544 -0.047,-0.10911 -0.071,-0.16332 -0.035,-0.0793 -0.074,-0.17398 -0.1191,-0.26459 0.055,0.0303 0.10819,0.0613 0.1632,0.0905 0.1398,0.0797 0.2655,0.0235 0.3251,-0.0734 0.083,0.0831 0.1643,0.17084 0.2866,0.31254 0.095,0.11073 0.1908,0.22203 0.27799,0.33958 -0.081,-0.1228 -0.15409,-0.25066 -0.23629,-0.37257 -0.2836,-0.41997 -0.2945,-0.42142 -0.2963,-0.41878 -1e-4,-0.002 1e-4,-0.004 -2e-4,-0.006 0.034,0.003 0.067,0.005 0.10049,0.007 0,10e-4 0,0.002 0.01,0.003 0.1826,0.0914 0.3165,0.22564 0.47359,0.35229 0.086,0.0687 0.16381,0.14796 0.25881,0.20253 0.088,0.0506 0.18959,0.073 0.2841,0.10944 0.062,0.0256 0.1228,0.0514 0.1842,0.077 0.141,0.0218 0.1718,-0.17805 0.031,-0.19967 -0.058,0.006 -0.11531,0.0133 -0.1727,0.0199 -0.09,-0.0292 -0.1887,-0.0388 -0.2698,-0.0875 -0.093,-0.056 -0.1542,-0.15357 -0.2405,-0.21947 -0.083,-0.0639 -0.1813,-0.10777 -0.2674,-0.16823 -0.035,-0.0243 -0.066,-0.0526 -0.099,-0.08 0.3188,0.009 0.6134,-0.01 0.89,-0.0269 0.1147,0.0584 0.2317,0.11211 0.34689,0.16954 0.17561,0.105 0.35101,0.2104 0.5266,0.31543 0.047,0.0303 0.089,-0.0353 0.043,-0.0656 -0.17409,-0.10531 -0.35969,-0.19393 -0.52239,-0.31605 -0.046,-0.0348 -0.087,-0.0765 -0.1283,-0.11655 0.11919,-0.006 0.2358,-0.008 0.3467,-0.005 0.3729,0.0113 0.796,-0.0118 1.1538,0.18565 0.03,0.16022 0.067,0.32018 0.082,0.4825 0.011,-0.0606 0.016,-0.17298 0.014,-0.4231 0.091,0.0636 0.1766,0.14574 0.2547,0.24912 0.041,0.0671 0.078,0.1309 0.1198,0.201 -0.01,0.0163 -0.013,0.0352 -0.013,0.0582 l 0.001,-2e-5 c 0.034,0.18768 0.036,0.18916 0.063,0.41004 0.014,0.10924 0.029,0.21865 0.034,0.32852 0,0.12109 0.01,0.24247 0.01,0.36371 0,0.0757 0.1106,0.0703 0.1068,-0.005 0,-0.0799 -0.039,-0.59355 -0.036,-0.68924 0,-0.0514 0.011,-0.10236 0.018,-0.15338 0.1243,0.22484 0.2391,0.44965 0.3117,0.64898 0.09,0.24613 0.1138,0.51114 0.1707,0.76687 0.1401,0.43169 0.7508,0.23357 0.6106,-0.19818 -0.089,-0.26054 -0.1688,-0.52407 -0.2671,-0.78125 -0.043,-0.11278 -0.051,-0.12556 -0.085,-0.20951 5.3e-4,5.3e-4 10e-4,0.001 10e-5,0.002 0.076,0.0906 0.1448,0.18755 0.2187,0.27989 0.2176,0.27194 0.4488,0.54877 0.6706,0.81671 0,0.004 0.01,-2e-5 0.01,-0.004 -0.1169,-0.14486 -0.2426,-0.28298 -0.3504,-0.43462 -0.148,-0.20826 -0.1946,-0.28757 -0.2255,-0.35213 0.16631,0.14269 0.28651,0.19695 0.5195,0.32487 0.3586,0.16521 0.5924,-0.34195 0.2337,-0.5071 -0.3165,-0.048 -0.2678,-0.007 -0.59229,-0.29899 -0.29561,-0.26612 -0.65981,-0.69867 -0.87541,-1.03388 -1e-4,-0.003 -2e-4,-0.006 -2e-4,-0.009 0,2e-5 0.01,-2.6e-4 0.011,-2.5e-4 0.062,0.0322 0.1284,0.0632 0.3515,0.16531 0.1812,0.0829 0.3566,0.18115 0.5452,0.24576 0.3167,0.10853 1.4062,0.36725 1.71139,0.41511 0.145,0.0228 0.2915,0.0337 0.4382,0.0424 -0.1454,-0.0172 -0.2902,-0.0359 -0.4336,-0.0647 -0.29999,-0.0602 -0.59629,-0.1398 -0.88989,-0.22566 -0.264,-0.0772 -0.5285,-0.15614 -0.7818,-0.26323 -0.092,-0.0388 -0.2153,-0.1065 -0.3416,-0.18104 -0.069,-0.0914 0.1635,-0.14032 0.4235,-0.15676 0.9167,0.17638 1.78049,0.39478 2.72849,0.61828 0,0 0.01,-0.005 -1e-4,-0.006 -0.9534,-0.22423 -1.79329,-0.43239 -2.69739,-0.61434 0.016,-8e-4 0.032,-0.003 0.048,-0.004 0.4458,-0.016 0.9489,-0.0372 1.53469,-0.0653 0.45,-0.0216 0.7914,-0.0456 1.1237,-0.0696 0.031,0.0278 0.061,0.0562 0.093,0.0832 0.2444,0.21048 0.6896,0.5797 0.9099,0.74675 0.2389,0.1813 0.487,0.35096 0.7303,0.52644 0.016,0.0112 0.032,-0.0118 0.015,-0.023 -0.77849,-0.55463 -0.63259,-0.40325 -1.26259,-1.01593 -0.104,-0.10107 -0.21481,-0.19745 -0.3006,-0.31428 -8e-4,-8e-4 -8e-4,-0.002 0,-0.003 0.054,0.0263 0.1077,0.0519 0.1584,0.0833 0.1485,0.0918 0.37519,0.2736 0.5145,0.38188 0.12749,0.0891 0.2537,-0.091 0.1264,-0.18013 -0.062,-0.0456 -0.1246,-0.0908 -0.18661,-0.13641 0.17601,0.0551 0.3535,0.10457 0.5293,0.1603 0.2159,0.0684 0.42611,0.15629 0.6457,0.21196 1.1004,0.27907 0.732,0.15055 0.59781,0.10557 -0.01,-5.3e-4 -0.014,2.6e-4 -0.02,-5.3e-4 -0.1938,-0.0241 -0.3842,-0.0712 -0.5729,-0.12162 -0.2187,-0.0583 -0.4364,-0.12301 -0.6476,-0.20417 -0.2454,-0.0943 -0.4782,-0.21981 -0.7082,-0.35015 0.2172,-0.0199 0.4513,-0.0402 0.6117,-0.0592 0.673,-0.0796 1.3886,0.14248 1.5973,0.25948 0.1609,0.10449 0.3251,0.20509 0.471,0.32908 0.067,0.0573 0.1302,0.11997 0.1933,0.18229 -0.2004,-0.24279 -0.2671,-0.36177 -0.6329,-0.7483 -0.033,-0.0344 -0.068,-0.0648 -0.1044,-0.0959 0.1892,0.0689 0.4619,0.19032 0.9155,0.3321 0.2837,0.0958 0.5774,0.16615 0.8599,0.26613 0.5055,0.17891 0.9944,0.40581 1.5074,0.5618 0.5618,0.17084 1.1441,0.26501 1.7114,0.41667 0.3807,0.10173 0.7544,0.22886 1.1314,0.34327 0.3639,0.0469 0.4304,-0.46788 0.067,-0.51475 -0.3814,-5.3e-4 -0.7706,0.0727 -1.1446,-0.002 -0.9112,-0.18301 -1.713,-0.56478 -2.489,-1.00613 0.094,-0.004 0.1874,-0.006 0.2811,-0.006 0.3294,0.0732 0.6611,0.13287 0.9949,0.18197 -0.1005,-0.0148 -0.2127,-0.029 -0.2848,-0.0448 -0.1546,-0.034 -0.2787,-0.0798 -0.3963,-0.13227 0.274,0.0111 0.5478,0.0315 0.8208,0.0437 0.076,0.003 0.6821,0.0234 0.8545,0.029 0.1423,-0.008 0.1309,-0.20956 -0.014,-0.20126 -0.095,0.034 -0.1856,0.0895 -0.2861,0.10251 -0.183,0.0237 -0.3697,0.0162 -0.554,0.006 -0.2234,-0.0119 -0.4453,-0.0436 -0.6673,-0.0719 -0.1213,-0.0155 -0.1469,-0.0211 -0.2245,-0.0317 -0.1486,-0.13345 0.1698,-0.20453 0.5176,-0.28811 0.463,-0.11122 0.9367,-0.21059 1.3671,-0.24089 0.1598,-0.0116 0.126,-0.38327 0.034,-0.3972 -0.4727,-0.072 -1.4582,-0.37078 -2.2257,-0.61919 -0.2278,-0.0737 -0.4489,-0.15742 -0.3042,-0.24545 0.2331,-0.0621 0.3193,-0.077 1.0183,-0.18555 -0.7976,0.0605 -0.7957,0.0608 -1.1626,0.0658 0.1113,-0.24187 0.2716,-0.42572 0.5043,-0.61448 0.059,-0.0477 0.1204,-0.0922 0.1814,-0.13743 -0.061,0.0401 -0.1116,0.0712 -0.1916,0.12574 -0.2978,0.20313 -0.4271,0.31436 -0.651,0.56557 -0.019,0.0202 -0.033,0.0429 -0.05,0.0641 -0.031,5.3e-4 -0.022,7.9e-4 -0.057,0.001 0.072,-0.11794 0.1477,-0.23431 0.2249,-0.34925 0.089,-0.12158 -0.083,-0.24853 -0.1719,-0.12695 -0.05,0.0855 -0.095,0.17399 -0.1494,0.25663 -0.048,0.0734 -0.1015,0.14369 -0.1539,0.21431 0.071,-0.2306 0.084,-0.47373 0.1455,-0.70621 0.01,-0.0282 0.019,-0.0552 0.027,-0.0828 0.4026,-0.0676 0.8045,-0.13732 1.207,-0.20474 0.01,-2.2e-4 -2e-4,-0.009 -2e-4,-0.008 -0.2257,0.0384 -0.7202,0.12488 -1.2049,0.20728 0.035,-0.10366 0.077,-0.20535 0.1068,-0.31043 0.1226,-0.42215 -0.014,-0.1897 0.1699,-0.44935 0.04,-0.11626 -0.1241,-0.17363 -0.1647,-0.0573 -0.1493,0.5271 0.094,-0.35668 -0.099,0.48085 -0.027,0.1186 -0.066,0.23404 -0.099,0.35113 -0.2412,0.0408 -0.4411,0.0726 -0.6814,0.11083 0.041,-0.006 0.082,-0.009 0.1222,-0.0146 0.1863,-0.0282 0.3719,-0.0601 0.5577,-0.0911 2.6e-4,0.0164 -0.01,0.0328 -0.014,0.0494 -0.1016,0.37995 -0.1072,0.41324 -0.1474,0.50621 -0.1819,0.21673 -0.523,0.12031 -0.7936,0.0616 -0.4174,-0.0906 -0.8492,-0.17181 -1.2853,-0.24423 0.1636,-0.0502 0.3044,-0.0894 0.4069,-0.11246 -0.1534,0.006 -0.5774,0.003 -0.7587,0.001 -0.042,0.001 -0.072,0.0183 -0.09,0.0423 -0.1651,-0.0248 -0.3294,-0.0485 -0.4942,-0.0707 0.042,-0.0342 0.085,-0.0673 0.1333,-0.0945 0.3134,-0.17944 0.6664,-0.3275 1.0178,-0.43571 -0.1702,0.0416 -0.3399,0.0857 -0.5104,0.12615 -0.1498,0.0356 -0.3004,0.0667 -0.45,0.10257 0.17489,-0.17166 0.36309,-0.32634 0.55039,-0.48888 0.3825,-0.24419 0.036,-0.7849 -0.3454,-0.54072 -0.2083,0.11079 -0.4421,0.18308 -0.6248,0.33237 -0.08,0.0647 -0.1593,0.14176 -0.2379,0.22394 0,-0.0519 0.01,-0.10368 0.013,-0.15481 0.038,-0.22842 0.091,-0.41774 0.1727,-0.60035 -0.1107,0.18079 -0.2048,0.36725 -0.2743,0.58658 -0.035,0.11034 -0.043,0.22747 -0.059,0.34249 -0.038,0.0466 -0.079,0.0902 -0.1142,0.13953 -0.045,0.0224 -0.09,0.0426 -0.1356,0.0614 -0.049,-0.17863 -0.058,-0.0574 -0.016,-0.27154 -0.015,-0.20739 -0.3079,-0.18701 -0.2931,0.0204 0,0.26493 -0.011,0.0775 0.034,0.3466 -0.071,0.0196 -0.1409,0.0355 -0.2104,0.0481 0,-0.0515 0,-0.10303 0,-0.15448 0,-0.12157 -0.019,-0.24297 -0.018,-0.36453 0.01,-0.23872 0.056,-0.60358 0.085,-0.84235 0.01,-0.041 -0.051,-0.0494 -0.057,-0.009 -0.039,0.28258 -0.08,0.56479 -0.1166,0.84774 -0.015,0.11752 -0.017,0.2367 -0.04,0.3529 -0.013,0.0688 -0.044,0.13336 -0.068,0.19948 -0.01,0.001 -0.021,0.002 -0.031,0.004 -0.094,-0.20507 -0.1879,-0.4339 -0.2953,-0.74805 z m 1.609,-0.55954 c 0.078,-0.12723 0.1629,-0.25202 0.2583,-0.38156 0.042,-0.057 0.089,-0.11022 0.1359,-0.16325 -0.058,0.0452 -0.1145,0.0919 -0.159,0.14982 -0.1037,0.1352 -0.176,0.26365 -0.2352,0.39499 z m 0.3942,-0.54481 c 0.048,-0.0373 0.097,-0.0736 0.1427,-0.11331 0.017,-0.0163 -0.011,-0.0388 -0.023,-0.0227 -0.039,0.046 -0.079,0.0908 -0.1195,0.13603 z m 1.0388,1.54454 c 0.091,-0.0222 0.1814,-0.0449 0.2731,-0.0635 0.2591,-0.0525 0.5224,-0.0824 0.7828,-0.12757 0.1095,-0.019 0.1561,-0.031 0.2363,-0.0456 -0.07,0.01 -0.1298,0.0183 -0.2392,0.0323 -0.2625,0.0334 -0.5266,0.0646 -0.7833,0.1281 -0.09,0.0221 -0.1796,0.0485 -0.2697,0.0763 z m 1.2922,-0.23666 c 0.3535,-0.0484 0.32,-0.0426 0.7144,0.0508 0.133,0.001 0.1346,-0.18723 0.01,-0.18827 -0.2835,0.0577 -0.4737,0.0931 -0.7164,0.13744 z m -1.0999,0.79371 c 0.015,-5.3e-4 0.058,-2.6e-4 0.067,-0.001 0.2576,-0.0254 0.6613,-0.0864 1.0867,-0.154 -0.3632,0.0484 -0.7293,0.0751 -1.0902,0.13805 -0.013,0.002 -0.047,0.0132 -0.064,0.0169 z m 2.9461,-0.2374 c 0.3773,-0.24655 0.4815,-0.27306 1.0357,-0.51724 0.029,-0.009 0.059,-0.0182 0.088,-0.0273 -0.031,0.006 -0.062,0.0117 -0.092,0.0175 -0.2202,0.0945 -0.4507,0.1684 -0.6609,0.28355 -0.1297,0.071 -0.2514,0.15535 -0.3704,0.24344 z m 1.1236,-0.54453 c 0.1256,-0.0239 0.251,-0.048 0.3766,-0.072 0.03,-0.007 0.02,-0.0493 -0.011,-0.0422 -0.1223,0.0381 -0.2447,0.0761 -0.367,0.11416 z m -0.3053,3.50773 c 0.071,0.0104 0.1269,0.0212 0.2079,0.031 -0.069,-0.009 -0.1386,-0.0208 -0.2079,-0.031 z m -3.0973,0.27175 c 0.075,0.0909 0.1665,0.19711 0.3027,0.34422 0.012,0.0133 0.026,0.0254 0.039,0.0385 -0.011,-0.0148 -0.02,-0.0316 -0.031,-0.0458 -0.097,-0.11784 -0.2017,-0.2294 -0.3104,-0.3368 z m 0.3414,0.38264 c 0.091,0.12148 0.1636,0.25647 0.2458,0.38426 0.05,0.0592 0.1341,-0.012 0.083,-0.0717 -0.1095,-0.10453 -0.224,-0.2041 -0.3295,-0.3126 z m -1.266,-0.41781 c 1e-4,2.6e-4 1e-4,2.1e-4 0.01,2.6e-4 -0.026,-0.008 -0.041,-0.0116 -0.01,-2.6e-4 z m 0.01,2.6e-4 c 0.033,0.0108 0.08,0.0253 0.3118,0.0974 0.073,0.0119 0.09,-0.0913 0.017,-0.10321 -0.1095,0.002 -0.2198,0.0158 -0.3287,0.005 z m -3.2944,0.40489 c 0.1029,0.0121 0.2062,0.0234 0.3089,0.0375 -0.012,-0.002 -0.011,-0.0204 -5.3e-4,-0.0176 -0.1036,-0.009 -0.2073,-0.0138 -0.3111,-0.02 z m -3.968,-0.21845 c -0.014,0.0836 -0.032,0.14722 -0.024,0.60479 7.9e-4,0.0496 0,0.0989 0.013,0.14807 0,-0.0531 0,-0.0582 0.01,-0.14851 0.01,-0.19512 0.024,-0.39069 0.01,-0.58532 -5.3e-4,-0.006 -2.6e-4,-0.0127 -5.3e-4,-0.0191 z m -0.012,0.75289 c -0.01,0.22389 -0.01,0.25178 -0.083,0.55077 -0.01,0.0855 0.1174,0.0902 0.121,0.005 0,-0.089 0,-0.17775 -0.01,-0.26658 0,-0.0968 -0.018,-0.19289 -0.028,-0.28936 z m -2.4809,-0.59386 c 0.014,0.0198 0.025,0.0408 0.038,0.0602 0.011,0.016 0.025,0.0303 0.037,0.0457 -0.011,-0.0168 -0.02,-0.0323 -0.031,-0.0494 -0.013,-0.0194 -0.029,-0.0374 -0.043,-0.0565 z m 0.074,0.10587 c 0.1633,0.24612 0.2487,0.45562 0.374,0.72975 0.024,0.0489 0.093,0.0153 0.069,-0.0335 -0.065,-0.12578 -0.1167,-0.25853 -0.1935,-0.37718 -0.073,-0.11338 -0.1672,-0.21198 -0.2495,-0.31902 z m 5.4721,-4.31831 c 0.029,-0.0549 0.067,-0.13517 0.088,-0.17254 0.1321,-0.23674 0.2261,-0.3839 0.3335,-0.5476 -0.027,0.0205 -0.052,0.0426 -0.072,0.0688 -0.114,0.14151 -0.1864,0.31306 -0.2664,0.4763 -0.036,0.0741 -0.057,0.12072 -0.082,0.175 z m 0.4217,-0.72014 c 0.067,-0.0512 0.1451,-0.0897 0.213,-0.13914 0.05,-0.0533 -0.026,-0.12407 -0.076,-0.0707 -0.055,0.0844 -0.094,0.14355 -0.1375,0.20984 z m -2.1055,0.89058 c 2.6e-4,0.0123 -0.01,0.0391 -0.01,0.0498 -0.1318,0.0915 -0.2573,0.1779 -0.433,0.31049 -0.066,0.0493 -0.1271,0.1037 -0.1893,0.15723 -0.3079,0.0239 -0.6117,0.0547 -0.9123,0.0917 0.3646,-0.18585 0.7484,-0.33349 1.1323,-0.476 0.1341,-0.0498 0.2711,-0.0912 0.4079,-0.13315 z m -0.021,0.1302 c -0.021,0.11003 -0.047,0.21902 -0.067,0.3292 -0.011,0.008 -0.021,0.0163 -0.031,0.0245 -0.096,0.005 -0.1944,0.008 -0.2892,0.0145 0.017,-0.0184 0.03,-0.0389 0.048,-0.0564 0.13509,-0.13548 0.24109,-0.22994 0.33989,-0.31204 z m 10.8427,2.75179 c -0.1322,0.003 -0.26391,0.0168 -0.39581,0.0253 -0.079,0.002 -0.15809,0.004 -0.23719,0.005 -0.1529,0.0203 -0.12421,0.23641 0.029,0.21595 v -5.3e-4 c 0.2459,-0.0944 0.32181,-0.13625 0.6132,-0.17753 0.16291,-0.0229 0.32831,-0.0234 0.49241,-0.0353 0.022,-5.3e-4 0.02,-0.0329 -8e-4,-0.0315 -0.1665,-2.6e-4 -0.333,-0.006 -0.4994,-0.002 z m -0.6872,0.6108 c 0.1518,0.0203 0.3038,0.0395 0.45609,0.0565 0.37761,0.042 0.757,0.0683 1.13531,0.10233 0.1164,0.0104 0.1617,0.0121 0.24439,0.0184 -0.084,-0.009 -0.1244,-0.0154 -0.2436,-0.0271 -0.32169,-0.0317 -1.042,-0.0841 -1.59219,-0.15003 z m 1.83579,0.17714 c 0.50651,0.0566 0.5139,0.0765 0.68331,0.0706 -0.17281,-0.0479 -0.21971,-0.0354 -0.68331,-0.0706 z m 0.68331,0.0706 c 0.064,0.0179 0.15,0.0442 0.29919,0.0874 0.071,0.007 0.082,-0.0945 0.01,-0.10153 -0.1613,0.008 -0.24751,0.0115 -0.3094,0.0139 z m -11.7387,0.0651 c -0.1193,-0.0174 -0.19721,0.14996 -0.069,0.22589 0.4396,0.28545 -0.14181,-0.0746 0.47399,0.22923 0.089,0.0437 0.1676,0.10448 0.2516,0.1567 0.14821,0.078 0.2588,-0.13178 0.1105,-0.20974 -0.088,-0.0422 -0.17899,-0.0787 -0.2644,-0.12642 -0.62979,-0.35224 0.053,-0.0176 -0.44909,-0.25619 -0.018,-0.0108 -0.036,-0.017 -0.053,-0.0195 z"
       style="fill:#e6e6e6;fill-opacity:1;stroke-width:2.21495;stroke-linecap:round;paint-order:markers stroke fill"
       id="path5548" />
  </g>
</svg>
