<?xml version="1.0" encoding="UTF-8" standalone="no"?>
<svg
   xmlns:dc="http://purl.org/dc/elements/1.1/"
   xmlns:cc="http://creativecommons.org/ns#"
   xmlns:rdf="http://www.w3.org/1999/02/22-rdf-syntax-ns#"
   xmlns:svg="http://www.w3.org/2000/svg"
   xmlns="http://www.w3.org/2000/svg"
   xmlns:sodipodi="http://sodipodi.sourceforge.net/DTD/sodipodi-0.dtd"
   xmlns:inkscape="http://www.inkscape.org/namespaces/inkscape"
   inkscape:export-ydpi="96"
   inkscape:export-xdpi="96"
   inkscape:export-filename="D:\Calcatz\Icon Pack\Adventure Narative Inspired by Arrival\GUI\Alert Box\png\button_2.png"
   sodipodi:docname="button_2.svg"
   inkscape:version="1.0 (4035a4fb49, 2020-05-01)"
   id="svg2817"
   version="1.1"
   viewBox="0 0 28.308758 13.096287"
   height="13.096287mm"
   width="28.308758mm">
  <defs
     id="defs2811" />
  <sodipodi:namedview
     inkscape:window-maximized="1"
     inkscape:window-y="-8"
     inkscape:window-x="-8"
     inkscape:window-height="705"
     inkscape:window-width="1366"
     fit-margin-bottom="0"
     fit-margin-right="0"
     fit-margin-left="0"
     fit-margin-top="0"
     showgrid="false"
     inkscape:document-rotation="0"
     inkscape:current-layer="layer1"
     inkscape:document-units="mm"
     inkscape:cy="14.534874"
     inkscape:cx="-0.047357441"
     inkscape:zoom="2.6845878"
     inkscape:pageshadow="2"
     inkscape:pageopacity="0.0"
     borderopacity="1.0"
     bordercolor="#666666"
     pagecolor="#ffffff"
     id="base" />
  <metadata
     id="metadata2814">
    <rdf:RDF>
      <cc:Work
         rdf:about="">
        <dc:format>image/svg+xml</dc:format>
        <dc:type
           rdf:resource="http://purl.org/dc/dcmitype/StillImage" />
        <dc:title></dc:title>
      </cc:Work>
    </rdf:RDF>
  </metadata>
  <g
     transform="translate(-80.459771,-144.83451)"
     id="layer1"
     inkscape:groupmode="layer"
     inkscape:label="Layer 1">
    <path
       id="path5579"
       d="m 90.405391,144.83563 c -0.14175,-0.0119 -0.29086,0.0702 -0.37467,0.28508 -0.0241,0.0859 -0.0474,0.17218 -0.0729,0.25757 -0.0416,0.13877 -0.118039,0.26801 -0.12812,0.41468 -0.017,0.24591 0.10492,0.73663 0.20246,0.95706 0.37154,0.83979 0.250651,0.34029 0.318111,0.63794 -0.135221,-0.12505 -0.29234,-0.2702 -0.293191,-0.27145 -0.18075,-0.27257 -0.324459,-0.57622 -0.47971,-0.8702 0.48913,1.12858 0.256691,0.6883 0.5238,1.11197 -0.0537,-0.0484 -0.11271,-0.10403 -0.20035,-0.19195 -0.14756,-0.14806 -0.28003,-0.31634 -0.430799,-0.45987 -0.15797,-0.15042 -0.32943,-0.2805 -0.49404,-0.42067 -0.0232,-0.0217 -0.049,0.017 -0.0259,0.0387 0.159799,0.14353 0.33533,0.26551 0.47949,0.43047 0.139429,0.15955 0.2428,0.35793 0.36521,0.53585 0.0529,0.0769 0.0507,0.0738 0.0822,0.12035 0.0484,0.11528 -0.11071,0.17518 -0.23383,0.21672 -0.561911,0.18956 -1.093391,0.53685 -1.635421,0.84134 -0.0969,-0.32621 -0.18692,-0.65571 -0.25299,-0.99218 -0.006,-0.03 -0.0152,-0.0957 -0.0219,-0.13641 0.23994,-0.25846 0.47774,-0.51973 0.71684,-0.77926 -0.23838,0.24928 -0.48802,0.4848 -0.7235,0.73761 -0.0815,-0.49664 -0.2156,-1.56709 -0.27707,-2.04998 0,-0.002 -0.004,-0.002 -0.004,0 0.19276,1.8899 -0.0433,-0.35486 0.25374,2.0791 -0.082,0.0889 -0.1623,0.18018 -0.23918,0.27529 -0.0214,0.0266 -0.0527,0.0698 -0.0894,0.12224 0.0384,-0.0396 0.0612,-0.0622 0.10414,-0.107 0.0775,-0.081 0.15314,-0.16445 0.22967,-0.24668 0.007,0.0579 0.007,0.0501 0.0143,0.11326 0.0438,0.36011 0.0665,0.72387 0.11106,1.08366 -0.20604,0.11055 -0.4144,0.21175 -0.62704,0.29243 -0.23083,0.0876 -0.51469,0.10956 -0.4446,-0.17425 0.20849,-0.34866 0.46189,-0.74609 0.61244,-0.96142 -1.00664,1.04198 -0.47453,0.37287 -0.98417,1.09973 -0.0241,-0.0992 -0.0494,-0.19827 -0.0801,-0.29488 -0.0223,-0.0701 -0.0479,-0.13844 -0.0741,-0.20666 -0.0223,-0.19217 -0.0471,-0.41439 -0.0511,-0.55571 -0.004,-0.14598 0.004,-0.29222 0.0125,-0.43782 0.006,-0.0951 0.0237,-0.18859 0.0357,-0.2829 0.004,-0.17105 -0.201969,-0.17654 -0.205179,-0.005 0.11923,0.52988 0.0442,0.0546 0.008,0.68805 -0.0366,-0.14306 -0.0702,-0.28732 -0.11588,-0.42667 -0.10776,-0.32887 -0.26666,-0.63491 -0.35275,-0.97256 -0.0641,-0.25135 -0.0627,-0.51968 -0.0939,-0.77953 -0.0701,-0.28716 -0.41431,-0.17037 -0.34421,0.11679 0.689359,2.07985 -0.254691,-0.89999 0.415509,1.79133 0.0529,0.21241 0.17838,0.39181 0.24079,0.60063 0.0796,0.26633 0.11147,0.54127 0.14153,0.81683 -0.13885,-0.0925 -0.25906,-0.17366 -0.33684,-0.22843 -0.0499,-0.0514 -0.10128,-0.10453 -0.14175,-0.14677 0.029,0.0138 -0.0103,-0.008 -0.004,-0.004 -0.38187,-0.39876 -0.40707,-0.46075 -0.89272,-1.12314 -0.009,-0.0125 -0.0246,0.003 -0.0152,0.0155 0.17262,0.23378 0.35105,0.46181 0.51786,0.70139 0.0697,0.10004 0.13621,0.20296 0.20242,0.30631 -0.21006,-0.11305 -0.56338,-0.30533 -1.28889,-0.70929 -0.11512,-0.0821 -0.21372,0.11009 -0.0986,0.19223 0.32831,0.32988 0.662691,0.6515 0.987611,0.98592 0.166049,0.30039 -0.0304,0.51021 -0.323671,0.68097 -1.0879,0.63356 -2.39263,1.63249 -4.06933,1.72542 1.1739,0.0943 2.5442,0.6711 3.62192,1.22497 -0.009,0.0876 -0.0241,0.18254 -0.0512,0.29978 -0.009,0.0387 -0.0197,0.0769 -0.0304,0.1149 -0.11312,0.0543 -0.22628,0.10872 -0.33939,0.1631 0.11311,-0.0493 0.22493,-0.10349 0.33729,-0.15548 -0.0402,0.13765 -0.0909,0.27119 -0.14403,0.40243 -0.0511,0.12614 -0.12129,0.24036 -0.18192,0.3605 -0.0466,0.1119 0.0875,0.18949 0.13412,0.0776 0.042,-0.13476 0.0784,-0.27176 0.12557,-0.40405 0.0595,-0.16708 0.13831,-0.3245 0.19416,-0.49309 0.0771,-0.0336 0.15461,-0.0658 0.233641,-0.0926 0.0512,-0.0173 0.102979,-0.031 0.155149,-0.0436 0.85033,0.46348 1.43386,0.85768 1.43386,0.85768 5e-5,0 0.24607,0.11973 0.40908,0.25539 -0.10387,-0.004 -0.2013,-0.01 -0.29413,-0.0171 0.0985,0.0174 0.21778,0.0441 0.36221,0.08 0.085,0.0906 0.109101,0.18089 -0.0147,0.24287 -0.216,0.0544 -0.43271,0.10414 -0.65032,0.14784 -0.55458,0.11139 -1.12123,0.13295 -1.67304,0.26167 -0.53814,0.12551 -1.06017,0.33285 -1.59017,0.49934 -0.058,0.0135 -0.042,0.10963 0.016,0.0961 0.5325,-0.13678 1.05907,-0.31263 1.59779,-0.41032 0.22034,-0.0399 2.73861,-0.29698 3.090731,-0.31203 0,-1e-5 0,3e-5 0,0 -0.0165,0.0136 -0.0322,0.0286 -0.0496,0.0408 -0.39912,0.28214 -1.09126,0.55661 -1.52852,0.66053 -0.30464,0.0724 -0.61735,0.0848 -0.92601,0.12716 -0.16395,0.0162 -0.14452,0.2896 0.0197,0.27336 0.73225,-0.12658 1.15741,-0.1789 1.87385,-0.38446 0.26836,-0.077 0.540199,-0.14934 0.796,-0.27199 0.199109,-0.0954 0.37307,-0.25197 0.55963,-0.37792 0.01,-0.013 0.0165,-0.0263 0.0241,-0.0395 0.0586,0.002 0.11727,0.003 0.17588,0 0.005,0 0.0103,-0.002 0.0156,-0.002 -0.11664,0.38674 -0.39335,1.03449 -0.53926,1.33769 -0.52639,1.09375 -0.0795,0.0566 -0.31883,0.62107 -0.0567,0.31008 0.31499,0.40483 0.37168,0.0948 -0.0277,-0.0499 -0.0892,-0.0902 -0.0836,-0.1495 0.0375,-0.39623 0.34578,-0.87928 0.48574,-1.18549 0.11512,-0.25177 0.21787,-0.51115 0.32554,-0.76753 0.025,-0.007 0.0503,-0.0138 0.0755,-0.021 0.0228,-0.006 0.0455,-0.013 0.0684,-0.0188 0.0313,0.0561 0.0641,0.11131 0.10021,0.165 0.44339,0.65898 0.52326,0.69212 0.77706,1.01478 -0.0705,-0.0954 -0.13729,-0.18947 -0.19509,-0.27827 -0.16834,-0.25874 -0.30875,-0.54134 -0.4534,-0.81928 -0.0241,-0.0462 -0.0468,-0.0934 -0.0697,-0.14051 0.28328,-0.1154 0.51907,-0.27651 0.78725,-0.27527 0.23463,0.002 0.46595,0.029 0.69075,0.11029 0.33403,0.12071 0.64826,0.23552 0.95459,0.3436 -0.17972,0.0978 -0.35091,0.18769 -0.43838,0.22191 -0.72207,0.18897 -0.38827,0.0737 -1.00517,0.32837 -0.0719,0.0312 -0.0344,0.15129 0.0375,0.12007 0.13599,-0.0829 0.26536,-0.18312 0.40792,-0.24887 0.1816,-0.0837 0.37285,-0.13448 0.5603,-0.19766 0.32178,-0.10845 0.44629,-0.15099 0.55681,-0.18242 0.21399,0.0746 0.42548,0.14661 0.63558,0.21291 0.0953,0.0301 0.23691,0.0686 0.11334,0.17971 -0.0714,0.0383 -0.16074,0.0845 -0.27492,0.14131 -0.23941,0.1191 -0.48579,0.21783 -0.72859,0.32673 -0.0863,0.0373 -0.0416,0.18099 0.0448,0.14377 0.24504,-0.0989 0.48556,-0.21561 0.73529,-0.29651 0.16963,-0.0549 0.28288,-0.0835 0.38576,-0.10402 -0.0572,0.14974 -0.1132,0.29994 -0.17311,0.44818 -0.17691,0.43769 -0.0687,0.31268 -0.31562,0.50044 -0.0927,0.15592 0.0943,0.31057 0.187,0.15465 0.0781,-0.19691 0.14921,-0.39747 0.2311,-0.5922 0.0767,-0.18238 0.15949,-0.36087 0.24356,-0.53857 0.0539,-0.006 0.1133,-0.0114 0.17615,-0.0152 -0.10145,0.39014 -0.22926,0.82566 -0.29136,0.98919 -0.0693,0.18252 -0.17016,0.34587 -0.25232,0.52086 -0.0506,0.1079 -0.1137,0.21022 -0.14591,0.32754 -0.0277,0.10127 -0.0205,0.21147 -0.0313,0.31721 -0.004,0.0745 -0.005,0.14903 -0.008,0.22354 0.0534,0.67379 0.8614,0.58475 0.80797,-0.089 l 0.0147,-0.024 c -0.004,-0.0714 -0.004,-0.14315 -0.0116,-0.21402 -0.0112,-0.0954 -0.0599,-0.18901 -0.0455,-0.28371 0.0295,-0.19193 0.118431,-0.36417 0.17271,-0.54836 0.0415,-0.14067 0.0804,-0.28233 0.119321,-0.42395 0.004,0.009 0.006,0.0178 0.008,0.0267 0.18146,0.62041 -0.0344,0.0716 0.23315,0.68451 0.183249,0.35475 0.60851,0.049 0.42525,-0.30578 -0.0442,-0.0706 -0.0958,-0.13558 -0.13277,-0.21182 -0.0926,-0.19116 -0.18307,-0.50728 -0.2285,-0.72916 0.006,-0.0495 0.0268,-0.0945 0.0595,-0.13042 0.10185,0.13552 0.20536,0.26919 0.309319,0.40242 -0.10052,-0.12952 -0.19782,-0.26701 -0.291099,-0.41848 0.0619,-0.0552 0.15498,-0.0843 0.269209,-0.0648 0.11606,0.0198 0.23726,0.0358 0.358061,0.0523 0.098,0.17274 0.11593,0.17473 0.452009,0.63658 -0.120439,-0.19349 -0.234539,-0.39337 -0.325049,-0.60771 0,-0.004 -0.004,-0.007 -0.004,-0.0106 0.006,0.002 0.0125,0.002 0.0188,0.003 0.46327,0.0568 0.90773,0.0997 1.34589,0.11001 0.051,0.23501 0.15346,0.45208 0.20314,0.68749 0.0438,0.20708 0.0505,0.42256 0.0758,0.63387 0.0121,0.0645 0.0897,0.0444 0.0776,-0.0201 -0.0416,-0.20673 -0.0945,-0.41084 -0.12469,-0.62026 -0.0326,-0.22504 -0.0569,-0.45257 -0.0642,-0.68069 0.64214,0.002 1.27424,-0.0706 1.93389,-0.28807 0.16802,-0.0554 0.29735,-0.0965 0.44464,-0.1443 -0.0716,0.14849 -0.14099,0.28968 -0.19647,0.40378 -0.11258,0.23157 -0.24352,0.45215 -0.34788,0.6886 0.0965,-0.20103 0.21886,-0.4 0.37213,-0.66953 0.0884,-0.15544 0.18379,-0.30516 0.2768,-0.45689 0.79051,-0.25568 1.28394,-0.40354 1.56824,-0.47703 -0.0335,0.0684 -0.066,0.13742 -0.10159,0.20421 -0.10239,0.1922 -0.21783,0.37463 -0.31718,0.56906 -0.26237,0.51339 -0.35418,0.76683 -0.57442,1.30204 -0.0201,0.0574 0.0487,0.0909 0.0688,0.0335 0.0758,-0.22089 0.13795,-0.44889 0.22766,-0.66246 0.0928,-0.22114 0.19719,-0.43694 0.31857,-0.63794 0.21229,-0.35159 0.34836,-0.48552 0.57508,-0.71936 0.008,0.0994 0.0152,0.19151 0.0147,0.2573 0,0.18719 -0.0514,0.37127 -0.0496,0.55845 0,0.18513 0.0362,0.36802 0.0598,0.55109 0.0344,0.26775 0.0797,0.53309 0.11866,0.79995 0.092,0.25372 0.396307,0.10042 0.304277,-0.15329 -0.0522,-0.069 -0.12804,-0.12082 -0.15654,-0.20693 -0.06511,-0.19667 -0.07841,-0.81146 -0.07941,-0.99082 0,-0.18625 0,-0.37279 0.0134,-0.55845 0.008,-0.1262 0.02371,-0.25156 0.03981,-0.37682 0.12205,-0.0507 0.054,-0.0225 0.26666,-0.11028 0.0197,0.0143 0.0393,0.0266 0.0589,0.0373 -0.008,0.0897 -0.0165,0.17954 -0.025,0.26927 -0.0506,0.21466 0.20687,0.29878 0.25741,0.0841 0.0486,-0.11054 0.0973,-0.22109 0.1459,-0.33164 0.4211,-0.15302 0.82017,-0.78243 1.21804,-0.59847 0.009,0.004 0.0179,0.0113 0.0268,0.0177 -0.16373,0.17687 -0.28333,0.30352 -0.5485,0.55109 -0.15708,0.14664 -0.34136,0.25605 -0.48043,0.42613 -0.18371,0.2246 -0.3192,0.49764 -0.47878,0.74656 -0.0156,0.0242 0.0134,0.0509 0.029,0.0267 0.15971,-0.24279 0.29708,-0.50881 0.47926,-0.72861 0.13939,-0.16826 0.30991,-0.29725 0.47694,-0.42584 0.20912,-0.16097 0.41717,-0.27976 0.63165,-0.39916 -0.0165,0.0598 -0.01,0.0359 0.004,-0.003 0.004,-0.002 0.009,-0.005 0.0129,-0.007 -0.004,0.0432 -0.0277,0.17443 -0.0988,0.50398 -0.0304,0.13991 -0.0768,0.27431 -0.11517,0.41141 -0.0564,0.19378 0.17584,0.28771 0.23222,0.0939 0.0348,-0.1243 0.0686,-0.24974 0.10342,-0.37492 0.0103,0.0874 0.0196,0.17479 0.0295,0.26219 0.0286,0.25616 0.0429,0.51481 0.0799,0.76947 0.1778,0.93744 0.10875,0.49337 0.21676,1.3298 0.14166,0.56619 0.82057,0.32984 0.67895,-0.23634 -0.34662,-1.0643 0.0282,0.19341 -0.20362,-1.09374 0.0893,0.0833 0.17637,0.16921 0.25629,0.26438 0.1687,0.20098 0.29735,0.44407 0.44603,0.666 0.0438,0.0596 0.11499,-0.0134 0.0713,-0.073 -0.15221,-0.21839 -0.30761,-0.43341 -0.45638,-0.6551 -0.0835,-0.12447 -0.27319,-0.41931 -0.45643,-0.70493 -0.0362,-0.10793 -0.0688,-0.21662 -0.0801,-0.33109 -0.008,-0.0772 -0.004,-0.15461 0.004,-0.23197 0.0277,-0.1435 0.0533,-0.22128 0.10114,-0.24642 0.10307,0.14114 0.2009,0.28924 0.31857,0.41332 0.13385,0.1411 0.74463,0.6391 0.89782,0.76592 0.0513,0.0347 0.093,-0.0507 0.0415,-0.0855 -0.14903,-0.11034 -0.30682,-0.20588 -0.44714,-0.33111 -0.24517,-0.21878 -0.46733,-0.48535 -0.65219,-0.77735 0.34734,-0.0184 0.46318,-0.15579 0.71241,-0.52358 0.24392,0 0.45496,-0.0501 0.65265,-0.13669 0.054,-0.0237 0.20411,-0.0725 0.36869,-0.0822 0.10262,0.1761 0.17436,0.29625 0.35485,0.55734 0.1237,0.17897 0.24736,0.35826 0.38111,0.52686 0.14345,0.18084 0.29963,0.34688 0.44951,0.52032 0.0259,0.0297 0.0615,-0.0136 0.0357,-0.0433 -0.28824,-0.35962 -0.55128,-0.65006 -0.77501,-1.07196 -0.0751,-0.14151 -0.12593,-0.29864 -0.18329,-0.45144 0.007,0.002 0.0147,0.003 0.0219,0.005 0.32786,0.2327 0.68168,0.48483 0.95919,0.7387 0.16123,0.14748 0.29767,0.32932 0.44652,0.4939 0.10695,0.10256 0.22998,-0.0758 0.12303,-0.17834 -0.17735,-0.12394 -0.37097,-0.21998 -0.53189,-0.37192 -0.18656,-0.17615 -0.3493,-0.38399 -0.5146,-0.58867 0.17294,0.032 0.34533,0.0671 0.51389,0.12172 0.34385,0.11137 0.66837,0.29316 1.00261,0.43972 0.30356,0.11185 0.43772,-0.39458 0.13415,-0.50643 -0.34554,-0.10122 -0.70159,-0.16134 -1.03656,-0.3036 -0.17208,-0.0731 -0.33541,-0.17077 -0.49771,-0.27119 0.37133,0.0217 0.74632,-0.002 1.11712,-0.006 0.10413,0.0123 0.11883,-0.1615 0.0147,-0.17371 -0.31553,-0.0396 -0.63763,-0.0341 -0.94745,-0.11301 0.25549,-0.091 0.52166,-0.18394 0.62035,-0.20612 0.28028,-0.0629 0.5669,-0.0777 0.84978,-0.12142 0.20255,-0.0314 0.40429,-0.0693 0.60649,-0.10401 0.0304,-0.005 0.0241,-0.0563 -0.007,-0.0509 -0.20202,0.0347 -0.40448,0.0677 -0.60627,0.10429 -0.28212,0.0512 -0.56164,0.12257 -0.84537,0.15901 -0.22386,0.0288 -0.4135,0.0343 -0.60256,0.034 -0.0695,-0.0371 -0.006,-0.11475 0.0767,-0.17535 0.62258,-0.45752 1.45994,-0.93318 2.80629,-1.22388 -1.92327,-0.25484 -2.95014,-1.20926 -3.84773,-1.75809 -0.0707,-0.0433 -0.0931,-0.0573 0.0161,-0.15793 0.22744,-0.1044 0.45215,-0.21774 0.68472,-0.3044 0.19013,-0.0708 0.3863,-0.11696 0.57947,-0.17534 0.0286,-0.01 0.017,-0.0573 -0.0116,-0.0476 -0.19313,0.0582 -0.38603,0.1181 -0.57947,0.1748 -0.66001,0.19341 -0.48355,0.16119 -0.93913,0.21154 0.63365,-0.6239 1.30787,-1.29823 2.07819,-1.6715 0.33822,-0.16389 0.71451,-0.18466 1.07164,-0.27691 0.18437,-0.0714 0.0987,-0.37878 -0.0856,-0.30739 -0.92328,0.3938 -1.4029,0.56048 -2.30764,1.12668 -0.27796,0.17394 -0.47234,0.30366 -0.63097,0.4155 0.26621,-0.33442 0.67046,-0.74216 0.83781,-0.90831 0.67248,-0.66793 0.90867,-0.86233 1.54492,-1.41995 -1.06159,0.8744 -0.29646,0.21839 -1.56038,1.40198 -0.23069,0.21599 -0.4709,0.41751 -0.69838,0.6382 -0.086,0.0834 -0.17794,0.18149 -0.27033,0.28262 0.0429,-0.0665 0.0747,-0.11374 0.15793,-0.24667 0.0943,-0.14913 -0.0846,-0.30678 -0.17892,-0.15765 -0.0957,0.13528 -0.1632,0.22995 -0.23226,0.32756 0.0566,-0.18371 0.11691,-0.36886 0.18495,-0.56062 0.12571,-0.35463 0.25638,-0.70817 0.41506,-1.04393 0.15328,-0.32425 0.34551,-0.62059 0.51827,-0.93091 0.077,-0.13245 -0.0819,-0.26096 -0.15882,-0.12851 -0.17963,0.31765 -0.37732,0.62205 -0.53881,0.95296 -0.45259,0.92719 -0.44161,1.12564 -0.78425,2.09164 -0.0134,0.038 -0.0281,0.0754 -0.0429,0.113 -0.0489,0.10862 -0.12143,0.18815 -0.18678,0.20747 -0.009,-0.11584 -0.0165,-0.23959 -0.0232,-0.40868 -0.0121,-0.29851 -0.0362,-0.5979 -0.0192,-0.89607 0.005,-0.0956 0.0138,-0.1909 0.0246,-0.28589 -0.0121,0.095 -0.0237,0.19042 -0.0331,0.28589 -0.029,0.29746 -0.0322,0.59748 -0.048,0.89634 -0.0196,0.13894 -0.0411,0.27762 -0.0609,0.4166 -0.15086,0.005 -0.28997,0.0267 -0.42846,0.0536 -0.0786,-0.0959 -0.17634,-0.16844 -0.25349,-0.26597 -0.025,-0.0315 -0.47251,-0.69164 -0.51781,-0.7583 -0.11526,-0.17499 -0.32518,0.0172 -0.20988,0.19224 0.0815,0.11288 0.17164,0.21785 0.2445,0.3387 0.081,0.13443 0.15002,0.28049 0.22092,0.42504 0,0.0174 -0.004,0.0385 -0.008,0.0599 -0.0893,-0.0577 -0.21372,-0.13705 -0.46081,-0.28618 -0.008,-0.005 -0.0138,0.007 -0.006,0.0125 0.23208,0.19211 0.35122,0.28701 0.43727,0.35531 -0.0201,0.0391 -0.0447,0.0733 -0.0725,0.0828 -0.21189,0.0717 -0.42315,0.14522 -0.64062,0.13396 -0.30008,-0.0155 -0.56996,-0.2238 -0.85489,-0.33572 -0.15354,0.002 -0.30726,0.004 -0.46081,0.007 -0.11016,0.002 -0.25544,-0.037 -0.24195,-0.21129 0.0348,-0.29265 0.075,-0.59739 0.14916,-0.88027 -0.0534,0.1443 -0.10601,0.289 -0.15443,0.43564 -0.0241,0.0726 -0.0165,0.0524 -0.0375,0.11545 0.0272,-0.45572 0.14738,-0.88939 0.45134,-1.26283 0.004,-0.005 0.008,-0.009 0.0121,-0.0134 -0.0463,0.097 -0.0842,0.1984 -0.11289,0.28181 0.0905,-0.19299 0.22395,-0.38578 0.42503,-0.27799 0.0304,0.0163 0.0152,0.0768 0.0232,0.11516 0.10159,0.11942 0.24471,-0.0499 0.14314,-0.16935 -0.0715,-0.0569 -0.13095,-0.15919 -0.20851,-0.19329 0.11254,-0.0831 0.22975,-0.15936 0.33845,-0.24778 0.27354,-0.22014 0.009,-0.67647 -0.26389,-0.45634 -0.27809,0.21887 -0.60573,0.36896 -0.83433,0.65673 -0.12772,0.16084 -0.22583,0.34074 -0.30494,0.53094 -0.125543,-1.13345 0.0914,-0.28565 -0.0637,-1.56314 -0.0308,-0.25287 -0.10395,-0.49611 -0.15582,-0.74413 -0.0295,-0.1261 -0.18093,-0.0766 -0.15122,0.0495 0.0694,0.23365 0.16873,0.45769 0.20822,0.70086 0.0451,0.27746 0.0402,0.56372 0.0429,0.84623 0.004,0.25829 -0.0183,0.516 -0.0277,0.77408 -0.006,0.14728 -0.0152,0.29461 -0.0201,0.44191 -0.2479,-0.53065 -0.46336,-1.08095 -0.64478,-1.64863 -0.0849,-0.26549 -0.15359,-0.53788 -0.23039,-0.80677 -0.0201,-0.0792 -0.1149,-0.0457 -0.0949,0.0335 0.17061,0.74152 0.21273,0.98516 0.44209,1.72241 0.0631,0.20306 0.1426,0.39884 0.21077,0.59956 0,-0.004 -0.004,-0.007 -0.007,-0.0106 -0.1153,-0.20165 -0.22078,-0.41111 -0.33519,-0.61344 -0.0769,-0.13599 -0.28694,-0.49258 -0.4848,-0.83018 0.0188,0.0347 0.0393,0.0683 0.0577,0.10347 0.21189,0.40779 0.39885,0.83143 0.56723,1.26554 -0.50603,-0.47418 -1.12516,-0.79315 -1.88359,-0.77136 -0.30486,0.009 -0.59265,0.0466 -0.87128,0.10239 -0.12625,0.0252 -0.2701,0.0358 -0.24285,-0.0844 0.0201,-0.0368 0.0411,-0.0731 0.0628,-0.10863 0.13974,-0.16524 0.25134,-0.29239 0.36727,-0.39726 0.004,-0.002 0.005,-0.002 0.008,-0.003 0.0125,-0.0102 0.0237,-0.0208 0.0331,-0.0321 0.12236,-0.105 0.25893,-0.19784 0.458,-0.31013 0.1556,-0.0877 0.32384,-0.14034 0.48574,-0.21046 0.0588,-0.0278 0.0255,-0.12585 -0.0335,-0.098 -0.16534,0.0746 -0.33947,0.12628 -0.4961,0.22354 -0.12889,0.08 -0.24754,0.18045 -0.36526,0.28234 0.0192,-0.15426 -0.12736,-0.30996 -0.2768,-0.18841 -0.13384,0.13131 -0.33206,0.31796 -0.44575,0.46668 -0.0277,0.0363 -0.0541,0.0747 -0.079,0.1141 0,-0.0418 0,-0.026 0,-0.082 0,-0.63522 -0.7616,-0.63522 -0.7616,0 0.0277,0.43885 0.0442,0.40251 0.0107,0.57313 -0.0585,0.15062 -0.19267,0.26511 -0.32714,0.30523 -0.16944,0.0506 -0.34197,0.0988 -0.51875,0.14322 0,-0.002 0,-0.004 0,-0.005 v -0.002 c -0.0362,-0.0633 -0.069,-0.12129 -0.10132,-0.17888 0.006,-0.0284 0.0112,-0.0571 0.0188,-0.085 0.0692,-0.24425 0.17776,-0.4705 0.2701,-0.70383 0.331299,-0.83666 0.173559,-0.53485 0.565619,-1.13783 0.0896,-0.19752 -0.14725,-0.34673 -0.23682,-0.14921 -0.0538,0.1648 -0.10096,0.33271 -0.16163,0.49418 -0.0919,0.24476 -0.19683,0.48252 -0.2957,0.72345 -0.0894,0.21771 -0.17637,0.43694 -0.26875,0.65292 -0.0732,-0.14963 -0.13675,-0.31072 -0.19161,-0.53258 -0.0103,-0.0426 -0.0197,-0.0857 -0.0282,-0.12879 0.005,0.0443 0.0116,0.0885 0.017,0.13287 0.0313,0.27062 0.0357,0.54554 0.0739,0.81466 -0.0308,0.0669 -0.0608,0.13431 -0.0921,0.20094 -0.007,0.002 -0.0143,0.003 -0.0214,0.004 -0.009,0.002 -0.0192,0.003 -0.029,0.004 -0.0778,-0.13427 -0.14728,-0.27567 -0.22738,-0.40813 -0.11201,-0.18529 -0.22986,-0.36552 -0.34561,-0.54755 0.0956,0.19658 0.16709,0.4099 0.26229,0.60717 0.0844,0.17484 0.13844,0.28297 0.1812,0.36622 -0.64434,0.0809 -1.29488,-0.0756 -1.94614,-0.22054 -0.17802,-0.0396 -0.27783,-0.10128 -0.22141,-0.20993 0.013,-0.0103 0.025,-0.0218 0.038,-0.0319 0.31209,-0.24184 0.79971,-0.62434 1.1688,-0.74168 0.12152,-0.0386 0.25138,0 0.37746,0.006 0.0255,0.0416 0.0502,0.0836 0.076,0.12471 0.021,0.0336 0.0424,0.0668 0.0639,0.10021 -0.0174,-0.0362 -0.0344,-0.073 -0.0542,-0.10783 -0.025,-0.0442 -0.0463,-0.0797 -0.0686,-0.11762 0.14791,-0.0463 0.0964,-0.29575 -0.0549,-0.25295 -0.0277,0.0107 -0.0556,0.0204 -0.0834,0.0305 -0.0344,-0.0506 -0.0668,-0.0937 -0.0988,-0.13314 0.0286,0.0459 0.0586,0.091 0.0868,0.13749 -0.0942,0.0339 -0.18851,0.0671 -0.27979,0.11054 -0.14344,0.0683 -1.07361,0.57776 -1.22126,0.64394 -0.13094,0.0587 -0.26719,0.0983 -0.40214,0.14295 0.23137,-0.42187 0.58433,-0.948 0.78469,-1.16916 0.22444,-0.24783 0.49388,-0.43223 0.74083,-0.64829 0.13845,-0.12784 -0.0148,-0.35871 -0.15332,-0.23089 -1.11927,0.98471 -0.46993,0.3148 -1.37175,1.48146 -0.0792,0.10238 -0.14274,0.18207 -0.19877,0.25078 -0.008,-0.21774 0.13715,-0.52885 0.20916,-0.69594 0.22298,-0.51771 0.28847,-0.62786 0.54253,-1.13078 0.0681,-0.12344 -0.0798,-0.23724 -0.14801,-0.11382 -0.1111,0.17886 -0.22064,0.35925 -0.33336,0.53666 -0.11704,0.1842 -0.25951,0.348 -0.35596,0.5481 -0.0697,0.14441 -0.0854,0.3169 -0.13554,0.47212 -0.0161,0.0499 -0.021,0.0598 -0.0331,0.0953 -0.11472,-0.23356 -0.20809,-0.47654 -0.21908,-0.75339 -0.006,-0.15729 0.10369,-0.39043 0.16623,-0.52795 0.13965,-0.35821 -0.0764,-0.63813 -0.31263,-0.65782 z m 2.63456,1.50869 c -0.0357,-0.0568 -0.07,-0.11463 -0.10735,-0.16989 -0.0919,-0.13623 -0.19804,-0.25809 -0.29707,-0.38719 -0.0592,-0.0656 -0.1377,0.033 -0.0785,0.0986 0.23351,0.20809 0.35592,0.30151 0.48292,0.45852 z m 0.98462,0.37983 c -0.0272,-0.22309 -0.0571,-0.44565 -0.0877,-0.66818 0.0237,0.22424 0.0442,0.44917 0.0877,0.66818 z m 4.68301,-0.24205 c -0.10375,-0.18987 -0.21444,-0.37439 -0.32112,-0.56199 0,0.004 -0.005,0.007 -0.005,0.004 0.0583,0.0993 0.19291,0.33138 0.32599,0.55844 z m 1.992989,1.09074 c -0.0232,0.0494 -0.0452,0.0995 -0.0628,0.14377 -0.038,0.0951 -0.0687,0.19604 -0.0958,0.2995 0.0362,-0.098 0.0726,-0.19595 0.10895,-0.29379 0,-0.004 0.0214,-0.0674 0.0496,-0.14948 z m 3.08684,-0.0784 c 0.0349,-0.2683 0.078,-0.53516 0.11427,-0.80321 0,0.006 -0.007,0.004 -0.007,-0.002 -0.0326,0.26865 -0.0775,0.53586 -0.10713,0.80484 z m 3.39339,-1.35649 c 0.0241,-0.02 0.0246,-0.0198 0.0506,-0.0414 9e-5,0.002 0,-0.002 0,-0.003 -0.0219,0.0191 -0.0295,0.0261 -0.0506,0.0444 z m -9.831579,9.84229 c -0.0519,0.10808 -0.096,0.21922 -0.13207,0.34008 0.0214,-0.0628 0.0465,-0.13175 0.0757,-0.20884 0.017,-0.0448 0.0371,-0.0877 0.0563,-0.13124 z m -3.03788,-0.15465 c 0.0268,0.0431 0.0537,0.0862 0.081,0.12879 0.18377,0.28634 0.34881,0.52024 0.53053,0.73324 -0.1903,-0.22917 -0.34622,-0.49552 -0.52223,-0.74032 -0.0433,-0.0603 -0.0541,-0.0734 -0.0893,-0.12171 z m 0.61153,0.86203 c 0.009,0.0106 0.017,0.0222 0.0259,0.0327 0.021,0.0247 0.0482,0.0533 0.0776,0.0833 -0.0349,-0.0382 -0.0698,-0.0766 -0.10342,-0.116 z m 0.10343,0.116 c 0.14907,0.16257 0.31213,0.31604 0.50789,0.47512 0.0295,0.024 0.0603,0.0455 0.0914,0.0664 -0.21842,-0.18709 -0.44656,-0.38533 -0.59931,-0.54155 z m 0.59931,0.54155 c 0.11453,0.0981 0.2414,0.20752 0.3195,0.27418 0.0389,0.0271 0.0713,-0.0377 0.0326,-0.0648 -0.11611,-0.0722 -0.23821,-0.13285 -0.35209,-0.20939 z m -2.10246,-1.72516 c 0.0228,0.0293 0.0457,0.0588 0.0688,0.0874 -0.0232,-0.029 -0.046,-0.0582 -0.0688,-0.0874 z m 0.0688,0.0874 c 0.0384,0.0483 0.0754,0.0982 0.11451,0.14566 0.23796,0.2886 0.49163,0.55865 0.73737,0.83807 0.0183,0.02 0.042,-0.0103 0.0241,-0.0302 -0.31871,-0.34112 -0.60962,-0.62488 -0.87588,-0.95352 z m -4.16584,-0.16229 c 0.0295,0.0401 0.0614,0.0807 0.0926,0.12144 -0.0326,-0.0435 -0.0648,-0.0862 -0.0926,-0.12144 z m 0.0926,0.12144 c 0.0766,0.10198 0.16364,0.22126 0.28029,0.39071 0.10851,0.15766 0.19371,0.33584 0.29065,0.50372 0.0516,0.0689 0.13429,-0.0174 0.0826,-0.0863 -0.20059,-0.24296 -0.44074,-0.53007 -0.65358,-0.80812 z m -3.45594,-1.84359 c -0.19835,-0.0351 -0.4541,-0.0579 -0.91005,-0.10373 0.37414,0.0478 0.65282,0.0835 0.91005,0.10373 z m -0.91005,-0.10373 c -0.16221,-0.0207 -0.31334,-0.0407 -0.53742,-0.067 -0.007,-0.002 -0.008,0.0104 0,0.0112 0.24942,0.0279 0.37348,0.0393 0.53742,0.0558 z m 3.2969,-7.15792 c 0.006,-0.006 0.0125,-0.0124 0.0183,-0.0187 v -0.002 c -0.006,0.007 -0.0125,0.0135 -0.0183,0.0201 z m 1.12776,-0.31501 c -0.0223,-0.0518 -0.0241,-0.0577 -0.0499,-0.11654 0.004,0.007 -0.004,0.0124 -0.008,0.006 0.0201,0.0364 0.0384,0.074 0.0579,0.11081 z m 1.51394,-1.18904 c -0.0192,0.003 -0.038,0.0163 -0.0533,0.0419 -0.27082,0.3471 -0.16735,0.17808 -0.33086,0.48901 -0.0504,0.23803 0.23494,0.32215 0.28534,0.0841 0.017,-0.28893 -0.0156,-0.12263 0.16834,-0.47186 0.0456,-0.0769 -0.0121,-0.15318 -0.0695,-0.14321 z m 4.34897,0.16227 c -0.0775,-0.0125 -0.16332,0.0607 -0.13874,0.18761 0.0188,0.079 0.0398,0.15738 0.0563,0.23714 0.0846,0.41272 0.0138,0.1653 0.0826,0.39182 0.0478,0.22575 0.31867,0.14596 0.27077,-0.0798 -0.0689,-0.13132 -0.12084,-0.21483 -0.15467,-0.38011 -0.0156,-0.0761 -0.008,-0.1565 -0.0116,-0.2347 -0.0147,-0.0762 -0.0584,-0.11445 -0.10484,-0.12198 z m -1.53521,0.56879 c 0,-0.003 -0.004,-0.002 -0.004,0.002 0.0116,0.0879 0.0237,0.17572 0.0362,0.26358 -0.009,-0.0887 -0.0192,-0.1773 -0.0317,-0.26521 z m 2.70585,0.87074 c -0.0107,0.01 -0.0214,0.0193 -0.0322,0.0291 0.004,-0.004 0.006,-0.008 0.01,-0.0123 0.007,-0.007 0.0148,-0.0114 0.0223,-0.0169 z m -12.41397,5.89971 c 0.0869,0.0454 0.17401,0.091 0.25648,0.1356 -0.049,0.0234 -0.0362,0.017 -0.10274,0.0493 -0.0734,0.0356 -0.14712,0.0708 -0.2207,0.10619 0.004,-0.009 0.007,-0.0187 0.01,-0.0283 0.01,-0.033 0.0326,-0.1401 0.0573,-0.26275 z m 3.33429,2.4859 c -0.0277,-0.003 -0.0584,0.005 -0.0902,0.0261 -0.57036,0.33861 -0.24089,0.12757 -0.97426,0.66327 v 0.002 c 0.81217,-0.35528 0.43759,-0.24745 1.1107,-0.382 0.13803,-0.093 0.0732,-0.29758 -0.0471,-0.30958 z m 9.68434,1.28079 c -0.14857,0.43488 -0.12741,0.57249 -0.14638,1.07087 0.009,0.091 0.11797,0.076 0.10895,-0.015 -0.0223,-0.15775 -0.0814,-0.31411 -0.0674,-0.47321 0.0206,-0.23596 0.0564,-0.41923 0.10481,-0.58268 z"
       style="fill:#666d73;fill-opacity:1;stroke:none;stroke-width:0.264583px;stroke-linecap:butt;stroke-linejoin:miter;stroke-opacity:1" />
  </g>
</svg>
