<?xml version="1.0" encoding="UTF-8" standalone="no"?>
<svg
   xmlns:dc="http://purl.org/dc/elements/1.1/"
   xmlns:cc="http://creativecommons.org/ns#"
   xmlns:rdf="http://www.w3.org/1999/02/22-rdf-syntax-ns#"
   xmlns:svg="http://www.w3.org/2000/svg"
   xmlns="http://www.w3.org/2000/svg"
   xmlns:sodipodi="http://sodipodi.sourceforge.net/DTD/sodipodi-0.dtd"
   xmlns:inkscape="http://www.inkscape.org/namespaces/inkscape"
   inkscape:export-ydpi="96"
   inkscape:export-xdpi="96"
   inkscape:export-filename="D:\Calcatz\Icon Pack\Adventure Narative Inspired by Arrival\GUI\Alert Box\png\button_1.png"
   sodipodi:docname="button_1.svg"
   inkscape:version="1.0 (4035a4fb49, 2020-05-01)"
   id="svg1056"
   version="1.1"
   viewBox="0 0 27.935036 12.378507"
   height="12.378507mm"
   width="27.935036mm">
  <defs
     id="defs1050" />
  <sodipodi:namedview
     inkscape:window-maximized="1"
     inkscape:window-y="-8"
     inkscape:window-x="-8"
     inkscape:window-height="705"
     inkscape:window-width="1366"
     fit-margin-bottom="0"
     fit-margin-right="0"
     fit-margin-left="0"
     fit-margin-top="0"
     showgrid="false"
     inkscape:document-rotation="0"
     inkscape:current-layer="layer1"
     inkscape:document-units="mm"
     inkscape:cy="26.260282"
     inkscape:cx="121.8066"
     inkscape:zoom="1.8982902"
     inkscape:pageshadow="2"
     inkscape:pageopacity="0.0"
     borderopacity="1.0"
     bordercolor="#666666"
     pagecolor="#ffffff"
     id="base" />
  <metadata
     id="metadata1053">
    <rdf:RDF>
      <cc:Work
         rdf:about="">
        <dc:format>image/svg+xml</dc:format>
        <dc:type
           rdf:resource="http://purl.org/dc/dcmitype/StillImage" />
        <dc:title></dc:title>
      </cc:Work>
    </rdf:RDF>
  </metadata>
  <g
     transform="translate(-91.865819,-141.97741)"
     id="layer1"
     inkscape:groupmode="layer"
     inkscape:label="Layer 1">
    <path
       style="fill:#666d73;fill-opacity:1;stroke:none;stroke-width:0.162931px;stroke-linecap:butt;stroke-linejoin:miter;stroke-opacity:1"
       d="m 96.969385,141.97741 c -0.053,0.001 -0.10779,0.0244 -0.1565,0.0802 -0.2679,0.27039 -0.5723,0.50583 -0.8037,0.81118 -0.2292,0.30235 -0.3759,0.66449 -0.5655,0.99566 -0.2908,0.50799 -0.3724,0.61167 -0.4246,0.72265 -0.02,0.0334 -0.04,0.0661 -0.061,0.10051 -0.011,-0.0878 -0.027,-0.17524 -0.029,-0.2637 0,-0.15824 0.029,-0.34567 0.052,-0.50345 0.01,-0.17526 -0.22619,-0.18939 -0.2357,-0.0142 0.036,0.33577 0.023,0.14424 0.029,0.51757 0,0.0984 0.011,0.19698 0.01,0.29528 0,0.0859 -0.024,0.17006 -0.033,0.25555 0,0.0217 0,0.0438 0,0.0656 -0.633,1.0262 -1.5241,2.27656 -2.7914,2.61277 -0.1011,0.0268 -0.1333,0.83236 -0.034,0.85712 0.5115,0.12731 0.9743,0.4867 1.4362,0.90714 0,0.009 0.01,0.0175 0.01,0.0266 0.2634,0.47147 -0.1877,-0.31823 0.226,0.3216 0.065,0.0999 0.1116,0.21133 0.1729,0.31347 0.5776,0.96204 -0.2811,-0.60001 0.7488,1.17753 0.176,0.30376 0.3303,0.62093 0.4955,0.9313 0,0.006 0.011,0.001 0.01,-0.005 -0.1633,-0.31158 -0.3305,-0.62082 -0.4898,-0.93465 -0.01,-0.0135 -0.3007,-0.6111 -0.4846,-0.99255 0.016,0.0153 0.04,0.0378 0.052,0.05 0.033,0.0106 0.207,0.1327 0.7857,0.59151 0.1184,0.0938 0.2337,0.19152 0.3484,0.29027 -0.1127,-0.10118 -0.2256,-0.20221 -0.3363,-0.30583 -0.1673,-0.15658 -0.4059,-0.37212 -0.6032,-0.59654 0.5304,0.47093 1.098,0.88169 1.768,1.00501 v -2.4e-4 c 0.1589,0.0105 0.8089,-0.0331 1.3637,0.19836 0,10e-4 0,0.003 0,0.004 0.025,0.12658 0.028,0.25689 0.035,0.38597 0.01,0.1804 0.01,0.3759 -0.031,0.55442 -0.013,0.0605 -0.038,0.11741 -0.057,0.17612 0,0.0417 0,0.0834 0,0.12514 -0.023,0.19298 0.2365,0.22719 0.2597,0.0342 -0.01,-0.0407 -0.016,-0.0814 -0.024,-0.12204 0.01,-0.0639 0.054,-0.41369 0.053,-0.45081 0,-0.14622 -0.076,-0.4699 -0.1093,-0.64847 0.091,0.0471 0.179,0.10261 0.2594,0.16894 0.1176,0.16432 0.1876,0.36554 0.3096,0.52715 0.01,0.0103 0.017,0.0195 0.025,0.0297 0.025,0.10433 0.043,0.21048 0.05,0.32542 0,0.0858 -0.012,0.17218 -0.01,0.25796 0.051,0.72501 0.043,-0.23646 0.039,0.45678 0,0.1561 0.21,0.1561 0.21,0 -0.034,-0.31752 -0.021,-0.15705 -0.04,-0.48119 -0.01,-0.0868 -0.03,-0.1721 -0.037,-0.25916 0,-0.017 0,-0.034 0,-0.0509 0.1096,0.11634 0.2216,0.23032 0.324,0.35342 1.508905,1.81458 -0.6643,-0.65316 1.1595,1.38714 0.165205,0.23294 0.478905,-0.0123 0.313705,-0.24526 -0.371805,-0.57968 -0.535805,-0.84346 -0.606205,-0.95931 0.1099,0.18955 0.3093,0.58316 -0.5365,-0.45081 -0.1188,-0.14522 -0.2046,-0.2558 -0.2695,-0.34432 0.2031,0.11591 0.4109,0.2233 0.6192,0.32877 -0.261,-0.17194 -0.5074,-0.36517 -0.7411,-0.57955 -0.02,-0.0183 -0.038,-0.0391 -0.057,-0.0587 -0.015,-0.0674 0.01,-0.0969 -0.034,-0.20388 0.032,0.0146 0.047,0.0218 0.078,0.0364 0.062,0.0287 0.08,0.0368 0.1223,0.0567 0.013,0.0154 0.025,0.0319 0.039,0.0462 0.056,0.057 0.1215,0.10354 0.1776,0.16056 0.1782,0.18081 0.034,0.086 0.1778,0.16966 0.1207,0.0781 0.2285,-0.0317 0.2145,-0.13832 0.1064,0.0362 0.2269,0.0773 0.437,0.15244 0.047,0.0168 0.1072,0.0387 0.154,0.0555 -0.05,-0.0205 -0.1009,-0.0401 -0.1504,-0.0627 -0.3005,-0.13674 -0.5848,-0.29848 -0.8529,-0.48743 0,-0.0181 -0.051,-0.0795 -0.2262,-0.24862 -0.01,-0.007 -0.015,-0.0118 -0.023,-0.0182 0.1332,0.0101 0.2999,0.0216 0.4096,0.0306 0.2567,0.0212 0.6635,0.15437 0.7126,0.16678 0.01,0.002 0.011,0.005 0.017,0.006 0.327205,0.0987 0.923605,0.11468 1.191905,0.14309 -0.1638,-0.0333 -0.5272,-0.11498 -0.8199,-0.22445 0.1734,-0.0129 0.3447,-0.0421 0.5158,-0.0727 0.063,0.0505 0.1885,0.14728 0.4041,0.30892 -0.019,-0.003 -0.037,-0.005 -0.056,-0.008 -0.011,-0.002 -0.032,-0.003 -0.044,-0.004 0.012,0.003 0.034,0.008 0.043,0.009 0.023,0.005 0.047,0.008 0.07,0.0122 0.01,0.005 0,0.003 0.011,0.009 0.1896,0.14188 0.3784,0.28562 0.5777,0.41205 0.2009,0.12747 0.4142,0.23225 0.6212,0.34841 0.081,0.0481 0.1458,-0.0722 0.065,-0.12038 -0.121,-0.0806 -0.5578,-0.36889 -0.8639,-0.58075 0.2743,0.0404 0.5495,0.0744 0.824,0.11272 0.013,0.002 0.026,0.003 0.039,0.005 -0.013,-0.002 -0.026,-0.004 -0.039,-0.005 -0.28551,-0.0421 -0.5704,-0.09 -0.8557,-0.13377 -0.1145,-0.0797 -0.2098,-0.148 -0.2528,-0.1845 -0.037,-0.0315 -0.1291,-0.12593 -0.2317,-0.23329 0.31899,-0.0514 0.6401,-0.0803 0.9743,0.006 0.043,0.0112 0.09,0.0218 0.1347,0.0328 0.01,0.005 0.016,0.01 0.026,0.0136 0.1385,0.10387 0.2592,0.19073 0.3895,0.3185 0.076,0.0747 0.1519,0.15408 0.2267,0.23545 -0.1238,-0.0165 -0.2476,-0.0319 -0.3713,-0.0491 0.1253,0.0185 0.2507,0.0359 0.3761,0.0541 0.2294,0.24995 0.4471,0.51974 0.6561,0.77744 -0.098,-0.13265 -0.2119,-0.29464 -0.45,-0.63793 -0.024,-0.0354 -0.054,-0.0819 -0.079,-0.12107 0.2336,0.0335 0.4673,0.0672 0.7009,0.10073 0.036,0.0297 0.072,0.0593 0.1066,0.0905 0.1745,0.1562 0.3369,0.32736 0.5154,0.47857 0.2007,0.17013 0.4141,0.32304 0.6212,0.48455 0.011,0.009 0.024,-0.008 0.013,-0.017 -0.2066,-0.16128 -0.4295,-0.30197 -0.6201,-0.48381 -0.168,-0.16032 -0.302,-0.3562 -0.4501,-0.53696 -0.04,-0.0484 -0.078,-0.098 -0.1164,-0.14764 3.1649,1.00772 -2.5986,-1.00346 1.9596,0.614 -0.4047,-0.17584 -0.8081,-0.35548 -1.2145,-0.52713 -0.3154,-0.13326 -0.6411,-0.24016 -0.9511,-0.38646 0.7115,0.10923 1.478,0.18698 2.2164,0.22062 0.051,0.0298 0.1021,0.0596 0.1545,0.0866 0.1446,0.0748 0.2932,0.14118 0.4403,0.21033 0.372,0.17475 0.6161,0.28997 1.0006,0.43837 0.179,0.0691 0.3608,0.1294 0.5413,0.19406 0.1263,0.0478 0.2525,0.0956 0.3788,0.14334 0.098,0.0195 0.1247,-0.12641 0.026,-0.14597 -0.1305,-0.0135 -0.2612,-0.027 -0.3917,-0.0407 -0.1238,-0.0498 -0.9133,-0.36467 -1.0406,-0.4257 -0.16,-0.0767 -0.314,-0.1669 -0.4677,-0.25652 -0.088,-0.0511 -0.1995,-0.12107 -0.3096,-0.19143 0.5935,0.0164 1.1592,0.003 1.6487,-0.0495 0.3048,-0.0323 0.627,0.0132 1.1336,0.25724 0.1336,0.0859 0.2814,0.18367 0.4766,0.3161 0.4973,0.33752 0.9576,0.73338 1.4596,1.06339 0.3874,0.25474 0.8031,0.45877 1.2046,0.68818 0.1113,0.0665 0.2008,-0.0986 0.09,-0.16511 -0.9907,-0.52109 -1.4265,-0.69394 -2.1665,-1.3108 0.059,0.0244 0.1196,0.0468 0.1777,0.0737 0.1056,0.0637 0.2112,0.12726 0.3169,0.19094 0.089,0.0458 0.1511,-0.0867 0.062,-0.13257 -0.1048,-0.0593 -0.2096,-0.11873 -0.3143,-0.17804 -0.2432,-0.16612 -0.3599,-0.23382 -0.5805,-0.43166 -0.09,-0.0806 -0.1737,-0.16824 -0.2577,-0.25556 -0.02,-0.0211 -0.039,-0.0432 -0.059,-0.065 0.058,0.0165 0.1148,0.0338 0.1707,0.0553 0.1382,0.0532 0.2646,0.13687 0.4027,0.19023 0.1129,0.0436 0.2321,0.0666 0.3481,0.0998 0.2613,0.0834 0.3736,-0.3047 0.1124,-0.38812 -0.107,-0.0441 -0.2133,-0.0895 -0.3208,-0.13209 -0.1204,-0.0477 -0.243,-0.0898 -0.3629,-0.13878 0.029,-0.008 0.058,-0.0156 0.087,-0.0211 0.4799,-0.0886 1.3498,-0.17737 1.8478,-0.16608 0.1195,0.003 0.235,0.0468 0.3524,0.0701 0.045,0.002 0.07,-0.0267 0.078,-0.0589 0.2089,-0.002 0.4401,-0.003 0.5035,0.003 0.1996,0.0185 0.3956,0.0658 0.5939,0.0959 0.2867,0.0436 1.2856,0.18359 1.5248,0.21728 0.041,0.008 0.05,-0.0534 0.01,-0.0605 -1.1294,-0.24637 -0.4905,-0.10095 -1.5036,-0.34314 -0.1831,-0.0438 -0.3666,-0.0854 -0.5495,-0.13041 0.075,-0.0399 0.1576,-0.0894 0.2536,-0.15051 0.1492,-0.095 0.5821,-0.30575 1.0495,-0.3874 0.1145,0.0128 0.2279,0.0356 0.3422,0.0502 1.1727,0.15093 -0.2609,-0.0504 1.0379,0.1584 0.1601,0.0257 0.3213,0.0443 0.4818,0.067 0.1196,0.0169 0.2391,0.0342 0.3586,0.0515 0.05,0.0299 0.1,0.06 0.1495,0.09 0.1483,0.0177 0.1723,-0.20277 0.024,-0.22039 -0.054,0.002 -0.1073,0.002 -0.1609,0.003 -0.6726,-0.0329 -0.032,0.015 -0.8365,-0.10864 -0.3951,-0.0608 -0.6519,-0.0611 -1.0366,-0.14764 -0.06,-0.0136 -0.1198,-0.0316 -0.179,-0.0502 0.1666,0.005 0.3561,0.035 1.0723,0.0964 0.442,0.0378 0.8869,0.0493 1.3256,0.11678 0.686,0.10533 1.3477,0.35225 2.0335,0.4587 0.3766,0.0584 0.7575,0.0788 1.1363,0.11821 0.2962,0.0344 0.3424,-0.40546 0.046,-0.4398 -0.3687,-0.042 -0.7374,-0.0839 -1.106,-0.12587 -0.3177,-0.0455 -0.6346,-0.0972 -0.953,-0.1364 -0.3724,-0.0458 -0.7501,-0.0483 -1.119,-0.11845 -0.3712,-0.0705 -0.7312,-0.19507 -1.0974,-0.29025 0.2167,-0.072 0.4378,-0.14418 0.5176,-0.16319 0.202,-0.0481 0.4091,-0.0674 0.613,-0.10553 0.2077,-0.0389 0.4126,-0.0937 0.6213,-0.12561 -0.2089,0.0342 -0.421,0.0429 -0.6304,0.0739 -0.2054,0.0304 -0.4083,0.0782 -0.6135,0.11055 -0.3307,0.0521 -0.5235,0.0701 -0.8005,0.0967 0.052,-0.0195 0.089,-0.0329 0.1583,-0.0594 0.1925,-0.0736 0.3716,-0.18403 0.5673,-0.24741 0.2115,-0.0686 0.9687,-0.20925 1.2136,-0.25677 0.016,-0.003 0.012,-0.0268 0,-0.0238 -0.1866,0.0374 -0.3741,0.0701 -0.5598,0.11198 -0.1038,0.0235 -1.1143,0.27816 -1.2459,0.30701 -0.037,0.008 -0.074,0.0141 -0.1105,0.021 1.3891,-0.39514 2.8227,-1.64759 4.0895,-1.82049 0.1557,-0.0214 0.1194,-0.69021 -0.018,-0.72193 -1.8818,-0.43421 -4.81,-1.15527 -4.81,-1.15527 0.1507,-0.007 0.2942,-0.0113 0.4531,-0.015 -0.07,-5.2e-4 -0.1396,-0.002 -0.2093,-0.005 -0.088,-0.005 -0.1754,-0.014 -0.2627,-0.025 -0.021,-0.0521 -0.063,-0.15111 -0.1148,-0.19836 -0.064,-0.0584 -0.1316,-0.11219 -0.2001,-0.16391 0.397,-0.10085 0.8587,-0.22977 1.2086,-0.20436 0.1015,0.008 0.1923,0.063 0.2838,0.11487 -0.055,0.005 -0.1163,0.0129 -0.159,0.0158 -0.1642,0.0113 -0.3291,0.003 -0.4936,0.005 -0.089,0.001 -0.1779,0.005 -0.2668,0.008 -0.181,0 -0.181,0.26895 0,0.26895 0.3347,-0.1047 0.3812,-0.12706 0.7716,-0.2053 0.081,-0.0163 0.162,-0.0292 0.2433,-0.0426 0,0.003 0.01,0.005 0.015,0.008 0.054,0.002 0.099,-0.0114 0.1349,-0.033 0.071,-0.0114 0.1414,-0.0228 0.2118,-0.0359 0.2165,-0.0403 0.432,-0.0861 0.6479,-0.12921 0,-0.002 0,-0.008 0,-0.007 -0.182,0.026 -0.5009,0.0733 -0.793,0.1115 0.095,-0.13521 0.037,-0.37019 -0.1866,-0.37735 -1.2052,0.12618 0.6422,-0.079 -1.181,0.18641 -0.1336,0.0194 -0.2676,0.0356 -0.4016,0.0505 -0.2549,0.005 -0.4614,-0.0432 -0.6349,-0.10289 0.1103,-0.0397 0.2225,-0.0745 0.3335,-0.11175 0.4362,-0.14621 0.6065,-0.20336 0.7684,-0.24359 0,10e-4 -0.01,0.002 -0.011,0.003 -0.2611,0.0538 -0.5248,0.0927 -0.7848,0.1517 -0.1005,0.0228 -0.1702,0.0402 -0.2374,0.0575 0.7598,-0.32248 1.4313,-0.44322 2.2959,-0.68052 1.7417,-0.47803 0.7863,-0.3613 2.3676,-0.40942 0.1267,0.0449 0.2534,0.09 0.38,0.13496 0.4966,0.0464 0.559,-0.69133 0.062,-0.73773 -0.17,0.0204 -0.3401,0.0408 -0.5101,0.0613 -4.2656,1.24717 2.81,-0.79895 -2.3852,0.61114 -0.3428,0.093 -0.6814,0.2017 -1.0197,0.31179 0.017,-0.0139 0.019,-0.0168 0.039,-0.033 0.1186,-0.0977 0.2423,-0.18845 0.3611,-0.28595 0.1474,-0.12095 0.2826,-0.25882 0.4371,-0.36945 0.1209,-0.0865 0.2572,-0.1464 0.3857,-0.21967 0.069,-0.0515 1e-4,-0.15363 -0.069,-0.10218 -0.5107,0.46598 -0.1557,0.17863 -0.8149,0.60253 -0.1266,0.0814 -0.2681,0.1821 -0.4107,0.27349 0,-0.0201 -0.018,-0.0383 -0.045,-0.0332 -0.085,0.0203 -0.2504,0.0611 -0.4096,0.0993 0.1274,-0.0137 0.2563,-0.0141 0.3845,-0.0217 -0.066,0.0405 -0.1325,0.0785 -0.1971,0.10912 -0.072,0.034 -0.1497,0.0493 -0.2246,0.0742 -0.06,0.0238 -0.086,0.0713 -0.089,0.11916 -0.2281,0.0747 -0.563,0.18529 -0.955,0.32112 -0.2027,0.0475 -0.3782,0.0398 -0.5249,0.0156 0.3561,-0.18905 0.7176,-0.36984 1.0983,-0.49461 -0.1126,0.0275 -0.2715,0.0649 -0.3249,0.0787 -0.198,0.0513 -0.3934,0.1143 -0.5918,0.1639 -0.1203,0.0301 -0.2425,0.0501 -0.3639,0.0751 0,1.2e-4 0,5.3e-4 0,0.001 -0.1621,0.0238 -0.3662,0.0568 -0.4811,0.0347 -0.1058,-0.0204 -0.2116,-0.0396 -0.3172,-0.0583 0.064,-0.0602 0.1295,-0.11797 0.2033,-0.16319 0.6464,-0.39628 1.4956,-0.73209 2.1758,-1.02726 0.01,-0.004 0,-0.0186 -0.01,-0.0143 -0.7986,0.35573 -1.5982,0.70844 -2.3989,1.05906 -0.171,0.0634 -0.3779,0.0753 -0.5021,0.0534 -0.3558,-0.0631 -0.7006,-0.12988 -1.019,-0.22111 -0.2979,1.2e-4 -0.5959,-0.004 -0.8939,-0.008 0,-2.6e-4 0,-1.3e-4 0,-5.2e-4 0.1437,-0.0741 0.2827,-0.1593 0.4313,-0.22181 0.4223,-0.17769 0.8144,-0.29077 1.2502,-0.38406 -0.2359,0.041 -0.4633,0.0823 -0.6048,0.11462 -0.2264,0.0516 -0.446,0.13284 -0.6721,0.18545 -0.1567,0.0365 -0.3168,0.0544 -0.4752,0.0816 -0.063,0.0173 -0.1249,0.0359 -0.1877,0.0522 -0.039,0.01 -0.079,0.0178 -0.1185,0.0266 0,0.002 -0.01,0.005 -0.01,0.007 -0.1019,0.0196 -0.1891,0.0872 -0.2877,0.11797 0.1292,-0.13054 0.3691,-0.36186 0.4298,-0.41397 0.3836,-0.32915 0.4779,-0.36465 0.9357,-0.66067 0.1466,-0.0449 0.2932,-0.0898 0.4399,-0.13471 0.1397,-0.062 0.056,-0.26977 -0.084,-0.20772 -0.1368,0.0804 -0.2737,0.16083 -0.4105,0.24121 -0.2023,0.099 -0.4117,0.1835 -0.6069,0.29696 -0.1411,0.082 -0.2617,0.19809 -0.3987,0.28737 -0.1,0.065 -0.2085,0.11387 -0.3098,0.17589 0.038,-0.0722 0.08,-0.14387 0.128,-0.2156 0.1499,-0.22571 0.3334,-0.42572 0.5201,-0.61879 0.1204,-0.12456 0.2652,-0.22031 0.3977,-0.33046 0.027,-0.0225 0,-0.0631 -0.03,-0.0407 -0.1277,0.11901 -0.2635,0.22898 -0.383,0.35702 -0.2932,0.31419 -0.5547,0.65639 -0.8224,0.99304 -0.034,0.0304 -0.069,0.0612 -0.1052,0.089 -0.01,0.007 -0.01,0.005 -0.015,0.0108 0,-0.15562 0.01,-0.26291 0.078,-0.6377 0.03,-0.16569 0.048,-0.33773 0.113,-0.49173 0.032,-0.0754 0.1132,-0.11484 0.1698,-0.17229 0.1634,-0.37768 -0.3451,-0.62056 -0.5085,-0.24287 -0.1336,0.41121 -0.1053,0.2898 -0.2103,0.84898 -0.013,0.0674 -0.018,0.0945 -0.028,0.14668 -0.057,-0.35593 -0.06,-0.71064 -0.079,-1.08659 -0.1783,1.9578 -0.01,-0.0742 -0.09,1.28281 0,0.0113 0,0.0225 0,0.0338 -0.048,-0.0667 -0.093,-0.12584 -0.12851,-0.16344 -0.2796,-0.29478 -0.614,-0.52614 -0.921,-0.78916 -0.1744,-0.18841 -0.4282,0.0708 -0.2538,0.25914 0.2352,0.28493 0.4933,0.55073 0.7058,0.85474 0.03,0.0435 0.059,0.0884 0.086,0.134 0.065,0.1888 -0.266,0.27388 -0.5618,0.29838 -0.4727,0.0392 -0.9837,0.0865 -1.491,0.12897 0.044,-0.12505 0.1001,-0.26321 0.1594,-0.39721 0.1176,-0.0309 0.4793,-0.12608 0.5969,-0.15696 -0.014,0.003 -0.019,-0.0166 0,-0.0203 -0.097,0.0288 -0.3523,0.1038 -0.5907,0.17469 0.055,-0.12416 0.1105,-0.24104 0.1547,-0.3204 0.1114,-0.20007 0.2488,-0.38304 0.3731,-0.57452 0.065,-0.0895 -0.056,-0.18592 -0.1205,-0.0964 -0.1302,0.193 -0.2541,0.391 -0.3907,0.57908 -0.1266,0.17431 -0.2779,0.32844 -0.3987,0.50728 0,0.003 0,0.007 -0.01,0.01 -0.6814,0.18231 -0.487,0.13426 -1.0466,0.2735 -0.2093,0.0177 -0.5248,0.13111 -0.7085,0.13232 -0.188,0.002 -0.39851,-0.051 -0.2312,-0.28594 0.027,-0.0202 0.045,-0.0338 0.081,-0.0607 0.3124,-0.234 0.4213,-0.34792 0.7964,-0.42475 0.053,-0.0109 0.1074,0.0172 0.1611,0.0257 0.1729,-0.065 0.085,-0.32201 -0.088,-0.25701 -0.2392,0.21077 -0.064,0.0765 -0.5094,0.29984 -0.1465,0.0735 -0.294,0.14516 -0.4381,0.22373 -0.10681,0.0582 -0.2243,0.12935 -0.3406,0.20123 0.01,-0.005 0.012,-0.009 0.018,-0.0143 0.12,-0.1052 0.2301,-0.22486 0.3613,-0.31394 0.239,-0.1622 0.2866,-0.15492 0.5058,-0.19239 0.3195,-0.0901 0.1983,-0.56462 -0.1212,-0.4745 -0.4143,0.0874 -0.2573,0.0155 -0.411,0.20004 0.1335,-0.27466 0.2948,-0.53219 0.4907,-0.76523 0.096,-0.11356 0.1961,-0.22384 0.3078,-0.31969 0.088,-0.0754 0.1918,-0.12745 0.2877,-0.19119 0.079,-0.0523 0.01,-0.16976 -0.07,-0.11748 -0.2288,0.17344 -0.4366,0.31517 -0.6313,0.53766 -0.1055,0.12055 -0.1863,0.2626 -0.2816,0.3922 -0.3065,0.41687 -0.2616,0.3467 -0.3583,0.49676 0.01,-0.0292 0.017,-0.0587 0.027,-0.0876 0.07,-0.20715 0.1877,-0.39372 0.2677,-0.59702 0.219,-0.55687 0.01,-0.24774 0.2399,-0.54701 0.2377,-0.54186 -0.4918,-0.89504 -0.7295,-0.35318 -0.042,0.55999 0.032,-0.17151 -0.1656,0.68675 -0.038,0.16417 -0.047,0.33487 -0.074,0.5013 -0.081,-0.19231 -0.039,-0.13306 -0.1923,-0.83391 0,-0.0384 -0.055,-0.033 -0.052,0.005 0.036,0.95848 -0.01,0.57031 0.079,1.16987 0.013,0.0234 0.029,0.0412 0.046,0.0541 -0.052,0.12253 -0.10949,0.2434 -0.15539,0.3685 -0.1956,0.3743 -0.6323,0.40816 -0.95891,0.34195 -0.16859,-0.0342 -0.33749,-0.059 -0.50689,-0.0704 0,-0.002 0,-0.002 0,-0.003 0.053,-0.0405 0.1099,-0.0834 0.1642,-0.12251 0.042,0.0138 0.092,0.003 0.1299,-0.0497 0.027,-0.0373 0.037,-0.0518 0.054,-0.0766 0.023,-0.0147 0.042,-0.0287 0.067,-0.0441 0.1596,-0.1011 0.3147,-0.21533 0.4889,-0.28523 0.13819,-0.0555 0.291,-0.0575 0.43649,-0.0861 0.083,-0.028 0.045,-0.1512 -0.038,-0.12323 -1.17339,0.56437 0.3891,-0.1773 -0.80379,0.34887 0.071,-0.0744 0.1078,-0.11086 0.1786,-0.1852 0.077,-0.0721 -0.02,-0.18578 -0.097,-0.11367 -0.36801,0.27693 -0.2161,0.13106 -0.47161,0.419 -0.016,0.022 -0.022,0.0439 -0.025,0.065 0,0.002 -0.012,0.005 -0.015,0.007 0.022,-0.0744 0.045,-0.14776 0.08,-0.21632 0.082,-0.16313 0.2167,-0.28999 0.325,-0.43503 0.1367,-0.23398 -0.1783,-0.43689 -0.315,-0.20291 -0.079,0.1626 -0.1383,0.33726 -0.2367,0.48766 -0.062,0.0945 -0.1363,0.17873 -0.2114,0.2625 -0.252704,0.23643 -0.742504,0.41742 -0.988704,0.44148 -0.2963,0.029 -0.2603,0.0262 -0.488,0.0488 0.016,-0.0253 0.031,-0.0511 0.048,-0.0756 0.1651,-0.24127 0.3478,-0.4688 0.5124,-0.71044 0.2742,-0.4025 0.2382,-0.3618 0.4488,-0.7741 0.049,-0.0869 -0.069,-0.15918 -0.1171,-0.0723 -0.2475,0.5986 -0.045,0.19297 -0.4379,0.76642 -0.086,0.12507 -0.1557,0.26191 -0.246,0.38335 -0.081,0.10952 -0.176,0.20753 -0.2677,0.30771 -0.095,0.10347 -0.143,0.15342 -0.1916,0.19981 -3.1099,0.31204 1.1135,-0.0745 -1.8286,-0.27039 -0.01,-0.002 -0.017,-0.003 -0.026,-0.004 0.069,-0.0212 0.14031,-0.0436 0.2469,-0.0795 0.1818,-0.0611 0.3469,-0.1725 0.53131,-0.2242 0.17799,-0.0499 0.3664,-0.0444 0.54779,-0.0782 0.16291,-0.0303 0.323,-0.0758 0.48441,-0.11366 0.067,-0.0169 0.044,-0.11689 -0.023,-0.10003 -0.799,0.25261 -0.1488,0.062 -1.0149,0.27087 -0.4163,0.10039 -0.8294,0.22772 -1.2539,0.285 0,-5.3e-4 0,-0.002 0,-0.002 0.158,-0.19458 0.4119,-0.41413 0.6219,-0.53481 0.132,-0.0758 0.278,-0.12125 0.4169,-0.18186 0.2092,-0.0805 0.1008,-0.39134 -0.1084,-0.31083 -0.1733,0.0457 -0.3563,0.0617 -0.5197,0.13736 -0.059,0.0274 -0.1144,0.0629 -0.1684,0.10073 0.019,-0.0286 0.037,-0.0568 0.054,-0.0866 0.057,-0.10382 0.089,-0.22305 0.1561,-0.3204 0.079,-0.11549 0.1853,-0.20759 0.2777,-0.3118 0.07,-0.0795 0.1404,-0.15953 0.2107,-0.23928 0.071,-0.0691 -0.022,-0.17439 -0.093,-0.10528 -0.3026,0.34199 -0.1661,0.1817 -0.4946,0.58289 -0.043,0.0529 -0.1152,0.13963 -0.1859,0.22732 0.072,-0.13817 0.145,-0.26254 0.2152,-0.36179 0.2092,-0.29526 0.4937,-0.52214 0.7407,-0.78319 0.1462,-0.16713 0.014,-0.37183 -0.1435,-0.36969 z m 13.791095,2.18444 c 0.21361,-0.0371 0.401,-0.068 0.5803,-0.0976 -0.1393,0.0173 -0.2787,0.035 -0.4165,0.0622 -0.056,0.0111 -0.10909,0.0238 -0.1638,0.0354 z m 0.5803,-0.0976 c 0.069,-0.009 0.13911,-0.0172 0.20842,-0.027 0,-0.001 0,-0.008 0,-0.008 -0.051,0.008 -0.14242,0.024 -0.20711,0.0347 z m 2.2583,0.73053 c 0.1759,-0.0429 0.3102,-0.0754 0.50761,-0.12275 -0.042,0.005 -0.084,0.01 -0.12561,0.0187 -0.12979,0.0272 -0.2567,0.0631 -0.382,0.10408 z m 0.87621,0.44244 c 0.043,-0.009 0.085,-0.0186 0.12799,-0.0277 -0.04,0.008 -0.09,0.0184 -0.12799,0.0277 z m 0.12799,-0.0277 c 0.1607,-0.0335 0.35341,-0.0645 0.8133,-0.15267 0.015,-0.003 0.011,-0.0253 0,-0.0225 -0.2697,0.0584 -0.53919,0.11804 -0.8092,0.17516 z m 0.1579,1.14522 c 0.2417,0.003 0.4839,-0.01 0.72581,-0.0108 0.32729,-0.001 0.65449,2.6e-4 0.9818,-0.001 0.024,-1.2e-4 0.035,-2.6e-4 0.058,-5.3e-4 -0.083,-0.002 -0.3422,-0.002 -1.0397,0.002 -0.1419,0.002 -0.4331,0.004 -0.7259,0.0111 z m 1.7655,-0.0127 c 0.21941,0.005 -0.8823,0.0227 0.84611,0.0349 0.20891,0.002 0.41769,-0.0105 0.62651,-0.0158 0.026,0 0.026,-0.0389 0,-0.0389 -0.57351,0.01 -0.8855,0.0164 -1.47262,0.0199 z m 0.54541,3.59146 c 0.24869,-0.038 0.84619,-0.0777 1.10789,-0.0972 0.12321,0.008 0.24621,0.017 0.3695,0.0253 0.12641,-0.0103 0.11251,-0.19819 -0.014,-0.18785 -0.1202,0.0366 -0.2403,0.073 -0.3604,0.10961 -1.032,0.0516 -0.018,-0.0278 -1.1031,0.15003 z m -11.44281,2.74749 c 0.01,0.003 0.01,0.004 0.015,0.007 0,-0.002 0,-0.002 0,-0.002 -0.01,-0.003 -0.01,-0.002 -0.015,-0.005 z m -2.2002,0.1761 c 0.1061,0.1434 0.2146,0.27583 0.3845,0.47571 -0.085,-0.10621 -0.1695,-0.21273 -0.2554,-0.31801 -0.041,-0.0504 -0.087,-0.10566 -0.1291,-0.1577 z m 0.3845,0.47571 c 0.076,0.0948 0.152,0.18936 0.228,0.28403 0,0.005 0.012,-0.002 0.01,-0.007 -0.1054,-0.12519 -0.16679,-0.19717 -0.2351,-0.27757 0,1e-4 -1e-4,2e-4 -1e-4,2.6e-4 z m -3.882895,-1.04448 c 0.268405,0.10947 0.545605,0.19563 0.817195,0.29647 0,0 0,-0.001 0,-0.001 -0.5864,-0.21178 -0.2308,-0.0835 -0.817195,-0.29529 z m -0.5693,0.30294 c 0.1192,0.0785 0.24051,0.15388 0.3666,0.22254 0.25441,0.13849 0.500115,0.25099 0.748405,0.35557 -0.2481,-0.11954 -0.487905,-0.25762 -0.732905,-0.38404 -0.1268,-0.0654 -0.2544,-0.12947 -0.3821,-0.19407 z m 1.115005,0.57811 c 0.031,0.0148 0.061,0.0304 0.092,0.0444 0.161,0.0734 0.3277,0.1324 0.4941,0.19167 -0.1993,-0.0786 -0.3945,-0.15549 -0.5859,-0.23618 z m 0.5859,0.23619 c 0.067,0.0263 0.13219,0.0522 0.2007,0.0794 0,-0.002 0,-0.008 0,-0.006 -0.067,-0.0256 -0.135,-0.0493 -0.2028,-0.0735 z m -1.514105,-0.34794 c -0.045,-0.0784 -0.068,-0.11124 0,0 z m -4.3204,-1.87026 c 0.1804,0.16201 0.3617,0.32294 0.5419,0.48527 -0.01,-0.005 0,-0.0135 0.01,-0.009 -0.184011,-0.15735 -0.365111,-0.31862 -0.548611,-0.47666 z m -1.1341,-0.88177 c -0.048,-0.0158 0.2112,0.2079 0,0 z m 3.876,-7.27263 c -0.017,-0.001 -0.035,2.7e-4 -0.055,0.007 -0.049,0.0183 -0.098,0.0357 -0.1463,0.055 -0.3049,0.12163 -0.085,0.0472 -0.3774,0.13831 -0.1554,0.0699 -0.061,0.30059 0.094,0.23067 -3.0777,1.15761 3.253705,-1.22384 0.1761,-0.0662 0.061,-0.0327 0.1191,-0.0733 0.1836,-0.0981 0.045,-0.0171 0.093,-0.0175 0.1401,-0.0262 0.1374,-0.0457 0.1008,-0.22989 -0.016,-0.24023 0,1e-5 0,3e-5 0,4e-5 z m 4.471295,1.2864 c 0,0.003 0,0.005 0,0.008 0,0.002 0,0.004 -0.01,0.005 0,-0.004 0,-0.009 0,-0.0131 z m 2.2905,0.38191 c -0.028,0.0441 -0.052,0.0897 -0.073,0.13639 -0.1488,0.19257 -0.4953,0.20737 -0.7613,0.22038 0.079,-0.0575 0.1588,-0.11308 0.2465,-0.15314 0.1099,-0.0502 0.3411,-0.12612 0.5882,-0.20363 z m 5.53351,6.66628 c 0.56099,0.004 0.9271,0.031 1.20519,0.052 0.013,0.0215 0.03,0.0408 0.051,0.0562 -0.2144,0.0395 -0.19819,0.0178 -0.9249,0.0409 -0.3241,0.0103 -0.6484,0.0265 -0.97259,0.0244 -0.016,-1.2e-4 -0.032,-0.002 -0.048,-0.003 0.22931,-0.0602 0.4587,-0.11897 0.6892,-0.17061 z m -7.63971,0.31753 c 0.2279,0.0964 0.4556,0.1929 0.68891,0.2692 0.024,0.022 0.038,0.0349 0.08,0.0713 0.061,0.0532 0.1239,0.10454 0.1864,0.15601 -0.2284,-0.0298 -0.4567,-0.0603 -0.68499,-0.0902 -0.086,-0.13065 -0.1749,-0.26756 -0.26981,-0.40631 z m 7.9213,0.67717 c -0.1701,-0.002 -0.208,0.26145 -0.021,0.30078 0.41159,0.10239 -0.2237,-0.0508 0.3793,0.0696 0.1224,0.0244 0.2432,0.0574 0.3648,0.0859 0.081,0.0254 0.1152,-0.0952 0.034,-0.12059 -0.1108,-0.0575 -0.2188,-0.12127 -0.3324,-0.17253 -0.078,-0.0354 -0.1616,-0.0579 -0.2424,-0.0868 -0.049,-0.0241 -0.098,-0.0481 -0.1469,-0.0723 -0.012,-0.003 -0.024,-0.004 -0.036,-0.004 z"
       id="path5514"
       sodipodi:nodetypes="cc" />
  </g>
</svg>
