<?xml version="1.0" encoding="UTF-8" standalone="no"?>
<svg
   xmlns:dc="http://purl.org/dc/elements/1.1/"
   xmlns:cc="http://creativecommons.org/ns#"
   xmlns:rdf="http://www.w3.org/1999/02/22-rdf-syntax-ns#"
   xmlns:svg="http://www.w3.org/2000/svg"
   xmlns="http://www.w3.org/2000/svg"
   xmlns:sodipodi="http://sodipodi.sourceforge.net/DTD/sodipodi-0.dtd"
   xmlns:inkscape="http://www.inkscape.org/namespaces/inkscape"
   inkscape:export-ydpi="96"
   inkscape:export-xdpi="96"
   inkscape:export-filename="D:\Calcatz\Icon Pack\Adventure Narative Inspired by Arrival\GUI\Navigation Buttons\Playstation\Dark\png\l1.png"
   sodipodi:docname="l1.svg"
   inkscape:version="1.0 (4035a4fb49, 2020-05-01)"
   id="svg3648"
   version="1.1"
   viewBox="0 0 8.4666662 8.4666662"
   height="8.4666662mm"
   width="8.4666662mm">
  <defs
     id="defs3642" />
  <sodipodi:namedview
     inkscape:window-maximized="1"
     inkscape:window-y="-8"
     inkscape:window-x="-8"
     inkscape:window-height="705"
     inkscape:window-width="1366"
     fit-margin-bottom="0"
     fit-margin-right="0"
     fit-margin-left="0"
     fit-margin-top="0"
     showgrid="false"
     inkscape:document-rotation="0"
     inkscape:current-layer="layer1"
     inkscape:document-units="mm"
     inkscape:cy="183.95698"
     inkscape:cx="79.496013"
     inkscape:zoom="0.61695969"
     inkscape:pageshadow="2"
     inkscape:pageopacity="0.0"
     borderopacity="1.0"
     bordercolor="#666666"
     pagecolor="#ffffff"
     id="base" />
  <metadata
     id="metadata3645">
    <rdf:RDF>
      <cc:Work
         rdf:about="">
        <dc:format>image/svg+xml</dc:format>
        <dc:type
           rdf:resource="http://purl.org/dc/dcmitype/StillImage" />
        <dc:title />
      </cc:Work>
    </rdf:RDF>
  </metadata>
  <g
     transform="translate(-106.9383,-134.53409)"
     id="layer1"
     inkscape:groupmode="layer"
     inkscape:label="Layer 1">
    <rect
       y="134.53409"
       x="106.9383"
       height="8.4666662"
       width="8.4666662"
       id="rect835"
       style="fill:#cccccc;fill-opacity:1;stroke-width:0.159667;stroke-linecap:round;paint-order:fill markers stroke" />
    <g
       style="font-weight:bold;font-size:2.11667px;line-height:1.05;font-family:'Overlock SC';-inkscape-font-specification:'Overlock SC Bold';text-align:end;text-anchor:end;fill:#ffffff;fill-opacity:1;stroke:#ffffff;stroke-width:0.905998;stroke-linecap:round;stroke-miterlimit:4;stroke-dasharray:none;stroke-opacity:1;paint-order:markers stroke fill"
       id="text3842"
       aria-label="L">
      <path
         id="path4253"
         style="font-size:2.11667px;fill:#ffffff;fill-opacity:1;stroke:none;stroke-width:0.905998"
         d="m 110.36517,138.99134 v -0.43816 q 0,-0.29845 -0.0148,-0.49106 0.036,-0.006 0.0868,-0.006 0.10372,0 0.10372,0.0804 0,0.0127 -0.004,0.0868 -0.004,0.072 -0.008,0.18204 -0.004,0.10795 -0.004,0.20531 v 0.19051 q 0,0.44026 0.0148,0.5334 0.0889,0.004 0.1397,0.004 0.3302,0 0.42545,-0.0487 0.0148,0.0444 0.0148,0.0931 0,0.0381 -0.019,0.055 -0.036,0.0317 -0.32385,0.0317 -0.254,0 -0.3175,-0.004 -0.0571,-0.002 -0.0783,-0.0296 -0.0191,-0.0275 -0.0191,-0.091 0,-0.0339 0.002,-0.15663 0.002,-0.12277 0.002,-0.19685 z" />
    </g>
    <g
       style="font-weight:bold;font-size:2.64583px;line-height:1.05;font-family:'Overlock SC';-inkscape-font-specification:'Overlock SC Bold';text-align:end;text-anchor:end;fill:#ffffff;fill-opacity:1;stroke:#ffffff;stroke-width:0.905998;stroke-linecap:round;stroke-miterlimit:4;stroke-dasharray:none;stroke-opacity:1;paint-order:markers stroke fill"
       id="text3846"
       aria-label="1">
      <path
         id="path4256"
         style="font-size:2.64583px;fill:#ffffff;fill-opacity:1;stroke:none;stroke-width:0.905998"
         d="m 111.76003,139.33086 q 0.10055,0 0.22225,-0.0106 0.0106,0.0318 0.0106,0.0582 0,0.10054 -0.10319,0.10054 -0.0159,0 -0.13229,-0.003 -0.11642,-0.003 -0.23019,-0.003 -0.14817,0 -0.23019,0.003 -0.0132,-0.0397 -0.0132,-0.0635 0,-0.09 0.15346,-0.09 h 0.127 q 0,-0.0344 0.003,-0.20373 0.003,-0.16933 0.003,-0.30692 0,-0.23283 -0.008,-0.43127 -0.21961,0.0265 -0.27517,0.037 -0.005,-0.0264 -0.005,-0.045 0,-0.0979 0.10319,-0.11377 0.254,-0.0423 0.27252,-0.0423 0.0397,0 0.0714,0.0238 0.0344,0.0238 0.0344,0.0767 0,0.0159 -0.005,0.10054 -0.005,0.0847 -0.0106,0.21432 -0.005,0.12964 -0.005,0.25135 v 0.09 q 0,0.24077 0.0185,0.35718 z" />
    </g>
    <path
       id="path1613"
       style="fill:none;fill-opacity:1;stroke:#676767;stroke-width:0.276;stroke-linecap:round;stroke-miterlimit:4;stroke-dasharray:none;stroke-opacity:1;paint-order:markers stroke fill"
       d="m 110.17214,137.31647 c -0.63785,0 -1.15115,0.51495 -1.15115,1.15487 v 1.74703 h 4.30128 v -1.74703 c 0,-0.63992 -0.51328,-1.15487 -1.15115,-1.15487 z"
       sodipodi:nodetypes="ssccsss" />
    <rect
       inkscape:export-ydpi="96"
       inkscape:export-xdpi="96"
       inkscape:export-filename="D:\Calcatz\Icon Pack\Adventure Narative Inspired by Arrival\GUI\Navigation Buttons\Playstation\Dark\png\64px\l1.png"
       style="fill:#cccccc;fill-opacity:1;stroke-width:0.319334;stroke-linecap:round;paint-order:fill markers stroke"
       id="rect837"
       width="16.933332"
       height="16.933332"
       x="116.58743"
       y="134.53409" />
    <g
       transform="matrix(2,0,0,2,-97.28917,-134.53409)"
       aria-label="L"
       id="g841"
       style="font-weight:bold;font-size:2.11667px;line-height:1.05;font-family:'Overlock SC';-inkscape-font-specification:'Overlock SC Bold';text-align:end;text-anchor:end;fill:#ffffff;fill-opacity:1;stroke:#ffffff;stroke-width:0.905998;stroke-linecap:round;stroke-miterlimit:4;stroke-dasharray:none;stroke-opacity:1;paint-order:markers stroke fill">
      <path
         d="m 110.36517,138.99134 v -0.43816 q 0,-0.29845 -0.0148,-0.49106 0.036,-0.006 0.0868,-0.006 0.10372,0 0.10372,0.0804 0,0.0127 -0.004,0.0868 -0.004,0.072 -0.008,0.18204 -0.004,0.10795 -0.004,0.20531 v 0.19051 q 0,0.44026 0.0148,0.5334 0.0889,0.004 0.1397,0.004 0.3302,0 0.42545,-0.0487 0.0148,0.0444 0.0148,0.0931 0,0.0381 -0.019,0.055 -0.036,0.0317 -0.32385,0.0317 -0.254,0 -0.3175,-0.004 -0.0571,-0.002 -0.0783,-0.0296 -0.0191,-0.0275 -0.0191,-0.091 0,-0.0339 0.002,-0.15663 0.002,-0.12277 0.002,-0.19685 z"
         style="font-size:2.11667px;fill:#ffffff;fill-opacity:1;stroke:none;stroke-width:0.905998"
         id="path839" />
    </g>
    <g
       transform="matrix(2,0,0,2,-97.28917,-134.53409)"
       aria-label="1"
       id="g845"
       style="font-weight:bold;font-size:2.64583px;line-height:1.05;font-family:'Overlock SC';-inkscape-font-specification:'Overlock SC Bold';text-align:end;text-anchor:end;fill:#ffffff;fill-opacity:1;stroke:#ffffff;stroke-width:0.905998;stroke-linecap:round;stroke-miterlimit:4;stroke-dasharray:none;stroke-opacity:1;paint-order:markers stroke fill">
      <path
         d="m 111.76003,139.33086 q 0.10055,0 0.22225,-0.0106 0.0106,0.0318 0.0106,0.0582 0,0.10054 -0.10319,0.10054 -0.0159,0 -0.13229,-0.003 -0.11642,-0.003 -0.23019,-0.003 -0.14817,0 -0.23019,0.003 -0.0132,-0.0397 -0.0132,-0.0635 0,-0.09 0.15346,-0.09 h 0.127 q 0,-0.0344 0.003,-0.20373 0.003,-0.16933 0.003,-0.30692 0,-0.23283 -0.008,-0.43127 -0.21961,0.0265 -0.27517,0.037 -0.005,-0.0264 -0.005,-0.045 0,-0.0979 0.10319,-0.11377 0.254,-0.0423 0.27252,-0.0423 0.0397,0 0.0714,0.0238 0.0344,0.0238 0.0344,0.0767 0,0.0159 -0.005,0.10054 -0.005,0.0847 -0.0106,0.21432 -0.005,0.12964 -0.005,0.25135 v 0.09 q 0,0.24077 0.0185,0.35718 z"
         style="font-size:2.64583px;fill:#ffffff;fill-opacity:1;stroke:none;stroke-width:0.905998"
         id="path843" />
    </g>
    <path
       sodipodi:nodetypes="ssccsss"
       d="m 123.05511,140.09885 c -1.2757,0 -2.3023,1.0299 -2.3023,2.30974 v 3.49406 h 8.60256 v -3.49406 c 0,-1.27984 -1.02656,-2.30974 -2.3023,-2.30974 z"
       style="fill:none;fill-opacity:1;stroke:#676767;stroke-width:0.552;stroke-linecap:round;stroke-miterlimit:4;stroke-dasharray:none;stroke-opacity:1;paint-order:markers stroke fill"
       id="path847" />
    <rect
       inkscape:export-ydpi="96"
       inkscape:export-xdpi="96"
       inkscape:export-filename="D:\Calcatz\Icon Pack\Adventure Narative Inspired by Arrival\GUI\Navigation Buttons\Playstation\Dark\png\128px\l1.png"
       y="134.53409"
       x="136.20734"
       height="33.866665"
       width="33.866665"
       id="rect849"
       style="fill:#cccccc;fill-opacity:1;stroke-width:0.638668;stroke-linecap:round;paint-order:fill markers stroke" />
    <g
       style="font-weight:bold;font-size:2.11667px;line-height:1.05;font-family:'Overlock SC';-inkscape-font-specification:'Overlock SC Bold';text-align:end;text-anchor:end;fill:#ffffff;fill-opacity:1;stroke:#ffffff;stroke-width:0.905998;stroke-linecap:round;stroke-miterlimit:4;stroke-dasharray:none;stroke-opacity:1;paint-order:markers stroke fill"
       id="g853"
       aria-label="L"
       transform="matrix(4,0,0,4,-291.54588,-403.60227)">
      <path
         id="path851"
         style="font-size:2.11667px;fill:#ffffff;fill-opacity:1;stroke:none;stroke-width:0.905998"
         d="m 110.36517,138.99134 v -0.43816 q 0,-0.29845 -0.0148,-0.49106 0.036,-0.006 0.0868,-0.006 0.10372,0 0.10372,0.0804 0,0.0127 -0.004,0.0868 -0.004,0.072 -0.008,0.18204 -0.004,0.10795 -0.004,0.20531 v 0.19051 q 0,0.44026 0.0148,0.5334 0.0889,0.004 0.1397,0.004 0.3302,0 0.42545,-0.0487 0.0148,0.0444 0.0148,0.0931 0,0.0381 -0.019,0.055 -0.036,0.0317 -0.32385,0.0317 -0.254,0 -0.3175,-0.004 -0.0571,-0.002 -0.0783,-0.0296 -0.0191,-0.0275 -0.0191,-0.091 0,-0.0339 0.002,-0.15663 0.002,-0.12277 0.002,-0.19685 z" />
    </g>
    <g
       style="font-weight:bold;font-size:2.64583px;line-height:1.05;font-family:'Overlock SC';-inkscape-font-specification:'Overlock SC Bold';text-align:end;text-anchor:end;fill:#ffffff;fill-opacity:1;stroke:#ffffff;stroke-width:0.905998;stroke-linecap:round;stroke-miterlimit:4;stroke-dasharray:none;stroke-opacity:1;paint-order:markers stroke fill"
       id="g857"
       aria-label="1"
       transform="matrix(4,0,0,4,-291.54588,-403.60227)">
      <path
         id="path855"
         style="font-size:2.64583px;fill:#ffffff;fill-opacity:1;stroke:none;stroke-width:0.905998"
         d="m 111.76003,139.33086 q 0.10055,0 0.22225,-0.0106 0.0106,0.0318 0.0106,0.0582 0,0.10054 -0.10319,0.10054 -0.0159,0 -0.13229,-0.003 -0.11642,-0.003 -0.23019,-0.003 -0.14817,0 -0.23019,0.003 -0.0132,-0.0397 -0.0132,-0.0635 0,-0.09 0.15346,-0.09 h 0.127 q 0,-0.0344 0.003,-0.20373 0.003,-0.16933 0.003,-0.30692 0,-0.23283 -0.008,-0.43127 -0.21961,0.0265 -0.27517,0.037 -0.005,-0.0264 -0.005,-0.045 0,-0.0979 0.10319,-0.11377 0.254,-0.0423 0.27252,-0.0423 0.0397,0 0.0714,0.0238 0.0344,0.0238 0.0344,0.0767 0,0.0159 -0.005,0.10054 -0.005,0.0847 -0.0106,0.21432 -0.005,0.12964 -0.005,0.25135 v 0.09 q 0,0.24077 0.0185,0.35718 z" />
    </g>
    <path
       id="path859"
       style="fill:none;fill-opacity:1;stroke:#676767;stroke-width:1.104;stroke-linecap:round;stroke-miterlimit:4;stroke-dasharray:none;stroke-opacity:1;paint-order:markers stroke fill"
       d="m 149.14268,145.66361 c -2.5514,0 -4.6046,2.0598 -4.6046,4.61948 v 6.98812 h 17.20512 v -6.98812 c 0,-2.55968 -2.05312,-4.61948 -4.6046,-4.61948 z"
       sodipodi:nodetypes="ssccsss" />
    <rect
       inkscape:export-ydpi="96"
       inkscape:export-xdpi="96"
       inkscape:export-filename="D:\Calcatz\Icon Pack\Adventure Narative Inspired by Arrival\GUI\Navigation Buttons\Playstation\Dark\png\256px\l1.png"
       style="fill:#cccccc;fill-opacity:1;stroke-width:1.27734;stroke-linecap:round;paint-order:fill markers stroke"
       id="rect861"
       width="67.73333"
       height="67.73333"
       x="174.48222"
       y="134.53409" />
    <g
       transform="matrix(8,0,0,8,-681.0242,-941.73863)"
       aria-label="L"
       id="g865"
       style="font-weight:bold;font-size:2.11667px;line-height:1.05;font-family:'Overlock SC';-inkscape-font-specification:'Overlock SC Bold';text-align:end;text-anchor:end;fill:#ffffff;fill-opacity:1;stroke:#ffffff;stroke-width:0.905998;stroke-linecap:round;stroke-miterlimit:4;stroke-dasharray:none;stroke-opacity:1;paint-order:markers stroke fill">
      <path
         d="m 110.36517,138.99134 v -0.43816 q 0,-0.29845 -0.0148,-0.49106 0.036,-0.006 0.0868,-0.006 0.10372,0 0.10372,0.0804 0,0.0127 -0.004,0.0868 -0.004,0.072 -0.008,0.18204 -0.004,0.10795 -0.004,0.20531 v 0.19051 q 0,0.44026 0.0148,0.5334 0.0889,0.004 0.1397,0.004 0.3302,0 0.42545,-0.0487 0.0148,0.0444 0.0148,0.0931 0,0.0381 -0.019,0.055 -0.036,0.0317 -0.32385,0.0317 -0.254,0 -0.3175,-0.004 -0.0571,-0.002 -0.0783,-0.0296 -0.0191,-0.0275 -0.0191,-0.091 0,-0.0339 0.002,-0.15663 0.002,-0.12277 0.002,-0.19685 z"
         style="font-size:2.11667px;fill:#ffffff;fill-opacity:1;stroke:none;stroke-width:0.905998"
         id="path863" />
    </g>
    <g
       transform="matrix(8,0,0,8,-681.0242,-941.73863)"
       aria-label="1"
       id="g869"
       style="font-weight:bold;font-size:2.64583px;line-height:1.05;font-family:'Overlock SC';-inkscape-font-specification:'Overlock SC Bold';text-align:end;text-anchor:end;fill:#ffffff;fill-opacity:1;stroke:#ffffff;stroke-width:0.905998;stroke-linecap:round;stroke-miterlimit:4;stroke-dasharray:none;stroke-opacity:1;paint-order:markers stroke fill">
      <path
         d="m 111.76003,139.33086 q 0.10055,0 0.22225,-0.0106 0.0106,0.0318 0.0106,0.0582 0,0.10054 -0.10319,0.10054 -0.0159,0 -0.13229,-0.003 -0.11642,-0.003 -0.23019,-0.003 -0.14817,0 -0.23019,0.003 -0.0132,-0.0397 -0.0132,-0.0635 0,-0.09 0.15346,-0.09 h 0.127 q 0,-0.0344 0.003,-0.20373 0.003,-0.16933 0.003,-0.30692 0,-0.23283 -0.008,-0.43127 -0.21961,0.0265 -0.27517,0.037 -0.005,-0.0264 -0.005,-0.045 0,-0.0979 0.10319,-0.11377 0.254,-0.0423 0.27252,-0.0423 0.0397,0 0.0714,0.0238 0.0344,0.0238 0.0344,0.0767 0,0.0159 -0.005,0.10054 -0.005,0.0847 -0.0106,0.21432 -0.005,0.12964 -0.005,0.25135 v 0.09 q 0,0.24077 0.0185,0.35718 z"
         style="font-size:2.64583px;fill:#ffffff;fill-opacity:1;stroke:none;stroke-width:0.905998"
         id="path867" />
    </g>
    <path
       sodipodi:nodetypes="ssccsss"
       d="m 200.35292,156.79313 c -5.1028,0 -9.2092,4.1196 -9.2092,9.23896 v 13.97624 h 34.41024 v -13.97624 c 0,-5.11936 -4.10624,-9.23896 -9.2092,-9.23896 z"
       style="fill:none;fill-opacity:1;stroke:#676767;stroke-width:2.208;stroke-linecap:round;stroke-miterlimit:4;stroke-dasharray:none;stroke-opacity:1;paint-order:markers stroke fill"
       id="path871" />
  </g>
</svg>
