<?xml version="1.0" encoding="UTF-8" standalone="no"?>
<svg
   xmlns:dc="http://purl.org/dc/elements/1.1/"
   xmlns:cc="http://creativecommons.org/ns#"
   xmlns:rdf="http://www.w3.org/1999/02/22-rdf-syntax-ns#"
   xmlns:svg="http://www.w3.org/2000/svg"
   xmlns="http://www.w3.org/2000/svg"
   xmlns:sodipodi="http://sodipodi.sourceforge.net/DTD/sodipodi-0.dtd"
   xmlns:inkscape="http://www.inkscape.org/namespaces/inkscape"
   inkscape:export-ydpi="96"
   inkscape:export-xdpi="96"
   inkscape:export-filename="D:\Calcatz\Icon Pack\Adventure Narative Inspired by Arrival\GUI\Navigation Buttons\Playstation\Dark\png\l2.png"
   sodipodi:docname="l2.svg"
   inkscape:version="1.0 (4035a4fb49, 2020-05-01)"
   id="svg4265"
   version="1.1"
   viewBox="0 0 8.4666662 8.4666662"
   height="31.999998"
   width="31.999998">
  <defs
     id="defs4259" />
  <sodipodi:namedview
     inkscape:window-maximized="1"
     inkscape:window-y="-8"
     inkscape:window-x="-8"
     inkscape:window-height="705"
     inkscape:window-width="1366"
     fit-margin-bottom="0"
     fit-margin-right="0"
     fit-margin-left="0"
     fit-margin-top="0"
     showgrid="false"
     inkscape:document-rotation="0"
     inkscape:current-layer="layer1"
     inkscape:document-units="mm"
     inkscape:cy="135.89006"
     inkscape:cx="205.15955"
     inkscape:zoom="1.2339194"
     inkscape:pageshadow="2"
     inkscape:pageopacity="0.0"
     borderopacity="1.0"
     bordercolor="#666666"
     pagecolor="#ffffff"
     id="base"
     units="px" />
  <metadata
     id="metadata4262">
    <rdf:RDF>
      <cc:Work
         rdf:about="">
        <dc:format>image/svg+xml</dc:format>
        <dc:type
           rdf:resource="http://purl.org/dc/dcmitype/StillImage" />
        <dc:title />
      </cc:Work>
    </rdf:RDF>
  </metadata>
  <g
     transform="translate(-129.01494,-166.8606)"
     id="layer1"
     inkscape:groupmode="layer"
     inkscape:label="Layer 1">
    <rect
       y="166.8606"
       x="129.01494"
       height="8.4666662"
       width="8.4666662"
       id="rect833"
       style="fill:#cccccc;fill-opacity:1;stroke-width:0.154626;stroke-linecap:round;paint-order:fill markers stroke" />
    <path
       d="m 132.52849,171.31786 v -0.43815 q 0,-0.29845 -0.0148,-0.49107 0.036,-0.006 0.0868,-0.006 0.10372,0 0.10372,0.0804 0,0.0127 -0.004,0.0868 -0.004,0.072 -0.008,0.18203 -0.004,0.10795 -0.004,0.20532 v 0.1905 q 0,0.44027 0.0148,0.5334 0.0889,0.004 0.1397,0.004 0.3302,0 0.42545,-0.0487 0.0148,0.0445 0.0148,0.0931 0,0.0381 -0.019,0.055 -0.036,0.0318 -0.32385,0.0318 -0.254,0 -0.3175,-0.004 -0.0572,-0.002 -0.0783,-0.0296 -0.019,-0.0275 -0.019,-0.091 0,-0.0339 0.002,-0.15663 0.002,-0.12277 0.002,-0.19685 z"
       style="font-weight:bold;font-size:2.11667px;line-height:1.05;font-family:'Overlock SC';-inkscape-font-specification:'Overlock SC Bold';text-align:end;text-anchor:end;fill:#ffffff;fill-opacity:1;stroke:none;stroke-width:0.905998;stroke-linecap:round;stroke-miterlimit:4;stroke-dasharray:none;stroke-opacity:1;paint-order:markers stroke fill"
       id="path4870" />
    <path
       d="m 133.6423,171.63887 q 0.20637,0 0.5662,-0.0212 0.16934,-0.005 0.28046,-0.0344 0.0318,0.045 0.0318,0.0952 0,0.11113 -0.1905,0.11907 -0.20637,0.008 -0.43656,0.008 -0.17463,0 -0.381,-0.005 -0.12171,0 -0.12171,-0.11906 0,-0.0212 0.003,-0.0317 0.0423,-0.0291 0.18785,-0.11906 0.14552,-0.0926 0.21961,-0.14552 0.0741,-0.0556 0.17462,-0.14023 0.10319,-0.0847 0.14817,-0.16404 0.0476,-0.082 0.0476,-0.1614 0,-0.0979 -0.0741,-0.16139 -0.0714,-0.0635 -0.18786,-0.0635 -0.0847,0 -0.17727,0.0608 -0.0926,0.0609 -0.15081,0.15346 -0.0952,-0.0132 -0.0952,-0.082 0,-0.0926 0.14288,-0.18786 0.14287,-0.0953 0.3175,-0.0953 0.1905,0 0.30427,0.0926 0.11377,0.0926 0.11377,0.23812 0,0.18256 -0.17992,0.38894 -0.17992,0.20637 -0.54239,0.37571 z"
       style="font-weight:bold;font-size:2.64583px;line-height:1.05;font-family:'Overlock SC';-inkscape-font-specification:'Overlock SC Bold';text-align:end;text-anchor:end;fill:#ffffff;fill-opacity:1;stroke:none;stroke-width:0.905998;stroke-linecap:round;stroke-miterlimit:4;stroke-dasharray:none;stroke-opacity:1;paint-order:markers stroke fill"
       id="path4873" />
    <path
       sodipodi:nodetypes="sccs"
       id="path1621"
       style="fill:none;fill-opacity:1;stroke:#676767;stroke-width:0.276;stroke-linecap:round;stroke-miterlimit:4;stroke-dasharray:none;stroke-opacity:1;paint-order:markers stroke fill"
       d="m 133.71957,169.54595 c 1.30329,-3e-5 1.36208,1.34829 1.46399,3.09594 h -3.87059 c 0.10192,-1.74765 1.09779,-3.09592 2.4066,-3.09594 z" />
    <rect
       inkscape:export-ydpi="96"
       inkscape:export-xdpi="96"
       inkscape:export-filename="D:\Calcatz\Icon Pack\Adventure Narative Inspired by Arrival\GUI\Navigation Buttons\Playstation\Dark\png\64px\l2.png"
       style="fill:#cccccc;fill-opacity:1;stroke-width:0.309252;stroke-linecap:round;paint-order:fill markers stroke"
       id="rect835"
       width="16.933332"
       height="16.933332"
       x="138.56709"
       y="166.8606" />
    <path
       id="path837"
       style="font-weight:bold;font-size:2.11667px;line-height:1.05;font-family:'Overlock SC';-inkscape-font-specification:'Overlock SC Bold';text-align:end;text-anchor:end;fill:#ffffff;fill-opacity:1;stroke:none;stroke-width:1.812;stroke-linecap:round;stroke-miterlimit:4;stroke-dasharray:none;stroke-opacity:1;paint-order:markers stroke fill"
       d="m 145.59419,175.77512 v -0.8763 q 0,-0.5969 -0.0296,-0.98214 0.072,-0.012 0.1736,-0.012 0.20744,0 0.20744,0.1608 0,0.0254 -0.008,0.1736 -0.008,0.144 -0.016,0.36406 -0.008,0.2159 -0.008,0.41064 v 0.381 q 0,0.88054 0.0296,1.0668 0.1778,0.008 0.2794,0.008 0.6604,0 0.8509,-0.0974 0.0296,0.089 0.0296,0.1862 0,0.0762 -0.038,0.11 -0.072,0.0636 -0.6477,0.0636 -0.508,0 -0.635,-0.008 -0.1144,-0.004 -0.1566,-0.0592 -0.038,-0.055 -0.038,-0.182 0,-0.0678 0.004,-0.31326 0.004,-0.24554 0.004,-0.3937 z" />
    <path
       id="path839"
       style="font-weight:bold;font-size:2.64583px;line-height:1.05;font-family:'Overlock SC';-inkscape-font-specification:'Overlock SC Bold';text-align:end;text-anchor:end;fill:#ffffff;fill-opacity:1;stroke:none;stroke-width:1.812;stroke-linecap:round;stroke-miterlimit:4;stroke-dasharray:none;stroke-opacity:1;paint-order:markers stroke fill"
       d="m 147.82181,176.41714 q 0.41274,0 1.1324,-0.0424 0.33868,-0.01 0.56092,-0.0688 0.0636,0.09 0.0636,0.1904 0,0.22226 -0.381,0.23814 -0.41274,0.016 -0.87312,0.016 -0.34926,0 -0.762,-0.01 -0.24342,0 -0.24342,-0.23812 0,-0.0424 0.006,-0.0634 0.0846,-0.0582 0.3757,-0.23812 0.29104,-0.1852 0.43922,-0.29104 0.1482,-0.1112 0.34924,-0.28046 0.20638,-0.1694 0.29634,-0.32808 0.0952,-0.164 0.0952,-0.3228 0,-0.1958 -0.1482,-0.32278 -0.1428,-0.127 -0.37572,-0.127 -0.1694,0 -0.35454,0.1216 -0.1852,0.1218 -0.30162,0.30692 -0.1904,-0.0264 -0.1904,-0.164 0,-0.1852 0.28576,-0.37572 0.28574,-0.1906 0.635,-0.1906 0.381,0 0.60854,0.1852 0.22754,0.1852 0.22754,0.47624 0,0.36512 -0.35984,0.77788 -0.35984,0.41274 -1.08478,0.75142 z" />
    <path
       d="m 147.97635,172.2313 c 2.60658,-6e-5 2.72416,2.69658 2.92798,6.19188 h -7.74118 c 0.20384,-3.4953 2.19558,-6.19184 4.8132,-6.19188 z"
       style="fill:none;fill-opacity:1;stroke:#676767;stroke-width:0.552;stroke-linecap:round;stroke-miterlimit:4;stroke-dasharray:none;stroke-opacity:1;paint-order:markers stroke fill"
       id="path841"
       sodipodi:nodetypes="sccs" />
    <rect
       inkscape:export-ydpi="96"
       inkscape:export-xdpi="96"
       inkscape:export-filename="D:\Calcatz\Icon Pack\Adventure Narative Inspired by Arrival\GUI\Navigation Buttons\Playstation\Dark\png\128px\l2.png"
       y="166.8606"
       x="157.61707"
       height="33.866665"
       width="33.866665"
       id="rect843"
       style="fill:#cccccc;fill-opacity:1;stroke-width:0.618504;stroke-linecap:round;paint-order:fill markers stroke" />
    <path
       d="m 171.67133,184.68964 v -1.7526 q 0,-1.1938 -0.0592,-1.96428 0.144,-0.024 0.3472,-0.024 0.41488,0 0.41488,0.3216 0,0.0508 -0.016,0.3472 -0.016,0.288 -0.032,0.72812 -0.016,0.4318 -0.016,0.82128 v 0.762 q 0,1.76108 0.0592,2.1336 0.3556,0.016 0.5588,0.016 1.3208,0 1.7018,-0.1948 0.0592,0.178 0.0592,0.3724 0,0.1524 -0.076,0.22 -0.144,0.1272 -1.2954,0.1272 -1.016,0 -1.27,-0.016 -0.2288,-0.008 -0.3132,-0.1184 -0.076,-0.11 -0.076,-0.364 0,-0.1356 0.008,-0.62652 0.008,-0.49108 0.008,-0.7874 z"
       style="font-weight:bold;font-size:2.11667px;line-height:1.05;font-family:'Overlock SC';-inkscape-font-specification:'Overlock SC Bold';text-align:end;text-anchor:end;fill:#ffffff;fill-opacity:1;stroke:none;stroke-width:3.624;stroke-linecap:round;stroke-miterlimit:4;stroke-dasharray:none;stroke-opacity:1;paint-order:markers stroke fill"
       id="path845" />
    <path
       d="m 176.12657,185.97368 q 0.82548,0 2.2648,-0.0848 0.67736,-0.02 1.12184,-0.1376 0.1272,0.18 0.1272,0.3808 0,0.44452 -0.762,0.47628 -0.82548,0.032 -1.74624,0.032 -0.69852,0 -1.524,-0.02 -0.48684,0 -0.48684,-0.47624 0,-0.0848 0.012,-0.1268 0.1692,-0.1164 0.7514,-0.47624 0.58208,-0.3704 0.87844,-0.58208 0.2964,-0.2224 0.69848,-0.56092 0.41276,-0.3388 0.59268,-0.65616 0.1904,-0.328 0.1904,-0.6456 0,-0.3916 -0.2964,-0.64556 -0.2856,-0.254 -0.75144,-0.254 -0.3388,0 -0.70908,0.2432 -0.3704,0.2436 -0.60324,0.61384 -0.3808,-0.0528 -0.3808,-0.328 0,-0.3704 0.57152,-0.75144 0.57148,-0.3812 1.27,-0.3812 0.762,0 1.21708,0.3704 0.45508,0.3704 0.45508,0.95248 0,0.73024 -0.71968,1.55576 -0.71968,0.82548 -2.16956,1.50284 z"
       style="font-weight:bold;font-size:2.64583px;line-height:1.05;font-family:'Overlock SC';-inkscape-font-specification:'Overlock SC Bold';text-align:end;text-anchor:end;fill:#ffffff;fill-opacity:1;stroke:none;stroke-width:3.624;stroke-linecap:round;stroke-miterlimit:4;stroke-dasharray:none;stroke-opacity:1;paint-order:markers stroke fill"
       id="path847" />
    <path
       sodipodi:nodetypes="sccs"
       id="path849"
       style="fill:none;fill-opacity:1;stroke:#676767;stroke-width:1.104;stroke-linecap:round;stroke-miterlimit:4;stroke-dasharray:none;stroke-opacity:1;paint-order:markers stroke fill"
       d="m 176.43565,177.602 c 5.21316,-1.2e-4 5.44832,5.39316 5.85596,12.38376 h -15.48236 c 0.40768,-6.9906 4.39116,-12.38368 9.6264,-12.38376 z" />
    <rect
       inkscape:export-ydpi="96"
       inkscape:export-xdpi="96"
       inkscape:export-filename="D:\Calcatz\Icon Pack\Adventure Narative Inspired by Arrival\GUI\Navigation Buttons\Playstation\Dark\png\256px\l2.png"
       style="fill:#cccccc;fill-opacity:1;stroke-width:1.23701;stroke-linecap:round;paint-order:fill markers stroke"
       id="rect851"
       width="67.73333"
       height="67.73333"
       x="194.81982"
       y="166.8606" />
    <path
       id="path853"
       style="font-weight:bold;font-size:2.11667px;line-height:1.05;font-family:'Overlock SC';-inkscape-font-specification:'Overlock SC Bold';text-align:end;text-anchor:end;fill:#ffffff;fill-opacity:1;stroke:none;stroke-width:7.248;stroke-linecap:round;stroke-miterlimit:4;stroke-dasharray:none;stroke-opacity:1;paint-order:markers stroke fill"
       d="m 222.92836,202.51868 v -3.5052 q 0,-2.3876 -0.1184,-3.92856 0.288,-0.048 0.6944,-0.048 0.82976,0 0.82976,0.6432 0,0.1016 -0.032,0.6944 -0.032,0.576 -0.064,1.45624 -0.032,0.8636 -0.032,1.64256 v 1.524 q 0,3.52216 0.1184,4.2672 0.7112,0.032 1.1176,0.032 2.6416,0 3.4036,-0.3896 0.1184,0.356 0.1184,0.7448 0,0.3048 -0.152,0.44 -0.288,0.2544 -2.5908,0.2544 -2.032,0 -2.54,-0.032 -0.4576,-0.016 -0.6264,-0.2368 -0.152,-0.22 -0.152,-0.728 0,-0.2712 0.016,-1.25304 0.016,-0.98216 0.016,-1.5748 z" />
    <path
       id="path855"
       style="font-weight:bold;font-size:2.64583px;line-height:1.05;font-family:'Overlock SC';-inkscape-font-specification:'Overlock SC Bold';text-align:end;text-anchor:end;fill:#ffffff;fill-opacity:1;stroke:none;stroke-width:7.248;stroke-linecap:round;stroke-miterlimit:4;stroke-dasharray:none;stroke-opacity:1;paint-order:markers stroke fill"
       d="m 231.83884,205.08676 q 1.65096,0 4.5296,-0.1696 1.35472,-0.04 2.24368,-0.2752 0.2544,0.36 0.2544,0.7616 0,0.88904 -1.524,0.95256 -1.65096,0.064 -3.49248,0.064 -1.39704,0 -3.048,-0.04 -0.97368,0 -0.97368,-0.95248 0,-0.1696 0.024,-0.2536 0.3384,-0.2328 1.5028,-0.95248 1.16416,-0.7408 1.75688,-1.16416 0.5928,-0.4448 1.39696,-1.12184 0.82552,-0.6776 1.18536,-1.31232 0.3808,-0.656 0.3808,-1.2912 0,-0.7832 -0.5928,-1.29112 -0.5712,-0.508 -1.50288,-0.508 -0.6776,0 -1.41816,0.4864 -0.7408,0.4872 -1.20648,1.22768 -0.7616,-0.1056 -0.7616,-0.656 0,-0.7408 1.14304,-1.50288 1.14296,-0.7624 2.54,-0.7624 1.524,0 2.43416,0.7408 0.91016,0.7408 0.91016,1.90496 0,1.46048 -1.43936,3.11152 -1.43936,1.65096 -4.33912,3.00568 z" />
    <path
       d="m 232.457,188.3434 c 10.42632,-2.4e-4 10.89664,10.78632 11.71192,24.76752 H 213.2042 c 0.81536,-13.9812 8.78232,-24.76736 19.2528,-24.76752 z"
       style="fill:none;fill-opacity:1;stroke:#676767;stroke-width:2.208;stroke-linecap:round;stroke-miterlimit:4;stroke-dasharray:none;stroke-opacity:1;paint-order:markers stroke fill"
       id="path857"
       sodipodi:nodetypes="sccs" />
  </g>
</svg>
