<?xml version="1.0" encoding="UTF-8" standalone="no"?>
<svg
   xmlns:dc="http://purl.org/dc/elements/1.1/"
   xmlns:cc="http://creativecommons.org/ns#"
   xmlns:rdf="http://www.w3.org/1999/02/22-rdf-syntax-ns#"
   xmlns:svg="http://www.w3.org/2000/svg"
   xmlns="http://www.w3.org/2000/svg"
   xmlns:sodipodi="http://sodipodi.sourceforge.net/DTD/sodipodi-0.dtd"
   xmlns:inkscape="http://www.inkscape.org/namespaces/inkscape"
   inkscape:export-ydpi="96"
   inkscape:export-xdpi="96"
   inkscape:export-filename="D:\Calcatz\Icon Pack\Adventure Narative Inspired by Arrival\GUI\Navigation Buttons\Playstation\Dark\png\l3.png"
   sodipodi:docname="l3.svg"
   inkscape:version="1.0 (4035a4fb49, 2020-05-01)"
   id="svg4238"
   version="1.1"
   viewBox="0 0 8.4666662 8.4666662"
   height="8.4666662mm"
   width="8.4666662mm">
  <defs
     id="defs4232" />
  <sodipodi:namedview
     inkscape:window-maximized="1"
     inkscape:window-y="-8"
     inkscape:window-x="-8"
     inkscape:window-height="705"
     inkscape:window-width="1366"
     fit-margin-bottom="0"
     fit-margin-right="0"
     fit-margin-left="0"
     fit-margin-top="0"
     showgrid="false"
     inkscape:document-rotation="0"
     inkscape:current-layer="layer1"
     inkscape:document-units="mm"
     inkscape:cy="88.267014"
     inkscape:cx="22.738693"
     inkscape:zoom="0.61695969"
     inkscape:pageshadow="2"
     inkscape:pageopacity="0.0"
     borderopacity="1.0"
     bordercolor="#666666"
     pagecolor="#ffffff"
     id="base" />
  <metadata
     id="metadata4235">
    <rdf:RDF>
      <cc:Work
         rdf:about="">
        <dc:format>image/svg+xml</dc:format>
        <dc:type
           rdf:resource="http://purl.org/dc/dcmitype/StillImage" />
        <dc:title />
      </cc:Work>
    </rdf:RDF>
  </metadata>
  <g
     transform="translate(-36.766132,-197.6102)"
     id="layer1"
     inkscape:groupmode="layer"
     inkscape:label="Layer 1">
    <rect
       y="197.6102"
       x="36.766132"
       height="8.4666662"
       width="8.4666662"
       id="rect835"
       style="fill:#cccccc;fill-opacity:1;stroke-width:0.117111;stroke-linecap:round;paint-order:fill markers stroke" />
    <g
       style="font-weight:bold;font-size:2.64583px;line-height:1.05;font-family:'Overlock SC';-inkscape-font-specification:'Overlock SC Bold';text-align:end;text-anchor:end;fill:#ffffff;fill-opacity:1;stroke:#ffffff;stroke-width:0.905998;stroke-linecap:round;stroke-miterlimit:4;stroke-dasharray:none;stroke-opacity:1;paint-order:markers stroke fill"
       id="text3225"
       aria-label="L">
      <path
         id="path4844"
         style="font-size:2.64583px;fill:#ffffff;fill-opacity:1;stroke:none;stroke-width:0.905998"
         d="m 39.975333,202.12926 v -0.54769 q 0,-0.37306 -0.01852,-0.61383 0.04498,-0.008 0.108479,-0.008 0.129646,0 0.129646,0.10054 0,0.0159 -0.0053,0.10848 -0.0053,0.09 -0.01058,0.22754 -0.0053,0.13494 -0.0053,0.25665 v 0.23812 q 0,0.55034 0.01852,0.66675 0.111125,0.005 0.174625,0.005 0.412749,0 0.531812,-0.0609 0.01852,0.0556 0.01852,0.11642 0,0.0476 -0.02381,0.0688 -0.04498,0.0397 -0.404812,0.0397 -0.3175,0 -0.396875,-0.005 -0.07144,-0.003 -0.0979,-0.037 -0.02381,-0.0344 -0.02381,-0.11377 0,-0.0423 0.0026,-0.19579 0.0026,-0.15346 0.0026,-0.24606 z" />
    </g>
    <g
       style="font-weight:bold;font-size:2.64583px;line-height:1.05;font-family:'Overlock SC';-inkscape-font-specification:'Overlock SC Bold';text-align:end;text-anchor:end;fill:#ffffff;fill-opacity:1;stroke:#ffffff;stroke-width:0.905998;stroke-linecap:round;stroke-miterlimit:4;stroke-dasharray:none;stroke-opacity:1;paint-order:markers stroke fill"
       id="text3743"
       aria-label="3">
      <path
         id="path4847"
         style="font-size:2.64583px;fill:#ffffff;fill-opacity:1;stroke:none;stroke-width:0.905998"
         d="m 41.317161,201.74427 q 0.246063,0 0.367771,-0.0926 0.124354,-0.0926 0.124354,-0.2196 0,-0.10054 -0.07408,-0.17463 -0.07144,-0.0767 -0.187853,-0.0767 -0.0926,0 -0.182563,0.0556 -0.08731,0.0556 -0.140229,0.15875 -0.05027,0 -0.08202,-0.0265 -0.03175,-0.0265 -0.03175,-0.0609 0,-0.09 0.134937,-0.17991 0.137583,-0.0926 0.312208,-0.0926 0.203729,0 0.317499,0.11377 0.116417,0.11113 0.116417,0.26459 0,0.10583 -0.06615,0.20108 -0.0635,0.0926 -0.187854,0.14287 0.142875,0.045 0.22225,0.1614 0.08202,0.11377 0.08202,0.25929 0,0.23548 -0.174625,0.38365 -0.174625,0.15081 -0.476249,0.15081 -0.132292,0 -0.203729,-0.0397 -0.06879,-0.037 -0.06879,-0.0952 0,-0.0767 0.08731,-0.0979 0.07937,0.0794 0.219603,0.0794 0.201083,0 0.314854,-0.0979 0.113771,-0.0952 0.113771,-0.24606 0,-0.15875 -0.119063,-0.24871 -0.119062,-0.0926 -0.325437,-0.0926 -0.05027,0 -0.07408,-0.0159 -0.02117,-0.0159 -0.02117,-0.0767 z" />
    </g>
    <path
       d="m 43.15879,201.84354 a 2.1593168,2.1593168 0 0 1 -2.159316,2.15931 2.1593168,2.1593168 0 0 1 -2.159317,-2.15931 2.1593168,2.1593168 0 0 1 2.159317,-2.15932 2.1593168,2.1593168 0 0 1 2.159316,2.15932"
       style="fill:none;fill-opacity:1;stroke:#676767;stroke-width:0.276;stroke-linecap:round;stroke-miterlimit:4;stroke-dasharray:none;stroke-dashoffset:0;stroke-opacity:1;paint-order:fill markers stroke"
       id="circle3227" />
    <rect
       inkscape:export-ydpi="96"
       inkscape:export-xdpi="96"
       inkscape:export-filename="D:\Calcatz\Icon Pack\Adventure Narative Inspired by Arrival\GUI\Navigation Buttons\Playstation\Dark\png\64px\l3.png"
       style="fill:#cccccc;fill-opacity:1;stroke-width:0.234222;stroke-linecap:round;paint-order:fill markers stroke"
       id="rect837"
       width="16.933332"
       height="16.933332"
       x="46.468868"
       y="197.6102" />
    <g
       transform="matrix(2,0,0,2,-27.063393,-197.6102)"
       aria-label="L"
       id="g841"
       style="font-weight:bold;font-size:2.64583px;line-height:1.05;font-family:'Overlock SC';-inkscape-font-specification:'Overlock SC Bold';text-align:end;text-anchor:end;fill:#ffffff;fill-opacity:1;stroke:#ffffff;stroke-width:0.905998;stroke-linecap:round;stroke-miterlimit:4;stroke-dasharray:none;stroke-opacity:1;paint-order:markers stroke fill">
      <path
         d="m 39.975333,202.12926 v -0.54769 q 0,-0.37306 -0.01852,-0.61383 0.04498,-0.008 0.108479,-0.008 0.129646,0 0.129646,0.10054 0,0.0159 -0.0053,0.10848 -0.0053,0.09 -0.01058,0.22754 -0.0053,0.13494 -0.0053,0.25665 v 0.23812 q 0,0.55034 0.01852,0.66675 0.111125,0.005 0.174625,0.005 0.412749,0 0.531812,-0.0609 0.01852,0.0556 0.01852,0.11642 0,0.0476 -0.02381,0.0688 -0.04498,0.0397 -0.404812,0.0397 -0.3175,0 -0.396875,-0.005 -0.07144,-0.003 -0.0979,-0.037 -0.02381,-0.0344 -0.02381,-0.11377 0,-0.0423 0.0026,-0.19579 0.0026,-0.15346 0.0026,-0.24606 z"
         style="font-size:2.64583px;fill:#ffffff;fill-opacity:1;stroke:none;stroke-width:0.905998"
         id="path839" />
    </g>
    <g
       transform="matrix(2,0,0,2,-27.063393,-197.6102)"
       aria-label="3"
       id="g845"
       style="font-weight:bold;font-size:2.64583px;line-height:1.05;font-family:'Overlock SC';-inkscape-font-specification:'Overlock SC Bold';text-align:end;text-anchor:end;fill:#ffffff;fill-opacity:1;stroke:#ffffff;stroke-width:0.905998;stroke-linecap:round;stroke-miterlimit:4;stroke-dasharray:none;stroke-opacity:1;paint-order:markers stroke fill">
      <path
         d="m 41.317161,201.74427 q 0.246063,0 0.367771,-0.0926 0.124354,-0.0926 0.124354,-0.2196 0,-0.10054 -0.07408,-0.17463 -0.07144,-0.0767 -0.187853,-0.0767 -0.0926,0 -0.182563,0.0556 -0.08731,0.0556 -0.140229,0.15875 -0.05027,0 -0.08202,-0.0265 -0.03175,-0.0265 -0.03175,-0.0609 0,-0.09 0.134937,-0.17991 0.137583,-0.0926 0.312208,-0.0926 0.203729,0 0.317499,0.11377 0.116417,0.11113 0.116417,0.26459 0,0.10583 -0.06615,0.20108 -0.0635,0.0926 -0.187854,0.14287 0.142875,0.045 0.22225,0.1614 0.08202,0.11377 0.08202,0.25929 0,0.23548 -0.174625,0.38365 -0.174625,0.15081 -0.476249,0.15081 -0.132292,0 -0.203729,-0.0397 -0.06879,-0.037 -0.06879,-0.0952 0,-0.0767 0.08731,-0.0979 0.07937,0.0794 0.219603,0.0794 0.201083,0 0.314854,-0.0979 0.113771,-0.0952 0.113771,-0.24606 0,-0.15875 -0.119063,-0.24871 -0.119062,-0.0926 -0.325437,-0.0926 -0.05027,0 -0.07408,-0.0159 -0.02117,-0.0159 -0.02117,-0.0767 z"
         style="font-size:2.64583px;fill:#ffffff;fill-opacity:1;stroke:none;stroke-width:0.905998"
         id="path843" />
    </g>
    <path
       id="path847"
       style="fill:none;fill-opacity:1;stroke:#676767;stroke-width:0.552;stroke-linecap:round;stroke-miterlimit:4;stroke-dasharray:none;stroke-dashoffset:0;stroke-opacity:1;paint-order:fill markers stroke"
       d="m 59.254188,206.07688 a 4.3186336,4.3186336 0 0 1 -4.318632,4.31862 4.3186336,4.3186336 0 0 1 -4.318634,-4.31862 4.3186336,4.3186336 0 0 1 4.318634,-4.31864 4.3186336,4.3186336 0 0 1 4.318632,4.31864" />
    <rect
       inkscape:export-ydpi="96"
       inkscape:export-xdpi="96"
       inkscape:export-filename="D:\Calcatz\Icon Pack\Adventure Narative Inspired by Arrival\GUI\Navigation Buttons\Playstation\Dark\png\128px\l3.png"
       y="197.6102"
       x="65.981552"
       height="33.866665"
       width="33.866665"
       id="rect849"
       style="fill:#cccccc;fill-opacity:1;stroke-width:0.468444;stroke-linecap:round;paint-order:fill markers stroke" />
    <g
       style="font-weight:bold;font-size:2.64583px;line-height:1.05;font-family:'Overlock SC';-inkscape-font-specification:'Overlock SC Bold';text-align:end;text-anchor:end;fill:#ffffff;fill-opacity:1;stroke:#ffffff;stroke-width:0.905998;stroke-linecap:round;stroke-miterlimit:4;stroke-dasharray:none;stroke-opacity:1;paint-order:markers stroke fill"
       id="g853"
       aria-label="L"
       transform="matrix(4,0,0,4,-81.082963,-592.8306)">
      <path
         id="path851"
         style="font-size:2.64583px;fill:#ffffff;fill-opacity:1;stroke:none;stroke-width:0.905998"
         d="m 39.975333,202.12926 v -0.54769 q 0,-0.37306 -0.01852,-0.61383 0.04498,-0.008 0.108479,-0.008 0.129646,0 0.129646,0.10054 0,0.0159 -0.0053,0.10848 -0.0053,0.09 -0.01058,0.22754 -0.0053,0.13494 -0.0053,0.25665 v 0.23812 q 0,0.55034 0.01852,0.66675 0.111125,0.005 0.174625,0.005 0.412749,0 0.531812,-0.0609 0.01852,0.0556 0.01852,0.11642 0,0.0476 -0.02381,0.0688 -0.04498,0.0397 -0.404812,0.0397 -0.3175,0 -0.396875,-0.005 -0.07144,-0.003 -0.0979,-0.037 -0.02381,-0.0344 -0.02381,-0.11377 0,-0.0423 0.0026,-0.19579 0.0026,-0.15346 0.0026,-0.24606 z" />
    </g>
    <g
       style="font-weight:bold;font-size:2.64583px;line-height:1.05;font-family:'Overlock SC';-inkscape-font-specification:'Overlock SC Bold';text-align:end;text-anchor:end;fill:#ffffff;fill-opacity:1;stroke:#ffffff;stroke-width:0.905998;stroke-linecap:round;stroke-miterlimit:4;stroke-dasharray:none;stroke-opacity:1;paint-order:markers stroke fill"
       id="g857"
       aria-label="3"
       transform="matrix(4,0,0,4,-81.082963,-592.8306)">
      <path
         id="path855"
         style="font-size:2.64583px;fill:#ffffff;fill-opacity:1;stroke:none;stroke-width:0.905998"
         d="m 41.317161,201.74427 q 0.246063,0 0.367771,-0.0926 0.124354,-0.0926 0.124354,-0.2196 0,-0.10054 -0.07408,-0.17463 -0.07144,-0.0767 -0.187853,-0.0767 -0.0926,0 -0.182563,0.0556 -0.08731,0.0556 -0.140229,0.15875 -0.05027,0 -0.08202,-0.0265 -0.03175,-0.0265 -0.03175,-0.0609 0,-0.09 0.134937,-0.17991 0.137583,-0.0926 0.312208,-0.0926 0.203729,0 0.317499,0.11377 0.116417,0.11113 0.116417,0.26459 0,0.10583 -0.06615,0.20108 -0.0635,0.0926 -0.187854,0.14287 0.142875,0.045 0.22225,0.1614 0.08202,0.11377 0.08202,0.25929 0,0.23548 -0.174625,0.38365 -0.174625,0.15081 -0.476249,0.15081 -0.132292,0 -0.203729,-0.0397 -0.06879,-0.037 -0.06879,-0.0952 0,-0.0767 0.08731,-0.0979 0.07937,0.0794 0.219603,0.0794 0.201083,0 0.314854,-0.0979 0.113771,-0.0952 0.113771,-0.24606 0,-0.15875 -0.119063,-0.24871 -0.119062,-0.0926 -0.325437,-0.0926 -0.05027,0 -0.07408,-0.0159 -0.02117,-0.0159 -0.02117,-0.0767 z" />
    </g>
    <path
       d="m 91.5522,214.54356 a 8.6372672,8.6372672 0 0 1 -8.637264,8.63724 8.6372672,8.6372672 0 0 1 -8.637268,-8.63724 8.6372672,8.6372672 0 0 1 8.637268,-8.63728 8.6372672,8.6372672 0 0 1 8.637264,8.63728"
       style="fill:none;fill-opacity:1;stroke:#676767;stroke-width:1.104;stroke-linecap:round;stroke-miterlimit:4;stroke-dasharray:none;stroke-dashoffset:0;stroke-opacity:1;paint-order:fill markers stroke"
       id="path859" />
    <rect
       inkscape:export-ydpi="96"
       inkscape:export-xdpi="96"
       inkscape:export-filename="D:\Calcatz\Icon Pack\Adventure Narative Inspired by Arrival\GUI\Navigation Buttons\Playstation\Dark\png\256px\l3.png"
       style="fill:#cccccc;fill-opacity:1;stroke-width:0.936888;stroke-linecap:round;paint-order:fill markers stroke"
       id="rect861"
       width="67.73333"
       height="67.73333"
       x="103.61317"
       y="197.6102" />
    <g
       transform="matrix(8,0,0,8,-190.51587,-1383.2714)"
       aria-label="L"
       id="g865"
       style="font-weight:bold;font-size:2.64583px;line-height:1.05;font-family:'Overlock SC';-inkscape-font-specification:'Overlock SC Bold';text-align:end;text-anchor:end;fill:#ffffff;fill-opacity:1;stroke:#ffffff;stroke-width:0.905998;stroke-linecap:round;stroke-miterlimit:4;stroke-dasharray:none;stroke-opacity:1;paint-order:markers stroke fill">
      <path
         d="m 39.975333,202.12926 v -0.54769 q 0,-0.37306 -0.01852,-0.61383 0.04498,-0.008 0.108479,-0.008 0.129646,0 0.129646,0.10054 0,0.0159 -0.0053,0.10848 -0.0053,0.09 -0.01058,0.22754 -0.0053,0.13494 -0.0053,0.25665 v 0.23812 q 0,0.55034 0.01852,0.66675 0.111125,0.005 0.174625,0.005 0.412749,0 0.531812,-0.0609 0.01852,0.0556 0.01852,0.11642 0,0.0476 -0.02381,0.0688 -0.04498,0.0397 -0.404812,0.0397 -0.3175,0 -0.396875,-0.005 -0.07144,-0.003 -0.0979,-0.037 -0.02381,-0.0344 -0.02381,-0.11377 0,-0.0423 0.0026,-0.19579 0.0026,-0.15346 0.0026,-0.24606 z"
         style="font-size:2.64583px;fill:#ffffff;fill-opacity:1;stroke:none;stroke-width:0.905998"
         id="path863" />
    </g>
    <g
       transform="matrix(8,0,0,8,-190.51587,-1383.2714)"
       aria-label="3"
       id="g869"
       style="font-weight:bold;font-size:2.64583px;line-height:1.05;font-family:'Overlock SC';-inkscape-font-specification:'Overlock SC Bold';text-align:end;text-anchor:end;fill:#ffffff;fill-opacity:1;stroke:#ffffff;stroke-width:0.905998;stroke-linecap:round;stroke-miterlimit:4;stroke-dasharray:none;stroke-opacity:1;paint-order:markers stroke fill">
      <path
         d="m 41.317161,201.74427 q 0.246063,0 0.367771,-0.0926 0.124354,-0.0926 0.124354,-0.2196 0,-0.10054 -0.07408,-0.17463 -0.07144,-0.0767 -0.187853,-0.0767 -0.0926,0 -0.182563,0.0556 -0.08731,0.0556 -0.140229,0.15875 -0.05027,0 -0.08202,-0.0265 -0.03175,-0.0265 -0.03175,-0.0609 0,-0.09 0.134937,-0.17991 0.137583,-0.0926 0.312208,-0.0926 0.203729,0 0.317499,0.11377 0.116417,0.11113 0.116417,0.26459 0,0.10583 -0.06615,0.20108 -0.0635,0.0926 -0.187854,0.14287 0.142875,0.045 0.22225,0.1614 0.08202,0.11377 0.08202,0.25929 0,0.23548 -0.174625,0.38365 -0.174625,0.15081 -0.476249,0.15081 -0.132292,0 -0.203729,-0.0397 -0.06879,-0.037 -0.06879,-0.0952 0,-0.0767 0.08731,-0.0979 0.07937,0.0794 0.219603,0.0794 0.201083,0 0.314854,-0.0979 0.113771,-0.0952 0.113771,-0.24606 0,-0.15875 -0.119063,-0.24871 -0.119062,-0.0926 -0.325437,-0.0926 -0.05027,0 -0.07408,-0.0159 -0.02117,-0.0159 -0.02117,-0.0767 z"
         style="font-size:2.64583px;fill:#ffffff;fill-opacity:1;stroke:none;stroke-width:0.905998"
         id="path867" />
    </g>
    <path
       id="path871"
       style="fill:none;fill-opacity:1;stroke:#676767;stroke-width:2.208;stroke-linecap:round;stroke-miterlimit:4;stroke-dasharray:none;stroke-dashoffset:0;stroke-opacity:1;paint-order:fill markers stroke"
       d="m 154.75445,231.47692 a 17.274534,17.274534 0 0 1 -17.27452,17.27448 17.274534,17.274534 0 0 1 -17.27454,-17.27448 17.274534,17.274534 0 0 1 17.27454,-17.27456 17.274534,17.274534 0 0 1 17.27452,17.27456" />
  </g>
</svg>
