<?xml version="1.0" encoding="UTF-8" standalone="no"?>
<svg
   xmlns:dc="http://purl.org/dc/elements/1.1/"
   xmlns:cc="http://creativecommons.org/ns#"
   xmlns:rdf="http://www.w3.org/1999/02/22-rdf-syntax-ns#"
   xmlns:svg="http://www.w3.org/2000/svg"
   xmlns="http://www.w3.org/2000/svg"
   xmlns:sodipodi="http://sodipodi.sourceforge.net/DTD/sodipodi-0.dtd"
   xmlns:inkscape="http://www.inkscape.org/namespaces/inkscape"
   inkscape:export-ydpi="96"
   inkscape:export-xdpi="96"
   inkscape:export-filename="D:\Calcatz\Icon Pack\Adventure Narative Inspired by Arrival\GUI\Navigation Buttons\Playstation\Dark\png\lstick_up.png"
   sodipodi:docname="lstick_up.svg"
   inkscape:version="1.0 (4035a4fb49, 2020-05-01)"
   id="svg5496"
   version="1.1"
   viewBox="0 0 8.4666662 8.4666662"
   height="31.999998"
   width="31.999998">
  <defs
     id="defs5490" />
  <sodipodi:namedview
     inkscape:window-maximized="1"
     inkscape:window-y="-8"
     inkscape:window-x="-8"
     inkscape:window-height="705"
     inkscape:window-width="1366"
     fit-margin-bottom="0"
     fit-margin-right="0"
     fit-margin-left="0"
     fit-margin-top="0"
     showgrid="false"
     inkscape:document-rotation="0"
     inkscape:current-layer="layer1"
     inkscape:document-units="mm"
     inkscape:cy="180.14139"
     inkscape:cx="182.66932"
     inkscape:zoom="1.2339194"
     inkscape:pageshadow="2"
     inkscape:pageopacity="0.0"
     borderopacity="1.0"
     bordercolor="#666666"
     pagecolor="#ffffff"
     id="base"
     units="px" />
  <metadata
     id="metadata5493">
    <rdf:RDF>
      <cc:Work
         rdf:about="">
        <dc:format>image/svg+xml</dc:format>
        <dc:type
           rdf:resource="http://purl.org/dc/dcmitype/StillImage" />
        <dc:title />
      </cc:Work>
    </rdf:RDF>
  </metadata>
  <g
     transform="translate(-141.82826,-150.03667)"
     id="layer1"
     inkscape:groupmode="layer"
     inkscape:label="Layer 1">
    <rect
       y="150.03667"
       x="141.82826"
       height="8.4666662"
       width="8.4666662"
       id="rect834"
       style="fill:#cccccc;fill-opacity:1;stroke-width:0.141726;stroke-linecap:round;paint-order:fill markers stroke" />
    <g
       style="font-weight:bold;font-size:2.64583px;line-height:1.05;font-family:'Overlock SC';-inkscape-font-specification:'Overlock SC Bold';text-align:end;text-anchor:end;fill:#ffffff;fill-opacity:1;stroke:#ffffff;stroke-width:0.905997;stroke-linecap:round;stroke-miterlimit:4;stroke-dasharray:none;stroke-opacity:1;paint-order:markers stroke fill"
       id="text3029"
       aria-label="L">
      <path
         id="path6093"
         style="font-size:2.64583px;fill:#ffffff;fill-opacity:1;stroke:none;stroke-width:0.905997"
         d="m 145.59989,154.55576 v -0.54769 q 0,-0.37306 -0.0185,-0.61383 0.045,-0.008 0.10848,-0.008 0.12964,0 0.12964,0.10054 0,0.0159 -0.005,0.10848 -0.005,0.09 -0.0106,0.22754 -0.005,0.13494 -0.005,0.25665 v 0.23812 q 0,0.55033 0.0185,0.66675 0.11112,0.005 0.17462,0.005 0.41275,0 0.53182,-0.0608 0.0185,0.0556 0.0185,0.11641 0,0.0476 -0.0238,0.0688 -0.045,0.0397 -0.40481,0.0397 -0.3175,0 -0.39687,-0.005 -0.0714,-0.003 -0.0979,-0.037 -0.0238,-0.0344 -0.0238,-0.11377 0,-0.0423 0.003,-0.19579 0.003,-0.15346 0.003,-0.24606 z" />
    </g>
    <path
       d="m 146.64708,152.58696 h -0.58548 -0.58549 l 0.29274,-0.49824 0.29275,-0.49823 0.29274,0.49823 z"
       inkscape:transform-center-y="-0.16608166"
       inkscape:transform-center-x="9.9445262e-06"
       style="fill:#ffffff;fill-opacity:1;stroke:none;stroke-width:0.176;stroke-linecap:round;stroke-miterlimit:4;stroke-dasharray:none;stroke-opacity:1;paint-order:markers stroke fill"
       id="path3040" />
    <path
       d="m 147.14126,152.39998 a 2.1593168,2.1593168 0 0 1 1.00608,2.4289 2.1593168,2.1593168 0 0 1 -2.08574,1.60044 2.1593168,2.1593168 0 0 1 -2.08574,-1.60044 2.1593168,2.1593168 0 0 1 1.00608,-2.4289"
       style="fill:none;fill-opacity:1;stroke:#676767;stroke-width:0.276;stroke-linecap:round;stroke-miterlimit:4;stroke-dasharray:none;stroke-dashoffset:0;stroke-opacity:1;paint-order:fill markers stroke"
       id="circle4559" />
    <rect
       inkscape:export-ydpi="96"
       inkscape:export-xdpi="96"
       inkscape:export-filename="D:\Calcatz\Icon Pack\Adventure Narative Inspired by Arrival\GUI\Navigation Buttons\Playstation\Dark\png\64px\lstick_up.png"
       style="fill:#cccccc;fill-opacity:1;stroke-width:0.283452;stroke-linecap:round;paint-order:fill markers stroke"
       id="rect836"
       width="16.933332"
       height="16.933332"
       x="151.75948"
       y="150.03667" />
    <g
       transform="matrix(2,0,0,2,-131.89706,-150.03667)"
       aria-label="L"
       id="g840"
       style="font-weight:bold;font-size:2.64583px;line-height:1.05;font-family:'Overlock SC';-inkscape-font-specification:'Overlock SC Bold';text-align:end;text-anchor:end;fill:#ffffff;fill-opacity:1;stroke:#ffffff;stroke-width:0.905997;stroke-linecap:round;stroke-miterlimit:4;stroke-dasharray:none;stroke-opacity:1;paint-order:markers stroke fill">
      <path
         d="m 145.59989,154.55576 v -0.54769 q 0,-0.37306 -0.0185,-0.61383 0.045,-0.008 0.10848,-0.008 0.12964,0 0.12964,0.10054 0,0.0159 -0.005,0.10848 -0.005,0.09 -0.0106,0.22754 -0.005,0.13494 -0.005,0.25665 v 0.23812 q 0,0.55033 0.0185,0.66675 0.11112,0.005 0.17462,0.005 0.41275,0 0.53182,-0.0608 0.0185,0.0556 0.0185,0.11641 0,0.0476 -0.0238,0.0688 -0.045,0.0397 -0.40481,0.0397 -0.3175,0 -0.39687,-0.005 -0.0714,-0.003 -0.0979,-0.037 -0.0238,-0.0344 -0.0238,-0.11377 0,-0.0423 0.003,-0.19579 0.003,-0.15346 0.003,-0.24606 z"
         style="font-size:2.64583px;fill:#ffffff;fill-opacity:1;stroke:none;stroke-width:0.905997"
         id="path838" />
    </g>
    <path
       id="path842"
       style="fill:#ffffff;fill-opacity:1;stroke:none;stroke-width:0.352;stroke-linecap:round;stroke-miterlimit:4;stroke-dasharray:none;stroke-opacity:1;paint-order:markers stroke fill"
       inkscape:transform-center-x="2.4181045e-05"
       inkscape:transform-center-y="-0.33216645"
       d="m 161.3971,155.13725 h -1.17096 -1.17098 l 0.58548,-0.99648 0.5855,-0.99646 0.58548,0.99646 z" />
    <path
       id="path844"
       style="fill:none;fill-opacity:1;stroke:#676767;stroke-width:0.552;stroke-linecap:round;stroke-miterlimit:4;stroke-dasharray:none;stroke-dashoffset:0;stroke-opacity:1;paint-order:fill markers stroke"
       d="m 162.38546,154.76329 a 4.3186336,4.3186336 0 0 1 2.01216,4.8578 4.3186336,4.3186336 0 0 1 -4.17148,3.20088 4.3186336,4.3186336 0 0 1 -4.17148,-3.20088 4.3186336,4.3186336 0 0 1 2.01216,-4.8578" />
    <rect
       inkscape:export-ydpi="96"
       inkscape:export-xdpi="96"
       inkscape:export-filename="D:\Calcatz\Icon Pack\Adventure Narative Inspired by Arrival\GUI\Navigation Buttons\Playstation\Dark\png\128px\lstick_up.png"
       y="150.03667"
       x="170.40892"
       height="33.866665"
       width="33.866665"
       id="rect1574"
       style="fill:#cccccc;fill-opacity:1;stroke-width:0.566904;stroke-linecap:round;paint-order:fill markers stroke" />
    <g
       style="font-weight:bold;font-size:2.64583px;line-height:1.05;font-family:'Overlock SC';-inkscape-font-specification:'Overlock SC Bold';text-align:end;text-anchor:end;fill:#ffffff;fill-opacity:1;stroke:#ffffff;stroke-width:0.905997;stroke-linecap:round;stroke-miterlimit:4;stroke-dasharray:none;stroke-opacity:1;paint-order:markers stroke fill"
       id="g1578"
       aria-label="L"
       transform="matrix(4,0,0,4,-396.90416,-450.11001)">
      <path
         id="path1576"
         style="font-size:2.64583px;fill:#ffffff;fill-opacity:1;stroke:none;stroke-width:0.905997"
         d="m 145.59989,154.55576 v -0.54769 q 0,-0.37306 -0.0185,-0.61383 0.045,-0.008 0.10848,-0.008 0.12964,0 0.12964,0.10054 0,0.0159 -0.005,0.10848 -0.005,0.09 -0.0106,0.22754 -0.005,0.13494 -0.005,0.25665 v 0.23812 q 0,0.55033 0.0185,0.66675 0.11112,0.005 0.17462,0.005 0.41275,0 0.53182,-0.0608 0.0185,0.0556 0.0185,0.11641 0,0.0476 -0.0238,0.0688 -0.045,0.0397 -0.40481,0.0397 -0.3175,0 -0.39687,-0.005 -0.0714,-0.003 -0.0979,-0.037 -0.0238,-0.0344 -0.0238,-0.11377 0,-0.0423 0.003,-0.19579 0.003,-0.15346 0.003,-0.24606 z" />
    </g>
    <path
       d="m 189.68416,160.23783 h -2.34192 -2.34196 l 1.17096,-1.99296 1.171,-1.99292 1.17096,1.99292 z"
       inkscape:transform-center-y="-0.66433603"
       inkscape:transform-center-x="4.8074004e-05"
       style="fill:#ffffff;fill-opacity:1;stroke:none;stroke-width:0.704;stroke-linecap:round;stroke-miterlimit:4;stroke-dasharray:none;stroke-opacity:1;paint-order:markers stroke fill"
       id="path1580" />
    <path
       d="m 191.66088,159.48991 a 8.6372672,8.6372672 0 0 1 4.02432,9.7156 8.6372672,8.6372672 0 0 1 -8.34296,6.40176 8.6372672,8.6372672 0 0 1 -8.34296,-6.40176 8.6372672,8.6372672 0 0 1 4.02432,-9.7156"
       style="fill:none;fill-opacity:1;stroke:#676767;stroke-width:1.104;stroke-linecap:round;stroke-miterlimit:4;stroke-dasharray:none;stroke-dashoffset:0;stroke-opacity:1;paint-order:fill markers stroke"
       id="path1582" />
    <rect
       inkscape:export-ydpi="96"
       inkscape:export-xdpi="96"
       inkscape:export-filename="D:\Calcatz\Icon Pack\Adventure Narative Inspired by Arrival\GUI\Navigation Buttons\Playstation\Dark\png\256px\lstick_up.png"
       style="fill:#cccccc;fill-opacity:1;stroke-width:1.13381;stroke-linecap:round;paint-order:fill markers stroke"
       id="rect1584"
       width="67.73333"
       height="67.73333"
       x="207.61168"
       y="150.03667" />
    <g
       transform="matrix(8,0,0,8,-927.01448,-1050.2567)"
       aria-label="L"
       id="g1588"
       style="font-weight:bold;font-size:2.64583px;line-height:1.05;font-family:'Overlock SC';-inkscape-font-specification:'Overlock SC Bold';text-align:end;text-anchor:end;fill:#ffffff;fill-opacity:1;stroke:#ffffff;stroke-width:0.905997;stroke-linecap:round;stroke-miterlimit:4;stroke-dasharray:none;stroke-opacity:1;paint-order:markers stroke fill">
      <path
         d="m 145.59989,154.55576 v -0.54769 q 0,-0.37306 -0.0185,-0.61383 0.045,-0.008 0.10848,-0.008 0.12964,0 0.12964,0.10054 0,0.0159 -0.005,0.10848 -0.005,0.09 -0.0106,0.22754 -0.005,0.13494 -0.005,0.25665 v 0.23812 q 0,0.55033 0.0185,0.66675 0.11112,0.005 0.17462,0.005 0.41275,0 0.53182,-0.0608 0.0185,0.0556 0.0185,0.11641 0,0.0476 -0.0238,0.0688 -0.045,0.0397 -0.40481,0.0397 -0.3175,0 -0.39687,-0.005 -0.0714,-0.003 -0.0979,-0.037 -0.0238,-0.0344 -0.0238,-0.11377 0,-0.0423 0.003,-0.19579 0.003,-0.15346 0.003,-0.24606 z"
         style="font-size:2.64583px;fill:#ffffff;fill-opacity:1;stroke:none;stroke-width:0.905997"
         id="path1586" />
    </g>
    <path
       id="path1590"
       style="fill:#ffffff;fill-opacity:1;stroke:none;stroke-width:1.408;stroke-linecap:round;stroke-miterlimit:4;stroke-dasharray:none;stroke-opacity:1;paint-order:markers stroke fill"
       inkscape:transform-center-x="9.707086e-05"
       inkscape:transform-center-y="-1.3286752"
       d="m 246.16216,170.43899 h -4.68384 -4.68392 l 2.34192,-3.98592 2.342,-3.98584 2.34192,3.98584 z" />
    <path
       id="path1592"
       style="fill:none;fill-opacity:1;stroke:#676767;stroke-width:2.208;stroke-linecap:round;stroke-miterlimit:4;stroke-dasharray:none;stroke-dashoffset:0;stroke-opacity:1;paint-order:fill markers stroke"
       d="m 250.1156,168.94315 a 17.274534,17.274534 0 0 1 8.04864,19.4312 17.274534,17.274534 0 0 1 -16.68592,12.80352 17.274534,17.274534 0 0 1 -16.68592,-12.80352 17.274534,17.274534 0 0 1 8.04864,-19.4312" />
  </g>
</svg>
