<?xml version="1.0" encoding="UTF-8" standalone="no"?>
<svg
   xmlns:dc="http://purl.org/dc/elements/1.1/"
   xmlns:cc="http://creativecommons.org/ns#"
   xmlns:rdf="http://www.w3.org/1999/02/22-rdf-syntax-ns#"
   xmlns:svg="http://www.w3.org/2000/svg"
   xmlns="http://www.w3.org/2000/svg"
   xmlns:sodipodi="http://sodipodi.sourceforge.net/DTD/sodipodi-0.dtd"
   xmlns:inkscape="http://www.inkscape.org/namespaces/inkscape"
   inkscape:export-ydpi="96"
   inkscape:export-xdpi="96"
   inkscape:export-filename="D:\Calcatz\Icon Pack\Adventure Narative Inspired by Arrival\GUI\Navigation Buttons\Playstation\Dark\png\lstick_leftright.png"
   sodipodi:docname="lstick_leftright.svg"
   inkscape:version="1.0 (4035a4fb49, 2020-05-01)"
   id="svg3629"
   version="1.1"
   viewBox="0 0 8.4666662 8.4666662"
   height="8.4666662mm"
   width="8.4666662mm">
  <defs
     id="defs3623" />
  <sodipodi:namedview
     inkscape:window-maximized="1"
     inkscape:window-y="-8"
     inkscape:window-x="-8"
     inkscape:window-height="705"
     inkscape:window-width="1366"
     fit-margin-bottom="0"
     fit-margin-right="0"
     fit-margin-left="0"
     fit-margin-top="0"
     showgrid="false"
     inkscape:document-rotation="0"
     inkscape:current-layer="layer1"
     inkscape:document-units="mm"
     inkscape:cy="153.92507"
     inkscape:cx="206.06447"
     inkscape:zoom="1.2339194"
     inkscape:pageshadow="2"
     inkscape:pageopacity="0.0"
     borderopacity="1.0"
     bordercolor="#666666"
     pagecolor="#ffffff"
     id="base" />
  <metadata
     id="metadata3626">
    <rdf:RDF>
      <cc:Work
         rdf:about="">
        <dc:format>image/svg+xml</dc:format>
        <dc:type
           rdf:resource="http://purl.org/dc/dcmitype/StillImage" />
        <dc:title />
      </cc:Work>
    </rdf:RDF>
  </metadata>
  <g
     transform="translate(-147.93776,-207.86006)"
     id="layer1"
     inkscape:groupmode="layer"
     inkscape:label="Layer 1">
    <rect
       y="207.86006"
       x="147.93776"
       height="8.4666662"
       width="8.4666662"
       id="rect835"
       style="fill:#cccccc;fill-opacity:1;stroke-width:0.153156;stroke-linecap:round;paint-order:fill markers stroke" />
    <g
       style="font-weight:bold;font-size:2.64583px;line-height:1.05;font-family:'Overlock SC';-inkscape-font-specification:'Overlock SC Bold';text-align:end;text-anchor:end;fill:#ffffff;fill-opacity:1;stroke:#ffffff;stroke-width:0.905997;stroke-linecap:round;stroke-miterlimit:4;stroke-dasharray:none;stroke-opacity:1;paint-order:markers stroke fill"
       id="text3090"
       aria-label="L">
      <path
         id="path4229"
         style="font-size:2.64583px;fill:#ffffff;fill-opacity:1;stroke:none;stroke-width:0.905997"
         d="m 151.70939,212.37915 v -0.54769 q 0,-0.37306 -0.0185,-0.61383 0.045,-0.008 0.10848,-0.008 0.12964,0 0.12964,0.10055 0,0.0159 -0.005,0.10847 -0.005,0.09 -0.0106,0.22755 -0.005,0.13493 -0.005,0.25664 v 0.23813 q 0,0.55033 0.0185,0.66675 0.11112,0.005 0.17462,0.005 0.41275,0 0.53181,-0.0609 0.0185,0.0556 0.0185,0.11642 0,0.0476 -0.0238,0.0688 -0.045,0.0397 -0.40481,0.0397 -0.3175,0 -0.39688,-0.005 -0.0714,-0.003 -0.0979,-0.037 -0.0238,-0.0344 -0.0238,-0.11378 0,-0.0423 0.003,-0.19579 0.003,-0.15345 0.003,-0.24606 z" />
    </g>
    <path
       d="m 150.56247,212.74393 v -0.65055 -0.65054 l -0.5536,0.32527 -0.55359,0.32527 0.55359,0.32528 z"
       inkscape:transform-center-y="-9.047805e-06"
       inkscape:transform-center-x="0.18452615"
       style="fill:#ffffff;fill-opacity:1;stroke:none;stroke-width:0.176;stroke-linecap:round;stroke-miterlimit:4;stroke-dasharray:none;stroke-opacity:1;paint-order:markers stroke fill"
       id="path3121" />
    <path
       d="m 153.69166,212.74393 v -0.65055 -0.65054 l 0.5536,0.32527 0.55359,0.32527 -0.55359,0.32528 z"
       inkscape:transform-center-y="-9.047805e-06"
       inkscape:transform-center-x="-0.18452673"
       style="fill:#ffffff;fill-opacity:1;stroke:none;stroke-width:0.176;stroke-linecap:round;stroke-miterlimit:4;stroke-dasharray:none;stroke-opacity:1;paint-order:markers stroke fill"
       id="path3123" />
    <path
       sodipodi:nodetypes="csccsc"
       d="m 150.30101,211.01374 c 0.48866,-0.84638 1.48488,-1.25903 2.4289,-1.00608 0.56797,0.15219 1.03184,0.52248 1.31127,1.00619 m -3.2e-4,2.15966 c -0.27946,0.48344 -0.74319,0.8535 -1.31094,1.00563 -0.94402,0.25295 -1.94024,-0.1597 -2.4289,-1.00608"
       style="fill:none;fill-opacity:1;stroke:#676767;stroke-width:0.276;stroke-linecap:round;stroke-miterlimit:4;stroke-dasharray:none;stroke-dashoffset:0;stroke-opacity:1;paint-order:fill markers stroke"
       id="path1559" />
    <rect
       inkscape:export-ydpi="96"
       inkscape:export-xdpi="96"
       inkscape:export-filename="D:\Calcatz\Icon Pack\Adventure Narative Inspired by Arrival\GUI\Navigation Buttons\Playstation\Dark\png\64px\lstick_leftright.png"
       style="fill:#cccccc;fill-opacity:1;stroke-width:0.306312;stroke-linecap:round;paint-order:fill markers stroke"
       id="rect837"
       width="16.933332"
       height="16.933332"
       x="158.47545"
       y="207.86006" />
    <g
       transform="matrix(2,0,0,2,-137.40006,-207.86006)"
       aria-label="L"
       id="g841"
       style="font-weight:bold;font-size:2.64583px;line-height:1.05;font-family:'Overlock SC';-inkscape-font-specification:'Overlock SC Bold';text-align:end;text-anchor:end;fill:#ffffff;fill-opacity:1;stroke:#ffffff;stroke-width:0.905997;stroke-linecap:round;stroke-miterlimit:4;stroke-dasharray:none;stroke-opacity:1;paint-order:markers stroke fill">
      <path
         d="m 151.70939,212.37915 v -0.54769 q 0,-0.37306 -0.0185,-0.61383 0.045,-0.008 0.10848,-0.008 0.12964,0 0.12964,0.10055 0,0.0159 -0.005,0.10847 -0.005,0.09 -0.0106,0.22755 -0.005,0.13493 -0.005,0.25664 v 0.23813 q 0,0.55033 0.0185,0.66675 0.11112,0.005 0.17462,0.005 0.41275,0 0.53181,-0.0609 0.0185,0.0556 0.0185,0.11642 0,0.0476 -0.0238,0.0688 -0.045,0.0397 -0.40481,0.0397 -0.3175,0 -0.39688,-0.005 -0.0714,-0.003 -0.0979,-0.037 -0.0238,-0.0344 -0.0238,-0.11378 0,-0.0423 0.003,-0.19579 0.003,-0.15345 0.003,-0.24606 z"
         style="font-size:2.64583px;fill:#ffffff;fill-opacity:1;stroke:none;stroke-width:0.905997"
         id="path839" />
    </g>
    <path
       id="path843"
       style="fill:#ffffff;fill-opacity:1;stroke:none;stroke-width:0.352;stroke-linecap:round;stroke-miterlimit:4;stroke-dasharray:none;stroke-opacity:1;paint-order:markers stroke fill"
       inkscape:transform-center-x="0.36905369"
       inkscape:transform-center-y="-1.6450102e-05"
       d="m 163.72487,217.6278 v -1.3011 -1.30108 l -1.1072,0.65054 -1.10718,0.65054 1.10718,0.65056 z" />
    <path
       id="path845"
       style="fill:#ffffff;fill-opacity:1;stroke:none;stroke-width:0.352;stroke-linecap:round;stroke-miterlimit:4;stroke-dasharray:none;stroke-opacity:1;paint-order:markers stroke fill"
       inkscape:transform-center-x="-0.36905207"
       inkscape:transform-center-y="-1.6450102e-05"
       d="m 169.98325,217.6278 v -1.3011 -1.30108 l 1.1072,0.65054 1.10718,0.65054 -1.10718,0.65056 z" />
    <path
       id="path847"
       style="fill:none;fill-opacity:1;stroke:#676767;stroke-width:0.552;stroke-linecap:round;stroke-miterlimit:4;stroke-dasharray:none;stroke-dashoffset:0;stroke-opacity:1;paint-order:fill markers stroke"
       d="m 163.20195,214.16742 c 0.97732,-1.69276 2.96976,-2.51806 4.8578,-2.01216 1.13594,0.30438 2.06368,1.04496 2.62254,2.01238 m -6.4e-4,4.31932 c -0.55892,0.96688 -1.48638,1.707 -2.62188,2.01126 -1.88804,0.5059 -3.88048,-0.3194 -4.8578,-2.01216"
       sodipodi:nodetypes="csccsc" />
    <rect
       inkscape:export-ydpi="96"
       inkscape:export-xdpi="96"
       inkscape:export-filename="D:\Calcatz\Icon Pack\Adventure Narative Inspired by Arrival\GUI\Navigation Buttons\Playstation\Dark\png\128px\lstick_leftright.png"
       y="207.86006"
       x="177.883"
       height="33.866665"
       width="33.866665"
       id="rect849"
       style="fill:#cccccc;fill-opacity:1;stroke-width:0.612624;stroke-linecap:round;paint-order:fill markers stroke" />
    <g
       style="font-weight:bold;font-size:2.64583px;line-height:1.05;font-family:'Overlock SC';-inkscape-font-specification:'Overlock SC Bold';text-align:end;text-anchor:end;fill:#ffffff;fill-opacity:1;stroke:#ffffff;stroke-width:0.905997;stroke-linecap:round;stroke-miterlimit:4;stroke-dasharray:none;stroke-opacity:1;paint-order:markers stroke fill"
       id="g853"
       aria-label="L"
       transform="matrix(4,0,0,4,-413.86802,-623.58018)">
      <path
         id="path851"
         style="font-size:2.64583px;fill:#ffffff;fill-opacity:1;stroke:none;stroke-width:0.905997"
         d="m 151.70939,212.37915 v -0.54769 q 0,-0.37306 -0.0185,-0.61383 0.045,-0.008 0.10848,-0.008 0.12964,0 0.12964,0.10055 0,0.0159 -0.005,0.10847 -0.005,0.09 -0.0106,0.22755 -0.005,0.13493 -0.005,0.25664 v 0.23813 q 0,0.55033 0.0185,0.66675 0.11112,0.005 0.17462,0.005 0.41275,0 0.53181,-0.0609 0.0185,0.0556 0.0185,0.11642 0,0.0476 -0.0238,0.0688 -0.045,0.0397 -0.40481,0.0397 -0.3175,0 -0.39688,-0.005 -0.0714,-0.003 -0.0979,-0.037 -0.0238,-0.0344 -0.0238,-0.11378 0,-0.0423 0.003,-0.19579 0.003,-0.15345 0.003,-0.24606 z" />
    </g>
    <path
       d="m 188.38184,227.39554 v -2.6022 -2.60216 l -2.2144,1.30108 -2.21436,1.30108 2.21436,1.30112 z"
       inkscape:transform-center-y="-3.1254696e-05"
       inkscape:transform-center-x="0.73811177"
       style="fill:#ffffff;fill-opacity:1;stroke:none;stroke-width:0.704;stroke-linecap:round;stroke-miterlimit:4;stroke-dasharray:none;stroke-opacity:1;paint-order:markers stroke fill"
       id="path855" />
    <path
       d="m 200.8986,227.39554 v -2.6022 -2.60216 l 2.2144,1.30108 2.21436,1.30108 -2.21436,1.30112 z"
       inkscape:transform-center-y="-3.1254696e-05"
       inkscape:transform-center-x="-0.73809975"
       style="fill:#ffffff;fill-opacity:1;stroke:none;stroke-width:0.704;stroke-linecap:round;stroke-miterlimit:4;stroke-dasharray:none;stroke-opacity:1;paint-order:markers stroke fill"
       id="path857" />
    <path
       sodipodi:nodetypes="csccsc"
       d="m 187.336,220.47478 c 1.95464,-3.38552 5.93952,-5.03612 9.7156,-4.02432 2.27188,0.60876 4.12736,2.08992 5.24508,4.02476 m -0.001,8.63864 c -1.11784,1.93376 -2.97276,3.414 -5.24376,4.02252 -3.77608,1.0118 -7.76096,-0.6388 -9.7156,-4.02432"
       style="fill:none;fill-opacity:1;stroke:#676767;stroke-width:1.104;stroke-linecap:round;stroke-miterlimit:4;stroke-dasharray:none;stroke-dashoffset:0;stroke-opacity:1;paint-order:fill markers stroke"
       id="path859" />
    <rect
       inkscape:export-ydpi="96"
       inkscape:export-xdpi="96"
       inkscape:export-filename="D:\Calcatz\Icon Pack\Adventure Narative Inspired by Arrival\GUI\Navigation Buttons\Playstation\Dark\png\256px\lstick_leftright.png"
       style="fill:#cccccc;fill-opacity:1;stroke-width:1.22525;stroke-linecap:round;paint-order:fill markers stroke;opacity:1"
       id="rect861"
       width="67.73333"
       height="67.73333"
       x="216.26509"
       y="207.86006" />
    <g
       transform="matrix(8,0,0,8,-967.23693,-1455.0204)"
       aria-label="L"
       id="g865"
       style="font-weight:bold;font-size:2.64583px;line-height:1.05;font-family:'Overlock SC';-inkscape-font-specification:'Overlock SC Bold';text-align:end;text-anchor:end;fill:#ffffff;fill-opacity:1;stroke:#ffffff;stroke-width:0.905997;stroke-linecap:round;stroke-miterlimit:4;stroke-dasharray:none;stroke-opacity:1;paint-order:markers stroke fill">
      <path
         d="m 151.70939,212.37915 v -0.54769 q 0,-0.37306 -0.0185,-0.61383 0.045,-0.008 0.10848,-0.008 0.12964,0 0.12964,0.10055 0,0.0159 -0.005,0.10847 -0.005,0.09 -0.0106,0.22755 -0.005,0.13493 -0.005,0.25664 v 0.23813 q 0,0.55033 0.0185,0.66675 0.11112,0.005 0.17462,0.005 0.41275,0 0.53181,-0.0609 0.0185,0.0556 0.0185,0.11642 0,0.0476 -0.0238,0.0688 -0.045,0.0397 -0.40481,0.0397 -0.3175,0 -0.39688,-0.005 -0.0714,-0.003 -0.0979,-0.037 -0.0238,-0.0344 -0.0238,-0.11378 0,-0.0423 0.003,-0.19579 0.003,-0.15345 0.003,-0.24606 z"
         style="font-size:2.64583px;fill:#ffffff;fill-opacity:1;stroke:none;stroke-width:0.905997"
         id="path863" />
    </g>
    <path
       id="path867"
       style="fill:#ffffff;fill-opacity:1;stroke:none;stroke-width:1.408;stroke-linecap:round;stroke-miterlimit:4;stroke-dasharray:none;stroke-opacity:1;paint-order:markers stroke fill"
       inkscape:transform-center-x="1.4762226"
       inkscape:transform-center-y="-6.0863884e-05"
       d="m 237.26279,246.93102 v -5.2044 -5.20432 l -4.4288,2.60216 -4.42872,2.60216 4.42872,2.60224 z" />
    <path
       id="path869"
       style="fill:#ffffff;fill-opacity:1;stroke:none;stroke-width:1.408;stroke-linecap:round;stroke-miterlimit:4;stroke-dasharray:none;stroke-opacity:1;paint-order:markers stroke fill"
       inkscape:transform-center-x="-1.4762004"
       inkscape:transform-center-y="-6.0863884e-05"
       d="m 262.29631,246.93102 v -5.2044 -5.20432 l 4.4288,2.60216 4.42872,2.60216 -4.42872,2.60224 z" />
    <path
       id="path871"
       style="fill:none;fill-opacity:1;stroke:#676767;stroke-width:2.208;stroke-linecap:round;stroke-miterlimit:4;stroke-dasharray:none;stroke-dashoffset:0;stroke-opacity:1;paint-order:fill markers stroke"
       d="m 235.17111,233.0895 c 3.90928,-6.77104 11.87904,-10.07224 19.4312,-8.04864 4.54376,1.21752 8.25472,4.17984 10.49016,8.04952 m -0.002,17.27728 c -2.23568,3.86752 -5.94552,6.828 -10.48752,8.04504 -7.55216,2.0236 -15.52192,-1.2776 -19.4312,-8.04864"
       sodipodi:nodetypes="csccsc" />
  </g>
</svg>
