<?xml version="1.0" encoding="UTF-8" standalone="no"?>
<svg
   xmlns:dc="http://purl.org/dc/elements/1.1/"
   xmlns:cc="http://creativecommons.org/ns#"
   xmlns:rdf="http://www.w3.org/1999/02/22-rdf-syntax-ns#"
   xmlns:svg="http://www.w3.org/2000/svg"
   xmlns="http://www.w3.org/2000/svg"
   xmlns:sodipodi="http://sodipodi.sourceforge.net/DTD/sodipodi-0.dtd"
   xmlns:inkscape="http://www.inkscape.org/namespaces/inkscape"
   inkscape:export-ydpi="96"
   inkscape:export-xdpi="96"
   inkscape:export-filename="D:\Calcatz\Icon Pack\Adventure Narative Inspired by Arrival\GUI\Navigation Buttons\Playstation\Dark\png\lstick_updown.png"
   sodipodi:docname="lstick_updown.svg"
   inkscape:version="1.0 (4035a4fb49, 2020-05-01)"
   id="svg3020"
   version="1.1"
   viewBox="0 0 8.4666662 8.4666662"
   height="8.4666662mm"
   width="8.4666662mm">
  <defs
     id="defs3014" />
  <sodipodi:namedview
     inkscape:window-maximized="1"
     inkscape:window-y="-8"
     inkscape:window-x="-8"
     inkscape:window-height="705"
     inkscape:window-width="1366"
     fit-margin-bottom="0"
     fit-margin-right="0"
     fit-margin-left="0"
     fit-margin-top="0"
     showgrid="false"
     inkscape:document-rotation="0"
     inkscape:current-layer="layer1"
     inkscape:document-units="mm"
     inkscape:cy="162.02449"
     inkscape:cx="195.83965"
     inkscape:zoom="0.87251276"
     inkscape:pageshadow="2"
     inkscape:pageopacity="0.0"
     borderopacity="1.0"
     bordercolor="#666666"
     pagecolor="#ffffff"
     id="base" />
  <metadata
     id="metadata3017">
    <rdf:RDF>
      <cc:Work
         rdf:about="">
        <dc:format>image/svg+xml</dc:format>
        <dc:type
           rdf:resource="http://purl.org/dc/dcmitype/StillImage" />
        <dc:title />
      </cc:Work>
    </rdf:RDF>
  </metadata>
  <g
     transform="translate(-176.32201,-188.14877)"
     id="layer1"
     inkscape:groupmode="layer"
     inkscape:label="Layer 1">
    <rect
       y="188.14877"
       x="176.32201"
       height="8.4666662"
       width="8.4666662"
       id="rect835"
       style="fill:#cccccc;stroke-width:0.115859;stroke-linecap:round;paint-order:fill markers stroke;fill-opacity:1" />
    <g
       style="font-weight:bold;font-size:2.64583px;line-height:1.05;font-family:'Overlock SC';-inkscape-font-specification:'Overlock SC Bold';text-align:end;text-anchor:end;fill:#ffffff;fill-opacity:1;stroke:#ffffff;stroke-width:0.905997;stroke-linecap:round;stroke-miterlimit:4;stroke-dasharray:none;stroke-opacity:1;paint-order:markers stroke fill"
       id="text3082"
       aria-label="L">
      <path
         id="path3620"
         style="font-size:2.64583px;fill:#ffffff;fill-opacity:1;stroke:none;stroke-width:0.905997"
         d="m 180.09363,192.66786 v -0.54768 q 0,-0.37307 -0.0185,-0.61384 0.045,-0.008 0.10848,-0.008 0.12965,0 0.12965,0.10054 0,0.0159 -0.005,0.10848 -0.005,0.09 -0.0106,0.22754 -0.005,0.13494 -0.005,0.25664 v 0.23813 q 0,0.55033 0.0185,0.66675 0.11113,0.005 0.17463,0.005 0.41275,0 0.53181,-0.0609 0.0185,0.0556 0.0185,0.11642 0,0.0476 -0.0238,0.0688 -0.045,0.0397 -0.40481,0.0397 -0.3175,0 -0.39688,-0.005 -0.0714,-0.003 -0.0979,-0.037 -0.0238,-0.0344 -0.0238,-0.11377 0,-0.0423 0.003,-0.1958 0.003,-0.15345 0.003,-0.24606 z" />
    </g>
    <path
       d="m 181.2059,193.97184 h -0.65054 -0.65054 l 0.32527,0.5536 0.32527,0.55359 0.32527,-0.55359 z"
       inkscape:transform-center-y="0.18452527"
       inkscape:transform-center-x="9.9297713e-06"
       style="fill:#ffffff;fill-opacity:1;stroke:none;stroke-width:0.176;stroke-linecap:round;stroke-miterlimit:4;stroke-dasharray:none;stroke-opacity:1;paint-order:markers stroke fill"
       id="path3086" />
    <path
       d="m 181.2059,190.84262 h -0.65054 -0.65054 l 0.32527,-0.5536 0.32527,-0.55359 0.32527,0.55359 z"
       inkscape:transform-center-y="-0.18452761"
       inkscape:transform-center-x="9.9297713e-06"
       style="fill:#ffffff;fill-opacity:1;stroke:none;stroke-width:0.176;stroke-linecap:round;stroke-miterlimit:4;stroke-dasharray:none;stroke-opacity:1;paint-order:markers stroke fill"
       id="path3112" />
    <path
       id="path1546"
       style="fill:none;fill-opacity:1;stroke:#676767;stroke-width:0.276;stroke-linecap:round;stroke-miterlimit:4;stroke-dasharray:none;stroke-dashoffset:0;stroke-opacity:1;paint-order:fill markers stroke"
       d="m 179.47569,194.25214 c -0.84638,-0.48866 -1.25903,-1.48488 -1.00608,-2.4289 0.15219,-0.56797 0.52248,-1.03184 1.00619,-1.31127 m 2.15966,3.3e-4 c 0.48344,0.27946 0.8535,0.74319 1.00563,1.31094 0.25295,0.94402 -0.1597,1.94024 -1.00608,2.4289"
       sodipodi:nodetypes="csccsc" />
    <rect
       inkscape:export-ydpi="96"
       inkscape:export-xdpi="96"
       inkscape:export-filename="D:\Calcatz\Icon Pack\Adventure Narative Inspired by Arrival\GUI\Navigation Buttons\Playstation\Dark\png\64px\lstick_updown.png"
       style="fill:#cccccc;fill-opacity:1;stroke-width:0.231718;stroke-linecap:round;paint-order:fill markers stroke"
       id="rect837"
       width="16.933332"
       height="16.933332"
       x="186.18556"
       y="188.14877" />
    <g
       transform="matrix(2,0,0,2,-166.45845,-188.14877)"
       aria-label="L"
       id="g841"
       style="font-weight:bold;font-size:2.64583px;line-height:1.05;font-family:'Overlock SC';-inkscape-font-specification:'Overlock SC Bold';text-align:end;text-anchor:end;fill:#ffffff;fill-opacity:1;stroke:#ffffff;stroke-width:0.905997;stroke-linecap:round;stroke-miterlimit:4;stroke-dasharray:none;stroke-opacity:1;paint-order:markers stroke fill">
      <path
         d="m 180.09363,192.66786 v -0.54768 q 0,-0.37307 -0.0185,-0.61384 0.045,-0.008 0.10848,-0.008 0.12965,0 0.12965,0.10054 0,0.0159 -0.005,0.10848 -0.005,0.09 -0.0106,0.22754 -0.005,0.13494 -0.005,0.25664 v 0.23813 q 0,0.55033 0.0185,0.66675 0.11113,0.005 0.17463,0.005 0.41275,0 0.53181,-0.0609 0.0185,0.0556 0.0185,0.11642 0,0.0476 -0.0238,0.0688 -0.045,0.0397 -0.40481,0.0397 -0.3175,0 -0.39688,-0.005 -0.0714,-0.003 -0.0979,-0.037 -0.0238,-0.0344 -0.0238,-0.11377 0,-0.0423 0.003,-0.1958 0.003,-0.15345 0.003,-0.24606 z"
         style="font-size:2.64583px;fill:#ffffff;fill-opacity:1;stroke:none;stroke-width:0.905997"
         id="path839" />
    </g>
    <path
       id="path843"
       style="fill:#ffffff;fill-opacity:1;stroke:none;stroke-width:0.352;stroke-linecap:round;stroke-miterlimit:4;stroke-dasharray:none;stroke-opacity:1;paint-order:markers stroke fill"
       inkscape:transform-center-x="1.7725754e-05"
       inkscape:transform-center-y="0.36905373"
       d="m 195.95336,199.79491 h -1.30108 -1.30108 l 0.65054,1.1072 0.65054,1.10718 0.65054,-1.10718 z" />
    <path
       id="path845"
       style="fill:#ffffff;fill-opacity:1;stroke:none;stroke-width:0.352;stroke-linecap:round;stroke-miterlimit:4;stroke-dasharray:none;stroke-opacity:1;paint-order:markers stroke fill"
       inkscape:transform-center-x="1.7725754e-05"
       inkscape:transform-center-y="-0.36905203"
       d="m 195.95336,193.53647 h -1.30108 -1.30108 l 0.65054,-1.1072 0.65054,-1.10718 0.65054,1.10718 z" />
    <path
       sodipodi:nodetypes="csccsc"
       d="m 192.49294,200.35551 c -1.69276,-0.97732 -2.51806,-2.96976 -2.01216,-4.8578 0.30438,-1.13594 1.04496,-2.06368 2.01238,-2.62254 m 4.31932,6.6e-4 c 0.96688,0.55892 1.707,1.48638 2.01126,2.62188 0.5059,1.88804 -0.3194,3.88048 -2.01216,4.8578"
       style="fill:none;fill-opacity:1;stroke:#676767;stroke-width:0.552;stroke-linecap:round;stroke-miterlimit:4;stroke-dasharray:none;stroke-dashoffset:0;stroke-opacity:1;paint-order:fill markers stroke"
       id="path847" />
    <rect
       inkscape:export-ydpi="96"
       inkscape:export-xdpi="96"
       inkscape:export-filename="D:\Calcatz\Icon Pack\Adventure Narative Inspired by Arrival\GUI\Navigation Buttons\Playstation\Dark\png\128px\lstick_updown.png"
       y="188.14877"
       x="205.26315"
       height="33.866665"
       width="33.866665"
       id="rect849"
       style="fill:#cccccc;fill-opacity:1;stroke-width:0.463436;stroke-linecap:round;paint-order:fill markers stroke" />
    <g
       style="font-weight:bold;font-size:2.64583px;line-height:1.05;font-family:'Overlock SC';-inkscape-font-specification:'Overlock SC Bold';text-align:end;text-anchor:end;fill:#ffffff;fill-opacity:1;stroke:#ffffff;stroke-width:0.905997;stroke-linecap:round;stroke-miterlimit:4;stroke-dasharray:none;stroke-opacity:1;paint-order:markers stroke fill"
       id="g853"
       aria-label="L"
       transform="matrix(4,0,0,4,-500.02489,-564.44631)">
      <path
         id="path851"
         style="font-size:2.64583px;fill:#ffffff;fill-opacity:1;stroke:none;stroke-width:0.905997"
         d="m 180.09363,192.66786 v -0.54768 q 0,-0.37307 -0.0185,-0.61384 0.045,-0.008 0.10848,-0.008 0.12965,0 0.12965,0.10054 0,0.0159 -0.005,0.10848 -0.005,0.09 -0.0106,0.22754 -0.005,0.13494 -0.005,0.25664 v 0.23813 q 0,0.55033 0.0185,0.66675 0.11113,0.005 0.17463,0.005 0.41275,0 0.53181,-0.0609 0.0185,0.0556 0.0185,0.11642 0,0.0476 -0.0238,0.0688 -0.045,0.0397 -0.40481,0.0397 -0.3175,0 -0.39688,-0.005 -0.0714,-0.003 -0.0979,-0.037 -0.0238,-0.0344 -0.0238,-0.11377 0,-0.0423 0.003,-0.1958 0.003,-0.15345 0.003,-0.24606 z" />
    </g>
    <path
       d="m 224.79873,211.44105 h -2.60216 -2.60216 l 1.30108,2.2144 1.30108,2.21436 1.30108,-2.21436 z"
       inkscape:transform-center-y="0.73811065"
       inkscape:transform-center-x="3.2375336e-05"
       style="fill:#ffffff;fill-opacity:1;stroke:none;stroke-width:0.704;stroke-linecap:round;stroke-miterlimit:4;stroke-dasharray:none;stroke-opacity:1;paint-order:markers stroke fill"
       id="path855" />
    <path
       d="m 224.79873,198.92417 h -2.60216 -2.60216 l 1.30108,-2.2144 1.30108,-2.21436 1.30108,2.21436 z"
       inkscape:transform-center-y="-0.73810087"
       inkscape:transform-center-x="3.2375336e-05"
       style="fill:#ffffff;fill-opacity:1;stroke:none;stroke-width:0.704;stroke-linecap:round;stroke-miterlimit:4;stroke-dasharray:none;stroke-opacity:1;paint-order:markers stroke fill"
       id="path857" />
    <path
       id="path859"
       style="fill:none;fill-opacity:1;stroke:#676767;stroke-width:1.104;stroke-linecap:round;stroke-miterlimit:4;stroke-dasharray:none;stroke-dashoffset:0;stroke-opacity:1;paint-order:fill markers stroke"
       d="m 217.87789,212.56225 c -3.38552,-1.95464 -5.03612,-5.93952 -4.02432,-9.7156 0.60876,-2.27188 2.08992,-4.12736 4.02476,-5.24508 m 8.63864,10e-4 c 1.93376,1.11784 3.414,2.97276 4.02252,5.24376 1.0118,3.77608 -0.6388,7.76096 -4.02432,9.7156"
       sodipodi:nodetypes="csccsc" />
    <rect
       inkscape:export-ydpi="96"
       inkscape:export-xdpi="96"
       inkscape:export-filename="D:\Calcatz\Icon Pack\Adventure Narative Inspired by Arrival\GUI\Navigation Buttons\Playstation\Dark\png\256px\lstick_updown.png"
       style="fill:#cccccc;fill-opacity:1;stroke-width:0.926872;stroke-linecap:round;paint-order:fill markers stroke"
       id="rect861"
       width="67.73333"
       height="67.73333"
       x="242.78755"
       y="188.14877" />
    <g
       transform="matrix(8,0,0,8,-1167.7885,-1317.0414)"
       aria-label="L"
       id="g865"
       style="font-weight:bold;font-size:2.64583px;line-height:1.05;font-family:'Overlock SC';-inkscape-font-specification:'Overlock SC Bold';text-align:end;text-anchor:end;fill:#ffffff;fill-opacity:1;stroke:#ffffff;stroke-width:0.905997;stroke-linecap:round;stroke-miterlimit:4;stroke-dasharray:none;stroke-opacity:1;paint-order:markers stroke fill">
      <path
         d="m 180.09363,192.66786 v -0.54768 q 0,-0.37307 -0.0185,-0.61384 0.045,-0.008 0.10848,-0.008 0.12965,0 0.12965,0.10054 0,0.0159 -0.005,0.10848 -0.005,0.09 -0.0106,0.22754 -0.005,0.13494 -0.005,0.25664 v 0.23813 q 0,0.55033 0.0185,0.66675 0.11113,0.005 0.17463,0.005 0.41275,0 0.53181,-0.0609 0.0185,0.0556 0.0185,0.11642 0,0.0476 -0.0238,0.0688 -0.045,0.0397 -0.40481,0.0397 -0.3175,0 -0.39688,-0.005 -0.0714,-0.003 -0.0979,-0.037 -0.0238,-0.0344 -0.0238,-0.11377 0,-0.0423 0.003,-0.1958 0.003,-0.15345 0.003,-0.24606 z"
         style="font-size:2.64583px;fill:#ffffff;fill-opacity:1;stroke:none;stroke-width:0.905997"
         id="path863" />
    </g>
    <path
       id="path867"
       style="fill:#ffffff;fill-opacity:1;stroke:none;stroke-width:1.408;stroke-linecap:round;stroke-miterlimit:4;stroke-dasharray:none;stroke-opacity:1;paint-order:markers stroke fill"
       inkscape:transform-center-x="6.2870789e-05"
       inkscape:transform-center-y="1.4762245"
       d="m 281.85871,234.73333 h -5.20432 -5.20432 l 2.60216,4.4288 2.60216,4.42872 2.60216,-4.42872 z" />
    <path
       id="path869"
       style="fill:#ffffff;fill-opacity:1;stroke:none;stroke-width:1.408;stroke-linecap:round;stroke-miterlimit:4;stroke-dasharray:none;stroke-opacity:1;paint-order:markers stroke fill"
       inkscape:transform-center-x="6.2870789e-05"
       inkscape:transform-center-y="-1.4761985"
       d="m 281.85871,209.69957 h -5.20432 -5.20432 l 2.60216,-4.4288 2.60216,-4.42872 2.60216,4.42872 z" />
    <path
       sodipodi:nodetypes="csccsc"
       d="m 268.01703,236.97573 c -6.77104,-3.90928 -10.07224,-11.87904 -8.04864,-19.4312 1.21752,-4.54376 4.17984,-8.25472 8.04952,-10.49016 m 17.27728,0.002 c 3.86752,2.23568 6.828,5.94552 8.04504,10.48752 2.0236,7.55216 -1.2776,15.52192 -8.04864,19.4312"
       style="fill:none;fill-opacity:1;stroke:#676767;stroke-width:2.208;stroke-linecap:round;stroke-miterlimit:4;stroke-dasharray:none;stroke-dashoffset:0;stroke-opacity:1;paint-order:fill markers stroke"
       id="path871" />
  </g>
</svg>
