<?xml version="1.0" encoding="UTF-8" standalone="no"?>
<svg
   xmlns:dc="http://purl.org/dc/elements/1.1/"
   xmlns:cc="http://creativecommons.org/ns#"
   xmlns:rdf="http://www.w3.org/1999/02/22-rdf-syntax-ns#"
   xmlns:svg="http://www.w3.org/2000/svg"
   xmlns="http://www.w3.org/2000/svg"
   xmlns:sodipodi="http://sodipodi.sourceforge.net/DTD/sodipodi-0.dtd"
   xmlns:inkscape="http://www.inkscape.org/namespaces/inkscape"
   inkscape:export-ydpi="96"
   inkscape:export-xdpi="96"
   inkscape:export-filename="D:\Calcatz\Icon Pack\Adventure Narative Inspired by Arrival\GUI\Navigation Buttons\Playstation\Dark\png\lstick_right.png"
   sodipodi:docname="lstick_right.svg"
   inkscape:version="1.0 (4035a4fb49, 2020-05-01)"
   id="svg6102"
   version="1.1"
   viewBox="0 0 8.4666662 8.4666662"
   height="8.4666662mm"
   width="8.4666662mm">
  <defs
     id="defs6096" />
  <sodipodi:namedview
     inkscape:window-maximized="1"
     inkscape:window-y="-8"
     inkscape:window-x="-8"
     inkscape:window-height="705"
     inkscape:window-width="1366"
     fit-margin-bottom="0"
     fit-margin-right="0"
     fit-margin-left="0"
     fit-margin-top="0"
     showgrid="false"
     inkscape:document-rotation="0"
     inkscape:current-layer="layer1"
     inkscape:document-units="mm"
     inkscape:cy="166.64134"
     inkscape:cx="285.16719"
     inkscape:zoom="1.7450255"
     inkscape:pageshadow="2"
     inkscape:pageopacity="0.0"
     borderopacity="1.0"
     bordercolor="#666666"
     pagecolor="#ffffff"
     id="base" />
  <metadata
     id="metadata6099">
    <rdf:RDF>
      <cc:Work
         rdf:about="">
        <dc:format>image/svg+xml</dc:format>
        <dc:type
           rdf:resource="http://purl.org/dc/dcmitype/StillImage" />
        <dc:title />
      </cc:Work>
    </rdf:RDF>
  </metadata>
  <g
     transform="translate(-126.64958,-160.55298)"
     id="layer1"
     inkscape:groupmode="layer"
     inkscape:label="Layer 1">
    <rect
       y="160.55298"
       x="126.64958"
       height="8.4666662"
       width="8.4666662"
       id="rect834"
       style="fill:#cccccc;fill-opacity:1;stroke-width:0.202696;stroke-linecap:round;paint-order:fill markers stroke" />
    <g
       style="font-weight:bold;font-size:2.64583px;line-height:1.05;font-family:'Overlock SC';-inkscape-font-specification:'Overlock SC Bold';text-align:end;text-anchor:end;fill:#ffffff;fill-opacity:1;stroke:#ffffff;stroke-width:0.905997;stroke-linecap:round;stroke-miterlimit:4;stroke-dasharray:none;stroke-opacity:1;paint-order:markers stroke fill"
       id="text3044"
       aria-label="L">
      <path
         id="path6698"
         style="font-size:2.64583px;fill:#ffffff;fill-opacity:1;stroke:none;stroke-width:0.905997"
         d="m 130.42121,165.07207 v -0.54769 q 0,-0.37306 -0.0185,-0.61383 0.045,-0.008 0.10848,-0.008 0.12964,0 0.12964,0.10054 0,0.0159 -0.005,0.10848 -0.005,0.09 -0.0106,0.22754 -0.005,0.13494 -0.005,0.25665 v 0.23812 q 0,0.55034 0.0185,0.66675 0.11112,0.005 0.17462,0.005 0.41275,0 0.53181,-0.0608 0.0185,0.0556 0.0185,0.11642 0,0.0476 -0.0238,0.0688 -0.045,0.0397 -0.40481,0.0397 -0.3175,0 -0.39687,-0.005 -0.0714,-0.003 -0.0979,-0.037 -0.0238,-0.0344 -0.0238,-0.11377 0,-0.0423 0.003,-0.19579 0.003,-0.15346 0.003,-0.24606 z" />
    </g>
    <path
       d="m 132.53866,165.43685 v -0.65054 -0.65054 l 0.5536,0.32527 0.55359,0.32527 -0.55359,0.32527 z"
       inkscape:transform-center-y="-8.8886874e-06"
       inkscape:transform-center-x="-0.18453202"
       style="fill:#ffffff;fill-opacity:1;stroke:none;stroke-width:0.176;stroke-linecap:round;stroke-miterlimit:4;stroke-dasharray:none;stroke-opacity:1;paint-order:markers stroke fill"
       id="path3048" />
    <path
       d="m 132.75303,165.86597 a 2.1593168,2.1593168 0 0 1 -2.42889,1.00609 2.1593168,2.1593168 0 0 1 -1.60045,-2.08574 2.1593168,2.1593168 0 0 1 1.60045,-2.08574 2.1593168,2.1593168 0 0 1 2.42889,1.00608"
       style="fill:none;fill-opacity:1;stroke:#676767;stroke-width:0.276;stroke-linecap:round;stroke-miterlimit:4;stroke-dasharray:none;stroke-dashoffset:0;stroke-opacity:1;paint-order:fill markers stroke"
       id="path4563" />
    <rect
       inkscape:export-ydpi="96"
       inkscape:export-xdpi="96"
       inkscape:export-filename="D:\Calcatz\Icon Pack\Adventure Narative Inspired by Arrival\GUI\Navigation Buttons\Playstation\Dark\png\64px\lstick_right.png"
       style="fill:#cccccc;fill-opacity:1;stroke-width:0.405392;stroke-linecap:round;paint-order:fill markers stroke"
       id="rect836"
       width="16.933332"
       height="16.933332"
       x="136.31544"
       y="160.55298" />
    <g
       transform="matrix(2,0,0,2,-116.98371,-160.55298)"
       aria-label="L"
       id="g840"
       style="font-weight:bold;font-size:2.64583px;line-height:1.05;font-family:'Overlock SC';-inkscape-font-specification:'Overlock SC Bold';text-align:end;text-anchor:end;fill:#ffffff;fill-opacity:1;stroke:#ffffff;stroke-width:0.905997;stroke-linecap:round;stroke-miterlimit:4;stroke-dasharray:none;stroke-opacity:1;paint-order:markers stroke fill">
      <path
         d="m 130.42121,165.07207 v -0.54769 q 0,-0.37306 -0.0185,-0.61383 0.045,-0.008 0.10848,-0.008 0.12964,0 0.12964,0.10054 0,0.0159 -0.005,0.10848 -0.005,0.09 -0.0106,0.22754 -0.005,0.13494 -0.005,0.25665 v 0.23812 q 0,0.55034 0.0185,0.66675 0.11112,0.005 0.17462,0.005 0.41275,0 0.53181,-0.0608 0.0185,0.0556 0.0185,0.11642 0,0.0476 -0.0238,0.0688 -0.045,0.0397 -0.40481,0.0397 -0.3175,0 -0.39687,-0.005 -0.0714,-0.003 -0.0979,-0.037 -0.0238,-0.0344 -0.0238,-0.11377 0,-0.0423 0.003,-0.19579 0.003,-0.15346 0.003,-0.24606 z"
         style="font-size:2.64583px;fill:#ffffff;fill-opacity:1;stroke:none;stroke-width:0.905997"
         id="path838" />
    </g>
    <path
       id="path842"
       style="fill:#ffffff;fill-opacity:1;stroke:none;stroke-width:0.352;stroke-linecap:round;stroke-miterlimit:4;stroke-dasharray:none;stroke-opacity:1;paint-order:markers stroke fill"
       inkscape:transform-center-x="-0.36906899"
       inkscape:transform-center-y="-1.926175e-05"
       d="m 148.09362,170.32072 v -1.30108 -1.30108 l 1.1072,0.65054 1.10718,0.65054 -1.10718,0.65054 z" />
    <path
       id="path844"
       style="fill:none;fill-opacity:1;stroke:#676767;stroke-width:0.552;stroke-linecap:round;stroke-miterlimit:4;stroke-dasharray:none;stroke-dashoffset:0;stroke-opacity:1;paint-order:fill markers stroke"
       d="m 148.52236,171.17896 a 4.3186336,4.3186336 0 0 1 -4.85778,2.01218 4.3186336,4.3186336 0 0 1 -3.2009,-4.17148 4.3186336,4.3186336 0 0 1 3.2009,-4.17148 4.3186336,4.3186336 0 0 1 4.85778,2.01216" />
    <rect
       inkscape:export-ydpi="96"
       inkscape:export-xdpi="96"
       inkscape:export-filename="D:\Calcatz\Icon Pack\Adventure Narative Inspired by Arrival\GUI\Navigation Buttons\Playstation\Dark\png\128px\lstick_right.png"
       y="160.55298"
       x="155.19232"
       height="33.866665"
       width="33.866665"
       id="rect846"
       style="fill:#cccccc;fill-opacity:1;stroke-width:0.810784;stroke-linecap:round;paint-order:fill markers stroke" />
    <g
       style="font-weight:bold;font-size:2.64583px;line-height:1.05;font-family:'Overlock SC';-inkscape-font-specification:'Overlock SC Bold';text-align:end;text-anchor:end;fill:#ffffff;fill-opacity:1;stroke:#ffffff;stroke-width:0.905997;stroke-linecap:round;stroke-miterlimit:4;stroke-dasharray:none;stroke-opacity:1;paint-order:markers stroke fill"
       id="g850"
       aria-label="L"
       transform="matrix(4,0,0,4,-351.406,-481.65894)">
      <path
         id="path848"
         style="font-size:2.64583px;fill:#ffffff;fill-opacity:1;stroke:none;stroke-width:0.905997"
         d="m 130.42121,165.07207 v -0.54769 q 0,-0.37306 -0.0185,-0.61383 0.045,-0.008 0.10848,-0.008 0.12964,0 0.12964,0.10054 0,0.0159 -0.005,0.10848 -0.005,0.09 -0.0106,0.22754 -0.005,0.13494 -0.005,0.25665 v 0.23812 q 0,0.55034 0.0185,0.66675 0.11112,0.005 0.17462,0.005 0.41275,0 0.53181,-0.0608 0.0185,0.0556 0.0185,0.11642 0,0.0476 -0.0238,0.0688 -0.045,0.0397 -0.40481,0.0397 -0.3175,0 -0.39687,-0.005 -0.0714,-0.003 -0.0979,-0.037 -0.0238,-0.0344 -0.0238,-0.11377 0,-0.0423 0.003,-0.19579 0.003,-0.15346 0.003,-0.24606 z" />
    </g>
    <path
       d="m 178.74866,180.08846 v -2.60216 -2.60216 l 2.2144,1.30108 2.21436,1.30108 -2.21436,1.30108 z"
       inkscape:transform-center-y="-4.0007875e-05"
       inkscape:transform-center-x="-0.73813976"
       style="fill:#ffffff;fill-opacity:1;stroke:none;stroke-width:0.704;stroke-linecap:round;stroke-miterlimit:4;stroke-dasharray:none;stroke-opacity:1;paint-order:markers stroke fill"
       id="path852" />
    <path
       d="m 179.60614,181.80494 a 8.6372672,8.6372672 0 0 1 -9.71556,4.02436 8.6372672,8.6372672 0 0 1 -6.4018,-8.34296 8.6372672,8.6372672 0 0 1 6.4018,-8.34296 8.6372672,8.6372672 0 0 1 9.71556,4.02432"
       style="fill:none;fill-opacity:1;stroke:#676767;stroke-width:1.104;stroke-linecap:round;stroke-miterlimit:4;stroke-dasharray:none;stroke-dashoffset:0;stroke-opacity:1;paint-order:fill markers stroke"
       id="path854" />
    <rect
       inkscape:export-ydpi="96"
       inkscape:export-xdpi="96"
       inkscape:export-filename="D:\Calcatz\Icon Pack\Adventure Narative Inspired by Arrival\GUI\Navigation Buttons\Playstation\Dark\png\256px\lstick_right.png"
       style="fill:#cccccc;fill-opacity:1;stroke-width:1.62157;stroke-linecap:round;paint-order:fill markers stroke"
       id="rect856"
       width="67.73333"
       height="67.73333"
       x="191.58148"
       y="160.55298" />
    <g
       transform="matrix(8,0,0,8,-821.61518,-1123.8709)"
       aria-label="L"
       id="g860"
       style="font-weight:bold;font-size:2.64583px;line-height:1.05;font-family:'Overlock SC';-inkscape-font-specification:'Overlock SC Bold';text-align:end;text-anchor:end;fill:#ffffff;fill-opacity:1;stroke:#ffffff;stroke-width:0.905997;stroke-linecap:round;stroke-miterlimit:4;stroke-dasharray:none;stroke-opacity:1;paint-order:markers stroke fill">
      <path
         d="m 130.42121,165.07207 v -0.54769 q 0,-0.37306 -0.0185,-0.61383 0.045,-0.008 0.10848,-0.008 0.12964,0 0.12964,0.10054 0,0.0159 -0.005,0.10848 -0.005,0.09 -0.0106,0.22754 -0.005,0.13494 -0.005,0.25665 v 0.23812 q 0,0.55034 0.0185,0.66675 0.11112,0.005 0.17462,0.005 0.41275,0 0.53181,-0.0608 0.0185,0.0556 0.0185,0.11642 0,0.0476 -0.0238,0.0688 -0.045,0.0397 -0.40481,0.0397 -0.3175,0 -0.39687,-0.005 -0.0714,-0.003 -0.0979,-0.037 -0.0238,-0.0344 -0.0238,-0.11377 0,-0.0423 0.003,-0.19579 0.003,-0.15346 0.003,-0.24606 z"
         style="font-size:2.64583px;fill:#ffffff;fill-opacity:1;stroke:none;stroke-width:0.905997"
         id="path858" />
    </g>
    <path
       id="path862"
       style="fill:#ffffff;fill-opacity:1;stroke:none;stroke-width:1.408;stroke-linecap:round;stroke-miterlimit:4;stroke-dasharray:none;stroke-opacity:1;paint-order:markers stroke fill"
       inkscape:transform-center-x="-1.4762815"
       inkscape:transform-center-y="-8.1500125e-05"
       d="m 238.69414,199.62394 v -5.20432 -5.20432 l 4.4288,2.60216 4.42872,2.60216 -4.42872,2.60216 z" />
    <path
       id="path864"
       style="fill:none;fill-opacity:1;stroke:#676767;stroke-width:2.208;stroke-linecap:round;stroke-miterlimit:4;stroke-dasharray:none;stroke-dashoffset:0;stroke-opacity:1;paint-order:fill markers stroke"
       d="m 240.4091,203.0569 a 17.274534,17.274534 0 0 1 -19.43112,8.04872 17.274534,17.274534 0 0 1 -12.8036,-16.68592 17.274534,17.274534 0 0 1 12.8036,-16.68592 17.274534,17.274534 0 0 1 19.43112,8.04864" />
  </g>
</svg>
