<?xml version="1.0" encoding="UTF-8" standalone="no"?>
<svg
   xmlns:dc="http://purl.org/dc/elements/1.1/"
   xmlns:cc="http://creativecommons.org/ns#"
   xmlns:rdf="http://www.w3.org/1999/02/22-rdf-syntax-ns#"
   xmlns:svg="http://www.w3.org/2000/svg"
   xmlns="http://www.w3.org/2000/svg"
   xmlns:sodipodi="http://sodipodi.sourceforge.net/DTD/sodipodi-0.dtd"
   xmlns:inkscape="http://www.inkscape.org/namespaces/inkscape"
   inkscape:export-ydpi="96"
   inkscape:export-xdpi="96"
   inkscape:export-filename="D:\Calcatz\Icon Pack\Adventure Narative Inspired by Arrival\GUI\Navigation Buttons\Playstation\Dark\png\lstick_down.png"
   sodipodi:docname="lstick_down.svg"
   inkscape:version="1.0 (4035a4fb49, 2020-05-01)"
   id="svg2414"
   version="1.1"
   viewBox="0 0 8.4666662 8.4666662"
   height="8.4666662mm"
   width="8.4666662mm">
  <defs
     id="defs2408" />
  <sodipodi:namedview
     inkscape:window-maximized="1"
     inkscape:window-y="-8"
     inkscape:window-x="-8"
     inkscape:window-height="705"
     inkscape:window-width="1366"
     fit-margin-bottom="0"
     fit-margin-right="0"
     fit-margin-left="0"
     fit-margin-top="0"
     showgrid="false"
     inkscape:document-rotation="0"
     inkscape:current-layer="layer1"
     inkscape:document-units="mm"
     inkscape:cy="98.98812"
     inkscape:cx="367.02552"
     inkscape:zoom="1.2339194"
     inkscape:pageshadow="2"
     inkscape:pageopacity="0.0"
     borderopacity="1.0"
     bordercolor="#666666"
     pagecolor="#ffffff"
     id="base" />
  <metadata
     id="metadata2411">
    <rdf:RDF>
      <cc:Work
         rdf:about="">
        <dc:format>image/svg+xml</dc:format>
        <dc:type
           rdf:resource="http://purl.org/dc/dcmitype/StillImage" />
        <dc:title />
      </cc:Work>
    </rdf:RDF>
  </metadata>
  <g
     transform="translate(-167.64905,-125.07267)"
     id="layer1"
     inkscape:groupmode="layer"
     inkscape:label="Layer 1">
    <rect
       y="125.07267"
       x="167.64905"
       height="8.4666662"
       width="8.4666662"
       id="rect834"
       style="fill:#cccccc;fill-opacity:1;stroke-width:0.122281;stroke-linecap:round;paint-order:fill markers stroke" />
    <g
       style="font-weight:bold;font-size:2.64583px;line-height:1.05;font-family:'Overlock SC';-inkscape-font-specification:'Overlock SC Bold';text-align:end;text-anchor:end;fill:#ffffff;fill-opacity:1;stroke:#ffffff;stroke-width:0.905997;stroke-linecap:round;stroke-miterlimit:4;stroke-dasharray:none;stroke-opacity:1;paint-order:markers stroke fill"
       id="text3106"
       aria-label="L">
      <path
         id="path3010"
         style="font-size:2.64583px;fill:#ffffff;fill-opacity:1;stroke:none;stroke-width:0.905997"
         d="m 171.42068,129.59177 v -0.54769 q 0,-0.37306 -0.0185,-0.61383 0.045,-0.008 0.10847,-0.008 0.12965,0 0.12965,0.10054 0,0.0159 -0.005,0.10848 -0.005,0.09 -0.0106,0.22754 -0.005,0.13494 -0.005,0.25665 v 0.23812 q 0,0.55034 0.0185,0.66675 0.11113,0.005 0.17463,0.005 0.41275,0 0.53181,-0.0608 0.0185,0.0556 0.0185,0.11642 0,0.0476 -0.0238,0.0688 -0.045,0.0397 -0.40481,0.0397 -0.3175,0 -0.39688,-0.005 -0.0714,-0.003 -0.0979,-0.037 -0.0238,-0.0344 -0.0238,-0.11377 0,-0.0423 0.003,-0.19579 0.003,-0.15346 0.003,-0.24606 z" />
    </g>
    <path
       d="m 172.53291,130.89574 h -0.65054 -0.65054 l 0.32527,0.5536 0.32527,0.55359 0.32527,-0.55359 z"
       inkscape:transform-center-y="0.18452527"
       inkscape:transform-center-x="9.9297713e-06"
       style="fill:#ffffff;fill-opacity:1;stroke:none;stroke-width:0.176;stroke-linecap:round;stroke-miterlimit:4;stroke-dasharray:none;stroke-opacity:1;paint-order:markers stroke fill"
       id="path3110" />
    <path
       d="m 170.80273,131.17604 a -2.1593168,-2.1593168 0 0 1 -1.00608,-2.4289 -2.1593168,-2.1593168 0 0 1 2.08574,-1.60044 -2.1593168,-2.1593168 0 0 1 2.08574,1.60044 -2.1593168,-2.1593168 0 0 1 -1.00609,2.4289"
       style="fill:none;fill-opacity:1;stroke:#676767;stroke-width:0.276;stroke-linecap:round;stroke-miterlimit:4;stroke-dasharray:none;stroke-dashoffset:0;stroke-opacity:1;paint-order:fill markers stroke"
       id="path1542" />
    <rect
       inkscape:export-ydpi="96"
       inkscape:export-xdpi="96"
       inkscape:export-filename="D:\Calcatz\Icon Pack\Adventure Narative Inspired by Arrival\GUI\Navigation Buttons\Playstation\Dark\png\64px\lstick_down.png"
       style="fill:#cccccc;fill-opacity:1;stroke-width:0.244562;stroke-linecap:round;paint-order:fill markers stroke"
       id="rect836"
       width="16.933332"
       height="16.933332"
       x="177.58026"
       y="125.07267" />
    <g
       transform="matrix(2,0,0,2,-157.71785,-125.07267)"
       aria-label="L"
       id="g840"
       style="font-weight:bold;font-size:2.64583px;line-height:1.05;font-family:'Overlock SC';-inkscape-font-specification:'Overlock SC Bold';text-align:end;text-anchor:end;fill:#ffffff;fill-opacity:1;stroke:#ffffff;stroke-width:0.905997;stroke-linecap:round;stroke-miterlimit:4;stroke-dasharray:none;stroke-opacity:1;paint-order:markers stroke fill">
      <path
         d="m 171.42068,129.59177 v -0.54769 q 0,-0.37306 -0.0185,-0.61383 0.045,-0.008 0.10847,-0.008 0.12965,0 0.12965,0.10054 0,0.0159 -0.005,0.10848 -0.005,0.09 -0.0106,0.22754 -0.005,0.13494 -0.005,0.25665 v 0.23812 q 0,0.55034 0.0185,0.66675 0.11113,0.005 0.17463,0.005 0.41275,0 0.53181,-0.0608 0.0185,0.0556 0.0185,0.11642 0,0.0476 -0.0238,0.0688 -0.045,0.0397 -0.40481,0.0397 -0.3175,0 -0.39688,-0.005 -0.0714,-0.003 -0.0979,-0.037 -0.0238,-0.0344 -0.0238,-0.11377 0,-0.0423 0.003,-0.19579 0.003,-0.15346 0.003,-0.24606 z"
         style="font-size:2.64583px;fill:#ffffff;fill-opacity:1;stroke:none;stroke-width:0.905997"
         id="path838" />
    </g>
    <path
       id="path842"
       style="fill:#ffffff;fill-opacity:1;stroke:none;stroke-width:0.352;stroke-linecap:round;stroke-miterlimit:4;stroke-dasharray:none;stroke-opacity:1;paint-order:markers stroke fill"
       inkscape:transform-center-x="1.8629074e-05"
       inkscape:transform-center-y="0.36905052"
       d="m 187.34798,136.71881 h -1.30108 -1.30108 l 0.65054,1.1072 0.65054,1.10718 0.65054,-1.10718 z" />
    <path
       id="path844"
       style="fill:none;fill-opacity:1;stroke:#676767;stroke-width:0.552;stroke-linecap:round;stroke-miterlimit:4;stroke-dasharray:none;stroke-dashoffset:0;stroke-opacity:1;paint-order:fill markers stroke"
       d="m 183.88762,137.27941 a 4.3186336,4.3186336 0 0 1 -2.01216,-4.8578 4.3186336,4.3186336 0 0 1 4.17148,-3.20088 4.3186336,4.3186336 0 0 1 4.17148,3.20088 4.3186336,4.3186336 0 0 1 -2.01218,4.8578" />
    <rect
       inkscape:export-ydpi="96"
       inkscape:export-xdpi="96"
       inkscape:export-filename="D:\Calcatz\Icon Pack\Adventure Narative Inspired by Arrival\GUI\Navigation Buttons\Playstation\Dark\png\128px\lstick_down.png"
       y="125.07267"
       x="196.07808"
       height="33.866665"
       width="33.866665"
       id="rect846"
       style="fill:#cccccc;fill-opacity:1;stroke-width:0.489124;stroke-linecap:round;paint-order:fill markers stroke" />
    <g
       style="font-weight:bold;font-size:2.64583px;line-height:1.05;font-family:'Overlock SC';-inkscape-font-specification:'Overlock SC Bold';text-align:end;text-anchor:end;fill:#ffffff;fill-opacity:1;stroke:#ffffff;stroke-width:0.905997;stroke-linecap:round;stroke-miterlimit:4;stroke-dasharray:none;stroke-opacity:1;paint-order:markers stroke fill"
       id="g850"
       aria-label="L"
       transform="matrix(4,0,0,4,-474.51814,-375.21801)">
      <path
         id="path848"
         style="font-size:2.64583px;fill:#ffffff;fill-opacity:1;stroke:none;stroke-width:0.905997"
         d="m 171.42068,129.59177 v -0.54769 q 0,-0.37306 -0.0185,-0.61383 0.045,-0.008 0.10847,-0.008 0.12965,0 0.12965,0.10054 0,0.0159 -0.005,0.10848 -0.005,0.09 -0.0106,0.22754 -0.005,0.13494 -0.005,0.25665 v 0.23812 q 0,0.55034 0.0185,0.66675 0.11113,0.005 0.17463,0.005 0.41275,0 0.53181,-0.0608 0.0185,0.0556 0.0185,0.11642 0,0.0476 -0.0238,0.0688 -0.045,0.0397 -0.40481,0.0397 -0.3175,0 -0.39688,-0.005 -0.0714,-0.003 -0.0979,-0.037 -0.0238,-0.0344 -0.0238,-0.11377 0,-0.0423 0.003,-0.19579 0.003,-0.15346 0.003,-0.24606 z" />
    </g>
    <path
       d="m 215.61352,148.36495 h -2.60216 -2.60216 l 1.30108,2.2144 1.30108,2.21436 1.30108,-2.21436 z"
       inkscape:transform-center-y="0.73810102"
       inkscape:transform-center-x="3.8034515e-05"
       style="fill:#ffffff;fill-opacity:1;stroke:none;stroke-width:0.704;stroke-linecap:round;stroke-miterlimit:4;stroke-dasharray:none;stroke-opacity:1;paint-order:markers stroke fill"
       id="path852" />
    <path
       d="m 208.6928,149.48615 a 8.6372672,8.6372672 0 0 1 -4.02432,-9.7156 8.6372672,8.6372672 0 0 1 8.34296,-6.40176 8.6372672,8.6372672 0 0 1 8.34296,6.40176 8.6372672,8.6372672 0 0 1 -4.02436,9.7156"
       style="fill:none;fill-opacity:1;stroke:#676767;stroke-width:1.104;stroke-linecap:round;stroke-miterlimit:4;stroke-dasharray:none;stroke-dashoffset:0;stroke-opacity:1;paint-order:fill markers stroke"
       id="path854" />
    <rect
       inkscape:export-ydpi="96"
       inkscape:export-xdpi="96"
       inkscape:export-filename="D:\Calcatz\Icon Pack\Adventure Narative Inspired by Arrival\GUI\Navigation Buttons\Playstation\Dark\png\256px\lstick_down.png"
       style="fill:#cccccc;fill-opacity:1;stroke-width:0.978248;stroke-linecap:round;paint-order:fill markers stroke"
       id="rect856"
       width="67.73333"
       height="67.73333"
       x="233.64886"
       y="125.07267" />
    <g
       transform="matrix(8,0,0,8,-1107.5434,-875.50869)"
       aria-label="L"
       id="g860"
       style="font-weight:bold;font-size:2.64583px;line-height:1.05;font-family:'Overlock SC';-inkscape-font-specification:'Overlock SC Bold';text-align:end;text-anchor:end;fill:#ffffff;fill-opacity:1;stroke:#ffffff;stroke-width:0.905997;stroke-linecap:round;stroke-miterlimit:4;stroke-dasharray:none;stroke-opacity:1;paint-order:markers stroke fill">
      <path
         d="m 171.42068,129.59177 v -0.54769 q 0,-0.37306 -0.0185,-0.61383 0.045,-0.008 0.10847,-0.008 0.12965,0 0.12965,0.10054 0,0.0159 -0.005,0.10848 -0.005,0.09 -0.0106,0.22754 -0.005,0.13494 -0.005,0.25665 v 0.23812 q 0,0.55034 0.0185,0.66675 0.11113,0.005 0.17463,0.005 0.41275,0 0.53181,-0.0608 0.0185,0.0556 0.0185,0.11642 0,0.0476 -0.0238,0.0688 -0.045,0.0397 -0.40481,0.0397 -0.3175,0 -0.39688,-0.005 -0.0714,-0.003 -0.0979,-0.037 -0.0238,-0.0344 -0.0238,-0.11377 0,-0.0423 0.003,-0.19579 0.003,-0.15346 0.003,-0.24606 z"
         style="font-size:2.64583px;fill:#ffffff;fill-opacity:1;stroke:none;stroke-width:0.905997"
         id="path858" />
    </g>
    <path
       id="path862"
       style="fill:#ffffff;fill-opacity:1;stroke:none;stroke-width:1.408;stroke-linecap:round;stroke-miterlimit:4;stroke-dasharray:none;stroke-opacity:1;paint-order:markers stroke fill"
       inkscape:transform-center-x="7.1322936e-05"
       inkscape:transform-center-y="1.476202"
       d="m 272.7199,171.65723 h -5.20432 -5.20432 l 2.60216,4.4288 2.60216,4.42872 2.60216,-4.42872 z" />
    <path
       id="path864"
       style="fill:none;fill-opacity:1;stroke:#676767;stroke-width:2.208;stroke-linecap:round;stroke-miterlimit:4;stroke-dasharray:none;stroke-dashoffset:0;stroke-opacity:1;paint-order:fill markers stroke"
       d="m 258.87846,173.89963 a 17.274534,17.274534 0 0 1 -8.04864,-19.4312 17.274534,17.274534 0 0 1 16.68592,-12.80352 17.274534,17.274534 0 0 1 16.68592,12.80352 17.274534,17.274534 0 0 1 -8.04872,19.4312" />
  </g>
</svg>
