<?xml version="1.0" encoding="UTF-8" standalone="no"?>
<svg
   xmlns:dc="http://purl.org/dc/elements/1.1/"
   xmlns:cc="http://creativecommons.org/ns#"
   xmlns:rdf="http://www.w3.org/1999/02/22-rdf-syntax-ns#"
   xmlns:svg="http://www.w3.org/2000/svg"
   xmlns="http://www.w3.org/2000/svg"
   xmlns:sodipodi="http://sodipodi.sourceforge.net/DTD/sodipodi-0.dtd"
   xmlns:inkscape="http://www.inkscape.org/namespaces/inkscape"
   inkscape:export-ydpi="96"
   inkscape:export-xdpi="96"
   inkscape:export-filename="D:\Calcatz\Icon Pack\Adventure Narative Inspired by Arrival\GUI\Navigation Buttons\Playstation\Dark\png\option.png"
   sodipodi:docname="option.svg"
   inkscape:version="1.0 (4035a4fb49, 2020-05-01)"
   id="svg4882"
   version="1.1"
   viewBox="0 0 8.4666662 8.4666662"
   height="31.999998"
   width="31.999998">
  <defs
     id="defs4876" />
  <sodipodi:namedview
     inkscape:window-maximized="1"
     inkscape:window-y="-8"
     inkscape:window-x="-8"
     inkscape:window-height="705"
     inkscape:window-width="1366"
     fit-margin-bottom="0"
     fit-margin-right="0"
     fit-margin-left="0"
     fit-margin-top="0"
     showgrid="false"
     inkscape:document-rotation="0"
     inkscape:current-layer="layer1"
     inkscape:document-units="mm"
     inkscape:cy="129.60066"
     inkscape:cx="312.8697"
     inkscape:zoom="1.2339194"
     inkscape:pageshadow="2"
     inkscape:pageopacity="0.0"
     borderopacity="1.0"
     bordercolor="#666666"
     pagecolor="#ffffff"
     id="base"
     units="px" />
  <metadata
     id="metadata4879">
    <rdf:RDF>
      <cc:Work
         rdf:about="">
        <dc:format>image/svg+xml</dc:format>
        <dc:type
           rdf:resource="http://purl.org/dc/dcmitype/StillImage" />
        <dc:title />
      </cc:Work>
    </rdf:RDF>
  </metadata>
  <g
     transform="translate(-80.919403,-145.5724)"
     id="layer1"
     inkscape:groupmode="layer"
     inkscape:label="Layer 1">
    <rect
       y="145.5724"
       x="80.919403"
       height="8.4666662"
       width="8.4666662"
       id="rect833"
       style="fill:#cccccc;fill-opacity:1;stroke-width:0.186031;stroke-linecap:round;paint-order:fill markers stroke" />
    <path
       d="m 85.152743,147.97728 c 0.4987,0 0.90018,0.38115 0.90018,0.8546 v 1.94769 c 0,0.47345 -0.40148,0.8546 -0.90018,0.8546 -0.498699,0 -0.90018,-0.38115 -0.90018,-0.8546 v -1.94769 c 0,-0.47345 0.401481,-0.8546 0.90018,-0.8546 z"
       style="fill:none;fill-opacity:0.301961;stroke:#676767;stroke-width:0.276;stroke-linecap:round;stroke-miterlimit:4;stroke-dasharray:none;stroke-opacity:1;paint-order:markers stroke fill"
       id="rect4324" />
    <g
       style="font-weight:bold;font-size:1.85208px;line-height:1.05;font-family:'Overlock SC';-inkscape-font-specification:'Overlock SC Bold';text-align:end;text-anchor:end;fill:#ffffff;fill-opacity:1;stroke:none;stroke-width:0.276;stroke-linecap:round;stroke-miterlimit:4;stroke-dasharray:none;stroke-opacity:1;paint-order:markers stroke fill"
       id="text4332"
       aria-label="O">
      <path
         id="path5475"
         style="font-size:1.85208px;stroke-width:0.276"
         d="m 85.150879,150.43821 q -0.259292,0 -0.413014,-0.17224 -0.153723,-0.17224 -0.153723,-0.45932 0,-0.29077 0.153723,-0.46116 0.153722,-0.17225 0.413014,-0.17225 0.261143,0 0.414866,0.17225 0.155574,0.17039 0.155574,0.46116 0,0.28708 -0.155574,0.45932 -0.153723,0.17224 -0.414866,0.17224 z m 0.414866,-0.59822 q 0,-0.10371 -0.02408,-0.19817 -0.02223,-0.0945 -0.06853,-0.17595 -0.0463,-0.0815 -0.129646,-0.12964 -0.08334,-0.05 -0.190764,-0.05 -0.190765,0 -0.303741,0.1315 -0.112977,0.12964 -0.112977,0.33152 0,0.10927 0.02223,0.20743 0.02408,0.0982 0.07038,0.18336 0.0463,0.0852 0.127793,0.1352 0.08334,0.05 0.192617,0.05 0.200024,0 0.307445,-0.13335 0.109273,-0.1352 0.109273,-0.3519 z" />
    </g>
    <rect
       inkscape:export-ydpi="96"
       inkscape:export-xdpi="96"
       inkscape:export-filename="D:\Calcatz\Icon Pack\Adventure Narative Inspired by Arrival\GUI\Navigation Buttons\Playstation\Dark\png\64px\option.png"
       style="fill:#cccccc;fill-opacity:1;stroke-width:0.372062;stroke-linecap:round;paint-order:fill markers stroke"
       id="rect835"
       width="16.933332"
       height="16.933332"
       x="90.547363"
       y="145.5724" />
    <path
       id="path837"
       style="fill:none;fill-opacity:0.301961;stroke:#676767;stroke-width:0.552;stroke-linecap:round;stroke-miterlimit:4;stroke-dasharray:none;stroke-opacity:1;paint-order:markers stroke fill"
       d="m 99.014049,150.38216 c 0.997401,0 1.800361,0.7623 1.800361,1.7092 v 3.89538 c 0,0.9469 -0.80296,1.7092 -1.800361,1.7092 -0.997398,0 -1.80036,-0.7623 -1.80036,-1.7092 v -3.89538 c 0,-0.9469 0.802962,-1.7092 1.80036,-1.7092 z" />
    <g
       transform="matrix(2,0,0,2,-71.291437,-145.5724)"
       aria-label="O"
       id="g841"
       style="font-weight:bold;font-size:1.85208px;line-height:1.05;font-family:'Overlock SC';-inkscape-font-specification:'Overlock SC Bold';text-align:end;text-anchor:end;fill:#ffffff;fill-opacity:1;stroke:none;stroke-width:0.276;stroke-linecap:round;stroke-miterlimit:4;stroke-dasharray:none;stroke-opacity:1;paint-order:markers stroke fill">
      <path
         d="m 85.150879,150.43821 q -0.259292,0 -0.413014,-0.17224 -0.153723,-0.17224 -0.153723,-0.45932 0,-0.29077 0.153723,-0.46116 0.153722,-0.17225 0.413014,-0.17225 0.261143,0 0.414866,0.17225 0.155574,0.17039 0.155574,0.46116 0,0.28708 -0.155574,0.45932 -0.153723,0.17224 -0.414866,0.17224 z m 0.414866,-0.59822 q 0,-0.10371 -0.02408,-0.19817 -0.02223,-0.0945 -0.06853,-0.17595 -0.0463,-0.0815 -0.129646,-0.12964 -0.08334,-0.05 -0.190764,-0.05 -0.190765,0 -0.303741,0.1315 -0.112977,0.12964 -0.112977,0.33152 0,0.10927 0.02223,0.20743 0.02408,0.0982 0.07038,0.18336 0.0463,0.0852 0.127793,0.1352 0.08334,0.05 0.192617,0.05 0.200024,0 0.307445,-0.13335 0.109273,-0.1352 0.109273,-0.3519 z"
         style="font-size:1.85208px;stroke-width:0.276"
         id="path839" />
    </g>
    <rect
       inkscape:export-ydpi="96"
       inkscape:export-xdpi="96"
       inkscape:export-filename="D:\Calcatz\Icon Pack\Adventure Narative Inspired by Arrival\GUI\Navigation Buttons\Playstation\Dark\png\128px\option.png"
       y="145.5724"
       x="109.27261"
       height="33.866665"
       width="33.866665"
       id="rect843"
       style="fill:#cccccc;fill-opacity:1;stroke-width:0.744124;stroke-linecap:round;paint-order:fill markers stroke" />
    <path
       d="m 126.20599,155.19192 c 1.9948,0 3.60072,1.5246 3.60072,3.4184 v 7.79076 c 0,1.8938 -1.60592,3.4184 -3.60072,3.4184 -1.9948,0 -3.60072,-1.5246 -3.60072,-3.4184 v -7.79076 c 0,-1.8938 1.60592,-3.4184 3.60072,-3.4184 z"
       style="fill:none;fill-opacity:0.301961;stroke:#676767;stroke-width:1.104;stroke-linecap:round;stroke-miterlimit:4;stroke-dasharray:none;stroke-opacity:1;paint-order:markers stroke fill"
       id="path845" />
    <g
       style="font-weight:bold;font-size:1.85208px;line-height:1.05;font-family:'Overlock SC';-inkscape-font-specification:'Overlock SC Bold';text-align:end;text-anchor:end;fill:#ffffff;fill-opacity:1;stroke:none;stroke-width:0.276;stroke-linecap:round;stroke-miterlimit:4;stroke-dasharray:none;stroke-opacity:1;paint-order:markers stroke fill"
       id="g849"
       aria-label="O"
       transform="matrix(4,0,0,4,-214.40498,-436.7172)">
      <path
         id="path847"
         style="font-size:1.85208px;stroke-width:0.276"
         d="m 85.150879,150.43821 q -0.259292,0 -0.413014,-0.17224 -0.153723,-0.17224 -0.153723,-0.45932 0,-0.29077 0.153723,-0.46116 0.153722,-0.17225 0.413014,-0.17225 0.261143,0 0.414866,0.17225 0.155574,0.17039 0.155574,0.46116 0,0.28708 -0.155574,0.45932 -0.153723,0.17224 -0.414866,0.17224 z m 0.414866,-0.59822 q 0,-0.10371 -0.02408,-0.19817 -0.02223,-0.0945 -0.06853,-0.17595 -0.0463,-0.0815 -0.129646,-0.12964 -0.08334,-0.05 -0.190764,-0.05 -0.190765,0 -0.303741,0.1315 -0.112977,0.12964 -0.112977,0.33152 0,0.10927 0.02223,0.20743 0.02408,0.0982 0.07038,0.18336 0.0463,0.0852 0.127793,0.1352 0.08334,0.05 0.192617,0.05 0.200024,0 0.307445,-0.13335 0.109273,-0.1352 0.109273,-0.3519 z" />
    </g>
    <rect
       inkscape:export-ydpi="96"
       inkscape:export-xdpi="96"
       inkscape:export-filename="D:\Calcatz\Icon Pack\Adventure Narative Inspired by Arrival\GUI\Navigation Buttons\Playstation\Dark\png\256px\option.png"
       style="fill:#cccccc;fill-opacity:1;stroke-width:1.48825;stroke-linecap:round;paint-order:fill markers stroke"
       id="rect851"
       width="67.73333"
       height="67.73333"
       x="146.34407"
       y="145.5724" />
    <path
       id="path853"
       style="fill:none;fill-opacity:0.301961;stroke:#676767;stroke-width:2.208;stroke-linecap:round;stroke-miterlimit:4;stroke-dasharray:none;stroke-opacity:1;paint-order:markers stroke fill"
       d="m 180.21081,164.81144 c 3.9896,0 7.20144,3.0492 7.20144,6.8368 v 15.58152 c 0,3.7876 -3.21184,6.8368 -7.20144,6.8368 -3.9896,0 -7.20144,-3.0492 -7.20144,-6.8368 v -15.58152 c 0,-3.7876 3.21184,-6.8368 7.20144,-6.8368 z" />
    <g
       transform="matrix(8,0,0,8,-501.01113,-1019.0068)"
       aria-label="O"
       id="g857"
       style="font-weight:bold;font-size:1.85208px;line-height:1.05;font-family:'Overlock SC';-inkscape-font-specification:'Overlock SC Bold';text-align:end;text-anchor:end;fill:#ffffff;fill-opacity:1;stroke:none;stroke-width:0.276;stroke-linecap:round;stroke-miterlimit:4;stroke-dasharray:none;stroke-opacity:1;paint-order:markers stroke fill">
      <path
         d="m 85.150879,150.43821 q -0.259292,0 -0.413014,-0.17224 -0.153723,-0.17224 -0.153723,-0.45932 0,-0.29077 0.153723,-0.46116 0.153722,-0.17225 0.413014,-0.17225 0.261143,0 0.414866,0.17225 0.155574,0.17039 0.155574,0.46116 0,0.28708 -0.155574,0.45932 -0.153723,0.17224 -0.414866,0.17224 z m 0.414866,-0.59822 q 0,-0.10371 -0.02408,-0.19817 -0.02223,-0.0945 -0.06853,-0.17595 -0.0463,-0.0815 -0.129646,-0.12964 -0.08334,-0.05 -0.190764,-0.05 -0.190765,0 -0.303741,0.1315 -0.112977,0.12964 -0.112977,0.33152 0,0.10927 0.02223,0.20743 0.02408,0.0982 0.07038,0.18336 0.0463,0.0852 0.127793,0.1352 0.08334,0.05 0.192617,0.05 0.200024,0 0.307445,-0.13335 0.109273,-0.1352 0.109273,-0.3519 z"
         style="font-size:1.85208px;stroke-width:0.276"
         id="path855" />
    </g>
  </g>
</svg>
