<?xml version="1.0" encoding="UTF-8" standalone="no"?>
<svg
   xmlns:dc="http://purl.org/dc/elements/1.1/"
   xmlns:cc="http://creativecommons.org/ns#"
   xmlns:rdf="http://www.w3.org/1999/02/22-rdf-syntax-ns#"
   xmlns:svg="http://www.w3.org/2000/svg"
   xmlns="http://www.w3.org/2000/svg"
   xmlns:sodipodi="http://sodipodi.sourceforge.net/DTD/sodipodi-0.dtd"
   xmlns:inkscape="http://www.inkscape.org/namespaces/inkscape"
   inkscape:export-ydpi="96"
   inkscape:export-xdpi="96"
   inkscape:export-filename="D:\Calcatz\Icon Pack\Adventure Narative Inspired by Arrival\GUI\Navigation Buttons\Playstation\Dark\png\r1.png"
   sodipodi:docname="r1.svg"
   inkscape:version="1.0 (4035a4fb49, 2020-05-01)"
   id="svg2414"
   version="1.1"
   viewBox="0 0 8.4666662 8.4666662"
   height="31.999998"
   width="31.999998">
  <defs
     id="defs2408" />
  <sodipodi:namedview
     inkscape:window-maximized="1"
     inkscape:window-y="-8"
     inkscape:window-x="-8"
     inkscape:window-height="705"
     inkscape:window-width="1366"
     fit-margin-bottom="0"
     fit-margin-right="0"
     fit-margin-left="0"
     fit-margin-top="0"
     showgrid="false"
     inkscape:document-rotation="0"
     inkscape:current-layer="layer1"
     inkscape:document-units="mm"
     inkscape:cy="133.97282"
     inkscape:cx="245.27882"
     inkscape:zoom="1.2339194"
     inkscape:pageshadow="2"
     inkscape:pageopacity="0.0"
     borderopacity="1.0"
     bordercolor="#666666"
     pagecolor="#ffffff"
     id="base"
     units="px" />
  <metadata
     id="metadata2411">
    <rdf:RDF>
      <cc:Work
         rdf:about="">
        <dc:format>image/svg+xml</dc:format>
        <dc:type
           rdf:resource="http://purl.org/dc/dcmitype/StillImage" />
        <dc:title />
      </cc:Work>
    </rdf:RDF>
  </metadata>
  <g
     transform="translate(-98.265335,-126.64958)"
     id="layer1"
     inkscape:groupmode="layer"
     inkscape:label="Layer 1">
    <rect
       inkscape:export-ydpi="96"
       inkscape:export-xdpi="96"
       inkscape:export-filename="D:\Calcatz\Icon Pack\Adventure Narative Inspired by Arrival\GUI\Navigation Buttons\Playstation\Dark\png\256px\r1.png"
       style="fill:#cccccc;fill-opacity:1;stroke-width:1.12102;stroke-linecap:round;paint-order:fill markers stroke"
       id="rect861"
       width="67.73333"
       height="67.73333"
       x="162.01839"
       y="126.64958" />
    <path
       id="path863"
       style="fill:none;fill-opacity:1;stroke:#676767;stroke-width:2.208;stroke-linecap:round;stroke-miterlimit:4;stroke-dasharray:none;stroke-opacity:1;paint-order:markers stroke fill"
       d="m 187.88919,148.90862 c -5.1028,0 -9.2092,4.1196 -9.2092,9.23896 v 13.97624 h 34.41024 v -13.97624 c 0,-5.11936 -4.10624,-9.23896 -9.2092,-9.23896 z"
       sodipodi:nodetypes="ssccsss" />
    <g
       transform="matrix(8,0,0,8,-624.10417,-886.54706)"
       aria-label="R"
       id="g867"
       style="font-weight:bold;font-size:2.11667px;line-height:1.05;font-family:'Overlock SC';-inkscape-font-specification:'Overlock SC Bold';text-align:end;text-anchor:end;fill:#ffffff;fill-opacity:1;stroke:#ffffff;stroke-width:0.905998;stroke-linecap:round;stroke-miterlimit:4;stroke-dasharray:none;stroke-opacity:1;paint-order:markers stroke fill">
      <path
         d="m 102.33346,131.40679 q 0.055,0.0614 0.13547,0.0614 0.0254,0 0.0571,-0.006 0.0191,0.0381 0.0191,0.0635 0,0.0804 -0.15875,0.0804 -0.0402,0 -0.0804,-0.019 -0.0402,-0.0191 -0.0804,-0.0656 -0.0402,-0.0466 -0.0699,-0.0825 -0.0275,-0.036 -0.0699,-0.11218 -0.0402,-0.0762 -0.0571,-0.10795 -0.0169,-0.0339 -0.0572,-0.12065 -0.0402,-0.0889 -0.0466,-0.1016 -0.0593,-0.008 -0.0593,-0.0466 0,-0.019 0.0106,-0.0572 0.0593,0.0106 0.0995,0.0106 0.14182,0 0.22225,-0.0825 0.0804,-0.0847 0.0804,-0.2286 0,-0.16934 -0.0889,-0.23495 -0.0889,-0.0677 -0.27305,-0.0677 -0.0677,0 -0.1651,0.008 0.008,0.12277 0.008,0.4318 v 0.42545 q 0,0.28575 0.0402,0.4191 -0.0381,0.0169 -0.0995,0.0169 -0.0614,0 -0.0825,-0.0275 -0.0212,-0.0275 -0.0212,-0.0931 0,-0.0339 0.002,-0.16721 0.002,-0.13335 0.002,-0.20744 v -0.42333 q 0,-0.2921 -0.0275,-0.48683 0.15663,-0.0254 0.31538,-0.0254 0.56727,0 0.56727,0.42121 0,0.17357 -0.0953,0.28152 -0.0952,0.10583 -0.25189,0.13547 0,0.002 0.036,0.0783 0.036,0.0762 0.0487,0.1016 0.0148,0.0254 0.0444,0.0825 0.0296,0.0572 0.0508,0.091 0.0233,0.0339 0.0444,0.055 z"
         style="font-size:2.11667px;fill:#ffffff;fill-opacity:1;stroke:none;stroke-width:0.905998"
         id="path865" />
    </g>
    <g
       transform="matrix(8,0,0,8,-624.10417,-886.54706)"
       aria-label="1"
       id="g871"
       style="font-weight:bold;font-size:2.64583px;line-height:1.05;font-family:'Overlock SC';-inkscape-font-specification:'Overlock SC Bold';text-align:end;text-anchor:end;fill:#ffffff;fill-opacity:1;stroke:#ffffff;stroke-width:0.905998;stroke-linecap:round;stroke-miterlimit:4;stroke-dasharray:none;stroke-opacity:1;paint-order:markers stroke fill">
      <path
         d="m 103.19091,131.44999 q 0.10054,0 0.22225,-0.0106 0.0106,0.0317 0.0106,0.0582 0,0.10054 -0.10318,0.10054 -0.0159,0 -0.13229,-0.003 -0.11642,-0.003 -0.23019,-0.003 -0.14817,0 -0.23019,0.003 -0.0132,-0.0397 -0.0132,-0.0635 0,-0.09 0.15346,-0.09 h 0.127 q 0,-0.0344 0.003,-0.20373 0.003,-0.16933 0.003,-0.30691 0,-0.23284 -0.008,-0.43127 -0.2196,0.0265 -0.27516,0.037 -0.005,-0.0265 -0.005,-0.045 0,-0.0979 0.10318,-0.11377 0.254,-0.0423 0.27252,-0.0423 0.0397,0 0.0714,0.0238 0.0344,0.0238 0.0344,0.0767 0,0.0159 -0.005,0.10054 -0.005,0.0847 -0.0106,0.21431 -0.005,0.12965 -0.005,0.25135 v 0.09 q 0,0.24077 0.0185,0.35719 z"
         style="font-size:2.64583px;fill:#ffffff;fill-opacity:1;stroke:none;stroke-width:0.905998"
         id="path869" />
    </g>
    <rect
       y="126.64958"
       x="98.265335"
       height="8.4666662"
       width="8.4666662"
       id="rect835"
       style="fill:#cccccc;fill-opacity:1;stroke-width:0.140128;stroke-linecap:round;paint-order:fill markers stroke" />
    <path
       sodipodi:nodetypes="ssccsss"
       d="m 101.49917,129.43196 c -0.63785,0 -1.15115,0.51495 -1.15115,1.15487 v 1.74703 h 4.30128 v -1.74703 c 0,-0.63992 -0.51328,-1.15487 -1.15115,-1.15487 z"
       style="fill:none;fill-opacity:1;stroke:#676767;stroke-width:0.276;stroke-linecap:round;stroke-miterlimit:4;stroke-dasharray:none;stroke-opacity:1;paint-order:markers stroke fill"
       id="rect3819" />
    <g
       style="font-weight:bold;font-size:2.11667px;line-height:1.05;font-family:'Overlock SC';-inkscape-font-specification:'Overlock SC Bold';text-align:end;text-anchor:end;fill:#ffffff;fill-opacity:1;stroke:#ffffff;stroke-width:0.905998;stroke-linecap:round;stroke-miterlimit:4;stroke-dasharray:none;stroke-opacity:1;paint-order:markers stroke fill"
       id="text3832"
       aria-label="R">
      <path
         id="path3019"
         style="font-size:2.11667px;fill:#ffffff;fill-opacity:1;stroke:none;stroke-width:0.905998"
         d="m 102.33346,131.40679 q 0.055,0.0614 0.13547,0.0614 0.0254,0 0.0571,-0.006 0.0191,0.0381 0.0191,0.0635 0,0.0804 -0.15875,0.0804 -0.0402,0 -0.0804,-0.019 -0.0402,-0.0191 -0.0804,-0.0656 -0.0402,-0.0466 -0.0699,-0.0825 -0.0275,-0.036 -0.0699,-0.11218 -0.0402,-0.0762 -0.0571,-0.10795 -0.0169,-0.0339 -0.0572,-0.12065 -0.0402,-0.0889 -0.0466,-0.1016 -0.0593,-0.008 -0.0593,-0.0466 0,-0.019 0.0106,-0.0572 0.0593,0.0106 0.0995,0.0106 0.14182,0 0.22225,-0.0825 0.0804,-0.0847 0.0804,-0.2286 0,-0.16934 -0.0889,-0.23495 -0.0889,-0.0677 -0.27305,-0.0677 -0.0677,0 -0.1651,0.008 0.008,0.12277 0.008,0.4318 v 0.42545 q 0,0.28575 0.0402,0.4191 -0.0381,0.0169 -0.0995,0.0169 -0.0614,0 -0.0825,-0.0275 -0.0212,-0.0275 -0.0212,-0.0931 0,-0.0339 0.002,-0.16721 0.002,-0.13335 0.002,-0.20744 v -0.42333 q 0,-0.2921 -0.0275,-0.48683 0.15663,-0.0254 0.31538,-0.0254 0.56727,0 0.56727,0.42121 0,0.17357 -0.0953,0.28152 -0.0952,0.10583 -0.25189,0.13547 0,0.002 0.036,0.0783 0.036,0.0762 0.0487,0.1016 0.0148,0.0254 0.0444,0.0825 0.0296,0.0572 0.0508,0.091 0.0233,0.0339 0.0444,0.055 z" />
    </g>
    <g
       style="font-weight:bold;font-size:2.64583px;line-height:1.05;font-family:'Overlock SC';-inkscape-font-specification:'Overlock SC Bold';text-align:end;text-anchor:end;fill:#ffffff;fill-opacity:1;stroke:#ffffff;stroke-width:0.905998;stroke-linecap:round;stroke-miterlimit:4;stroke-dasharray:none;stroke-opacity:1;paint-order:markers stroke fill"
       id="text3836"
       aria-label="1">
      <path
         id="path3022"
         style="font-size:2.64583px;fill:#ffffff;fill-opacity:1;stroke:none;stroke-width:0.905998"
         d="m 103.19091,131.44999 q 0.10054,0 0.22225,-0.0106 0.0106,0.0317 0.0106,0.0582 0,0.10054 -0.10318,0.10054 -0.0159,0 -0.13229,-0.003 -0.11642,-0.003 -0.23019,-0.003 -0.14817,0 -0.23019,0.003 -0.0132,-0.0397 -0.0132,-0.0635 0,-0.09 0.15346,-0.09 h 0.127 q 0,-0.0344 0.003,-0.20373 0.003,-0.16933 0.003,-0.30691 0,-0.23284 -0.008,-0.43127 -0.2196,0.0265 -0.27516,0.037 -0.005,-0.0265 -0.005,-0.045 0,-0.0979 0.10318,-0.11377 0.254,-0.0423 0.27252,-0.0423 0.0397,0 0.0714,0.0238 0.0344,0.0238 0.0344,0.0767 0,0.0159 -0.005,0.10054 -0.005,0.0847 -0.0106,0.21431 -0.005,0.12965 -0.005,0.25135 v 0.09 q 0,0.24077 0.0185,0.35719 z" />
    </g>
    <rect
       inkscape:export-ydpi="96"
       inkscape:export-xdpi="96"
       inkscape:export-filename="D:\Calcatz\Icon Pack\Adventure Narative Inspired by Arrival\GUI\Navigation Buttons\Playstation\Dark\png\64px\r1.png"
       style="fill:#cccccc;fill-opacity:1;stroke-width:0.280256;stroke-linecap:round;paint-order:fill markers stroke"
       id="rect837"
       width="16.933332"
       height="16.933332"
       x="107.51424"
       y="126.64958" />
    <path
       id="path839"
       style="fill:none;fill-opacity:1;stroke:#676767;stroke-width:0.552;stroke-linecap:round;stroke-miterlimit:4;stroke-dasharray:none;stroke-opacity:1;paint-order:markers stroke fill"
       d="m 113.98192,132.21434 c -1.2757,0 -2.3023,1.0299 -2.3023,2.30974 v 3.49406 h 8.60256 v -3.49406 c 0,-1.27984 -1.02656,-2.30974 -2.3023,-2.30974 z"
       sodipodi:nodetypes="ssccsss" />
    <g
       transform="matrix(2,0,0,2,-89.016417,-126.64958)"
       aria-label="R"
       id="g843"
       style="font-weight:bold;font-size:2.11667px;line-height:1.05;font-family:'Overlock SC';-inkscape-font-specification:'Overlock SC Bold';text-align:end;text-anchor:end;fill:#ffffff;fill-opacity:1;stroke:#ffffff;stroke-width:0.905998;stroke-linecap:round;stroke-miterlimit:4;stroke-dasharray:none;stroke-opacity:1;paint-order:markers stroke fill">
      <path
         d="m 102.33346,131.40679 q 0.055,0.0614 0.13547,0.0614 0.0254,0 0.0571,-0.006 0.0191,0.0381 0.0191,0.0635 0,0.0804 -0.15875,0.0804 -0.0402,0 -0.0804,-0.019 -0.0402,-0.0191 -0.0804,-0.0656 -0.0402,-0.0466 -0.0699,-0.0825 -0.0275,-0.036 -0.0699,-0.11218 -0.0402,-0.0762 -0.0571,-0.10795 -0.0169,-0.0339 -0.0572,-0.12065 -0.0402,-0.0889 -0.0466,-0.1016 -0.0593,-0.008 -0.0593,-0.0466 0,-0.019 0.0106,-0.0572 0.0593,0.0106 0.0995,0.0106 0.14182,0 0.22225,-0.0825 0.0804,-0.0847 0.0804,-0.2286 0,-0.16934 -0.0889,-0.23495 -0.0889,-0.0677 -0.27305,-0.0677 -0.0677,0 -0.1651,0.008 0.008,0.12277 0.008,0.4318 v 0.42545 q 0,0.28575 0.0402,0.4191 -0.0381,0.0169 -0.0995,0.0169 -0.0614,0 -0.0825,-0.0275 -0.0212,-0.0275 -0.0212,-0.0931 0,-0.0339 0.002,-0.16721 0.002,-0.13335 0.002,-0.20744 v -0.42333 q 0,-0.2921 -0.0275,-0.48683 0.15663,-0.0254 0.31538,-0.0254 0.56727,0 0.56727,0.42121 0,0.17357 -0.0953,0.28152 -0.0952,0.10583 -0.25189,0.13547 0,0.002 0.036,0.0783 0.036,0.0762 0.0487,0.1016 0.0148,0.0254 0.0444,0.0825 0.0296,0.0572 0.0508,0.091 0.0233,0.0339 0.0444,0.055 z"
         style="font-size:2.11667px;fill:#ffffff;fill-opacity:1;stroke:none;stroke-width:0.905998"
         id="path841" />
    </g>
    <g
       transform="matrix(2,0,0,2,-89.016417,-126.64958)"
       aria-label="1"
       id="g847"
       style="font-weight:bold;font-size:2.64583px;line-height:1.05;font-family:'Overlock SC';-inkscape-font-specification:'Overlock SC Bold';text-align:end;text-anchor:end;fill:#ffffff;fill-opacity:1;stroke:#ffffff;stroke-width:0.905998;stroke-linecap:round;stroke-miterlimit:4;stroke-dasharray:none;stroke-opacity:1;paint-order:markers stroke fill">
      <path
         d="m 103.19091,131.44999 q 0.10054,0 0.22225,-0.0106 0.0106,0.0317 0.0106,0.0582 0,0.10054 -0.10318,0.10054 -0.0159,0 -0.13229,-0.003 -0.11642,-0.003 -0.23019,-0.003 -0.14817,0 -0.23019,0.003 -0.0132,-0.0397 -0.0132,-0.0635 0,-0.09 0.15346,-0.09 h 0.127 q 0,-0.0344 0.003,-0.20373 0.003,-0.16933 0.003,-0.30691 0,-0.23284 -0.008,-0.43127 -0.2196,0.0265 -0.27516,0.037 -0.005,-0.0265 -0.005,-0.045 0,-0.0979 0.10318,-0.11377 0.254,-0.0423 0.27252,-0.0423 0.0397,0 0.0714,0.0238 0.0344,0.0238 0.0344,0.0767 0,0.0159 -0.005,0.10054 -0.005,0.0847 -0.0106,0.21431 -0.005,0.12965 -0.005,0.25135 v 0.09 q 0,0.24077 0.0185,0.35719 z"
         style="font-size:2.64583px;fill:#ffffff;fill-opacity:1;stroke:none;stroke-width:0.905998"
         id="path845" />
    </g>
    <rect
       inkscape:export-ydpi="96"
       inkscape:export-xdpi="96"
       inkscape:export-filename="D:\Calcatz\Icon Pack\Adventure Narative Inspired by Arrival\GUI\Navigation Buttons\Playstation\Dark\png\128px\r1.png"
       y="126.64958"
       x="126.03508"
       height="33.866665"
       width="33.866665"
       id="rect849"
       style="fill:#cccccc;fill-opacity:1;stroke-width:0.560512;stroke-linecap:round;paint-order:fill markers stroke" />
    <path
       sodipodi:nodetypes="ssccsss"
       d="m 138.97044,137.7791 c -2.5514,0 -4.6046,2.0598 -4.6046,4.61948 v 6.98812 h 17.20512 v -6.98812 c 0,-2.55968 -2.05312,-4.61948 -4.6046,-4.61948 z"
       style="fill:none;fill-opacity:1;stroke:#676767;stroke-width:1.104;stroke-linecap:round;stroke-miterlimit:4;stroke-dasharray:none;stroke-opacity:1;paint-order:markers stroke fill"
       id="path851" />
    <g
       style="font-weight:bold;font-size:2.11667px;line-height:1.05;font-family:'Overlock SC';-inkscape-font-specification:'Overlock SC Bold';text-align:end;text-anchor:end;fill:#ffffff;fill-opacity:1;stroke:#ffffff;stroke-width:0.905998;stroke-linecap:round;stroke-miterlimit:4;stroke-dasharray:none;stroke-opacity:1;paint-order:markers stroke fill"
       id="g855"
       aria-label="R"
       transform="matrix(4,0,0,4,-267.02624,-379.94874)">
      <path
         id="path853"
         style="font-size:2.11667px;fill:#ffffff;fill-opacity:1;stroke:none;stroke-width:0.905998"
         d="m 102.33346,131.40679 q 0.055,0.0614 0.13547,0.0614 0.0254,0 0.0571,-0.006 0.0191,0.0381 0.0191,0.0635 0,0.0804 -0.15875,0.0804 -0.0402,0 -0.0804,-0.019 -0.0402,-0.0191 -0.0804,-0.0656 -0.0402,-0.0466 -0.0699,-0.0825 -0.0275,-0.036 -0.0699,-0.11218 -0.0402,-0.0762 -0.0571,-0.10795 -0.0169,-0.0339 -0.0572,-0.12065 -0.0402,-0.0889 -0.0466,-0.1016 -0.0593,-0.008 -0.0593,-0.0466 0,-0.019 0.0106,-0.0572 0.0593,0.0106 0.0995,0.0106 0.14182,0 0.22225,-0.0825 0.0804,-0.0847 0.0804,-0.2286 0,-0.16934 -0.0889,-0.23495 -0.0889,-0.0677 -0.27305,-0.0677 -0.0677,0 -0.1651,0.008 0.008,0.12277 0.008,0.4318 v 0.42545 q 0,0.28575 0.0402,0.4191 -0.0381,0.0169 -0.0995,0.0169 -0.0614,0 -0.0825,-0.0275 -0.0212,-0.0275 -0.0212,-0.0931 0,-0.0339 0.002,-0.16721 0.002,-0.13335 0.002,-0.20744 v -0.42333 q 0,-0.2921 -0.0275,-0.48683 0.15663,-0.0254 0.31538,-0.0254 0.56727,0 0.56727,0.42121 0,0.17357 -0.0953,0.28152 -0.0952,0.10583 -0.25189,0.13547 0,0.002 0.036,0.0783 0.036,0.0762 0.0487,0.1016 0.0148,0.0254 0.0444,0.0825 0.0296,0.0572 0.0508,0.091 0.0233,0.0339 0.0444,0.055 z" />
    </g>
    <g
       style="font-weight:bold;font-size:2.64583px;line-height:1.05;font-family:'Overlock SC';-inkscape-font-specification:'Overlock SC Bold';text-align:end;text-anchor:end;fill:#ffffff;fill-opacity:1;stroke:#ffffff;stroke-width:0.905998;stroke-linecap:round;stroke-miterlimit:4;stroke-dasharray:none;stroke-opacity:1;paint-order:markers stroke fill"
       id="g859"
       aria-label="1"
       transform="matrix(4,0,0,4,-267.02624,-379.94874)">
      <path
         id="path857"
         style="font-size:2.64583px;fill:#ffffff;fill-opacity:1;stroke:none;stroke-width:0.905998"
         d="m 103.19091,131.44999 q 0.10054,0 0.22225,-0.0106 0.0106,0.0317 0.0106,0.0582 0,0.10054 -0.10318,0.10054 -0.0159,0 -0.13229,-0.003 -0.11642,-0.003 -0.23019,-0.003 -0.14817,0 -0.23019,0.003 -0.0132,-0.0397 -0.0132,-0.0635 0,-0.09 0.15346,-0.09 h 0.127 q 0,-0.0344 0.003,-0.20373 0.003,-0.16933 0.003,-0.30691 0,-0.23284 -0.008,-0.43127 -0.2196,0.0265 -0.27516,0.037 -0.005,-0.0265 -0.005,-0.045 0,-0.0979 0.10318,-0.11377 0.254,-0.0423 0.27252,-0.0423 0.0397,0 0.0714,0.0238 0.0344,0.0238 0.0344,0.0767 0,0.0159 -0.005,0.10054 -0.005,0.0847 -0.0106,0.21431 -0.005,0.12965 -0.005,0.25135 v 0.09 q 0,0.24077 0.0185,0.35719 z" />
    </g>
  </g>
</svg>
