<?xml version="1.0" encoding="UTF-8" standalone="no"?>
<svg
   xmlns:dc="http://purl.org/dc/elements/1.1/"
   xmlns:cc="http://creativecommons.org/ns#"
   xmlns:rdf="http://www.w3.org/1999/02/22-rdf-syntax-ns#"
   xmlns:svg="http://www.w3.org/2000/svg"
   xmlns="http://www.w3.org/2000/svg"
   xmlns:sodipodi="http://sodipodi.sourceforge.net/DTD/sodipodi-0.dtd"
   xmlns:inkscape="http://www.inkscape.org/namespaces/inkscape"
   inkscape:export-ydpi="96"
   inkscape:export-xdpi="96"
   inkscape:export-filename="D:\Calcatz\Icon Pack\Adventure Narative Inspired by Arrival\GUI\Navigation Buttons\Playstation\Dark\png\r2.png"
   sodipodi:docname="r2.svg"
   inkscape:version="1.0 (4035a4fb49, 2020-05-01)"
   id="svg3031"
   version="1.1"
   viewBox="0 0 8.4666662 8.4666662"
   height="8.4666662mm"
   width="8.4666662mm">
  <defs
     id="defs3025" />
  <sodipodi:namedview
     inkscape:window-maximized="1"
     inkscape:window-y="-8"
     inkscape:window-x="-8"
     inkscape:window-height="705"
     inkscape:window-width="1366"
     fit-margin-bottom="0"
     fit-margin-right="0"
     fit-margin-left="0"
     fit-margin-top="0"
     showgrid="false"
     inkscape:document-rotation="0"
     inkscape:current-layer="layer1"
     inkscape:document-units="mm"
     inkscape:cy="213.56828"
     inkscape:cx="282.2815"
     inkscape:zoom="1.3000324"
     inkscape:pageshadow="2"
     inkscape:pageopacity="0.0"
     borderopacity="1.0"
     bordercolor="#666666"
     pagecolor="#ffffff"
     id="base" />
  <metadata
     id="metadata3028">
    <rdf:RDF>
      <cc:Work
         rdf:about="">
        <dc:format>image/svg+xml</dc:format>
        <dc:type
           rdf:resource="http://purl.org/dc/dcmitype/StillImage" />
        <dc:title />
      </cc:Work>
    </rdf:RDF>
  </metadata>
  <g
     transform="translate(-101.59999,-143.93333)"
     id="layer1"
     inkscape:groupmode="layer"
     inkscape:label="Layer 1">
    <rect
       y="143.93333"
       x="101.59999"
       height="8.4666662"
       width="8.4666662"
       id="rect835"
       style="fill:#cccccc;fill-opacity:1;stroke-width:0.131417;stroke-linecap:round;paint-order:fill markers stroke" />
    <g
       style="font-weight:bold;font-size:2.11667px;line-height:1.05;font-family:'Overlock SC';-inkscape-font-specification:'Overlock SC Bold';text-align:end;text-anchor:end;fill:#ffffff;fill-opacity:1;stroke:#ffffff;stroke-width:0.905998;stroke-linecap:round;stroke-miterlimit:4;stroke-dasharray:none;stroke-opacity:1;paint-order:markers stroke fill"
       id="text3852"
       aria-label="R">
      <path
         id="path3636"
         style="font-size:2.11667px;fill:#ffffff;fill-opacity:1;stroke:none;stroke-width:0.905998"
         d="m 105.51719,148.82646 q 0.055,0.0614 0.13547,0.0614 0.0254,0 0.0572,-0.006 0.019,0.0381 0.019,0.0635 0,0.0804 -0.15875,0.0804 -0.0402,0 -0.0804,-0.019 -0.0402,-0.019 -0.0804,-0.0656 -0.0402,-0.0466 -0.0699,-0.0825 -0.0275,-0.036 -0.0698,-0.11219 -0.0402,-0.0762 -0.0572,-0.10795 -0.0169,-0.0339 -0.0571,-0.12065 -0.0402,-0.0889 -0.0466,-0.1016 -0.0593,-0.008 -0.0593,-0.0466 0,-0.019 0.0106,-0.0572 0.0593,0.0106 0.0995,0.0106 0.14182,0 0.22225,-0.0825 0.0804,-0.0847 0.0804,-0.2286 0,-0.16933 -0.0889,-0.23495 -0.0889,-0.0677 -0.27305,-0.0677 -0.0677,0 -0.1651,0.008 0.008,0.12277 0.008,0.4318 v 0.42545 q 0,0.28575 0.0402,0.4191 -0.0381,0.0169 -0.0995,0.0169 -0.0614,0 -0.0825,-0.0275 -0.0212,-0.0275 -0.0212,-0.0931 0,-0.0339 0.002,-0.16722 0.002,-0.13335 0.002,-0.20743 v -0.42334 q 0,-0.2921 -0.0275,-0.48683 0.15663,-0.0254 0.31538,-0.0254 0.56727,0 0.56727,0.42122 0,0.17356 -0.0953,0.28151 -0.0952,0.10584 -0.25189,0.13547 0,0.002 0.036,0.0783 0.036,0.0762 0.0487,0.1016 0.0148,0.0254 0.0445,0.0825 0.0296,0.0572 0.0508,0.091 0.0233,0.0339 0.0444,0.055 z" />
    </g>
    <g
       style="font-weight:bold;font-size:2.64583px;line-height:1.05;font-family:'Overlock SC';-inkscape-font-specification:'Overlock SC Bold';text-align:end;text-anchor:end;fill:#ffffff;fill-opacity:1;stroke:#ffffff;stroke-width:0.905998;stroke-linecap:round;stroke-miterlimit:4;stroke-dasharray:none;stroke-opacity:1;paint-order:markers stroke fill"
       id="text3856"
       aria-label="2">
      <path
         id="path3639"
         style="font-size:2.64583px;fill:#ffffff;fill-opacity:1;stroke:none;stroke-width:0.905998"
         d="m 106.05154,148.85113 q 0.20637,0 0.5662,-0.0212 0.16934,-0.005 0.28046,-0.0344 0.0318,0.045 0.0318,0.0952 0,0.11112 -0.1905,0.11906 -0.20637,0.008 -0.43656,0.008 -0.17462,0 -0.381,-0.005 -0.12171,0 -0.12171,-0.11906 0,-0.0212 0.003,-0.0318 0.0423,-0.0291 0.18785,-0.11907 0.14552,-0.0926 0.21961,-0.14552 0.0741,-0.0556 0.17462,-0.14023 0.10319,-0.0847 0.14817,-0.16404 0.0476,-0.082 0.0476,-0.16139 0,-0.0979 -0.0741,-0.1614 -0.0714,-0.0635 -0.18785,-0.0635 -0.0847,0 -0.17728,0.0609 -0.0926,0.0609 -0.15081,0.15346 -0.0952,-0.0132 -0.0952,-0.082 0,-0.0926 0.14288,-0.18785 0.14287,-0.0952 0.3175,-0.0952 0.1905,0 0.30427,0.0926 0.11377,0.0926 0.11377,0.23813 0,0.18256 -0.17992,0.38893 -0.17992,0.20638 -0.54239,0.37571 z" />
    </g>
    <path
       d="m 105.36203,146.61869 c -1.30329,-3e-5 -1.36208,1.34829 -1.46399,3.09594 h 3.87059 c -0.10192,-1.74765 -1.09779,-3.09592 -2.4066,-3.09594 z"
       style="fill:none;fill-opacity:1;stroke:#676767;stroke-width:0.276;stroke-linecap:round;stroke-miterlimit:4;stroke-dasharray:none;stroke-opacity:1;paint-order:markers stroke fill"
       id="path4366"
       sodipodi:nodetypes="sccs" />
    <rect
       inkscape:export-ydpi="96"
       inkscape:export-xdpi="96"
       inkscape:export-filename="D:\Calcatz\Icon Pack\Adventure Narative Inspired by Arrival\GUI\Navigation Buttons\Playstation\Dark\png\64px\r2.png"
       style="fill:#cccccc;fill-opacity:1;stroke-width:0.262834;stroke-linecap:round;paint-order:fill markers stroke"
       id="rect837"
       width="16.933332"
       height="16.933332"
       x="110.95419"
       y="143.93333" />
    <g
       transform="matrix(2,0,0,2,-92.245792,-143.93333)"
       aria-label="R"
       id="g841"
       style="font-weight:bold;font-size:2.11667px;line-height:1.05;font-family:'Overlock SC';-inkscape-font-specification:'Overlock SC Bold';text-align:end;text-anchor:end;fill:#ffffff;fill-opacity:1;stroke:#ffffff;stroke-width:0.905998;stroke-linecap:round;stroke-miterlimit:4;stroke-dasharray:none;stroke-opacity:1;paint-order:markers stroke fill">
      <path
         d="m 105.51719,148.82646 q 0.055,0.0614 0.13547,0.0614 0.0254,0 0.0572,-0.006 0.019,0.0381 0.019,0.0635 0,0.0804 -0.15875,0.0804 -0.0402,0 -0.0804,-0.019 -0.0402,-0.019 -0.0804,-0.0656 -0.0402,-0.0466 -0.0699,-0.0825 -0.0275,-0.036 -0.0698,-0.11219 -0.0402,-0.0762 -0.0572,-0.10795 -0.0169,-0.0339 -0.0571,-0.12065 -0.0402,-0.0889 -0.0466,-0.1016 -0.0593,-0.008 -0.0593,-0.0466 0,-0.019 0.0106,-0.0572 0.0593,0.0106 0.0995,0.0106 0.14182,0 0.22225,-0.0825 0.0804,-0.0847 0.0804,-0.2286 0,-0.16933 -0.0889,-0.23495 -0.0889,-0.0677 -0.27305,-0.0677 -0.0677,0 -0.1651,0.008 0.008,0.12277 0.008,0.4318 v 0.42545 q 0,0.28575 0.0402,0.4191 -0.0381,0.0169 -0.0995,0.0169 -0.0614,0 -0.0825,-0.0275 -0.0212,-0.0275 -0.0212,-0.0931 0,-0.0339 0.002,-0.16722 0.002,-0.13335 0.002,-0.20743 v -0.42334 q 0,-0.2921 -0.0275,-0.48683 0.15663,-0.0254 0.31538,-0.0254 0.56727,0 0.56727,0.42122 0,0.17356 -0.0953,0.28151 -0.0952,0.10584 -0.25189,0.13547 0,0.002 0.036,0.0783 0.036,0.0762 0.0487,0.1016 0.0148,0.0254 0.0445,0.0825 0.0296,0.0572 0.0508,0.091 0.0233,0.0339 0.0444,0.055 z"
         style="font-size:2.11667px;fill:#ffffff;fill-opacity:1;stroke:none;stroke-width:0.905998"
         id="path839" />
    </g>
    <g
       transform="matrix(2,0,0,2,-92.245792,-143.93333)"
       aria-label="2"
       id="g845"
       style="font-weight:bold;font-size:2.64583px;line-height:1.05;font-family:'Overlock SC';-inkscape-font-specification:'Overlock SC Bold';text-align:end;text-anchor:end;fill:#ffffff;fill-opacity:1;stroke:#ffffff;stroke-width:0.905998;stroke-linecap:round;stroke-miterlimit:4;stroke-dasharray:none;stroke-opacity:1;paint-order:markers stroke fill">
      <path
         d="m 106.05154,148.85113 q 0.20637,0 0.5662,-0.0212 0.16934,-0.005 0.28046,-0.0344 0.0318,0.045 0.0318,0.0952 0,0.11112 -0.1905,0.11906 -0.20637,0.008 -0.43656,0.008 -0.17462,0 -0.381,-0.005 -0.12171,0 -0.12171,-0.11906 0,-0.0212 0.003,-0.0318 0.0423,-0.0291 0.18785,-0.11907 0.14552,-0.0926 0.21961,-0.14552 0.0741,-0.0556 0.17462,-0.14023 0.10319,-0.0847 0.14817,-0.16404 0.0476,-0.082 0.0476,-0.16139 0,-0.0979 -0.0741,-0.1614 -0.0714,-0.0635 -0.18785,-0.0635 -0.0847,0 -0.17728,0.0609 -0.0926,0.0609 -0.15081,0.15346 -0.0952,-0.0132 -0.0952,-0.082 0,-0.0926 0.14288,-0.18785 0.14287,-0.0952 0.3175,-0.0952 0.1905,0 0.30427,0.0926 0.11377,0.0926 0.11377,0.23813 0,0.18256 -0.17992,0.38893 -0.17992,0.20638 -0.54239,0.37571 z"
         style="font-size:2.64583px;fill:#ffffff;fill-opacity:1;stroke:none;stroke-width:0.905998"
         id="path843" />
    </g>
    <path
       sodipodi:nodetypes="sccs"
       id="path847"
       style="fill:none;fill-opacity:1;stroke:#676767;stroke-width:0.552;stroke-linecap:round;stroke-miterlimit:4;stroke-dasharray:none;stroke-opacity:1;paint-order:markers stroke fill"
       d="m 118.47827,149.30405 c -2.60658,-6e-5 -2.72416,2.69658 -2.92798,6.19188 h 7.74118 c -0.20384,-3.4953 -2.19558,-6.19184 -4.8132,-6.19188 z" />
    <rect
       inkscape:export-ydpi="96"
       inkscape:export-xdpi="96"
       inkscape:export-filename="D:\Calcatz\Icon Pack\Adventure Narative Inspired by Arrival\GUI\Navigation Buttons\Playstation\Dark\png\128px\r2.png"
       y="143.93333"
       x="128.96686"
       height="33.866665"
       width="33.866665"
       id="rect849"
       style="fill:#cccccc;fill-opacity:1;stroke-width:0.525668;stroke-linecap:round;paint-order:fill markers stroke" />
    <g
       style="font-weight:bold;font-size:2.11667px;line-height:1.05;font-family:'Overlock SC';-inkscape-font-specification:'Overlock SC Bold';text-align:end;text-anchor:end;fill:#ffffff;fill-opacity:1;stroke:#ffffff;stroke-width:0.905998;stroke-linecap:round;stroke-miterlimit:4;stroke-dasharray:none;stroke-opacity:1;paint-order:markers stroke fill"
       id="g853"
       aria-label="R"
       transform="matrix(4,0,0,4,-277.43311,-431.79999)">
      <path
         id="path851"
         style="font-size:2.11667px;fill:#ffffff;fill-opacity:1;stroke:none;stroke-width:0.905998"
         d="m 105.51719,148.82646 q 0.055,0.0614 0.13547,0.0614 0.0254,0 0.0572,-0.006 0.019,0.0381 0.019,0.0635 0,0.0804 -0.15875,0.0804 -0.0402,0 -0.0804,-0.019 -0.0402,-0.019 -0.0804,-0.0656 -0.0402,-0.0466 -0.0699,-0.0825 -0.0275,-0.036 -0.0698,-0.11219 -0.0402,-0.0762 -0.0572,-0.10795 -0.0169,-0.0339 -0.0571,-0.12065 -0.0402,-0.0889 -0.0466,-0.1016 -0.0593,-0.008 -0.0593,-0.0466 0,-0.019 0.0106,-0.0572 0.0593,0.0106 0.0995,0.0106 0.14182,0 0.22225,-0.0825 0.0804,-0.0847 0.0804,-0.2286 0,-0.16933 -0.0889,-0.23495 -0.0889,-0.0677 -0.27305,-0.0677 -0.0677,0 -0.1651,0.008 0.008,0.12277 0.008,0.4318 v 0.42545 q 0,0.28575 0.0402,0.4191 -0.0381,0.0169 -0.0995,0.0169 -0.0614,0 -0.0825,-0.0275 -0.0212,-0.0275 -0.0212,-0.0931 0,-0.0339 0.002,-0.16722 0.002,-0.13335 0.002,-0.20743 v -0.42334 q 0,-0.2921 -0.0275,-0.48683 0.15663,-0.0254 0.31538,-0.0254 0.56727,0 0.56727,0.42122 0,0.17356 -0.0953,0.28151 -0.0952,0.10584 -0.25189,0.13547 0,0.002 0.036,0.0783 0.036,0.0762 0.0487,0.1016 0.0148,0.0254 0.0445,0.0825 0.0296,0.0572 0.0508,0.091 0.0233,0.0339 0.0444,0.055 z" />
    </g>
    <g
       style="font-weight:bold;font-size:2.64583px;line-height:1.05;font-family:'Overlock SC';-inkscape-font-specification:'Overlock SC Bold';text-align:end;text-anchor:end;fill:#ffffff;fill-opacity:1;stroke:#ffffff;stroke-width:0.905998;stroke-linecap:round;stroke-miterlimit:4;stroke-dasharray:none;stroke-opacity:1;paint-order:markers stroke fill"
       id="g857"
       aria-label="2"
       transform="matrix(4,0,0,4,-277.43311,-431.79999)">
      <path
         id="path855"
         style="font-size:2.64583px;fill:#ffffff;fill-opacity:1;stroke:none;stroke-width:0.905998"
         d="m 106.05154,148.85113 q 0.20637,0 0.5662,-0.0212 0.16934,-0.005 0.28046,-0.0344 0.0318,0.045 0.0318,0.0952 0,0.11112 -0.1905,0.11906 -0.20637,0.008 -0.43656,0.008 -0.17462,0 -0.381,-0.005 -0.12171,0 -0.12171,-0.11906 0,-0.0212 0.003,-0.0318 0.0423,-0.0291 0.18785,-0.11907 0.14552,-0.0926 0.21961,-0.14552 0.0741,-0.0556 0.17462,-0.14023 0.10319,-0.0847 0.14817,-0.16404 0.0476,-0.082 0.0476,-0.16139 0,-0.0979 -0.0741,-0.1614 -0.0714,-0.0635 -0.18785,-0.0635 -0.0847,0 -0.17728,0.0609 -0.0926,0.0609 -0.15081,0.15346 -0.0952,-0.0132 -0.0952,-0.082 0,-0.0926 0.14288,-0.18785 0.14287,-0.0952 0.3175,-0.0952 0.1905,0 0.30427,0.0926 0.11377,0.0926 0.11377,0.23813 0,0.18256 -0.17992,0.38893 -0.17992,0.20638 -0.54239,0.37571 z" />
    </g>
    <path
       d="m 144.015,154.67477 c -5.21316,-1.2e-4 -5.44832,5.39316 -5.85596,12.38376 h 15.48236 c -0.40768,-6.9906 -4.39116,-12.38368 -9.6264,-12.38376 z"
       style="fill:none;fill-opacity:1;stroke:#676767;stroke-width:1.104;stroke-linecap:round;stroke-miterlimit:4;stroke-dasharray:none;stroke-opacity:1;paint-order:markers stroke fill"
       id="path859"
       sodipodi:nodetypes="sccs" />
    <rect
       inkscape:export-ydpi="96"
       inkscape:export-xdpi="96"
       inkscape:export-filename="D:\Calcatz\Icon Pack\Adventure Narative Inspired by Arrival\GUI\Navigation Buttons\Playstation\Dark\png\256px\r2.png"
       style="fill:#cccccc;fill-opacity:1;stroke-width:1.05134;stroke-linecap:round;paint-order:fill markers stroke"
       id="rect861"
       width="67.73333"
       height="67.73333"
       x="165.80408"
       y="143.93333" />
    <g
       transform="matrix(8,0,0,8,-646.99586,-1007.5333)"
       aria-label="R"
       id="g865"
       style="font-weight:bold;font-size:2.11667px;line-height:1.05;font-family:'Overlock SC';-inkscape-font-specification:'Overlock SC Bold';text-align:end;text-anchor:end;fill:#ffffff;fill-opacity:1;stroke:#ffffff;stroke-width:0.905998;stroke-linecap:round;stroke-miterlimit:4;stroke-dasharray:none;stroke-opacity:1;paint-order:markers stroke fill">
      <path
         d="m 105.51719,148.82646 q 0.055,0.0614 0.13547,0.0614 0.0254,0 0.0572,-0.006 0.019,0.0381 0.019,0.0635 0,0.0804 -0.15875,0.0804 -0.0402,0 -0.0804,-0.019 -0.0402,-0.019 -0.0804,-0.0656 -0.0402,-0.0466 -0.0699,-0.0825 -0.0275,-0.036 -0.0698,-0.11219 -0.0402,-0.0762 -0.0572,-0.10795 -0.0169,-0.0339 -0.0571,-0.12065 -0.0402,-0.0889 -0.0466,-0.1016 -0.0593,-0.008 -0.0593,-0.0466 0,-0.019 0.0106,-0.0572 0.0593,0.0106 0.0995,0.0106 0.14182,0 0.22225,-0.0825 0.0804,-0.0847 0.0804,-0.2286 0,-0.16933 -0.0889,-0.23495 -0.0889,-0.0677 -0.27305,-0.0677 -0.0677,0 -0.1651,0.008 0.008,0.12277 0.008,0.4318 v 0.42545 q 0,0.28575 0.0402,0.4191 -0.0381,0.0169 -0.0995,0.0169 -0.0614,0 -0.0825,-0.0275 -0.0212,-0.0275 -0.0212,-0.0931 0,-0.0339 0.002,-0.16722 0.002,-0.13335 0.002,-0.20743 v -0.42334 q 0,-0.2921 -0.0275,-0.48683 0.15663,-0.0254 0.31538,-0.0254 0.56727,0 0.56727,0.42122 0,0.17356 -0.0953,0.28151 -0.0952,0.10584 -0.25189,0.13547 0,0.002 0.036,0.0783 0.036,0.0762 0.0487,0.1016 0.0148,0.0254 0.0445,0.0825 0.0296,0.0572 0.0508,0.091 0.0233,0.0339 0.0444,0.055 z"
         style="font-size:2.11667px;fill:#ffffff;fill-opacity:1;stroke:none;stroke-width:0.905998"
         id="path863" />
    </g>
    <g
       transform="matrix(8,0,0,8,-646.99586,-1007.5333)"
       aria-label="2"
       id="g869"
       style="font-weight:bold;font-size:2.64583px;line-height:1.05;font-family:'Overlock SC';-inkscape-font-specification:'Overlock SC Bold';text-align:end;text-anchor:end;fill:#ffffff;fill-opacity:1;stroke:#ffffff;stroke-width:0.905998;stroke-linecap:round;stroke-miterlimit:4;stroke-dasharray:none;stroke-opacity:1;paint-order:markers stroke fill">
      <path
         d="m 106.05154,148.85113 q 0.20637,0 0.5662,-0.0212 0.16934,-0.005 0.28046,-0.0344 0.0318,0.045 0.0318,0.0952 0,0.11112 -0.1905,0.11906 -0.20637,0.008 -0.43656,0.008 -0.17462,0 -0.381,-0.005 -0.12171,0 -0.12171,-0.11906 0,-0.0212 0.003,-0.0318 0.0423,-0.0291 0.18785,-0.11907 0.14552,-0.0926 0.21961,-0.14552 0.0741,-0.0556 0.17462,-0.14023 0.10319,-0.0847 0.14817,-0.16404 0.0476,-0.082 0.0476,-0.16139 0,-0.0979 -0.0741,-0.1614 -0.0714,-0.0635 -0.18785,-0.0635 -0.0847,0 -0.17728,0.0609 -0.0926,0.0609 -0.15081,0.15346 -0.0952,-0.0132 -0.0952,-0.082 0,-0.0926 0.14288,-0.18785 0.14287,-0.0952 0.3175,-0.0952 0.1905,0 0.30427,0.0926 0.11377,0.0926 0.11377,0.23813 0,0.18256 -0.17992,0.38893 -0.17992,0.20638 -0.54239,0.37571 z"
         style="font-size:2.64583px;fill:#ffffff;fill-opacity:1;stroke:none;stroke-width:0.905998"
         id="path867" />
    </g>
    <path
       sodipodi:nodetypes="sccs"
       id="path871"
       style="fill:none;fill-opacity:1;stroke:#676767;stroke-width:2.208;stroke-linecap:round;stroke-miterlimit:4;stroke-dasharray:none;stroke-opacity:1;paint-order:markers stroke fill"
       d="m 195.90036,165.41621 c -10.42632,-2.4e-4 -10.89664,10.78632 -11.71192,24.76752 h 30.96472 c -0.81536,-13.9812 -8.78232,-24.76736 -19.2528,-24.76752 z" />
  </g>
</svg>
