<?xml version="1.0" encoding="UTF-8" standalone="no"?>
<svg
   xmlns:dc="http://purl.org/dc/elements/1.1/"
   xmlns:cc="http://creativecommons.org/ns#"
   xmlns:rdf="http://www.w3.org/1999/02/22-rdf-syntax-ns#"
   xmlns:svg="http://www.w3.org/2000/svg"
   xmlns="http://www.w3.org/2000/svg"
   xmlns:sodipodi="http://sodipodi.sourceforge.net/DTD/sodipodi-0.dtd"
   xmlns:inkscape="http://www.inkscape.org/namespaces/inkscape"
   inkscape:export-ydpi="96"
   inkscape:export-xdpi="96"
   inkscape:export-filename="D:\Calcatz\Icon Pack\Adventure Narative Inspired by Arrival\GUI\Navigation Buttons\Playstation\Dark\png\rstick_none.png"
   sodipodi:docname="rstick_none.svg"
   inkscape:version="1.0 (4035a4fb49, 2020-05-01)"
   id="svg4856"
   version="1.1"
   viewBox="0 0 8.4666662 8.4666662"
   height="31.999998"
   width="31.999998">
  <defs
     id="defs4850" />
  <sodipodi:namedview
     inkscape:window-maximized="1"
     inkscape:window-y="-8"
     inkscape:window-x="-8"
     inkscape:window-height="705"
     inkscape:window-width="1366"
     fit-margin-bottom="0"
     fit-margin-right="0"
     fit-margin-left="0"
     fit-margin-top="0"
     showgrid="false"
     inkscape:document-rotation="0"
     inkscape:current-layer="layer1"
     inkscape:document-units="mm"
     inkscape:cy="138.37692"
     inkscape:cx="433.06728"
     inkscape:zoom="0.87251276"
     inkscape:pageshadow="2"
     inkscape:pageopacity="0.0"
     borderopacity="1.0"
     bordercolor="#666666"
     pagecolor="#ffffff"
     id="base"
     units="px" />
  <metadata
     id="metadata4853">
    <rdf:RDF>
      <cc:Work
         rdf:about="">
        <dc:format>image/svg+xml</dc:format>
        <dc:type
           rdf:resource="http://purl.org/dc/dcmitype/StillImage" />
        <dc:title />
      </cc:Work>
    </rdf:RDF>
  </metadata>
  <g
     transform="translate(-189.72568,-171.59131)"
     id="layer1"
     inkscape:groupmode="layer"
     inkscape:label="Layer 1">
    <rect
       y="171.59131"
       x="189.72568"
       height="8.4666662"
       width="8.4666662"
       id="rect832"
       style="fill:#cccccc;fill-opacity:1;stroke-width:0.108298;stroke-linecap:round;paint-order:fill markers stroke" />
    <path
       d="m 194.30165,176.47947 q 0.0688,0.0767 0.16934,0.0767 0.0317,0 0.0714,-0.008 0.0238,0.0476 0.0238,0.0794 0,0.10054 -0.19844,0.10054 -0.0503,0 -0.10054,-0.0238 -0.0503,-0.0238 -0.10054,-0.082 -0.0503,-0.0582 -0.0873,-0.10319 -0.0344,-0.045 -0.0873,-0.14023 -0.0503,-0.0952 -0.0714,-0.13494 -0.0212,-0.0423 -0.0714,-0.15081 -0.0503,-0.11112 -0.0582,-0.127 -0.0741,-0.0106 -0.0741,-0.0582 0,-0.0238 0.0132,-0.0714 0.0741,0.0132 0.12435,0.0132 0.17727,0 0.27781,-0.10318 0.10054,-0.10584 0.10054,-0.28575 0,-0.21167 -0.11112,-0.29369 -0.11113,-0.0847 -0.34131,-0.0847 -0.0847,0 -0.20638,0.0106 0.0106,0.15345 0.0106,0.53975 v 0.53181 q 0,0.35718 0.0503,0.52387 -0.0476,0.0212 -0.12436,0.0212 -0.0767,0 -0.10319,-0.0344 -0.0265,-0.0344 -0.0265,-0.11641 0,-0.0423 0.003,-0.20902 0.003,-0.16669 0.003,-0.2593 v -0.52916 q 0,-0.36513 -0.0344,-0.60854 0.19579,-0.0318 0.39423,-0.0318 0.70908,0 0.70908,0.52652 0,0.21696 -0.11906,0.35189 -0.11906,0.13229 -0.31485,0.16934 0,0.003 0.045,0.0979 0.045,0.0952 0.0608,0.127 0.0185,0.0317 0.0556,0.10319 0.037,0.0714 0.0635,0.11377 0.0291,0.0423 0.0556,0.0688 z"
       style="font-weight:bold;font-size:2.64583px;line-height:1.05;font-family:'Overlock SC';-inkscape-font-specification:'Overlock SC Bold';text-align:end;text-anchor:end;fill:#ffffff;fill-opacity:1;stroke:none;stroke-width:0.905997;stroke-linecap:round;stroke-miterlimit:4;stroke-dasharray:none;stroke-opacity:1;paint-order:markers stroke fill"
       id="path5449" />
    <path
       d="m 196.11833,175.82465 a 2.1593168,2.1593168 0 0 1 -2.15932,2.15931 2.1593168,2.1593168 0 0 1 -2.15931,-2.15931 2.1593168,2.1593168 0 0 1 2.15931,-2.15932 2.1593168,2.1593168 0 0 1 2.15932,2.15932"
       style="fill:none;fill-opacity:1;stroke:#676767;stroke-width:0.276;stroke-linecap:round;stroke-miterlimit:4;stroke-dasharray:none;stroke-dashoffset:0;stroke-opacity:1;paint-order:fill markers stroke"
       id="circle1563" />
    <rect
       inkscape:export-ydpi="96"
       inkscape:export-xdpi="96"
       inkscape:export-filename="D:\Calcatz\Icon Pack\Adventure Narative Inspired by Arrival\GUI\Navigation Buttons\Playstation\Dark\png\64px\rstick_none.png"
       style="fill:#cccccc;fill-opacity:1;stroke-width:0.216596;stroke-linecap:round;paint-order:fill markers stroke"
       id="rect834"
       width="16.933332"
       height="16.933332"
       x="199.69644"
       y="171.59131" />
    <path
       id="path836"
       style="font-weight:bold;font-size:2.64583px;line-height:1.05;font-family:'Overlock SC';-inkscape-font-specification:'Overlock SC Bold';text-align:end;text-anchor:end;fill:#ffffff;fill-opacity:1;stroke:none;stroke-width:1.81199;stroke-linecap:round;stroke-miterlimit:4;stroke-dasharray:none;stroke-opacity:1;paint-order:markers stroke fill"
       d="m 208.8484,181.36763 q 0.1376,0.1534 0.33868,0.1534 0.0634,0 0.1428,-0.016 0.0476,0.0952 0.0476,0.1588 0,0.20108 -0.39688,0.20108 -0.1006,0 -0.20108,-0.0476 -0.1006,-0.0476 -0.20108,-0.164 -0.1006,-0.1164 -0.1746,-0.20638 -0.0688,-0.09 -0.1746,-0.28046 -0.1006,-0.1904 -0.1428,-0.26988 -0.0424,-0.0846 -0.1428,-0.30162 -0.1006,-0.22224 -0.1164,-0.254 -0.1482,-0.0212 -0.1482,-0.1164 0,-0.0476 0.0264,-0.1428 0.1482,0.0264 0.2487,0.0264 0.35454,0 0.55562,-0.20636 0.20108,-0.21168 0.20108,-0.5715 0,-0.42334 -0.22224,-0.58738 -0.22226,-0.1694 -0.68262,-0.1694 -0.1694,0 -0.41276,0.0212 0.0212,0.3069 0.0212,1.0795 v 1.06362 q 0,0.71436 0.1006,1.04774 -0.0952,0.0424 -0.24872,0.0424 -0.1534,0 -0.20638,-0.0688 -0.053,-0.0688 -0.053,-0.23282 0,-0.0846 0.006,-0.41804 0.006,-0.33338 0.006,-0.5186 v -1.05832 q 0,-0.73026 -0.0688,-1.21708 0.39158,-0.0636 0.78846,-0.0636 1.41816,0 1.41816,1.05304 0,0.43392 -0.23812,0.70378 -0.23812,0.26458 -0.6297,0.33868 0,0.006 0.09,0.1958 0.09,0.1904 0.1216,0.254 0.037,0.0634 0.1112,0.20638 0.074,0.1428 0.127,0.22754 0.0582,0.0846 0.1112,0.1376 z" />
    <path
       id="path838"
       style="fill:none;fill-opacity:1;stroke:#676767;stroke-width:0.552;stroke-linecap:round;stroke-miterlimit:4;stroke-dasharray:none;stroke-dashoffset:0;stroke-opacity:1;paint-order:fill markers stroke"
       d="m 212.48176,180.05799 a 4.3186336,4.3186336 0 0 1 -4.31864,4.31862 4.3186336,4.3186336 0 0 1 -4.31862,-4.31862 4.3186336,4.3186336 0 0 1 4.31862,-4.31864 4.3186336,4.3186336 0 0 1 4.31864,4.31864" />
    <rect
       inkscape:export-ydpi="96"
       inkscape:export-xdpi="96"
       inkscape:export-filename="D:\Calcatz\Icon Pack\Adventure Narative Inspired by Arrival\GUI\Navigation Buttons\Playstation\Dark\png\128px\rstick_none.png"
       y="171.59131"
       x="218.40503"
       height="33.866665"
       width="33.866665"
       id="rect840"
       style="fill:#cccccc;fill-opacity:1;stroke-width:0.433192;stroke-linecap:round;paint-order:fill markers stroke" />
    <path
       d="m 236.70895,191.14395 q 0.2752,0.3068 0.67736,0.3068 0.1268,0 0.2856,-0.032 0.0952,0.1904 0.0952,0.3176 0,0.40216 -0.79376,0.40216 -0.2012,0 -0.40216,-0.0952 -0.2012,-0.0952 -0.40216,-0.328 -0.2012,-0.2328 -0.3492,-0.41276 -0.1376,-0.18 -0.3492,-0.56092 -0.2012,-0.3808 -0.2856,-0.53976 -0.0848,-0.1692 -0.2856,-0.60324 -0.2012,-0.44448 -0.2328,-0.508 -0.2964,-0.0424 -0.2964,-0.2328 0,-0.0952 0.0528,-0.2856 0.2964,0.0528 0.4974,0.0528 0.70908,0 1.11124,-0.41272 0.40216,-0.42336 0.40216,-1.143 0,-0.84668 -0.44448,-1.17476 -0.44452,-0.3388 -1.36524,-0.3388 -0.3388,0 -0.82552,0.0424 0.0424,0.6138 0.0424,2.159 v 2.12724 q 0,1.42872 0.2012,2.09548 -0.1904,0.0848 -0.49744,0.0848 -0.3068,0 -0.41276,-0.1376 -0.106,-0.1376 -0.106,-0.46564 0,-0.1692 0.012,-0.83608 0.012,-0.66676 0.012,-1.0372 v -2.11664 q 0,-1.46052 -0.1376,-2.43416 0.78316,-0.1272 1.57692,-0.1272 2.83632,0 2.83632,2.10608 0,0.86784 -0.47624,1.40756 -0.47624,0.52916 -1.2594,0.67736 0,0.012 0.18,0.3916 0.18,0.3808 0.2432,0.508 0.074,0.1268 0.2224,0.41276 0.148,0.2856 0.254,0.45508 0.1164,0.1692 0.2224,0.2752 z"
       style="font-weight:bold;font-size:2.64583px;line-height:1.05;font-family:'Overlock SC';-inkscape-font-specification:'Overlock SC Bold';text-align:end;text-anchor:end;fill:#ffffff;fill-opacity:1;stroke:none;stroke-width:3.62398;stroke-linecap:round;stroke-miterlimit:4;stroke-dasharray:none;stroke-opacity:1;paint-order:markers stroke fill"
       id="path842" />
    <path
       d="m 243.97567,188.52467 a 8.6372672,8.6372672 0 0 1 -8.63728,8.63724 8.6372672,8.6372672 0 0 1 -8.63724,-8.63724 8.6372672,8.6372672 0 0 1 8.63724,-8.63728 8.6372672,8.6372672 0 0 1 8.63728,8.63728"
       style="fill:none;fill-opacity:1;stroke:#676767;stroke-width:1.104;stroke-linecap:round;stroke-miterlimit:4;stroke-dasharray:none;stroke-dashoffset:0;stroke-opacity:1;paint-order:fill markers stroke"
       id="path844" />
    <rect
       inkscape:export-ydpi="96"
       inkscape:export-xdpi="96"
       inkscape:export-filename="D:\Calcatz\Icon Pack\Adventure Narative Inspired by Arrival\GUI\Navigation Buttons\Playstation\Dark\png\256px\rstick_none.png"
       style="fill:#cccccc;fill-opacity:1;stroke-width:0.866384;stroke-linecap:round;paint-order:fill markers stroke"
       id="rect846"
       width="67.73333"
       height="67.73333"
       x="255.82222"
       y="171.59131" />
    <path
       id="path848"
       style="font-weight:bold;font-size:2.64583px;line-height:1.05;font-family:'Overlock SC';-inkscape-font-specification:'Overlock SC Bold';text-align:end;text-anchor:end;fill:#ffffff;fill-opacity:1;stroke:none;stroke-width:7.24796;stroke-linecap:round;stroke-miterlimit:4;stroke-dasharray:none;stroke-opacity:1;paint-order:markers stroke fill"
       d="m 292.43006,210.69659 q 0.5504,0.6136 1.35472,0.6136 0.2536,0 0.5712,-0.064 0.1904,0.3808 0.1904,0.6352 0,0.80432 -1.58752,0.80432 -0.4024,0 -0.80432,-0.1904 -0.4024,-0.1904 -0.80432,-0.656 -0.4024,-0.4656 -0.6984,-0.82552 -0.2752,-0.36 -0.6984,-1.12184 -0.4024,-0.7616 -0.5712,-1.07952 -0.1696,-0.3384 -0.5712,-1.20648 -0.4024,-0.88896 -0.4656,-1.016 -0.5928,-0.0848 -0.5928,-0.4656 0,-0.1904 0.1056,-0.5712 0.5928,0.1056 0.9948,0.1056 1.41816,0 2.22248,-0.82544 0.80432,-0.84672 0.80432,-2.286 0,-1.69336 -0.88896,-2.34952 -0.88904,-0.6776 -2.73048,-0.6776 -0.6776,0 -1.65104,0.0848 0.0848,1.2276 0.0848,4.318 v 4.25448 q 0,2.85744 0.4024,4.19096 -0.3808,0.1696 -0.99488,0.1696 -0.6136,0 -0.82552,-0.2752 -0.212,-0.2752 -0.212,-0.93128 0,-0.3384 0.024,-1.67216 0.024,-1.33352 0.024,-2.0744 v -4.23328 q 0,-2.92104 -0.2752,-4.86832 1.56632,-0.2544 3.15384,-0.2544 5.67264,0 5.67264,4.21216 0,1.73568 -0.95248,2.81512 -0.95248,1.05832 -2.5188,1.35472 0,0.024 0.36,0.7832 0.36,0.7616 0.4864,1.016 0.148,0.2536 0.4448,0.82552 0.296,0.5712 0.508,0.91016 0.2328,0.3384 0.4448,0.5504 z" />
    <path
       id="path850"
       style="fill:none;fill-opacity:1;stroke:#676767;stroke-width:2.208;stroke-linecap:round;stroke-miterlimit:4;stroke-dasharray:none;stroke-dashoffset:0;stroke-opacity:1;paint-order:fill markers stroke"
       d="m 306.9635,205.45803 a 17.274534,17.274534 0 0 1 -17.27456,17.27448 17.274534,17.274534 0 0 1 -17.27448,-17.27448 17.274534,17.274534 0 0 1 17.27448,-17.27456 17.274534,17.274534 0 0 1 17.27456,17.27456" />
  </g>
</svg>
