<?xml version="1.0" encoding="UTF-8" standalone="no"?>
<svg
   xmlns:dc="http://purl.org/dc/elements/1.1/"
   xmlns:cc="http://creativecommons.org/ns#"
   xmlns:rdf="http://www.w3.org/1999/02/22-rdf-syntax-ns#"
   xmlns:svg="http://www.w3.org/2000/svg"
   xmlns="http://www.w3.org/2000/svg"
   xmlns:sodipodi="http://sodipodi.sourceforge.net/DTD/sodipodi-0.dtd"
   xmlns:inkscape="http://www.inkscape.org/namespaces/inkscape"
   inkscape:export-ydpi="96"
   inkscape:export-xdpi="96"
   inkscape:export-filename="D:\Calcatz\Icon Pack\Adventure Narative Inspired by Arrival\GUI\Navigation Buttons\Playstation\Dark\png\rstick_up.png"
   sodipodi:docname="rstick_up.svg"
   inkscape:version="1.0 (4035a4fb49, 2020-05-01)"
   id="svg5458"
   version="1.1"
   viewBox="0 0 8.4666662 8.4666662"
   height="31.999998"
   width="31.999998">
  <defs
     id="defs5452" />
  <sodipodi:namedview
     inkscape:window-maximized="1"
     inkscape:window-y="-8"
     inkscape:window-x="-8"
     inkscape:window-height="705"
     inkscape:window-width="1366"
     fit-margin-bottom="0"
     fit-margin-right="0"
     fit-margin-left="0"
     fit-margin-top="0"
     showgrid="false"
     inkscape:document-rotation="0"
     inkscape:current-layer="layer1"
     inkscape:document-units="mm"
     inkscape:cy="233.45458"
     inkscape:cx="288.44089"
     inkscape:zoom="1.2339194"
     inkscape:pageshadow="2"
     inkscape:pageopacity="0.0"
     borderopacity="1.0"
     bordercolor="#666666"
     pagecolor="#ffffff"
     id="base"
     units="px" />
  <metadata
     id="metadata5455">
    <rdf:RDF>
      <cc:Work
         rdf:about="">
        <dc:format>image/svg+xml</dc:format>
        <dc:type
           rdf:resource="http://purl.org/dc/dcmitype/StillImage" />
        <dc:title />
      </cc:Work>
    </rdf:RDF>
  </metadata>
  <g
     transform="translate(-73.823341,-173.1682)"
     id="layer1"
     inkscape:groupmode="layer"
     inkscape:label="Layer 1">
    <rect
       y="173.1682"
       x="73.823341"
       height="8.4666662"
       width="8.4666662"
       id="rect834"
       style="fill:#cccccc;fill-opacity:1;stroke-width:0.1662;stroke-linecap:round;paint-order:fill markers stroke" />
    <g
       style="font-weight:bold;font-size:2.64583px;line-height:1.05;font-family:'Overlock SC';-inkscape-font-specification:'Overlock SC Bold';text-align:end;text-anchor:end;fill:#ffffff;fill-opacity:1;stroke:#ffffff;stroke-width:0.905997;stroke-linecap:round;stroke-miterlimit:4;stroke-dasharray:none;stroke-opacity:1;paint-order:markers stroke fill"
       id="text3149"
       aria-label="R">
      <path
         id="path6055"
         style="font-size:2.64583px;fill:#ffffff;fill-opacity:1;stroke:none;stroke-width:0.905997"
         d="m 78.399318,178.05636 q 0.06879,0.0767 0.169333,0.0767 0.03175,0 0.07144,-0.008 0.02381,0.0476 0.02381,0.0794 0,0.10054 -0.198437,0.10054 -0.05027,0 -0.100542,-0.0238 -0.05027,-0.0238 -0.100541,-0.082 -0.05027,-0.0582 -0.08731,-0.10319 -0.0344,-0.045 -0.08731,-0.14023 -0.05027,-0.0952 -0.07144,-0.13494 -0.02117,-0.0423 -0.07144,-0.15081 -0.05027,-0.11113 -0.05821,-0.127 -0.07408,-0.0106 -0.07408,-0.0582 0,-0.0238 0.01323,-0.0714 0.07408,0.0132 0.124354,0.0132 0.177271,0 0.277812,-0.10318 0.100542,-0.10584 0.100542,-0.28575 0,-0.21167 -0.111125,-0.29369 -0.111125,-0.0847 -0.341312,-0.0847 -0.08467,0 -0.206375,0.0106 0.01058,0.15345 0.01058,0.53974 v 0.53182 q 0,0.35718 0.05027,0.52387 -0.04762,0.0212 -0.124354,0.0212 -0.07673,0 -0.103187,-0.0344 -0.02646,-0.0344 -0.02646,-0.11641 0,-0.0423 0.0026,-0.20903 0.0026,-0.16668 0.0026,-0.25929 v -0.52916 q 0,-0.36513 -0.0344,-0.60854 0.195792,-0.0317 0.394229,-0.0317 0.709082,0 0.709082,0.52652 0,0.21695 -0.119062,0.35189 -0.119062,0.13229 -0.314854,0.16934 0,0.003 0.04498,0.0979 0.04498,0.0952 0.06086,0.127 0.01852,0.0317 0.05556,0.10319 0.03704,0.0714 0.0635,0.11377 0.0291,0.0423 0.05556,0.0688 z" />
    </g>
    <path
       d="m 78.707263,175.82924 h -0.650544 -0.650544 l 0.325272,-0.5536 0.325272,-0.55359 0.325272,0.55359 z"
       inkscape:transform-center-y="-0.18452779"
       inkscape:transform-center-x="9.9297713e-06"
       style="fill:#ffffff;fill-opacity:1;stroke:none;stroke-width:0.276;stroke-linecap:round;stroke-miterlimit:4;stroke-dasharray:none;stroke-opacity:1;paint-order:markers stroke fill"
       id="path3153" />
    <path
       d="m 79.136337,175.53151 a 2.1593168,2.1593168 0 0 1 1.006082,2.4289 2.1593168,2.1593168 0 0 1 -2.08574,1.60044 2.1593168,2.1593168 0 0 1 -2.08574,-1.60044 2.1593168,2.1593168 0 0 1 1.006081,-2.4289"
       style="fill:none;fill-opacity:1;stroke:#676767;stroke-width:0.276;stroke-linecap:round;stroke-miterlimit:4;stroke-dasharray:none;stroke-dashoffset:0;stroke-opacity:1;paint-order:fill markers stroke"
       id="path1567" />
    <rect
       inkscape:export-ydpi="96"
       inkscape:export-xdpi="96"
       inkscape:export-filename="D:\Calcatz\Icon Pack\Adventure Narative Inspired by Arrival\GUI\Navigation Buttons\Playstation\Dark\png\64px\rstick_up.png"
       style="fill:#cccccc;fill-opacity:1;stroke-width:0.3324;stroke-linecap:round;paint-order:fill markers stroke"
       id="rect836"
       width="16.933332"
       height="16.933332"
       x="83.754547"
       y="173.1682" />
    <g
       transform="matrix(2,0,0,2,-63.892135,-173.1682)"
       aria-label="R"
       id="g840"
       style="font-weight:bold;font-size:2.64583px;line-height:1.05;font-family:'Overlock SC';-inkscape-font-specification:'Overlock SC Bold';text-align:end;text-anchor:end;fill:#ffffff;fill-opacity:1;stroke:#ffffff;stroke-width:0.905997;stroke-linecap:round;stroke-miterlimit:4;stroke-dasharray:none;stroke-opacity:1;paint-order:markers stroke fill">
      <path
         d="m 78.399318,178.05636 q 0.06879,0.0767 0.169333,0.0767 0.03175,0 0.07144,-0.008 0.02381,0.0476 0.02381,0.0794 0,0.10054 -0.198437,0.10054 -0.05027,0 -0.100542,-0.0238 -0.05027,-0.0238 -0.100541,-0.082 -0.05027,-0.0582 -0.08731,-0.10319 -0.0344,-0.045 -0.08731,-0.14023 -0.05027,-0.0952 -0.07144,-0.13494 -0.02117,-0.0423 -0.07144,-0.15081 -0.05027,-0.11113 -0.05821,-0.127 -0.07408,-0.0106 -0.07408,-0.0582 0,-0.0238 0.01323,-0.0714 0.07408,0.0132 0.124354,0.0132 0.177271,0 0.277812,-0.10318 0.100542,-0.10584 0.100542,-0.28575 0,-0.21167 -0.111125,-0.29369 -0.111125,-0.0847 -0.341312,-0.0847 -0.08467,0 -0.206375,0.0106 0.01058,0.15345 0.01058,0.53974 v 0.53182 q 0,0.35718 0.05027,0.52387 -0.04762,0.0212 -0.124354,0.0212 -0.07673,0 -0.103187,-0.0344 -0.02646,-0.0344 -0.02646,-0.11641 0,-0.0423 0.0026,-0.20903 0.0026,-0.16668 0.0026,-0.25929 v -0.52916 q 0,-0.36513 -0.0344,-0.60854 0.195792,-0.0317 0.394229,-0.0317 0.709082,0 0.709082,0.52652 0,0.21695 -0.119062,0.35189 -0.119062,0.13229 -0.314854,0.16934 0,0.003 0.04498,0.0979 0.04498,0.0952 0.06086,0.127 0.01852,0.0317 0.05556,0.10319 0.03704,0.0714 0.0635,0.11377 0.0291,0.0423 0.05556,0.0688 z"
         style="font-size:2.64583px;fill:#ffffff;fill-opacity:1;stroke:none;stroke-width:0.905997"
         id="path838" />
    </g>
    <path
       id="path842"
       style="fill:#ffffff;fill-opacity:1;stroke:none;stroke-width:0.552;stroke-linecap:round;stroke-miterlimit:4;stroke-dasharray:none;stroke-opacity:1;paint-order:markers stroke fill"
       inkscape:transform-center-x="1.9740402e-05"
       inkscape:transform-center-y="-0.36905795"
       d="m 93.522391,178.49028 h -1.301088 -1.301088 l 0.650544,-1.1072 0.650544,-1.10718 0.650544,1.10718 z" />
    <path
       id="path844"
       style="fill:none;fill-opacity:1;stroke:#676767;stroke-width:0.552;stroke-linecap:round;stroke-miterlimit:4;stroke-dasharray:none;stroke-dashoffset:0;stroke-opacity:1;paint-order:fill markers stroke"
       d="m 94.380539,177.89482 a 4.3186336,4.3186336 0 0 1 2.012164,4.8578 4.3186336,4.3186336 0 0 1 -4.17148,3.20088 4.3186336,4.3186336 0 0 1 -4.17148,-3.20088 4.3186336,4.3186336 0 0 1 2.012162,-4.8578" />
    <rect
       inkscape:export-ydpi="96"
       inkscape:export-xdpi="96"
       inkscape:export-filename="D:\Calcatz\Icon Pack\Adventure Narative Inspired by Arrival\GUI\Navigation Buttons\Playstation\Dark\png\128px\rstick_up.png"
       y="173.1682"
       x="104.37507"
       height="33.866665"
       width="33.866665"
       id="rect846"
       style="fill:#cccccc;fill-opacity:1;stroke-width:0.6648;stroke-linecap:round;paint-order:fill markers stroke" />
    <g
       style="font-weight:bold;font-size:2.64583px;line-height:1.05;font-family:'Overlock SC';-inkscape-font-specification:'Overlock SC Bold';text-align:end;text-anchor:end;fill:#ffffff;fill-opacity:1;stroke:#ffffff;stroke-width:0.905997;stroke-linecap:round;stroke-miterlimit:4;stroke-dasharray:none;stroke-opacity:1;paint-order:markers stroke fill"
       id="g850"
       aria-label="R"
       transform="matrix(4,0,0,4,-190.9183,-519.5046)">
      <path
         id="path848"
         style="font-size:2.64583px;fill:#ffffff;fill-opacity:1;stroke:none;stroke-width:0.905997"
         d="m 78.399318,178.05636 q 0.06879,0.0767 0.169333,0.0767 0.03175,0 0.07144,-0.008 0.02381,0.0476 0.02381,0.0794 0,0.10054 -0.198437,0.10054 -0.05027,0 -0.100542,-0.0238 -0.05027,-0.0238 -0.100541,-0.082 -0.05027,-0.0582 -0.08731,-0.10319 -0.0344,-0.045 -0.08731,-0.14023 -0.05027,-0.0952 -0.07144,-0.13494 -0.02117,-0.0423 -0.07144,-0.15081 -0.05027,-0.11113 -0.05821,-0.127 -0.07408,-0.0106 -0.07408,-0.0582 0,-0.0238 0.01323,-0.0714 0.07408,0.0132 0.124354,0.0132 0.177271,0 0.277812,-0.10318 0.100542,-0.10584 0.100542,-0.28575 0,-0.21167 -0.111125,-0.29369 -0.111125,-0.0847 -0.341312,-0.0847 -0.08467,0 -0.206375,0.0106 0.01058,0.15345 0.01058,0.53974 v 0.53182 q 0,0.35718 0.05027,0.52387 -0.04762,0.0212 -0.124354,0.0212 -0.07673,0 -0.103187,-0.0344 -0.02646,-0.0344 -0.02646,-0.11641 0,-0.0423 0.0026,-0.20903 0.0026,-0.16668 0.0026,-0.25929 v -0.52916 q 0,-0.36513 -0.0344,-0.60854 0.195792,-0.0317 0.394229,-0.0317 0.709082,0 0.709082,0.52652 0,0.21695 -0.119062,0.35189 -0.119062,0.13229 -0.314854,0.16934 0,0.003 0.04498,0.0979 0.04498,0.0952 0.06086,0.127 0.01852,0.0317 0.05556,0.10319 0.03704,0.0714 0.0635,0.11377 0.0291,0.0423 0.05556,0.0688 z" />
    </g>
    <path
       d="m 123.91075,183.81236 h -2.60218 -2.60218 l 1.3011,-2.2144 1.30108,-2.21436 1.3011,2.21436 z"
       inkscape:transform-center-y="-0.73811827"
       inkscape:transform-center-x="4.0816253e-05"
       style="fill:#ffffff;fill-opacity:1;stroke:none;stroke-width:1.104;stroke-linecap:round;stroke-miterlimit:4;stroke-dasharray:none;stroke-opacity:1;paint-order:markers stroke fill"
       id="path852" />
    <path
       d="m 125.62705,182.62144 a 8.6372672,8.6372672 0 0 1 4.02432,9.7156 8.6372672,8.6372672 0 0 1 -8.34296,6.40176 8.6372672,8.6372672 0 0 1 -8.34296,-6.40176 8.6372672,8.6372672 0 0 1 4.02432,-9.7156"
       style="fill:none;fill-opacity:1;stroke:#676767;stroke-width:1.104;stroke-linecap:round;stroke-miterlimit:4;stroke-dasharray:none;stroke-dashoffset:0;stroke-opacity:1;paint-order:fill markers stroke"
       id="path854" />
    <rect
       inkscape:export-ydpi="96"
       inkscape:export-xdpi="96"
       inkscape:export-filename="D:\Calcatz\Icon Pack\Adventure Narative Inspired by Arrival\GUI\Navigation Buttons\Playstation\Dark\png\256px\rstick_up.png"
       style="fill:#cccccc;fill-opacity:1;stroke-width:1.3296;stroke-linecap:round;paint-order:fill markers stroke"
       id="rect856"
       width="67.73333"
       height="67.73333"
       x="142.20462"
       y="173.1682" />
    <g
       transform="matrix(8,0,0,8,-448.3821,-1212.1774)"
       aria-label="R"
       id="g860"
       style="font-weight:bold;font-size:2.64583px;line-height:1.05;font-family:'Overlock SC';-inkscape-font-specification:'Overlock SC Bold';text-align:end;text-anchor:end;fill:#ffffff;fill-opacity:1;stroke:#ffffff;stroke-width:0.905997;stroke-linecap:round;stroke-miterlimit:4;stroke-dasharray:none;stroke-opacity:1;paint-order:markers stroke fill">
      <path
         d="m 78.399318,178.05636 q 0.06879,0.0767 0.169333,0.0767 0.03175,0 0.07144,-0.008 0.02381,0.0476 0.02381,0.0794 0,0.10054 -0.198437,0.10054 -0.05027,0 -0.100542,-0.0238 -0.05027,-0.0238 -0.100541,-0.082 -0.05027,-0.0582 -0.08731,-0.10319 -0.0344,-0.045 -0.08731,-0.14023 -0.05027,-0.0952 -0.07144,-0.13494 -0.02117,-0.0423 -0.07144,-0.15081 -0.05027,-0.11113 -0.05821,-0.127 -0.07408,-0.0106 -0.07408,-0.0582 0,-0.0238 0.01323,-0.0714 0.07408,0.0132 0.124354,0.0132 0.177271,0 0.277812,-0.10318 0.100542,-0.10584 0.100542,-0.28575 0,-0.21167 -0.111125,-0.29369 -0.111125,-0.0847 -0.341312,-0.0847 -0.08467,0 -0.206375,0.0106 0.01058,0.15345 0.01058,0.53974 v 0.53182 q 0,0.35718 0.05027,0.52387 -0.04762,0.0212 -0.124354,0.0212 -0.07673,0 -0.103187,-0.0344 -0.02646,-0.0344 -0.02646,-0.11641 0,-0.0423 0.0026,-0.20903 0.0026,-0.16668 0.0026,-0.25929 v -0.52916 q 0,-0.36513 -0.0344,-0.60854 0.195792,-0.0317 0.394229,-0.0317 0.709082,0 0.709082,0.52652 0,0.21695 -0.119062,0.35189 -0.119062,0.13229 -0.314854,0.16934 0,0.003 0.04498,0.0979 0.04498,0.0952 0.06086,0.127 0.01852,0.0317 0.05556,0.10319 0.03704,0.0714 0.0635,0.11377 0.0291,0.0423 0.05556,0.0688 z"
         style="font-size:2.64583px;fill:#ffffff;fill-opacity:1;stroke:none;stroke-width:0.905997"
         id="path858" />
    </g>
    <path
       id="path862"
       style="fill:#ffffff;fill-opacity:1;stroke:none;stroke-width:2.208;stroke-linecap:round;stroke-miterlimit:4;stroke-dasharray:none;stroke-opacity:1;paint-order:markers stroke fill"
       inkscape:transform-center-x="8.1271178e-05"
       inkscape:transform-center-y="-1.4762389"
       d="m 181.276,194.45652 h -5.20436 -5.20436 l 2.6022,-4.4288 2.60216,-4.42872 2.6022,4.42872 z" />
    <path
       id="path864"
       style="fill:none;fill-opacity:1;stroke:#676767;stroke-width:2.208;stroke-linecap:round;stroke-miterlimit:4;stroke-dasharray:none;stroke-dashoffset:0;stroke-opacity:1;paint-order:fill markers stroke"
       d="m 184.7086,192.07468 a 17.274534,17.274534 0 0 1 8.04864,19.4312 17.274534,17.274534 0 0 1 -16.68592,12.80352 17.274534,17.274534 0 0 1 -16.68592,-12.80352 17.274534,17.274534 0 0 1 8.04864,-19.4312" />
  </g>
</svg>
