<?xml version="1.0" encoding="UTF-8" standalone="no"?>
<svg
   xmlns:dc="http://purl.org/dc/elements/1.1/"
   xmlns:cc="http://creativecommons.org/ns#"
   xmlns:rdf="http://www.w3.org/1999/02/22-rdf-syntax-ns#"
   xmlns:svg="http://www.w3.org/2000/svg"
   xmlns="http://www.w3.org/2000/svg"
   xmlns:sodipodi="http://sodipodi.sourceforge.net/DTD/sodipodi-0.dtd"
   xmlns:inkscape="http://www.inkscape.org/namespaces/inkscape"
   inkscape:export-ydpi="96"
   inkscape:export-xdpi="96"
   inkscape:export-filename="D:\Calcatz\Icon Pack\Adventure Narative Inspired by Arrival\GUI\Navigation Buttons\Playstation\Dark\png\rstick_leftright.png"
   sodipodi:docname="rstick_leftright.svg"
   inkscape:version="1.0 (4035a4fb49, 2020-05-01)"
   id="svg9108"
   version="1.1"
   viewBox="0 0 8.4666662 8.4666662"
   height="31.999998"
   width="31.999998">
  <defs
     id="defs9102" />
  <sodipodi:namedview
     inkscape:window-maximized="1"
     inkscape:window-y="-8"
     inkscape:window-x="-8"
     inkscape:window-height="705"
     inkscape:window-width="1366"
     fit-margin-bottom="0"
     fit-margin-right="0"
     fit-margin-left="0"
     fit-margin-top="0"
     showgrid="false"
     inkscape:document-rotation="0"
     inkscape:current-layer="layer1"
     inkscape:document-units="mm"
     inkscape:cy="173.63593"
     inkscape:cx="267.44734"
     inkscape:zoom="1.7450255"
     inkscape:pageshadow="2"
     inkscape:pageopacity="0.0"
     borderopacity="1.0"
     bordercolor="#666666"
     pagecolor="#ffffff"
     id="base"
     units="px" />
  <metadata
     id="metadata9105">
    <rdf:RDF>
      <cc:Work
         rdf:about="">
        <dc:format>image/svg+xml</dc:format>
        <dc:type
           rdf:resource="http://purl.org/dc/dcmitype/StillImage" />
        <dc:title />
      </cc:Work>
    </rdf:RDF>
  </metadata>
  <g
     transform="translate(-77.765602,-231.5136)"
     id="layer1"
     inkscape:groupmode="layer"
     inkscape:label="Layer 1">
    <rect
       y="231.5136"
       x="77.765602"
       height="8.4666662"
       width="8.4666662"
       id="rect835"
       style="fill:#cccccc;fill-opacity:1;stroke-width:0.156452;stroke-linecap:round;paint-order:fill markers stroke" />
    <g
       style="font-weight:bold;font-size:2.64583px;line-height:1.05;font-family:'Overlock SC';-inkscape-font-specification:'Overlock SC Bold';text-align:end;text-anchor:end;fill:#ffffff;fill-opacity:1;stroke:#ffffff;stroke-width:0.905997;stroke-linecap:round;stroke-miterlimit:4;stroke-dasharray:none;stroke-opacity:1;paint-order:markers stroke fill"
       id="text3197"
       aria-label="R">
      <path
         id="path9707"
         style="font-size:2.64583px;fill:#ffffff;fill-opacity:1;stroke:none;stroke-width:0.905997"
         d="m 82.341579,236.40176 q 0.06879,0.0767 0.169333,0.0767 0.03175,0 0.07144,-0.008 0.02381,0.0476 0.02381,0.0794 0,0.10055 -0.198437,0.10055 -0.05027,0 -0.100542,-0.0238 -0.05027,-0.0238 -0.100541,-0.082 -0.05027,-0.0582 -0.08731,-0.10318 -0.03439,-0.045 -0.08731,-0.14023 -0.05027,-0.0952 -0.07144,-0.13494 -0.02117,-0.0423 -0.07144,-0.15081 -0.05027,-0.11113 -0.05821,-0.127 -0.07408,-0.0106 -0.07408,-0.0582 0,-0.0238 0.01323,-0.0714 0.07408,0.0132 0.124354,0.0132 0.17727,0 0.277812,-0.10319 0.100541,-0.10583 0.100541,-0.28575 0,-0.21166 -0.111124,-0.29368 -0.111125,-0.0847 -0.341312,-0.0847 -0.08467,0 -0.206375,0.0106 0.01058,0.15346 0.01058,0.53975 v 0.53181 q 0,0.35719 0.05027,0.52388 -0.04762,0.0212 -0.124354,0.0212 -0.07673,0 -0.103187,-0.0344 -0.02646,-0.0344 -0.02646,-0.11642 0,-0.0423 0.0026,-0.20902 0.0026,-0.16668 0.0026,-0.25929 v -0.52916 q 0,-0.36513 -0.0344,-0.60855 0.195792,-0.0318 0.394229,-0.0318 0.709082,0 0.709082,0.52652 0,0.21696 -0.119062,0.3519 -0.119063,0.13229 -0.314854,0.16933 0,0.003 0.04498,0.0979 0.04498,0.0952 0.06085,0.127 0.01852,0.0318 0.05556,0.10319 0.03704,0.0714 0.0635,0.11377 0.0291,0.0423 0.05556,0.0688 z" />
    </g>
    <path
       d="m 80.390338,236.33439 v -0.65055 -0.65054 l -0.553598,0.32527 -0.553592,0.32527 0.553592,0.32527 z"
       inkscape:transform-center-y="-9.047805e-06"
       inkscape:transform-center-x="0.18452615"
       style="fill:#ffffff;fill-opacity:1;stroke:none;stroke-width:0.276;stroke-linecap:round;stroke-miterlimit:4;stroke-dasharray:none;stroke-opacity:1;paint-order:markers stroke fill"
       id="path3219" />
    <path
       d="m 83.519562,236.33439 v -0.65055 -0.65054 l 0.553598,0.32527 0.553592,0.32527 -0.553592,0.32527 z"
       inkscape:transform-center-y="-9.047805e-06"
       inkscape:transform-center-x="-0.18452673"
       style="fill:#ffffff;fill-opacity:1;stroke:none;stroke-width:0.276;stroke-linecap:round;stroke-miterlimit:4;stroke-dasharray:none;stroke-opacity:1;paint-order:markers stroke fill"
       id="path3221" />
    <path
       id="path1587"
       style="fill:none;fill-opacity:1;stroke:#676767;stroke-width:0.276;stroke-linecap:round;stroke-miterlimit:4;stroke-dasharray:none;stroke-dashoffset:0;stroke-opacity:1;paint-order:fill markers stroke"
       d="m 80.128854,234.66727 c 0.48866,-0.84638 1.48488,-1.25903 2.4289,-1.00608 0.56797,0.15219 1.03184,0.52248 1.31127,1.00619 m -3.18e-4,2.15966 c -0.27946,0.48344 -0.74319,0.8535 -1.31094,1.00563 -0.94402,0.25295 -1.94024,-0.1597 -2.4289,-1.00608"
       sodipodi:nodetypes="csccsc" />
    <rect
       inkscape:export-ydpi="96"
       inkscape:export-xdpi="96"
       inkscape:export-filename="D:\Calcatz\Icon Pack\Adventure Narative Inspired by Arrival\GUI\Navigation Buttons\Playstation\Dark\png\64px\rstick_leftright.png"
       style="fill:#cccccc;fill-opacity:1;stroke-width:0.312904;stroke-linecap:round;paint-order:fill markers stroke"
       id="rect837"
       width="16.933332"
       height="16.933332"
       x="87.507278"
       y="231.5136" />
    <g
       transform="matrix(2,0,0,2,-68.023919,-231.5136)"
       aria-label="R"
       id="g841"
       style="font-weight:bold;font-size:2.64583px;line-height:1.05;font-family:'Overlock SC';-inkscape-font-specification:'Overlock SC Bold';text-align:end;text-anchor:end;fill:#ffffff;fill-opacity:1;stroke:#ffffff;stroke-width:0.905997;stroke-linecap:round;stroke-miterlimit:4;stroke-dasharray:none;stroke-opacity:1;paint-order:markers stroke fill">
      <path
         d="m 82.341579,236.40176 q 0.06879,0.0767 0.169333,0.0767 0.03175,0 0.07144,-0.008 0.02381,0.0476 0.02381,0.0794 0,0.10055 -0.198437,0.10055 -0.05027,0 -0.100542,-0.0238 -0.05027,-0.0238 -0.100541,-0.082 -0.05027,-0.0582 -0.08731,-0.10318 -0.03439,-0.045 -0.08731,-0.14023 -0.05027,-0.0952 -0.07144,-0.13494 -0.02117,-0.0423 -0.07144,-0.15081 -0.05027,-0.11113 -0.05821,-0.127 -0.07408,-0.0106 -0.07408,-0.0582 0,-0.0238 0.01323,-0.0714 0.07408,0.0132 0.124354,0.0132 0.17727,0 0.277812,-0.10319 0.100541,-0.10583 0.100541,-0.28575 0,-0.21166 -0.111124,-0.29368 -0.111125,-0.0847 -0.341312,-0.0847 -0.08467,0 -0.206375,0.0106 0.01058,0.15346 0.01058,0.53975 v 0.53181 q 0,0.35719 0.05027,0.52388 -0.04762,0.0212 -0.124354,0.0212 -0.07673,0 -0.103187,-0.0344 -0.02646,-0.0344 -0.02646,-0.11642 0,-0.0423 0.0026,-0.20902 0.0026,-0.16668 0.0026,-0.25929 v -0.52916 q 0,-0.36513 -0.0344,-0.60855 0.195792,-0.0318 0.394229,-0.0318 0.709082,0 0.709082,0.52652 0,0.21696 -0.119062,0.3519 -0.119063,0.13229 -0.314854,0.16933 0,0.003 0.04498,0.0979 0.04498,0.0952 0.06085,0.127 0.01852,0.0318 0.05556,0.10319 0.03704,0.0714 0.0635,0.11377 0.0291,0.0423 0.05556,0.0688 z"
         style="font-size:2.64583px;fill:#ffffff;fill-opacity:1;stroke:none;stroke-width:0.905997"
         id="path839" />
    </g>
    <path
       id="path843"
       style="fill:#ffffff;fill-opacity:1;stroke:none;stroke-width:0.552;stroke-linecap:round;stroke-miterlimit:4;stroke-dasharray:none;stroke-opacity:1;paint-order:markers stroke fill"
       inkscape:transform-center-x="0.36905186"
       inkscape:transform-center-y="-2.2514555e-05"
       d="m 92.756756,241.15518 v -1.3011 -1.30108 l -1.107196,0.65054 -1.107184,0.65054 1.107184,0.65054 z" />
    <path
       id="path845"
       style="fill:#ffffff;fill-opacity:1;stroke:none;stroke-width:0.552;stroke-linecap:round;stroke-miterlimit:4;stroke-dasharray:none;stroke-opacity:1;paint-order:markers stroke fill"
       inkscape:transform-center-x="-0.3690519"
       inkscape:transform-center-y="-2.2514555e-05"
       d="m 99.015204,241.15518 v -1.3011 -1.30108 l 1.107196,0.65054 1.10718,0.65054 -1.10718,0.65054 z" />
    <path
       sodipodi:nodetypes="csccsc"
       d="m 92.233788,237.82094 c 0.97732,-1.69276 2.96976,-2.51806 4.8578,-2.01216 1.13594,0.30438 2.06368,1.04496 2.62254,2.01238 m -6.36e-4,4.31932 c -0.55892,0.96688 -1.48638,1.707 -2.62188,2.01126 -1.88804,0.5059 -3.88048,-0.3194 -4.8578,-2.01216"
       style="fill:none;fill-opacity:1;stroke:#676767;stroke-width:0.552;stroke-linecap:round;stroke-miterlimit:4;stroke-dasharray:none;stroke-dashoffset:0;stroke-opacity:1;paint-order:fill markers stroke"
       id="path847" />
    <rect
       inkscape:export-ydpi="96"
       inkscape:export-xdpi="96"
       inkscape:export-filename="D:\Calcatz\Icon Pack\Adventure Narative Inspired by Arrival\GUI\Navigation Buttons\Playstation\Dark\png\128px\rstick_leftright.png"
       y="231.5136"
       x="106.21587"
       height="33.866665"
       width="33.866665"
       id="rect849"
       style="fill:#cccccc;fill-opacity:1;stroke-width:0.625808;stroke-linecap:round;paint-order:fill markers stroke" />
    <g
       style="font-weight:bold;font-size:2.64583px;line-height:1.05;font-family:'Overlock SC';-inkscape-font-specification:'Overlock SC Bold';text-align:end;text-anchor:end;fill:#ffffff;fill-opacity:1;stroke:#ffffff;stroke-width:0.905997;stroke-linecap:round;stroke-miterlimit:4;stroke-dasharray:none;stroke-opacity:1;paint-order:markers stroke fill"
       id="g853"
       aria-label="R"
       transform="matrix(4,0,0,4,-204.84653,-694.5408)">
      <path
         id="path851"
         style="font-size:2.64583px;fill:#ffffff;fill-opacity:1;stroke:none;stroke-width:0.905997"
         d="m 82.341579,236.40176 q 0.06879,0.0767 0.169333,0.0767 0.03175,0 0.07144,-0.008 0.02381,0.0476 0.02381,0.0794 0,0.10055 -0.198437,0.10055 -0.05027,0 -0.100542,-0.0238 -0.05027,-0.0238 -0.100541,-0.082 -0.05027,-0.0582 -0.08731,-0.10318 -0.03439,-0.045 -0.08731,-0.14023 -0.05027,-0.0952 -0.07144,-0.13494 -0.02117,-0.0423 -0.07144,-0.15081 -0.05027,-0.11113 -0.05821,-0.127 -0.07408,-0.0106 -0.07408,-0.0582 0,-0.0238 0.01323,-0.0714 0.07408,0.0132 0.124354,0.0132 0.17727,0 0.277812,-0.10319 0.100541,-0.10583 0.100541,-0.28575 0,-0.21166 -0.111124,-0.29368 -0.111125,-0.0847 -0.341312,-0.0847 -0.08467,0 -0.206375,0.0106 0.01058,0.15346 0.01058,0.53975 v 0.53181 q 0,0.35719 0.05027,0.52388 -0.04762,0.0212 -0.124354,0.0212 -0.07673,0 -0.103187,-0.0344 -0.02646,-0.0344 -0.02646,-0.11642 0,-0.0423 0.0026,-0.20902 0.0026,-0.16668 0.0026,-0.25929 v -0.52916 q 0,-0.36513 -0.0344,-0.60855 0.195792,-0.0318 0.394229,-0.0318 0.709082,0 0.709082,0.52652 0,0.21696 -0.119062,0.3519 -0.119063,0.13229 -0.314854,0.16933 0,0.003 0.04498,0.0979 0.04498,0.0952 0.06085,0.127 0.01852,0.0318 0.05556,0.10319 0.03704,0.0714 0.0635,0.11377 0.0291,0.0423 0.05556,0.0688 z" />
    </g>
    <path
       d="m 116.71483,250.79676 v -2.6022 -2.60216 l -2.2144,1.30108 -2.21436,1.30108 2.21436,1.30108 z"
       inkscape:transform-center-y="-4.9448055e-05"
       inkscape:transform-center-x="0.7381"
       style="fill:#ffffff;fill-opacity:1;stroke:none;stroke-width:1.104;stroke-linecap:round;stroke-miterlimit:4;stroke-dasharray:none;stroke-opacity:1;paint-order:markers stroke fill"
       id="path855" />
    <path
       d="m 129.23173,250.79676 v -2.6022 -2.60216 l 2.21438,1.30108 2.21436,1.30108 -2.21436,1.30108 z"
       inkscape:transform-center-y="-4.9448055e-05"
       inkscape:transform-center-x="-0.73810752"
       style="fill:#ffffff;fill-opacity:1;stroke:none;stroke-width:1.104;stroke-linecap:round;stroke-miterlimit:4;stroke-dasharray:none;stroke-opacity:1;paint-order:markers stroke fill"
       id="path857" />
    <path
       id="path859"
       style="fill:none;fill-opacity:1;stroke:#676767;stroke-width:1.104;stroke-linecap:round;stroke-miterlimit:4;stroke-dasharray:none;stroke-dashoffset:0;stroke-opacity:1;paint-order:fill markers stroke"
       d="m 115.66889,244.12828 c 1.95464,-3.38552 5.93952,-5.03612 9.7156,-4.02432 2.27188,0.60876 4.12736,2.08992 5.24508,4.02476 m -0.001,8.63864 c -1.11784,1.93376 -2.97276,3.414 -5.24376,4.02252 -3.77608,1.0118 -7.76096,-0.6388 -9.7156,-4.02432"
       sodipodi:nodetypes="csccsc" />
    <rect
       inkscape:export-ydpi="96"
       inkscape:export-xdpi="96"
       inkscape:export-filename="D:\Calcatz\Icon Pack\Adventure Narative Inspired by Arrival\GUI\Navigation Buttons\Playstation\Dark\png\256px\rstick_leftright.png"
       style="fill:#cccccc;fill-opacity:1;stroke-width:1.25162;stroke-linecap:round;paint-order:fill markers stroke"
       id="rect861"
       width="67.73333"
       height="67.73333"
       x="144.87935"
       y="231.5136" />
    <g
       transform="matrix(8,0,0,8,-477.24547,-1620.5952)"
       aria-label="R"
       id="g865"
       style="font-weight:bold;font-size:2.64583px;line-height:1.05;font-family:'Overlock SC';-inkscape-font-specification:'Overlock SC Bold';text-align:end;text-anchor:end;fill:#ffffff;fill-opacity:1;stroke:#ffffff;stroke-width:0.905997;stroke-linecap:round;stroke-miterlimit:4;stroke-dasharray:none;stroke-opacity:1;paint-order:markers stroke fill">
      <path
         d="m 82.341579,236.40176 q 0.06879,0.0767 0.169333,0.0767 0.03175,0 0.07144,-0.008 0.02381,0.0476 0.02381,0.0794 0,0.10055 -0.198437,0.10055 -0.05027,0 -0.100542,-0.0238 -0.05027,-0.0238 -0.100541,-0.082 -0.05027,-0.0582 -0.08731,-0.10318 -0.03439,-0.045 -0.08731,-0.14023 -0.05027,-0.0952 -0.07144,-0.13494 -0.02117,-0.0423 -0.07144,-0.15081 -0.05027,-0.11113 -0.05821,-0.127 -0.07408,-0.0106 -0.07408,-0.0582 0,-0.0238 0.01323,-0.0714 0.07408,0.0132 0.124354,0.0132 0.17727,0 0.277812,-0.10319 0.100541,-0.10583 0.100541,-0.28575 0,-0.21166 -0.111124,-0.29368 -0.111125,-0.0847 -0.341312,-0.0847 -0.08467,0 -0.206375,0.0106 0.01058,0.15346 0.01058,0.53975 v 0.53181 q 0,0.35719 0.05027,0.52388 -0.04762,0.0212 -0.124354,0.0212 -0.07673,0 -0.103187,-0.0344 -0.02646,-0.0344 -0.02646,-0.11642 0,-0.0423 0.0026,-0.20902 0.0026,-0.16668 0.0026,-0.25929 v -0.52916 q 0,-0.36513 -0.0344,-0.60855 0.195792,-0.0318 0.394229,-0.0318 0.709082,0 0.709082,0.52652 0,0.21696 -0.119062,0.3519 -0.119063,0.13229 -0.314854,0.16933 0,0.003 0.04498,0.0979 0.04498,0.0952 0.06085,0.127 0.01852,0.0318 0.05556,0.10319 0.03704,0.0714 0.0635,0.11377 0.0291,0.0423 0.05556,0.0688 z"
         style="font-size:2.64583px;fill:#ffffff;fill-opacity:1;stroke:none;stroke-width:0.905997"
         id="path863" />
    </g>
    <path
       id="path867"
       style="fill:#ffffff;fill-opacity:1;stroke:none;stroke-width:2.208;stroke-linecap:round;stroke-miterlimit:4;stroke-dasharray:none;stroke-opacity:1;paint-order:markers stroke fill"
       inkscape:transform-center-x="1.4762012"
       inkscape:transform-center-y="-0.00010331506"
       d="m 165.87725,270.07992 v -5.2044 -5.20432 l -4.4288,2.60216 -4.42872,2.60216 4.42872,2.60216 z" />
    <path
       id="path869"
       style="fill:#ffffff;fill-opacity:1;stroke:none;stroke-width:2.208;stroke-linecap:round;stroke-miterlimit:4;stroke-dasharray:none;stroke-opacity:1;paint-order:markers stroke fill"
       inkscape:transform-center-x="-1.4762138"
       inkscape:transform-center-y="-0.00010331506"
       d="m 190.91105,270.07992 v -5.2044 -5.20432 l 4.42876,2.60216 4.42872,2.60216 -4.42872,2.60216 z" />
    <path
       sodipodi:nodetypes="csccsc"
       d="m 163.78537,256.74296 c 3.90928,-6.77104 11.87904,-10.07224 19.4312,-8.04864 4.54376,1.21752 8.25472,4.17984 10.49016,8.04952 m -0.002,17.27728 c -2.23568,3.86752 -5.94552,6.828 -10.48752,8.04504 -7.55216,2.0236 -15.52192,-1.2776 -19.4312,-8.04864"
       style="fill:none;fill-opacity:1;stroke:#676767;stroke-width:2.208;stroke-linecap:round;stroke-miterlimit:4;stroke-dasharray:none;stroke-dashoffset:0;stroke-opacity:1;paint-order:fill markers stroke"
       id="path871" />
  </g>
</svg>
