<?xml version="1.0" encoding="UTF-8" standalone="no"?>
<svg
   xmlns:dc="http://purl.org/dc/elements/1.1/"
   xmlns:cc="http://creativecommons.org/ns#"
   xmlns:rdf="http://www.w3.org/1999/02/22-rdf-syntax-ns#"
   xmlns:svg="http://www.w3.org/2000/svg"
   xmlns="http://www.w3.org/2000/svg"
   xmlns:sodipodi="http://sodipodi.sourceforge.net/DTD/sodipodi-0.dtd"
   xmlns:inkscape="http://www.inkscape.org/namespaces/inkscape"
   inkscape:export-ydpi="96"
   inkscape:export-xdpi="96"
   inkscape:export-filename="D:\Calcatz\Icon Pack\Adventure Narative Inspired by Arrival\GUI\Navigation Buttons\Playstation\Dark\png\rstick_left.png"
   sodipodi:docname="rstick_left.svg"
   inkscape:version="1.0 (4035a4fb49, 2020-05-01)"
   id="svg6670"
   version="1.1"
   viewBox="0 0 8.4666662 8.4666662"
   height="31.999998"
   width="31.999998">
  <defs
     id="defs6664" />
  <sodipodi:namedview
     inkscape:window-maximized="1"
     inkscape:window-y="-8"
     inkscape:window-x="-8"
     inkscape:window-height="705"
     inkscape:window-width="1366"
     fit-margin-bottom="0"
     fit-margin-right="0"
     fit-margin-left="0"
     fit-margin-top="0"
     showgrid="false"
     inkscape:document-rotation="0"
     inkscape:current-layer="layer1"
     inkscape:document-units="mm"
     inkscape:cy="150.40934"
     inkscape:cx="270.90186"
     inkscape:zoom="1.7450255"
     inkscape:pageshadow="2"
     inkscape:pageopacity="0.0"
     borderopacity="1.0"
     bordercolor="#666666"
     pagecolor="#ffffff"
     id="base"
     units="px" />
  <metadata
     id="metadata6667">
    <rdf:RDF>
      <cc:Work
         rdf:about="">
        <dc:format>image/svg+xml</dc:format>
        <dc:type
           rdf:resource="http://purl.org/dc/dcmitype/StillImage" />
        <dc:title />
      </cc:Work>
    </rdf:RDF>
  </metadata>
  <g
     transform="translate(-104.57294,-174.7451)"
     id="layer1"
     inkscape:groupmode="layer"
     inkscape:label="Layer 1">
    <rect
       y="174.7451"
       x="104.57294"
       height="8.4666662"
       width="8.4666662"
       id="rect833"
       style="fill:#cccccc;fill-opacity:1;stroke-width:0.182347;stroke-linecap:round;paint-order:fill markers stroke" />
    <path
       d="m 109.14892,179.63326 q 0.0688,0.0767 0.16933,0.0767 0.0317,0 0.0714,-0.008 0.0238,0.0476 0.0238,0.0794 0,0.10054 -0.19843,0.10054 -0.0503,0 -0.10054,-0.0238 -0.0503,-0.0238 -0.10055,-0.082 -0.0503,-0.0582 -0.0873,-0.10319 -0.0344,-0.045 -0.0873,-0.14023 -0.0503,-0.0953 -0.0714,-0.13493 -0.0212,-0.0423 -0.0714,-0.15082 -0.0503,-0.11112 -0.0582,-0.127 -0.0741,-0.0106 -0.0741,-0.0582 0,-0.0238 0.0132,-0.0714 0.0741,0.0132 0.12436,0.0132 0.17727,0 0.27781,-0.10319 0.10054,-0.10583 0.10054,-0.28575 0,-0.21167 -0.11112,-0.29369 -0.11113,-0.0847 -0.34132,-0.0847 -0.0847,0 -0.20637,0.0106 0.0106,0.15346 0.0106,0.53975 v 0.53181 q 0,0.35719 0.0503,0.52388 -0.0476,0.0212 -0.12435,0.0212 -0.0767,0 -0.10319,-0.0344 -0.0265,-0.0344 -0.0265,-0.11642 0,-0.0423 0.003,-0.20902 0.003,-0.16669 0.003,-0.25929 v -0.52917 q 0,-0.36512 -0.0344,-0.60854 0.19579,-0.0317 0.39423,-0.0317 0.70908,0 0.70908,0.52652 0,0.21696 -0.11906,0.3519 -0.11906,0.13229 -0.31486,0.16933 0,0.003 0.045,0.0979 0.045,0.0952 0.0609,0.127 0.0185,0.0317 0.0556,0.10318 0.037,0.0714 0.0635,0.11377 0.0291,0.0423 0.0556,0.0688 z"
       style="font-weight:bold;font-size:2.64583px;line-height:1.05;font-family:'Overlock SC';-inkscape-font-specification:'Overlock SC Bold';text-align:end;text-anchor:end;fill:#ffffff;fill-opacity:1;stroke:none;stroke-width:0.905997;stroke-linecap:round;stroke-miterlimit:4;stroke-dasharray:none;stroke-opacity:1;paint-order:markers stroke fill"
       id="path7266" />
    <path
       d="m 107.15125,179.65199 v -0.65054 -0.65054 l -0.5536,0.32527 -0.55359,0.32527 0.55359,0.32527 z"
       inkscape:transform-center-y="-8.8886874e-06"
       inkscape:transform-center-x="0.18452804"
       style="fill:#ffffff;fill-opacity:1;stroke:none;stroke-width:0.276;stroke-linecap:round;stroke-miterlimit:4;stroke-dasharray:none;stroke-opacity:1;paint-order:markers stroke fill"
       id="path3169" />
    <path
       d="m 106.93626,177.89878 a 2.1593168,2.1593168 0 0 1 2.42889,-1.00608 2.1593168,2.1593168 0 0 1 1.60045,2.08574 2.1593168,2.1593168 0 0 1 -1.60045,2.08574 2.1593168,2.1593168 0 0 1 -2.42889,-1.00608"
       style="fill:none;fill-opacity:1;stroke:#676767;stroke-width:0.276;stroke-linecap:round;stroke-miterlimit:4;stroke-dasharray:none;stroke-dashoffset:0;stroke-opacity:1;paint-order:fill markers stroke"
       id="path1575" />
    <rect
       inkscape:export-ydpi="96"
       inkscape:export-xdpi="96"
       inkscape:export-filename="D:\Calcatz\Icon Pack\Adventure Narative Inspired by Arrival\GUI\Navigation Buttons\Playstation\Dark\png\64px\rstick_left.png"
       style="fill:#cccccc;fill-opacity:1;stroke-width:0.364694;stroke-linecap:round;paint-order:fill markers stroke"
       id="rect835"
       width="16.933332"
       height="16.933332"
       x="114.59731"
       y="174.7451" />
    <path
       id="path837"
       style="font-weight:bold;font-size:2.64583px;line-height:1.05;font-family:'Overlock SC';-inkscape-font-specification:'Overlock SC Bold';text-align:end;text-anchor:end;fill:#ffffff;fill-opacity:1;stroke:none;stroke-width:1.81199;stroke-linecap:round;stroke-miterlimit:4;stroke-dasharray:none;stroke-opacity:1;paint-order:markers stroke fill"
       d="m 123.74929,184.52142 q 0.1376,0.1534 0.33866,0.1534 0.0634,0 0.1428,-0.016 0.0476,0.0952 0.0476,0.1588 0,0.20108 -0.39686,0.20108 -0.1006,0 -0.20108,-0.0476 -0.1006,-0.0476 -0.2011,-0.164 -0.1006,-0.1164 -0.1746,-0.20638 -0.0688,-0.09 -0.1746,-0.28046 -0.1006,-0.1906 -0.1428,-0.26986 -0.0424,-0.0846 -0.1428,-0.30164 -0.1006,-0.22224 -0.1164,-0.254 -0.1482,-0.0212 -0.1482,-0.1164 0,-0.0476 0.0264,-0.1428 0.1482,0.0264 0.24872,0.0264 0.35454,0 0.55562,-0.20638 0.20108,-0.21166 0.20108,-0.5715 0,-0.42334 -0.22224,-0.58738 -0.22226,-0.1694 -0.68264,-0.1694 -0.1694,0 -0.41274,0.0212 0.0212,0.30692 0.0212,1.0795 v 1.06362 q 0,0.71438 0.1006,1.04776 -0.0952,0.0424 -0.2487,0.0424 -0.1534,0 -0.20638,-0.0688 -0.053,-0.0688 -0.053,-0.23284 0,-0.0846 0.006,-0.41804 0.006,-0.33338 0.006,-0.51858 v -1.05834 q 0,-0.73024 -0.0688,-1.21708 0.39158,-0.0634 0.78846,-0.0634 1.41816,0 1.41816,1.05304 0,0.43392 -0.23812,0.7038 -0.23812,0.26458 -0.62972,0.33866 0,0.006 0.09,0.1958 0.09,0.1904 0.1218,0.254 0.037,0.0634 0.1112,0.20636 0.074,0.1428 0.127,0.22754 0.0582,0.0846 0.1112,0.1376 z" />
    <path
       id="path839"
       style="fill:#ffffff;fill-opacity:1;stroke:none;stroke-width:0.552;stroke-linecap:round;stroke-miterlimit:4;stroke-dasharray:none;stroke-opacity:1;paint-order:markers stroke fill"
       inkscape:transform-center-x="0.36905315"
       inkscape:transform-center-y="-1.5848664e-05"
       d="m 119.75395,184.55888 v -1.30108 -1.30108 l -1.1072,0.65054 -1.10718,0.65054 1.10718,0.65054 z" />
    <path
       id="path841"
       style="fill:none;fill-opacity:1;stroke:#676767;stroke-width:0.552;stroke-linecap:round;stroke-miterlimit:4;stroke-dasharray:none;stroke-dashoffset:0;stroke-opacity:1;paint-order:fill markers stroke"
       d="m 119.32397,181.05246 a 4.3186336,4.3186336 0 0 1 4.85778,-2.01216 4.3186336,4.3186336 0 0 1 3.2009,4.17148 4.3186336,4.3186336 0 0 1 -3.2009,4.17148 4.3186336,4.3186336 0 0 1 -4.85778,-2.01216" />
    <rect
       inkscape:export-ydpi="96"
       inkscape:export-xdpi="96"
       inkscape:export-filename="D:\Calcatz\Icon Pack\Adventure Narative Inspired by Arrival\GUI\Navigation Buttons\Playstation\Dark\png\128px\rstick_left.png"
       y="174.7451"
       x="133.73476"
       height="33.866665"
       width="33.866665"
       id="rect843"
       style="fill:#cccccc;fill-opacity:1;stroke-width:0.729388;stroke-linecap:round;paint-order:fill markers stroke" />
    <path
       d="m 152.0387,194.29774 q 0.2752,0.3068 0.67732,0.3068 0.1268,0 0.2856,-0.032 0.0952,0.1904 0.0952,0.3176 0,0.40216 -0.79372,0.40216 -0.2012,0 -0.40216,-0.0952 -0.2012,-0.0952 -0.4022,-0.328 -0.2012,-0.2328 -0.3492,-0.41276 -0.1376,-0.18 -0.3492,-0.56092 -0.2012,-0.3812 -0.2856,-0.53972 -0.0848,-0.1692 -0.2856,-0.60328 -0.2012,-0.44448 -0.2328,-0.508 -0.2964,-0.0424 -0.2964,-0.2328 0,-0.0952 0.0528,-0.2856 0.2964,0.0528 0.49744,0.0528 0.70908,0 1.11124,-0.41276 0.40216,-0.42332 0.40216,-1.143 0,-0.84668 -0.44448,-1.17476 -0.44452,-0.3388 -1.36528,-0.3388 -0.3388,0 -0.82548,0.0424 0.0424,0.61384 0.0424,2.159 v 2.12724 q 0,1.42876 0.2012,2.09552 -0.1904,0.0848 -0.4974,0.0848 -0.3068,0 -0.41276,-0.1376 -0.106,-0.1376 -0.106,-0.46568 0,-0.1692 0.012,-0.83608 0.012,-0.66676 0.012,-1.03716 v -2.11668 q 0,-1.46048 -0.1376,-2.43416 0.78316,-0.1268 1.57692,-0.1268 2.83632,0 2.83632,2.10608 0,0.86784 -0.47624,1.4076 -0.47624,0.52916 -1.25944,0.67732 0,0.012 0.18,0.3916 0.18,0.3808 0.2436,0.508 0.074,0.1268 0.2224,0.41272 0.148,0.2856 0.254,0.45508 0.1164,0.1692 0.2224,0.2752 z"
       style="font-weight:bold;font-size:2.64583px;line-height:1.05;font-family:'Overlock SC';-inkscape-font-specification:'Overlock SC Bold';text-align:end;text-anchor:end;fill:#ffffff;fill-opacity:1;stroke:none;stroke-width:3.62398;stroke-linecap:round;stroke-miterlimit:4;stroke-dasharray:none;stroke-opacity:1;paint-order:markers stroke fill"
       id="path845" />
    <path
       d="m 144.04802,194.37266 v -2.60216 -2.60216 l -2.2144,1.30108 -2.21436,1.30108 2.21436,1.30108 z"
       inkscape:transform-center-y="-2.9768617e-05"
       inkscape:transform-center-x="0.73810983"
       style="fill:#ffffff;fill-opacity:1;stroke:none;stroke-width:1.104;stroke-linecap:round;stroke-miterlimit:4;stroke-dasharray:none;stroke-opacity:1;paint-order:markers stroke fill"
       id="path847" />
    <path
       d="m 143.18806,187.35982 a 8.6372672,8.6372672 0 0 1 9.71556,-4.02432 8.6372672,8.6372672 0 0 1 6.4018,8.34296 8.6372672,8.6372672 0 0 1 -6.4018,8.34296 8.6372672,8.6372672 0 0 1 -9.71556,-4.02432"
       style="fill:none;fill-opacity:1;stroke:#676767;stroke-width:1.104;stroke-linecap:round;stroke-miterlimit:4;stroke-dasharray:none;stroke-dashoffset:0;stroke-opacity:1;paint-order:fill markers stroke"
       id="path849" />
    <rect
       inkscape:export-ydpi="96"
       inkscape:export-xdpi="96"
       inkscape:export-filename="D:\Calcatz\Icon Pack\Adventure Narative Inspired by Arrival\GUI\Navigation Buttons\Playstation\Dark\png\256px\rstick_left.png"
       style="fill:#cccccc;fill-opacity:1;stroke-width:1.45878;stroke-linecap:round;paint-order:fill markers stroke"
       id="rect851"
       width="67.73333"
       height="67.73333"
       x="171.64012"
       y="174.7451" />
    <path
       id="path853"
       style="font-weight:bold;font-size:2.64583px;line-height:1.05;font-family:'Overlock SC';-inkscape-font-specification:'Overlock SC Bold';text-align:end;text-anchor:end;fill:#ffffff;fill-opacity:1;stroke:none;stroke-width:7.24796;stroke-linecap:round;stroke-miterlimit:4;stroke-dasharray:none;stroke-opacity:1;paint-order:markers stroke fill"
       d="m 208.24802,213.85038 q 0.5504,0.6136 1.35464,0.6136 0.2536,0 0.5712,-0.064 0.1904,0.3808 0.1904,0.6352 0,0.80432 -1.58744,0.80432 -0.4024,0 -0.80432,-0.1904 -0.4024,-0.1904 -0.8044,-0.656 -0.4024,-0.4656 -0.6984,-0.82552 -0.2752,-0.36 -0.6984,-1.12184 -0.4024,-0.7624 -0.5712,-1.07944 -0.1696,-0.3384 -0.5712,-1.20656 -0.4024,-0.88896 -0.4656,-1.016 -0.5928,-0.0848 -0.5928,-0.4656 0,-0.1904 0.1056,-0.5712 0.5928,0.1056 0.99488,0.1056 1.41816,0 2.22248,-0.82552 0.80432,-0.84664 0.80432,-2.286 0,-1.69336 -0.88896,-2.34952 -0.88904,-0.6776 -2.73056,-0.6776 -0.6776,0 -1.65096,0.0848 0.0848,1.22768 0.0848,4.318 v 4.25448 q 0,2.85752 0.4024,4.19104 -0.3808,0.1696 -0.9948,0.1696 -0.6136,0 -0.82552,-0.2752 -0.212,-0.2752 -0.212,-0.93136 0,-0.3384 0.024,-1.67216 0.024,-1.33352 0.024,-2.07432 v -4.23336 q 0,-2.92096 -0.2752,-4.86832 1.56632,-0.2536 3.15384,-0.2536 5.67264,0 5.67264,4.21216 0,1.73568 -0.95248,2.8152 -0.95248,1.05832 -2.51888,1.35464 0,0.024 0.36,0.7832 0.36,0.7616 0.4872,1.016 0.148,0.2536 0.4448,0.82544 0.296,0.5712 0.508,0.91016 0.2328,0.3384 0.4448,0.5504 z" />
    <path
       id="path855"
       style="fill:#ffffff;fill-opacity:1;stroke:none;stroke-width:2.208;stroke-linecap:round;stroke-miterlimit:4;stroke-dasharray:none;stroke-opacity:1;paint-order:markers stroke fill"
       inkscape:transform-center-x="1.4762182"
       inkscape:transform-center-y="-5.7608523e-05"
       d="m 192.26666,214.00022 v -5.20432 -5.20432 l -4.4288,2.60216 -4.42872,2.60216 4.42872,2.60216 z" />
    <path
       id="path857"
       style="fill:none;fill-opacity:1;stroke:#676767;stroke-width:2.208;stroke-linecap:round;stroke-miterlimit:4;stroke-dasharray:none;stroke-dashoffset:0;stroke-opacity:1;paint-order:fill markers stroke"
       d="m 190.54674,199.97454 a 17.274534,17.274534 0 0 1 19.43112,-8.04864 17.274534,17.274534 0 0 1 12.8036,16.68592 17.274534,17.274534 0 0 1 -12.8036,16.68592 17.274534,17.274534 0 0 1 -19.43112,-8.04864" />
  </g>
</svg>
