<?xml version="1.0" encoding="UTF-8" standalone="no"?>
<svg
   xmlns:dc="http://purl.org/dc/elements/1.1/"
   xmlns:cc="http://creativecommons.org/ns#"
   xmlns:rdf="http://www.w3.org/1999/02/22-rdf-syntax-ns#"
   xmlns:svg="http://www.w3.org/2000/svg"
   xmlns="http://www.w3.org/2000/svg"
   xmlns:sodipodi="http://sodipodi.sourceforge.net/DTD/sodipodi-0.dtd"
   xmlns:inkscape="http://www.inkscape.org/namespaces/inkscape"
   inkscape:export-ydpi="96"
   inkscape:export-xdpi="96"
   inkscape:export-filename="D:\Calcatz\Icon Pack\Adventure Narative Inspired by Arrival\GUI\Navigation Buttons\Playstation\Dark\png\share.png"
   sodipodi:docname="share.svg"
   inkscape:version="1.0 (4035a4fb49, 2020-05-01)"
   id="svg5484"
   version="1.1"
   viewBox="0 0 8.4666662 8.4666662"
   height="31.999998"
   width="31.999998">
  <defs
     id="defs5478" />
  <sodipodi:namedview
     inkscape:window-maximized="1"
     inkscape:window-y="-8"
     inkscape:window-x="-8"
     inkscape:window-height="705"
     inkscape:window-width="1366"
     fit-margin-bottom="0"
     fit-margin-right="0"
     fit-margin-left="0"
     fit-margin-top="0"
     showgrid="false"
     inkscape:document-rotation="0"
     inkscape:current-layer="layer1"
     inkscape:document-units="mm"
     inkscape:cy="101.77678"
     inkscape:cx="293.48252"
     inkscape:zoom="0.87251276"
     inkscape:pageshadow="2"
     inkscape:pageopacity="0.0"
     borderopacity="1.0"
     bordercolor="#666666"
     pagecolor="#ffffff"
     id="base"
     units="px" />
  <metadata
     id="metadata5481">
    <rdf:RDF>
      <cc:Work
         rdf:about="">
        <dc:format>image/svg+xml</dc:format>
        <dc:type
           rdf:resource="http://purl.org/dc/dcmitype/StillImage" />
        <dc:title />
      </cc:Work>
    </rdf:RDF>
  </metadata>
  <g
     transform="translate(-101.59999,-143.93333)"
     id="layer1"
     inkscape:groupmode="layer"
     inkscape:label="Layer 1">
    <rect
       y="143.93333"
       x="101.59999"
       height="8.4666662"
       width="8.4666662"
       id="rect835"
       style="fill:#cccccc;stroke-width:2.13252;stroke-linecap:round;paint-order:fill markers stroke;fill-opacity:1" />
    <path
       d="m 105.83334,146.33821 c 0.4987,0 0.90018,0.38115 0.90018,0.8546 v 1.9477 c 0,0.47344 -0.40148,0.8546 -0.90018,0.8546 -0.4987,0 -0.90018,-0.38116 -0.90018,-0.8546 v -1.9477 c 0,-0.47345 0.40148,-0.8546 0.90018,-0.8546 z"
       style="fill:none;fill-opacity:0.301961;stroke:#676767;stroke-width:0.276;stroke-linecap:round;stroke-miterlimit:4;stroke-dasharray:none;stroke-opacity:1;paint-order:markers stroke fill"
       id="rect4334" />
    <g
       style="font-weight:bold;font-size:1.85208px;line-height:1.05;font-family:'Overlock SC';-inkscape-font-specification:'Overlock SC Bold';text-align:end;text-anchor:end;fill:#ffffff;fill-opacity:1;stroke:none;stroke-width:0.276;stroke-linecap:round;stroke-miterlimit:4;stroke-dasharray:none;stroke-opacity:1;paint-order:markers stroke fill"
       id="text4338"
       aria-label="S">
      <path
         id="path6077"
         style="font-size:1.85208px;stroke-width:0.276"
         d="m 106.09634,147.79347 q -0.0315,-0.0611 -0.11298,-0.10002 -0.0815,-0.0407 -0.16854,-0.0407 -0.0945,0 -0.15928,0.0519 -0.063,0.0519 -0.063,0.15187 0,0.0759 0.0463,0.12594 0.0482,0.0481 0.11854,0.0685 0.0704,0.0185 0.15372,0.0463 0.0833,0.0278 0.15372,0.0574 0.0704,0.0296 0.11668,0.10187 0.0482,0.0722 0.0482,0.17965 0,0.0963 -0.0371,0.17039 -0.037,0.0722 -0.10001,0.11298 -0.063,0.0407 -0.13705,0.0611 -0.0722,0.0185 -0.15372,0.0185 -0.14447,0 -0.25559,-0.05 -0.10927,-0.0519 -0.10927,-0.12409 0,-0.0241 0.0148,-0.0426 0.0167,-0.0204 0.0315,-0.0296 0.0148,-0.009 0.0482,-0.0259 0.0352,0.0685 0.12594,0.11298 0.0926,0.0426 0.18706,0.0426 0.10372,0 0.1778,-0.0556 0.0741,-0.0574 0.0741,-0.16298 0,-0.0871 -0.0667,-0.13706 -0.0648,-0.0519 -0.15928,-0.0778 -0.0926,-0.0259 -0.18706,-0.0574 -0.0926,-0.0315 -0.15928,-0.10557 -0.0648,-0.0759 -0.0648,-0.20002 0,-0.17039 0.11113,-0.26114 0.11297,-0.0908 0.28707,-0.0908 0.12779,0 0.23521,0.0445 0.10927,0.0445 0.10927,0.12224 0,0.0741 -0.10556,0.0926 z" />
    </g>
    <rect
       y="143.7438"
       x="111.75863"
       height="9.0593834"
       width="8.4908018"
       id="rect833"
       style="fill:none;stroke-width:0.132292;stroke-linecap:round;paint-order:fill markers stroke" />
    <rect
       inkscape:export-ydpi="96"
       inkscape:export-xdpi="96"
       inkscape:export-filename="D:\Calcatz\Icon Pack\Adventure Narative Inspired by Arrival\GUI\Navigation Buttons\Playstation\Dark\png\64px\share.png"
       style="fill:#cccccc;fill-opacity:1;stroke-width:4.26504;stroke-linecap:round;paint-order:fill markers stroke"
       id="rect837"
       width="16.933332"
       height="16.933332"
       x="111.75863"
       y="143.93333" />
    <path
       id="path839"
       style="fill:none;fill-opacity:0.301961;stroke:#676767;stroke-width:0.552;stroke-linecap:round;stroke-miterlimit:4;stroke-dasharray:none;stroke-opacity:1;paint-order:markers stroke fill"
       d="m 120.22533,148.74309 c 0.9974,0 1.80036,0.7623 1.80036,1.7092 v 3.8954 c 0,0.94688 -0.80296,1.7092 -1.80036,1.7092 -0.9974,0 -1.80036,-0.76232 -1.80036,-1.7092 v -3.8954 c 0,-0.9469 0.80296,-1.7092 1.80036,-1.7092 z" />
    <g
       transform="matrix(2,0,0,2,-91.441353,-143.93333)"
       aria-label="S"
       id="g843"
       style="font-weight:bold;font-size:1.85208px;line-height:1.05;font-family:'Overlock SC';-inkscape-font-specification:'Overlock SC Bold';text-align:end;text-anchor:end;fill:#ffffff;fill-opacity:1;stroke:none;stroke-width:0.276;stroke-linecap:round;stroke-miterlimit:4;stroke-dasharray:none;stroke-opacity:1;paint-order:markers stroke fill">
      <path
         d="m 106.09634,147.79347 q -0.0315,-0.0611 -0.11298,-0.10002 -0.0815,-0.0407 -0.16854,-0.0407 -0.0945,0 -0.15928,0.0519 -0.063,0.0519 -0.063,0.15187 0,0.0759 0.0463,0.12594 0.0482,0.0481 0.11854,0.0685 0.0704,0.0185 0.15372,0.0463 0.0833,0.0278 0.15372,0.0574 0.0704,0.0296 0.11668,0.10187 0.0482,0.0722 0.0482,0.17965 0,0.0963 -0.0371,0.17039 -0.037,0.0722 -0.10001,0.11298 -0.063,0.0407 -0.13705,0.0611 -0.0722,0.0185 -0.15372,0.0185 -0.14447,0 -0.25559,-0.05 -0.10927,-0.0519 -0.10927,-0.12409 0,-0.0241 0.0148,-0.0426 0.0167,-0.0204 0.0315,-0.0296 0.0148,-0.009 0.0482,-0.0259 0.0352,0.0685 0.12594,0.11298 0.0926,0.0426 0.18706,0.0426 0.10372,0 0.1778,-0.0556 0.0741,-0.0574 0.0741,-0.16298 0,-0.0871 -0.0667,-0.13706 -0.0648,-0.0519 -0.15928,-0.0778 -0.0926,-0.0259 -0.18706,-0.0574 -0.0926,-0.0315 -0.15928,-0.10557 -0.0648,-0.0759 -0.0648,-0.20002 0,-0.17039 0.11113,-0.26114 0.11297,-0.0908 0.28707,-0.0908 0.12779,0 0.23521,0.0445 0.10927,0.0445 0.10927,0.12224 0,0.0741 -0.10556,0.0926 z"
         style="font-size:1.85208px;stroke-width:0.276"
         id="path841" />
    </g>
    <rect
       inkscape:export-ydpi="96"
       inkscape:export-xdpi="96"
       inkscape:export-filename="D:\Calcatz\Icon Pack\Adventure Narative Inspired by Arrival\GUI\Navigation Buttons\Playstation\Dark\png\128px\share.png"
       y="143.93333"
       x="131.26506"
       height="33.866665"
       width="33.866665"
       id="rect845"
       style="fill:#cccccc;fill-opacity:1;stroke-width:8.53008;stroke-linecap:round;paint-order:fill markers stroke" />
    <path
       d="m 148.19846,153.55285 c 1.9948,0 3.60072,1.5246 3.60072,3.4184 v 7.7908 c 0,1.89376 -1.60592,3.4184 -3.60072,3.4184 -1.9948,0 -3.60072,-1.52464 -3.60072,-3.4184 v -7.7908 c 0,-1.8938 1.60592,-3.4184 3.60072,-3.4184 z"
       style="fill:none;fill-opacity:0.301961;stroke:#676767;stroke-width:1.104;stroke-linecap:round;stroke-miterlimit:4;stroke-dasharray:none;stroke-opacity:1;paint-order:markers stroke fill"
       id="path847" />
    <g
       style="font-weight:bold;font-size:1.85208px;line-height:1.05;font-family:'Overlock SC';-inkscape-font-specification:'Overlock SC Bold';text-align:end;text-anchor:end;fill:#ffffff;fill-opacity:1;stroke:none;stroke-width:0.276;stroke-linecap:round;stroke-miterlimit:4;stroke-dasharray:none;stroke-opacity:1;paint-order:markers stroke fill"
       id="g851"
       aria-label="S"
       transform="matrix(4,0,0,4,-275.13491,-431.79999)">
      <path
         id="path849"
         style="font-size:1.85208px;stroke-width:0.276"
         d="m 106.09634,147.79347 q -0.0315,-0.0611 -0.11298,-0.10002 -0.0815,-0.0407 -0.16854,-0.0407 -0.0945,0 -0.15928,0.0519 -0.063,0.0519 -0.063,0.15187 0,0.0759 0.0463,0.12594 0.0482,0.0481 0.11854,0.0685 0.0704,0.0185 0.15372,0.0463 0.0833,0.0278 0.15372,0.0574 0.0704,0.0296 0.11668,0.10187 0.0482,0.0722 0.0482,0.17965 0,0.0963 -0.0371,0.17039 -0.037,0.0722 -0.10001,0.11298 -0.063,0.0407 -0.13705,0.0611 -0.0722,0.0185 -0.15372,0.0185 -0.14447,0 -0.25559,-0.05 -0.10927,-0.0519 -0.10927,-0.12409 0,-0.0241 0.0148,-0.0426 0.0167,-0.0204 0.0315,-0.0296 0.0148,-0.009 0.0482,-0.0259 0.0352,0.0685 0.12594,0.11298 0.0926,0.0426 0.18706,0.0426 0.10372,0 0.1778,-0.0556 0.0741,-0.0574 0.0741,-0.16298 0,-0.0871 -0.0667,-0.13706 -0.0648,-0.0519 -0.15928,-0.0778 -0.0926,-0.0259 -0.18706,-0.0574 -0.0926,-0.0315 -0.15928,-0.10557 -0.0648,-0.0759 -0.0648,-0.20002 0,-0.17039 0.11113,-0.26114 0.11297,-0.0908 0.28707,-0.0908 0.12779,0 0.23521,0.0445 0.10927,0.0445 0.10927,0.12224 0,0.0741 -0.10556,0.0926 z" />
    </g>
    <rect
       inkscape:export-ydpi="96"
       inkscape:export-xdpi="96"
       inkscape:export-filename="D:\Calcatz\Icon Pack\Adventure Narative Inspired by Arrival\GUI\Navigation Buttons\Playstation\Dark\png\256px\share.png"
       style="fill:#cccccc;fill-opacity:1;stroke-width:17.0602;stroke-linecap:round;paint-order:fill markers stroke"
       id="rect853"
       width="67.73333"
       height="67.73333"
       x="170.39764"
       y="143.93333" />
    <path
       id="path855"
       style="fill:none;fill-opacity:0.301961;stroke:#676767;stroke-width:2.208;stroke-linecap:round;stroke-miterlimit:4;stroke-dasharray:none;stroke-opacity:1;paint-order:markers stroke fill"
       d="m 204.26446,163.17237 c 3.9896,0 7.20144,3.0492 7.20144,6.8368 v 15.5816 c 0,3.78752 -3.21184,6.8368 -7.20144,6.8368 -3.9896,0 -7.20144,-3.04928 -7.20144,-6.8368 v -15.5816 c 0,-3.7876 3.21184,-6.8368 7.20144,-6.8368 z" />
    <g
       transform="matrix(8,0,0,8,-642.40228,-1007.5333)"
       aria-label="S"
       id="g859"
       style="font-weight:bold;font-size:1.85208px;line-height:1.05;font-family:'Overlock SC';-inkscape-font-specification:'Overlock SC Bold';text-align:end;text-anchor:end;fill:#ffffff;fill-opacity:1;stroke:none;stroke-width:0.276;stroke-linecap:round;stroke-miterlimit:4;stroke-dasharray:none;stroke-opacity:1;paint-order:markers stroke fill">
      <path
         d="m 106.09634,147.79347 q -0.0315,-0.0611 -0.11298,-0.10002 -0.0815,-0.0407 -0.16854,-0.0407 -0.0945,0 -0.15928,0.0519 -0.063,0.0519 -0.063,0.15187 0,0.0759 0.0463,0.12594 0.0482,0.0481 0.11854,0.0685 0.0704,0.0185 0.15372,0.0463 0.0833,0.0278 0.15372,0.0574 0.0704,0.0296 0.11668,0.10187 0.0482,0.0722 0.0482,0.17965 0,0.0963 -0.0371,0.17039 -0.037,0.0722 -0.10001,0.11298 -0.063,0.0407 -0.13705,0.0611 -0.0722,0.0185 -0.15372,0.0185 -0.14447,0 -0.25559,-0.05 -0.10927,-0.0519 -0.10927,-0.12409 0,-0.0241 0.0148,-0.0426 0.0167,-0.0204 0.0315,-0.0296 0.0148,-0.009 0.0482,-0.0259 0.0352,0.0685 0.12594,0.11298 0.0926,0.0426 0.18706,0.0426 0.10372,0 0.1778,-0.0556 0.0741,-0.0574 0.0741,-0.16298 0,-0.0871 -0.0667,-0.13706 -0.0648,-0.0519 -0.15928,-0.0778 -0.0926,-0.0259 -0.18706,-0.0574 -0.0926,-0.0315 -0.15928,-0.10557 -0.0648,-0.0759 -0.0648,-0.20002 0,-0.17039 0.11113,-0.26114 0.11297,-0.0908 0.28707,-0.0908 0.12779,0 0.23521,0.0445 0.10927,0.0445 0.10927,0.12224 0,0.0741 -0.10556,0.0926 z"
         style="font-size:1.85208px;stroke-width:0.276"
         id="path857" />
    </g>
  </g>
</svg>
