<?xml version="1.0" encoding="UTF-8" standalone="no"?>
<svg
   xmlns:dc="http://purl.org/dc/elements/1.1/"
   xmlns:cc="http://creativecommons.org/ns#"
   xmlns:rdf="http://www.w3.org/1999/02/22-rdf-syntax-ns#"
   xmlns:svg="http://www.w3.org/2000/svg"
   xmlns="http://www.w3.org/2000/svg"
   xmlns:sodipodi="http://sodipodi.sourceforge.net/DTD/sodipodi-0.dtd"
   xmlns:inkscape="http://www.inkscape.org/namespaces/inkscape"
   inkscape:export-ydpi="96"
   inkscape:export-xdpi="96"
   inkscape:export-filename="D:\Calcatz\Icon Pack\Adventure Narative Inspired by Arrival\GUI\Navigation Buttons\Playstation\Dark\png\touchpad.png"
   sodipodi:docname="touchpad.svg"
   inkscape:version="1.0 (4035a4fb49, 2020-05-01)"
   id="svg6682"
   version="1.1"
   viewBox="0 0 8.4666662 8.4666662"
   height="31.999998"
   width="31.999998">
  <defs
     id="defs6676" />
  <sodipodi:namedview
     inkscape:window-maximized="1"
     inkscape:window-y="-8"
     inkscape:window-x="-8"
     inkscape:window-height="705"
     inkscape:window-width="1366"
     fit-margin-bottom="0"
     fit-margin-right="0"
     fit-margin-left="0"
     fit-margin-top="0"
     showgrid="false"
     inkscape:document-rotation="0"
     inkscape:current-layer="layer1"
     inkscape:document-units="mm"
     inkscape:cy="118.34066"
     inkscape:cx="201.47087"
     inkscape:zoom="1.2339194"
     inkscape:pageshadow="2"
     inkscape:pageopacity="0.0"
     borderopacity="1.0"
     bordercolor="#666666"
     pagecolor="#ffffff"
     id="base"
     units="px" />
  <metadata
     id="metadata6679">
    <rdf:RDF>
      <cc:Work
         rdf:about="">
        <dc:format>image/svg+xml</dc:format>
        <dc:type
           rdf:resource="http://purl.org/dc/dcmitype/StillImage" />
        <dc:title />
      </cc:Work>
    </rdf:RDF>
  </metadata>
  <g
     transform="translate(-101.59999,-143.93333)"
     id="layer1"
     inkscape:groupmode="layer"
     inkscape:label="Layer 1">
    <rect
       y="143.93333"
       x="101.59999"
       height="8.4666662"
       width="8.4666662"
       id="rect834"
       style="fill:#cccccc;fill-opacity:1;stroke-width:0.282461;stroke-linecap:round;paint-order:fill markers stroke" />
    <path
       d="m 104.15297,147.04219 h 3.36074 c 0.16841,0 0.304,0.13559 0.304,0.30401 v 1.64094 c 0,0.16842 -0.13559,0.30401 -0.304,0.30401 h -3.36074 c -0.16842,0 -0.30401,-0.13559 -0.30401,-0.30401 v -1.64094 c 0,-0.16842 0.13559,-0.30401 0.30401,-0.30401 z"
       style="fill:none;fill-opacity:1;stroke:#676767;stroke-width:0.276;stroke-linecap:round;stroke-miterlimit:4;stroke-dasharray:none;stroke-opacity:1;paint-order:markers stroke fill"
       id="rect4479" />
    <path
       id="path7286"
       d="m 104.43164,147.58008 a 0.0825,0.0825 0 0 0 -0.082,0.082 0.0825,0.0825 0 0 0 0.082,0.082 h 0.16602 a 0.0825,0.0825 0 0 0 0.082,-0.082 0.0825,0.0825 0 0 0 -0.082,-0.082 z m 0.82422,0 a 0.0825,0.0825 0 0 0 -0.082,0.082 0.0825,0.0825 0 0 0 0.082,0.082 h 0.16602 a 0.0825,0.0825 0 0 0 0.082,-0.082 0.0825,0.0825 0 0 0 -0.082,-0.082 z m 0.82617,0 a 0.0825,0.0825 0 0 0 -0.082,0.082 0.0825,0.0825 0 0 0 0.082,0.082 h 0.16406 a 0.0825,0.0825 0 0 0 0.084,-0.082 0.0825,0.0825 0 0 0 -0.084,-0.082 z m 0.82422,0 a 0.0825,0.0825 0 0 0 -0.082,0.082 0.0825,0.0825 0 0 0 0.082,0.082 h 0.16602 a 0.0825,0.0825 0 0 0 0.082,-0.082 0.0825,0.0825 0 0 0 -0.082,-0.082 z"
       style="color:#000000;font-style:normal;font-variant:normal;font-weight:normal;font-stretch:normal;font-size:medium;line-height:normal;font-family:sans-serif;font-variant-ligatures:normal;font-variant-position:normal;font-variant-caps:normal;font-variant-numeric:normal;font-variant-alternates:normal;font-variant-east-asian:normal;font-feature-settings:normal;font-variation-settings:normal;text-indent:0;text-align:start;text-decoration:none;text-decoration-line:none;text-decoration-style:solid;text-decoration-color:#000000;letter-spacing:normal;word-spacing:normal;text-transform:none;writing-mode:lr-tb;direction:ltr;text-orientation:mixed;dominant-baseline:auto;baseline-shift:baseline;text-anchor:start;white-space:normal;shape-padding:0;shape-margin:0;inline-size:0;clip-rule:nonzero;display:inline;overflow:visible;visibility:visible;isolation:auto;mix-blend-mode:normal;color-interpolation:sRGB;color-interpolation-filters:linearRGB;solid-color:#000000;solid-opacity:1;vector-effect:none;fill:#ffffff;fill-opacity:1;fill-rule:nonzero;stroke:none;stroke-width:0.165;stroke-linecap:round;stroke-linejoin:miter;stroke-miterlimit:4;stroke-dasharray:0.165, 0.66;stroke-dashoffset:0;stroke-opacity:1;color-rendering:auto;image-rendering:auto;shape-rendering:auto;text-rendering:auto;enable-background:accumulate;stop-color:#000000" />
    <path
       id="path7290"
       d="m 104.43164,148.08398 a 0.0825,0.0825 0 0 0 -0.082,0.082 0.0825,0.0825 0 0 0 0.082,0.084 h 0.16602 a 0.0825,0.0825 0 0 0 0.082,-0.084 0.0825,0.0825 0 0 0 -0.082,-0.082 z m 0.82422,0 a 0.0825,0.0825 0 0 0 -0.082,0.082 0.0825,0.0825 0 0 0 0.082,0.084 h 0.16602 a 0.0825,0.0825 0 0 0 0.082,-0.084 0.0825,0.0825 0 0 0 -0.082,-0.082 z m 0.82617,0 a 0.0825,0.0825 0 0 0 -0.082,0.082 0.0825,0.0825 0 0 0 0.082,0.084 h 0.16406 a 0.0825,0.0825 0 0 0 0.084,-0.084 0.0825,0.0825 0 0 0 -0.084,-0.082 z m 0.82422,0 a 0.0825,0.0825 0 0 0 -0.082,0.082 0.0825,0.0825 0 0 0 0.082,0.084 h 0.16602 a 0.0825,0.0825 0 0 0 0.082,-0.084 0.0825,0.0825 0 0 0 -0.082,-0.082 z"
       style="color:#000000;font-style:normal;font-variant:normal;font-weight:normal;font-stretch:normal;font-size:medium;line-height:normal;font-family:sans-serif;font-variant-ligatures:normal;font-variant-position:normal;font-variant-caps:normal;font-variant-numeric:normal;font-variant-alternates:normal;font-variant-east-asian:normal;font-feature-settings:normal;font-variation-settings:normal;text-indent:0;text-align:start;text-decoration:none;text-decoration-line:none;text-decoration-style:solid;text-decoration-color:#000000;letter-spacing:normal;word-spacing:normal;text-transform:none;writing-mode:lr-tb;direction:ltr;text-orientation:mixed;dominant-baseline:auto;baseline-shift:baseline;text-anchor:start;white-space:normal;shape-padding:0;shape-margin:0;inline-size:0;clip-rule:nonzero;display:inline;overflow:visible;visibility:visible;isolation:auto;mix-blend-mode:normal;color-interpolation:sRGB;color-interpolation-filters:linearRGB;solid-color:#000000;solid-opacity:1;vector-effect:none;fill:#ffffff;fill-opacity:1;fill-rule:nonzero;stroke:none;stroke-width:0.165;stroke-linecap:round;stroke-linejoin:miter;stroke-miterlimit:4;stroke-dasharray:0.165, 0.66;stroke-dashoffset:0;stroke-opacity:1;color-rendering:auto;image-rendering:auto;shape-rendering:auto;text-rendering:auto;enable-background:accumulate;stop-color:#000000" />
    <path
       id="path7294"
       d="m 104.43164,148.58789 a 0.0825,0.0825 0 0 0 -0.082,0.084 0.0825,0.0825 0 0 0 0.082,0.082 h 0.16602 a 0.0825,0.0825 0 0 0 0.082,-0.082 0.0825,0.0825 0 0 0 -0.082,-0.084 z m 0.82422,0 a 0.0825,0.0825 0 0 0 -0.082,0.084 0.0825,0.0825 0 0 0 0.082,0.082 h 0.16602 a 0.0825,0.0825 0 0 0 0.082,-0.082 0.0825,0.0825 0 0 0 -0.082,-0.084 z m 0.82617,0 a 0.0825,0.0825 0 0 0 -0.082,0.084 0.0825,0.0825 0 0 0 0.082,0.082 h 0.16406 a 0.0825,0.0825 0 0 0 0.084,-0.082 0.0825,0.0825 0 0 0 -0.084,-0.084 z m 0.82422,0 a 0.0825,0.0825 0 0 0 -0.082,0.084 0.0825,0.0825 0 0 0 0.082,0.082 h 0.16602 a 0.0825,0.0825 0 0 0 0.082,-0.082 0.0825,0.0825 0 0 0 -0.082,-0.084 z"
       style="color:#000000;font-style:normal;font-variant:normal;font-weight:normal;font-stretch:normal;font-size:medium;line-height:normal;font-family:sans-serif;font-variant-ligatures:normal;font-variant-position:normal;font-variant-caps:normal;font-variant-numeric:normal;font-variant-alternates:normal;font-variant-east-asian:normal;font-feature-settings:normal;font-variation-settings:normal;text-indent:0;text-align:start;text-decoration:none;text-decoration-line:none;text-decoration-style:solid;text-decoration-color:#000000;letter-spacing:normal;word-spacing:normal;text-transform:none;writing-mode:lr-tb;direction:ltr;text-orientation:mixed;dominant-baseline:auto;baseline-shift:baseline;text-anchor:start;white-space:normal;shape-padding:0;shape-margin:0;inline-size:0;clip-rule:nonzero;display:inline;overflow:visible;visibility:visible;isolation:auto;mix-blend-mode:normal;color-interpolation:sRGB;color-interpolation-filters:linearRGB;solid-color:#000000;solid-opacity:1;vector-effect:none;fill:#ffffff;fill-opacity:1;fill-rule:nonzero;stroke:none;stroke-width:0.165;stroke-linecap:round;stroke-linejoin:miter;stroke-miterlimit:4;stroke-dasharray:0.165, 0.66;stroke-dashoffset:0;stroke-opacity:1;color-rendering:auto;image-rendering:auto;shape-rendering:auto;text-rendering:auto;enable-background:accumulate;stop-color:#000000" />
    <rect
       inkscape:export-ydpi="96"
       inkscape:export-xdpi="96"
       inkscape:export-filename="D:\Calcatz\Icon Pack\Adventure Narative Inspired by Arrival\GUI\Navigation Buttons\Playstation\Dark\png\64px\touchpad.png"
       style="fill:#cccccc;fill-opacity:1;stroke-width:0.564922;stroke-linecap:round;paint-order:fill markers stroke"
       id="rect836"
       width="16.933332"
       height="16.933332"
       x="111.5312"
       y="143.93333" />
    <path
       id="path838"
       style="fill:none;fill-opacity:1;stroke:#676767;stroke-width:0.552;stroke-linecap:round;stroke-miterlimit:4;stroke-dasharray:none;stroke-opacity:1;paint-order:markers stroke fill"
       d="m 116.63716,150.15105 h 6.72148 c 0.33682,0 0.608,0.27118 0.608,0.60802 v 3.28188 c 0,0.33684 -0.27118,0.60802 -0.608,0.60802 h -6.72148 c -0.33684,0 -0.60802,-0.27118 -0.60802,-0.60802 v -3.28188 c 0,-0.33684 0.27118,-0.60802 0.60802,-0.60802 z" />
    <path
       style="color:#000000;font-style:normal;font-variant:normal;font-weight:normal;font-stretch:normal;font-size:medium;line-height:normal;font-family:sans-serif;font-variant-ligatures:normal;font-variant-position:normal;font-variant-caps:normal;font-variant-numeric:normal;font-variant-alternates:normal;font-variant-east-asian:normal;font-feature-settings:normal;font-variation-settings:normal;text-indent:0;text-align:start;text-decoration:none;text-decoration-line:none;text-decoration-style:solid;text-decoration-color:#000000;letter-spacing:normal;word-spacing:normal;text-transform:none;writing-mode:lr-tb;direction:ltr;text-orientation:mixed;dominant-baseline:auto;baseline-shift:baseline;text-anchor:start;white-space:normal;shape-padding:0;shape-margin:0;inline-size:0;clip-rule:nonzero;display:inline;overflow:visible;visibility:visible;isolation:auto;mix-blend-mode:normal;color-interpolation:sRGB;color-interpolation-filters:linearRGB;solid-color:#000000;solid-opacity:1;vector-effect:none;fill:#ffffff;fill-opacity:1;fill-rule:nonzero;stroke:none;stroke-width:0.33;stroke-linecap:round;stroke-linejoin:miter;stroke-miterlimit:4;stroke-dasharray:0.33, 1.32;stroke-dashoffset:0;stroke-opacity:1;color-rendering:auto;image-rendering:auto;shape-rendering:auto;text-rendering:auto;enable-background:accumulate;stop-color:#000000"
       d="m 117.1945,151.22683 a 0.165,0.165 0 0 0 -0.164,0.164 0.165,0.165 0 0 0 0.164,0.164 h 0.33204 a 0.165,0.165 0 0 0 0.164,-0.164 0.165,0.165 0 0 0 -0.164,-0.164 z m 1.64844,0 a 0.165,0.165 0 0 0 -0.164,0.164 0.165,0.165 0 0 0 0.164,0.164 h 0.33204 a 0.165,0.165 0 0 0 0.164,-0.164 0.165,0.165 0 0 0 -0.164,-0.164 z m 1.65234,0 a 0.165,0.165 0 0 0 -0.164,0.164 0.165,0.165 0 0 0 0.164,0.164 h 0.32812 a 0.165,0.165 0 0 0 0.168,-0.164 0.165,0.165 0 0 0 -0.168,-0.164 z m 1.64844,0 a 0.165,0.165 0 0 0 -0.164,0.164 0.165,0.165 0 0 0 0.164,0.164 h 0.33204 a 0.165,0.165 0 0 0 0.164,-0.164 0.165,0.165 0 0 0 -0.164,-0.164 z"
       id="path840" />
    <path
       style="color:#000000;font-style:normal;font-variant:normal;font-weight:normal;font-stretch:normal;font-size:medium;line-height:normal;font-family:sans-serif;font-variant-ligatures:normal;font-variant-position:normal;font-variant-caps:normal;font-variant-numeric:normal;font-variant-alternates:normal;font-variant-east-asian:normal;font-feature-settings:normal;font-variation-settings:normal;text-indent:0;text-align:start;text-decoration:none;text-decoration-line:none;text-decoration-style:solid;text-decoration-color:#000000;letter-spacing:normal;word-spacing:normal;text-transform:none;writing-mode:lr-tb;direction:ltr;text-orientation:mixed;dominant-baseline:auto;baseline-shift:baseline;text-anchor:start;white-space:normal;shape-padding:0;shape-margin:0;inline-size:0;clip-rule:nonzero;display:inline;overflow:visible;visibility:visible;isolation:auto;mix-blend-mode:normal;color-interpolation:sRGB;color-interpolation-filters:linearRGB;solid-color:#000000;solid-opacity:1;vector-effect:none;fill:#ffffff;fill-opacity:1;fill-rule:nonzero;stroke:none;stroke-width:0.33;stroke-linecap:round;stroke-linejoin:miter;stroke-miterlimit:4;stroke-dasharray:0.33, 1.32;stroke-dashoffset:0;stroke-opacity:1;color-rendering:auto;image-rendering:auto;shape-rendering:auto;text-rendering:auto;enable-background:accumulate;stop-color:#000000"
       d="m 117.1945,152.23463 a 0.165,0.165 0 0 0 -0.164,0.164 0.165,0.165 0 0 0 0.164,0.168 h 0.33204 a 0.165,0.165 0 0 0 0.164,-0.168 0.165,0.165 0 0 0 -0.164,-0.164 z m 1.64844,0 a 0.165,0.165 0 0 0 -0.164,0.164 0.165,0.165 0 0 0 0.164,0.168 h 0.33204 a 0.165,0.165 0 0 0 0.164,-0.168 0.165,0.165 0 0 0 -0.164,-0.164 z m 1.65234,0 a 0.165,0.165 0 0 0 -0.164,0.164 0.165,0.165 0 0 0 0.164,0.168 h 0.32812 a 0.165,0.165 0 0 0 0.168,-0.168 0.165,0.165 0 0 0 -0.168,-0.164 z m 1.64844,0 a 0.165,0.165 0 0 0 -0.164,0.164 0.165,0.165 0 0 0 0.164,0.168 h 0.33204 a 0.165,0.165 0 0 0 0.164,-0.168 0.165,0.165 0 0 0 -0.164,-0.164 z"
       id="path842" />
    <path
       style="color:#000000;font-style:normal;font-variant:normal;font-weight:normal;font-stretch:normal;font-size:medium;line-height:normal;font-family:sans-serif;font-variant-ligatures:normal;font-variant-position:normal;font-variant-caps:normal;font-variant-numeric:normal;font-variant-alternates:normal;font-variant-east-asian:normal;font-feature-settings:normal;font-variation-settings:normal;text-indent:0;text-align:start;text-decoration:none;text-decoration-line:none;text-decoration-style:solid;text-decoration-color:#000000;letter-spacing:normal;word-spacing:normal;text-transform:none;writing-mode:lr-tb;direction:ltr;text-orientation:mixed;dominant-baseline:auto;baseline-shift:baseline;text-anchor:start;white-space:normal;shape-padding:0;shape-margin:0;inline-size:0;clip-rule:nonzero;display:inline;overflow:visible;visibility:visible;isolation:auto;mix-blend-mode:normal;color-interpolation:sRGB;color-interpolation-filters:linearRGB;solid-color:#000000;solid-opacity:1;vector-effect:none;fill:#ffffff;fill-opacity:1;fill-rule:nonzero;stroke:none;stroke-width:0.33;stroke-linecap:round;stroke-linejoin:miter;stroke-miterlimit:4;stroke-dasharray:0.33, 1.32;stroke-dashoffset:0;stroke-opacity:1;color-rendering:auto;image-rendering:auto;shape-rendering:auto;text-rendering:auto;enable-background:accumulate;stop-color:#000000"
       d="m 117.1945,153.24245 a 0.165,0.165 0 0 0 -0.164,0.168 0.165,0.165 0 0 0 0.164,0.164 h 0.33204 a 0.165,0.165 0 0 0 0.164,-0.164 0.165,0.165 0 0 0 -0.164,-0.168 z m 1.64844,0 a 0.165,0.165 0 0 0 -0.164,0.168 0.165,0.165 0 0 0 0.164,0.164 h 0.33204 a 0.165,0.165 0 0 0 0.164,-0.164 0.165,0.165 0 0 0 -0.164,-0.168 z m 1.65234,0 a 0.165,0.165 0 0 0 -0.164,0.168 0.165,0.165 0 0 0 0.164,0.164 h 0.32812 a 0.165,0.165 0 0 0 0.168,-0.164 0.165,0.165 0 0 0 -0.168,-0.168 z m 1.64844,0 a 0.165,0.165 0 0 0 -0.164,0.168 0.165,0.165 0 0 0 0.164,0.164 h 0.33204 a 0.165,0.165 0 0 0 0.164,-0.164 0.165,0.165 0 0 0 -0.164,-0.168 z"
       id="path844" />
    <rect
       inkscape:export-ydpi="96"
       inkscape:export-xdpi="96"
       inkscape:export-filename="D:\Calcatz\Icon Pack\Adventure Narative Inspired by Arrival\GUI\Navigation Buttons\Playstation\Dark\png\128px\touchpad.png"
       y="143.93333"
       x="131.04388"
       height="33.866665"
       width="33.866665"
       id="rect846"
       style="fill:#cccccc;fill-opacity:1;stroke-width:1.12984;stroke-linecap:round;paint-order:fill markers stroke" />
    <path
       d="m 141.25582,156.36877 h 13.44296 c 0.67364,0 1.216,0.54236 1.216,1.21604 v 6.56376 c 0,0.67368 -0.54236,1.21604 -1.216,1.21604 h -13.44296 c -0.67368,0 -1.21604,-0.54236 -1.21604,-1.21604 v -6.56376 c 0,-0.67368 0.54236,-1.21604 1.21604,-1.21604 z"
       style="fill:none;fill-opacity:1;stroke:#676767;stroke-width:1.104;stroke-linecap:round;stroke-miterlimit:4;stroke-dasharray:none;stroke-opacity:1;paint-order:markers stroke fill"
       id="path848" />
    <path
       id="path850"
       d="m 142.3705,158.52033 a 0.33,0.33 0 0 0 -0.328,0.328 0.33,0.33 0 0 0 0.328,0.328 h 0.66408 a 0.33,0.33 0 0 0 0.328,-0.328 0.33,0.33 0 0 0 -0.328,-0.328 z m 3.29688,0 a 0.33,0.33 0 0 0 -0.328,0.328 0.33,0.33 0 0 0 0.328,0.328 h 0.66408 a 0.33,0.33 0 0 0 0.328,-0.328 0.33,0.33 0 0 0 -0.328,-0.328 z m 3.30468,0 a 0.33,0.33 0 0 0 -0.328,0.328 0.33,0.33 0 0 0 0.328,0.328 h 0.65624 a 0.33,0.33 0 0 0 0.336,-0.328 0.33,0.33 0 0 0 -0.336,-0.328 z m 3.29688,0 a 0.33,0.33 0 0 0 -0.328,0.328 0.33,0.33 0 0 0 0.328,0.328 h 0.66408 a 0.33,0.33 0 0 0 0.328,-0.328 0.33,0.33 0 0 0 -0.328,-0.328 z"
       style="color:#000000;font-style:normal;font-variant:normal;font-weight:normal;font-stretch:normal;font-size:medium;line-height:normal;font-family:sans-serif;font-variant-ligatures:normal;font-variant-position:normal;font-variant-caps:normal;font-variant-numeric:normal;font-variant-alternates:normal;font-variant-east-asian:normal;font-feature-settings:normal;font-variation-settings:normal;text-indent:0;text-align:start;text-decoration:none;text-decoration-line:none;text-decoration-style:solid;text-decoration-color:#000000;letter-spacing:normal;word-spacing:normal;text-transform:none;writing-mode:lr-tb;direction:ltr;text-orientation:mixed;dominant-baseline:auto;baseline-shift:baseline;text-anchor:start;white-space:normal;shape-padding:0;shape-margin:0;inline-size:0;clip-rule:nonzero;display:inline;overflow:visible;visibility:visible;isolation:auto;mix-blend-mode:normal;color-interpolation:sRGB;color-interpolation-filters:linearRGB;solid-color:#000000;solid-opacity:1;vector-effect:none;fill:#ffffff;fill-opacity:1;fill-rule:nonzero;stroke:none;stroke-width:0.66;stroke-linecap:round;stroke-linejoin:miter;stroke-miterlimit:4;stroke-dasharray:0.66, 2.64;stroke-dashoffset:0;stroke-opacity:1;color-rendering:auto;image-rendering:auto;shape-rendering:auto;text-rendering:auto;enable-background:accumulate;stop-color:#000000" />
    <path
       id="path852"
       d="m 142.3705,160.53593 a 0.33,0.33 0 0 0 -0.328,0.328 0.33,0.33 0 0 0 0.328,0.336 h 0.66408 a 0.33,0.33 0 0 0 0.328,-0.336 0.33,0.33 0 0 0 -0.328,-0.328 z m 3.29688,0 a 0.33,0.33 0 0 0 -0.328,0.328 0.33,0.33 0 0 0 0.328,0.336 h 0.66408 a 0.33,0.33 0 0 0 0.328,-0.336 0.33,0.33 0 0 0 -0.328,-0.328 z m 3.30468,0 a 0.33,0.33 0 0 0 -0.328,0.328 0.33,0.33 0 0 0 0.328,0.336 h 0.65624 a 0.33,0.33 0 0 0 0.336,-0.336 0.33,0.33 0 0 0 -0.336,-0.328 z m 3.29688,0 a 0.33,0.33 0 0 0 -0.328,0.328 0.33,0.33 0 0 0 0.328,0.336 h 0.66408 a 0.33,0.33 0 0 0 0.328,-0.336 0.33,0.33 0 0 0 -0.328,-0.328 z"
       style="color:#000000;font-style:normal;font-variant:normal;font-weight:normal;font-stretch:normal;font-size:medium;line-height:normal;font-family:sans-serif;font-variant-ligatures:normal;font-variant-position:normal;font-variant-caps:normal;font-variant-numeric:normal;font-variant-alternates:normal;font-variant-east-asian:normal;font-feature-settings:normal;font-variation-settings:normal;text-indent:0;text-align:start;text-decoration:none;text-decoration-line:none;text-decoration-style:solid;text-decoration-color:#000000;letter-spacing:normal;word-spacing:normal;text-transform:none;writing-mode:lr-tb;direction:ltr;text-orientation:mixed;dominant-baseline:auto;baseline-shift:baseline;text-anchor:start;white-space:normal;shape-padding:0;shape-margin:0;inline-size:0;clip-rule:nonzero;display:inline;overflow:visible;visibility:visible;isolation:auto;mix-blend-mode:normal;color-interpolation:sRGB;color-interpolation-filters:linearRGB;solid-color:#000000;solid-opacity:1;vector-effect:none;fill:#ffffff;fill-opacity:1;fill-rule:nonzero;stroke:none;stroke-width:0.66;stroke-linecap:round;stroke-linejoin:miter;stroke-miterlimit:4;stroke-dasharray:0.66, 2.64;stroke-dashoffset:0;stroke-opacity:1;color-rendering:auto;image-rendering:auto;shape-rendering:auto;text-rendering:auto;enable-background:accumulate;stop-color:#000000" />
    <path
       id="path854"
       d="m 142.3705,162.55157 a 0.33,0.33 0 0 0 -0.328,0.336 0.33,0.33 0 0 0 0.328,0.328 h 0.66408 a 0.33,0.33 0 0 0 0.328,-0.328 0.33,0.33 0 0 0 -0.328,-0.336 z m 3.29688,0 a 0.33,0.33 0 0 0 -0.328,0.336 0.33,0.33 0 0 0 0.328,0.328 h 0.66408 a 0.33,0.33 0 0 0 0.328,-0.328 0.33,0.33 0 0 0 -0.328,-0.336 z m 3.30468,0 a 0.33,0.33 0 0 0 -0.328,0.336 0.33,0.33 0 0 0 0.328,0.328 h 0.65624 a 0.33,0.33 0 0 0 0.336,-0.328 0.33,0.33 0 0 0 -0.336,-0.336 z m 3.29688,0 a 0.33,0.33 0 0 0 -0.328,0.336 0.33,0.33 0 0 0 0.328,0.328 h 0.66408 a 0.33,0.33 0 0 0 0.328,-0.328 0.33,0.33 0 0 0 -0.328,-0.336 z"
       style="color:#000000;font-style:normal;font-variant:normal;font-weight:normal;font-stretch:normal;font-size:medium;line-height:normal;font-family:sans-serif;font-variant-ligatures:normal;font-variant-position:normal;font-variant-caps:normal;font-variant-numeric:normal;font-variant-alternates:normal;font-variant-east-asian:normal;font-feature-settings:normal;font-variation-settings:normal;text-indent:0;text-align:start;text-decoration:none;text-decoration-line:none;text-decoration-style:solid;text-decoration-color:#000000;letter-spacing:normal;word-spacing:normal;text-transform:none;writing-mode:lr-tb;direction:ltr;text-orientation:mixed;dominant-baseline:auto;baseline-shift:baseline;text-anchor:start;white-space:normal;shape-padding:0;shape-margin:0;inline-size:0;clip-rule:nonzero;display:inline;overflow:visible;visibility:visible;isolation:auto;mix-blend-mode:normal;color-interpolation:sRGB;color-interpolation-filters:linearRGB;solid-color:#000000;solid-opacity:1;vector-effect:none;fill:#ffffff;fill-opacity:1;fill-rule:nonzero;stroke:none;stroke-width:0.66;stroke-linecap:round;stroke-linejoin:miter;stroke-miterlimit:4;stroke-dasharray:0.66, 2.64;stroke-dashoffset:0;stroke-opacity:1;color-rendering:auto;image-rendering:auto;shape-rendering:auto;text-rendering:auto;enable-background:accumulate;stop-color:#000000" />
    <rect
       inkscape:export-ydpi="96"
       inkscape:export-xdpi="96"
       inkscape:export-filename="D:\Calcatz\Icon Pack\Adventure Narative Inspired by Arrival\GUI\Navigation Buttons\Playstation\Dark\png\256px\touchpad.png"
       style="fill:#cccccc;fill-opacity:1;stroke-width:2.25968;stroke-linecap:round;paint-order:fill markers stroke"
       id="rect856"
       width="67.73333"
       height="67.73333"
       x="170.28369"
       y="143.93333" />
    <path
       id="path858"
       style="fill:none;fill-opacity:1;stroke:#676767;stroke-width:2.208;stroke-linecap:round;stroke-miterlimit:4;stroke-dasharray:none;stroke-opacity:1;paint-order:markers stroke fill"
       d="m 190.70755,168.80421 h 26.88592 c 1.34728,0 2.432,1.08472 2.432,2.43208 v 13.12752 c 0,1.34736 -1.08472,2.43208 -2.432,2.43208 h -26.88592 c -1.34736,0 -2.43208,-1.08472 -2.43208,-2.43208 v -13.12752 c 0,-1.34736 1.08472,-2.43208 2.43208,-2.43208 z" />
    <path
       style="color:#000000;font-style:normal;font-variant:normal;font-weight:normal;font-stretch:normal;font-size:medium;line-height:normal;font-family:sans-serif;font-variant-ligatures:normal;font-variant-position:normal;font-variant-caps:normal;font-variant-numeric:normal;font-variant-alternates:normal;font-variant-east-asian:normal;font-feature-settings:normal;font-variation-settings:normal;text-indent:0;text-align:start;text-decoration:none;text-decoration-line:none;text-decoration-style:solid;text-decoration-color:#000000;letter-spacing:normal;word-spacing:normal;text-transform:none;writing-mode:lr-tb;direction:ltr;text-orientation:mixed;dominant-baseline:auto;baseline-shift:baseline;text-anchor:start;white-space:normal;shape-padding:0;shape-margin:0;inline-size:0;clip-rule:nonzero;display:inline;overflow:visible;visibility:visible;isolation:auto;mix-blend-mode:normal;color-interpolation:sRGB;color-interpolation-filters:linearRGB;solid-color:#000000;solid-opacity:1;vector-effect:none;fill:#ffffff;fill-opacity:1;fill-rule:nonzero;stroke:none;stroke-width:1.32;stroke-linecap:round;stroke-linejoin:miter;stroke-miterlimit:4;stroke-dasharray:1.32, 5.28;stroke-dashoffset:0;stroke-opacity:1;color-rendering:auto;image-rendering:auto;shape-rendering:auto;text-rendering:auto;enable-background:accumulate;stop-color:#000000"
       d="m 192.93691,173.10733 a 0.66,0.66 0 0 0 -0.656,0.656 0.66,0.66 0 0 0 0.656,0.656 h 1.32816 a 0.66,0.66 0 0 0 0.656,-0.656 0.66,0.66 0 0 0 -0.656,-0.656 z m 6.59376,0 a 0.66,0.66 0 0 0 -0.656,0.656 0.66,0.66 0 0 0 0.656,0.656 h 1.32816 a 0.66,0.66 0 0 0 0.656,-0.656 0.66,0.66 0 0 0 -0.656,-0.656 z m 6.60936,0 a 0.66,0.66 0 0 0 -0.656,0.656 0.66,0.66 0 0 0 0.656,0.656 h 1.31248 a 0.66,0.66 0 0 0 0.672,-0.656 0.66,0.66 0 0 0 -0.672,-0.656 z m 6.59376,0 a 0.66,0.66 0 0 0 -0.656,0.656 0.66,0.66 0 0 0 0.656,0.656 h 1.32816 a 0.66,0.66 0 0 0 0.656,-0.656 0.66,0.66 0 0 0 -0.656,-0.656 z"
       id="path860" />
    <path
       style="color:#000000;font-style:normal;font-variant:normal;font-weight:normal;font-stretch:normal;font-size:medium;line-height:normal;font-family:sans-serif;font-variant-ligatures:normal;font-variant-position:normal;font-variant-caps:normal;font-variant-numeric:normal;font-variant-alternates:normal;font-variant-east-asian:normal;font-feature-settings:normal;font-variation-settings:normal;text-indent:0;text-align:start;text-decoration:none;text-decoration-line:none;text-decoration-style:solid;text-decoration-color:#000000;letter-spacing:normal;word-spacing:normal;text-transform:none;writing-mode:lr-tb;direction:ltr;text-orientation:mixed;dominant-baseline:auto;baseline-shift:baseline;text-anchor:start;white-space:normal;shape-padding:0;shape-margin:0;inline-size:0;clip-rule:nonzero;display:inline;overflow:visible;visibility:visible;isolation:auto;mix-blend-mode:normal;color-interpolation:sRGB;color-interpolation-filters:linearRGB;solid-color:#000000;solid-opacity:1;vector-effect:none;fill:#ffffff;fill-opacity:1;fill-rule:nonzero;stroke:none;stroke-width:1.32;stroke-linecap:round;stroke-linejoin:miter;stroke-miterlimit:4;stroke-dasharray:1.32, 5.28;stroke-dashoffset:0;stroke-opacity:1;color-rendering:auto;image-rendering:auto;shape-rendering:auto;text-rendering:auto;enable-background:accumulate;stop-color:#000000"
       d="m 192.93691,177.13853 a 0.66,0.66 0 0 0 -0.656,0.656 0.66,0.66 0 0 0 0.656,0.672 h 1.32816 a 0.66,0.66 0 0 0 0.656,-0.672 0.66,0.66 0 0 0 -0.656,-0.656 z m 6.59376,0 a 0.66,0.66 0 0 0 -0.656,0.656 0.66,0.66 0 0 0 0.656,0.672 h 1.32816 a 0.66,0.66 0 0 0 0.656,-0.672 0.66,0.66 0 0 0 -0.656,-0.656 z m 6.60936,0 a 0.66,0.66 0 0 0 -0.656,0.656 0.66,0.66 0 0 0 0.656,0.672 h 1.31248 a 0.66,0.66 0 0 0 0.672,-0.672 0.66,0.66 0 0 0 -0.672,-0.656 z m 6.59376,0 a 0.66,0.66 0 0 0 -0.656,0.656 0.66,0.66 0 0 0 0.656,0.672 h 1.32816 a 0.66,0.66 0 0 0 0.656,-0.672 0.66,0.66 0 0 0 -0.656,-0.656 z"
       id="path862" />
    <path
       style="color:#000000;font-style:normal;font-variant:normal;font-weight:normal;font-stretch:normal;font-size:medium;line-height:normal;font-family:sans-serif;font-variant-ligatures:normal;font-variant-position:normal;font-variant-caps:normal;font-variant-numeric:normal;font-variant-alternates:normal;font-variant-east-asian:normal;font-feature-settings:normal;font-variation-settings:normal;text-indent:0;text-align:start;text-decoration:none;text-decoration-line:none;text-decoration-style:solid;text-decoration-color:#000000;letter-spacing:normal;word-spacing:normal;text-transform:none;writing-mode:lr-tb;direction:ltr;text-orientation:mixed;dominant-baseline:auto;baseline-shift:baseline;text-anchor:start;white-space:normal;shape-padding:0;shape-margin:0;inline-size:0;clip-rule:nonzero;display:inline;overflow:visible;visibility:visible;isolation:auto;mix-blend-mode:normal;color-interpolation:sRGB;color-interpolation-filters:linearRGB;solid-color:#000000;solid-opacity:1;vector-effect:none;fill:#ffffff;fill-opacity:1;fill-rule:nonzero;stroke:none;stroke-width:1.32;stroke-linecap:round;stroke-linejoin:miter;stroke-miterlimit:4;stroke-dasharray:1.32, 5.28;stroke-dashoffset:0;stroke-opacity:1;color-rendering:auto;image-rendering:auto;shape-rendering:auto;text-rendering:auto;enable-background:accumulate;stop-color:#000000"
       d="m 192.93691,181.16981 a 0.66,0.66 0 0 0 -0.656,0.672 0.66,0.66 0 0 0 0.656,0.656 h 1.32816 a 0.66,0.66 0 0 0 0.656,-0.656 0.66,0.66 0 0 0 -0.656,-0.672 z m 6.59376,0 a 0.66,0.66 0 0 0 -0.656,0.672 0.66,0.66 0 0 0 0.656,0.656 h 1.32816 a 0.66,0.66 0 0 0 0.656,-0.656 0.66,0.66 0 0 0 -0.656,-0.672 z m 6.60936,0 a 0.66,0.66 0 0 0 -0.656,0.672 0.66,0.66 0 0 0 0.656,0.656 h 1.31248 a 0.66,0.66 0 0 0 0.672,-0.656 0.66,0.66 0 0 0 -0.672,-0.672 z m 6.59376,0 a 0.66,0.66 0 0 0 -0.656,0.672 0.66,0.66 0 0 0 0.656,0.656 h 1.32816 a 0.66,0.66 0 0 0 0.656,-0.656 0.66,0.66 0 0 0 -0.656,-0.672 z"
       id="path864" />
  </g>
</svg>
