<?xml version="1.0" encoding="UTF-8" standalone="no"?>
<svg
   xmlns:dc="http://purl.org/dc/elements/1.1/"
   xmlns:cc="http://creativecommons.org/ns#"
   xmlns:rdf="http://www.w3.org/1999/02/22-rdf-syntax-ns#"
   xmlns:svg="http://www.w3.org/2000/svg"
   xmlns="http://www.w3.org/2000/svg"
   xmlns:sodipodi="http://sodipodi.sourceforge.net/DTD/sodipodi-0.dtd"
   xmlns:inkscape="http://www.inkscape.org/namespaces/inkscape"
   inkscape:export-ydpi="96"
   inkscape:export-xdpi="96"
   inkscape:export-filename="D:\Calcatz\Icon Pack\Adventure Narative Inspired by Arrival\GUI\Obtain Logogram\png\background - light_detail.png"
   sodipodi:docname="background - light_detail.svg"
   inkscape:version="1.0 (4035a4fb49, 2020-05-01)"
   id="svg2640"
   version="1.1"
   viewBox="0 0 594.78131 225.05629"
   height="225.05629mm"
   width="594.78131mm">
  <defs
     id="defs2634">
    <filter
       height="1.7321285"
       y="-0.36606422"
       width="1.1903827"
       x="-0.095191374"
       id="filter10558-0"
       style="color-interpolation-filters:sRGB"
       inkscape:collect="always">
      <feGaussianBlur
         id="feGaussianBlur10560-4"
         stdDeviation="19.817874"
         inkscape:collect="always" />
    </filter>
  </defs>
  <sodipodi:namedview
     inkscape:window-maximized="1"
     inkscape:window-y="-8"
     inkscape:window-x="-8"
     inkscape:window-height="705"
     inkscape:window-width="1366"
     fit-margin-bottom="0"
     fit-margin-right="0"
     fit-margin-left="0"
     fit-margin-top="0"
     showgrid="false"
     inkscape:document-rotation="0"
     inkscape:current-layer="layer1"
     inkscape:document-units="mm"
     inkscape:cy="672.40601"
     inkscape:cx="1163.4195"
     inkscape:zoom="0.33557348"
     inkscape:pageshadow="2"
     inkscape:pageopacity="0.0"
     borderopacity="1.0"
     bordercolor="#666666"
     pagecolor="#ffffff"
     id="base" />
  <metadata
     id="metadata2637">
    <rdf:RDF>
      <cc:Work
         rdf:about="">
        <dc:format>image/svg+xml</dc:format>
        <dc:type
           rdf:resource="http://purl.org/dc/dcmitype/StillImage" />
        <dc:title></dc:title>
      </cc:Work>
    </rdf:RDF>
  </metadata>
  <g
     transform="translate(201.98806,29.740757)"
     id="layer1"
     inkscape:groupmode="layer"
     inkscape:label="Layer 1">
    <path
       clip-path="none"
       d="m -85.519138,147.75262 c 47.8323,-20.69545 43.2331,-20.43913 103.8087,-36.23512 26.0417,-6.79069 51.8379,-16.926414 78.7337,-17.875684 25.813298,-0.91098 51.127298,7.508934 76.489898,12.397174 20.7456,3.99833 40.7219,16.18985 61.7599,14.24845 30.2494,-2.79155 57.8275,-18.6351 86.7413,-27.952544 30.9547,0 30.9547,-43.776554 0,-43.776554 v 0 c -28.9138,1.72173 -57.8275,3.44333 -86.7413,5.16507 -20.5866,4.7154 -40.7271,12.230821 -61.7599,14.146241 -25.3968,2.31286 -50.9891,-1.79626 -76.489898,-1.55618 -26.2627,0.2472 -52.6636,6.201713 -78.7337,3.0177 -58.9003,-7.193931 -64.0156,-19.123561 -103.8087,-51.509031 -91.874702,0 -91.874702,129.930478 0,129.930478 z"
       id="path11982"
       style="opacity:1;fill:#e2e2e2;fill-opacity:1;stroke:none;stroke-width:1.1554;stroke-linecap:round;stroke-miterlimit:4;stroke-dasharray:none;stroke-opacity:1;paint-order:markers stroke fill;filter:url(#filter10558-0)" />
  </g>
</svg>
