<?xml version="1.0" encoding="UTF-8" standalone="no"?>
<svg
   xmlns:dc="http://purl.org/dc/elements/1.1/"
   xmlns:cc="http://creativecommons.org/ns#"
   xmlns:rdf="http://www.w3.org/1999/02/22-rdf-syntax-ns#"
   xmlns:svg="http://www.w3.org/2000/svg"
   xmlns="http://www.w3.org/2000/svg"
   xmlns:sodipodi="http://sodipodi.sourceforge.net/DTD/sodipodi-0.dtd"
   xmlns:inkscape="http://www.inkscape.org/namespaces/inkscape"
   inkscape:export-ydpi="96"
   inkscape:export-xdpi="96"
   inkscape:export-filename="D:\Calcatz\Icon Pack\Adventure Narative Inspired by Arrival\GUI\Obtain Logogram\png\background - horizontal_line.png"
   sodipodi:docname="background - horizontal_line.svg"
   inkscape:version="1.0 (4035a4fb49, 2020-05-01)"
   id="svg7256"
   version="1.1"
   viewBox="0 0 361.42072 1.9116181"
   height="1.9116181mm"
   width="361.42072mm">
  <defs
     id="defs7250" />
  <sodipodi:namedview
     inkscape:window-maximized="1"
     inkscape:window-y="-8"
     inkscape:window-x="-8"
     inkscape:window-height="705"
     inkscape:window-width="1366"
     fit-margin-bottom="0"
     fit-margin-right="0"
     fit-margin-left="0"
     fit-margin-top="0"
     showgrid="false"
     inkscape:document-rotation="0"
     inkscape:current-layer="layer1"
     inkscape:document-units="mm"
     inkscape:cy="262.6352"
     inkscape:cx="874.40167"
     inkscape:zoom="0.33557348"
     inkscape:pageshadow="2"
     inkscape:pageopacity="0.0"
     borderopacity="1.0"
     bordercolor="#666666"
     pagecolor="#ffffff"
     id="base" />
  <metadata
     id="metadata7253">
    <rdf:RDF>
      <cc:Work
         rdf:about="">
        <dc:format>image/svg+xml</dc:format>
        <dc:type
           rdf:resource="http://purl.org/dc/dcmitype/StillImage" />
        <dc:title></dc:title>
      </cc:Work>
    </rdf:RDF>
  </metadata>
  <g
     transform="translate(377.82318,47.474434)"
     id="layer1"
     inkscape:groupmode="layer"
     inkscape:label="Layer 1">
    <path
       sodipodi:nodetypes="cc"
       style="fill:#e5e5e5;fill-opacity:1;stroke:none;stroke-width:0.264583px;stroke-linecap:butt;stroke-linejoin:miter;stroke-opacity:1"
       d="m -376.45518,-45.8744 c 12.3172,-0.5999 12.5352,-0.06 36.7863,-0.7199 15.7832,-0.4295 31.6116,0.4489 47.421,0.6108 16.9202,0.17331 33.8413,0.3576 50.766,0.3943 14.6905,0.032 29.3802,-0.129 44.0706,-0.1884 15.6806,-0.063 31.3613,-0.1199 47.042,-0.18 45.28061,0.19241 43.0049,0.20261 86.281786,0.3136 9.4234,0.025 18.8486,0.1271 28.27102,0.057 5.94159,-0.044 11.86969,-0.2652 17.80469,-0.3978 2.25041,-0.05 2.0892,-1.439 -0.1615,-1.3893 -21.27211,-0.119 -21.0589,-0.2262 -45.9145,0.2649 -62.150796,1.228 -19.5113,1.4442 -86.281496,0 l -47.0424,-0.1909 c -14.6904,0.3625 -29.3573,1.043 -44.0705,1.0875 -16.9328,0.051 -33.8329,-0.8097 -50.7659,-0.801 -15.8205,0.01 -31.6141,0.5677 -47.4211,0.8515 -8.6754,-0.3871 -17.3175,-0.9636 -26.0263,-1.1614 -3.5905,-0.082 -7.1733,0.2176 -10.76,0.3262 -1.8236,0 -1.8236,1.1257 0,1.1257 z"
       id="path11964" />
  </g>
</svg>
