<?xml version="1.0" encoding="UTF-8" standalone="no"?>
<svg
   xmlns:dc="http://purl.org/dc/elements/1.1/"
   xmlns:cc="http://creativecommons.org/ns#"
   xmlns:rdf="http://www.w3.org/1999/02/22-rdf-syntax-ns#"
   xmlns:svg="http://www.w3.org/2000/svg"
   xmlns="http://www.w3.org/2000/svg"
   xmlns:sodipodi="http://sodipodi.sourceforge.net/DTD/sodipodi-0.dtd"
   xmlns:inkscape="http://www.inkscape.org/namespaces/inkscape"
   inkscape:export-ydpi="96"
   inkscape:export-xdpi="96"
   inkscape:export-filename="D:\Calcatz\Icon Pack\Adventure Narative Inspired by Arrival\GUI\Obtain Logogram\png\background - silhouette.png"
   sodipodi:docname="background - silhouette.svg"
   inkscape:version="1.0 (4035a4fb49, 2020-05-01)"
   id="svg8999"
   version="1.1"
   viewBox="0 0 233.31844 163.36128"
   height="163.36128mm"
   width="233.31844mm">
  <defs
     id="defs8993">
    <filter
       height="1.2749664"
       y="-0.13748321"
       width="1.6224284"
       x="-0.31121418"
       id="filter10734-6"
       style="color-interpolation-filters:sRGB"
       inkscape:collect="always">
      <feGaussianBlur
         id="feGaussianBlur10736-3"
         stdDeviation="3.2438443"
         inkscape:collect="always" />
    </filter>
    <filter
       height="1.2749664"
       y="-0.13748321"
       width="1.6224291"
       x="-0.31121454"
       id="filter10730-9"
       style="color-interpolation-filters:sRGB"
       inkscape:collect="always">
      <feGaussianBlur
         id="feGaussianBlur10732-7"
         stdDeviation="3.2438443"
         inkscape:collect="always" />
    </filter>
  </defs>
  <sodipodi:namedview
     inkscape:window-maximized="1"
     inkscape:window-y="-8"
     inkscape:window-x="-8"
     inkscape:window-height="705"
     inkscape:window-width="1366"
     fit-margin-bottom="0"
     fit-margin-right="0"
     fit-margin-left="0"
     fit-margin-top="0"
     showgrid="false"
     inkscape:document-rotation="0"
     inkscape:current-layer="layer1"
     inkscape:document-units="mm"
     inkscape:cy="379.99863"
     inkscape:cx="405.84074"
     inkscape:zoom="0.33557348"
     inkscape:pageshadow="2"
     inkscape:pageopacity="0.0"
     borderopacity="1.0"
     bordercolor="#666666"
     pagecolor="#ffffff"
     id="base" />
  <metadata
     id="metadata8996">
    <rdf:RDF>
      <cc:Work
         rdf:about="">
        <dc:format>image/svg+xml</dc:format>
        <dc:type
           rdf:resource="http://purl.org/dc/dcmitype/StillImage" />
        <dc:title></dc:title>
      </cc:Work>
    </rdf:RDF>
  </metadata>
  <g
     transform="translate(1.5453613,-47.625362)"
     id="layer1"
     inkscape:groupmode="layer"
     inkscape:label="Layer 1">
    <path
       clip-path="none"
       sodipodi:nodetypes="sssssssssssss"
       id="path11960"
       d="m -658.8132,173.4312 c -5.5829,-2.79135 6.2068,-11.1985 6.9223,-17.39925 0.7228,-6.26449 -4.22,-12.5633 -2.8063,-18.70887 1.7798,-7.73764 5.6839,-21.19669 13.4704,-19.64431 8.3124,1.65725 5.5673,16.4131 5.2384,24.88279 -0.2136,5.50134 -4.2302,10.35987 -4.6456,15.84967 -0.3811,5.03762 6.8629,13.55997 2.0264,15.01997 -3.7758,1.1398 -1.2539,-11.10732 -5.1705,-10.64263 -3.8603,0.45801 1.3823,11.58585 -2.5001,11.39098 -5.3926,-0.27066 3.5146,-15.70298 -1.8709,-16.08963 -5.3411,-0.38347 1.1984,16.18543 -4.116,15.52836 -3.5309,-0.43656 3.2915,-9.73121 -0.1395,-10.67253 -3.9503,-1.08378 -2.7447,12.31728 -6.4086,10.48545 z"
       style="fill:#000000;fill-opacity:0.17;stroke:none;stroke-width:0.264583px;stroke-linecap:butt;stroke-linejoin:miter;stroke-opacity:1;filter:url(#filter10730-9)"
       transform="matrix(2.2627097,0,0,2.2627097,1510.1582,-200.75253)" />
    <path
       clip-path="none"
       transform="matrix(-2.2627097,0,0,2.2627097,-1199.3309,-200.75253)"
       style="fill:#000000;fill-opacity:0.17;stroke:none;stroke-width:0.264583px;stroke-linecap:butt;stroke-linejoin:miter;stroke-opacity:1;filter:url(#filter10734-6)"
       d="m -623.19234,173.4312 c -5.58298,-2.79135 6.20677,-11.1985 6.92226,-17.39925 0.72285,-6.26449 -4.21995,-12.5633 -2.80632,-18.70887 1.77985,-7.73764 5.68392,-21.19669 13.47038,-19.64431 8.31249,1.65725 5.56737,16.4131 5.23849,24.88279 -0.21362,5.50134 -4.23029,10.35987 -4.64561,15.84967 -0.38111,5.03762 6.86282,13.55997 2.02637,15.01997 -3.77576,1.1398 -1.25394,-11.10732 -5.17052,-10.64263 -3.8603,0.45801 1.38236,11.58585 -2.50013,11.39098 -5.39256,-0.27066 3.51462,-15.70298 -1.87086,-16.08963 -5.34112,-0.38347 1.19843,16.18543 -4.11597,15.52836 -3.53093,-0.43656 3.29151,-9.73121 -0.13952,-10.67253 -3.95029,-1.08378 -2.74472,12.31728 -6.40857,10.48545 z"
       id="path11962"
       sodipodi:nodetypes="sssssssssssss" />
  </g>
</svg>
