<?xml version="1.0" encoding="UTF-8" standalone="no"?>
<svg
   xmlns:dc="http://purl.org/dc/elements/1.1/"
   xmlns:cc="http://creativecommons.org/ns#"
   xmlns:rdf="http://www.w3.org/1999/02/22-rdf-syntax-ns#"
   xmlns:svg="http://www.w3.org/2000/svg"
   xmlns="http://www.w3.org/2000/svg"
   xmlns:sodipodi="http://sodipodi.sourceforge.net/DTD/sodipodi-0.dtd"
   xmlns:inkscape="http://www.inkscape.org/namespaces/inkscape"
   inkscape:export-ydpi="96"
   inkscape:export-xdpi="96"
   inkscape:export-filename="D:\Calcatz\Icon Pack\Adventure Narative Inspired by Arrival\GUI\Obtain Logogram\png\background - horizontal_line_detail_2.png"
   sodipodi:docname="background - horizontal_line_detail_2.svg"
   inkscape:version="1.0 (4035a4fb49, 2020-05-01)"
   id="svg8424"
   version="1.1"
   viewBox="0 0 25.578869 8.4672022"
   height="8.4672022mm"
   width="25.578869mm">
  <defs
     id="defs8418" />
  <sodipodi:namedview
     inkscape:window-maximized="1"
     inkscape:window-y="-8"
     inkscape:window-x="-8"
     inkscape:window-height="705"
     inkscape:window-width="1366"
     fit-margin-bottom="0"
     fit-margin-right="0"
     fit-margin-left="0"
     fit-margin-top="0"
     showgrid="false"
     inkscape:document-rotation="0"
     inkscape:current-layer="layer1"
     inkscape:document-units="mm"
     inkscape:cy="-13.163886"
     inkscape:cx="59.5227"
     inkscape:zoom="1.3422939"
     inkscape:pageshadow="2"
     inkscape:pageopacity="0.0"
     borderopacity="1.0"
     bordercolor="#666666"
     pagecolor="#ffffff"
     id="base" />
  <metadata
     id="metadata8421">
    <rdf:RDF>
      <cc:Work
         rdf:about="">
        <dc:format>image/svg+xml</dc:format>
        <dc:type
           rdf:resource="http://purl.org/dc/dcmitype/StillImage" />
        <dc:title></dc:title>
      </cc:Work>
    </rdf:RDF>
  </metadata>
  <g
     transform="translate(38.808326,-112.45719)"
     id="layer1"
     inkscape:groupmode="layer"
     inkscape:label="Layer 1">
    <path
       sodipodi:nodetypes="cc"
       style="fill:#e5e5e5;fill-opacity:1;stroke:none;stroke-width:0.264583px;stroke-linecap:butt;stroke-linejoin:miter;stroke-opacity:1"
       d="m -25.824549,112.45719 c 0.1219,0.4667 0.2159,0.9407 0.3657,1.4003 0.022,0.066 0.039,0.1101 0.058,0.1688 -0.1101,-0.4739 -0.2404,-0.9114 -0.4209,-1.5691 0,0 0,0 0,0 z m 0.4241,1.5691 c 0.06,0.2561 0.1138,0.5404 0.1646,0.8646 -0.2972,0.01 -0.5775,-0.017 -0.8331,-0.034 -0.1541,-0.01 -0.3059,-0.019 -0.4543,-0.026 -0.053,0 -0.1012,0 -0.1533,-0.01 0.031,-0.035 0.061,-0.071 0.091,-0.1071 0.1173,-0.123 -0.069,-0.2783 -0.186,-0.1552 -0.103,0.082 -0.2171,0.1522 -0.3085,0.2452 0,0 0,0 0,0 -0.025,0 -0.05,0 -0.074,0 0.075,-0.2749 0.1216,-0.4346 0.2645,-0.7063 -0.1318,0.223 -0.2843,0.488 -0.4046,0.701 -0.4995,-0.015 -0.9815,-0.018 -1.4483,-0.01 0,-0.01 0,-0.019 0,-0.029 0,0 0.01,-0.01 0.01,-0.01 0.2425,-0.2289 0.5117,-0.4157 0.8206,-0.5623 0.136,-0.064 0.286,-0.098 0.4291,-0.1475 0.078,-0.033 0.029,-0.1355 -0.049,-0.1029 -0.3303,0.1637 -0.5944,0.2921 -0.9249,0.4681 -0.092,0.049 -0.1821,0.1005 -0.2727,0.1518 0,-0.074 0.01,-0.1478 0.013,-0.2217 0,-0.039 0,-0.078 0,-0.1165 0.027,-0.017 0.073,-0.041 0.1011,-0.058 0.1675,-0.042 0.335,-0.083 0.5014,-0.1282 0,0 0,-0.01 0,-0.01 -0.2464,0.066 -0.3205,0.087 -0.4963,0.1329 0.1685,-0.1 0.3353,-0.1909 0.6069,-0.3458 0.04,-0.023 0,-0.076 -0.035,-0.053 -0.2776,0.163 -0.4755,0.2772 -0.6729,0.3952 0,-0.1639 0,-0.3281 0.015,-0.4917 0.012,-0.17289 0.04,-0.34409 0.06,-0.5163 0.01,-0.1061 -0.1526,-0.1166 -0.1602,-0.01 -0.032,0.2636 -0.100699,0.8408 -0.145799,1.111 -0.587,0.1561 -1.0085,0.2764 -2.027,0.6281 -0.045,0.016 -0.088,0.036 -0.1332,0.052 -0.6032,0.063 -1.2032,0.1452 -1.814,0.2488 0.1972,-0.1385 0.406,-0.2631 0.6698,-0.3652 0.361,-0.1397 0.7473,-0.2127 1.121,-0.3188 0.1771,-0.046 0.1074,-0.2802 -0.07,-0.2341 -0.202,0.037 -0.4055,0.068 -0.6082,0.1018 0.2413,-0.1 0.4841,-0.1761 0.9488,-0.2759 0.4307,-0.093 0.8738,-0.1252 1.3107,-0.1876 0.01,0 0.01,-0.013 0,-0.011 -0.4378,0.06 -0.8767,0.1119 -1.3132,0.1793 -0.2307,0.036 -0.954,0.16801 -1.4294,0.2541 0.011,-0.01 0.02,-0.023 0.029,-0.036 0.1488,-0.1274 0.3001,-0.2526 0.4581,-0.37169 0.6231,-0.47 1.308,-0.86291 1.9622,-1.29451 0.072,-0.046 0,-0.1415 -0.069,-0.096 -0.673101,0.4156 -1.331101,0.8536 -2.019401,1.2468 -0.075,0.043 -0.1523,0.081 -0.2287,0.12061 0.03,-0.072 0.072,-0.14981 0.1515,-0.26651 0.1034,-0.1512 0.2395,-0.2803 0.3594,-0.4205 0.036,-0.045 -0.031,-0.092 -0.067,-0.048 -0.1137,0.1474 -0.2295,0.2935 -0.3412,0.4423 -0.2297,0.3062 -0.2518,0.3442 -0.3003,0.39631 -0.311,0.15329 -0.6274,0.29739 -0.9319,0.46049 0.032,-0.07 0.063,-0.1405 0.098,-0.2093 0.086,-0.16859 0.1789,-0.3346 0.272,-0.5 0.092,-0.1638 0.1809,-0.33 0.2841,-0.4881 0.061,-0.094 0.1389,-0.17759 0.2085,-0.26639 0.039,-0.081 -0.084,-0.13261 -0.1231,-0.051 -0.034,0.10319 -0.052,0.2117 -0.1012,0.3093 -0.177,0.35159 -0.4059,0.62259 -0.6389,0.94109 -0.085,0.1158 -0.1618,0.2369 -0.2507,0.34991 -0.041,0.052 -0.092,0.096 -0.1383,0.14469 -0.2507,0.1661 -0.4809,0.3578 -0.71,0.55111 -0.1354,0.087 -0.2773,0.15879 -0.4235,0.21989 0.091,-0.12429 0.1833,-0.2485 0.2746,-0.3729 0.054,-0.06 -0.037,-0.1309 -0.09,-0.071 -0.1854,0.1451 -0.3708,0.2901 -0.5561,0.4352 -0.034,0.054 -0.03,0.10391 -0.01,0.1441 -0.2665,0.082 -0.5337,0.14591 -0.7791,0.20821 -0.1236,0.035 -0.2699,0.085 -0.4065,0.12879 0.035,-0.045 0.07,-0.091 0.1075,-0.13349 0.214101,-0.2448 0.792302,-0.85111 0.994002,-1.06451 0.01,-0.01 0,-0.015 -0.01,-0.01 -0.1834,0.1916 -0.3622,0.3877 -0.5504,0.5752 -0.3,0.2988 -0.4949,0.5039 -0.8608,0.7057 -0.04,0.022 -0.09,0.02 -0.1345,0.03 -0.042,0.016 -0.068,0.041 -0.082,0.069 -0.8095,0.2786 -1.6339,0.5897 -1.8617,0.6076 -0.057,0 -0.041,0.15921 0.01,0.1629 0.7384,0.06 1.8387,0.4351 2.6848,0.6522 0.012,0.01 0.023,0.019 0.037,0.028 0.076,0.041 0.1553,0.074 0.2362,0.1047 0.021,0.034 0.053,0.066 0.105,0.085 0.084,0.062 0.2118,0.154 0.2865,0.2194 0.06,0.052 0.1283,0.1 0.1721,0.1647 0.1157,0.1709 0.1095,0.2664 0.1345,0.4505 0.092,0.21341 0.4141,0.092 0.3223,-0.12169 -0.027,-0.062 -0.054,-0.12541 -0.081,-0.18771 -0.04,-0.091 -0.085,-0.1998 -0.1376,-0.304 0.065,0.036 0.1299,0.072 0.1961,0.107 0.1677,0.094 0.322,0.034 0.3971,-0.075 0.098,0.097 0.1951,0.1986 0.3399,0.3629 0.1132,0.1284 0.226,0.2575 0.3286,0.3935 -0.095,-0.1418 -0.1804,-0.2892 -0.2771,-0.43 -0.3333,-0.485 -0.3465,-0.4869 -0.3487,-0.484 -1e-4,0 2e-4,0 0,-0.01 0.041,0 0.081,0.01 0.1219,0.01 0,0 0,0 0.01,0 0.219498,0.1087 0.378598,0.2648 0.566198,0.4129 0.1017,0.08 0.1951,0.1725 0.3091,0.237 0.1054,0.06 0.2284,0.088 0.3424,0.1318 0.074,0.031 0.1478,0.062 0.2218,0.092 0.1708,0.028 0.2136,-0.1982 0.043,-0.2265 -0.07,0.01 -0.1404,0.012 -0.2105,0.018 -0.1084,-0.035 -0.2283,-0.049 -0.3255,-0.1064 -0.1116,-0.066 -0.1833,-0.1787 -0.2865,-0.2558 -0.1,-0.075 -0.2173,-0.1273 -0.3204,-0.1982 -0.041,-0.029 -0.08,-0.062 -0.1182,-0.094 0.3873,0.018 0.746,0 1.0826,-0.01 0.1379,0.069 0.2786,0.1335 0.4172,0.2017 0.2105,0.124 0.4209,0.2483 0.6315,0.3723 0.055,0.036 0.1095,-0.038 0.054,-0.074 -0.2088,-0.1243 -0.4319,-0.2298 -0.6265,-0.3729 -0.055,-0.041 -0.103,-0.089 -0.1527,-0.1359 0.145,0 0.2869,0 0.4216,0 0.4529,0.022 0.9679,0.01 1.3974,0.2406 0.033,0.1831 0.073,0.366 0.086,0.5511 0.014,-0.069 0.025,-0.1965 0.028,-0.4811 0.1092,0.075 0.2106,0.1703 0.3029,0.2899 0.047,0.077 0.091,0.1509 0.1401,0.2318 -0.01,0.018 -0.017,0.04 -0.017,0.066 0.036,0.2144 0.039,0.2162 0.065,0.4682 0.013,0.1246 0.029,0.2495 0.033,0.3747 0,0.1378 0,0.276 0,0.414 0,0.086 0.1326,0.083 0.1301,0 0,-0.091 -0.032,-0.6764 -0.026,-0.7852 0,-0.059 0.015,-0.1162 0.026,-0.174 0.145,0.259 0.2784,0.5176 0.3613,0.7463 0.1024,0.2823 0.1245,0.5845 0.1866,0.8769 0.1586,0.49471 0.906299,0.2848 0.747699,-0.21 -0.100999,-0.2987 -0.190999,-0.6006 -0.303499,-0.8957 -0.049,-0.1294 -0.059,-0.1442 -0.097,-0.2405 0,0 0,0 0,0 0.09,0.105 0.170901,0.2171 0.2583,0.324 0.2571,0.315 0.5307,0.6358 0.7929,0.9463 0,0 0.011,2e-4 0.01,0 -0.138,-0.1678 -0.2871,-0.3281 -0.414,-0.5034 -0.1743,-0.2407 -0.2288,-0.3322 -0.2646,-0.4064 0.1983,0.1666 0.343,0.2314 0.6227,0.3828 0.4315,0.1971 0.7293,-0.374 0.2978,-0.571 -0.3833,-0.063 -0.3253,-0.015 -0.7118,-0.3552 -0.352102,-0.3104 -0.783202,-0.8118 -1.036102,-1.1987 0,0 0,-0.01 -0.01,-0.01 0,0 0.01,0 0.013,0 0.074,0.038 0.1545,0.075 0.4229,0.197 0.2181,0.099 0.4285,0.2152 0.656,0.2935 0.3821,0.1315 1.6994,0.4536 2.069,0.5158 0.1758,0.029 0.3535,0.046 0.5316,0.059 -0.1763,-0.023 -0.3517,-0.048 -0.5253,-0.085 -0.363,-0.076 -0.721,-0.17419 -1.0757,-0.2794 -0.3187,-0.094 -0.638,-0.1911 -0.9431,-0.31929 -0.1104,-0.047 -0.2588,-0.12671 -0.4103,-0.21471 -0.081,-0.10569 0.2026,-0.15549 0.519,-0.16759 1.1095,0.224 2.1536,0.49439 3.3,0.77279 0,0 0.01,-0.01 0,-0.01 -1.1528,-0.2794 -2.1683,-0.5376 -3.2623,-0.7676 0.02,0 0.038,0 0.059,0 0.5425,-0.01 1.1545,-0.018 1.8674,-0.035 0.5475,-0.013 0.9631,-0.032 1.3678,-0.051 0.037,0.033 0.073,0.066 0.1105,0.097 0.2914,0.2457 0.8226,0.6771 1.0858,0.8728 0.2855,0.2123 0.5824,0.4117 0.8734,0.6175 0.02,0.013 0.039,-0.013 0.02,-0.026 -0.9314,-0.6508 -0.7581,-0.4749 -1.5074,-1.188 -0.1236,-0.1176 -0.2556,-0.2301 -0.3569,-0.3652 0,0 0,0 0,0 0.064,0.031 0.1296,0.062 0.1904,0.099 0.178,0.1082 0.4486,0.3208 0.6152,0.4476 0.1523,0.1046 0.3107,-0.097 0.1583,-0.2018 -0.074,-0.053 -0.149,-0.1064 -0.2231,-0.16 0.2125,0.067 0.4269,0.128 0.6391,0.1959 0.2606,0.083 0.5137,0.1887 0.7791,0.2576 1.33,0.3455 0.8857,0.1899 0.7238,0.1353 -0.01,0 -0.016,0 -0.024,0 -0.2348,-0.032 -0.4651,-0.091 -0.693,-0.153 -0.2642,-0.072 -0.5271,-0.151 -0.7816,-0.2487 -0.2958,-0.1136 -0.5755,-0.2623 -0.8514,-0.4164 0.2646,-0.017 0.5497,-0.034 0.7452,-0.052 0.8202,-0.073 1.6841,0.1974 1.9346,0.3358 0.1926,0.123 0.3896,0.2416 0.5636,0.3864 0.08,0.067 0.155,0.13981 0.2299,0.2123 -0.2369,-0.2813 -0.3147,-0.4184 -0.7489,-0.8675 -0.039,-0.04 -0.082,-0.075 -0.1244,-0.1117 0.2282,0.083 0.5564,0.22831 1.1039,0.40111 0.3423,0.11619 0.6973,0.2037 1.038,0.32459 0.6097,0.2165 1.1977,0.487 1.8171,0.6776 0.6784,0.2086 1.3836,0.3306 2.0691,0.51751 0.46,0.1255 0.9108,0.27959 1.366,0.41939 0.4411,0.063 0.5359,-0.52149 0.095,-0.58399 -0.4635,-0.01 -0.9386,0.063 -1.3911,-0.032 -1.1027,-0.2314 -2.0671,-0.6862 -2.9983,-1.208 0.1139,0 0.2278,0 0.3418,0 0.3984,0.092 0.8001,0.16789 1.2044,0.2323 -0.1217,-0.019 -0.2578,-0.038 -0.3449,-0.058 -0.187,-0.043 -0.3366,-0.098 -0.4782,-0.1605 0.3328,0.02 0.6651,0.05 0.9966,0.071 0.092,0.01 0.8285,0.044 1.038,0.055 0.1731,-0.01 0.1647,-0.2352 -0.01,-0.2294 -0.117,0.036 -0.2281,0.097 -0.3507,0.1094 -0.223,0.022 -0.4498,0.01 -0.6735,-0.01 -0.2713,-0.019 -0.5403,-0.061 -0.8093,-0.099 -0.147,-0.021 -0.178,-0.028 -0.272,-0.042 -0.177,-0.1557 0.2119,-0.2284 0.6371,-0.3147 0.5658,-0.1148 1.1444,-0.2158 1.6682,-0.2394 0.1947,-0.01 0.1637,-0.4329 0.053,-0.4511 -0.5726,-0.094 -1.7624,-0.4589 -2.6885,-0.761 -0.2749,-0.09 -0.5415,-0.1905 -0.3632,-0.287 0.285,-0.065 0.3903,-0.079 1.2428,-0.1853 -0.9711,0.049 -0.9688,0.049 -1.415,0.045 0.1418,-0.2723 0.3418,-0.4775 0.6296,-0.6863 0.073,-0.053 0.1489,-0.1019 0.2243,-0.1518 -0.076,0.044 -0.1376,0.078 -0.2362,0.1382 -0.3677,0.2236 -0.5277,0.3469 -0.8068,0.627 -0.023,0.023 -0.041,0.048 -0.062,0.072 -0.038,-2.7e-4 -0.026,2e-4 -0.07,0 0.091,-0.1324 0.1858,-0.2629 0.2827,-0.3917 0.112,-0.1361 -0.093,-0.2849 -0.2054,-0.1488 -0.063,0.096 -0.1202,0.1956 -0.1885,0.2882 -0.061,0.082 -0.1274,0.1609 -0.1929,0.2399 0.092,-0.2605 0.1149,-0.5369 0.196,-0.7998 0.01,-0.032 0.024,-0.062 0.036,-0.094 0.4911,-0.067 0.9816,-0.1357 1.4727,-0.2022 0.01,0 0.01,-0.01 0,-0.01 -0.2754,0.038 -0.8788,0.1238 -1.4702,0.2053 0.045,-0.1171 0.098,-0.2318 0.1382,-0.3506 0.1605,-0.4772 -0.012,-0.2162 0.2187,-0.5069 0.052,-0.1313 -0.1461,-0.2007 -0.1986,-0.069 -0.1959,0.5959 0.1242,-0.4035 -0.1338,0.5446 -0.036,0.1342 -0.086,0.2646 -0.1301,0.397 -0.2942,0.04 -0.5381,0.071 -0.8312,0.1088 0.05,-0.01 0.099,-0.01 0.1489,-0.014 0.2272,-0.027 0.4537,-0.059 0.6804,-0.089 -0.01,0.019 -0.013,0.037 -0.018,0.056 -0.1339,0.4297 -0.1417,0.4674 -0.1929,0.5722 -0.227,0.242 -0.6391,0.1236 -0.9664,0.05 -0.5049,-0.1136 -1.0276,-0.217 -1.5557,-0.3105 0.2001,-0.053 0.3723,-0.094 0.4976,-0.1176 -0.1866,0 -0.7019,-0.011 -0.9224,-0.018 -0.051,0 -0.088,0.019 -0.1112,0.046 -0.1999,-0.032 -0.399,-0.063 -0.5988,-0.093 0.053,-0.038 0.1064,-0.074 0.1646,-0.1041 0.3859,-0.1962 0.8189,-0.3557 1.2491,-0.4699 -0.2081,0.043 -0.4155,0.089 -0.6239,0.1305 -0.183,0.037 -0.3669,0.068 -0.5498,0.1053 0.2173,-0.1908 0.4503,-0.3621 0.6824,-0.5423 0.4715,-0.2681 0.066,-0.8921 -0.4053,-0.624 -0.2561,0.1208 -0.5424,0.1971 -0.7685,0.3623 -0.098,0.072 -0.1975,0.1573 -0.2952,0.2488 0,-0.059 0.01,-0.1178 0.02,-0.1758 0.053,-0.259 0.1212,-0.4731 0.2262,-0.6787 -0.1396,0.2028 -0.259,0.4126 -0.3494,0.6604 -0.045,0.12469 -0.059,0.25769 -0.081,0.38819 -0.048,0.052 -0.098,0.1006 -0.1427,0.1559 -0.056,0.024 -0.1112,0.046 -0.1665,0.066 -0.054,-0.2045 -0.069,-0.067 -0.01,-0.3094 -0.012,-0.2363 -0.3691,-0.2206 -0.3569,0.016 -0.012,0.3013 -0.015,0.088 0.032,0.3952 -0.087,0.02 -0.1723,0.037 -0.2569,0.049 0,-0.059 0,-0.1173 0,-0.1758 0,-0.1384 -0.017,-0.277 -0.01,-0.4153 0.014,-0.2715 0.084,-0.6853 0.1256,-0.9563 0.01,-0.046 -0.061,-0.057 -0.07,-0.011 -0.054,0.3205 -0.1135,0.6406 -0.1646,0.9616 -0.021,0.1333 -0.027,0.2689 -0.058,0.4006 -0.018,0.078 -0.057,0.1505 -0.087,0.2252 -0.012,0 -0.025,0 -0.037,0 -0.108399,-0.2357 -0.216599,-0.4985 -0.338599,-0.8586 z m 1.971,-0.5957 c 0.098,-0.1428 0.2047,-0.2827 0.3242,-0.4276 0.053,-0.064 0.1111,-0.1232 0.1697,-0.1823 -0.072,0.05 -0.1417,0.1016 -0.1973,0.1664 -0.1298,0.1512 -0.2211,0.2955 -0.2966,0.4435 z m 0.4939,-0.6099 c 0.059,-0.041 0.1203,-0.081 0.1766,-0.1253 0.02,-0.018 -0.01,-0.044 -0.028,-0.027 -0.049,0.051 -0.099,0.1013 -0.1489,0.1517 z m 1.2208,1.7838 c 0.1111,-0.023 0.2218,-0.046 0.3337,-0.065 0.3164,-0.053 0.6372,-0.08 0.955,-0.1252 0.1337,-0.019 0.1907,-0.031 0.2884,-0.046 -0.085,0.01 -0.1581,0.018 -0.2915,0.031 -0.32,0.031 -0.6418,0.06 -0.9557,0.1259 -0.109,0.023 -0.2196,0.051 -0.3299,0.08 z m 1.5771,-0.2365 c 0.4311,-0.046 0.3903,-0.04 0.8671,0.076 0.1617,0 0.1688,-0.2096 0.01,-0.214 -0.3461,0.058 -0.5782,0.094 -0.8745,0.1381 z m -1.3584,0.8752 c 0.018,0 0.071,0 0.081,0 0.3138,-0.022 0.8063,-0.082 1.3251,-0.1476 -0.4427,0.046 -0.8885,0.067 -1.3289,0.1294 -0.015,0 -0.057,0.014 -0.077,0.018 z m 3.5877,-0.1953 c 0.4652,-0.271 0.5926,-0.2985 1.273,-0.5622 0.036,-0.01 0.072,-0.019 0.1075,-0.029 -0.038,0.01 -0.075,0.012 -0.1125,0.017 -0.2702,0.102 -0.5525,0.1802 -0.8111,0.3059 -0.1595,0.077 -0.3098,0.1704 -0.4568,0.2676 z m 1.3805,-0.591 c 0.1533,-0.024 0.3065,-0.048 0.4599,-0.072 0.036,-0.01 0.026,-0.056 -0.011,-0.048 -0.1497,0.04 -0.2995,0.08 -0.4492,0.1206 z m -0.4663,3.98341 c 0.086,0.014 0.1537,0.027 0.252,0.041 -0.084,-0.012 -0.168,-0.027 -0.252,-0.041 z m -3.7724,0.23049 c 0.089,0.1053 0.1971,0.2285 0.3587,0.3994 0.015,0.015 0.031,0.03 0.046,0.045 -0.013,-0.017 -0.023,-0.036 -0.036,-0.053 -0.1146,-0.1366 -0.2389,-0.2662 -0.3682,-0.3911 z m 0.4046,0.444 c 0.1071,0.1406 0.1919,0.296 0.2884,0.4435 0.06,0.069 0.1633,-0.01 0.1036,-0.079 -0.1303,-0.1217 -0.2667,-0.2379 -0.392,-0.3641 z m -1.5274,-0.5075 c 0,0 0.01,2e-4 0.01,0 -0.032,-0.01 -0.05,-0.014 -0.01,0 0.05,0.013 0.1052,0.031 0.386,0.11881 0.089,0.015 0.1119,-0.10181 0.023,-0.11701 -0.133,0 -0.2675,0.012 -0.3996,0 h 10e-5 m -4.0156,0.377 c 0.1247,0.016 0.2502,0.032 0.3745,0.05 -0.015,0 -0.012,-0.024 0,-0.02 -0.1257,-0.012 -0.2516,-0.021 -0.3776,-0.031 z m -4.8174,-0.34939 c -0.02,0.095 -0.043,0.16669 -0.046,0.68759 0,0.056 0.01,0.11251 0.01,0.1688 0,-0.06 0,-0.066 0.011,-0.1688 0.013,-0.2219 0.04,-0.44389 0.027,-0.6658 0,-0.01 0,-0.014 0,-0.022 z m -0.036,0.85639 c -0.014,0.2546 -0.018,0.28621 -0.115,0.62461 -0.01,0.097 0.1402,0.1056 0.147,0.01 0,-0.1013 0,-0.2023 -0.01,-0.3035 -0.01,-0.1101 -0.017,-0.2199 -0.026,-0.3299 z m -2.9996,-0.73869 c 0.015,0.023 0.029,0.047 0.045,0.069 0.013,0.018 0.029,0.035 0.043,0.053 -0.013,-0.019 -0.023,-0.037 -0.037,-0.057 -0.016,-0.023 -0.034,-0.043 -0.051,-0.065 z m 0.088,0.12229 c 0.1918,0.28421 0.2899,0.5247 0.4348,0.8398 0.028,0.056 0.1125,0.02 0.085,-0.036 -0.075,-0.1447 -0.1348,-0.2971 -0.2249,-0.4341 -0.086,-0.1308 -0.1975,-0.2454 -0.2947,-0.3693 z m 6.7689,-4.7745 c 0.036,-0.062 0.085,-0.1521 0.1119,-0.194 0.167,-0.266 0.2851,-0.4311 0.4203,-0.6146 -0.033,0.023 -0.064,0.047 -0.09,0.077 -0.1425,0.1581 -0.2351,0.3514 -0.3368,0.5351 -0.046,0.084 -0.073,0.1359 -0.1049,0.1971 z m 0.5322,-0.8086 c 0.082,-0.057 0.1787,-0.098 0.2626,-0.1529 0.062,-0.059 -0.028,-0.1419 -0.09,-0.082 -0.07,0.095 -0.118,0.1609 -0.1727,0.2352 z m -2.5837,0.9598 c 0,0.014 -0.01,0.044 -0.01,0.056 -0.1626,0.1007 -0.3175,0.1958 -0.5347,0.3422 -0.081,0.054 -0.1574,0.1148 -0.2343,0.1741 -0.375,0.019 -0.7451,0.047 -1.1115,0.081 0.4483,-0.2022 0.9189,-0.3605 1.3892,-0.5129 0.1644,-0.053 0.332,-0.097 0.4995,-0.1411 z m -0.03,0.1476 c -0.028,0.1247 -0.063,0.248 -0.09,0.3729 -0.013,0.01 -0.026,0.018 -0.039,0.027 -0.1169,0 -0.2365,0 -0.3519,0.01 0.02,-0.02 0.038,-0.043 0.06,-0.063 0.168,-0.1507 0.2993,-0.2555 0.4216,-0.3464 z m 13.1056,3.4065 c -0.1608,0 -0.3213,0.012 -0.4819,0.019 -0.096,-1.9e-4 -0.1923,0 -0.2884,0 -0.1864,0.019 -0.1575,0.2659 0.029,0.24651 0.3014,-0.1012 0.3948,-0.14691 0.7502,-0.18641 0.1986,-0.022 0.3997,-0.018 0.5994,-0.028 0.027,0 0.025,-0.037 0,-0.036 -0.2023,0 -0.4046,-0.015 -0.607,-0.015 z m -0.852,0.6775 c 0.184,0.027 0.3682,0.053 0.5529,0.076 0.4578,0.057 0.9183,0.097 1.3773,0.1453 0.1412,0.015 0.1963,0.018 0.2966,0.027 -0.1022,-0.013 -0.1509,-0.021 -0.2954,-0.037 -0.3901,-0.044 -1.2644,-0.1222 -1.9314,-0.2112 z m 2.2268,0.2482 c 0.6141,0.077 0.6226,0.1001 0.8287,0.098 -0.2088,-0.059 -0.2662,-0.046 -0.8287,-0.098 z m 0.8287,0.098 c 0.078,0.022 0.1811,0.054 0.3613,0.1071 0.087,0.01 0.1019,-0.1055 0.015,-0.1152 -0.1962,0 -0.3011,0.01 -0.3764,0.01 z m -14.2711,-0.224 c -0.1445,-0.023 -0.2437,0.1656 -0.09,0.25521 0.5264,0.336 -0.1704,-0.088 0.5698,0.27289 0.1066,0.052 0.201,0.12321 0.3016,0.18471 0.1781,0.092 0.3182,-0.14341 0.1401,-0.2358 -0.106,-0.05 -0.2155,-0.094 -0.3179,-0.15061 -0.7561,-0.4168 0.064,-0.019 -0.5391,-0.3029 -0.022,-0.013 -0.043,-0.02 -0.064,-0.024 z"
       id="path11966" />
  </g>
</svg>
