<?xml version="1.0" encoding="UTF-8" standalone="no"?>
<svg
   xmlns:dc="http://purl.org/dc/elements/1.1/"
   xmlns:cc="http://creativecommons.org/ns#"
   xmlns:rdf="http://www.w3.org/1999/02/22-rdf-syntax-ns#"
   xmlns:svg="http://www.w3.org/2000/svg"
   xmlns="http://www.w3.org/2000/svg"
   xmlns:sodipodi="http://sodipodi.sourceforge.net/DTD/sodipodi-0.dtd"
   xmlns:inkscape="http://www.inkscape.org/namespaces/inkscape"
   inkscape:export-ydpi="96"
   inkscape:export-xdpi="96"
   inkscape:export-filename="D:\Calcatz\Icon Pack\Adventure Narative Inspired by Arrival\GUI\Obtain Logogram\png\background.png"
   sodipodi:docname="background.svg"
   inkscape:version="1.0 (4035a4fb49, 2020-05-01)"
   id="svg2558"
   version="1.1"
   viewBox="0 0 361.42087 152.86827"
   height="152.86827mm"
   width="361.42087mm">
  <defs
     id="defs2552">
    <clipPath
       clipPathUnits="userSpaceOnUse"
       id="clipPath10926-4-1">
      <path
         id="path10928-1-9"
         style="opacity:1;fill:#b2b2b2;fill-opacity:1;stroke:none;stroke-width:0.260795;stroke-linecap:round;stroke-opacity:1;paint-order:markers stroke fill"
         d="M -58.533374,622.24478 V 769.60479 H 302.88746 V 622.24478 Z" />
    </clipPath>
    <filter
       inkscape:collect="always"
       style="color-interpolation-filters:sRGB"
       id="filter10558-0"
       x="-0.095191374"
       width="1.1903827"
       y="-0.36606422"
       height="1.7321285">
      <feGaussianBlur
         inkscape:collect="always"
         stdDeviation="19.817874"
         id="feGaussianBlur10560-4" />
    </filter>
    <clipPath
       id="clipPath4601-3-3"
       clipPathUnits="userSpaceOnUse">
      <rect
         style="fill:#e5e5e5;fill-opacity:1;stroke:none;stroke-width:0.260795;stroke-linecap:round;stroke-opacity:1;paint-order:markers stroke fill"
         id="rect4603-0-7"
         width="289.02356"
         height="147.35977"
         x="-22.33493"
         y="104.60282"
         rx="15.498188"
         ry="14.301985" />
    </clipPath>
    <clipPath
       id="clipPath11938"
       clipPathUnits="userSpaceOnUse">
      <path
         id="path11940"
         style="opacity:1;fill:#b2b2b2;fill-opacity:1;stroke:none;stroke-width:0.260795;stroke-linecap:round;stroke-opacity:1;paint-order:markers stroke fill"
         d="m -696.81789,113.19238 v 65.1255 h 159.72919 v -65.1255 z" />
    </clipPath>
    <filter
       inkscape:collect="always"
       style="color-interpolation-filters:sRGB"
       id="filter10730-9"
       x="-0.31121454"
       width="1.6224291"
       y="-0.13748321"
       height="1.2749664">
      <feGaussianBlur
         inkscape:collect="always"
         stdDeviation="3.2438443"
         id="feGaussianBlur10732-7" />
    </filter>
    <clipPath
       id="clipPath11944"
       clipPathUnits="userSpaceOnUse">
      <path
         id="path11946"
         style="opacity:1;fill:#b2b2b2;fill-opacity:1;stroke:none;stroke-width:0.260795;stroke-linecap:round;stroke-opacity:1;paint-order:markers stroke fill"
         d="m -500.6354,113.19238 v 65.1255 h -159.72919 v -65.1255 z" />
    </clipPath>
    <filter
       inkscape:collect="always"
       style="color-interpolation-filters:sRGB"
       id="filter10734-6"
       x="-0.31121418"
       width="1.6224284"
       y="-0.13748321"
       height="1.2749664">
      <feGaussianBlur
         inkscape:collect="always"
         stdDeviation="3.2438443"
         id="feGaussianBlur10736-3" />
    </filter>
  </defs>
  <sodipodi:namedview
     inkscape:window-maximized="1"
     inkscape:window-y="-8"
     inkscape:window-x="-8"
     inkscape:window-height="705"
     inkscape:window-width="1366"
     fit-margin-bottom="0"
     fit-margin-right="0"
     fit-margin-left="0"
     fit-margin-top="0"
     showgrid="false"
     inkscape:document-rotation="0"
     inkscape:current-layer="layer1"
     inkscape:document-units="mm"
     inkscape:cy="486.90105"
     inkscape:cx="734.34316"
     inkscape:zoom="0.33557348"
     inkscape:pageshadow="2"
     inkscape:pageopacity="0.0"
     borderopacity="1.0"
     bordercolor="#666666"
     pagecolor="#ffffff"
     id="base" />
  <metadata
     id="metadata2555">
    <rdf:RDF>
      <cc:Work
         rdf:about="">
        <dc:format>image/svg+xml</dc:format>
        <dc:type
           rdf:resource="http://purl.org/dc/dcmitype/StillImage" />
        <dc:title></dc:title>
      </cc:Work>
    </rdf:RDF>
  </metadata>
  <g
     transform="translate(88.461629,-19.340765)"
     id="layer1"
     inkscape:groupmode="layer"
     inkscape:label="Layer 1">
    <path
       d="M -88.461629,24.061775 V 171.42187 H 272.95918 V 24.061775 Z"
       style="opacity:1;fill:#b2b2b2;fill-opacity:1;stroke:none;stroke-width:0.260795;stroke-linecap:round;stroke-opacity:1;paint-order:markers stroke fill"
       id="path11568" />
    <path
       transform="translate(-29.928234,-598.18306)"
       style="opacity:1;fill:#e2e2e2;fill-opacity:1;stroke:none;stroke-width:1.1554;stroke-linecap:round;stroke-miterlimit:4;stroke-dasharray:none;stroke-opacity:1;paint-order:markers stroke fill;filter:url(#filter10558-0)"
       id="path11570"
       d="m -73.950515,760.62482 c 47.832336,-20.69545 43.233074,-20.43913 103.808734,-36.23512 26.041632,-6.79069 51.837922,-16.92641 78.733631,-17.87568 25.81332,-0.91098 51.12738,7.50893 76.48998,12.39717 20.74559,3.99833 40.72188,16.18985 61.75985,14.24845 30.24944,-2.79155 57.82755,-18.6351 86.74129,-27.95254 30.95471,0 30.95471,-43.77655 0,-43.77655 v 0 c -28.91374,1.72173 -57.82749,3.44333 -86.74129,5.16507 -20.58661,4.7154 -40.7271,12.23082 -61.75985,14.14624 -25.39681,2.31286 -50.98918,-1.79626 -76.48998,-1.55618 -26.262639,0.2472 -52.663529,6.20171 -78.733631,3.0177 -58.900329,-7.19393 -64.015644,-19.12356 -103.808734,-51.50903 -91.874705,0 -91.874705,129.93047 0,129.93047 z"
       clip-path="url(#clipPath10926-4-1)" />
    <path
       clip-path="url(#clipPath11938)"
       sodipodi:nodetypes="sssssssssssss"
       id="path11582"
       d="m -658.8132,173.4312 c -5.5829,-2.79135 6.2068,-11.1985 6.9223,-17.39925 0.7228,-6.26449 -4.22,-12.5633 -2.8063,-18.70887 1.7798,-7.73764 5.6839,-21.19669 13.4704,-19.64431 8.3124,1.65725 5.5673,16.4131 5.2384,24.88279 -0.2136,5.50134 -4.2302,10.35987 -4.6456,15.84967 -0.3811,5.03762 6.8629,13.55997 2.0264,15.01997 -3.7758,1.1398 -1.2539,-11.10732 -5.1705,-10.64263 -3.8603,0.45801 1.3823,11.58585 -2.5001,11.39098 -5.3926,-0.27066 3.5146,-15.70298 -1.8709,-16.08963 -5.3411,-0.38347 1.1984,16.18543 -4.116,15.52836 -3.5309,-0.43656 3.2915,-9.73121 -0.1395,-10.67253 -3.9503,-1.08378 -2.7447,12.31728 -6.4086,10.48545 z"
       style="fill:#000000;fill-opacity:0.17;stroke:none;stroke-width:0.264583px;stroke-linecap:butt;stroke-linejoin:miter;stroke-opacity:1;filter:url(#filter10730-9)"
       transform="matrix(2.2627097,0,0,2.2627097,1488.2349,-232.05974)" />
    <path
       clip-path="url(#clipPath11944)"
       transform="matrix(-2.2627097,0,0,2.2627097,-1221.2542,-232.05974)"
       style="fill:#000000;fill-opacity:0.17;stroke:none;stroke-width:0.264583px;stroke-linecap:butt;stroke-linejoin:miter;stroke-opacity:1;filter:url(#filter10734-6)"
       d="m -623.19234,173.4312 c -5.58298,-2.79135 6.20677,-11.1985 6.92226,-17.39925 0.72285,-6.26449 -4.21995,-12.5633 -2.80632,-18.70887 1.77985,-7.73764 5.68392,-21.19669 13.47038,-19.64431 8.31249,1.65725 5.56737,16.4131 5.23849,24.88279 -0.21362,5.50134 -4.23029,10.35987 -4.64561,15.84967 -0.38111,5.03762 6.86282,13.55997 2.02637,15.01997 -3.77576,1.1398 -1.25394,-11.10732 -5.17052,-10.64263 -3.8603,0.45801 1.38236,11.58585 -2.50013,11.39098 -5.39256,-0.27066 3.51462,-15.70298 -1.87086,-16.08963 -5.34112,-0.38347 1.19843,16.18543 -4.11597,15.52836 -3.53093,-0.43656 3.29151,-9.73121 -0.13952,-10.67253 -3.95029,-1.08378 -2.74472,12.31728 -6.40857,10.48545 z"
       id="path11580"
       sodipodi:nodetypes="sssssssssssss" />
    <path
       sodipodi:nodetypes="cc"
       style="fill:#e5e5e5;fill-opacity:1;stroke:none;stroke-width:0.264583px;stroke-linecap:butt;stroke-linejoin:miter;stroke-opacity:1"
       d="m -87.093629,24.571465 c 12.3172,-0.5999 12.5352,-0.06 36.7863,-0.7199 15.783201,-0.4295 31.6116,0.4489 47.4210009,0.6108 16.9201991,0.17331 33.8412991,0.3576 50.7659991,0.3943 14.6905,0.032 29.3802,-0.129 44.0706,-0.1884 15.680599,-0.063 31.361299,-0.1199 47.041999,-0.18 45.28061,0.19241 43.0049,0.20261 86.28179,0.3136 9.4234,0.025 18.8486,0.1271 28.27102,0.057 5.94159,-0.044 11.86969,-0.2652 17.80469,-0.3978 2.25041,-0.05 2.0892,-1.439 -0.1615,-1.3893 -21.27211,-0.119 -21.0589,-0.2262 -45.9145,0.2649 -62.1508,1.228 -19.5113,1.4442 -86.2815,0 l -47.042399,-0.1909 c -14.6904,0.3625 -29.3573,1.043 -44.0705,1.0875 -16.9328,0.051 -33.8329,-0.8097 -50.7659001,-0.801 -15.8204979,0.01 -31.6140989,0.5677 -47.4210989,0.8515 -8.675401,-0.3871 -17.317501,-0.9636 -26.026301,-1.1614 -3.5905,-0.082 -7.1733,0.2176 -10.76,0.3262 -1.8236,0 -1.8236,1.1257 0,1.1257 z"
       id="path11584" />
    <path
       sodipodi:nodetypes="cc"
       style="fill:#e5e5e5;fill-opacity:1;stroke:none;stroke-width:0.264583px;stroke-linecap:butt;stroke-linejoin:miter;stroke-opacity:1"
       d="m -0.3791281,19.340765 c 0.121899,0.4667 0.2159,0.9407 0.365699,1.4003 0.02199,0.066 0.039,0.1101 0.058,0.1688 -0.110099,-0.4739 -0.240398,-0.9114 -0.4209,-1.5691 0,0 0,0 0,0 z m 0.424101,1.5691 c 0.06,0.2561 0.1138,0.5404 0.1646,0.8646 -0.297202,0.01 -0.577501,-0.017 -0.833102,-0.034 -0.154099,-0.01 -0.305898,-0.019 -0.4543,-0.026 -0.053,0 -0.101198,0 -0.1533,-0.01 0.031,-0.035 0.061,-0.071 0.091,-0.1071 0.1173,-0.123 -0.069,-0.2783 -0.185999,-0.1552 -0.103,0.082 -0.217102,0.1522 -0.308502,0.2452 0,0 0,0 0,0 -0.025,0 -0.05,0 -0.074,0 0.075,-0.2749 0.1216,-0.4346 0.264499,-0.7063 -0.131799,0.223 -0.2843,0.488 -0.404598,0.701 -0.499502,-0.015 -0.981501,-0.018 -1.4483,-0.01 0,-0.01 0,-0.019 0,-0.029 0,0 0.01,-0.01 0.01,-0.01 0.242501,-0.2289 0.511702,-0.4157 0.8206,-0.5623 0.136001,-0.064 0.286001,-0.098 0.429101,-0.1475 0.078,-0.033 0.029,-0.1355 -0.049,-0.1029 -0.3303,0.1637 -0.594399,0.2921 -0.924898,0.4681 -0.092,0.049 -0.182102,0.1005 -0.272701,0.1518 0,-0.074 0.01,-0.1478 0.01299,-0.2217 0,-0.039 0,-0.078 0,-0.1165 0.027,-0.017 0.073,-0.041 0.1011,-0.058 0.1675,-0.042 0.335,-0.083 0.501401,-0.1282 0,0 0,-0.01 0,-0.01 -0.246401,0.066 -0.3205,0.087 -0.4963,0.1329 0.1685,-0.1 0.335299,-0.1909 0.606899,-0.3458 0.04,-0.023 0,-0.076 -0.035,-0.053 -0.277601,0.163 -0.475501,0.2772 -0.672899,0.3952 0,-0.1639 0,-0.3281 0.015,-0.4917 0.01201,-0.17289 0.04,-0.34409 0.06,-0.5163 0.01,-0.1061 -0.152601,-0.1166 -0.1602,-0.01 -0.032,0.2636 -0.1007,0.8408 -0.145801,1.111 -0.586999,0.1561 -1.008499,0.2764 -2.026999,0.6281 -0.045,0.016 -0.088,0.036 -0.1332,0.052 -0.603199,0.063 -1.2032,0.1452 -1.813999,0.2488 0.1972,-0.1385 0.405998,-0.2631 0.669798,-0.3652 0.361,-0.1397 0.7473,-0.2127 1.121,-0.3188 0.177102,-0.046 0.107402,-0.2802 -0.07,-0.2341 -0.202001,0.037 -0.4055,0.068 -0.6082,0.1018 0.2413,-0.1 0.4841,-0.1761 0.948798,-0.2759 0.430702,-0.093 0.873802,-0.1252 1.310701,-0.1876 0.01,0 0.01,-0.013 0,-0.011 -0.437801,0.06 -0.8767,0.111899 -1.313199,0.1793 -0.2307,0.036 -0.954,0.16801 -1.4294,0.2541 0.01101,-0.01 0.02,-0.023 0.029,-0.036 0.148802,-0.127401 0.300101,-0.2526 0.458102,-0.371691 0.623099,-0.469999 1.308,-0.86291 1.9622,-1.29451 0.072,-0.046 0,-0.1415 -0.069,-0.096 -0.6731,0.4156 -1.3311,0.8536 -2.019401,1.2468 -0.075,0.043 -0.152299,0.081 -0.2287,0.120611 0.03,-0.072 0.072,-0.149811 0.1515,-0.26651 0.103399,-0.1512 0.239501,-0.280301 0.359399,-0.420501 0.036,-0.045 -0.031,-0.092 -0.067,-0.048 -0.113699,0.1474 -0.2295,0.2935 -0.341199,0.4423 -0.2297,0.306201 -0.251801,0.3442 -0.300299,0.39631 -0.311002,0.153291 -0.627401,0.29739 -0.9319,0.460491 0.032,-0.07 0.063,-0.1405 0.098,-0.2093 0.086,-0.16859 0.178901,-0.334601 0.272,-0.5 0.092,-0.163801 0.180901,-0.33 0.284099,-0.488101 0.061,-0.094 0.138901,-0.17759 0.208502,-0.26639 0.039,-0.081 -0.084,-0.13261 -0.1231,-0.051 -0.034,0.10319 -0.052,0.211701 -0.1012,0.309301 -0.177001,0.35159 -0.4059,0.622589 -0.6389,0.94109 -0.085,0.1158 -0.161801,0.2369 -0.250701,0.34991 -0.041,0.052 -0.092,0.096 -0.1383,0.14469 -0.250701,0.1661 -0.480899,0.3578 -0.709999,0.55111 -0.135401,0.087 -0.277302,0.15879 -0.4235,0.21989 0.091,-0.124291 0.183298,-0.248501 0.2746,-0.3729 0.054,-0.06 -0.037,-0.1309 -0.09,-0.071 -0.185402,0.1451 -0.370801,0.2901 -0.556102,0.4352 -0.034,0.054 -0.03,0.10391 -0.01,0.1441 -0.2665009,0.082 -0.5337009,0.14591 -0.7790999,0.208209 -0.1236,0.035 -0.269901,0.085 -0.4065,0.128791 0.035,-0.045 0.07,-0.091 0.1075,-0.13349 0.214101,-0.244801 0.7923,-0.85111 0.9939999,-1.06451 0.01,-0.01 0,-0.015 -0.01,-0.01 -0.1833989,0.1916 -0.3621989,0.3877 -0.5503999,0.5752 -0.3,0.2988 -0.4949,0.5039 -0.860801,0.705699 -0.04,0.022 -0.09,0.02 -0.134498,0.03 -0.042,0.016 -0.068,0.041 -0.082,0.069 -0.8095,0.2786 -1.6339,0.5897 -1.861701,0.6076 -0.057,0 -0.041,0.15921 0.01,0.1629 0.738399,0.06 1.838698,0.4351 2.684798,0.6522 0.01201,0.01 0.02299,0.019 0.037,0.028 0.076,0.041 0.155299,0.074 0.236201,0.1047 0.02101,0.034 0.053,0.066 0.105,0.085 0.084,0.062 0.211799,0.154 0.2864989,0.2194 0.06,0.052 0.128301,0.1 0.172101,0.1647 0.115699,0.1709 0.1095,0.2664 0.1345,0.4505 0.092,0.21341 0.4141,0.092 0.3223,-0.12169 -0.027,-0.062 -0.054,-0.12541 -0.081,-0.18771 -0.04,-0.091 -0.085,-0.1998 -0.137601,-0.304 0.065,0.036 0.129899,0.072 0.196101,0.107 0.167701,0.094 0.322,0.034 0.3971,-0.075 0.098,0.097 0.195101,0.1986 0.339899,0.3629 0.1132,0.1284 0.226,0.2575 0.3286,0.3935 -0.095,-0.1418 -0.180399,-0.2892 -0.277098,-0.43 -0.333301,-0.485 -0.346501,-0.4869 -0.3487,-0.484 -1.01e-4,0 1.98e-4,0 0,-0.01 0.041,0 0.081,0.01 0.121899,0.01 0,0 0,0 0.01,0 0.219501,0.1087 0.3786,0.2648 0.5662,0.4129 0.101701,0.08 0.195101,0.1725 0.309102,0.237 0.1054,0.06 0.228399,0.088 0.3424,0.1318 0.074,0.031 0.147799,0.062 0.221798,0.092 0.170802,0.028 0.213601,-0.1982 0.043,-0.2265 -0.07,0.01 -0.140398,0.012 -0.2105,0.018 -0.1084,-0.035 -0.228298,-0.049 -0.325498,-0.1064 -0.111601,-0.066 -0.183301,-0.1787 -0.286502,-0.2558 -0.1,-0.075 -0.217299,-0.1273 -0.320399,-0.1982 -0.041,-0.029 -0.08,-0.062 -0.1182,-0.094 0.387299,0.018 0.746,0 1.082601,-0.01 0.1379,0.069 0.278601,0.1335 0.4172,0.2017 0.2105,0.124 0.420899,0.248301 0.631499,0.3723 0.055,0.036 0.109501,-0.038 0.054,-0.074 -0.208798,-0.124299 -0.431898,-0.2298 -0.626499,-0.3729 -0.055,-0.041 -0.102999,-0.089 -0.152699,-0.1359 0.145,0 0.286899,0 0.421598,0 0.4529,0.022 0.967901,0.01 1.397402,0.240601 0.033,0.183099 0.073,0.366 0.086,0.551099 0.014,-0.069 0.025,-0.1965 0.028,-0.481099 0.109201,0.075 0.2106,0.170299 0.3029,0.2899 0.047,0.077 0.091,0.150899 0.140099,0.231799 -0.01,0.018 -0.01701,0.04 -0.01701,0.066 0.036,0.214401 0.039,0.216201 0.065,0.468201 0.01299,0.124599 0.029,0.249499 0.033,0.3747 0,0.1378 0,0.275999 0,0.413999 0,0.086 0.132599,0.083 0.130099,0 0,-0.091 -0.032,-0.676399 -0.02601,-0.7852 0,-0.059 0.015,-0.1162 0.02601,-0.174 0.144999,0.259 0.278399,0.517601 0.361301,0.746301 0.102399,0.282299 0.1245,0.5845 0.186598,0.876899 0.158602,0.494706 0.906301,0.2848 0.747702,-0.209999 -0.101,-0.2987 -0.191,-0.600601 -0.303501,-0.8957 -0.049,-0.129401 -0.059,-0.144201 -0.097,-0.240501 0,0 0,0 0,0 0.09,0.105001 0.1709,0.2171 0.258299,0.324 0.257101,0.315001 0.530699,0.6358 0.792901,0.9463 0,0 0.01101,2e-4 0.01,0 -0.137998,-0.167799 -0.287099,-0.3281 -0.413999,-0.5034 -0.174299,-0.240699 -0.228801,-0.3322 -0.264601,-0.4064 0.198299,0.1666 0.343,0.231401 0.622702,0.3828 0.431498,0.1971 0.7293,-0.374 0.297799,-0.571 -0.383299,-0.063 -0.3253,-0.015 -0.711801,-0.3552 -0.352099,-0.3104 -0.783198,-0.8118 -1.0361,-1.1987 0,0 0,-0.01 -0.01,-0.01 0,0 0.01,0 0.01299,0 0.074,0.038 0.1545,0.075 0.422899,0.197 0.218101,0.099 0.428501,0.2152 0.656,0.2935 0.382101,0.1315 1.6994,0.4536 2.069002,0.5158 0.1758,0.029 0.353499,0.046 0.531598,0.059 -0.1763,-0.023 -0.3517,-0.048 -0.525298,-0.085 -0.363001,-0.076 -0.721,-0.17419 -1.075701,-0.2794 -0.318701,-0.094 -0.638,-0.1911 -0.943099,-0.31929 -0.1104,-0.047 -0.2588,-0.12671 -0.4103,-0.21471 -0.081,-0.10569 0.202599,-0.15549 0.518999,-0.16759 1.109501,0.224 2.153599,0.49439 3.299999,0.77279 0,0 0.01,-0.01 0,-0.01 -1.1528,-0.2794 -2.1683,-0.5376 -3.262299,-0.7676 0.02,0 0.038,0 0.059,0 0.542501,-0.01 1.154501,-0.018 1.8674,-0.035 0.547499,-0.013 0.963101,-0.032 1.3678,-0.051 0.037,0.033 0.073,0.066 0.110501,0.097 0.291399,0.2457 0.8226,0.6771 1.085799,0.8728 0.285499,0.2123 0.582401,0.4117 0.873401,0.6175 0.02,0.013 0.039,-0.013 0.02,-0.026 -0.931399,-0.6508 -0.7581,-0.4749 -1.5074,-1.188 -0.1236,-0.1176 -0.255601,-0.2301 -0.356899,-0.3652 0,0 0,0 0,0 0.064,0.031 0.129598,0.062 0.190399,0.099 0.177999,0.1082 0.448599,0.3208 0.615199,0.4476 0.152299,0.1046 0.3107,-0.097 0.1583,-0.2018 -0.074,-0.053 -0.149,-0.1064 -0.223099,-0.16 0.2125,0.067 0.4269,0.128 0.639101,0.1959 0.260599,0.083 0.513699,0.1887 0.7791,0.2576 1.33,0.3455 0.885698,0.1899 0.723799,0.1353 -0.01,0 -0.01601,0 -0.024,0 -0.234799,-0.032 -0.465101,-0.091 -0.693,-0.153 -0.264199,-0.072 -0.5271,-0.151 -0.7816,-0.2487 -0.295801,-0.1136 -0.5755,-0.2623 -0.8514,-0.4164 0.264599,-0.017 0.549698,-0.034 0.745199,-0.052 0.8202,-0.073 1.684099,0.1974 1.934602,0.3358 0.192598,0.123 0.389599,0.2416 0.563599,0.3864 0.08,0.067 0.154998,0.13981 0.229899,0.2123 -0.2369,-0.2813 -0.3147,-0.4184 -0.7489,-0.8675 -0.039,-0.04 -0.082,-0.075 -0.124399,-0.1117 0.2282,0.083 0.5564,0.22831 1.103899,0.40111 0.3423,0.11619 0.697299,0.2037 1.038001,0.32459 0.6097,0.2165 1.1977,0.487 1.8171,0.6776 0.678399,0.2086 1.383599,0.3306 2.0691,0.51751 0.4599991,0.1255 0.9107991,0.27959 1.3659981,0.41939 0.441098,0.063 0.535898,-0.52149 0.095,-0.58399 -0.4635,-0.01 -0.938599,0.063 -1.3911001,-0.032 -1.102701,-0.2314 -2.0671,-0.6862 -2.998301,-1.208 0.113901,0 0.227801,0 0.3418,0 0.398401,0.092 0.8001,0.16789 1.204401,0.2323 -0.1217,-0.019 -0.257802,-0.038 -0.3449,-0.058 -0.186999,-0.043 -0.3366,-0.098 -0.4782,-0.1605 0.332798,0.02 0.665099,0.05 0.996598,0.071 0.092,0.01 0.828501,0.044 1.038,0.055 0.173101,-0.01 0.164701,-0.2352 -0.01,-0.2294 -0.117001,0.036 -0.2281,0.097 -0.3507,0.1094 -0.223001,0.022 -0.449799,0.01 -0.673499,-0.01 -0.271301,-0.019 -0.540301,-0.061 -0.8093,-0.099 -0.147002,-0.021 -0.178001,-0.028 -0.272002,-0.042 -0.176998,-0.1557 0.211902,-0.2284 0.637101,-0.3147 0.565801,-0.1148 1.144399,-0.2158 1.6682,-0.2394 0.1946991,-0.01 0.1637011,-0.4329 0.053,-0.4511 -0.572598,-0.094 -1.7624,-0.4589 -2.6885,-0.761 -0.2749,-0.09 -0.541499,-0.1905 -0.363199,-0.287 0.284999,-0.065 0.3903,-0.079 1.242801,-0.1853 -0.9711,0.049 -0.968801,0.049 -1.415002,0.045 0.1418,-0.2723 0.341802,-0.4775 0.629602,-0.6863 0.073,-0.053 0.1489,-0.1019 0.224298,-0.1518 -0.076,0.044 -0.137599,0.078 -0.236199,0.1382 -0.367699,0.2236 -0.527701,0.3469 -0.806799,0.627 -0.02299,0.023 -0.041,0.048 -0.062,0.072 -0.038,-2.65e-4 -0.02601,2e-4 -0.07,0 0.091,-0.1324 0.185799,-0.2629 0.2827,-0.3917 0.112,-0.1361 -0.093,-0.2849 -0.205399,-0.1488 -0.063,0.096 -0.1202,0.1956 -0.188502,0.2882 -0.061,0.082 -0.1274,0.1609 -0.1929,0.2399 0.092,-0.2605 0.1149,-0.5369 0.196,-0.7998 0.01,-0.032 0.024,-0.062 0.036,-0.094 0.491101,-0.067 0.981601,-0.1357 1.4727,-0.2022 0.01,0 0.01,-0.01 0,-0.01 -0.2754,0.038 -0.878798,0.1238 -1.4702,0.2053 0.045,-0.1171 0.098,-0.2318 0.1382,-0.3506 0.160501,-0.4772 -0.01201,-0.2162 0.218702,-0.5069 0.052,-0.1313 -0.146101,-0.2007 -0.198602,-0.069 -0.1959,0.5959 0.124201,-0.4035 -0.1338,0.5446 -0.036,0.1342 -0.086,0.2646 -0.130098,0.397 -0.294201,0.04 -0.538102,0.071 -0.831202,0.1088 0.05,-0.01 0.099,-0.01 0.1489,-0.014 0.2272,-0.027 0.453702,-0.059 0.6804,-0.089 -0.01,0.019 -0.01299,0.037 -0.01799,0.056 -0.1339,0.4297 -0.1417,0.4674 -0.1929,0.5722 -0.226999,0.242 -0.639098,0.1236 -0.966398,0.05 -0.504902,-0.1136 -1.027602,-0.217 -1.5557,-0.3105 0.200099,-0.053 0.372298,-0.094 0.497599,-0.1176 -0.1866,0 -0.7019,-0.011 -0.922401,-0.018 -0.051,0 -0.088,0.019 -0.111199,0.046 -0.1999,-0.032 -0.398999,-0.063 -0.5988,-0.093 0.053,-0.038 0.1064,-0.074 0.1646,-0.1041 0.3859,-0.1962 0.818899,-0.3557 1.249101,-0.4699 -0.2081,0.043 -0.415502,0.089 -0.623901,0.1305 -0.183001,0.037 -0.3669,0.068 -0.549801,0.1053 0.217302,-0.1908 0.450302,-0.3621 0.6824,-0.5423 0.471501,-0.2681 0.066,-0.8921 -0.4053,-0.624 -0.2561,0.1208 -0.542398,0.1971 -0.7685,0.3623 -0.098,0.072 -0.197499,0.1573 -0.295199,0.2488 0,-0.059 0.01,-0.1178 0.02,-0.1758 0.053,-0.259 0.1212,-0.4731 0.2262,-0.6787 -0.139599,0.2028 -0.259,0.4126 -0.349401,0.6604 -0.045,0.1247 -0.059,0.2577 -0.081,0.3882 -0.048,0.052 -0.098,0.1006 -0.142701,0.1559 -0.056,0.024 -0.111199,0.046 -0.166499,0.066 -0.054,-0.2045 -0.069,-0.067 -0.01,-0.3094 -0.01199,-0.2363 -0.3691,-0.2206 -0.3569,0.016 -0.01198,0.3013 -0.015,0.088 0.032,0.3952 -0.087,0.02 -0.172299,0.037 -0.2569,0.049 0,-0.059 0,-0.1173 0,-0.1758 0,-0.1384 -0.01699,-0.277 -0.01,-0.4153 0.014,-0.2715 0.084,-0.6853 0.1256,-0.9563 0.01,-0.046 -0.061,-0.057 -0.07,-0.011 -0.054,0.3205 -0.113501,0.6406 -0.1646,0.9616 -0.02101,0.1333 -0.027,0.2689 -0.058,0.4006 -0.01799,0.078 -0.057,0.1505 -0.087,0.2252 -0.01201,0 -0.025,0 -0.037,0 -0.1084,-0.2357 -0.216601,-0.4985 -0.338601,-0.8586 z m 1.971,-0.5957 c 0.098,-0.1428 0.2047,-0.2827 0.324199,-0.4276 0.053,-0.064 0.111099,-0.1232 0.169701,-0.1823 -0.072,0.05 -0.1417,0.1016 -0.197302,0.1664 -0.129799,0.1512 -0.221099,0.2955 -0.296598,0.4435 z m 0.4939,-0.6099 c 0.059,-0.041 0.120298,-0.081 0.176599,-0.1253 0.02,-0.018 -0.01,-0.044 -0.028,-0.027 -0.049,0.051 -0.099,0.1013 -0.148899,0.1517 z m 1.220798,1.7838 c 0.111102,-0.023 0.221801,-0.046 0.333701,-0.065 0.316399,-0.053 0.637201,-0.08 0.955,-0.1252 0.133699,-0.019 0.190701,-0.031 0.288401,-0.046 -0.085,0.01 -0.158102,0.018 -0.291502,0.031 -0.32,0.031 -0.6418,0.06 -0.955699,0.1259 -0.109,0.023 -0.219601,0.051 -0.329901,0.08 z m 1.577102,-0.2365 c 0.431099,-0.046 0.390298,-0.04 0.867098,0.076 0.1617,0 0.168802,-0.2096 0.01,-0.214 -0.3461,0.058 -0.578198,0.094 -0.8745,0.1381 z m -1.3584,0.8752 c 0.01799,0 0.071,0 0.081,0 0.313798,-0.022 0.806299,-0.082 1.325099,-0.1476 -0.442701,0.046 -0.8885,0.067 -1.328901,0.1294 -0.015,0 -0.057,0.014 -0.077,0.018 z m 3.5877,-0.1953 c 0.465198,-0.271 0.592598,-0.2985 1.272998,-0.5622 0.036,-0.01 0.072,-0.019 0.1075,-0.029 -0.038,0.01 -0.075,0.012 -0.112498,0.017 -0.270201,0.102 -0.5525,0.1802 -0.811102,0.3059 -0.159498,0.077 -0.3098,0.1704 -0.4568,0.2676 z m 1.380498,-0.591 c 0.153302,-0.024 0.306501,-0.048 0.459901,-0.072 0.036,-0.01 0.02601,-0.056 -0.01101,-0.048 -0.149699,0.04 -0.299498,0.08 -0.449199,0.1206 z m -0.466299,3.98341 c 0.086,0.014 0.153699,0.027 0.252,0.041 -0.084,-0.012 -0.168,-0.027 -0.252,-0.041 z m -3.7724,0.23049 c 0.089,0.1053 0.197101,0.2285 0.358701,0.3994 0.015,0.015 0.031,0.03 0.046,0.045 -0.01299,-0.017 -0.02299,-0.036 -0.036,-0.053 -0.114601,-0.1366 -0.238902,-0.2662 -0.368201,-0.3911 z m 0.404601,0.444 c 0.107098,0.1406 0.191899,0.296 0.288398,0.4435 0.06,0.069 0.163301,-0.01 0.1036,-0.079 -0.130299,-0.1217 -0.2667,-0.2379 -0.391998,-0.3641 z m -1.5274,-0.5075 c 0,0 0.01,2e-4 0.01,0 -0.032,-0.01 -0.05,-0.014 -0.01,0 0.05,0.013 0.105198,0.031 0.385998,0.11881 0.089,0.015 0.1119,-0.10181 0.02299,-0.11701 -0.132998,0 -0.267499,0.012 -0.3996,0 h 10e-5 m -4.015599,0.377 c 0.1247,0.016 0.2502,0.032 0.374499,0.05 -0.015,0 -0.01199,-0.024 0,-0.02 -0.125698,-0.012 -0.251598,-0.021 -0.3776,-0.031 z m -4.817397,-0.34939 c -0.02,0.095 -0.043,0.16669 -0.046,0.68759 0,0.056 0.01,0.11251 0.01,0.1688 0,-0.06 0,-0.066 0.01101,-0.1688 0.01299,-0.2219 0.04,-0.44389 0.027,-0.6658 0,-0.01 0,-0.014 0,-0.022 z m -0.036,0.85639 c -0.014,0.2546 -0.01799,0.28621 -0.114998,0.62461 -0.01,0.097 0.1402,0.1056 0.147,0.01 0,-0.1013 0,-0.2023 -0.01,-0.3035 -0.01,-0.1101 -0.01701,-0.2199 -0.02601,-0.3299 z m -2.999601,-0.73869 c 0.015,0.023 0.029,0.047 0.045,0.069 0.01299,0.018 0.029,0.035 0.043,0.053 -0.01299,-0.019 -0.02299,-0.037 -0.037,-0.057 -0.01601,-0.023 -0.034,-0.043 -0.051,-0.065 z m 0.088,0.12229 c 0.191799,0.28421 0.289899,0.5247 0.4348,0.8398 0.028,0.056 0.112499,0.02 0.085,-0.036 -0.075,-0.1447 -0.134799,-0.2971 -0.224901,-0.4341 -0.086,-0.1308 -0.197498,-0.2454 -0.294698,-0.3693 z m 6.768907,-4.7745 c 0.036,-0.062 0.085,-0.1521 0.1119,-0.194 0.167,-0.266 0.285102,-0.4311 0.420301,-0.6146 -0.033,0.023 -0.064,0.047 -0.09,0.077 -0.1425,0.1581 -0.235101,0.3514 -0.336799,0.5351 -0.046,0.084 -0.073,0.1359 -0.104902,0.1971 z m 0.532201,-0.8086 c 0.082,-0.057 0.1787,-0.098 0.262599,-0.1529 0.062,-0.059 -0.028,-0.1419 -0.09,-0.082 -0.07,0.095 -0.117999,0.1609 -0.172699,0.2352 z m -2.583701,0.9598 c 0,0.014 -0.01,0.044 -0.01,0.056 -0.1626,0.1007 -0.3175,0.1958 -0.534702,0.3422 -0.081,0.054 -0.157398,0.1148 -0.234299,0.1741 -0.374999,0.019 -0.745101,0.047 -1.111499,0.081 0.4483,-0.2022 0.918898,-0.3605 1.3892,-0.5129 0.164399,-0.053 0.332,-0.097 0.499499,-0.1411 z m -0.03,0.1476 c -0.028,0.1247 -0.063,0.248 -0.09,0.3729 -0.01299,0.01 -0.02601,0.018 -0.039,0.027 -0.1169,0 -0.2365,0 -0.351901,0.01 0.02,-0.02 0.038,-0.043 0.06,-0.063 0.168,-0.1507 0.299302,-0.2555 0.4216,-0.3464 z m 13.1056,3.4065 c -0.160798,0 -0.321299,0.012 -0.481899,0.019 -0.096,-1.9e-4 -0.192299,0 -0.288401,0 -0.186399,0.019 -0.157499,0.2659 0.029,0.24651 0.3014,-0.1012 0.394801,-0.14691 0.7502,-0.18641 0.198601,-0.022 0.3997,-0.018 0.5994001,-0.028 0.027,0 0.025,-0.037 0,-0.036 -0.2023011,0 -0.4046011,-0.015 -0.6069991,-0.015 z m -0.851998,0.6775 c 0.183999,0.027 0.368199,0.053 0.5529,0.076 0.4578,0.057 0.9183001,0.097 1.3772991,0.145299 0.1412,0.015 0.1963,0.018 0.2966,0.027 -0.1022,-0.013 -0.150899,-0.021 -0.295399,-0.037 -0.390102,-0.044 -1.2644011,-0.122199 -1.9314001,-0.211199 z m 2.2267991,0.2482 c 0.614099,0.077 0.622599,0.1001 0.828699,0.098 -0.2088,-0.059 -0.2662,-0.046 -0.828699,-0.098 z m 0.828699,0.098 c 0.078,0.022 0.1811,0.054 0.3613,0.1071 0.087,0.01 0.1019,-0.1055 0.015,-0.1152 -0.1962,0 -0.3011,0.01 -0.3764,0.01 z m -14.2710981,-0.224 c -0.1445,-0.023 -0.2437,0.1656 -0.09,0.25521 0.526399,0.336 -0.1704,-0.088 0.569799,0.27289 0.1066,0.052 0.201001,0.12321 0.301601,0.18471 0.178099,0.092 0.318201,-0.14341 0.1401,-0.2358 -0.106,-0.05 -0.215501,-0.094 -0.3179,-0.15061 -0.7561,-0.416801 0.064,-0.019 -0.539099,-0.3029 -0.02199,-0.013 -0.043,-0.02 -0.064,-0.024 z"
       id="path11586" />
    <path
       sodipodi:nodetypes="cc"
       style="fill:#e5e5e5;fill-opacity:1;stroke:none;stroke-width:0.264583px;stroke-linecap:butt;stroke-linejoin:miter;stroke-opacity:1"
       d="m 174.27267,20.210865 c -0.2206,-0.01 -0.4079,0.2403 -0.2045,0.4428 0.3247,0.2713 0.6997,0.5007 0.9742,0.8139 0.1603,0.1829 0.3184,0.3911 0.4712,0.6123 -0.052,-0.038 -0.1279,-0.083 -0.4042,-0.2706 -0.011,-0.011 -0.029,0 -0.017,0.015 0.3693,0.46471 0.2108,0.27881 0.4626,0.565709 0.057,0.053 0.1258,0.038 0.1631,0 0.094,0.147801 0.1797,0.299601 0.2661,0.452501 -0.2969,-0.1958 -0.5961,-0.3894 -0.8982,-0.5788 -0.2809,-0.1711 -0.5477,0.1861 -0.2668,0.357099 0.1571,0.076 0.3262,0.134401 0.4709,0.2284 0.089,0.058 0.1803,0.1291 0.2722,0.204801 0,0.01 0,0.016 0,0.025 -0.2293,-0.1192 -0.4491,-0.25571 -0.6805,-0.3664 -0.124,-0.059 -0.2503,-0.1148 -0.3777,-0.168 0.3209,0.1626 0.7495,0.4024 0.9186,0.5127 0.048,0.031 0.092,0.066 0.1364,0.1002 -0.047,0.17479 -0.3457,0.21969 -0.6131,0.21869 -0.2156,0 -0.5795,0.044 -1.0103,0.11441 -0.039,-0.041 -0.076,-0.083 -0.1222,-0.1175 -0.3798,-0.280601 -0.8146,-0.41361 -1.2637,-0.60651 0.2931,0.1505 0.5993,0.2822 0.8795,0.45151 0.197,0.11899 0.2471,0.20009 0.3117,0.3058 -1.3634,0.23569 -3.2884,0.6766 -3.8339,0.71839 -0.069,0 -0.068,0.21601 -0.018,0.2354 0.394,0.1528 2.7808,0.58281 4.1767,0.76231 -0.079,0.053 -0.1887,0.1152 -0.4465,0.27129 -0.1244,0.075 -0.1958,0.1196 -0.2701,0.1651 0.087,-0.046 0.1316,-0.073 0.2818,-0.14989 0.1479,-0.075 0.3018,-0.1405 0.4526,-0.21111 0,0.10121 0,0.20101 0,0.28261 -0.017,0.1449 -0.053,0.28789 -0.089,0.4298 -0.028,0.10819 -0.069,0.213 -0.1044,0.3195 -0.014,0.049 0.063,0.067 0.077,0.017 0.018,-0.1109 0.027,-0.2231 0.054,-0.3324 0.036,-0.1437 0.093,-0.2826 0.1359,-0.4248 0.057,-0.189 0.077,-0.2667 0.095,-0.3453 0.2816,0.034 0.5285,0.059 0.6712,0.061 0.163,0.01 0.4224,0.047 0.6535,0.1344 -0.033,0.085 -0.067,0.1685 -0.1301,0.234799 -0.053,0.055 -0.3156,0.178901 -0.4157,0.227601 -0.1648,0.093 -0.018,0.3038 0.1468,0.2104 0.061,-0.04 0.1277,-0.073 0.1818,-0.1202 0.081,-0.071 0.1514,-0.1517 0.2221,-0.2311 0.1056,-0.1189 0.1481,-0.1718 0.1898,-0.2292 0.058,0.035 0.1114,0.074 0.1555,0.1189 -1e-4,0.01 -2e-4,0.01 -2e-4,0.015 0,0.1362 0.01,0.2734 -0.014,0.40849 -0.01,0.079 -0.051,0.1524 -0.072,0.22981 -0.04,0.1501 0.026,0.11809 -0.067,0.146 -0.099,0.16749 0.1643,0.2936 0.263,0.1262 0.01,-0.034 0.058,-0.25721 0.058,-0.261 0,-0.081 -0.03,-0.15931 -0.034,-0.23991 0,-0.073 0,-0.14519 0,-0.21779 0.077,0.13809 0.1715,0.2986 0.2245,0.388 0.16132,0.3025 0.6359,0.098 0.47461,-0.2046 -0.327,-0.467 -0.013,0.04 -0.099,-0.3382 -0.013,-0.062 0.036,-0.14041 0.11351,-0.2016 0.12499,0.092 0.1661,0.1217 0.71181,0.522 0.022,0.018 0.05,-0.011 0.028,-0.028 -0.44892,-0.3989 -0.54401,-0.4674 -0.63172,-0.5582 0.05,-0.021 0.10422,-0.033 0.15811,-0.03 0.1614,0.01 0.3224,0.021 0.4838,0.03 0.0101,0.021 0.027,0.041 0.058,0.054 0.2622,0.11649 0.13761,0.054 0.4291,0.22299 0.095,0.055 0.18931,0.1107 0.28401,0.1662 0.045,0.03 0.091,-0.028 0.047,-0.057 -2.58811,-1.9934 2.32979,1.7946 -0.25831,-0.1988 -0.14129,-0.1085 -0.17989,-0.1399 -0.21569,-0.1658 0.17079,0.011 0.34179,0.019 0.51229,0.032 0.2804,0.022 0.5666,0.045 0.8514,0.068 0.053,0.08 0.093,0.16301 0.14351,0.28461 0.1034,0.24919 0.10189,0.18129 0.043,0.35829 0.01,0.1324 0.21489,0.1235 0.2073,-0.01 -0.10031,-0.3294 0.04,0.1 -0.166,-0.3813 -0.038,-0.089 -0.062,-0.165 -0.088,-0.2416 0.1253,0.011 0.24878,0.021 0.3729,0.033 0.085,0.096 0.16539,0.1948 0.22349,0.30461 0.075,0.14149 0.11851,0.29579 0.15759,0.44859 0.03,0.115801 0.032,0.236001 0.047,0.354011 0.019,0.107089 0.18708,0.083 0.16819,-0.024 -0.033,-0.12141 -0.062,-0.2433 -0.098,-0.3639 -0.073,-0.24401 -0.1511,-0.467 -0.24199,-0.6946 0.9915,0.1005 1.90558,0.2487 2.47619,0.5452 0.075,0.078 0.19401,0.2054 0.41219,0.4355 0.50983,0.53759 0.53541,0.4475 0.64492,1.05339 0.0101,0.031 -0.0161,0.06 -0.0241,0.09 0.16018,0.393805 0.7773,0.191215 0.6172,-0.2026 -0.3388,-0.2376 -0.052,-0.01 -0.4535,-0.5258 -0.16081,-0.2067 -0.3448,-0.3989 -0.503,-0.6074 -0.058,-0.077 -0.11311,-0.1564 -0.1674,-0.23589 0.059,0.028 0.1147,0.056 0.25879,0.11739 0.16521,0.07 0.34531,0.1107 0.50699,0.1872 0.33013,0.15611 0.4118,0.2466 0.66001,0.4544 0.1152,0.077 0.23611,-0.069 0.12081,-0.1463 -0.10261,-0.049 -0.2081,-0.093 -0.3079,-0.14619 -0.7013,-0.37431 -0.13822,-0.1187 -0.8903,-0.4943 -0.13242,-0.066 -0.2786,-0.10971 -0.4047,-0.18531 0,0 0,0 0,0 0.24238,0.03 0.49019,0.061 0.69821,0.086 0.0101,0.031 0.0259,0.06 0.067,0.082 0.40219,0.1441 0.6976,0.2433 1.05389,0.4078 -0.21289,-0.1421 -0.4181,-0.29429 -0.63331,-0.4337 0.10882,0.012 0.23172,0.027 0.32711,0.037 0.358,0.077 0.7122,0.167309 1.0678,0.253909 0.039,0.021 0.068,0.033 0.1266,0.069 0.1102,0.068 0.21061,0.1479 0.31549,0.2224 0.10282,0.073 0.2073,0.144401 0.3075,0.220301 0.084,0.064 0.16373,0.132999 0.24591,0.1992 0.05,0.04 0.10011,0.08 0.15009,0.119799 0.084,0.056 0.17111,-0.05 0.087,-0.106 -0.056,-0.031 -0.11411,-0.058 -0.16771,-0.092 -0.089,-0.057 -0.1741,-0.118999 -0.26009,-0.1799 -0.10332,-0.073 -0.2069,-0.146599 -0.308,-0.2223 -0.07,-0.052 -0.1379,-0.106599 -0.20661,-0.160299 2.06631,0.4727 1.14921,0.166699 2.74081,0.7969 0.3238,0.1046 0.48639,-0.3077 0.16259,-0.4123 -1.603,-0.3815 -0.8809,-0.1908 -2.8412,-0.7673 -0.10819,-0.032 -0.34549,-0.1027 -0.5102,-0.1523 -0.087,-0.053 -0.11401,-0.1096 -0.09,-0.1655 0.079,0.01 0.16251,0.017 0.24122,0.027 -0.077,-0.014 -0.15441,-0.026 -0.23071,-0.043 0.094,-0.152001 0.56369,-0.297801 1.25891,-0.3603 0.4309,-0.039 0.9157,-0.079 1.46129,-0.121501 0.39651,-0.031 0.79431,-0.04 1.1923,-0.043 0.01,0.014 0.0159,0.026 0.0241,0.04 0.064,0.1122 0.1265,0.2256 0.18971,0.3385 0.018,0.047 0.091,0.024 0.073,-0.022 -0.03,-0.1184 -0.056,-0.238399 -0.091,-0.3556 0.092,0 0.18499,-2e-4 0.2776,0 0.16729,0.031 0.32469,0.062 0.4023,0.088 0.37819,0.1258 0.611,0.3106 0.95279,0.4849 0.5249,0.2677 0.1769,0.022 0.54829,0.3138 0.038,0.038 0.076,0.076 0.11412,0.1145 0.16129,0.1247 0.35668,-0.08 0.19539,-0.2049 -0.058,-0.039 -0.11559,-0.078 -0.1733,-0.1168 -0.083,-0.039 -0.16391,-0.083 -0.25019,-0.1162 -1.11231,-0.4223 0.53409,0.2599 -0.83402,-0.2808 -0.18179,-0.072 -0.3574,-0.1566 -0.53639,-0.2341 -0.037,-0.016 -0.073,-0.031 -0.1102,-0.047 0.31549,0.01 0.63101,0.013 0.9466,0.021 0.2176,0.025 0.18212,0.013 0.50149,0.1522 0.12222,0.053 0.24771,0.1019 0.36211,0.1677 0.1125,0.065 0.20799,0.1509 0.31549,0.2224 0.095,0.063 0.19492,0.1207 0.29181,0.1818 0.063,0.04 0.12592,0.081 0.18891,0.1213 0.1084,0.046 0.18018,-0.092 0.072,-0.1381 -0.067,-0.021 -0.13761,-0.034 -0.20151,-0.062 -0.26911,-0.1174 -0.3865,-0.2153 -0.63741,-0.3687 -0.15049,-0.092 -0.30308,-0.1821 -0.45918,-0.2665 0.1764,0.01 0.35308,0.01 0.5293,0.012 0.4423,0 0.59129,0.1561 0.72638,0.2381 0.033,0.027 0.073,0.051 0.12822,0.064 0.3556,0.051 0.71229,0.095 1.06939,0.1356 0.097,0.071 0.19371,0.1407 0.2893,0.2123 0.17431,0.1305 0.34229,0.2678 0.5176,0.3972 0.033,0.024 0.028,0.021 0.053,0.04 -0.2159,-0.1801 -0.48839,-0.3833 -0.56589,-0.442 -0.087,-0.066 -0.17251,-0.1347 -0.25831,-0.2027 0.64291,0.072 1.2878,0.1276 1.93341,0.1782 -0.067,-0.01 -0.1348,-0.015 -0.2019,-0.026 -1.28701,-0.1972 -1.5739,-0.2907 -2.2392,-0.5652 0.23498,0.053 0.42889,0.099 0.6077,0.1376 -0.12481,-0.037 -0.25932,-0.086 -0.4005,-0.1455 0.3348,0.049 0.66929,0.099 1.00409,0.1487 0.64749,0.09 1.19229,-0.1516 1.94101,-0.3831 0.052,7.94e-4 0.1683,0.01 0.41378,0.031 0.72793,0.065 0.72941,0.081 1.44021,0.2079 0.097,0.025 0.19399,0.049 0.2912,0.074 0.073,0.014 0.095,-0.078 0.022,-0.093 -0.10242,-0.01 -0.20471,-0.011 -0.3071,-0.016 -0.23731,-0.034 -0.47591,-0.061 -0.71202,-0.1006 -0.24239,-0.041 -0.48189,-0.095 -0.72279,-0.143 -0.056,-0.012 -0.11139,-0.024 -0.16679,-0.037 0.33938,-0.096 0.71818,-0.1834 1.16948,-0.2354 0.13581,-0.016 0.27702,-0.8053 -0.044,-0.8403 -1.06209,-0.1158 -2.96489,-0.4446 -2.96489,-0.4446 0,0 -0.3288,0.07 -0.49321,0.1045 -0.15558,-0.085 -0.302,-0.1874 -0.45358,-0.2805 0.42,-0.1052 1.04339,-0.1989 1.65378,-0.2682 -0.68008,0 0.21291,-0.1036 -1.78678,-0.079 -0.0169,-1.9e-4 -0.034,0 -0.052,0 0.18161,-0.074 0.36391,-0.1474 0.55002,-0.21069 0.047,0.013 0.10048,0.01 0.15269,-0.032 0.0101,-0.01 0.0169,-0.017 0.0259,-0.025 0.01,0.093 0.1162,0.1765 0.24799,0.1192 0.2132,-0.057 0.56261,-0.1538 0.747,-0.1761 0.23611,-0.029 0.47569,-0.031 0.7139,-0.035 0.7384,-0.015 0.93069,2.6e-4 1.4705,0.035 -0.61659,-0.046 -0.27869,-0.023 -1.4705,-0.076 -0.22921,-0.011 -0.45821,-0.031 -0.6876,-0.035 0.36041,-0.016 0.6813,0.019 1.11029,0.048 0.55161,-0.06 0.45551,-0.7632 -0.096,-0.7033 -0.2141,0.068 -0.42439,0.1473 -0.6424,0.2047 -0.29179,0.077 -0.5868,0.1437 -0.88199,0.2097 0.17759,-0.1203 0.37118,-0.2392 0.55729,-0.3469 -0.1392,0.064 -0.23151,0.1084 -0.43749,0.2016 -0.33491,0.1516 -0.49951,0.2204 -0.5833,0.2501 -0.0249,0.01 -0.051,0.012 -0.076,0.017 0.01,-0.025 0.1756,-0.1127 -0.054,0.013 -0.28699,0.065 -0.5725,0.1353 -0.85558,0.2134 0,0 0,0 0,0 -0.14462,0.043 -0.32372,0.077 -0.51311,0.1056 0.037,-0.039 0.074,-0.078 0.11719,-0.1129 0.12771,-0.1033 0.2826,-0.1765 0.41312,-0.2771 0.9652,-0.7439 -0.16881,-0.016 1.09008,-0.7678 0,0 1.1e-4,0 0,0 -0.24228,0.1021 -0.498,0.1817 -0.72718,0.3059 -0.17502,0.095 -0.3202,0.2286 -0.47702,0.3465 -0.13218,0.099 -0.25709,0.2067 -0.38978,0.3055 -0.1129,0.084 -0.2291,0.1641 -0.3466,0.2431 -0.39651,0.043 -0.7918,0.063 -1.0118,0.065 -0.4174,0 -0.8192,0.061 -1.2397,0.1292 0.264,-0.3306 0.71768,-0.7006 1.04208,-0.9202 0.014,-0.01 0.027,-0.017 0.041,-0.026 -0.26562,0.1481 -0.52592,0.3031 -0.82461,0.5096 -0.16081,0.1112 -0.30011,0.2453 -0.45201,0.3663 -0.054,0.043 -0.10959,0.085 -0.1647,0.1267 -0.47178,0.082 -0.9905,0.173 -1.6265,0.2439 0.022,-0.029 0.046,-0.057 0.066,-0.086 0.33671,-0.49331 0.2005,-0.3889 0.5996,-0.90481 0.083,-0.1077 0.17531,-0.2093 0.26681,-0.31159 0.044,-0.037 0.089,-0.074 0.13329,-0.1106 -0.041,0.033 -0.082,0.066 -0.1229,0.099 0.032,-0.036 0.064,-0.071 0.096,-0.1077 0.073,-0.07 0.1457,-0.1403 0.21849,-0.2104 0.083,-0.1069 -0.085,-0.2125 -0.16799,-0.1055 -0.044,0.089 -0.089,0.1768 -0.13319,0.2653 -0.40272,0.5178 -0.36142,0.4689 -0.32962,0.42269 0,0 -0.01,0 -0.01,0.01 0,0 0,0 0.01,0 0,-0.01 -0.01,0.011 -0.01,0 0.01,-0.017 0,-0.01 -0.048,0.04 -0.031,0.025 -0.062,0.052 -0.093,0.077 -0.40679,0.3289 -0.81579,0.6442 -1.2288,0.9643 -0.0101,0.01 -0.014,0.02 -0.0201,0.03 -0.41878,0.03 -0.83738,0.055 -1.25629,0.076 -0.0201,-0.1921 -0.062,-0.3825 -0.07,-0.5754 0,-0.03 0,-0.06 0,-0.09 0.0151,-0.011 0.028,-0.025 0.043,-0.036 -0.014,0.01 -0.029,0.014 -0.043,0.022 0,-0.063 0,-0.12639 0,-0.1896 -0.0161,0.07 -0.03,0.141 -0.044,0.21171 -0.18351,0.097 -0.37412,0.1842 -0.55901,0.2795 -0.11091,0.057 -0.22659,0.10869 -0.3284,0.17839 0,0 -0.01,0.01 -0.01,0.01 -0.16481,0.1099 -0.39741,0.1829 -0.6163,0.2221 0.0169,-0.056 0.035,-0.1105 0.045,-0.1672 0.10499,-0.6182 0.075,-0.5454 0.061,-0.5092 0.034,-0.026 0.057,-0.067 0.058,-0.1223 -0.0101,-0.024 -0.0101,-0.044 -0.014,-0.067 0.0119,-0.053 -0.0111,0.038 0.079,-0.3436 0.052,-0.222 0.08,-0.4505 0.16219,-0.6649 0.077,-0.1999 0.20701,-0.3792 0.31062,-0.5689 0.082,-0.08 0.16428,-0.16 0.24638,-0.24 0.068,-0.092 -0.077,-0.1791 -0.1447,-0.087 -0.048,0.1037 -0.095,0.2076 -0.1429,0.3113 -0.45,0.9421 -0.12679,0.2198 -0.51689,1.2303 -0.013,0.033 -0.028,0.066 -0.042,0.099 -0.01,-0.052 -0.01,-0.1055 -0.01,-0.1664 0.01,-0.1501 0.03,-0.2997 0.062,-0.4471 0.035,-0.1634 0.093,-0.3223 0.13941,-0.4834 0.023,-0.072 -0.091,-0.1014 -0.11372,-0.029 -0.048,0.1642 -0.095,0.3286 -0.1438,0.4925 -0.046,0.1551 -0.10649,0.3072 -0.1429,0.464501 -0.0209,0.092 -0.0209,0.187199 -0.032,0.280699 -0.0249,-0.1399 -0.053,-0.2794 -0.069,-0.420199 -0.0151,-0.129301 -0.0101,-0.259601 -0.0159,-0.389501 -0.12358,-0.3647 -0.69548,-0.2085 -0.57179,0.1561 0.072,0.086 0.1796,0.1559 0.21439,0.2589 0.075,0.2216 0.076,0.443 0.054,0.664401 -0.0101,0 -0.0111,0.01 -0.0169,0.01 -0.36301,0.166399 -0.7154,0.2882 -1.07201,0.4569 0.0209,-0.023 0.051,-0.039 0.22751,-0.195301 0.26768,-0.233699 -0.10011,-0.5756 -0.36771,-0.341799 -0.1438,0.117499 -0.31078,0.2154 -0.43141,0.352499 -0.033,0.037 -0.051,0.069 -0.073,0.102701 -0.027,0.023 -0.055,0.041 -0.083,0.062 0.086,-0.3105 0.035,-0.2133 0.18409,-0.606 0.0259,-0.069 0.0201,-0.048 0.035,-0.083 0.043,0.049 0.137,0.058 0.18161,-0.019 0.12279,-0.253 0.052,-0.1317 0.21299,-0.3636 0.06,-0.087 -0.077,-0.164 -0.13661,-0.077 -0.10758,0.1515 -0.13369,0.1788 -0.16989,0.2241 0,-0.02 0,-0.017 0.034,-0.1338 0.0241,-0.093 -0.12229,-0.1234 -0.14589,-0.031 -0.01,0.064 -0.01,0.1283 -0.0201,0.1917 -0.0249,0.1432 -0.10681,0.466 -0.1543,0.5928 -0.043,0.1163 -0.1043,0.2264 -0.1541,0.3407 -0.022,0.05 -0.0151,0.037 -0.029,0.07 -0.49102,0.2704 -1.08472,0.2322 -1.61491,0.2237 -0.0101,-2e-4 -0.018,-2e-4 -0.027,-5.29e-4 0.048,-0.213401 0.10139,-0.4428 0.14229,-0.5434 0.071,-0.1732 0.17529,-0.333 0.27141,-0.495801 0.0151,-0.025 0.0191,-0.033 0.032,-0.055 0.0161,-0.01 0.031,-0.014 0.047,-0.019 0.15481,-0.055 0.3225,-0.074 0.4836,-0.1118 0.082,-0.026 0.041,-0.130099 -0.041,-0.104299 -0.15301,0.063 -0.3089,0.1204 -0.45881,0.1892 0,0 0,0 -0.0101,0 0.17561,-0.3058 0.12862,-0.2513 0.42101,-0.4705 0.10599,-0.1392 -0.1133,-0.2749 -0.21932,-0.1357 -0.092,0.2769 -0.11297,0.368499 -0.26958,0.639699 -0.3905,0.182501 -0.77589,0.3871 -1.129,0.6223 -0.13949,0.093 -0.2707,0.195801 -0.40209,0.298101 0,-0.071 0,-0.1017 0,-0.204 0,-0.094 0.0101,-0.1886 0.013,-0.283 -0.0101,0.094 -0.0151,0.1874 -0.034,0.279799 -0.022,0.1083 -0.042,0.193801 -0.063,0.270601 -0.0161,0.013 -0.032,0.026 -0.049,0.038 -0.0241,0.018 -0.048,0.037 -0.072,0.056 -0.52409,-0.011 -1.0481,-0.02 -1.57218,-0.031 0.099,-0.061 0.19589,-0.126301 0.3031,-0.174801 0.31629,-0.143199 1.08318,-0.403199 1.4917,-0.5462 0,0.036 0,0.071 -0.0101,0.107001 0,-0.036 0.0101,-0.073 0.0111,-0.1094 0.062,-0.022 0.18108,-0.062 0.21949,-0.077 0.36068,-0.13249 0.717,-0.2745 1.07559,-0.4117 -0.20691,0.076 -0.7679,0.2835 -1.2944,0.47611 0.0101,-0.099 0.0111,-0.19751 0.0201,-0.29591 -1e-4,0.01 -0.0119,0.01 -0.0119,-1.9e-4 0,0.1 -0.0101,0.19899 -0.014,0.2985 -0.31909,0.1167 -0.6627,0.24289 -0.79848,0.28839 -0.23731,0.08 -0.48202,0.1393 -0.72062,0.21531 -1.14938,0.36559 0.1025,-0.01 -0.64638,0.2133 0,0 -0.01,0.01 -0.0119,0.01 -0.071,-7.94e-4 -0.142,0 -0.21291,-0.01 0.056,-0.07 0.11322,-0.13901 0.16741,-0.21011 0.12491,-0.1638 0.2342,-0.3376 0.36771,-0.4958 0.3184,-0.37739 0.5369,-0.5954 0.78809,-0.83539 -0.057,0.048 -0.1161,0.095 -0.17039,0.1465 -0.85701,0.80759 -0.39291,0.4492 -1.05571,1.13439 -0.078,0.081 -0.16849,0.1512 -0.25221,0.22731 -0.069,-0.042 -0.13477,-0.1237 -0.16129,-0.24411 0,0 0,0 0,0 -0.0111,-0.041 -0.019,-0.082 -0.0201,-0.1234 -0.0111,-0.23039 -0.013,-0.46529 0.039,-0.6908 0.049,-0.20979 0.1728,-0.39909 0.25921,-0.59869 0.014,-0.038 -0.044,-0.056 -0.058,-0.018 -0.077,0.2196 -0.3627,1.0185 -0.42919,1.278 -0.066,-0.3155 -0.09,-0.6349 -0.098,-0.9554 -0.0151,0.1312 -0.034,0.2624 -0.046,0.394 -0.044,0.5021 -0.027,0.4309 -0.043,0.522 -0.062,-0.076 -0.1242,-0.152 -0.18471,-0.2289 -1.38499,-1.7578 -0.6999,-0.8311 -1.80799,-2.392 -0.068,-0.068 -0.1446,-0.097 -0.21821,-0.098 z m 2.30009,1.8028 c 0.0101,-0.06 0.0151,-0.1193 0.018,-0.1792 0.01,-0.1933 -0.0101,-0.3869 -0.0101,-0.5804 -2.1e-4,0.01 -0.0119,0.01 -0.0119,-2e-4 0,0.2525 0,0.5064 0,0.7598 z m 1.94911,-0.1538 c 0.1333,-0.1117 0.27041,-0.2198 0.4042,-0.331 0.0101,-0.01 0.013,-0.02 0.019,-0.03 -0.0161,0 -0.033,0 -0.049,0 -0.081,0.077 -0.294,0.2809 -0.37438,0.3577 z m 0.42341,-0.3613 c 0.063,0 0.1265,-0.01 0.1896,-0.013 0.1092,-0.059 0.0169,-0.198 -0.092,-0.1394 -0.038,0.061 -0.059,0.092 -0.097,0.1529 z m 7.45099,1.0438 c 0.0169,-0.074 0.034,-0.148 0.046,-0.2228 0.013,-0.079 0.018,-0.1583 0.0249,-0.2377 -0.023,0.078 -0.044,0.1563 -0.054,0.2363 -0.0101,0.074 -0.014,0.14921 -0.0161,0.2242 z m 0.071,-0.4605 c 0.0201,-0.067 0.04,-0.1333 0.058,-0.2004 0,-0.023 -0.033,-0.028 -0.037,-0.01 -0.01,0.069 -0.0151,0.1371 -0.0209,0.2058 z m -0.028,0.6279 c 0.0101,0 0.013,-0.01 0.019,-0.01 0.36431,-0.2085 0.54703,-0.3168 0.66712,-0.390101 -0.21561,0.098 -0.42262,0.206801 -0.67021,0.386601 -0.0101,0 -0.0109,0.01 -0.0159,0.014 z m 0.68601,-0.4 c 0.15651,-0.071 0.31319,-0.13689 0.5147,-0.22429 0.05,-0.023 0.013,-0.087 -0.036,-0.063 -1.6434,0.8707 0.11388,-0.074 -0.47841,0.28779 z m 2.4358,-0.4555 c 0.066,-0.053 0.13359,-0.1058 0.1991,-0.1597 0,0 0,0 0,0 -0.065,0.054 -0.13081,0.1079 -0.1959,0.1622 z m 2.00189,0.1669 c 0.23371,-0.1303 0.47091,-0.2553 0.7533,-0.4082 -0.0111,0.01 -0.0209,-0.01 -0.0101,-0.014 -0.24738,0.1412 -0.50638,0.2671 -0.74319,0.422 z m 4.0159,-0.09 c 0.56581,-0.2617 0.6921,-0.3328 0.5797,-0.2976 -0.054,0.025 -0.11099,0.046 -0.16459,0.072 -0.12161,0.059 -0.26602,0.1393 -0.41511,0.2257 z m 0.5797,-0.2976 c 0.1229,-0.056 0.24569,-0.1118 0.37121,-0.1628 -0.27889,0.1113 -0.54361,0.2167 -0.37121,0.1628 z m 1.53131,0.9969 c 0.1022,0.01 0.049,0 0.2268,0.016 0,-10e-5 0,0 0,0 -0.1101,-0.01 -0.1414,-0.01 -0.2268,-0.013 z m -2.06921,0.3993 c 0.2335,5.29e-4 0.6481,-0.01 1.43481,-0.038 0.21368,-0.01 0.42659,-0.027 0.63929,-0.048 -0.21389,-0.018 -0.42759,-0.032 -0.64209,-0.027 -0.34811,0.01 -0.88389,0.051 -1.43201,0.1131 z m 2.0741,-0.086 c 0.2318,0.02 0.4635,0.045 0.6954,0.06 0.10131,0 0.099,-0.1303 0,-0.129 -0.23119,0.02 -0.4618,0.046 -0.69281,0.069 z m -3.74489,2.50661 c 0.2684,0.08 0.53618,0.12499 0.9566,0.16409 0.18598,0.017 0.37338,0.028 0.56068,0.03 -0.18647,-0.01 -0.37298,-0.026 -0.5584,-0.044 -0.4163,-0.042 -0.68879,-0.091 -0.95888,-0.1496 z m 1.51728,0.19389 c 0.12782,0.01 0.25572,0.01 0.38312,5.29e-4 0.27779,-0.018 0.54438,-0.1049 0.81658,-0.1572 0,0 0,0 1.1e-4,0 -0.2721,0.05 -0.53919,0.1301 -0.816,0.1505 -0.12758,0.01 -0.25559,0.011 -0.38381,0.01 z m 0.3161,0.2593 c 0.73642,0.099 1.48281,0.1292 2.22372,0.19701 -0.0249,0 -0.022,-0.035 0,-0.032 -0.742,-0.054 -1.4849,-0.106511 -2.22732,-0.164601 z m -1.10919,0.4665 c 0.1056,0.088 0.2013,0.17161 0.2471,0.22821 0.029,0.035 0.0191,0.086 0.027,0.12839 0.089,0.089 0.22879,-0.024 0.13978,-0.113 -0.21989,-0.085 -0.19259,-0.077 -0.41418,-0.2436 z m -9.1581,-0.56259 c 0.20651,0.038 0.4146,0.069 0.62281,0.098 0.10689,0.015 0.2486,0.029 0.3706,0.044 -0.1224,-0.02 -0.2449,-0.041 -0.3678,-0.058 -0.22421,-0.032 -0.42421,-0.06 -0.62561,-0.085 z m 0.99341,0.14229 c 0.21151,0.034 0.4227,0.068 0.63579,0.092 3.35531,0.3791 -0.6168,-0.1384 1.54321,0.1487 0.072,0 0.077,-0.089 0,-0.092 -0.18949,2.1e-4 -0.37891,0.012 -0.56822,0 -0.47138,-0.023 -1.0858,-0.086 -1.61517,-0.1521 z m -1.74911,0.6039 c 0.077,0.052 0.15491,0.1034 0.23569,0.1505 0.43132,0.2211 0.52851,0.26881 0.6477,0.3301 -0.2222,-0.1342 -0.44159,-0.26249 -0.62889,-0.3584 -0.091,-0.046 -0.17259,-0.084 -0.2545,-0.1222 z m 0.88339,0.4806 c 0.2885,0.17421 0.58232,0.3599 0.82233,0.5099 0.0198,0.012 0.039,-0.014 0.019,-0.026 -0.54002,-0.3213 -0.66001,-0.3902 -0.84151,-0.4835 z m -12.29109,-1.3598 c -0.1083,0.058 -0.2598,0.13941 -0.3344,0.1855 0.082,-0.035 0.1787,-0.09 0.3344,-0.1855 z m -0.3344,0.1855 c -0.088,0.038 -0.1853,0.07 -0.4266,0.1533 -0.069,0.034 -0.015,0.1219 0.054,0.088 0.186,-0.1222 0.2738,-0.17999 0.3729,-0.2413 z m 1.4896,-3.31729 c -0.1274,-0.065 -0.2408,-0.11891 -0.3096,-0.14521 -0.1365,-0.052 -0.2803,-0.086 -0.4245,-0.1187 0.1393,0.043 0.2788,0.086 0.4146,0.1365 0.1075,0.04 0.2137,0.083 0.3195,0.12741 z m -0.7341,-0.26391 c -0.078,-0.024 -0.1557,-0.048 -0.2331,-0.072 -0.013,0 -0.019,0.012 0,0.016 0.079,0.021 0.1589,0.039 0.2387,0.056 0,0 -1e-4,1.1e-4 -2e-4,1.1e-4 z m 15.29171,-0.014 c -0.053,0.056 -0.14919,0.163009 -0.3671,0.419309 -0.33711,0.396401 -0.4253,0.5081 -0.42,0.5102 -0.033,0.035 -0.039,0.04 -0.096,0.102001 -0.037,0 -0.073,0.01 -0.11051,0.011 0.27961,-0.3643 0.36409,-0.4731 0.90231,-0.9653 0.029,-0.027 0.062,-0.051 0.091,-0.077 z m -7.9843,0.1349 c 0,0 0,0.01 -0.01,0.013 -0.098,0.1652 -0.22641,0.31461 -0.32661,0.4785 -0.1194,0.1952 -0.2101,0.3809 -0.30141,0.572399 -0.28199,0 -0.56409,-0.011 -0.84608,-0.017 0.1846,-0.195199 0.36718,-0.386399 0.41079,-0.422499 0.30181,-0.250501 0.68551,-0.4739 1.0704,-0.6246 1e-4,10e-5 1e-4,2e-4 2.1e-4,2.64e-4 z m 3.23159,0.339509 c -0.01,0.066 -0.0161,0.132601 -0.027,0.1989 -0.16118,0.479801 -0.4975,0.547891 -0.77888,0.549501 -0.14941,7.93e-4 -0.29879,7.93e-4 -0.4482,5.29e-4 0.01,-0.01 0.013,-0.019 0.019,-0.028 0.075,-0.063 0.15179,-0.12709 0.2023,-0.1597 0.14531,-0.093 0.3085,-0.16109 0.46119,-0.24439 0.42011,-0.2295 0.48062,-0.2803 0.57081,-0.3167 z m 2.03359,0.048 c 0,0.015 -0.01,0.031 -0.01,0.046 -0.03,0.1939 -0.032,0.39099 -0.059,0.5853 -0.21352,0.01 -0.42701,0.019 -0.64061,0.027 0.047,-0.068 0.076,-0.095 0.28901,-0.2836 0.1402,-0.1246 0.2754,-0.2545 0.42029,-0.3745 z m -1.59509,-0.01 c 0,0 0,0 0,0 -1.1e-4,0 -1.1e-4,0 0,0.01 0,0 1e-4,-0.01 1e-4,-0.01 z m -8.10228,0.3432 c -1.1e-4,0 -1.1e-4,0.01 -1.1e-4,0.01 0,0 0,0 -0.01,-0.01 0,0 0,0 0.01,0 z"
       id="path11588" />
    <path
       id="path11590"
       d="m -87.093629,171.89707 c 12.3172,-0.5999 12.5352,-0.06 36.7863,-0.7199 15.783201,-0.4295 31.6116,0.4489 47.4210009,0.6108 16.9201991,0.1733 33.8412991,0.3576 50.7659991,0.3943 14.6905,0.032 29.3802,-0.129 44.0706,-0.1884 15.680599,-0.063 31.361299,-0.1198 47.041999,-0.18 45.28061,0.1924 43.0049,0.2026 86.28179,0.3136 9.4234,0.025 18.8486,0.127 28.27102,0.058 5.94159,-0.044 11.86969,-0.2652 17.80469,-0.3978 2.25041,-0.05 2.0892,-1.439 -0.1615,-1.3893 -21.27211,-0.119 -21.0589,-0.2262 -45.9145,0.2649 -62.1508,1.2281 -19.5113,1.4442 -86.2815,0 l -47.042399,-0.191 c -14.6904,0.3625 -29.3573,1.043 -44.0705,1.0875 -16.9328,0.051 -33.8329,-0.8096 -50.7659001,-0.8009 -15.8204979,0.01 -31.6140989,0.5676 -47.4210989,0.8514 -8.675401,-0.3871 -17.317501,-0.9636 -26.026301,-1.1614 -3.5905,-0.082 -7.1733,0.2176 -10.76,0.3263 -1.8236,0 -1.8236,1.1256 0,1.1256 z"
       style="fill:#e5e5e5;fill-opacity:1;stroke:none;stroke-width:0.264583px;stroke-linecap:butt;stroke-linejoin:miter;stroke-opacity:1"
       sodipodi:nodetypes="cc" />
  </g>
</svg>
