<?xml version="1.0" encoding="UTF-8" standalone="no"?>
<svg
   xmlns:dc="http://purl.org/dc/elements/1.1/"
   xmlns:cc="http://creativecommons.org/ns#"
   xmlns:rdf="http://www.w3.org/1999/02/22-rdf-syntax-ns#"
   xmlns:svg="http://www.w3.org/2000/svg"
   xmlns="http://www.w3.org/2000/svg"
   xmlns:sodipodi="http://sodipodi.sourceforge.net/DTD/sodipodi-0.dtd"
   xmlns:inkscape="http://www.inkscape.org/namespaces/inkscape"
   width="2.2457995mm"
   height="10.053917mm"
   viewBox="0 0 2.2457995 10.053917"
   version="1.1"
   id="svg6832"
   inkscape:version="1.0 (4035a4fb49, 2020-05-01)"
   sodipodi:docname="scroll_bar - background_detail_1.svg"
   inkscape:export-filename="D:\Calcatz\Icon Pack\Adventure Narative Inspired by Arrival\GUI\Obtain Logogram\png\scroll_bar - background_detail_1.png"
   inkscape:export-xdpi="96"
   inkscape:export-ydpi="96">
  <defs
     id="defs6826" />
  <sodipodi:namedview
     id="base"
     pagecolor="#ffffff"
     bordercolor="#666666"
     borderopacity="1.0"
     inkscape:pageopacity="0.0"
     inkscape:pageshadow="2"
     inkscape:zoom="1.2869664"
     inkscape:cx="67.764672"
     inkscape:cy="54.655312"
     inkscape:document-units="mm"
     inkscape:current-layer="layer1"
     inkscape:document-rotation="0"
     showgrid="false"
     fit-margin-top="0"
     fit-margin-left="0"
     fit-margin-right="0"
     fit-margin-bottom="0"
     inkscape:window-width="1366"
     inkscape:window-height="705"
     inkscape:window-x="-8"
     inkscape:window-y="-8"
     inkscape:window-maximized="1" />
  <metadata
     id="metadata6829">
    <rdf:RDF>
      <cc:Work
         rdf:about="">
        <dc:format>image/svg+xml</dc:format>
        <dc:type
           rdf:resource="http://purl.org/dc/dcmitype/StillImage" />
        <dc:title />
      </cc:Work>
    </rdf:RDF>
  </metadata>
  <g
     inkscape:label="Layer 1"
     inkscape:groupmode="layer"
     id="layer1"
     transform="translate(-115.56789,-67.510558)">
    <g
       id="g5543"
       transform="matrix(0,1.256077,-1.256077,0,451.14358,-26.621405)"
       style="fill:#7f7f7f;fill-opacity:1">
      <path
         style="fill:#7f7f7f;fill-opacity:1;stroke:none;stroke-width:0.264583px;stroke-linecap:butt;stroke-linejoin:miter;stroke-opacity:1"
         d="m 74.941236,266.36667 c 0,0 0.39824,-0.0588 0.79773,-0.11481 0.0501,-0.007 0.12366,-0.01 0.0897,-0.0837 -0.0139,-0.0303 0.12569,0.0538 0.15782,0.0494 0.10477,-0.0143 0.2034,-0.0273 0.28773,-0.038 0.46797,-0.0591 0.94259,0.0179 1.41487,0.0259 0.0454,7.8e-4 0.0878,-0.003 0.0688,-0.0378 -0.0158,-0.0285 0.13248,0.0366 0.16508,0.0352 0.25247,-0.0109 0.50414,-0.0338 0.75546,-0.0575 0.096,-0.009 0.17596,-0.0154 0.13308,-0.068 -0.008,-0.0103 0.18147,0.0385 0.19473,0.0373 0.20754,-0.0185 0.41498,-0.0344 0.62256,-0.0412 0.0881,-0.003 0.18352,-0.0101 0.11097,-0.094 -0.0201,-0.0232 0.21485,0.0915 0.24555,0.0922 0.0219,5e-4 0.079,-0.1365 0.0876,-0.11636 0.0487,0.11368 0.11063,0.12518 0.17696,0.13066 0.16092,0.0133 0.3171,0.0289 0.47168,0.0475 0.0557,0.007 0.14922,-0.0242 0.1272,-0.084 -0.006,-0.0166 0.0745,0.11001 0.0921,0.11246 0.0582,0.008 0.11634,0.0167 0.17465,0.0258 0.009,10e-4 0.12787,-0.024 0.12143,-0.0175 -0.0399,0.0402 0.007,0.0382 0.0583,0.047 0.0796,0.0137 0.15969,0.0284 0.24085,0.0441 0.4623,0.0895 1.40937,0.13362 1.40937,0.13362 l -0.25176,0.20551 -3.74177,0.56127 -3.1922,-0.28064 z"
         id="path5485"
         sodipodi:nodetypes="cssssssssssssssssssssssccccc" />
      <path
         style="fill:#7f7f7f;fill-opacity:1;stroke:none;stroke-width:0.702;stroke-linecap:round;stroke-miterlimit:4;stroke-dasharray:none;stroke-opacity:1;paint-order:markers stroke fill"
         id="path5487"
         d="m 76.150546,266.38498 c 0.0303,-0.15452 7.94e-4,-0.0325 0.0778,-0.23808 0.02,-0.0534 0.0324,-0.10987 0.0565,-0.16164 0.11834,-0.25513 0.0357,-0.002 0.084,-0.16039 0.0437,-0.1411 -0.15588,-0.20287 -0.19955,-0.0618 v 0 c -0.003,0.0982 0.006,-0.003 -0.0509,0.15276 -0.0194,0.0528 -0.0255,0.11042 -0.0489,0.16158 -0.0255,0.0556 -0.0644,0.10397 -0.0966,0.15596 -0.0205,0.0505 -0.041,0.10104 -0.0616,0.15157 0,0.16926 0.23938,0.16926 0.23938,0 z" />
      <path
         style="fill:#7f7f7f;fill-opacity:1;stroke:none;stroke-width:0.702;stroke-linecap:round;stroke-miterlimit:4;stroke-dasharray:none;stroke-opacity:1;paint-order:markers stroke fill"
         id="path5489"
         d="m 76.240636,266.28552 c 0.0987,-0.15558 0.10906,-0.20736 0.2806,-0.31211 0.0427,-0.0261 0.0953,-0.0301 0.14301,-0.0452 0.11774,-0.0603 0.0324,-0.22683 -0.0853,-0.1665 v 0 c -0.0462,0.0379 -0.0907,0.078 -0.13853,0.11386 -0.30129,0.22553 -0.1405,0.0571 -0.35098,0.31924 -0.0642,0.10692 0.0871,0.19765 0.15121,0.0907 z" />
      <path
         style="fill:#7f7f7f;fill-opacity:1;stroke:none;stroke-width:0.702;stroke-linecap:round;stroke-miterlimit:4;stroke-dasharray:none;stroke-opacity:1;paint-order:markers stroke fill"
         id="path5491"
         d="m 80.196826,266.2302 c -0.29722,-0.21551 -0.26099,-0.17874 -0.552,-0.43682 -0.38619,-0.3425 -0.0841,-0.0965 -0.32452,-0.28888 -0.12786,-0.0698 -0.22658,0.11101 -0.0987,0.18082 v 0 c 0.18449,0.0339 0.14615,0.0127 0.36535,0.17779 0.27059,0.20378 0.28116,0.24485 0.48405,0.49294 0.089,0.089 0.21483,-0.0369 0.12584,-0.12585 z" />
      <path
         style="fill:#7f7f7f;fill-opacity:1;stroke:none;stroke-width:0.702;stroke-linecap:round;stroke-miterlimit:4;stroke-dasharray:none;stroke-opacity:1;paint-order:markers stroke fill"
         id="path5493"
         d="m 80.197316,266.17623 c -0.11249,-0.14503 -0.11958,-0.14052 -0.21059,-0.34721 -0.0338,-0.0767 -0.0712,-0.15406 -0.0845,-0.2368 -0.006,-0.04 0.0181,-0.079 0.0272,-0.11848 -0.0233,-0.15353 -0.24044,-0.12053 -0.21711,0.033 v 0 c 0.0709,0.14169 0.10733,0.20583 0.16314,0.37395 0.14786,0.44543 -0.006,0.11877 0.15367,0.4301 0.0951,0.11892 0.26332,-0.0156 0.16818,-0.13455 z" />
      <path
         style="fill:#7f7f7f;fill-opacity:1;stroke:none;stroke-width:0.702;stroke-linecap:round;stroke-miterlimit:4;stroke-dasharray:none;stroke-opacity:1;paint-order:markers stroke fill"
         id="path5495"
         d="m 76.370066,266.20581 c 0.26354,-0.17151 0.12523,-0.095 0.41546,-0.22844 0.0161,-0.007 0.006,-0.0299 -0.0101,-0.0227 v 0 c -0.29311,0.13394 -0.14432,0.0735 -0.44631,0.18144 -0.0493,0.029 -0.008,0.0987 0.041,0.0697 z" />
      <path
         style="fill:#7f7f7f;fill-opacity:1;stroke:none;stroke-width:0.702;stroke-linecap:round;stroke-miterlimit:4;stroke-dasharray:none;stroke-opacity:1;paint-order:markers stroke fill"
         id="path5497"
         d="m 76.015126,266.26271 c -0.023,-0.0196 -0.046,-0.0392 -0.069,-0.0587 -0.0312,-0.0303 -0.0607,-0.0626 -0.0937,-0.0909 -0.0906,-0.0775 -0.21828,-0.17251 -0.32806,-0.21634 -0.0714,-0.0285 -0.14896,-0.0381 -0.22344,-0.0571 -0.005,-0.002 -0.007,0.005 -0.002,0.007 v 0 c 0.0688,0.028 0.14048,0.0497 0.20647,0.0839 0.0613,0.0317 0.11817,0.0718 0.17374,0.11273 0.0774,0.0571 0.15312,0.12713 0.21125,0.20475 0.0174,0.0233 0.0297,0.0501 0.0445,0.0751 0.0428,0.057 0.12342,-0.003 0.0807,-0.0605 z" />
      <path
         style="fill:#7f7f7f;fill-opacity:1;stroke:none;stroke-width:0.702;stroke-linecap:round;stroke-miterlimit:4;stroke-dasharray:none;stroke-opacity:1;paint-order:markers stroke fill"
         id="path5499"
         d="m 76.030166,266.19538 c -0.059,-0.0996 -0.0309,-0.0491 -0.0845,-0.15124 -0.0181,-0.049 -0.0873,-0.0234 -0.0692,0.0256 v 0 c 0.0347,0.11445 0.016,0.0586 0.0557,0.16765 0.0297,0.0692 0.127589,0.0273 0.0979,-0.042 z" />
      <path
         style="fill:#7f7f7f;fill-opacity:1;stroke:none;stroke-width:0.702;stroke-linecap:round;stroke-miterlimit:4;stroke-dasharray:none;stroke-opacity:1;paint-order:markers stroke fill"
         id="path5501"
         d="m 80.127616,266.15332 c -0.0571,-0.17039 -0.0811,-0.32846 -0.0515,-0.51006 0.009,-0.0572 0.0328,-0.11111 0.0492,-0.16666 0.009,-0.035 -0.0401,-0.0482 -0.0494,-0.0132 v 0 c -0.0748,0.31762 -0.0208,0.031 -0.0443,0.38964 -0.006,0.0979 -0.0343,0.17955 -0.0219,0.27499 0.002,0.0188 0.0108,0.0362 0.0163,0.0543 0.0205,0.0719 0.12223,0.0428 0.10169,-0.0291 z" />
      <path
         style="fill:#7f7f7f;fill-opacity:1;stroke:none;stroke-width:0.702;stroke-linecap:round;stroke-miterlimit:4;stroke-dasharray:none;stroke-opacity:1;paint-order:markers stroke fill"
         id="path5503"
         d="m 81.051686,266.21377 c 0.0113,-0.10323 0.009,-0.13612 0.0503,-0.24099 0.0148,-0.0375 0.038,-0.0711 0.057,-0.10671 0.0183,-0.0348 -0.031,-0.0606 -0.0492,-0.0258 v 0 c -0.0207,0.038 -0.0448,0.0744 -0.0621,0.11405 -0.1358,0.3106 0.0395,-0.02 -0.10863,0.24696 -0.009,0.0796 0.10378,0.0922 0.11262,0.0125 z" />
      <path
         style="fill:#7f7f7f;fill-opacity:1;stroke:none;stroke-width:0.702;stroke-linecap:round;stroke-miterlimit:4;stroke-dasharray:none;stroke-opacity:1;paint-order:markers stroke fill"
         id="path5505"
         d="m 81.058286,266.25101 c 0.005,-0.0273 0.003,-0.057 0.0157,-0.0819 0.0441,-0.0887 0.1136,-0.15362 0.19605,-0.20597 0.0795,-0.0505 0.0659,-0.0527 0.10238,-0.0167 0.0753,0.009 0.0884,-0.0972 0.0131,-0.10646 v 0 c -0.0224,0.005 -0.0463,0.006 -0.0673,0.0159 -0.0864,0.0393 -0.13841,0.0957 -0.20328,0.16587 -0.0727,0.0786 -0.10817,0.13042 -0.16955,0.2132 -0.0114,0.0799 0.10151,0.096 0.11292,0.0161 z" />
      <path
         style="fill:#7f7f7f;fill-opacity:1;stroke:none;stroke-width:0.702;stroke-linecap:round;stroke-miterlimit:4;stroke-dasharray:none;stroke-opacity:1;paint-order:markers stroke fill"
         id="path5507"
         d="m 78.052646,266.24551 c -0.08,-0.13329 -0.18976,-0.24464 -0.28094,-0.36985 -0.036,-0.0494 -0.0534,-0.0812 -0.0802,-0.12792 -0.0631,-0.0442 -0.12554,0.045 -0.0625,0.0892 v 0 c 0.009,-0.002 0.0177,-0.0107 0.0255,-0.007 0.11469,0.0588 0.10467,0.0977 0.17892,0.21392 0.12016,0.18816 0.0667,0.0644 0.12797,0.24187 0.0287,0.0645 0.11986,0.024 0.0912,-0.0405 z" />
      <path
         style="fill:#7f7f7f;fill-opacity:1;stroke:none;stroke-width:0.702;stroke-linecap:round;stroke-miterlimit:4;stroke-dasharray:none;stroke-opacity:1;paint-order:markers stroke fill"
         id="path5509"
         d="m 77.993276,266.19512 c -0.0135,-8e-4 -0.0281,0.003 -0.0405,-0.002 -0.0184,-0.008 -0.0304,-0.0265 -0.0481,-0.0359 -0.03,-0.0159 -0.0627,-0.0258 -0.0938,-0.0392 -0.0408,-0.0176 -0.0814,-0.0358 -0.12212,-0.0536 -0.0366,-0.0172 -0.0609,0.0345 -0.0244,0.0517 v 0 c 0.13742,0.0854 0.0747,0.0439 0.18821,0.12242 0.0177,0.0123 0.0364,0.0233 0.0532,0.0368 0.0116,0.009 0.0212,0.0208 0.0318,0.0312 0.0787,0.0393 0.13429,-0.0719 0.0556,-0.11125 z" />
      <path
         style="fill:#7f7f7f;fill-opacity:1;stroke:none;stroke-width:0.702;stroke-linecap:round;stroke-miterlimit:4;stroke-dasharray:none;stroke-opacity:1;paint-order:markers stroke fill"
         id="path5511"
         d="m 79.155916,266.15187 c -0.0676,-0.0175 -0.12634,-0.0584 -0.19264,-0.0789 -0.0821,-0.0254 -0.16728,-0.0399 -0.25041,-0.0619 -0.0866,-0.0229 -0.17292,-0.047 -0.25876,-0.0726 -0.0874,-0.0261 -0.17497,-0.0564 -0.26158,-0.0859 -0.0754,0.0105 -0.0605,0.11719 0.0149,0.10665 v 0 c 0.0963,-0.0712 0.0548,-0.0589 0.24536,-0.0163 0.30446,0.068 0.20915,0.0663 0.47525,0.20351 0.18193,0.0938 0.07,10e-4 0.1789,0.10335 0.0693,0.0346 0.11828,-0.0633 0.049,-0.098 z" />
      <path
         style="fill:#7f7f7f;fill-opacity:1;stroke:none;stroke-width:0.702;stroke-linecap:round;stroke-miterlimit:4;stroke-dasharray:none;stroke-opacity:1;paint-order:markers stroke fill"
         id="path5513"
         d="m 78.942256,266.24341 c 0.0408,-0.11208 0.0467,-0.13804 0.11504,-0.26108 0.0289,-0.0519 0.0638,-0.10029 0.0957,-0.15043 0.0186,-0.028 -0.021,-0.0543 -0.0396,-0.0263 v 0 c -0.0355,0.0495 -0.0734,0.0973 -0.1065,0.14846 -0.21428,0.33103 -0.004,0.0388 -0.15482,0.24422 -0.0319,0.0638 0.0583,0.10895 0.0902,0.0451 z" />
      <path
         style="fill:#7f7f7f;fill-opacity:1;stroke:none;stroke-width:0.702;stroke-linecap:round;stroke-miterlimit:4;stroke-dasharray:none;stroke-opacity:1;paint-order:markers stroke fill"
         id="path5515"
         d="m 80.992056,266.17572 c -0.13209,-0.22926 -0.0137,-0.0337 -0.18976,-0.29006 -0.0289,-0.0421 -0.0556,-0.0858 -0.0835,-0.12868 -0.0134,-0.0194 -0.0409,-5.2e-4 -0.0275,0.0189 v 0 c 0.0278,0.0417 0.0607,0.0804 0.0834,0.1251 0.21933,0.43189 -0.0551,-0.0203 0.15143,0.30764 0.0233,0.0466 0.0892,0.0137 0.0659,-0.0329 z" />
      <path
         style="fill:#7f7f7f;fill-opacity:1;stroke:none;stroke-width:0.702;stroke-linecap:round;stroke-miterlimit:4;stroke-dasharray:none;stroke-opacity:1;paint-order:markers stroke fill"
         id="path5517"
         d="m 76.811146,266.20041 c 0.002,-0.021 -5.29e-4,-0.0427 0.005,-0.063 0.0162,-0.0569 0.0557,-0.12989 0.0999,-0.1699 0.0201,-0.0182 0.0475,-0.0262 0.0712,-0.0393 0.0135,-0.009 5.29e-4,-0.0281 -0.0129,-0.019 v 0 c -0.0239,0.0157 -0.051,0.0274 -0.0718,0.0471 -0.0481,0.0457 -0.0873,0.11536 -0.11427,0.17503 -0.0101,0.0223 -0.0162,0.0461 -0.0243,0.0692 0,0.0332 0.047,0.0332 0.047,0 z" />
      <path
         style="fill:#7f7f7f;fill-opacity:1;stroke:none;stroke-width:0.702;stroke-linecap:round;stroke-miterlimit:4;stroke-dasharray:none;stroke-opacity:1;paint-order:markers stroke fill"
         id="path5519"
         d="m 76.861266,266.24525 c 0.0225,-0.0253 0.0416,-0.0541 0.0675,-0.0759 0.0459,-0.0387 0.0963,-0.0719 0.14651,-0.10482 0.19613,-0.12877 0.1857,-0.11568 0.38953,-0.21315 -0.002,7.9e-4 -5.29e-4,0.003 0.001,0.003 v 0 c -0.064,0.0294 -0.12986,0.055 -0.19198,0.0882 -0.0687,0.0367 -0.13357,0.08 -0.19968,0.12107 -0.21071,0.13098 -0.0812,0.0624 -0.24688,0.14458 -0.0265,0.0239 0.007,0.0614 0.0338,0.0375 z" />
      <path
         style="fill:#7f7f7f;fill-opacity:1;stroke:none;stroke-width:0.702;stroke-linecap:round;stroke-miterlimit:4;stroke-dasharray:none;stroke-opacity:1;paint-order:markers stroke fill"
         id="path5521"
         d="m 77.309626,266.20587 c 0.0571,-0.0949 0.0912,-0.15801 0.16482,-0.24715 0.032,-0.0387 0.066,-0.0765 0.10485,-0.10841 0.0181,-0.0149 0.0425,-0.0198 0.0637,-0.0298 0.0141,-0.0102 -2.65e-4,-0.0302 -0.0145,-0.0199 v 0 c -0.0187,0.0144 -0.0396,0.0263 -0.0562,0.0431 -0.0353,0.0359 -0.0663,0.0758 -0.0987,0.11437 -0.17999,0.21442 -0.0379,0.0548 -0.1928,0.22539 -0.0158,0.0203 0.0129,0.0427 0.0288,0.0223 z" />
      <path
         style="fill:#7f7f7f;fill-opacity:1;stroke:none;stroke-width:0.702;stroke-linecap:round;stroke-miterlimit:4;stroke-dasharray:none;stroke-opacity:1;paint-order:markers stroke fill"
         id="path5523"
         d="m 78.178446,266.22098 c -0.0112,-0.0168 -0.0222,-0.0337 -0.0337,-0.0503 -0.0155,-0.0224 -0.0306,-0.0452 -0.0471,-0.0669 -0.12709,-0.1678 -0.005,0.002 -0.13334,-0.16454 -0.0131,-0.017 -0.0245,-0.0353 -0.0367,-0.053 -0.0128,-0.0164 -0.0359,0.002 -0.0231,0.0181 v 0 c 0.0808,0.0649 0.0363,0.0204 0.109,0.12978 0.041,0.0617 0.084,0.11468 0.10522,0.18685 0,0.0422 0.0597,0.0422 0.0597,0 z" />
      <path
         style="fill:#7f7f7f;fill-opacity:1;stroke:none;stroke-width:0.702;stroke-linecap:round;stroke-miterlimit:4;stroke-dasharray:none;stroke-opacity:1;paint-order:markers stroke fill"
         id="path5525"
         d="m 78.012276,266.24316 c -0.006,-0.0203 -0.017,-0.0515 -0.0195,-0.0712 -0.003,-0.0217 -0.002,-0.0437 -0.003,-0.0656 -0.004,-0.0795 -0.007,-0.0983 -0.003,-0.18127 10e-4,-0.0226 0.005,-0.045 0.007,-0.0675 5.29e-4,-0.0217 -0.0302,-0.0225 -0.0308,-7.9e-4 v 0 c 0.003,0.0226 0.008,0.0451 0.008,0.0678 -8e-5,0.0327 -0.006,0.0652 -0.008,0.0978 -0.002,0.0282 -0.003,0.0564 -0.005,0.0846 -0.003,0.0463 -0.01,0.076 -0.003,0.12077 0.001,0.009 0.006,0.0167 0.009,0.025 0.007,0.0343 0.0554,0.0246 0.0485,-0.01 z" />
      <path
         style="fill:#7f7f7f;fill-opacity:1;stroke:none;stroke-width:0.702;stroke-linecap:round;stroke-miterlimit:4;stroke-dasharray:none;stroke-opacity:1;paint-order:markers stroke fill"
         id="path5527"
         d="m 78.949386,266.17295 c 0.0143,-0.0243 0.0825,-0.13993 0.0867,-0.14485 0.0537,-0.0617 0.1412,-0.11406 0.20797,-0.15887 0.005,-0.003 2.6e-4,-0.01 -0.004,-0.007 v 0 c -0.0684,0.048 -0.14999,0.10253 -0.21299,0.15762 -0.0271,0.0237 -0.0509,0.0511 -0.0762,0.0768 -0.0139,0.014 -0.0276,0.0282 -0.0414,0.0424 -0.0237,0.0285 0.0165,0.062 0.0403,0.0335 z" />
      <path
         style="fill:#7f7f7f;fill-opacity:1;stroke:none;stroke-width:0.702;stroke-linecap:round;stroke-miterlimit:4;stroke-dasharray:none;stroke-opacity:1;paint-order:markers stroke fill"
         id="path5529"
         d="m 79.854436,266.04711 c -0.0246,-0.009 -0.0492,-0.0181 -0.0738,-0.0273 -0.0301,-0.0112 -0.0601,-0.0229 -0.0903,-0.034 -0.0514,-0.019 -0.10049,-0.035 -0.1504,-0.0572 -0.0609,-0.027 -0.0208,-0.0163 -0.0605,-0.0253 -0.0385,2.7e-4 -0.0381,0.0548 5.29e-4,0.0545 v 0 c 0.0133,-0.0213 0.004,-0.0124 0.0504,-0.002 0.0672,0.0154 0.0829,0.0234 0.1508,0.0522 0.0967,0.041 0.0715,0.0297 0.15533,0.0773 0.0272,0.0127 0.0452,-0.0258 0.018,-0.0385 z" />
      <path
         style="fill:#7f7f7f;fill-opacity:1;stroke:none;stroke-width:0.702;stroke-linecap:round;stroke-miterlimit:4;stroke-dasharray:none;stroke-opacity:1;paint-order:markers stroke fill"
         id="path5531"
         d="m 79.936496,266.0204 c -0.0232,-0.0184 -0.0489,-0.0342 -0.0697,-0.0553 -0.0773,-0.0785 -0.11995,-0.14935 -0.18411,-0.23898 -0.0888,-0.12405 -0.0536,-0.0584 -0.10171,-0.16347 -0.0145,-0.0181 -0.0401,0.002 -0.0256,0.0204 v 0 c 0.10676,0.0994 -0.009,-0.0147 0.12084,0.14788 0.0328,0.0411 0.0731,0.0761 0.10431,0.11836 0.0502,0.0679 0.0791,0.13252 0.11527,0.20593 0.0247,0.0288 0.0654,-0.006 0.0407,-0.0349 z" />
      <path
         style="fill:#7f7f7f;fill-opacity:1;stroke:none;stroke-width:0.702;stroke-linecap:round;stroke-miterlimit:4;stroke-dasharray:none;stroke-opacity:1;paint-order:markers stroke fill"
         id="path5533"
         d="m 81.045876,266.23268 c 0.0168,-0.005 0.0335,-0.0101 0.0503,-0.0151 0.0187,-0.007 0.037,-0.0159 0.0562,-0.0217 0.0226,-0.007 0.047,-0.008 0.0689,-0.0166 0.40311,-0.16354 -0.14409,0.0337 0.19636,-0.0862 0.0145,-0.006 0.006,-0.0265 -0.008,-0.0205 v 0 c -0.0282,0.0144 -0.055,0.0319 -0.0846,0.0431 -0.10834,0.0413 -0.0904,0.0231 -0.18151,0.0449 -0.0181,0.004 -0.035,0.0133 -0.0533,0.0163 -0.0144,0.002 -0.0292,-6e-5 -0.0438,-10e-5 -0.0395,0 -0.0395,0.0559 0,0.0559 z" />
      <path
         style="fill:#7f7f7f;fill-opacity:1;stroke:none;stroke-width:0.702;stroke-linecap:round;stroke-miterlimit:4;stroke-dasharray:none;stroke-opacity:1;paint-order:markers stroke fill"
         id="path5535"
         d="m 81.585386,266.28723 c 0.0179,-0.0227 0.0293,-0.0501 0.0477,-0.0724 0.0152,-0.0185 0.0321,-0.0357 0.0501,-0.0515 0.0191,-0.0168 0.0405,-0.0308 0.0608,-0.0462 0.0147,-0.011 -7.94e-4,-0.0317 -0.0155,-0.0207 v 0 c -0.0805,0.0611 -0.045,0.0322 -0.12085,0.097 -0.0169,0.0144 -0.0353,0.0271 -0.0505,0.0433 -0.01,0.0104 -0.0156,0.0239 -0.0234,0.0358 -0.0105,0.0366 0.0413,0.0513 0.0517,0.0148 z" />
      <path
         style="fill:#7f7f7f;fill-opacity:1;stroke:none;stroke-width:0.702;stroke-linecap:round;stroke-miterlimit:4;stroke-dasharray:none;stroke-opacity:1;paint-order:markers stroke fill"
         id="path5537"
         d="m 80.622656,266.17253 c -0.005,-0.009 -0.008,-0.0188 -0.0138,-0.027 -0.0258,-0.0363 -0.0639,-0.0697 -0.0964,-0.0982 -0.0563,-0.0494 -0.1272,-0.10813 -0.19006,-0.14833 -0.042,-0.0269 -0.0866,-0.0494 -0.12991,-0.074 1.2e-4,8e-5 2.3e-4,-10e-5 1.1e-4,-1.7e-4 v 0 c 0.0888,0.0554 0.14875,0.0866 0.22501,0.15623 0.0277,0.0253 0.0513,0.0549 0.0765,0.0827 0.0176,0.0194 0.0387,0.0362 0.052,0.0587 0.0682,0.1161 -0.0238,0.009 0.0227,0.0609 0.008,0.038 0.0614,0.0273 0.0538,-0.0107 z" />
      <path
         style="fill:#7f7f7f;fill-opacity:1;stroke:none;stroke-width:0.702;stroke-linecap:round;stroke-miterlimit:4;stroke-dasharray:none;stroke-opacity:1;paint-order:markers stroke fill"
         id="path5539"
         d="m 80.481936,266.12603 c -0.1577,-0.1206 0.0122,0.0144 -0.18634,-0.16725 -0.0459,-0.042 -0.0916,-0.0845 -0.14164,-0.12145 -0.0455,-0.0336 -0.0962,-0.0596 -0.14427,-0.0894 5.29e-4,2.6e-4 0.001,-5.3e-4 5.29e-4,-8e-4 v 0 c 0.0476,0.0305 0.0979,0.057 0.14274,0.0914 0.0492,0.0378 0.0941,0.081 0.1383,0.12459 0.0947,0.0933 0.0934,0.0988 0.15787,0.19212 0.0206,0.0232 0.0535,-0.006 0.0328,-0.0292 z" />
      <path
         style="fill:#7f7f7f;fill-opacity:1;stroke:none;stroke-width:0.702;stroke-linecap:round;stroke-miterlimit:4;stroke-dasharray:none;stroke-opacity:1;paint-order:markers stroke fill"
         id="path5541"
         d="m 80.678186,266.1425 c -0.0705,-0.0487 -0.0508,-0.0324 -0.13225,-0.10601 -0.0351,-0.0317 -0.0722,-0.0617 -0.10396,-0.0968 -0.0576,-0.0638 -0.10356,-0.13207 -0.13381,-0.2125 -0.007,-0.0184 -0.007,-0.0386 -0.0105,-0.0579 0.002,0.008 0.003,0.0155 0.004,0.0232 0.0319,-0.0225 7e-5,-0.0677 -0.0319,-0.0452 v 0 c -0.003,0.012 -0.006,0.024 -0.009,0.0361 0.0501,0.0787 0.0261,0.0429 0.0976,0.14263 0.0274,0.0382 0.0535,0.0773 0.0825,0.1143 0.0293,0.0374 0.0613,0.0725 0.0923,0.10857 0.0238,0.0277 0.0499,0.0535 0.0719,0.0827 0.0123,0.0163 0.0202,0.0355 0.0303,0.0533 0.03,0.03 0.0724,-0.0124 0.0424,-0.0424 z" />
    </g>
  </g>
</svg>
