<?xml version="1.0" encoding="UTF-8" standalone="no"?>
<svg
   xmlns:dc="http://purl.org/dc/elements/1.1/"
   xmlns:cc="http://creativecommons.org/ns#"
   xmlns:rdf="http://www.w3.org/1999/02/22-rdf-syntax-ns#"
   xmlns:svg="http://www.w3.org/2000/svg"
   xmlns="http://www.w3.org/2000/svg"
   xmlns:sodipodi="http://sodipodi.sourceforge.net/DTD/sodipodi-0.dtd"
   xmlns:inkscape="http://www.inkscape.org/namespaces/inkscape"
   width="1.5513525mm"
   height="8.1814203mm"
   viewBox="0 0 1.5513525 8.1814203"
   version="1.1"
   id="svg8177"
   inkscape:version="1.0 (4035a4fb49, 2020-05-01)"
   sodipodi:docname="scroll_bar - background_detail_3.svg"
   inkscape:export-filename="D:\Calcatz\Icon Pack\Adventure Narative Inspired by Arrival\GUI\Obtain Logogram\png\scroll_bar - background_detail_3.png"
   inkscape:export-xdpi="96"
   inkscape:export-ydpi="96">
  <defs
     id="defs8171" />
  <sodipodi:namedview
     id="base"
     pagecolor="#ffffff"
     bordercolor="#666666"
     borderopacity="1.0"
     inkscape:pageopacity="0.0"
     inkscape:pageshadow="2"
     inkscape:zoom="7.2801812"
     inkscape:cx="-12.417137"
     inkscape:cy="19.448784"
     inkscape:document-units="mm"
     inkscape:current-layer="layer1"
     inkscape:document-rotation="0"
     showgrid="false"
     fit-margin-top="0"
     fit-margin-left="0"
     fit-margin-right="0"
     fit-margin-bottom="0"
     inkscape:window-width="1366"
     inkscape:window-height="705"
     inkscape:window-x="-8"
     inkscape:window-y="-8"
     inkscape:window-maximized="1" />
  <metadata
     id="metadata8174">
    <rdf:RDF>
      <cc:Work
         rdf:about="">
        <dc:format>image/svg+xml</dc:format>
        <dc:type
           rdf:resource="http://purl.org/dc/dcmitype/StillImage" />
        <dc:title />
      </cc:Work>
    </rdf:RDF>
  </metadata>
  <g
     inkscape:label="Layer 1"
     inkscape:groupmode="layer"
     id="layer1"
     transform="translate(-105.05765,-144.07596)">
    <g
       id="g5638"
       transform="matrix(0,1.256077,-1.256077,0,298.99908,-184.63452)"
       style="fill:#7f7f7f;fill-opacity:1">
      <path
         style="fill:#7f7f7f;fill-opacity:1;stroke:none;stroke-width:0.264583px;stroke-linecap:butt;stroke-linejoin:miter;stroke-opacity:1"
         d="m 261.69612,153.48287 c 0,0 0.67363,0.17094 1.13935,0.26806 0.0583,0.0121 0.13376,0.0363 0.18527,0.088 0.005,0.005 -0.009,-0.0532 -0.003,-0.0521 0.14423,0.0265 0.2888,0.0549 0.43392,0.0783 0.0479,0.008 0.12246,0.0193 0.11602,0.0564 -0.005,0.0285 0.0853,-0.0277 0.11407,-0.0245 0.0402,0.004 0.17805,0.1058 0.16634,0.0671 -0.0129,-0.0428 0.0548,-0.0497 0.10509,-0.0486 0.2574,0.006 0.51175,-0.0576 0.76849,-0.0779 0.0206,-0.002 0.17564,0.007 0.26489,0.0735 0.0366,0.0272 -0.0622,-0.0692 -0.009,-0.0792 0.082,-0.0154 0.16692,0.004 0.25031,0.002 0.39401,-0.0106 0.78799,-0.0884 1.181,-0.0585 0.11107,0.008 0.21431,0.0603 0.31029,0.14477 0.0481,0.0423 0.14072,-0.0348 0.20419,-0.0395 0.37259,-0.0279 1.28624,-0.24555 1.28624,-0.24555 l -1.82411,-0.45603 -3.42607,-0.0117 z"
         id="path5584"
         sodipodi:nodetypes="cssssssssssssssscccc" />
      <path
         style="fill:#7f7f7f;fill-opacity:1;stroke:none;stroke-width:0.702;stroke-linecap:round;stroke-miterlimit:4;stroke-dasharray:none;stroke-opacity:1;paint-order:markers stroke fill"
         id="path5586"
         d="m 263.54328,153.71339 c 0.16656,0.26272 -0.16719,-0.25129 0.1564,0.17319 0.0377,0.0495 0.0608,0.10861 0.0913,0.16292 0.0548,0.0677 0.10953,0.13533 0.16429,0.203 0.0252,0.0353 0.0752,-2.7e-4 0.0499,-0.0357 v 0 c -0.0447,-0.0712 -0.0932,-0.14013 -0.13409,-0.21355 -0.0317,-0.0568 -0.0534,-0.11868 -0.0833,-0.17645 -0.0342,-0.0661 -0.0769,-0.12746 -0.1105,-0.19388 -0.0569,-0.0948 -0.1909,-0.0144 -0.13403,0.0804 z" />
      <path
         style="fill:#7f7f7f;fill-opacity:1;stroke:none;stroke-width:0.702;stroke-linecap:round;stroke-miterlimit:4;stroke-dasharray:none;stroke-opacity:1;paint-order:markers stroke fill"
         id="path5588"
         d="m 263.60531,153.85243 c 0.0167,0.11304 0.0314,0.17988 0.0274,0.2967 -0.0195,0.13856 -0.0152,0.0773 -0.0184,0.1833 0.0127,0.10459 0.16056,0.0867 0.14791,-0.0179 v 0 c -0.006,-0.0163 -0.0141,-0.0319 -0.0176,-0.0489 -0.0284,-0.13709 -0.0252,-0.27748 0.009,-0.4132 0,-0.105 -0.14849,-0.105 -0.14849,0 z" />
      <path
         style="fill:#7f7f7f;fill-opacity:1;stroke:none;stroke-width:0.702;stroke-linecap:round;stroke-miterlimit:4;stroke-dasharray:none;stroke-opacity:1;paint-order:markers stroke fill"
         id="path5590"
         d="m 266.66529,153.85078 c 0.0175,0.0259 0.0324,0.0537 0.0524,0.0777 0.0384,0.0462 0.0859,0.0847 0.12239,0.13252 0.0955,0.12518 0.10237,0.16168 0.15849,0.29485 0.037,0.0685 0.13385,0.0162 0.0969,-0.0523 v 0 c -0.0288,-0.0411 -0.0608,-0.0803 -0.0864,-0.12344 -0.0329,-0.0554 -0.0586,-0.11484 -0.0888,-0.17178 -0.0699,-0.13178 -0.0631,-0.11868 -0.11877,-0.21207 -0.0385,-0.0964 -0.17481,-0.0418 -0.13626,0.0545 z" />
      <path
         style="fill:#7f7f7f;fill-opacity:1;stroke:none;stroke-width:0.702;stroke-linecap:round;stroke-miterlimit:4;stroke-dasharray:none;stroke-opacity:1;paint-order:markers stroke fill"
         id="path5592"
         d="m 266.7648,153.88287 c 0.0135,0.002 0.0286,-0.001 0.0406,0.005 0.0251,0.0134 0.12117,0.10329 0.13552,0.11542 0.079,0.0669 0.0809,0.0646 0.16764,0.12273 0.0714,0.054 0.14774,-0.0471 0.0763,-0.10103 v 0 c -0.0251,-0.0207 -0.0514,-0.0403 -0.0756,-0.0622 -0.0249,-0.0225 -0.0456,-0.0497 -0.0716,-0.071 -0.0259,-0.0212 -0.0576,-0.0348 -0.0837,-0.0559 -0.0262,-0.0212 -0.0481,-0.0469 -0.0721,-0.0704 -0.0246,-0.0189 -0.0491,-0.0379 -0.0737,-0.0568 -0.12293,-0.0307 -0.16637,0.14311 -0.0434,0.17384 z" />
      <path
         style="fill:#7f7f7f;fill-opacity:1;stroke:none;stroke-width:0.702;stroke-linecap:round;stroke-miterlimit:4;stroke-dasharray:none;stroke-opacity:1;paint-order:markers stroke fill"
         id="path5594"
         d="m 264.89438,153.83439 c 0.0719,0.0412 0.12197,0.11255 0.19256,0.1551 0.14502,0.0874 0.27675,0.11191 0.4422,0.15465 0.0972,0.0251 0.19508,0.0478 0.29263,0.0717 0.0484,0.0114 0.0645,-0.0572 0.0161,-0.0685 v 0 c -0.3678,-0.0804 -0.20027,-0.0218 -0.52308,-0.17317 -0.0525,-0.0246 -0.10793,-0.0438 -0.15725,-0.0742 -0.0887,-0.0548 -0.0909,-0.0767 -0.13747,-0.15522 -0.0635,-0.0889 -0.18913,7.9e-4 -0.12568,0.0898 z" />
      <path
         style="fill:#7f7f7f;fill-opacity:1;stroke:none;stroke-width:0.702;stroke-linecap:round;stroke-miterlimit:4;stroke-dasharray:none;stroke-opacity:1;paint-order:markers stroke fill"
         id="path5596"
         d="m 263.60315,153.79013 c -0.004,0.0226 -0.006,0.0458 -0.0122,0.0678 -0.006,0.021 -0.0172,0.0402 -0.026,0.0602 -0.0132,0.03 -0.0269,0.0597 -0.0403,0.0896 -0.019,0.0437 0.0428,0.0705 0.0617,0.0268 v 0 c 0.0254,-0.0577 0.0112,-0.0239 0.0376,-0.092 0.008,-0.0204 0.0139,-0.0417 0.0238,-0.0612 0.009,-0.0184 0.0224,-0.0347 0.0336,-0.0521 0.0277,-0.0553 -0.0506,-0.0945 -0.0783,-0.0391 z" />
      <path
         style="fill:#7f7f7f;fill-opacity:1;stroke:none;stroke-width:0.702;stroke-linecap:round;stroke-miterlimit:4;stroke-dasharray:none;stroke-opacity:1;paint-order:markers stroke fill"
         id="path5598"
         d="m 264.91729,153.83865 c 0.0132,0.0127 0.0301,0.0226 0.04,0.0382 0.0146,0.0231 0.0222,0.05 0.0319,0.0756 0.0238,0.0628 0.0367,0.0981 0.0424,0.16382 0,0.0135 -0.003,0.0271 -0.003,0.0407 0.003,0.0409 0.0599,0.0379 0.0578,-0.003 v 0 c -0.0103,-0.0927 0.003,-0.004 -0.0301,-0.1247 -0.008,-0.0309 -0.0146,-0.0625 -0.0217,-0.0937 -0.0254,-0.11214 -0.007,-0.0621 -0.045,-0.14549 -0.0344,-0.0515 -0.10726,-0.003 -0.0729,0.0486 z" />
      <path
         style="fill:#7f7f7f;fill-opacity:1;stroke:none;stroke-width:0.702;stroke-linecap:round;stroke-miterlimit:4;stroke-dasharray:none;stroke-opacity:1;paint-order:markers stroke fill"
         id="path5600"
         d="m 266.96125,153.89344 c 0.022,0.004 0.0438,0.009 0.066,0.0125 0.0913,0.0143 0.21386,0.0281 0.3017,0.0389 0.095,0.0117 0.19003,0.0236 0.28504,0.0354 0.003,2.7e-4 0.003,-0.004 0,-0.004 v 0 c -0.3034,-0.0399 -0.21619,-0.0144 -0.45355,-0.0855 -0.12697,-0.0381 -0.0887,-0.0217 -0.17552,-0.0694 -0.0509,-0.017 -0.0749,0.055 -0.0241,0.072 z" />
      <path
         style="fill:#7f7f7f;fill-opacity:1;stroke:none;stroke-width:0.702;stroke-linecap:round;stroke-miterlimit:4;stroke-dasharray:none;stroke-opacity:1;paint-order:markers stroke fill"
         id="path5602"
         d="m 266.66267,153.81597 c -0.005,0.0635 0.0188,0.12356 0.0127,0.18754 -0.003,0.0303 -0.0132,0.0594 -0.0198,0.0891 -0.006,0.0288 0.0343,0.0377 0.0406,0.009 v 0 c 0.0238,-0.08 0.0354,-0.10111 0.0412,-0.18115 0.003,-0.0208 -0.003,-0.0418 -0.003,-0.0627 0,-0.0141 0.005,-0.0278 0.007,-0.0417 0,-0.0568 -0.0803,-0.0568 -0.0803,0 z" />
      <path
         style="fill:#7f7f7f;fill-opacity:1;stroke:none;stroke-width:0.702;stroke-linecap:round;stroke-miterlimit:4;stroke-dasharray:none;stroke-opacity:1;paint-order:markers stroke fill"
         id="path5604"
         d="m 265.81886,153.75911 c 0.11356,0.10536 0.0222,0.0298 0.18859,0.13341 0.0474,0.0296 0.0912,0.065 0.14015,0.092 0.13158,0.0724 0.15328,0.0722 0.28194,0.109 0.0175,0.004 0.0238,-0.0203 0.006,-0.0247 v 0 c -0.0395,-0.008 -0.0806,-0.01 -0.11843,-0.0236 -0.0556,-0.02 -0.10813,-0.0481 -0.15983,-0.0767 -0.0688,-0.0381 -0.18439,-0.11215 -0.23881,-0.17635 -0.019,-0.0226 -0.0276,-0.0524 -0.0414,-0.0786 -0.0322,-0.0414 -0.0907,0.004 -0.0585,0.0455 z" />
      <path
         style="fill:#7f7f7f;fill-opacity:1;stroke:none;stroke-width:0.702;stroke-linecap:round;stroke-miterlimit:4;stroke-dasharray:none;stroke-opacity:1;paint-order:markers stroke fill"
         id="path5606"
         d="m 264.31723,153.85912 c -5.3e-4,0.0262 0.004,0.0529 -10e-4,0.0787 -0.0113,0.0577 -0.0619,0.18224 -0.0906,0.23039 -0.0179,0.0301 -0.0434,0.055 -0.0651,0.0825 -0.0152,0.02 0.0131,0.0415 0.0283,0.0215 v 0 c 0.0221,-0.0301 0.0462,-0.0588 0.0663,-0.0902 0.0242,-0.0378 0.0474,-0.0764 0.0662,-0.11701 0.0126,-0.0273 0.0596,-0.1674 0.0726,-0.20584 0,-0.054 -0.0764,-0.054 -0.0764,0 z" />
      <path
         style="fill:#7f7f7f;fill-opacity:1;stroke:none;stroke-width:0.702;stroke-linecap:round;stroke-miterlimit:4;stroke-dasharray:none;stroke-opacity:1;paint-order:markers stroke fill"
         id="path5608"
         d="m 262.94783,153.75723 c 0.0389,0.0385 0.0472,0.0408 0.0729,0.0983 0.0136,0.0304 0.0213,0.0631 0.0328,0.0943 0.0132,0.0357 0.0276,0.0709 0.0414,0.10637 0.0125,0.0321 0.058,0.0144 0.0454,-0.0177 v 0 c -0.013,-0.0363 -0.026,-0.0726 -0.039,-0.10897 -0.0129,-0.0309 -0.0272,-0.0613 -0.0387,-0.0928 -0.009,-0.0241 -0.0134,-0.0495 -0.022,-0.0737 -0.005,-0.0147 -0.0127,-0.0284 -0.0191,-0.0426 -0.0261,-0.0521 -0.0998,-0.0153 -0.0737,0.0369 z" />
      <path
         style="fill:#7f7f7f;fill-opacity:1;stroke:none;stroke-width:0.702;stroke-linecap:round;stroke-miterlimit:4;stroke-dasharray:none;stroke-opacity:1;paint-order:markers stroke fill"
         id="path5610"
         d="m 263.03434,153.81283 c 0.0408,0.0506 0.0101,0.0132 0.0643,0.0764 0.0548,0.0639 0.0533,0.0659 0.12132,0.13118 0.021,0.0202 0.0435,0.0389 0.0652,0.0583 10e-4,0.001 0.003,-5.3e-4 0.002,-0.002 v 0 c -0.0217,-0.0194 -0.0453,-0.0368 -0.0652,-0.0581 -0.0391,-0.0419 -0.0741,-0.0934 -0.1057,-0.14159 -0.0112,-0.0171 -0.0223,-0.0343 -0.0328,-0.0519 -0.007,-0.0111 -0.0126,-0.0226 -0.0189,-0.0339 -0.0152,-0.0213 -0.0454,2.1e-4 -0.0302,0.0215 z" />
      <path
         style="fill:#7f7f7f;fill-opacity:1;stroke:none;stroke-width:0.702;stroke-linecap:round;stroke-miterlimit:4;stroke-dasharray:none;stroke-opacity:1;paint-order:markers stroke fill"
         id="path5612"
         d="m 263.7888,154.02408 c 0.009,0.0958 -0.002,0.001 0.0279,0.14303 0.007,0.0308 0.0136,0.0617 0.0167,0.0931 0.002,0.0156 -0.002,0.0313 -0.003,0.047 0.002,0.0154 0.0242,0.0121 0.0218,-0.003 v 0 c -0.007,-0.0145 -0.0165,-0.0279 -0.02,-0.0435 -0.007,-0.0308 -0.008,-0.0626 -0.0102,-0.0941 -0.008,-0.0945 -0.007,-0.0723 -1.4e-4,-0.14221 0,-0.0236 -0.0334,-0.0236 -0.0334,0 z" />
      <path
         style="fill:#7f7f7f;fill-opacity:1;stroke:none;stroke-width:0.702;stroke-linecap:round;stroke-miterlimit:4;stroke-dasharray:none;stroke-opacity:1;paint-order:markers stroke fill"
         id="path5614"
         d="m 263.58026,153.91107 c -0.0316,0.0343 -0.0583,0.0643 -0.0971,0.0959 -0.0329,0.0267 -0.0698,0.0481 -0.10391,0.0732 -0.0796,0.0585 -0.0356,0.041 -0.0879,0.0583 -0.0118,0.0259 0.0248,0.0426 0.0366,0.0167 v 0 c -0.004,-0.007 -0.0157,-0.0155 -0.0108,-0.022 0.0162,-0.0217 0.0425,-0.0338 0.0644,-0.0497 0.095,-0.0688 0.10272,-0.0727 0.19966,-0.1296 0.009,-0.005 0.0179,-0.01 0.0269,-0.0148 0.0197,-0.0197 -0.008,-0.0476 -0.0279,-0.0279 z" />
      <path
         style="fill:#7f7f7f;fill-opacity:1;stroke:none;stroke-width:0.702;stroke-linecap:round;stroke-miterlimit:4;stroke-dasharray:none;stroke-opacity:1;paint-order:markers stroke fill"
         id="path5616"
         d="m 264.32628,153.92854 c 7.9e-4,0.008 0.002,0.0164 0.002,0.0247 -1.9e-4,0.0107 -0.002,0.0214 -0.003,0.032 -0.004,0.0358 -0.008,0.0483 -0.007,0.0861 1.3e-4,0.0419 0.005,0.0681 0.0105,0.11009 -0.002,0.0154 -0.003,0.0307 -0.005,0.0461 10e-4,0.0172 0.0257,0.0153 0.0244,-0.002 v 0 c -0.002,-0.0149 -0.003,-0.0297 -0.004,-0.0446 -2.1e-4,-0.0315 -10e-4,-0.0757 0.002,-0.10773 10e-4,-0.0153 0.004,-0.0303 0.007,-0.0455 0.002,-0.0134 0.003,-0.0269 0.005,-0.0401 0.002,-0.0107 0.006,-0.0209 0.008,-0.0316 0.001,-0.007 1.8e-4,-0.014 2.6e-4,-0.021 0.005,-0.0271 -0.0338,-0.0335 -0.0383,-0.006 z" />
      <path
         style="fill:#7f7f7f;fill-opacity:1;stroke:none;stroke-width:0.702;stroke-linecap:round;stroke-miterlimit:4;stroke-dasharray:none;stroke-opacity:1;paint-order:markers stroke fill"
         id="path5618"
         d="m 264.13618,153.8569 c -5.3e-4,0.0134 -0.002,0.0269 -0.002,0.0404 5.3e-4,0.0183 0.005,0.0364 0.004,0.0547 -10e-4,0.0519 -0.0105,0.0701 -0.0191,0.12102 -0.005,0.031 -0.009,0.0736 -0.012,0.10523 -0.004,0.0147 -0.008,0.0294 -0.0122,0.0442 -0.002,0.0147 0.0186,0.0179 0.0208,0.003 v 0 c 0.002,-0.0149 0.005,-0.0298 0.007,-0.0447 0.012,-0.0683 0.009,-0.033 0.009,-0.10603 0.003,-0.0207 0.0113,-0.0402 0.0155,-0.0607 0.004,-0.0199 0.005,-0.0403 0.009,-0.0604 0.0165,-0.0919 0.008,-0.0163 0.0151,-0.0968 0,-0.0252 -0.0356,-0.0252 -0.0356,0 z" />
      <path
         style="fill:#7f7f7f;fill-opacity:1;stroke:none;stroke-width:0.702;stroke-linecap:round;stroke-miterlimit:4;stroke-dasharray:none;stroke-opacity:1;paint-order:markers stroke fill"
         id="path5620"
         d="m 264.92435,153.84187 c 0.0119,0.0706 -0.005,-0.0218 0.0209,0.0765 0.004,0.0164 0.009,0.033 0.01,0.0499 0,0.0154 -0.004,0.0604 -0.007,0.0785 -0.003,0.007 -0.004,0.0146 -0.006,0.0219 0,0.005 0,0.009 -0.003,0.0136 -0.003,0.0271 0.0355,0.0311 0.0383,0.004 v 0 c -0.003,-0.005 -0.003,-0.01 -0.004,-0.0142 0,-0.008 0.003,-0.0158 0.004,-0.0238 10e-5,-0.0115 -0.003,-0.023 -0.003,-0.0344 -0.003,-0.0157 -0.003,-0.0313 -0.004,-0.047 0,-0.0175 0,-0.0352 -0.003,-0.0527 -0.003,-0.0285 -0.007,-0.0567 -0.009,-0.0852 -0.009,-0.0244 -0.0438,-0.0115 -0.0346,0.013 z" />
      <path
         style="fill:#7f7f7f;fill-opacity:1;stroke:none;stroke-width:0.702;stroke-linecap:round;stroke-miterlimit:4;stroke-dasharray:none;stroke-opacity:1;paint-order:markers stroke fill"
         id="path5622"
         d="m 265.07337,153.87195 c 0.0461,0.003 0.0302,1.6e-4 0.0842,0.0131 0.0193,0.005 0.0382,0.0123 0.058,0.0149 0.0336,0.005 0.0677,0.004 0.1015,0.006 0.072,0.01 0.14395,0.0193 0.21592,0.0289 0,9e-5 0,-7.9e-4 1.3e-4,-0.001 v 0 c -0.22299,-0.03 -0.15695,-0.0143 -0.31289,-0.0516 -0.0193,-0.005 -0.039,-0.008 -0.0578,-0.0146 -0.0172,-0.006 -0.0328,-0.0151 -0.0497,-0.0214 -0.0116,-0.004 -0.0238,-0.007 -0.0357,-0.0107 -0.0254,-0.003 -0.0289,0.0332 -0.003,0.0358 z" />
      <path
         style="fill:#7f7f7f;fill-opacity:1;stroke:none;stroke-width:0.702;stroke-linecap:round;stroke-miterlimit:4;stroke-dasharray:none;stroke-opacity:1;paint-order:markers stroke fill"
         id="path5624"
         d="m 264.55438,153.82574 c 0.0245,0.0349 0.043,0.0589 0.0623,0.0983 0.01,0.0193 0.0154,0.0401 0.0241,0.0597 0.008,0.0187 0.0175,0.0369 0.0262,0.0554 0.006,0.0118 0.023,0.003 0.0167,-0.009 v 0 c -0.0582,-0.0973 -0.006,-0.004 -0.0534,-0.11235 -0.047,-0.10881 -0.0143,-0.009 -0.0443,-0.11042 -0.013,-0.0223 -0.0444,-0.004 -0.0314,0.0183 z" />
      <path
         style="fill:#7f7f7f;fill-opacity:1;stroke:none;stroke-width:0.702;stroke-linecap:round;stroke-miterlimit:4;stroke-dasharray:none;stroke-opacity:1;paint-order:markers stroke fill"
         id="path5626"
         d="m 265.8596,153.79039 c 0.0122,5.3e-4 0.0246,-7.9e-4 0.0366,0.001 0.0172,0.003 0.0333,0.0108 0.0503,0.0152 0.0193,0.005 0.0393,0.008 0.0588,0.0132 0.0241,0.006 0.0473,0.0149 0.0716,0.0198 0.0346,0.007 0.0698,0.0103 0.10464,0.0155 0.0357,0.008 0.0714,0.0152 0.10708,0.0227 0,1.4e-4 0,-8e-4 1.8e-4,-0.001 v 0 c -0.0357,-0.007 -0.0717,-0.0137 -0.10726,-0.0217 -0.0537,-0.0121 -0.11935,-0.0286 -0.17282,-0.0468 -0.0193,-0.007 -0.0379,-0.0147 -0.0568,-0.0219 -0.0465,-0.0176 -0.0429,-0.0161 -0.0838,-0.0302 -0.0241,-0.006 -0.0324,0.0279 -0.008,0.0338 z" />
      <path
         style="fill:#7f7f7f;fill-opacity:1;stroke:none;stroke-width:0.702;stroke-linecap:round;stroke-miterlimit:4;stroke-dasharray:none;stroke-opacity:1;paint-order:markers stroke fill"
         id="path5628"
         d="m 266.74469,153.91527 c 0.004,0.0101 0.008,0.0202 0.0114,0.0303 0.006,0.0153 0.0124,0.0303 0.0161,0.0461 0.0103,0.0421 0.009,0.0674 0.0103,0.11018 0.003,0.0721 -1.3e-4,0.0192 0.003,0.0895 3e-5,0.0172 0.0243,0.0171 0.0243,-2e-5 v 0 c 0,-0.0372 -1.8e-4,-0.0537 -0.003,-0.091 -0.003,-0.0187 -0.004,-0.0372 -0.006,-0.0558 -0.003,-0.0193 -0.003,-0.0389 -0.005,-0.058 -0.003,-0.0169 -0.01,-0.0329 -0.0132,-0.0497 -0.003,-0.0113 -0.003,-0.0229 -0.003,-0.0344 -0.009,-0.0243 -0.0434,-0.0114 -0.0343,0.0129 z" />
      <path
         style="fill:#7f7f7f;fill-opacity:1;stroke:none;stroke-width:0.702;stroke-linecap:round;stroke-miterlimit:4;stroke-dasharray:none;stroke-opacity:1;paint-order:markers stroke fill"
         id="path5630"
         d="m 266.73522,153.99077 c 0.0156,0.0795 0.01,0.0361 0.014,0.13045 5e-5,0.006 0.009,0.006 0.009,-7e-5 v 0 c 0.007,-0.095 0.004,-0.0508 0.0101,-0.1327 -0.003,-0.023 -0.0342,-0.0207 -0.0325,0.002 z" />
      <path
         style="fill:#7f7f7f;fill-opacity:1;stroke:none;stroke-width:0.702;stroke-linecap:round;stroke-miterlimit:4;stroke-dasharray:none;stroke-opacity:1;paint-order:markers stroke fill"
         id="path5632"
         d="m 265.80875,153.74224 c 0.006,0.0115 0.0119,0.0227 0.0172,0.0344 0.0164,0.0375 0.0238,0.0647 0.0418,0.10192 0.008,0.0163 0.0412,0.0725 0.0499,0.0915 0.006,0.0128 0.01,0.0263 0.0148,0.0394 0.005,0.012 0.0217,0.006 0.0169,-0.006 v 0 c -0.0177,-0.0459 -0.0132,-0.0387 -0.0383,-0.0828 -0.009,-0.0163 -0.0209,-0.0312 -0.0288,-0.0483 -0.008,-0.017 -0.0127,-0.0352 -0.018,-0.0531 -0.0127,-0.0422 -0.0127,-0.0474 -0.0196,-0.0873 -0.008,-0.0253 -0.0434,-0.0146 -0.0358,0.0107 z" />
      <path
         style="fill:#7f7f7f;fill-opacity:1;stroke:none;stroke-width:0.702;stroke-linecap:round;stroke-miterlimit:4;stroke-dasharray:none;stroke-opacity:1;paint-order:markers stroke fill"
         id="path5634"
         d="m 267.51492,153.74178 c -1.1e-4,0.009 0,0.0174 0,0.0261 0.003,0.13966 10e-5,-0.09 0.0111,0.13034 0,0.0236 0,0.0473 -0.003,0.0709 0,0.01 0.014,0.01 0.014,0 v 0 c 0,-0.0237 -0.004,-0.0473 -0.003,-0.0709 0.004,-0.14281 0.006,-0.0329 0.0159,-0.13034 0,-0.009 0,-0.0174 0,-0.0261 0,-0.0251 -0.0355,-0.0251 -0.0355,0 z" />
      <path
         style="fill:#7f7f7f;fill-opacity:1;stroke:none;stroke-width:0.702;stroke-linecap:round;stroke-miterlimit:4;stroke-dasharray:none;stroke-opacity:1;paint-order:markers stroke fill"
         id="path5636"
         d="m 267.46099,153.7542 c 0.018,0.004 0.0196,0.003 0.036,0.0193 0.0111,0.0111 0.0198,0.0248 0.0306,0.0362 0.0146,0.0154 0.031,0.0289 0.0456,0.0442 0.11395,0.11974 0.009,0.022 0.13036,0.12994 0.003,0.002 0.006,-10e-4 0.003,-0.004 v 0 c -0.0225,-0.0201 -0.0469,-0.0381 -0.0672,-0.0604 -0.0209,-0.023 -0.0368,-0.0501 -0.056,-0.0746 -0.013,-0.0166 -0.0285,-0.0314 -0.0407,-0.0486 -0.01,-0.0137 -0.0154,-0.0302 -0.0251,-0.0439 -0.008,-0.0119 -0.0267,-0.0259 -0.0386,-0.0356 -0.0262,-0.0131 -0.0447,0.024 -0.0185,0.0371 z" />
    </g>
  </g>
</svg>
