<?xml version="1.0" encoding="UTF-8" standalone="no"?>
<svg
   xmlns:dc="http://purl.org/dc/elements/1.1/"
   xmlns:cc="http://creativecommons.org/ns#"
   xmlns:rdf="http://www.w3.org/1999/02/22-rdf-syntax-ns#"
   xmlns:svg="http://www.w3.org/2000/svg"
   xmlns="http://www.w3.org/2000/svg"
   xmlns:sodipodi="http://sodipodi.sourceforge.net/DTD/sodipodi-0.dtd"
   xmlns:inkscape="http://www.inkscape.org/namespaces/inkscape"
   inkscape:export-ydpi="96"
   inkscape:export-xdpi="96"
   inkscape:export-filename="D:\Calcatz\Icon Pack\Adventure Narative Inspired by Arrival\GUI\Obtain Logogram\png\title_underline - line.png"
   sodipodi:docname="title_underline - line.svg"
   inkscape:version="1.0 (4035a4fb49, 2020-05-01)"
   id="svg3148"
   version="1.1"
   viewBox="0 0 124.92024 0.71272326"
   height="0.71272326mm"
   width="124.92024mm">
  <defs
     id="defs3142" />
  <sodipodi:namedview
     inkscape:window-maximized="1"
     inkscape:window-y="-8"
     inkscape:window-x="-8"
     inkscape:window-height="705"
     inkscape:window-width="1366"
     fit-margin-bottom="0"
     fit-margin-right="0"
     fit-margin-left="0"
     fit-margin-top="0"
     showgrid="false"
     inkscape:document-rotation="0"
     inkscape:current-layer="layer1"
     inkscape:document-units="mm"
     inkscape:cy="3.8238533"
     inkscape:cx="95.462164"
     inkscape:zoom="2.6845878"
     inkscape:pageshadow="2"
     inkscape:pageopacity="0.0"
     borderopacity="1.0"
     bordercolor="#666666"
     pagecolor="#ffffff"
     id="base" />
  <metadata
     id="metadata3145">
    <rdf:RDF>
      <cc:Work
         rdf:about="">
        <dc:format>image/svg+xml</dc:format>
        <dc:type
           rdf:resource="http://purl.org/dc/dcmitype/StillImage" />
        <dc:title></dc:title>
      </cc:Work>
    </rdf:RDF>
  </metadata>
  <g
     transform="translate(95.575073,-110.02682)"
     id="layer1"
     inkscape:groupmode="layer"
     inkscape:label="Layer 1">
    <path
       sodipodi:nodetypes="cc"
       id="path11838"
       d="m -95.102023,110.62314 c 4.2572,-0.22379 4.332601,-0.022 12.7146,-0.2685 5.4553,-0.1602 10.9261,0.1674 16.390499,0.22781 5.848202,0.065 11.6967,0.1333 17.546503,0.147 5.077597,0.012 10.154899,-0.048 15.232398,-0.07 5.419802,-0.024 10.839601,-0.045 16.2594,-0.067 15.6506025,0.072 14.8641015,0.076 29.8221,0.117 3.2571,0.01 6.5148,0.047 9.7715,0.021 2.0537,-0.016 4.1026,-0.099 6.1539,-0.14831 0.7779,-0.019 0.7222,-0.53669 -0.056,-0.51819 -7.3524,-0.044 -7.2787,-0.084 -15.8697,0.099 -21.4814975,0.45799 -6.7437995,0.5387 -29.821998,0 l -16.259501,-0.071 c -5.0776,0.1352 -10.147001,0.389 -15.232401,0.4056 -5.852599,0.019 -11.693901,-0.302 -17.5465,-0.29881 -5.4681,0 -10.927,0.21181 -16.3905,0.31761 -2.9985,-0.1444 -5.985499,-0.3594 -8.995599,-0.4332 -1.241001,-0.03 -2.479401,0.081 -3.719101,0.1217 -0.6302,0 -0.6302,0.41979 0,0.41979 z"
       style="fill:#1f2123;fill-opacity:1;stroke:none;stroke-width:0.264583px;stroke-linecap:butt;stroke-linejoin:miter;stroke-opacity:1" />
  </g>
</svg>
