<?xml version="1.0" encoding="UTF-8" standalone="no"?>
<svg
   xmlns:dc="http://purl.org/dc/elements/1.1/"
   xmlns:cc="http://creativecommons.org/ns#"
   xmlns:rdf="http://www.w3.org/1999/02/22-rdf-syntax-ns#"
   xmlns:svg="http://www.w3.org/2000/svg"
   xmlns="http://www.w3.org/2000/svg"
   xmlns:sodipodi="http://sodipodi.sourceforge.net/DTD/sodipodi-0.dtd"
   xmlns:inkscape="http://www.inkscape.org/namespaces/inkscape"
   inkscape:export-ydpi="96"
   inkscape:export-xdpi="96"
   inkscape:export-filename="D:\Calcatz\Icon Pack\Adventure Narative Inspired by Arrival\GUI\Obtain Logogram\png\title_underline - detail_1.png"
   sodipodi:docname="title_underline - detail_1.svg"
   inkscape:version="1.0 (4035a4fb49, 2020-05-01)"
   id="svg3732"
   version="1.1"
   viewBox="0 0 10.238697 3.3310063"
   height="3.3310063mm"
   width="10.238697mm">
  <defs
     id="defs3726" />
  <sodipodi:namedview
     inkscape:window-maximized="1"
     inkscape:window-y="-8"
     inkscape:window-x="-8"
     inkscape:window-height="705"
     inkscape:window-width="1366"
     fit-margin-bottom="0"
     fit-margin-right="0"
     fit-margin-left="0"
     fit-margin-top="0"
     showgrid="false"
     inkscape:document-rotation="0"
     inkscape:current-layer="layer1"
     inkscape:document-units="mm"
     inkscape:cy="12.25416"
     inkscape:cx="17.106304"
     inkscape:zoom="7.593161"
     inkscape:pageshadow="2"
     inkscape:pageopacity="0.0"
     borderopacity="1.0"
     bordercolor="#666666"
     pagecolor="#ffffff"
     id="base" />
  <metadata
     id="metadata3729">
    <rdf:RDF>
      <cc:Work
         rdf:about="">
        <dc:format>image/svg+xml</dc:format>
        <dc:type
           rdf:resource="http://purl.org/dc/dcmitype/StillImage" />
        <dc:title></dc:title>
      </cc:Work>
    </rdf:RDF>
  </metadata>
  <g
     transform="translate(-80.821839,-139.46727)"
     id="layer1"
     inkscape:groupmode="layer"
     inkscape:label="Layer 1">
    <path
       id="path11840"
       d="m 86.011424,139.46727 c 0.049,0.1817 0.087,0.36611 0.1466,0.545 0.01,0.026 0.015,0.043 0.023,0.066 -0.044,-0.1844 -0.096,-0.3547 -0.1687,-0.61069 0,0 -0.001,0 -0.001,0 z m 0.17,0.61071 c 0.024,0.1 0.046,0.21029 0.066,0.33649 -0.119099,0 -0.231399,-0.01 -0.333899,-0.013 -0.062,0 -0.1226,-0.01 -0.182,-0.01 -0.021,0 -0.041,0 -0.061,0 0.013,-0.014 0.024,-0.028 0.037,-0.042 0.047,-0.048 -0.028,-0.10829 -0.075,-0.061 -0.041,0.032 -0.087,0.059 -0.123701,0.095 0,0 0,0 -0.001,0 -0.01,0 -0.02,0 -0.03,0 0.03,-0.107 0.049,-0.16909 0.106,-0.27489 -0.053,0.087 -0.1139,0.18989 -0.1621,0.2728 -0.2002,-0.01 -0.3933,-0.01 -0.5804,0 0,0 0,-0.01 0.001,-0.011 0,0 0,0 0,0 0.097,-0.089 0.205,-0.1618 0.3288,-0.2188 0.054,-0.025 0.114701,-0.038 0.172001,-0.057 0.031,-0.013 0.011,-0.053 -0.02,-0.04 -0.1324,0.064 -0.2382,0.1137 -0.370601,0.1822 -0.037,0.019 -0.073,0.039 -0.109299,0.059 0,-0.029 0,-0.058 0.01,-0.086 0.001,-0.015 0.001,-0.03 0.001,-0.045 0.011,-0.01 0.029,-0.016 0.04,-0.023 0.067,-0.016 0.134199,-0.033 0.2009,-0.05 0,0 0.001,0 0,0 -0.099,0.026 -0.128401,0.034 -0.1989,0.052 0.067,-0.039 0.134399,-0.074 0.2432,-0.1346 0.016,-0.01 0,-0.03 -0.014,-0.021 -0.1112,0.063 -0.1905,0.1079 -0.2696,0.1538 0.001,-0.064 0.001,-0.1277 0.01,-0.1913 0,-0.067 0.016,-0.1339 0.024,-0.201 0,-0.041 -0.061,-0.045 -0.064,0 -0.013,0.1026 -0.04,0.3272 -0.058,0.4323 -0.2353,0.061 -0.4042,0.1076 -0.8123,0.2445 -0.018,0.01 -0.035,0.014 -0.053,0.02 -0.241813,0.024 -0.482213,0.057 -0.727013,0.097 0.079,-0.054 0.1627,-0.1024 0.2684,-0.1422 0.1447,-0.054 0.2995,-0.083 0.4492,-0.124 0.071,-0.018 0.043,-0.1091 -0.028,-0.091 -0.081,0.014 -0.162499,0.026 -0.2437,0.04 0.097,-0.039 0.194,-0.069 0.3802,-0.1073 0.1726,-0.036 0.3502,-0.049 0.5253,-0.073 0,0 0,0 -10e-4,0 -0.1754,0.023 -0.3513,0.044 -0.5263,0.07 -0.092,0.014 -0.3823,0.065 -0.5728,0.099 0,0 0.01,-0.01 0.012,-0.014 0.06001,-0.05 0.12031,-0.098 0.18361,-0.1447 0.2497,-0.1829 0.5241,-0.3358 0.7863,-0.5038 0.029,-0.018 0,-0.055 -0.027,-0.037 -0.2697,0.1618 -0.5334,0.3322 -0.8092,0.4853 -0.03,0.017 -0.061,0.031 -0.092,0.047 0.012,-0.028 0.029,-0.058 0.061,-0.1037 0.041,-0.059 0.096,-0.1091 0.144,-0.1636 0.015,-0.017 -0.012,-0.036 -0.027,-0.019 -0.046,0.057 -0.092,0.1142 -0.1367,0.1721 -0.092,0.1192 -0.101,0.134 -0.1204,0.1543 -0.1246,0.06 -0.2514,0.1157 -0.3734,0.1792 0.013,-0.027 0.025,-0.055 0.039,-0.082 0.034,-0.066 0.072,-0.1302 0.109,-0.1945 0.037,-0.064 0.072,-0.1285 0.1138,-0.19 0.025,-0.037 0.056,-0.069 0.084,-0.1037 0.016,-0.032 -0.034,-0.052 -0.049,-0.02 -0.014,0.04 -0.021,0.082 -0.041,0.1204 -0.071,0.1368 -0.1627,0.2423 -0.256,0.3662 -0.034,0.045 -0.065,0.092 -0.1005,0.1362 -0.016,0.02 -0.037,0.038 -0.055,0.056 -0.1005,0.065 -0.1928,0.1393 -0.2845,0.2145 -0.054,0.034 -0.1112,0.062 -0.1697,0.086 0.037,-0.048 0.073,-0.097 0.11,-0.1451 0.021,-0.023 -0.015,-0.051 -0.036,-0.028 -0.074,0.056 -0.1486,0.1129 -0.2228,0.1694 -0.013,0.021 -0.012,0.04 0,0.056 -0.1068,0.032 -0.2139,0.057 -0.3123,0.081 -0.049,0.014 -0.1081,0.033 -0.1629,0.05 0.014,-0.018 0.028,-0.035 0.043,-0.052 0.086,-0.095 0.3175,-0.3312 0.3984,-0.4143 0,0 -0.001,-0.01 0,0 -0.074,0.075 -0.1452,0.1509 -0.2206,0.2239 -0.1202,0.1163 -0.1983,0.1961 -0.345,0.2746 -0.016,0.01 -0.036,0.01 -0.054,0.012 -0.017,0.01 -0.027,0.016 -0.033,0.027 -0.3244,0.1084 -0.6547,0.2295 -0.746,0.2364 -0.023,0 -0.017,0.062 0,0.063 0.2959,0.023 0.7368,0.1694 1.0759,0.2539 0,0 0.01,0.01 0.015,0.011 0.031,0.016 0.062,0.029 0.095,0.041 0.01,0.013 0.021,0.026 0.042,0.033 0.034,0.024 0.085,0.06 0.1148,0.085 0.024,0.02 0.051,0.039 0.069,0.064 0.046,0.067 0.044,0.1037 0.054,0.1754 0.037,0.083 0.166,0.036 0.1292,-0.047 -0.011,-0.024 -0.022,-0.049 -0.033,-0.073 -0.016,-0.035 -0.034,-0.078 -0.055,-0.1184 0.026,0.014 0.052,0.028 0.079,0.042 0.067,0.037 0.129,0.013 0.1591,-0.029 0.039,0.038 0.078,0.077 0.1362,0.1413 0.045,0.05 0.091,0.1002 0.1317,0.1531 -0.038,-0.055 -0.072,-0.1125 -0.111,-0.1673 -0.1336,-0.1888 -0.1389,-0.1896 -0.1398,-0.1884 0,0 10e-5,0 0,0 0.017,0 0.033,0 0.049,0 0,0 0,0 0,0 0.088,0.042 0.1517,0.103 0.2269,0.1607 0.041,0.031 0.078,0.067 0.1239,0.092 0.042,0.023 0.091,0.034 0.1372,0.051 0.03,0.012 0.059,0.024 0.089,0.036 0.068,0.011 0.086,-0.077 0.017,-0.088 -0.028,0 -0.056,0 -0.084,0.01 -0.043,-0.014 -0.091,-0.019 -0.1305,-0.041 -0.045,-0.026 -0.073,-0.07 -0.1148,-0.1 -0.04,-0.029 -0.087,-0.05 -0.1284,-0.077 -0.017,-0.011 -0.032,-0.024 -0.047,-0.036 0.1552,0.01 0.299,0 0.4339,0 0.055,0.027 0.1116,0.052 0.1672,0.079 0.084,0.048 0.1686,0.097 0.253,0.1448 0.022,0.014 0.044,-0.015 0.022,-0.029 -0.084,-0.048 -0.1731,-0.089 -0.251,-0.1451 -0.022,-0.016 -0.041,-0.035 -0.061,-0.053 0.058,0 0.1149,0 0.1689,0 0.1815,0.01 0.3879,0 0.56,0.094 0.013,0.071 0.029,0.1425 0.034,0.2145 0.01,-0.027 0.01,-0.076 0.011,-0.1872 0.044,0.029 0.084,0.066 0.1214,0.1128 0.019,0.03 0.037,0.059 0.056,0.09 0,0.01 -0.01,0.015 -0.01,0.026 0.014,0.083 0.016,0.084 0.026,0.1821 0.01,0.049 0.012,0.097 0.013,0.1459 0,0.054 0,0.1074 -0.001,0.1611 0.001,0.034 0.053,0.032 0.052,0 0,-0.035 -0.013,-0.2632 -0.01,-0.3056 0,-0.023 0.01,-0.045 0.01,-0.068 0.058,0.1008 0.1115,0.2015 0.1448,0.2905 0.041,0.1098 0.05,0.2274 0.075,0.3412 0.064,0.1926 0.3632,0.1109 0.2996,-0.082 -0.041,-0.1162 -0.077,-0.2337 -0.1216,-0.3486 -0.02,-0.05 -0.024,-0.056 -0.039,-0.094 0,0 0,0 0,0 0.036,0.041 0.068,0.084 0.1035,0.1261 0.103,0.1226 0.2127,0.2474 0.3177,0.3683 0,0 0,1e-4 0,0 -0.055,-0.065 -0.115,-0.1277 -0.1659,-0.1959 -0.07,-0.094 -0.092,-0.1293 -0.106,-0.1582 0.08,0.065 0.1374,0.09 0.2495,0.149 0.1729,0.077 0.2923,-0.1455 0.1194,-0.2222 -0.1536,-0.024 -0.1304,-0.01 -0.2853,-0.1383 -0.1411,-0.1207 -0.3138,-0.3159 -0.4152,-0.4664 0,0 0,0 0,0 0,0 0,0 0.01,0 0.03,0.015 0.062,0.029 0.1695,0.077 0.087,0.038 0.171701,0.084 0.262801,0.1143 0.153199,0.051 0.681099,0.1765 0.829199,0.2007 0.07,0.012 0.1416,0.018 0.213,0.023 -0.07099,-0.01 -0.140893,-0.019 -0.210493,-0.033 -0.1455,-0.03 -0.2889,-0.068 -0.4311,-0.1088 -0.1277,-0.037 -0.2557,-0.074 -0.3779,-0.1242 -0.044,-0.018 -0.1037,-0.049 -0.1644,-0.084 -0.032,-0.041 0.081,-0.061 0.208,-0.065 0.4446,0.087 0.863,0.1924 1.3224,0.3007 0,0 0,0 0.001,0 -0.462005,-0.1087 -0.868905,-0.2092 -1.307305,-0.2987 0.01,0 0.015,0 0.023,0 0.2173,0 0.4626,-0.01 0.7483,-0.014 0.2194,-0.01 0.386,-0.012 0.5481,-0.02 0.015,0.013 0.029,0.025 0.044,0.038 0.116799,0.096 0.3297,0.2635 0.4352,0.3397 0.1144,0.083 0.2334,0.1602 0.35,0.2403 0.01,0.01 0.016,0 0.01,-0.01 -0.373301,-0.2533 -0.303901,-0.1849 -0.604101,-0.4624 -0.05,-0.046 -0.1025,-0.089 -0.143,-0.1421 0,0 0,0 0,0 0.026,0.012 0.052,0.024 0.076,0.038 0.071,0.042 0.1798,0.1249 0.2465,0.1742 0.061,0.041 0.1245,-0.038 0.064,-0.079 -0.03,-0.021 -0.06,-0.041 -0.089,-0.062 0.085,0.026 0.171001,0.05 0.2561,0.076 0.104401,0.032 0.205801,0.073 0.312201,0.1002 0.533,0.1345 0.3549,0.074 0.29,0.053 0,0 -0.01,0 -0.01,0 -0.094,-0.013 -0.186302,-0.035 -0.277702,-0.06 -0.1058,-0.028 -0.2112,-0.059 -0.3132,-0.097 -0.1185,-0.044 -0.2306,-0.102 -0.3412,-0.162 0.1061,-0.01 0.2203,-0.013 0.2986,-0.02 0.3287,-0.029 0.6749,0.077 0.7753,0.1307 0.077,0.048 0.1561,0.094 0.2259,0.1504 0.032,0.026 0.062,0.054 0.092,0.083 -0.095,-0.1095 -0.126199,-0.1628 -0.300199,-0.3376 -0.015,-0.015 -0.033,-0.029 -0.05,-0.043 0.091,0.032 0.223,0.089 0.4424,0.1561 0.1372,0.045 0.2795,0.079 0.416,0.1264 0.2443,0.084 0.4799,0.1895 0.7282,0.2637 0.2718,0.081 0.5544,0.1286 0.8291,0.2014 0.1844,0.049 0.365,0.1088 0.5474,0.1632 0.176801,0.024 0.214801,-0.203 0.038,-0.2273 -0.1857,0 -0.3761,0.025 -0.5574,-0.012 -0.4419,-0.09 -0.8284,-0.267 -1.2016,-0.4701 0.046,0 0.091,0 0.137,0 0.1597,0.036 0.3206,0.065 0.4827,0.09 -0.049,-0.01 -0.1034,-0.015 -0.1382,-0.023 -0.075,-0.016 -0.1349,-0.038 -0.1917,-0.062 0.1334,0.01 0.2665,0.019 0.3994,0.027 0.037,0 0.332,0.017 0.4159,0.021 0.069,0 0.066,-0.091 0,-0.089 -0.047,0.014 -0.091,0.038 -0.1405,0.043 -0.089,0.01 -0.1802,0 -0.2699,0 -0.1087,-0.01 -0.2165,-0.024 -0.3243,-0.038 -0.059,-0.01 -0.071,-0.011 -0.109,-0.016 -0.071,-0.061 0.085,-0.089 0.2553,-0.1225 0.2267,-0.045 0.4586,-0.084 0.6685,-0.093 0.078,0 0.066,-0.1685 0.021,-0.1756 -0.2295,-0.036 -0.7063,-0.1786 -1.0774,-0.2962 -0.1102,-0.035 -0.217,-0.074 -0.1456,-0.1117 0.1143,-0.025 0.1565,-0.031 0.4981,-0.072 -0.3892,0.019 -0.3883,0.019 -0.567,0.018 0.057,-0.106 0.1369,-0.1859 0.2523,-0.2671 0.029,-0.021 0.06,-0.04 0.09,-0.059 -0.03,0.017 -0.055,0.03 -0.095,0.054 -0.1474,0.087 -0.2115,0.135 -0.3233,0.244 -0.01,0.01 -0.016,0.019 -0.025,0.028 -0.015,-1e-4 -0.011,10e-5 -0.028,0 0.037,-0.052 0.074,-0.10231 0.1133,-0.1524 0.045,-0.053 -0.037,-0.1109 -0.082,-0.058 -0.025,0.037 -0.048,0.076 -0.075,0.1122 -0.024,0.032 -0.051,0.063 -0.077,0.093 0.037,-0.10141 0.046,-0.20901 0.079,-0.31131 0,-0.012 0.01,-0.024 0.014,-0.036 0.1968,-0.026 0.3933,-0.053 0.5901,-0.079 0,0 0,0 0,0 -0.1103,0.015 -0.3521,0.048 -0.5891,0.08 0.018,-0.045 0.039,-0.09 0.055,-0.13639 0.064,-0.1857 0,-0.084 0.088,-0.1973 0.021,-0.051 -0.059,-0.078 -0.08,-0.027 -0.079,0.2319 0.05,-0.157 -0.054,0.2119 -0.015,0.052 -0.034,0.103 -0.052,0.1545 -0.118,0.016 -0.2157,0.028 -0.3332,0.042 0.02,0 0.04,0 0.06,-0.01 0.091,-0.011 0.1818,-0.023 0.2727,-0.035 0,0.01 -0.01,0.014 -0.01,0.022 -0.054,0.1672 -0.057,0.1819 -0.077,0.2227 -0.091,0.094 -0.2561,0.048 -0.3872,0.019 -0.2024,-0.044 -0.4118,-0.085 -0.6235,-0.1209 0.08,-0.021 0.1492,-0.036 0.1995,-0.046 -0.075,0 -0.2813,0 -0.3697,-0.01 -0.021,0 -0.035,0.01 -0.045,0.018 -0.08,-0.013 -0.1599,-0.025 -0.2399,-0.036 0.021,-0.015 0.043,-0.029 0.066,-0.041 0.1546,-0.076 0.3281,-0.1385 0.5005,-0.1829 -0.083,0.017 -0.1665,0.035 -0.25,0.051 -0.073,0.014 -0.147,0.027 -0.2203,0.041 0.087,-0.074 0.1805,-0.1409 0.2734,-0.211 0.189,-0.1044 0.027,-0.3473 -0.1624,-0.2429 -0.1026,0.047 -0.2173,0.077 -0.3079,0.141 -0.039,0.028 -0.079,0.061 -0.1183,0.097 0,-0.023 0,-0.046 0.01,-0.068 0.021,-0.1008 0.049,-0.1841 0.091,-0.2642 -0.056,0.079 -0.1038,0.1606 -0.14,0.2571 -0.018,0.049 -0.024,0.1003 -0.033,0.1511 -0.019,0.02 -0.039,0.039 -0.057,0.061 -0.022,0.01 -0.045,0.018 -0.067,0.026 -0.022,-0.08 -0.028,-0.026 0,-0.1204 0,-0.092 -0.1479,-0.086 -0.1431,0.01 0,0.1173 -0.01,0.034 0.013,0.1538 -0.035,0.01 -0.069,0.014 -0.1029,0.019 0,-0.023 0,-0.046 0,-0.068 -10e-4,-0.054 -0.01,-0.10779 0,-0.16159 0,-0.10571 0.034,-0.2667 0.05,-0.3722 0,-0.018 -0.024,-0.022 -0.028,0 -0.022,0.12469 -0.045,0.24929 -0.066,0.3742 -0.01,0.052 -0.011,0.10469 -0.023,0.15589 -0.01,0.03 -0.023,0.059 -0.035,0.088 0,0 -0.01,0 -0.015,0 -0.043,-0.092 -0.087,-0.194 -0.1357,-0.3341 z m 0.7899,-0.2319 c 0.039,-0.056 0.082,-0.11 0.1299,-0.16641 0.021,-0.025 0.044,-0.048 0.068,-0.071 -0.029,0.019 -0.057,0.04 -0.079,0.065 -0.052,0.059 -0.089,0.1151 -0.1189,0.1726 z m 0.1979,-0.23731 c 0.024,-0.016 0.048,-0.032 0.071,-0.049 0.01,-0.01 0,-0.017 -0.011,-0.01 -0.02,0.02 -0.04,0.039 -0.06,0.059 z m 0.4892,0.6942 c 0.045,-0.01 0.089,-0.018 0.1337,-0.025 0.1268,-0.021 0.2554,-0.031 0.3827,-0.049 0.054,-0.01 0.076,-0.012 0.1156,-0.018 -0.034,0 -0.063,0.01 -0.1168,0.012 -0.1282,0.012 -0.2572,0.023 -0.383,0.049 -0.044,0.01 -0.088,0.02 -0.1322,0.031 z m 0.632,-0.092 c 0.1727,-0.018 0.1564,-0.016 0.3475,0.03 0.065,0 0.068,-0.082 0,-0.083 -0.1387,0.023 -0.2317,0.036 -0.3505,0.054 z m -0.5444,0.3406 c 0.01,0 0.028,0 0.033,0 0.1258,-0.01 0.3232,-0.032 0.5311,-0.057 -0.1775,0.018 -0.3561,0.026 -0.5326,0.05 -0.01,0 -0.023,0.01 -0.031,0.01 z m 1.4378,-0.076 c 0.1864,-0.1055 0.2374,-0.1162 0.5101,-0.2189 0.014,0 0.029,-0.01 0.043,-0.011 -0.015,0 -0.03,0 -0.045,0.01 -0.1083,0.04 -0.2214,0.07 -0.3251,0.119 -0.064,0.03 -0.1241,0.066 -0.183,0.1042 z m 0.5532,-0.2301 c 0.062,-0.01 0.1228,-0.019 0.1843,-0.028 0.015,0 0.01,-0.022 0,-0.019 -0.06,0.016 -0.120099,0.031 -0.18,0.047 z m -0.1869,1.5503 c 0.035,0.01 0.062,0.011 0.101,0.016 -0.034,0 -0.067,-0.011 -0.101,-0.016 z m -1.5117,0.09 c 0.035,0.041 0.079,0.089 0.1437,0.1555 0.01,0.01 0.012,0.011 0.018,0.017 -0.01,-0.01 -0.01,-0.014 -0.015,-0.021 -0.046,-0.053 -0.096,-0.1036 -0.1475,-0.1522 z m 0.1621,0.1728 c 0.043,0.055 0.077,0.1152 0.1156,0.1726 0.024,0.027 0.065,0 0.041,-0.031 -0.052,-0.047 -0.1069,-0.093 -0.1571,-0.1417 z m -0.6121,-0.1975 c 10e-4,0 0,10e-5 0,0 -0.013,0 -0.02,-0.01 0,0 0.02,0.01 0.042,0.012 0.1547,0.046 0.035,0.01 0.045,-0.04 0.01,-0.046 -0.053,0 -0.107199,0 -0.160099,0 v 5.3e-4 m -1.609201,0.1467 c 0.05,0.01 0.1002,0.012 0.1501,0.02 -0.01,0 0,-0.01 0,-0.01 -0.05,0 -0.1008,-0.01 -0.1514,-0.012 z m -1.9305,-0.1359 c -0.01,0.037 -0.017,0.065 -0.018,0.2675 0,0.022 0,0.044 0,0.066 0,-0.024 0,-0.026 0,-0.066 0,-0.086 0.016,-0.1727 0.011,-0.2591 0,0 -0.001,-0.01 -0.001,-0.01 z m -0.014,0.3333 c -0.01,0.099 -0.01,0.1114 -0.046,0.243 0,0.038 0.056,0.041 0.059,0 -0.001,-0.04 0,-0.079 0,-0.1182 0,-0.043 -0.01,-0.085 -0.01,-0.1284 z m -1.202101,-0.2875 c 0.01,0.01 0.012,0.018 0.018,0.027 0.01,0.01 0.012,0.014 0.017,0.021 0,-0.01 -0.01,-0.014 -0.015,-0.022 -0.01,-0.01 -0.014,-0.017 -0.02,-0.025 z m 0.035,0.048 c 0.077,0.1106 0.1162,0.2042 0.1743,0.3268 0.011,0.022 0.045,0.01 0.034,-0.014 -0.03,-0.056 -0.054,-0.11561 -0.09,-0.16891 -0.034,-0.051 -0.079,-0.095 -0.1181,-0.1437 z m 2.7126,-1.8582 c 0.015,-0.024 0.034,-0.059 0.045,-0.075 0.067,-0.1035 0.1143,-0.1678 0.1684,-0.2392 -0.013,0.01 -0.026,0.018 -0.036,0.03 -0.057,0.062 -0.094,0.1368 -0.1349,0.2083 -0.018,0.033 -0.029,0.053 -0.042,0.077 z m 0.2133,-0.3147 c 0.033,-0.022 0.072,-0.038 0.1052,-0.06 0.025,-0.023 -0.011,-0.055 -0.036,-0.032 -0.028,0.037 -0.047,0.063 -0.069,0.092 z m -1.0354,0.3736 c -10e-4,0.01 0,0.017 0,0.022 -0.065,0.039 -0.1273,0.076 -0.2143,0.1332 -0.032,0.021 -0.063,0.045 -0.094,0.068 -0.1502,0.01 -0.2986,0.018 -0.4454,0.032 0.1797,-0.079 0.3682,-0.1403 0.5567,-0.1996 0.066,-0.021 0.1331,-0.038 0.2002,-0.055 z m -0.012,0.057 c -0.011,0.048 -0.025,0.096 -0.036,0.1451 0,0 -0.01,0.01 -0.016,0.011 -0.047,0 -0.095,0 -0.140999,0 0.01,-0.01 0.015,-0.017 0.024,-0.024 0.067,-0.059 0.1199,-0.099 0.168999,-0.1348 z m 5.2519,1.3258 c -0.064,0 -0.1288,0 -0.193099,0.01 -0.039,-1e-4 -0.077,0 -0.1156,0 -0.075,0.01 -0.063,0.1035 0.012,0.096 0.1208,-0.039 0.158199,-0.057 0.3006,-0.072 0.08,-0.01 0.160199,-0.01 0.240199,-0.011 0.011,0 0.01,-0.014 0,-0.014 -0.081,0 -0.1621,-0.01 -0.2432,-0.01 z m -0.341399,0.2636 c 0.074,0.011 0.1475,0.021 0.2215,0.03 0.183499,0.022 0.368,0.038 0.551999,0.056 0.057,0.01 0.079,0.01 0.118801,0.011 -0.041,-0.01 -0.061,-0.01 -0.118299,-0.014 -0.1564,-0.017 -0.5068,-0.048 -0.774,-0.082 z m 0.8923,0.097 c 0.2461,0.03 0.249499,0.039 0.3321,0.038 -0.084,-0.023 -0.1066,-0.018 -0.3321,-0.038 z m 0.3321,0.038 c 0.031,0.01 0.073,0.021 0.1448,0.042 0.035,0 0.041,-0.041 0.01,-0.045 -0.079,0 -0.1207,0 -0.1508,0 z m -5.718999,-0.087 c -0.058,-0.01 -0.098,0.064 -0.036,0.099 0.211,0.1307 -0.068,-0.034 0.2284,0.1062 0.043,0.02 0.08,0.048 0.1209,0.072 0.071,0.036 0.1275,-0.056 0.056,-0.092 -0.043,-0.02 -0.086,-0.037 -0.1274,-0.059 -0.303,-0.1623 0.026,-0.01 -0.2161,-0.1179 -0.01,-0.01 -0.017,-0.01 -0.026,-0.01 z"
       style="fill:#1f2123;fill-opacity:1;stroke:none;stroke-width:0.264583px;stroke-linecap:butt;stroke-linejoin:miter;stroke-opacity:1" />
  </g>
</svg>
