<?xml version="1.0" encoding="UTF-8" standalone="no"?>
<svg
   xmlns:dc="http://purl.org/dc/elements/1.1/"
   xmlns:cc="http://creativecommons.org/ns#"
   xmlns:rdf="http://www.w3.org/1999/02/22-rdf-syntax-ns#"
   xmlns:svg="http://www.w3.org/2000/svg"
   xmlns="http://www.w3.org/2000/svg"
   xmlns:sodipodi="http://sodipodi.sourceforge.net/DTD/sodipodi-0.dtd"
   xmlns:inkscape="http://www.inkscape.org/namespaces/inkscape"
   inkscape:export-ydpi="96"
   inkscape:export-xdpi="96"
   inkscape:export-filename="D:\Calcatz\Icon Pack\Adventure Narative Inspired by Arrival\GUI\Obtain Logogram\png\title_underline - detail_2.png"
   sodipodi:docname="title_underline - detail_2.svg"
   inkscape:version="1.0 (4035a4fb49, 2020-05-01)"
   id="svg4322"
   version="1.1"
   viewBox="0 0 17.177744 4.0152559"
   height="4.0152559mm"
   width="17.177744mm">
  <defs
     id="defs4316" />
  <sodipodi:namedview
     inkscape:window-maximized="1"
     inkscape:window-y="-8"
     inkscape:window-x="-8"
     inkscape:window-height="705"
     inkscape:window-width="1366"
     fit-margin-bottom="0"
     fit-margin-right="0"
     fit-margin-left="0"
     fit-margin-top="0"
     showgrid="false"
     inkscape:document-rotation="0"
     inkscape:current-layer="layer1"
     inkscape:document-units="mm"
     inkscape:cy="16.983612"
     inkscape:cx="25.095696"
     inkscape:zoom="5.3691756"
     inkscape:pageshadow="2"
     inkscape:pageopacity="0.0"
     borderopacity="1.0"
     bordercolor="#666666"
     pagecolor="#ffffff"
     id="base" />
  <metadata
     id="metadata4319">
    <rdf:RDF>
      <cc:Work
         rdf:about="">
        <dc:format>image/svg+xml</dc:format>
        <dc:type
           rdf:resource="http://purl.org/dc/dcmitype/StillImage" />
        <dc:title></dc:title>
      </cc:Work>
    </rdf:RDF>
  </metadata>
  <g
     transform="translate(-97.244462,-146.15904)"
     id="layer1"
     inkscape:groupmode="layer"
     inkscape:label="Layer 1">
    <path
       id="path11842"
       d="m 99.840499,146.18623 c -0.1313,0 -0.2407,0.12821 -0.1181,0.2324 0.1953,0.1393 0.420201,0.2563 0.585901,0.41781 0.097,0.094 0.1925,0.2018 0.2851,0.3161 -0.031,-0.019 -0.077,-0.043 -0.2425,-0.1383 -0.01,-0.01 -0.017,0 -0.01,0.01 0.2233,0.2398 0.1276,0.1439 0.2796,0.2918 0.034,0.027 0.075,0.019 0.097,0 0.057,0.076 0.1093,0.155 0.1619,0.2341 -0.1781,-0.1 -0.3576,-0.1989 -0.5388,-0.2956 -0.1684,-0.087 -0.3242,0.1009 -0.1558,0.1882 0.094,0.039 0.1951,0.068 0.2819,0.1158 0.053,0.029 0.1083,0.066 0.1635,0.1049 0,0 0,0.01 0,0.013 -0.1373,-0.061 -0.2691,-0.1302 -0.4077,-0.1864 -0.074,-0.03 -0.1497,-0.058 -0.225901,-0.085 0.192101,0.082 0.448901,0.2046 0.550401,0.2609 0.028,0.016 0.055,0.034 0.082,0.051 -0.026,0.091 -0.2038,0.117 -0.3629,0.1183 -0.1282,0 -0.344301,0.027 -0.600002,0.067 -0.024,-0.021 -0.046,-0.043 -0.074,-0.061 -0.2281,-0.1437 -0.4877,-0.21 -0.7564,-0.3075 0.1756,0.076 0.3587,0.1431 0.5267,0.2294 0.1181,0.061 0.1486,0.1026 0.1878,0.1573 -0.809,0.1325 -1.9504,0.3759 -2.2744,0.4016 -0.041,0 -0.039,0.1131 -0.01,0.1229 0.2355,0.077 1.6585,0.2845 2.4901,0.3684 -0.047,0.028 -0.1113,0.061 -0.2634,0.1447 -0.073,0.04 -0.1155,0.064 -0.1593,0.088 0.051,-0.025 0.078,-0.039 0.1664,-0.08 0.087,-0.04 0.1784,-0.075 0.2675,-0.1133 0,0.053 0,0.1049 0,0.1475 -0.01,0.076 -0.029,0.1505 -0.05,0.2248 -0.016,0.057 -0.04,0.1116 -0.059,0.1674 -0.01,0.026 0.038,0.034 0.046,0.01 0.01,-0.058 0.014,-0.1165 0.03,-0.1737 0.02,-0.075 0.053,-0.1481 0.077,-0.2225 0.032,-0.099 0.044,-0.1397 0.054,-0.1809 0.167702,0.016 0.314702,0.027 0.399602,0.027 0.097,0 0.2516,0.021 0.3898,0.065 -0.019,0.044 -0.038,0.088 -0.076,0.1234 -0.031,0.029 -0.1864,0.096 -0.2455,0.1216 -0.097,0.05 -0.01,0.1586 0.089,0.1088 0.036,-0.021 0.075,-0.039 0.1072,-0.064 0.048,-0.037 0.089,-0.08 0.1303,-0.1221 0.062,-0.063 0.087,-0.091 0.111,-0.1209 0.035,0.018 0.067,0.038 0.093,0.061 0,0 0,0 0,0.01 0,0.071 0.01,0.1425 0,0.21309 -0.01,0.041 -0.029,0.08 -0.041,0.12041 -0.023,0.079 0.016,0.061 -0.038,0.077 -0.057,0.088 0.1,0.152 0.1574,0.064 0,-0.018 0.033,-0.1345 0.033,-0.1365 0,-0.042 -0.019,-0.083 -0.022,-0.125 0,-0.038 0,-0.076 0,-0.1135 0.047,0.072 0.1044,0.1545 0.1366,0.2008 0.098,0.1567 0.379,0.047 0.2807,-0.11 -0.1982,-0.24141 -0.01,0.021 -0.061,-0.1758 -0.01,-0.032 0.02,-0.073 0.066,-0.1059 0.075,0.047 0.1,0.062 0.4275,0.26729 0.013,0.01 0.03,-0.01 0.016,-0.015 -0.2702,-0.20499 -0.3273,-0.24009 -0.3802,-0.2868 0.03,-0.011 0.062,-0.018 0.094,-0.017 0.096,0 0.192,0.01 0.288,0.012 0.01,0.011 0.016,0.021 0.035,0.028 0.1569,0.059 0.082,0.027 0.257,0.1133 0.057,0.028 0.1134,0.056 0.1702,0.085 0.027,0.015 0.054,-0.015 0.027,-0.03 -0.052,-0.034 -0.1034,-0.068 -0.1552,-0.1019 -0.085,-0.056 -0.1081,-0.072 -0.1296,-0.085 0.1016,0 0.2034,0.01 0.3049,0.013 0.167,0.01 0.3374,0.02 0.5069,0.03 0.032,0.041 0.057,0.084 0.088,0.1475 0.063,0.1293 0.062,0.094 0.028,0.1866 0.01,0.069 0.1287,0.063 0.1232,-0.01 -0.062,-0.1712 0.025,0.052 -0.1017,-0.1977 -0.023,-0.046 -0.038,-0.086 -0.054,-0.1255 0.075,0 0.1481,0.01 0.222,0.014 0.051,0.049 0.1,0.1004 0.1354,0.1572 0.046,0.073 0.073,0.1535 0.097,0.233 0.019,0.06 0.021,0.1229 0.031,0.1843 0.012,0.056 0.1119,0.042 0.1,-0.014 -0.02,-0.063 -0.039,-0.1265 -0.061,-0.1892 -0.045,-0.1268 -0.094,-0.2425 -0.1495,-0.3606 0.5905,0.045 1.1353,0.1164 1.4771,0.267 0.045,0.04 0.117,0.1058 0.2486,0.2243 0.3074,0.2769 0.322,0.2297 0.3919,0.545 0,0.016 -0.01,0.031 -0.013,0.047 0.098,0.2043 0.4639,0.094 0.3655,-0.11 -0.2034,-0.1215 -0.031,0 -0.2739,-0.2711 -0.097,-0.1067 -0.2083,-0.2057 -0.304,-0.3133 -0.035,-0.04 -0.069,-0.081 -0.1015,-0.1219 0.035,0.014 0.069,0.028 0.1549,0.059 0.099,0.035 0.2062,0.055 0.303,0.094 0.1976,0.079 0.2469,0.1258 0.3962,0.2324 0.069,0.039 0.1398,-0.038 0.071,-0.077 -0.061,-0.025 -0.1246,-0.047 -0.1844,-0.074 -0.42,-0.1903 -0.083,-0.061 -0.5334,-0.2516 -0.079,-0.034 -0.1666,-0.055 -0.2422,-0.094 0,0 0,0 0,0 0.1444,0.014 0.292,0.028 0.416,0.04 0,0.016 0.016,0.031 0.041,0.042 0.2403,0.072 0.4168,0.1221 0.63,0.2054 -0.1277,-0.073 -0.251,-0.1506 -0.3801,-0.2218 0.065,0.01 0.138,0.013 0.1949,0.017 0.2135,0.037 0.4249,0.082 0.637,0.1249 0.024,0.011 0.041,0.017 0.076,0.035 0.066,0.035 0.1265,0.076 0.1895,0.1138 0.062,0.037 0.1244,0.074 0.1846,0.1128 0.051,0.033 0.099,0.068 0.1478,0.1022 0.03,0.021 0.06,0.041 0.09,0.061 0.05,0.029 0.1014,-0.027 0.051,-0.056 -0.034,-0.016 -0.068,-0.03 -0.1004,-0.047 -0.054,-0.029 -0.1046,-0.061 -0.1562,-0.092 -0.062,-0.037 -0.1242,-0.075 -0.1849,-0.1138 -0.042,-0.027 -0.083,-0.055 -0.1242,-0.082 1.2327,0.2321 0.6848,0.079 1.6364,0.3965 0.1934,0.052 0.2869,-0.1639 0.093,-0.2162 -0.9564,-0.1878 -0.5254,-0.093 -1.6959,-0.3803 -0.065,-0.016 -0.2063,-0.051 -0.3046,-0.076 -0.052,-0.027 -0.069,-0.056 -0.055,-0.086 0.047,0 0.097,0.01 0.1436,0.012 -0.046,-0.01 -0.092,-0.013 -0.1375,-0.021 0.055,-0.08 0.3328,-0.1593 0.7458,-0.1967 0.256,-0.023 0.544,-0.048 0.8681,-0.074 0.2356,-0.019 0.4721,-0.026 0.7088,-0.031 0,0.01 0.01,0.014 0.015,0.021 0.039,0.058 0.077,0.1169 0.1155,0.1753 0.011,0.024 0.054,0.012 0.043,-0.012 -0.019,-0.062 -0.035,-0.124 -0.057,-0.1848 0.055,0 0.11,0 0.1651,0 0.1,0.015 0.1936,0.03 0.24,0.043 0.2259,0.063 0.3658,0.1578 0.5705,0.2463 0.3143,0.136 0.1054,0.01 0.3286,0.1599 0.023,0.02 0.046,0.039 0.069,0.059 0.097,0.064 0.2115,-0.044 0.1146,-0.1083 -0.035,-0.02 -0.069,-0.04 -0.104,-0.06 -0.05,-0.02 -0.098,-0.043 -0.1498,-0.059 -0.6649,-0.2124 0.3198,0.1319 -0.4982,-0.1406 -0.1087,-0.036 -0.2138,-0.079 -0.3209,-0.1183 -0.022,-0.01 -0.044,-0.016 -0.066,-0.024 0.1876,0 0.3754,0 0.5631,0 0.1296,0.012 0.1085,0.01 0.2995,0.076 0.073,0.027 0.1481,0.051 0.2167,0.085 0.067,0.033 0.1249,0.077 0.1894,0.1138 0.057,0.032 0.1169,0.062 0.175,0.093 0.038,0.02 0.075,0.041 0.1133,0.062 0.065,0.023 0.1064,-0.049 0.042,-0.073 -0.04,-0.01 -0.082,-0.017 -0.1203,-0.031 -0.161,-0.059 -0.2316,-0.1096 -0.3821,-0.1879 -0.09,-0.047 -0.1817,-0.093 -0.2752,-0.1358 0.105,0 0.2101,0 0.3149,0 0.2631,0 0.3529,0.077 0.4339,0.1191 0.02,0.014 0.044,0.026 0.077,0.033 0.2119,0.024 0.4243,0.045 0.6371,0.063 0.058,0.036 0.1163,0.072 0.1737,0.1088 0.1047,0.067 0.2057,0.1373 0.311,0.2035 0.02,0.012 0.017,0.011 0.032,0.02 -0.1299,-0.092 -0.2935,-0.1966 -0.3401,-0.2266 -0.053,-0.034 -0.1037,-0.069 -0.1552,-0.104 0.3829,0.033 0.7669,0.058 1.1513,0.08 -0.04,0 -0.08,-0.01 -0.1203,-0.012 -0.767,-0.094 -0.9384,-0.1406 -1.3363,-0.27909 0.1402,0.026 0.2559,0.048 0.3626,0.067 -0.074,-0.019 -0.155,-0.043 -0.2394,-0.073 0.1995,0.024 0.3989,0.047 0.5984,0.071 0.3858,0.042 0.7079,-0.088 1.1513,-0.2135 0.031,0 0.1001,0 0.2464,0.013 0.4333,0.029 0.4344,0.037 0.8581,0.098 0.058,0.012 0.1158,0.024 0.1738,0.037 0.044,0.01 0.056,-0.042 0.012,-0.049 -0.061,0 -0.1218,0 -0.1827,-0.01 -0.1414,-0.016 -0.2836,-0.028 -0.4243,-0.047 -0.1445,-0.02 -0.2874,-0.046 -0.431,-0.07 -0.033,-0.01 -0.066,-0.012 -0.099,-0.018 0.2011,-0.052 0.4257,-0.10071 0.6937,-0.13101 0.081,-0.01 0.1583,-0.42189 -0.033,-0.43799 -0.6326,-0.053 -1.7669,-0.2111 -1.7669,-0.2111 0,0 -0.195,0.039 -0.2925,0.058 -0.093,-0.043 -0.1811,-0.096 -0.272,-0.1431 0.249,-0.058 0.619,-0.1111 0.9814,-0.1515 -0.4045,0 0.1258,-0.056 -1.0633,-0.029 -0.01,0 -0.02,0 -0.031,0 0.1074,-0.04 0.2152,-0.079 0.3255,-0.1138 0.028,0.01 0.06,0 0.091,-0.018 0.01,0 0.01,-0.01 0.015,-0.013 0.01,0.048 0.071,0.091 0.1484,0.06 0.1264,-0.031 0.3333,-0.084 0.4429,-0.097 0.1402,-0.017 0.2826,-0.019 0.4243,-0.024 0.439,-0.013 0.5535,-0.01 0.8748,0.01 -0.3671,-0.02 -0.1659,-0.01 -0.8751,-0.029 -0.1365,0 -0.2728,-0.013 -0.4093,-0.014 0.2142,-0.011 0.4054,0.01 0.6608,0.017 0.3275,-0.035 0.2648,-0.40121 -0.063,-0.36611 -0.1269,0.037 -0.2513,0.08 -0.3805,0.11121 -0.1729,0.042 -0.3479,0.079 -0.5229,0.1156 0.1046,-0.064 0.2189,-0.1274 0.3287,-0.1849 -0.082,0.035 -0.1368,0.058 -0.2586,0.1083 -0.1979,0.081 -0.2953,0.1184 -0.3449,0.1345 -0.015,0 -0.03,0.01 -0.045,0.01 0.01,-0.013 0.1035,-0.06 -0.032,0.01 -0.1702,0.036 -0.3394,0.075 -0.5072,0.11729 0,0 0,0 0,0 -0.086,0.024 -0.1919,0.043 -0.3043,0.059 0.022,-0.021 0.044,-0.041 0.069,-0.06 0.075,-0.055 0.16669,-0.094 0.2435,-0.1474 0.56809,-0.3948 -0.10051,-0.01 0.64219,-0.4082 0,0 0,0 0,0 -0.1433,0.055 -0.2947,0.098 -0.43,0.1646 -0.1034,0.051 -0.1886,0.1216 -0.281,0.1841 -0.078,0.053 -0.1512,0.1097 -0.2294,0.1621 -0.066,0.045 -0.1349,0.087 -0.2041,0.1293 -0.2355,0.025 -0.4704,0.038 -0.6013,0.041 -0.2482,0.01 -0.4867,0.038 -0.73629,0.076 0.15439,-0.1743 0.4213,-0.3705 0.61249,-0.4873 0.01,0 0.016,-0.01 0.024,-0.014 -0.1568,0.079 -0.3104,0.16181 -0.4864,0.2716 -0.095,0.059 -0.1765,0.13011 -0.2659,0.19421 -0.032,0.023 -0.064,0.045 -0.097,0.067 -0.2799,0.046 -0.5877,0.097 -0.9654,0.1386 0.013,-0.015 0.027,-0.03 0.039,-0.045 0.1963,-0.2597 0.1162,-0.2043 0.3494,-0.4762 0.049,-0.057 0.1026,-0.1104 0.1562,-0.1644 0.026,-0.02 0.052,-0.039 0.078,-0.059 -0.024,0.017 -0.048,0.035 -0.072,0.052 0.019,-0.019 0.038,-0.038 0.056,-0.057 0.043,-0.037 0.086,-0.074 0.1283,-0.1113 0.048,-0.056 -0.053,-0.1102 -0.1008,-0.054 -0.026,0.046 -0.051,0.093 -0.077,0.1393 -0.2353,0.2729 -0.2112,0.2471 -0.1926,0.22279 0,0 0,0 0,0 0,0 0,0 0,0 0,0 -0.01,0.01 0,0 0.01,-0.01 0,0 -0.028,0.021 -0.018,0.014 -0.036,0.027 -0.055,0.041 -0.2394,0.1744 -0.4801,0.3418 -0.7232,0.5116 -0.01,0.01 -0.01,0.01 -0.011,0.016 -0.2488,0.019 -0.4976,0.035 -0.7465,0.048 -0.013,-0.1001 -0.04,-0.1991 -0.046,-0.2997 0,-0.016 0,-0.031 0,-0.047 0.01,-0.01 0.016,-0.013 0.025,-0.019 -0.01,0 -0.017,0.01 -0.025,0.012 0,-0.033 0,-0.066 0,-0.099 -0.01,0.037 -0.017,0.074 -0.024,0.1108 -0.1084,0.052 -0.221,0.099 -0.3302,0.14971 -0.066,0.031 -0.134,0.058 -0.194,0.095 0,0 0,0 0,0 -0.097,0.058 -0.2349,0.098 -0.3647,0.1201 0.01,-0.029 0.02,-0.058 0.025,-0.088 0.058,-0.3232 0.04,-0.2851 0.032,-0.2661 0.02,-0.014 0.033,-0.035 0.033,-0.064 0,-0.013 -0.01,-0.023 -0.01,-0.035 0.01,-0.028 -0.01,0.02 0.044,-0.1798 0.029,-0.1162 0.044,-0.2356 0.091,-0.348 0.044,-0.1048 0.12,-0.19931 0.1801,-0.2989 0.048,-0.042 0.096,-0.085 0.1446,-0.127 0.04,-0.048 -0.047,-0.093 -0.087,-0.044 -0.028,0.054 -0.055,0.10889 -0.082,0.1633 -0.26,0.4946 -0.074,0.1155 -0.2976,0.6454 -0.01,0.018 -0.016,0.035 -0.024,0.052 0,-0.027 -0.01,-0.055 0,-0.087 0,-0.078 0.015,-0.1565 0.033,-0.2336 0.02,-0.085 0.053,-0.1688 0.079,-0.2532 0.013,-0.038 -0.055,-0.052 -0.068,-0.014 -0.027,0.086 -0.054,0.1721 -0.082,0.258 -0.026,0.081 -0.061,0.161 -0.081,0.2433 -0.012,0.048 -0.011,0.098 -0.017,0.1466 -0.016,-0.073 -0.034,-0.1454 -0.044,-0.2187 -0.01,-0.067 -0.01,-0.1354 -0.012,-0.2031 -0.076,-0.1893 -0.4153,-0.1039 -0.3388,0.086 0.043,0.044 0.1081,0.08 0.1296,0.1335 0.046,0.1151 0.049,0.2305 0.037,0.3462 0,0 -0.01,0 -0.01,0 -0.2146,0.089 -0.4232,0.1553 -0.6339,0.2458 0.013,-0.012 0.03,-0.021 0.1337,-0.1034 0.1573,-0.1238 -0.064,-0.2996 -0.2214,-0.1758 -0.085,0.062 -0.1831,0.1146 -0.2537,0.1869 -0.019,0.02 -0.029,0.036 -0.043,0.054 -0.016,0.012 -0.032,0.022 -0.049,0.033 0.049,-0.1626 0.019,-0.1115 0.1046,-0.3174 0.015,-0.036 0.012,-0.025 0.02,-0.044 0.026,0.025 0.082,0.03 0.1078,-0.011 0.071,-0.1328 0.03,-0.069 0.1238,-0.1912 0.035,-0.046 -0.047,-0.085 -0.082,-0.039 -0.063,0.08 -0.078,0.094 -0.099,0.1181 0,-0.01 0,-0.01 0.019,-0.07 0.013,-0.049 -0.074,-0.063 -0.087,-0.015 0,0.033 0,0.067 -0.01,0.1002 -0.014,0.075 -0.06,0.2438 -0.087,0.3103 -0.025,0.061 -0.06,0.1188 -0.089,0.1788 -0.013,0.026 -0.01,0.02 -0.017,0.037 -0.2898,0.1444 -0.6432,0.1287 -0.9586,0.1279 -0.01,0 -0.011,0 -0.016,0 0.027,-0.1117 0.057,-0.2317 0.08,-0.2845 0.041,-0.091 0.1016,-0.1749 0.1574,-0.2604 0.01,-0.013 0.011,-0.017 0.018,-0.029 0.01,0 0.018,-0.01 0.028,-0.01 0.092,-0.03 0.1912,-0.041 0.2867,-0.062 0.049,-0.014 0.023,-0.068 -0.025,-0.054 -0.091,0.034 -0.1827,0.065 -0.2713,0.1019 0,0 0,0 0,0 0.102,-0.1607 0.075,-0.132 0.2466,-0.2483 0.062,-0.073 -0.07,-0.1427 -0.1315,-0.069 -0.052,0.1451 -0.064,0.193 -0.1552,0.3356 -0.2308,0.098 -0.4583,0.2073 -0.6665,0.3325 -0.082,0.049 -0.1595,0.104 -0.2368,0.1583 0,-0.037 0,-0.053 0,-0.1065 0,-0.049 0,-0.098 0.01,-0.1476 0,0.049 -0.01,0.098 -0.018,0.1461 -0.012,0.057 -0.024,0.1014 -0.035,0.1416 -0.01,0.01 -0.019,0.014 -0.029,0.02 -0.014,0.01 -0.028,0.02 -0.042,0.03 -0.3117,0 -0.6235,0 -0.9353,-0.01 0.059,-0.033 0.1155,-0.067 0.1789,-0.093 0.187,-0.077 0.641,-0.2178 0.8828,-0.2953 0,0.019 0,0.037 0,0.056 0,-0.019 0,-0.038 0.01,-0.057 0.037,-0.012 0.1072,-0.034 0.1299,-0.042 0.2135,-0.072 0.4243,-0.14821 0.6365,-0.22221 -0.1225,0.041 -0.4544,0.1532 -0.7661,0.2574 0,-0.052 0,-0.10309 0.01,-0.1545 0,0 -0.01,0 -0.01,0 0,0.052 0,0.1038 -0.01,0.1558 -0.1888,0.063 -0.3922,0.1313 -0.4726,0.156 -0.1404,0.043 -0.2855,0.076 -0.4268,0.1173 -0.6807,0.1988 0.061,0 -0.3827,0.1158 0,0 0,0 -0.01,0 -0.042,0 -0.084,0 -0.1267,0 0.033,-0.037 0.066,-0.073 0.098,-0.1107 0.073,-0.086 0.1365,-0.1778 0.2147,-0.26119 0.1863,-0.19911 0.3146,-0.31441 0.462,-0.44131 -0.034,0.025 -0.068,0.051 -0.1001,0.078 -0.5033,0.42721 -0.2302,0.23711 -0.6189,0.59911 -0.046,0.043 -0.099,0.08 -0.1481,0.12039 -0.041,-0.021 -0.081,-0.064 -0.098,-0.12619 0,0 0,0 0,0 -0.01,-0.021 -0.012,-0.043 -0.013,-0.064 -0.01,-0.1201 -0.012,-0.24261 0.018,-0.3606 0.027,-0.1098 0.1,-0.2094 0.1494,-0.3141 0.01,-0.02 -0.027,-0.029 -0.035,-0.01 -0.044,0.1151 -0.2076,0.5338 -0.2451,0.6696 -0.042,-0.1641 -0.059,-0.3305 -0.066,-0.4977 -0.01,0.069 -0.018,0.1372 -0.024,0.2059 -0.022,0.2622 -0.013,0.225 -0.022,0.2726 -0.037,-0.039 -0.075,-0.078 -0.1117,-0.1181 -0.8377,-0.9073 -0.4228,-0.4287 -1.0943,-1.2351 -0.041,-0.035 -0.087,-0.049 -0.130601,-0.05 z m 1.382301,0.92431 c 0,-0.031 0.01,-0.062 0.01,-0.093 0,-0.101 -0.01,-0.2018 -0.011,-0.3027 0,0 -0.01,0 -0.01,0 0,0.13159 0,0.2641 0.01,0.3962 z m 1.158,-0.094 c 0.078,-0.059 0.1591,-0.1165 0.2378,-0.17551 0,-0.01 0.01,-0.011 0.011,-0.016 -0.01,0 -0.019,0 -0.029,0 -0.092,0.079 -0.1522,0.131 -0.2199,0.18921 z m 0.249,-0.1914 c 0.037,0 0.075,-0.01 0.1126,-0.01 0.064,-0.031 0.01,-0.1034 -0.056,-0.072 -0.019,0.027 -0.038,0.054 -0.057,0.08 z m 4.4397,0.4923 c 0.01,-0.039 0.019,-0.077 0.026,-0.1165 0.01,-0.041 0.01,-0.083 0.013,-0.1242 -0.013,0.041 -0.025,0.082 -0.03,0.1237 -0.01,0.039 -0.01,0.078 -0.01,0.117 z m 0.038,-0.2407 c 0.011,-0.035 0.023,-0.07 0.033,-0.1049 0,-0.012 -0.02,-0.014 -0.022,0 0,0.036 -0.01,0.072 -0.011,0.1075 z m -0.012,0.3277 c 0,0 0.01,0 0.011,-0.01 0.215,-0.1113 0.3228,-0.169 0.3936,-0.2081 -0.1274,0.053 -0.2497,0.1108 -0.3955,0.2064 0,0 -0.01,0 -0.01,0.01 z m 0.4048,-0.2134 c 0.092,-0.038 0.1852,-0.074 0.3043,-0.1206 0.029,-0.012 0.01,-0.045 -0.022,-0.033 -0.9705,0.4657 0.067,-0.039 -0.2823,0.1535 z m 1.445,-0.2546 c 0.039,-0.028 0.079,-0.056 0.1171,-0.085 0,0 0,0 0,0 -0.038,0.029 -0.077,0.057 -0.1152,0.086 z m 1.1919,0.073 c 0.138,-0.07 0.278,-0.13651 0.4448,-0.21821 -0.01,0 -0.013,0 -0.01,-0.01 -0.146,0.075 -0.2991,0.1428 -0.4387,0.2253 z m 2.3877,-0.075 c 0.3344,-0.1405 0.409,-0.1785 0.3424,-0.15931 -0.032,0.013 -0.066,0.025 -0.097,0.039 -0.072,0.032 -0.1571,0.074 -0.2451,0.1206 z m 0.3424,-0.15931 c 0.073,-0.03 0.1452,-0.06 0.2195,-0.087 -0.165,0.06 -0.3216,0.1168 -0.2195,0.087 z m 0.9187,0.50931 c 0.061,0 0.029,0 0.135,0.01 0,0 0,0 0,0 -0.066,0 -0.084,0 -0.135,-0.01 z m -1.2275,0.2228 c 0.1389,0 0.3854,-0.01 0.8531,-0.03 0.127,-0.01 0.2535,-0.017 0.3798,-0.029 -0.1273,-0.01 -0.2546,-0.014 -0.3821,-0.01 -0.207,0.01 -0.5253,0.033 -0.8508,0.069 z m 1.2329,-0.06 c 0.138,0.01 0.276,0.02 0.4141,0.026 0.06,0 0.058,-0.069 0,-0.067 -0.1374,0.012 -0.2743,0.027 -0.4115,0.041 z m -2.2072,1.3337 c 0.1602,0.04 0.3198,0.062 0.5702,0.079 0.1108,0.01 0.2223,0.012 0.3337,0.012 -0.111,0 -0.222,-0.011 -0.3324,-0.019 -0.248,-0.019 -0.4104,-0.043 -0.5715,-0.071 z m 0.9039,0.091 c 0.076,0 0.1521,0 0.2279,0 0.165,-0.011 0.3229,-0.059 0.4844,-0.088 0,0 0,0 0,0 -0.1614,0.028 -0.3196,0.072 -0.4841,0.084 -0.076,0.01 -0.152,0.01 -0.2282,0.01 z m 0.1901,0.133 c 0.4387,0.046 0.8829,0.057 1.3241,0.087 -0.015,0 -0.013,-0.018 0,-0.017 -0.4418,-0.023 -0.884,-0.045 -1.326,-0.07 z m -0.656,0.2511 c 0.063,0.045 0.1211,0.088 0.1488,0.1173 0.017,0.018 0.012,0.044 0.017,0.067 0.054,0.046 0.1359,-0.014 0.082,-0.06 -0.1315,-0.043 -0.1152,-0.039 -0.2483,-0.1242 z m -5.4512,-0.2294 c 0.1232,0.018 0.2472,0.033 0.3712,0.047 0.064,0.01 0.1481,0.014 0.2208,0.02 -0.073,-0.01 -0.146,-0.019 -0.2192,-0.027 -0.1336,-0.015 -0.2528,-0.028 -0.3728,-0.04 z m 0.592,0.067 c 0.126,0.016 0.252,0.033 0.3789,0.044 1.9985,0.1742 -0.368,-0.068 0.9189,0.067 0.043,0 0.045,-0.047 0,-0.048 -0.1126,0 -0.2252,0.01 -0.3378,0.01 -0.2806,-0.01 -0.6465,-0.037 -0.9619,-0.068 z m -1.0355,0.3272 c 0.046,0.026 0.093,0.053 0.1415,0.077 0.2582,0.1123 0.3164,0.1365 0.3878,0.1677 -0.1332,-0.069 -0.2647,-0.1339 -0.3769,-0.1826 -0.054,-0.024 -0.1033,-0.043 -0.1524,-0.062 z m 0.5293,0.2446 c 0.1729,0.089 0.3491,0.18359 0.4931,0.2602 0.012,0.01 0.023,-0.01 0.011,-0.014 -0.3237,-0.1638 -0.3957,-0.1989 -0.5043,-0.2463 z m -7.320801,-0.62341 c -0.064,0.031 -0.1534,0.075 -0.1975,0.099 0.048,-0.019 0.1056,-0.048 0.1975,-0.099 z m -0.1975,0.099 c -0.052,0.02 -0.1096,0.037 -0.2524,0.083 -0.041,0.018 -0.01,0.064 0.033,0.046 0.1096,-0.065 0.1613,-0.096 0.2198,-0.1284 z m 0.8595,-1.7409 c -0.076,-0.033 -0.1441,-0.06 -0.1853,-0.074 -0.082,-0.026 -0.1673,-0.043 -0.2534,-0.059 0.083,0.021 0.1665,0.043 0.2477,0.068 0.064,0.02 0.1277,0.042 0.191,0.064 z m -0.4387,-0.1325 c -0.046,-0.012 -0.093,-0.024 -0.1392,-0.036 -0.01,0 -0.011,0.01 0,0.01 0.047,0.01 0.095,0.019 0.1424,0.028 z m 9.094501,-0.1141 c -0.031,0.029 -0.087,0.086 -0.215,0.2213 -0.1974,0.2091 -0.2489,0.268 -0.2458,0.2691 -0.019,0.019 -0.023,0.021 -0.056,0.054 -0.022,0 -0.043,0 -0.066,0.01 0.1634,-0.192 0.2128,-0.2493 0.529,-0.5098 0.017,-0.014 0.036,-0.027 0.054,-0.041 z m -4.7476,0.1262 c 0,0 0,0 0,0.01 -0.057,0.087 -0.132,0.1657 -0.1903,0.2519 -0.069,0.1026 -0.122,0.2001 -0.1748,0.3006 -0.1677,0 -0.3355,0 -0.5033,0 0.1082,-0.1031 0.2153,-0.2042 0.2409,-0.2233 0.1775,-0.1328 0.404,-0.252 0.6317,-0.3333 z m 1.9247,0.1545 c 0,0.035 -0.01,0.069 -0.014,0.104 -0.092,0.2514 -0.2915,0.2893 -0.4588,0.292 -0.089,0 -0.1777,0 -0.2666,0 0,0 0.01,-0.01 0.011,-0.015 0.044,-0.034 0.089,-0.067 0.1191,-0.085 0.086,-0.05 0.1822,-0.086 0.2723,-0.1308 0.248,-0.1226 0.2836,-0.1495 0.3369,-0.1691 z m 1.2099,0.011 c 0,0.01 0,0.016 -0.01,0.024 -0.016,0.1014 -0.016,0.2042 -0.03,0.3058 -0.127,0.01 -0.2538,0.013 -0.3808,0.018 0.028,-0.036 0.045,-0.05 0.1696,-0.1499 0.082,-0.066 0.1618,-0.1347 0.247,-0.1983 z m -0.9488,0.01 c 0,0 0,0 0,0 0,0 0,0 0,0 0,0 0,0 0,0 z m -4.816,0.2357 c 0,0 0,0 0,0 0,0 0,0 0,0 0,0 0,0 0,0 z"
       style="fill:#1f2123;fill-opacity:1;stroke:none;stroke-width:0.264583px;stroke-linecap:butt;stroke-linejoin:miter;stroke-opacity:1" />
  </g>
</svg>
