<?xml version="1.0" encoding="UTF-8" standalone="no"?>
<svg
   xmlns:dc="http://purl.org/dc/elements/1.1/"
   xmlns:cc="http://creativecommons.org/ns#"
   xmlns:rdf="http://www.w3.org/1999/02/22-rdf-syntax-ns#"
   xmlns:svg="http://www.w3.org/2000/svg"
   xmlns="http://www.w3.org/2000/svg"
   xmlns:sodipodi="http://sodipodi.sourceforge.net/DTD/sodipodi-0.dtd"
   xmlns:inkscape="http://www.inkscape.org/namespaces/inkscape"
   inkscape:export-ydpi="96"
   inkscape:export-xdpi="96"
   inkscape:export-filename="D:\Calcatz\Icon Pack\Adventure Narative Inspired by Arrival\GUI\Choices\png\choices - line.png"
   sodipodi:docname="choices - line.svg"
   inkscape:version="1.0 (4035a4fb49, 2020-05-01)"
   id="svg6773"
   version="1.1"
   viewBox="0 0 77.645882 1.5566574"
   height="1.5566574mm"
   width="77.645882mm">
  <defs
     id="defs6767" />
  <sodipodi:namedview
     inkscape:window-maximized="1"
     inkscape:window-y="-8"
     inkscape:window-x="-8"
     inkscape:window-height="705"
     inkscape:window-width="1366"
     fit-margin-bottom="0"
     fit-margin-right="0"
     fit-margin-left="0"
     fit-margin-top="0"
     showgrid="false"
     inkscape:document-rotation="0"
     inkscape:current-layer="layer1"
     inkscape:document-units="mm"
     inkscape:cy="13.968242"
     inkscape:cx="72.646111"
     inkscape:zoom="1.8982902"
     inkscape:pageshadow="2"
     inkscape:pageopacity="0.0"
     borderopacity="1.0"
     bordercolor="#666666"
     pagecolor="#ffffff"
     id="base" />
  <metadata
     id="metadata6770">
    <rdf:RDF>
      <cc:Work
         rdf:about="">
        <dc:format>image/svg+xml</dc:format>
        <dc:type
           rdf:resource="http://purl.org/dc/dcmitype/StillImage" />
        <dc:title></dc:title>
      </cc:Work>
    </rdf:RDF>
  </metadata>
  <g
     transform="translate(-44.752894,-69.393834)"
     id="layer1"
     inkscape:groupmode="layer"
     inkscape:label="Layer 1">
    <path
       sodipodi:nodetypes="cc"
       id="path4911"
       d="m 45.545308,70.751804 c 3.09483,0.0455 6.16667,-0.41367 9.257,-0.38007 2.93963,0.032 5.85769,0.37738 8.79573,0.4499 17.1114,0.42239 3.19397,-0.32426 21.729671,-0.37847 4.306548,-0.0121 8.60716,0.21609 12.91074,0.32413 7.831911,-0.0374 15.661271,-0.18247 23.491481,-0.29276 0.89255,-0.002 0.89104,-0.8834 0,-0.88189 -1.33302,0.0488 -2.66451,0.16377 -3.99899,0.14641 -18.092501,-0.23516 2.38374,-0.67972 -19.492591,0.0773 -28.373681,-0.43772 1.812451,-0.1477 -24.509151,0.0955 -8.33615,0.077 -16.6592,-0.37485 -24.99347,-0.31847 -1.06481,0.008 -2.12714,0.0757 -3.19072,0.11351 -1.05754,0.002 -1.05576,1.04675 0.003,1.04494 z"
       style="fill:#1f2123;fill-opacity:1;stroke:none;stroke-width:0.264583px;stroke-linecap:butt;stroke-linejoin:miter;stroke-opacity:1" />
  </g>
</svg>
