<?xml version="1.0" encoding="UTF-8" standalone="no"?>
<svg
   xmlns:dc="http://purl.org/dc/elements/1.1/"
   xmlns:cc="http://creativecommons.org/ns#"
   xmlns:rdf="http://www.w3.org/1999/02/22-rdf-syntax-ns#"
   xmlns:svg="http://www.w3.org/2000/svg"
   xmlns="http://www.w3.org/2000/svg"
   xmlns:sodipodi="http://sodipodi.sourceforge.net/DTD/sodipodi-0.dtd"
   xmlns:inkscape="http://www.inkscape.org/namespaces/inkscape"
   inkscape:export-ydpi="96"
   inkscape:export-xdpi="96"
   inkscape:export-filename="D:\Calcatz\Icon Pack\Adventure Narative Inspired by Arrival\GUI\Choices\png\choices - action_buttons_background.png"
   sodipodi:docname="choices - action_buttons_background.svg"
   inkscape:version="1.0 (4035a4fb49, 2020-05-01)"
   id="svg5587"
   version="1.1"
   viewBox="0 0 17.250141 20.080683"
   height="20.080683mm"
   width="17.250141mm">
  <defs
     id="defs5581" />
  <sodipodi:namedview
     inkscape:window-maximized="1"
     inkscape:window-y="-8"
     inkscape:window-x="-8"
     inkscape:window-height="705"
     inkscape:window-width="1366"
     fit-margin-bottom="0"
     fit-margin-right="0"
     fit-margin-left="0"
     fit-margin-top="0"
     showgrid="false"
     inkscape:document-rotation="0"
     inkscape:current-layer="layer1"
     inkscape:document-units="mm"
     inkscape:cy="40.238089"
     inkscape:cx="-9.7753781"
     inkscape:zoom="2.6845878"
     inkscape:pageshadow="2"
     inkscape:pageopacity="0.0"
     borderopacity="1.0"
     bordercolor="#666666"
     pagecolor="#ffffff"
     id="base" />
  <metadata
     id="metadata5584">
    <rdf:RDF>
      <cc:Work
         rdf:about="">
        <dc:format>image/svg+xml</dc:format>
        <dc:type
           rdf:resource="http://purl.org/dc/dcmitype/StillImage" />
        <dc:title></dc:title>
      </cc:Work>
    </rdf:RDF>
  </metadata>
  <g
     transform="translate(-48.14342,-144.49611)"
     id="layer1"
     inkscape:groupmode="layer"
     inkscape:label="Layer 1">
    <path
       sodipodi:nodetypes="cc"
       id="path4915"
       d="m 60.141437,144.49684 c -0.15248,-0.009 -0.31417,0.0642 -0.43617,0.25703 -0.16589,0.34668 -0.30572,0.70979 -0.49749,1.03998 -0.27969,0.48157 -0.57555,0.95488 -0.91321,1.38937 -0.20831,0.26809 -0.43125,0.52209 -0.6631,0.7662 -0.21619,0.17827 -0.49379,0.35235 -0.8064,0.52061 0.0172,-0.20791 0.0582,-0.4142 0.0796,-0.62196 0.13012,-1.26249 0.0119,-0.50289 0.2069,-1.57325 0.0209,-0.17731 -0.20754,-0.20999 -0.22849,-0.0327 -0.0325,0.22482 -0.0698,0.44904 -0.0971,0.67465 -0.0363,0.30007 -0.0581,0.60206 -0.0934,0.90227 -0.0472,0.40179 -0.0739,0.59038 -0.10493,0.77478 -0.66003,0.33352 -1.41563,0.63951 -2.02174,0.90431 0.22188,-0.43415 0.38687,-0.7176 0.66572,-1.21488 0.0356,-0.0546 -0.0348,-0.10977 -0.0703,-0.0552 -0.18651,0.22743 -0.38259,0.44612 -0.55967,0.68243 -0.37132,0.49544 -0.37563,0.53759 -0.52436,0.81155 -0.17256,0.0837 -0.32318,0.16318 -0.42754,0.23455 -0.48876,0.33432 -0.73046,0.56119 -0.95226,0.80625 0.0436,-0.17616 0.0834,-0.35356 0.13174,-0.52796 0.0652,0.0686 0.17745,0.0833 0.25305,-0.0298 0.1588,-0.29907 0.28366,-0.62293 0.4763,-0.89697 0.53567,-0.76194 0.99777,-1.15052 1.63436,-1.7555 0.0427,-0.0405 -0.009,-0.10706 -0.0521,-0.0666 -0.24466,0.24155 -0.50043,0.47029 -0.73382,0.72494 -2.95997,3.22952 0.38912,-0.28443 -1.44161,1.62351 0.13824,-0.37971 0.25379,-0.662 0.37251,-0.90146 -0.19119,0.34019 -0.39423,0.67294 -0.57494,1.01995 -0.13777,0.26453 -0.24794,0.54482 -0.37584,0.81524 -0.0813,0.17186 -0.18048,0.33398 -0.25157,0.5112 -0.0209,0.052 -0.0317,0.10777 -0.0413,0.16387 -0.0376,0.0405 -0.0704,0.0775 -0.11237,0.12136 -0.54544,0.56883 -2.52076,2.04847 -3.64381,2.25037 -0.29724,0.0534 -0.22011,1.31284 0.004,1.33134 1.43357,0.11821 3.0923,1.27071 3.64792,2.2042 0.40386,0.67857 0.44569,1.28892 0.30438,2.12941 -0.0567,0.17936 -0.12494,0.35462 -0.21471,0.52142 -0.12076,0.22441 -0.52483,0.66468 -0.70628,0.8704 -0.37312,0.4365 0.18915,1.01596 0.56229,0.57945 0.12962,-0.15862 0.27488,-0.30356 0.38886,-0.47607 0.12663,-0.19171 0.26831,-0.45199 0.39444,-0.72001 0.003,0.0101 0.003,0.0149 0.005,0.0258 -0.0516,0.22418 -0.11248,0.44505 -0.17748,0.64973 -0.0705,0.22192 -0.16828,0.43266 -0.24377,0.65259 -0.26048,0.75928 -0.0185,0.20556 -0.262699,0.73105 -0.0257,0.0496 -0.0513,0.0992 -0.077,0.14876 -0.0853,0.35411 0.37055,0.4865 0.45585,0.1324 0,-0.0618 8e-5,-0.12338 0.003,-0.18513 0.0101,-0.0875 0.0196,-0.1752 0.029,-0.26276 0.0175,-0.16156 0.0151,-0.32706 0.0521,-0.48463 0.0539,-0.22933 0.14459,-0.44629 0.21918,-0.66853 0.0305,-0.091 0.0617,-0.18196 0.0934,-0.27257 0.022,0.10547 0.0339,0.16092 0.0637,0.3069 0.0671,0.32952 0.16854,0.65243 0.20542,0.98768 0.0708,0.64369 0.088,0.55929 -0.11387,0.86591 -0.16444,0.92434 1.026,1.17973 1.19041,0.25539 0.009,-0.15091 0.0352,-0.3018 0.0271,-0.45278 -0.0486,-0.90835 -0.14806,-0.89535 -0.30474,-1.85072 -0.045,-0.27447 -0.0765,-0.48361 -0.0994,-0.662 0.16272,0.31715 0.32065,0.61833 0.62032,1.11436 -0.19415,-0.35837 -0.33978,-0.7374 -0.46104,-1.1262 0.27305,0.0169 0.55698,0.006 0.85029,-0.0123 0.28025,0.27063 0.62191,0.60359 0.89607,0.81523 0.24746,0.19106 0.50723,0.36266 0.77028,0.52674 0.28668,0.17879 0.58494,0.33403 0.87749,0.50098 0.0405,0.021 0.0672,-0.0421 0.0268,-0.0629 -0.29144,-0.16095 -0.59579,-0.29579 -0.87413,-0.4826 -0.25275,-0.16964 -0.49702,-0.36052 -0.71334,-0.58272 -0.16121,-0.16556 -0.3605,-0.46312 -0.5411,-0.74045 0.15108,-0.008 0.3035,-0.0143 0.4581,-0.0143 0.0736,0 0.15549,0.006 0.24111,0.0139 -0.035,0.0763 -0.0315,0.17458 0.0462,0.2599 0.15653,0.11566 0.30678,0.24234 0.46964,0.34694 0.37494,0.24083 0.75758,0.46734 1.14241,0.68855 0.0874,0.0503 0.15301,0.0863 0.23405,0.1324 -0.078,-0.0505 -0.15597,-0.10105 -0.22402,-0.14917 -0.35356,-0.24997 -0.67408,-0.55472 -0.9861,-0.86427 -0.10583,-0.10498 -0.1901,-0.23238 -0.27723,-0.35714 0.3692,0.0622 0.78941,0.15498 1.22986,0.25009 0.86043,0.18578 1.87301,0.46577 3.05025,0.75352 0.32874,0.0959 0.65818,0.1891 0.97274,0.32855 0.51287,0.22734 0.98055,0.56356 1.48479,0.81321 0.57015,0.28226 1.1576,0.52083 1.73633,0.78129 0.53226,0.23316 0.83256,-0.5935 0.30027,-0.82667 -0.58293,-0.23298 -1.17432,-0.44216 -1.74897,-0.69878 -0.66667,-0.29773 -1.39904,-0.67483 -2.05968,-1.09719 0.50189,-0.0663 1.38999,-0.075 1.84534,-0.0985 0.38529,-0.0197 0.77004,-0.0496 1.15506,-0.0743 0.007,0 0.007,-0.011 0,-0.011 -0.38502,-0.005 -0.77004,-0.01 -1.15506,-0.0151 -0.35899,-0.005 -0.7184,0.006 -1.07691,-0.0151 -0.27133,-0.0162 -0.43288,-0.034 -0.5779,-0.058 -0.0588,-0.0785 -0.10009,-0.18144 -0.10644,-0.28891 0.31043,0.0491 0.62574,0.0676 0.9385,0.0948 0.68276,0.0593 0.89495,0.0801 1.13014,0.0592 -0.37637,-0.0236 -0.75319,-0.0373 -1.12903,-0.0695 -0.31419,-0.0268 -0.62714,-0.073 -0.94072,-0.10707 0,-0.0788 0.0159,-0.15824 0.0633,-0.23047 0.068,-0.10413 0.13174,-0.21873 0.19614,-0.34243 0.24294,-0.0642 0.27226,-0.0694 0.9716,-0.22189 0.15878,-0.0244 0.12713,-0.2708 -0.0316,-0.24642 -0.4961,0.0343 -0.62783,0.0415 -0.73496,0.0503 0.0153,-0.0319 0.0282,-0.0571 0.0439,-0.0903 0.32073,-0.67583 1.14655,-2.86472 2.38644,-3.01698 0.35451,-0.0436 0.6483,-1.3482 0.39928,-1.44044 -1.27408,-0.47172 -2.31997,-1.25754 -2.89476,-2.27571 -0.0797,-0.14128 -0.13276,-0.25436 -0.17041,-0.34979 -0.006,-0.0717 -0.0114,-0.14353 -0.006,-0.21494 0.014,-0.1695 0.0428,-0.33715 0.0748,-0.50385 0.106359,-0.089 0.249129,-0.19558 0.60208,-0.43561 0.24247,-0.16491 0.50004,-0.30069 0.750199,-0.45114 0.0274,-0.0157 0.007,-0.0581 -0.0201,-0.0425 -0.25033,0.15196 -0.49176,0.32285 -0.75094,0.45563 -0.17418,0.0892 -0.35367,0.16433 -0.53401,0.23783 0.1139,-0.55549 0.19428,-0.84327 0.49345,-1.39183 0.0852,-0.15618 0.20645,-0.28493 0.30958,-0.42743 0.11378,-0.17562 -0.11247,-0.35213 -0.22621,-0.17653 -0.0869,0.19903 -0.54412,1.244 -0.57457,1.32153 -0.0982,0.25004 -0.17913,0.50797 -0.26721,0.76252 -0.003,0.008 -0.006,0.0166 -0.009,0.0249 -0.0274,0.0115 -0.0553,0.0221 -0.0826,0.0339 -0.0265,0.0157 -0.0526,0.0322 -0.0789,0.0482 -0.0621,-0.0467 -0.13571,-0.0995 -0.23517,-0.16673 -0.45135,-0.30532 -0.9231,-0.96611 -1.42187,-1.51196 -0.0776,-0.0849 -0.13306,-0.16068 -0.17007,-0.23579 0.12623,-0.0409 0.35674,-0.11763 0.37102,-0.12095 0.0433,-0.01 0.11208,-0.0221 0.17082,-0.0335 -0.18709,0.0162 -0.37679,0.029 -0.58089,0.0396 -0.0259,-0.13029 0.0111,-0.27245 0.12017,-0.46463 0.39206,-0.20886 0.46757,-0.19072 1.3739,-0.52306 0.41585,-0.15247 0.82976,-0.31092 1.24473,-0.46625 0.25771,-0.0742 0.16243,-0.4742 -0.0953,-0.40005 -1.72458,0.43466 -0.86638,0.17916 -2.52,0.74821 -0.26455,0.091 -0.52953,0.1817 -0.79412,0.27256 -0.0943,0.0324 -0.19013,0.0595 -0.2858,0.0879 0.1029,-0.16812 0.17825,-0.30214 0.22066,-0.39638 0.1097,-0.15511 0.23241,-0.30579 0.41791,-0.47728 0.36603,-0.33843 0.74861,-0.65865 1.15396,-0.93783 0.42119,-0.29012 0.87926,-0.51021 1.31881,-0.76538 0.013,-0.007 0.004,-0.0273 -0.01,-0.02 -0.44762,0.24402 -0.90932,0.45854 -1.34263,0.73187 -0.26183,0.16515 -0.834471,0.57376 -1.30244,0.95376 0.118222,-0.2078 0.321182,-0.51059 0.774412,-1.10169 0.23514,-0.30663 0.52914,-0.55256 0.79372,-0.82871 0.26832,-0.42429 -0.0233,-0.8431 -0.35872,-0.86304 z m -0.12877,4.41043 c 0.30882,-0.0268 0.62497,-0.0642 1.05571,-0.12587 0.56639,-0.081 1.13086,-0.17741 1.69577,-0.27052 -0.60259,0.0773 -2.06605,0.26382 -2.75148,0.39639 z m 2.75148,-0.39639 c 0.0881,-0.0113 0.32512,-0.0425 0.36205,-0.0474 0.007,-0.002 0.006,-0.0129 -0.003,-0.0119 -0.12004,0.0192 -0.239869,0.0394 -0.35986,0.0592 z m 0.69363,11.56527 c 0.0212,0.002 0.0424,0.002 0.0637,0.004 0.24464,0.0161 0.48893,0.0362 0.73346,0.0543 0.11599,-0.01 0.10326,-0.19017 -0.0127,-0.18021 -0.41672,0.0678 -0.60701,0.10646 -0.78444,0.12218 z m -5.63097,1.47355 c 0.73959,0.47958 1.87783,1.05321 2.5844,1.42369 -0.0196,-0.0101 -0.007,-0.0404 0.0127,-0.0307 -1.05138,-0.54951 -1.62171,-0.83826 -2.59707,-1.39302 z m -3.42315,-0.26317 c 0.009,0.0157 0.0159,0.0321 0.0246,0.0478 0.18669,0.33508 0.39527,0.65435 0.60918,0.9697 -0.20577,-0.32109 -0.40817,-0.64477 -0.60656,-0.97133 -0.0111,-0.0183 -0.0164,-0.0285 -0.0271,-0.0462 z m 0.63373,1.01752 c 0.14674,0.22901 0.29443,0.45752 0.4473,0.6816 0.0859,0.12589 0.17428,0.24952 0.26382,0.37227 -0.0709,-0.11319 -0.14931,-0.23548 -0.25043,-0.38249 -0.15364,-0.22338 -0.30824,-0.44667 -0.46069,-0.67138 z m 0.71112,1.05387 c 0.4091,0.65352 0.38132,0.78805 0.6196,0.82544 -0.2082,-0.27373 -0.41669,-0.5472 -0.6196,-0.82544 z m 0.6196,0.82544 c 0.0914,0.12021 0.18362,0.23969 0.2735,0.36125 0.21423,0.13643 0.38989,-0.19663 0.17566,-0.33304 -0.22048,-0.0132 -0.35563,-0.0136 -0.44916,-0.0282 z m -3.03019,-15.25035 c 0.0183,-0.0324 0.0374,-0.0642 0.0554,-0.0968 0.0985,-0.17894 0.19389,-0.36003 0.2899,-0.54062 -0.13303,0.23485 -0.24683,0.43869 -0.34533,0.63747 z m 0.34533,-0.63747 c 0.0787,-0.13902 0.15827,-0.27899 0.26122,-0.46422 0.004,-0.007 -0.006,-0.0134 -0.009,-0.006 -0.084,0.15686 -0.16838,0.31358 -0.25191,0.47076 z m 4.66341,-2.76975 c -0.0519,-0.009 -0.10916,0.0131 -0.14623,0.0838 -0.0848,0.1437 -0.18135,0.27996 -0.25453,0.43112 -0.0858,0.17734 -0.15322,0.36492 -0.2214,0.55126 -0.16471,0.45008 -0.14343,0.41707 -0.22627,0.83688 0,0.32966 0.4246,0.32966 0.4246,0 0.004,-0.10123 0,-0.20336 0.0132,-0.30362 0.0367,-0.26706 0.15203,-0.73269 0.25603,-0.96234 0.0656,-0.14487 0.16722,-0.26638 0.2508,-0.39964 0.0618,-0.11779 -0.01,-0.22189 -0.0964,-0.23742 z"
       style="fill:#1f2123;fill-opacity:1;stroke:none;stroke-width:0.264583px;stroke-linecap:butt;stroke-linejoin:miter;stroke-opacity:1" />
  </g>
</svg>
