<?xml version="1.0" encoding="UTF-8" standalone="no"?>
<svg
   xmlns:dc="http://purl.org/dc/elements/1.1/"
   xmlns:cc="http://creativecommons.org/ns#"
   xmlns:rdf="http://www.w3.org/1999/02/22-rdf-syntax-ns#"
   xmlns:svg="http://www.w3.org/2000/svg"
   xmlns="http://www.w3.org/2000/svg"
   xmlns:sodipodi="http://sodipodi.sourceforge.net/DTD/sodipodi-0.dtd"
   xmlns:inkscape="http://www.inkscape.org/namespaces/inkscape"
   inkscape:export-ydpi="96"
   inkscape:export-xdpi="96"
   inkscape:export-filename="D:\Calcatz\Icon Pack\Adventure Narative Inspired by Arrival\GUI\Choices\png\choices - text_background.png"
   width="45.370281mm"
   height="20.101791mm"
   viewBox="0 0 45.370281 20.101791"
   version="1.1"
   id="svg6171"
   inkscape:version="1.0 (4035a4fb49, 2020-05-01)"
   sodipodi:docname="choices - text_background.svg">
  <defs
     id="defs6165" />
  <sodipodi:namedview
     id="base"
     pagecolor="#ffffff"
     bordercolor="#666666"
     borderopacity="1.0"
     inkscape:pageopacity="0.0"
     inkscape:pageshadow="2"
     inkscape:zoom="3.6400906"
     inkscape:cx="86.387187"
     inkscape:cy="35.183088"
     inkscape:document-units="mm"
     inkscape:current-layer="layer1"
     inkscape:document-rotation="0"
     showgrid="false"
     fit-margin-top="0"
     fit-margin-left="0"
     fit-margin-right="0"
     fit-margin-bottom="0"
     inkscape:window-width="1366"
     inkscape:window-height="705"
     inkscape:window-x="-8"
     inkscape:window-y="-8"
     inkscape:window-maximized="1" />
  <metadata
     id="metadata6168">
    <rdf:RDF>
      <cc:Work
         rdf:about="">
        <dc:format>image/svg+xml</dc:format>
        <dc:type
           rdf:resource="http://purl.org/dc/dcmitype/StillImage" />
        <dc:title />
      </cc:Work>
    </rdf:RDF>
  </metadata>
  <g
     inkscape:label="Layer 1"
     inkscape:groupmode="layer"
     id="layer1"
     transform="translate(-87.698038,-77.467197)">
    <path
       style="fill:#1f2123;fill-opacity:1;stroke:none;stroke-width:0.264583px;stroke-linecap:butt;stroke-linejoin:miter;stroke-opacity:1"
       d="m 95.997666,77.467197 c -0.0853,0.002 -0.17502,0.0397 -0.25413,0.13017 -0.43514,0.43908 -0.92943,0.8214 -1.30519,1.31727 -0.37209,0.49099 -0.61032,1.07906 -0.91821,1.61685 -0.47223,0.82491 -0.60484,0.99327 -0.68959,1.17351 -0.0324,0.0542 -0.0654,0.10739 -0.0988,0.1632 -0.0175,-0.14263 -0.0442,-0.28457 -0.0473,-0.42821 -0.006,-0.25696 0.0473,-0.56134 0.0847,-0.81756 0.0156,-0.2846 -0.3674,-0.30754 -0.38288,-0.0229 0.0586,0.54525 0.0368,0.23425 0.0477,0.84049 0.003,0.15982 0.0177,0.31986 0.0101,0.4795 -0.007,0.13943 -0.0392,0.27617 -0.0533,0.415 -0.004,0.0353 -0.005,0.071 -0.007,0.10647 -1.02788,1.666435 -2.47491,3.696885 -4.53298,4.242835 -0.16409,0.0435 -0.21632,1.35166 -0.0548,1.39188 0.83061,0.20673 1.58202,0.79035 2.33214,1.47309 0.004,0.0142 0.009,0.0284 0.0164,0.0432 0.42775,0.76561 -0.30472,-0.51677 0.36697,0.52224 0.10491,0.16225 0.18122,0.34316 0.28078,0.50904 0.93797,1.56225 -0.45638,-0.97435 1.21602,1.91217 0.28578,0.49328 0.53639,1.00832 0.80463,1.51234 0.005,0.01 0.0185,0.002 0.0132,-0.008 -0.26514,-0.50601 -0.5366,-1.00817 -0.79539,-1.51779 -0.0111,-0.0217 -0.48826,-0.99238 -0.78687,-1.61181 0.0257,0.0249 0.0644,0.0615 0.0844,0.0812 0.0527,0.0173 0.33613,0.21548 1.27593,0.96056 0.19222,0.15236 0.37943,0.31098 0.56565,0.47133 -0.18301,-0.16428 -0.36632,-0.32834 -0.54602,-0.49659 -0.27165,-0.25428 -0.65921,-0.60429 -0.97962,-0.96872 0.86138,0.76473 1.78313,1.43176 2.87115,1.63201 v -5.2e-4 c 0.25802,0.0171 1.31345,-0.0538 2.21448,0.32213 0,0.002 0.003,0.005 0.003,0.007 0.0404,0.20556 0.0463,0.41715 0.0566,0.62677 0.0143,0.29295 0.0132,0.61042 -0.0499,0.90033 -0.0214,0.0982 -0.0621,0.19065 -0.0932,0.28599 -1.1e-4,0.0677 0,0.13548 0,0.20323 -0.0376,0.31337 0.38417,0.36893 0.42172,0.0556 -0.0132,-0.066 -0.0265,-0.13212 -0.0396,-0.19817 0.0132,-0.10383 0.088,-0.67177 0.0858,-0.73207 -0.009,-0.23743 -0.12311,-0.76307 -0.17756,-1.05304 0.14867,0.0765 0.2907,0.16664 0.42135,0.27433 0.1909,0.26685 0.30464,0.5936 0.50276,0.85604 0.0127,0.0167 0.0271,0.0317 0.0399,0.0482 0.0401,0.16942 0.0706,0.34179 0.0818,0.52844 0.008,0.13939 -0.019,0.27961 -0.009,0.4189 0.0825,1.17735 0.0692,-0.38398 0.0636,0.74178 0,0.25321 0.34073,0.25374 0.34107,0 -0.055,-0.51563 -0.0335,-0.25505 -0.0644,-0.78141 -0.0143,-0.141 -0.0495,-0.27947 -0.0599,-0.42084 -0.003,-0.0275 0,-0.0552 0,-0.0828 0.17791,0.18893 0.35984,0.37403 0.52607,0.57394 2.450394,2.94667 -1.0787,-1.06067 1.883024,2.25255 0.26826,0.37827 0.77769,-0.02 0.50943,-0.39827 -0.60386,-0.94134 -0.87019,-1.3697 -0.98444,-1.55781 0.17838,0.3078 0.50229,0.94698 -0.871224,-0.73207 -0.19293,-0.23582 -0.33226,-0.4154 -0.43762,-0.55916 0.32972,0.18823 0.66715,0.36263 1.0055,0.53391 -0.42389,-0.27923 -0.82402,-0.593 -1.20344,-0.94114 -0.0325,-0.0298 -0.0614,-0.0635 -0.0921,-0.0952 -0.0238,-0.10938 0.0156,-0.15738 -0.0548,-0.33106 0.0425,0.0197 0.0848,0.0394 0.12724,0.0591 0.10091,0.0467 0.12909,0.0597 0.19867,0.0921 0.0212,0.025 0.0408,0.0517 0.0636,0.075 0.0912,0.0926 0.19735,0.16814 0.28853,0.26073 0.28921,0.29361 0.0544,0.13967 0.28858,0.27551 0.196,0.12687 0.37115,-0.0514 0.34848,-0.2246 0.172644,0.0588 0.368414,0.12558 0.709564,0.24752 0.0834,0.0299 0.16671,0.0602 0.25006,0.0901 -0.0816,-0.0333 -0.16378,-0.0653 -0.24413,-0.1018 -0.48813,-0.22204 -0.949674,-0.4847 -1.385104,-0.79152 -0.004,-0.0293 -0.0834,-0.12906 -0.36735,-0.40373 -0.0114,-0.011 -0.0251,-0.0192 -0.037,-0.0295 0.2163,0.0164 0.48707,0.035 0.66516,0.0497 0.4168,0.0344 1.077414,0.25069 1.157214,0.27083 0.009,0.003 0.0177,0.008 0.027,0.0101 0.53133,0.16034 1.49979,0.18624 1.93553,0.23237 -0.26604,-0.0541 -0.85619,-0.18672 -1.33141,-0.36449 0.28154,-0.0209 0.55965,-0.0684 0.83754,-0.11812 0.10242,0.0821 0.30615,0.23916 0.65627,0.50165 -0.0303,-0.004 -0.0606,-0.009 -0.091,-0.0128 -0.0177,-0.002 -0.0513,-0.004 -0.0714,-0.006 0.019,0.004 0.055,0.0122 0.0703,0.0152 0.0377,0.008 0.0758,0.0128 0.11359,0.0198 0.0101,0.008 0.008,0.006 0.0183,0.014 0.3079,0.23041 0.61458,0.46381 0.93819,0.66913 0.32628,0.207 0.6726,0.37715 1.00883,0.56577 0.13168,0.0782 0.23675,-0.11728 0.10506,-0.19547 -0.19637,-0.13083 -0.90577,-0.59904 -1.40282,-0.94306 0.44538,0.0656 0.89231,0.12077 1.33808,0.18301 0.0214,0.003 0.0427,0.005 0.064,0.009 -0.0212,-0.003 -0.0427,-0.006 -0.064,-0.009 -0.46358,-0.0685 -0.92628,-0.14609 -1.38949,-0.21721 -0.18605,-0.12939 -0.3407,-0.24035 -0.41066,-0.2996 -0.0604,-0.0511 -0.2096,-0.20451 -0.37623,-0.37885 0.51802,-0.0835 1.03957,-0.13049 1.58226,0.01 0.0704,0.0182 0.14602,0.0354 0.21862,0.0532 0.013,0.008 0.0265,0.0157 0.0418,0.0222 0.22497,0.16865 0.42098,0.30971 0.63259,0.51718 0.12385,0.12139 0.24659,0.25022 0.36811,0.38236 -0.201,-0.0266 -0.40216,-0.0518 -0.60301,-0.0797 0.20349,0.03 0.4072,0.0584 0.61079,0.0878 0.37259,0.4059 0.7261,0.84401 1.06543,1.26249 -0.15952,-0.21542 -0.34412,-0.47848 -0.73065,-1.03593 -0.0399,-0.0575 -0.0871,-0.13297 -0.12909,-0.19663 0.37944,0.0545 0.75885,0.10917 1.13832,0.1636 0.0583,0.0483 0.11665,0.0963 0.17314,0.14685 0.28332,0.2537 0.54705,0.53162 0.83683,0.77717 0.32596,0.27627 0.67251,0.5246 1.00882,0.78687 0.0183,0.0149 0.0387,-0.0126 0.0204,-0.0276 -0.3356,-0.2619 -0.69744,-0.49038 -1.00698,-0.78567 -0.27292,-0.26034 -0.49046,-0.57844 -0.73099,-0.87195 -0.0644,-0.0786 -0.12695,-0.15907 -0.18905,-0.23976 5.13946,1.63642 -4.21986,-1.6295 3.18225,0.99709 -0.65727,-0.28556 -1.31228,-0.57729 -1.97217,-0.85603 -0.51218,-0.21638 -1.04117,-0.38998 -1.54451,-0.62756 1.15541,0.17739 2.40014,0.30363 3.59918,0.35828 0.0829,0.0484 0.16574,0.0967 0.25083,0.14065 0.23492,0.12137 0.47611,0.22928 0.71511,0.34156 0.60402,0.28378 1.00047,0.47088 1.62481,0.71187 0.29064,0.11218 0.58589,0.21013 0.87897,0.31514 0.20508,0.0776 0.41013,0.15516 0.61524,0.23276 0.15949,0.0317 0.2024,-0.20528 0.0429,-0.23703 -0.21191,-0.0221 -0.42403,-0.0439 -0.63593,-0.066 -0.20114,-0.0808 -1.48323,-0.59218 -1.68992,-0.69128 -0.25972,-0.12455 -0.50985,-0.27102 -0.75949,-0.41657 -0.14226,-0.0829 -0.3239,-0.19661 -0.50273,-0.31086 0.9638,0.0265 1.88238,0.004 2.67726,-0.0804 0.49501,-0.0526 1.01831,0.0215 1.84087,0.41771 0.21696,0.13952 0.45704,0.29826 0.7739,0.51331 0.8077,0.54812 1.55517,1.19093 2.37027,1.72682 0.62916,0.41368 1.30419,0.74499 1.95625,1.11756 0.18066,0.10795 0.32605,-0.16019 0.14539,-0.26814 -1.60869,-0.84619 -2.3164,-1.12689 -3.51816,-2.12861 0.0963,0.0396 0.19431,0.076 0.28855,0.1197 0.17153,0.10341 0.34304,0.20667 0.51459,0.31008 0.14512,0.0744 0.24538,-0.14086 0.10025,-0.21529 -0.17018,-0.0963 -0.34033,-0.19279 -0.51051,-0.2891 -0.39481,-0.26976 -0.58433,-0.3797 -0.94263,-0.70097 -0.14592,-0.13083 -0.28213,-0.27321 -0.41842,-0.41501 -0.0329,-0.0342 -0.0641,-0.0702 -0.0958,-0.10569 0.0934,0.0266 0.18629,0.0548 0.2771,0.0898 0.22439,0.0864 0.42973,0.22227 0.65405,0.30892 0.18335,0.0708 0.37682,0.10798 0.56528,0.16202 0.42423,0.13546 0.60658,-0.4948 0.18238,-0.63026 -0.1737,-0.0715 -0.34632,-0.14535 -0.52089,-0.2145 -0.19553,-0.0775 -0.39462,-0.14584 -0.58933,-0.22537 0.0468,-0.0131 0.0936,-0.0253 0.14131,-0.0342 0.77936,-0.14394 2.192,-0.288 3.00064,-0.26967 0.19402,0.005 0.38164,0.0759 0.57232,0.11385 0.0726,0.002 0.1138,-0.0433 0.12653,-0.0956 0.33919,-0.003 0.71466,-0.005 0.81756,0.004 0.32406,0.03 0.64249,0.10679 0.96446,0.15582 0.46553,0.0708 2.08772,0.29811 2.47602,0.35283 0.0662,0.0117 0.0821,-0.0867 0.0159,-0.0983 -1.83396,-0.40007 -0.7965,-0.16395 -2.44163,-0.55722 -0.29739,-0.0711 -0.59534,-0.13868 -0.89231,-0.21178 0.12163,-0.0648 0.25591,-0.14517 0.41175,-0.24441 0.2423,-0.15428 0.9453,-0.4965 1.70434,-0.6291 0.18584,0.0207 0.37004,0.0577 0.55565,0.0816 1.90436,0.24509 -0.42363,-0.0819 1.68547,0.25724 0.25998,0.0418 0.52179,0.072 0.78243,0.1088 0.1942,0.0274 0.3882,0.0556 0.58229,0.0836 0.081,0.0487 0.16174,0.0975 0.24271,0.1461 0.24093,0.0287 0.27979,-0.32927 0.0389,-0.35788 -0.087,0.002 -0.1741,0.003 -0.26117,0.005 -1.09231,-0.0534 -0.0524,0.0244 -1.35845,-0.17641 -0.64167,-0.0987 -1.05865,-0.0991 -1.68325,-0.23975 -0.0981,-0.0221 -0.19455,-0.0514 -0.29078,-0.0816 0.27048,0.009 0.57822,0.0569 1.74133,0.15659 0.71771,0.0615 1.4402,0.0802 2.15273,0.18963 1.11392,0.17106 2.18845,0.57203 3.3021,0.7449 0.61153,0.0949 1.23016,0.12793 1.84531,0.19195 0.48088,0.0558 0.556,-0.65843 0.0751,-0.7142 -0.59872,-0.0681 -1.1974,-0.13628 -1.79607,-0.20439 -0.5158,-0.0739 -1.03047,-0.1579 -1.54749,-0.22149 -0.60474,-0.0744 -1.21804,-0.0785 -1.81716,-0.19234 -0.60275,-0.11456 -1.18735,-0.31677 -1.78205,-0.47134 0.35184,-0.11697 0.71096,-0.23415 0.84053,-0.26501 0.32803,-0.0781 0.66437,-0.10941 0.99549,-0.17136 0.33716,-0.0631 0.67001,-0.15222 1.00886,-0.20401 -0.33922,0.0557 -0.68368,0.0697 -1.02365,0.12007 -0.33358,0.0494 -0.66304,0.12703 -0.99623,0.17953 -0.53711,0.0847 -0.85011,0.11377 -1.30001,0.15698 0.0843,-0.0315 0.14526,-0.0535 0.25713,-0.0964 0.31247,-0.11955 0.60335,-0.29882 0.92117,-0.40178 0.34353,-0.11129 1.573,-0.33977 1.97069,-0.41694 0.0259,-0.005 0.019,-0.0435 -0.006,-0.0385 -0.30298,0.0607 -0.6074,0.11383 -0.90895,0.18185 -0.16865,0.038 -1.80954,0.45171 -2.02324,0.49854 -0.0595,0.013 -0.11959,0.0229 -0.17942,0.0342 2.25576,-0.64166 4.58378,-2.67551 6.64089,-2.95627 0.25286,-0.0346 0.19388,-1.12083 -0.0292,-1.17233 -3.05591,-0.70512 -7.81101,-1.87604 -7.81101,-1.87604 0.24472,-0.0109 0.47771,-0.0185 0.73581,-0.0245 -0.11343,-8e-4 -0.22664,-0.003 -0.33996,-0.009 -0.14267,-0.008 -0.28477,-0.0226 -0.42656,-0.0405 -0.0336,-0.0847 -0.10192,-0.24542 -0.18646,-0.32213 -0.10456,-0.0949 -0.21357,-0.18218 -0.32483,-0.26617 0.64461,-0.16377 1.39439,-0.37311 1.9626,-0.33185 0.16481,0.012 0.31229,0.10227 0.46094,0.18651 -0.0886,0.009 -0.18902,0.0209 -0.25821,0.0256 -0.26675,0.0183 -0.53441,0.004 -0.80172,0.008 -0.14443,0.002 -0.28879,0.008 -0.43317,0.0124 -0.29395,0 -0.29395,0.43676 0,0.43676 0.54348,-0.17002 0.61899,-0.20633 1.25301,-0.3334 0.13118,-0.0263 0.26313,-0.0475 0.3951,-0.0692 0.008,0.004 0.0156,0.009 0.0238,0.012 0.0878,0.003 0.1601,-0.0186 0.21902,-0.0536 0.11478,-0.0186 0.22971,-0.037 0.34404,-0.0583 0.3515,-0.0655 0.70143,-0.13984 1.05214,-0.20983 0.008,-0.002 0.006,-0.0125 -0.003,-0.0113 -0.29562,0.0423 -0.81338,0.11902 -1.28775,0.18107 0.15425,-0.21957 0.0593,-0.60116 -0.30297,-0.61278 -1.95718,0.2049 1.04277,-0.12823 -1.91781,0.3027 -0.21696,0.0316 -0.43461,0.0579 -0.65223,0.082 -0.41391,0.009 -0.74923,-0.0702 -1.03102,-0.16709 0.17915,-0.0644 0.36126,-0.12102 0.5416,-0.18146 0.70834,-0.23744 0.98483,-0.33025 1.2478,-0.39557 -0.006,0.002 -0.0114,0.003 -0.0175,0.004 -0.42389,0.0873 -0.8522,0.15056 -1.27445,0.24635 -0.16317,0.037 -0.27625,0.0653 -0.38547,0.0933 1.23394,-0.523704 2.32429,-0.719764 3.7283,-1.105114 2.82834,-0.77626 1.27693,-0.58671 3.84484,-0.66485 0.20572,0.0729 0.41138,0.14616 0.61706,0.21915 0.80635,0.0753 0.90771,-1.12263 0.10139,-1.19797 -0.27606,0.0331 -0.55226,0.0664 -0.82833,0.0995 -6.92684,2.02526 4.56324,-1.29741 -3.87331,0.99242 -0.55666,0.15109 -1.10654,0.32754 -1.6559,0.50632 0.0271,-0.0226 0.0306,-0.0274 0.0625,-0.0536 0.19267,-0.15864 0.39341,-0.30602 0.58635,-0.46434 0.23931,-0.19641 0.459,-0.4203 0.70993,-0.59996 0.19626,-0.1405 0.41756,-0.23773 0.62632,-0.35671 0.1116,-0.0836 5e-5,-0.24948 -0.11248,-0.16592 -0.82933,0.75669 -0.25283,0.29006 -1.32328,0.97843 -0.20566,0.13225 -0.43543,0.29572 -0.66702,0.44414 -0.004,-0.0326 -0.029,-0.0624 -0.0725,-0.054 -0.13764,0.033 -0.40656,0.0992 -0.66517,0.16126 0.20688,-0.0223 0.41633,-0.0228 0.62447,-0.0353 -0.10773,0.0658 -0.21523,0.1275 -0.32001,0.17719 -0.1162,0.0551 -0.24315,0.0802 -0.36478,0.12046 -0.0979,0.0386 -0.1402,0.11569 -0.14428,0.1935 -0.37039,0.12135 -0.91419,0.3009 -1.5508,0.521474 -0.32906,0.0771 -0.61415,0.0645 -0.85236,0.0253 0.57825,-0.307005 1.16523,-0.600585 1.78351,-0.803185 -0.18286,0.0447 -0.44088,0.1054 -0.52753,0.12784 -0.32163,0.0833 -0.63886,0.18563 -0.96112,0.26617 -0.19535,0.0488 -0.39378,0.0813 -0.59082,0.12201 -0.003,2e-4 -0.003,7.94e-4 -0.003,0.002 -0.26329,0.0386 -0.59473,0.0924 -0.78131,0.0563 -0.17174,-0.0332 -0.34349,-0.0643 -0.51496,-0.0948 0.10366,-0.0978 0.21016,-0.191549 0.32999,-0.26499 1.04981,-0.643519 2.42869,-1.18882 3.53335,-1.66815 0.0156,-0.007 0.006,-0.0302 -0.009,-0.0233 -1.2968,0.57766 -2.59532,1.15042 -3.89548,1.71978 -0.27782,0.102941 -0.61373,0.12238 -0.81537,0.0867 -0.5778,-0.10238 -1.13779,-0.21092 -1.65476,-0.35905 -0.48382,2.01e-4 -0.96771,-0.007 -1.45166,-0.0129 0.003,-5.29e-4 0,-2e-4 0.003,-7.93e-4 0.23326,-0.12034 0.45908,-0.2587 0.7003,-0.3602 0.68575,-0.28854 1.32247,-0.47218 2.03026,-0.62367 -0.38304,0.0666 -0.75237,0.13372 -0.98222,0.18614 -0.36753,0.0838 -0.72413,0.21571 -1.09132,0.30114 -0.25453,0.0592 -0.51441,0.0883 -0.77171,0.13251 -0.10163,0.0282 -0.20275,0.0584 -0.30483,0.0847 -0.0636,0.0163 -0.12832,0.0287 -0.19238,0.0432 -0.006,0.003 -0.0111,0.008 -0.0169,0.0109 -0.16552,0.0318 -0.30705,0.14154 -0.46725,0.19157 0.20978,-0.212 0.59949,-0.58763 0.69807,-0.67224 0.62283,-0.5345 0.77605,-0.59215 1.51937,-1.07285 0.2381,-0.0729 0.47623,-0.14588 0.71435,-0.21877 0.22691,-0.10079 0.0911,-0.43807 -0.13576,-0.33728 -0.22214,0.13052 -0.4445,0.26115 -0.66664,0.39168 -0.32848,0.16071 -0.66845,0.29798 -0.98555,0.48223 -0.22907,0.13313 -0.42489,0.32168 -0.64738,0.46667 -0.1619,0.10551 -0.33864,0.1849 -0.50313,0.2856 0.062,-0.11721 0.13057,-0.23362 0.20791,-0.3501 0.24339,-0.36652 0.54141,-0.69133 0.84457,-1.00486 0.19561,-0.20227 0.43064,-0.35776 0.64593,-0.53662 0.0444,-0.0365 -0.005,-0.10249 -0.0492,-0.0661 -0.20733,0.19324 -0.42778,0.37184 -0.62188,0.57976 -0.4762,0.5102 -0.90069,1.06591 -1.33548,1.61258 -0.0561,0.0494 -0.11174,0.0995 -0.17092,0.14455 -0.0135,0.0104 -0.0119,0.008 -0.0244,0.0175 -0.007,-0.25272 0.0161,-0.42694 0.12653,-1.03555 0.0488,-0.26906 0.0771,-0.54844 0.18349,-0.79852 0.0521,-0.12249 0.18378,-0.18648 0.27561,-0.27978 0.26546,-0.61331 -0.56025,-1.00772 -0.82571,-0.3944 -0.21685,0.66778 -0.17089,0.47062 -0.34147,1.37866 -0.0204,0.10955 -0.0291,0.15352 -0.0451,0.2382 -0.0922,-0.578 -0.0967,-1.15401 -0.12764,-1.76451 -0.28964,3.17926 -0.0135,-0.12059 -0.14539,2.08314 -0.003,0.0183 -0.004,0.0366 -0.005,0.0548 -0.078,-0.10841 -0.15074,-0.20435 -0.20866,-0.26539 -0.4541,-0.47868 -0.99716,-0.8544 -1.49568,-1.28152 -0.28324,-0.30595 -0.69536,0.11486 -0.41212,0.42082 0.38198,0.4627 0.80103,0.89433 1.1461,1.38799 0.0494,0.0707 0.0954,0.14361 0.13983,0.2176 0.10512,0.30662 -0.43188,0.44477 -0.91229,0.48456 -0.76768,0.0635 -1.59744,0.14045 -2.42128,0.20944 0.0722,-0.20309 0.16254,-0.42744 0.25895,-0.64504 0.32311,-0.085 0.64617,-0.16993 0.96928,-0.2549 -0.0222,0.006 -0.0304,-0.027 -0.008,-0.033 -0.15775,0.0468 -0.57206,0.16851 -0.95928,0.28366 0.0895,-0.20161 0.17942,-0.39143 0.2512,-0.520301 0.18098,-0.324879 0.40402,-0.622009 0.60595,-0.932969 0.10541,-0.14529 -0.0903,-0.30189 -0.19569,-0.1566 -0.21148,0.31343 -0.41261,0.63495 -0.63444,0.94036 -0.20564,0.28307 -0.4513,0.53336 -0.64741,0.82377 -0.004,0.005 -0.006,0.0111 -0.009,0.0163 -1.10654,0.29605 -0.79092,0.21802 -1.69949,0.44414 -0.33991,0.0286 -0.85231,0.21291 -1.15055,0.21488 -0.30543,0.002 -0.64717,-0.0827 -0.37552,-0.46434 0.0434,-0.0326 0.0729,-0.0549 0.13134,-0.0987 0.50739,-0.37998 0.68411,-0.56496 1.29334,-0.689721 0.0865,-0.0177 0.17436,0.0278 0.26156,0.0416 0.28073,-0.10557 0.1383,-0.52292 -0.14245,-0.41734 -0.38833,0.34226 -0.10443,0.12415 -0.82719,0.48689 -0.23794,0.11942 -0.47736,0.23575 -0.71139,0.36332 -0.17351,0.0946 -0.36419,0.21005 -0.55308,0.32679 0.009,-0.008 0.0196,-0.0152 0.0288,-0.0233 0.19478,-0.17084 0.37361,-0.36516 0.58674,-0.50982 0.38806,-0.26339 0.46537,-0.25157 0.82129,-0.31241 0.51879,-0.14634 0.32197,-0.91689 -0.19682,-0.77054 -0.67271,0.14187 -0.41778,0.0252 -0.66739,0.32484 0.21672,-0.44601 0.47861,-0.86422 0.79687,-1.24266 0.15507,-0.1844 0.31838,-0.36348 0.4998,-0.51914 0.14274,-0.12247 0.31149,-0.20695 0.46725,-0.31046 0.12846,-0.0849 0.014,-0.27566 -0.11432,-0.19079 -0.3715,0.28165 -0.70887,0.51181 -1.0251,0.87312 -0.17135,0.19575 -0.30253,0.42643 -0.45728,0.63688 -0.49779,0.67696 -0.4249,0.563 -0.58193,0.80668 0.0148,-0.0474 0.0284,-0.0953 0.0444,-0.14222 0.11433,-0.33639 0.30485,-0.63937 0.43468,-0.9695 0.35571,-0.90429 0.009,-0.4023 0.38958,-0.88828 0.386,-0.87991 -0.7986,-1.45345 -1.18457,-0.57353 -0.0684,0.90938 0.0513,-0.2785 -0.26898,1.11521 -0.0613,0.2666 -0.076,0.5438 -0.11985,0.81406 -0.13163,-0.31229 -0.063,-0.21608 -0.31224,-1.35418 -0.006,-0.0622 -0.0894,-0.0536 -0.0836,0.009 0.0586,1.55648 -0.0153,0.92612 0.12872,1.89974 0.0217,0.038 0.0471,0.0668 0.0747,0.0878 -0.085,0.198971 -0.17775,0.39527 -0.25231,0.5984 -0.31758,0.60782 -1.02682,0.662831 -1.5571,0.55528 -0.27384,-0.0556 -0.54811,-0.0959 -0.82312,-0.11424 0,-0.002 0.003,-0.003 0.003,-0.005 0.0858,-0.0656 0.17857,-0.1354 0.26673,-0.19894 0.0686,0.0225 0.14991,0.005 0.21087,-0.0808 0.0432,-0.0606 0.0598,-0.0842 0.088,-0.12435 0.0366,-0.024 0.0689,-0.0467 0.10803,-0.0715 0.25924,-0.16417 0.5111,-0.34967 0.79388,-0.46318 0.22453,-0.0901 0.47263,-0.0932 0.70885,-0.13989 0.13478,-0.0454 0.0734,-0.2455 -0.0614,-0.20011 -1.90537,0.91649 0.6319,-0.28792 -1.30517,0.56654 0.0527,-0.0554 0.0979,-0.0992 0.29001,-0.30076 0.12423,-0.11709 -0.0334,-0.30168 -0.15758,-0.18457 -0.59762,0.4497 -0.35081,0.21283 -0.76578,0.6804 -0.0254,0.0356 -0.0359,0.0713 -0.0403,0.10569 -0.006,0.003 -0.0188,0.008 -0.0249,0.0113 0.0349,-0.12071 0.0733,-0.23994 0.12909,-0.35128 0.13282,-0.26489 0.35192,-0.47091 0.5279,-0.70642 0.22198,-0.37998 -0.28967,-0.70948 -0.5116,-0.3295 -0.12817,0.26403 -0.22456,0.54765 -0.38436,0.79191 -0.10047,0.15352 -0.22138,0.29022 -0.34333,0.42625 -0.41031,0.38395 -1.205764,0.67786 -1.605544,0.71692 -0.48107,0.047 -0.42262,0.0425 -0.79243,0.0793 0.0257,-0.041 0.0508,-0.0829 0.0781,-0.12279 0.2681,-0.3918 0.56464,-0.76127 0.83201,-1.15368 0.44529,-0.65361 0.38687,-0.58752 0.728764,-1.25703 0.0787,-0.14118 -0.11139,-0.25854 -0.19015,-0.11735 -0.401884,0.97206 -0.073,0.31334 -0.711024,1.2446 -0.13914,0.20308 -0.25291,0.4253 -0.39954,0.62249 -0.13222,0.17785 -0.28583,0.337 -0.43469,0.49972 -0.15369,0.16799 -0.23222,0.24911 -0.31112,0.32445 -5.05021,0.50672 1.808164,-0.12105 -2.96955,-0.43909 -0.0146,-0.003 -0.0281,-0.004 -0.0425,-0.007 0.11155,-0.0344 0.22792,-0.0708 0.40101,-0.12901 0.29514,-0.0992 0.56327,-0.28013 0.86272,-0.36408 0.28914,-0.0811 0.59503,-0.0723 0.88972,-0.12708 0.26448,-0.0492 0.52438,-0.12302 0.7865,-0.18457 0.10919,-0.0274 0.0722,-0.18979 -0.037,-0.16243 -1.29755,0.410215 -0.24159,0.100696 -1.64807,0.439876 -0.67601,0.16301 -1.34691,0.36979 -2.03618,0.46279 0,-7.94e-4 0.003,-0.002 0.003,-0.003 0.25665,-0.31598 0.66895,-0.67251 1.00997,-0.86847 0.21431,-0.12315 0.4514,-0.1969 0.67699,-0.29532 0.3398,-0.13077 0.16372,-0.6355 -0.17608,-0.50476 -0.28128,0.0744 -0.57852,0.1001 -0.84387,0.22304 -0.0962,0.0446 -0.18584,0.10206 -0.27339,0.1636 0.0299,-0.0463 0.0606,-0.0922 0.0873,-0.14067 0.093,-0.16859 0.14499,-0.36221 0.25341,-0.52029 0.12861,-0.187565 0.30099,-0.337135 0.45093,-0.506335 0.11443,-0.12916 0.22812,-0.25906 0.34221,-0.38857 0.11494,-0.1122 -0.0359,-0.28317 -0.15094,-0.17098 -0.49136,0.55536 -0.26959,0.29505 -0.80315,0.94656 -0.0703,0.0858 -0.18706,0.22674 -0.30188,0.36916 0.11684,-0.22438 0.23545,-0.42636 0.34959,-0.58753 0.33957,-0.47947 0.80171,-0.84789 1.20269,-1.2718 0.23744,-0.27141 0.0228,-0.60383 -0.23305,-0.60035 z m 22.395394,3.54729 c 0.34687,-0.0602 0.65109,-0.11052 0.94224,-0.15853 -0.2262,0.0282 -0.45255,0.0568 -0.67625,0.10103 -0.0915,0.018 -0.17719,0.0385 -0.26599,0.0575 z m 0.94224,-0.15853 c 0.11292,-0.0141 0.2259,-0.0278 0.3385,-0.0439 0.008,-0.002 0.007,-0.0134 -0.003,-0.0124 -0.0825,0.0137 -0.2313,0.039 -0.33629,0.0563 z m 3.66728,1.18632 c 0.28567,-0.0697 0.50379,-0.12244 0.82423,-0.19934 -0.0682,0.008 -0.1365,0.0162 -0.20384,0.0303 -0.21089,0.0442 -0.41701,0.10237 -0.62039,0.16904 z m 1.4228,0.718465 c 0.0694,-0.0144 0.13853,-0.0304 0.20791,-0.0451 -0.0648,0.0135 -0.14674,0.0299 -0.20791,0.0451 z m 0.20791,-0.045 c 0.26101,-0.0543 0.57382,-0.104755 1.32072,-0.247905 0.0246,-0.005 0.018,-0.0412 -0.006,-0.0366 -0.43802,0.0949 -0.87561,0.1917 -1.31405,0.284435 z m 0.25638,1.85972 c 0.39261,0.004 0.78589,-0.0157 1.17864,-0.0175 0.53154,-0.002 1.06296,5.3e-4 1.59446,-0.002 0.0382,-2e-4 0.0572,-5.2e-4 0.094,-7.9e-4 -0.13523,-0.003 -0.55562,-0.003 -1.68841,0.003 -0.23037,0.002 -0.70332,0.007 -1.17867,0.0179 z m 2.86708,-0.0206 c 0.35626,0.008 -1.43286,0.0369 1.37395,0.0567 0.3392,0.002 0.67826,-0.0172 1.01735,-0.0256 0.0427,0 0.0427,-0.0633 0,-0.0633 -0.93123,0.0161 -1.43796,0.0265 -2.3913,0.0323 z m 0.88563,5.83212 c 0.40386,-0.0616 1.37414,-0.12625 1.79907,-0.15776 0.2001,0.0138 0.39994,0.0276 0.60002,0.0412 0.20539,-0.0167 0.18282,-0.32183 -0.0225,-0.30503 -0.19513,0.0594 -0.3901,0.11856 -0.58526,0.17796 -1.67587,0.0839 -0.0298,-0.0452 -1.79126,0.24364 z m -18.58197,4.46162 c 0.008,0.004 0.0164,0.007 0.0243,0.0105 -0.003,-0.002 0,-0.002 0,-0.002 -0.0161,-0.006 -0.008,-0.003 -0.0243,-0.009 z m -3.57294,0.28599 c 0.17243,0.23285 0.34862,0.4479 0.62447,0.77248 -0.13785,-0.17247 -0.27519,-0.34545 -0.41473,-0.51641 -0.0667,-0.0818 -0.14121,-0.17158 -0.20974,-0.25607 z m 0.62447,0.77248 c 0.12309,0.15403 0.24689,0.3075 0.37031,0.46125 0.007,0.009 0.0185,-0.002 0.0114,-0.0105 -0.17111,-0.20328 -0.27085,-0.32019 -0.38179,-0.45074 z m -6.30536,-1.69613 c 0.43585,0.17777 0.88593,0.31769 1.32702,0.48145 -0.003,0 -0.003,-0.002 0,-0.002 -0.44228,-0.15971 -0.88456,-0.32042 -1.32702,-0.47951 z m -0.924484,0.49195 c 0.193434,0.12742 0.390474,0.24988 0.595264,0.36137 0.41309,0.22492 0.81219,0.40759 1.21525,0.57741 -0.4028,-0.19411 -0.79221,-0.41832 -1.19012,-0.62364 -0.20579,-0.10621 -0.41317,-0.21024 -0.620394,-0.31514 z m 1.810514,0.93878 c 0.0498,0.024 0.0988,0.0493 0.1491,0.0723 0.26149,0.11921 0.53221,0.21501 0.8024,0.31127 -0.32369,-0.12763 -0.64056,-0.25251 -0.9515,-0.38354 z m 0.9515,0.38354 c 0.1085,0.0428 0.21474,0.0847 0.32591,0.129 -0.006,-0.002 -0.003,-0.012 0.004,-0.01 -0.10914,-0.0415 -0.21921,-0.0801 -0.32925,-0.11929 z m -2.45867,-0.565 c -0.0738,-0.12729 -0.10972,-0.18064 0,0 z m -7.016014,-3.0371 c 0.29308,0.26308 0.58748,0.52442 0.88011,0.78803 -0.009,-0.008 0.003,-0.022 0.0109,-0.014 -0.29882,-0.25552 -0.59282,-0.51743 -0.89082,-0.77405 z m -1.84158,-1.43189 c -0.0781,-0.0256 0.34301,0.3376 0,0 z m 6.29426,-11.809955 c -0.027,-0.002 -0.0569,5.29e-4 -0.0888,0.0113 -0.0791,0.0298 -0.15889,0.058 -0.23749,0.0894 -0.4953,0.19752 -0.13878,0.0765 -0.61302,0.2246 -0.25223,0.11352 -0.099,0.48812 0.15317,0.37458 0.0954,-0.0359 0.19058,-0.0717 0.28596,-0.10763 0.0993,-0.0531 0.19352,-0.11912 0.29816,-0.15932 0.0724,-0.0278 0.15163,-0.0285 0.22754,-0.0427 0.22305,-0.0742 0.16362,-0.37332 -0.0257,-0.39013 z m 7.260904,2.08898 c 0.003,0.004 0.004,0.009 0.007,0.012 -0.004,0.003 -0.008,0.006 -0.0116,0.009 0.003,-0.007 0.004,-0.0143 0.005,-0.0213 z m 3.71944,0.62017 c -0.0451,0.0717 -0.0844,0.14563 -0.11915,0.22149 -0.24167,0.3127 -0.8043,0.33672 -1.23631,0.35788 0.12811,-0.0934 0.25789,-0.18364 0.40026,-0.24869 0.17857,-0.0816 0.55404,-0.20481 0.9552,-0.33068 z m 8.98596,10.825295 c 0.91099,0.007 1.50545,0.0503 1.95702,0.0843 0.0209,0.0349 0.0482,0.0663 0.0825,0.0913 -0.34812,0.0643 -0.32187,0.029 -1.50197,0.0665 -0.52625,0.0167 -1.05283,0.043 -1.57929,0.0396 -0.0259,-1.9e-4 -0.0515,-0.003 -0.0773,-0.005 0.37224,-0.0978 0.74477,-0.19318 1.11908,-0.27705 z m -12.4061,0.51564 c 0.37002,0.1565 0.73972,0.31326 1.11868,0.43714 0.0395,0.0358 0.0613,0.0567 0.12915,0.1158 0.0992,0.0865 0.20113,0.16975 0.3026,0.25335 -0.37086,-0.0484 -0.74157,-0.0979 -1.11241,-0.14649 -0.13962,-0.21216 -0.28393,-0.43449 -0.43802,-0.6598 z m 12.86335,1.09966 c -0.27617,-0.003 -0.33774,0.42456 -0.0336,0.48844 0.66842,0.16625 -0.36335,-0.0824 0.61595,0.11308 0.19873,0.0397 0.39489,0.0931 0.5923,0.13949 0.13168,0.0413 0.18716,-0.15456 0.0555,-0.19583 -0.17997,-0.0934 -0.35534,-0.19692 -0.53975,-0.28016 -0.1274,-0.0575 -0.26239,-0.094 -0.39362,-0.14105 -0.0795,-0.0392 -0.15915,-0.0782 -0.23863,-0.11737 -0.0204,-0.005 -0.0397,-0.007 -0.0581,-0.007 z"
       id="path4913"
       sodipodi:nodetypes="cc" />
  </g>
</svg>
