<?xml version="1.0" encoding="UTF-8" standalone="no"?>
<svg
   xmlns:dc="http://purl.org/dc/elements/1.1/"
   xmlns:cc="http://creativecommons.org/ns#"
   xmlns:rdf="http://www.w3.org/1999/02/22-rdf-syntax-ns#"
   xmlns:svg="http://www.w3.org/2000/svg"
   xmlns="http://www.w3.org/2000/svg"
   xmlns:sodipodi="http://sodipodi.sourceforge.net/DTD/sodipodi-0.dtd"
   xmlns:inkscape="http://www.inkscape.org/namespaces/inkscape"
   inkscape:export-ydpi="96"
   inkscape:export-xdpi="96"
   inkscape:export-filename="D:\Calcatz\Icon Pack\Adventure Narative Inspired by Arrival\GUI\Choices\png\choices.png"
   sodipodi:docname="choices.svg"
   inkscape:version="1.0 (4035a4fb49, 2020-05-01)"
   id="svg9685"
   version="1.1"
   viewBox="0 0 77.645874 20.689091"
   height="20.689091mm"
   width="77.645874mm">
  <defs
     id="defs9679" />
  <sodipodi:namedview
     fit-margin-bottom="0"
     fit-margin-right="0"
     fit-margin-left="0"
     fit-margin-top="0"
     inkscape:window-maximized="1"
     inkscape:window-y="-8"
     inkscape:window-x="-8"
     inkscape:window-height="705"
     inkscape:window-width="1366"
     showgrid="false"
     inkscape:document-rotation="0"
     inkscape:current-layer="layer1"
     inkscape:document-units="mm"
     inkscape:cy="14.609469"
     inkscape:cx="78.056325"
     inkscape:zoom="1.3422939"
     inkscape:pageshadow="2"
     inkscape:pageopacity="0.0"
     borderopacity="1.0"
     bordercolor="#666666"
     pagecolor="#ffffff"
     id="base" />
  <metadata
     id="metadata9682">
    <rdf:RDF>
      <cc:Work
         rdf:about="">
        <dc:format>image/svg+xml</dc:format>
        <dc:type
           rdf:resource="http://purl.org/dc/dcmitype/StillImage" />
        <dc:title></dc:title>
      </cc:Work>
    </rdf:RDF>
  </metadata>
  <g
     transform="translate(-66.829529,-102.40399)"
     id="layer1"
     inkscape:groupmode="layer"
     inkscape:label="Layer 1">
    <path
       sodipodi:nodetypes="cc"
       id="path5047"
       d="m 67.621943,113.16994 c 3.09483,0.0455 6.16667,-0.41367 9.257001,-0.38007 2.93963,0.032 5.85769,0.37738 8.79573,0.4499 17.111396,0.42239 3.19397,-0.32426 21.729666,-0.37847 4.30655,-0.0121 8.60716,0.21609 12.91074,0.32413 7.83191,-0.0374 15.66127,-0.18247 23.49148,-0.29276 0.89255,-0.002 0.89104,-0.8834 0,-0.88189 -1.33302,0.0488 -2.66451,0.16377 -3.99899,0.14641 -18.0925,-0.23516 2.38374,-0.67972 -19.49259,0.0773 -28.373676,-0.43772 1.81245,-0.1477 -24.509146,0.0955 -8.33615,0.077 -16.6592,-0.37485 -24.993471,-0.31847 -1.06481,0.008 -2.12714,0.0757 -3.19072,0.11351 -1.05754,0.002 -1.05576,1.04675 0.003,1.04494 z"
       style="fill:#1f2123;fill-opacity:1;stroke:none;stroke-width:0.264583px;stroke-linecap:butt;stroke-linejoin:miter;stroke-opacity:1" />
    <path
       sodipodi:nodetypes="cc"
       id="path5049"
       d="m 98.981493,102.99128 c -0.0853,0.002 -0.175019,0.0397 -0.25413,0.13017 -0.435139,0.43908 -0.929428,0.8214 -1.305189,1.31727 -0.372089,0.49099 -0.61032,1.07906 -0.91821,1.61685 -0.472231,0.82491 -0.60484,0.99327 -0.689589,1.17351 -0.0324,0.0542 -0.0654,0.10739 -0.0988,0.1632 -0.01749,-0.14263 -0.0442,-0.28457 -0.0473,-0.42821 -0.006,-0.25696 0.0473,-0.56134 0.0847,-0.81756 0.01561,-0.2846 -0.3674,-0.30754 -0.382879,-0.0229 0.0586,0.54525 0.0368,0.23425 0.0477,0.84049 0.003,0.15982 0.0177,0.31986 0.01011,0.4795 -0.007,0.13943 -0.0392,0.27617 -0.0533,0.415 -0.004,0.0353 -0.005,0.071 -0.007,0.10647 -1.02788,1.66644 -2.474911,3.69689 -4.532981,4.24284 -0.16409,0.0435 -0.21632,1.35166 -0.0548,1.39188 0.83061,0.20673 1.58202,0.79035 2.33214,1.47309 0.004,0.0142 0.009,0.0284 0.0164,0.0432 0.427751,0.7656 -0.30472,-0.51677 0.36697,0.52224 0.10491,0.16225 0.181222,0.34315 0.280782,0.50904 0.937969,1.56225 -0.45638,-0.97435 1.216019,1.91217 0.285779,0.49328 0.53639,1.00832 0.80463,1.51233 0.005,0.01 0.01849,0.002 0.0132,-0.008 -0.265139,-0.506 -0.536599,-1.00816 -0.795391,-1.51778 -0.01109,-0.0217 -0.488259,-0.99238 -0.786868,-1.61181 0.02569,0.0249 0.0644,0.0615 0.0844,0.0812 0.0527,0.0173 0.336129,0.21548 1.275929,0.96056 0.19222,0.15236 0.379431,0.31098 0.56565,0.47133 -0.18301,-0.16428 -0.366321,-0.32834 -0.546021,-0.49659 -0.27165,-0.25428 -0.659209,-0.60429 -0.97962,-0.96872 0.861381,0.76473 1.783131,1.43176 2.87115,1.63201 v -5.3e-4 c 0.258022,0.0171 1.31345,-0.0538 2.214481,0.32213 0,0.002 0.003,0.005 0.003,0.007 0.0404,0.20557 0.0463,0.41715 0.0566,0.62678 0.01429,0.29294 0.0132,0.61042 -0.0499,0.90033 -0.0214,0.0982 -0.0621,0.19065 -0.0932,0.28599 -1.11e-4,0.0677 0,0.13547 0,0.20322 -0.0376,0.31338 0.384174,0.36894 0.421724,0.0556 -0.0132,-0.066 -0.0265,-0.13211 -0.0396,-0.19817 0.0132,-0.10382 0.088,-0.67176 0.0858,-0.73207 -0.009,-0.23743 -0.123114,-0.76307 -0.177566,-1.05303 0.148676,0.0765 0.290696,0.16663 0.421356,0.27432 0.1909,0.26685 0.30463,0.59361 0.50275,0.85604 0.0127,0.0167 0.0271,0.0317 0.0399,0.0482 0.0401,0.16942 0.0706,0.34179 0.0818,0.52844 0.008,0.13939 -0.019,0.27961 -0.009,0.4189 0.0825,1.17735 0.0692,-0.38398 0.0636,0.74178 0,0.25321 0.34074,0.25374 0.34108,0 -0.055,-0.51563 -0.0335,-0.25505 -0.0644,-0.78141 -0.0143,-0.141 -0.0495,-0.27947 -0.0599,-0.42084 -0.003,-0.0275 0,-0.0552 0,-0.0828 0.17791,0.18893 0.35984,0.37404 0.52607,0.57394 2.45039,2.94668 -1.0787,-1.06066 1.88302,2.25256 0.26826,0.37827 0.77769,-0.02 0.50943,-0.39827 -0.60386,-0.94135 -0.87019,-1.3697 -0.98444,-1.55781 0.17838,0.30779 0.50229,0.94698 -0.87122,-0.73207 -0.19293,-0.23582 -0.33226,-0.41541 -0.43762,-0.55917 0.32972,0.18824 0.66715,0.36264 1.0055,0.53392 -0.42389,-0.27923 -0.82402,-0.59301 -1.20344,-0.94115 -0.0325,-0.0298 -0.0614,-0.0635 -0.0921,-0.0952 -0.0238,-0.10937 0.0156,-0.15738 -0.0548,-0.33105 0.0425,0.0197 0.0848,0.0394 0.12724,0.0591 0.10091,0.0467 0.12909,0.0597 0.19867,0.0921 0.0212,0.025 0.0408,0.0517 0.0636,0.075 0.0912,0.0926 0.19735,0.16814 0.28853,0.26073 0.28921,0.29361 0.0544,0.13967 0.28858,0.27551 0.196,0.12687 0.37115,-0.0514 0.34848,-0.2246 0.17264,0.0588 0.36841,0.12558 0.70956,0.24752 0.0834,0.0299 0.16671,0.0602 0.25006,0.0901 -0.0816,-0.0333 -0.16378,-0.0653 -0.24413,-0.1018 -0.48813,-0.22204 -0.94967,-0.4847 -1.3851,-0.79152 -0.004,-0.0293 -0.0834,-0.12906 -0.36735,-0.40373 -0.0114,-0.011 -0.0251,-0.0192 -0.037,-0.0295 0.2163,0.0164 0.48707,0.035 0.66516,0.0497 0.4168,0.0344 1.07741,0.25069 1.15721,0.27083 0.009,0.003 0.0177,0.008 0.027,0.0101 0.53133,0.16034 1.49979,0.18624 1.93553,0.23237 -0.26605,-0.0541 -0.85619,-0.18672 -1.33141,-0.36449 0.28154,-0.0209 0.55964,-0.0684 0.83753,-0.11812 0.10242,0.0821 0.30616,0.23916 0.65628,0.50165 -0.0303,-0.004 -0.0606,-0.009 -0.091,-0.0128 -0.0177,-0.002 -0.0513,-0.004 -0.0714,-0.006 0.019,0.004 0.055,0.0122 0.0703,0.0152 0.0377,0.008 0.0758,0.0128 0.11359,0.0198 0.0101,0.008 0.008,0.006 0.0183,0.014 0.3079,0.23041 0.61458,0.46381 0.93819,0.66913 0.32628,0.207 0.6726,0.37715 1.00883,0.56577 0.13168,0.0782 0.23675,-0.11728 0.10506,-0.19547 -0.19637,-0.13083 -0.90577,-0.59904 -1.40282,-0.94306 0.44538,0.0656 0.89231,0.12077 1.33808,0.18301 0.0214,0.003 0.0427,0.005 0.064,0.009 -0.0212,-0.003 -0.0427,-0.006 -0.064,-0.009 -0.46358,-0.0685 -0.92628,-0.14609 -1.38949,-0.21721 -0.18605,-0.12939 -0.3407,-0.24035 -0.41066,-0.2996 -0.0604,-0.0511 -0.2096,-0.20451 -0.37623,-0.37885 0.51802,-0.0835 1.03957,-0.13049 1.58226,0.01 0.0704,0.0182 0.14602,0.0354 0.21862,0.0532 0.013,0.008 0.0265,0.0157 0.0418,0.0222 0.22497,0.16865 0.42098,0.30971 0.63259,0.51718 0.12385,0.12139 0.24659,0.25022 0.36811,0.38236 -0.201,-0.0266 -0.40216,-0.0518 -0.60301,-0.0797 0.20349,0.03 0.4072,0.0584 0.61079,0.0878 0.37259,0.4059 0.7261,0.84401 1.06543,1.26249 -0.15952,-0.21542 -0.34412,-0.47848 -0.73065,-1.03593 -0.0399,-0.0575 -0.0871,-0.13297 -0.12909,-0.19663 0.37944,0.0545 0.75885,0.10917 1.13832,0.1636 0.0583,0.0483 0.11665,0.0963 0.17314,0.14685 0.28332,0.2537 0.54705,0.53162 0.83683,0.77717 0.32596,0.27627 0.67251,0.5246 1.00882,0.78687 0.0183,0.0149 0.0387,-0.0126 0.0204,-0.0276 -0.3356,-0.2619 -0.69744,-0.49038 -1.00698,-0.78567 -0.27292,-0.26034 -0.49046,-0.57844 -0.73099,-0.87195 -0.0644,-0.0786 -0.12695,-0.15907 -0.18905,-0.23976 5.13946,1.63642 -4.21986,-1.6295 3.18225,0.99709 -0.65727,-0.28556 -1.31228,-0.57729 -1.97217,-0.85603 -0.51218,-0.21638 -1.04117,-0.38998 -1.54451,-0.62756 1.15541,0.17739 2.40014,0.30363 3.59918,0.35828 0.0829,0.0484 0.16574,0.0967 0.25083,0.14065 0.23492,0.12137 0.47611,0.22928 0.71511,0.34156 0.60402,0.28378 1.00047,0.47088 1.62481,0.71187 0.29064,0.11218 0.58589,0.21013 0.87897,0.31514 0.20508,0.0776 0.41013,0.15516 0.61524,0.23276 0.15949,0.0317 0.2024,-0.20528 0.0429,-0.23703 -0.21191,-0.0221 -0.42404,-0.0439 -0.63594,-0.066 -0.20113,-0.0808 -1.48323,-0.59218 -1.68992,-0.69128 -0.25972,-0.12455 -0.50985,-0.27102 -0.75948,-0.41657 -0.14227,-0.0829 -0.32391,-0.19661 -0.50273,-0.31086 0.96379,0.0265 1.88237,0.004 2.67725,-0.0804 0.49502,-0.0526 1.01831,0.0215 1.84087,0.41771 0.21696,0.13952 0.45705,0.29826 0.7739,0.51331 0.8077,0.54812 1.55518,1.19093 2.37027,1.72682 0.62917,0.41368 1.30419,0.74499 1.95625,1.11756 0.18066,0.10795 0.32606,-0.16019 0.1454,-0.26814 -1.60869,-0.84619 -2.3164,-1.12689 -3.51817,-2.12861 0.0963,0.0396 0.19431,0.076 0.28856,0.1197 0.17153,0.10341 0.34304,0.20667 0.51458,0.31008 0.14513,0.0744 0.24538,-0.14086 0.10025,-0.21529 -0.17018,-0.0963 -0.34033,-0.19279 -0.51051,-0.2891 -0.39481,-0.26976 -0.58433,-0.3797 -0.94262,-0.70097 -0.14593,-0.13083 -0.28214,-0.27321 -0.41842,-0.41501 -0.0329,-0.0342 -0.0641,-0.0702 -0.0958,-0.10569 0.0934,0.0266 0.18629,0.0548 0.2771,0.0898 0.22438,0.0864 0.42972,0.22227 0.65405,0.30892 0.18334,0.0708 0.37682,0.10798 0.56528,0.16202 0.42423,0.13546 0.60657,-0.4948 0.18238,-0.63026 -0.17371,-0.0715 -0.34632,-0.14535 -0.52089,-0.2145 -0.19553,-0.0775 -0.39463,-0.14584 -0.58933,-0.22537 0.0468,-0.0131 0.0936,-0.0253 0.14131,-0.0342 0.77936,-0.14394 2.192,-0.288 3.00064,-0.26967 0.19402,0.005 0.38164,0.0759 0.57232,0.11385 0.0726,0.002 0.1138,-0.0433 0.12653,-0.0956 0.33919,-0.003 0.71466,-0.005 0.81756,0.004 0.32405,0.03 0.64249,0.10679 0.96445,0.15582 0.46554,0.0708 2.08773,0.29811 2.47603,0.35283 0.0662,0.0117 0.0821,-0.0867 0.0159,-0.0983 -1.83396,-0.40007 -0.7965,-0.16395 -2.44163,-0.55722 -0.29739,-0.0711 -0.59534,-0.13868 -0.89231,-0.21178 0.12163,-0.0648 0.25591,-0.14517 0.41175,-0.24441 0.2423,-0.15428 0.9453,-0.4965 1.70434,-0.6291 0.18584,0.0207 0.37004,0.0577 0.55565,0.0816 1.90436,0.24509 -0.42363,-0.0819 1.68547,0.25724 0.25998,0.0418 0.52179,0.072 0.78243,0.1088 0.1942,0.0274 0.3882,0.0556 0.58229,0.0836 0.081,0.0487 0.16174,0.0975 0.24271,0.1461 0.24093,0.0287 0.27979,-0.32927 0.0389,-0.35788 -0.087,0.002 -0.1741,0.003 -0.26117,0.005 -1.09231,-0.0534 -0.0524,0.0244 -1.35845,-0.17641 -0.64167,-0.0987 -1.05865,-0.0991 -1.68325,-0.23975 -0.0981,-0.0221 -0.19455,-0.0514 -0.29078,-0.0816 0.27048,0.009 0.57822,0.0569 1.74133,0.15659 0.71771,0.0615 1.4402,0.0802 2.15273,0.18963 1.11392,0.17106 2.18845,0.57203 3.3021,0.7449 0.61153,0.0949 1.23016,0.12793 1.84531,0.19195 0.48088,0.0558 0.556,-0.65843 0.0751,-0.7142 -0.59872,-0.0681 -1.1974,-0.13628 -1.79607,-0.20439 -0.5158,-0.0739 -1.03047,-0.1579 -1.54749,-0.22149 -0.60474,-0.0744 -1.21804,-0.0785 -1.81716,-0.19234 -0.60275,-0.11456 -1.18735,-0.31677 -1.78205,-0.47134 0.35184,-0.11697 0.71096,-0.23415 0.84053,-0.26501 0.32803,-0.0781 0.66437,-0.10941 0.99549,-0.17136 0.33716,-0.0631 0.67001,-0.15222 1.00886,-0.20401 -0.33922,0.0557 -0.68368,0.0697 -1.02365,0.12007 -0.33358,0.0494 -0.66304,0.12703 -0.99623,0.17953 -0.53711,0.0847 -0.85011,0.11377 -1.30001,0.15698 0.0843,-0.0315 0.14526,-0.0535 0.25713,-0.0964 0.31247,-0.11955 0.60335,-0.29882 0.92117,-0.40178 0.34353,-0.11129 1.573,-0.33977 1.97069,-0.41694 0.0259,-0.005 0.019,-0.0435 -0.006,-0.0385 -0.30298,0.0607 -0.6074,0.11383 -0.90895,0.18185 -0.16865,0.038 -1.80954,0.45171 -2.02324,0.49854 -0.0595,0.013 -0.11959,0.0229 -0.17942,0.0342 2.25576,-0.64166 4.58378,-2.67551 6.64089,-2.95627 0.25286,-0.0346 0.19388,-1.12083 -0.0292,-1.17233 -3.05591,-0.70512 -7.81101,-1.87604 -7.81101,-1.87604 0.24472,-0.0109 0.47771,-0.0185 0.73581,-0.0245 -0.11343,-8e-4 -0.22664,-0.003 -0.33996,-0.009 -0.14267,-0.008 -0.28477,-0.0226 -0.42656,-0.0405 -0.0336,-0.0847 -0.10192,-0.24541 -0.18646,-0.32213 -0.10456,-0.0949 -0.21357,-0.18217 -0.32483,-0.26617 0.64461,-0.16377 1.39439,-0.37311 1.9626,-0.33185 0.16481,0.012 0.31229,0.10227 0.46094,0.18652 -0.0886,0.009 -0.18902,0.0209 -0.25821,0.0256 -0.26675,0.0183 -0.53441,0.004 -0.80172,0.008 -0.14443,0.002 -0.28879,0.008 -0.43317,0.0124 -0.29395,0 -0.29395,0.43676 0,0.43676 0.54348,-0.17002 0.61899,-0.20633 1.25301,-0.3334 0.13118,-0.0263 0.26313,-0.0475 0.3951,-0.0692 0.008,0.004 0.0156,0.009 0.0238,0.012 0.0878,0.003 0.1601,-0.0186 0.21902,-0.0536 0.11478,-0.0186 0.22971,-0.037 0.34404,-0.0583 0.3515,-0.0655 0.70143,-0.13984 1.05214,-0.20983 0.008,-0.002 0.006,-0.0125 -0.003,-0.0113 -0.29562,0.0423 -0.81338,0.11902 -1.28775,0.18107 0.15425,-0.21957 0.0593,-0.60116 -0.30297,-0.61278 -1.95718,0.2049 1.04277,-0.12823 -1.91781,0.3027 -0.21696,0.0316 -0.43461,0.0579 -0.65223,0.082 -0.41391,0.009 -0.74924,-0.0702 -1.03102,-0.16709 0.17915,-0.0644 0.36126,-0.12102 0.5416,-0.18146 0.70834,-0.23744 0.98483,-0.33025 1.2478,-0.39557 -0.006,0.002 -0.0114,0.003 -0.0175,0.004 -0.42389,0.0873 -0.8522,0.15056 -1.27445,0.24635 -0.16317,0.037 -0.27625,0.0653 -0.38547,0.0933 1.23394,-0.5237 2.32429,-0.71976 3.7283,-1.10511 2.82834,-0.77626 1.27693,-0.58671 3.84484,-0.66485 0.20572,0.0729 0.41138,0.14616 0.61706,0.21915 0.80635,0.0753 0.90771,-1.12263 0.10139,-1.19797 -0.27606,0.0331 -0.55226,0.0664 -0.82833,0.0995 -6.92684,2.02526 4.56324,-1.29741 -3.87331,0.99242 -0.55666,0.15109 -1.10654,0.32754 -1.6559,0.50632 0.0271,-0.0226 0.0306,-0.0274 0.0625,-0.0536 0.19267,-0.15864 0.39341,-0.30602 0.58635,-0.46434 0.23931,-0.19641 0.459,-0.4203 0.70993,-0.59996 0.19626,-0.1405 0.41756,-0.23773 0.62632,-0.35671 0.1116,-0.0836 5e-5,-0.24948 -0.11248,-0.16592 -0.82933,0.75669 -0.25283,0.29006 -1.32328,0.97843 -0.20566,0.13225 -0.43543,0.29572 -0.66702,0.44414 -0.004,-0.0326 -0.029,-0.0624 -0.0725,-0.054 -0.13764,0.033 -0.40656,0.0992 -0.66517,0.16126 0.20688,-0.0223 0.41633,-0.0228 0.62447,-0.0353 -0.10773,0.0658 -0.21523,0.1275 -0.32001,0.17719 -0.1162,0.0551 -0.24315,0.0802 -0.36478,0.12046 -0.0979,0.0386 -0.1402,0.11569 -0.14428,0.1935 -0.37039,0.12135 -0.91419,0.3009 -1.5508,0.52147 -0.32906,0.0771 -0.61415,0.0645 -0.85236,0.0253 0.57825,-0.307 1.16523,-0.60058 1.78351,-0.80318 -0.18286,0.0447 -0.44088,0.1054 -0.52753,0.12784 -0.32163,0.0833 -0.63886,0.18563 -0.96112,0.26617 -0.19535,0.0488 -0.39378,0.0813 -0.59082,0.12201 -0.003,2e-4 -0.003,7.9e-4 -0.003,0.002 -0.26329,0.0386 -0.59473,0.0924 -0.78131,0.0563 -0.17174,-0.0332 -0.34349,-0.0643 -0.51496,-0.0948 0.10366,-0.0978 0.21016,-0.19155 0.32999,-0.26499 1.04981,-0.64352 2.42869,-1.18882 3.53335,-1.66815 0.0156,-0.007 0.006,-0.0302 -0.009,-0.0233 -1.2968,0.57766 -2.59532,1.15042 -3.89548,1.71978 -0.27782,0.10294 -0.61373,0.12238 -0.81537,0.0867 -0.5778,-0.10238 -1.13779,-0.21092 -1.65476,-0.35905 -0.48382,2e-4 -0.96771,-0.007 -1.45166,-0.0129 0.003,-5.3e-4 0,-2e-4 0.003,-8e-4 0.23326,-0.12034 0.45908,-0.2587 0.7003,-0.3602 0.68575,-0.28854 1.32247,-0.47218 2.03026,-0.62367 -0.38304,0.0666 -0.75237,0.13372 -0.98222,0.18614 -0.36753,0.0838 -0.72413,0.21571 -1.09132,0.30114 -0.25453,0.0592 -0.51441,0.0883 -0.77171,0.13251 -0.10163,0.0282 -0.20275,0.0584 -0.30483,0.0847 -0.0636,0.0163 -0.12832,0.0287 -0.19238,0.0432 -0.006,0.003 -0.0111,0.008 -0.0169,0.0109 -0.16552,0.0318 -0.30705,0.14154 -0.46725,0.19157 0.20978,-0.212 0.59949,-0.58763 0.69807,-0.67224 0.62283,-0.5345 0.77605,-0.59215 1.51937,-1.07285 0.2381,-0.0729 0.47623,-0.14588 0.71435,-0.21877 0.22691,-0.10079 0.0911,-0.43807 -0.13576,-0.33728 -0.22214,0.13052 -0.4445,0.26115 -0.66664,0.39168 -0.32848,0.16071 -0.66845,0.29798 -0.98555,0.48223 -0.22907,0.13313 -0.42489,0.32168 -0.64738,0.46667 -0.1619,0.10551 -0.33864,0.1849 -0.50313,0.2856 0.062,-0.11721 0.13057,-0.23362 0.20791,-0.3501 0.24339,-0.36652 0.54141,-0.69133 0.84457,-1.00486 0.19561,-0.20227 0.43064,-0.35776 0.64593,-0.53662 0.0444,-0.0365 -0.005,-0.10249 -0.0492,-0.0661 -0.20733,0.19324 -0.42778,0.37184 -0.62188,0.57976 -0.4762,0.5102 -0.90069,1.06591 -1.33548,1.61258 -0.0561,0.0494 -0.11174,0.0995 -0.17092,0.14455 -0.0135,0.0104 -0.0119,0.008 -0.0244,0.0175 -0.007,-0.25272 0.0161,-0.42694 0.12653,-1.03555 0.0488,-0.26906 0.0771,-0.54844 0.18349,-0.79852 0.0521,-0.12249 0.18378,-0.18648 0.27561,-0.27978 0.26546,-0.61331 -0.56025,-1.00772 -0.82571,-0.3944 -0.21685,0.66778 -0.17089,0.47062 -0.34147,1.37866 -0.0204,0.10955 -0.0291,0.15352 -0.0451,0.2382 -0.0922,-0.578 -0.0967,-1.15401 -0.12764,-1.76451 -0.28964,3.17926 -0.0135,-0.12059 -0.14539,2.08314 -0.003,0.0183 -0.004,0.0366 -0.005,0.0548 -0.078,-0.10841 -0.15074,-0.20435 -0.20866,-0.26539 -0.4541,-0.47868 -0.99716,-0.8544 -1.49568,-1.28152 -0.28324,-0.30595 -0.69536,0.11486 -0.41212,0.42082 0.38198,0.4627 0.80103,0.89433 1.1461,1.38799 0.0494,0.0707 0.0954,0.14361 0.13983,0.2176 0.10512,0.30662 -0.43188,0.44477 -0.91229,0.48456 -0.76768,0.0635 -1.59744,0.14045 -2.42128,0.20944 0.0722,-0.20309 0.16254,-0.42744 0.25895,-0.64504 0.32311,-0.085 0.64617,-0.16993 0.96928,-0.2549 -0.0222,0.006 -0.0304,-0.027 -0.008,-0.033 -0.15775,0.0468 -0.57206,0.16851 -0.95928,0.28366 0.0895,-0.20161 0.17942,-0.39143 0.2512,-0.5203 0.18098,-0.32488 0.40402,-0.62201 0.60595,-0.93297 0.10541,-0.14529 -0.0903,-0.30189 -0.19569,-0.1566 -0.21148,0.31343 -0.41261,0.63495 -0.63444,0.94036 -0.20564,0.28307 -0.4513,0.53336 -0.64741,0.82377 -0.004,0.005 -0.006,0.0111 -0.009,0.0163 -1.10654,0.29605 -0.79092,0.21802 -1.69949,0.44414 -0.33991,0.0286 -0.85231,0.21291 -1.15055,0.21488 -0.30543,0.002 -0.64717,-0.0827 -0.37552,-0.46434 0.0434,-0.0326 0.0729,-0.0549 0.13134,-0.0987 0.50739,-0.37998 0.68411,-0.56496 1.29334,-0.68972 0.0865,-0.0177 0.17436,0.0278 0.26156,0.0416 0.28073,-0.10557 0.1383,-0.52292 -0.14245,-0.41734 -0.38833,0.34226 -0.10443,0.12415 -0.82719,0.48689 -0.23794,0.11942 -0.47736,0.23575 -0.71139,0.36332 -0.17351,0.0946 -0.36419,0.21005 -0.55308,0.32679 0.009,-0.008 0.0196,-0.0152 0.0288,-0.0233 0.19478,-0.17084 0.37361,-0.36516 0.58674,-0.50982 0.38806,-0.26339 0.46537,-0.25157 0.82129,-0.31241 0.51879,-0.14634 0.32197,-0.91689 -0.19682,-0.77054 -0.67271,0.14187 -0.41778,0.0252 -0.66739,0.32484 0.21672,-0.44601 0.47861,-0.86422 0.79687,-1.24266 0.15507,-0.1844 0.31838,-0.36348 0.4998,-0.51914 0.14274,-0.12247 0.31149,-0.20695 0.46725,-0.31046 0.12846,-0.0849 0.014,-0.27566 -0.11432,-0.19079 -0.3715,0.28165 -0.70887,0.51181 -1.0251,0.87312 -0.17135,0.19575 -0.30253,0.42643 -0.45728,0.63688 -0.49779,0.67696 -0.4249,0.563 -0.58193,0.80668 0.0148,-0.0474 0.0284,-0.0953 0.0444,-0.14222 0.11433,-0.33639 0.30485,-0.63937 0.43468,-0.9695 0.35571,-0.90429 0.009,-0.4023 0.38958,-0.88828 0.386,-0.87991 -0.7986,-1.45345 -1.18457,-0.57353 -0.0684,0.90938 0.0513,-0.2785 -0.26898,1.11521 -0.0613,0.2666 -0.076,0.5438 -0.11985,0.81406 -0.13163,-0.31229 -0.063,-0.21608 -0.31224,-1.35418 -0.006,-0.0622 -0.0894,-0.0536 -0.0836,0.009 0.0586,1.55648 -0.0153,0.92612 0.12872,1.89974 0.0217,0.038 0.0471,0.0668 0.0747,0.0878 -0.085,0.19897 -0.17775,0.39527 -0.25231,0.5984 -0.31758,0.60782 -1.02682,0.66283 -1.5571,0.55528 -0.27384,-0.0556 -0.54811,-0.0959 -0.82312,-0.11424 0,-0.002 0.003,-0.003 0.003,-0.005 0.0858,-0.0656 0.17857,-0.1354 0.26673,-0.19894 0.0686,0.0225 0.14991,0.005 0.21087,-0.0808 0.0432,-0.0606 0.0598,-0.0842 0.088,-0.12435 0.0366,-0.024 0.0689,-0.0467 0.10803,-0.0715 0.25924,-0.16417 0.5111,-0.34967 0.79388,-0.46318 0.22453,-0.0901 0.47263,-0.0932 0.70885,-0.13989 0.13478,-0.0454 0.0734,-0.2455 -0.0614,-0.20011 -1.90537,0.91649 0.6319,-0.28792 -1.30517,0.56654 0.0527,-0.0554 0.0979,-0.0992 0.29001,-0.30076 0.12423,-0.11709 -0.0334,-0.30168 -0.15758,-0.18457 -0.59762,0.4497 -0.35081,0.21283 -0.76578,0.6804 -0.0254,0.0356 -0.0359,0.0713 -0.0403,0.10569 -0.006,0.003 -0.0188,0.008 -0.0249,0.0113 0.0349,-0.12071 0.0733,-0.23994 0.12909,-0.35128 0.13282,-0.26489 0.35192,-0.47091 0.5279,-0.70642 0.22198,-0.37998 -0.28967,-0.70948 -0.5116,-0.3295 -0.12817,0.26403 -0.22456,0.54765 -0.38436,0.79191 -0.10047,0.15352 -0.22138,0.29022 -0.34333,0.42625 -0.41031,0.38395 -1.20576,0.67786 -1.60554,0.71692 -0.48107,0.047 -0.42262,0.0425 -0.79243,0.0793 0.0257,-0.041 0.0508,-0.0829 0.0781,-0.12279 0.2681,-0.3918 0.56464,-0.76127 0.83201,-1.15368 0.44529,-0.65361 0.38687,-0.58752 0.72876,-1.25703 0.0787,-0.14118 -0.11139,-0.25854 -0.19015,-0.11735 -0.40188,0.97206 -0.073,0.31334 -0.71102,1.2446 -0.13914,0.20308 -0.25291,0.4253 -0.39954,0.62249 -0.13222,0.17785 -0.28583,0.337 -0.43469,0.49972 -0.15369,0.16799 -0.23222,0.24911 -0.31112,0.32445 -5.050206,0.50672 1.80816,-0.12105 -2.969546,-0.43909 -0.0146,-0.003 -0.0281,-0.004 -0.0425,-0.007 0.111548,-0.0344 0.22792,-0.0708 0.40101,-0.12901 0.29514,-0.0992 0.563269,-0.28013 0.862719,-0.36408 0.28914,-0.0811 0.595027,-0.0723 0.889717,-0.12708 0.26448,-0.0492 0.52438,-0.12302 0.7865,-0.18457 0.10919,-0.0274 0.0722,-0.18979 -0.037,-0.16243 -1.297567,0.41022 -0.24161,0.1007 -1.648087,0.43988 -0.67601,0.16301 -1.346911,0.36979 -2.03618,0.46279 0,-7.9e-4 0.003,-0.002 0.003,-0.003 0.256648,-0.31598 0.668948,-0.67251 1.00997,-0.86847 0.21431,-0.12315 0.451398,-0.1969 0.676989,-0.29532 0.339799,-0.13077 0.163719,-0.6355 -0.17608,-0.50476 -0.281281,0.0744 -0.578519,0.1001 -0.84387,0.22304 -0.0962,0.0446 -0.185841,0.10206 -0.273391,0.1636 0.0299,-0.0463 0.0606,-0.0922 0.0873,-0.14067 0.093,-0.16859 0.144989,-0.36221 0.25341,-0.52029 0.12864,-0.18755 0.301019,-0.33712 0.450958,-0.50632 0.11443,-0.12916 0.228121,-0.25906 0.34221,-0.38857 0.11494,-0.1122 -0.0359,-0.28317 -0.15094,-0.17098 -0.49136,0.55536 -0.269589,0.29505 -0.803148,0.94656 -0.0703,0.0858 -0.18706,0.22674 -0.301882,0.36916 0.11684,-0.22438 0.235451,-0.42636 0.349592,-0.58753 0.339569,-0.47947 0.801708,-0.84789 1.20269,-1.2718 0.237439,-0.27141 0.02281,-0.60383 -0.233051,-0.60035 z m 22.395387,3.54729 c 0.34687,-0.0602 0.65109,-0.11052 0.94224,-0.15853 -0.2262,0.0282 -0.45255,0.0568 -0.67625,0.10103 -0.0915,0.018 -0.17719,0.0385 -0.26599,0.0575 z m 0.94224,-0.15853 c 0.11292,-0.0141 0.2259,-0.0278 0.3385,-0.0439 0.008,-0.002 0.007,-0.0134 -0.003,-0.0124 -0.0825,0.0137 -0.2313,0.039 -0.33629,0.0563 z m 3.66728,1.18632 c 0.28567,-0.0697 0.50379,-0.12244 0.82423,-0.19934 -0.0682,0.008 -0.1365,0.0162 -0.20384,0.0303 -0.21089,0.0442 -0.41701,0.10237 -0.62039,0.16904 z m 1.4228,0.71847 c 0.0694,-0.0144 0.13853,-0.0304 0.20791,-0.0451 -0.0648,0.0135 -0.14674,0.0299 -0.20791,0.0451 z m 0.20791,-0.045 c 0.26101,-0.0543 0.57382,-0.10476 1.32072,-0.24791 0.0246,-0.005 0.018,-0.0412 -0.006,-0.0366 -0.43802,0.0949 -0.87561,0.1917 -1.31405,0.28444 z m 0.25638,1.85972 c 0.39261,0.004 0.78589,-0.0157 1.17864,-0.0175 0.53154,-0.002 1.06296,5.3e-4 1.59446,-0.002 0.0382,-2e-4 0.0572,-5.3e-4 0.094,-7.9e-4 -0.13523,-0.003 -0.55562,-0.003 -1.68841,0.003 -0.23037,0.002 -0.70332,0.007 -1.17867,0.0179 z m 2.86708,-0.0206 c 0.35626,0.008 -1.43286,0.0369 1.37395,0.0567 0.3392,0.002 0.67826,-0.0172 1.01735,-0.0256 0.0427,0 0.0427,-0.0633 0,-0.0633 -0.93123,0.0161 -1.43796,0.0265 -2.3913,0.0323 z m 0.88563,5.83212 c 0.40386,-0.0616 1.37414,-0.12625 1.79907,-0.15776 0.2001,0.0138 0.39994,0.0276 0.60002,0.0412 0.20539,-0.0167 0.18282,-0.32183 -0.0225,-0.30503 -0.19513,0.0594 -0.3901,0.11856 -0.58526,0.17796 -1.67587,0.0839 -0.0298,-0.0452 -1.79126,0.24364 z m -18.58197,4.46162 c 0.008,0.004 0.0164,0.007 0.0243,0.0105 -0.003,-0.002 0,-0.002 0,-0.002 -0.0161,-0.006 -0.008,-0.003 -0.0243,-0.009 z m -3.57294,0.28599 c 0.17243,0.23285 0.34862,0.4479 0.62447,0.77248 -0.13785,-0.17247 -0.27519,-0.34545 -0.41473,-0.51641 -0.0667,-0.0818 -0.14121,-0.17158 -0.20974,-0.25607 z m 0.62447,0.77248 c 0.12309,0.15403 0.24689,0.3075 0.37031,0.46125 0.007,0.009 0.0185,-0.002 0.0114,-0.0105 -0.17111,-0.20328 -0.27085,-0.32019 -0.38179,-0.45074 z m -6.30536,-1.69613 c 0.43585,0.17777 0.88593,0.31769 1.32702,0.48145 -0.003,0 -0.003,-0.002 0,-0.002 -0.44228,-0.15971 -0.88456,-0.32042 -1.32702,-0.47951 z m -0.92448,0.49195 c 0.19343,0.12742 0.39047,0.24988 0.59526,0.36137 0.41309,0.22492 0.81219,0.40759 1.21525,0.57741 -0.4028,-0.19411 -0.79221,-0.41832 -1.19012,-0.62364 -0.20579,-0.10621 -0.41317,-0.21024 -0.62039,-0.31514 z m 1.81051,0.93878 c 0.0498,0.024 0.0988,0.0493 0.1491,0.0723 0.26149,0.11921 0.53221,0.21501 0.8024,0.31127 -0.32369,-0.12763 -0.64056,-0.25251 -0.9515,-0.38354 z m 0.9515,0.38354 c 0.1085,0.0428 0.21474,0.0847 0.32591,0.129 -0.006,-0.002 -0.003,-0.012 0.004,-0.01 -0.10914,-0.0415 -0.21921,-0.0801 -0.32925,-0.11929 z m -2.45867,-0.565 c -0.0738,-0.12729 -0.10972,-0.18064 0,0 z m -7.016007,-3.0371 c 0.293082,0.26308 0.587481,0.52442 0.88011,0.78803 -0.009,-0.008 0.003,-0.022 0.0109,-0.014 -0.29882,-0.25552 -0.59282,-0.51743 -0.89082,-0.77405 z m -1.841579,-1.43189 c -0.0781,-0.0256 0.343011,0.3376 0,0 z m 6.294256,-11.80996 c -0.027,-0.002 -0.0569,5.3e-4 -0.0888,0.0113 -0.0791,0.0298 -0.15889,0.058 -0.23749,0.0894 -0.495296,0.19752 -0.13878,0.0765 -0.613017,0.2246 -0.25223,0.11352 -0.099,0.48812 0.153169,0.37458 0.0954,-0.0359 0.190578,-0.0717 0.285958,-0.10763 0.0993,-0.0531 0.19352,-0.11912 0.29816,-0.15932 0.0724,-0.0278 0.15163,-0.0285 0.22754,-0.0427 0.22305,-0.0742 0.16362,-0.37332 -0.0257,-0.39013 z m 7.2609,2.08898 c 0.003,0.004 0.004,0.009 0.007,0.012 -0.004,0.003 -0.008,0.006 -0.0116,0.009 0.003,-0.007 0.004,-0.0143 0.005,-0.0213 z m 3.71944,0.62017 c -0.0451,0.0717 -0.0844,0.14563 -0.11915,0.22149 -0.24167,0.3127 -0.8043,0.33672 -1.23631,0.35788 0.12811,-0.0934 0.25789,-0.18364 0.40026,-0.24869 0.17857,-0.0816 0.55404,-0.20481 0.9552,-0.33068 z m 8.98596,10.8253 c 0.91099,0.007 1.50545,0.0503 1.95702,0.0843 0.0209,0.0349 0.0482,0.0663 0.0825,0.0913 -0.34812,0.0643 -0.32187,0.029 -1.50197,0.0665 -0.52625,0.0167 -1.05283,0.043 -1.57929,0.0396 -0.0259,-1.9e-4 -0.0515,-0.003 -0.0773,-0.005 0.37224,-0.0978 0.74478,-0.19318 1.11908,-0.27705 z m -12.4061,0.51564 c 0.37002,0.1565 0.73972,0.31326 1.11868,0.43714 0.0395,0.0358 0.0613,0.0567 0.12915,0.1158 0.0992,0.0865 0.20113,0.16975 0.3026,0.25335 -0.37086,-0.0484 -0.74157,-0.0979 -1.11241,-0.14649 -0.13962,-0.21216 -0.28393,-0.43449 -0.43802,-0.6598 z m 12.86335,1.09966 c -0.27617,-0.003 -0.33774,0.42456 -0.0336,0.48844 0.66842,0.16625 -0.36335,-0.0824 0.61595,0.11308 0.19873,0.0397 0.39489,0.0931 0.5923,0.13949 0.13168,0.0413 0.18716,-0.15456 0.0555,-0.19583 -0.17997,-0.0934 -0.35534,-0.19692 -0.53975,-0.28016 -0.1274,-0.0575 -0.26239,-0.094 -0.39362,-0.14105 -0.0795,-0.0392 -0.15915,-0.0782 -0.23863,-0.11737 -0.0204,-0.005 -0.0397,-0.007 -0.0581,-0.007 z"
       style="fill:#1f2123;fill-opacity:1;stroke:none;stroke-width:0.264583px;stroke-linecap:butt;stroke-linejoin:miter;stroke-opacity:1" />
    <path
       sodipodi:nodetypes="cc"
       id="path5051"
       d="m 85.104734,102.40472 c -0.15248,-0.009 -0.31417,0.0642 -0.43617,0.25703 -0.16589,0.34668 -0.30572,0.70979 -0.49749,1.03998 -0.27969,0.48157 -0.57555,0.95488 -0.91321,1.38937 -0.20831,0.26809 -0.43125,0.52209 -0.6631,0.7662 -0.21619,0.17827 -0.49379,0.35235 -0.8064,0.52061 0.0172,-0.20791 0.0582,-0.4142 0.0796,-0.62196 0.13012,-1.26249 0.0119,-0.50289 0.2069,-1.57325 0.0209,-0.17731 -0.20754,-0.20999 -0.22849,-0.0327 -0.0325,0.22482 -0.0698,0.44904 -0.0971,0.67465 -0.0363,0.30007 -0.0581,0.60206 -0.0934,0.90227 -0.0472,0.40179 -0.0739,0.59038 -0.10493,0.77478 -0.66003,0.33352 -1.41563,0.63951 -2.02174,0.90431 0.22188,-0.43415 0.38687,-0.7176 0.66572,-1.21488 0.0356,-0.0546 -0.0348,-0.10977 -0.0703,-0.0552 -0.18651,0.22743 -0.38259,0.44612 -0.55967,0.68243 -0.37132,0.49544 -0.37563,0.53759 -0.52436,0.81155 -0.17256,0.0837 -0.32318,0.16318 -0.42754,0.23455 -0.48876,0.33432 -0.73046,0.56119 -0.95226,0.80625 0.0436,-0.17616 0.0834,-0.35356 0.13174,-0.52796 0.0652,0.0686 0.17745,0.0833 0.25305,-0.0298 0.1588,-0.29907 0.28366,-0.62293 0.4763,-0.89697 0.53567,-0.76194 0.99777,-1.15052 1.63436,-1.7555 0.0427,-0.0405 -0.009,-0.10706 -0.0521,-0.0666 -0.24466,0.24155 -0.50043,0.47029 -0.73382,0.72494 -2.959971,3.22952 0.38912,-0.28443 -1.44161,1.62351 0.13824,-0.37971 0.25379,-0.662 0.37251,-0.90146 -0.19119,0.34019 -0.39423,0.67294 -0.57494,1.01995 -0.13777,0.26453 -0.24794,0.54482 -0.37584,0.81524 -0.0813,0.17186 -0.18048,0.33398 -0.25157,0.5112 -0.0209,0.052 -0.0317,0.10777 -0.0413,0.16387 -0.0376,0.0405 -0.0704,0.0775 -0.11237,0.12136 -0.545441,0.56883 -2.520761,2.04847 -3.643811,2.25037 -0.29724,0.0534 -0.22011,1.31284 0.004,1.33134 1.43357,0.11821 3.0923,1.27071 3.647921,2.2042 0.40386,0.67857 0.44569,1.28892 0.30438,2.12941 -0.0567,0.17936 -0.12494,0.35462 -0.21471,0.52142 -0.12076,0.22441 -0.524831,0.66468 -0.706281,0.8704 -0.37312,0.4365 0.18915,1.01596 0.562291,0.57945 0.12962,-0.15862 0.27488,-0.30356 0.38886,-0.47607 0.12663,-0.19171 0.26831,-0.45199 0.39444,-0.72001 0.003,0.0101 0.003,0.0149 0.005,0.0258 -0.0516,0.22418 -0.11248,0.44505 -0.17748,0.64973 -0.0705,0.22192 -0.16828,0.43266 -0.24377,0.65259 -0.26048,0.75928 -0.0185,0.20556 -0.2627,0.73105 -0.0257,0.0496 -0.0513,0.0992 -0.077,0.14876 -0.0853,0.35411 0.37055,0.4865 0.45585,0.1324 0,-0.0618 8e-5,-0.12338 0.003,-0.18513 0.0101,-0.0875 0.0196,-0.1752 0.029,-0.26276 0.0175,-0.16156 0.0151,-0.32706 0.0521,-0.48463 0.0539,-0.22933 0.14459,-0.44629 0.21918,-0.66853 0.0305,-0.091 0.0617,-0.18196 0.0934,-0.27257 0.022,0.10547 0.0339,0.16092 0.0637,0.3069 0.0671,0.32952 0.16854,0.65243 0.20542,0.98768 0.0708,0.64369 0.088,0.55929 -0.11387,0.86591 -0.16444,0.92434 1.026,1.17973 1.19041,0.25539 0.009,-0.15091 0.0352,-0.3018 0.0271,-0.45278 -0.0486,-0.90835 -0.14806,-0.89535 -0.30474,-1.85072 -0.045,-0.27447 -0.0765,-0.48361 -0.0994,-0.662 0.16272,0.31715 0.32065,0.61833 0.62032,1.11436 -0.19415,-0.35837 -0.33978,-0.7374 -0.46104,-1.1262 0.27305,0.0169 0.55698,0.006 0.85029,-0.0123 0.28025,0.27063 0.62191,0.60359 0.89607,0.81523 0.24746,0.19106 0.50723,0.36266 0.77028,0.52674 0.28668,0.17879 0.58494,0.33403 0.87749,0.50098 0.0405,0.021 0.0672,-0.0421 0.0268,-0.0629 -0.29144,-0.16095 -0.59579,-0.29579 -0.87413,-0.4826 -0.25275,-0.16964 -0.49702,-0.36052 -0.71334,-0.58272 -0.16121,-0.16556 -0.3605,-0.46312 -0.5411,-0.74045 0.15108,-0.008 0.3035,-0.0143 0.4581,-0.0143 0.0736,0 0.15549,0.006 0.24111,0.0139 -0.035,0.0763 -0.0315,0.17458 0.0462,0.2599 0.15653,0.11566 0.30678,0.24234 0.46964,0.34694 0.37494,0.24083 0.75758,0.46734 1.14241,0.68855 0.0874,0.0503 0.15301,0.0863 0.23405,0.1324 -0.078,-0.0505 -0.15597,-0.10105 -0.22402,-0.14917 -0.35356,-0.24997 -0.67408,-0.55472 -0.9861,-0.86427 -0.10583,-0.10498 -0.1901,-0.23238 -0.27723,-0.35714 0.3692,0.0622 0.78941,0.15498 1.22986,0.25009 0.86043,0.18578 1.87301,0.46577 3.05025,0.75352 0.32874,0.0959 0.65818,0.1891 0.97274,0.32855 0.51287,0.22734 0.98055,0.56356 1.48479,0.81321 0.57015,0.28226 1.1576,0.52083 1.73633,0.78129 0.53226,0.23316 0.83256,-0.5935 0.30027,-0.82667 -0.58293,-0.23298 -1.17432,-0.44216 -1.74897,-0.69878 -0.66667,-0.29773 -1.39904,-0.67483 -2.05968,-1.09719 0.50189,-0.0663 1.38999,-0.075 1.84534,-0.0985 0.38529,-0.0197 0.77004,-0.0496 1.15506,-0.0743 0.007,0 0.007,-0.011 0,-0.011 -0.38502,-0.005 -0.77004,-0.01 -1.15506,-0.0151 -0.35899,-0.005 -0.7184,0.006 -1.07691,-0.0151 -0.27133,-0.0162 -0.43288,-0.034 -0.5779,-0.058 -0.0588,-0.0785 -0.10009,-0.18144 -0.10644,-0.28891 0.31043,0.0491 0.62574,0.0676 0.9385,0.0948 0.68276,0.0593 0.89495,0.0801 1.13014,0.0592 -0.37637,-0.0236 -0.75319,-0.0373 -1.12903,-0.0695 -0.31419,-0.0268 -0.62714,-0.073 -0.94072,-0.10707 0,-0.0788 0.0159,-0.15824 0.0633,-0.23047 0.068,-0.10413 0.13174,-0.21873 0.19614,-0.34243 0.24294,-0.0642 0.27226,-0.0694 0.9716,-0.22189 0.15878,-0.0244 0.12713,-0.2708 -0.0316,-0.24642 -0.4961,0.0343 -0.62783,0.0415 -0.73496,0.0503 0.0153,-0.0319 0.0282,-0.0571 0.0439,-0.0903 0.32073,-0.67583 1.14655,-2.86472 2.38644,-3.01698 0.35451,-0.0436 0.6483,-1.3482 0.39928,-1.44044 -1.27408,-0.47172 -2.31997,-1.25754 -2.89476,-2.27571 -0.0797,-0.14128 -0.13276,-0.25436 -0.17041,-0.34979 -0.006,-0.0717 -0.0114,-0.14353 -0.006,-0.21494 0.014,-0.1695 0.0428,-0.33715 0.0748,-0.50385 0.106361,-0.089 0.249131,-0.19558 0.602081,-0.43561 0.242469,-0.16491 0.50004,-0.30069 0.7502,-0.45114 0.0274,-0.0157 0.007,-0.0581 -0.0201,-0.0425 -0.25033,0.15196 -0.49176,0.32285 -0.75094,0.45563 -0.17418,0.0892 -0.35367,0.16433 -0.53401,0.23783 0.1139,-0.55549 0.19428,-0.84327 0.49345,-1.39183 0.0852,-0.15618 0.20645,-0.28493 0.30958,-0.42743 0.11378,-0.17562 -0.11247,-0.35213 -0.22621,-0.17653 -0.0869,0.19903 -0.54412,1.244 -0.57457,1.32153 -0.0982,0.25004 -0.17913,0.50797 -0.26721,0.76252 -0.003,0.008 -0.006,0.0166 -0.009,0.0249 -0.0274,0.0115 -0.0553,0.0221 -0.0826,0.0339 -0.0265,0.0157 -0.0526,0.0322 -0.0789,0.0482 -0.0621,-0.0467 -0.13571,-0.0995 -0.23517,-0.16673 -0.45135,-0.30532 -0.9231,-0.96611 -1.42187,-1.51196 -0.0776,-0.0849 -0.13306,-0.16068 -0.17007,-0.23579 0.12623,-0.0409 0.35674,-0.11763 0.37102,-0.12095 0.0433,-0.01 0.11208,-0.0221 0.17082,-0.0335 -0.18709,0.0162 -0.37679,0.029 -0.58089,0.0396 -0.0259,-0.13029 0.0111,-0.27245 0.12017,-0.46463 0.39206,-0.20886 0.46757,-0.19072 1.3739,-0.52306 0.41585,-0.15247 0.82976,-0.31092 1.24473,-0.46625 0.25771,-0.0742 0.16243,-0.4742 -0.0953,-0.40005 -1.72458,0.43466 -0.86638,0.17916 -2.52,0.74821 -0.26455,0.091 -0.52953,0.1817 -0.79412,0.27256 -0.0943,0.0324 -0.19013,0.0595 -0.2858,0.0879 0.1029,-0.16812 0.17825,-0.30214 0.22066,-0.39638 0.1097,-0.15511 0.23241,-0.30579 0.41791,-0.47728 0.36603,-0.33843 0.74861,-0.65865 1.15396,-0.93783 0.42119,-0.29012 0.87926,-0.51021 1.31881,-0.76538 0.013,-0.007 0.004,-0.0273 -0.01,-0.02 -0.44762,0.24402 -0.90932,0.45854 -1.34263,0.73187 -0.26183,0.16515 -0.83447,0.57376 -1.30244,0.95376 0.118222,-0.20779 0.321182,-0.51058 0.774412,-1.10168 0.23514,-0.30663 0.52914,-0.55256 0.79372,-0.82871 0.26832,-0.42429 -0.0233,-0.8431 -0.35872,-0.86304 z m -0.12877,4.41043 c 0.30882,-0.0268 0.62497,-0.0642 1.05571,-0.12587 0.56639,-0.081 1.13086,-0.17741 1.69577,-0.27052 -0.60259,0.0773 -2.06605,0.26382 -2.75148,0.39639 z m 2.75148,-0.39639 c 0.0881,-0.0113 0.32512,-0.0425 0.36205,-0.0474 0.007,-0.002 0.006,-0.0129 -0.003,-0.0119 -0.120039,0.0192 -0.23987,0.0394 -0.35986,0.0592 z m 0.69363,11.56527 c 0.0212,0.002 0.0424,0.002 0.0637,0.004 0.24464,0.0161 0.48893,0.0362 0.73346,0.0543 0.11599,-0.01 0.10326,-0.19017 -0.0127,-0.18021 -0.41672,0.0678 -0.60701,0.10646 -0.78444,0.12218 z m -5.63097,1.47355 c 0.73959,0.47958 1.87783,1.05321 2.5844,1.42369 -0.0196,-0.0101 -0.007,-0.0404 0.0127,-0.0307 -1.05138,-0.54951 -1.62171,-0.83826 -2.59707,-1.39302 z m -3.42315,-0.26317 c 0.009,0.0157 0.0159,0.0321 0.0246,0.0478 0.18669,0.33508 0.395269,0.65435 0.609179,0.9697 -0.20577,-0.32109 -0.40817,-0.64477 -0.60656,-0.97133 -0.0111,-0.0183 -0.0164,-0.0285 -0.0271,-0.0462 z m 0.63373,1.01752 c 0.14674,0.22901 0.29443,0.45752 0.4473,0.6816 0.0859,0.12589 0.17428,0.24952 0.26382,0.37227 -0.0709,-0.11319 -0.14931,-0.23548 -0.25043,-0.38249 -0.15364,-0.22338 -0.30824,-0.44667 -0.46069,-0.67138 z m 0.71112,1.05387 c 0.4091,0.65352 0.38132,0.78805 0.6196,0.82544 -0.2082,-0.27373 -0.41669,-0.5472 -0.6196,-0.82544 z m 0.6196,0.82544 c 0.0914,0.12021 0.18362,0.23969 0.2735,0.36125 0.21423,0.13643 0.38989,-0.19663 0.17566,-0.33304 -0.22048,-0.0132 -0.35563,-0.0136 -0.44916,-0.0282 z m -3.03019,-15.25035 c 0.0183,-0.0324 0.0374,-0.0642 0.0554,-0.0968 0.0985,-0.17894 0.19389,-0.36003 0.2899,-0.54062 -0.13303,0.23485 -0.24683,0.43869 -0.34533,0.63747 z m 0.34533,-0.63747 c 0.0787,-0.13902 0.15827,-0.27899 0.26122,-0.46422 0.004,-0.007 -0.006,-0.0134 -0.009,-0.006 -0.084,0.15686 -0.168381,0.31358 -0.251911,0.47076 z m 4.66341,-2.76975 c -0.0519,-0.009 -0.10916,0.0131 -0.14623,0.0838 -0.0848,0.1437 -0.18135,0.27996 -0.25453,0.43112 -0.0858,0.17734 -0.15322,0.36492 -0.2214,0.55126 -0.16471,0.45008 -0.14343,0.41707 -0.22627,0.83688 0,0.32966 0.4246,0.32966 0.4246,0 0.004,-0.10123 0,-0.20336 0.0132,-0.30362 0.0367,-0.26706 0.15203,-0.73269 0.25603,-0.96234 0.0656,-0.14487 0.16722,-0.26638 0.2508,-0.39964 0.0618,-0.11779 -0.01,-0.22189 -0.0964,-0.23742 z"
       style="fill:#1f2123;fill-opacity:1;stroke:none;stroke-width:0.264583px;stroke-linecap:butt;stroke-linejoin:miter;stroke-opacity:1" />
  </g>
</svg>
