<?xml version="1.0" encoding="UTF-8" standalone="no"?>
<svg
   xmlns:dc="http://purl.org/dc/elements/1.1/"
   xmlns:cc="http://creativecommons.org/ns#"
   xmlns:rdf="http://www.w3.org/1999/02/22-rdf-syntax-ns#"
   xmlns:svg="http://www.w3.org/2000/svg"
   xmlns="http://www.w3.org/2000/svg"
   xmlns:sodipodi="http://sodipodi.sourceforge.net/DTD/sodipodi-0.dtd"
   xmlns:inkscape="http://www.inkscape.org/namespaces/inkscape"
   inkscape:export-ydpi="96"
   inkscape:export-xdpi="96"
   inkscape:export-filename="D:\Calcatz\Icon Pack\Adventure Narative Inspired by Arrival\GUI\Choices\png\underline - detail 2.png"
   sodipodi:docname="underline - detail 2.svg"
   inkscape:version="1.0 (4035a4fb49, 2020-05-01)"
   id="svg9101"
   version="1.1"
   viewBox="0 0 17.165007 3.4817572"
   height="3.4817572mm"
   width="17.165007mm">
  <defs
     id="defs9095" />
  <sodipodi:namedview
     inkscape:window-maximized="1"
     inkscape:window-y="-8"
     inkscape:window-x="-8"
     inkscape:window-height="705"
     inkscape:window-width="1366"
     fit-margin-bottom="0"
     fit-margin-right="0"
     fit-margin-left="0"
     fit-margin-top="0"
     showgrid="false"
     inkscape:document-rotation="0"
     inkscape:current-layer="layer1"
     inkscape:document-units="mm"
     inkscape:cy="15.102406"
     inkscape:cx="21.838149"
     inkscape:zoom="10.738351"
     inkscape:pageshadow="2"
     inkscape:pageopacity="0.0"
     borderopacity="1.0"
     bordercolor="#666666"
     pagecolor="#ffffff"
     id="base" />
  <metadata
     id="metadata9098">
    <rdf:RDF>
      <cc:Work
         rdf:about="">
        <dc:format>image/svg+xml</dc:format>
        <dc:type
           rdf:resource="http://purl.org/dc/dcmitype/StillImage" />
        <dc:title></dc:title>
      </cc:Work>
    </rdf:RDF>
  </metadata>
  <g
     transform="translate(-90.762351,-136.23809)"
     id="layer1"
     inkscape:groupmode="layer"
     inkscape:label="Layer 1">
    <path
       id="path4921"
       d="m 93.356045,136.23915 c -0.13126,-0.001 -0.24068,0.11195 -0.11806,0.20297 0.19528,0.12162 0.42014,0.22384 0.58586,0.36485 0.0968,0.0823 0.19251,0.17622 0.28512,0.27606 -0.0311,-0.0169 -0.0767,-0.0371 -0.24256,-0.1208 -0.007,-0.005 -0.0171,0.002 -0.0102,0.007 0.22337,0.20944 0.12762,0.12572 0.27966,0.25486 0.0341,0.0236 0.0751,0.0166 0.097,-0.002 0.0568,0.0668 0.10926,0.13539 0.16191,0.20452 -0.17818,-0.0874 -0.35762,-0.17375 -0.53885,-0.25818 -0.16838,-0.0762 -0.32421,0.0881 -0.15582,0.16432 0.094,0.0337 0.19508,0.0592 0.28191,0.10115 0.0533,0.0257 0.10827,0.0577 0.1635,0.0917 0.002,0.004 0.002,0.007 0.002,0.0113 -0.13731,-0.0529 -0.2691,-0.11373 -0.40766,-0.16276 -0.0742,-0.0262 -0.14973,-0.0507 -0.22592,-0.0742 0.19213,0.0721 0.44894,0.17871 0.55038,0.22793 0.0285,0.0139 0.0552,0.0293 0.0819,0.0448 -0.0263,0.0799 -0.20381,0.1022 -0.36286,0.10336 -0.12823,0 -0.34434,0.0234 -0.59996,0.0583 -0.02351,-0.0184 -0.04591,-0.0376 -0.07361,-0.0528 -0.22815,-0.12552 -0.48776,-0.18346 -0.75643,-0.26856 0.17555,0.0668 0.35866,0.1249 0.52669,0.20031 0.11808,0.053 0.14858,0.0896 0.18782,0.13738 -0.80897,0.11573 -1.95036,0.32832 -2.27441,0.35072 -0.0412,0.003 -0.0386,0.0988 -0.009,0.10734 0.23555,0.0672 1.65849,0.24851 2.49008,0.32177 -0.0468,0.0245 -0.11128,0.0536 -0.26336,0.12634 -0.0734,0.0351 -0.11553,0.0556 -0.15934,0.0768 0.0513,-0.0216 0.0777,-0.0342 0.16639,-0.07 0.0874,-0.0352 0.1784,-0.0659 0.26749,-0.099 0.003,0.0461 0.004,0.0915 0,0.12876 -0.009,0.0661 -0.0289,0.13149 -0.0496,0.19634 -0.0157,0.0495 -0.0396,0.0975 -0.0595,0.14621 -0.008,0.0225 0.0383,0.0301 0.0461,0.007 0.01,-0.0506 0.0142,-0.10179 0.0297,-0.15173 0.0203,-0.0657 0.0531,-0.12933 0.0774,-0.19436 0.0323,-0.0864 0.0439,-0.12197 0.0537,-0.15791 0.1677,0.0136 0.31473,0.0236 0.39966,0.0236 0.097,0.003 0.25159,0.0186 0.38974,0.0572 -0.0186,0.0388 -0.0383,0.0772 -0.0755,0.10777 -0.031,0.0255 -0.18631,0.0834 -0.24542,0.10624 -0.0973,0.0435 -0.008,0.13849 0.0889,0.095 0.0357,-0.0186 0.0754,-0.0341 0.1072,-0.0559 0.0478,-0.0327 0.0888,-0.07 0.13023,-0.10668 0.0619,-0.0548 0.0867,-0.0791 0.11104,-0.10557 0.0349,0.0155 0.0669,0.0329 0.0934,0.0532 4e-5,0.003 -3e-5,0.003 0,0.007 0,0.062 0.005,0.12452 -0.005,0.18618 -0.006,0.0361 -0.0292,0.0697 -0.0409,0.10513 -0.0227,0.0686 0.0163,0.0536 -0.0384,0.0669 -0.0574,0.0769 0.10005,0.13274 0.15742,0.0559 0.004,-0.0155 0.0326,-0.11751 0.0326,-0.11926 0,-0.0368 -0.0192,-0.0724 -0.0224,-0.1091 -0.003,-0.033 -0.003,-0.0661 -0.004,-0.0992 0.0471,0.0624 0.10439,0.13496 0.13665,0.17536 0.0984,0.13686 0.37897,0.0408 0.28062,-0.0961 -0.19822,-0.21078 -0.007,0.0181 -0.0614,-0.15349 -0.008,-0.0283 0.0202,-0.0642 0.0659,-0.0925 0.0751,0.041 0.0998,0.0544 0.42749,0.23344 0.0132,0.008 0.0296,-0.005 0.0164,-0.013 -0.27019,-0.179 -0.3273,-0.20964 -0.38013,-0.25046 0.0297,-0.01 0.0617,-0.0157 0.0938,-0.0148 0.0961,0.003 0.19193,0.008 0.28797,0.0109 0.006,0.01 0.0164,0.0185 0.0352,0.0243 0.15686,0.0515 0.0823,0.0236 0.25696,0.0989 0.0569,0.0245 0.11348,0.0493 0.17023,0.074 0.0269,0.0132 0.0541,-0.0131 0.0272,-0.0263 -0.0518,-0.0297 -0.103408,-0.0594 -0.155188,-0.089 -0.0849,-0.0486 -0.1081,-0.0626 -0.12959,-0.0742 0.10164,0.004 0.20337,0.006 0.30493,0.0115 0.16691,0.008 0.33733,0.017 0.50686,0.0259 0.0319,0.0359 0.0567,0.0737 0.0877,0.12877 0.0635,0.1129 0.062,0.082 0.0282,0.16299 0.006,0.0603 0.12869,0.0549 0.1232,-0.005 -0.0623,-0.1495 0.0245,0.0453 -0.10176,-0.17272 -0.0232,-0.0402 -0.0381,-0.0748 -0.054,-0.10954 0.0746,0.004 0.14811,0.008 0.22205,0.0126 0.0515,0.0431 0.0999,0.0877 0.13536,0.13737 0.0457,0.064 0.0728,0.13404 0.0973,0.2034 0.0185,0.0526 0.0207,0.10735 0.031,0.16101 0.0121,0.0487 0.11193,0.0367 0.0998,-0.0119 -0.0203,-0.0551 -0.0388,-0.11046 -0.0611,-0.16519 -0.0453,-0.11073 -0.0936,-0.21181 -0.14945,-0.31495 0.59048,0.0397 1.13529,0.10166 1.47704,0.23322 0.045,0.0351 0.11702,0.0924 0.2486,0.1959 0.30747,0.24182 0.322,0.20057 0.39199,0.47596 0.004,0.0139 -0.009,0.0274 -0.0134,0.0411 0.0984,0.17839 0.46382,0.0823 0.36542,-0.0961 -0.20335,-0.10617 -0.0309,-0.004 -0.27391,-0.23676 -0.0973,-0.0932 -0.20821,-0.17966 -0.30398,-0.27364 -0.0354,-0.0347 -0.0685,-0.0706 -0.10143,-0.10645 0.0352,0.0126 0.0687,0.0248 0.15487,0.0519 0.0988,0.031 0.20621,0.0483 0.30302,0.0822 0.19758,0.0691 0.2469,0.10986 0.39614,0.20297 0.0691,0.0344 0.13984,-0.0329 0.0707,-0.0674 -0.0614,-0.0215 -0.12453,-0.041 -0.1843,-0.0647 -0.42008,-0.16624 -0.0832,-0.0533 -0.53342,-0.21975 -0.0793,-0.0293 -0.16659,-0.0483 -0.24221,-0.0819 -0.002,0 -0.002,-0.001 -0.003,-0.002 0.14443,0.0121 0.29201,0.0246 0.41598,0.0349 0.004,0.0138 0.0162,0.0272 0.0406,0.0369 0.24033,0.0632 0.41679,0.1066 0.63004,0.17933 -0.12779,-0.0634 -0.25104,-0.13152 -0.38014,-0.1937 0.0649,0.005 0.13803,0.0111 0.19486,0.015 0.21354,0.0328 0.4249,0.0719 0.637073,0.10911 0.0235,0.009 0.0406,0.0146 0.0758,0.0307 0.0661,0.0303 0.12643,0.0661 0.18942,0.0994 0.0617,0.0326 0.12442,0.0645 0.18464,0.0985 0.0506,0.0286 0.0984,0.0596 0.14782,0.0892 0.03,0.018 0.0602,0.0357 0.0902,0.0537 0.0502,0.025 0.10133,-0.0238 0.0512,-0.0488 -0.0336,-0.0137 -0.0684,-0.0259 -0.10047,-0.0411 -0.0536,-0.0253 -0.10452,-0.0532 -0.15614,-0.0804 -0.062,-0.0327 -0.12422,-0.0655 -0.18495,-0.0994 -0.0421,-0.0234 -0.0829,-0.0477 -0.12415,-0.0718 1.23268,0.20275 0.68481,0.0689 1.63638,0.3463 0.19344,0.0457 0.28686,-0.14315 0.0934,-0.18883 -0.95641,-0.16398 -0.52541,-0.0815 -1.6959,-0.33217 -0.0646,-0.0138 -0.20629,-0.0447 -0.304612,-0.0663 -0.0521,-0.0236 -0.0687,-0.0492 -0.0547,-0.0749 0.0469,0.003 0.0968,0.007 0.143672,0.0109 -0.046,-0.006 -0.0921,-0.011 -0.137572,-0.0183 0.0545,-0.0698 0.332872,-0.1391 0.745852,-0.17182 0.25595,-0.0203 0.54397,-0.0417 0.8681,-0.0643 0.23561,-0.0164 0.47207,-0.0231 0.70877,-0.0269 0.004,0.006 0.01,0.0118 0.0147,0.0179 0.0393,0.0507 0.0771,0.10203 0.11552,0.15305 0.011,0.0211 0.0545,0.0105 0.0435,-0.0106 -0.019,-0.0538 -0.035,-0.10826 -0.057,-0.16145 0.055,0 0.11003,-0.001 0.16511,-0.002 0.0998,0.0129 0.19365,0.0262 0.23997,0.0376 0.22593,0.055 0.36587,0.13779 0.57054,0.21511 0.31431,0.11874 0.10539,0.009 0.32861,0.13958 0.0229,0.0171 0.0459,0.0343 0.0688,0.0515 0.0969,0.0558 0.21147,-0.0387 0.11457,-0.0945 -0.0346,-0.0174 -0.0694,-0.0347 -0.104,-0.0521 -0.0498,-0.0171 -0.0982,-0.037 -0.14975,-0.0515 -0.66488,-0.18556 0.31974,0.11519 -0.49822,-0.12279 -0.10874,-0.0317 -0.21381,-0.0692 -0.32093,-0.10336 -0.0219,-0.007 -0.044,-0.0138 -0.0659,-0.0208 0.18768,10e-4 0.3754,0.002 0.56316,0.004 0.12959,0.0102 0.10844,0.005 0.2995,0.0663 0.0731,0.0234 0.1481,0.0449 0.21663,0.0742 0.0674,0.0288 0.12497,0.0675 0.18941,0.0994 0.0571,0.0283 0.11691,0.0538 0.17504,0.0811 0.038,0.0178 0.0755,0.0361 0.11327,0.0541 0.0649,0.0204 0.10646,-0.043 0.0416,-0.0634 -0.0401,-0.009 -0.0821,-0.0149 -0.12031,-0.0272 -0.16096,-0.0519 -0.23159,-0.0957 -0.38205,-0.16409 -0.0902,-0.041 -0.18168,-0.0811 -0.27518,-0.11861 0.10492,0.001 0.21004,0.002 0.31486,0.002 0.26308,-0.002 0.35289,0.0675 0.43389,0.10402 0.0199,0.0123 0.0438,0.0228 0.0768,0.0285 0.2119,0.0212 0.42437,0.039 0.63708,0.0552 0.058,0.0316 0.1163,0.0629 0.17375,0.095 0.10472,0.0584 0.2057,0.11991 0.31103,0.17779 0.0196,0.0107 0.0168,0.009 0.0316,0.0176 -0.12989,-0.0807 -0.29352,-0.17164 -0.34013,-0.19788 -0.0524,-0.0295 -0.10366,-0.0603 -0.15519,-0.0908 0.38289,0.029 0.76693,0.0502 1.15127,0.0693 -0.0401,-0.004 -0.0803,-0.006 -0.12031,-0.0104 -0.76696,-0.082 -0.93836,-0.12283 -1.33623,-0.24382 0.14022,0.0228 0.25592,0.0424 0.36253,0.059 -0.0745,-0.0162 -0.15491,-0.0378 -0.23934,-0.0638 0.19952,0.0205 0.39885,0.0411 0.59836,0.0616 0.38577,0.037 0.70788,-0.0763 1.15129,-0.18641 0.031,0 0.10017,0.003 0.24639,0.0117 0.43337,0.025 0.43444,0.0323 0.85817,0.0859 0.058,0.0106 0.11576,0.0213 0.17376,0.032 0.0436,0.006 0.0561,-0.0363 0.0124,-0.0424 -0.0609,-0.002 -0.1218,-0.004 -0.18273,-0.006 -0.14143,-0.0138 -0.28354,-0.0247 -0.42428,-0.0415 -0.14449,-0.0173 -0.28736,-0.0405 -0.43102,-0.0607 -0.0332,-0.005 -0.0664,-0.0102 -0.0995,-0.0157 0.20108,-0.0456 0.42571,-0.0879 0.69372,-0.11439 0.0806,-0.008 0.15829,-0.36855 -0.0329,-0.38253 -0.63264,-0.0463 -1.76692,-0.18442 -1.76692,-0.18442 0,0 -0.19497,0.0338 -0.29247,0.0506 -0.0932,-0.0376 -0.18111,-0.0835 -0.27198,-0.125 0.24892,-0.0505 0.61894,-0.097 0.98138,-0.1323 -0.40451,0.002 0.12581,-0.0485 -1.0633,-0.025 -0.0103,0 -0.0204,0.002 -0.0307,0.003 0.10744,-0.035 0.21523,-0.0694 0.32544,-0.0994 0.0279,0.005 0.0598,0.003 0.0906,-0.0153 0.005,-0.004 0.01,-0.008 0.015,-0.0115 0.007,0.0423 0.0705,0.0797 0.14847,0.0528 0.12633,-0.0272 0.33332,-0.0735 0.44286,-0.0848 0.14017,-0.0144 0.28265,-0.0168 0.42429,-0.0205 0.43901,-0.0115 0.55352,-0.006 0.87482,0.007 -0.3671,-0.0171 -0.16594,-0.009 -0.87514,-0.0256 -0.13643,-0.003 -0.27276,-0.0111 -0.40926,-0.0119 0.21424,-0.009 0.40538,0.004 0.66076,0.015 0.32754,-0.0307 0.26481,-0.35045 -0.0627,-0.31979 -0.1268,0.0324 -0.25126,0.0697 -0.38046,0.0972 -0.17293,0.0368 -0.34785,0.0691 -0.52284,0.10094 0.1046,-0.0559 0.21881,-0.11122 0.32863,-0.16144 -0.0822,0.0302 -0.13679,0.0508 -0.25854,0.0945 -0.19797,0.0711 -0.29537,0.10344 -0.34495,0.1175 -0.015,0.003 -0.03,0.006 -0.0451,0.008 0.006,-0.0115 0.10355,-0.0524 -0.0323,0.006 -0.17018,0.0315 -0.3394,0.0651 -0.50717,0.10246 -0.002,0 -0.002,0 -0.002,0 -0.0856,0.0207 -0.19187,0.0371 -0.3043,0.0512 0.0219,-0.018 0.0437,-0.0361 0.0688,-0.0521 0.0751,-0.0479 0.16669,-0.0821 0.2435,-0.12876 0.56807,-0.34482 -0.1005,-0.006 0.64219,-0.35645 0.002,0 4e-5,-0.002 -0.002,-0.001 -0.1433,0.048 -0.29473,0.0858 -0.43005,0.14378 -0.10335,0.0443 -0.1886,0.10613 -0.28094,0.16079 -0.0778,0.0461 -0.15127,0.0957 -0.22942,0.14156 -0.0664,0.039 -0.1349,0.0762 -0.20415,0.11286 -0.23549,0.0219 -0.47041,0.0335 -0.60124,0.036 -0.24821,0.005 -0.48675,0.0328 -0.73628,0.0665 0.15438,-0.1522 0.42127,-0.32358 0.61245,-0.42558 0.008,-0.004 0.016,-0.008 0.024,-0.0119 -0.15682,0.0691 -0.31034,0.14129 -0.48638,0.2372 -0.0947,0.0516 -0.17654,0.11359 -0.26589,0.16962 -0.0318,0.02 -0.0645,0.0393 -0.0969,0.0587 -0.27992,0.0401 -0.58768,0.0849 -0.96539,0.12103 0.0129,-0.0132 0.0269,-0.026 0.0387,-0.0397 0.19632,-0.22679 0.11615,-0.17839 0.34942,-0.41587 0.0487,-0.0496 0.10255,-0.0964 0.15616,-0.14356 0.0261,-0.0171 0.0523,-0.0341 0.0784,-0.0512 -0.0242,0.0152 -0.0481,0.0306 -0.0723,0.0457 0.0188,-0.0165 0.0376,-0.0329 0.056,-0.0497 0.0428,-0.0324 0.0855,-0.0648 0.12831,-0.0972 0.0483,-0.0492 -0.0525,-0.0962 -0.1008,-0.047 -0.0258,0.0406 -0.0514,0.0811 -0.0771,0.12169 -0.23534,0.23836 -0.21116,0.21579 -0.19261,0.19458 -0.002,0.001 -0.003,0.002 -0.004,0.003 0.002,-0.001 0.002,-0.001 0.004,-0.002 0.003,-0.003 -0.006,0.005 -0.004,0.002 0.006,-0.008 -0.002,-0.004 -0.0282,0.0186 -0.0183,0.0118 -0.0363,0.0238 -0.0547,0.0356 -0.23933,0.15231 -0.48005,0.29846 -0.72316,0.4468 -0.006,0.005 -0.008,0.009 -0.0114,0.0137 -0.2488,0.0165 -0.49758,0.0303 -0.74652,0.0422 -0.0134,-0.0874 -0.0402,-0.17388 -0.0464,-0.2617 -0.002,-0.0137 -0.002,-0.0274 -0.002,-0.0411 0.009,-0.005 0.0164,-0.0114 0.0253,-0.0166 -0.008,0.004 -0.017,0.007 -0.0253,0.0104 -0.002,-0.0288 -0.002,-0.0576 -0.002,-0.0864 -0.009,0.0321 -0.0167,0.0644 -0.0243,0.0967 -0.10839,0.0454 -0.22102,0.0862 -0.33021,0.13075 -0.0655,0.0268 -0.13395,0.0509 -0.19391,0.0833 -0.002,0.001 -0.003,0.003 -0.005,0.004 -0.0972,0.0511 -0.234932,0.0857 -0.364802,0.1049 0.01,-0.0253 0.0201,-0.0505 0.0253,-0.0764 0.0575,-0.28227 0.04,-0.24894 0.0323,-0.23234 0.0198,-0.0122 0.0333,-0.0309 0.0333,-0.0561 -0.004,-0.011 -0.006,-0.0199 -0.009,-0.0303 0.007,-0.0241 -0.006,0.0172 0.0442,-0.15703 0.0293,-0.10146 0.044,-0.20571 0.0912,-0.3039 0.04405,-0.0915 0.120142,-0.174 0.180192,-0.26105 0.0482,-0.037 0.0965,-0.0739 0.14463,-0.11087 0.0396,-0.0422 -0.0471,-0.0811 -0.0867,-0.0388 -0.0276,0.0475 -0.055,0.0951 -0.0825,0.14267 -0.260092,0.43192 -0.07363,0.10089 -0.297602,0.56362 -0.007,0.0153 -0.016,0.0303 -0.024,0.0455 -0.004,-0.0236 -0.006,-0.048 -0.004,-0.0758 0.003,-0.0684 0.0154,-0.13673 0.0333,-0.20407 0.0197,-0.0747 0.0527,-0.14739 0.079,-0.22108 0.0128,-0.0331 -0.055,-0.0456 -0.0678,-0.0126 -0.0273,0.0751 -0.0536,0.1503 -0.0816,0.22527 -0.0264,0.0709 -0.0609,0.1406 -0.0813,0.21246 -0.012,0.0421 -0.0108,0.0854 -0.017,0.1281 -0.0159,-0.0636 -0.0336,-0.12698 -0.0445,-0.19105 -0.01,-0.0588 -0.008,-0.1182 -0.0124,-0.17734 -0.0764,-0.16537 -0.41531,-0.0907 -0.33887,0.0746 0.0432,0.0389 0.10808,0.0699 0.12959,0.11662 0.0463,0.10052 0.0487,0.20134 0.0375,0.30235 -0.004,0.001 -0.007,0.003 -0.01,0.004 -0.21456,0.078 -0.42317,0.13563 -0.63387,0.21467 0.0126,-0.0104 0.03,-0.0182 0.13375,-0.0903 0.15731,-0.10814 -0.0641,-0.26162 -0.22143,-0.15349 -0.0846,0.0544 -0.18311,0.10002 -0.25374,0.1632 -0.0192,0.0171 -0.0295,0.0319 -0.0425,0.0473 -0.0157,0.0106 -0.0324,0.0192 -0.0486,0.0287 0.0489,-0.14197 0.0192,-0.0974 0.10463,-0.27718 0.0149,-0.0315 0.0116,-0.0218 0.0202,-0.0382 0.0261,0.0219 0.0819,0.0258 0.10783,-0.01 0.071,-0.11598 0.0298,-0.0603 0.12382,-0.16696 0.035,-0.04 -0.0469,-0.0742 -0.0819,-0.0342 -0.0627,0.0697 -0.078,0.0823 -0.0992,0.10315 0.003,-0.009 0.003,-0.008 0.0192,-0.0612 0.0132,-0.0424 -0.0737,-0.0554 -0.087,-0.013 -0.004,0.0292 -0.004,0.0585 -0.0102,0.0874 -0.0136,0.0654 -0.0598,0.21296 -0.0871,0.27098 -0.0249,0.0533 -0.0602,0.10381 -0.0889,0.15616 -0.0126,0.023 -0.009,0.0171 -0.0167,0.0322 -0.28986,0.12615 -0.64329,0.1124 -0.95866,0.11176 -0.006,-10e-6 -0.0106,0 -0.016,0 0.0267,-0.0975 0.0568,-0.20237 0.0803,-0.24846 0.0405,-0.0793 0.1016,-0.15276 0.15743,-0.22748 0.009,-0.0116 0.0111,-0.0152 0.0185,-0.0252 0.009,-0.003 0.0183,-0.006 0.0275,-0.009 0.0917,-0.0259 0.19119,-0.0359 0.286699,-0.0539 0.0485,-0.0122 0.0233,-0.0595 -0.0253,-0.0473 -0.0905,0.0297 -0.18272,0.0568 -0.27134,0.089 -0.002,0 -0.002,0.001 -0.003,0.001 0.10202,-0.14037 0.0745,-0.11527 0.24662,-0.21688 0.062,-0.0641 -0.0696,-0.12458 -0.13151,-0.0605 -0.0524,0.12672 -0.0643,0.16856 -0.15519,0.29307 -0.23084,0.0855 -0.45836,0.18111 -0.66652,0.29042 -0.0823,0.0432 -0.15946,0.0908 -0.23679,0.13826 0,-0.0325 -0.002,-0.0463 0,-0.093 0,-0.043 0.004,-0.086 0.006,-0.12898 -0.004,0.0428 -0.008,0.0854 -0.018,0.12765 -0.0121,0.0495 -0.0235,0.0885 -0.0352,0.12369 -0.01,0.006 -0.0191,0.0118 -0.0288,0.0176 -0.0142,0.009 -0.0281,0.0173 -0.0422,0.0259 -0.31177,-0.002 -0.62351,-0.003 -0.9353,-0.004 0.0586,-0.0285 0.1155,-0.0587 0.17887,-0.0815 0.18698,-0.0671 0.641,-0.19028 0.88282,-0.25795 0,0.0163 -0.002,0.0325 -0.002,0.0488 0.002,-0.0167 0.005,-0.0332 0.006,-0.0499 0.0367,-0.0103 0.10718,-0.0296 0.1299,-0.0362 0.21351,-0.0625 0.42429,-0.12944 0.63643,-0.19413 -0.12244,0.0361 -0.4544,0.13387 -0.76601,0.22483 0.003,-0.045 0.005,-0.0901 0.01,-0.13494 0,0.004 -0.007,0.003 -0.007,0 -0.002,0.0454 -0.004,0.0907 -0.006,0.13604 -0.18885,0.0551 -0.3922,0.1147 -0.47262,0.13627 -0.14045,0.0376 -0.2855,0.0664 -0.42684,0.10248 -0.68066,0.17359 0.0609,-0.003 -0.38271,0.10115 -0.003,0.001 -0.004,0.003 -0.007,0.004 -0.0422,0 -0.0845,0 -0.1267,-0.001 0.0328,-0.0322 0.0662,-0.064 0.0979,-0.0967 0.073,-0.0754 0.13657,-0.15524 0.2147,-0.22815 0.18635,-0.17388 0.3146,-0.27453 0.46204,-0.38539 -0.0338,0.0223 -0.0683,0.0442 -0.10015,0.0678 -0.50326,0.37312 -0.23011,0.20702 -0.61885,0.52321 -0.0458,0.0373 -0.099,0.0699 -0.14813,0.10512 -0.0415,-0.0185 -0.0812,-0.0556 -0.0979,-0.11021 0,-0.001 -0.002,0 -0.002,-0.001 -0.007,-0.0185 -0.0116,-0.0371 -0.0131,-0.0561 -0.008,-0.10488 -0.0116,-0.21186 0.0176,-0.31493 0.0272,-0.0959 0.0996,-0.18286 0.14943,-0.27431 0.008,-0.0171 -0.0268,-0.0251 -0.0349,-0.008 -0.0441,0.10053 -0.2076,0.46624 -0.24509,0.58482 -0.04158,-0.1433 -0.05868,-0.28867 -0.06558,-0.43464 -0.008,0.0599 -0.0181,0.11977 -0.024,0.17976 -0.0223,0.22904 -0.0128,0.19649 -0.0217,0.23808 -0.0373,-0.0343 -0.0751,-0.0685 -0.111678,-0.10313 -0.83768,-0.79235 -0.42284,-0.37435 -1.09433,-1.07865 -0.0409,-0.0303 -0.0868,-0.0431 -0.13054,-0.0433 z m 1.38231,0.80722 c 0.004,-0.0272 0.008,-0.0544 0.009,-0.0817 0.004,-0.0881 -0.007,-0.17621 -0.0105,-0.26436 -2e-5,0.003 -0.007,0.003 -0.007,0 0.002,0.115 0.003,0.23067 0.008,0.34609 z m 1.158,-0.0819 c 0.0784,-0.0517 0.15905,-0.10178 0.23775,-0.15327 0.004,-0.005 0.008,-0.009 0.0111,-0.0139 -0.01,0.001 -0.0194,0.001 -0.0291,0.002 -0.0924,0.0693 -0.1522,0.11436 -0.21983,0.1652 z m 0.24896,-0.16719 c 0.0375,-0.003 0.0751,-0.005 0.11263,-0.007 0.0645,-0.0273 0.009,-0.0903 -0.056,-0.0629 -0.0188,0.0234 -0.0378,0.0468 -0.0567,0.0702 z m 4.439705,0.43001 c 0.009,-0.0338 0.0191,-0.0677 0.0256,-0.10182 0.007,-0.036 0.009,-0.0722 0.0128,-0.10844 -0.0129,0.0357 -0.0248,0.0715 -0.0304,0.108 -0.006,0.034 -0.007,0.0681 -0.008,0.10226 z m 0.0384,-0.21026 c 0.0111,-0.0305 0.023,-0.061 0.0326,-0.0916 0.002,-0.0106 -0.0198,-0.0126 -0.0218,-0.002 -0.004,0.0313 -0.008,0.0625 -0.0108,0.0939 z m -0.0118,0.28624 c 0.004,-0.002 0.008,-0.003 0.0111,-0.005 0.21499,-0.0972 0.32279,-0.14765 0.39359,-0.18176 -0.1274,0.0461 -0.24968,0.0968 -0.3955,0.1802 -0.003,0.002 -0.006,0.004 -0.009,0.006 z m 0.40478,-0.1864 c 0.0925,-0.0335 0.18518,-0.0643 0.30429,-0.10536 0.0293,-0.0107 0.007,-0.0395 -0.0221,-0.0287 -0.97042,0.40673 0.0672,-0.0344 -0.2822,0.13406 z m 1.44502,-0.2224 c 0.0391,-0.0246 0.0786,-0.049 0.11711,-0.074 0.002,-0.001 -5e-5,-0.002 -0.002,-0.001 -0.0384,0.025 -0.0769,0.0499 -0.11519,0.0751 z m 1.19192,0.0638 c 0.13797,-0.0608 0.27799,-0.1192 0.44477,-0.19061 -0.006,0.003 -0.0126,-0.003 -0.006,-0.006 -0.14599,0.0658 -0.29907,0.12475 -0.43869,0.19677 z m 2.38768,-0.0654 c 0.33441,-0.12269 0.40897,-0.15587 0.34238,-0.13915 -0.0322,0.0115 -0.0656,0.0215 -0.0973,0.0338 -0.0719,0.0278 -0.15713,0.0651 -0.24511,0.10535 z m 0.34238,-0.13915 c 0.0727,-0.0261 0.14524,-0.0524 0.21951,-0.0764 -0.16503,0.0524 -0.32156,0.10205 -0.21951,0.0764 z m 0.91867,0.44481 c 0.0609,0.003 0.029,0.001 0.13503,0.006 -0.002,0 -0.002,-0.001 0,-0.001 -0.0655,-0.003 -0.0842,-0.003 -0.13503,-0.005 z m -1.22743,0.19458 c 0.13889,-0.001 0.38537,-0.008 0.85306,-0.0263 0.12705,-0.005 0.25349,-0.0147 0.37981,-0.0256 -0.12735,-0.007 -0.25457,-0.0118 -0.38206,-0.008 -0.207,0.005 -0.52534,0.0285 -0.85081,0.0603 z m 1.23287,-0.0519 c 0.13799,0.008 0.27601,0.0175 0.41406,0.0229 0.0602,-0.001 0.0576,-0.06 -0.002,-0.0587 -0.13734,0.0106 -0.27431,0.0239 -0.41149,0.0358 z m -2.20722,1.1648 c 0.16025,0.035 0.31987,0.0537 0.57022,0.0689 0.11078,0.007 0.22231,0.0103 0.33372,0.0102 -0.11099,-0.003 -0.22207,-0.009 -0.33245,-0.0168 -0.24795,-0.0165 -0.41038,-0.0373 -0.57149,-0.0623 z m 0.90394,0.0791 c 0.0761,0.002 0.15212,0.002 0.22783,-0.002 0.16508,-0.01 0.32293,-0.0511 0.48444,-0.0766 0.002,0 0.002,-0.001 0,-0.001 -0.1614,0.0245 -0.31963,0.0626 -0.48411,0.0736 -0.0758,0.005 -0.15192,0.007 -0.22816,0.007 z m 0.19007,0.11617 c 0.43875,0.0404 0.88287,0.0498 1.32408,0.0762 -0.0149,-0.001 -0.0131,-0.0161 0.002,-0.0148 -0.44174,-0.0201 -0.884,-0.0395 -1.326,-0.0614 z m -0.65597,0.2193 c 0.0635,0.0395 0.12108,0.077 0.1488,0.1025 0.0173,0.0159 0.0116,0.0388 0.0173,0.0583 0.0537,0.0402 0.13589,-0.0122 0.0822,-0.0523 -0.13151,-0.0374 -0.11519,-0.0339 -0.24832,-0.10844 z m -5.45114,-0.20031 c 0.1231,0.0159 0.24714,0.0288 0.37116,0.0409 0.0637,0.006 0.14809,0.0118 0.22079,0.0179 -0.073,-0.008 -0.14597,-0.0169 -0.21919,-0.0241 -0.13364,-0.0131 -0.25281,-0.0245 -0.37276,-0.0347 z m 0.59195,0.0588 c 0.12603,0.0143 0.25196,0.0285 0.37886,0.0382 1.99855,0.15218 -0.36798,-0.0593 0.91899,0.0583 0.0428,10e-4 0.0449,-0.0408 0.002,-0.0418 -0.11268,0.001 -0.22527,0.008 -0.3379,0.005 -0.28057,-0.007 -0.64645,-0.0327 -0.96186,-0.0594 z m -1.035445,0.28579 c 0.0464,0.0231 0.0929,0.0462 0.14142,0.0672 0.258225,0.0981 0.316415,0.11921 0.387805,0.14642 -0.13323,-0.0598 -0.264725,-0.1169 -0.376905,-0.15945 -0.0545,-0.0206 -0.10328,-0.0373 -0.15232,-0.0541 z m 0.529225,0.21356 c 0.17296,0.0776 0.34916,0.16037 0.4931,0.22727 0.0123,0.005 0.0234,-0.007 0.0111,-0.0121 -0.32371,-0.14307 -0.39567,-0.17371 -0.5043,-0.21511 z m -7.320785,-0.5444 c -0.064,0.0269 -0.15339,0.0651 -0.19743,0.0866 0.0482,-0.0166 0.10555,-0.0421 0.19743,-0.0866 z m -0.19743,0.0866 c -0.052,0.0179 -0.10963,0.0328 -0.25246,0.0724 -0.0407,0.0159 -0.008,0.0556 0.0326,0.0397 0.10963,-0.0568 0.16138,-0.0837 0.21982,-0.11218 z m 0.85947,-1.52037 c -0.0763,-0.0286 -0.14415,-0.0527 -0.18528,-0.0643 -0.0816,-0.023 -0.16736,-0.0375 -0.25341,-0.0515 0.0832,0.0186 0.16649,0.0373 0.24765,0.0596 0.0643,0.0177 0.12779,0.0366 0.19104,0.0561 z m -0.43869,-0.11574 c -0.0465,-0.0104 -0.093,-0.0207 -0.13918,-0.0316 -0.008,-0.002 -0.0111,0.006 -0.003,0.007 0.047,0.009 0.0948,0.0166 0.1424,0.0243 z m 9.094435,-0.0996 c -0.0308,0.0256 -0.0874,0.0752 -0.21501,0.19325 -0.19735,0.18266 -0.24891,0.23406 -0.24575,0.235 -0.0194,0.0164 -0.0227,0.0184 -0.0563,0.047 -0.0219,0.002 -0.0432,0.004 -0.0656,0.006 0.16335,-0.16766 0.21275,-0.21773 0.52893,-0.44524 0.0172,-0.0124 0.0362,-0.0235 0.0538,-0.0356 z m -4.747515,0.11022 c -0.002,0.002 -0.002,0.003 -0.004,0.006 -0.0568,0.0758 -0.132071,0.14471 -0.190381,0.21997 -0.0695,0.0897 -0.12194,0.17482 -0.17471,0.2626 -0.16776,0 -0.33555,-0.002 -0.50333,-0.003 0.10821,-0.0901 0.21532,-0.17828 0.24093,-0.19501 0.1775,-0.11597 0.40396,-0.22009 0.63165,-0.29109 z m 1.92466,0.13493 c -0.004,0.0302 -0.009,0.0605 -0.0141,0.0908 -0.092,0.21958 -0.29152,0.25265 -0.45886,0.25509 -0.0888,0.001 -0.17768,0.002 -0.26653,0.003 0.004,-0.004 0.008,-0.009 0.0111,-0.013 0.0441,-0.0292 0.0892,-0.0589 0.11904,-0.074 0.0856,-0.0435 0.18218,-0.0753 0.2723,-0.11417 0.24804,-0.10709 0.28363,-0.13061 0.33693,-0.14776 z m 1.209845,0.009 c -0.002,0.007 -0.004,0.0139 -0.006,0.021 -0.0162,0.0885 -0.0159,0.17831 -0.0304,0.26702 -0.12693,0.006 -0.25378,0.0115 -0.38077,0.0161 0.0276,-0.0314 0.0447,-0.0437 0.1696,-0.13097 0.0824,-0.0576 0.16176,-0.11762 0.24702,-0.17315 z m -0.948735,0.006 c 0,0 0.002,0 0.002,0.001 0,0.001 0,0.002 -0.002,0.003 0,-0.001 0,-0.003 0,-0.003 z m -4.81601,0.20583 c 0,0.002 0,0.003 0,0.004 -0.002,-0.001 -0.002,-0.002 -0.003,-0.003 0.002,-10e-4 0.002,-10e-4 0.003,-10e-4 z"
       style="fill:#ffffff;fill-opacity:1;stroke:none;stroke-width:0.264583px;stroke-linecap:butt;stroke-linejoin:miter;stroke-opacity:1" />
  </g>
</svg>
