<?xml version="1.0" encoding="UTF-8" standalone="no"?>
<svg
   xmlns:dc="http://purl.org/dc/elements/1.1/"
   xmlns:cc="http://creativecommons.org/ns#"
   xmlns:rdf="http://www.w3.org/1999/02/22-rdf-syntax-ns#"
   xmlns:svg="http://www.w3.org/2000/svg"
   xmlns="http://www.w3.org/2000/svg"
   xmlns:sodipodi="http://sodipodi.sourceforge.net/DTD/sodipodi-0.dtd"
   xmlns:inkscape="http://www.inkscape.org/namespaces/inkscape"
   inkscape:export-ydpi="96"
   inkscape:export-xdpi="96"
   inkscape:export-filename="D:\Calcatz\Icon Pack\Adventure Narative Inspired by Arrival\GUI\Choices\png\underline - line.png"
   sodipodi:docname="underline - line.svg"
   inkscape:version="1.0 (4035a4fb49, 2020-05-01)"
   id="svg7933"
   version="1.1"
   viewBox="0 0 63.566128 0.70565194"
   height="0.70565194mm"
   width="63.566128mm">
  <defs
     id="defs7927" />
  <sodipodi:namedview
     inkscape:window-maximized="1"
     inkscape:window-y="-8"
     inkscape:window-x="-8"
     inkscape:window-height="705"
     inkscape:window-width="1366"
     fit-margin-bottom="0"
     fit-margin-right="0"
     fit-margin-left="0"
     fit-margin-top="0"
     showgrid="false"
     inkscape:document-rotation="0"
     inkscape:current-layer="layer1"
     inkscape:document-units="mm"
     inkscape:cy="-4.7987937"
     inkscape:cx="167.41933"
     inkscape:zoom="1.8982902"
     inkscape:pageshadow="2"
     inkscape:pageopacity="0.0"
     borderopacity="1.0"
     bordercolor="#666666"
     pagecolor="#ffffff"
     id="base" />
  <metadata
     id="metadata7930">
    <rdf:RDF>
      <cc:Work
         rdf:about="">
        <dc:format>image/svg+xml</dc:format>
        <dc:type
           rdf:resource="http://purl.org/dc/dcmitype/StillImage" />
        <dc:title></dc:title>
      </cc:Work>
    </rdf:RDF>
  </metadata>
  <g
     transform="translate(-16.312463,-135.2608)"
     id="layer1"
     inkscape:groupmode="layer"
     inkscape:label="Layer 1">
    <path
       id="path4917"
       d="m 16.552953,135.85142 c 2.16638,-0.22148 2.20472,-0.0221 6.46995,-0.26579 2.77592,-0.15858 5.55979,0.16574 8.34034,0.22551 2.97588,0.064 5.95199,0.13204 8.92863,0.1456 2.58378,0.0118 5.16737,-0.0476 7.75109,-0.0696 2.7579,-0.0234 5.515819,-0.0442 8.27373,-0.0665 7.963882,0.0711 7.563601,0.0748 15.17509,0.11581 1.657411,0.009 3.31506,0.0469 4.97228,0.0212 1.04503,-0.0162 2.087621,-0.0979 3.131442,-0.14686 0.39583,-0.0184 0.367487,-0.53132 -0.0283,-0.51297 -3.741301,-0.0439 -3.703781,-0.0835 -8.075382,0.0978 -10.93101,0.45342 -3.431609,0.53325 -15.17509,-0.001 l -8.27373,-0.0705 c -2.583691,0.13385 -5.163331,0.3851 -7.75108,0.40152 -2.97808,0.0189 -5.95049,-0.29894 -8.92864,-0.29572 -2.78245,0.003 -5.560219,0.20959 -8.34034,0.31438 -1.52581,-0.14294 -3.04576,-0.35581 -4.57746,-0.42882 -0.63149,-0.0301 -1.26164,0.0803 -1.89248,0.12045 -0.32072,0 -0.32072,0.41562 0,0.41562 z"
       style="fill:#ffffff;fill-opacity:1;stroke:none;stroke-width:0.264583px;stroke-linecap:butt;stroke-linejoin:miter;stroke-opacity:1" />
  </g>
</svg>
