<?xml version="1.0" encoding="UTF-8" standalone="no"?>
<svg
   xmlns:dc="http://purl.org/dc/elements/1.1/"
   xmlns:cc="http://creativecommons.org/ns#"
   xmlns:rdf="http://www.w3.org/1999/02/22-rdf-syntax-ns#"
   xmlns:svg="http://www.w3.org/2000/svg"
   xmlns="http://www.w3.org/2000/svg"
   xmlns:sodipodi="http://sodipodi.sourceforge.net/DTD/sodipodi-0.dtd"
   xmlns:inkscape="http://www.inkscape.org/namespaces/inkscape"
   inkscape:export-ydpi="96"
   inkscape:export-xdpi="96"
   inkscape:export-filename="D:\Calcatz\Icon Pack\Adventure Narative Inspired by Arrival\GUI\Choices\png\underline - detail 1.png"
   sodipodi:docname="underline - detail 1.svg"
   inkscape:version="1.0 (4035a4fb49, 2020-05-01)"
   id="svg8517"
   version="1.1"
   viewBox="0 0 10.252537 3.1870942"
   height="3.1870942mm"
   width="10.252537mm">
  <defs
     id="defs8511" />
  <sodipodi:namedview
     inkscape:window-maximized="1"
     inkscape:window-y="-8"
     inkscape:window-x="-8"
     inkscape:window-height="705"
     inkscape:window-width="1366"
     fit-margin-bottom="0"
     fit-margin-right="0"
     fit-margin-left="0"
     fit-margin-top="0"
     showgrid="false"
     inkscape:document-rotation="0"
     inkscape:current-layer="layer1"
     inkscape:document-units="mm"
     inkscape:cy="2.5027608"
     inkscape:cx="16.294153"
     inkscape:zoom="7.593161"
     inkscape:pageshadow="2"
     inkscape:pageopacity="0.0"
     borderopacity="1.0"
     bordercolor="#666666"
     pagecolor="#ffffff"
     id="base" />
  <metadata
     id="metadata8514">
    <rdf:RDF>
      <cc:Work
         rdf:about="">
        <dc:format>image/svg+xml</dc:format>
        <dc:type
           rdf:resource="http://purl.org/dc/dcmitype/StillImage" />
        <dc:title></dc:title>
      </cc:Work>
    </rdf:RDF>
  </metadata>
  <g
     transform="translate(-100.70707,-146.57312)"
     id="layer1"
     inkscape:groupmode="layer"
     inkscape:label="Layer 1">
    <path
       id="path4919"
       d="m 105.91233,146.57312 c 0.0489,0.17529 0.0865,0.35328 0.14653,0.52586 0.009,0.0248 0.0155,0.0413 0.0234,0.0634 -0.0442,-0.17797 -0.0964,-0.34226 -0.16869,-0.58926 0,0 -0.001,0.001 -0.001,0 z m 0.16997,0.58925 c 0.0239,0.0962 0.0456,0.20291 0.066,0.32466 -0.11911,0.002 -0.23143,-0.006 -0.33387,-0.0126 -0.0617,-0.004 -0.1226,-0.007 -0.18207,-0.01 -0.0211,-0.001 -0.0405,-0.001 -0.0614,-0.002 0.0125,-0.0132 0.0244,-0.0268 0.0365,-0.0402 0.047,-0.0462 -0.0275,-0.10452 -0.0745,-0.0583 -0.0413,0.0307 -0.087,0.0572 -0.12363,0.0921 0,0 0,0.001 -10e-4,0.001 -0.01,0 -0.0199,-0.001 -0.0297,-0.001 0.0301,-0.10323 0.0487,-0.16321 0.10599,-0.26525 -0.0528,0.0838 -0.11392,0.18327 -0.16215,0.26326 -0.20014,-0.006 -0.39332,-0.007 -0.58038,-0.004 0,-0.003 0,-0.007 10e-4,-0.0109 0.001,-0.001 0.002,-0.003 0.003,-0.004 0.0972,-0.0859 0.20504,-0.1561 0.32883,-0.21114 0.0545,-0.0242 0.11462,-0.0369 0.17196,-0.0554 0.0312,-0.0122 0.0115,-0.0509 -0.0196,-0.0386 -0.13235,0.0615 -0.23819,0.10968 -0.37064,0.1758 -0.0368,0.0184 -0.073,0.0377 -0.10928,0.057 0.002,-0.0278 0.004,-0.0555 0.005,-0.0833 0.001,-0.0146 0.001,-0.0292 0.001,-0.0437 0.0108,-0.006 0.0293,-0.0154 0.0405,-0.0217 0.0671,-0.0158 0.13421,-0.0313 0.20093,-0.0481 0.002,0 0.001,-0.003 -10e-4,-0.002 -0.0988,0.0247 -0.12844,0.0325 -0.19892,0.0499 0.0675,-0.0376 0.1344,-0.0717 0.24323,-0.12986 0.0161,-0.009 0.002,-0.0285 -0.0138,-0.0199 -0.11123,0.0612 -0.19055,0.10409 -0.26967,0.14841 10e-4,-0.0616 10e-4,-0.12321 0.006,-0.18463 0.005,-0.0649 0.0159,-0.12923 0.0239,-0.19391 0.003,-0.0398 -0.0611,-0.0438 -0.0642,-0.004 -0.0129,0.099 -0.0403,0.31573 -0.0584,0.41719 -0.23526,0.0586 -0.40414,0.10378 -0.81228,0.23588 -0.0181,0.006 -0.0354,0.0133 -0.0534,0.0194 -0.24176,0.0236 -0.48219,0.0545 -0.72692,0.0934 0.079,-0.052 0.1627,-0.0988 0.26841,-0.13714 0.14462,-0.0525 0.29945,-0.0799 0.4492,-0.11971 0.071,-0.0173 0.043,-0.1052 -0.028,-0.0879 -0.081,0.0138 -0.16251,0.0254 -0.24374,0.0382 0.0967,-0.0374 0.194,-0.0661 0.38021,-0.10357 0.17259,-0.0348 0.35015,-0.047 0.52523,-0.0705 0.003,0 0.002,-0.005 -0.001,-0.004 -0.17542,0.0224 -0.35131,0.0421 -0.52624,0.0674 -0.0924,0.0134 -0.3823,0.0631 -0.57281,0.0954 0.004,-0.003 0.008,-0.008 0.0116,-0.0135 0.0596,-0.0478 0.12026,-0.0948 0.18355,-0.13957 0.24973,-0.17651 0.52418,-0.32404 0.78634,-0.48612 0.0289,-0.0171 10e-4,-0.0531 -0.0274,-0.036 -0.26973,0.15608 -0.53343,0.32054 -0.80925,0.46821 -0.0299,0.016 -0.061,0.0303 -0.0916,0.0453 0.012,-0.0271 0.0287,-0.0563 0.0607,-0.10006 0.0415,-0.0568 0.096,-0.10526 0.14402,-0.1579 0.0146,-0.0168 -0.0124,-0.0347 -0.0269,-0.0179 -0.0456,0.0554 -0.092,0.11021 -0.13674,0.16609 -0.0921,0.115 -0.10093,0.12927 -0.12035,0.14885 -0.12462,0.0576 -0.25141,0.11165 -0.37341,0.17293 0.0128,-0.0264 0.0252,-0.0528 0.0393,-0.0786 0.0345,-0.0633 0.0717,-0.12562 0.10901,-0.18774 0.037,-0.0615 0.0725,-0.12394 0.11383,-0.18331 0.0246,-0.0353 0.0557,-0.0667 0.0836,-0.10004 0.0156,-0.0306 -0.0337,-0.0498 -0.0493,-0.0192 -0.0135,0.0388 -0.0208,0.0795 -0.0405,0.11617 -0.071,0.13202 -0.16269,0.23378 -0.25607,0.35337 -0.034,0.0435 -0.0648,0.089 -0.10045,0.1314 -0.0165,0.0196 -0.0369,0.0362 -0.0554,0.0543 -0.10046,0.0624 -0.19273,0.13438 -0.28451,0.20695 -0.0543,0.0325 -0.11115,0.0596 -0.1697,0.0826 0.0366,-0.0467 0.0735,-0.0933 0.11003,-0.14002 0.0215,-0.0225 -0.0148,-0.0492 -0.0362,-0.0267 -0.0743,0.0545 -0.14857,0.10895 -0.22283,0.16343 -0.0135,0.0203 -0.0121,0.039 -0.004,0.0541 -0.10681,0.0309 -0.21386,0.0548 -0.31221,0.0782 -0.0495,0.0132 -0.10815,0.032 -0.16291,0.0484 0.0141,-0.0169 0.028,-0.034 0.0431,-0.0501 0.0858,-0.0919 0.31751,-0.31962 0.39833,-0.39974 0.002,-0.003 -10e-4,-0.006 -0.004,-0.003 -0.0735,0.072 -0.14515,0.14558 -0.22057,0.21599 -0.12019,0.11223 -0.19833,0.18922 -0.34495,0.26503 -0.0159,0.008 -0.0359,0.008 -0.0539,0.0113 -0.0169,0.006 -0.027,0.0155 -0.033,0.0261 -0.32439,0.10464 -0.65478,0.22146 -0.74606,0.22815 -0.023,0.002 -0.0165,0.0598 0.002,0.0612 0.29588,0.0225 0.73685,0.1634 1.07589,0.24493 0.005,0.003 0.009,0.007 0.0149,0.0104 0.0305,0.0154 0.0622,0.028 0.0947,0.0393 0.008,0.0129 0.0211,0.0247 0.042,0.032 0.0335,0.0232 0.0849,0.0578 0.11481,0.0824 0.0239,0.0197 0.0514,0.0375 0.069,0.0618 0.0463,0.0642 0.0439,0.10003 0.0539,0.16917 0.0368,0.0801 0.16596,0.0344 0.12917,-0.0457 -0.0108,-0.0235 -0.0215,-0.0471 -0.0325,-0.0704 -0.0161,-0.0342 -0.0341,-0.075 -0.0551,-0.11419 0.0262,0.0135 0.052,0.0272 0.0785,0.0402 0.0672,0.0354 0.12905,0.0126 0.15913,-0.0282 0.0392,0.0363 0.0782,0.0746 0.13623,0.13627 0.0454,0.0482 0.0906,0.0967 0.13168,0.14775 -0.038,-0.0532 -0.0723,-0.10857 -0.11104,-0.16145 -0.13355,-0.18214 -0.13885,-0.18287 -0.13975,-0.18176 -4e-5,-10e-4 8e-5,-0.002 0,-0.003 0.0166,0.002 0.0325,0.003 0.0489,0.004 0.001,0 0.002,0.001 0.003,0.001 0.0879,0.0408 0.15172,0.0994 0.22687,0.15504 0.0408,0.0302 0.0782,0.0648 0.12388,0.089 0.0422,0.0224 0.0915,0.033 0.13722,0.0495 0.0297,0.0115 0.0592,0.0231 0.0889,0.0347 0.0684,0.0106 0.0856,-0.0744 0.0172,-0.085 -0.0281,0.002 -0.0563,0.005 -0.0844,0.007 -0.0435,-0.0133 -0.0915,-0.0184 -0.13042,-0.04 -0.0447,-0.0248 -0.0735,-0.0671 -0.11483,-0.0961 -0.0401,-0.0281 -0.0871,-0.0478 -0.1284,-0.0744 -0.0166,-0.0107 -0.0319,-0.0231 -0.0474,-0.0351 0.15521,0.007 0.29893,0.002 0.43384,-0.003 0.0552,0.0261 0.11166,0.0501 0.16718,0.0758 0.0844,0.0465 0.16869,0.0932 0.25305,0.13979 0.0222,0.0134 0.0439,-0.0142 0.0217,-0.0276 -0.0837,-0.0467 -0.1731,-0.0863 -0.25106,-0.14003 -0.0222,-0.0153 -0.0413,-0.0335 -0.0612,-0.051 0.0581,-0.001 0.11494,-0.001 0.16896,10e-4 0.18147,0.008 0.38784,0.003 0.55997,0.0903 0.0134,0.0688 0.0294,0.13745 0.0345,0.20694 0.006,-0.0258 0.01,-0.0738 0.0111,-0.18065 0.0438,0.0281 0.0844,0.064 0.12137,0.10887 0.019,0.0291 0.0367,0.0567 0.0561,0.087 -0.004,0.007 -0.007,0.0149 -0.007,0.0247 0.0144,0.0805 0.0157,0.0812 0.0262,0.17581 0.005,0.0468 0.0114,0.0937 0.0134,0.14069 0.002,0.0518 0,0.10366 -0.001,0.15548 0.001,0.0324 0.0531,0.0311 0.0521,-0.001 -0.001,-0.0341 -0.0126,-0.25399 -0.0103,-0.29485 10e-4,-0.022 0.006,-0.0436 0.0103,-0.0654 0.0581,0.0973 0.11157,0.1944 0.14478,0.28026 0.041,0.10602 0.0499,0.21948 0.0748,0.32929 0.0636,0.18579 0.36319,0.10696 0.29963,-0.0788 -0.0405,-0.11217 -0.0765,-0.22553 -0.12162,-0.33636 -0.0198,-0.0486 -0.0236,-0.0541 -0.0388,-0.0903 0,0 0,0 10e-4,0.001 0.036,0.0395 0.0685,0.0815 0.10349,0.12168 0.10304,0.11827 0.21268,0.23875 0.31776,0.35536 0.001,0.002 0.004,8e-5 0.003,-0.002 -0.0553,-0.063 -0.11506,-0.12323 -0.16593,-0.18905 -0.0699,-0.0904 -0.0917,-0.12472 -0.10601,-0.15261 0.0795,0.0626 0.13743,0.0869 0.24953,0.14377 0.1729,0.074 0.29224,-0.14045 0.11936,-0.21444 -0.15364,-0.0235 -0.13039,-0.006 -0.28528,-0.1334 -0.14109,-0.11653 -0.31383,-0.30483 -0.4152,-0.45011 -0.001,-0.001 -0.001,-0.003 -0.002,-0.004 0.002,1e-5 0.003,-2e-5 0.005,0 0.0296,0.0144 0.0619,0.0283 0.16947,0.074 0.0874,0.0371 0.17171,0.0808 0.26285,0.11021 0.15313,0.0494 0.68103,0.17033 0.82915,0.19369 0.0704,0.0111 0.14164,0.0172 0.21302,0.0223 -0.0706,-0.009 -0.14094,-0.0181 -0.21049,-0.0318 -0.14547,-0.0286 -0.28894,-0.0654 -0.43106,-0.1049 -0.12774,-0.0355 -0.25572,-0.0718 -0.37795,-0.11993 -0.0442,-0.0174 -0.1037,-0.0476 -0.16442,-0.0806 -0.0324,-0.0397 0.0812,-0.0584 0.20799,-0.0629 0.44459,0.0841 0.86301,0.18566 1.3224,0.2902 0.002,0 0.003,-0.002 10e-4,-0.003 -0.46196,-0.1049 -0.8689,-0.20185 -1.3073,-0.28822 0.008,0 0.0154,-10e-4 0.0234,-10e-4 0.21738,-0.003 0.46264,-0.007 0.7483,-0.0132 0.21941,-0.005 0.38598,-0.0119 0.54816,-0.019 0.0147,0.0122 0.0293,0.0246 0.0443,0.0365 0.11675,0.0923 0.32962,0.25427 0.43509,0.32775 0.11444,0.0797 0.23341,0.1546 0.35,0.2319 0.008,0.005 0.0156,-0.005 0.008,-0.01 -0.37323,-0.2444 -0.30382,-0.17833 -0.60405,-0.44612 -0.0495,-0.0442 -0.10246,-0.0864 -0.14302,-0.13715 0,0 0,-0.001 0,-0.001 0.0258,0.0118 0.0519,0.0232 0.0763,0.0371 0.0713,0.0407 0.17978,0.12048 0.2465,0.16809 0.0611,0.0393 0.12453,-0.0365 0.0634,-0.0758 -0.0297,-0.0201 -0.0597,-0.04 -0.0894,-0.0601 0.0851,0.0252 0.17104,0.0481 0.25608,0.0736 0.10443,0.0313 0.20588,0.0708 0.31221,0.0967 0.533,0.12973 0.35495,0.0713 0.29006,0.0508 -0.003,0 -0.007,0 -0.01,0 -0.0941,-0.0121 -0.18638,-0.0341 -0.27773,-0.0574 -0.10585,-0.027 -0.21122,-0.0567 -0.31323,-0.0934 -0.11852,-0.0427 -0.23059,-0.0985 -0.34118,-0.15636 0.10605,-0.006 0.22029,-0.0129 0.29863,-0.0195 0.3287,-0.0276 0.67487,0.0741 0.77526,0.1261 0.0772,0.0462 0.15614,0.0907 0.22586,0.1451 0.0322,0.0251 0.0621,0.0525 0.0922,0.0797 -0.0949,-0.10564 -0.12612,-0.15712 -0.30013,-0.32576 -0.0155,-0.015 -0.0328,-0.0283 -0.0499,-0.042 0.0915,0.0312 0.22301,0.0857 0.44241,0.15062 0.13716,0.0436 0.27944,0.0765 0.41596,0.12191 0.2443,0.0813 0.47994,0.18288 0.72817,0.25443 0.27183,0.0784 0.55444,0.12415 0.82914,0.19436 0.18433,0.0471 0.36498,0.10497 0.5474,0.15745 0.17676,0.0235 0.21477,-0.1958 0.038,-0.2193 -0.18577,-0.004 -0.37614,0.0237 -0.55747,-0.0119 -0.4419,-0.0869 -0.82833,-0.25766 -1.20153,-0.45363 0.0456,-0.001 0.0913,-0.001 0.13696,0 0.15969,0.0344 0.32065,0.0631 0.48268,0.0872 -0.0488,-0.007 -0.10332,-0.0144 -0.13822,-0.0219 -0.0749,-0.016 -0.13489,-0.0368 -0.19162,-0.0603 0.13334,0.007 0.26652,0.0187 0.39934,0.0265 0.0369,0.002 0.33204,0.0165 0.41596,0.0206 0.0694,-0.002 0.066,-0.0883 -0.003,-0.0861 -0.0469,0.0136 -0.0914,0.0365 -0.14049,0.0411 -0.0894,0.008 -0.18027,0.003 -0.26991,-0.003 -0.10871,-0.007 -0.2165,-0.0229 -0.3243,-0.0371 -0.0589,-0.008 -0.0713,-0.0104 -0.10903,-0.0157 -0.0709,-0.0584 0.085,-0.0858 0.25531,-0.11817 0.22675,-0.0431 0.45859,-0.081 0.66851,-0.0899 0.078,-0.003 0.0656,-0.16256 0.0211,-0.16939 -0.22946,-0.0353 -0.70626,-0.17234 -1.0774,-0.2858 -0.11016,-0.0337 -0.21697,-0.0715 -0.14554,-0.10777 0.11421,-0.0243 0.1564,-0.0298 0.49804,-0.0696 -0.38914,0.0182 -0.38824,0.0184 -0.56704,0.017 0.0569,-0.10228 0.13697,-0.17931 0.25231,-0.25774 0.0292,-0.0198 0.0596,-0.0382 0.0899,-0.057 -0.0303,0.0165 -0.0551,0.0294 -0.0947,0.0519 -0.14732,0.084 -0.21147,0.13024 -0.32329,0.23544 -0.009,0.008 -0.0165,0.018 -0.025,0.0269 -0.0153,-9e-5 -0.0106,8e-5 -0.028,0 0.0366,-0.0497 0.0745,-0.0987 0.11331,-0.14709 0.0449,-0.0511 -0.0375,-0.10698 -0.0823,-0.0559 -0.0251,0.0361 -0.0481,0.0734 -0.0755,0.10823 -0.0243,0.0309 -0.051,0.0604 -0.0773,0.0901 0.037,-0.0979 0.046,-0.20162 0.0786,-0.30036 0.004,-0.012 0.01,-0.0234 0.0143,-0.0351 0.1968,-0.0251 0.39337,-0.051 0.59019,-0.076 0.003,0 0.002,-0.004 0,-0.003 -0.11039,0.0143 -0.35219,0.0465 -0.58919,0.0771 0.0181,-0.044 0.0394,-0.087 0.0554,-0.13162 0.0643,-0.17921 -0.005,-0.0812 0.0876,-0.19038 0.021,-0.0493 -0.0585,-0.0754 -0.0796,-0.0261 -0.0785,0.22379 0.0497,-0.1515 -0.0536,0.20451 -0.0146,0.0504 -0.0345,0.0994 -0.0521,0.14908 -0.11791,0.0151 -0.21563,0.0268 -0.33311,0.0409 0.0199,-0.002 0.0399,-0.003 0.0597,-0.005 0.091,-0.0103 0.18182,-0.0221 0.27268,-0.0336 -0.002,0.007 -0.005,0.0139 -0.007,0.021 -0.0536,0.16137 -0.0568,0.17554 -0.0773,0.21488 -0.091,0.0909 -0.25609,0.0464 -0.38726,0.0188 -0.20234,-0.0427 -0.4118,-0.0815 -0.62343,-0.11661 0.0802,-0.0199 0.14922,-0.0353 0.19942,-0.0442 -0.0748,0.001 -0.28126,-0.004 -0.36963,-0.007 -0.0206,0 -0.0352,0.007 -0.0446,0.0172 -0.0801,-0.0122 -0.1599,-0.0238 -0.23996,-0.0349 0.0211,-0.0142 0.0426,-0.028 0.066,-0.0391 0.15463,-0.0737 0.32815,-0.13358 0.50056,-0.17646 -0.0834,0.0162 -0.16652,0.0334 -0.25002,0.049 -0.0733,0.0138 -0.14705,0.0256 -0.22032,0.0395 0.0871,-0.0717 0.18044,-0.13596 0.27344,-0.20363 0.18895,-0.10068 0.0266,-0.33501 -0.16241,-0.23433 -0.10264,0.0454 -0.21734,0.074 -0.30794,0.13606 -0.0393,0.0269 -0.0791,0.0591 -0.11833,0.0934 0.001,-0.0222 0.003,-0.0442 0.008,-0.066 0.0211,-0.0972 0.0486,-0.17762 0.0906,-0.25486 -0.0559,0.0762 -0.10378,0.15496 -0.13999,0.24801 -0.0182,0.0468 -0.0236,0.0968 -0.0325,0.14577 -0.0191,0.0195 -0.0393,0.0378 -0.0572,0.0585 -0.0224,0.009 -0.0446,0.0174 -0.0667,0.025 -0.0218,-0.0768 -0.0278,-0.0251 -0.004,-0.11618 -0.005,-0.0887 -0.14791,-0.0828 -0.14302,0.006 -0.005,0.11316 -0.006,0.033 0.0129,0.14841 -0.0348,0.008 -0.069,0.0138 -0.10299,0.0186 0,-0.022 0,-0.044 0,-0.066 -10e-4,-0.052 -0.007,-0.10399 -0.004,-0.15592 0.005,-0.10195 0.0336,-0.25737 0.0504,-0.35911 0.003,-0.0174 -0.0245,-0.0216 -0.028,-0.004 -0.0218,0.12038 -0.0455,0.24055 -0.066,0.36111 -0.009,0.0501 -0.0107,0.10098 -0.0232,0.1504 -0.007,0.0293 -0.0227,0.0566 -0.035,0.0846 -0.005,0 -0.01,0.001 -0.0149,0.001 -0.0435,-0.0885 -0.0868,-0.18719 -0.13571,-0.32244 z m 0.78985,-0.22372 c 0.0394,-0.0536 0.082,-0.10614 0.12993,-0.16057 0.0211,-0.024 0.0445,-0.0462 0.068,-0.0685 -0.0288,0.0188 -0.0568,0.0382 -0.0791,0.0625 -0.052,0.0568 -0.0886,0.11097 -0.11886,0.16653 z m 0.19792,-0.22904 c 0.0238,-0.0155 0.0482,-0.0305 0.0708,-0.0471 0.008,-0.007 -0.003,-0.0167 -0.0111,-0.01 -0.0196,0.0193 -0.0397,0.038 -0.0597,0.057 z m 0.48921,0.66986 c 0.0445,-0.009 0.0889,-0.0174 0.13371,-0.0245 0.12679,-0.0199 0.25536,-0.0302 0.38272,-0.047 0.0536,-0.007 0.0764,-0.0118 0.11557,-0.0172 -0.0343,0.003 -0.0634,0.007 -0.11682,0.0115 -0.12822,0.0118 -0.25719,0.0226 -0.38298,0.0473 -0.0437,0.009 -0.088,0.019 -0.1322,0.0301 z m 0.632,-0.0888 c 0.17275,-0.0173 0.15642,-0.0152 0.34748,0.0285 0.0648,0.002 0.0676,-0.0787 0.003,-0.0804 -0.1387,0.022 -0.23171,0.0353 -0.35048,0.0519 z m -0.54437,0.32865 c 0.007,-1.3e-4 0.0283,0 0.0325,0 0.12573,-0.008 0.32309,-0.0306 0.53102,-0.0554 -0.17742,0.0172 -0.35607,0.0251 -0.53256,0.0486 -0.006,0.001 -0.023,0.005 -0.031,0.007 z m 1.43772,-0.0733 c 0.18644,-0.10176 0.23745,-0.1121 0.51014,-0.21113 0.0143,-0.003 0.0287,-0.007 0.0431,-0.0109 -0.0151,0.002 -0.0301,0.004 -0.0451,0.007 -0.10831,0.0383 -0.22143,0.0677 -0.32505,0.11484 -0.0639,0.0291 -0.12412,0.064 -0.18306,0.10048 z m 0.55318,-0.22196 c 0.0615,-0.009 0.12285,-0.0181 0.18431,-0.0272 0.0146,-0.003 0.0103,-0.0208 -0.004,-0.0181 -0.06,0.0151 -0.12003,0.0302 -0.18002,0.0453 z m -0.18683,1.49586 c 0.0346,0.005 0.0616,0.0103 0.10097,0.0152 -0.0337,-0.005 -0.0673,-0.0102 -0.10097,-0.0152 z m -1.51173,0.0866 c 0.0355,0.0395 0.079,0.0858 0.14376,0.14996 0.006,0.006 0.0124,0.0111 0.0184,0.0168 -0.005,-0.006 -0.009,-0.0137 -0.0146,-0.0199 -0.046,-0.0513 -0.0958,-0.0999 -0.14755,-0.14687 z m 0.16215,0.16674 c 0.0429,0.0528 0.0769,0.11116 0.11557,0.16654 0.0239,0.0258 0.0654,-0.004 0.0415,-0.0298 -0.0522,-0.0457 -0.10688,-0.0893 -0.1571,-0.13671 z m -0.61211,-0.19059 c 0.001,0 0.002,9e-5 0.004,0 -0.0128,-0.004 -0.02,-0.005 -0.004,0 0.0202,0.005 0.0422,0.0116 0.15473,0.0446 0.0355,0.006 0.0448,-0.0382 0.009,-0.0439 -0.0533,0 -0.10721,0.005 -0.16014,-0.001 l 5e-5,5.3e-4 m -1.60918,0.14157 c 0.05,0.006 0.10025,0.012 0.15007,0.019 -0.006,-0.001 -0.005,-0.009 10e-4,-0.007 -0.0503,-0.005 -0.10079,-0.008 -0.15132,-0.0115 z m -1.93049,-0.13119 c -0.008,0.0356 -0.0171,0.0626 -0.0184,0.25818 -1.3e-4,0.0212 0.002,0.0423 0.004,0.0634 10e-4,-0.0227 0.002,-0.0249 0.004,-0.0634 0.005,-0.0833 0.0158,-0.1667 0.0108,-0.25 0,-0.003 -0.001,-0.005 -0.001,-0.008 z m -0.0143,0.32157 c -0.006,0.0956 -0.007,0.1075 -0.0461,0.23455 -0.003,0.0365 0.0562,0.0397 0.0589,0.003 -10e-4,-0.038 0,-0.076 -0.002,-0.11396 -0.002,-0.0414 -0.007,-0.0826 -0.0103,-0.1239 z m -1.20204,-0.2774 c 0.006,0.009 0.0115,0.0177 0.0179,0.0261 0.005,0.007 0.0117,0.0132 0.0174,0.0199 -0.005,-0.007 -0.009,-0.014 -0.0149,-0.0214 -0.006,-0.008 -0.0137,-0.0162 -0.0204,-0.0245 z m 0.0352,0.0459 c 0.0769,0.10673 0.1162,0.19705 0.17424,0.31538 0.0111,0.0211 0.0451,0.007 0.034,-0.0137 -0.03,-0.0544 -0.054,-0.11157 -0.0901,-0.163 -0.0345,-0.0491 -0.0791,-0.0922 -0.11809,-0.13869 z m 2.71253,-1.7929 c 0.0146,-0.0232 0.0343,-0.0571 0.0448,-0.0729 0.067,-0.0999 0.11428,-0.16187 0.16844,-0.23079 -0.0132,0.008 -0.0256,0.0177 -0.0363,0.0287 -0.0571,0.0594 -0.0942,0.13198 -0.13497,0.20097 -0.0185,0.0314 -0.0292,0.051 -0.0421,0.074 z m 0.21327,-0.30367 c 0.0329,-0.0213 0.0716,-0.0369 0.10524,-0.0574 0.0248,-0.0223 -0.0112,-0.0533 -0.036,-0.031 -0.028,0.0355 -0.0473,0.0604 -0.0692,0.0883 z m -1.03536,0.36043 c -0.001,0.005 -0.002,0.0166 -0.003,0.0212 -0.0652,0.0378 -0.12727,0.0736 -0.21427,0.12853 -0.0324,0.0204 -0.0631,0.0431 -0.0939,0.0654 -0.15025,0.007 -0.29857,0.0175 -0.44541,0.0305 0.17965,-0.0759 0.36823,-0.13535 0.5567,-0.19258 0.0659,-0.02 0.13307,-0.0364 0.20018,-0.053 z m -0.0119,0.0554 c -0.0114,0.0468 -0.0252,0.0931 -0.0362,0.14003 -0.005,0.003 -0.0104,0.007 -0.0156,0.0102 -0.0468,0.001 -0.0947,0.002 -0.14101,0.003 0.008,-0.008 0.0153,-0.0163 0.0239,-0.0236 0.0673,-0.0566 0.11994,-0.096 0.16895,-0.13008 z m 5.25184,1.2792 c -0.0644,0 -0.12875,0.005 -0.19312,0.007 -0.0385,-1.1e-4 -0.077,0 -0.11557,0 -0.0747,0.007 -0.0631,0.0998 0.0116,0.0925 0.12078,-0.038 0.15821,-0.0551 0.30063,-0.07 0.0796,-0.008 0.16019,-0.007 0.2402,-0.0104 0.0108,0 0.0102,-0.0138 0,-0.0135 -0.0811,-0.002 -0.16212,-0.006 -0.24322,-0.006 z m -0.34143,0.25442 c 0.0737,0.0101 0.14758,0.0198 0.22158,0.0285 0.18346,0.0215 0.368,0.0364 0.55192,0.0545 0.0566,0.006 0.0787,0.007 0.11885,0.0102 -0.0409,-0.005 -0.0604,-0.008 -0.11834,-0.0139 -0.15635,-0.0166 -0.50672,-0.0459 -0.77401,-0.0793 z m 0.89235,0.0932 c 0.24612,0.029 0.2495,0.0376 0.33212,0.0367 -0.0837,-0.0221 -0.10668,-0.0172 -0.33212,-0.0367 z m 0.33212,0.0367 c 0.0312,0.008 0.0726,0.0203 0.14477,0.0402 0.0348,0.004 0.0408,-0.0396 0.006,-0.0433 -0.0786,0.002 -0.12066,0.003 -0.15082,0.003 z m -5.71892,-0.0841 c -0.0579,-0.009 -0.0977,0.0622 -0.0362,0.0958 0.21098,0.12617 -0.0683,-0.0332 0.22838,0.10248 0.0427,0.0195 0.0805,0.0462 0.12085,0.0693 0.0714,0.0347 0.12752,-0.0538 0.0561,-0.0886 -0.0425,-0.0189 -0.0864,-0.0353 -0.1274,-0.0565 -0.303,-0.15651 0.0258,-0.007 -0.21604,-0.11374 -0.009,-0.005 -0.0174,-0.008 -0.0257,-0.009 z"
       style="fill:#ffffff;fill-opacity:1;stroke:none;stroke-width:0.264583px;stroke-linecap:butt;stroke-linejoin:miter;stroke-opacity:1" />
  </g>
</svg>
