<?xml version="1.0" encoding="UTF-8" standalone="no"?>
<svg
   xmlns:dc="http://purl.org/dc/elements/1.1/"
   xmlns:cc="http://creativecommons.org/ns#"
   xmlns:rdf="http://www.w3.org/1999/02/22-rdf-syntax-ns#"
   xmlns:svg="http://www.w3.org/2000/svg"
   xmlns="http://www.w3.org/2000/svg"
   xmlns:sodipodi="http://sodipodi.sourceforge.net/DTD/sodipodi-0.dtd"
   xmlns:inkscape="http://www.inkscape.org/namespaces/inkscape"
   inkscape:export-ydpi="96"
   inkscape:export-xdpi="96"
   inkscape:export-filename="D:\Calcatz\Icon Pack\Adventure Narative Inspired by Arrival\GUI\Choices\png\underline.png"
   sodipodi:docname="underline.svg"
   inkscape:version="1.0 (4035a4fb49, 2020-05-01)"
   id="svg10275"
   version="1.1"
   viewBox="0 0 63.566124 3.4817572"
   height="3.4817572mm"
   width="63.566124mm">
  <defs
     id="defs10269" />
  <sodipodi:namedview
     inkscape:window-maximized="1"
     inkscape:window-y="-8"
     inkscape:window-x="-8"
     inkscape:window-height="705"
     inkscape:window-width="1366"
     fit-margin-bottom="0"
     fit-margin-right="0"
     fit-margin-left="0"
     fit-margin-top="0"
     showgrid="false"
     inkscape:document-rotation="0"
     inkscape:current-layer="layer1"
     inkscape:document-units="mm"
     inkscape:cy="-27.50491"
     inkscape:cx="137.70578"
     inkscape:zoom="2.6845878"
     inkscape:pageshadow="2"
     inkscape:pageopacity="0.0"
     borderopacity="1.0"
     bordercolor="#666666"
     pagecolor="#ffffff"
     id="base" />
  <metadata
     id="metadata10272">
    <rdf:RDF>
      <cc:Work
         rdf:about="">
        <dc:format>image/svg+xml</dc:format>
        <dc:type
           rdf:resource="http://purl.org/dc/dcmitype/StillImage" />
        <dc:title></dc:title>
      </cc:Work>
    </rdf:RDF>
  </metadata>
  <g
     transform="translate(-53.369673,-310.48582)"
     id="layer1"
     inkscape:groupmode="layer"
     inkscape:label="Layer 1">
    <path
       id="path5053"
       d="m 53.610163,312.44776 c 2.16638,-0.22148 2.20472,-0.0221 6.46995,-0.26579 2.77592,-0.15858 5.55979,0.16574 8.34034,0.22551 2.97588,0.064 5.95199,0.13204 8.92863,0.1456 2.58378,0.0118 5.16737,-0.0476 7.75109,-0.0696 2.7579,-0.0234 5.515819,-0.0442 8.27373,-0.0665 7.963877,0.0711 7.563597,0.0748 15.175087,0.11581 1.65741,0.009 3.31506,0.0469 4.97228,0.0212 1.04503,-0.0162 2.08762,-0.0979 3.13144,-0.14686 0.39583,-0.0184 0.36749,-0.53132 -0.0283,-0.51297 -3.7413,-0.0439 -3.70378,-0.0835 -8.07538,0.0978 -10.931007,0.45342 -3.43161,0.53325 -15.175087,-0.001 l -8.27373,-0.0705 c -2.583691,0.13385 -5.163331,0.3851 -7.75108,0.40152 -2.97808,0.0189 -5.95049,-0.29894 -8.92864,-0.29572 -2.78245,0.003 -5.56022,0.20959 -8.34034,0.31438 -1.52581,-0.14294 -3.04576,-0.35581 -4.57746,-0.42882 -0.63149,-0.0301 -1.26164,0.0803 -1.89248,0.12045 -0.32072,0 -0.32072,0.41562 0,0.41562 z"
       style="fill:#ffffff;fill-opacity:1;stroke:none;stroke-width:0.264583px;stroke-linecap:butt;stroke-linejoin:miter;stroke-opacity:1" />
    <path
       id="path5055"
       d="m 70.480953,310.55016 c 0.0489,0.17529 0.0865,0.35328 0.14653,0.52586 0.009,0.0248 0.0155,0.0413 0.0234,0.0634 -0.0442,-0.17797 -0.0964,-0.34226 -0.16869,-0.58926 0,0 -10e-4,10e-4 -10e-4,0 z m 0.16997,0.58925 c 0.0239,0.0962 0.0456,0.20291 0.066,0.32466 -0.11911,0.002 -0.23143,-0.006 -0.33387,-0.0126 -0.0617,-0.004 -0.1226,-0.007 -0.18207,-0.01 -0.0211,-10e-4 -0.0405,-10e-4 -0.0614,-0.002 0.0125,-0.0132 0.0244,-0.0268 0.0365,-0.0402 0.047,-0.0462 -0.0275,-0.10452 -0.0745,-0.0583 -0.0413,0.0307 -0.087,0.0572 -0.12363,0.0921 0,0 0,0.001 -0.001,0.001 -0.01,0 -0.0199,-0.001 -0.0297,-0.001 0.0301,-0.10323 0.0487,-0.16321 0.10599,-0.26525 -0.0528,0.0838 -0.11392,0.18327 -0.16215,0.26326 -0.20014,-0.006 -0.39332,-0.007 -0.58038,-0.004 0,-0.003 0,-0.007 10e-4,-0.0109 0.001,-10e-4 0.002,-0.003 0.003,-0.004 0.0972,-0.0859 0.20504,-0.1561 0.32883,-0.21114 0.0545,-0.0242 0.11462,-0.0369 0.17196,-0.0554 0.0312,-0.0122 0.0115,-0.0509 -0.0196,-0.0386 -0.13235,0.0615 -0.23819,0.10968 -0.37064,0.1758 -0.0368,0.0184 -0.073,0.0377 -0.10928,0.057 0.002,-0.0278 0.004,-0.0555 0.005,-0.0833 0.001,-0.0146 0.001,-0.0292 0.001,-0.0437 0.0108,-0.006 0.0293,-0.0154 0.0405,-0.0217 0.0671,-0.0158 0.13421,-0.0313 0.20093,-0.0481 0.002,0 0.001,-0.003 -10e-4,-0.002 -0.0988,0.0247 -0.12844,0.0325 -0.19892,0.0499 0.0675,-0.0376 0.1344,-0.0717 0.24323,-0.12986 0.0161,-0.009 0.002,-0.0285 -0.0138,-0.0199 -0.11123,0.0612 -0.19055,0.10409 -0.26967,0.14841 0.001,-0.0616 0.001,-0.12321 0.006,-0.18463 0.005,-0.0649 0.0159,-0.12923 0.0239,-0.19391 0.003,-0.0398 -0.0611,-0.0438 -0.0642,-0.004 -0.0129,0.099 -0.0403,0.31573 -0.0584,0.41719 -0.23526,0.0586 -0.40414,0.10378 -0.81228,0.23588 -0.0181,0.006 -0.0354,0.0133 -0.0534,0.0194 -0.24176,0.0236 -0.48219,0.0545 -0.72692,0.0934 0.079,-0.052 0.1627,-0.0988 0.26841,-0.13714 0.14462,-0.0525 0.29945,-0.0799 0.4492,-0.11971 0.071,-0.0173 0.043,-0.1052 -0.028,-0.0879 -0.081,0.0138 -0.16251,0.0254 -0.24374,0.0382 0.0967,-0.0374 0.194,-0.0661 0.38021,-0.10357 0.17259,-0.0348 0.35015,-0.047 0.52523,-0.0705 0.003,0 0.002,-0.005 -10e-4,-0.004 -0.17542,0.0224 -0.35131,0.0421 -0.52624,0.0674 -0.0924,0.0134 -0.3823,0.0631 -0.57281,0.0954 0.004,-0.003 0.008,-0.008 0.0116,-0.0135 0.0596,-0.0478 0.12025,-0.0948 0.18354,-0.13957 0.24973,-0.17651 0.52418,-0.32404 0.78634,-0.48612 0.0289,-0.0171 10e-4,-0.0531 -0.0274,-0.036 -0.26973,0.15608 -0.533431,0.32054 -0.80925,0.46821 -0.0299,0.016 -0.061,0.0303 -0.0916,0.0453 0.012,-0.0271 0.0287,-0.0563 0.0607,-0.10006 0.0415,-0.0568 0.096,-0.10526 0.14402,-0.1579 0.0146,-0.0168 -0.0124,-0.0347 -0.0269,-0.0179 -0.0456,0.0554 -0.092,0.11021 -0.136741,0.16609 -0.0921,0.115 -0.100929,0.12927 -0.120349,0.14885 -0.12462,0.0576 -0.25141,0.11165 -0.37341,0.17293 0.0128,-0.0264 0.0252,-0.0528 0.0393,-0.0786 0.0345,-0.0633 0.0717,-0.12562 0.10901,-0.18774 0.037,-0.0615 0.0725,-0.12394 0.11383,-0.18331 0.0246,-0.0353 0.0557,-0.0667 0.0836,-0.10004 0.0156,-0.0306 -0.0337,-0.0498 -0.0493,-0.0192 -0.0135,0.0388 -0.0208,0.0795 -0.0405,0.11617 -0.071,0.13202 -0.16269,0.23378 -0.25607,0.35337 -0.034,0.0435 -0.0648,0.089 -0.10045,0.1314 -0.0165,0.0196 -0.0369,0.0362 -0.0554,0.0543 -0.10046,0.0624 -0.19273,0.13438 -0.28451,0.20695 -0.0543,0.0325 -0.11115,0.0596 -0.1697,0.0826 0.0366,-0.0467 0.0735,-0.0933 0.110029,-0.14002 0.0215,-0.0225 -0.0148,-0.0492 -0.0362,-0.0267 -0.0743,0.0545 -0.148569,0.10895 -0.222829,0.16343 -0.0135,0.0203 -0.0121,0.039 -0.004,0.0541 -0.10681,0.0309 -0.21386,0.0548 -0.31221,0.0782 -0.0495,0.0132 -0.10815,0.032 -0.16291,0.0484 0.0141,-0.0169 0.028,-0.034 0.0431,-0.0501 0.0858,-0.0919 0.31751,-0.31962 0.39833,-0.39974 0.002,-0.003 -10e-4,-0.006 -0.004,-0.003 -0.0735,0.072 -0.145151,0.14558 -0.220571,0.21599 -0.120189,0.11223 -0.198329,0.18922 -0.34495,0.26503 -0.0159,0.008 -0.0359,0.008 -0.0539,0.0113 -0.0169,0.006 -0.027,0.0155 -0.033,0.0261 -0.32439,0.10464 -0.65478,0.22146 -0.746059,0.22815 -0.023,0.002 -0.0165,0.0598 0.002,0.0612 0.29588,0.0225 0.73685,0.1634 1.07589,0.24493 0.005,0.003 0.009,0.007 0.0149,0.0104 0.0305,0.0154 0.0622,0.028 0.0947,0.0393 0.008,0.0129 0.0211,0.0247 0.042,0.032 0.0335,0.0232 0.0849,0.0578 0.11481,0.0824 0.0239,0.0197 0.0514,0.0375 0.069,0.0618 0.0463,0.0642 0.0439,0.10003 0.0539,0.16917 0.0368,0.0801 0.16596,0.0344 0.12917,-0.0457 -0.0108,-0.0235 -0.0215,-0.0471 -0.0325,-0.0704 -0.0161,-0.0342 -0.0341,-0.075 -0.0551,-0.11419 0.0262,0.0135 0.052,0.0272 0.0785,0.0402 0.0672,0.0354 0.12905,0.0126 0.15913,-0.0282 0.0392,0.0363 0.0782,0.0746 0.13623,0.13627 0.0454,0.0482 0.0906,0.0967 0.13168,0.14775 -0.038,-0.0532 -0.0723,-0.10857 -0.11104,-0.16145 -0.13355,-0.18214 -0.13885,-0.18287 -0.13975,-0.18176 -4e-5,-10e-4 8e-5,-0.002 0,-0.003 0.0166,0.002 0.0325,0.003 0.0489,0.004 0.001,0 0.002,10e-4 0.003,10e-4 0.0879,0.0408 0.15172,0.0994 0.22687,0.15504 0.0408,0.0302 0.0782,0.0648 0.12388,0.089 0.0422,0.0224 0.0915,0.033 0.13722,0.0495 0.0297,0.0115 0.0592,0.0231 0.0889,0.0347 0.0684,0.0106 0.0856,-0.0744 0.0172,-0.085 -0.0281,0.002 -0.0563,0.005 -0.0844,0.007 -0.0435,-0.0133 -0.0915,-0.0184 -0.130421,-0.04 -0.0447,-0.0248 -0.0735,-0.0671 -0.11483,-0.0961 -0.0401,-0.0281 -0.0871,-0.0478 -0.1284,-0.0744 -0.0166,-0.0107 -0.0319,-0.0231 -0.0474,-0.0351 0.15521,0.007 0.29893,0.002 0.43384,-0.003 0.0552,0.0261 0.11166,0.0501 0.16718,0.0758 0.0844,0.0465 0.16869,0.0932 0.25305,0.13979 0.0222,0.0134 0.0439,-0.0142 0.0217,-0.0276 -0.0837,-0.0467 -0.17309,-0.0863 -0.25105,-0.14003 -0.0222,-0.0153 -0.0413,-0.0335 -0.0612,-0.051 0.0581,-10e-4 0.11494,-10e-4 0.16896,10e-4 0.18147,0.008 0.38784,0.003 0.55997,0.0903 0.0134,0.0688 0.0294,0.13745 0.0345,0.20694 0.006,-0.0258 0.01,-0.0738 0.0111,-0.18065 0.0438,0.0281 0.0844,0.064 0.121369,0.10887 0.019,0.0291 0.0367,0.0567 0.0561,0.087 -0.004,0.007 -0.007,0.0149 -0.007,0.0247 0.0144,0.0805 0.0157,0.0812 0.0262,0.17581 0.005,0.0468 0.0114,0.0937 0.0134,0.14069 0.002,0.0518 0,0.10366 -10e-4,0.15548 10e-4,0.0324 0.0531,0.0311 0.0521,-10e-4 -0.001,-0.0341 -0.0126,-0.25399 -0.0103,-0.29485 0.001,-0.022 0.006,-0.0436 0.0103,-0.0654 0.0581,0.0973 0.11157,0.1944 0.14478,0.28026 0.041,0.10602 0.0499,0.21948 0.0748,0.32929 0.0636,0.18579 0.36319,0.10696 0.29963,-0.0788 -0.0405,-0.11217 -0.0765,-0.22553 -0.12162,-0.33636 -0.0198,-0.0486 -0.0236,-0.0541 -0.0388,-0.0903 0,0 0,0 0.001,0.001 0.036,0.0395 0.0685,0.0815 0.10349,0.12168 0.10304,0.11827 0.21268,0.23875 0.31776,0.35536 10e-4,0.002 0.004,8e-5 0.003,-0.002 -0.0553,-0.063 -0.11506,-0.12323 -0.16593,-0.18905 -0.0699,-0.0904 -0.0917,-0.12472 -0.10601,-0.15261 0.0795,0.0626 0.13743,0.0869 0.24953,0.14377 0.1729,0.074 0.29224,-0.14045 0.11936,-0.21444 -0.15364,-0.0235 -0.13039,-0.006 -0.28528,-0.1334 -0.14109,-0.11653 -0.31383,-0.30483 -0.4152,-0.45011 -0.001,-0.001 -0.001,-0.003 -0.002,-0.004 0.002,1e-5 0.003,-2e-5 0.005,0 0.0296,0.0144 0.0619,0.0283 0.16947,0.074 0.0874,0.0371 0.17171,0.0808 0.262849,0.11021 0.15313,0.0494 0.681031,0.17033 0.829151,0.19369 0.0704,0.0111 0.14164,0.0172 0.21302,0.0223 -0.0706,-0.009 -0.140948,-0.0181 -0.210498,-0.0318 -0.14547,-0.0286 -0.28894,-0.0654 -0.43106,-0.1049 -0.12774,-0.0355 -0.25572,-0.0718 -0.37795,-0.11993 -0.0442,-0.0174 -0.1037,-0.0476 -0.16442,-0.0806 -0.0324,-0.0397 0.0812,-0.0584 0.20799,-0.0629 0.44459,0.0841 0.86301,0.18566 1.3224,0.2902 0.002,0 0.003,-0.002 10e-4,-0.003 -0.46195,-0.1049 -0.86889,-0.20185 -1.30729,-0.28822 0.008,0 0.0154,-0.001 0.0234,-0.001 0.217379,-0.003 0.462639,-0.007 0.748299,-0.0132 0.21941,-0.005 0.38598,-0.0119 0.54816,-0.019 0.0147,0.0122 0.0293,0.0246 0.0443,0.0365 0.116751,0.0923 0.32962,0.25427 0.435091,0.32775 0.11444,0.0797 0.233409,0.1546 0.349999,0.2319 0.008,0.005 0.0156,-0.005 0.008,-0.01 -0.373229,-0.2444 -0.303819,-0.17833 -0.604049,-0.44612 -0.0495,-0.0442 -0.10246,-0.0864 -0.14302,-0.13715 0,0 0,-10e-4 0,-10e-4 0.0258,0.0118 0.0519,0.0232 0.0763,0.0371 0.0713,0.0407 0.17978,0.12048 0.2465,0.16809 0.0611,0.0393 0.12453,-0.0365 0.0634,-0.0758 -0.0297,-0.0201 -0.0597,-0.04 -0.0894,-0.0601 0.0851,0.0252 0.17104,0.0481 0.25608,0.0736 0.10443,0.0313 0.20588,0.0708 0.31221,0.0967 0.533,0.12973 0.35495,0.0713 0.29006,0.0508 -0.003,0 -0.007,0 -0.01,0 -0.0941,-0.0121 -0.186379,-0.0341 -0.277729,-0.0574 -0.10585,-0.027 -0.21122,-0.0567 -0.31323,-0.0934 -0.11852,-0.0427 -0.23059,-0.0985 -0.34118,-0.15636 0.10605,-0.006 0.22029,-0.0129 0.29863,-0.0195 0.3287,-0.0276 0.67487,0.0741 0.77526,0.1261 0.0772,0.0462 0.15614,0.0907 0.22586,0.1451 0.0322,0.0251 0.0621,0.0525 0.0922,0.0797 -0.0949,-0.10564 -0.12612,-0.15712 -0.30013,-0.32576 -0.0155,-0.015 -0.0328,-0.0283 -0.0499,-0.042 0.0915,0.0312 0.22301,0.0857 0.44241,0.15062 0.13716,0.0436 0.27944,0.0765 0.41596,0.12191 0.2443,0.0813 0.47994,0.18288 0.72817,0.25443 0.27183,0.0784 0.55444,0.12415 0.82914,0.19436 0.18433,0.0471 0.36498,0.10497 0.5474,0.15745 0.17676,0.0235 0.21477,-0.1958 0.038,-0.2193 -0.18577,-0.004 -0.37614,0.0237 -0.55747,-0.0119 -0.4419,-0.0869 -0.82833,-0.25766 -1.20153,-0.45363 0.0456,-10e-4 0.0913,-10e-4 0.13696,0 0.15969,0.0344 0.32065,0.0631 0.48268,0.0872 -0.0488,-0.007 -0.10332,-0.0144 -0.13822,-0.0219 -0.0749,-0.016 -0.13489,-0.0368 -0.19162,-0.0603 0.13334,0.007 0.26652,0.0187 0.39934,0.0265 0.0369,0.002 0.33204,0.0165 0.41596,0.0206 0.0694,-0.002 0.066,-0.0883 -0.003,-0.0861 -0.0469,0.0136 -0.0914,0.0365 -0.14049,0.0411 -0.0894,0.008 -0.18027,0.003 -0.26991,-0.003 -0.10871,-0.007 -0.2165,-0.0229 -0.3243,-0.0371 -0.0589,-0.008 -0.0713,-0.0104 -0.10903,-0.0157 -0.0709,-0.0584 0.085,-0.0858 0.25531,-0.11817 0.22675,-0.0431 0.45859,-0.081 0.66851,-0.0899 0.078,-0.003 0.0656,-0.16256 0.0211,-0.16939 -0.229461,-0.0353 -0.706261,-0.17234 -1.077401,-0.2858 -0.11016,-0.0337 -0.21697,-0.0715 -0.14554,-0.10777 0.11421,-0.0243 0.1564,-0.0298 0.49804,-0.0696 -0.38914,0.0182 -0.38824,0.0184 -0.56704,0.017 0.0569,-0.10228 0.13697,-0.17931 0.25231,-0.25774 0.0292,-0.0198 0.0596,-0.0382 0.0899,-0.057 -0.0303,0.0165 -0.0551,0.0294 -0.0947,0.0519 -0.14732,0.084 -0.21147,0.13024 -0.32329,0.23544 -0.009,0.008 -0.0165,0.018 -0.025,0.0269 -0.0153,-9e-5 -0.0106,8e-5 -0.028,0 0.0366,-0.0497 0.0745,-0.0987 0.11331,-0.14709 0.0449,-0.0511 -0.0375,-0.10698 -0.0823,-0.0559 -0.0251,0.0361 -0.0481,0.0734 -0.0755,0.10823 -0.0243,0.0309 -0.051,0.0604 -0.0773,0.0901 0.037,-0.0979 0.046,-0.20162 0.0786,-0.30036 0.004,-0.012 0.01,-0.0234 0.0143,-0.0351 0.196799,-0.0251 0.39337,-0.051 0.590189,-0.076 0.003,0 0.002,-0.004 0,-0.003 -0.11039,0.0143 -0.35219,0.0465 -0.58919,0.0771 0.0181,-0.044 0.0394,-0.087 0.0554,-0.13162 0.0643,-0.17921 -0.005,-0.0812 0.0876,-0.19038 0.021,-0.0493 -0.0585,-0.0754 -0.0796,-0.0261 -0.0785,0.22379 0.0497,-0.1515 -0.0536,0.20451 -0.0146,0.0504 -0.0345,0.0994 -0.0521,0.14908 -0.11791,0.0151 -0.215629,0.0268 -0.33311,0.0409 0.0199,-0.002 0.0399,-0.003 0.0597,-0.005 0.091,-0.0103 0.181819,-0.0221 0.272679,-0.0336 -0.002,0.007 -0.005,0.0139 -0.007,0.021 -0.0536,0.16137 -0.0568,0.17554 -0.0773,0.21488 -0.091,0.0909 -0.25609,0.0464 -0.38726,0.0188 -0.20234,-0.0427 -0.4118,-0.0815 -0.62343,-0.11661 0.0802,-0.0199 0.14922,-0.0353 0.19942,-0.0442 -0.0748,10e-4 -0.28126,-0.004 -0.36963,-0.007 -0.0206,0 -0.0352,0.007 -0.0446,0.0172 -0.0801,-0.0122 -0.1599,-0.0238 -0.23996,-0.0349 0.0211,-0.0142 0.0426,-0.028 0.066,-0.0391 0.15463,-0.0737 0.32815,-0.13358 0.50056,-0.17646 -0.0834,0.0162 -0.16652,0.0334 -0.25002,0.049 -0.0733,0.0138 -0.14705,0.0256 -0.22032,0.0395 0.0871,-0.0717 0.180442,-0.13596 0.273442,-0.20363 0.18895,-0.10068 0.0266,-0.33501 -0.16241,-0.23433 -0.10264,0.0454 -0.21734,0.074 -0.30794,0.13606 -0.0393,0.0269 -0.0791,0.0591 -0.11833,0.0934 0.001,-0.0222 0.003,-0.0442 0.008,-0.066 0.0211,-0.0972 0.0486,-0.17762 0.0906,-0.25486 -0.0559,0.0762 -0.10378,0.15496 -0.13999,0.24801 -0.0182,0.0468 -0.0236,0.0968 -0.0325,0.14577 -0.0191,0.0195 -0.0393,0.0378 -0.0572,0.0585 -0.0224,0.009 -0.0446,0.0174 -0.0667,0.025 -0.0218,-0.0768 -0.0278,-0.0251 -0.004,-0.11618 -0.005,-0.0887 -0.14791,-0.0828 -0.14302,0.006 -0.005,0.11316 -0.006,0.033 0.0129,0.14841 -0.0348,0.008 -0.069,0.0138 -0.10299,0.0186 0,-0.022 0,-0.044 0,-0.066 -0.001,-0.052 -0.007,-0.10399 -0.004,-0.15592 0.005,-0.10195 0.0336,-0.25737 0.0504,-0.35911 0.003,-0.0174 -0.0245,-0.0216 -0.028,-0.004 -0.0218,0.12038 -0.0455,0.24055 -0.066,0.36111 -0.009,0.0501 -0.0107,0.10098 -0.0232,0.1504 -0.007,0.0293 -0.0227,0.0566 -0.035,0.0846 -0.005,0 -0.01,0.001 -0.0149,0.001 -0.0435,-0.0885 -0.0868,-0.18719 -0.13571,-0.32244 z m 0.78985,-0.22372 c 0.0394,-0.0536 0.082,-0.10614 0.12993,-0.16057 0.0211,-0.024 0.0445,-0.0462 0.068,-0.0685 -0.0288,0.0188 -0.0568,0.0382 -0.0791,0.0625 -0.052,0.0568 -0.0886,0.11097 -0.11886,0.16653 z m 0.19792,-0.22904 c 0.0238,-0.0155 0.0482,-0.0305 0.0708,-0.0471 0.008,-0.007 -0.003,-0.0167 -0.0111,-0.01 -0.0196,0.0193 -0.0397,0.038 -0.0597,0.057 z m 0.48921,0.66986 c 0.0445,-0.009 0.0889,-0.0174 0.13371,-0.0245 0.12679,-0.0199 0.25536,-0.0302 0.38272,-0.047 0.0536,-0.007 0.0764,-0.0118 0.11557,-0.0172 -0.0343,0.003 -0.0634,0.007 -0.11682,0.0115 -0.12822,0.0118 -0.25719,0.0226 -0.38298,0.0473 -0.0437,0.009 -0.088,0.019 -0.1322,0.0301 z m 0.632,-0.0888 c 0.17275,-0.0173 0.15642,-0.0152 0.34748,0.0285 0.0648,0.002 0.0676,-0.0787 0.003,-0.0804 -0.1387,0.022 -0.23171,0.0353 -0.35048,0.0519 z m -0.54437,0.32865 c 0.007,-1.3e-4 0.0283,0 0.0325,0 0.12573,-0.008 0.32309,-0.0306 0.53102,-0.0554 -0.17742,0.0172 -0.35607,0.0251 -0.53256,0.0486 -0.006,10e-4 -0.023,0.005 -0.031,0.007 z m 1.43772,-0.0733 c 0.18644,-0.10176 0.23745,-0.1121 0.51014,-0.21113 0.0143,-0.003 0.0287,-0.007 0.0431,-0.0109 -0.0151,0.002 -0.0301,0.004 -0.0451,0.007 -0.10831,0.0383 -0.22143,0.0677 -0.32505,0.11484 -0.0639,0.0291 -0.12412,0.064 -0.18306,0.10048 z m 0.55318,-0.22196 c 0.0615,-0.009 0.12285,-0.0181 0.18431,-0.0272 0.0146,-0.003 0.0103,-0.0208 -0.004,-0.0181 -0.06,0.0151 -0.12003,0.0302 -0.18002,0.0453 z m -0.18683,1.49586 c 0.0346,0.005 0.0616,0.0103 0.10097,0.0152 -0.0337,-0.005 -0.0673,-0.0102 -0.10097,-0.0152 z m -1.51173,0.0866 c 0.0355,0.0395 0.079,0.0858 0.14376,0.14996 0.006,0.006 0.0124,0.0111 0.0184,0.0168 -0.005,-0.006 -0.009,-0.0137 -0.0146,-0.0199 -0.046,-0.0513 -0.0958,-0.0999 -0.14755,-0.14687 z m 0.16215,0.16674 c 0.0429,0.0528 0.0769,0.11116 0.11557,0.16654 0.0239,0.0258 0.0654,-0.004 0.0415,-0.0298 -0.0522,-0.0457 -0.10688,-0.0893 -0.1571,-0.13671 z m -0.61211,-0.19059 c 0.001,0 0.002,9e-5 0.004,0 -0.0128,-0.004 -0.02,-0.005 -0.004,0 0.0202,0.005 0.0422,0.0116 0.15473,0.0446 0.0355,0.006 0.0448,-0.0382 0.009,-0.0439 -0.0533,0 -0.10721,0.005 -0.16014,-10e-4 l 5e-5,5.3e-4 m -1.60918,0.14157 c 0.05,0.006 0.10025,0.012 0.15007,0.019 -0.006,-10e-4 -0.005,-0.009 0.001,-0.007 -0.0503,-0.005 -0.10079,-0.008 -0.15132,-0.0115 z m -1.93049,-0.13119 c -0.008,0.0356 -0.0171,0.0626 -0.0184,0.25818 -1.3e-4,0.0212 0.002,0.0423 0.004,0.0634 0.001,-0.0227 0.002,-0.0249 0.004,-0.0634 0.005,-0.0833 0.0158,-0.1667 0.0108,-0.25 0,-0.003 -0.001,-0.005 -0.001,-0.008 z m -0.0143,0.32157 c -0.006,0.0956 -0.007,0.1075 -0.0461,0.23455 -0.003,0.0365 0.0562,0.0397 0.0589,0.003 -10e-4,-0.038 0,-0.076 -0.002,-0.11396 -0.002,-0.0414 -0.007,-0.0826 -0.0103,-0.1239 z m -1.20204,-0.2774 c 0.006,0.009 0.0115,0.0177 0.0179,0.0261 0.005,0.007 0.0117,0.0132 0.0174,0.0199 -0.005,-0.007 -0.009,-0.014 -0.0149,-0.0214 -0.006,-0.008 -0.0137,-0.0162 -0.0204,-0.0245 z m 0.0352,0.0459 c 0.0769,0.10673 0.1162,0.19705 0.17424,0.31538 0.0111,0.0211 0.0451,0.007 0.034,-0.0137 -0.03,-0.0544 -0.054,-0.11157 -0.0901,-0.163 -0.0345,-0.0491 -0.0791,-0.0922 -0.11809,-0.13869 z m 2.71253,-1.7929 c 0.0146,-0.0232 0.0343,-0.0571 0.0448,-0.0729 0.067,-0.0999 0.11428,-0.16187 0.16844,-0.23079 -0.0132,0.008 -0.0256,0.0177 -0.0363,0.0287 -0.0571,0.0594 -0.0942,0.13198 -0.13497,0.20097 -0.0185,0.0314 -0.0292,0.051 -0.0421,0.074 z m 0.21327,-0.30367 c 0.0329,-0.0213 0.0716,-0.0369 0.10524,-0.0574 0.0248,-0.0223 -0.0112,-0.0533 -0.036,-0.031 -0.028,0.0355 -0.0473,0.0604 -0.0692,0.0883 z m -1.03536,0.36043 c -0.001,0.005 -0.002,0.0166 -0.003,0.0212 -0.0652,0.0378 -0.12727,0.0736 -0.21427,0.12853 -0.0324,0.0204 -0.0631,0.0431 -0.0939,0.0654 -0.15025,0.007 -0.29857,0.0175 -0.44541,0.0305 0.17965,-0.0759 0.36823,-0.13535 0.5567,-0.19258 0.0659,-0.02 0.13307,-0.0364 0.20018,-0.053 z m -0.0119,0.0554 c -0.0114,0.0468 -0.0252,0.0931 -0.0362,0.14003 -0.005,0.003 -0.0104,0.007 -0.0156,0.0102 -0.0468,10e-4 -0.0947,0.002 -0.14101,0.003 0.008,-0.008 0.0153,-0.0163 0.0239,-0.0236 0.0673,-0.0566 0.11994,-0.096 0.16895,-0.13008 z m 5.25184,1.2792 c -0.0644,0 -0.128751,0.005 -0.193121,0.007 -0.0385,-1.1e-4 -0.077,0 -0.11557,0 -0.0747,0.007 -0.0631,0.0998 0.0116,0.0925 0.12078,-0.038 0.15821,-0.0551 0.30063,-0.07 0.0796,-0.008 0.16019,-0.007 0.2402,-0.0104 0.0108,0 0.0102,-0.0138 0,-0.0135 -0.0811,-0.002 -0.16212,-0.006 -0.24322,-0.006 z m -0.34143,0.25442 c 0.0737,0.0101 0.147579,0.0198 0.221579,0.0285 0.18346,0.0215 0.368,0.0364 0.55192,0.0545 0.0566,0.006 0.0787,0.007 0.11885,0.0102 -0.0409,-0.005 -0.0604,-0.008 -0.118339,-0.0139 -0.15635,-0.0166 -0.506721,-0.0459 -0.77401,-0.0793 z m 0.892349,0.0932 c 0.24612,0.029 0.2495,0.0376 0.332121,0.0367 -0.0837,-0.0221 -0.10668,-0.0172 -0.332121,-0.0367 z m 0.332121,0.0367 c 0.0312,0.008 0.0726,0.0203 0.144769,0.0402 0.0348,0.004 0.0408,-0.0396 0.006,-0.0433 -0.0786,0.002 -0.12066,0.003 -0.15082,0.003 z m -5.71892,-0.0841 c -0.0579,-0.009 -0.0977,0.0622 -0.0362,0.0958 0.21098,0.12617 -0.0683,-0.0332 0.22838,0.10248 0.0427,0.0195 0.0805,0.0462 0.12085,0.0693 0.0714,0.0347 0.12752,-0.0538 0.0561,-0.0886 -0.0425,-0.0189 -0.0864,-0.0353 -0.1274,-0.0565 -0.303,-0.15651 0.0258,-0.007 -0.21604,-0.11374 -0.009,-0.005 -0.0174,-0.008 -0.0257,-0.009 z"
       style="fill:#ffffff;fill-opacity:1;stroke:none;stroke-width:0.264583px;stroke-linecap:butt;stroke-linejoin:miter;stroke-opacity:1" />
    <path
       id="path5057"
       d="m 101.14685,310.48688 c -0.13126,-10e-4 -0.24068,0.11195 -0.11806,0.20297 0.19528,0.12162 0.42014,0.22384 0.58586,0.36485 0.0968,0.0823 0.19251,0.17622 0.28512,0.27606 -0.0311,-0.0169 -0.0767,-0.0371 -0.24256,-0.1208 -0.007,-0.005 -0.0171,0.002 -0.0102,0.007 0.22337,0.20944 0.12762,0.12572 0.27966,0.25486 0.0341,0.0236 0.0751,0.0166 0.097,-0.002 0.0568,0.0668 0.10926,0.13539 0.16191,0.20452 -0.17818,-0.0874 -0.35762,-0.17375 -0.53885,-0.25818 -0.16838,-0.0762 -0.32421,0.0881 -0.15582,0.16432 0.094,0.0337 0.19508,0.0592 0.28191,0.10115 0.0533,0.0257 0.10827,0.0577 0.1635,0.0917 0.002,0.004 0.002,0.007 0.002,0.0113 -0.13731,-0.0529 -0.2691,-0.11373 -0.40766,-0.16276 -0.0742,-0.0262 -0.14973,-0.0507 -0.22592,-0.0742 0.19213,0.0721 0.44894,0.17871 0.55038,0.22793 0.0285,0.0139 0.0552,0.0293 0.0819,0.0448 -0.0263,0.0799 -0.20381,0.1022 -0.36286,0.10336 -0.12823,0 -0.34434,0.0234 -0.59996,0.0583 -0.0235,-0.0184 -0.0459,-0.0376 -0.0736,-0.0528 -0.22815,-0.12552 -0.48776,-0.18346 -0.75643,-0.26856 0.17555,0.0668 0.35866,0.1249 0.52669,0.20031 0.11808,0.053 0.14858,0.0896 0.18782,0.13738 -0.80897,0.11573 -1.950358,0.32832 -2.274406,0.35072 -0.0412,0.003 -0.0386,0.0988 -0.009,0.10734 0.23555,0.0672 1.658486,0.24851 2.490076,0.32177 -0.0468,0.0245 -0.11128,0.0536 -0.26336,0.12634 -0.0734,0.0351 -0.11553,0.0556 -0.15934,0.0768 0.0513,-0.0216 0.0777,-0.0342 0.16639,-0.07 0.0874,-0.0352 0.17841,-0.0659 0.26749,-0.099 0.003,0.0461 0.004,0.0915 0,0.12876 -0.009,0.0661 -0.0289,0.13149 -0.0496,0.19634 -0.0157,0.0495 -0.0396,0.0975 -0.0595,0.14621 -0.008,0.0225 0.0383,0.0301 0.0461,0.007 0.01,-0.0506 0.0142,-0.10179 0.0297,-0.15173 0.0203,-0.0657 0.0531,-0.12933 0.0774,-0.19436 0.0323,-0.0864 0.0439,-0.12197 0.0537,-0.15791 0.1677,0.0136 0.31473,0.0236 0.39966,0.0236 0.097,0.003 0.25159,0.0186 0.38974,0.0572 -0.0186,0.0388 -0.0383,0.0772 -0.0755,0.10777 -0.031,0.0255 -0.18631,0.0834 -0.24542,0.10624 -0.0973,0.0435 -0.008,0.13849 0.0889,0.095 0.0357,-0.0186 0.0754,-0.0341 0.1072,-0.0559 0.0478,-0.0327 0.0888,-0.07 0.13023,-0.10668 0.0619,-0.0548 0.0867,-0.0791 0.11104,-0.10557 0.0349,0.0155 0.0669,0.0329 0.0934,0.0532 5e-5,0.003 -3e-5,0.003 0,0.007 0,0.062 0.005,0.12452 -0.005,0.18618 -0.006,0.0361 -0.0292,0.0697 -0.0409,0.10513 -0.0227,0.0686 0.0163,0.0536 -0.0384,0.0669 -0.0574,0.0769 0.10005,0.13274 0.15742,0.0559 0.004,-0.0155 0.0326,-0.11751 0.0326,-0.11926 0,-0.0368 -0.0192,-0.0724 -0.0224,-0.1091 -0.003,-0.033 -0.003,-0.0661 -0.004,-0.0992 0.0471,0.0624 0.10439,0.13496 0.13665,0.17536 0.0984,0.13686 0.37897,0.0408 0.28062,-0.0961 -0.19822,-0.21078 -0.007,0.0181 -0.0614,-0.15349 -0.008,-0.0283 0.0202,-0.0642 0.0659,-0.0925 0.0751,0.041 0.0998,0.0544 0.42749,0.23344 0.0132,0.008 0.0296,-0.005 0.0164,-0.013 -0.27019,-0.179 -0.3273,-0.20964 -0.38013,-0.25046 0.0297,-0.01 0.0617,-0.0157 0.0938,-0.0148 0.0961,0.003 0.19193,0.008 0.28797,0.0109 0.006,0.01 0.0164,0.0185 0.0352,0.0243 0.15686,0.0515 0.0823,0.0236 0.25696,0.0989 0.0569,0.0245 0.11348,0.0493 0.17023,0.074 0.0269,0.0132 0.0541,-0.0131 0.0272,-0.0263 -0.0518,-0.0297 -0.10341,-0.0594 -0.15519,-0.089 -0.0849,-0.0486 -0.1081,-0.0626 -0.12959,-0.0742 0.10164,0.004 0.20337,0.006 0.30493,0.0115 0.16691,0.008 0.33733,0.017 0.50686,0.0259 0.0319,0.0359 0.0567,0.0737 0.0877,0.12877 0.0635,0.1129 0.062,0.082 0.0282,0.16299 0.006,0.0603 0.12869,0.0549 0.1232,-0.005 -0.0623,-0.1495 0.0245,0.0453 -0.10176,-0.17272 -0.0232,-0.0402 -0.0381,-0.0748 -0.054,-0.10954 0.0746,0.004 0.14811,0.008 0.22205,0.0126 0.0515,0.0431 0.0999,0.0877 0.13536,0.13737 0.0457,0.064 0.0728,0.13404 0.0973,0.2034 0.0185,0.0526 0.0207,0.10735 0.031,0.16101 0.0121,0.0487 0.11193,0.0367 0.0998,-0.0119 -0.0203,-0.0551 -0.0388,-0.11046 -0.0611,-0.16519 -0.0453,-0.11073 -0.0936,-0.21181 -0.14945,-0.31495 0.59048,0.0397 1.13529,0.10166 1.47704,0.23322 0.045,0.0351 0.11702,0.0924 0.2486,0.1959 0.30747,0.24182 0.322,0.20057 0.39199,0.47596 0.004,0.0139 -0.009,0.0274 -0.0134,0.0411 0.0984,0.17839 0.46382,0.0823 0.36542,-0.0961 -0.20335,-0.10617 -0.0309,-0.004 -0.27391,-0.23676 -0.0973,-0.0932 -0.20821,-0.17966 -0.30398,-0.27364 -0.0354,-0.0347 -0.0685,-0.0706 -0.10143,-0.10645 0.0352,0.0126 0.0687,0.0248 0.15487,0.0519 0.0988,0.031 0.20621,0.0483 0.30302,0.0822 0.19758,0.0691 0.2469,0.10986 0.39614,0.20297 0.0691,0.0344 0.13984,-0.0329 0.0707,-0.0674 -0.0614,-0.0215 -0.12452,-0.041 -0.1843,-0.0647 -0.42008,-0.16624 -0.0832,-0.0533 -0.53341,-0.21975 -0.0793,-0.0293 -0.16659,-0.0483 -0.24222,-0.0819 -0.002,0 -0.002,-0.001 -0.003,-0.002 0.14443,0.0121 0.29201,0.0246 0.41598,0.0349 0.004,0.0138 0.0162,0.0272 0.0406,0.0369 0.24033,0.0632 0.4168,0.1066 0.63004,0.17933 -0.12779,-0.0634 -0.25104,-0.13152 -0.38014,-0.1937 0.0649,0.005 0.13803,0.0111 0.19486,0.015 0.21354,0.0328 0.4249,0.0719 0.63708,0.10911 0.0235,0.009 0.0406,0.0146 0.0758,0.0307 0.0661,0.0303 0.12643,0.0661 0.18942,0.0994 0.0617,0.0326 0.12442,0.0645 0.18464,0.0985 0.0506,0.0286 0.0984,0.0596 0.14782,0.0892 0.03,0.018 0.0602,0.0357 0.0902,0.0537 0.0502,0.025 0.10133,-0.0238 0.0512,-0.0488 -0.0336,-0.0137 -0.0684,-0.0259 -0.10046,-0.0411 -0.0536,-0.0253 -0.10453,-0.0532 -0.15615,-0.0804 -0.062,-0.0327 -0.12421,-0.0655 -0.18494,-0.0994 -0.0421,-0.0234 -0.0829,-0.0477 -0.12416,-0.0718 1.23269,0.20275 0.68482,0.0689 1.63638,0.3463 0.19344,0.0457 0.28687,-0.14315 0.0934,-0.18883 -0.95642,-0.16398 -0.52542,-0.0815 -1.6959,-0.33217 -0.0646,-0.0138 -0.20629,-0.0447 -0.30462,-0.0663 -0.0521,-0.0236 -0.0687,-0.0492 -0.0547,-0.0749 0.0469,0.003 0.0968,0.007 0.14368,0.0109 -0.046,-0.006 -0.0921,-0.011 -0.13758,-0.0183 0.0545,-0.0698 0.33288,-0.1391 0.74586,-0.17182 0.25595,-0.0203 0.54396,-0.0417 0.8681,-0.0643 0.2356,-0.0164 0.47206,-0.0231 0.70876,-0.0269 0.004,0.006 0.01,0.0118 0.0147,0.0179 0.0393,0.0507 0.0771,0.10203 0.11552,0.15305 0.011,0.0211 0.0545,0.0105 0.0435,-0.0106 -0.019,-0.0538 -0.035,-0.10826 -0.057,-0.16145 0.055,0 0.11004,-0.001 0.16511,-0.002 0.0998,0.0129 0.19366,0.0262 0.23998,0.0376 0.22592,0.055 0.36586,0.13779 0.57054,0.21511 0.3143,0.11874 0.10538,0.009 0.32861,0.13958 0.0229,0.0171 0.0459,0.0343 0.0688,0.0515 0.0969,0.0558 0.21147,-0.0387 0.11456,-0.0945 -0.0346,-0.0174 -0.0694,-0.0347 -0.10399,-0.0521 -0.0498,-0.0171 -0.0982,-0.037 -0.14976,-0.0515 -0.66487,-0.18556 0.31974,0.11519 -0.4982,-0.12279 -0.10876,-0.0317 -0.21382,-0.0692 -0.32095,-0.10336 -0.0219,-0.007 -0.044,-0.0138 -0.0659,-0.0208 0.18769,10e-4 0.37542,0.002 0.56316,0.004 0.12961,0.0102 0.10844,0.005 0.2995,0.0663 0.0731,0.0234 0.14811,0.0449 0.21663,0.0742 0.0674,0.0288 0.12498,0.0675 0.18943,0.0994 0.0571,0.0283 0.11689,0.0538 0.17503,0.0811 0.038,0.0178 0.0755,0.0361 0.11327,0.0541 0.0649,0.0204 0.10645,-0.043 0.0416,-0.0634 -0.0401,-0.009 -0.0821,-0.0149 -0.12031,-0.0272 -0.16096,-0.0519 -0.23159,-0.0957 -0.38205,-0.16409 -0.0902,-0.041 -0.18168,-0.0811 -0.27518,-0.11861 0.10492,10e-4 0.21004,0.002 0.31486,0.002 0.26308,-0.002 0.35289,0.0675 0.43389,0.10402 0.0199,0.0123 0.0438,0.0228 0.0768,0.0285 0.2119,0.0212 0.42437,0.039 0.63708,0.0552 0.058,0.0316 0.1163,0.0629 0.17374,0.095 0.10473,0.0584 0.20571,0.11991 0.31104,0.17779 0.0196,0.0107 0.0168,0.009 0.0316,0.0176 -0.12989,-0.0807 -0.29352,-0.17164 -0.34013,-0.19788 -0.0524,-0.0295 -0.10366,-0.0603 -0.15519,-0.0908 0.38289,0.029 0.76693,0.0502 1.15126,0.0693 -0.0401,-0.004 -0.0803,-0.006 -0.12029,-0.0104 -0.76697,-0.082 -0.93837,-0.12283 -1.33624,-0.24382 0.14022,0.0228 0.25592,0.0424 0.36254,0.059 -0.0745,-0.0162 -0.15492,-0.0378 -0.23934,-0.0638 0.19951,0.0205 0.39884,0.0411 0.59835,0.0616 0.38577,0.037 0.70789,-0.0763 1.15129,-0.18641 0.031,0 0.10017,0.003 0.24639,0.0117 0.43336,0.025 0.43444,0.0323 0.85817,0.0859 0.058,0.0106 0.11575,0.0213 0.17376,0.032 0.0436,0.006 0.0561,-0.0363 0.0124,-0.0424 -0.0609,-0.002 -0.12179,-0.004 -0.18272,-0.006 -0.14143,-0.0138 -0.28354,-0.0247 -0.42428,-0.0415 -0.14449,-0.0173 -0.28736,-0.0405 -0.43102,-0.0607 -0.0332,-0.005 -0.0664,-0.0102 -0.0995,-0.0157 0.20108,-0.0456 0.42571,-0.0879 0.69372,-0.11439 0.0806,-0.008 0.15829,-0.36855 -0.0329,-0.38253 -0.63264,-0.0463 -1.76692,-0.18442 -1.76692,-0.18442 0,0 -0.19497,0.0338 -0.29247,0.0506 -0.0932,-0.0376 -0.18111,-0.0835 -0.27198,-0.125 0.24892,-0.0505 0.61894,-0.097 0.98138,-0.1323 -0.40451,0.002 0.12581,-0.0485 -1.0633,-0.025 -0.0103,0 -0.0204,0.002 -0.0307,0.003 0.10743,-0.035 0.21522,-0.0694 0.32543,-0.0994 0.0279,0.005 0.0598,0.003 0.0906,-0.0153 0.005,-0.004 0.01,-0.008 0.015,-0.0115 0.007,0.0423 0.0705,0.0797 0.14847,0.0528 0.12633,-0.0272 0.33332,-0.0735 0.44286,-0.0848 0.14017,-0.0144 0.28265,-0.0168 0.42429,-0.0205 0.43901,-0.0115 0.55352,-0.006 0.87482,0.007 -0.3671,-0.0171 -0.16594,-0.009 -0.87514,-0.0256 -0.13643,-0.003 -0.27276,-0.0111 -0.40926,-0.0119 0.21424,-0.009 0.40538,0.004 0.66076,0.015 0.32754,-0.0307 0.26481,-0.35045 -0.0627,-0.31979 -0.1268,0.0324 -0.25126,0.0697 -0.38046,0.0972 -0.17292,0.0368 -0.34784,0.0691 -0.52284,0.10094 0.10461,-0.0559 0.21881,-0.11122 0.32863,-0.16144 -0.0822,0.0302 -0.13679,0.0508 -0.25854,0.0945 -0.19797,0.0711 -0.29537,0.10344 -0.34495,0.1175 -0.015,0.003 -0.03,0.006 -0.0451,0.008 0.006,-0.0115 0.10355,-0.0524 -0.0323,0.006 -0.17018,0.0315 -0.3394,0.0651 -0.50715,0.10246 -0.002,0 -0.002,0 -0.002,0 -0.0856,0.0207 -0.19187,0.0371 -0.3043,0.0512 0.0219,-0.018 0.0437,-0.0361 0.0688,-0.0521 0.0751,-0.0479 0.16669,-0.0821 0.24349,-0.12876 0.56808,-0.34482 -0.1005,-0.006 0.6422,-0.35645 0.002,0 4e-5,-0.002 -0.002,-10e-4 -0.14331,0.048 -0.29473,0.0858 -0.43006,0.14378 -0.10334,0.0443 -0.1886,0.10613 -0.28094,0.16079 -0.0778,0.0461 -0.15127,0.0957 -0.22942,0.14156 -0.0664,0.039 -0.1349,0.0762 -0.20415,0.11286 -0.23549,0.0219 -0.47041,0.0335 -0.60123,0.036 -0.24822,0.005 -0.48676,0.0328 -0.73628,0.0665 0.15437,-0.1522 0.42127,-0.32358 0.61245,-0.42558 0.008,-0.004 0.016,-0.008 0.024,-0.0119 -0.15683,0.0691 -0.31034,0.14129 -0.48638,0.2372 -0.0947,0.0516 -0.17655,0.11359 -0.2659,0.16962 -0.0318,0.02 -0.0645,0.0393 -0.0969,0.0587 -0.27992,0.0401 -0.58768,0.0849 -0.96539,0.12103 0.0129,-0.0132 0.0269,-0.026 0.0387,-0.0397 0.19632,-0.22679 0.11615,-0.17839 0.34942,-0.41587 0.0487,-0.0496 0.10255,-0.0964 0.15616,-0.14356 0.0261,-0.0171 0.0523,-0.0341 0.0784,-0.0512 -0.0242,0.0152 -0.0481,0.0306 -0.0723,0.0457 0.0188,-0.0165 0.0376,-0.0329 0.056,-0.0497 0.0428,-0.0324 0.0855,-0.0648 0.12831,-0.0972 0.0483,-0.0492 -0.0525,-0.0962 -0.1008,-0.047 -0.0258,0.0406 -0.0514,0.0811 -0.0771,0.12169 -0.23534,0.23836 -0.21116,0.21579 -0.19261,0.19458 -0.002,0.001 -0.003,0.002 -0.004,0.003 0.002,-0.001 0.002,-0.001 0.004,-0.002 0.003,-0.003 -0.006,0.005 -0.004,0.002 0.006,-0.008 -0.002,-0.004 -0.0282,0.0186 -0.0183,0.0118 -0.0363,0.0238 -0.0547,0.0356 -0.23932,0.15231 -0.48004,0.29846 -0.72315,0.4468 -0.006,0.005 -0.008,0.009 -0.0114,0.0137 -0.2488,0.0165 -0.49758,0.0303 -0.74652,0.0422 -0.0134,-0.0874 -0.0402,-0.17388 -0.0464,-0.2617 -0.002,-0.0137 -0.002,-0.0274 -0.002,-0.0411 0.009,-0.005 0.0164,-0.0114 0.0253,-0.0166 -0.008,0.004 -0.017,0.007 -0.0253,0.0104 -0.002,-0.0288 -0.002,-0.0576 -0.002,-0.0864 -0.009,0.0321 -0.0167,0.0644 -0.0243,0.0967 -0.10839,0.0454 -0.22102,0.0862 -0.33021,0.13075 -0.0655,0.0268 -0.13395,0.0509 -0.19391,0.0833 -0.002,0.001 -0.003,0.003 -0.005,0.004 -0.0972,0.0511 -0.23493,0.0857 -0.3648,0.1049 0.01,-0.0253 0.0201,-0.0505 0.0253,-0.0764 0.0575,-0.28227 0.04,-0.24894 0.0323,-0.23234 0.0198,-0.0122 0.0333,-0.0309 0.0333,-0.0561 -0.004,-0.011 -0.006,-0.0199 -0.009,-0.0303 0.007,-0.0241 -0.006,0.0172 0.0442,-0.15703 0.0293,-0.10146 0.044,-0.20571 0.0912,-0.3039 0.044,-0.0915 0.1201,-0.174 0.18015,-0.26105 0.0482,-0.037 0.0965,-0.0739 0.14463,-0.11087 0.0396,-0.0422 -0.0471,-0.0811 -0.0867,-0.0388 -0.0276,0.0475 -0.055,0.0951 -0.0825,0.14267 -0.26007,0.43192 -0.0736,0.10089 -0.29758,0.56362 -0.007,0.0153 -0.016,0.0303 -0.024,0.0455 -0.004,-0.0236 -0.006,-0.048 -0.004,-0.0758 0.003,-0.0684 0.0154,-0.13673 0.0333,-0.20407 0.0197,-0.0747 0.0527,-0.14739 0.079,-0.22108 0.0128,-0.0331 -0.055,-0.0456 -0.0678,-0.0126 -0.0273,0.0751 -0.0536,0.1503 -0.0816,0.22527 -0.0264,0.0709 -0.0609,0.1406 -0.0813,0.21246 -0.012,0.0421 -0.0108,0.0854 -0.017,0.1281 -0.0159,-0.0636 -0.0336,-0.12698 -0.0445,-0.19105 -0.01,-0.0588 -0.008,-0.1182 -0.0124,-0.17734 -0.0764,-0.16537 -0.41531,-0.0907 -0.33887,0.0746 0.0432,0.0389 0.10808,0.0699 0.12959,0.11662 0.0463,0.10052 0.0487,0.20134 0.0375,0.30235 -0.004,10e-4 -0.007,0.003 -0.01,0.004 -0.21456,0.078 -0.42317,0.13563 -0.63387,0.21467 0.0126,-0.0104 0.03,-0.0182 0.13375,-0.0903 0.15731,-0.10814 -0.0641,-0.26162 -0.22143,-0.15349 -0.0846,0.0544 -0.18311,0.10002 -0.25374,0.1632 -0.0192,0.0171 -0.0295,0.0319 -0.0425,0.0473 -0.0157,0.0106 -0.0324,0.0192 -0.0486,0.0287 0.0489,-0.14197 0.0192,-0.0974 0.10463,-0.27718 0.0149,-0.0315 0.0116,-0.0218 0.0202,-0.0382 0.0261,0.0219 0.0819,0.0258 0.10783,-0.01 0.071,-0.11598 0.0298,-0.0603 0.12382,-0.16696 0.035,-0.04 -0.0469,-0.0742 -0.0819,-0.0342 -0.0627,0.0697 -0.078,0.0823 -0.0992,0.10315 0.003,-0.009 0.003,-0.008 0.0192,-0.0612 0.0132,-0.0424 -0.0737,-0.0554 -0.087,-0.013 -0.004,0.0292 -0.004,0.0585 -0.0102,0.0874 -0.0136,0.0654 -0.0598,0.21296 -0.0871,0.27098 -0.0249,0.0533 -0.0602,0.10381 -0.0889,0.15616 -0.0126,0.023 -0.009,0.0171 -0.0167,0.0322 -0.28986,0.12615 -0.64329,0.1124 -0.95866,0.11176 -0.006,-10e-6 -0.0106,0 -0.016,0 0.0267,-0.0975 0.0568,-0.20237 0.0803,-0.24846 0.0405,-0.0793 0.1016,-0.15276 0.15743,-0.22748 0.009,-0.0116 0.0111,-0.0152 0.0185,-0.0252 0.009,-0.003 0.0183,-0.006 0.0275,-0.009 0.0917,-0.0259 0.1912,-0.0359 0.2867,-0.0539 0.0485,-0.0122 0.0233,-0.0595 -0.0253,-0.0473 -0.0905,0.0297 -0.18272,0.0568 -0.27134,0.089 -0.002,0 -0.002,0.001 -0.003,0.001 0.10202,-0.14037 0.0745,-0.11527 0.24662,-0.21688 0.062,-0.0641 -0.0696,-0.12458 -0.13151,-0.0605 -0.0524,0.12672 -0.0643,0.16856 -0.15519,0.29307 -0.23084,0.0855 -0.45836,0.18111 -0.66651,0.29042 -0.0823,0.0432 -0.15947,0.0908 -0.2368,0.13826 0,-0.0325 -0.002,-0.0463 0,-0.093 0,-0.043 0.004,-0.086 0.006,-0.12898 -0.004,0.0428 -0.008,0.0854 -0.018,0.12765 -0.0121,0.0495 -0.0235,0.0885 -0.0352,0.12369 -0.01,0.006 -0.0191,0.0118 -0.0288,0.0176 -0.0142,0.009 -0.0281,0.0173 -0.0422,0.0259 -0.31177,-0.002 -0.62351,-0.003 -0.9353,-0.004 0.0586,-0.0285 0.11551,-0.0587 0.17888,-0.0815 0.18697,-0.0671 0.64099,-0.19028 0.88282,-0.25795 0,0.0163 -0.002,0.0325 -0.002,0.0488 0.002,-0.0167 0.005,-0.0332 0.006,-0.0499 0.0367,-0.0103 0.10718,-0.0296 0.1299,-0.0362 0.2135,-0.0625 0.42428,-0.12944 0.63642,-0.19413 -0.12243,0.0361 -0.4544,0.13387 -0.766,0.22483 0.003,-0.045 0.005,-0.0901 0.01,-0.13494 0,0.004 -0.007,0.003 -0.007,0 -0.002,0.0454 -0.004,0.0907 -0.006,0.13604 -0.18886,0.0551 -0.3922,0.1147 -0.47262,0.13627 -0.14046,0.0376 -0.28551,0.0664 -0.42685,0.10248 -0.68066,0.17359 0.0609,-0.003 -0.38271,0.10115 -0.003,10e-4 -0.004,0.003 -0.007,0.004 -0.0422,0 -0.0845,0 -0.12669,-0.001 0.0328,-0.0322 0.0662,-0.064 0.0979,-0.0967 0.073,-0.0754 0.13657,-0.15524 0.2147,-0.22815 0.18635,-0.17388 0.3146,-0.27453 0.46204,-0.38539 -0.0338,0.0223 -0.0683,0.0442 -0.10015,0.0678 -0.50326,0.37312 -0.23011,0.20702 -0.61885,0.52321 -0.0458,0.0373 -0.099,0.0699 -0.14813,0.10512 -0.0415,-0.0185 -0.0812,-0.0556 -0.0979,-0.11021 0,-10e-4 -0.002,0 -0.002,-10e-4 -0.007,-0.0185 -0.0116,-0.0371 -0.0131,-0.0561 -0.008,-0.10488 -0.0116,-0.21186 0.0176,-0.31493 0.0272,-0.0959 0.0996,-0.18286 0.14943,-0.27431 0.008,-0.0171 -0.0268,-0.0251 -0.0349,-0.008 -0.0441,0.10053 -0.2076,0.46624 -0.24509,0.58482 -0.0416,-0.1433 -0.0587,-0.28867 -0.0656,-0.43464 -0.008,0.0599 -0.0181,0.11977 -0.024,0.17976 -0.0223,0.22904 -0.0128,0.19649 -0.0217,0.23808 -0.0369,-0.0343 -0.0747,-0.0685 -0.11125,-0.10313 -0.83768,-0.79235 -0.42284,-0.37435 -1.09433,-1.07865 -0.0409,-0.0303 -0.0868,-0.0431 -0.13054,-0.0433 z m 1.38231,0.80722 c 0.004,-0.0272 0.008,-0.0544 0.009,-0.0817 0.004,-0.0881 -0.007,-0.17621 -0.0105,-0.26436 -2e-5,0.003 -0.007,0.003 -0.007,0 0.002,0.115 0.003,0.23067 0.008,0.34609 z m 1.158,-0.0819 c 0.0784,-0.0517 0.15905,-0.10178 0.23775,-0.15327 0.004,-0.005 0.008,-0.009 0.0111,-0.0139 -0.01,10e-4 -0.0194,10e-4 -0.0291,0.002 -0.0924,0.0693 -0.1522,0.11436 -0.21983,0.1652 z m 0.24896,-0.16719 c 0.0375,-0.003 0.0751,-0.005 0.11263,-0.007 0.0645,-0.0273 0.009,-0.0903 -0.056,-0.0629 -0.0188,0.0234 -0.0378,0.0468 -0.0567,0.0702 z m 4.4397,0.43001 c 0.009,-0.0338 0.0191,-0.0677 0.0256,-0.10182 0.007,-0.036 0.009,-0.0722 0.0128,-0.10844 -0.0129,0.0357 -0.0248,0.0715 -0.0304,0.108 -0.006,0.034 -0.007,0.0681 -0.008,0.10226 z m 0.0384,-0.21026 c 0.0111,-0.0305 0.023,-0.061 0.0326,-0.0916 0.002,-0.0106 -0.0198,-0.0126 -0.0218,-0.002 -0.004,0.0313 -0.008,0.0625 -0.0108,0.0939 z m -0.0118,0.28624 c 0.004,-0.002 0.008,-0.003 0.0111,-0.005 0.21499,-0.0972 0.32279,-0.14765 0.39359,-0.18176 -0.1274,0.0461 -0.24968,0.0968 -0.3955,0.1802 -0.003,0.002 -0.006,0.004 -0.009,0.006 z m 0.40478,-0.1864 c 0.0925,-0.0335 0.18518,-0.0643 0.30429,-0.10536 0.0293,-0.0107 0.007,-0.0395 -0.0221,-0.0287 -0.97043,0.40673 0.0672,-0.0344 -0.28221,0.13406 z m 1.44502,-0.2224 c 0.0391,-0.0246 0.0786,-0.049 0.11711,-0.074 0.002,-10e-4 -5e-5,-0.002 -0.002,-10e-4 -0.0384,0.025 -0.0769,0.0499 -0.11519,0.0751 z m 1.19192,0.0638 c 0.13797,-0.0608 0.27799,-0.1192 0.44477,-0.19061 -0.006,0.003 -0.0126,-0.003 -0.006,-0.006 -0.14599,0.0658 -0.29907,0.12475 -0.43869,0.19677 z m 2.38768,-0.0654 c 0.33441,-0.12269 0.40897,-0.15587 0.34238,-0.13915 -0.0322,0.0115 -0.0656,0.0215 -0.0973,0.0338 -0.0719,0.0278 -0.15713,0.0651 -0.24511,0.10535 z m 0.34238,-0.13915 c 0.0727,-0.0261 0.14524,-0.0524 0.21951,-0.0764 -0.16503,0.0524 -0.32156,0.10205 -0.21951,0.0764 z m 0.91867,0.44481 c 0.0609,0.003 0.029,0.001 0.13503,0.006 -0.002,0 -0.002,-0.001 0,-0.001 -0.0655,-0.003 -0.0842,-0.003 -0.13503,-0.005 z m -1.22744,0.19458 c 0.13889,-0.001 0.38537,-0.008 0.85306,-0.0263 0.12705,-0.005 0.25349,-0.0147 0.37981,-0.0256 -0.12735,-0.007 -0.25457,-0.0118 -0.38206,-0.008 -0.207,0.005 -0.52534,0.0285 -0.85081,0.0603 z m 1.23287,-0.0519 c 0.13799,0.008 0.27601,0.0175 0.41406,0.0229 0.0602,-10e-4 0.0576,-0.06 -0.002,-0.0587 -0.13734,0.0106 -0.27431,0.0239 -0.41148,0.0358 z m -2.20722,1.1648 c 0.16025,0.035 0.31987,0.0537 0.57022,0.0689 0.11079,0.007 0.22231,0.0103 0.33372,0.0102 -0.11099,-0.003 -0.22207,-0.009 -0.33245,-0.0168 -0.24794,-0.0165 -0.41038,-0.0373 -0.57149,-0.0623 z m 0.90394,0.0791 c 0.0761,0.002 0.15212,0.002 0.22783,-0.002 0.16509,-0.01 0.32293,-0.0511 0.48444,-0.0766 0.002,0 0.002,-10e-4 0,-10e-4 -0.1614,0.0245 -0.31963,0.0626 -0.48411,0.0736 -0.0758,0.005 -0.15192,0.007 -0.22816,0.007 z m 0.19007,0.11617 c 0.43875,0.0404 0.88287,0.0498 1.32408,0.0762 -0.0149,-0.001 -0.0131,-0.0161 0.002,-0.0148 -0.44174,-0.0201 -0.884,-0.0395 -1.326,-0.0614 z m -0.65596,0.2193 c 0.0635,0.0395 0.12107,0.077 0.14879,0.1025 0.0173,0.0159 0.0116,0.0388 0.0173,0.0583 0.0537,0.0402 0.13589,-0.0122 0.0822,-0.0523 -0.13151,-0.0374 -0.11519,-0.0339 -0.24832,-0.10844 z m -5.45115,-0.20031 c 0.12311,0.0159 0.24715,0.0288 0.37117,0.0409 0.0637,0.006 0.14809,0.0118 0.22079,0.0179 -0.073,-0.008 -0.14597,-0.0169 -0.21919,-0.0241 -0.13364,-0.0131 -0.25281,-0.0245 -0.37277,-0.0347 z m 0.59196,0.0588 c 0.12602,0.0143 0.25195,0.0285 0.37886,0.0382 1.99855,0.15218 -0.36798,-0.0593 0.91898,0.0583 0.0428,0.001 0.0449,-0.0408 0.002,-0.0418 -0.11268,10e-4 -0.22527,0.008 -0.3379,0.005 -0.28057,-0.007 -0.64645,-0.0327 -0.96186,-0.0594 z m -1.03545,0.28579 c 0.0464,0.0231 0.0929,0.0462 0.14142,0.0672 0.25823,0.0981 0.31642,0.11921 0.38781,0.14642 -0.13323,-0.0598 -0.26473,-0.1169 -0.37691,-0.15945 -0.0545,-0.0206 -0.10328,-0.0373 -0.15232,-0.0541 z m 0.52923,0.21356 c 0.17295,0.0776 0.34916,0.16037 0.4931,0.22727 0.0123,0.005 0.0234,-0.007 0.0111,-0.0121 -0.32371,-0.14307 -0.39567,-0.17371 -0.5043,-0.2151 z m -7.32079,-0.5444 c -0.064,0.0269 -0.15339,0.0651 -0.19743,0.0866 0.0482,-0.0166 0.10555,-0.0421 0.19743,-0.0866 z m -0.19743,0.0866 c -0.052,0.0179 -0.10963,0.0328 -0.25246,0.0724 -0.0407,0.0159 -0.008,0.0556 0.0326,0.0397 0.10963,-0.0568 0.16138,-0.0837 0.21982,-0.11218 z m 0.85947,-1.52037 c -0.0763,-0.0286 -0.14415,-0.0527 -0.18528,-0.0643 -0.0816,-0.023 -0.16736,-0.0375 -0.25341,-0.0515 0.0832,0.0186 0.16649,0.0373 0.24765,0.0596 0.0643,0.0177 0.12779,0.0366 0.19104,0.0561 z m -0.43869,-0.11574 c -0.0465,-0.0104 -0.093,-0.0207 -0.13918,-0.0316 -0.008,-0.002 -0.0111,0.006 -0.003,0.007 0.047,0.009 0.0948,0.0166 0.1424,0.0243 z m 9.09443,-0.0996 c -0.0308,0.0256 -0.0874,0.0752 -0.21501,0.19325 -0.19735,0.18266 -0.24891,0.23406 -0.24575,0.235 -0.0194,0.0164 -0.0227,0.0184 -0.0563,0.047 -0.0219,0.002 -0.0432,0.004 -0.0656,0.006 0.16335,-0.16766 0.21275,-0.21773 0.52893,-0.44524 0.0172,-0.0124 0.0362,-0.0235 0.0538,-0.0356 z m -4.74751,0.11022 c -0.002,0.002 -0.002,0.003 -0.004,0.006 -0.0568,0.0758 -0.13207,0.14471 -0.19038,0.21997 -0.0695,0.0897 -0.12194,0.17482 -0.17471,0.2626 -0.16776,0 -0.33555,-0.002 -0.50333,-0.003 0.10821,-0.0901 0.21532,-0.17828 0.24093,-0.19501 0.1775,-0.11597 0.40396,-0.22009 0.63165,-0.29109 z m 1.92466,0.13493 c -0.004,0.0302 -0.009,0.0605 -0.0141,0.0908 -0.092,0.21958 -0.29152,0.25265 -0.45886,0.25509 -0.0888,0.001 -0.17768,0.002 -0.26653,0.003 0.004,-0.004 0.008,-0.009 0.0111,-0.013 0.0441,-0.0292 0.0892,-0.0589 0.11904,-0.074 0.0856,-0.0435 0.18218,-0.0753 0.2723,-0.11417 0.24804,-0.10709 0.28363,-0.13061 0.33693,-0.14776 z m 1.20985,0.009 c -0.002,0.007 -0.004,0.0139 -0.006,0.021 -0.0162,0.0885 -0.0159,0.17831 -0.0304,0.26702 -0.12693,0.006 -0.25377,0.0115 -0.38077,0.0161 0.0276,-0.0314 0.0447,-0.0437 0.16959,-0.13097 0.0824,-0.0576 0.16178,-0.11762 0.24703,-0.17315 z m -0.94874,0.006 c 0,0 0.002,0 0.002,0.001 0,10e-4 0,0.002 -0.002,0.003 0,-10e-4 0,-0.003 0,-0.003 z m -4.81601,0.20583 c 0,0.002 0,0.003 0,0.004 -0.002,-10e-4 -0.002,-0.002 -0.003,-0.003 0.002,-10e-4 0.002,-10e-4 0.003,-10e-4 z"
       style="fill:#ffffff;fill-opacity:1;stroke:none;stroke-width:0.264583px;stroke-linecap:butt;stroke-linejoin:miter;stroke-opacity:1" />
  </g>
</svg>
