<?xml version="1.0" encoding="UTF-8" standalone="no"?>
<svg
   xmlns:dc="http://purl.org/dc/elements/1.1/"
   xmlns:cc="http://creativecommons.org/ns#"
   xmlns:rdf="http://www.w3.org/1999/02/22-rdf-syntax-ns#"
   xmlns:svg="http://www.w3.org/2000/svg"
   xmlns="http://www.w3.org/2000/svg"
   xmlns:sodipodi="http://sodipodi.sourceforge.net/DTD/sodipodi-0.dtd"
   xmlns:inkscape="http://www.inkscape.org/namespaces/inkscape"
   inkscape:export-ydpi="96"
   inkscape:export-xdpi="96"
   inkscape:export-filename="D:\Calcatz\Icon Pack\Adventure Narative Inspired by Arrival\GUI\Inventory\png\background - light_detail.png"
   sodipodi:docname="background - light_detail.svg"
   inkscape:version="1.0 (4035a4fb49, 2020-05-01)"
   id="svg9122"
   version="1.1"
   viewBox="0 0 601.72498 205.761"
   height="205.761mm"
   width="601.72498mm">
  <defs
     id="defs9116">
    <filter
       height="1.3597906"
       y="-0.17989528"
       width="1.0994786"
       x="-0.049739286"
       id="filter6350"
       style="color-interpolation-filters:sRGB"
       inkscape:collect="always">
      <feGaussianBlur
         id="feGaussianBlur6352"
         stdDeviation="11.342258"
         inkscape:collect="always" />
    </filter>
  </defs>
  <sodipodi:namedview
     inkscape:window-maximized="1"
     inkscape:window-y="-8"
     inkscape:window-x="-8"
     inkscape:window-height="705"
     inkscape:window-width="1366"
     fit-margin-bottom="0"
     fit-margin-right="0"
     fit-margin-left="0"
     fit-margin-top="0"
     showgrid="false"
     inkscape:document-rotation="0"
     inkscape:current-layer="layer1"
     inkscape:document-units="mm"
     inkscape:cy="469.06398"
     inkscape:cx="1099.0619"
     inkscape:zoom="0.33557348"
     inkscape:pageshadow="2"
     inkscape:pageopacity="0.0"
     borderopacity="1.0"
     bordercolor="#666666"
     pagecolor="#ffffff"
     id="base" />
  <metadata
     id="metadata9119">
    <rdf:RDF>
      <cc:Work
         rdf:about="">
        <dc:format>image/svg+xml</dc:format>
        <dc:type
           rdf:resource="http://purl.org/dc/dcmitype/StillImage" />
        <dc:title></dc:title>
      </cc:Work>
    </rdf:RDF>
  </metadata>
  <g
     transform="translate(184.96014,-24.060157)"
     id="layer1"
     inkscape:groupmode="layer"
     inkscape:label="Layer 1">
    <path
       d="m -82.812518,202.59973 c 111.0563,-45.8386 101.1449,-55.7118 230.245798,-46.794 28.9405,1.9992 56.5353,13.0473 84.8962,19.147 16.7405,3.6004 34.0742,4.7762 50.3968,9.9512 8.4503,2.6792 14.4217,15.4968 23.0162,13.324 17.5537,-4.4379 29.9623,-20.3368 44.9435,-30.5053 -9.4659,5.7157 -18.9319,11.4313 -28.3978,17.1469 88.43451,1.304 90.27871,-123.761103 1.8442,-125.065203 v 0 c -31.3386,5.5203 -62.6771,11.0405 -94.0156,16.5609 16.6949,-8.3447 31.6981,-21.826 50.0846,-25.03403 5.6165,-0.9799 1.0091,12.83213 -3.057,16.82883 -12.8501,12.6309 -27.4526,25.4072 -44.8149,30.2259 -40.6018,11.268803 -187.060698,3.436303 -212.582698,-1.3127 -35.5935,-6.6229 -68.3729,-23.837 -102.5593,-35.7554 -99.901602,0 -99.901602,141.281903 0,141.281903 z"
       id="path9141"
       style="fill:#fcfcfc;fill-opacity:0.637097;stroke:none;stroke-width:2.4927;stroke-linecap:round;stroke-miterlimit:4;stroke-dasharray:none;stroke-opacity:1;paint-order:markers stroke fill;filter:url(#filter6350)"
       clip-path="none" />
  </g>
</svg>
