<?xml version="1.0" encoding="UTF-8" standalone="no"?>
<svg
   xmlns:dc="http://purl.org/dc/elements/1.1/"
   xmlns:cc="http://creativecommons.org/ns#"
   xmlns:rdf="http://www.w3.org/1999/02/22-rdf-syntax-ns#"
   xmlns:svg="http://www.w3.org/2000/svg"
   xmlns="http://www.w3.org/2000/svg"
   xmlns:sodipodi="http://sodipodi.sourceforge.net/DTD/sodipodi-0.dtd"
   xmlns:inkscape="http://www.inkscape.org/namespaces/inkscape"
   inkscape:export-ydpi="96"
   inkscape:export-xdpi="96"
   inkscape:export-filename="D:\Calcatz\Icon Pack\Adventure Narative Inspired by Arrival\GUI\Inventory\png\background - silhouette.png"
   sodipodi:docname="background - silhouette.svg"
   inkscape:version="1.0 (4035a4fb49, 2020-05-01)"
   id="svg8526"
   version="1.1"
   viewBox="0 0 224.03745 193.68195"
   height="193.68195mm"
   width="224.03745mm">
  <defs
     id="defs8520">
    <filter
       height="1.1528457"
       y="-0.076422833"
       width="1.3680919"
       x="-0.184046"
       id="filter6260"
       style="color-interpolation-filters:sRGB"
       inkscape:collect="always">
      <feGaussianBlur
         id="feGaussianBlur6262"
         stdDeviation="20.219358"
         inkscape:collect="always" />
    </filter>
  </defs>
  <sodipodi:namedview
     inkscape:window-maximized="1"
     inkscape:window-y="-8"
     inkscape:window-x="-8"
     inkscape:window-height="705"
     inkscape:window-width="1366"
     fit-margin-bottom="0"
     fit-margin-right="0"
     fit-margin-left="0"
     fit-margin-top="0"
     showgrid="false"
     inkscape:document-rotation="0"
     inkscape:current-layer="layer1"
     inkscape:document-units="mm"
     inkscape:cy="601.19603"
     inkscape:cx="683.31909"
     inkscape:zoom="0.33557348"
     inkscape:pageshadow="2"
     inkscape:pageopacity="0.0"
     borderopacity="1.0"
     bordercolor="#666666"
     pagecolor="#ffffff"
     id="base" />
  <metadata
     id="metadata8523">
    <rdf:RDF>
      <cc:Work
         rdf:about="">
        <dc:format>image/svg+xml</dc:format>
        <dc:type
           rdf:resource="http://purl.org/dc/dcmitype/StillImage" />
        <dc:title></dc:title>
      </cc:Work>
    </rdf:RDF>
  </metadata>
  <g
     transform="translate(74.96151,10.899782)"
     id="layer1"
     inkscape:groupmode="layer"
     inkscape:label="Layer 1">
    <path
       transform="matrix(0.26458333,0,0,0.26458333,-74.96151,-10.899782)"
       d="M 180.084,48.527073 A 131.83238,281.48642 0 0 0 126.38478,73.200907 131.83238,281.48642 0 0 0 60.03712,445.04662 131.83238,281.48642 0 0 0 97.53517,549.01146 l -24.32031,116.48828 37.8789,-95.98242 a 131.83238,281.48642 0 0 0 17.14649,19.05078 l 8.95117,92.93164 21.61523,-73.78711 a 131.83238,281.48642 0 0 0 17.97071,3.68359 l 26.41406,72.10352 12.84961,-82.50586 a 131.83238,281.48642 0 0 0 18.09378,-13.97656 131.83238,281.48642 0 0 0 1.9785,-1.92969 l 58.0781,98.41211 -23.0566,-149.36133 a 131.83238,281.48642 0 0 0 29.6347,-318.73242 l -0.1777,-0.85156 A 131.83238,281.48642 0 0 0 180.084,48.527073 Z"
       style="fill:#1f2123;fill-opacity:0.13;stroke:none;stroke-width:1.84063;stroke-linecap:round;stroke-miterlimit:4;stroke-dasharray:none;stroke-opacity:1;paint-order:markers stroke fill;filter:url(#filter6260)"
       id="path9143" />
    <path
       transform="matrix(0.26458333,0,0,0.26458333,-74.96151,-10.899782)"
       id="path9145"
       style="fill:#1f2123;fill-opacity:0.13;stroke:none;stroke-width:1.84063;stroke-linecap:round;stroke-miterlimit:4;stroke-dasharray:none;stroke-opacity:1;paint-order:markers stroke fill;filter:url(#filter6260)"
       d="m 666.12191,48.527073 a 131.83238,281.48642 0 0 0 -53.6992,24.673834 131.83238,281.48642 0 0 0 -66.3476,371.845713 131.83238,281.48642 0 0 0 37.498,103.96484 l -24.3203,116.48828 37.8789,-95.98242 a 131.83238,281.48642 0 0 0 17.1465,19.05078 l 8.9512,92.93164 21.6152,-73.78711 a 131.83238,281.48642 0 0 0 17.9707,3.68359 l 26.4141,72.10352 12.8496,-82.50586 a 131.83238,281.48642 0 0 0 18.0937,-13.97656 131.83238,281.48642 0 0 0 1.9785,-1.92969 l 58.0782,98.41211 -23.0567,-149.36133 a 131.83238,281.48642 0 0 0 29.6348,-318.73242 l -0.1778,-0.85156 A 131.83238,281.48642 0 0 0 666.12191,48.527073 Z" />
  </g>
</svg>
