<?xml version="1.0" encoding="UTF-8" standalone="no"?>
<svg
   xmlns:dc="http://purl.org/dc/elements/1.1/"
   xmlns:cc="http://creativecommons.org/ns#"
   xmlns:rdf="http://www.w3.org/1999/02/22-rdf-syntax-ns#"
   xmlns:svg="http://www.w3.org/2000/svg"
   xmlns="http://www.w3.org/2000/svg"
   xmlns:sodipodi="http://sodipodi.sourceforge.net/DTD/sodipodi-0.dtd"
   xmlns:inkscape="http://www.inkscape.org/namespaces/inkscape"
   inkscape:export-ydpi="96"
   inkscape:export-xdpi="96"
   inkscape:export-filename="D:\Calcatz\Icon Pack\Adventure Narative Inspired by Arrival\GUI\Inventory\png\background.png"
   sodipodi:docname="background.svg"
   inkscape:version="1.0 (4035a4fb49, 2020-05-01)"
   id="svg9701"
   version="1.1"
   viewBox="0 0 361.42087 204.36589"
   height="204.36589mm"
   width="361.42087mm">
  <defs
     id="defs9695">
    <clipPath
       clipPathUnits="userSpaceOnUse"
       id="clipPath7071">
      <rect
         inkscape:export-ydpi="300"
         inkscape:export-xdpi="300"
         y="-472.81711"
         x="2235.8469"
         height="203.2"
         width="361.42084"
         id="rect7073"
         style="fill:#b2b2b2;fill-opacity:1;stroke-width:1.365;stroke-linecap:round;paint-order:markers stroke fill" />
    </clipPath>
    <filter
       height="1.3597906"
       y="-0.17989528"
       width="1.0994786"
       x="-0.049739286"
       id="filter6350"
       style="color-interpolation-filters:sRGB"
       inkscape:collect="always">
      <feGaussianBlur
         id="feGaussianBlur6352"
         stdDeviation="11.342258"
         inkscape:collect="always" />
    </filter>
    <filter
       height="1.1528457"
       y="-0.076422833"
       width="1.3680919"
       x="-0.184046"
       id="filter6260"
       style="color-interpolation-filters:sRGB"
       inkscape:collect="always">
      <feGaussianBlur
         id="feGaussianBlur6262"
         stdDeviation="20.219358"
         inkscape:collect="always" />
    </filter>
  </defs>
  <sodipodi:namedview
     inkscape:window-maximized="1"
     inkscape:window-y="-8"
     inkscape:window-x="-8"
     inkscape:window-height="705"
     inkscape:window-width="1366"
     fit-margin-bottom="0"
     fit-margin-right="0"
     fit-margin-left="0"
     fit-margin-top="0"
     showgrid="false"
     inkscape:document-rotation="0"
     inkscape:current-layer="layer1"
     inkscape:document-units="mm"
     inkscape:cy="386.20326"
     inkscape:cx="683.00006"
     inkscape:zoom="0.33557348"
     inkscape:pageshadow="2"
     inkscape:pageopacity="0.0"
     borderopacity="1.0"
     bordercolor="#666666"
     pagecolor="#ffffff"
     id="base" />
  <metadata
     id="metadata9698">
    <rdf:RDF>
      <cc:Work
         rdf:about="">
        <dc:format>image/svg+xml</dc:format>
        <dc:type
           rdf:resource="http://purl.org/dc/dcmitype/StillImage" />
        <dc:title></dc:title>
      </cc:Work>
    </rdf:RDF>
  </metadata>
  <g
     transform="translate(74.877098,-45.983722)"
     id="layer1"
     inkscape:groupmode="layer"
     inkscape:label="Layer 1">
    <rect
       inkscape:export-ydpi="300"
       inkscape:export-xdpi="300"
       y="45.983723"
       x="-74.877098"
       height="203.2"
       width="361.42084"
       id="rect7731"
       style="fill:#b2b2b2;fill-opacity:1;stroke-width:1.365;stroke-linecap:round;paint-order:markers stroke fill" />
    <path
       clip-path="url(#clipPath7071)"
       style="fill:#fcfcfc;fill-opacity:0.637097;stroke:none;stroke-width:2.4927;stroke-linecap:round;stroke-miterlimit:4;stroke-dasharray:none;stroke-opacity:1;paint-order:markers stroke fill;filter:url(#filter6350)"
       id="path7081"
       d="m 2219.9675,-295.63161 c 111.0563,-45.8386 101.1449,-55.7118 230.2458,-46.794 28.9405,1.9992 56.5353,13.0473 84.8962,19.147 16.7405,3.6004 34.0742,4.7762 50.3968,9.9512 8.4503,2.6792 14.4217,15.4968 23.0162,13.324 17.5537,-4.4379 29.9623,-20.3368 44.9435,-30.5053 -9.4659,5.7157 -18.9319,11.4313 -28.3978,17.1469 88.4345,1.304 90.2787,-123.7611 1.8442,-125.0652 v 0 c -31.3386,5.5203 -62.6771,11.0405 -94.0156,16.5609 16.6949,-8.3447 31.6981,-21.826 50.0846,-25.034 5.6165,-0.9799 1.0091,12.8321 -3.057,16.8288 -12.8501,12.6309 -27.4526,25.4072 -44.8149,30.2259 -40.6018,11.2688 -187.0607,3.4363 -212.5827,-1.3127 -35.5935,-6.6229 -68.3729,-23.837 -102.5593,-35.7554 -99.9016,0 -99.9016,141.2819 0,141.2819 z"
       transform="translate(-2310.724,518.80083)" />
    <path
       transform="matrix(0.26458333,0,0,0.26458333,-74.877097,45.983723)"
       id="path7085"
       style="fill:#1f2123;fill-opacity:0.13;stroke:none;stroke-width:1.84063;stroke-linecap:round;stroke-miterlimit:4;stroke-dasharray:none;stroke-opacity:1;paint-order:markers stroke fill;filter:url(#filter6260)"
       d="m 507.17609,88.907346 a 131.83238,281.48642 0 0 0 -53.69922,24.673834 131.83238,281.48642 0 0 0 -66.34766,371.84571 131.83238,281.48642 0 0 0 37.49805,103.96484 l -24.32031,116.48828 37.8789,-95.98242 a 131.83238,281.48642 0 0 0 17.14649,19.05078 l 8.95117,92.93164 21.61523,-73.78711 a 131.83238,281.48642 0 0 0 17.97071,3.68359 l 26.41406,72.10352 12.84961,-82.50586 a 131.83238,281.48642 0 0 0 18.09378,-13.97656 131.83238,281.48642 0 0 0 1.9785,-1.92969 l 58.0781,98.41211 -23.0566,-149.36133 a 131.83238,281.48642 0 0 0 29.6347,-318.73242 l -0.1777,-0.85156 A 131.83238,281.48642 0 0 0 507.17609,88.907346 Z" />
    <path
       transform="matrix(0.26458333,0,0,0.26458333,-74.877097,45.983723)"
       d="m 993.214,88.907346 a 131.83238,281.48642 0 0 0 -53.6992,24.673834 131.83238,281.48642 0 0 0 -66.3476,371.84571 131.83238,281.48642 0 0 0 37.498,103.96484 l -24.3203,116.48828 37.8789,-95.98242 a 131.83238,281.48642 0 0 0 17.1465,19.05078 l 8.9512,92.93164 21.6152,-73.78711 a 131.83238,281.48642 0 0 0 17.9707,3.68359 l 26.4141,72.10352 12.8496,-82.50586 a 131.83238,281.48642 0 0 0 18.0937,-13.97656 131.83238,281.48642 0 0 0 1.9785,-1.92969 l 58.0782,98.41211 -23.0567,-149.36133 a 131.83238,281.48642 0 0 0 29.6348,-318.73242 l -0.1778,-0.85156 A 131.83238,281.48642 0 0 0 993.214,88.907346 Z"
       style="fill:#1f2123;fill-opacity:0.13;stroke:none;stroke-width:1.84063;stroke-linecap:round;stroke-miterlimit:4;stroke-dasharray:none;stroke-opacity:1;paint-order:markers stroke fill;filter:url(#filter6260)"
       id="path7183" />
  </g>
</svg>
