<?xml version="1.0" encoding="UTF-8" standalone="no"?>
<svg
   xmlns:dc="http://purl.org/dc/elements/1.1/"
   xmlns:cc="http://creativecommons.org/ns#"
   xmlns:rdf="http://www.w3.org/1999/02/22-rdf-syntax-ns#"
   xmlns:svg="http://www.w3.org/2000/svg"
   xmlns="http://www.w3.org/2000/svg"
   xmlns:sodipodi="http://sodipodi.sourceforge.net/DTD/sodipodi-0.dtd"
   xmlns:inkscape="http://www.inkscape.org/namespaces/inkscape"
   inkscape:export-ydpi="96"
   inkscape:export-xdpi="96"
   inkscape:export-filename="D:\Calcatz\Icon Pack\Adventure Narative Inspired by Arrival\GUI\Inventory\png\logogram_inventory_scroll_bar - background_detail_3.png"
   sodipodi:docname="logogram_iventory_scroll_bar - background_detail_3.svg"
   inkscape:version="1.0 (4035a4fb49, 2020-05-01)"
   id="svg9295"
   version="1.1"
   viewBox="0 0 1.3962172 7.3632779"
   height="7.3632779mm"
   width="1.3962172mm">
  <defs
     id="defs9289" />
  <sodipodi:namedview
     inkscape:window-maximized="1"
     inkscape:window-y="-8"
     inkscape:window-x="-8"
     inkscape:window-height="705"
     inkscape:window-width="1366"
     fit-margin-bottom="0"
     fit-margin-right="0"
     fit-margin-left="0"
     fit-margin-top="0"
     showgrid="false"
     inkscape:document-rotation="0"
     inkscape:current-layer="layer1"
     inkscape:document-units="mm"
     inkscape:cy="18.79427"
     inkscape:cx="-4.4910053"
     inkscape:zoom="10.738351"
     inkscape:pageshadow="2"
     inkscape:pageopacity="0.0"
     borderopacity="1.0"
     bordercolor="#666666"
     pagecolor="#ffffff"
     id="base" />
  <metadata
     id="metadata9292">
    <rdf:RDF>
      <cc:Work
         rdf:about="">
        <dc:format>image/svg+xml</dc:format>
        <dc:type
           rdf:resource="http://purl.org/dc/dcmitype/StillImage" />
        <dc:title></dc:title>
      </cc:Work>
    </rdf:RDF>
  </metadata>
  <g
     transform="translate(-53.705027,-134.29733)"
     id="layer1"
     inkscape:groupmode="layer"
     inkscape:label="Layer 1">
    <path
       transform="matrix(0.26458333,0,0,0.26458333,53.705027,134.29733)"
       d="M 3.9296875 0 C 3.9296875 0 3.1981612 2.8773418 2.7832031 4.8671875 C 2.7357012 5.096016 2.6350008 5.3812428 2.4492188 5.5976562 C 2.4127551 5.61765 2.3948288 5.634755 2.3378906 5.6601562 C 2.2079883 5.718361 2.0669128 5.7496943 1.9335938 5.7988281 C 1.781052 5.8551431 1.6320202 5.9176019 1.4804688 5.9765625 C 1.3433097 6.0298538 1.4175284 6.2239691 1.5546875 6.1699219 C 1.7097993 6.1143628 1.8660815 6.0594653 2.0214844 6.0039062 C 2.1255398 5.9604133 2.2292312 5.9150708 2.3339844 5.8730469 C 2.3127902 5.8915857 2.309954 5.892156 2.1933594 5.9921875 C 1.9203263 6.2265182 1.9117227 6.2212999 1.6328125 6.5117188 C 1.5464881 6.6012936 1.4657353 6.6964641 1.3828125 6.7890625 C 1.378655 6.792842 1.3861491 6.8006545 1.3925781 6.796875 C 1.4754632 6.7042766 1.549614 6.6026175 1.640625 6.5175781 C 1.8196612 6.350523 2.0401964 6.2012976 2.2460938 6.0664062 C 2.319152 6.0184062 2.3916221 5.9707576 2.4667969 5.9257812 C 2.5084574 5.8992247 2.5512068 5.8786993 2.59375 5.8554688 C 2.4918822 6.4031939 2.3857128 6.9511656 2.296875 7.5019531 C 2.2650355 7.693344 2.215635 7.9743271 2.0800781 7.9882812 C 2.0768674 7.9868452 2.0735322 7.9857848 2.0703125 7.984375 C 2.048689 7.9748737 2.0274218 7.9646904 2.0058594 7.9550781 C 1.8983831 7.8555021 1.7935044 7.7625505 1.6894531 7.6347656 C 1.575387 7.4941672 1.4841783 7.3371448 1.3769531 7.1914062 C 1.127013 6.8512488 1.2028338 7.0397763 1.1289062 6.8164062 C 1.0182417 6.7661385 0.94597606 6.9220106 1.0566406 6.9726562 C 1.0864989 6.9537586 1.1226111 6.9049938 1.1503906 6.9257812 C 1.2431024 6.9949466 1.2953631 7.1074396 1.3632812 7.2011719 C 1.5894348 7.5134196 1.6617964 7.6432111 1.7890625 7.8574219 C 1.7553326 7.8421767 1.7213078 7.8276035 1.6875 7.8125 C 1.5007913 7.7312402 1.385557 7.9956679 1.5722656 8.0761719 C 1.7943413 8.1738811 1.7341914 8.1471591 1.9257812 8.2207031 C 1.6633336 8.258722 1.4124257 8.2866489 1.0820312 8.2753906 C 0.49001361 8.1918631 0.75174781 8.2089188 0.29882812 8.1953125 C -0.1480481 8.2497377 -0.071891339 8.8821722 0.375 8.828125 C 0.44465669 8.8016683 0.51134186 8.7670712 0.58398438 8.7519531 C 1.0363803 8.6582489 1.4976434 8.6486138 1.9511719 8.7148438 C 1.8044665 8.7950409 1.6535934 8.8692288 1.5078125 8.9511719 C 1.5067061 8.9520667 1.5050126 8.9522301 1.5039062 8.953125 C 1.4124222 8.9626413 1.4649965 8.9647688 1.0058594 9.0605469 C 0.88522315 9.0882634 0.76329033 9.1107014 0.640625 9.125 C 0.76137185 9.1014011 0.88499337 9.0926076 1.0078125 9.0839844 C 1.2246649 9.0657154 1.3036814 9.0608153 1.3710938 9.0625 C 1.1276405 9.2594828 0.88404387 9.4553469 0.640625 9.6523438 C 0.48978406 9.7600603 0.64158355 9.9733289 0.79296875 9.8652344 C 1.0971829 9.6743682 1.3913811 9.4676585 1.7050781 9.2929688 C 1.7686699 9.2575134 1.8364773 9.2302482 1.9023438 9.1992188 C 2.0544106 9.1888351 2.0844522 9.4438154 2.0800781 9.6445312 C 2.0740184 9.9038331 2.0867307 10.163718 2.1074219 10.421875 C 2.0463885 10.428252 1.9850925 10.440461 1.9238281 10.4375 C 1.7020832 10.43372 1.625749 10.39213 1.4082031 10.355469 C 1.2757307 10.332792 1.0941365 10.317538 0.95898438 10.304688 C 0.89616863 10.28579 0.83276275 10.270095 0.76953125 10.251953 C 0.7067155 10.244394 0.69224993 10.330395 0.75585938 10.339844 C 0.81950662 10.347403 0.88361838 10.363535 0.94726562 10.371094 C 1.2390829 10.422495 1.0883755 10.410156 1.4003906 10.410156 C 1.4888316 10.421495 1.5725846 10.456846 1.6601562 10.474609 C 1.7451956 10.493507 1.8320979 10.497798 1.9179688 10.513672 C 2.1087306 10.548009 2.1076672 10.541232 2.1191406 10.544922 C 2.1392407 10.763009 2.1658775 10.979524 2.1953125 11.197266 C 2.1252033 11.200896 2.0549113 11.209419 1.9863281 11.195312 C 1.7397895 11.146935 1.2076804 10.931126 1.0019531 10.808594 C 0.8733358 10.732247 0.76590522 10.621895 0.6484375 10.529297 C 0.56298238 10.464289 0.47118551 10.585383 0.55664062 10.650391 C 0.68525795 10.744879 0.80724058 10.847421 0.94140625 10.933594 C 1.0952802 11.032263 1.2534174 11.125112 1.4179688 11.203125 C 1.4162955 11.203161 1.4157593 11.203085 1.4140625 11.203125 C 1.2350263 11.203692 1.124738 11.225748 0.9453125 11.248047 C 0.87951093 11.240488 0.81384845 11.237901 0.74804688 11.226562 C 0.67457286 11.230342 0.68178063 11.335747 0.75585938 11.330078 C 0.81950662 11.322519 0.88358059 11.318106 0.94726562 11.310547 C 1.0818546 11.30964 1.2694122 11.307021 1.40625 11.318359 C 1.4716358 11.322139 1.5365924 11.338271 1.6015625 11.349609 C 1.6588223 11.357168 1.7170469 11.359755 1.7734375 11.371094 C 1.8191698 11.378653 1.8625086 11.398691 1.9082031 11.40625 C 1.9315705 11.409208 1.9551 11.406752 1.9785156 11.40625 C 2.0833949 11.442157 2.1622884 11.472402 2.2324219 11.496094 C 2.2704865 11.762049 2.2998622 12.028621 2.3339844 12.294922 C 2.2436932 12.358 2.1609505 12.421732 2.0449219 12.478516 C 1.9624526 12.521224 1.8728168 12.544614 1.7890625 12.582031 C 1.7091633 12.616047 1.6318021 12.65632 1.5527344 12.693359 C 1.5023155 12.719816 1.5405087 12.79246 1.5917969 12.765625 C 2.007526 12.516932 1.6072864 12.738936 2.0703125 12.537109 C 2.3328457 12.423777 2.3382717 12.412079 2.3476562 12.40625 C 2.3688525 12.580165 2.4002771 12.753395 2.4140625 12.927734 C 2.42131 13.001155 2.386291 13.467623 2.2128906 13.84375 C 2.2151858 13.847466 2.254212 13.833305 2.0683594 13.882812 C 1.9982869 13.90171 1.9276577 13.921624 1.8554688 13.925781 C 1.7896672 13.925781 1.5968604 13.90587 1.5195312 13.894531 C 1.489673 13.883193 1.4569624 13.8767 1.4257812 13.869141 C 1.4042379 13.869141 1.3887942 13.86876 1.3691406 13.857422 C 1.2533359 13.846083 1.2356822 14.00939 1.3515625 14.021484 C 1.3731058 14.010146 1.3941944 14.009512 1.4121094 14.001953 C 1.4461251 14.001953 1.4795049 14.013925 1.5136719 14.021484 C 1.5628057 14.0219 1.6114381 14.009766 1.6601562 14.009766 C 1.7272429 13.998427 1.7942415 13.997793 1.8613281 13.990234 C 1.9360872 13.990234 2.0111406 13.989854 2.0859375 13.978516 C 2.1054707 13.976697 2.1250536 13.974789 2.1445312 13.972656 C 2.1437829 13.973889 2.1433305 13.975334 2.1425781 13.976562 C 2.0699337 14.008674 1.9981892 14.042048 1.9238281 14.070312 C 1.6555195 14.171982 1.5034562 14.227764 1.2226562 14.251953 C 1.1649807 14.251953 1.1069195 14.240234 1.0488281 14.240234 C 0.87406277 14.251573 0.88773465 14.495399 1.0625 14.486328 C 1.4585756 14.442108 1.0779579 14.497264 1.59375 14.357422 C 1.7058201 14.328546 1.8200757 14.304626 1.9335938 14.279297 C 1.8755094 14.347705 1.8099611 14.411489 1.7636719 14.488281 C 1.3902546 15.107897 1.2861273 15.67003 1.1035156 16.376953 C 0.99625263 16.792248 0.89896004 17.210147 0.796875 17.626953 C 0.74815689 17.833693 1.0415414 17.902053 1.0898438 17.695312 C 1.433365 16.123823 1.1833103 16.8402 1.8300781 15.460938 C 1.9351868 15.236812 2.016582 14.999771 2.1464844 14.789062 C 2.1781838 14.737755 2.1990668 14.730554 2.2265625 14.691406 C 2.2196443 14.721325 2.2259687 14.726287 2.2109375 14.789062 C 2.1893942 14.871456 2.1575584 14.952448 2.1464844 15.037109 C 2.1249411 15.180731 2.1297867 15.326174 2.1210938 15.470703 C 2.1142329 15.520125 2.1082886 15.56973 2.1015625 15.619141 C 2.1207389 15.487301 2.1429838 15.389768 2.2226562 15.056641 C 2.2441996 14.974247 2.2568098 14.890673 2.2851562 14.810547 C 2.310857 14.736846 2.3500429 14.669845 2.3769531 14.597656 C 2.3928397 14.551409 2.4034846 14.502862 2.4179688 14.455078 C 2.4275853 14.446956 2.4413101 14.429477 2.4511719 14.421875 C 2.443678 14.64485 2.4244946 14.86928 2.4296875 15.091797 C 2.4527828 15.950486 2.5497146 16.807932 2.6230469 17.666016 C 2.4896237 17.720871 2.3787019 17.756473 2.2382812 17.824219 C 2.1686246 17.858234 1.9288329 18.00007 1.8476562 18.037109 C 1.7929665 18.063566 1.7356623 18.0792 1.6796875 18.099609 C 1.6283993 18.122287 1.6536766 18.192284 1.7050781 18.171875 C 1.9011978 18.096284 1.8701843 18.115151 2.0585938 18.007812 C 2.1282504 17.969261 2.1925667 17.918781 2.265625 17.884766 C 2.3382675 17.85075 2.4156899 17.831271 2.4921875 17.808594 C 2.5413395 17.793862 2.5618906 17.793549 2.59375 17.785156 C 2.4864226 17.90094 2.5038651 17.899305 2.1796875 18.419922 C 2.0532245 18.622505 1.9005225 18.810372 1.7851562 19.019531 C 1.4758019 19.581736 1.4775446 19.674877 1.3203125 20.224609 C 1.3033046 20.299444 1.406997 20.325213 1.4257812 20.25 C 1.459797 20.081055 1.4692524 19.905829 1.5273438 19.744141 C 1.6127989 19.506408 1.7313235 19.283413 1.8535156 19.0625 C 2.0087616 18.78207 2.3034415 18.329819 2.5683594 18.085938 C 2.5598739 18.110392 2.5533453 18.13516 2.546875 18.160156 C 2.5253317 18.24255 2.5126092 18.328582 2.4902344 18.412109 C 2.4645336 18.514913 2.4252355 18.613238 2.4042969 18.716797 C 2.3744386 18.864576 2.3620674 19.015187 2.3398438 19.164062 C 2.3915477 18.934645 2.4612798 18.654254 2.5390625 18.425781 C 2.5689208 18.343388 2.6020471 18.264476 2.6328125 18.183594 C 2.6446712 18.152249 2.6439627 18.149229 2.6523438 18.126953 C 2.7003207 18.797355 2.7306088 19.467375 2.6796875 20.136719 C 2.6517621 20.526309 2.4889262 20.89244 2.234375 21.238281 C 2.0592198 21.260315 1.885786 21.29263 1.7050781 21.275391 C 1.5756293 21.264052 1.4511164 21.2178 1.3242188 21.189453 C 1.2011573 21.162996 1.1625106 21.336447 1.2851562 21.363281 C 1.5797771 21.450912 1.7100286 21.495636 1.953125 21.523438 C 1.8972531 21.574173 1.8407625 21.624371 1.7871094 21.677734 C 1.7766792 21.680702 1.7664402 21.685012 1.7558594 21.6875 C 1.5759917 21.731343 1.4679531 21.727131 1.2851562 21.732422 C 0.97708696 21.74376 1.2026952 21.732273 0.90234375 21.744141 C 0.82886973 21.744254 0.82919855 21.847656 0.90234375 21.847656 C 1.0612729 21.847656 1.1316594 21.846482 1.2910156 21.835938 C 1.3709148 21.824599 1.4498134 21.818106 1.5292969 21.810547 C 1.5708533 21.804833 1.6125326 21.801685 1.6542969 21.798828 C 1.5904563 21.860124 1.5292947 21.924853 1.4589844 21.978516 C 0.92413587 22.386553 0.76820773 22.416439 0.19921875 22.65625 C -0.093467864 22.814234 0.12922618 23.22623 0.421875 23.068359 C 0.59747185 22.945147 0.76491009 22.808825 0.94921875 22.699219 C 1.1859306 22.55862 1.4403093 22.449535 1.6835938 22.320312 C 1.7987525 22.259244 1.7965819 22.255539 1.8691406 22.216797 C 1.8029553 22.290077 1.7222568 22.387882 1.7050781 22.408203 C 1.4192325 22.745715 1.4300047 22.754531 1.1816406 23.125 C 0.95090047 23.430008 1.3828775 23.756218 1.6132812 23.451172 C 1.7017222 23.343833 1.7853251 23.232465 1.8789062 23.128906 C 1.9507105 23.049312 2.0301478 22.976643 2.1054688 22.900391 C 2.0506459 23.273987 1.9968221 23.726916 1.9550781 24.066406 C 1.9209371 24.34356 1.8860817 24.62125 1.8515625 24.898438 C 1.8129485 24.898438 1.814555 24.94175 1.8457031 24.951172 C 1.8318506 25.062416 1.8185032 25.173916 1.8046875 25.285156 C 1.8035347 25.296495 1.8203125 25.296495 1.8203125 25.285156 C 1.8463502 25.087143 1.8458616 25.088054 1.8613281 24.957031 C 1.9592948 24.955899 2.056707 24.937997 2.1542969 24.945312 C 2.4390287 24.954131 2.4682013 24.960261 2.4824219 24.96875 C 2.4366825 25.016507 2.3915437 25.065744 2.34375 25.111328 C 1.8321456 25.598169 2.2502518 25.149569 1.7890625 25.667969 C 1.7803696 25.679307 1.7937902 25.694806 1.8066406 25.679688 C 1.8925115 25.583688 1.9691712 25.477554 2.0644531 25.390625 C 2.1627208 25.301428 2.2781574 25.234359 2.3828125 25.152344 C 2.4504732 25.099354 2.5108692 25.037257 2.5800781 24.986328 C 2.59078 24.991454 2.6146041 24.996652 2.6660156 25.003906 C 2.957107 26.453609 3.2792969 27.832031 3.2792969 27.832031 L 5.2265625 20.037109 L 5.2773438 5.3984375 L 3.9296875 0 z M 2.3398438 19.164062 C 2.305828 19.316755 2.2742379 19.470543 2.2421875 19.623047 C 2.2415903 19.623047 2.2453567 19.622291 2.2460938 19.623047 C 2.275952 19.470354 2.3056768 19.315811 2.3398438 19.164062 z M 2.1015625 15.619141 C 2.0664188 15.877309 2.0324671 16.136427 1.9980469 16.394531 C 1.9976614 16.394531 2.0011708 16.393964 2.0019531 16.394531 C 2.066035 15.91816 2.0823861 15.75098 2.1015625 15.619141 z M 0.640625 9.125 C 0.62906488 9.1272593 0.61696737 9.1262644 0.60546875 9.1289062 C 0.60404099 9.1292221 0.6029818 9.1305203 0.6015625 9.1308594 C 0.60350043 9.1306772 0.60548457 9.131079 0.60742188 9.1308594 C 0.61860203 9.129757 0.62947361 9.1262999 0.640625 9.125 z M 0.6015625 9.1308594 C 0.53680789 9.1369471 0.47138723 9.1247635 0.40625 9.1210938 C 0.34044843 9.1286528 0.35536754 9.2230953 0.41992188 9.2128906 C 0.48054099 9.1833023 0.53674395 9.1463454 0.6015625 9.1308594 z M 1.7597656 21.529297 C 1.4200995 21.595817 1.6042963 21.572836 1.2011719 21.589844 C 1.1754711 21.590071 1.1751725 21.628906 1.2011719 21.628906 C 1.6070742 21.659142 1.4196075 21.647686 1.7695312 21.671875 C 1.867799 21.660536 1.8568995 21.525644 1.7597656 21.533203 L 1.7597656 21.529297 z M 2.3125 22.927734 C 2.3869205 23.495222 2.4938998 24.129954 2.6328125 24.832031 C 2.61764 24.844298 2.6031665 24.856968 2.5878906 24.869141 C 2.6522765 24.873029 2.7055905 24.880803 2.1542969 24.908203 C 2.0586582 24.908203 1.9628647 24.908111 1.8671875 24.898438 C 1.9428935 24.246805 1.936447 24.179291 2.1855469 23.347656 C 2.2633238 23.088448 2.285769 22.999895 2.3125 22.927734 z "
       style="fill:#b3b3b3;fill-opacity:1;stroke:none;stroke-width:1.13047px;stroke-linecap:butt;stroke-linejoin:miter;stroke-opacity:1"
       id="path8705" />
  </g>
</svg>
