<?xml version="1.0" encoding="UTF-8" standalone="no"?>
<svg
   xmlns:dc="http://purl.org/dc/elements/1.1/"
   xmlns:cc="http://creativecommons.org/ns#"
   xmlns:rdf="http://www.w3.org/1999/02/22-rdf-syntax-ns#"
   xmlns:svg="http://www.w3.org/2000/svg"
   xmlns="http://www.w3.org/2000/svg"
   xmlns:sodipodi="http://sodipodi.sourceforge.net/DTD/sodipodi-0.dtd"
   xmlns:inkscape="http://www.inkscape.org/namespaces/inkscape"
   width="5.2722888mm"
   height="14.28764mm"
   viewBox="0 0 5.2722888 14.28764"
   version="1.1"
   id="svg5565"
   inkscape:version="1.0 (4035a4fb49, 2020-05-01)"
   sodipodi:docname="logogram_inventory_background - detail_4.svg"
   inkscape:export-filename="D:\Calcatz\Icon Pack\Adventure Narative Inspired by Arrival\GUI\Inventory\png\logogram_inventory_background - detail_4.png"
   inkscape:export-xdpi="96"
   inkscape:export-ydpi="96">
  <defs
     id="defs5559" />
  <sodipodi:namedview
     id="base"
     pagecolor="#ffffff"
     bordercolor="#666666"
     borderopacity="1.0"
     inkscape:pageopacity="0.0"
     inkscape:pageshadow="2"
     inkscape:zoom="2.5739327"
     inkscape:cx="-8.4750476"
     inkscape:cy="31.765008"
     inkscape:document-units="mm"
     inkscape:current-layer="layer1"
     inkscape:document-rotation="0"
     showgrid="false"
     fit-margin-top="0"
     fit-margin-left="0"
     fit-margin-right="0"
     fit-margin-bottom="0"
     inkscape:window-width="1366"
     inkscape:window-height="705"
     inkscape:window-x="-8"
     inkscape:window-y="-8"
     inkscape:window-maximized="1" />
  <metadata
     id="metadata5562">
    <rdf:RDF>
      <cc:Work
         rdf:about="">
        <dc:format>image/svg+xml</dc:format>
        <dc:type
           rdf:resource="http://purl.org/dc/dcmitype/StillImage" />
        <dc:title />
      </cc:Work>
    </rdf:RDF>
  </metadata>
  <g
     inkscape:label="Layer 1"
     inkscape:groupmode="layer"
     id="layer1"
     transform="translate(-103.19719,-141.02278)">
    <path
       d="m 103.19859,141.02292 0.3969,14.2875 c 0,0 1.6859,-1.47968 2.2283,-3.61425 0.024,0.16301 0.048,0.32612 0.058,0.49041 0.013,0.22579 0.011,0.45237 0.01,0.67851 -0.01,0.22801 -2e-4,0.45853 -0.037,0.68316 -0.027,0.15571 -0.1072,0.29727 -0.1609,0.44597 -0.019,0.0995 0.1217,0.12636 0.1405,0.0269 0.1214,-0.87723 0.023,-0.0479 0.09,-1.156 0.014,-0.22696 0.044,-0.45256 0.058,-0.67955 0.011,-0.1855 0.011,-0.37133 0.016,-0.55707 0.01,-0.0947 0.014,-0.18956 0.02,-0.28422 0.1288,0.29536 0.2606,0.5899 0.3622,0.89555 0.1992,0.59965 0.1879,0.79082 0.232,1.35186 0.1072,0.50552 0.8218,0.35412 0.7147,-0.15142 -0.3284,-0.81026 -0.1633,-0.35129 -0.4652,-1.38647 -0.1243,-0.3275 -0.2979,-0.6348 -0.4341,-0.95757 0.09,0.0747 0.1823,0.14721 0.2725,0.22169 0.264,0.2009 0.5479,-0.17272 0.2836,-0.37362 -0.1217,-0.0819 -0.2566,-0.14692 -0.3648,-0.24598 -0.199,-0.18216 -0.3578,-0.39992 -0.4909,-0.63252 0.053,0.0244 0.1059,0.0507 0.1601,0.0729 0.1548,0.0631 0.3064,0.13694 0.4683,0.1788 0.2641,0.0684 0.6887,0.099 0.9729,0.12558 0.1228,0.003 0.1275,-0.16968 0.01,-0.17312 -0.3141,0 -0.6186,0.0157 -0.9274,-0.0765 -0.1542,-0.0459 -0.2918,-0.13685 -0.4331,-0.21342 -0.011,-0.006 -0.022,-0.013 -0.033,-0.0191 -0.2405,-0.19829 -0.3543,-0.99341 -0.3162,-1.28571 0.054,-0.41566 0.1273,-0.82597 0.187,-1.2361 0.094,0.25937 0.1868,0.54621 0.2263,0.6997 0.055,0.21447 0.086,0.43447 0.1296,0.65164 0.01,0.0411 0.065,0.0313 0.058,-0.01 -0.052,-0.21664 -0.112,-0.43189 -0.1577,-0.65009 -0.045,-0.21688 -0.068,-0.43813 -0.1146,-0.65474 -0.026,-0.1193 -0.059,-0.23651 -0.093,-0.35399 0.04,-0.24551 0.1029,-0.4325 0.2162,-0.22841 0.01,0.023 0.01,0.016 0.017,0.0408 0.089,0.19865 0.2186,0.3796 0.2858,0.58653 0.045,0.13851 0.03,0.28977 0.045,0.4346 0.084,0.25085 0.4384,0.13306 0.355,-0.11782 -0.2651,-0.61516 -0.5519,-1.22637 -0.7318,-1.87327 0.2577,0.23079 0.5199,0.45644 0.8062,0.65474 0.2193,0.15201 0.4588,0.27252 0.6884,0.40876 0.4138,0.23487 0.7461,-0.35062 0.3321,-0.5855 -0.1022,-0.0522 -1.3846,-0.70391 -1.4277,-0.73793 -0.03,-0.0236 -0.071,-0.0616 -0.117,-0.10698 0.034,-9.2e-4 0.069,1.7e-4 0.103,-0.001 0.2357,-0.008 0.7493,-0.0428 1.0025,-0.0589 0.191,-0.0132 0.1722,-0.28301 -0.019,-0.26975 -0.1479,0.006 -0.2961,0.009 -0.444,0.017 -0.1756,0.009 -0.3511,0.0426 -0.527,0.0331 -0.069,-0.004 -0.1355,-0.0245 -0.2022,-0.0455 -0.4071,-0.22611 -0.8038,-0.90418 -1.0144,-1.26709 -0.904,-1.55929 -2.4365,-2.98225 -2.4365,-2.98225 z m 3.7486,5.50974 c -0.098,-1.9e-4 -0.1934,0.0906 -0.145,0.21962 0.048,0.078 0.096,0.15656 0.1445,0.23461 0.082,0.11115 0.1733,0.21603 0.2466,0.33332 0.066,0.10583 0.1129,0.22211 0.1696,0.33331 0.073,0.11182 0.2309,0.008 0.1579,-0.10335 -0.071,-0.0985 -0.1503,-0.19062 -0.2116,-0.29508 -0.1913,-0.32472 -0.1628,-0.29925 -0.2152,-0.61236 -0.029,-0.0774 -0.088,-0.10996 -0.1468,-0.11007 z"
       style="fill:#000000;fill-opacity:0.38039216;stroke:none;stroke-width:0.264583px;stroke-linecap:butt;stroke-linejoin:miter;stroke-opacity:1"
       id="path5791" />
  </g>
</svg>
