<?xml version="1.0" encoding="UTF-8" standalone="no"?>
<svg
   xmlns:dc="http://purl.org/dc/elements/1.1/"
   xmlns:cc="http://creativecommons.org/ns#"
   xmlns:rdf="http://www.w3.org/1999/02/22-rdf-syntax-ns#"
   xmlns:svg="http://www.w3.org/2000/svg"
   xmlns="http://www.w3.org/2000/svg"
   xmlns:sodipodi="http://sodipodi.sourceforge.net/DTD/sodipodi-0.dtd"
   xmlns:inkscape="http://www.inkscape.org/namespaces/inkscape"
   inkscape:export-ydpi="96"
   inkscape:export-xdpi="96"
   inkscape:export-filename="D:\Calcatz\Icon Pack\Adventure Narative Inspired by Arrival\GUI\Inventory\png\logogram_item_hover.png"
   sodipodi:docname="logogram_item_hover.svg"
   inkscape:version="1.0 (4035a4fb49, 2020-05-01)"
   id="svg7071"
   version="1.1"
   viewBox="0 0 22.407288 24.337444"
   height="24.337444mm"
   width="22.407288mm">
  <defs
     id="defs7065">
    <filter
       height="1.0918436"
       y="-0.045921791"
       width="1.1005505"
       x="-0.050275225"
       id="filter7142"
       style="color-interpolation-filters:sRGB"
       inkscape:collect="always">
      <feGaussianBlur
         id="feGaussianBlur7144"
         stdDeviation="0.43081112"
         inkscape:collect="always" />
    </filter>
  </defs>
  <sodipodi:namedview
     inkscape:window-maximized="1"
     inkscape:window-y="-8"
     inkscape:window-x="-8"
     inkscape:window-height="705"
     inkscape:window-width="1366"
     fit-margin-bottom="0"
     fit-margin-right="0"
     fit-margin-left="0"
     fit-margin-top="0"
     showgrid="false"
     inkscape:document-rotation="0"
     inkscape:current-layer="layer1"
     inkscape:document-units="mm"
     inkscape:cy="73.914368"
     inkscape:cx="67.475786"
     inkscape:zoom="1.3422939"
     inkscape:pageshadow="2"
     inkscape:pageopacity="0.0"
     borderopacity="1.0"
     bordercolor="#666666"
     pagecolor="#ffffff"
     id="base" />
  <metadata
     id="metadata7068">
    <rdf:RDF>
      <cc:Work
         rdf:about="">
        <dc:format>image/svg+xml</dc:format>
        <dc:type
           rdf:resource="http://purl.org/dc/dcmitype/StillImage" />
        <dc:title></dc:title>
      </cc:Work>
    </rdf:RDF>
  </metadata>
  <g
     transform="translate(169.68235,-58.791892)"
     id="layer1"
     inkscape:groupmode="layer"
     inkscape:label="Layer 1">
    <path
       id="path7093"
       style="fill:#ffffff;fill-opacity:1;stroke:none;stroke-width:0.227;stroke-linecap:square;stroke-miterlimit:4;stroke-dasharray:none;stroke-opacity:1;paint-order:stroke markers fill;filter:url(#filter7142)"
       d="m 41.957734,89.313348 c -0.06689,-0.006 -0.138187,0.0252 -0.179319,0.11059 -0.0392,0.0802 -0.07808,0.16063 -0.117306,0.24083 -0.14461,0.35898 -0.181019,0.48403 -0.385505,0.82732 -0.105138,0.14084 -0.237945,0.27043 -0.382921,0.3633 -0.168011,0.10761 -0.409149,0.13907 -0.57671,0.22789 -1.922804,0.37981 -3.364653,2.06713 -3.364653,4.10466 v 11.001422 c 0,2.31888 1.866852,4.18629 4.185793,4.18629 h 7.399546 c 0.08827,0.0514 0.177448,0.0998 0.26665,0.1421 0.04053,0.0193 0.08917,0.045 0.130225,0.0755 -0.215484,0.0586 -0.345472,0.10287 -0.579808,0.13383 -0.0785,0.0103 -0.158107,0.007 -0.237196,0.0109 -0.0419,0.006 -0.03415,0.065 0.0078,0.0594 0.344911,-0.0468 0.15807,-0.0161 0.560689,-0.0982 0.0964,-0.0138 0.19398,-0.0127 0.290939,-0.0212 0.03417,-0.003 -0.0017,-1.6e-4 0.02532,-0.003 0.0092,0.0309 0.0049,0.0659 -0.02377,0.10646 -0.118001,0.0656 -0.257024,0.0931 -0.380854,0.14934 -0.114882,0.0521 -0.217228,0.13279 -0.33745,0.17105 -0.170889,0.0544 -0.259866,0.0296 -0.410826,0.006 -0.26738,-0.0196 -0.295296,0.35875 -0.02791,0.37827 0.1846,-0.0259 0.369771,-0.0456 0.54777,-0.1075 0.27047,-0.0941 0.595074,-0.27297 0.828373,-0.43148 0.0145,-0.01 0.0271,-0.0224 0.04134,-0.0326 -0.02368,0.0531 -0.0482,0.10602 -0.0677,0.16071 -0.064,0.17989 -0.05681,0.18015 -0.07131,0.33591 0.002,0.20794 0.2965,0.20434 0.294039,-0.003 -0.017,-0.0788 -0.0402,-0.17063 -0.0217,-0.24805 0.0211,-0.088 0.08385,-0.16089 0.114721,-0.24598 0.01996,-0.0551 0.03172,-0.1128 0.04496,-0.17003 0.03112,0.0459 0.05992,0.0927 0.08785,0.14055 0.084,0.14383 0.105021,0.1955 0.175184,0.34314 0.0298,0.0639 0.120213,0.0219 0.09043,-0.0419 -0.263099,-0.4649 0.07403,0.14216 -0.180351,-0.35345 -0.02014,-0.0392 -0.01061,-0.0173 -0.02325,-0.0408 -2.4e-5,-1.1e-4 0.0016,0.001 0.0016,0.001 -0.0442,-0.10858 0.05746,-0.14496 0.132292,-0.17002 0.05642,-0.0189 0.113453,-0.0393 0.170016,-0.06 0.291126,0.11535 0.05339,0.0224 0.528651,0.17055 -0.224185,-0.0885 -0.276424,-0.12391 -0.379307,-0.22326 0.09149,-0.0302 0.184616,-0.0528 0.279569,-0.0646 0.134324,0.13179 0.204698,0.20185 0.329697,0.35708 -0.04168,-0.009 -0.0822,-0.0221 -0.122991,-0.0341 0.04451,0.0151 0.08908,0.0302 0.133326,0.046 0.01064,0.0133 0.01459,0.0166 0.02636,0.0315 0.0699,0.0888 0.13348,0.18208 0.197922,0.2749 0.047,0.0676 0.09063,0.1374 0.135908,0.20619 0.0367,0.0442 0.09923,-0.008 0.06253,-0.0517 -0.11154,-0.11396 -0.310224,-0.31041 -0.395843,-0.42995 -0.0063,-0.009 -0.01151,-0.0184 -0.01757,-0.0274 0.04117,0.0147 0.08272,0.0285 0.124021,0.0429 0.0168,0.005 0.02362,-0.0188 0.0067,-0.0238 -0.04578,-0.0119 -0.09217,-0.0218 -0.138493,-0.032 -0.07741,-0.11784 -0.140473,-0.24503 -0.210842,-0.36743 0.363181,-0.007 0.74675,0.10306 1.112594,0.15555 -0.0465,0.0156 -0.09589,0.0297 -0.298172,0.0915 -0.0153,0.003 -0.01043,0.0249 0.0052,0.0217 0.375139,-0.0455 0.199908,-0.0272 0.525549,-0.0558 0.02229,-0.006 0.03686,-0.0188 0.04496,-0.0336 3.44e-4,3e-5 6.91e-4,0 0.001,0 -0.06155,0.0865 -0.139663,0.12616 -0.230479,0.18915 -0.0455,0.0285 -0.0051,0.0931 0.04031,0.0646 0.06431,-0.0311 0.103182,-0.0481 0.142626,-0.0672 -0.08031,0.16521 -0.160065,0.33129 -0.256834,0.48731 -0.0569,0.0917 -0.137102,0.16679 -0.205671,0.25011 -0.10269,0.26731 0.275582,0.41251 0.378272,0.1452 -0.004,-0.10292 -0.04189,-0.21047 -0.01188,-0.309 0.0573,-0.18849 0.162153,-0.36029 0.266134,-0.52764 0.01438,-0.0231 0.02242,-0.0343 0.03565,-0.0553 -1.88e-4,0.002 -3.44e-4,0.004 -5.16e-4,0.007 -0.003,0.0382 -0.01283,0.33935 -0.01343,0.35864 -0.003,0.0602 0.08257,0.064 0.08526,0.004 10e-4,-0.0631 -6.56e-4,-0.12618 0.0041,-0.18913 0.0098,-0.12573 0.02329,-0.1656 0.04237,-0.23926 0.032,0.24381 0.02458,0.43162 0.02222,0.69503 0.0132,0.12809 0.194564,0.10965 0.181385,-0.0186 -0.016,-0.11818 -0.03086,-0.23696 -0.04806,-0.35501 -0.01098,-0.0752 -0.02194,-0.15058 -0.03359,-0.22583 0.08237,-0.25728 0.26947,-0.40166 0.37207,-0.49762 2.048314,-0.27567 3.619418,-2.0178 3.619418,-4.14393 v -8.763829 c 0.01697,-0.046 0.03418,-0.0918 0.05064,-0.13849 0.033,0.10869 0.06868,0.21646 0.108003,0.32298 0.0308,0.0767 0.138774,0.0332 0.108003,-0.0434 -0.0192,-0.029 -0.04327,-0.055 -0.05736,-0.0868 -0.02305,-0.0521 -0.03918,-0.10631 -0.05271,-0.16124 0.124156,0.0717 0.248476,0.14322 0.372587,0.21498 -0.06958,-0.044 -0.139002,-0.0882 -0.205671,-0.13642 -0.06522,-0.0472 -0.124056,-0.10213 -0.183971,-0.15608 -0.0018,-0.15769 0.01099,-0.27641 0.02687,-0.35861 0.01226,-0.063 0.0202,-0.12624 0.02532,-0.18916 0.05077,0.0595 0.09963,0.12015 0.137459,0.18812 0.0556,0.0998 0.08097,0.21358 0.121438,0.32039 0.0737,0.14173 0.274206,0.0374 0.200507,-0.10438 -0.052,-0.10655 -0.09638,-0.21746 -0.156065,-0.31988 -0.056,-0.0961 -0.124867,-0.1837 -0.188619,-0.27493 0.209574,0.083 0.420452,0.16298 0.62942,0.24754 0.326951,0.0153 0.348674,-0.44656 0.0217,-0.46199 -0.045,0.0114 -0.0885,0.033 -0.134876,0.0336 -0.138319,0.003 -0.265618,-0.0645 -0.386538,-0.11935 -0.04622,-0.021 -0.09352,-0.0403 -0.140044,-0.061 3.25e-4,-8e-5 7.09e-4,5e-5 10e-4,0 0.229968,-0.0442 0.425702,-0.0321 0.652672,-0.0279 0.10791,-0.0159 0.08516,-0.16841 -0.02274,-0.15246 -0.411371,0.14947 -0.09306,0.0608 -0.639754,0.10907 -0.0478,0.004 -0.05587,0.006 -0.09147,0.01 -0.135065,-0.10853 -0.154551,-0.265903 -0.195853,-0.372583 v -0.51936 c 0,-2.31894 -1.866842,-4.18578 -4.18579,-4.18578 h -6.82439 c -0.09437,-0.0514 -0.189892,-0.10184 -0.285771,-0.14936 -0.114972,-0.057 -0.289216,-0.16822 -0.353984,-0.42995 -0.0052,-0.0428 -0.0091,-0.086 -0.0279,-0.25736 -0.0281,-0.25551 -0.38938,-0.21577 -0.361217,0.0398 0.01219,0.12198 0.01329,0.13407 0.0186,0.18294 -0.09042,-0.0857 -0.108434,-0.12412 -0.341063,-0.44958 -0.087,-0.12168 -0.171294,-0.24524 -0.256834,-0.36793 -0.0552,-0.0778 -0.165269,-8e-5 -0.110069,0.078 0.078,0.12872 0.153064,0.25922 0.234092,0.38603 0.136576,0.21373 0.136488,0.20815 0.171051,0.25683 -0.104429,-0.0856 -0.220843,-0.15661 -0.327112,-0.24029 -0.095,-0.0748 -0.184063,-0.15703 -0.275953,-0.23564 -0.0445,-0.032 -0.08956,0.0309 -0.04496,0.0631 0.0954,0.0698 0.19861,0.12938 0.285771,0.20928 0.08858,0.0812 0.165989,0.17376 0.245462,0.26406 0.04367,0.0787 -0.09401,0.12787 -0.193786,0.1478 -0.28684,0.0572 -0.570299,0.21113 -0.864031,0.22016 -0.07289,0.002 -0.146341,-0.006 -0.219623,-0.0191 0.03568,-0.0289 0.05716,-0.0461 0.153996,-0.12404 0.093,-0.0748 0.180652,-0.15735 0.282151,-0.22013 0.0547,-0.0338 0.121015,-0.0444 0.181385,-0.0667 0.084,-0.0468 0.01775,-0.16563 -0.06615,-0.11888 -0.171889,0.13094 -0.256185,0.19838 -0.457337,0.32816 -0.0887,0.0572 -0.180763,0.10846 -0.271817,0.16174 -0.110228,-0.0296 -0.22034,-0.0647 -0.329695,-0.0956 -0.09954,-0.0281 -0.173728,-0.0988 -0.06046,-0.19638 0.190031,-0.0966 0.407929,-0.14523 0.607197,-0.20103 0.134681,-0.0379 0.08096,-0.22804 -0.05374,-0.19015 -0.13757,0.049 -0.273685,0.10104 -0.412377,0.14676 -0.12211,0.0402 -0.256199,0.0503 -0.369488,0.1111 -0.0019,10e-4 -0.0033,0.003 -0.0052,0.004 0.177506,-0.17148 0.365006,-0.3352 0.517281,-0.47387 0.0317,-0.0277 -0.0081,-0.0728 -0.03927,-0.045 -0.163341,0.15391 -0.323792,0.31107 -0.489892,0.46199 -0.07524,0.0684 -0.09153,0.0811 -0.144696,0.12866 0.01956,-0.0516 0.03767,-0.10392 0.06201,-0.15345 0.062,-0.12608 0.152625,-0.23554 0.228926,-0.35349 0.0534,-0.075 0.106807,-0.14986 0.160197,-0.22479 0.06855,-0.14232 -0.03115,-0.25627 -0.142626,-0.26614 z m 14.896248,8.220183 c 0.08259,0.0522 0.16552,0.10356 0.247531,0.15658 -0.0064,-0.005 -7.99e-4,-0.0138 0.0062,-0.01 -0.08458,-0.0489 -0.169159,-0.0979 -0.25373,-0.14676 z m -6.233729,13.234859 c -0.02419,-0.008 -0.04799,-0.0176 -0.07234,-0.0253 -0.02854,-0.009 -0.01038,-0.002 -0.03462,-0.01 0.01296,0.005 0.01884,0.008 0.03307,0.0134 0.02396,0.009 0.04928,0.0144 0.0739,0.0217 z"
       transform="matrix(0.99,0,0,0.99,-205.24055,-28.604005)" />
    <path
       d="m -163.70239,59.816306 c -0.066,-0.01 -0.1368,0.025 -0.1775,0.1094 -0.039,0.079 -0.077,0.1591 -0.1162,0.2385 -0.1431,0.3554 -0.1792,0.4791 -0.3816,0.819 -0.1041,0.1394 -0.2356,0.2677 -0.3791,0.3597 -0.1663,0.1065 -0.4051,0.1377 -0.571,0.2256 -1.9035,0.376 -3.331,2.0464 -3.331,4.0636 v 10.8914 c 0,2.2957 1.8482,4.1444 4.144,4.1444 h 7.3255 c 0.087,0.051 0.1757,0.099 0.264,0.1407 0.04,0.019 0.088,0.045 0.1289,0.075 -0.2133,0.058 -0.342,0.1019 -0.574,0.1325 -0.078,0.01 -0.1565,0.01 -0.2348,0.011 -0.041,0.01 -0.034,0.064 0.01,0.059 0.3415,-0.046 0.1565,-0.016 0.5551,-0.097 0.095,-0.014 0.192,-0.013 0.288,-0.021 0.034,0 0,-1e-4 0.025,0 0.01,0.031 0,0.065 -0.024,0.1054 -0.1168,0.065 -0.2545,0.092 -0.377,0.1479 -0.1138,0.052 -0.2151,0.1314 -0.3341,0.1693 -0.1692,0.054 -0.2573,0.029 -0.4067,0.01 -0.2647,-0.019 -0.2924,0.3552 -0.028,0.3745 0.1827,-0.026 0.366,-0.045 0.5423,-0.1064 0.2677,-0.093 0.5891,-0.2703 0.82,-0.4272 0.014,-0.01 0.027,-0.022 0.041,-0.032 -0.023,0.053 -0.048,0.105 -0.067,0.1591 -0.063,0.1781 -0.056,0.1783 -0.071,0.3325 0,0.2059 0.2936,0.2023 0.2911,0 -0.017,-0.078 -0.04,-0.1689 -0.022,-0.2455 0.021,-0.087 0.083,-0.1593 0.1136,-0.2435 0.02,-0.054 0.031,-0.1117 0.044,-0.1684 0.031,0.045 0.059,0.092 0.087,0.1392 0.083,0.1424 0.104,0.1935 0.1734,0.3397 0.03,0.063 0.1191,0.022 0.09,-0.042 -0.2604,-0.4603 0.073,0.1407 -0.1785,-0.3499 -0.02,-0.039 -0.011,-0.017 -0.023,-0.04 0,-1e-4 0,7.94e-4 0,7.94e-4 -0.044,-0.1075 0.057,-0.1435 0.131,-0.1684 0.056,-0.019 0.1123,-0.039 0.1683,-0.059 0.2882,0.1142 0.053,0.022 0.5233,0.1689 -0.2219,-0.088 -0.2736,-0.1227 -0.3755,-0.221 0.091,-0.03 0.1828,-0.052 0.2768,-0.064 0.133,0.1304 0.2027,0.1998 0.3264,0.3535 -0.041,-0.01 -0.081,-0.022 -0.1218,-0.034 0.044,0.015 0.088,0.03 0.132,0.045 0.01,0.013 0.015,0.017 0.026,0.031 0.069,0.088 0.1322,0.1802 0.196,0.2721 0.046,0.067 0.09,0.136 0.1345,0.2042 0.036,0.044 0.098,-0.01 0.062,-0.051 -0.1104,-0.1129 -0.3071,-0.3074 -0.3919,-0.4257 -0.01,-0.01 -0.011,-0.018 -0.017,-0.027 0.041,0.015 0.082,0.028 0.1228,0.043 0.017,0.01 0.023,-0.019 0.01,-0.024 -0.045,-0.012 -0.091,-0.022 -0.1371,-0.032 -0.077,-0.116701 -0.139,-0.2426 -0.2087,-0.3638 0.3595,-0.01 0.7393,0.1021 1.1015,0.153999 -0.046,0.016 -0.095,0.029 -0.2952,0.091 -0.015,0 -0.01,0.025 0.01,0.022 0.3713,-0.045 0.1979,-0.027 0.5203,-0.055 0.022,-0.01 0.037,-0.019 0.044,-0.033 2e-4,1e-4 6.9e-4,0 0,0 -0.061,0.086 -0.1383,0.1249 -0.2282,0.187301 -0.045,0.028 -0.01,0.092 0.04,0.064 0.064,-0.031 0.1021,-0.048 0.1412,-0.067 -0.079,0.163601 -0.1585,0.328011 -0.2543,0.48241 -0.056,0.091 -0.1357,0.16519 -0.2036,0.2476 -0.1017,0.2647 0.2728,0.4084 0.3745,0.14379 0,-0.10189 -0.041,-0.208389 -0.012,-0.305889 0.057,-0.1866 0.1605,-0.356701 0.2635,-0.5224 0.014,-0.023 0.022,-0.034 0.035,-0.055 -2e-4,0 -2.9e-4,0 -6.1e-4,0.01 0,0.038 -0.013,0.336 -0.013,0.3551 0,0.06 0.082,0.063 0.084,0 0,-0.062 -5e-4,-0.1249 0,-0.1873 0.01,-0.12441 0.023,-0.1639 0.042,-0.23681 0.032,0.2413 0.024,0.42731 0.022,0.68811 0.013,0.1268 0.1926,0.1085 0.1796,-0.019 -0.016,-0.117 -0.031,-0.2346 -0.048,-0.35151 -0.011,-0.074 -0.022,-0.1491 -0.033,-0.22359 0.082,-0.25471 0.2668,-0.3976 0.3683,-0.49261 2.0279,-0.27289 3.5833,-1.99759 3.5833,-4.1025 v -8.676187 c 0.017,-0.045 0.034,-0.091 0.05,-0.13711 0.033,0.10761 0.068,0.2143 0.1069,0.31971 0.03,0.076 0.1374,0.033 0.1069,-0.043 -0.019,-0.029 -0.043,-0.054 -0.057,-0.086 -0.023,-0.052 -0.039,-0.1052 -0.052,-0.1596 0.1229,0.071 0.246,0.1418 0.3689,0.2128 -0.069,-0.044 -0.1376,-0.087 -0.2036,-0.135 -0.065,-0.047 -0.1229,-0.1011 -0.1822,-0.1545 0,-0.156201 0.011,-0.2737 0.027,-0.3551 0.012,-0.062 0.02,-0.1249 0.025,-0.1872 0.05,0.059 0.099,0.1189 0.1361,0.1862 0.055,0.099 0.08,0.2114 0.1202,0.3172 0.073,0.1403 0.2715,0.037 0.1985,-0.1033 -0.051,-0.1055 -0.095,-0.2153 -0.1545,-0.316701 -0.055,-0.095 -0.1236,-0.181899 -0.1867,-0.272199 0.2075,0.082 0.4162,0.1613 0.6231,0.2451 0.3237,0.015 0.3452,-0.4421 0.021,-0.4574 -0.045,0.011 -0.088,0.033 -0.1335,0.033 -0.1369,0 -0.263,-0.064 -0.3827,-0.1182 -0.046,-0.021 -0.093,-0.04 -0.1386,-0.06 2e-4,0 7.9e-4,10e-5 0,0 0.2276,-0.044 0.4214,-0.032 0.6461,-0.028 0.1068,-0.016 0.084,-0.1667 -0.023,-0.1509 -0.4072,0.148 -0.092,0.06 -0.6333,0.108 -0.047,0 -0.055,0.01 -0.091,0.01 -0.1338,-0.107501 -0.153,-0.263301 -0.1939,-0.368901 v -0.514099 c 0,-2.2958 -1.8482,-4.144 -4.144,-4.144 h -6.75619 c -0.093,-0.05101 -0.188,-0.100809 -0.2829,-0.147809 -0.1138,-0.056 -0.2863,-0.1666 -0.3504,-0.4257 -0.01,-0.042 -0.01,-0.085 -0.028,-0.2548 -0.028,-0.2529 -0.3855,-0.2136 -0.3576,0.039 0.012,0.1208 0.013,0.1328 0.018,0.1811 -0.09,-0.085 -0.1074,-0.1228 -0.3377,-0.445 -0.086,-0.1205 -0.1696,-0.2428 -0.2543,-0.3643 -0.055,-0.077 -0.1636,-10e-5 -0.1089,0.077 0.077,0.1274 0.1515,0.2566 0.2317,0.3822 0.1352,0.2116 0.1351,0.20599 0.1694,0.2542 -0.1034,-0.085 -0.2187,-0.155 -0.3239,-0.2379 -0.094,-0.074 -0.1822,-0.1554 -0.2732,-0.2332 -0.044,-0.032 -0.089,0.031 -0.044,0.062 0.094,0.069 0.1967,0.128 0.2829,0.2072 0.088,0.08 0.1644,0.172 0.2431,0.2614 0.043,0.078 -0.093,0.1266 -0.1919,0.14629 -0.284,0.057 -0.5646,0.20901 -0.8554,0.21791 -0.072,0 -0.1449,-0.01 -0.2174,-0.019 0.035,-0.029 0.057,-0.046 0.1524,-0.12271 0.092,-0.074 0.1789,-0.1558 0.2794,-0.21799 0.054,-0.034 0.1198,-0.044 0.1795,-0.066 0.083,-0.046 0.018,-0.164 -0.065,-0.1177 -0.1701,0.129699 -0.2536,0.196399 -0.4527,0.3249 -0.088,0.057 -0.179,0.1074 -0.2691,0.1601 -0.1091,-0.029 -0.2182,-0.064 -0.3264,-0.095 -0.099,-0.028 -0.172,-0.098 -0.06,-0.1944 0.1881,-0.096 0.4038,-0.1438 0.6011,-0.199 0.1333,-0.037 0.08,-0.2258 -0.053,-0.1883 -0.1362,0.049 -0.2709,0.1001 -0.4082,0.1453 -0.1209,0.04 -0.2537,0.05 -0.3658,0.11 0,7.91e-4 0,0 -0.01,0 0.1757,-0.1697 0.3613,-0.3318 0.5121,-0.4691 0.031,-0.028 -0.01,-0.072 -0.039,-0.044 -0.1617,0.1524 -0.3206,0.3079 -0.485,0.4574 -0.075,0.068 -0.091,0.08 -0.1433,0.1273 0.019,-0.051 0.037,-0.1028 0.061,-0.1519 0.061,-0.1248 0.1511,-0.2332 0.2267,-0.3499 0.053,-0.074 0.1057,-0.1484 0.1586,-0.2226 0.068,-0.1409 -0.031,-0.2537 -0.1412,-0.2635 z m 14.7473,8.1379 c 0.082,0.052 0.1638,0.1026 0.245,0.1551 -0.01,0 -8e-4,-0.014 0.01,-0.01 -0.084,-0.048 -0.1674,-0.097 -0.2512,-0.1453 z m -6.1714,13.1026 c -0.024,-0.01 -0.048,-0.017 -0.072,-0.025 -0.028,-0.01 -0.01,0 -0.034,-0.01 0.013,0 0.019,0.01 0.033,0.013 0.024,0.01 0.049,0.014 0.073,0.022 z"
       style="fill:#e5e5e5;fill-opacity:1;stroke:none;stroke-width:0.620731;stroke-linecap:square;stroke-miterlimit:4;stroke-dasharray:none;stroke-opacity:1;paint-order:stroke markers fill"
       id="path7095" />
  </g>
</svg>
