<?xml version="1.0" encoding="UTF-8" standalone="no"?>
<svg
   xmlns:dc="http://purl.org/dc/elements/1.1/"
   xmlns:cc="http://creativecommons.org/ns#"
   xmlns:rdf="http://www.w3.org/1999/02/22-rdf-syntax-ns#"
   xmlns:svg="http://www.w3.org/2000/svg"
   xmlns="http://www.w3.org/2000/svg"
   xmlns:sodipodi="http://sodipodi.sourceforge.net/DTD/sodipodi-0.dtd"
   xmlns:inkscape="http://www.inkscape.org/namespaces/inkscape"
   inkscape:export-ydpi="96"
   inkscape:export-xdpi="96"
   inkscape:export-filename="D:\Calcatz\Icon Pack\Adventure Narative Inspired by Arrival\GUI\Inventory\png\logogram_item_hover - background_detail_2.png"
   sodipodi:docname="logogram_item_hover - background_detail_2.svg"
   inkscape:version="1.0 (4035a4fb49, 2020-05-01)"
   id="svg4983"
   version="1.1"
   viewBox="0 0 1.9684112 3.3677499"
   height="3.3677499mm"
   width="1.9684112mm">
  <defs
     id="defs4977" />
  <sodipodi:namedview
     inkscape:window-maximized="1"
     inkscape:window-y="-8"
     inkscape:window-x="-8"
     inkscape:window-height="705"
     inkscape:window-width="1366"
     fit-margin-bottom="0"
     fit-margin-right="0"
     fit-margin-left="0"
     fit-margin-top="0"
     showgrid="false"
     inkscape:document-rotation="0"
     inkscape:current-layer="layer1"
     inkscape:document-units="mm"
     inkscape:cy="178.96769"
     inkscape:cx="-25.396334"
     inkscape:zoom="0.33557348"
     inkscape:pageshadow="2"
     inkscape:pageopacity="0.0"
     borderopacity="1.0"
     bordercolor="#666666"
     pagecolor="#ffffff"
     id="base" />
  <metadata
     id="metadata4980">
    <rdf:RDF>
      <cc:Work
         rdf:about="">
        <dc:format>image/svg+xml</dc:format>
        <dc:type
           rdf:resource="http://purl.org/dc/dcmitype/StillImage" />
        <dc:title></dc:title>
      </cc:Work>
    </rdf:RDF>
  </metadata>
  <g
     transform="translate(-112.55278,-100.8148)"
     id="layer1"
     inkscape:groupmode="layer"
     inkscape:label="Layer 1">
    <path
       d="m 112.55358,100.8148 0.05,3.36775 c 0,0 0.5495,-0.64266 0.7019,-1.02888 0.026,-0.0673 0.051,-0.13843 0.076,-0.20877 0.033,0.10663 0.068,0.21226 0.1064,0.31678 0.031,0.0767 0.1394,0.0332 0.1085,-0.0434 -0.019,-0.029 -0.043,-0.0555 -0.057,-0.0873 -0.023,-0.0518 -0.039,-0.10565 -0.053,-0.1602 0.1135,0.0655 0.227,0.1308 0.3405,0.19637 -0.06,-0.0384 -0.1204,-0.0765 -0.1784,-0.11834 -0.062,-0.0452 -0.1188,-0.0975 -0.1762,-0.14934 0,-0.16185 0.01,-0.28177 0.026,-0.36536 0.011,-0.0628 0.018,-0.12589 0.023,-0.18862 0.051,0.0592 0.099,0.11948 0.1368,0.18707 0.056,0.0998 0.081,0.21358 0.1215,0.3204 0.074,0.14173 0.2743,0.0379 0.2005,-0.10387 -0.052,-0.10655 -0.096,-0.21746 -0.1561,-0.31988 -0.056,-0.0959 -0.1243,-0.1839 -0.1881,-0.27492 0.2096,0.0829 0.4202,0.16305 0.6289,0.24753 0.327,0.0153 0.3487,-0.44708 0.022,-0.4625 -0.045,0.0114 -0.089,0.0335 -0.1347,0.0341 -0.1383,0.003 -0.2656,-0.065 -0.3865,-0.11989 -0.046,-0.021 -0.094,-0.0398 -0.1402,-0.0605 5e-4,-7e-5 8e-4,6e-5 0,0 0.2302,-0.0442 0.426,-0.0321 0.6527,-0.0279 0.108,-0.0159 0.085,-0.16841 -0.023,-0.15245 -0.4112,0.14946 -0.093,0.0608 -0.6398,0.10904 -0.048,0.004 -0.056,0.006 -0.091,0.01 -0.1688,-0.13575 -0.155,-0.3528 -0.232,-0.44442 -0.2749,-0.32492 -0.7395,-0.47232 -0.7395,-0.47232 z m 1.2737,2.35231 c 0.091,0.0584 0.1844,0.1157 0.2754,0.17466 0,-0.005 0,-0.0138 0.01,-0.01 -0.095,-0.0549 -0.1902,-0.10989 -0.2852,-0.16484 z"
       style="fill:#e5e5e5;fill-opacity:1;stroke:none;stroke-width:0.264583px;stroke-linecap:butt;stroke-linejoin:miter;stroke-opacity:1"
       id="path8599" />
  </g>
</svg>
