<?xml version="1.0" encoding="UTF-8" standalone="no"?>
<svg
   xmlns:dc="http://purl.org/dc/elements/1.1/"
   xmlns:cc="http://creativecommons.org/ns#"
   xmlns:rdf="http://www.w3.org/1999/02/22-rdf-syntax-ns#"
   xmlns:svg="http://www.w3.org/2000/svg"
   xmlns="http://www.w3.org/2000/svg"
   xmlns:sodipodi="http://sodipodi.sourceforge.net/DTD/sodipodi-0.dtd"
   xmlns:inkscape="http://www.inkscape.org/namespaces/inkscape"
   inkscape:export-ydpi="96"
   inkscape:export-xdpi="96"
   inkscape:export-filename="D:\Calcatz\Icon Pack\Adventure Narative Inspired by Arrival\GUI\Inventory\png\logogram_item - background_detail_3.png"
   sodipodi:docname="logogram_item - background_detail_3.svg"
   inkscape:version="1.0 (4035a4fb49, 2020-05-01)"
   id="svg7912"
   version="1.1"
   viewBox="0 0 6.0620999 2.4829829"
   height="2.4829829mm"
   width="6.0620999mm">
  <defs
     id="defs7906" />
  <sodipodi:namedview
     inkscape:window-maximized="1"
     inkscape:window-y="-8"
     inkscape:window-x="-8"
     inkscape:window-height="705"
     inkscape:window-width="1366"
     fit-margin-bottom="0"
     fit-margin-right="0"
     fit-margin-left="0"
     fit-margin-top="0"
     showgrid="false"
     inkscape:document-rotation="0"
     inkscape:current-layer="layer1"
     inkscape:document-units="mm"
     inkscape:cy="-28.22877"
     inkscape:cx="37.160587"
     inkscape:zoom="2.6845878"
     inkscape:pageshadow="2"
     inkscape:pageopacity="0.0"
     borderopacity="1.0"
     bordercolor="#666666"
     pagecolor="#ffffff"
     id="base" />
  <metadata
     id="metadata7909">
    <rdf:RDF>
      <cc:Work
         rdf:about="">
        <dc:format>image/svg+xml</dc:format>
        <dc:type
           rdf:resource="http://purl.org/dc/dcmitype/StillImage" />
        <dc:title></dc:title>
      </cc:Work>
    </rdf:RDF>
  </metadata>
  <g
     transform="translate(108.68352,-45.277133)"
     id="layer1"
     inkscape:groupmode="layer"
     inkscape:label="Layer 1">
    <path
       id="path6143-3"
       style="fill:#1f2123;fill-opacity:0.662745;stroke:none;stroke-width:0.308576px;stroke-linecap:butt;stroke-linejoin:miter;stroke-opacity:1"
       d="m -102.62142,45.277135 -6.0621,0.08113 c 0,0 0.7591,0.738444 1.5044,1.091925 0.041,0.01922 0.089,0.04506 0.1297,0.07545 -0.2151,0.05852 -0.3453,0.102902 -0.5795,0.133843 -0.079,0.0103 -0.1582,0.007 -0.237,0.01085 -0.042,0.006 -0.034,0.06503 0.01,0.05943 0.345,-0.0468 0.1576,-0.01609 0.5601,-0.09819 0.096,-0.0138 0.1944,-0.01269 0.2915,-0.02119 0.031,-0.0028 0,-3.01e-4 0.023,-0.0026 0.01,0.03085 0,0.066 -0.024,0.106452 -0.118,0.06562 -0.2572,0.09263 -0.381,0.148828 -0.1148,0.0521 -0.2172,0.13279 -0.3373,0.171051 -0.1709,0.0544 -0.2598,0.0301 -0.4109,0.0062 -0.2673,-0.0196 -0.2953,0.358743 -0.028,0.378272 0.1844,-0.0259 0.3696,-0.04556 0.5477,-0.107487 0.2704,-0.0941 0.5955,-0.272989 0.8289,-0.431498 0.014,-0.0099 0.027,-0.02234 0.041,-0.03255 -0.024,0.05301 -0.048,0.105534 -0.068,0.160194 -0.064,0.17989 -0.057,0.180139 -0.071,0.335899 0,0.207939 0.2963,0.204854 0.2939,-0.0026 -0.017,-0.0788 -0.04,-0.170626 -0.022,-0.248046 0.021,-0.088 0.083,-0.161406 0.1143,-0.246496 0.02,-0.05476 0.032,-0.112093 0.045,-0.168981 0.031,0.04559 0.06,0.09249 0.088,0.140041 0.084,0.143822 0.1047,0.195503 0.1751,0.343133 0.03,0.0639 0.1199,0.02194 0.09,-0.04186 -0.2633,-0.464902 0.074,0.141634 -0.1805,-0.353984 -0.02,-0.03917 -0.01,-0.01733 -0.023,-0.04082 0,-1.22e-4 0,0.0017 0,0.0016 -0.044,-0.108573 0.058,-0.144967 0.1323,-0.170017 0.056,-0.01888 0.1135,-0.03927 0.1698,-0.05994 0.2956,0.117088 0.033,0.01441 0.5392,0.173114 -0.2317,-0.09108 -0.2831,-0.12573 -0.387,-0.226343 0.091,-0.02985 0.1825,-0.05297 0.277,-0.0646 0.1341,0.131702 0.204,0.20206 0.3286,0.356569 -0.047,-0.01047 -0.093,-0.0244 -0.1381,-0.03876 0.05,0.01657 0.099,0.03406 0.1484,0.05168 0.011,0.01339 0.015,0.01648 0.027,0.03152 0.07,0.0888 0.1342,0.182107 0.1985,0.274918 0.047,0.0676 0.09,0.13739 0.136,0.206189 0.037,0.0442 0.099,-0.0078 0.062,-0.05167 -0.1114,-0.113962 -0.3101,-0.31042 -0.3958,-0.429948 -0.01,-0.0089 -0.011,-0.01879 -0.017,-0.02791 0.041,0.01481 0.083,0.02897 0.1246,0.04341 0.017,0.005 0.024,-0.01877 0.01,-0.02377 -0.047,-0.01226 -0.095,-0.0225 -0.1426,-0.03307 -0.077,-0.117589 -0.1402,-0.244319 -0.2103,-0.366387 0.3627,-0.007 0.7463,0.102973 1.112,0.155545 -0.046,0.01551 -0.096,0.02993 -0.2971,0.09147 -0.015,0.003 -0.011,0.02491 0.01,0.02171 0.3751,-0.0455 0.2,-0.02773 0.5254,-0.05633 0.018,-0.0048 0.027,-0.01553 0.036,-0.02635 -0.061,0.08124 -0.1365,0.121285 -0.2249,0.182417 -0.046,0.0285 -0.01,0.0931 0.04,0.06459 0.064,-0.0312 0.1034,-0.04799 0.1431,-0.06718 -0.08,0.165203 -0.16,0.331293 -0.2569,0.48731 -0.057,0.0917 -0.137,0.166277 -0.2056,0.249597 -0.1026,0.267309 0.2749,0.41252 0.3776,0.145211 0,-0.102931 -0.042,-0.209968 -0.012,-0.308509 0.057,-0.188479 0.1622,-0.360265 0.2659,-0.527616 0.012,-0.01931 0.019,-0.02819 0.03,-0.04599 -2e-4,0.04233 -0.013,0.336928 -0.013,0.356053 0,0.0602 0.082,0.06403 0.085,0.0041 0,-0.0631 -7.9e-4,-0.126185 0,-0.189134 0.011,-0.138452 0.026,-0.169297 0.049,-0.263552 0.036,0.255754 0.028,0.447445 0.025,0.719336 0.013,0.128082 0.1942,0.109112 0.181,-0.01912 -0.016,-0.11821 -0.031,-0.236439 -0.048,-0.354502 -0.011,-0.0752 -0.023,-0.150606 -0.034,-0.225824 0.083,-0.257736 0.2704,-0.401593 0.3733,-0.497644 0.3921,-0.366872 0.6551,-0.988571 0.6551,-0.988571 z m -2.7569,1.418003 c -0.019,-0.0063 -0.037,-0.01366 -0.056,-0.01964 -0.02,-0.0064 -0.01,-0.0016 -0.024,-0.0072 0.01,0.0041 0.015,0.0065 0.026,0.01085 0.018,0.0069 0.037,0.0103 0.055,0.01602 z" />
  </g>
</svg>
