<?xml version="1.0" encoding="UTF-8" standalone="no"?>
<svg
   xmlns:dc="http://purl.org/dc/elements/1.1/"
   xmlns:cc="http://creativecommons.org/ns#"
   xmlns:rdf="http://www.w3.org/1999/02/22-rdf-syntax-ns#"
   xmlns:svg="http://www.w3.org/2000/svg"
   xmlns="http://www.w3.org/2000/svg"
   xmlns:sodipodi="http://sodipodi.sourceforge.net/DTD/sodipodi-0.dtd"
   xmlns:inkscape="http://www.inkscape.org/namespaces/inkscape"
   inkscape:export-ydpi="96"
   inkscape:export-xdpi="96"
   inkscape:export-filename="D:\Calcatz\Icon Pack\Adventure Narative Inspired by Arrival\GUI\Inventory\png\logogram_item.png"
   sodipodi:docname="logogram_item.svg"
   inkscape:version="1.0 (4035a4fb49, 2020-05-01)"
   id="svg3232"
   version="1.1"
   viewBox="0 0 20.361521 22.302446"
   height="22.302446mm"
   width="20.361521mm">
  <defs
     id="defs3226" />
  <sodipodi:namedview
     inkscape:window-maximized="1"
     inkscape:window-y="-8"
     inkscape:window-x="-8"
     inkscape:window-height="705"
     inkscape:window-width="1366"
     fit-margin-bottom="0"
     fit-margin-right="0"
     fit-margin-left="0"
     fit-margin-top="0"
     showgrid="false"
     inkscape:document-rotation="0"
     inkscape:current-layer="layer1"
     inkscape:document-units="mm"
     inkscape:cy="25.453208"
     inkscape:cx="-21.85839"
     inkscape:zoom="2.6845878"
     inkscape:pageshadow="2"
     inkscape:pageopacity="0.0"
     borderopacity="1.0"
     bordercolor="#666666"
     pagecolor="#ffffff"
     id="base" />
  <metadata
     id="metadata3229">
    <rdf:RDF>
      <cc:Work
         rdf:about="">
        <dc:format>image/svg+xml</dc:format>
        <dc:type
           rdf:resource="http://purl.org/dc/dcmitype/StillImage" />
        <dc:title></dc:title>
      </cc:Work>
    </rdf:RDF>
  </metadata>
  <g
     transform="translate(4.6616015,-114.21253)"
     id="layer1"
     inkscape:groupmode="layer"
     inkscape:label="Layer 1">
    <path
       id="path7091"
       style="fill:#1f2123;fill-opacity:0.66129;stroke:none;stroke-width:0.620506;stroke-linecap:round;stroke-miterlimit:4;stroke-dasharray:none;stroke-opacity:1;paint-order:markers stroke fill"
       d="m 0.29469864,114.21419 c -0.066,-0.01 -0.1368001,0.025 -0.1775002,0.1094 -0.039,0.079 -0.077,0.1591 -0.1160999,0.2385 -0.1431999,0.3554 -0.1792,0.4791 -0.3816999,0.819 -0.1041,0.1394 -0.2355,0.2677 -0.3791,0.3597 -0.1663001,0.1065 -0.40500014,0.1377 -0.57090024,0.2256 -1.9035999,0.376 -3.3309999,2.0464 -3.3309999,4.0636 v 10.8914 c 0,2.2957 1.8482,4.1444 4.14389994,4.1444 H 6.8078985 c 0.087,0.051 0.1757,0.099 0.264,0.1407 0.04,0.019 0.088,0.045 0.1289,0.075 -0.2133,0.058 -0.342,0.1019 -0.574,0.1325 -0.078,0.01 -0.1566,0.01 -0.2349,0.011 -0.041,0.01 -0.034,0.064 0.01,0.059 0.3415,-0.046 0.1565,-0.016 0.5551,-0.097 0.095,-0.014 0.1921,-0.013 0.2881,-0.021 0.034,0 0,-1e-4 0.025,0 0.01,0.031 0.01,0.065 -0.024,0.1054 -0.1169,0.065 -0.2545,0.092 -0.3771,0.1479 -0.1137,0.052 -0.215,0.1314 -0.3341,0.1693 -0.1691,0.054 -0.2572,0.029 -0.4067,0.01 -0.2647,-0.019 -0.2923,0.3552 -0.028,0.3745 0.1828,-0.026 0.3661,-0.045 0.5423,-0.1064 0.2678,-0.093 0.5891,-0.2703 0.8201,-0.4272 0.014,-0.01 0.027,-0.022 0.041,-0.032 -0.023,0.053 -0.048,0.105 -0.067,0.1591 -0.063,0.1781 -0.056,0.1783 -0.071,0.3325 0,0.2059 0.2935,0.2023 0.2911,0 -0.017,-0.078 -0.04,-0.1689 -0.022,-0.2455 0.021,-0.087 0.083,-0.1593 0.1136,-0.2435 0.02,-0.054 0.031,-0.1117 0.044,-0.1684 0.031,0.045 0.059,0.092 0.087,0.1392 0.083,0.1424 0.1039,0.1935 0.1734,0.3397 0.03,0.063 0.119,0.022 0.09,-0.042 -0.2605,-0.4603 0.073,0.1407 -0.1785,-0.3499 -0.02,-0.039 -0.01,-0.017 -0.023,-0.04 -10e-5,-1e-4 0,8e-4 0,8e-4 -0.044,-0.1075 0.057,-0.1435 0.1309,-0.1684 0.056,-0.019 0.1123,-0.039 0.1683,-0.059 0.2883,0.1142 0.053,0.022 0.5234,0.1689 -0.2219,-0.088 -0.2737,-0.1227 -0.3755,-0.221 0.091,-0.03 0.1828,-0.052 0.2768,-0.064 0.1329,0.1304 0.2026,0.1998 0.3264,0.3535 -0.041,-0.01 -0.081,-0.022 -0.1218,-0.034 0.044,0.015 0.088,0.03 0.132,0.045 0.01,0.013 0.014,0.017 0.026,0.031 0.069,0.088 0.1321,0.1802 0.1959,0.2721 0.046,0.067 0.09,0.136 0.1346,0.2042 0.036,0.044 0.098,-0.01 0.062,-0.051 -0.1104,-0.1129 -0.3071,-0.3074 -0.3919,-0.4257 -0.01,-0.01 -0.011,-0.018 -0.017,-0.027 0.041,0.015 0.082,0.028 0.1228,0.043 0.017,0.01 0.023,-0.019 0.01,-0.024 -0.045,-0.012 -0.091,-0.022 -0.1371,-0.032 -0.077,-0.1167 -0.1391,-0.2426 -0.2088,-0.3638 0.3596,-0.01 0.7393,0.1021 1.1015,0.154 -0.046,0.016 -0.095,0.029 -0.2952,0.091 -0.015,0 -0.01,0.025 0.01,0.022 0.3714,-0.045 0.197899,-0.027 0.5203005,-0.055 0.022,-0.01 0.036,-0.019 0.044,-0.033 2.91e-4,1e-4 7.93e-4,0 0,0 -0.061,0.086 -0.1383,0.1249 -0.2282005,0.1873 -0.045,0.028 -0.01,0.092 0.04,0.064 0.064,-0.031 0.1022005,-0.048 0.1412005,-0.067 -0.08,0.1636 -0.1584005,0.32801 -0.2542005,0.48241 -0.056,0.091 -0.1358,0.16519 -0.2036,0.2476 -0.1017,0.2647 0.2728,0.4084 0.3745005,0.14379 0,-0.10189 -0.041,-0.20839 -0.012,-0.30589 0.057,-0.1866 0.1605,-0.3567 0.2634,-0.5224 0.014,-0.023 0.022,-0.034 0.035,-0.055 -2e-4,0 -2e-4,0 -5.03e-4,0.01 0,0.038 -0.013,0.336 -0.013,0.3551 0,0.06 0.082,0.063 0.084,0 0,-0.062 -5.03e-4,-0.1249 0,-0.1873 0.01,-0.12441 0.023,-0.1639 0.042,-0.23681 0.032,0.2413 0.024,0.42731 0.022,0.68811 0.013,0.1268 0.1926,0.1085 0.1796,-0.019 -0.016,-0.117 -0.031,-0.2346 -0.048,-0.35151 -0.011,-0.074 -0.022,-0.1491 -0.033,-0.22359 0.082,-0.25471 0.2667,-0.3976 0.3683,-0.49261 2.0278,-0.27289 3.5832,-1.99759 3.5832,-4.1025 v -8.67619 c 0.017,-0.045 0.034,-0.091 0.05,-0.13711 0.033,0.10761 0.068,0.2143 0.107,0.31971 0.03,0.076 0.1373,0.033 0.1069,-0.043 -0.019,-0.029 -0.043,-0.054 -0.057,-0.086 -0.023,-0.052 -0.039,-0.1052 -0.052,-0.1596 0.1229,0.071 0.245999,0.1418 0.368799,0.2128 -0.069,-0.044 -0.1376,-0.087 -0.203599,-0.135 -0.065,-0.047 -0.1228,-0.1011 -0.1821,-0.1545 0,-0.1562 0.011,-0.2737 0.027,-0.3551 0.012,-0.062 0.02,-0.1249 0.025,-0.1872 0.05,0.059 0.099,0.1189 0.1361,0.1862 0.055,0.099 0.08,0.2114 0.1202,0.3172 0.073,0.1403 0.2715,0.037 0.1985,-0.1033 -0.052,-0.1055 -0.095,-0.2153 -0.1545,-0.3167 -0.055,-0.095 -0.1236,-0.1819 -0.1867,-0.2722 0.2074,0.082 0.4162,0.1613 0.6231,0.2451 0.3237,0.015 0.3452,-0.4421 0.021,-0.4574 -0.045,0.011 -0.088,0.033 -0.1335,0.033 -0.137,0 -0.263,-0.064 -0.3827,-0.11821 -0.046,-0.021 -0.093,-0.04 -0.1386,-0.06 2e-4,0 6.88e-4,1e-4 0,0 0.2276,-0.044 0.4214,-0.032 0.6461,-0.028 0.1068,-0.016 0.084,-0.16669 -0.023,-0.1509 -0.4073,0.148 -0.092,0.06 -0.6333,0.108 -0.047,0 -0.055,0.01 -0.091,0.01 -0.133797,-0.1075 -0.153097,-0.2633 -0.193897,-0.3689 v -0.5141 c 0,-2.2958 -1.8482,-4.144 -4.144,-4.144 H 3.6171986 c -0.093,-0.051 -0.188,-0.10081 -0.2828999,-0.14781 -0.1139,-0.056 -0.2864001,-0.1666 -0.3505002,-0.4257 -0.01,-0.042 -0.01,-0.085 -0.028,-0.2548 -0.028,-0.2529 -0.3855,-0.2136 -0.3576002,0.039 0.011999,0.1208 0.012999,0.1328 0.018,0.1811 -0.09,-0.085 -0.1072994,-0.1228 -0.3375996,-0.445 -0.086,-0.1205 -0.1695998,-0.2428 -0.2542998,-0.3643 -0.055,-0.077 -0.1636001,-1e-4 -0.1090001,0.077 0.077,0.1274 0.1515999,0.2566 0.2318001,0.3822 0.1352,0.2116 0.1350999,0.20599 0.1693,0.2542 -0.1034002,-0.085 -0.2186001,-0.155 -0.3238,-0.2379 -0.094,-0.074 -0.1822,-0.1554 -0.2732,-0.2332 -0.044,-0.032 -0.089,0.031 -0.044,0.062 0.094,0.069 0.1966002,0.128 0.2829001,0.2072 0.088,0.08 0.1642999,0.172 0.243,0.2614 0.043,0.078 -0.093,0.1266 -0.1917999,0.14629 -0.2840001,0.057 -0.5646002,0.20901 -0.8554,0.21791 -0.072,0 -0.1449002,-0.01 -0.21750016,-0.019 0.035,-0.029 0.057,-0.046 0.15249996,-0.12271 0.092,-0.074 0.1788001,-0.1558 0.2793,-0.21799 0.054,-0.034 0.1198001,-0.044 0.1796002,-0.066 0.083,-0.046 0.018,-0.164 -0.066,-0.1177 -0.1702006,0.1297 -0.2536004,0.1964 -0.4528005,0.3249 -0.088,0.057 -0.17890006,0.1074 -0.26909996,0.1601 -0.1091001,-0.029 -0.2181,-0.064 -0.3264,-0.095 -0.099,-0.028 -0.1720001,-0.098 -0.06,-0.1944 0.1881999,-0.096 0.4039002,-0.1438 0.6012,-0.199 0.13329996,-0.037 0.08,-0.2258 -0.053,-0.1883 -0.1361999,0.049 -0.271,0.1001 -0.4083,0.1453 -0.1209,0.04 -0.2536,0.05 -0.3658,0.11 0,7.9e-4 0,0 -0.01,0 0.1757,-0.1697 0.3614,-0.3318 0.5121,-0.4691 0.031,-0.028 -0.01,-0.072 -0.039,-0.044 -0.1616998,0.1524 -0.3204998,0.3079 -0.485,0.4574 -0.075,0.068 -0.091,0.08 -0.1431999,0.1273 0.019,-0.051 0.037,-0.1028 0.061,-0.1519 0.061,-0.1248 0.1511001,-0.2332 0.2266,-0.3499 0.053,-0.074 0.1058,-0.1484 0.1586,-0.2226 0.067999,-0.1409 -0.031001,-0.2537 -0.1412012,-0.2635 z m 14.74730036,8.1379 c 0.082,0.052 0.1639,0.1026 0.2451,0.1551 -0.01,0 -7.94e-4,-0.014 0.01,-0.01 -0.084,-0.048 -0.1675,-0.097 -0.2512,-0.1453 z m -6.1714005,13.1026 c -0.024,-0.01 -0.048,-0.017 -0.072,-0.025 -0.028,-0.01 -0.01,0 -0.034,-0.01 0.013,0 0.019,0.01 0.033,0.013 0.024,0.01 0.049,0.014 0.073,0.022 z" />
  </g>
</svg>
