<?xml version="1.0" encoding="UTF-8" standalone="no"?>
<svg
   xmlns:dc="http://purl.org/dc/elements/1.1/"
   xmlns:cc="http://creativecommons.org/ns#"
   xmlns:rdf="http://www.w3.org/1999/02/22-rdf-syntax-ns#"
   xmlns:svg="http://www.w3.org/2000/svg"
   xmlns="http://www.w3.org/2000/svg"
   xmlns:sodipodi="http://sodipodi.sourceforge.net/DTD/sodipodi-0.dtd"
   xmlns:inkscape="http://www.inkscape.org/namespaces/inkscape"
   width="52.783932mm"
   height="11.960825mm"
   viewBox="0 0 52.783932 11.960825"
   version="1.1"
   id="svg3813"
   inkscape:version="1.0 (4035a4fb49, 2020-05-01)"
   sodipodi:docname="logogram_inventory_background - detail_1.svg"
   inkscape:export-filename="D:\Calcatz\Icon Pack\Adventure Narative Inspired by Arrival\GUI\Inventory\png\logogram_inventory_background - detail_1.png"
   inkscape:export-xdpi="96"
   inkscape:export-ydpi="96">
  <defs
     id="defs3807" />
  <sodipodi:namedview
     id="base"
     pagecolor="#ffffff"
     bordercolor="#666666"
     borderopacity="1.0"
     inkscape:pageopacity="0.0"
     inkscape:pageshadow="2"
     inkscape:zoom="2.5739327"
     inkscape:cx="115.99936"
     inkscape:cy="-1.3405597"
     inkscape:document-units="mm"
     inkscape:current-layer="layer1"
     inkscape:document-rotation="0"
     showgrid="false"
     fit-margin-top="0"
     fit-margin-left="0"
     fit-margin-right="0"
     fit-margin-bottom="0"
     inkscape:window-width="1366"
     inkscape:window-height="705"
     inkscape:window-x="-8"
     inkscape:window-y="-8"
     inkscape:window-maximized="1" />
  <metadata
     id="metadata3810">
    <rdf:RDF>
      <cc:Work
         rdf:about="">
        <dc:format>image/svg+xml</dc:format>
        <dc:type
           rdf:resource="http://purl.org/dc/dcmitype/StillImage" />
        <dc:title />
      </cc:Work>
    </rdf:RDF>
  </metadata>
  <g
     inkscape:label="Layer 1"
     inkscape:groupmode="layer"
     id="layer1"
     transform="translate(-79.44137,-142.18633)">
    <path
       d="m 86.71747,142.18633 -7.2761,3.96875 c 0,0 1.7989,1.32108 3.71,2.37711 0.2789,0.1541 0.7895,0.41237 0.8149,0.6289 0,0.01 0,0.005 -0.01,0.016 -0.041,0.1433 -0.084,0.28581 -0.1264,0.42892 -0.082,0.20082 0.2018,0.31764 0.2841,0.11679 0.052,-0.147 0.1003,-0.29604 0.1572,-0.44132 0.019,-0.0483 0.022,-0.0542 0.037,-0.0915 0,0.007 0.01,0.0145 0.014,0.0217 0.027,0.28574 0.047,0.38091 -0.024,0.73432 -0.036,0.18081 -0.113501,0.35139 -0.153901,0.53123 -0.04,0.17676 -0.057,0.35749 -0.086,0.53641 -0.012,0.0575 0.07,0.0739 0.081,0.0165 0.035,-0.17502 0.056,-0.3535 0.1048,-0.52503 0.052,-0.18129 0.1376,-0.35158 0.1979,-0.5302 0.055,-0.16313 0.072,-0.22231 0.094,-0.29817 0.082,0.23717 0.142901,0.49524 0.152901,0.71778 0.015,0.34224 -0.059,0.53049 -0.1463,0.83251 -0.038,0.2681 0.3411,0.32237 0.3794,0.0543 -0.01,-0.12197 -0.016,-0.24377 -0.018,-0.36587 -0.01,-0.32972 0.014,-0.66149 -0.018,-0.99064 0.1571,0.23155 0.3138,0.46297 0.445,0.70952 0.1545,0.29068 0.268,0.60172 0.398999,0.90382 0.381,0.87979 0.255301,0.54524 0.506401,1.38751 0.1207,0.47075 0.786599,0.30022 0.665999,-0.17053 -0.101099,-0.2391 -0.203499,-0.47742 -0.302699,-0.71727 -0.1082,-0.26093 -0.1977,-0.52993 -0.3188,-0.78496 -0.039,-0.0819 -0.084,-0.1608 -0.1268,-0.24081 0.3154,0.35064 0.626,0.67933 1.0769,0.97306 0.4188,0.27263 0.8959,0.44234 1.3438,0.66353 0.043,0.0262 0.08,-0.0354 0.037,-0.0615 -0.417,-0.24953 -0.8662,-0.45147 -1.2509,-0.74828 -0.7668,-0.59131 -0.8525,-0.94103 -1.4134,-1.63969 -0.057,-0.0714 -0.1247,-0.13468 -0.1913,-0.19844 0.1944,0.0907 0.3876,0.18329 0.5828,0.27234 0.8983,0.40976 0.761,0.34575 1.5592,0.67386 0.044,0.0167 0.068,-0.0458 0.024,-0.0625 -0.5648,-0.1941 -1.0318,-0.33078 -1.5658,-0.63873 -0.2465,-0.14217 -0.3841,-0.25291 -0.508,-0.36638 -0.091,-0.16599 0.253,-0.11108 0.3432,-0.093 0.258,0.0516 0.5178,0.0855 0.7781,0.11213 0.2075,0.0842 0.4803,0.21679 0.6057,0.27802 0.4011,0.19586 0.8974,0.45216 1.2909,0.65371 -0.2257,-0.1368 -0.4538,-0.26968 -0.6766,-0.41134 -0.4987,-0.31739 -0.6442,-0.41444 -0.6659,-0.43305 -0.02,-0.0114 -0.055,-0.0322 -0.084,-0.0491 0.084,0.004 0.1686,0.006 0.253,0.008 0.3823,0.10837 0.7582,0.23993 1.1414,0.34623 0.760401,0.21105 1.524801,0.4086 2.2873,0.61288 0.01,0.003 0.01,-0.007 0,-0.01 -0.756499,-0.22585 -1.5137,-0.44806 -2.2688,-0.67748 -0.2953,-0.0897 -0.5929,-0.17379 -0.8882,-0.26406 0.196,2.9e-4 0.3921,-0.004 0.5889,-0.0134 0.2575,-0.0118 0.6067,0.0385 0.87,0.12557 1.247801,0.56634 0.8263,0.37162 3.2478,1.55184 0.031,0.0145 0.052,-0.0298 0.021,-0.0444 -2.4365,-1.18873 -1.9346,-0.76636 -2.977599,-1.73167 0.3871,-0.0442 0.7752,-0.0962 1.1639,-0.15503 0.1717,-0.026 0.4466,0.0223 0.6736,0.0811 0.4411,0.14936 0.8702,0.3303 1.3087,0.48627 0.398699,0.14185 0.8016,0.27113 1.2025,0.4067 -0.386,-0.16702 -0.782901,-0.31018 -1.157601,-0.50127 -0.213199,-0.10868 -0.487099,-0.28797 -0.757199,-0.47128 0.07,0.006 0.1405,0.0116 0.2103,0.0202 0.337699,0.0414 0.6745,0.0889 1.0121,0.12971 0.054,0.007 0.05,0.006 0.1,0.0119 -0.348199,-0.0541 -0.696699,-0.12233 -1.0877,-0.23513 -0.109799,-0.0317 -0.210399,-0.0713 -0.307999,-0.11421 1.3878,-0.21882 2.7747,-0.41483 4.1352,-0.31574 0.016,0.23092 0.032,0.49 -0.01,0.68885 -0.017,0.085 -0.04,0.16918 -0.067,0.25166 -0.3668,-0.0303 -0.7337,-0.0581 -1.0996,-0.0956 -0.051,-0.005 -0.093,-0.009 -0.1416,-0.014 0.2958,0.0317 0.703,0.0716 1.2369,0.12403 -0.03,0.0863 -0.066,0.17039 -0.1074,0.25114 -0.099,0.19149 -0.2421,0.3562 -0.3633,0.53434 -0.022,0.0298 0.02,0.0608 0.042,0.031 0.1408,-0.17601 0.3104,-0.3326 0.4223,-0.52813 0.05,-0.0872 0.085,-0.1815 0.1143,-0.27802 0.075,0.007 0.074,0.008 0.159,0.016 0.013,0 0.014,-0.017 0,-0.0181 -0.052,-0.005 -0.1029,-0.009 -0.1545,-0.0134 0.025,-0.0816 0.046,-0.16423 0.07,-0.24546 0.1013,-0.34183 0.1177,-0.46876 0.1389,-0.67955 0.1228,0.0122 0.2458,0.0213 0.368,0.0388 0.1463,0.0209 0.4432,0.2554 0.4739,0.50229 -0.054,0.38127 -0.1299,0.90977 -0.2162,1.16066 -0.2727,0.79362 -0.618,1.25204 -1.0596,1.9544 -0.078,0.135 0.1135,0.24455 0.191,0.10956 0.1664,-0.33578 0.3175,-0.67925 0.4987,-1.00718 0.1823,-0.32946 0.4049,-0.63526 0.5906,-0.96273 0.2384,-0.41994 0.3577,-0.67913 0.4874,-0.97824 0.02,0.0172 0.034,0.0289 0.052,0.0444 0.013,0.0822 0.023,0.21233 0.1514,0.66714 0.075,0.26489 0.2021,0.51441 0.2624,0.7829 0.1508,0.67236 0.086,0.75646 0,1.38493 -0.02,0.47704 0.6543,0.506 0.675,0.0289 0.019,-1.00811 0.048,-0.47682 -0.109,-1.56063 -0.01,-0.0532 -0.012,-0.10711 -0.018,-0.16071 0.067,0.0863 0.117799,0.15406 0.2072,0.2651 2.097598,2.60099 -0.313,-0.6872 1.338498,1.61179 0.3289,0.3484 0.8213,-0.11666 0.4924,-0.46509 -0.2347,-0.19172 -0.4889,-0.36143 -0.7038,-0.57516 -0.267698,-0.26656 -0.516998,-0.5544 -0.738898,-0.86041 -0.047,-0.0655 -0.112,-0.16904 -0.1741,-0.26769 0.422199,0.20222 0.873098,0.40287 1.342498,0.59635 -0.062,-0.0281 -0.1247,-0.0554 -0.186,-0.0853 -0.603298,-0.29338 -0.927098,-0.54651 -1.225299,-0.85835 -0.109599,-0.25546 0.186001,-0.21714 0.395301,-0.18551 2.196798,0.33191 4.382998,-0.4448 6.585698,-0.94362 0.019,0.14555 0.03,0.24782 0.045,0.35967 -0.1201,0.0361 -0.2405,0.071 -0.3606,0.10646 v 0.006 c 0.1201,-0.0369 0.2402,-0.0737 0.3606,-0.11059 0.061,0.45906 0.1,0.78973 0.077,1.53479 -0.01,0.28327 -0.058,0.56351 -0.087,0.84542 -7.9e-4,0.0909 0.1278,0.0921 0.1286,0 -0.015,-0.94771 -0.039,-0.95052 0.067,-1.99677 0.016,-0.15408 0.041,-0.30695 0.066,-0.45993 0.1939,-0.0579 0.3873,-0.11705 0.5823,-0.17156 1.5878,-0.44403 0.9674,-0.35233 2.3022,-0.40514 0.052,-0.0104 0.087,-0.0348 0.1143,-0.0641 0.02,0.002 0.04,0.004 0.06,0.006 -0.2444,0.38334 -0.183,0.23897 -1.1363,1.24282 -0.019,0.0169 0.01,0.0433 0.024,0.0264 1.2012,-0.96349 1.0099,-0.74598 1.4472,-1.22835 0.6599,0.0976 1.3169,0.27968 1.9725,0.42684 0.3143,0.0705 0.6676,0.39973 0.4858,0.58705 -0.3882,0.21113 -0.7858,0.40495 -1.1978,0.57051 -0.5641,0.2267 -1.1499,0.39619 -1.7245,0.59428 -0.034,0.0106 -0.019,0.058 0.015,0.0475 0.5819,-0.18301 1.1629,-0.36892 1.7458,-0.54881 0.7842,-0.24216 1.5806,-0.45966 2.3516,-0.74517 -0.1209,0.2336 -0.2416,0.46483 -0.385,0.72709 -0.2323,0.42579 -0.4844,0.84091 -0.7104,1.2702 -0.7231,1.37371 -0.1931,0.84878 -0.984,1.48415 -0.2516,0.50062 0.4564,0.85664 0.708,0.35605 0.01,-0.17613 -0.048,-0.36503 0.017,-0.52865 0.33279,-0.83216 1.02019,-1.53862 1.46209,-2.29702 0.01,-0.0157 0.015,-0.0331 0.023,-0.0491 0.8821,-0.60746 1.0449,-0.71487 1.3478,-0.88728 -0.033,0.20103 -0.058,0.40402 -0.1032,0.60255 -0.1434,0.6242 -0.3125,1.04791 -0.52519,1.65003 -0.032,0.0935 0.10029,0.13898 0.13229,0.0455 0.085,-0.27778 0.17251,-0.55442 0.2543,-0.83303 0.082,-0.27794 0.1503,-0.5601 0.2368,-0.83664 0.077,-0.24678 0.1717,-0.48722 0.2527,-0.73277 0.01,-0.0155 0.01,-0.0276 0.013,-0.0429 0.15801,-0.0882 0.167,-0.0946 0.5011,-0.28422 0.25541,-0.17013 0.015,-0.53135 -0.2402,-0.36122 -0.035,0.0317 -0.04,0.037 -0.072,0.0661 0.041,-0.0933 0.089,-0.18548 0.1614,-0.2775 0.05,-0.0637 0.1273,-0.0995 0.1911,-0.14935 0.019,-0.0259 0.029,-0.0518 0.039,-0.0775 1.1289,-0.2459 2.3296,-0.17975 3.4673,0.0207 0.1749,0.0308 0.5533,0.24154 0.4956,0.49661 -0.1053,0.17415 -0.2164,0.34312 -0.3434,0.49299 -0.2959,0.34893 -0.6552,0.63911 -0.9824,0.9586 -0.023,0.0196 -2.6e-4,0.052 0.028,0.0325 0.5895,-0.46442 1.0057,-0.76383 1.4621,-1.187 0.024,0.18548 0.066,0.36919 0.077,0.55604 0.013,0.26598 -0.019,0.5326 -0.019,0.79891 -2.6e-4,0.25712 0.011,0.51397 0.016,0.77101 0,0.12434 0.17621,0.12434 0.17621,0 -0.01,-0.49218 -0.019,-1.07893 0,-1.56992 0.011,-0.22551 0.039,-0.44998 0.058,-0.6749 0.013,-0.0765 0.03,-0.1526 0.046,-0.22893 0.028,-0.0284 0.052,-0.0494 0.08,-0.0791 0,0.002 0.01,0.004 0.014,0.007 5.3e-4,0.002 2.6e-4,0.003 0,0.005 v 0.001 c 0.077,0.12838 0.1609,0.25297 0.2316,0.38499 0.1016,0.18987 0.1897,0.38656 0.2846,0.57981 0.2093,0.37793 0.4189,0.75585 0.6279,1.13378 -0.071,-0.16074 -0.6271,-1.39424 -0.7607,-1.7818 -0.018,-0.052 -0.031,-0.10534 -0.045,-0.15865 0.7197,0.36733 1.4209,0.80335 2.1659,0.97669 0.097,0.0224 0.244,0.0848 0.399,0.15709 0.016,0.0868 0.045,0.22804 0.099,0.48783 0.058,0.27627 0.1466,0.54623 0.186,0.82579 0.113,0.80325 0.086,1.06459 0.071,1.79265 0.011,0.16446 0.24399,0.14851 0.23259,-0.016 -0.2979,-1.18555 -0.1059,-0.20768 -0.19319,-1.79058 -0.015,-0.27824 -0.075,-0.553 -0.084,-0.83148 0,-0.10227 0,-0.20476 0.01,-0.30696 0.1162,0.063 0.222,0.12382 0.3085,0.17984 0.1075,0.0886 0.2096,0.18154 0.294,0.29145 0.2201,0.28702 0.4379,1.13352 0.5503,1.42266 0.1376,0.35367 0.3019,0.6967 0.4527,1.04489 0.072,0.29789 0.4929,0.19664 0.4212,-0.10128 -0.1349,-0.9738 -0.074,-1.28965 -0.5286,-2.11357 -0.057,-0.10291 -0.1196,-0.19684 -0.1844,-0.2868 0.025,0.0148 0.048,0.0317 0.073,0.046 0.2616,0.14842 0.5392,0.26716 0.8088,0.40049 0.1572,0.10363 0.3037,-0.11912 0.1466,-0.22273 -0.2395,-0.18294 -0.4741,-0.3722 -0.71891,-0.54828 -0.10659,-0.0769 -0.21909,-0.14575 -0.3307,-0.21601 0.39101,0.12772 0.78211,0.2536 1.17161,0.3855 0.7072,0.23955 1.40409,0.5109 2.11769,0.73071 0.6228,0.19185 1.25911,0.33548 1.88881,0.50333 0.08,0.0222 0.1117,-0.0909 0.031,-0.11317 -0.6305,-0.15714 -1.2756,-0.26378 -1.8912,-0.47129 -0.8539,-0.28773 -1.8976,-0.75869 -2.7877,-1.24075 -0.073,-0.10534 -0.082,-0.18118 -0.035,-0.24185 0,0.0464 0.028,0.0931 0.092,0.10387 l 5.3e-4,-5.3e-4 c 0.5144,-0.0114 0.6938,-0.0169 0.84349,-0.0165 -0.14149,-0.0255 -0.31959,-0.0717 -0.78389,-0.185 0.026,-0.0116 0.047,-0.0239 0.08,-0.0351 0.01,-0.003 0.019,-0.007 0.028,-0.0109 0.9843,0.0402 0.1191,0.01 2.2289,0.032 0.21719,0.002 0.4347,7.7e-4 0.6522,0.002 -0.2146,-0.0181 -0.42921,-0.0404 -0.6435,-0.0568 -1.09961,-0.0844 -1.2221,-0.0876 -1.65841,-0.19534 2.89051,-1.16452 6.00841,-3.43234 6.00841,-3.43234 l -13.49383,-4.23334 z m 41.8018,7.91786 c 0.2648,0.0224 0.5296,0.0371 0.7948,0.0269 -0.2644,-0.0208 -0.5295,-0.0259 -0.7948,-0.0269 z m 0.7948,0.0269 c 0.01,6.3e-4 0.016,8.7e-4 0.024,0.002 0.3154,0.0259 0.6231,0.11237 0.9345,0.16846 0.257,-0.003 0.2525,-0.36711 0,-0.3638 -0.3098,0.0646 -0.6135,0.17924 -0.9297,0.19379 -0.01,4.5e-4 -0.019,-3.7e-4 -0.029,0 z m -2.9999,0.17053 c 0.1998,0.036 0.4017,0.032 1.125,0.0589 -0.6352,-0.0379 -0.9313,-0.0584 -1.125,-0.0589 z m 1.125,0.0589 c 0.1093,0.006 0.072,0.005 0.2143,0.0129 0,2.6e-4 -2e-4,-0.006 0,-0.006 -0.1029,-0.004 -0.1293,-0.004 -0.2143,-0.007 z m -26.8734,1.15703 c 0.2267,0.10238 0.4593,0.191 0.6934,0.27544 -0.2325,-0.0897 -0.4601,-0.17928 -0.6934,-0.27544 z m 0.6934,0.27544 c 0.5361,0.2067 1.0639,0.3993 1.5251,0.54674 0.7358,0.23522 1.4938,0.39268 2.2407,0.58911 0,0 0.01,-0.005 0,-0.006 -0.7421,-0.20908 -1.4922,-0.39173 -2.2262,-0.62735 -0.182,-0.0584 -0.3648,-0.11709 -0.5479,-0.17415 -0.1757,-0.0901 -0.3778,-0.19355 -0.5808,-0.29869 0.1625,0.0885 0.3241,0.17861 0.4858,0.26872 -0.3011,-0.0941 -0.6003,-0.19197 -0.8967,-0.29869 z m 0.4109,0.03 c -0.019,-0.0105 -0.038,-0.0216 -0.057,-0.032 -0.1656,-0.0896 -0.3328,-0.177 -0.4995,-0.26458 0.1796,0.0997 0.3656,0.19747 0.5569,0.29662 z m -6.7741,-1.80868 c -0.3207,-0.0343 -0.7075,-0.0798 -1.4208,-0.16588 0.4448,0.069 0.8961,0.1135 1.4208,0.16588 z m -7.3681,-0.0284 c 0.2415,0.1396 -0.038,-0.0329 0,0 z m 1.3425,0.8444 c 0.01,0.006 0.02,0.0124 0.03,0.0186 v -0.003 c -0.01,-0.005 -0.021,-0.0107 -0.03,-0.0155 z m 19.6302,-1.74718 c -0.3164,0.12863 -0.3432,0.11776 -1.4896,0.46922 -0.1929,0.0591 -0.386,0.11815 -0.5789,0.17725 0.019,-0.11998 0.036,-0.24011 0.05,-0.3607 0.6707,-0.14175 1.3433,-0.2484 2.0182,-0.28577 z m 6.7027,0.0677 c -0.017,0.0611 -0.027,0.0907 -0.065,0.22582 -0.034,0.12555 -0.07,0.2512 -0.1027,0.37724 -0.5268,0.48857 -0.5048,0.4623 -1.2848,0.94206 0.073,-0.19707 0.1402,-0.39629 0.2564,-0.56947 0.078,-0.11644 0.1767,-0.21589 0.2807,-0.31109 0.177,-0.12282 0.4781,-0.38234 0.6205,-0.47801 0.097,-0.0651 0.1955,-0.12676 0.2947,-0.18655 z m -3.8148,0.86403 c -0.097,0.0251 -0.1952,0.0456 -0.291,0.0754 -0.1836,0.0571 -0.3643,0.12343 -0.5466,0.185 -0.7597,0.25646 -1.2084,0.392 -1.9762,0.72709 -0.3215,0.14028 -0.6337,0.30014 -0.9483,0.45527 0.3175,-0.14901 0.6334,-0.30253 0.957,-0.4377 0.6943,-0.28993 1.2626,-0.50302 1.9905,-0.63769 0.2802,-0.0518 0.5392,-0.0475 0.8165,-0.0501 0.2244,0 0.2244,-0.31729 0,-0.31729 z m -3.7621,1.4428 c -0.057,0.0266 -0.1132,0.0535 -0.1701,0.0796 7.9e-4,-0.001 0,0.004 0,0.004 0.057,-0.0274 0.1135,-0.0558 0.1701,-0.0837 z m 9.974,-1.12189 c -0.014,0.002 -0.029,0.008 -0.044,0.017 v 0 c -0.4514,0.3383 -0.9533,0.60041 -1.4147,0.92294 -0.1998,0.13943 -0.3826,0.30136 -0.5737,0.45217 -0.01,0.006 2.6e-4,0.0166 0.01,0.0103 0.1899,-0.15111 0.368,-0.31815 0.5699,-0.4532 0.7432,-0.49728 0.7763,-0.47068 1.5147,-0.76016 0.1064,-0.065 0.04,-0.20498 -0.061,-0.18914 z m -17.8752,0.1571 c -0.098,0.003 -0.1744,0.12704 -0.08,0.22169 0.2543,0.14323 0.9052,0.51095 1.1007,0.61701 0.1193,0.0648 0.2397,0.12803 0.3601,0.19121 -0.1262,-0.0701 -0.2458,-0.1386 -0.3514,-0.20361 -0.2143,-0.13192 -0.4259,-0.27156 -0.6186,-0.43357 -0.1196,-0.10065 -0.2079,-0.23323 -0.3119,-0.34984 -0.032,-0.0315 -0.067,-0.0438 -0.099,-0.0429 z m 21.9681,0.1204 c -0.079,-0.013 -0.1691,0.0482 -0.1469,0.15916 l -5.3e-4,5.3e-4 c 0.2037,0.69159 0.1056,0.31024 0.2807,1.14722 0.01,0.0416 0.065,0.0331 0.059,-0.009 -0.1181,-0.85037 -0.098,-0.45353 -0.088,-1.18907 -0.013,-0.0666 -0.057,-0.10122 -0.1042,-0.10904 z m -23.8964,0.007 c -0.055,-0.002 -0.1122,0.0259 -0.1431,0.0977 -0.089,0.66458 -0.2514,1.31524 -0.4117,1.96525 -0.017,0.0842 0.1021,0.10785 0.1188,0.0238 0.025,-0.16348 0.039,-0.32882 0.074,-0.4904 0.1037,-0.47839 0.2505,-0.95366 0.4895,-1.38286 0.051,-0.11954 -0.035,-0.20935 -0.1273,-0.21343 z m 14.1557,0.0718 -0.3751,0.262 c 0.1288,-0.0812 0.2577,-0.1622 0.3865,-0.2434 -0.011,0.008 -0.024,-0.0106 -0.011,-0.0186 z m -0.3751,0.262 c -0.5676,0.3578 -1.1351,0.71553 -1.7026,1.07332 -0.056,0.0374 -2.7e-4,0.11746 0.053,0.0801 z m -9.3941,-0.11059 c -0.313,-0.0391 -0.3685,0.40324 -0.055,0.44235 1.2219,0.11062 -0.6437,-0.0387 1.1832,0.007 0.2387,0.006 0.4755,0.0457 0.7134,0.0687 0.1063,0.0106 0.1211,-0.13974 0.015,-0.15038 -0.6263,-0.0661 -1.2756,-0.0975 -1.8561,-0.36793 z m 21.7443,0.48266 c -0.08,-0.009 -0.1678,0.0564 -0.14,0.16692 0.1386,0.28189 0.1977,0.5971 0.3329,0.88005 0.6461,1.35273 0.091,-0.0673 0.4783,0.97203 0.038,0.0783 0.149,0.025 0.1111,-0.0532 -0.07,-0.12412 -0.1492,-0.24408 -0.2114,-0.37259 -0.155,-0.32136 -0.331,-0.7464 -0.4127,-1.10174 -0.029,-0.12673 -0.032,-0.25797 -0.048,-0.38705 -0.016,-0.0663 -0.062,-0.0988 -0.11,-0.10439 z m -33.9275,2.25568 a 0.02275527,0.02275527 0 0 0 -0.02,0.0227 0.02275527,0.02275527 0 0 0 0.023,0.0227 0.02275527,0.02275527 0 0 0 0.023,-0.0227 0.02275527,0.02275527 0 0 0 -0.023,-0.0227 z"
       style="fill:#000000;fill-opacity:0.38039216;stroke:none;stroke-width:0.264583"
       id="path5291" />
  </g>
</svg>
