<?xml version="1.0" encoding="UTF-8" standalone="no"?>
<svg
   xmlns:dc="http://purl.org/dc/elements/1.1/"
   xmlns:cc="http://creativecommons.org/ns#"
   xmlns:rdf="http://www.w3.org/1999/02/22-rdf-syntax-ns#"
   xmlns:svg="http://www.w3.org/2000/svg"
   xmlns="http://www.w3.org/2000/svg"
   xmlns:sodipodi="http://sodipodi.sourceforge.net/DTD/sodipodi-0.dtd"
   xmlns:inkscape="http://www.inkscape.org/namespaces/inkscape"
   inkscape:export-ydpi="96"
   inkscape:export-xdpi="96"
   inkscape:export-filename="D:\Calcatz\Icon Pack\Adventure Narative Inspired by Arrival\GUI\Inventory\png\logogram_inventory_scroll_bar - background_detail_1.png"
   sodipodi:docname="logogram_iventory_scroll_bar - background_detail_1.svg"
   inkscape:version="1.0 (4035a4fb49, 2020-05-01)"
   id="svg7939"
   version="1.1"
   viewBox="0 0 2.0212197 9.0485249"
   height="9.0485249mm"
   width="2.0212197mm">
  <defs
     id="defs7933" />
  <sodipodi:namedview
     inkscape:window-maximized="1"
     inkscape:window-y="-8"
     inkscape:window-x="-8"
     inkscape:window-height="705"
     inkscape:window-width="1366"
     fit-margin-bottom="0"
     fit-margin-right="0"
     fit-margin-left="0"
     fit-margin-top="0"
     showgrid="false"
     inkscape:document-rotation="0"
     inkscape:current-layer="layer1"
     inkscape:document-units="mm"
     inkscape:cy="26.296975"
     inkscape:cx="-3.6757837"
     inkscape:zoom="7.593161"
     inkscape:pageshadow="2"
     inkscape:pageopacity="0.0"
     borderopacity="1.0"
     bordercolor="#666666"
     pagecolor="#ffffff"
     id="base" />
  <metadata
     id="metadata7936">
    <rdf:RDF>
      <cc:Work
         rdf:about="">
        <dc:format>image/svg+xml</dc:format>
        <dc:type
           rdf:resource="http://purl.org/dc/dcmitype/StillImage" />
        <dc:title></dc:title>
      </cc:Work>
    </rdf:RDF>
  </metadata>
  <g
     transform="translate(67.240513,-15.18702)"
     id="layer1"
     inkscape:groupmode="layer"
     inkscape:label="Layer 1">
    <path
       transform="matrix(0.26458333,0,0,0.26458333,-67.240513,15.18702)"
       d="M 3.3964844 0 L 1.1992188 3.4980469 L 0 17.136719 L 2.3984375 33.123047 L 3.2753906 34.199219 C 3.2753906 34.199219 3.4558251 30.478652 3.8105469 28.4375 C 3.8897121 28.487977 3.9725524 28.532087 4.0449219 28.591797 C 4.1239518 28.656729 4.1981226 28.729727 4.265625 28.806641 C 4.3373982 28.888241 4.3970891 28.979666 4.4628906 29.066406 C 4.5098702 29.129222 4.5977986 29.062823 4.5507812 29 C 4.2897293 28.656063 4.413588 28.806505 4.1367188 28.482422 C 4.075188 28.410233 4.0223281 28.33251 3.953125 28.267578 C 3.9220542 28.237723 3.8828468 28.218392 3.8457031 28.197266 C 3.8467469 28.191828 3.8466096 28.183141 3.8476562 28.177734 C 3.9147051 27.830967 3.9766114 27.488557 4.0351562 27.148438 C 4.0714019 26.93712 4.0693847 26.749766 4.2226562 26.888672 C 4.8418215 28.404074 4.0652528 26.248947 4.5664062 27.671875 C 4.592107 27.733821 4.6799221 27.696435 4.6542969 27.636719 C 4.5927662 27.516227 4.5165988 27.401854 4.46875 27.275391 C 4.2922839 26.812489 4.3705091 26.88928 4.2773438 26.5 C 4.2603359 26.422671 4.2198816 26.351598 4.2070312 26.273438 C 4.2035001 26.248443 4.2065111 26.222649 4.2070312 26.197266 C 4.2174525 26.201353 4.2301553 26.197987 4.2402344 26.203125 C 4.6192152 26.391534 4.8974213 26.688737 5.1210938 27.041016 C 5.336867 27.380682 5.3471861 27.322659 5.1933594 27.478516 C 5.1549216 27.800229 5.6069203 27.854917 5.6464844 27.533203 C 5.6249411 27.437505 5.6223332 27.33582 5.5800781 27.246094 C 5.4121537 26.876947 5.1709086 26.65607 4.8710938 26.378906 C 4.7901002 26.303984 4.7254429 26.25551 4.6542969 26.195312 C 4.7768519 26.221867 4.8957732 26.24968 5.0800781 26.322266 C 5.2402923 26.385497 5.3830227 26.485222 5.5351562 26.566406 C 5.6838429 26.644605 5.795171 26.433251 5.6464844 26.355469 C 5.4841159 26.267028 5.3276016 26.163771 5.1582031 26.089844 C 4.2023286 25.671917 4.4504294 25.819398 4.359375 25.767578 C 4.8638537 25.479941 4.4953046 25.699427 5.4511719 25.042969 C 5.6310396 24.919492 5.8187254 24.804753 6.0019531 24.685547 C 6.0848382 24.628287 6.0048659 24.5111 5.921875 24.568359 C 5.7437081 24.68715 5.5777058 24.826845 5.3867188 24.923828 C 4.9975723 25.121452 4.8425147 25.189242 4.7226562 25.238281 C 4.4885656 25.288289 4.3640215 24.924887 4.3925781 24.697266 C 4.4030549 24.610209 4.4098836 24.518965 4.4199219 24.431641 C 4.5422182 24.252965 4.5387597 24.24584 4.8085938 23.947266 C 4.944052 23.797294 5.0707315 23.637653 5.2207031 23.501953 C 5.259811 23.466647 5.3037578 23.441412 5.34375 23.408203 C 5.302422 23.438523 5.259124 23.466409 5.21875 23.498047 C 5.0589516 23.623225 4.9080165 23.760132 4.7539062 23.892578 C 4.6506226 23.981347 4.5513005 24.074616 4.4453125 24.160156 C 4.4472208 24.142739 4.44928 24.124854 4.4511719 24.107422 C 4.5605484 24.009546 4.6717409 23.907273 4.7617188 23.804688 C 4.9727676 23.564121 5.2227706 23.260765 5.3945312 22.992188 C 5.5022287 22.824036 5.5939019 22.646635 5.6914062 22.472656 C 5.4696222 22.830727 5.3320298 23.083988 5.0449219 23.398438 C 4.9368274 23.516775 4.8101968 23.616931 4.6914062 23.724609 C 4.618757 23.790534 4.5501771 23.863559 4.4707031 23.919922 C 4.4828512 23.804106 4.4943984 23.686921 4.5058594 23.570312 C 4.7053316 23.306582 4.4845283 23.594046 5.140625 22.876953 C 5.320077 22.680833 5.5003474 22.485285 5.6582031 22.271484 C 5.7379739 22.163443 5.803008 22.0457 5.8710938 21.929688 C 5.801664 22.044352 5.7358101 22.161318 5.6542969 22.267578 C 5.4927977 22.477795 5.30733 22.670523 5.1210938 22.859375 C 4.8315853 23.153226 4.7066013 23.24907 4.5253906 23.375 C 4.5473877 23.142719 4.576161 22.918168 4.5957031 22.681641 C 4.6178879 22.413117 4.6759063 22.163604 5.09375 21.960938 C 5.3585007 21.91286 5.622867 21.883981 5.8964844 21.888672 C 5.8964844 21.888672 5.8984375 21.888672 5.8984375 21.888672 C 6.0898707 21.89205 6.2858857 21.906465 6.4882812 21.939453 C 6.7326655 21.977891 6.961872 22.080318 7.1992188 22.150391 C 7.3487747 22.188828 7.4054153 21.979214 7.2558594 21.939453 C 6.0813945 21.662862 6.744245 21.787263 5.9765625 21.763672 C 5.9984264 21.727845 6.0222939 21.693517 6.0449219 21.658203 C 6.0437691 21.6601 6.0399044 21.65851 6.0410156 21.65625 C 6.0188272 21.692046 5.9960715 21.727371 5.9746094 21.763672 C 5.8554783 21.759984 5.7969499 21.763445 5.5917969 21.75 C 5.5110428 21.745038 5.4397834 21.730823 5.3632812 21.720703 C 5.4788719 21.665817 5.5197006 21.633106 5.6933594 21.556641 C 6.0210822 21.412225 6.35156 21.254072 6.7050781 21.197266 C 6.8759884 21.171565 7.0442179 21.273609 7.2128906 21.3125 C 7.8688692 21.212947 7.7263062 20.285084 7.0703125 20.384766 C 6.4649229 20.687695 6.1909744 20.843573 5.4726562 21.082031 C 5.2029486 21.17156 5.115288 21.1911 4.9609375 21.236328 C 5.0090847 21.170372 5.055401 21.101977 5.1132812 21.044922 C 5.2083441 20.951316 5.3001941 20.885835 5.3925781 20.810547 C 5.2895308 20.874143 5.1832737 20.940549 5.078125 20.994141 C 5.2623522 20.769256 5.422511 20.574845 5.8457031 20.097656 C 7.3090833 18.447605 6.2581065 19.738175 7.0800781 18.710938 C 7.3783206 18.164637 6.6068665 17.742679 6.3085938 18.289062 C 6.1637623 19.077325 6.2541862 18.91305 5.5488281 19.849609 C 5.3373452 20.130428 5.1696681 20.342106 5.0175781 20.519531 C 4.9790122 20.548995 4.9504973 20.558141 4.9199219 20.570312 C 4.9550455 20.477625 4.9892152 20.384117 5.0234375 20.291016 C 5.1046218 20.071387 5.1747029 19.861682 5.2695312 19.648438 C 5.3848824 19.388217 5.3385153 19.56025 5.3769531 19.390625 C 5.3758004 19.22614 5.1432462 19.227534 5.1445312 19.392578 C 5.2355423 19.449422 5.1966398 19.409072 5.1523438 19.607422 C 5.0865422 19.894553 5.0527489 19.961855 4.9296875 20.251953 C 4.8477712 20.445152 4.8081576 20.496185 4.7753906 20.5625 C 4.6826326 20.480957 4.658274 20.258279 4.6503906 20.027344 C 4.6235472 19.208207 4.5595584 18.39119 4.4882812 17.572266 C 4.5222882 17.50105 4.5493663 17.427867 4.5800781 17.355469 C 4.629424 17.377935 4.7006678 17.416488 4.7578125 17.445312 C 4.7765275 17.45692 4.840843 17.493611 4.84375 17.496094 C 5.107372 17.725549 5.3300248 18.099479 5.5214844 18.384766 C 5.5343348 18.406309 5.5655848 18.385303 5.5527344 18.367188 C 5.3651312 18.099855 5.1503308 17.792881 4.9355469 17.535156 C 4.9764857 17.5573 4.9920489 17.559824 5.0390625 17.585938 C 5.2608074 17.709415 5.4674094 17.859781 5.6816406 17.996094 C 5.8012627 18.075577 5.9145439 17.905655 5.7949219 17.826172 C 5.5834195 17.674499 5.3787452 17.512505 5.1601562 17.371094 C 4.6876687 17.065246 4.7344064 17.108141 4.6777344 17.082031 C 4.7682885 16.763055 4.8311075 16.436073 4.9160156 16.115234 C 4.9511097 15.98253 4.990876 15.851105 5.0273438 15.71875 C 4.9320414 16.028558 4.7837433 16.271015 4.6191406 16.541016 C 4.4095228 16.694339 4.3792737 16.366716 4.3417969 15.966797 C 4.2717639 15.224095 4.2110897 14.481099 4.1601562 13.736328 C 4.1847218 13.71985 4.2100492 13.704357 4.234375 13.6875 C 4.3300726 13.621283 4.4268194 13.556854 4.5195312 13.486328 C 5.1123136 13.037363 4.8533295 13.215453 5.1015625 13.015625 C 5.1614873 13.016658 5.1999435 13.007724 5.2832031 13.011719 C 5.3797701 13.015876 5.4761144 13.034654 5.5722656 13.042969 C 5.6649774 13.045229 5.6689479 12.912726 5.5761719 12.910156 C 5.4796049 12.923007 5.3821389 12.945312 5.2851562 12.945312 C 5.2551139 12.945239 5.2252873 12.939469 5.1953125 12.9375 C 5.2185694 12.919482 5.1953223 12.937069 5.2226562 12.916016 C 5.2952988 12.860041 5.3736282 12.811885 5.4492188 12.759766 C 5.5192912 12.705076 5.4416831 12.605466 5.3730469 12.660156 C 5.2181539 12.852986 5.1842515 12.892301 5.125 12.931641 C 5.0391121 12.923414 4.9530902 12.915285 4.8671875 12.910156 C 4.7466962 12.901463 4.6263507 12.897365 4.5058594 12.888672 C 4.4947188 12.887948 4.4872775 12.887537 4.4765625 12.886719 C 4.8163268 12.623096 5.1463476 12.347018 5.4941406 12.09375 C 5.7051894 11.939923 5.8413848 11.864482 6.0410156 11.75 C 6.2000298 11.523014 5.9597698 11.320696 5.765625 11.416016 C 5.7235702 11.355893 5.6828663 11.293565 5.6308594 11.242188 C 5.4774861 11.091347 5.3073731 10.958745 5.1425781 10.820312 C 4.2264395 10.051281 4.9085543 10.657946 4.1796875 9.9960938 C 4.1757116 9.9929997 4.1719638 9.9945063 4.1679688 9.9921875 C 4.2000587 9.4986344 4.2295978 9.0045818 4.2539062 8.5117188 C 4.4127391 8.7028914 4.5512042 8.9093122 4.6875 9.1171875 C 4.8925062 9.4294323 4.9719583 9.5683205 5.0644531 9.7285156 C 4.9421937 9.5223076 4.8178848 9.3168821 4.6914062 9.1132812 C 4.3526562 8.5683285 4.3017547 8.4998159 4.2558594 8.4179688 C 4.2622934 8.2798341 4.2631679 8.1419248 4.2675781 8.0039062 C 4.3041207 8.0057557 4.3417773 8.0020657 4.3769531 8.0117188 C 4.6200523 8.0809219 4.9306145 8.2486597 5.1015625 8.4375 C 5.1793452 8.5233709 5.2135564 8.640934 5.2695312 8.7421875 C 5.307969 8.7998631 5.3904538 8.7448657 5.3515625 8.6875 C 5.2844759 8.5853772 5.2345985 8.4697539 5.1503906 8.3808594 C 4.9551402 8.1753287 4.6572918 8.0078084 4.4023438 7.8925781 C 4.36073 7.8737273 4.3167103 7.8621165 4.2734375 7.8476562 C 4.2862036 7.344431 4.2726583 6.8425904 4.2382812 6.3417969 C 4.645929 6.9559599 4.5703401 6.8146685 5.0605469 7.8808594 C 5.0904051 7.9496468 5.1889685 7.9048005 5.1582031 7.8359375 C 4.5991566 6.6125369 4.8172742 7.1500695 4.3984375 5.9746094 C 4.6262927 6.1408679 4.8262896 6.3375881 5.078125 6.75 C 5.1896589 6.9324378 5.2050147 7.1574793 5.2695312 7.3613281 C 5.5271816 7.864387 6.2401894 7.5009508 5.9824219 6.9980469 C 5.8205069 6.8006422 5.6493007 6.6106091 5.4960938 6.40625 C 5.1404198 5.9310955 5.1093369 5.8603885 5.0351562 5.7441406 C 6.1029283 6.2406338 5.0371373 5.8940998 5.7109375 6.0996094 C 6.3138099 6.286318 6.5793178 5.4326777 5.9765625 5.2460938 C 5.5569896 5.2332434 5.9878026 5.2724717 5.3222656 5.0292969 C 5.0966656 4.9464118 4.8513977 4.920281 4.6328125 4.8203125 C 4.4963642 4.7577221 4.374861 4.6680701 4.25 4.5839844 C 4.4370851 4.472085 4.420935 4.477051 4.7753906 4.2910156 C 4.9847387 4.2136865 4.8753637 3.9187646 4.6660156 3.9960938 C 4.3781319 4.0833832 4.3198776 4.1101214 4.2441406 4.1367188 C 4.3246578 4.0569351 4.4068455 3.9784335 4.4804688 3.8925781 C 4.8115932 3.5054751 5.2170251 2.9612382 5.4042969 2.4921875 C 5.5260733 2.1871418 5.5672532 1.8553343 5.6484375 1.5371094 C 5.6571304 1.5155661 5.6274556 1.5061784 5.6191406 1.5273438 C 5.4995186 1.8213154 5.40592 2.1282035 5.2597656 2.4101562 C 5.1243074 2.6720775 4.9541681 2.9149138 4.7792969 3.1523438 C 4.6091649 3.3829641 4.4055789 3.6002003 4.1894531 3.8007812 C 3.9395084 3.8730104 3.9142969 3.6059278 3.8867188 3.4082031 C 3.6474028 1.7013269 3.3964844 0 3.3964844 0 z M 5.0644531 9.7285156 C 5.1094178 9.8043549 5.1593924 9.877388 5.2011719 9.9550781 C 5.1719305 9.8992671 5.0986218 9.7876935 5.0644531 9.7285156 z M 5.2011719 9.9550781 C 5.2137417 9.9790694 5.2375975 10.030079 5.25 10.054688 C 5.2354501 10.025834 5.2242233 9.9953115 5.2089844 9.9667969 C 5.2067738 9.9626592 5.2033935 9.9592094 5.2011719 9.9550781 z M 5.25 10.054688 C 5.3708822 10.294408 5.473803 10.543038 5.5859375 10.787109 C 5.5859375 10.780692 5.5942774 10.77451 5.5976562 10.783203 C 5.4183417 10.408219 5.3402526 10.233759 5.25 10.054688 z M 5.3925781 20.810547 C 5.4639279 20.766513 5.5351289 20.729229 5.6074219 20.675781 C 5.7030676 20.60515 5.7882744 20.521352 5.875 20.439453 C 5.7094006 20.554527 5.5465704 20.685052 5.3925781 20.810547 z M 5.875 20.439453 C 5.9605651 20.379995 6.0393271 20.324732 6.1328125 20.257812 C 6.6628345 19.878405 6.3831065 20.029787 6.8320312 19.824219 C 6.9093604 19.762272 6.8226036 19.652897 6.7441406 19.714844 C 6.3194427 20.170991 6.807932 19.675725 6.1132812 20.230469 C 6.0307014 20.296376 5.9519944 20.366744 5.875 20.439453 z M 5.6914062 22.472656 C 5.6994352 22.459694 5.7046207 22.450755 5.7128906 22.4375 C 5.7128906 22.4375 5.7109375 22.4375 5.7109375 22.4375 C 5.7043207 22.449153 5.6979592 22.460964 5.6914062 22.472656 z M 5.34375 23.408203 C 5.4642631 23.319789 5.5855063 23.231721 5.7070312 23.144531 C 5.5799908 23.221688 5.4600984 23.311589 5.34375 23.408203 z M 4.15625 10.164062 C 4.5181835 10.38025 4.7855468 10.530963 5.140625 10.824219 C 5.3059793 10.960962 5.4671729 11.105491 5.6035156 11.271484 C 5.6484196 11.326041 5.6683156 11.395788 5.6933594 11.462891 C 5.6831106 11.4737 5.6695478 11.47098 5.6601562 11.484375 C 5.6688492 11.522813 5.7053271 11.560415 5.6894531 11.59375 C 5.4382279 12.083781 5.2719563 12.040176 4.7753906 12.357422 C 4.3794793 12.610253 4.3123714 12.678588 4.25 12.71875 C 4.2653254 12.700437 4.2818496 12.68306 4.2929688 12.662109 C 4.3608869 12.533908 4.4017623 12.394599 4.4589844 12.261719 C 4.534197 12.087407 4.6114559 11.912264 4.6875 11.738281 C 4.760974 11.581884 4.5402709 11.478785 4.4667969 11.634766 C 4.2814776 11.932975 4.2449899 11.975245 4.2011719 12.042969 C 4.1002386 12.057788 4.0830382 11.908931 4.0859375 11.740234 C 4.0948413 11.214962 4.122855 10.690013 4.15625 10.164062 z M 4.9921875 13.017578 C 4.9399738 13.048826 4.9348989 13.049498 4.8183594 13.126953 C 4.5949114 13.275438 4.3890159 13.418693 4.1464844 13.517578 C 4.138536 13.39254 4.1298487 13.267699 4.1230469 13.142578 C 4.172466 13.109073 4.2192495 13.072096 4.2675781 13.037109 C 4.3476916 13.029692 4.4291828 13.028971 4.5097656 13.025391 C 4.7216225 13.014782 4.8526536 13.018715 4.9921875 13.017578 z M 5.3320312 13.681641 C 5.2180913 13.697557 5.1161553 13.794014 5.1386719 13.955078 C 5.442886 14.366533 5.3890155 14.189713 5.2070312 15.003906 C 5.1379967 15.313006 5.0864278 15.513974 5.0390625 15.673828 C 5.1004386 15.452133 5.1608329 15.230166 5.2265625 15.009766 C 5.3380964 14.636348 5.4677028 14.260679 5.59375 13.890625 C 5.5713185 13.729542 5.4459712 13.665724 5.3320312 13.681641 z M 6.3164062 22.728516 C 5.9808768 22.94212 6.1316317 22.841499 5.7089844 23.144531 C 5.8421958 23.063743 5.9785583 22.988187 6.1289062 22.931641 C 6.1765759 22.913535 6.2285442 22.910448 6.2792969 22.904297 C 6.3760762 23.036067 6.5661734 22.903252 6.4707031 22.767578 C 6.4194149 22.754728 6.3681102 22.741253 6.3164062 22.728516 z "
       style="fill:#b3b3b3;fill-opacity:1;stroke:none;stroke-width:1.13047px;stroke-linecap:butt;stroke-linejoin:miter;stroke-opacity:1"
       id="path8605" />
  </g>
</svg>
