<?xml version="1.0" encoding="UTF-8" standalone="no"?>
<svg
   xmlns:dc="http://purl.org/dc/elements/1.1/"
   xmlns:cc="http://creativecommons.org/ns#"
   xmlns:rdf="http://www.w3.org/1999/02/22-rdf-syntax-ns#"
   xmlns:svg="http://www.w3.org/2000/svg"
   xmlns="http://www.w3.org/2000/svg"
   xmlns:sodipodi="http://sodipodi.sourceforge.net/DTD/sodipodi-0.dtd"
   xmlns:inkscape="http://www.inkscape.org/namespaces/inkscape"
   width="38.629696mm"
   height="8.4323397mm"
   viewBox="0 0 38.629696 8.4323397"
   version="1.1"
   id="svg4397"
   inkscape:version="1.0 (4035a4fb49, 2020-05-01)"
   sodipodi:docname="logogram_inventory_background - detail_2.svg"
   inkscape:export-filename="D:\Calcatz\Icon Pack\Adventure Narative Inspired by Arrival\GUI\Inventory\png\logogram_inventory_background - detail_2.png"
   inkscape:export-xdpi="96"
   inkscape:export-ydpi="96">
  <defs
     id="defs4391" />
  <sodipodi:namedview
     id="base"
     pagecolor="#ffffff"
     bordercolor="#666666"
     borderopacity="1.0"
     inkscape:pageopacity="0.0"
     inkscape:pageshadow="2"
     inkscape:zoom="2.5739327"
     inkscape:cx="37.977949"
     inkscape:cy="11.712421"
     inkscape:document-units="mm"
     inkscape:current-layer="layer1"
     inkscape:document-rotation="0"
     showgrid="false"
     fit-margin-top="0"
     fit-margin-left="0"
     fit-margin-right="0"
     fit-margin-bottom="0"
     inkscape:window-width="1366"
     inkscape:window-height="705"
     inkscape:window-x="-8"
     inkscape:window-y="-8"
     inkscape:window-maximized="1" />
  <metadata
     id="metadata4394">
    <rdf:RDF>
      <cc:Work
         rdf:about="">
        <dc:format>image/svg+xml</dc:format>
        <dc:type
           rdf:resource="http://purl.org/dc/dcmitype/StillImage" />
        <dc:title />
      </cc:Work>
    </rdf:RDF>
  </metadata>
  <g
     inkscape:label="Layer 1"
     inkscape:groupmode="layer"
     id="layer1"
     transform="translate(-86.518482,-143.95037)">
    <path
       d="m 118.17888,143.9505 c -0.1063,-4.4e-4 -0.2109,0.0986 -0.1585,0.23926 0.1601,0.51162 0.2712,1.04105 0.48,1.53479 0.187,0.44186 0.4604,0.84216 0.7009,1.25729 0.1622,0.28026 0.2511,0.43854 0.3429,0.60048 0.051,0.17808 -0.158,0.27385 -0.3839,0.3173 -0.01,-0.015 -0.012,-0.03 -0.024,-0.045 -0.5431,-0.52384 -0.6649,-0.63509 -0.7921,-0.76637 0.1926,0.26427 0.3347,0.5619 0.4926,0.84905 -0.2302,0.017 -0.4614,0.0444 -0.6932,0.078 -0.1214,-0.0741 -0.2421,-0.14995 -0.3638,-0.22376 -0.3275,-0.19889 -0.6546,-0.39966 -0.9792,-0.60358 -0.35,-0.21995 -0.6903,-0.4558 -1.0454,-0.66766 -0.2656,-0.15853 -0.5434,-0.29529 -0.8154,-0.44287 -0.05,-0.0267 -0.088,0.0446 -0.038,0.0713 0.2826,0.12663 0.5784,0.22716 0.848,0.37982 0.3595,0.20368 0.6908,0.45379 1.0329,0.68575 0.4199,0.28473 0.7977,0.53828 1.1711,0.82889 -1.092,0.17096 -2.1929,0.43421 -3.2594,0.23874 -0.2998,-0.055 -0.5819,-0.17139 -0.8568,-0.31212 0.052,-0.28512 0.154,-0.53785 0.3371,-0.81907 0.1056,-0.16256 0.2447,-0.30031 0.3673,-0.45062 0.024,-0.0284 -0.016,-0.062 -0.04,-0.0336 -0.1302,0.14946 -0.2712,0.28973 -0.3903,0.44803 -0.1609,0.21397 -0.2974,0.43482 -0.4143,0.66921 -0.03,-0.39981 0.01,-0.79263 0.1286,-1.19321 0.038,-0.12643 0.124,-0.23288 0.186,-0.34933 0.034,-0.10787 -0.1183,-0.15589 -0.1524,-0.0481 -0.014,0.13195 -0.016,0.26564 -0.042,0.39585 -0.08,0.4064 -0.207,0.80345 -0.2993,1.20767 -0.3667,-0.21097 -0.7268,-0.44431 -1.1044,-0.6134 -0.065,-0.0292 -0.1256,-0.0945 -0.1606,-0.1881 0.1731,-0.1538 0.3318,-0.32623 0.5255,-0.45268 0.8091,-0.52848 1.3721,-0.72634 2.2458,-1.1002 0.01,-0.004 2e-4,-0.0153 -0.01,-0.0119 -0.3683,0.15851 -0.743,0.30362 -1.1052,0.47542 -0.5686,0.26942 -1.1125,0.58911 -1.6838,0.85318 0,-0.0291 0.01,-0.0596 0.014,-0.0909 0,-0.004 0,-0.008 0.01,-0.0119 0.5022,-0.6786 1.2454,-1.2143 2.0005,-1.56683 0.3238,-0.15124 0.6871,-0.19701 1.0308,-0.29559 0.1469,-0.0443 0.084,-0.25151 -0.063,-0.20722 -0.8609,0.33745 -1.5369,0.55834 -2.3325,1.09141 -0.335,0.22433 -0.6255,0.51048 -0.9102,0.79581 -0.031,0.0313 -0.043,0.0437 -0.07,0.0713 0.043,-0.26757 0.1161,-0.56517 0.2447,-0.98133 0.1186,-0.38534 0.313,-0.7431 0.4694,-1.11466 0.1035,-0.27233 -0.282,-0.41861 -0.3855,-0.14625 -0.1376,0.38754 -0.2704,0.77621 -0.4119,1.16221 -0.2694,0.73457 -0.3731,0.97854 -0.4403,1.15393 0,-2.9e-4 0,-7.4e-4 0,-0.001 0,9e-5 0,-0.002 0,-0.002 0,3.7e-4 -2.9e-4,6.6e-4 -5e-4,0.001 -0.1154,-0.32698 -0.2009,-0.66375 -0.3091,-0.99322 -0.093,-0.28459 -0.1931,-0.56709 -0.2913,-0.85008 0.2196,0.69351 0.3106,0.9544 0.4826,1.87017 0.01,0.0381 0.014,0.0766 0.022,0.11473 -0.1394,0.13367 -0.3627,0.16717 -0.495,0.17414 -0.6361,0.0335 -1.269,0.1737 -1.9018,0.33745 0.1005,-0.1408 0.2585,-0.32838 0.658,-0.89297 0.012,-0.0169 -0.012,-0.0349 -0.024,-0.0181 -0.5739,0.66802 -0.7228,0.81718 -0.8371,0.96377 -0.3178,0.0844 -0.6358,0.16788 -0.9541,0.25063 -0.089,-0.43397 -0.1074,-0.64082 -0.1156,-1.2516 -0.021,0.37895 -0.043,0.78279 -0.073,1.30121 -0.2588,0.0651 -0.5178,0.12693 -0.7777,0.17621 0.083,-0.20282 0.1726,-0.39982 0.2683,-0.59169 -0.1558,0.25761 -0.3222,0.53303 -0.3675,0.60772 -0.145,0.0259 -0.2897,0.0518 -0.4352,0.0698 -0.9938,0.12281 -1.9918,0.25362 -2.9914,0.33279 0.444,-0.38935 0.6522,-0.58107 0.8107,-0.68988 -0.2067,0.10257 -0.3667,0.18009 -1.1023,0.53744 -5e-4,4.5e-4 -8e-4,0.001 0,0.002 0,0 7.9e-4,-0.002 6.1e-4,-0.002 -0.098,0.0491 -0.258,0.14759 -0.2485,-0.0191 0.1257,-0.27614 0.2614,-0.49437 0.5461,-0.7059 0.1596,-0.11837 0.3612,-0.16503 0.5416,-0.24753 0.077,-0.0434 0.016,-0.15248 -0.062,-0.10904 -0.1677,0.11052 -0.3426,0.21143 -0.5035,0.33176 -0.2122,0.15889 -0.4355,0.3419 -0.6252,0.54726 0.1971,-0.67809 0.3569,-0.78082 0.8284,-1.41232 0.13439,-0.19794 -0.14551,-0.38811 -0.28021,-0.19018 -0.172,0.26546 -0.3413,0.53232 -0.5156,0.79633 -0.1263,0.19125 -0.1993,0.29103 -0.2739,0.39377 0.013,-0.0632 0.019,-0.11199 0.039,-0.18965 0.059,-0.23087 0.2069,-0.42921 0.3101,-0.64389 0.097,-0.28495 -0.3064,-0.4219 -0.403,-0.13694 -0.07,0.24063 -0.1476,0.47893 -0.2088,0.72192 -0.057,0.22565 -0.096,0.36975 -0.1267,0.48938 -0.049,-0.0937 -0.091,-0.17719 -0.1968,-0.38551 0.066,0.36894 0.1037,0.55231 0.124,0.65113 -0.11,0.23552 -0.2762,0.33451 -0.4434,0.33279 -0.1259,-0.001 -0.2516,-0.004 -0.3778,-0.008 -0.2797,-0.009 -0.5588,-0.0404 -0.8372,-0.0796 0.011,-0.0139 0.023,-0.0277 0.034,-0.0419 0.1828,-0.23312 0.4598,-0.56531 0.6614,-0.76636 0.2929,-0.10315 0.5816,-0.21813 0.8724,-0.32711 0.021,-0.007 0.01,-0.0372 -0.01,-0.03 -0.3011,0.11901 -0.5627,0.22259 -0.83,0.32608 0.1474,-0.14291 0.3067,-0.27272 0.4602,-0.40928 0.078,-0.0639 -0.012,-0.17397 -0.09,-0.11007 -0.1876,0.1203 -0.3884,0.22156 -0.5622,0.3607 -0.1321,0.10548 -0.2429,0.23416 -0.3599,0.35657 -0.2505,0.0769 -0.500799,0.15566 -0.746599,0.24649 0.265601,-0.0763 0.506399,-0.15519 0.736799,-0.23616 -0.023,0.0243 -0.045,0.05 -0.07,0.0734 -0.065,0.0625 -0.1333,0.12139 -0.201,0.18087 -0.280199,0.19128 -0.642698,0.25013 -0.845099,0.20619 -0.031,-0.007 -0.062,-0.0153 -0.094,-0.0222 0.1293,-0.0617 0.259499,-0.12206 0.393099,-0.17363 0.026,-0.0102 0.053,-0.0187 0.08,-0.0284 -0.028,0.008 -0.052,0.0167 -0.081,0.0248 -0.184999,0.0519 -0.372,0.0972 -0.5602,0.13746 -0.627,-0.14405 -1.2528,-0.30609 -1.8782,-0.43512 0.066,-0.32658 0.113501,-0.5479 0.2127,-0.817 0.2029,-0.11318 0.4077,-0.2223 0.6152,-0.32608 0.079,-0.0393 0.158999,-0.075 0.238599,-0.11214 -0.081,0.0354 -0.1632,0.0686 -0.2439,0.1049 -0.1736,0.0781 -0.3744,0.16566 -0.585,0.25994 0.05,-0.12792 0.114,-0.27432 0.2005,-0.45786 0.145,-0.30794 0.3355,-0.59221 0.5033,-0.88831 0.029,-0.0521 -0.045,-0.0928 -0.074,-0.0408 -0.1632,0.30139 -0.3344,0.59882 -0.49,0.90434 -0.09,0.17729 -0.1749,0.35756 -0.2587,0.53795 -0.4152,0.18864 -0.8562,0.40582 -1.2285,0.66146 -0.4366,-0.0435 -0.8739,-0.0547 -1.3131,-0.005 -0.1744,0.0197 -0.3596,0.0508 -0.5493,0.0873 0.044,-0.0339 0.091,-0.0678 0.1519,-0.10542 0.218804,-0.13382 1.137704,-0.49245 1.311304,-0.56276 -0.2636,0.0723 -0.5332,0.12479 -0.7904,0.21653 -0.1987,0.0709 -0.3828,0.17721 -0.5725,0.26923 -0.1879,0.091 -0.2577,0.12526 -0.3231,0.15968 0.6922,-0.77837 1.0314,-1.01812 1.8947,-1.74304 0.052,-0.0405 -0.011,-0.11441 -0.057,-0.0739 -0.3585,0.2953 -0.699,0.61439 -1.0755,0.88625 -0.421,0.30405 -0.6697,0.47308 -0.847,0.58756 0.3281,-0.67432 0.4014,-0.91244 0.9576,-1.61127 0.085,-0.10676 0.2026,-0.18294 0.304,-0.2744 0.2865,-0.5165 -0.444,-0.92167 -0.7308,-0.40514 -0.016,0.12972 2e-4,0.26786 -0.049,0.38912 -0.3405,0.84283 -0.6763,1.12909 -1.1837,1.91358 -0.01,0.0122 -0.015,0.0254 -0.022,0.0377 0,-0.2656 0.069,-0.28612 0.3107,-1.53169 0.01,-0.038 -0.044,-0.052 -0.054,-0.014 -0.5294,1.47529 -0.4934,1.25411 -0.6114,1.77199 -0.045,-0.18108 -0.086,-0.36474 -0.1101,-0.55914 -0.03,-0.23423 -0.01,-0.47188 -0.012,-0.70797 -0.013,-0.13737 -0.2074,-0.11915 -0.1942,0.0181 0.037,0.23413 0.077,0.46771 0.1117,0.70229 0.033,0.22596 0.056,0.36353 0.074,0.47697 -0.016,0.42116 -0.5172,0.73006 -0.8144,0.83819 -0.042,0.0153 -0.084,0.033 -0.1262,0.0486 -0.034,-0.0135 -0.028,-0.011 -0.05,-0.0202 -0.01,-0.008 -0.018,-0.016 -0.028,-0.0238 -0.1527,-0.12838 -0.3088,-0.25247 -0.462,-0.38034 -0.1363,-0.11398 -0.6988,-0.59194 -0.8713,-0.73846 -0.066,-0.0518 -0.1394,0.0422 -0.073,0.094 0.1352,0.0916 0.2773,0.17383 0.4056,0.27492 0.2214,0.17442 0.4887,0.42024 0.7085,0.65422 -0.039,-0.011 -0.061,-0.015 -0.3815,-0.12557 -0.8916,-0.30888 -0.2299,-0.10436 -0.9364,-0.31471 -0.1084,-0.0257 -0.1449,0.12842 -0.036,0.154 0.1262,0.018 0.2555,0.0202 0.3786,0.0537 0.386,0.10509 0.6617,0.23144 0.9877,0.45475 0.016,0.0109 0.029,0.0249 0.044,0.0372 -2.465601,0.94435 -4.882601,2.24069 -4.882601,2.24069 l 11.5099,1.19063 18.917698,0.66145 8.2021,-1.71979 c 0,0 -2.2876,-1.65577 -4.0778,-2.37918 -0.1325,-0.0536 -0.2894,-0.17779 -0.3188,-0.45372 0,-0.0286 0,-0.0573 0,-0.0858 0.053,-0.47725 0.1455,-0.59127 0.3394,-0.97875 0.079,-0.19109 -0.191,-0.30273 -0.2701,-0.11162 -0.064,0.15428 -0.1556,0.30001 -0.1913,0.46302 -0.045,0.20484 -0.037,0.41791 -0.049,0.62735 0,0.0332 0,0.0665 0,0.0997 -0.036,-0.0969 -0.066,-0.18601 -0.08,-0.24753 -0.088,-0.37322 -0.1022,-0.75996 -0.1535,-1.13998 -0.053,-0.3909 -0.1061,-0.78168 -0.1593,-1.17254 -0.01,-0.10549 -0.1545,-0.0982 -0.1492,0.008 0.039,0.39804 0.086,0.79546 0.1167,1.19424 0.028,0.35726 0.029,0.71628 0.058,1.07332 -0.1436,-0.29362 -0.2807,-0.58853 -0.3519,-0.80047 -0.075,-0.2231 -0.097,-0.46062 -0.1458,-0.69091 -0.037,-0.12031 -0.2066,-0.0686 -0.1698,0.0517 0.073,0.22567 0.136,0.45436 0.2175,0.67696 0.1108,0.30299 0.2016,0.50977 0.2841,0.70951 -0.1881,-0.19782 -0.3717,-0.42323 -0.5678,-0.71623 -0.5688,-0.84931 -0.8085,-1.7648 -1.1369,-2.7187 -0.032,-0.0844 -0.096,-0.12066 -0.1598,-0.12092 z m -19.971797,2.32906 c 0.5403,-0.23616 1.0872,-0.45765 1.6304,-0.6873 -7.94e-4,0 0,-0.003 0,-0.003 -0.5422,0.23281 -1.0959,0.44092 -1.6304,0.6904 z m 3.557897,1.02629 c -0.01,-0.0525 -0.013,-0.0678 -0.024,-0.12919 0.01,0.0257 -0.026,0.0373 -0.036,0.0119 0.039,0.0784 0.028,0.0539 0.06,0.11731 z m 2.282,0.22221 c 0.1119,-0.0555 0.5514,-0.27588 0.7458,-0.37414 -0.4159,0.19224 -0.5886,0.26638 -0.7458,0.37414 z m 0.7458,-0.37414 c 0.2305,-0.10656 0.521,-0.24294 0.9592,-0.46095 0.012,-0.006 0,-0.0242 -0.01,-0.0176 -0.6329,0.31858 -0.7125,0.35888 -0.9491,0.47852 z m 2.2376,0.0537 c 0.076,-0.1264 0.047,-0.0805 0.1802,-0.29817 0.1328,-0.21655 0.2672,-0.43219 0.4011,-0.64802 2.9e-4,0.0198 8e-4,0.0416 0,0.0605 0,-0.0197 0,-0.0502 0,-0.0677 0.034,-0.0544 0.068,-0.10889 0.1014,-0.1633 -0.034,0.0451 -0.067,0.0904 -0.1,0.13591 0,-0.0892 0.021,-0.35459 0.021,-0.36329 0,-0.20636 0,-0.41277 -0.013,-0.61908 -0.01,0.20633 -0.019,0.41259 -0.019,0.61908 0,0.16602 0,0.24792 0.01,0.37207 -0.2212,0.31147 -0.413,0.63455 -0.5813,0.97204 z m 0.5953,-1.96319 c 0.01,-0.11332 0.011,-0.22668 0.015,-0.34002 2e-4,-0.0206 -0.029,-0.0212 -0.029,0 0,0.11332 0.01,0.22671 0.014,0.34002 z m 0.092,0.84647 c 0.045,-0.0602 0.085,-0.12193 0.1328,-0.18139 0.1399,-0.17521 0.3281,-0.30555 0.4921,-0.45837 0.09,-0.10649 -0.061,-0.23309 -0.1505,-0.12661 -0.158,0.25555 -0.316,0.51118 -0.4744,0.76637 z m 3.0609,-1.31724 c -0.043,-0.13627 -0.059,-0.18691 -0.1164,-0.37465 0,0.007 -0.011,0.0111 -0.011,0.003 0.042,0.12383 0.084,0.24789 0.1272,0.37155 z m 7.5658,2.31459 c -0.01,-0.007 -0.01,-0.0151 -0.015,-0.0222 -0.2903,-0.38927 -0.5866,-0.69221 -0.8999,-0.9865 0.6162,0.68167 0.7707,0.86018 0.9147,1.00872 z m -0.9147,-1.00872 c -0.01,-0.008 0,-0.004 -0.01,-0.0119 -0.1934,-0.214 -0.3881,-0.42736 -0.5824,-0.64079 -0.04,-0.0412 -0.098,0.0157 -0.058,0.0568 0.2294,0.20871 0.4432,0.40077 0.6506,0.59583 z m -4.4447,-1.47743 c -0.044,0.005 -0.09,0.0293 -0.1265,0.0785 -0.3527,0.50576 -0.1841,0.24304 -0.5043,0.78911 -0.082,0.24552 0.2654,0.36125 0.3471,0.11575 0.2289,-0.50411 0.083,-0.27268 0.4363,-0.6966 0.1106,-0.14779 -0.019,-0.302 -0.1526,-0.2868 z m -15.769497,2.19211 c -0.041,0.0885 -0.082,0.17699 -0.124,0.2651 -0.072,0.14122 -0.1442,0.28255 -0.2165,0.42375 -0.1878,-0.0351 -0.3757,-0.0654 -0.5638,-0.0904 0.038,-0.0345 0.078,-0.0676 0.122,-0.0992 0.2513,-0.17984 0.5141,-0.34479 0.7823,-0.49919 z m 0.8232,0.11059 c -0.2987,0.0498 -0.2281,0.47248 0.07,0.42271 0.1101,-0.0262 0.2204,-0.0528 0.3308,-0.0791 0.219,-0.0548 0.1415,-0.36434 -0.077,-0.30954 -0.108,-0.0111 -0.2162,-0.0229 -0.3241,-0.0341 z"
       style="fill:#000000;fill-opacity:0.38039216;stroke:none;stroke-width:0.264583px;stroke-linecap:butt;stroke-linejoin:miter;stroke-opacity:1"
       id="path5895" />
  </g>
</svg>
