<?xml version="1.0" encoding="UTF-8" standalone="no"?>
<svg
   xmlns:dc="http://purl.org/dc/elements/1.1/"
   xmlns:cc="http://creativecommons.org/ns#"
   xmlns:rdf="http://www.w3.org/1999/02/22-rdf-syntax-ns#"
   xmlns:svg="http://www.w3.org/2000/svg"
   xmlns="http://www.w3.org/2000/svg"
   xmlns:sodipodi="http://sodipodi.sourceforge.net/DTD/sodipodi-0.dtd"
   xmlns:inkscape="http://www.inkscape.org/namespaces/inkscape"
   width="7.4728909mm"
   height="28.045879mm"
   viewBox="0 0 7.4728909 28.045879"
   version="1.1"
   id="svg4981"
   inkscape:version="1.0 (4035a4fb49, 2020-05-01)"
   sodipodi:docname="logogram_inventory_background - detail_3.svg"
   inkscape:export-filename="D:\Calcatz\Icon Pack\Adventure Narative Inspired by Arrival\GUI\Inventory\png\logogram_inventory_background - detail_3.png"
   inkscape:export-xdpi="96"
   inkscape:export-ydpi="96">
  <defs
     id="defs4975" />
  <sodipodi:namedview
     id="base"
     pagecolor="#ffffff"
     bordercolor="#666666"
     borderopacity="1.0"
     inkscape:pageopacity="0.0"
     inkscape:pageshadow="2"
     inkscape:zoom="3.6400906"
     inkscape:cx="6.4851032"
     inkscape:cy="45.488642"
     inkscape:document-units="mm"
     inkscape:current-layer="layer1"
     inkscape:document-rotation="0"
     showgrid="false"
     fit-margin-top="0"
     fit-margin-left="0"
     fit-margin-right="0"
     fit-margin-bottom="0"
     inkscape:window-width="1366"
     inkscape:window-height="705"
     inkscape:window-x="-8"
     inkscape:window-y="-8"
     inkscape:window-maximized="1" />
  <metadata
     id="metadata4978">
    <rdf:RDF>
      <cc:Work
         rdf:about="">
        <dc:format>image/svg+xml</dc:format>
        <dc:type
           rdf:resource="http://purl.org/dc/dcmitype/StillImage" />
        <dc:title />
      </cc:Work>
    </rdf:RDF>
  </metadata>
  <g
     inkscape:label="Layer 1"
     inkscape:groupmode="layer"
     id="layer1"
     transform="translate(-102.09689,-134.14373)">
    <path
       d="m 104.21299,134.14378 -2.1161,2.38125 0.2646,15.34583 1.7198,10.31875 c 0,0 1.2189,-2.63055 2.0042,-4.84932 0.084,0.11492 0.1815,0.25952 0.309,0.45682 0,0.0205 0,0.041 0,0.0615 0.01,0.0827 0.064,0.12206 0.123,0.12713 0.1088,0.17891 0.2114,0.36166 0.3178,0.54208 0.052,0.0821 0.168,0.008 0.1156,-0.0744 -0.1064,-0.17 -0.217,-0.33751 -0.3207,-0.50901 0.025,-0.0267 0.04,-0.0648 0.034,-0.11472 -0.028,-0.16759 -0.061,-0.33451 -0.084,-0.50281 -0.053,-0.38338 -0.084,-0.76833 -0.1069,-1.15394 0.047,-0.16226 0.089,-0.3185 0.1249,-0.4656 0.048,-0.20128 0.093,-0.404 0.1323,-0.60772 0.059,-0.30336 0.1746,-0.51216 0.2754,-0.23306 0.03,0.17329 0.055,0.34824 0.084,0.52142 0.217,1.28432 0.1612,0.92956 0.1471,2.24895 0.028,0.33272 0.057,0.66517 0.086,0.99788 0.01,0.40262 0.5749,0.39507 0.5694,-0.008 -0.046,-0.3397 -0.093,-0.67937 -0.1395,-1.01906 0.01,-0.3981 0.067,-0.79775 0.031,-1.19425 -0.035,-0.37976 -0.1804,-0.74189 -0.245,-1.11776 -0.062,-0.36084 -0.051,-0.73387 -0.1344,-1.09037 -0.036,-0.15274 -0.095,-0.29789 -0.1566,-0.44287 0.031,0.0404 0.054,0.068 0.086,0.11111 0.1995,0.26675 0.3755,0.55063 0.5829,0.81132 0.2252,0.28316 0.4755,0.54585 0.7131,0.81855 0.1175,0.13208 0.304,-0.0343 0.1865,-0.1664 -0.7009,-0.85254 -0.6302,-0.73097 -1.248,-1.62264 -0.053,-0.0766 -0.1067,-0.15305 -0.1601,-0.22944 0.055,0.0368 0.1103,0.0728 0.1643,0.11111 0.5847,0.41622 0.4543,0.31304 0.8485,0.68057 0.1839,0.10327 0.3302,-0.15718 0.1463,-0.26045 -0.405,-0.22529 -0.4011,-0.213 -0.8863,-0.5581 -0.083,-0.0591 -0.1662,-0.11868 -0.2485,-0.1788 -2e-4,-5.3e-4 0.01,0.002 0.01,0.001 -0.4746,-0.39847 -0.4439,-0.9294 -0.4439,-1.27744 0,-0.18088 -0.012,-0.36094 -0.025,-0.54106 0.4583,0.41969 0.8171,0.67836 1.4267,1.15342 0.029,0.0227 0.061,-0.0177 0.032,-0.0403 -0.2969,-0.23078 -0.6189,-0.43295 -0.8959,-0.68626 -2.9e-4,-0.003 0,-0.005 0,-0.009 -0.077,-0.17512 -0.1545,-0.35038 -0.2315,-0.52555 0.057,0.15777 0.1095,0.31691 0.1659,0.47491 -0.01,-0.007 -0.015,-0.0126 -0.022,-0.0196 -0.2215,-0.2209 -0.3712,-0.41711 -0.4988,-0.6196 -0.021,-0.22619 -0.048,-0.45212 -0.08,-0.67748 0.074,0.11385 0.1476,0.22797 0.2145,0.34571 -0.074,-0.16169 -0.1529,-0.3329 -0.2413,-0.5302 -0.049,-0.32206 -0.1055,-0.64349 -0.1653,-0.9648 0,0.004 0,0.004 0,0.008 0.2381,0.4951 0.2455,0.57545 0.4376,1.1343 0.01,0.0241 0.041,0.0132 0.034,-0.0108 -0.3956,-1.52652 0.034,0.0675 -0.3421,-1.17667 -0.04,-0.13171 -0.059,-0.26968 -0.1053,-0.39946 -0.043,-0.12334 -0.1085,-0.23313 -0.1757,-0.3421 -0.088,-0.47196 -0.1731,-0.94432 -0.2337,-1.41852 -0.028,-0.21802 0.022,-0.43346 0.1768,-0.22427 0.01,0.009 0.01,0.0114 0.012,0.0103 0.2315,0.45197 0.4953,0.88681 0.7173,1.34359 0.1238,0.25501 0.2556,0.5097 0.3368,0.78134 0.045,0.15074 0.025,0.31342 0.037,0.47026 0.064,0.17201 0.3072,0.0821 0.2434,-0.0899 -0.4302,-0.6694 -0.1531,-0.17653 -0.5492,-1.19062 -0.348,-0.89088 -0.3421,-0.79009 -0.4033,-1.04025 0.1085,0.12432 0.2342,0.23291 0.3509,0.34934 0.1992,0.23138 0.5262,-0.0503 0.3273,-0.28164 -0.1016,-0.12385 -0.199,-0.25159 -0.3051,-0.37155 -0.062,-0.0708 -0.1307,-0.13665 -0.1979,-0.20361 0.058,0.0224 0.1164,0.0437 0.1733,0.0682 0.204,0.088 0.4067,0.17813 0.6101,0.26717 0.1159,0.0504 0.1874,-0.11344 0.072,-0.16382 -0.1974,-0.0889 -0.4017,-0.16383 -0.5922,-0.26665 -0.3622,-0.19544 -0.5297,-0.30675 -0.74,-0.49092 -0.079,-0.10976 -0.1394,-0.2238 -0.1855,-0.33848 0.093,0.0935 0.1193,0.1245 -0.01,-0.0155 -0.1288,-0.32947 -0.1413,-0.6594 -0.1172,-0.88367 0.046,-0.43552 0.1143,-0.87081 0.1818,-1.30586 0.028,0.08 0.075,0.20937 0.1669,0.44906 0.2056,0.53429 0.2522,0.63765 0.2765,0.6904 -0.081,-0.21809 -0.154,-0.44067 -0.2201,-0.70642 -0.051,-0.20672 -0.074,-0.41989 -0.1064,-0.63045 -0.016,-0.10577 -0.028,-0.21209 -0.041,-0.31832 0.047,-0.32851 0.091,-0.65673 0.1159,-0.98444 0.021,-0.27774 0.1008,-0.48603 0.25,-0.28784 0.01,0.0112 0,0.005 0.01,0.0171 0.8226,1.73908 0.4522,0.77362 1.0165,2.56935 0.014,0.0454 0.078,0.0257 0.064,-0.0196 -0.1024,-0.44386 -0.19,-0.89157 -0.3075,-1.3317 -0.1278,-0.47904 -0.2675,-0.95433 -0.4334,-1.41955 0.3117,0.35254 0.6308,0.68432 1.0824,0.98805 0.2231,0.14986 0.4938,0.21185 0.7406,0.31781 0.4763,0.12039 0.6467,-0.55295 0.1707,-0.67334 -0.2067,-0.009 -0.4318,0.0571 -0.6202,-0.0279 -0.5787,-0.26114 -1.2311,-0.95586 -1.6515,-1.49707 0.2979,0.21814 0.4987,0.34362 0.9771,0.43977 0.4503,0.0905 0.9112,0.11714 1.3668,0.1757 0.3209,0.0531 0.3958,-0.40065 0.075,-0.45372 -0.3932,-0.11102 -0.789,-0.21344 -1.1798,-0.33279 -0.1979,-0.0605 -0.4032,-0.10856 -0.5858,-0.20619 -0.1931,-0.10318 -0.368,-0.24416 -0.5344,-0.39946 0.056,0.0128 0.1119,0.0259 0.169,0.0315 0.2831,0.0281 0.7718,-0.0356 1.0499,-0.0636 0.6511,-0.004 0.3574,0.007 0.8803,-0.0222 0.1262,-0.009 0.1132,-0.18806 -0.013,-0.1788 -0.521,0.06 -0.2294,0.0295 -0.8744,0.0884 -0.172,-0.003 -0.3437,-0.008 -0.5157,-0.0103 -0.1625,-0.003 -0.3263,0.0167 -0.4879,0 -0.1712,-0.0186 -0.3321,-0.0655 -0.4879,-0.12765 -0.3852,-0.42086 -0.7612,-1.21468 -0.9332,-1.68517 -0.7075,-1.93445 -1.6362,-3.82819 -1.6362,-3.82819 z m 2.6625,10.57713 c 0.013,0.0351 0.028,0.0741 0.041,0.10904 0,-0.0123 -0.034,-0.0924 -0.041,-0.10904 z m 0.041,0.10904 c 0.017,0.0438 0.027,0.0798 0.2228,0.67541 0.01,0.0298 0.052,0.0154 0.042,-0.0145 -0.098,-0.24372 -0.1839,-0.451 -0.2646,-0.66095 z m 0.1603,6.02857 c 0.024,0.0518 0.057,0.12518 0.076,0.16846 0.049,0.1089 0.096,0.21845 0.1442,0.32763 -0.041,-0.11259 -0.083,-0.22418 -0.1344,-0.33228 -0.026,-0.0558 -0.056,-0.11021 -0.086,-0.16381 z m -0.137,-8.50904 c -0.1408,-0.0164 -0.294,0.0998 -0.2455,0.29404 v 0 c 0.2391,0.55092 0.1143,0.223 0.309,0.86351 0.051,0.16623 0.1214,0.32751 0.154,0.49816 0.048,0.25133 0.024,0.37742 0,0.59996 0.01,0.28213 0.4069,0.2708 0.399,-0.0114 -0.1061,-0.38058 -0.054,-0.16215 -0.1416,-0.65732 -0.043,-0.16525 -0.1143,-0.3222 -0.1595,-0.48679 -0.1405,-0.50904 -0.1109,-0.43176 -0.1196,-0.91622 -0.029,-0.11655 -0.1095,-0.17415 -0.1942,-0.18397 z m -0.5747,4.23436 c 0,0.006 0.01,0.0114 0.013,0.017 0,0.003 0,0.005 0,0.008 0,-0.009 0,-0.016 -0.01,-0.0253 z m 0.9856,1.17358 c -0.1125,-0.0151 -0.2244,0.113 -0.1339,0.23874 0.1482,0.1433 0.2111,0.19351 0.3405,0.38086 0.076,0.11051 0.1389,0.22972 0.2083,0.34468 0.07,0.10147 0.2132,0.003 0.1436,-0.0987 -0.073,-0.11059 -0.1526,-0.21668 -0.218,-0.33176 -0.052,-0.0917 -0.089,-0.19116 -0.1333,-0.28681 -0.034,-0.0596 -0.068,-0.11925 -0.1024,-0.1788 -0.03,-0.0422 -0.067,-0.0632 -0.1048,-0.0682 z m 0.3953,7.05228 c -0.093,0.01 -0.1744,0.10532 -0.1159,0.22272 h -8e-4 c 0.029,0.0436 0.058,0.0871 0.087,0.13074 0.086,0.17145 0.3281,0.0505 0.2424,-0.12092 -0.021,-0.0474 -0.042,-0.0952 -0.063,-0.14262 -0.035,-0.0705 -0.094,-0.0957 -0.1497,-0.0899 z m -1.4232,1.84226 c 0,0.0123 0.01,0.0243 0.01,0.0367 0.045,0.21601 0.067,0.43688 0.078,0.65733 0,0.0715 2.9e-4,0.14296 0,0.21445 -0.1151,-0.21211 -0.1807,-0.35305 -0.2288,-0.48937 0.048,-0.13923 0.1016,-0.28512 0.1447,-0.4191 z"
       style="fill:#000000;fill-opacity:0.38039216;stroke:none;stroke-width:0.264583px;stroke-linecap:butt;stroke-linejoin:miter;stroke-opacity:1"
       id="path5719" />
  </g>
</svg>
