<?xml version="1.0" encoding="UTF-8" standalone="no"?>
<svg
   xmlns:dc="http://purl.org/dc/elements/1.1/"
   xmlns:cc="http://creativecommons.org/ns#"
   xmlns:rdf="http://www.w3.org/1999/02/22-rdf-syntax-ns#"
   xmlns:svg="http://www.w3.org/2000/svg"
   xmlns="http://www.w3.org/2000/svg"
   xmlns:sodipodi="http://sodipodi.sourceforge.net/DTD/sodipodi-0.dtd"
   xmlns:inkscape="http://www.inkscape.org/namespaces/inkscape"
   width="5.5246162mm"
   height="15.74271mm"
   viewBox="0 0 5.5246162 15.74271"
   version="1.1"
   id="svg6161"
   inkscape:version="1.0 (4035a4fb49, 2020-05-01)"
   sodipodi:docname="logogram_inventory_background - detail_5.svg"
   inkscape:export-filename="D:\Calcatz\Icon Pack\Adventure Narative Inspired by Arrival\GUI\Inventory\png\logogram_inventory_background - detail_5.png"
   inkscape:export-xdpi="96"
   inkscape:export-ydpi="96">
  <defs
     id="defs6155" />
  <sodipodi:namedview
     id="base"
     pagecolor="#ffffff"
     bordercolor="#666666"
     borderopacity="1.0"
     inkscape:pageopacity="0.0"
     inkscape:pageshadow="2"
     inkscape:zoom="3.6400906"
     inkscape:cx="5.9414758"
     inkscape:cy="54.561986"
     inkscape:document-units="mm"
     inkscape:current-layer="layer1"
     inkscape:document-rotation="0"
     showgrid="false"
     fit-margin-top="0"
     fit-margin-left="0"
     fit-margin-right="0"
     fit-margin-bottom="0"
     inkscape:window-width="1366"
     inkscape:window-height="705"
     inkscape:window-x="-8"
     inkscape:window-y="-8"
     inkscape:window-maximized="1" />
  <metadata
     id="metadata6158">
    <rdf:RDF>
      <cc:Work
         rdf:about="">
        <dc:format>image/svg+xml</dc:format>
        <dc:type
           rdf:resource="http://purl.org/dc/dcmitype/StillImage" />
        <dc:title />
      </cc:Work>
    </rdf:RDF>
  </metadata>
  <g
     inkscape:label="Layer 1"
     inkscape:groupmode="layer"
     id="layer1"
     transform="translate(-103.07102,-140.29531)">
    <path
       d="m 104.26272,140.29531 -1.1917,7.14375 1.3229,8.59896 c 0,0 0.6763,-1.49697 1.1547,-2.94659 0.083,0.23895 0.16,0.50286 0.2222,0.70487 0.019,0.0632 0.108,0.0363 0.089,-0.0269 -0.048,-0.18309 -0.1,-0.36541 -0.1452,-0.54932 -0.01,-0.0345 -0.01,-0.03 -0.014,-0.0589 -0.035,-0.22231 -0.019,-0.4847 0.018,-0.61082 0.033,-0.11135 0.064,-0.22106 0.092,-0.32866 0.029,-0.10814 0.1857,-0.24251 0.3577,-0.23926 0.047,0.0147 0.1,0.0341 0.1736,0.0651 0.1548,0.0651 0.2979,0.15479 0.4479,0.22996 0.7332,0.36705 0.3546,0.11956 0.9851,0.6165 0.083,0.0517 0.1566,-0.0655 0.073,-0.11731 -0.6025,-0.35647 -0.3932,-0.22598 -0.9973,-0.61081 -0.082,-0.0525 -0.2841,-0.18521 -0.4715,-0.30076 0.093,-0.0104 0.1384,-0.0189 0.2845,-0.0331 0.2323,-0.0227 0.4659,-0.0317 0.6985,-0.0506 0.1444,-0.0116 0.2889,-0.0275 0.4331,-0.0413 0.1789,-0.018 0.1532,-0.27115 -0.025,-0.25321 -0.4514,0.0979 -0.6077,0.14922 -1.1213,0.16174 -0.1368,0.004 -0.2733,-0.006 -0.4098,-0.017 0.066,-0.0252 0.1219,-0.0484 0.2066,-0.077 0.2746,-0.0927 0.5681,-0.11632 0.8517,-0.17466 0.4188,-0.12475 0.2426,-0.71696 -0.1762,-0.59221 -0.2117,0.0557 -0.4239,0.11108 -0.6356,0.16691 -5.1e-4,-3e-5 0,-0.002 6e-4,-0.002 -0.071,0.0108 -0.1297,0.005 -0.1821,-0.008 0.1019,-0.11905 0.2318,-0.24873 0.5004,-0.50591 0.1929,-0.18465 0.4082,-0.34422 0.6122,-0.51625 0.018,-0.0156 3e-4,-0.0414 -0.022,-0.0258 -0.2061,0.17052 -0.4082,0.34644 -0.6191,0.51159 -0.4061,0.31866 -0.5392,0.40936 -0.6178,0.46199 -0.1048,-0.0945 -0.1461,-0.24642 -0.1609,-0.37 -0.06,-0.50058 -0.2254,-0.86444 -0.3085,-1.31103 -0.025,-0.13429 0.01,-0.44312 0.2061,-0.63355 0,0 6.1e-4,-5.1e-4 6.1e-4,-5.1e-4 0.4762,-0.36384 1.3245,-0.81721 1.8113,-1.09399 v -0.007 c -0.3786,0.15224 -0.7639,0.28891 -1.1359,0.45682 -0.1526,0.0688 -0.3653,0.1802 -0.5818,0.29662 0.2749,-0.29677 0.5287,-0.47734 0.9684,-0.8599 0.014,-0.0109 0,-0.0303 -0.015,-0.0196 -0.3125,0.23554 -0.6218,0.47623 -0.9379,0.70694 -0.032,0.0231 -0.065,0.0437 -0.098,0.0656 -0.1386,0.0143 -0.1632,-0.25292 -0.1487,-0.31988 0.065,-0.29691 0.1646,-0.73945 0.2599,-1.18132 0.049,-0.062 0.099,-0.12093 0.1505,-0.17208 0.2053,-0.20365 0.4538,-0.35887 0.6805,-0.53847 0.011,-0.01 0,-0.0248 -0.013,-0.0155 -0.2347,0.17269 -0.475,0.33811 -0.70441,0.5178 -0.035,0.0276 -0.052,0.0441 -0.083,0.0693 0.1228,-0.57619 0.24,-1.17469 0.2974,-1.65003 0.014,-0.12097 0.076,-0.19265 0.1839,-0.23927 0.1288,0.15492 0.2225,0.27688 0.4013,0.57568 0.1098,0.18334 0.2006,0.37735 0.3062,0.56327 0.3532,0.62361 0.246,0.27292 0.3519,0.81701 0.062,0.13767 0.2571,0.0492 0.1947,-0.0884 -0.1688,-0.26677 -0.3127,-0.48649 -0.4662,-0.77359 -0.1013,-0.18954 -0.182,-0.38995 -0.2847,-0.57877 -0.09,-0.16511 -0.2103,-0.31293 -0.2918,-0.48214 -0.013,-0.0261 -0.02,-0.0544 -0.03,-0.0816 0.05,-0.008 0.1011,-0.0154 0.1635,-0.0196 0.077,0.0182 0.154,0.0363 0.231,0.0563 0.018,0.0133 0.038,0.0242 0.055,0.0388 0.3363,0.28908 0.4442,0.4685 0.698,0.80873 0.063,0.0754 0.1698,-0.0145 0.1066,-0.0899 -0.1162,-0.11363 -0.2402,-0.21938 -0.3479,-0.34106 -0.099,-0.11129 -0.1889,-0.22968 -0.2786,-0.34882 0.01,0.003 0.02,0.006 0.03,0.009 0.2863,0.0954 0.5564,0.23412 0.8345,0.35141 0.3514,0.15081 0.5641,-0.34577 0.213,-0.49662 -1.7166,-0.612 0,0.0485 -1.8717,-0.85111 -0.027,-0.0129 -0.055,-0.0225 -0.084,-0.0315 0.449,-0.035 0.3911,-0.0209 1.169,0.0279 0.2908,-0.008 0.2802,-0.41893 -0.011,-0.41134 -0.2434,0.0498 -0.4823,0.13196 -0.7302,0.14934 -0.088,0.006 -0.1762,0.009 -0.2646,0.01 -0.3683,-0.0786 -0.59,-0.42382 -0.7104,-0.66714 -0.62392,-1.26012 -1.65022,-2.42159 -1.65022,-2.42159 z m 3.8682,3.56413 c -0.208,0 -0.208,0.29352 0,0.29352 l -5.1e-4,0.002 c 0.091,0 0.1812,-10e-5 0.2717,-0.003 0.1765,0.009 0.1889,-0.24027 0.013,-0.24908 -0.095,-0.0143 -0.1895,-0.0286 -0.2842,-0.0429 z m -1.9484,8.29871 c -0.1675,-0.0284 -0.3405,0.15751 -0.2114,0.3514 0.5091,0.44347 0.2516,0.21018 0.7721,0.70074 0.098,0.11023 0.254,-0.0287 0.1555,-0.13901 -0.4596,-0.51564 -0.2788,-0.24279 -0.5622,-0.80564 -0.043,-0.0646 -0.098,-0.098 -0.154,-0.10749 z"
       style="fill:#000000;fill-opacity:0.38039216;stroke:none;stroke-width:0.264583px;stroke-linecap:butt;stroke-linejoin:miter;stroke-opacity:1"
       id="path5580-7" />
  </g>
</svg>
