<?xml version="1.0" encoding="UTF-8" standalone="no"?>
<svg
   xmlns:dc="http://purl.org/dc/elements/1.1/"
   xmlns:cc="http://creativecommons.org/ns#"
   xmlns:rdf="http://www.w3.org/1999/02/22-rdf-syntax-ns#"
   xmlns:svg="http://www.w3.org/2000/svg"
   xmlns="http://www.w3.org/2000/svg"
   xmlns:sodipodi="http://sodipodi.sourceforge.net/DTD/sodipodi-0.dtd"
   xmlns:inkscape="http://www.inkscape.org/namespaces/inkscape"
   inkscape:export-ydpi="96"
   inkscape:export-xdpi="96"
   inkscape:export-filename="D:\Calcatz\Icon Pack\Adventure Narative Inspired by Arrival\GUI\Inventory\png\logogram_item - background_detail_1.png"
   sodipodi:docname="logogram_item - background_detail_1.svg"
   inkscape:version="1.0 (4035a4fb49, 2020-05-01)"
   id="svg6744"
   version="1.1"
   viewBox="0 0 6.6898575 2.6703184"
   height="2.6703184mm"
   width="6.6898575mm">
  <defs
     id="defs6738" />
  <sodipodi:namedview
     inkscape:window-maximized="1"
     inkscape:window-y="-8"
     inkscape:window-x="-8"
     inkscape:window-height="705"
     inkscape:window-width="1366"
     fit-margin-bottom="0"
     fit-margin-right="0"
     fit-margin-left="0"
     fit-margin-top="0"
     showgrid="false"
     inkscape:document-rotation="0"
     inkscape:current-layer="layer1"
     inkscape:document-units="mm"
     inkscape:cy="-2.1698638"
     inkscape:cx="24.498537"
     inkscape:zoom="5.3691756"
     inkscape:pageshadow="2"
     inkscape:pageopacity="0.0"
     borderopacity="1.0"
     bordercolor="#666666"
     pagecolor="#ffffff"
     id="base" />
  <metadata
     id="metadata6741">
    <rdf:RDF>
      <cc:Work
         rdf:about="">
        <dc:format>image/svg+xml</dc:format>
        <dc:type
           rdf:resource="http://purl.org/dc/dcmitype/StillImage" />
        <dc:title></dc:title>
      </cc:Work>
    </rdf:RDF>
  </metadata>
  <g
     transform="translate(-159.86448,-192.62384)"
     id="layer1"
     inkscape:groupmode="layer"
     inkscape:label="Layer 1">
    <path
       id="path6012"
       style="fill:#1f2123;fill-opacity:0.662745;stroke:none;stroke-width:0.264583px;stroke-linecap:butt;stroke-linejoin:miter;stroke-opacity:1"
       d="m 161.80314,192.62455 c -0.067,-0.006 -0.1378,0.0257 -0.1788,0.11111 -0.039,0.0802 -0.078,0.16062 -0.118,0.24081 -0.1445,0.35875 -0.1802,0.48406 -0.3845,0.82682 -0.105,0.141 -0.2381,0.27085 -0.3834,0.36381 -0.2201,0.14097 -0.5675,0.15056 -0.708,0.33072 -0.1942,0.24962 -0.1643,0.79634 -0.1643,0.79634 l 6.6882,-0.0935 c 0,0 -0.8337,-0.61664 -1.6802,-1.03611 -0.114,-0.0566 -0.2868,-0.1675 -0.3524,-0.4253 -0.01,-0.043 -0.01,-0.0873 -0.028,-0.262 -0.028,-0.25559 -0.39,-0.21578 -0.3619,0.0398 0.012,0.12232 0.014,0.13455 0.019,0.18345 -0.091,-0.0862 -0.109,-0.12387 -0.3421,-0.4501 -0.087,-0.12168 -0.1709,-0.24525 -0.2564,-0.36794 -0.055,-0.0778 -0.1654,-7e-5 -0.1101,0.078 0.078,0.12872 0.153,0.25921 0.2342,0.38603 0.1368,0.2141 0.137,0.20821 0.1714,0.25683 -0.1045,-0.0857 -0.2212,-0.15653 -0.3275,-0.2403 -0.095,-0.0748 -0.1842,-0.15703 -0.276,-0.23564 -0.044,-0.032 -0.09,0.0309 -0.045,0.0631 0.095,0.0698 0.1993,0.12939 0.2863,0.20928 0.088,0.0807 0.1649,0.17272 0.244,0.26252 0.046,0.0794 -0.093,0.12932 -0.1934,0.14935 -0.2869,0.0572 -0.5702,0.21114 -0.8639,0.22014 -0.073,0.002 -0.1461,-0.007 -0.2191,-0.0196 0.036,-0.0289 0.057,-0.0463 0.154,-0.12403 0.093,-0.0748 0.1804,-0.15684 0.282,-0.21962 0.055,-0.0338 0.1212,-0.0449 0.1815,-0.0672 0.084,-0.0468 0.018,-0.16509 -0.066,-0.11834 -0.172,0.13094 -0.2561,0.19837 -0.4575,0.32815 -0.089,0.0573 -0.1812,0.10837 -0.2722,0.16175 -0.1103,-0.0296 -0.2204,-0.0647 -0.3297,-0.0956 -0.1,-0.0282 -0.1736,-0.0993 -0.06,-0.19689 0.1899,-0.0966 0.4079,-0.14472 0.6072,-0.20051 0.1346,-0.0379 0.081,-0.22857 -0.054,-0.19068 -0.1376,0.049 -0.2741,0.10155 -0.4131,0.14727 -0.1219,0.0402 -0.2561,0.0498 -0.3693,0.11059 0,7.1e-4 0,0.002 0,0.003 0.177,-0.17093 0.3643,-0.33405 0.5162,-0.47232 0.032,-0.0277 -0.01,-0.0728 -0.039,-0.045 -0.1632,0.1539 -0.3238,0.31107 -0.49,0.46199 -0.075,0.0687 -0.092,0.0815 -0.145,0.12919 0.02,-0.0519 0.038,-0.10421 0.062,-0.154 0.062,-0.12607 0.1526,-0.23603 0.2288,-0.35398 0.053,-0.075 0.1069,-0.14987 0.1604,-0.2248 0.069,-0.14231 -0.032,-0.25626 -0.1432,-0.26613 z" />
  </g>
</svg>
