<?xml version="1.0" encoding="UTF-8" standalone="no"?>
<svg
   xmlns:dc="http://purl.org/dc/elements/1.1/"
   xmlns:cc="http://creativecommons.org/ns#"
   xmlns:rdf="http://www.w3.org/1999/02/22-rdf-syntax-ns#"
   xmlns:svg="http://www.w3.org/2000/svg"
   xmlns="http://www.w3.org/2000/svg"
   xmlns:sodipodi="http://sodipodi.sourceforge.net/DTD/sodipodi-0.dtd"
   xmlns:inkscape="http://www.inkscape.org/namespaces/inkscape"
   inkscape:export-ydpi="96"
   inkscape:export-xdpi="96"
   inkscape:export-filename="D:\Calcatz\Icon Pack\Adventure Narative Inspired by Arrival\GUI\Inventory\png\logogram_item_hover - background_detail_3.png"
   sodipodi:docname="logogram_item_hover - background_detail_3.svg"
   inkscape:version="1.0 (4035a4fb49, 2020-05-01)"
   id="svg5567"
   version="1.1"
   viewBox="0 0 6.0620999 2.4830709"
   height="2.4830709mm"
   width="6.0620999mm">
  <defs
     id="defs5561" />
  <sodipodi:namedview
     inkscape:window-maximized="1"
     inkscape:window-y="-8"
     inkscape:window-x="-8"
     inkscape:window-height="705"
     inkscape:window-width="1366"
     fit-margin-bottom="0"
     fit-margin-right="0"
     fit-margin-left="0"
     fit-margin-top="0"
     showgrid="false"
     inkscape:document-rotation="0"
     inkscape:current-layer="layer1"
     inkscape:document-units="mm"
     inkscape:cy="8.2574188"
     inkscape:cx="27.736116"
     inkscape:zoom="7.593161"
     inkscape:pageshadow="2"
     inkscape:pageopacity="0.0"
     borderopacity="1.0"
     bordercolor="#666666"
     pagecolor="#ffffff"
     id="base" />
  <metadata
     id="metadata5564">
    <rdf:RDF>
      <cc:Work
         rdf:about="">
        <dc:format>image/svg+xml</dc:format>
        <dc:type
           rdf:resource="http://purl.org/dc/dcmitype/StillImage" />
        <dc:title></dc:title>
      </cc:Work>
    </rdf:RDF>
  </metadata>
  <g
     transform="translate(-57.679698,-149.35186)"
     id="layer1"
     inkscape:groupmode="layer"
     inkscape:label="Layer 1">
    <path
       d="m 63.741798,149.3527 -6.0621,0.0811 c 0,0 0.7591,0.73845 1.5044,1.09193 0.041,0.0192 0.089,0.0451 0.1297,0.0755 -0.2151,0.0585 -0.3453,0.1029 -0.5795,0.13384 -0.079,0.0103 -0.1582,0.007 -0.237,0.0109 -0.042,0.006 -0.034,0.065 0.01,0.0594 0.345,-0.0468 0.1576,-0.0161 0.5601,-0.0982 0.096,-0.0138 0.1944,-0.0127 0.2915,-0.0212 0.031,-0.003 0,-3e-4 0.023,-0.003 0.01,0.0309 0,0.066 -0.024,0.10645 -0.118,0.0656 -0.2572,0.0926 -0.381,0.14883 -0.1148,0.0521 -0.2172,0.13279 -0.3373,0.17105 -0.1709,0.0544 -0.2598,0.0301 -0.4109,0.006 -0.2673,-0.0196 -0.2953,0.35874 -0.028,0.37827 0.1844,-0.0259 0.3696,-0.0456 0.5477,-0.10748 0.2704,-0.0941 0.5955,-0.27299 0.8289,-0.4315 0.014,-0.01 0.027,-0.0223 0.041,-0.0326 -0.024,0.053 -0.048,0.10553 -0.068,0.16019 -0.064,0.17989 -0.057,0.18014 -0.071,0.3359 0,0.20794 0.2963,0.20486 0.2939,-0.003 -0.017,-0.0788 -0.04,-0.17062 -0.022,-0.24804 0.021,-0.088 0.083,-0.16141 0.1143,-0.2465 0.02,-0.0548 0.032,-0.11209 0.045,-0.16898 0.031,0.0456 0.06,0.0925 0.088,0.14004 0.084,0.14382 0.1047,0.1955 0.1751,0.34313 0.03,0.0639 0.1199,0.0219 0.09,-0.0419 -0.2633,-0.4649 0.074,0.14164 -0.1805,-0.35398 -0.02,-0.0392 -0.01,-0.0173 -0.023,-0.0408 0,-1.2e-4 0,0.002 0,0.002 -0.044,-0.10857 0.058,-0.14497 0.1323,-0.17002 0.056,-0.0189 0.1135,-0.0393 0.1698,-0.0599 0.2956,0.11709 0.033,0.0144 0.5392,0.17312 -0.2317,-0.0911 -0.2831,-0.12573 -0.387,-0.22635 0.091,-0.0298 0.1825,-0.053 0.277,-0.0646 0.1341,0.1317 0.204,0.20206 0.3286,0.35657 -0.047,-0.0105 -0.093,-0.0244 -0.1381,-0.0388 0.05,0.0166 0.099,0.0341 0.1484,0.0517 0.011,0.0134 0.015,0.0165 0.027,0.0315 0.07,0.0888 0.1342,0.18211 0.1985,0.27492 0.047,0.0676 0.09,0.13739 0.136,0.20619 0.037,0.0442 0.099,-0.008 0.062,-0.0517 -0.1114,-0.11396 -0.3101,-0.31042 -0.3958,-0.42995 -0.01,-0.009 -0.011,-0.0188 -0.017,-0.0279 0.041,0.0148 0.083,0.029 0.1246,0.0434 0.017,0.005 0.024,-0.0188 0.01,-0.0238 -0.047,-0.0123 -0.095,-0.0225 -0.1426,-0.0331 -0.077,-0.11759 -0.1402,-0.24432 -0.2103,-0.36639 0.3627,-0.007 0.7463,0.10298 1.112,0.15555 -0.046,0.0155 -0.096,0.0299 -0.2971,0.0915 -0.015,0.003 -0.011,0.0249 0.01,0.0217 0.3751,-0.0455 0.2,-0.0277 0.5254,-0.0563 0.018,-0.005 0.027,-0.0155 0.036,-0.0264 -0.061,0.0812 -0.1365,0.12128 -0.2249,0.18242 -0.046,0.0285 -0.01,0.0931 0.04,0.0646 0.064,-0.0312 0.1034,-0.048 0.1431,-0.0672 -0.08,0.1652 -0.16,0.33129 -0.2569,0.48731 -0.057,0.0917 -0.137,0.16627 -0.2056,0.24959 -0.1026,0.26731 0.2749,0.41252 0.3776,0.14521 0,-0.10293 -0.042,-0.20996 -0.012,-0.30851 0.057,-0.18847 0.1622,-0.36026 0.2659,-0.52761 0.012,-0.0193 0.019,-0.0282 0.03,-0.046 -2e-4,0.0423 -0.013,0.33693 -0.013,0.35605 0,0.0602 0.082,0.064 0.085,0.004 0,-0.0631 -7.94e-4,-0.12618 0,-0.18913 0.011,-0.13845 0.026,-0.1693 0.049,-0.26355 0.036,0.25575 0.028,0.44744 0.025,0.71933 0.013,0.12808 0.1942,0.10911 0.181,-0.0191 -0.016,-0.11821 -0.031,-0.23644 -0.048,-0.3545 -0.011,-0.0752 -0.023,-0.15061 -0.034,-0.22582 0.083,-0.25774 0.2704,-0.4016 0.3733,-0.49765 0.392097,-0.36687 0.655097,-0.98857 0.655097,-0.98857 z m -2.7569,1.41801 c -0.019,-0.006 -0.037,-0.0137 -0.056,-0.0196 -0.02,-0.006 -0.01,-0.002 -0.024,-0.007 0.01,0.004 0.015,0.007 0.026,0.0109 0.018,0.007 0.037,0.0103 0.055,0.016 z"
       style="fill:#e5e5e5;fill-opacity:1;stroke:none;stroke-width:0.308576px;stroke-linecap:butt;stroke-linejoin:miter;stroke-opacity:1"
       id="path8601" />
  </g>
</svg>
