<?xml version="1.0" encoding="UTF-8" standalone="no"?>
<svg
   xmlns:dc="http://purl.org/dc/elements/1.1/"
   xmlns:cc="http://creativecommons.org/ns#"
   xmlns:rdf="http://www.w3.org/1999/02/22-rdf-syntax-ns#"
   xmlns:svg="http://www.w3.org/2000/svg"
   xmlns="http://www.w3.org/2000/svg"
   xmlns:sodipodi="http://sodipodi.sourceforge.net/DTD/sodipodi-0.dtd"
   xmlns:inkscape="http://www.inkscape.org/namespaces/inkscape"
   inkscape:export-ydpi="96"
   inkscape:export-xdpi="96"
   inkscape:export-filename="D:\Calcatz\Icon Pack\Adventure Narative Inspired by Arrival\GUI\Inventory\png\logogram_inventory_scroll_bar - background_detail_2.png"
   sodipodi:docname="logogram_iventory_scroll_bar - background_detail_2.svg"
   inkscape:version="1.0 (4035a4fb49, 2020-05-01)"
   id="svg8629"
   version="1.1"
   viewBox="0 0 1.3805 7.1592731"
   height="7.1592731mm"
   width="1.3805mm">
  <defs
     id="defs8623" />
  <sodipodi:namedview
     inkscape:window-maximized="1"
     inkscape:window-y="-8"
     inkscape:window-x="-8"
     inkscape:window-height="705"
     inkscape:window-width="1366"
     fit-margin-bottom="0"
     fit-margin-right="0"
     fit-margin-left="0"
     fit-margin-top="0"
     showgrid="false"
     inkscape:document-rotation="0"
     inkscape:current-layer="layer1"
     inkscape:document-units="mm"
     inkscape:cy="10.62261"
     inkscape:cx="6.3447531"
     inkscape:zoom="10.738351"
     inkscape:pageshadow="2"
     inkscape:pageopacity="0.0"
     borderopacity="1.0"
     bordercolor="#666666"
     pagecolor="#ffffff"
     id="base" />
  <metadata
     id="metadata8626">
    <rdf:RDF>
      <cc:Work
         rdf:about="">
        <dc:format>image/svg+xml</dc:format>
        <dc:type
           rdf:resource="http://purl.org/dc/dcmitype/StillImage" />
        <dc:title></dc:title>
      </cc:Work>
    </rdf:RDF>
  </metadata>
  <g
     transform="translate(6.9978609,-21.6508)"
     id="layer1"
     inkscape:groupmode="layer"
     inkscape:label="Layer 1">
    <path
       transform="matrix(0.26458333,0,0,0.26458333,-6.9978609,21.6508)"
       d="M 0.84765625 0 L 0 4.0957031 L 0.21289062 12.080078 L 0.35351562 18.462891 C -0.0079982974 18.5974 -0.081380478 19.154121 0.37304688 19.324219 L 0.42382812 21.617188 L 0.84765625 27.058594 C 0.84765625 27.058594 1.3394432 25.491607 1.7539062 23.888672 C 1.806082 23.831103 1.8556299 23.771561 1.9140625 23.720703 C 2.1033412 23.556634 2.5909782 23.222061 2.7558594 23.085938 C 2.9404364 22.933396 3.111437 22.763816 3.2910156 22.605469 C 3.4738843 22.444385 3.6593015 22.28581 3.84375 22.126953 C 3.8608335 22.114103 3.8393491 22.088825 3.8222656 22.101562 C 3.7355564 22.164939 3.6496038 22.2299 3.5625 22.292969 C 3.5468831 22.266596 3.5241307 22.228985 3.5078125 22.201172 C 3.52497 22.232013 3.543181 22.262254 3.5605469 22.292969 C 3.4519306 22.371618 3.34339 22.450599 3.2363281 22.53125 C 3.0466223 22.673965 2.8678933 22.830103 2.6738281 22.966797 C 2.513954 23.079224 2.1174084 23.312807 1.8691406 23.443359 C 2.0396 22.751448 2.1880463 22.079789 2.2597656 21.546875 C 2.282851 21.385637 2.3012759 21.224415 2.3183594 21.0625 C 2.3332624 20.917629 2.3990766 20.768368 2.5117188 20.673828 C 2.8617668 21.074582 3.2301271 21.727884 3.5078125 22.201172 C 3.3619518 21.938982 3.2228436 21.672686 3.0644531 21.417969 C 2.7487209 20.91046 2.6786894 20.808006 2.5664062 20.634766 C 2.6244985 20.601586 2.6927711 20.587507 2.7734375 20.591797 C 3.302318 20.919025 3.5069774 21.326825 3.9492188 21.912109 C 4.023135 22.018919 4.1735294 21.913597 4.0996094 21.806641 C 3.86782 21.420466 3.6784958 21.007038 3.40625 20.648438 C 3.6256181 20.78871 3.8414458 20.934617 4.03125 21.111328 C 4.2871807 21.349741 4.4504979 21.671271 4.6601562 21.951172 C 4.9361676 22.285736 5.4106073 21.89508 5.1347656 21.560547 C 4.8472154 21.316994 4.5375416 21.097162 4.2714844 20.830078 C 3.9211259 20.478431 3.6749674 20.021317 3.2890625 19.708984 C 3.1409232 19.588918 2.9726059 19.501367 2.796875 19.423828 C 2.857257 19.432051 2.9497678 19.472294 3.5214844 19.433594 C 3.7487889 19.416586 3.9722681 19.35904 4.1972656 19.322266 C 4.6846028 19.326423 4.6904534 18.637469 4.2050781 18.632812 C 3.9448728 18.62412 3.6853014 18.589545 3.4257812 18.607422 C 3.3787338 18.611813 3.0068935 18.683087 2.6445312 18.75 C 3.0086078 18.362669 3.3853651 17.986373 3.7597656 17.609375 C 4.1062765 17.211164 3.5438188 16.722887 3.1972656 17.121094 C 3.0511415 17.317213 2.9226936 17.528421 2.7578125 17.708984 C 2.713157 17.757856 2.6958293 17.762784 2.65625 17.804688 C 2.5013276 17.852563 2.4290993 17.745897 2.3867188 17.603516 C 2.5358823 17.149203 2.5383216 17.150592 2.984375 16.292969 C 2.986414 16.291803 2.9881932 16.290224 2.9902344 16.289062 C 3.4623612 16.0203 3.957914 15.79443 4.4414062 15.546875 C 4.546084 15.499442 4.4785788 15.351004 4.3730469 15.398438 C 3.9701372 15.582044 3.5678269 15.768231 3.1640625 15.951172 C 3.2786957 15.732742 3.3930065 15.515311 3.5078125 15.296875 C 3.5834371 15.140516 3.3627339 15.033056 3.2871094 15.189453 C 3.105522 15.498354 2.9283901 15.809312 2.7421875 16.115234 C 2.729994 16.135244 2.7341867 16.129478 2.7226562 16.148438 C 2.5480401 16.225538 2.3692554 16.291218 2.1933594 16.365234 C 2.0984086 15.802828 1.9820687 15.242524 1.859375 14.683594 C 1.9905005 14.676078 2.132826 14.677848 2.4179688 14.691406 C 2.6721911 14.704257 2.9299213 14.704244 3.1777344 14.759766 C 3.3520575 14.798203 3.5049256 14.905457 3.6679688 14.978516 C 3.7683757 15.008374 3.8113444 14.868656 3.7109375 14.837891 C 3.5344789 14.803875 3.3586548 14.765972 3.1816406 14.734375 C 2.7280815 14.653796 2.2727724 14.583299 1.8203125 14.496094 C 1.6819194 13.858915 1.5492324 13.22114 1.4824219 12.574219 C 1.4469632 12.229367 1.4300228 11.881671 1.4003906 11.535156 C 1.6618994 11.782302 2.0220214 12.163945 2.1015625 12.257812 C 2.2972475 12.488553 2.485149 12.725611 2.6601562 12.972656 C 3.0258936 13.489049 3.1837888 13.798343 3.4785156 14.324219 C 3.49987 14.362657 3.5582303 14.331771 3.5351562 14.289062 C 3.4142416 14.102354 3.2906542 13.916585 3.171875 13.728516 C 3.0086599 13.470449 2.8669798 13.199411 2.6894531 12.951172 C 2.5129945 12.704633 2.2912915 12.492185 2.1113281 12.248047 C 1.9575127 12.03953 1.8413135 11.804507 1.6875 11.595703 C 1.5495525 11.407901 1.4655108 11.307582 1.375 11.220703 C 1.3434176 10.810886 1.3090705 10.40249 1.296875 9.9921875 C 1.389958 10.059041 1.485462 10.121142 1.5742188 10.193359 C 2.2305817 10.726541 2.1599203 10.694798 2.6933594 11.292969 C 2.7019011 11.305819 2.7194792 11.29068 2.7109375 11.28125 C 2.5549866 11.092387 2.4115427 10.891617 2.2441406 10.712891 C 2.0510181 10.506528 1.8304221 10.329264 1.6328125 10.126953 C 1.1953065 9.6792853 1.2729871 9.7456938 1.2929688 9.7558594 C 1.2827319 9.1869591 1.2893242 8.6184136 1.3417969 8.0527344 C 1.368133 7.7684657 1.4338319 7.4900778 1.5117188 7.2128906 C 1.5511194 7.323394 1.6292705 7.5213875 1.6425781 7.5683594 C 1.7284566 7.8712885 1.7639731 8.185357 1.8242188 8.4941406 C 1.9758987 8.9777614 2.6593629 8.762963 2.5078125 8.2792969 C 2.4001413 7.9904654 2.2675815 7.7110086 2.1855469 7.4140625 C 2.0286357 6.8470169 1.9956728 6.5636564 1.9726562 6.2128906 C 2.0688035 6.1965637 2.1951072 6.2545406 2.3476562 6.4160156 C 2.5487582 6.6958958 2.7460625 6.9779444 2.9550781 7.2519531 C 4.5671876 9.3652873 3.3691155 7.633899 4.5546875 9.4023438 C 4.7525118 9.6817642 5.1487387 9.4025127 4.9511719 9.1230469 C 4.7379649 8.8205335 4.5326387 8.5109395 4.3105469 8.2148438 C 3.9926622 7.791 3.6350592 7.3980872 3.3300781 6.9648438 C 3.0674599 6.5920314 2.8449775 6.1918139 2.6035156 5.8046875 C 2.6786036 5.8333122 2.7572985 5.852518 2.8300781 5.8867188 C 3.8094524 6.4559194 3.3252107 6.217888 4.2734375 6.6171875 C 4.7759 6.8013261 5.0376172 6.0902714 4.5351562 5.90625 C 4.0924254 5.7447508 3.5154407 5.5455786 3.1035156 5.3398438 C 2.9655752 5.2708724 2.6436356 5.0655849 2.3378906 4.875 C 2.316899 4.8533414 2.296839 4.8312625 2.2773438 4.8085938 C 2.3868637 4.799532 2.4935794 4.7919339 2.6894531 4.7929688 C 2.907358 4.7940799 3.1241486 4.8192942 3.3417969 4.8320312 C 3.4071676 4.8361887 3.4123589 4.7445052 3.3457031 4.7402344 C 3.126517 4.7186911 2.908682 4.6930148 2.6894531 4.6699219 C 2.3087614 4.629589 2.2071341 4.6238761 2.1289062 4.6132812 C 1.9791458 4.3765889 1.8890806 4.1265903 1.8613281 3.9570312 C 1.842904 3.843631 1.810771 3.723504 1.7890625 3.6074219 C 2.1325089 3.6989201 2.4712087 3.8089185 2.8027344 4.0019531 C 3.2047899 4.2360949 3.5184362 4.5942307 3.8769531 4.890625 C 3.926087 4.9290628 3.9803474 4.8620641 3.9316406 4.8222656 C 3.1972392 4.1961421 2.4651447 3.5588487 1.6679688 3.0117188 C 1.6220103 2.8031577 1.58357 2.6080917 1.5332031 2.4042969 C 1.7136625 2.5195703 1.8827547 2.661144 2.1582031 2.9667969 C 2.4372078 3.2761512 2.6635878 3.6295523 2.9160156 3.9609375 C 2.9916402 4.0728871 3.14942 3.9664357 3.0742188 3.8554688 C 2.8311044 3.4999664 2.5918929 3.142626 2.3457031 2.7890625 C 1.7048071 1.8686531 1.981027 2.1882639 1.328125 1.5566406 C 1.3213009 1.5527392 1.315369 1.5522649 1.3085938 1.5488281 C 1.0649867 0.6691554 0.84765625 0 0.84765625 0 z M 2.3847656 16.691406 C 2.3570234 16.734937 2.2880126 16.852306 2.2636719 16.886719 C 2.2591744 16.851549 2.2548157 16.816379 2.25 16.78125 C 2.2941931 16.750115 2.3406244 16.722613 2.3847656 16.691406 z "
       style="fill:#b3b3b3;fill-opacity:1;stroke:none;stroke-width:1.13047px;stroke-linecap:butt;stroke-linejoin:miter;stroke-opacity:1"
       id="path8667" />
  </g>
</svg>
