<?xml version="1.0" encoding="UTF-8" standalone="no"?>
<svg
   xmlns:dc="http://purl.org/dc/elements/1.1/"
   xmlns:cc="http://creativecommons.org/ns#"
   xmlns:rdf="http://www.w3.org/1999/02/22-rdf-syntax-ns#"
   xmlns:svg="http://www.w3.org/2000/svg"
   xmlns="http://www.w3.org/2000/svg"
   xmlns:sodipodi="http://sodipodi.sourceforge.net/DTD/sodipodi-0.dtd"
   xmlns:inkscape="http://www.inkscape.org/namespaces/inkscape"
   inkscape:export-ydpi="96"
   inkscape:export-xdpi="96"
   inkscape:export-filename="D:\Calcatz\Icon Pack\Adventure Narative Inspired by Arrival\GUI\Inventory\png\text_scroll_bar - background_detail_2.png"
   sodipodi:docname="text_scroll_bar - background_detail_2.svg"
   inkscape:version="1.0 (4035a4fb49, 2020-05-01)"
   id="svg5709"
   version="1.1"
   viewBox="0 0 1.5338888 7.9547482"
   height="7.9547482mm"
   width="1.5338888mm">
  <defs
     id="defs5703" />
  <sodipodi:namedview
     inkscape:window-maximized="1"
     inkscape:window-y="-8"
     inkscape:window-x="-8"
     inkscape:window-height="705"
     inkscape:window-width="1366"
     fit-margin-bottom="0"
     fit-margin-right="0"
     fit-margin-left="0"
     fit-margin-top="0"
     showgrid="false"
     inkscape:document-rotation="0"
     inkscape:current-layer="layer1"
     inkscape:document-units="mm"
     inkscape:cy="17.193268"
     inkscape:cx="6.7287613"
     inkscape:zoom="7.593161"
     inkscape:pageshadow="2"
     inkscape:pageopacity="0.0"
     borderopacity="1.0"
     bordercolor="#666666"
     pagecolor="#ffffff"
     id="base" />
  <metadata
     id="metadata5706">
    <rdf:RDF>
      <cc:Work
         rdf:about="">
        <dc:format>image/svg+xml</dc:format>
        <dc:type
           rdf:resource="http://purl.org/dc/dcmitype/StillImage" />
        <dc:title></dc:title>
      </cc:Work>
    </rdf:RDF>
  </metadata>
  <g
     transform="translate(-105.06639,-144.18929)"
     id="layer1"
     inkscape:groupmode="layer"
     inkscape:label="Layer 1">
    <path
       transform="matrix(0.26458333,0,0,0.26458333,105.06639,144.18929)"
       d="M 0.94140625 0 L 0 4.5488281 L 0.23632812 13.419922 L 0.39257812 20.513672 C -0.010187378 20.662128 -0.090945109 21.283279 0.4140625 21.472656 L 0.47070312 24.019531 L 0.94140625 30.064453 C 0.94140625 30.064453 1.4868499 28.323347 1.9472656 26.542969 C 2.0054296 26.478809 2.0616689 26.412112 2.1269531 26.355469 C 2.3370949 26.173296 2.8793063 25.801647 3.0625 25.650391 C 3.2677283 25.481068 3.4567287 25.293238 3.65625 25.117188 C 3.8595886 24.938038 4.0665206 24.762366 4.2714844 24.585938 C 4.290382 24.570819 4.2669445 24.544168 4.2480469 24.556641 C 4.1512018 24.627503 4.0543218 24.697124 3.9570312 24.767578 C 3.9411543 24.740759 3.9188733 24.701989 3.9023438 24.673828 C 3.9200532 24.705631 3.9371692 24.737853 3.9550781 24.769531 C 3.835167 24.856372 3.7158562 24.942309 3.5976562 25.03125 C 3.3867586 25.18999 3.1863252 25.36365 2.9707031 25.515625 C 2.7932252 25.640367 2.3540357 25.901709 2.078125 26.046875 C 2.2675325 25.278075 2.4319866 24.531582 2.5117188 23.939453 C 2.5374195 23.760341 2.5572742 23.582249 2.5761719 23.402344 C 2.5927089 23.24172 2.6663112 23.075815 2.7910156 22.970703 C 3.1814044 23.41777 3.5935545 24.147758 3.9023438 24.673828 C 3.7388882 24.380289 3.5816568 24.082181 3.4042969 23.796875 C 3.0536107 23.233182 2.9763416 23.12026 2.8515625 22.927734 C 2.9147836 22.891413 2.9888032 22.873428 3.0761719 22.876953 C 3.6681489 23.241108 3.8957431 23.693329 4.3886719 24.345703 C 4.4706876 24.46438 4.6390343 24.34941 4.5566406 24.230469 C 4.2990114 23.801174 4.085923 23.339981 3.7832031 22.941406 C 4.027801 23.097764 4.2669074 23.26001 4.4785156 23.457031 C 4.7627361 23.721976 4.9447643 24.077692 5.1777344 24.388672 C 5.4842541 24.760199 6.01156 24.326908 5.7050781 23.955078 C 5.385708 23.684464 5.0416906 23.4413 4.7460938 23.144531 C 4.3568024 22.753841 4.0850374 22.245474 3.65625 21.898438 C 3.4918313 21.76515 3.3023858 21.668083 3.1074219 21.582031 C 3.1744752 21.591068 3.2778295 21.634888 3.9140625 21.591797 C 4.1665349 21.572899 4.4140468 21.511522 4.6640625 21.470703 C 5.2055176 21.474483 5.2112769 20.708303 4.6738281 20.703125 C 4.3846943 20.691786 4.0969339 20.655686 3.8085938 20.673828 C 3.7552712 20.679666 3.3341734 20.76032 2.9238281 20.835938 C 3.330733 20.402386 3.7589631 19.988099 4.1777344 19.566406 C 4.5627548 19.123937 3.9357639 18.580968 3.5507812 19.023438 C 3.3882616 19.241516 3.247609 19.475164 3.0644531 19.675781 C 3.0154566 19.729405 2.9966149 19.735184 2.953125 19.78125 C 2.7845166 19.834967 2.6931049 19.730116 2.6445312 19.578125 C 2.8189225 19.046672 2.8126426 19.07232 3.3164062 18.103516 C 3.3184458 18.10235 3.3202241 18.100771 3.3222656 18.099609 C 3.8468263 17.801027 4.3964095 17.550465 4.9335938 17.275391 C 5.0500032 17.222855 4.9765404 17.05684 4.859375 17.109375 C 4.4125768 17.312981 3.9653158 17.517816 3.5175781 17.720703 C 3.6443311 17.479226 3.7715612 17.237577 3.8984375 16.996094 C 3.982343 16.822235 3.7366272 16.703095 3.6523438 16.876953 C 3.450517 17.220134 3.2537663 17.566319 3.046875 17.90625 C 3.0338249 17.927665 3.0377566 17.921075 3.0253906 17.941406 C 2.8315207 18.027012 2.6327902 18.099454 2.4375 18.181641 C 2.3319873 17.556672 2.2027475 16.935558 2.0664062 16.314453 C 2.212018 16.306147 2.3689674 16.309104 2.6855469 16.324219 C 2.9678776 16.339337 3.2559114 16.33954 3.53125 16.400391 C 3.7251398 16.443099 3.8932172 16.563271 4.0742188 16.644531 C 4.1857148 16.678547 4.2349209 16.520344 4.1230469 16.486328 C 3.9268894 16.448155 3.7318429 16.407819 3.5351562 16.373047 C 3.0317934 16.283616 2.525615 16.206038 2.0234375 16.109375 C 1.8693975 15.400312 1.722767 14.690609 1.6484375 13.970703 C 1.6089037 13.588387 1.5895619 13.20252 1.5566406 12.818359 C 1.8472373 13.093167 2.2457864 13.515025 2.3339844 13.619141 C 2.5513072 13.875393 2.7606592 14.139593 2.9550781 14.414062 C 3.3614529 14.987833 3.5377761 15.331738 3.8652344 15.916016 C 3.8879115 15.958724 3.9530572 15.926087 3.9277344 15.876953 C 3.7931832 15.669457 3.6573717 15.462914 3.5253906 15.253906 C 3.3439733 14.96704 3.185686 14.666455 2.9882812 14.390625 C 2.7921238 14.116609 2.5456779 13.880632 2.3457031 13.609375 C 2.1748685 13.37769 2.0460236 13.1148 1.875 12.882812 C 1.7220201 12.67448 1.6277373 12.565177 1.5273438 12.46875 C 1.4922101 12.01339 1.4549267 11.559417 1.4414062 11.103516 C 1.5441829 11.177461 1.6500313 11.246314 1.7480469 11.326172 C 2.4773445 11.918613 2.4014351 11.884198 2.9941406 12.548828 C 3.0054792 12.563946 3.0230573 12.544542 3.0117188 12.533203 C 2.8386164 12.323439 2.6781025 12.10092 2.4921875 11.902344 C 2.2775103 11.672926 2.0320906 11.474806 1.8125 11.25 C 1.3281411 10.7544 1.4162357 10.829499 1.4375 10.839844 C 1.4261963 10.207363 1.4319654 9.5742043 1.4902344 8.9453125 C 1.5195382 8.6289618 1.5909957 8.3182222 1.6777344 8.0097656 C 1.7222172 8.1344217 1.8112349 8.3554563 1.8261719 8.4082031 C 1.921416 8.744959 1.9604461 9.0943945 2.0273438 9.4375 C 2.1959107 9.9748354 2.9554873 9.7366676 2.7871094 9.1992188 C 2.6672984 8.8783369 2.5191989 8.5662809 2.4277344 8.2363281 C 2.2531314 7.6055099 2.2189213 7.2928606 2.1933594 6.9023438 C 2.3034889 6.8844992 2.4485976 6.9494083 2.625 7.1425781 C 2.8437318 7.4481132 3.0553131 7.759864 3.2832031 8.0585938 C 5.0744346 10.406739 3.7432681 8.482327 5.0605469 10.447266 C 5.2805154 10.757943 5.7214681 10.447094 5.5019531 10.136719 C 5.2649767 9.8007187 5.037781 9.4579141 4.7910156 9.1289062 C 4.4376298 8.6579771 4.0400443 8.2196419 3.7011719 7.7382812 C 3.4091672 7.3236617 3.1611496 6.8797142 2.8925781 6.4492188 C 2.9760962 6.4810579 3.0635814 6.5029467 3.1445312 6.5410156 C 4.232695 7.1734818 3.6944658 6.9079594 4.7480469 7.3515625 C 5.3063209 7.5560349 5.5973365 6.7669346 5.0390625 6.5625 C 4.547157 6.3829724 3.9069195 6.1621796 3.4492188 5.9335938 C 3.2953426 5.8566557 2.9363113 5.62641 2.5957031 5.4140625 C 2.5730842 5.390634 2.5503455 5.3682366 2.5292969 5.34375 C 2.6512098 5.3336455 2.7700452 5.324951 2.9882812 5.3261719 C 3.230549 5.3274191 3.4710387 5.3566682 3.7128906 5.3691406 C 3.7854576 5.3729202 3.7916315 5.2701604 3.7167969 5.265625 C 3.4733953 5.2429478 3.2299187 5.2151539 2.9863281 5.1894531 C 2.5657687 5.1448082 2.4537822 5.1384241 2.3671875 5.1269531 C 2.2003653 4.8635914 2.099336 4.5850483 2.0683594 4.3964844 C 2.0477602 4.269703 2.0125725 4.1356526 1.9882812 4.0058594 C 2.3695516 4.1075029 2.7452376 4.2329999 3.1132812 4.4472656 C 3.5600214 4.7072971 3.9102693 5.1062366 4.3085938 5.4355469 C 4.3630189 5.4782555 4.4231879 5.4008864 4.3691406 5.3574219 C 3.9946264 5.0381301 3.6195621 4.7175449 3.2402344 4.4023438 C 2.7926675 4.0304395 2.3332035 3.6728911 1.8535156 3.34375 C 1.8027624 3.113581 1.7587048 2.8987604 1.703125 2.6738281 C 1.9034466 2.8018455 2.0926292 2.9574952 2.3984375 3.296875 C 2.7083588 3.6404341 2.9597556 4.0341422 3.2402344 4.4023438 C 3.3241399 4.5266902 3.4995432 4.4056598 3.4160156 4.2832031 C 3.1457794 3.8882047 2.8789932 3.4905381 2.6054688 3.0976562 C 1.893368 2.0749917 2.2000519 2.4303361 1.4746094 1.7285156 C 1.4671541 1.7242512 1.4605278 1.724468 1.453125 1.7207031 C 1.1824054 0.74306127 0.94140625 0 0.94140625 0 z M 2.6503906 18.544922 C 2.6193238 18.593688 2.5428477 18.725191 2.515625 18.763672 C 2.5105538 18.723958 2.5054366 18.684197 2.5 18.644531 C 2.5492466 18.609831 2.6011998 18.579701 2.6503906 18.544922 z "
       style="fill:#7f7f7f;fill-opacity:1;stroke:none;stroke-width:1.25608px;stroke-linecap:butt;stroke-linejoin:miter;stroke-opacity:1"
       id="path8934" />
  </g>
</svg>
