<?xml version="1.0" encoding="UTF-8" standalone="no"?>
<svg
   xmlns:dc="http://purl.org/dc/elements/1.1/"
   xmlns:cc="http://creativecommons.org/ns#"
   xmlns:rdf="http://www.w3.org/1999/02/22-rdf-syntax-ns#"
   xmlns:svg="http://www.w3.org/2000/svg"
   xmlns="http://www.w3.org/2000/svg"
   xmlns:sodipodi="http://sodipodi.sourceforge.net/DTD/sodipodi-0.dtd"
   xmlns:inkscape="http://www.inkscape.org/namespaces/inkscape"
   inkscape:export-ydpi="96"
   inkscape:export-xdpi="96"
   inkscape:export-filename="D:\Calcatz\Icon Pack\Adventure Narative Inspired by Arrival\GUI\Inventory\png\text_scroll_bar.png"
   sodipodi:docname="text_scroll_bar.svg"
   inkscape:version="1.0 (4035a4fb49, 2020-05-01)"
   id="svg3232"
   version="1.1"
   viewBox="0 0 4.2117925 43.488522"
   height="43.488522mm"
   width="4.2117925mm">
  <defs
     id="defs3226" />
  <sodipodi:namedview
     inkscape:window-maximized="1"
     inkscape:window-y="-8"
     inkscape:window-x="-8"
     inkscape:window-height="705"
     inkscape:window-width="1366"
     fit-margin-bottom="0"
     fit-margin-right="0"
     fit-margin-left="0"
     fit-margin-top="0"
     showgrid="false"
     inkscape:document-rotation="0"
     inkscape:current-layer="layer1"
     inkscape:document-units="mm"
     inkscape:cy="80.830384"
     inkscape:cx="43.400907"
     inkscape:zoom="2.6845878"
     inkscape:pageshadow="2"
     inkscape:pageopacity="0.0"
     borderopacity="1.0"
     bordercolor="#666666"
     pagecolor="#ffffff"
     id="base" />
  <metadata
     id="metadata3229">
    <rdf:RDF>
      <cc:Work
         rdf:about="">
        <dc:format>image/svg+xml</dc:format>
        <dc:type
           rdf:resource="http://purl.org/dc/dcmitype/StillImage" />
        <dc:title></dc:title>
      </cc:Work>
    </rdf:RDF>
  </metadata>
  <g
     transform="translate(-105.1235,-139.88863)"
     id="layer1"
     inkscape:groupmode="layer"
     inkscape:label="Layer 1">
    <path
       id="path7543"
       style="fill:#7f7f7f;fill-opacity:1;stroke:none;stroke-width:0.332338px;stroke-linecap:butt;stroke-linejoin:miter;stroke-opacity:1"
       d="m 106.68185,139.88863 c -0.35772,0 -0.64558,0.28784 -0.64558,0.64544 v 26.99006 c -0.0328,0.144 -0.0683,0.28619 -0.0955,0.41651 -0.0132,0.066 -0.0413,0.14814 -0.0934,0.21136 -0.0106,0.007 -0.0185,0.0125 -0.0378,0.0212 -0.0381,0.0171 -0.0789,0.0268 -0.11827,0.0413 -0.045,0.0166 -0.0889,0.0349 -0.13335,0.0522 -0.04,0.0157 -0.0185,0.0726 0.0212,0.0568 0.046,-0.0163 0.091,-0.0328 0.13679,-0.0491 0.0312,-0.013 0.0619,-0.0263 0.0931,-0.0388 -0.005,0.005 -0.008,0.006 -0.0423,0.0357 -0.0802,0.0688 -0.0831,0.0664 -0.16484,0.15193 -0.0238,0.0264 -0.049,0.0549 -0.073,0.0822 0,0.001 0,0.004 0,0.003 0.0238,-0.0273 0.046,-0.0572 0.073,-0.0822 0.0529,-0.0491 0.11721,-0.0931 0.1778,-0.13281 0.0212,-0.0141 0.0431,-0.0276 0.0651,-0.0408 0.0132,-0.008 0.0265,-0.0146 0.0392,-0.0217 -0.0296,0.16067 -0.0611,0.32162 -0.0868,0.48318 -0.0106,0.057 -0.0238,0.14102 -0.0651,0.14314 0,-2.2e-4 0,-2.6e-4 0,-5.3e-4 -0.005,-0.003 -0.0132,-0.006 -0.0185,-0.008 -0.032,-0.0295 -0.063,-0.0567 -0.0937,-0.0946 -0.0339,-0.0413 -0.0598,-0.0874 -0.0918,-0.13022 -0.0212,-0.0277 -0.0238,-0.028 -0.0312,-0.0377 0.008,0.0135 0.0185,0.0274 0.027,0.0403 0.0661,0.0919 0.0878,0.13015 0.12567,0.19327 -0.0106,-0.005 -0.0212,-0.009 -0.0307,-0.0134 -0.055,-0.0239 -0.0889,0.0538 -0.0341,0.0775 0.0643,0.0285 0.0492,0.0211 0.10345,0.0419 -0.0767,0.0111 -0.14975,0.0198 -0.24659,0.0165 -0.17383,-0.0245 -0.0971,-0.0193 -0.23045,-0.0233 -0.13123,0.016 -0.10848,0.2014 0.0238,0.18552 0.0212,-0.008 0.0399,-0.0173 0.0611,-0.0217 0.13309,-0.0276 0.26855,-0.0314 0.4019,-0.0119 -0.0434,0.0237 -0.0876,0.0456 -0.1307,0.0698 0,2.6e-4 0,5.3e-4 0,0.001 -0.0265,0.003 -0.0106,0.003 -0.14632,0.0315 -0.028,0.007 -0.0558,0.0112 -0.0841,0.0155 0.0273,-0.003 0.0545,-0.007 0.0817,-0.009 0.0664,-0.006 0.0894,-0.007 0.11007,-0.006 -0.0717,0.0579 -0.14367,0.11577 -0.21511,0.17363 -0.0439,0.0317 0,0.0943 0.045,0.0625 0.09,-0.0561 0.17648,-0.1171 0.26882,-0.16847 0.0185,-0.0105 0.0389,-0.0182 0.0582,-0.0274 0.0442,-0.002 0.0526,0.0716 0.0519,0.13023 0,0.0763 0,0.15241 0.005,0.22841 -0.0185,0.002 -0.0355,0.004 -0.0532,0.004 -0.0651,-0.001 -0.0878,-0.013 -0.15187,-0.0238 -0.0392,-0.006 -0.0921,-0.0112 -0.1323,-0.015 -0.0185,-0.005 -0.0373,-0.0103 -0.0564,-0.0155 -0.0185,-0.003 -0.0238,0.0237 0,0.0263 0.0185,0.003 0.0373,0.006 0.0564,0.009 0.086,0.0151 0.0415,0.0114 0.13283,0.0114 0.0264,0.004 0.0505,0.0143 0.0765,0.0196 0.0238,0.005 0.0508,0.006 0.0759,0.0109 0.0526,0.009 0.0516,0.007 0.0553,0.009 0.005,0.0646 0.0132,0.1293 0.0238,0.19378 -0.0212,0.001 -0.0408,0.003 -0.0611,-5.2e-4 -0.072,-0.0142 -0.22887,-0.0782 -0.28919,-0.11421 -0.0381,-0.0225 -0.0693,-0.0543 -0.10398,-0.0817 -0.0238,-0.0191 -0.0519,0.0167 -0.027,0.0357 0.0381,0.0278 0.0741,0.0579 0.11324,0.0832 0.0455,0.0288 0.0916,0.0561 0.1397,0.0791 -0.0532,1.7e-4 -0.086,0.006 -0.13811,0.0134 -0.0185,-0.003 -0.0394,-0.004 -0.0585,-0.006 -0.0212,0.001 -0.0185,0.0322 0,0.0305 0.0185,-0.003 0.0373,-0.004 0.0563,-0.005 0.0392,-2.6e-4 0.0947,-10e-4 0.13494,0.003 0.0185,0.001 0.0384,0.005 0.0574,0.009 0.0159,0.003 0.0341,0.004 0.05,0.006 0.0132,0.003 0.0265,0.008 0.04,0.0103 0.0106,0.001 0.0185,0 0.0265,0 v 0 c 0.0307,0 0.0511,0.0181 0.0709,0.0248 0.0106,0.0783 0.0212,0.15672 0.0304,0.23513 -0.0265,0.0185 -0.0508,0.0371 -0.0847,0.0537 -0.0238,0.0126 -0.05,0.0195 -0.0749,0.0305 -0.0238,0.0101 -0.0463,0.0222 -0.0704,0.0331 -0.0159,0.008 0,0.0286 0.0106,0.0207 0.12223,-0.0731 0.0106,-0.008 0.14155,-0.0667 0.078,-0.0336 0.0788,-0.037 0.0817,-0.0388 0.005,0.051 0.0159,0.10179 0.0212,0.15296 0,0.0215 -0.0106,0.15694 -0.059,0.26717 -0.003,0.002 0,0.003 -0.0429,0.0139 -0.0212,0.005 -0.041,0.0111 -0.063,0.0124 -0.0185,0 -0.0762,-0.005 -0.0992,-0.009 -0.0106,-0.004 -0.0185,-0.005 -0.0281,-0.008 -0.0106,0 -0.0106,2.6e-4 -0.0159,-0.004 -0.0341,-0.004 -0.0389,0.0446 -0.0106,0.0481 0.0106,-0.004 0.0132,-0.004 0.0185,-0.005 0.0106,0 0.0212,0.004 0.0299,0.005 0.0159,1.2e-4 0.0291,-0.004 0.0431,-0.004 0.0185,-0.004 0.0389,-0.004 0.0587,-0.005 0.0212,0 0.0442,2.6e-4 0.0661,-0.004 0.008,-8e-4 0.0159,-0.002 0.0238,-0.003 0,0.001 0,0.002 0,0.004 -0.0212,0.01 -0.0426,0.019 -0.0645,0.0274 -0.0791,0.0299 -0.12383,0.046 -0.20611,0.0532 -0.0185,0 -0.0336,-0.004 -0.0508,-0.004 -0.0508,0.004 -0.0479,0.0755 0,0.0729 0.11668,-0.0129 0.0106,0.004 0.15663,-0.0377 0.0347,-0.009 0.0701,-0.0164 0.10504,-0.0243 -0.0185,0.0206 -0.0373,0.0394 -0.0513,0.0625 -0.10954,0.18215 -0.14049,0.3477 -0.19421,0.55552 -0.032,0.12209 -0.0601,0.24541 -0.09,0.36793 -0.0132,0.0608 0.0717,0.081 0.0857,0.0202 0.10107,-0.46197 0.027,-0.25185 0.21749,-0.65732 0.0312,-0.066 0.055,-0.13545 0.0931,-0.1974 0.0106,-0.0174 0.0185,-0.0204 0.027,-0.0331 -0.003,0.009 -0.003,0.0132 -0.008,0.0331 -0.0106,0.0242 -0.0159,0.048 -0.0185,0.0729 -0.0106,0.0422 0,0.0851 -0.0106,0.12764 0,0.0105 -0.003,0.021 -0.005,0.0315 0.005,-0.035 0.0106,-0.0626 0.0331,-0.15348 0.0106,-0.0242 0.0106,-0.0488 0.0185,-0.0724 0.0106,-0.0216 0.0185,-0.0413 0.0272,-0.0625 0.008,-0.011 0.008,-0.0222 0.0106,-0.0336 0.005,-0.004 0.0106,-0.0139 0.0159,-0.0176 -0.003,0.0651 -0.008,0.13086 -0.003,0.19585 0.005,0.25229 0.0355,0.50444 0.0569,0.75654 -0.0402,0.0168 -0.0728,0.0266 -0.11509,0.047 -0.0212,0.01 -0.0913,0.0521 -0.11536,0.0631 -0.0159,0.008 -0.0331,0.0126 -0.0492,0.0186 -0.0159,0.006 -0.0106,0.0273 0.0106,0.0212 0.0579,-0.0222 0.0487,-0.0166 0.10371,-0.0481 0.0212,-0.0113 0.0389,-0.0263 0.0611,-0.0362 0.0212,-0.0101 0.0442,-0.0161 0.0669,-0.0227 0.0132,-0.004 0.0159,-0.003 0.0265,-0.006 -0.0302,0.0327 -0.0267,0.0339 -0.12144,0.18552 -0.037,0.0595 -0.0818,0.11473 -0.1151,0.17622 -0.091,0.16527 -0.091,0.19237 -0.13705,0.35398 -0.0106,0.022 0.0238,0.0297 0.031,0.008 0.0106,-0.0496 0.0132,-0.10131 0.0302,-0.14882 0.0238,-0.0698 0.0611,-0.13557 0.096,-0.20051 0.046,-0.0831 0.13335,-0.21821 0.21193,-0.28939 -0.003,0.008 -0.005,0.016 -0.008,0.0243 -0.0106,0.0242 -0.0106,0.0494 -0.0159,0.0739 -0.0106,0.0303 -0.0185,0.0594 -0.0265,0.0899 -0.008,0.0382 -0.0106,0.0768 -0.0159,0.11524 0.0159,-0.0643 0.0333,-0.13879 0.0548,-0.20102 0.0106,-0.0242 0.0185,-0.0476 0.0278,-0.0713 0.005,-0.0129 0.005,-0.0152 0.008,-0.0233 0.0159,0.19912 0.0238,0.39806 0.008,0.59686 -0.008,0.1148 -0.0558,0.22266 -0.1307,0.32453 -0.0524,0.006 -0.10451,0.0155 -0.15822,0.0103 -0.0381,-0.004 -0.0749,-0.0165 -0.11166,-0.0248 -0.036,-0.008 -0.0468,0.0433 -0.0106,0.0512 0.0863,0.0257 0.12436,0.0384 0.19526,0.0465 -0.0132,0.0114 -0.0238,0.0227 -0.037,0.0346 0.008,-0.0127 0,-0.0331 -0.0159,-0.0315 l -0.003,-5.3e-4 c -0.10001,0.0196 -0.045,0.0126 -0.16378,0.0176 -0.0106,6e-5 -0.0106,0.0114 0,0.0114 0.11933,0.009 0.0638,0.005 0.16643,0.0124 0.005,-7.9e-4 0.0106,-0.004 0.0159,-0.007 -0.003,0.003 -0.008,0.006 -0.0106,0.01 -0.003,8e-4 -0.005,0.002 -0.008,0.003 -0.0529,0.0129 -0.0849,0.0113 -0.13838,0.0129 -0.091,0.004 -0.0238,-5.3e-4 -0.11218,0.004 -0.0212,4e-5 -0.0212,0.0305 0,0.0305 0.0471,0 0.068,1.6e-4 0.1143,-0.004 0.0238,-0.004 0.0474,-0.005 0.0701,-0.008 0.0132,-0.002 0.0238,-0.002 0.0362,-0.003 -0.0185,0.0181 -0.0365,0.0374 -0.0574,0.0532 -0.15716,0.11995 -0.2032,0.12846 -0.37042,0.19895 -0.086,0.0465 -0.0185,0.16785 0.0661,0.12144 0.0521,-0.0362 0.1008,-0.0764 0.15504,-0.10852 0.0701,-0.0413 0.14447,-0.0732 0.2159,-0.1111 0.0294,-0.0155 0.0275,-0.0159 0.0471,-0.0264 -0.0185,0.0193 -0.0397,0.0467 -0.0444,0.0522 -0.0839,0.0992 -0.081,0.10137 -0.15399,0.21032 -0.068,0.0897 0.0587,0.18589 0.12674,0.0961 0.0265,-0.0315 0.0508,-0.0647 0.0781,-0.0951 0.0212,-0.025 0.0474,-0.0476 0.0706,-0.0718 -0.0159,0.11068 -0.032,0.24648 -0.045,0.34779 -0.0106,0.0811 -0.0212,0.16227 -0.0299,0.24339 -0.0106,0 -0.0106,0.0131 0,0.016 -0.003,0.0329 -0.008,0.0658 -0.0132,0.0987 0,0.004 0.0106,0.004 0.0106,0 0.008,-0.0588 0.008,-0.0589 0.0132,-0.0977 0.027,-7.9e-4 0.0534,-0.005 0.0807,-0.004 0.0852,0.002 0.0942,0.005 0.0982,0.007 -0.0132,0.0143 -0.0267,0.0291 -0.0408,0.0429 -0.15055,0.14313 -0.028,0.0109 -0.16351,0.1633 0,0.004 0,0.008 0.0106,0.004 0.0238,-0.0283 0.0479,-0.0587 0.0759,-0.0842 0.0288,-0.0262 0.063,-0.0462 0.0939,-0.0703 0.0212,-0.0157 0.0381,-0.0341 0.059,-0.0491 0.005,10e-4 0.005,0.002 0.0212,0.004 0.0585,0.29196 0.0929,0.44656 0.127,0.59479 v 8.2765 c 0,0.3577 0.28787,0.64544 0.64559,0.64544 h 0.73316 c 0.35771,0 0.64558,-0.28774 0.64558,-0.64544 V 166.3443 c 0.0537,-0.17617 0.0998,-0.33572 0.1741,-0.62322 0.0159,-0.0172 0.0304,-0.0354 0.0487,-0.0506 0.0558,-0.0482 0.19844,-0.14653 0.24686,-0.18655 0.054,-0.0448 0.10424,-0.095 0.15716,-0.14159 0.054,-0.0474 0.10848,-0.0934 0.16272,-0.14005 0.0106,-0.004 0,-0.0116 -0.0106,-0.008 -0.0238,0.0181 -0.0495,0.0363 -0.0743,0.0543 0,-0.004 -0.005,-0.009 -0.008,-0.0134 0,0.005 0.005,0.009 0.008,0.0139 -0.0328,0.0236 -0.0656,0.0471 -0.0976,0.0713 -0.0561,0.042 -0.10822,0.0879 -0.16537,0.12816 -0.0466,0.0324 -0.15875,0.099 -0.23204,0.13798 0.0497,-0.20253 0.0931,-0.39898 0.11404,-0.55501 0.008,-0.0474 0.008,-0.095 0.0185,-0.14262 0.005,-0.0426 0.0238,-0.0864 0.0569,-0.11421 0.10531,0.12064 0.21696,0.3209 0.29925,0.46044 -0.0458,-0.0808 -0.0886,-0.16271 -0.13706,-0.24133 -0.0929,-0.14922 -0.11324,-0.17955 -0.14631,-0.23048 0.0159,-0.01 0.0368,-0.014 0.0601,-0.0129 0.15637,0.0963 0.21643,0.21618 0.3466,0.38861 0.0212,0.0314 0.0661,5.3e-4 0.0439,-0.031 -0.068,-0.11371 -0.12435,-0.23553 -0.20452,-0.34106 0.0648,0.0415 0.12832,0.0841 0.18441,0.13642 0.0751,0.0701 0.12383,0.16474 0.18548,0.24702 0.0812,0.0984 0.22013,-0.0163 0.13917,-0.11473 -0.0841,-0.0716 -0.17569,-0.1364 -0.25374,-0.21492 -0.10318,-0.10337 -0.17489,-0.23736 -0.28839,-0.32918 -0.0439,-0.0356 -0.0942,-0.0613 -0.14632,-0.0842 0.0185,0.002 0.045,0.0146 0.21458,0.003 0.0669,-0.005 0.13229,-0.0217 0.19844,-0.0326 0.14314,0.001 0.14525,-0.2012 0,-0.20257 -0.0762,-0.003 -0.1532,-0.0125 -0.2294,-0.008 -0.0132,0.002 -0.12356,0.0222 -0.23071,0.0419 0.10742,-0.11441 0.22092,-0.22356 0.33125,-0.33487 0.10213,-0.11707 -0.0643,-0.26124 -0.16589,-0.14417 -0.0429,0.0576 -0.0796,0.12003 -0.12859,0.17311 -0.0132,0.0143 -0.0185,0.0161 -0.0294,0.0284 -0.0463,0.0143 -0.0664,-0.0191 -0.0786,-0.062 0.0426,-0.12935 0.045,-0.13324 0.1741,-0.38188 0,-5.3e-4 0,-10e-4 0,-0.002 0.13891,-0.079 0.28416,-0.14581 0.42624,-0.2186 0.031,-0.0139 0.0106,-0.0573 -0.0185,-0.0434 -0.11827,0.054 -0.2368,0.1085 -0.3556,0.16227 0.0339,-0.0642 0.0675,-0.12852 0.10134,-0.19276 0.0212,-0.046 -0.0431,-0.077 -0.0651,-0.031 -0.0529,0.0908 -0.1053,0.1824 -0.16007,0.27234 -0.003,0.006 -0.003,0.004 -0.005,0.009 -0.0511,0.0226 -0.10346,0.0419 -0.15505,0.0636 -0.0278,-0.1654 -0.0622,-0.33017 -0.0982,-0.49455 0.0384,-0.002 0.0799,-0.001 0.16325,0.003 0.0751,0.004 0.15081,0.004 0.22384,0.0202 0.0511,0.0113 0.0958,0.0431 0.14367,0.0646 0.0299,0.009 0.0418,-0.0323 0.0132,-0.0413 -0.0521,-0.01 -0.10371,-0.0213 -0.15557,-0.0305 -0.13309,-0.0236 -0.2667,-0.0442 -0.39952,-0.0698 -0.0408,-0.18754 -0.0796,-0.37545 -0.0992,-0.56586 -0.0106,-0.10081 -0.0159,-0.20256 -0.0238,-0.30385 0.077,0.0729 0.1815,0.18392 0.20478,0.21135 0.0569,0.0678 0.11325,0.13771 0.16484,0.21033 0.10742,0.15181 0.15346,0.24228 0.24024,0.39687 0.0106,0.0113 0.0238,0.003 0.0159,-0.01 -0.0349,-0.0549 -0.0717,-0.10955 -0.10637,-0.16485 -0.0479,-0.0759 -0.0899,-0.15594 -0.14208,-0.22892 -0.0521,-0.0725 -0.11721,-0.13494 -0.17012,-0.20671 -0.045,-0.0613 -0.0786,-0.13034 -0.12383,-0.19172 -0.0397,-0.054 -0.0646,-0.0828 -0.0905,-0.108 -0.008,-0.12083 -0.0185,-0.24128 -0.0238,-0.36225 0.027,0.0194 0.055,0.0375 0.0807,0.0584 0.19288,0.15674 0.17224,0.14712 0.32914,0.32297 0,0.004 0.0106,-0.001 0.0106,-0.004 -0.046,-0.0555 -0.0881,-0.11386 -0.13758,-0.16639 -0.0569,-0.0607 -0.12171,-0.11312 -0.17965,-0.17261 -0.13415,-0.13705 -0.11324,-0.11897 -0.10451,-0.11317 -0.003,-0.16596 0,-0.33159 0.0132,-0.49661 0.008,-0.0837 0.0267,-0.16591 0.0495,-0.24753 0.0132,0.033 0.0355,0.0915 0.0394,0.10542 0.0238,0.0891 0.0347,0.18156 0.0526,0.27234 0.045,0.14217 0.24606,0.0792 0.20161,-0.063 -0.032,-0.0849 -0.0712,-0.16747 -0.0953,-0.25477 -0.0463,-0.16702 -0.0558,-0.25002 -0.0624,-0.35346 0.0294,-0.005 0.0677,0.012 0.11483,0.0636 0.0579,0.0809 0.11377,0.16321 0.17409,0.24236 0.47387,0.62128 0.12171,0.11263 0.47017,0.63252 0.0579,0.0821 0.17489,-5e-5 0.11694,-0.0822 -0.063,-0.0889 -0.12303,-0.18012 -0.18812,-0.26717 -0.0931,-0.1246 -0.1987,-0.24006 -0.28839,-0.36741 -0.0773,-0.10965 -0.14235,-0.22774 -0.21352,-0.34159 0.0212,0.008 0.045,0.0143 0.0662,0.0243 0.28786,0.16734 0.14605,0.0976 0.42492,0.21498 0.14763,0.0541 0.2241,-0.15469 0.077,-0.20878 -0.13017,-0.0475 -0.29951,-0.10592 -0.42069,-0.16639 -0.0413,-0.0205 -0.13705,-0.082 -0.22754,-0.1385 -0.005,-0.006 -0.0106,-0.0119 -0.0159,-0.0181 0.0323,-0.003 0.0638,-0.004 0.12144,-0.004 0.064,2.7e-4 0.12779,0.007 0.19182,0.0108 0.0185,0.001 0.0212,-0.0257 0,-0.0269 -0.064,-0.006 -0.12885,-0.0139 -0.19341,-0.0207 -0.11033,-0.0117 -0.13996,-0.0135 -0.16272,-0.0165 -0.0439,-0.0696 -0.0706,-0.14289 -0.0791,-0.19275 -0.005,-0.0335 -0.0159,-0.0691 -0.0212,-0.10335 0.1008,0.0269 0.20029,0.0596 0.29765,0.11627 0.11827,0.0688 0.21088,0.17435 0.31618,0.26148 0.0159,0.0113 0.0302,-0.009 0.0159,-0.0207 -0.21616,-0.18412 -0.43127,-0.37139 -0.66569,-0.53227 -0.0132,-0.061 -0.0238,-0.11811 -0.0397,-0.17776 0.0529,0.0339 0.10292,0.0756 0.18388,0.16536 0.082,0.0909 0.14843,0.19455 0.22278,0.29198 0.0212,0.0329 0.0691,0.001 0.0471,-0.031 -0.072,-0.10448 -0.14208,-0.2097 -0.21458,-0.31365 -0.18838,-0.27058 -0.10716,-0.17656 -0.29924,-0.36225 0,-0.001 -0.003,-0.001 -0.005,-0.002 -0.0212,-0.0742 -0.0265,-0.0943 -0.0439,-0.15451 v -4.86428 c 0.0212,-0.34585 0.059,-0.91357 0.13573,-1.35599 0.0238,0.0148 0.0476,0.028 0.0688,0.0455 0.0238,0.0191 0.0452,0.0399 0.0651,0.0625 0.0212,0.024 0.0389,0.051 0.0579,0.0765 0.0132,0.0185 0.0405,-5.3e-4 0.0265,-0.0191 -0.077,-0.10111 -0.0413,-0.0566 -0.12197,-0.15193 -0.0185,-0.0212 -0.0344,-0.0445 -0.0542,-0.0636 -0.008,-0.009 -0.0212,-0.0144 -0.032,-0.0207 0,-0.002 0,-0.004 0,-0.006 0.0185,-0.10194 0.0384,-0.20283 0.0553,-0.30283 0.0106,-0.0619 0.0106,-0.11643 0.0548,-0.0754 0.18177,0.44438 -0.046,-0.18869 0.1008,0.22945 0.0106,0.0182 0.0328,0.008 0.0265,-0.01 -0.0185,-0.0354 -0.0397,-0.0693 -0.0537,-0.10646 -0.0521,-0.13608 -0.0288,-0.11345 -0.0558,-0.22789 0,-0.0227 -0.0159,-0.0443 -0.0212,-0.0672 v -0.0222 c 0.003,10e-4 0.005,8e-4 0.008,0.002 0.11139,0.0554 0.19314,0.14242 0.25902,0.24598 0.063,0.0999 0.0661,0.0829 0.0212,0.12867 -0.0106,0.0946 0.12171,0.11118 0.13335,0.0165 -0.0106,-0.0281 -0.0106,-0.0585 -0.0185,-0.0848 -0.0489,-0.10851 -0.12012,-0.1738 -0.20823,-0.25528 -0.0238,-0.022 -0.0426,-0.0361 -0.0635,-0.0538 0.036,0.008 0.0709,0.0164 0.12515,0.0377 0.0468,0.0186 0.0886,0.0474 0.13362,0.0713 0.0442,0.023 0.0762,-0.0386 0.0331,-0.0615 -0.0479,-0.026 -0.0942,-0.0563 -0.14367,-0.078 -0.28046,-0.12272 -0.20823,-0.0801 -0.23442,-0.0951 0.14658,-0.0836 0.0397,-0.0208 0.32041,-0.21342 0.0529,-0.0363 0.10769,-0.0698 0.16166,-0.1049 0.0238,-0.0168 0,-0.051 -0.0238,-0.0341 -0.0519,0.0349 -0.10107,0.0758 -0.15716,0.10438 -0.1143,0.0581 -0.16008,0.0781 -0.19527,0.0925 -0.069,0.0147 -0.10662,-0.0922 -0.0971,-0.15916 0.003,-0.0254 0.005,-0.052 0.008,-0.0775 0.0362,-0.053 0.0354,-0.0551 0.11483,-0.14314 0.04,-0.0441 0.0767,-0.0903 0.12144,-0.13023 0.0106,-0.009 0.0212,-0.0154 0.0304,-0.0238 -0.0106,0.007 -0.0212,0.0145 -0.0304,0.0222 -0.0471,0.0368 -0.091,0.0768 -0.13652,0.11576 -0.031,0.0264 -0.0598,0.0548 -0.0913,0.0801 0,-0.004 0,-0.009 0,-0.0129 0.0333,-0.0293 0.0653,-0.0621 0.0921,-0.093 0.0619,-0.0707 0.13547,-0.15979 0.186,-0.23875 0.0341,-0.0528 0.0622,-0.10889 0.0931,-0.16329 -0.0701,0.11154 -0.10848,0.18688 -0.19579,0.28267 -0.032,0.0348 -0.0691,0.0644 -0.10399,0.0961 -0.0212,0.0195 -0.041,0.0413 -0.0651,0.0579 0.003,-0.0344 0.008,-0.0692 0.0106,-0.10387 0.0577,-0.0763 -0.005,0.007 0.18653,-0.20309 0.0529,-0.0576 0.1061,-0.11544 0.1524,-0.17828 0.0265,-0.0356 0.0474,-0.0744 0.0699,-0.11266 0.0566,0.001 0.11377,0.005 0.17357,0.015 0.072,0.0113 0.14023,0.0414 0.20981,0.062 0.0439,0.0113 0.0606,-0.0504 0.0159,-0.062 -0.34581,-0.0815 -0.15055,-0.0446 -0.37783,-0.0517 -0.0349,-0.001 -0.0519,-2e-4 -0.11165,-0.004 -0.0238,-0.002 -0.0442,-0.006 -0.0667,-0.009 0.0339,-0.0161 0.0458,-0.0252 0.0966,-0.0475 0.096,-0.0425 0.19394,-0.0892 0.29765,-0.10593 0.05,-0.008 0.0987,0.0226 0.14843,0.0341 0.19288,-0.0293 0.15161,-0.30216 -0.0407,-0.27285 -0.17807,0.0891 -0.25876,0.13505 -0.4699,0.20515 -0.0796,0.0264 -0.10531,0.0322 -0.15081,0.0455 0.0132,-0.0195 0.0275,-0.0395 0.045,-0.0563 0.0281,-0.0277 0.0553,-0.0475 0.0825,-0.0698 -0.0309,0.0191 -0.0624,0.0392 -0.0939,0.0553 0.0542,-0.0662 0.10213,-0.12384 0.22675,-0.26458 0.43047,-0.48508 0.12117,-0.10574 0.36274,-0.40773 0.0881,-0.1606 -0.1397,-0.28465 -0.22728,-0.12402 -0.0431,0.23173 -0.0159,0.18355 -0.22331,0.45888 -0.0624,0.0828 -0.11165,0.14516 -0.15663,0.19741 -0.0106,0.008 -0.0185,0.0109 -0.0283,0.0145 0.0106,-0.0273 0.0212,-0.0543 0.031,-0.0816 0.0238,-0.0646 0.0439,-0.12645 0.072,-0.18913 0.0339,-0.0765 0.0212,-0.0261 0.032,-0.076 0,-0.0484 -0.0693,-0.0481 -0.0683,5.2e-4 0.027,0.0167 0.0159,0.005 0,0.0636 -0.0185,0.0844 -0.0286,0.10385 -0.0646,0.18914 -0.0265,0.0601 -0.0381,0.0764 -0.0482,0.0966 -0.0278,-0.0242 -0.0331,-0.0946 -0.0331,-0.16226 -0.008,-0.24058 -0.0273,-0.4809 -0.0482,-0.7214 0.0106,-0.0212 0.0185,-0.0431 0.0275,-0.0646 0.0159,0.007 0.037,0.0184 0.0548,0.0274 0.005,0.003 0.0212,0.0133 0.0238,0.0139 0.0781,0.0675 0.14313,0.17761 0.19949,0.26148 0,0.006 0.0132,1.6e-4 0.0106,-0.005 -0.0548,-0.0783 -0.118,-0.16831 -0.18097,-0.24391 0.0106,0.006 0.0159,0.007 0.0286,0.0145 0.0648,0.0363 0.12595,0.0798 0.18918,0.11989 0.0349,0.0234 0.068,-0.0263 0.0331,-0.0496 -0.0622,-0.0446 -0.12224,-0.0923 -0.1868,-0.13384 -0.0783,-0.0507 -0.10874,-0.0689 -0.14102,-0.0884 0.0265,-0.0928 0.0447,-0.18734 0.0699,-0.2806 0.0106,-0.0399 0.0212,-0.0796 0.0331,-0.11937 -0.0283,0.0938 -0.0714,0.16427 -0.12038,0.24443 -0.0619,0.0456 -0.0704,-0.0507 -0.0812,-0.16847 -0.0212,-0.21846 -0.0381,-0.43722 -0.0532,-0.65629 0.008,-0.005 0.0132,-0.009 0.0212,-0.0139 0.028,-0.0195 0.0574,-0.0386 0.0844,-0.0594 0.17409,-0.13208 0.0984,-0.0794 0.17092,-0.1385 0.0185,2.7e-4 0.0286,-0.002 0.0526,-0.001 0.028,0.001 0.0558,0.006 0.0849,0.009 0.027,5.3e-4 0.0278,-0.038 0,-0.0388 -0.0281,0.004 -0.0569,0.0103 -0.0849,0.0103 -0.008,-2e-5 -0.0159,-0.002 -0.0238,-0.002 0.005,-0.005 0,-1.7e-4 0.008,-0.006 0.0212,-0.0164 0.0436,-0.0307 0.0667,-0.046 0.0212,-0.0161 0,-0.045 -0.0238,-0.0289 -0.0455,0.0564 -0.0553,0.0681 -0.0725,0.0796 -0.0265,-0.003 -0.0516,-0.005 -0.0775,-0.007 -0.0349,-0.003 -0.0706,-0.004 -0.10583,-0.006 -0.003,-2e-4 -0.005,-2.7e-4 -0.008,-5.3e-4 0.10001,-0.0776 0.19738,-0.15901 0.29977,-0.23357 0.0619,-0.0452 0.10186,-0.0671 0.1606,-0.10077 0.0471,-0.0678 -0.028,-0.13426 -0.0852,-0.10283 -0.0106,-0.0162 -0.0212,-0.0332 -0.0357,-0.047 -0.045,-0.0443 -0.095,-0.0833 -0.14367,-0.12402 -0.26935,-0.22608 -0.0691,-0.0473 -0.28311,-0.24185 0,-0.001 0,-2.6e-4 -0.003,-0.001 0.0106,-0.14507 0.0185,-0.28973 0.0265,-0.4346 0.0466,0.056 0.0868,0.11646 0.127,0.17725 0.15425,0.23508 0.15161,0.2448 0.25691,0.46664 -0.0325,-0.0728 -0.0622,-0.14721 -0.0997,-0.21755 -0.046,-0.0863 -0.10028,-0.16759 -0.15187,-0.25064 -0.10372,-0.16653 -0.11668,-0.18386 -0.13124,-0.21083 0,-0.0386 0,-0.0772 0.003,-0.11576 0.0106,5.3e-4 0.0212,-7e-5 0.0315,0.003 0.0722,0.0204 0.16325,0.0701 0.21352,0.12557 0.0238,0.0252 0.0331,0.0597 0.0492,0.0894 0.0106,0.017 0.0347,2.7e-4 0.0238,-0.0165 -0.0185,-0.03 -0.0349,-0.0638 -0.0587,-0.0899 -0.0572,-0.0604 -0.14472,-0.10978 -0.2196,-0.14366 -0.0132,-0.005 -0.0238,-0.009 -0.0378,-0.0134 0.003,-0.144 0.005,-0.28817 -0.005,-0.4315 0.10928,0.16416 0.0947,0.13593 0.23522,0.44184 0.0106,0.0202 0.0381,0.008 0.0291,-0.0129 -0.16457,-0.3598 -0.0998,-0.20116 -0.22331,-0.54726 0.0669,0.0488 0.12541,0.10729 0.1995,0.22841 0.0328,0.0536 0.0378,0.11939 0.0569,0.17932 0.0759,0.14789 0.28496,0.0409 0.20929,-0.10697 -0.0482,-0.058 -0.0982,-0.11407 -0.14314,-0.17415 -0.10451,-0.13949 -0.11377,-0.15958 -0.13547,-0.19379 0.31274,0.1455 0,0.0435 0.19897,0.10387 0.17727,0.0549 0.25479,-0.19578 0.0781,-0.25063 -0.1233,-0.004 0,0.008 -0.19182,-0.0641 -0.0659,-0.0244 -0.13891,-0.0316 -0.20294,-0.061 -0.0407,-0.0186 -0.0783,-0.0432 -0.11536,-0.0682 0.0579,-0.0347 0.0511,-0.0319 0.15664,-0.0873 0.0609,-0.0227 0.0288,-0.11009 -0.032,-0.0873 -0.0841,0.0255 -0.10107,0.0336 -0.12303,0.0414 0.0238,-0.0233 0.0476,-0.0463 0.0688,-0.0713 0.0968,-0.1138 0.2167,-0.27449 0.27173,-0.41238 0.036,-0.0897 0.0479,-0.18705 0.0717,-0.2806 0,-0.006 -0.0106,-0.009 -0.0106,-0.003 -0.0349,0.0864 -0.0619,0.17601 -0.1053,0.2589 -0.04,0.077 -0.09,0.1488 -0.14156,0.2186 -0.0505,0.0682 -0.11139,0.13196 -0.17515,0.1912 -0.0704,0.0184 -0.0773,-0.0584 -0.0865,-0.11576 -0.0701,-0.50179 -0.14393,-1.002 -0.14393,-1.002 l -0.0132,0.0222 v -3.90467 c 0,-0.3576 -0.28787,-0.64544 -0.64559,-0.64544 z m 2.02882,7.67499 c 0.003,0.008 0.008,0.0158 0.0106,0.0238 v -0.001 c -0.005,-0.0117 -0.005,-0.0121 -0.0106,-0.0227 z m -0.1561,1.47122 c 0.0185,-0.0687 0.0376,-0.13742 0.0579,-0.20567 0.0328,-0.10978 0.0709,-0.21987 0.10795,-0.32866 -0.0132,-0.0947 -0.14763,-0.0761 -0.1344,0.0186 0.0889,0.12096 0.0741,0.0686 0.0212,0.30799 -0.0212,0.0956 -0.037,0.15996 -0.0516,0.20774 z m 0.10742,1.49914 c 0.0212,-0.0128 0.0415,-0.0232 0.0627,-0.0388 0.027,-0.0202 0.0516,-0.0443 0.0765,-0.0677 -0.0474,0.033 -0.0947,0.0704 -0.13917,0.10645 z m 0.13917,-0.10646 c 0.0265,-0.0181 0.05,-0.0349 0.0783,-0.0553 0.15584,-0.11154 0.0728,-0.0672 0.20531,-0.12764 0.0238,-0.0182 0,-0.0508 -0.0264,-0.0326 -0.12462,0.1341 0.0185,-0.0111 -0.18548,0.15193 -0.0238,0.02 -0.0489,0.0415 -0.0722,0.0636 z m -0.15981,0.87489 c 0.0373,-0.0276 0.0754,-0.0546 0.11324,-0.0816 0.003,-0.002 0,-0.001 0.005,-0.003 -0.041,0.0246 -0.0804,0.0532 -0.11774,0.0848 z m 0.11774,-0.0848 c 0.0378,-0.0225 0.0765,-0.044 0.11906,-0.0599 0.0132,-0.006 0.0294,-0.006 0.0444,-0.008 0.028,0.0389 0.0841,-2.7e-4 0.0561,-0.0403 -0.0159,-0.004 -0.0299,-0.008 -0.0447,-0.0114 -0.0966,0.0613 -0.0611,0.0378 -0.17489,0.11937 z m -2.94534,20.90981 c 0,0.005 -0.003,0.0111 -0.005,0.016 -0.0106,0.0424 -0.0159,0.0856 -0.0265,0.12816 0.0106,-0.0427 0.0185,-0.0854 0.0275,-0.12816 0,-0.005 0,-0.0107 0,-0.016 z m -0.0751,-1.03818 c -0.005,0.0404 -0.0106,0.0897 -0.0315,0.23978 0.0106,-0.0799 0.0212,-0.15988 0.0315,-0.23978 z m -0.40455,-1.90066 c -0.0132,0.002 -0.0238,7.9e-4 -0.0368,0.004 0,2.6e-4 0,0.001 -0.003,0.002 0,-1.2e-4 0.005,7.9e-4 0.008,5.3e-4 0.0106,-0.001 0.0212,-0.004 0.0325,-0.006 z m -0.0402,0.005 c -0.0159,7.9e-4 -0.0344,-0.003 -0.0519,-0.004 -0.0185,0.003 -0.0159,0.0304 0,0.0274 0.0159,-0.008 0.0333,-0.0188 0.0519,-0.0238 z m 3.00382,-21.78939 c 0.10663,0.0636 0.18494,0.10753 0.28945,0.19379 0.049,0.0402 0.0958,0.083 0.136,0.13177 0.0132,0.0154 0.0185,0.0353 0.0238,0.0543 -0.003,0.003 -0.005,0.005 -0.008,0.008 0,0.0113 0.0132,0.0223 0.0106,0.032 -0.0738,0.14406 -0.12277,0.13153 -0.26856,0.22479 -0.12171,0.0776 -0.14234,0.098 -0.16139,0.10956 0.005,-0.006 0.0106,-0.0127 0.0159,-0.0202 0.0212,-0.0377 0.032,-0.0788 0.049,-0.11782 0.0212,-0.0512 0.0452,-0.10233 0.0672,-0.15348 0.0212,-0.046 -0.0431,-0.0764 -0.0651,-0.0305 -0.0545,0.0877 -0.0651,0.10049 -0.0781,0.12041 -0.0294,0.002 -0.0318,-0.0411 -0.031,-0.0894 0.003,-0.15434 0.0106,-0.30901 0.0212,-0.46354 z m 0.24606,0.83871 c -0.0159,0.009 -0.0185,0.009 -0.0516,0.0325 -0.0659,0.0434 -0.12568,0.0851 -0.19659,0.11421 0,-0.0365 -0.005,-0.073 -0.008,-0.10955 0.0159,-0.0101 0.0288,-0.021 0.0434,-0.0315 0.0238,-0.002 0.046,-0.002 0.0688,-0.003 0.0627,-0.003 0.1016,-0.002 0.14314,-0.003 z m 0.26458,2.60811 c -0.0238,0.0379 -0.0447,0.0766 -0.0714,0.11162 -0.0468,0.0618 -0.1016,0.11811 -0.15637,0.17363 -0.0844,0.0856 -0.12145,0.11444 -0.17383,0.1509 0.005,-0.0679 0.0159,-0.13343 0.0212,-0.20257 0.005,-0.0787 0.0238,-0.15235 0.145,-0.21188 0.0775,-0.0141 0.15557,-0.023 0.23574,-0.0217 z m -0.38602,12.75114 c -0.008,0.0131 -0.0288,0.0481 -0.0362,0.0584 0,-0.0107 -0.003,-0.0214 -0.005,-0.032 0.0132,-0.009 0.027,-0.0171 0.0402,-0.0264 z m -2.989,4.90977 c -0.0185,0.007 -0.0238,0.0359 0,0.047 0.0106,-0.005 0.0185,-0.0195 0.0281,-0.0134 0.0106,0.009 0.0185,0.0202 0.0283,0.032 -0.0159,-0.0177 -0.0212,-0.0211 -0.0352,-0.0646 -0.008,-0.004 -0.0159,-0.004 -0.0212,-0.001 z m 0.37253,4.7439 c 0.0212,0.16528 0.0529,0.34823 0.0931,0.55139 -0.005,0.004 -0.0106,0.009 -0.0159,0.0134 0.0185,0.001 0.0352,0.003 -0.12753,0.0114 -0.0265,0 -0.0524,-7.9e-4 -0.0786,-0.004 0.0212,-0.19111 0.0212,-0.21147 0.0931,-0.45578 0.0212,-0.0721 0.0281,-0.0958 0.0355,-0.11679 z"
       sodipodi:nodetypes="sscscssscccssccssscssscsscccscccccscscscccccsccccccccccsccccsscsccccccscssscccsccccccsccccccccccccsccccccsccssccccccccccccscscscscscccscccccccccccsscccccscccccccscsccccssccccscsccsccsccccsscccsssscccsscccccsscccccccccccsccsscsccccccsccsccccccscccssccscccssccssssccsccsscscsccsccscssscccssccsscscscsccccsccssccccssssssccsccccccccscccscsssscscsscscsscsscccscssccsscsccsscssccscscccccsccsscccsccccsccccsccscsccscsccsccscsccccscsccscsccccsscccscscscccccsccscccssccccssccssccccsssccsccsccsccscccsccsccscccscccccscscccccscsccccccsscccscsscccsccsccccccsscsccccccsccccscccccsc" />
  </g>
</svg>
