<?xml version="1.0" encoding="UTF-8" standalone="no"?>
<svg
   xmlns:dc="http://purl.org/dc/elements/1.1/"
   xmlns:cc="http://creativecommons.org/ns#"
   xmlns:rdf="http://www.w3.org/1999/02/22-rdf-syntax-ns#"
   xmlns:svg="http://www.w3.org/2000/svg"
   xmlns="http://www.w3.org/2000/svg"
   xmlns:sodipodi="http://sodipodi.sourceforge.net/DTD/sodipodi-0.dtd"
   xmlns:inkscape="http://www.inkscape.org/namespaces/inkscape"
   inkscape:export-ydpi="96"
   inkscape:export-xdpi="96"
   inkscape:export-filename="D:\Calcatz\Icon Pack\Adventure Narative Inspired by Arrival\GUI\Inventory\png\text_scroll_bar - background_detail_3.png"
   sodipodi:docname="text_scroll_bar - background_detail_3.svg"
   inkscape:version="1.0 (4035a4fb49, 2020-05-01)"
   id="svg6402"
   version="1.1"
   viewBox="0 0 1.5513525 8.1814203"
   height="8.1814203mm"
   width="1.5513525mm">
  <defs
     id="defs6396" />
  <sodipodi:namedview
     inkscape:window-maximized="1"
     inkscape:window-y="-8"
     inkscape:window-x="-8"
     inkscape:window-height="705"
     inkscape:window-width="1366"
     fit-margin-bottom="0"
     fit-margin-right="0"
     fit-margin-left="0"
     fit-margin-top="0"
     showgrid="false"
     inkscape:document-rotation="0"
     inkscape:current-layer="layer1"
     inkscape:document-units="mm"
     inkscape:cy="19.548877"
     inkscape:cx="26.490847"
     inkscape:zoom="10.738351"
     inkscape:pageshadow="2"
     inkscape:pageopacity="0.0"
     borderopacity="1.0"
     bordercolor="#666666"
     pagecolor="#ffffff"
     id="base" />
  <metadata
     id="metadata6399">
    <rdf:RDF>
      <cc:Work
         rdf:about="">
        <dc:format>image/svg+xml</dc:format>
        <dc:type
           rdf:resource="http://purl.org/dc/dcmitype/StillImage" />
        <dc:title></dc:title>
      </cc:Work>
    </rdf:RDF>
  </metadata>
  <g
     transform="translate(108.00505,11.186773)"
     id="layer1"
     inkscape:groupmode="layer"
     inkscape:label="Layer 1">
    <path
       transform="matrix(0.26458333,0,0,0.26458333,-108.00505,-11.186773)"
       d="M 4.3652344 0 C 4.3652344 0 3.5548146 3.1972524 3.09375 5.4082031 C 3.0420084 5.6574785 2.9385547 5.9701285 2.7402344 6.2089844 C 2.6962729 6.2342979 2.669231 6.2562242 2.5957031 6.2890625 C 2.4513252 6.3536282 2.2963682 6.3887641 2.1484375 6.4433594 C 1.9791147 6.5060239 1.812758 6.5751107 1.6445312 6.640625 C 1.4922163 6.6999674 1.5762007 6.9152836 1.7285156 6.8554688 C 1.9008621 6.7937528 2.0734827 6.7335909 2.2460938 6.671875 C 2.3620223 6.6234629 2.4769774 6.5742138 2.59375 6.5273438 C 2.5701861 6.5479416 2.5669033 6.5472488 2.4375 6.6582031 C 2.1340039 6.9183593 2.124261 6.9114586 1.8144531 7.234375 C 1.7184531 7.3340714 1.6289519 7.4399502 1.5371094 7.5429688 C 1.5333298 7.547731 1.5400218 7.5574966 1.5488281 7.5527344 C 1.6410486 7.4497158 1.7229274 7.3386137 1.8242188 7.2441406 C 2.0230219 7.0585167 2.2673189 6.892206 2.4960938 6.7421875 C 2.5773536 6.6890171 2.6586599 6.6357857 2.7421875 6.5859375 C 2.7865495 6.5578841 2.8333584 6.5343532 2.8789062 6.5097656 C 2.7660278 7.1162646 2.6491512 7.7240845 2.5507812 8.3339844 C 2.5151523 8.5483496 2.4617217 8.8638489 2.3085938 8.875 C 2.3054168 8.8735732 2.3020131 8.8724963 2.2988281 8.8710938 C 2.2746648 8.860467 2.2506507 8.8505887 2.2265625 8.8398438 C 2.1072745 8.7293233 1.992333 8.626159 1.8769531 8.484375 C 1.750339 8.328186 1.6503051 8.1521682 1.53125 7.9902344 C 1.45167 7.8819796 1.4428628 7.8782861 1.4101562 7.8417969 C 1.4456301 7.8943105 1.4769189 7.951403 1.5136719 8.0019531 C 1.7655151 8.3497746 1.8461173 8.4931401 1.9882812 8.7324219 C 1.950424 8.7152797 1.9129407 8.6986513 1.875 8.6816406 C 1.6675039 8.5914422 1.5389756 8.8848834 1.7460938 8.9746094 C 1.990644 9.082225 1.9315345 9.0540254 2.1367188 9.1328125 C 1.8462688 9.1747996 1.5690237 9.2058868 1.203125 9.1933594 C 0.54533602 9.1007836 0.83523755 9.1206625 0.33203125 9.1054688 C -0.16448529 9.1657598 -0.078661171 9.8686482 0.41796875 9.8085938 C 0.49544906 9.7800961 0.56988669 9.7412242 0.65039062 9.7246094 C 1.152204 9.6206475 1.6628954 9.6085188 2.1660156 9.6816406 C 2.0033548 9.7705133 1.8373951 9.8545538 1.6757812 9.9453125 C 1.6743564 9.9464663 1.6732998 9.948065 1.671875 9.9492188 C 1.5696398 9.959582 1.6286553 9.9588878 1.1171875 10.066406 C 0.99877212 10.093302 0.8797594 10.114253 0.75976562 10.130859 C 0.87915412 10.111844 1.0002263 10.100232 1.1210938 10.091797 C 1.3618645 10.071414 1.4485833 10.066432 1.5234375 10.068359 C 1.252982 10.28731 0.98336306 10.505741 0.71289062 10.724609 C 0.54545755 10.844243 0.71282158 11.083 0.88085938 10.962891 C 1.2187491 10.750681 1.5459832 10.520292 1.8945312 10.326172 C 1.9653989 10.286595 2.0417873 10.257238 2.1152344 10.222656 C 2.281905 10.214501 2.3170613 10.493208 2.3125 10.714844 C 2.305361 11.003363 2.3188182 11.29088 2.3417969 11.578125 C 2.2741157 11.584809 2.2066554 11.597474 2.1386719 11.59375 C 1.8922467 11.588988 1.8060027 11.54278 1.5644531 11.501953 C 1.4174295 11.478218 1.2148027 11.459554 1.0644531 11.445312 C 0.99453187 11.426339 0.92576796 11.408609 0.85546875 11.388672 C 0.78554749 11.379185 0.76992249 11.475885 0.83984375 11.486328 C 0.91052092 11.495815 0.98205721 11.510045 1.0527344 11.519531 C 1.3770178 11.5765 1.2078025 11.5625 1.5546875 11.5625 C 1.6529552 11.576749 1.7462382 11.616782 1.84375 11.636719 C 1.9382382 11.655692 2.0352373 11.660695 2.1308594 11.679688 C 2.3423683 11.717663 2.3407364 11.708742 2.3535156 11.712891 C 2.3758393 11.955689 2.4046489 12.198995 2.4375 12.441406 C 2.3598292 12.444958 2.2809742 12.454164 2.2050781 12.439453 C 1.9310624 12.385807 1.339914 12.144063 1.1113281 12.007812 C 0.96846198 11.922834 0.85117242 11.802237 0.72070312 11.699219 C 0.62583698 11.62706 0.52427448 11.761826 0.61914062 11.833984 C 0.76200677 11.9389 0.89796161 12.053016 1.046875 12.148438 C 1.2187634 12.258435 1.3944307 12.362093 1.578125 12.449219 C 1.5756158 12.449277 1.5748229 12.449151 1.5722656 12.449219 C 1.3734625 12.449836 1.2483116 12.471934 1.0488281 12.498047 C 0.97588324 12.48856 0.90302301 12.484096 0.83007812 12.474609 C 0.74844033 12.479372 0.75789136 12.596016 0.84179688 12.589844 C 0.91247404 12.580357 0.98401033 12.57699 1.0546875 12.572266 C 1.2043568 12.571269 1.4124783 12.565829 1.5644531 12.580078 C 1.6370201 12.58484 1.709061 12.599032 1.78125 12.613281 C 1.8447461 12.622768 1.9099161 12.629185 1.9726562 12.638672 C 2.0233019 12.648158 2.0704481 12.666298 2.1210938 12.675781 C 2.1517759 12.680077 2.1810512 12.678038 2.2109375 12.677734 C 2.3207424 12.715259 2.4042772 12.746421 2.4785156 12.771484 C 2.5210819 13.068105 2.553694 13.365104 2.5917969 13.662109 C 2.4920371 13.731763 2.3996773 13.802413 2.2714844 13.865234 C 2.1800198 13.912709 2.0812576 13.937217 1.9882812 13.978516 C 1.8994624 14.016496 1.8126724 14.062213 1.7246094 14.103516 C 1.6686724 14.132013 1.7097514 14.213505 1.7675781 14.183594 C 2.229512 13.907295 1.786312 14.154698 2.3007812 13.929688 C 2.5914098 13.804148 2.5972751 13.79155 2.6074219 13.785156 C 2.6309513 13.978051 2.6664107 14.169919 2.6816406 14.363281 C 2.6910187 14.444167 2.6514713 14.954825 2.4628906 15.371094 C 2.4505192 15.378692 2.465107 15.381981 2.2988281 15.425781 C 2.2209699 15.444754 2.1410508 15.467909 2.0605469 15.472656 C 1.987602 15.472656 1.7752484 15.453702 1.6894531 15.439453 C 1.6554374 15.425204 1.618756 15.419681 1.5839844 15.410156 C 1.5613072 15.410156 1.5414525 15.410733 1.5195312 15.396484 C 1.3910273 15.382236 1.3730712 15.564832 1.5019531 15.578125 C 1.5246303 15.563876 1.5487058 15.563318 1.5683594 15.558594 C 1.6065326 15.558594 1.6438453 15.573401 1.6816406 15.578125 C 1.7360658 15.5786 1.7916559 15.564453 1.8457031 15.564453 C 1.9201598 15.550204 1.9939027 15.549646 2.0683594 15.544922 C 2.151509 15.544922 2.2352098 15.545499 2.3183594 15.53125 C 2.3398952 15.528982 2.3613408 15.527841 2.3828125 15.525391 C 2.3816109 15.527369 2.3801173 15.529281 2.3789062 15.53125 C 2.298806 15.566467 2.2185053 15.601769 2.1367188 15.632812 C 1.838514 15.745801 1.671375 15.806923 1.359375 15.833984 C 1.295123 15.833984 1.2306455 15.820313 1.1660156 15.820312 C 0.97174791 15.834561 0.986617 16.105674 1.1816406 16.095703 C 1.6217288 16.046804 1.2003477 16.108317 1.7734375 15.951172 C 1.8975693 15.919022 2.0245935 15.893329 2.1503906 15.865234 C 2.0856299 15.941443 2.012517 16.012093 1.9609375 16.097656 C 1.546021 16.786121 1.4294475 17.411812 1.2265625 18.197266 C 1.1075074 18.658711 1.0004825 19.122831 0.88671875 19.585938 C 0.83267151 19.81571 1.1572682 19.891882 1.2109375 19.662109 C 1.592632 17.916024 1.3146771 18.712188 2.0332031 17.179688 C 2.1499905 16.93045 2.2403877 16.667734 2.3847656 16.433594 C 2.4206764 16.37544 2.4435216 16.366392 2.4746094 16.322266 C 2.4669594 16.355699 2.4741655 16.362294 2.4570312 16.433594 C 2.4343541 16.525217 2.3968601 16.614988 2.3847656 16.708984 C 2.3620885 16.868496 2.3668073 17.02899 2.3554688 17.189453 C 2.3487547 17.237644 2.3425172 17.285802 2.3359375 17.333984 C 2.3568945 17.194196 2.381119 17.089057 2.4667969 16.730469 C 2.489474 16.638845 2.5037862 16.544328 2.5351562 16.455078 C 2.5653925 16.373425 2.6088136 16.300935 2.6386719 16.220703 C 2.6560497 16.170061 2.6684934 16.116588 2.6835938 16.064453 C 2.6955244 16.054327 2.7123384 16.032842 2.7246094 16.023438 C 2.7160893 16.27089 2.6925508 16.518698 2.6972656 16.765625 C 2.7229079 17.719802 2.8306114 18.675396 2.9121094 19.628906 C 2.7647456 19.689464 2.6435119 19.729567 2.4882812 19.804688 C 2.4108009 19.842668 2.1428005 19.999713 2.0527344 20.041016 C 1.991884 20.069513 1.9275966 20.088541 1.8652344 20.111328 C 1.8081635 20.135064 1.8360119 20.214193 1.8964844 20.191406 C 2.1145631 20.107376 2.0796389 20.128927 2.2890625 20.009766 C 2.3665428 19.967038 2.4382714 19.910551 2.5195312 19.873047 C 2.6004131 19.835066 2.686445 19.81227 2.7714844 19.787109 C 2.8245145 19.771148 2.8461411 19.770955 2.8808594 19.761719 C 2.7629691 19.889049 2.7813044 19.889748 2.421875 20.466797 C 2.2812766 20.691822 2.1127278 20.900428 1.984375 21.132812 C 1.6408159 21.757472 1.6414488 21.859905 1.4667969 22.470703 C 1.4478992 22.553781 1.563197 22.584491 1.5839844 22.5 C 1.6217797 22.312479 1.6310605 22.117093 1.6953125 21.9375 C 1.7901786 21.673545 1.9248618 21.425127 2.0605469 21.179688 C 2.2336822 20.867328 2.5604982 20.362186 2.8554688 20.091797 C 2.8456829 20.120176 2.8375589 20.14869 2.8300781 20.177734 C 2.807401 20.269358 2.792523 20.364459 2.7675781 20.457031 C 2.7373419 20.571441 2.6972612 20.681512 2.6738281 20.796875 C 2.6398124 20.961133 2.6245543 21.129523 2.5996094 21.294922 C 2.6570582 21.039989 2.7337613 20.726498 2.8203125 20.472656 C 2.8543282 20.381033 2.8917655 20.292851 2.9257812 20.203125 C 2.9372933 20.1727 2.9368151 20.171002 2.9453125 20.148438 C 2.9982297 20.89058 3.0309419 21.632078 2.9746094 22.373047 C 2.9431813 22.807167 2.7627782 23.214372 2.4785156 23.599609 C 2.28551 23.624117 2.0936837 23.65766 1.8945312 23.638672 C 1.7505313 23.624423 1.6117551 23.576254 1.4707031 23.544922 C 1.3338842 23.516424 1.2912934 23.706417 1.4277344 23.736328 C 1.7543329 23.833489 1.8991785 23.885192 2.1679688 23.916016 C 2.1209036 23.958819 2.0727354 24.000124 2.0273438 24.044922 C 2.0611072 23.997206 2.0352238 23.919878 1.9550781 23.925781 L 1.9550781 23.921875 C 1.5775033 23.995935 1.7840005 23.969293 1.3359375 23.988281 C 1.3057013 23.988519 1.3053611 24.03125 1.3359375 24.03125 C 1.7869107 24.064472 1.576006 24.051104 1.9648438 24.080078 C 1.9897051 24.076835 2.0068689 24.064474 2.0195312 24.050781 C 2.0073799 24.062796 1.9945408 24.073884 1.9824219 24.085938 C 1.9717699 24.088955 1.9619515 24.095126 1.9511719 24.097656 C 1.7512349 24.146556 1.6306572 24.140312 1.4277344 24.146484 C 1.0853092 24.160733 1.335761 24.147243 1.0019531 24.162109 C 0.92031533 24.162252 0.92061769 24.277344 1.0019531 24.277344 C 1.1784571 24.277344 1.2566741 24.275113 1.4335938 24.261719 C 1.5224126 24.24747 1.6107778 24.243899 1.6992188 24.234375 C 1.744629 24.227301 1.7901969 24.225611 1.8359375 24.222656 C 1.7656183 24.290078 1.6984784 24.360866 1.6210938 24.419922 C 1.0268008 24.873296 0.8529425 24.905452 0.22070312 25.171875 C -0.10433625 25.347529 0.14566375 25.808228 0.47070312 25.632812 C 0.66572675 25.496088 0.85182803 25.344187 1.0566406 25.222656 C 1.3196957 25.066467 1.6007441 24.944152 1.8710938 24.800781 C 1.9994158 24.732713 1.9973797 24.728676 2.078125 24.685547 C 2.0045192 24.767044 1.9155753 24.875843 1.8964844 24.898438 C 1.5790041 25.27348 1.5902075 25.283525 1.3144531 25.695312 C 1.0582012 26.034276 1.5370947 26.395792 1.7929688 26.056641 C 1.8912365 25.93748 1.9839536 25.812152 2.0878906 25.697266 C 2.167726 25.609035 2.2561716 25.528129 2.3398438 25.443359 C 2.2787593 25.858787 2.2184374 26.362484 2.171875 26.740234 C 2.1340297 27.047443 2.0949484 27.354843 2.0566406 27.662109 C 2.0130971 27.662109 2.0146963 27.713138 2.0507812 27.722656 C 2.0353528 27.846363 2.0193503 27.970052 2.0039062 28.09375 C 2.0026212 28.107999 2.0234375 28.107999 2.0234375 28.09375 C 2.0524148 27.873329 2.0511607 27.87425 2.0683594 27.728516 C 2.1770402 27.727297 2.286166 27.710283 2.3945312 27.714844 C 2.7130571 27.723758 2.7443964 27.730627 2.7597656 27.740234 C 2.7083917 27.793861 2.659062 27.849201 2.6054688 27.900391 C 2.0370278 28.441354 2.500823 27.943391 1.9882812 28.519531 C 1.9769427 28.53378 1.9907413 28.547452 2.0058594 28.533203 C 2.1011035 28.426386 2.187142 28.311214 2.2929688 28.214844 C 2.4021971 28.115624 2.5320281 28.040366 2.6484375 27.949219 C 2.7252621 27.889196 2.7939116 27.818863 2.8730469 27.761719 C 2.8854859 27.767141 2.9104052 27.771876 2.9609375 27.779297 C 3.2844376 29.390453 3.640625 30.921875 3.640625 30.921875 L 5.8066406 22.261719 L 5.8613281 5.9980469 L 4.3652344 0 z M 2.5996094 21.294922 C 2.5614361 21.464403 2.5277151 21.633348 2.4921875 21.802734 C 2.491545 21.802734 2.4960938 21.80188 2.4960938 21.802734 C 2.5301095 21.633253 2.5614361 21.463737 2.5996094 21.294922 z M 2.3359375 17.333984 C 2.3290808 17.37972 2.3082706 17.538127 2.3007812 17.599609 C 2.3125678 17.511111 2.3238496 17.422503 2.3359375 17.333984 z M 2.3007812 17.599609 C 2.2734779 17.804614 2.2461894 18.009842 2.21875 18.214844 C 2.2183343 18.214844 2.2226185 18.214227 2.2226562 18.214844 C 2.2735449 17.836766 2.2839035 17.738165 2.3007812 17.599609 z M 0.75976562 10.130859 C 0.73135359 10.135385 0.70194551 10.134239 0.67382812 10.140625 C 0.66957472 10.141579 0.66629601 10.14535 0.66210938 10.146484 C 0.66664373 10.146107 0.67124964 10.147065 0.67578125 10.146484 C 0.70416616 10.143683 0.73154204 10.134765 0.75976562 10.130859 z M 0.66210938 10.146484 C 0.59252016 10.152272 0.52302696 10.137283 0.453125 10.132812 C 0.38018012 10.142299 0.39422995 10.247723 0.46679688 10.236328 C 0.53163469 10.205014 0.59338019 10.165104 0.66210938 10.146484 z M 1.171875 7.5683594 C 1.1034892 7.5962206 1.0817021 7.7040815 1.1738281 7.7460938 C 1.2078439 7.7271205 1.2486827 7.6720495 1.2792969 7.6953125 C 1.3262437 7.7304346 1.3604542 7.7776081 1.3945312 7.8261719 C 1.3258491 7.7515908 1.309729 7.7412599 1.2539062 7.5722656 C 1.2231976 7.5582606 1.1946703 7.5590723 1.171875 7.5683594 z M 2.5683594 25.480469 C 2.6512109 26.110557 2.7698147 26.813564 2.9238281 27.591797 C 2.9064811 27.605787 2.8905102 27.620854 2.8730469 27.634766 C 2.9447719 27.639018 2.9975891 27.645677 2.3945312 27.675781 C 2.2891134 27.675781 2.1819834 27.674031 2.0761719 27.662109 C 2.1599447 26.940671 2.1532108 26.864468 2.4296875 25.941406 C 2.5149796 25.65683 2.5390502 25.560389 2.5683594 25.480469 z "
       style="fill:#7f7f7f;fill-opacity:1;stroke:none;stroke-width:1.25608px;stroke-linecap:butt;stroke-linejoin:miter;stroke-opacity:1"
       id="path8972" />
  </g>
</svg>
