<?xml version="1.0" encoding="UTF-8" standalone="no"?>
<svg
   xmlns:dc="http://purl.org/dc/elements/1.1/"
   xmlns:cc="http://creativecommons.org/ns#"
   xmlns:rdf="http://www.w3.org/1999/02/22-rdf-syntax-ns#"
   xmlns:svg="http://www.w3.org/2000/svg"
   xmlns="http://www.w3.org/2000/svg"
   xmlns:sodipodi="http://sodipodi.sourceforge.net/DTD/sodipodi-0.dtd"
   xmlns:inkscape="http://www.inkscape.org/namespaces/inkscape"
   inkscape:export-ydpi="96"
   inkscape:export-xdpi="96"
   inkscape:export-filename="D:\Calcatz\Icon Pack\Adventure Narative Inspired by Arrival\GUI\Inventory\png\text_scroll_bar - background_detail_1.png"
   sodipodi:docname="text_scroll_bar - background_detail_1.svg"
   inkscape:version="1.0 (4035a4fb49, 2020-05-01)"
   id="svg5014"
   version="1.1"
   viewBox="0 0 2.2457995 10.053917"
   height="10.053917mm"
   width="2.2457995mm">
  <defs
     id="defs5008" />
  <sodipodi:namedview
     inkscape:window-maximized="1"
     inkscape:window-y="-8"
     inkscape:window-x="-8"
     inkscape:window-height="705"
     inkscape:window-width="1366"
     fit-margin-bottom="0"
     fit-margin-right="0"
     fit-margin-left="0"
     fit-margin-top="0"
     showgrid="false"
     inkscape:document-rotation="0"
     inkscape:current-layer="layer1"
     inkscape:document-units="mm"
     inkscape:cy="14.243591"
     inkscape:cx="2.5502222"
     inkscape:zoom="7.593161"
     inkscape:pageshadow="2"
     inkscape:pageopacity="0.0"
     borderopacity="1.0"
     bordercolor="#666666"
     pagecolor="#ffffff"
     id="base" />
  <metadata
     id="metadata5011">
    <rdf:RDF>
      <cc:Work
         rdf:about="">
        <dc:format>image/svg+xml</dc:format>
        <dc:type
           rdf:resource="http://purl.org/dc/dcmitype/StillImage" />
        <dc:title></dc:title>
      </cc:Work>
    </rdf:RDF>
  </metadata>
  <g
     transform="translate(-106.89493,-192.87431)"
     id="layer1"
     inkscape:groupmode="layer"
     inkscape:label="Layer 1">
    <path
       transform="matrix(0.26458333,0,0,0.26458333,106.89493,192.87431)"
       d="M 3.7734375 0 L 1.3320312 3.8847656 L 0 19.041016 L 2.6640625 36.802734 L 3.640625 37.998047 C 3.640625 37.998047 3.8402748 33.865666 4.234375 31.597656 C 4.3222976 31.653752 4.4137568 31.703215 4.4941406 31.769531 C 4.5818257 31.84172 4.6653997 31.920442 4.7402344 32.005859 C 4.8199824 32.096568 4.8860395 32.198544 4.9589844 32.294922 C 5.0111419 32.364843 5.1087981 32.290624 5.0566406 32.220703 C 4.7667509 31.838517 4.9034701 32.008626 4.5957031 31.648438 C 4.5272937 31.568312 4.4677274 31.480392 4.390625 31.408203 C 4.3559008 31.374804 4.3129055 31.353608 4.2714844 31.330078 C 4.2726456 31.324029 4.2742261 31.314609 4.2753906 31.308594 C 4.3498473 30.923309 4.4193671 30.542015 4.484375 30.164062 C 4.5244894 29.92994 4.5205244 29.723713 4.6914062 29.878906 C 5.3778346 31.558689 4.5177578 29.165703 5.0742188 30.746094 C 5.104455 30.814881 5.2002215 30.775441 5.171875 30.707031 C 5.1034656 30.573236 5.0197103 30.447126 4.9667969 30.306641 C 4.7706394 29.792323 4.8574653 29.877842 4.7539062 29.445312 C 4.7350086 29.359517 4.6901435 29.277957 4.6757812 29.191406 C 4.6710747 29.16301 4.6750315 29.1343 4.6757812 29.105469 C 4.6875966 29.110041 4.7014701 29.1095 4.7128906 29.115234 C 5.1340056 29.32462 5.4409114 29.653514 5.6894531 30.044922 C 5.9290752 30.422497 5.9403659 30.358148 5.7695312 30.53125 C 5.7268226 30.888793 6.2313969 30.951407 6.2753906 30.59375 C 6.2527135 30.487545 6.2445731 30.373217 6.1992188 30.273438 C 6.0125101 29.863245 5.7452369 29.61655 5.4121094 29.308594 C 5.322209 29.225434 5.2508653 29.172307 5.171875 29.105469 C 5.3080792 29.13498 5.4396833 29.167339 5.6445312 29.248047 C 5.822547 29.318346 5.9813324 29.427247 6.1503906 29.517578 C 6.315556 29.604507 6.4386029 29.371707 6.2734375 29.285156 C 6.093154 29.186889 5.9204534 29.07225 5.7324219 28.990234 C 4.6703071 28.525876 4.9449578 28.688461 4.84375 28.630859 C 5.4060688 28.310219 4.995723 28.554142 6.0585938 27.824219 C 6.2585308 27.687022 6.4644034 27.56032 6.6679688 27.427734 C 6.7601892 27.364238 6.6721096 27.234954 6.5800781 27.298828 C 6.3820309 27.430734 6.1965955 27.585454 5.984375 27.693359 C 5.5519768 27.912954 5.3812171 27.98848 5.2480469 28.042969 C 4.988221 28.097888 4.848348 27.694273 4.8808594 27.441406 C 4.8925003 27.344811 4.8990052 27.243376 4.9101562 27.146484 C 5.0455574 26.948678 5.042372 26.938814 5.3417969 26.607422 C 5.4922221 26.440745 5.6341419 26.264009 5.8007812 26.113281 C 5.8374122 26.080172 5.878691 26.056838 5.9160156 26.025391 C 5.8774432 26.053944 5.8366205 26.079748 5.7988281 26.109375 C 5.6211903 26.248462 5.4543023 26.399738 5.2832031 26.546875 C 5.1684827 26.645442 5.0590779 26.750773 4.9414062 26.845703 C 4.943099 26.830269 4.9436315 26.814273 4.9453125 26.798828 C 5.0695208 26.688733 5.1889575 26.56534 5.2910156 26.449219 C 5.5253463 26.182006 5.8033123 25.845306 5.9941406 25.546875 C 6.1141768 25.359363 6.2152183 25.160607 6.3242188 24.966797 C 6.0770942 25.365612 5.9249557 25.648131 5.6054688 25.998047 C 5.4852798 26.129574 5.3447205 26.241517 5.2128906 26.361328 C 5.1322828 26.434338 5.0565491 26.515545 4.96875 26.578125 C 4.9823948 26.448132 4.9949507 26.316438 5.0078125 26.185547 C 5.2211967 25.903363 4.9863973 26.211715 5.7109375 25.419922 C 5.9104966 25.201843 6.1117015 24.983637 6.2871094 24.746094 C 6.3855576 24.612885 6.4651182 24.467662 6.5488281 24.324219 C 6.463371 24.466155 6.3819635 24.610887 6.28125 24.742188 C 6.1017224 24.975762 5.8963823 25.188598 5.6894531 25.398438 C 5.3686351 25.724074 5.2295904 25.831441 5.0292969 25.970703 C 5.0537038 25.71298 5.0857397 25.463605 5.1074219 25.201172 C 5.1319955 24.903574 5.1953407 24.627316 5.65625 24.402344 C 6.1577566 24.310996 6.6609208 24.287644 7.2089844 24.376953 C 7.4807324 24.419662 7.7362646 24.53347 8 24.611328 C 8.1662992 24.654037 8.2284213 24.420796 8.0625 24.376953 C 6.7574586 24.069469 7.4938783 24.20777 6.640625 24.181641 C 6.6647469 24.142115 6.689887 24.10342 6.7148438 24.064453 C 6.7135587 24.0657 6.7096903 24.065032 6.7109375 24.0625 C 6.6862689 24.102326 6.6605906 24.141242 6.6367188 24.181641 C 6.5045673 24.177539 6.4398547 24.180877 6.2128906 24.166016 C 6.1236621 24.160211 6.0454886 24.144087 5.9609375 24.132812 C 6.0889109 24.072089 6.1343675 24.037583 6.3261719 23.953125 C 6.6901404 23.792495 7.0583656 23.614013 7.4511719 23.550781 C 7.6409042 23.520545 7.8261317 23.638176 8.0136719 23.681641 C 8.7425538 23.5709 8.5861148 22.53965 7.8574219 22.650391 C 7.1847794 22.987147 6.8801541 23.158883 6.0820312 23.423828 C 5.7815997 23.523555 5.6833753 23.547433 5.5117188 23.597656 C 5.5655899 23.523945 5.6169341 23.446542 5.6816406 23.382812 C 5.7854769 23.280556 5.8854172 23.209428 5.9863281 23.126953 C 5.8721923 23.197144 5.755199 23.270792 5.6386719 23.330078 C 5.8436439 23.079734 6.0243691 22.861989 6.4960938 22.330078 C 8.1220843 20.496705 6.9539025 21.930442 7.8671875 20.789062 C 8.1986521 20.18207 7.3411924 19.713245 7.0097656 20.320312 C 6.8487578 21.19618 6.9480121 21.01407 6.1640625 22.054688 C 5.9277211 22.368517 5.7400438 22.604941 5.5703125 22.802734 C 5.5299841 22.832933 5.4990963 22.844567 5.4667969 22.857422 C 5.5061175 22.753739 5.5438734 22.649019 5.5820312 22.544922 C 5.672362 22.300764 5.7484448 22.06897 5.8535156 21.832031 C 5.9816416 21.542897 5.9319007 21.73352 5.9746094 21.544922 C 5.9733243 21.361993 5.7137099 21.363341 5.7148438 21.546875 C 5.8161351 21.609993 5.7741845 21.566763 5.7265625 21.787109 C 5.6536176 22.106102 5.6153345 22.179597 5.4785156 22.501953 C 5.3818109 22.730026 5.3357447 22.792313 5.296875 22.869141 C 5.1931466 22.779344 5.1753179 22.511253 5.1660156 22.253906 C 5.1363743 21.34465 5.0653322 20.436362 4.9863281 19.527344 C 5.0244455 19.447471 5.0534309 19.364399 5.0878906 19.283203 C 5.1440507 19.308743 5.2257169 19.351792 5.2910156 19.384766 C 5.3100141 19.396578 5.3777945 19.436835 5.3808594 19.439453 C 5.6737728 19.694193 5.9239691 20.110745 6.1367188 20.427734 C 6.1518369 20.450412 6.1835282 20.428348 6.1699219 20.408203 C 5.9617579 20.111664 5.7245978 19.770484 5.4863281 19.484375 C 5.5313184 19.508708 5.5480307 19.512379 5.5996094 19.541016 C 5.8460346 19.678212 6.0744654 19.842582 6.3125 19.994141 C 6.4455394 20.082582 6.5705394 19.894704 6.4375 19.806641 C 6.2024134 19.638074 5.9752943 19.457896 5.7324219 19.300781 C 5.2071718 18.960784 5.2581672 19.009407 5.1953125 18.980469 C 5.2961928 18.625522 5.3681686 18.263321 5.4628906 17.90625 C 5.5009822 17.762375 5.5444997 17.620065 5.5839844 17.476562 C 5.4800728 17.810005 5.3146688 18.083894 5.1347656 18.378906 C 4.9009537 18.55148 4.8678863 18.187313 4.8261719 17.742188 C 4.7486099 16.917785 4.679656 16.092314 4.6230469 15.265625 C 4.6506819 15.247134 4.6776531 15.22788 4.7050781 15.208984 C 4.8112828 15.135284 4.9186812 15.062989 5.0214844 14.984375 C 5.6805729 14.485204 5.3904486 14.684238 5.6679688 14.460938 C 5.7347411 14.462007 5.7781957 14.452574 5.8710938 14.457031 C 5.9784323 14.460811 6.0844456 14.478896 6.1914062 14.490234 C 6.2945874 14.492729 6.2985314 14.346774 6.1953125 14.34375 C 6.0879739 14.358868 5.9811414 14.382812 5.8730469 14.382812 C 5.8397756 14.382732 5.8066215 14.377281 5.7734375 14.375 C 5.7987198 14.355419 5.7731613 14.374337 5.8027344 14.351562 C 5.8832383 14.2892 5.970404 14.235561 6.0546875 14.177734 C 6.1325458 14.116884 6.0432067 14.007509 5.96875 14.068359 C 5.7984897 14.28038 5.7632403 14.324225 5.6992188 14.367188 C 5.6023793 14.357648 5.5050697 14.348718 5.4082031 14.34375 C 5.2744078 14.332411 5.1418345 14.329825 5.0078125 14.322266 C 4.9952948 14.321405 4.9866431 14.32127 4.9746094 14.320312 C 5.3522459 14.027334 5.7189308 13.718992 6.1054688 13.4375 C 6.3401774 13.266665 6.4910702 13.183784 6.7128906 13.056641 C 6.8921424 12.80052 6.6097276 12.549559 6.3925781 12.667969 C 6.3498908 12.606711 6.3107613 12.542681 6.2578125 12.490234 C 6.0873558 12.322801 5.8979997 12.175198 5.7148438 12.021484 C 4.6969036 11.167009 5.454484 11.842805 4.6445312 11.107422 C 4.6398722 11.103786 4.6355403 11.106193 4.6308594 11.103516 C 4.6665578 10.553917 4.6995192 10.005859 4.7265625 9.4570312 C 4.9029959 9.6692593 5.0575184 9.8998884 5.2089844 10.130859 C 5.5073837 10.58533 5.6390133 10.801942 5.7558594 11.021484 C 5.5879288 10.714661 5.397381 10.421958 5.2128906 10.125 C 4.8397114 9.5246515 4.7806925 9.44633 4.7304688 9.3574219 C 4.7377336 9.2017055 4.7372358 9.0462084 4.7421875 8.890625 C 4.7827312 8.8922853 4.8242194 8.8901886 4.8632812 8.9003906 C 5.1335175 8.977115 5.4799628 9.1653118 5.6699219 9.375 C 5.7564731 9.4702441 5.7931065 9.6006387 5.8554688 9.7128906 C 5.8981774 9.7767646 5.9903522 9.7141135 5.9472656 9.6503906 C 5.8728089 9.5370048 5.8163885 9.4091925 5.7226562 9.3105469 C 5.5057114 9.0822634 5.1739006 8.8956285 4.890625 8.7675781 C 4.8445692 8.7466885 4.7959505 8.7327837 4.7480469 8.7167969 C 4.7617925 8.1718927 4.7681022 7.6263338 4.7324219 7.0839844 C 5.1466607 7.706959 5.090907 7.5984606 5.6230469 8.7558594 C 5.6570626 8.8322058 5.7648625 8.7852675 5.7304688 8.7070312 C 5.1095492 7.3482716 5.3514321 7.9426908 4.8867188 6.6386719 C 5.1395787 6.8232912 5.3610395 7.0421623 5.640625 7.5 C 5.7645935 7.7025827 5.7836577 7.9532182 5.8554688 8.1796875 C 6.141579 8.7386418 6.932897 8.334156 6.6464844 7.7753906 C 6.4665789 7.556178 6.2756231 7.3442237 6.1054688 7.1171875 C 5.710264 6.5892108 5.6781148 6.5119744 5.5957031 6.3828125 C 6.7802372 6.9336678 5.598959 6.5489106 6.3457031 6.7773438 C 7.0155866 6.9848398 7.3104707 6.0373852 6.640625 5.8300781 C 6.1744203 5.81496 6.6543964 5.8596387 5.9140625 5.5878906 C 5.6634798 5.4956702 5.3913099 5.46854 5.1484375 5.3574219 C 4.9952841 5.2872083 4.8530987 5.194124 4.7128906 5.0996094 C 4.9340908 4.9673811 4.9045045 4.9776851 5.3046875 4.7675781 C 5.5375064 4.6817828 5.4160347 4.3534689 5.1835938 4.4394531 C 4.8644736 4.5362369 4.8005366 4.5662983 4.7167969 4.5957031 C 4.8059831 4.5073426 4.8968912 4.4214041 4.9785156 4.3261719 C 5.3466416 3.8960616 5.7977964 3.2887372 6.0058594 2.7675781 C 6.1411665 2.4285545 6.1854379 2.0606061 6.2753906 1.7070312 C 6.2867292 1.6843541 6.2535261 1.6726353 6.2421875 1.6953125 C 6.1091481 2.0218637 6.0061941 2.3624962 5.84375 2.6757812 C 5.6933248 2.9668049 5.5028615 3.2381421 5.3085938 3.5019531 C 5.1185735 3.7595538 4.8901544 4.0008157 4.6484375 4.2246094 C 4.3769131 4.2983637 4.3514936 4.0050306 4.3203125 3.7871094 C 4.0545739 1.8905802 3.7734375 0 3.7734375 0 z M 5.5839844 17.476562 C 5.5927262 17.448511 5.6042468 17.400496 5.6132812 17.369141 C 5.6033391 17.404906 5.5938323 17.440771 5.5839844 17.476562 z M 5.6132812 17.369141 C 5.6773876 17.13853 5.7381503 16.907071 5.8066406 16.677734 C 5.9306091 16.26278 6.0746233 15.846722 6.2148438 15.435547 C 6.164954 15.077626 5.6589434 15.147938 5.7089844 15.505859 C 6.0468741 15.963031 5.9893141 15.765141 5.7871094 16.669922 C 5.7152511 16.991702 5.6632805 17.195613 5.6132812 17.369141 z M 5.9863281 23.126953 C 6.0674665 23.077055 6.1482436 23.035435 6.2304688 22.974609 C 6.335182 22.897224 6.4284454 22.804499 6.5234375 22.714844 C 6.3395953 22.842605 6.1575235 22.987035 5.9863281 23.126953 z M 6.5234375 22.714844 C 6.6201467 22.647636 6.7106004 22.585506 6.8164062 22.509766 C 7.4053322 22.088197 7.0931638 22.255854 7.5917969 22.027344 C 7.6775922 21.958556 7.5795579 21.835509 7.4941406 21.904297 C 7.0222666 22.411094 7.5649373 21.86215 6.7929688 22.478516 C 6.6997579 22.55294 6.6104039 22.632763 6.5234375 22.714844 z M 6.3242188 24.966797 C 6.3327819 24.952977 6.3388464 24.943806 6.3476562 24.929688 C 6.3476562 24.929688 6.3457031 24.929688 6.3457031 24.929688 C 6.3386301 24.942099 6.3312216 24.954345 6.3242188 24.966797 z M 5.9160156 26.025391 C 6.0567029 25.921245 6.1994162 25.818836 6.3417969 25.716797 C 6.3499358 25.710962 6.3457508 25.714555 6.3535156 25.708984 C 6.2002233 25.801047 6.0554107 25.907945 5.9160156 26.025391 z M 6.3535156 25.708984 C 6.4984042 25.621969 6.6474551 25.539843 6.8105469 25.478516 C 6.8631713 25.458013 6.9205185 25.45593 6.9765625 25.449219 C 7.0841473 25.596261 7.2953953 25.447861 7.1894531 25.296875 C 7.1323823 25.281757 7.0750269 25.266379 7.0175781 25.253906 C 6.650581 25.487551 6.7973741 25.390535 6.3535156 25.708984 z M 5.7695312 11.044922 C 5.7920475 11.087613 5.8332486 11.1779 5.8554688 11.222656 C 5.8312303 11.173257 5.8130532 11.120824 5.7871094 11.072266 C 5.7819981 11.062697 5.7746953 11.054459 5.7695312 11.044922 z M 5.8554688 11.222656 C 5.9784414 11.473282 6.0885766 11.730534 6.2050781 11.984375 C 6.2050781 11.978063 6.2169236 11.96913 6.2207031 11.980469 C 6.0336323 11.589259 5.9501522 11.413371 5.8554688 11.222656 z M 4.6191406 11.292969 C 5.0208459 11.532845 5.3166665 11.699748 5.7109375 12.025391 C 5.8946225 12.177328 6.0751168 12.338997 6.2265625 12.523438 C 6.2744799 12.581605 6.2956367 12.656804 6.3222656 12.728516 C 6.3116999 12.73989 6.2987955 12.745891 6.2890625 12.759766 C 6.3004011 12.802474 6.3388955 12.84382 6.3222656 12.880859 C 6.0429585 13.425338 5.8603292 13.37799 5.3085938 13.730469 C 4.8679965 14.011828 4.7920339 14.088221 4.7226562 14.132812 C 4.7400653 14.112086 4.7588725 14.092087 4.7714844 14.068359 C 4.8470749 13.925871 4.8935352 13.770524 4.9570312 13.623047 C 5.0405588 13.429157 5.126654 13.236254 5.2109375 13.042969 C 5.2925753 12.86911 5.0464815 12.754632 4.9648438 12.927734 C 4.7599615 13.257414 4.7203173 13.303939 4.671875 13.378906 C 4.5562824 13.40039 4.535802 13.234563 4.5390625 13.044922 C 4.5488953 12.461621 4.5820941 11.877021 4.6191406 11.292969 z M 5.5488281 14.462891 C 5.4907374 14.497621 5.4845856 14.498841 5.3535156 14.585938 C 5.1052239 14.750931 4.8769249 14.909665 4.6074219 15.019531 C 4.5986398 14.881456 4.5876022 14.743635 4.5800781 14.605469 C 4.6372654 14.566728 4.6921702 14.524897 4.7480469 14.484375 C 4.8352818 14.476088 4.9221625 14.473889 5.0097656 14.470703 C 5.2460658 14.458876 5.393082 14.464345 5.5488281 14.462891 z "
       style="fill:#7f7f7f;fill-opacity:1;stroke:none;stroke-width:1.25608px;stroke-linecap:butt;stroke-linejoin:miter;stroke-opacity:1"
       id="path8872" />
  </g>
</svg>
