<?xml version="1.0" encoding="UTF-8" standalone="no"?>
<svg
   xmlns:dc="http://purl.org/dc/elements/1.1/"
   xmlns:cc="http://creativecommons.org/ns#"
   xmlns:rdf="http://www.w3.org/1999/02/22-rdf-syntax-ns#"
   xmlns:svg="http://www.w3.org/2000/svg"
   xmlns="http://www.w3.org/2000/svg"
   xmlns:sodipodi="http://sodipodi.sourceforge.net/DTD/sodipodi-0.dtd"
   xmlns:inkscape="http://www.inkscape.org/namespaces/inkscape"
   inkscape:export-ydpi="96"
   inkscape:export-xdpi="96"
   inkscape:export-filename="D:\Calcatz\Icon Pack\Adventure Narative Inspired by Arrival\GUI\Inventory\png\title_underline - line.png"
   sodipodi:docname="title_underline - line.svg"
   inkscape:version="1.0 (4035a4fb49, 2020-05-01)"
   id="svg3813"
   version="1.1"
   viewBox="0 0 63.567001 0.71458507"
   height="0.71458507mm"
   width="63.567001mm">
  <defs
     id="defs3807" />
  <sodipodi:namedview
     inkscape:window-maximized="1"
     inkscape:window-y="-8"
     inkscape:window-x="-8"
     inkscape:window-height="705"
     inkscape:window-width="1366"
     fit-margin-bottom="0"
     fit-margin-right="0"
     fit-margin-left="0"
     fit-margin-top="0"
     showgrid="false"
     inkscape:document-rotation="0"
     inkscape:current-layer="layer1"
     inkscape:document-units="mm"
     inkscape:cy="-31.574175"
     inkscape:cx="125.87702"
     inkscape:zoom="2.6845878"
     inkscape:pageshadow="2"
     inkscape:pageopacity="0.0"
     borderopacity="1.0"
     bordercolor="#666666"
     pagecolor="#ffffff"
     id="base" />
  <metadata
     id="metadata3810">
    <rdf:RDF>
      <cc:Work
         rdf:about="">
        <dc:format>image/svg+xml</dc:format>
        <dc:type
           rdf:resource="http://purl.org/dc/dcmitype/StillImage" />
        <dc:title></dc:title>
      </cc:Work>
    </rdf:RDF>
  </metadata>
  <g
     transform="translate(-31.2926,-322.11927)"
     id="layer1"
     inkscape:groupmode="layer"
     inkscape:label="Layer 1">
    <path
       style="fill:#1f2123;fill-opacity:1;stroke:none;stroke-width:0.264583px;stroke-linecap:butt;stroke-linejoin:miter;stroke-opacity:1"
       d="m 31.532825,322.71612 c 2.1664,-0.2243 2.2047,-0.022 6.47,-0.2692 2.776,-0.1606 5.5599,0.1679 8.3405,0.2284 2.976,0.065 5.9521,0.1337 8.9289,0.1474 2.5837,0.012 5.167402,-0.048 7.751201,-0.07 2.7579,-0.024 5.5158,-0.045 8.273798,-0.067 7.964001,0.072 7.563803,0.076 15.175402,0.1172 1.657401,0.01 3.3151,0.048 4.9724,0.022 1.045,-0.016 2.087599,-0.099 3.131499,-0.1487 0.395801,-0.019 0.367401,-0.5381 -0.028,-0.5195 -3.741399,-0.044 -3.7039,-0.085 -8.0756,0.099 -10.931199,0.4592 -3.431699,0.5401 -15.175299,0 l -8.273901,-0.071 c -2.5838,0.1356 -5.1634,0.39 -7.7512,0.4067 -2.9782,0.019 -5.9506,-0.3028 -8.9288,-0.2995 -2.7825,0 -5.5604,0.2122 -8.3405,0.3184 -1.5259,-0.1448 -3.0458,-0.3604 -4.5776,-0.4343 -0.6315,-0.031 -1.2616,0.081 -1.8925,0.122 -0.3207,0 -0.3207,0.4209 0,0.4209 z"
       id="path7733" />
  </g>
</svg>
