<?xml version="1.0" encoding="UTF-8" standalone="no"?>
<svg
   xmlns:dc="http://purl.org/dc/elements/1.1/"
   xmlns:cc="http://creativecommons.org/ns#"
   xmlns:rdf="http://www.w3.org/1999/02/22-rdf-syntax-ns#"
   xmlns:svg="http://www.w3.org/2000/svg"
   xmlns="http://www.w3.org/2000/svg"
   xmlns:sodipodi="http://sodipodi.sourceforge.net/DTD/sodipodi-0.dtd"
   xmlns:inkscape="http://www.inkscape.org/namespaces/inkscape"
   inkscape:export-ydpi="96"
   inkscape:export-xdpi="96"
   inkscape:export-filename="D:\Calcatz\Icon Pack\Adventure Narative Inspired by Arrival\GUI\Inventory\png\title_underline.png"
   sodipodi:docname="title_underline.svg"
   inkscape:version="1.0 (4035a4fb49, 2020-05-01)"
   id="svg3223"
   version="1.1"
   viewBox="0 0 63.567005 3.393501"
   height="3.393501mm"
   width="63.567005mm">
  <defs
     id="defs3217" />
  <sodipodi:namedview
     inkscape:window-maximized="1"
     inkscape:window-y="-8"
     inkscape:window-x="-8"
     inkscape:window-height="705"
     inkscape:window-width="1366"
     fit-margin-bottom="0"
     fit-margin-right="0"
     fit-margin-left="0"
     fit-margin-top="0"
     showgrid="false"
     inkscape:document-rotation="0"
     inkscape:current-layer="layer1"
     inkscape:document-units="mm"
     inkscape:cy="2.5306571"
     inkscape:cx="117.1011"
     inkscape:zoom="3.7965805"
     inkscape:pageshadow="2"
     inkscape:pageopacity="0.0"
     borderopacity="1.0"
     bordercolor="#666666"
     pagecolor="#ffffff"
     id="base" />
  <metadata
     id="metadata3220">
    <rdf:RDF>
      <cc:Work
         rdf:about="">
        <dc:format>image/svg+xml</dc:format>
        <dc:type
           rdf:resource="http://purl.org/dc/dcmitype/StillImage" />
        <dc:title></dc:title>
      </cc:Work>
    </rdf:RDF>
  </metadata>
  <g
     transform="translate(-74.049832,-146.46992)"
     id="layer1"
     inkscape:groupmode="layer"
     inkscape:label="Layer 1">
    <path
       id="path7101"
       d="m 74.290057,148.38714 c 2.1664,-0.2243 2.2047,-0.022 6.47,-0.2692 2.776,-0.1606 5.5599,0.1679 8.3405,0.2284 2.976,0.065 5.9521,0.1337 8.9289,0.1474 2.583703,0.012 5.167403,-0.048 7.751203,-0.07 2.7579,-0.024 5.5158,-0.045 8.2738,-0.067 7.964,0.072 7.5638,0.076 15.1754,0.1172 1.6574,0.01 3.3151,0.048 4.9724,0.022 1.045,-0.016 2.0876,-0.099 3.1315,-0.1487 0.3958,-0.019 0.3674,-0.5381 -0.028,-0.5195 -3.7414,-0.044 -3.7039,-0.085 -8.0756,0.099 -10.9312,0.4592 -3.4317,0.5401 -15.1753,0 l -8.2739,-0.071 c -2.5838,0.1356 -5.1634,0.39 -7.751203,0.4067 -2.9782,0.019 -5.9506,-0.3028 -8.9288,-0.2995 -2.7825,0 -5.5604,0.2122 -8.3405,0.3184 -1.5259,-0.1448 -3.0458,-0.3604 -4.5776,-0.4343 -0.6315,-0.031 -1.2616,0.081 -1.8925,0.122 -0.3207,0 -0.3207,0.4209 0,0.4209 z"
       style="fill:#1f2123;fill-opacity:1;stroke:none;stroke-width:0.264583px;stroke-linecap:butt;stroke-linejoin:miter;stroke-opacity:1" />
    <path
       id="path7103"
       d="m 91.160757,146.56364 c 0.049,0.1668 0.086,0.3362 0.1466,0.5004 0.01,0.024 0.015,0.039 0.023,0.06 -0.044,-0.1693 -0.096,-0.3257 -0.1687,-0.5607 0,0 0,0 0,0 z m 0.17,0.5607 c 0.024,0.091 0.046,0.1931 0.066,0.3089 -0.1191,0 -0.2314,-0.01 -0.3339,-0.012 -0.062,0 -0.1226,-0.01 -0.182,-0.01 -0.021,0 -0.041,0 -0.061,0 0.012,-0.013 0.024,-0.025 0.036,-0.038 0.047,-0.044 -0.028,-0.099 -0.074,-0.055 -0.041,0.029 -0.087,0.054 -0.1237,0.088 0,0 0,0 0,0 -0.01,0 -0.02,0 -0.03,0 0.03,-0.098 0.049,-0.1553 0.106,-0.2524 -0.053,0.08 -0.1139,0.1744 -0.1621,0.2505 -0.2002,-0.01 -0.3933,-0.01 -0.5804,0 0,0 0,-0.01 0,-0.01 0,0 0,0 0,0 0.097,-0.082 0.205,-0.1486 0.3288,-0.201 0.055,-0.023 0.1147,-0.035 0.172,-0.053 0.031,-0.012 0.012,-0.048 -0.02,-0.037 -0.1324,0.059 -0.2382,0.1044 -0.370599,0.1673 -0.037,0.017 -0.073,0.036 -0.109301,0.054 0,-0.026 0,-0.053 0.01,-0.079 0,-0.014 0,-0.028 0,-0.042 0.011,-0.01 0.029,-0.015 0.041,-0.021 0.067,-0.015 0.1342,-0.03 0.2009,-0.046 0,0 0,0 0,0 -0.099,0.024 -0.1284,0.031 -0.1989,0.047 0.068,-0.036 0.1344,-0.068 0.2432,-0.1236 0.016,-0.01 0,-0.027 -0.014,-0.019 -0.111201,0.058 -0.1905,0.099 -0.269601,0.1412 0,-0.059 0,-0.1172 0.01,-0.1757 0.01,-0.062 0.016,-0.123 0.024,-0.1845 0,-0.038 -0.061,-0.042 -0.064,0 -0.013,0.094 -0.04,0.3005 -0.058,0.397 -0.2353,0.056 -0.4042,0.099 -0.8124,0.2245 -0.018,0.01 -0.035,0.013 -0.053,0.019 -0.2417,0.023 -0.4821,0.052 -0.7269,0.089 0.079,-0.05 0.1627,-0.094 0.2684,-0.1305 0.1447,-0.05 0.2995,-0.076 0.4492,-0.1139 0.071,-0.016 0.043,-0.1001 -0.028,-0.084 -0.081,0.013 -0.1625,0.024 -0.2437,0.036 0.097,-0.036 0.194,-0.063 0.3802,-0.099 0.1726,-0.033 0.3502,-0.045 0.5253,-0.067 0,0 0,0 0,0 -0.1754,0.021 -0.3513,0.04 -0.5263,0.064 -0.092,0.013 -0.3823,0.06 -0.5728,0.091 0,0 0.01,-0.01 0.012,-0.013 0.06,-0.045 0.1202,-0.09 0.1836,-0.1328 0.2497,-0.168 0.5242,-0.3084 0.7863,-0.4626 0.029,-0.016 0,-0.051 -0.027,-0.034 -0.2697,0.1485 -0.5334,0.305 -0.8093,0.4455 -0.03,0.015 -0.061,0.029 -0.092,0.043 0.012,-0.026 0.029,-0.054 0.061,-0.095 0.042,-0.054 0.096,-0.1002 0.1441,-0.1503 0.015,-0.016 -0.012,-0.033 -0.027,-0.017 -0.046,0.053 -0.092,0.1049 -0.1368,0.158 -0.092,0.1095 -0.1009,0.123 -0.1203,0.1417 -0.1247,0.055 -0.2514,0.1062 -0.3735,0.1645 0.013,-0.025 0.025,-0.05 0.039,-0.075 0.035,-0.06 0.072,-0.1195 0.1091,-0.1786 0.037,-0.059 0.072,-0.118 0.1138,-0.1745 0.024,-0.034 0.056,-0.063 0.084,-0.095 0.016,-0.029 -0.034,-0.047 -0.049,-0.018 -0.014,0.037 -0.021,0.076 -0.04,0.1106 -0.071,0.1256 -0.1627,0.2224 -0.2561,0.3362 -0.034,0.041 -0.065,0.085 -0.1004,0.1251 -0.016,0.019 -0.037,0.034 -0.055,0.052 -0.1005,0.059 -0.1928,0.1278 -0.2846,0.1969 -0.054,0.031 -0.1111,0.057 -0.1697,0.079 0.037,-0.044 0.074,-0.089 0.1101,-0.1332 0.021,-0.021 -0.015,-0.047 -0.036,-0.025 -0.074,0.052 -0.1486,0.1037 -0.2229,0.1556 -0.013,0.019 -0.012,0.037 0,0.051 -0.1068,0.029 -0.2138,0.052 -0.3122,0.074 -0.05,0.013 -0.1081,0.031 -0.1629,0.046 0.014,-0.016 0.028,-0.032 0.043,-0.048 0.086,-0.088 0.3175,-0.3042 0.3983,-0.3804 0,0 0,-0.01 0,0 -0.073,0.069 -0.1451,0.1386 -0.2205,0.2056 -0.1202,0.1068 -0.1984,0.18 -0.345,0.2522 -0.016,0.01 -0.036,0.01 -0.054,0.011 -0.017,0.01 -0.027,0.015 -0.033,0.025 -0.3244,0.1 -0.6548,0.2108 -0.7461,0.2171 -0.023,0 -0.016,0.057 0,0.058 0.2959,0.021 0.7369,0.15539 1.0759,0.233 0.01,0 0.01,0.01 0.015,0.01 0.031,0.015 0.062,0.027 0.095,0.037 0.01,0.012 0.021,0.024 0.042,0.031 0.034,0.022 0.085,0.055 0.1148,0.078 0.024,0.019 0.051,0.036 0.069,0.059 0.046,0.061 0.044,0.095 0.054,0.161 0.037,0.076 0.166001,0.033 0.1292,-0.043 -0.011,-0.022 -0.021,-0.045 -0.032,-0.067 -0.016,-0.033 -0.034,-0.071 -0.055,-0.1086 0.026,0.013 0.052,0.026 0.079,0.038 0.067,0.034 0.1291,0.012 0.159101,-0.027 0.039,0.035 0.078,0.071 0.1363,0.1296 0.045,0.046 0.091,0.092 0.131699,0.1406 -0.038,-0.051 -0.072,-0.1033 -0.111099,-0.1536 -0.1335,-0.1733 -0.138801,-0.174 -0.1397,-0.1729 0,0 0,0 0,0 0.017,0 0.033,0 0.049,0 0,0 0,0 0,0 0.088,0.039 0.1517,0.095 0.2269,0.1475 0.041,0.029 0.078,0.062 0.1238,0.085 0.042,0.021 0.091,0.031 0.137299,0.047 0.03,0.011 0.059,0.022 0.089,0.033 0.068,0.01 0.086,-0.071 0.017,-0.081 -0.028,0 -0.056,0 -0.084,0.01 -0.044,-0.013 -0.091,-0.018 -0.130502,-0.038 -0.045,-0.024 -0.073,-0.064 -0.1148,-0.091 -0.04,-0.027 -0.087,-0.045 -0.1284,-0.071 -0.017,-0.01 -0.032,-0.022 -0.047,-0.034 0.1552,0.01 0.2989,0 0.4338,0 0.055,0.025 0.1117,0.048 0.1672,0.072 0.084,0.044 0.1687,0.089 0.2531,0.133 0.022,0.013 0.044,-0.014 0.022,-0.026 -0.084,-0.044 -0.1731,-0.082 -0.2511,-0.1332 -0.022,-0.015 -0.041,-0.032 -0.061,-0.049 0.058,0 0.115,0 0.169,0 0.1815,0.01 0.3879,0 0.56,0.086 0.013,0.065 0.029,0.1308 0.034,0.1969 0.01,-0.025 0.01,-0.07 0.011,-0.1719 0.044,0.027 0.084,0.061 0.1214,0.1036 0.019,0.028 0.037,0.054 0.056,0.083 0,0.01 -0.01,0.014 -0.01,0.024 0.014,0.077 0.016,0.077 0.026,0.1673 0,0.044 0.011,0.089 0.013,0.1338 0,0.049 0,0.099 0,0.148 0,0.031 0.053,0.03 0.052,0 0,-0.032 -0.013,-0.2417 -0.01,-0.2806 0,-0.021 0.01,-0.042 0.01,-0.062 0.058,0.092 0.111501,0.185 0.144701,0.2667 0.041,0.1009 0.05,0.2088 0.075,0.3133 0.064,0.1768 0.3633,0.1018 0.2997,-0.075 -0.041,-0.10671 -0.076,-0.21461 -0.1216,-0.32011 -0.02,-0.046 -0.024,-0.052 -0.039,-0.086 0,0 0,0 0,0 0.036,0.037 0.069,0.078 0.1035,0.1158 0.102999,0.11251 0.2126,0.2272 0.3177,0.3381 0,0 0,0 0,0 -0.055,-0.06 -0.115001,-0.1172 -0.165901,-0.1799 -0.07,-0.086 -0.092,-0.1187 -0.106,-0.14519 0.079,0.06 0.1374,0.083 0.249501,0.1368 0.1729,0.07 0.292299,-0.13361 0.119399,-0.20401 -0.153699,-0.022 -0.130399,-0.01 -0.285299,-0.127 -0.1411,-0.1109 -0.313801,-0.2901 -0.4152,-0.4283 0,0 0,0 0,0 0,1.1e-4 0,0 0,0 0.03,0.014 0.062,0.027 0.1695,0.07 0.087,0.035 0.1717,0.077 0.2628,0.1049 0.1531,0.047 0.6811,0.1621 0.8292,0.1843 0.07,0.011 0.141599,0.016 0.212999,0.021 -0.071,-0.01 -0.140897,-0.017 -0.210497,-0.03 -0.1455,-0.027 -0.2889,-0.062 -0.4311,-0.1 -0.1277,-0.034 -0.2557,-0.068 -0.3779,-0.1141 -0.044,-0.017 -0.1037,-0.045 -0.1644,-0.077 -0.032,-0.038 0.081,-0.055 0.2079,-0.06 0.4447,0.08 0.8631,0.1766 1.3225,0.2761 0,0 0,0 0,0 -0.462,-0.1 -0.8689,-0.1921 -1.3073,-0.2743 0.01,0 0.015,0 0.023,0 0.2174,0 0.4626,-0.01 0.7483,-0.013 0.2194,0 0.386,-0.011 0.5482,-0.018 0.015,0.012 0.029,0.023 0.044,0.035 0.1167,0.088 0.3296,0.2419 0.4351,0.3119 0.1144,0.076 0.2334,0.1471 0.35,0.2206 0.01,0 0.016,0 0.01,-0.01 -0.3732,-0.23259 -0.3038,-0.1697 -0.604,-0.4246 -0.05,-0.042 -0.1025,-0.082 -0.143,-0.1305 0,0 0,0 0,0 0.026,0.011 0.052,0.022 0.076,0.035 0.071,0.039 0.1797,0.1147 0.2465,0.16001 0.061,0.037 0.1245,-0.035 0.064,-0.072 -0.03,-0.019 -0.06,-0.038 -0.089,-0.057 0.085,0.024 0.171,0.046 0.256,0.07 0.1045,0.03 0.2059,0.067 0.3123,0.092 0.533,0.1235 0.3549,0.068 0.29,0.048 0,0 -0.01,0 -0.01,0 -0.094,-0.012 -0.186299,-0.033 -0.277699,-0.055 -0.1058,-0.026 -0.2112,-0.054 -0.3132,-0.089 -0.1185,-0.041 -0.2306,-0.094 -0.3412,-0.14881 0.1061,-0.01 0.2203,-0.012 0.2986,-0.018 0.3287,-0.026 0.6749,0.071 0.7753,0.12 0.077,0.044 0.1562,0.086 0.2259,0.13811 0.032,0.024 0.062,0.05 0.092,0.076 -0.095,-0.1006 -0.1261,-0.1495 -0.3001,-0.31 -0.015,-0.014 -0.033,-0.027 -0.05,-0.04 0.091,0.03 0.223,0.082 0.4424,0.1433 0.1371,0.042 0.2794,0.073 0.4159,0.116 0.2443,0.077 0.48,0.174 0.7282,0.2421 0.2719,0.075 0.5545,0.1181 0.8292,0.1849 0.1843,0.045 0.365,0.1 0.5474,0.1499 0.1767,0.022 0.2148,-0.1863 0.038,-0.2087 -0.1858,0 -0.3761,0.023 -0.5575,-0.011 -0.4419,-0.083 -0.8283,-0.2451 -1.2015,-0.4316 0.046,0 0.091,0 0.1369,0 0.1597,0.033 0.3207,0.06 0.4827,0.083 -0.049,-0.01 -0.1033,-0.014 -0.1382,-0.021 -0.075,-0.015 -0.1349,-0.035 -0.1916,-0.057 0.1333,0.01 0.2665,0.018 0.3993,0.025 0.037,0 0.3321,0.016 0.416,0.02 0.069,0 0.066,-0.084 0,-0.082 -0.047,0.013 -0.091,0.035 -0.1405,0.039 -0.089,0.01 -0.1803,0 -0.2699,0 -0.1087,-0.01 -0.2165,-0.022 -0.3243,-0.035 -0.059,-0.01 -0.071,-0.01 -0.109,-0.015 -0.071,-0.056 0.085,-0.082 0.2553,-0.1124 0.2267,-0.041 0.4586,-0.077 0.6685,-0.086 0.078,0 0.066,-0.1546 0.021,-0.1611 -0.2295,-0.034 -0.7063,-0.164 -1.0774,-0.272 -0.1102,-0.032 -0.217,-0.068 -0.1456,-0.1026 0.1142,-0.023 0.1564,-0.028 0.4981,-0.066 -0.3892,0.017 -0.3883,0.017 -0.5671,0.016 0.057,-0.097 0.137,-0.1706 0.2523,-0.2452 0.029,-0.019 0.06,-0.036 0.09,-0.054 -0.03,0.016 -0.055,0.028 -0.095,0.049 -0.1473,0.08 -0.2115,0.124 -0.3233,0.2241 -0.01,0.01 -0.017,0.017 -0.025,0.026 -0.015,0 -0.011,0 -0.028,0 0.037,-0.047 0.075,-0.094 0.1133,-0.14001 0.045,-0.049 -0.037,-0.10179 -0.082,-0.053 -0.025,0.034 -0.048,0.07 -0.075,0.1029 -0.024,0.029 -0.051,0.057 -0.077,0.086 0.037,-0.093 0.046,-0.1919 0.079,-0.2858 0,-0.011 0.01,-0.022 0.014,-0.034 0.1968,-0.024 0.3934,-0.049 0.5902,-0.072 0,0 0,0 0,0 -0.1104,0.014 -0.3522,0.044 -0.5892,0.073 0.018,-0.042 0.039,-0.083 0.055,-0.1252 0.064,-0.1705 -0.01,-0.077 0.088,-0.1812 0.021,-0.047 -0.059,-0.072 -0.08,-0.025 -0.079,0.213 0.05,-0.1441 -0.054,0.1946 -0.015,0.048 -0.035,0.095 -0.052,0.1419 -0.1179,0.014 -0.2157,0.026 -0.3331,0.039 0.02,0 0.04,0 0.06,0 0.091,-0.01 0.1818,-0.021 0.2727,-0.032 0,0.01 0,0.013 -0.01,0.02 -0.054,0.1536 -0.057,0.1671 -0.077,0.2045 -0.091,0.086 -0.2561,0.044 -0.3873,0.018 -0.202397,-0.041 -0.411797,-0.078 -0.623397,-0.111 0.08,-0.019 0.1492,-0.034 0.1994,-0.042 -0.075,0 -0.2813,0 -0.3696,-0.01 -0.021,0 -0.035,0.01 -0.045,0.016 -0.08,-0.012 -0.16,-0.023 -0.24,-0.033 0.021,-0.014 0.043,-0.027 0.066,-0.037 0.1546,-0.07 0.3282,-0.1271 0.5006,-0.1679 -0.083,0.015 -0.1666,0.032 -0.2501,0.047 -0.073,0.013 -0.147,0.024 -0.2203,0.038 0.087,-0.068 0.1805,-0.1294 0.2734,-0.1937 0.189,-0.096 0.027,-0.3188 -0.1624,-0.223 -0.1026,0.043 -0.2173,0.07 -0.3079,0.1294 -0.039,0.026 -0.079,0.056 -0.1183,0.089 0,-0.021 0,-0.042 0.01,-0.063 0.021,-0.092 0.049,-0.169 0.091,-0.2425 -0.056,0.072 -0.1038,0.1474 -0.1401,0.236 -0.018,0.044 -0.024,0.092 -0.032,0.1387 -0.019,0.019 -0.039,0.036 -0.057,0.056 -0.022,0.01 -0.045,0.017 -0.067,0.024 -0.022,-0.073 -0.028,-0.024 0,-0.1105 -0.01,-0.085 -0.1479,-0.079 -0.143,0.01 -0.01,0.1077 -0.01,0.031 0.013,0.1412 -0.035,0.01 -0.069,0.013 -0.1029,0.018 0,-0.021 0,-0.042 0,-0.063 0,-0.049 -0.01,-0.099 0,-0.1483 0.01,-0.097 0.034,-0.245 0.05,-0.3418 0,-0.017 -0.024,-0.021 -0.028,0 -0.022,0.1145 -0.046,0.2289 -0.066,0.3436 -0.01,0.048 -0.011,0.096 -0.023,0.1431 -0.01,0.028 -0.023,0.054 -0.035,0.081 -0.01,0 -0.01,0 -0.015,0 -0.044,-0.084 -0.087,-0.1781 -0.135801,-0.3068 z m 0.7899,-0.2129 c 0.039,-0.051 0.082,-0.101 0.1299,-0.1528 0.021,-0.023 0.044,-0.044 0.068,-0.065 -0.029,0.018 -0.057,0.036 -0.079,0.059 -0.052,0.054 -0.089,0.1056 -0.1189,0.1585 z m 0.1979,-0.2179 c 0.024,-0.015 0.048,-0.029 0.071,-0.045 0.01,-0.01 0,-0.016 -0.011,-0.01 -0.02,0.018 -0.04,0.036 -0.06,0.054 z m 0.4892,0.6374 c 0.044,-0.01 0.089,-0.017 0.1337,-0.023 0.1268,-0.019 0.2554,-0.029 0.3828,-0.045 0.054,-0.01 0.076,-0.011 0.1155,-0.016 -0.034,0 -0.063,0.01 -0.1168,0.011 -0.1282,0.011 -0.2572,0.022 -0.383,0.045 -0.044,0.01 -0.088,0.018 -0.1322,0.029 z m 0.632,-0.084 c 0.1728,-0.016 0.1565,-0.014 0.3475,0.027 0.065,0 0.068,-0.075 0,-0.076 -0.1387,0.021 -0.2317,0.034 -0.3505,0.049 z m -0.5443,0.3127 c 0.01,0 0.028,0 0.032,0 0.1257,-0.01 0.3231,-0.029 0.531,-0.053 -0.1774,0.016 -0.3561,0.024 -0.5325,0.046 -0.01,0 -0.023,0.01 -0.031,0.01 z m 1.4377,-0.07 c 0.1865,-0.097 0.2375,-0.1066 0.5102,-0.2009 0.014,0 0.029,-0.01 0.043,-0.01 -0.015,0 -0.03,0 -0.045,0.01 -0.1083,0.036 -0.2214,0.064 -0.3251,0.1093 -0.064,0.028 -0.1241,0.061 -0.183,0.096 z m 0.5532,-0.2112 c 0.062,-0.01 0.1228,-0.017 0.1843,-0.026 0.015,0 0.01,-0.02 0,-0.017 -0.06,0.014 -0.12,0.029 -0.18,0.043 z m -0.1868,1.4235 c 0.035,0 0.062,0.01 0.101,0.014 -0.034,0 -0.067,-0.01 -0.101,-0.014 z m -1.5118,0.082 c 0.036,0.038 0.079,0.082 0.1438,0.1427 0.01,0.01 0.012,0.011 0.018,0.016 -0.01,-0.01 -0.01,-0.013 -0.015,-0.019 -0.046,-0.049 -0.096,-0.095 -0.1476,-0.1397 z m 0.1622,0.1587 c 0.043,0.05 0.077,0.1058 0.1155,0.1585 0.024,0.024 0.066,0 0.042,-0.028 -0.052,-0.043 -0.1069,-0.085 -0.1571,-0.1301 z m -0.6122,-0.1814 c 0,0 0,0 0,0 -0.013,0 -0.02,0 0,0 0.02,0 0.042,0.011 0.1547,0.043 0.035,0.01 0.045,-0.036 0.01,-0.042 -0.053,0 -0.1072,0 -0.1601,0 v 5.2e-4 m -1.6092,0.1348 c 0.05,0.01 0.1002,0.011 0.15,0.018 -0.01,0 -0.01,-0.01 0,-0.01 -0.05,0 -0.1007,-0.01 -0.1513,-0.011 z m -1.9306,-0.1249 c -0.01,0.034 -0.017,0.06 -0.018,0.2457 0,0.02 0,0.04 0,0.06 0,-0.022 0,-0.024 0,-0.06 0.01,-0.079 0.016,-0.1586 0.011,-0.2379 0,0 0,-0.01 0,-0.01 z m -0.014,0.306 c -0.01,0.091 -0.01,0.1023 -0.046,0.2232 0,0.035 0.056,0.038 0.059,0 0,-0.036 0,-0.072 0,-0.1085 0,-0.039 -0.01,-0.079 -0.01,-0.1179 z m -1.202,-0.26399 c 0.01,0.01 0.012,0.017 0.018,0.025 0,0.01 0.012,0.013 0.017,0.019 -0.01,-0.01 -0.01,-0.013 -0.015,-0.02 -0.01,-0.01 -0.014,-0.016 -0.02,-0.023 z m 0.035,0.044 c 0.077,0.1015 0.1162,0.1875 0.1742,0.3001 0.011,0.02 0.045,0.01 0.034,-0.013 -0.03,-0.052 -0.054,-0.1062 -0.09,-0.1552 -0.034,-0.047 -0.079,-0.088 -0.1181,-0.1319 z m 2.7126,-1.7061 c 0.015,-0.022 0.034,-0.054 0.045,-0.069 0.067,-0.095 0.1143,-0.154 0.1684,-0.2196 -0.013,0.01 -0.026,0.017 -0.036,0.027 -0.057,0.056 -0.094,0.1256 -0.1349,0.1913 -0.019,0.03 -0.029,0.048 -0.042,0.07 z m 0.2132,-0.289 c 0.033,-0.02 0.072,-0.035 0.1053,-0.055 0.025,-0.021 -0.011,-0.051 -0.036,-0.029 -0.028,0.034 -0.047,0.057 -0.069,0.084 z m -1.0353,0.343 c 0,0.01 0,0.016 0,0.02 -0.065,0.036 -0.1273,0.07 -0.2143,0.1223 -0.032,0.019 -0.063,0.041 -0.094,0.062 -0.1503,0.01 -0.2986,0.017 -0.4454,0.029 0.1796,-0.072 0.3682,-0.1288 0.5567,-0.1833 0.066,-0.019 0.1331,-0.035 0.2002,-0.05 z m -0.012,0.053 c -0.011,0.045 -0.025,0.089 -0.036,0.1333 -0.01,0 -0.01,0.01 -0.016,0.01 -0.047,0 -0.095,0 -0.141,0 0.01,-0.01 0.015,-0.015 0.024,-0.023 0.067,-0.054 0.1199,-0.091 0.1689,-0.1238 z m 5.2519,1.2173 c -0.064,0 -0.1287,0 -0.1931,0.01 -0.039,0 -0.077,0 -0.1156,0 -0.075,0.01 -0.063,0.095 0.012,0.088 0.1208,-0.036 0.1582,-0.053 0.3006,-0.067 0.08,-0.01 0.1602,-0.01 0.2402,-0.01 0.011,0 0.01,-0.013 0,-0.013 -0.081,0 -0.1621,-0.01 -0.2432,-0.01 z m -0.3414,0.2421 c 0.074,0.01 0.1475,0.019 0.2216,0.027 0.1834,0.021 0.368,0.035 0.5519,0.052 0.057,0.01 0.079,0.01 0.1188,0.01 -0.041,0 -0.06,-0.01 -0.1183,-0.013 -0.1564,-0.016 -0.5067,-0.044 -0.774,-0.076 z m 0.8923,0.089 c 0.2462,0.028 0.2495,0.036 0.3322,0.035 -0.084,-0.021 -0.1067,-0.016 -0.3322,-0.035 z m 0.3322,0.035 c 0.031,0.01 0.073,0.019 0.1447,0.038 0.035,0 0.041,-0.038 0.01,-0.041 -0.079,0 -0.1207,0 -0.1508,0 z m -5.719101,-0.08 c -0.058,-0.01 -0.098,0.059 -0.036,0.091 0.211,0.1201 -0.068,-0.032 0.2284,0.098 0.043,0.019 0.081,0.044 0.1209,0.066 0.071,0.033 0.1275,-0.051 0.056,-0.084 -0.043,-0.018 -0.086,-0.034 -0.1274,-0.054 -0.3031,-0.1489 0.026,-0.01 -0.2161,-0.1082 -0.01,0 -0.017,-0.01 -0.026,-0.01 z"
       style="fill:#1f2123;fill-opacity:1;stroke:none;stroke-width:0.264583px;stroke-linecap:butt;stroke-linejoin:miter;stroke-opacity:1" />
    <path
       id="path7105"
       d="m 121.82656,146.47254 c -0.1312,0 -0.2406,0.1088 -0.118,0.1972 0.1953,0.1182 0.4201,0.2175 0.5859,0.3545 0.097,0.08 0.1924,0.1712 0.2851,0.2682 -0.031,-0.016 -0.077,-0.036 -0.2426,-0.1173 -0.01,0 -0.017,0 -0.01,0.01 0.2234,0.2034 0.1276,0.1221 0.2797,0.2476 0.034,0.023 0.075,0.016 0.097,0 0.057,0.065 0.1091,0.1316 0.1619,0.1987 -0.1782,-0.085 -0.3577,-0.1688 -0.5389,-0.2508 -0.1684,-0.074 -0.3242,0.086 -0.1558,0.1596 0.094,0.033 0.195,0.058 0.2819,0.098 0.053,0.025 0.1082,0.056 0.1635,0.089 0,0 0,0.01 0,0.011 -0.1373,-0.051 -0.2691,-0.1105 -0.4077,-0.1582 -0.074,-0.025 -0.1497,-0.049 -0.2259,-0.072 0.1921,0.07 0.4489,0.1736 0.5504,0.2215 0.029,0.013 0.055,0.029 0.082,0.043 -0.026,0.078 -0.2039,0.099 -0.3629,0.1004 -0.1282,0 -0.3444,0.023 -0.6,0.057 -0.023,-0.018 -0.046,-0.037 -0.074,-0.051 -0.2281,-0.1219 -0.4877,-0.1782 -0.7564,-0.2609 0.1755,0.065 0.3587,0.1213 0.5267,0.1946 0.1181,0.052 0.1486,0.087 0.1878,0.1335 -0.809,0.1124 -1.9504,0.319 -2.2744,0.3407 -0.041,0 -0.039,0.096 -0.01,0.1043 0.2355,0.065 1.6585,0.2415 2.49,0.3127 -0.047,0.024 -0.1112,0.052 -0.2633,0.1227 -0.073,0.034 -0.1155,0.054 -0.1594,0.075 0.051,-0.021 0.078,-0.033 0.1665,-0.068 0.087,-0.034 0.1783,-0.064 0.2675,-0.096 0,0.045 0,0.089 0,0.1251 -0.01,0.064 -0.029,0.1278 -0.05,0.1908 -0.016,0.048 -0.04,0.095 -0.06,0.142 -0.01,0.022 0.038,0.029 0.046,0.01 0.01,-0.049 0.014,-0.099 0.03,-0.1474 0.02,-0.064 0.053,-0.1257 0.077,-0.1888 0.032,-0.084 0.044,-0.1185 0.054,-0.1535 0.1677,0.013 0.3147,0.023 0.3996,0.023 0.097,0 0.2516,0.018 0.3897,0.056 -0.019,0.038 -0.038,0.075 -0.075,0.10469 -0.031,0.025 -0.1863,0.081 -0.2454,0.1032 -0.097,0.042 -0.01,0.13461 0.089,0.092 0.036,-0.018 0.075,-0.033 0.1072,-0.054 0.048,-0.032 0.089,-0.068 0.1303,-0.10369 0.062,-0.053 0.087,-0.077 0.111,-0.10251 0.035,0.015 0.067,0.032 0.093,0.052 0,0 0,0 0,0.01 0,0.06 0,0.1209 -0.01,0.1809 -0.01,0.035 -0.029,0.068 -0.041,0.1021 -0.023,0.067 0.016,0.052 -0.038,0.065 -0.057,0.075 0.1,0.129 0.1574,0.054 0,-0.015 0.033,-0.1142 0.033,-0.1159 0,-0.036 -0.019,-0.07 -0.022,-0.106 0,-0.032 0,-0.064 0,-0.096 0.047,0.061 0.1043,0.1311 0.1366,0.17041 0.098,0.13289 0.379,0.04 0.2806,-0.093 -0.1982,-0.20481 -0.01,0.018 -0.061,-0.14911 -0.01,-0.027 0.02,-0.062 0.066,-0.09 0.075,0.04 0.1,0.053 0.4275,0.22681 0.013,0.01 0.03,-0.01 0.016,-0.013 -0.2703,-0.1739 -0.3273,-0.2037 -0.3802,-0.2433 0.03,-0.01 0.062,-0.015 0.094,-0.014 0.096,0 0.1919,0.01 0.288,0.011 0.01,0.01 0.016,0.018 0.035,0.024 0.15689,0.05 0.082,0.023 0.25699,0.096 0.057,0.024 0.1135,0.048 0.1702,0.072 0.027,0.013 0.054,-0.013 0.027,-0.025 -0.052,-0.029 -0.1033,-0.058 -0.1551,-0.086 -0.085,-0.047 -0.1082,-0.061 -0.1296,-0.072 0.1016,0 0.2033,0.01 0.3049,0.011 0.1669,0.01 0.3373,0.017 0.5069,0.025 0.032,0.035 0.057,0.072 0.088,0.1251 0.063,0.10969 0.062,0.08 0.028,0.15839 0.01,0.059 0.12871,0.053 0.1232,-0.01 -0.062,-0.1452 0.024,0.044 -0.1017,-0.1678 -0.023,-0.039 -0.038,-0.073 -0.054,-0.1064 0.075,0 0.1481,0.01 0.222,0.012 0.052,0.042 0.1,0.085 0.1354,0.1335 0.046,0.062 0.073,0.1302 0.097,0.1976 0.018,0.051 0.021,0.1043 0.031,0.1565 0.012,0.047 0.112,0.036 0.1,-0.012 -0.02,-0.054 -0.039,-0.1074 -0.061,-0.1605 -0.045,-0.1076 -0.094,-0.2058 -0.1495,-0.306 0.5905,0.038 1.1354,0.099 1.4771,0.2266 0.045,0.034 0.117,0.09 0.2486,0.1903 0.3074,0.2349 0.322,0.1949 0.392,0.4624 0,0.014 -0.01,0.027 -0.013,0.04 0.098,0.1734 0.46381,0.08 0.3654,-0.093 -0.2033,-0.1032 -0.031,0 -0.27389,-0.2301 -0.097,-0.091 -0.20821,-0.1745 -0.30401,-0.2658 -0.035,-0.034 -0.069,-0.069 -0.10139,-0.1034 0.035,0.012 0.069,0.024 0.1549,0.05 0.099,0.03 0.2062,0.047 0.303,0.08 0.1976,0.067 0.2469,0.1067 0.3961,0.1972 0.069,0.034 0.13989,-0.032 0.071,-0.065 -0.061,-0.021 -0.1245,-0.04 -0.1843,-0.063 -0.4201,-0.1615 -0.083,-0.052 -0.5334,-0.2135 -0.079,-0.029 -0.1666,-0.047 -0.2423,-0.08 0,0 0,0 0,0 0.1444,0.012 0.292,0.024 0.416,0.034 0,0.013 0.016,0.026 0.041,0.036 0.2404,0.061 0.4168,0.1035 0.63,0.1742 -0.1277,-0.062 -0.251,-0.1278 -0.3801,-0.1882 0.065,0 0.138,0.011 0.1949,0.015 0.2135,0.032 0.4249,0.07 0.637,0.106 0.024,0.01 0.041,0.014 0.076,0.03 0.066,0.029 0.1264,0.064 0.1895,0.097 0.062,0.032 0.1244,0.063 0.1846,0.096 0.051,0.028 0.098,0.058 0.1478,0.087 0.03,0.017 0.06,0.035 0.09,0.052 0.05,0.024 0.10139,-0.023 0.051,-0.047 -0.034,-0.013 -0.068,-0.025 -0.10041,-0.04 -0.054,-0.025 -0.1046,-0.052 -0.1562,-0.078 -0.062,-0.032 -0.1242,-0.064 -0.1849,-0.097 -0.042,-0.023 -0.083,-0.046 -0.1242,-0.07 1.2327,0.197 0.6848,0.067 1.63641,0.3364 0.1934,0.044 0.28689,-0.139 0.093,-0.1834 -0.9564,-0.1593 -0.5254,-0.079 -1.6959,-0.3228 -0.065,-0.013 -0.20631,-0.043 -0.3046,-0.064 -0.052,-0.023 -0.069,-0.048 -0.055,-0.073 0.047,0 0.097,0.01 0.1436,0.011 -0.046,-0.01 -0.092,-0.011 -0.1376,-0.018 0.055,-0.068 0.3329,-0.1352 0.7459,-0.167 0.256,-0.02 0.544,-0.041 0.8681,-0.062 0.2356,-0.016 0.4721,-0.023 0.7088,-0.026 0,0.01 0.01,0.012 0.015,0.017 0.039,0.049 0.077,0.099 0.1155,0.1487 0.011,0.02 0.054,0.01 0.043,-0.01 -0.019,-0.052 -0.035,-0.1052 -0.057,-0.1569 0.055,0 0.1101,0 0.1651,0 0.1,0.013 0.1937,0.025 0.24,0.036 0.2259,0.053 0.3659,0.1338 0.5706,0.209 0.3143,0.1153 0.1053,0.01 0.3286,0.1356 0.023,0.017 0.046,0.033 0.069,0.05 0.097,0.054 0.2114,-0.038 0.1145,-0.092 -0.035,-0.017 -0.069,-0.034 -0.104,-0.051 -0.05,-0.017 -0.098,-0.036 -0.1497,-0.05 -0.6649,-0.1803 0.3197,0.1119 -0.4983,-0.1193 -0.1087,-0.031 -0.2138,-0.067 -0.3209,-0.1004 -0.022,-0.01 -0.044,-0.014 -0.066,-0.02 0.1877,0 0.3754,0 0.5632,0 0.1296,0.01 0.1084,0 0.2995,0.064 0.073,0.023 0.1481,0.044 0.2166,0.072 0.067,0.028 0.125,0.066 0.1894,0.097 0.057,0.027 0.1169,0.052 0.1751,0.079 0.038,0.017 0.075,0.035 0.1132,0.053 0.065,0.02 0.1065,-0.042 0.042,-0.062 -0.04,-0.01 -0.082,-0.014 -0.1203,-0.026 -0.161,-0.05 -0.2316,-0.093 -0.3821,-0.1594 -0.09,-0.04 -0.1816,-0.079 -0.2751,-0.1153 0.1049,0 0.21,0 0.3148,0 0.2631,0 0.3529,0.066 0.4339,0.101 0.02,0.012 0.044,0.022 0.077,0.028 0.2119,0.021 0.4244,0.038 0.6371,0.054 0.058,0.031 0.1163,0.061 0.1738,0.092 0.1047,0.057 0.2056,0.1165 0.311,0.1727 0.02,0.01 0.017,0.01 0.032,0.017 -0.1299,-0.078 -0.2935,-0.1667 -0.3401,-0.1922 -0.052,-0.029 -0.1037,-0.059 -0.1553,-0.088 0.383,0.028 0.767,0.049 1.1513,0.067 -0.04,0 -0.08,-0.01 -0.1202,-0.01 -0.767,-0.08 -0.9384,-0.1194 -1.3363,-0.2369 0.1402,0.022 0.2559,0.041 0.3625,0.057 -0.075,-0.016 -0.1549,-0.037 -0.2393,-0.062 0.1995,0.02 0.3988,0.04 0.5984,0.06 0.3857,0.036 0.7079,-0.074 1.1513,-0.1811 0.031,0 0.1001,0 0.2463,0.011 0.4334,0.024 0.4345,0.031 0.8582,0.084 0.058,0.01 0.1158,0.021 0.1738,0.031 0.044,0.01 0.056,-0.035 0.012,-0.041 -0.061,0 -0.1218,0 -0.1827,-0.01 -0.1415,-0.014 -0.2835,-0.024 -0.4243,-0.04 -0.1445,-0.017 -0.2874,-0.039 -0.431,-0.059 -0.033,-0.01 -0.066,-0.01 -0.1,-0.015 0.2011,-0.044 0.4257,-0.085 0.6937,-0.1111 0.081,-0.01 0.1583,-0.3581 -0.033,-0.3717 -0.6326,-0.045 -1.7669,-0.1792 -1.7669,-0.1792 0,0 -0.19501,0.033 -0.2925,0.049 -0.093,-0.037 -0.1811,-0.081 -0.272,-0.1215 0.249,-0.049 0.61899,-0.094 0.9814,-0.1285 -0.4045,0 0.1258,-0.047 -1.06331,-0.024 -0.01,0 -0.02,0 -0.031,0 0.1074,-0.034 0.2152,-0.067 0.32541,-0.096 0.028,0.01 0.06,0 0.09,-0.015 0.01,0 0.01,-0.01 0.015,-0.011 0.01,0.041 0.07,0.077 0.1485,0.051 0.12629,-0.026 0.33329,-0.072 0.44279,-0.082 0.1402,-0.014 0.2827,-0.016 0.42431,-0.02 0.439,-0.011 0.55359,-0.01 0.87489,0.01 -0.3672,-0.017 -0.166,-0.01 -0.8752,-0.025 -0.1364,0 -0.27279,-0.011 -0.4093,-0.012 0.2143,-0.01 0.4054,0 0.6608,0.015 0.32751,-0.03 0.2648,-0.3405 -0.063,-0.3107 -0.1268,0.031 -0.25129,0.068 -0.3805,0.094 -0.1729,0.036 -0.3478,0.067 -0.52289,0.098 0.10469,-0.054 0.2189,-0.1081 0.32859,-0.1569 -0.082,0.029 -0.1367,0.049 -0.2584,0.092 -0.198,0.069 -0.29539,0.1005 -0.345,0.1141 -0.015,0 -0.03,0.01 -0.045,0.01 0.01,-0.011 0.10351,-0.051 -0.032,0.01 -0.1702,0.031 -0.3394,0.063 -0.5072,0.1 0,0 0,0 0,0 -0.086,0.02 -0.1918,0.036 -0.3042,0.05 0.022,-0.018 0.044,-0.035 0.069,-0.051 0.075,-0.046 0.1667,-0.08 0.2435,-0.1251 0.568,-0.335 -0.1005,-0.01 0.6422,-0.3463 0,0 0,0 0,0 -0.1433,0.047 -0.2948,0.083 -0.4301,0.1397 -0.1033,0.043 -0.1886,0.1031 -0.2809,0.1563 -0.078,0.045 -0.1513,0.093 -0.2294,0.1375 -0.066,0.038 -0.1349,0.074 -0.2042,0.1096 -0.2355,0.021 -0.4704,0.033 -0.6012,0.035 -0.2482,0 -0.4868,0.032 -0.7363,0.065 0.1543,-0.1479 0.4213,-0.3144 0.6124,-0.4135 0.01,0 0.016,-0.01 0.024,-0.012 -0.1568,0.067 -0.3103,0.1373 -0.4863,0.2305 -0.095,0.05 -0.1766,0.1103 -0.2659,0.1648 -0.032,0.019 -0.064,0.038 -0.097,0.057 -0.28,0.039 -0.5877,0.082 -0.9654,0.1176 0.013,-0.013 0.027,-0.025 0.039,-0.039 0.1963,-0.2203 0.1162,-0.1733 0.3494,-0.404 0.049,-0.048 0.1026,-0.094 0.1562,-0.1395 0.026,-0.017 0.052,-0.033 0.078,-0.05 -0.024,0.015 -0.048,0.03 -0.072,0.044 0.019,-0.016 0.038,-0.032 0.056,-0.048 0.043,-0.032 0.086,-0.063 0.1283,-0.094 0.048,-0.048 -0.052,-0.094 -0.1008,-0.046 -0.026,0.04 -0.051,0.079 -0.077,0.11829 -0.2353,0.2315 -0.2112,0.2096 -0.1926,0.189 0,0 0,0 0,0 0,0 0,0 0,0 0,0 0,0 0,0 0.01,-0.01 0,0 -0.028,0.018 -0.018,0.011 -0.036,0.023 -0.055,0.034 -0.2393,0.148 -0.4801,0.29 -0.7232,0.4341 -0.01,0 -0.01,0.01 -0.011,0.013 -0.2488,0.016 -0.4976,0.03 -0.7465,0.041 -0.013,-0.085 -0.04,-0.169 -0.046,-0.2543 0,-0.013 0,-0.027 0,-0.04 0.01,-0.01 0.016,-0.011 0.025,-0.016 -0.01,0 -0.017,0.01 -0.025,0.01 0,-0.028 0,-0.056 0,-0.084 -0.01,0.031 -0.017,0.063 -0.024,0.094 -0.1084,0.044 -0.221,0.084 -0.3302,0.127 -0.065,0.026 -0.134,0.049 -0.194,0.081 0,0 0,0 -0.01,0 -0.097,0.05 -0.2349,0.083 -0.3647,0.1019 0.01,-0.025 0.02,-0.049 0.025,-0.074 0.057,-0.2743 0.04,-0.2419 0.032,-0.2257 0.02,-0.012 0.033,-0.03 0.033,-0.055 0,-0.011 -0.01,-0.019 -0.01,-0.029 0.01,-0.023 -0.01,0.017 0.044,-0.1526 0.029,-0.099 0.044,-0.1999 0.091,-0.2953 0.044,-0.089 0.12,-0.169 0.1801,-0.2536 0.048,-0.036 0.097,-0.072 0.1446,-0.1077 0.04,-0.041 -0.047,-0.079 -0.087,-0.038 -0.028,0.046 -0.055,0.092 -0.083,0.1386 -0.2601,0.4197 -0.074,0.098 -0.2976,0.5476 -0.01,0.015 -0.016,0.029 -0.024,0.044 0,-0.023 -0.01,-0.047 0,-0.074 0,-0.066 0.015,-0.1328 0.033,-0.1982 0.02,-0.073 0.053,-0.1432 0.079,-0.2148 0.013,-0.032 -0.055,-0.044 -0.068,-0.012 -0.027,0.073 -0.054,0.146 -0.082,0.2188 -0.026,0.069 -0.061,0.1366 -0.081,0.2065 -0.012,0.041 -0.011,0.083 -0.017,0.1244 -0.016,-0.062 -0.034,-0.1233 -0.044,-0.1856 -0.01,-0.057 -0.01,-0.1148 -0.012,-0.1723 -0.076,-0.1607 -0.4152,-0.088 -0.3388,0.072 0.043,0.038 0.1081,0.068 0.1296,0.1133 0.046,0.098 0.049,0.19561 0.038,0.29381 0,0 -0.01,0 -0.01,0 -0.2146,0.076 -0.4232,0.1318 -0.6339,0.2086 0.013,-0.01 0.03,-0.018 0.1337,-0.088 0.1573,-0.105 -0.064,-0.2542 -0.2214,-0.1491 -0.085,0.053 -0.1831,0.097 -0.2538,0.1586 -0.019,0.017 -0.03,0.031 -0.043,0.046 -0.016,0.01 -0.032,0.019 -0.049,0.028 0.049,-0.13791 0.019,-0.095 0.1047,-0.26931 0.015,-0.031 0.012,-0.021 0.02,-0.037 0.026,0.021 0.082,0.025 0.1078,-0.01 0.071,-0.1127 0.03,-0.059 0.1239,-0.16219 0.035,-0.039 -0.047,-0.072 -0.082,-0.033 -0.063,0.068 -0.078,0.08 -0.099,0.1002 0,-0.01 0,-0.01 0.019,-0.059 0.013,-0.041 -0.074,-0.054 -0.087,-0.013 0,0.028 0,0.057 -0.01,0.085 -0.014,0.063 -0.06,0.2069 -0.087,0.2633 -0.025,0.052 -0.06,0.1008 -0.089,0.1517 -0.013,0.022 -0.01,0.017 -0.017,0.031 -0.28989,0.1226 -0.6433,0.1092 -0.9587,0.1086 -0.01,0 -0.011,0 -0.016,0 0.027,-0.095 0.057,-0.1966 0.08,-0.2414 0.041,-0.077 0.1016,-0.1484 0.1575,-0.221 0.01,-0.011 0.011,-0.015 0.018,-0.024 0.01,0 0.018,-0.01 0.028,-0.01 0.092,-0.025 0.1912,-0.035 0.2867,-0.052 0.048,-0.012 0.023,-0.058 -0.025,-0.046 -0.09,0.029 -0.18269,0.055 -0.2713,0.086 0,0 0,0 0,0 0.102,-0.1364 0.075,-0.112 0.2466,-0.2108 0.062,-0.062 -0.07,-0.121 -0.1315,-0.059 -0.052,0.1232 -0.064,0.1638 -0.1552,0.2848 -0.23089,0.083 -0.4584,0.176 -0.66659,0.2822 -0.082,0.042 -0.15941,0.088 -0.23671,0.1343 0,-0.032 0,-0.045 0,-0.09 0,-0.042 0,-0.084 0.01,-0.12541 0,0.042 -0.01,0.083 -0.018,0.1241 -0.012,0.048 -0.023,0.086 -0.035,0.1201 -0.01,0.01 -0.019,0.011 -0.029,0.017 -0.014,0.01 -0.028,0.017 -0.042,0.025 -0.3118,0 -0.6236,0 -0.9353,0 0.058,-0.028 0.1155,-0.057 0.1789,-0.079 0.1869,-0.065 0.6409,-0.18489 0.8827,-0.2506 0,0.016 0,0.032 0,0.047 0,-0.016 0.01,-0.032 0.01,-0.049 0.037,-0.01 0.1072,-0.029 0.1299,-0.035 0.2135,-0.061 0.4243,-0.1258 0.6365,-0.1886 -0.1225,0.035 -0.4545,0.13011 -0.7661,0.2184 0,-0.044 0.01,-0.087 0.01,-0.1311 0,0 -0.01,0 -0.01,0 0,0.044 0,0.088 -0.01,0.13221 -0.1889,0.054 -0.3922,0.11149 -0.4727,0.1324 -0.1404,0.037 -0.2855,0.065 -0.4268,0.1 -0.6806,0.1686 0.061,0 -0.3827,0.098 0,0 0,0 -0.01,0 -0.042,0 -0.084,0 -0.1267,0 0.033,-0.031 0.066,-0.062 0.098,-0.094 0.073,-0.073 0.1365,-0.15081 0.2147,-0.2217 0.1863,-0.16891 0.3146,-0.2667 0.462,-0.37441 -0.034,0.022 -0.068,0.043 -0.1001,0.066 -0.5033,0.36261 -0.2301,0.2012 -0.6189,0.5084 -0.046,0.036 -0.099,0.068 -0.1481,0.1021 -0.042,-0.018 -0.081,-0.054 -0.098,-0.1071 0,0 0,0 0,0 -0.01,-0.018 -0.012,-0.036 -0.013,-0.054 -0.01,-0.1019 -0.012,-0.2059 0.018,-0.306 0.027,-0.093 0.1,-0.1777 0.1494,-0.2665 0.01,-0.017 -0.027,-0.024 -0.035,-0.01 -0.044,0.098 -0.2076,0.453 -0.2451,0.5682 -0.041,-0.1392 -0.059,-0.2804 -0.066,-0.42229 -0.01,0.058 -0.018,0.11639 -0.024,0.17469 -0.022,0.22251 -0.013,0.1909 -0.022,0.23131 -0.037,-0.033 -0.075,-0.066 -0.11173,-0.1002 -0.83758,-0.7698 -0.42278,-0.36371 -1.09428,-1.04801 -0.041,-0.03 -0.087,-0.042 -0.1306,-0.042 z m 1.3824,0.7843 c 0,-0.026 0.01,-0.053 0.01,-0.079 0,-0.086 -0.01,-0.1712 -0.01,-0.2568 0,0 -0.01,0 -0.01,0 0,0.1117 0,0.2241 0.01,0.3362 z m 1.158,-0.08 c 0.078,-0.05 0.159,-0.099 0.2377,-0.1489 0,0 0.01,-0.01 0.011,-0.014 -0.01,0 -0.019,0 -0.029,0 -0.092,0.067 -0.1522,0.1111 -0.2198,0.1605 z m 0.2489,-0.1624 c 0.037,0 0.075,0 0.1127,-0.01 0.064,-0.027 0.01,-0.088 -0.056,-0.061 -0.019,0.023 -0.038,0.045 -0.057,0.068 z m 4.4398,0.4178 c 0.01,-0.033 0.019,-0.066 0.026,-0.099 0.01,-0.035 0.01,-0.07 0.013,-0.1053 -0.013,0.035 -0.025,0.069 -0.03,0.1049 -0.01,0.033 -0.01,0.066 -0.01,0.099 z m 0.038,-0.2043 c 0.011,-0.03 0.023,-0.059 0.033,-0.089 0,-0.01 -0.02,-0.012 -0.022,0 0,0.03 -0.01,0.061 -0.011,0.091 z m -0.012,0.2781 c 0,0 0.01,0 0.011,0 0.2149,-0.094 0.3227,-0.1435 0.3936,-0.1766 -0.1274,0.045 -0.2497,0.094 -0.3956,0.175 0,0 -0.01,0 -0.01,0.01 z m 0.4048,-0.1811 c 0.093,-0.033 0.1851,-0.062 0.3043,-0.1024 0.029,-0.01 0.01,-0.038 -0.022,-0.028 -0.9705,0.3952 0.067,-0.033 -0.2823,0.1303 z m 1.445,-0.2161 c 0.039,-0.024 0.079,-0.048 0.1171,-0.072 0,0 0,0 0,0 -0.038,0.024 -0.077,0.048 -0.1152,0.073 z m 1.1919,0.062 c 0.138,-0.059 0.278,-0.1158 0.4448,-0.1852 -0.01,0 -0.013,0 -0.01,-0.01 -0.146,0.064 -0.2991,0.1212 -0.4387,0.19119 z m 2.3877,-0.063 c 0.3344,-0.1192 0.409,-0.1514 0.3424,-0.1352 -0.032,0.011 -0.066,0.021 -0.097,0.033 -0.072,0.027 -0.1571,0.063 -0.2451,0.1024 z m 0.3424,-0.1352 c 0.073,-0.025 0.1453,-0.051 0.2195,-0.074 -0.165,0.051 -0.3215,0.099 -0.2195,0.074 z m 0.9187,0.4322 c 0.061,0 0.029,0 0.135,0.01 0,0 0,0 0,0 -0.066,0 -0.084,0 -0.135,0 z m -1.2274,0.189 c 0.1388,0 0.3853,-0.01 0.853,-0.025 0.1271,0 0.2535,-0.014 0.3798,-0.025 -0.1273,-0.01 -0.2546,-0.012 -0.382,-0.01 -0.2071,0.01 -0.5254,0.028 -0.8508,0.059 z m 1.2328,-0.05 c 0.138,0.01 0.2761,0.017 0.4141,0.022 0.06,0 0.058,-0.058 0,-0.057 -0.1374,0.01 -0.2743,0.023 -0.4115,0.035 z m -2.2072,1.1317 c 0.1602,0.034 0.3199,0.052 0.5702,0.067 0.1108,0.01 0.2223,0.01 0.3338,0.01 -0.1111,0 -0.2221,-0.01 -0.3325,-0.016 -0.248,-0.016 -0.4104,-0.036 -0.5715,-0.061 z m 0.904,0.077 c 0.076,0 0.1521,0 0.2278,0 0.1651,-0.01 0.3229,-0.05 0.4844,-0.074 0,0 0,0 0,0 -0.1614,0.024 -0.3196,0.061 -0.4841,0.072 -0.076,0 -0.1519,0.01 -0.2281,0.01 z m 0.19,0.1129 c 0.4387,0.039 0.8829,0.048 1.3241,0.074 -0.015,0 -0.013,-0.016 0,-0.014 -0.4418,-0.019 -0.884,-0.038 -1.326,-0.06 z m -0.6559,0.2131 c 0.064,0.038 0.121,0.075 0.1487,0.1 0.017,0.015 0.012,0.038 0.017,0.057 0.054,0.039 0.13589,-0.012 0.082,-0.051 -0.1315,-0.036 -0.1152,-0.033 -0.2483,-0.1053 z m -5.4513,-0.1947 c 0.1231,0.015 0.2471,0.028 0.3712,0.04 0.064,0.01 0.1481,0.011 0.2208,0.017 -0.073,-0.01 -0.146,-0.016 -0.2192,-0.023 -0.1336,-0.013 -0.2528,-0.024 -0.3728,-0.034 z m 0.592,0.057 c 0.126,0.014 0.252,0.028 0.3789,0.037 1.9985,0.1479 -0.368,-0.058 0.9189,0.057 0.043,0 0.045,-0.04 0,-0.041 -0.1126,0 -0.2252,0.01 -0.3379,0 -0.2806,-0.01 -0.6464,-0.032 -0.9619,-0.058 z m -1.0355,0.27769 c 0.047,0.022 0.093,0.045 0.1414,0.065 0.2583,0.095 0.3165,0.1158 0.3879,0.14231 -0.1333,-0.058 -0.2648,-0.11361 -0.3769,-0.15491 -0.055,-0.02 -0.1033,-0.036 -0.1524,-0.053 z m 0.5293,0.2075 c 0.1729,0.075 0.3491,0.1558 0.4931,0.2208 0.012,0.01 0.023,-0.01 0.011,-0.012 -0.3237,-0.139 -0.39571,-0.1688 -0.5043,-0.209 z m -7.32089,-0.529 c -0.064,0.026 -0.1534,0.063 -0.1975,0.084 0.048,-0.016 0.1056,-0.041 0.1975,-0.084 z m -0.1975,0.084 c -0.052,0.017 -0.1096,0.032 -0.2524,0.07 -0.041,0.015 -0.01,0.054 0.033,0.039 0.1096,-0.055 0.1614,-0.081 0.2198,-0.109 z m 0.8595,-1.47719 c -0.076,-0.028 -0.1441,-0.051 -0.1852,-0.062 -0.082,-0.022 -0.1674,-0.036 -0.2535,-0.05 0.083,0.018 0.1665,0.036 0.2477,0.058 0.064,0.017 0.1277,0.036 0.191,0.054 z m -0.4387,-0.11251 c -0.046,-0.01 -0.093,-0.02 -0.1392,-0.031 -0.01,0 -0.011,0.01 0,0.01 0.047,0.01 0.095,0.016 0.1425,0.024 z m 9.0946,-0.097 c -0.031,0.025 -0.087,0.073 -0.215,0.18771 -0.1974,0.1775 -0.249,0.2274 -0.2458,0.2283 -0.019,0.016 -0.023,0.018 -0.056,0.046 -0.022,0 -0.043,0 -0.066,0.01 0.1634,-0.1629 0.2127,-0.2115 0.5289,-0.4326 0.017,-0.012 0.036,-0.023 0.054,-0.034 z m -4.7476,0.107 c 0,0 0,0 0,0.01 -0.057,0.074 -0.1321,0.1405 -0.1904,0.2137 -0.069,0.087 -0.1219,0.16981 -0.1747,0.2551 -0.1678,0 -0.3356,0 -0.5034,0 0.1083,-0.087 0.2154,-0.17319 0.241,-0.1895 0.1775,-0.11259 0.4039,-0.2138 0.6316,-0.2828 z m 1.9247,0.13111 c 0,0.029 -0.01,0.059 -0.014,0.088 -0.092,0.2134 -0.2915,0.24549 -0.4588,0.24789 -0.089,0 -0.1777,0 -0.2665,0 0,0 0.01,-0.01 0.011,-0.013 0.044,-0.028 0.089,-0.057 0.119,-0.072 0.086,-0.042 0.1822,-0.073 0.2723,-0.1109 0.248,-0.104 0.2836,-0.1269 0.3369,-0.1436 z m 1.2098,0.01 c 0,0.01 0,0.014 -0.01,0.02 -0.016,0.086 -0.016,0.17319 -0.03,0.2594 -0.1269,0.01 -0.2537,0.011 -0.3807,0.016 0.028,-0.03 0.045,-0.042 0.1696,-0.12721 0.082,-0.056 0.1617,-0.1143 0.247,-0.16819 z m -0.9487,0.01 c 0,0 0,0 0,0 0,0 0,0 0,0 0,0 0,0 0,0 z m -4.8161,0.2 c 0,0 0,0 0,0 0,0 0,0 0,0 0,0 0,0 0,0 z"
       style="fill:#1f2123;fill-opacity:1;stroke:none;stroke-width:0.264583px;stroke-linecap:butt;stroke-linejoin:miter;stroke-opacity:1" />
  </g>
</svg>
