<?xml version="1.0" encoding="UTF-8" standalone="no"?>
<svg
   xmlns:dc="http://purl.org/dc/elements/1.1/"
   xmlns:cc="http://creativecommons.org/ns#"
   xmlns:rdf="http://www.w3.org/1999/02/22-rdf-syntax-ns#"
   xmlns:svg="http://www.w3.org/2000/svg"
   xmlns="http://www.w3.org/2000/svg"
   xmlns:sodipodi="http://sodipodi.sourceforge.net/DTD/sodipodi-0.dtd"
   xmlns:inkscape="http://www.inkscape.org/namespaces/inkscape"
   inkscape:export-ydpi="96"
   inkscape:export-xdpi="96"
   inkscape:export-filename="D:\Calcatz\Icon Pack\Adventure Narative Inspired by Arrival\GUI\Inventory\png\title_underline - detail_2.png"
   sodipodi:docname="title_underline - detail_2.svg"
   inkscape:version="1.0 (4035a4fb49, 2020-05-01)"
   id="svg4981"
   version="1.1"
   viewBox="0 0 17.167843 3.393501"
   height="3.393501mm"
   width="17.167843mm">
  <defs
     id="defs4975" />
  <sodipodi:namedview
     inkscape:window-maximized="1"
     inkscape:window-y="-8"
     inkscape:window-x="-8"
     inkscape:window-height="705"
     inkscape:window-width="1366"
     fit-margin-bottom="0"
     fit-margin-right="0"
     fit-margin-left="0"
     fit-margin-top="0"
     showgrid="false"
     inkscape:document-rotation="0"
     inkscape:current-layer="layer1"
     inkscape:document-units="mm"
     inkscape:cy="71.847409"
     inkscape:cx="57.042754"
     inkscape:zoom="1.3422939"
     inkscape:pageshadow="2"
     inkscape:pageopacity="0.0"
     borderopacity="1.0"
     bordercolor="#666666"
     pagecolor="#ffffff"
     id="base" />
  <metadata
     id="metadata4978">
    <rdf:RDF>
      <cc:Work
         rdf:about="">
        <dc:format>image/svg+xml</dc:format>
        <dc:type
           rdf:resource="http://purl.org/dc/dcmitype/StillImage" />
        <dc:title></dc:title>
      </cc:Work>
    </rdf:RDF>
  </metadata>
  <g
     transform="translate(-151.47168,-134.70532)"
     id="layer1"
     inkscape:groupmode="layer"
     inkscape:label="Layer 1">
    <path
       style="fill:#1f2123;fill-opacity:1;stroke:none;stroke-width:0.264583px;stroke-linecap:butt;stroke-linejoin:miter;stroke-opacity:1"
       d="m 154.06772,134.70794 c -0.1312,0 -0.2406,0.1088 -0.118,0.1972 0.1953,0.1182 0.4201,0.2175 0.5859,0.3545 0.097,0.08 0.1924,0.1712 0.2851,0.2682 -0.031,-0.016 -0.077,-0.036 -0.2426,-0.1173 -0.01,0 -0.017,0 -0.01,0.01 0.2234,0.2034 0.1276,0.1221 0.2797,0.2476 0.034,0.023 0.075,0.016 0.097,0 0.057,0.065 0.1091,0.1316 0.1619,0.1987 -0.1782,-0.085 -0.3577,-0.1688 -0.5389,-0.2508 -0.1684,-0.074 -0.3242,0.086 -0.1558,0.1596 0.094,0.033 0.195,0.058 0.2819,0.098 0.053,0.025 0.1082,0.056 0.1635,0.089 0,0 0,0.01 0,0.011 -0.1373,-0.051 -0.2691,-0.1105 -0.4077,-0.1582 -0.074,-0.025 -0.1497,-0.049 -0.2259,-0.072 0.1921,0.07 0.4489,0.1736 0.5504,0.2215 0.029,0.013 0.055,0.029 0.082,0.043 -0.026,0.078 -0.2039,0.099 -0.3629,0.1004 -0.1282,0 -0.3444,0.023 -0.6,0.057 -0.023,-0.018 -0.046,-0.037 -0.074,-0.051 -0.2281,-0.1219 -0.4877,-0.1782 -0.7564,-0.2609 0.1755,0.065 0.3587,0.1213 0.5267,0.1946 0.1181,0.052 0.1486,0.087 0.1878,0.1335 -0.809,0.1124 -1.9504,0.319 -2.2744,0.3407 -0.041,0 -0.039,0.096 -0.01,0.1043 0.2355,0.065 1.6585,0.2415 2.49,0.3127 -0.047,0.024 -0.1112,0.052 -0.2633,0.1227 -0.073,0.034 -0.1155,0.054 -0.1594,0.075 0.051,-0.021 0.078,-0.033 0.1665,-0.068 0.087,-0.034 0.1783,-0.064 0.2675,-0.096 0,0.045 0,0.089 0,0.1251 -0.01,0.064 -0.029,0.1278 -0.05,0.1908 -0.016,0.048 -0.04,0.095 -0.06,0.142 -0.01,0.022 0.038,0.029 0.046,0.01 0.01,-0.049 0.014,-0.099 0.03,-0.1474 0.02,-0.064 0.053,-0.1257 0.077,-0.1888 0.032,-0.084 0.044,-0.1185 0.054,-0.1535 0.1677,0.013 0.3147,0.023 0.3996,0.023 0.097,0 0.2516,0.018 0.3897,0.056 -0.019,0.038 -0.038,0.075 -0.075,0.10469 -0.031,0.025 -0.1863,0.081 -0.2454,0.1032 -0.097,0.042 -0.01,0.13461 0.089,0.092 0.036,-0.018 0.075,-0.033 0.1072,-0.054 0.048,-0.032 0.089,-0.068 0.1303,-0.10369 0.062,-0.053 0.087,-0.077 0.111,-0.10251 0.035,0.015 0.067,0.032 0.093,0.052 0,0 0,0 0,0.01 0,0.06 0,0.1209 -0.01,0.1809 -0.01,0.035 -0.029,0.068 -0.041,0.1021 -0.023,0.067 0.016,0.052 -0.038,0.065 -0.057,0.075 0.1,0.129 0.1574,0.054 0,-0.015 0.033,-0.1142 0.033,-0.1159 0,-0.036 -0.019,-0.07 -0.022,-0.106 0,-0.032 0,-0.064 0,-0.096 0.047,0.061 0.1043,0.1311 0.1366,0.17041 0.098,0.13289 0.379,0.04 0.2806,-0.093 -0.1982,-0.20481 -0.01,0.018 -0.061,-0.14911 -0.01,-0.027 0.02,-0.062 0.066,-0.09 0.075,0.04 0.1,0.053 0.4275,0.22681 0.013,0.01 0.03,-0.01 0.016,-0.013 -0.2703,-0.1739 -0.3273,-0.2037 -0.3802,-0.2433 0.03,-0.01 0.062,-0.015 0.094,-0.014 0.096,0 0.1919,0.01 0.288,0.011 0.01,0.01 0.016,0.018 0.035,0.024 0.1569,0.05 0.082,0.023 0.257,0.096 0.057,0.024 0.1135,0.048 0.1702,0.072 0.027,0.013 0.054,-0.013 0.027,-0.025 -0.052,-0.029 -0.1033,-0.058 -0.1551,-0.086 -0.085,-0.047 -0.1082,-0.061 -0.1296,-0.072 0.1016,0 0.2033,0.01 0.3049,0.011 0.1669,0.01 0.3373,0.017 0.5069,0.025 0.032,0.035 0.057,0.072 0.088,0.1251 0.063,0.10969 0.062,0.08 0.028,0.15839 0.01,0.059 0.1287,0.053 0.1232,-0.01 -0.062,-0.1452 0.024,0.044 -0.1017,-0.1678 -0.023,-0.039 -0.038,-0.073 -0.054,-0.1064 0.075,0 0.1481,0.01 0.222,0.012 0.052,0.042 0.1,0.085 0.1354,0.1335 0.046,0.062 0.073,0.1302 0.097,0.1976 0.018,0.051 0.021,0.1043 0.031,0.1565 0.012,0.047 0.112,0.036 0.1,-0.012 -0.02,-0.054 -0.039,-0.1074 -0.061,-0.1605 -0.045,-0.1076 -0.094,-0.2058 -0.1495,-0.306 0.5905,0.038 1.1354,0.099 1.4771,0.2266 0.045,0.034 0.117,0.09 0.2486,0.1903 0.3074,0.2349 0.322,0.1949 0.392,0.4624 0,0.014 -0.01,0.027 -0.013,0.04 0.098,0.1734 0.4638,0.08 0.3654,-0.093 -0.2033,-0.1032 -0.031,0 -0.2739,-0.2301 -0.097,-0.091 -0.2082,-0.1745 -0.304,-0.2658 -0.035,-0.034 -0.069,-0.069 -0.1014,-0.1034 0.035,0.012 0.069,0.024 0.1549,0.05 0.099,0.03 0.2062,0.047 0.303,0.08 0.1976,0.067 0.2469,0.1067 0.3961,0.1972 0.069,0.034 0.1399,-0.032 0.071,-0.065 -0.061,-0.021 -0.1245,-0.04 -0.1843,-0.063 -0.4201,-0.1615 -0.083,-0.052 -0.5334,-0.2135 -0.079,-0.029 -0.1666,-0.047 -0.2423,-0.08 0,0 0,0 0,0 0.1444,0.012 0.292,0.024 0.416,0.034 0,0.013 0.016,0.026 0.041,0.036 0.2404,0.061 0.4168,0.1035 0.63,0.1742 -0.1277,-0.062 -0.251,-0.1278 -0.3801,-0.1882 0.065,0 0.138,0.011 0.1949,0.015 0.2135,0.032 0.4249,0.07 0.637,0.106 0.024,0.01 0.041,0.014 0.076,0.03 0.066,0.029 0.1264,0.064 0.1895,0.097 0.062,0.032 0.1244,0.063 0.1846,0.096 0.051,0.028 0.098,0.058 0.1478,0.087 0.03,0.017 0.06,0.035 0.09,0.052 0.05,0.024 0.1014,-0.023 0.051,-0.047 -0.034,-0.013 -0.068,-0.025 -0.1004,-0.04 -0.054,-0.025 -0.1046,-0.052 -0.1562,-0.078 -0.062,-0.032 -0.1242,-0.064 -0.1849,-0.097 -0.042,-0.023 -0.083,-0.046 -0.1242,-0.07 1.2327,0.197 0.6848,0.067 1.6364,0.3364 0.1934,0.044 0.2869,-0.139 0.093,-0.1834 -0.9564,-0.1593 -0.5254,-0.079 -1.6959,-0.3228 -0.065,-0.013 -0.2063,-0.043 -0.3046,-0.064 -0.052,-0.023 -0.069,-0.048 -0.055,-0.073 0.047,0 0.097,0.01 0.1436,0.011 -0.046,-0.01 -0.092,-0.011 -0.1376,-0.018 0.055,-0.068 0.3329,-0.1352 0.7459,-0.167 0.256,-0.02 0.544,-0.041 0.8681,-0.062 0.2356,-0.016 0.4721,-0.023 0.7088,-0.026 0,0.01 0.01,0.012 0.015,0.017 0.039,0.049 0.077,0.099 0.1155,0.1487 0.011,0.02 0.054,0.01 0.043,-0.01 -0.019,-0.052 -0.035,-0.1052 -0.057,-0.1569 0.055,0 0.1101,0 0.1651,0 0.1,0.013 0.1937,0.025 0.24,0.036 0.2259,0.053 0.3659,0.1338 0.5706,0.209 0.3143,0.1153 0.1053,0.01 0.3286,0.1356 0.023,0.017 0.046,0.033 0.069,0.05 0.097,0.054 0.2114,-0.038 0.1145,-0.092 -0.035,-0.017 -0.069,-0.034 -0.104,-0.051 -0.05,-0.017 -0.098,-0.036 -0.1497,-0.05 -0.6649,-0.1803 0.3197,0.1119 -0.4983,-0.1193 -0.1087,-0.031 -0.2138,-0.067 -0.3209,-0.1004 -0.022,-0.01 -0.044,-0.014 -0.066,-0.02 0.1877,0 0.3754,0 0.5632,0 0.1296,0.01 0.1084,0 0.2995,0.064 0.073,0.023 0.1481,0.044 0.2166,0.072 0.067,0.028 0.125,0.066 0.1894,0.097 0.057,0.027 0.1169,0.052 0.1751,0.079 0.038,0.017 0.075,0.035 0.1132,0.053 0.065,0.02 0.1065,-0.042 0.042,-0.062 -0.04,-0.01 -0.082,-0.014 -0.1203,-0.026 -0.161,-0.05 -0.2316,-0.093 -0.3821,-0.1594 -0.09,-0.04 -0.1816,-0.079 -0.2751,-0.1153 0.1049,0 0.21,0 0.3148,0 0.2631,0 0.3529,0.066 0.4339,0.101 0.02,0.012 0.044,0.022 0.077,0.028 0.2119,0.021 0.4244,0.038 0.6371,0.054 0.058,0.031 0.1163,0.061 0.1738,0.092 0.1047,0.057 0.2056,0.1165 0.311,0.1727 0.02,0.01 0.017,0.01 0.032,0.017 -0.1299,-0.078 -0.2935,-0.1667 -0.3401,-0.1922 -0.052,-0.029 -0.1037,-0.059 -0.1553,-0.088 0.383,0.028 0.767,0.049 1.1513,0.067 -0.04,0 -0.08,-0.01 -0.1202,-0.01 -0.767,-0.08 -0.9384,-0.1194 -1.3363,-0.2369 0.1402,0.022 0.2559,0.041 0.3625,0.057 -0.075,-0.016 -0.1549,-0.037 -0.2393,-0.062 0.1995,0.02 0.3988,0.04 0.5984,0.06 0.3857,0.036 0.7079,-0.074 1.1513,-0.1811 0.031,0 0.1001,0 0.2463,0.011 0.4334,0.024 0.4345,0.031 0.8582,0.084 0.058,0.01 0.1158,0.021 0.1738,0.031 0.044,0.01 0.056,-0.035 0.012,-0.041 -0.061,0 -0.1218,0 -0.1827,-0.01 -0.1415,-0.014 -0.2835,-0.024 -0.4243,-0.04 -0.1445,-0.017 -0.2874,-0.039 -0.431,-0.059 -0.033,-0.01 -0.066,-0.01 -0.1,-0.015 0.2011,-0.044 0.4257,-0.085 0.6937,-0.1111 0.081,-0.01 0.1583,-0.3581 -0.033,-0.3717 -0.6326,-0.045 -1.7669,-0.1792 -1.7669,-0.1792 0,0 -0.195,0.033 -0.2925,0.049 -0.093,-0.037 -0.1811,-0.081 -0.272,-0.1215 0.249,-0.049 0.619,-0.094 0.9814,-0.1285 -0.4045,0 0.1258,-0.047 -1.0633,-0.024 -0.01,0 -0.02,0 -0.031,0 0.1074,-0.034 0.2152,-0.067 0.3254,-0.096 0.028,0.01 0.06,0 0.09,-0.015 0.01,0 0.01,-0.01 0.015,-0.011 0.01,0.041 0.07,0.077 0.1485,0.051 0.1263,-0.026 0.3333,-0.072 0.4428,-0.082 0.1402,-0.014 0.2827,-0.016 0.4243,-0.02 0.439,-0.011 0.5536,-0.01 0.8749,0.01 -0.3672,-0.017 -0.166,-0.01 -0.8752,-0.025 -0.1364,0 -0.2728,-0.011 -0.4093,-0.012 0.2143,-0.01 0.4054,0 0.6608,0.015 0.3275,-0.03 0.2648,-0.3405 -0.063,-0.3107 -0.1268,0.031 -0.2513,0.068 -0.3805,0.094 -0.1729,0.036 -0.3478,0.067 -0.5229,0.098 0.1047,-0.054 0.2189,-0.1081 0.3286,-0.1569 -0.082,0.029 -0.1367,0.049 -0.2584,0.092 -0.198,0.069 -0.2954,0.1005 -0.345,0.1141 -0.015,0 -0.03,0.01 -0.045,0.01 0.01,-0.011 0.1035,-0.051 -0.032,0.01 -0.1702,0.031 -0.3394,0.063 -0.5072,0.1 0,0 0,0 0,0 -0.086,0.02 -0.1918,0.036 -0.3042,0.05 0.022,-0.018 0.044,-0.035 0.069,-0.051 0.075,-0.046 0.1667,-0.08 0.2435,-0.1251 0.568,-0.335 -0.1005,-0.01 0.6422,-0.3463 0,0 0,0 0,0 -0.1433,0.047 -0.2948,0.083 -0.4301,0.1397 -0.1033,0.043 -0.1886,0.1031 -0.2809,0.1563 -0.078,0.045 -0.1513,0.093 -0.2294,0.1375 -0.066,0.038 -0.1349,0.074 -0.2042,0.1096 -0.2355,0.021 -0.4704,0.033 -0.6012,0.035 -0.2482,0 -0.4868,0.032 -0.7363,0.065 0.1543,-0.1479 0.4213,-0.3144 0.6124,-0.4135 0.01,0 0.016,-0.01 0.024,-0.012 -0.1568,0.067 -0.3103,0.1373 -0.4863,0.2305 -0.095,0.05 -0.1766,0.1103 -0.2659,0.1648 -0.032,0.019 -0.064,0.038 -0.097,0.057 -0.28,0.039 -0.5877,0.082 -0.9654,0.1176 0.013,-0.013 0.027,-0.025 0.039,-0.039 0.1963,-0.2203 0.1162,-0.1733 0.3494,-0.404 0.049,-0.048 0.1026,-0.094 0.1562,-0.1395 0.026,-0.017 0.052,-0.033 0.078,-0.05 -0.024,0.015 -0.048,0.03 -0.072,0.044 0.019,-0.016 0.038,-0.032 0.056,-0.048 0.043,-0.032 0.086,-0.063 0.1283,-0.094 0.048,-0.048 -0.052,-0.094 -0.1008,-0.046 -0.026,0.04 -0.051,0.079 -0.077,0.11829 -0.2353,0.2315 -0.2112,0.2096 -0.1926,0.189 0,0 0,0 0,0 0,0 0,0 0,0 0,0 0,0 0,0 0.01,-0.01 0,0 -0.028,0.018 -0.018,0.011 -0.036,0.023 -0.055,0.034 -0.2393,0.148 -0.4801,0.29 -0.7232,0.4341 -0.01,0 -0.01,0.01 -0.011,0.013 -0.2488,0.016 -0.4976,0.03 -0.7465,0.041 -0.013,-0.085 -0.04,-0.169 -0.046,-0.2543 0,-0.013 0,-0.027 0,-0.04 0.01,-0.01 0.016,-0.011 0.025,-0.016 -0.01,0 -0.017,0.01 -0.025,0.01 0,-0.028 0,-0.056 0,-0.084 -0.01,0.031 -0.017,0.063 -0.024,0.094 -0.1084,0.044 -0.221,0.084 -0.3302,0.127 -0.065,0.026 -0.134,0.049 -0.194,0.081 0,0 0,0 -0.01,0 -0.097,0.05 -0.2349,0.083 -0.3647,0.1019 0.01,-0.025 0.02,-0.049 0.025,-0.074 0.057,-0.2743 0.04,-0.2419 0.032,-0.2257 0.02,-0.012 0.033,-0.03 0.033,-0.055 0,-0.011 -0.01,-0.019 -0.01,-0.029 0.01,-0.023 -0.01,0.017 0.044,-0.1526 0.029,-0.099 0.044,-0.1999 0.091,-0.2953 0.044,-0.089 0.12,-0.169 0.1801,-0.2536 0.048,-0.036 0.097,-0.072 0.1446,-0.1077 0.04,-0.041 -0.047,-0.079 -0.087,-0.038 -0.028,0.046 -0.055,0.092 -0.083,0.1386 -0.2601,0.4197 -0.074,0.098 -0.2976,0.5476 -0.01,0.015 -0.016,0.029 -0.024,0.044 0,-0.023 -0.01,-0.047 0,-0.074 0,-0.066 0.015,-0.1328 0.033,-0.1982 0.02,-0.073 0.053,-0.1432 0.079,-0.2148 0.013,-0.032 -0.055,-0.044 -0.068,-0.012 -0.027,0.073 -0.054,0.146 -0.082,0.2188 -0.026,0.069 -0.061,0.1366 -0.081,0.2065 -0.012,0.041 -0.011,0.083 -0.017,0.1244 -0.016,-0.062 -0.034,-0.1233 -0.044,-0.1856 -0.01,-0.057 -0.01,-0.1148 -0.012,-0.1723 -0.076,-0.1607 -0.4152,-0.088 -0.3388,0.072 0.043,0.038 0.1081,0.068 0.1296,0.1133 0.046,0.098 0.049,0.19561 0.038,0.29381 0,0 -0.01,0 -0.01,0 -0.2146,0.076 -0.4232,0.1318 -0.6339,0.2086 0.013,-0.01 0.03,-0.018 0.1337,-0.088 0.1573,-0.105 -0.064,-0.2542 -0.2214,-0.1491 -0.085,0.053 -0.1831,0.097 -0.2538,0.1586 -0.019,0.017 -0.03,0.031 -0.043,0.046 -0.016,0.01 -0.032,0.019 -0.049,0.028 0.049,-0.13791 0.019,-0.095 0.1047,-0.26931 0.015,-0.031 0.012,-0.021 0.02,-0.037 0.026,0.021 0.082,0.025 0.1078,-0.01 0.071,-0.1127 0.03,-0.059 0.1239,-0.16219 0.035,-0.039 -0.047,-0.072 -0.082,-0.033 -0.063,0.068 -0.078,0.08 -0.099,0.1002 0,-0.01 0,-0.01 0.019,-0.059 0.013,-0.041 -0.074,-0.054 -0.087,-0.013 0,0.028 0,0.057 -0.01,0.085 -0.014,0.063 -0.06,0.2069 -0.087,0.2633 -0.025,0.052 -0.06,0.1008 -0.089,0.1517 -0.013,0.022 -0.01,0.017 -0.017,0.031 -0.2899,0.1226 -0.6433,0.1092 -0.9587,0.1086 -0.01,0 -0.011,0 -0.016,0 0.027,-0.095 0.057,-0.1966 0.08,-0.2414 0.041,-0.077 0.1016,-0.1484 0.1575,-0.221 0.01,-0.011 0.011,-0.015 0.018,-0.024 0.01,0 0.018,-0.01 0.028,-0.01 0.092,-0.025 0.1912,-0.035 0.2867,-0.052 0.048,-0.012 0.023,-0.058 -0.025,-0.046 -0.09,0.029 -0.1827,0.055 -0.2713,0.086 0,0 0,0 0,0 0.102,-0.1364 0.075,-0.112 0.2466,-0.2108 0.062,-0.062 -0.07,-0.121 -0.1315,-0.059 -0.052,0.1232 -0.064,0.1638 -0.1552,0.2848 -0.2309,0.083 -0.4584,0.176 -0.6666,0.2822 -0.082,0.042 -0.1594,0.088 -0.2367,0.1343 0,-0.032 0,-0.045 0,-0.09 0,-0.042 0,-0.084 0.01,-0.12541 0,0.042 -0.01,0.083 -0.018,0.1241 -0.012,0.048 -0.023,0.086 -0.035,0.1201 -0.01,0.01 -0.019,0.011 -0.029,0.017 -0.014,0.01 -0.028,0.017 -0.042,0.025 -0.3118,0 -0.6236,0 -0.9353,0 0.058,-0.028 0.1155,-0.057 0.1789,-0.079 0.1869,-0.065 0.6409,-0.18489 0.8827,-0.2506 0,0.016 0,0.032 0,0.047 0,-0.016 0.01,-0.032 0.01,-0.049 0.037,-0.01 0.1072,-0.029 0.1299,-0.035 0.2135,-0.061 0.4243,-0.1258 0.6365,-0.1886 -0.1225,0.035 -0.4545,0.13011 -0.7661,0.2184 0,-0.044 0.01,-0.087 0.01,-0.1311 0,0 -0.01,0 -0.01,0 0,0.044 0,0.088 -0.01,0.13221 -0.1889,0.054 -0.3922,0.11149 -0.4727,0.1324 -0.1404,0.037 -0.2855,0.065 -0.4268,0.1 -0.6806,0.1686 0.061,0 -0.3827,0.098 0,0 0,0 -0.01,0 -0.042,0 -0.084,0 -0.1267,0 0.033,-0.031 0.066,-0.062 0.098,-0.094 0.073,-0.073 0.1365,-0.15081 0.2147,-0.2217 0.1863,-0.16891 0.3146,-0.2667 0.462,-0.37441 -0.034,0.022 -0.068,0.043 -0.1001,0.066 -0.5033,0.36261 -0.2301,0.2012 -0.6189,0.5084 -0.046,0.036 -0.099,0.068 -0.1481,0.1021 -0.042,-0.018 -0.081,-0.054 -0.098,-0.1071 0,0 0,0 0,0 -0.01,-0.018 -0.012,-0.036 -0.013,-0.054 -0.01,-0.1019 -0.012,-0.2059 0.018,-0.306 0.027,-0.093 0.1,-0.1777 0.1494,-0.2665 0.01,-0.017 -0.027,-0.024 -0.035,-0.01 -0.044,0.098 -0.20761,0.453 -0.24511,0.5682 -0.041,-0.1392 -0.059,-0.2804 -0.066,-0.42229 -0.01,0.058 -0.018,0.11639 -0.024,0.17469 -0.022,0.22251 -0.013,0.1909 -0.022,0.23131 -0.037,-0.033 -0.075,-0.066 -0.1117,-0.1002 -0.8376,-0.7698 -0.4228,-0.36371 -1.0943,-1.04801 -0.041,-0.03 -0.087,-0.042 -0.1306,-0.042 z m 1.3824,0.7843 c 0,-0.026 0.01,-0.053 0.01,-0.079 0,-0.086 -0.01,-0.1712 -0.01,-0.2568 0,0 -0.01,0 -0.01,0 0,0.1117 0,0.2241 0.01,0.3362 z m 1.158,-0.08 c 0.078,-0.05 0.159,-0.099 0.2377,-0.1489 0,0 0.01,-0.01 0.011,-0.014 -0.01,0 -0.019,0 -0.029,0 -0.092,0.067 -0.1522,0.1111 -0.2198,0.1605 z m 0.2489,-0.1624 c 0.037,0 0.075,0 0.1127,-0.01 0.064,-0.027 0.01,-0.088 -0.056,-0.061 -0.019,0.023 -0.038,0.045 -0.057,0.068 z m 4.4398,0.4178 c 0.01,-0.033 0.019,-0.066 0.026,-0.099 0.01,-0.035 0.01,-0.07 0.013,-0.1053 -0.013,0.035 -0.025,0.069 -0.03,0.1049 -0.01,0.033 -0.01,0.066 -0.01,0.099 z m 0.038,-0.2043 c 0.011,-0.03 0.023,-0.059 0.033,-0.089 0,-0.01 -0.02,-0.012 -0.022,0 0,0.03 -0.01,0.061 -0.011,0.091 z m -0.012,0.2781 c 0,0 0.01,0 0.011,0 0.21491,-0.094 0.32271,-0.1435 0.39361,-0.1766 -0.1274,0.045 -0.2497,0.094 -0.39561,0.175 0,0 -0.01,0 -0.01,0.01 z m 0.4048,-0.1811 c 0.093,-0.033 0.1851,-0.062 0.3043,-0.1024 0.029,-0.01 0.01,-0.038 -0.022,-0.028 -0.9705,0.3952 0.067,-0.033 -0.2823,0.1303 z m 1.445,-0.2161 c 0.039,-0.024 0.079,-0.048 0.1171,-0.072 0,0 0,0 0,0 -0.038,0.024 -0.077,0.048 -0.1152,0.073 z m 1.1919,0.062 c 0.138,-0.059 0.278,-0.1158 0.4448,-0.1852 -0.01,0 -0.013,0 -0.01,-0.01 -0.146,0.064 -0.2991,0.1212 -0.4387,0.19119 z m 2.3877,-0.063 c 0.3344,-0.1192 0.409,-0.1514 0.3424,-0.1352 -0.032,0.011 -0.066,0.021 -0.097,0.033 -0.072,0.027 -0.1571,0.063 -0.2451,0.1024 z m 0.3424,-0.1352 c 0.073,-0.025 0.1453,-0.051 0.2195,-0.074 -0.165,0.051 -0.3215,0.099 -0.2195,0.074 z m 0.9187,0.4322 c 0.061,0 0.029,0 0.135,0.01 0,0 0,0 0,0 -0.066,0 -0.084,0 -0.135,0 z m -1.2274,0.189 c 0.1388,0 0.3853,-0.01 0.853,-0.025 0.1271,0 0.2535,-0.014 0.3798,-0.025 -0.1273,-0.01 -0.2546,-0.012 -0.382,-0.01 -0.2071,0.01 -0.5254,0.028 -0.8508,0.059 z m 1.2328,-0.05 c 0.138,0.01 0.2761,0.017 0.4141,0.022 0.06,0 0.058,-0.058 0,-0.057 -0.1374,0.01 -0.2743,0.023 -0.4115,0.035 z m -2.2072,1.1317 c 0.1602,0.034 0.3199,0.052 0.5702,0.067 0.1108,0.01 0.2223,0.01 0.3338,0.01 -0.1111,0 -0.2221,-0.01 -0.3325,-0.016 -0.248,-0.016 -0.4104,-0.036 -0.5715,-0.061 z m 0.904,0.077 c 0.076,0 0.1521,0 0.2278,0 0.1651,-0.01 0.3229,-0.05 0.4844,-0.074 0,0 0,0 0,0 -0.1614,0.024 -0.3196,0.061 -0.4841,0.072 -0.076,0 -0.1519,0.01 -0.2281,0.01 z m 0.19,0.1129 c 0.4387,0.039 0.8829,0.048 1.3241,0.074 -0.015,0 -0.013,-0.016 0,-0.014 -0.4418,-0.019 -0.884,-0.038 -1.326,-0.06 z m -0.6559,0.2131 c 0.064,0.038 0.121,0.075 0.1487,0.1 0.017,0.015 0.012,0.038 0.017,0.057 0.054,0.039 0.1359,-0.012 0.082,-0.051 -0.1315,-0.036 -0.1152,-0.033 -0.2483,-0.1053 z m -5.4513,-0.1947 c 0.1231,0.015 0.2471,0.028 0.3712,0.04 0.064,0.01 0.1481,0.011 0.2208,0.017 -0.073,-0.01 -0.146,-0.016 -0.2192,-0.023 -0.1336,-0.013 -0.2528,-0.024 -0.3728,-0.034 z m 0.592,0.057 c 0.126,0.014 0.252,0.028 0.3789,0.037 1.9985,0.1479 -0.368,-0.058 0.9189,0.057 0.043,0 0.045,-0.04 0,-0.041 -0.1126,0 -0.2252,0.01 -0.3379,0 -0.2806,-0.01 -0.6464,-0.032 -0.9619,-0.058 z m -1.0355,0.27769 c 0.047,0.022 0.093,0.045 0.1414,0.065 0.2583,0.095 0.3165,0.1158 0.3879,0.14231 -0.1333,-0.058 -0.2648,-0.11361 -0.3769,-0.15491 -0.055,-0.02 -0.1033,-0.036 -0.1524,-0.053 z m 0.5293,0.2075 c 0.1729,0.075 0.3491,0.1558 0.4931,0.2208 0.012,0.01 0.023,-0.01 0.011,-0.012 -0.3237,-0.139 -0.3957,-0.1688 -0.5043,-0.209 z m -7.3209,-0.529 c -0.064,0.026 -0.1534,0.063 -0.1975,0.084 0.048,-0.016 0.1056,-0.041 0.1975,-0.084 z m -0.1975,0.084 c -0.052,0.017 -0.1096,0.032 -0.2524,0.07 -0.041,0.015 -0.01,0.054 0.033,0.039 0.1096,-0.055 0.1614,-0.081 0.2198,-0.109 z m 0.8595,-1.47719 c -0.076,-0.028 -0.1441,-0.051 -0.1852,-0.062 -0.082,-0.022 -0.1674,-0.036 -0.2535,-0.05 0.083,0.018 0.1665,0.036 0.2477,0.058 0.064,0.017 0.1277,0.036 0.191,0.054 z m -0.4387,-0.11251 c -0.046,-0.01 -0.093,-0.02 -0.1392,-0.031 -0.01,0 -0.011,0.01 0,0.01 0.047,0.01 0.095,0.016 0.1425,0.024 z m 9.0946,-0.097 c -0.031,0.025 -0.087,0.073 -0.215,0.18771 -0.1974,0.1775 -0.249,0.2274 -0.2458,0.2283 -0.019,0.016 -0.023,0.018 -0.056,0.046 -0.022,0 -0.043,0 -0.066,0.01 0.1634,-0.1629 0.2127,-0.2115 0.5289,-0.4326 0.017,-0.012 0.036,-0.023 0.054,-0.034 z m -4.7476,0.107 c 0,0 0,0 0,0.01 -0.057,0.074 -0.1321,0.1405 -0.1904,0.2137 -0.069,0.087 -0.1219,0.16981 -0.1747,0.2551 -0.1678,0 -0.3356,0 -0.5034,0 0.1083,-0.087 0.2154,-0.17319 0.241,-0.1895 0.1775,-0.11259 0.4039,-0.2138 0.6316,-0.2828 z m 1.9247,0.13111 c 0,0.029 -0.01,0.059 -0.014,0.088 -0.092,0.2134 -0.2915,0.24549 -0.4588,0.24789 -0.089,0 -0.1777,0 -0.2665,0 0,0 0.01,-0.01 0.011,-0.013 0.044,-0.028 0.089,-0.057 0.119,-0.072 0.086,-0.042 0.1822,-0.073 0.2723,-0.1109 0.248,-0.104 0.2836,-0.1269 0.3369,-0.1436 z m 1.2098,0.01 c 0,0.01 0,0.014 -0.01,0.02 -0.016,0.086 -0.016,0.17319 -0.03,0.2594 -0.1269,0.01 -0.2537,0.011 -0.3807,0.016 0.028,-0.03 0.045,-0.042 0.1696,-0.12721 0.082,-0.056 0.1617,-0.1143 0.247,-0.16819 z m -0.9487,0.01 c 0,0 0,0 0,0 0,0 0,0 0,0 0,0 0,0 0,0 z m -4.8161,0.2 c 0,0 0,0 0,0 0,0 0,0 0,0 0,0 0,0 0,0 z"
       id="path7737" />
  </g>
</svg>
