<?xml version="1.0" encoding="UTF-8" standalone="no"?>
<svg
   xmlns:dc="http://purl.org/dc/elements/1.1/"
   xmlns:cc="http://creativecommons.org/ns#"
   xmlns:rdf="http://www.w3.org/1999/02/22-rdf-syntax-ns#"
   xmlns:svg="http://www.w3.org/2000/svg"
   xmlns="http://www.w3.org/2000/svg"
   xmlns:sodipodi="http://sodipodi.sourceforge.net/DTD/sodipodi-0.dtd"
   xmlns:inkscape="http://www.inkscape.org/namespaces/inkscape"
   inkscape:export-ydpi="96"
   inkscape:export-xdpi="96"
   inkscape:export-filename="D:\Calcatz\Icon Pack\Adventure Narative Inspired by Arrival\GUI\Inventory\png\title_underline - detail_1.png"
   sodipodi:docname="title_underline - detail_1.svg"
   inkscape:version="1.0 (4035a4fb49, 2020-05-01)"
   id="svg4397"
   version="1.1"
   viewBox="0 0 10.236463 3.0587976"
   height="3.0587976mm"
   width="10.236463mm">
  <defs
     id="defs4391" />
  <sodipodi:namedview
     inkscape:window-maximized="1"
     inkscape:window-y="-8"
     inkscape:window-x="-8"
     inkscape:window-height="705"
     inkscape:window-width="1366"
     fit-margin-bottom="0"
     fit-margin-right="0"
     fit-margin-left="0"
     fit-margin-top="0"
     showgrid="false"
     inkscape:document-rotation="0"
     inkscape:current-layer="layer1"
     inkscape:document-units="mm"
     inkscape:cy="9.0431879"
     inkscape:cx="79.84328"
     inkscape:zoom="1.8982902"
     inkscape:pageshadow="2"
     inkscape:pageopacity="0.0"
     borderopacity="1.0"
     bordercolor="#666666"
     pagecolor="#ffffff"
     id="base" />
  <metadata
     id="metadata4394">
    <rdf:RDF>
      <cc:Work
         rdf:about="">
        <dc:format>image/svg+xml</dc:format>
        <dc:type
           rdf:resource="http://purl.org/dc/dcmitype/StillImage" />
        <dc:title></dc:title>
      </cc:Work>
    </rdf:RDF>
  </metadata>
  <g
     transform="translate(-106.84183,-332.77394)"
     id="layer1"
     inkscape:groupmode="layer"
     inkscape:label="Layer 1">
    <path
       style="fill:#1f2123;fill-opacity:1;stroke:none;stroke-width:0.264583px;stroke-linecap:butt;stroke-linejoin:miter;stroke-opacity:1"
       d="m 112.02919,332.77424 c 0.049,0.1668 0.086,0.3362 0.1466,0.5004 0.01,0.024 0.015,0.039 0.023,0.06 -0.044,-0.1693 -0.096,-0.3257 -0.1687,-0.5607 0,0 0,0 0,0 z m 0.17,0.5607 c 0.024,0.091 0.046,0.1931 0.066,0.3089 -0.1191,0 -0.2314,-0.01 -0.3339,-0.012 -0.062,0 -0.1226,-0.01 -0.182,-0.01 -0.021,0 -0.041,0 -0.061,0 0.012,-0.013 0.024,-0.025 0.036,-0.038 0.047,-0.044 -0.028,-0.099 -0.074,-0.055 -0.041,0.029 -0.087,0.054 -0.1237,0.088 0,0 0,0 0,0 -0.01,0 -0.02,0 -0.03,0 0.03,-0.098 0.049,-0.1553 0.106,-0.2524 -0.053,0.08 -0.1139,0.1744 -0.1621,0.2505 -0.2002,-0.01 -0.3933,-0.01 -0.5804,0 0,0 0,-0.01 0,-0.01 0,0 0,0 0,0 0.097,-0.082 0.205,-0.1486 0.3288,-0.201 0.055,-0.023 0.1147,-0.035 0.172,-0.053 0.031,-0.012 0.012,-0.048 -0.02,-0.037 -0.1324,0.059 -0.2382,0.1044 -0.3706,0.1673 -0.037,0.017 -0.073,0.036 -0.1093,0.054 0,-0.026 0,-0.053 0.01,-0.079 0,-0.014 0,-0.028 0,-0.042 0.011,-0.01 0.029,-0.015 0.041,-0.021 0.067,-0.015 0.1342,-0.03 0.2009,-0.046 0,0 0,0 0,0 -0.099,0.024 -0.1284,0.031 -0.1989,0.047 0.068,-0.036 0.1344,-0.068 0.2432,-0.1236 0.016,-0.01 0,-0.027 -0.014,-0.019 -0.11121,0.058 -0.1905,0.099 -0.26961,0.1412 0,-0.059 0,-0.1172 0.01,-0.1757 0.01,-0.062 0.016,-0.123 0.024,-0.1845 0,-0.038 -0.061,-0.042 -0.064,0 -0.013,0.094 -0.04,0.3005 -0.058,0.397 -0.2353,0.056 -0.4042,0.099 -0.8124,0.2245 -0.018,0.01 -0.035,0.013 -0.053,0.019 -0.24171,0.023 -0.48211,0.052 -0.72691,0.089 0.079,-0.05 0.1627,-0.094 0.2684,-0.1305 0.1447,-0.05 0.2995,-0.076 0.4492,-0.1139 0.071,-0.016 0.043,-0.1001 -0.028,-0.084 -0.081,0.013 -0.1625,0.024 -0.2437,0.036 0.097,-0.036 0.194,-0.063 0.3802,-0.099 0.1726,-0.033 0.3502,-0.045 0.5253,-0.067 0,0 0,0 0,0 -0.1754,0.021 -0.3513,0.04 -0.5263,0.064 -0.092,0.013 -0.3823,0.06 -0.5728,0.091 0,0 0.01,-0.01 0.012,-0.013 0.06,-0.045 0.1202,-0.09 0.1836,-0.1328 0.2497,-0.168 0.5242,-0.3084 0.7863,-0.4626 0.029,-0.016 0,-0.051 -0.027,-0.034 -0.2697,0.1485 -0.5334,0.305 -0.8093,0.4455 -0.03,0.015 -0.061,0.029 -0.092,0.043 0.012,-0.026 0.029,-0.054 0.061,-0.095 0.042,-0.054 0.096,-0.1002 0.1441,-0.1503 0.015,-0.016 -0.012,-0.033 -0.027,-0.017 -0.046,0.053 -0.092,0.1049 -0.1368,0.158 -0.092,0.1095 -0.1009,0.123 -0.1203,0.1417 -0.1247,0.055 -0.2514,0.1062 -0.3735,0.1645 0.013,-0.025 0.025,-0.05 0.039,-0.075 0.035,-0.06 0.072,-0.1195 0.1091,-0.1786 0.037,-0.059 0.072,-0.118 0.1138,-0.1745 0.024,-0.034 0.056,-0.063 0.084,-0.095 0.016,-0.029 -0.034,-0.047 -0.049,-0.018 -0.014,0.037 -0.021,0.076 -0.04,0.1106 -0.071,0.1256 -0.1627,0.2224 -0.2561,0.3362 -0.034,0.041 -0.065,0.085 -0.1004,0.1251 -0.016,0.019 -0.037,0.034 -0.055,0.052 -0.1005,0.059 -0.1928,0.1278 -0.2846,0.1969 -0.054,0.031 -0.1111,0.057 -0.1697,0.079 0.037,-0.044 0.074,-0.089 0.1101,-0.1332 0.021,-0.021 -0.015,-0.047 -0.036,-0.025 -0.074,0.052 -0.1486,0.1037 -0.2229,0.1556 -0.013,0.019 -0.012,0.037 0,0.051 -0.1068,0.029 -0.2138,0.052 -0.3122,0.074 -0.05,0.013 -0.1081,0.031 -0.1629,0.046 0.014,-0.016 0.028,-0.032 0.043,-0.048 0.086,-0.088 0.3175,-0.3042 0.3983,-0.3804 0,0 0,-0.01 0,0 -0.073,0.069 -0.1451,0.1386 -0.2205,0.2056 -0.1202,0.1068 -0.1984,0.18 -0.345,0.2522 -0.016,0.01 -0.036,0.01 -0.054,0.011 -0.017,0.01 -0.027,0.015 -0.033,0.025 -0.3244,0.1 -0.6548,0.2108 -0.7461,0.2171 -0.023,0 -0.016,0.057 0,0.058 0.2959,0.021 0.7369,0.15539 1.0759,0.233 0.01,0 0.01,0.01 0.015,0.01 0.031,0.015 0.062,0.027 0.095,0.037 0.01,0.012 0.021,0.024 0.042,0.031 0.034,0.022 0.085,0.055 0.1148,0.078 0.024,0.019 0.051,0.036 0.069,0.059 0.046,0.061 0.044,0.095 0.054,0.161 0.037,0.076 0.166,0.033 0.1292,-0.043 -0.011,-0.022 -0.021,-0.045 -0.032,-0.067 -0.016,-0.033 -0.034,-0.071 -0.055,-0.1086 0.026,0.013 0.052,0.026 0.079,0.038 0.067,0.034 0.1291,0.012 0.1591,-0.027 0.039,0.035 0.078,0.071 0.1363,0.1296 0.045,0.046 0.091,0.092 0.1317,0.1406 -0.038,-0.051 -0.072,-0.1033 -0.1111,-0.1536 -0.1335,-0.1733 -0.1388,-0.174 -0.1397,-0.1729 0,0 0,0 0,0 0.017,0 0.033,0 0.049,0 0,0 0,0 0,0 0.088,0.039 0.1517,0.095 0.2269,0.1475 0.041,0.029 0.078,0.062 0.1238,0.085 0.042,0.021 0.091,0.031 0.1373,0.047 0.03,0.011 0.059,0.022 0.089,0.033 0.068,0.01 0.086,-0.071 0.017,-0.081 -0.028,0 -0.056,0 -0.084,0.01 -0.044,-0.013 -0.091,-0.018 -0.1305,-0.038 -0.045,-0.024 -0.073,-0.064 -0.1148,-0.091 -0.04,-0.027 -0.087,-0.045 -0.1284,-0.071 -0.017,-0.01 -0.032,-0.022 -0.047,-0.034 0.1552,0.01 0.2989,0 0.4338,0 0.055,0.025 0.1117,0.048 0.1672,0.072 0.084,0.044 0.1687,0.089 0.2531,0.133 0.022,0.013 0.044,-0.014 0.022,-0.026 -0.084,-0.044 -0.1731,-0.082 -0.2511,-0.1332 -0.022,-0.015 -0.041,-0.032 -0.061,-0.049 0.058,0 0.115,0 0.169,0 0.1815,0.01 0.3879,0 0.56,0.086 0.013,0.065 0.029,0.1308 0.034,0.1969 0.01,-0.025 0.01,-0.07 0.011,-0.1719 0.044,0.027 0.084,0.061 0.1214,0.1036 0.019,0.028 0.037,0.054 0.056,0.083 0,0.01 -0.01,0.014 -0.01,0.024 0.014,0.077 0.016,0.077 0.026,0.1673 0,0.044 0.011,0.089 0.013,0.1338 0,0.049 0,0.099 0,0.148 0,0.031 0.053,0.03 0.052,0 0,-0.032 -0.013,-0.2417 -0.01,-0.2806 0,-0.021 0.01,-0.042 0.01,-0.062 0.058,0.092 0.1115,0.185 0.1447,0.2667 0.041,0.1009 0.05,0.2088 0.075,0.3133 0.064,0.1768 0.3633,0.1018 0.2997,-0.075 -0.041,-0.10671 -0.076,-0.21461 -0.1216,-0.32011 -0.02,-0.046 -0.024,-0.052 -0.039,-0.086 0,0 0,0 0,0 0.036,0.037 0.069,0.078 0.1035,0.1158 0.103,0.11251 0.2126,0.2272 0.3177,0.3381 0,0 0,0 0,0 -0.055,-0.06 -0.115,-0.1172 -0.1659,-0.1799 -0.07,-0.086 -0.092,-0.1187 -0.106,-0.14519 0.079,0.06 0.1374,0.083 0.2495,0.1368 0.1729,0.07 0.2923,-0.13361 0.1194,-0.20401 -0.1537,-0.022 -0.1304,-0.01 -0.2853,-0.127 -0.1411,-0.1109 -0.3138,-0.2901 -0.4152,-0.4283 0,0 0,0 0,0 0,1.1e-4 0,0 0,0 0.03,0.014 0.062,0.027 0.1695,0.07 0.087,0.035 0.1717,0.077 0.2628,0.1049 0.1531,0.047 0.6811,0.1621 0.8292,0.1843 0.07,0.011 0.1416,0.016 0.213,0.021 -0.071,-0.01 -0.1409,-0.017 -0.2105,-0.03 -0.1455,-0.027 -0.2889,-0.062 -0.4311,-0.1 -0.1277,-0.034 -0.2557,-0.068 -0.3779,-0.1141 -0.044,-0.017 -0.1037,-0.045 -0.1644,-0.077 -0.032,-0.038 0.081,-0.055 0.2079,-0.06 0.4447,0.08 0.8631,0.1766 1.3225,0.2761 0,0 0,0 0,0 -0.462,-0.1 -0.8689,-0.1921 -1.3073,-0.2743 0.01,0 0.015,0 0.023,0 0.2174,0 0.4626,-0.01 0.7483,-0.013 0.2194,0 0.386,-0.011 0.5482,-0.018 0.015,0.012 0.029,0.023 0.044,0.035 0.1167,0.088 0.3296,0.2419 0.4351,0.3119 0.1144,0.076 0.2334,0.1471 0.35,0.2206 0.01,0 0.016,0 0.01,-0.01 -0.37321,-0.23259 -0.30381,-0.1697 -0.60401,-0.4246 -0.05,-0.042 -0.1025,-0.082 -0.143,-0.1305 0,0 0,0 0,0 0.026,0.011 0.052,0.022 0.076,0.035 0.071,0.039 0.1797,0.1147 0.2465,0.16001 0.061,0.037 0.1245,-0.035 0.064,-0.072 -0.03,-0.019 -0.06,-0.038 -0.089,-0.057 0.085,0.024 0.171,0.046 0.256,0.07 0.1045,0.03 0.2059,0.067 0.3123,0.092 0.533,0.1235 0.3549,0.068 0.29,0.048 0,0 -0.01,0 -0.01,0 -0.094,-0.012 -0.1863,-0.033 -0.2777,-0.055 -0.1058,-0.026 -0.2112,-0.054 -0.3132,-0.089 -0.1185,-0.041 -0.2306,-0.094 -0.3412,-0.14881 0.1061,-0.01 0.2203,-0.012 0.2986,-0.018 0.3287,-0.026 0.6749,0.071 0.7753,0.12 0.077,0.044 0.1562,0.086 0.2259,0.13811 0.032,0.024 0.062,0.05 0.092,0.076 -0.095,-0.1006 -0.1261,-0.1495 -0.3001,-0.31 -0.015,-0.014 -0.033,-0.027 -0.05,-0.04 0.091,0.03 0.223,0.082 0.4424,0.1433 0.1371,0.042 0.2794,0.073 0.4159,0.116 0.2443,0.077 0.48,0.174 0.7282,0.2421 0.2719,0.075 0.5545,0.1181 0.8292,0.1849 0.1843,0.045 0.365,0.1 0.5474,0.1499 0.1767,0.022 0.2148,-0.1863 0.038,-0.2087 -0.1858,0 -0.3761,0.023 -0.5575,-0.011 -0.4419,-0.083 -0.8283,-0.2451 -1.2015,-0.4316 0.046,0 0.091,0 0.1369,0 0.1597,0.033 0.3207,0.06 0.4827,0.083 -0.049,-0.01 -0.1033,-0.014 -0.1382,-0.021 -0.075,-0.015 -0.1349,-0.035 -0.1916,-0.057 0.1333,0.01 0.2665,0.018 0.3993,0.025 0.037,0 0.3321,0.016 0.416,0.02 0.069,0 0.066,-0.084 0,-0.082 -0.047,0.013 -0.091,0.035 -0.1405,0.039 -0.089,0.01 -0.1803,0 -0.2699,0 -0.1087,-0.01 -0.2165,-0.022 -0.3243,-0.035 -0.059,-0.01 -0.071,-0.01 -0.109,-0.015 -0.071,-0.056 0.085,-0.082 0.2553,-0.1124 0.2267,-0.041 0.4586,-0.077 0.6685,-0.086 0.078,0 0.066,-0.1546 0.021,-0.1611 -0.2295,-0.034 -0.7063,-0.164 -1.0774,-0.272 -0.1102,-0.032 -0.217,-0.068 -0.1456,-0.1026 0.1142,-0.023 0.1564,-0.028 0.4981,-0.066 -0.3892,0.017 -0.3883,0.017 -0.5671,0.016 0.057,-0.097 0.137,-0.1706 0.2523,-0.2452 0.029,-0.019 0.06,-0.036 0.09,-0.054 -0.03,0.016 -0.055,0.028 -0.095,0.049 -0.1473,0.08 -0.2115,0.124 -0.3233,0.2241 -0.01,0.01 -0.017,0.017 -0.025,0.026 -0.015,0 -0.011,0 -0.028,0 0.037,-0.047 0.075,-0.094 0.1133,-0.14001 0.045,-0.049 -0.037,-0.10179 -0.082,-0.053 -0.025,0.034 -0.048,0.07 -0.075,0.1029 -0.024,0.029 -0.051,0.057 -0.077,0.086 0.037,-0.093 0.046,-0.1919 0.079,-0.2858 0,-0.011 0.01,-0.022 0.014,-0.034 0.1968,-0.024 0.3934,-0.049 0.5902,-0.072 0,0 0,0 0,0 -0.1104,0.014 -0.3522,0.044 -0.5892,0.073 0.018,-0.042 0.039,-0.083 0.055,-0.1252 0.064,-0.1705 -0.01,-0.077 0.088,-0.1812 0.021,-0.047 -0.059,-0.072 -0.08,-0.025 -0.079,0.213 0.05,-0.1441 -0.054,0.1946 -0.015,0.048 -0.035,0.095 -0.052,0.1419 -0.1179,0.014 -0.2157,0.026 -0.3331,0.039 0.02,0 0.04,0 0.06,0 0.091,-0.01 0.1818,-0.021 0.2727,-0.032 0,0.01 0,0.013 -0.01,0.02 -0.054,0.1536 -0.057,0.1671 -0.077,0.2045 -0.091,0.086 -0.2561,0.044 -0.3873,0.018 -0.2024,-0.041 -0.4118,-0.078 -0.6234,-0.111 0.08,-0.019 0.1492,-0.034 0.1994,-0.042 -0.075,0 -0.2813,0 -0.3696,-0.01 -0.021,0 -0.035,0.01 -0.045,0.016 -0.08,-0.012 -0.16,-0.023 -0.24,-0.033 0.021,-0.014 0.043,-0.027 0.066,-0.037 0.1546,-0.07 0.3282,-0.1271 0.5006,-0.1679 -0.083,0.015 -0.1666,0.032 -0.2501,0.047 -0.073,0.013 -0.147,0.024 -0.2203,0.038 0.087,-0.068 0.1805,-0.1294 0.2734,-0.1937 0.189,-0.096 0.027,-0.3188 -0.1624,-0.223 -0.1026,0.043 -0.2173,0.07 -0.3079,0.1294 -0.039,0.026 -0.079,0.056 -0.1183,0.089 0,-0.021 0,-0.042 0.01,-0.063 0.021,-0.092 0.049,-0.169 0.091,-0.2425 -0.056,0.072 -0.1038,0.1474 -0.1401,0.236 -0.018,0.044 -0.024,0.092 -0.032,0.1387 -0.019,0.019 -0.039,0.036 -0.057,0.056 -0.022,0.01 -0.045,0.017 -0.067,0.024 -0.022,-0.073 -0.028,-0.024 0,-0.1105 -0.01,-0.085 -0.1479,-0.079 -0.143,0.01 -0.01,0.1077 -0.01,0.031 0.013,0.1412 -0.035,0.01 -0.069,0.013 -0.1029,0.018 0,-0.021 0,-0.042 0,-0.063 0,-0.049 -0.01,-0.099 0,-0.1483 0.01,-0.097 0.034,-0.245 0.05,-0.3418 0,-0.017 -0.024,-0.021 -0.028,0 -0.022,0.1145 -0.046,0.2289 -0.066,0.3436 -0.01,0.048 -0.011,0.096 -0.023,0.1431 -0.01,0.028 -0.023,0.054 -0.035,0.081 -0.01,0 -0.01,0 -0.015,0 -0.044,-0.084 -0.087,-0.1781 -0.1358,-0.3068 z m 0.7899,-0.2129 c 0.039,-0.051 0.082,-0.101 0.1299,-0.1528 0.021,-0.023 0.044,-0.044 0.068,-0.065 -0.029,0.018 -0.057,0.036 -0.079,0.059 -0.052,0.054 -0.089,0.1056 -0.1189,0.1585 z m 0.1979,-0.2179 c 0.024,-0.015 0.048,-0.029 0.071,-0.045 0.01,-0.01 0,-0.016 -0.011,-0.01 -0.02,0.018 -0.04,0.036 -0.06,0.054 z m 0.4892,0.6374 c 0.044,-0.01 0.089,-0.017 0.1337,-0.023 0.1268,-0.019 0.2554,-0.029 0.3828,-0.045 0.054,-0.01 0.076,-0.011 0.1155,-0.016 -0.034,0 -0.063,0.01 -0.1168,0.011 -0.1282,0.011 -0.2572,0.022 -0.383,0.045 -0.044,0.01 -0.088,0.018 -0.1322,0.029 z m 0.632,-0.084 c 0.1728,-0.016 0.1565,-0.014 0.3475,0.027 0.065,0 0.068,-0.075 0,-0.076 -0.1387,0.021 -0.2317,0.034 -0.3505,0.049 z m -0.5443,0.3127 c 0.01,0 0.028,0 0.032,0 0.1257,-0.01 0.3231,-0.029 0.531,-0.053 -0.1774,0.016 -0.3561,0.024 -0.5325,0.046 -0.01,0 -0.023,0.01 -0.031,0.01 z m 1.4377,-0.07 c 0.1865,-0.097 0.2375,-0.1066 0.5102,-0.2009 0.014,0 0.029,-0.01 0.043,-0.01 -0.015,0 -0.03,0 -0.045,0.01 -0.1083,0.036 -0.2214,0.064 -0.3251,0.1093 -0.064,0.028 -0.1241,0.061 -0.183,0.096 z m 0.5532,-0.2112 c 0.062,-0.01 0.1228,-0.017 0.1843,-0.026 0.015,0 0.01,-0.02 0,-0.017 -0.06,0.014 -0.12,0.029 -0.18,0.043 z m -0.1868,1.4235 c 0.035,0 0.062,0.01 0.101,0.014 -0.034,0 -0.067,-0.01 -0.101,-0.014 z m -1.5118,0.082 c 0.036,0.038 0.079,0.082 0.1438,0.1427 0.01,0.01 0.012,0.011 0.018,0.016 -0.01,-0.01 -0.01,-0.013 -0.015,-0.019 -0.046,-0.049 -0.096,-0.095 -0.1476,-0.1397 z m 0.1622,0.1587 c 0.043,0.05 0.077,0.1058 0.1155,0.1585 0.024,0.024 0.066,0 0.042,-0.028 -0.052,-0.043 -0.1069,-0.085 -0.1571,-0.1301 z m -0.6122,-0.1814 c 0,0 0,0 0,0 -0.013,0 -0.02,0 0,0 0.02,0 0.042,0.011 0.1547,0.043 0.035,0.01 0.045,-0.036 0.01,-0.042 -0.053,0 -0.1072,0 -0.1601,0 v 5.3e-4 m -1.6092,0.1348 c 0.05,0.01 0.1002,0.011 0.15,0.018 -0.01,0 -0.01,-0.01 0,-0.01 -0.05,0 -0.1007,-0.01 -0.1513,-0.011 z m -1.9306,-0.1249 c -0.01,0.034 -0.017,0.06 -0.018,0.2457 0,0.02 0,0.04 0,0.06 0,-0.022 0,-0.024 0,-0.06 0.01,-0.079 0.016,-0.1586 0.011,-0.2379 0,0 0,-0.01 0,-0.01 z m -0.014,0.306 c -0.01,0.091 -0.01,0.1023 -0.046,0.2232 0,0.035 0.056,0.038 0.059,0 0,-0.036 0,-0.072 0,-0.1085 0,-0.039 -0.01,-0.079 -0.01,-0.1179 z m -1.20201,-0.264 c 0.01,0.01 0.012,0.017 0.018,0.025 0,0.01 0.012,0.013 0.017,0.019 -0.01,-0.01 -0.01,-0.013 -0.015,-0.02 -0.01,-0.01 -0.014,-0.016 -0.02,-0.023 z m 0.035,0.044 c 0.077,0.1015 0.1162,0.1875 0.1742,0.3001 0.011,0.02 0.045,0.01 0.034,-0.013 -0.03,-0.052 -0.054,-0.1062 -0.09,-0.1552 -0.034,-0.047 -0.079,-0.088 -0.1181,-0.1319 z m 2.7126,-1.7061 c 0.015,-0.022 0.034,-0.054 0.045,-0.069 0.067,-0.095 0.1143,-0.154 0.1684,-0.2196 -0.013,0.01 -0.026,0.017 -0.036,0.027 -0.057,0.056 -0.094,0.1256 -0.1349,0.1913 -0.019,0.03 -0.029,0.048 -0.042,0.07 z m 0.2132,-0.289 c 0.033,-0.02 0.072,-0.035 0.1053,-0.055 0.025,-0.021 -0.011,-0.051 -0.036,-0.029 -0.028,0.034 -0.047,0.057 -0.069,0.084 z m -1.0353,0.343 c 0,0.01 0,0.016 0,0.02 -0.065,0.036 -0.1273,0.07 -0.2143,0.1223 -0.032,0.019 -0.063,0.041 -0.094,0.062 -0.1503,0.01 -0.2986,0.017 -0.4454,0.029 0.1796,-0.072 0.3682,-0.1288 0.5567,-0.1833 0.066,-0.019 0.1331,-0.035 0.2002,-0.05 z m -0.012,0.053 c -0.011,0.045 -0.025,0.089 -0.036,0.1333 -0.01,0 -0.01,0.01 -0.016,0.01 -0.047,0 -0.095,0 -0.141,0 0.01,-0.01 0.015,-0.015 0.024,-0.023 0.067,-0.054 0.1199,-0.091 0.1689,-0.1238 z m 5.2519,1.2173 c -0.064,0 -0.1287,0 -0.1931,0.01 -0.039,0 -0.077,0 -0.1156,0 -0.075,0.01 -0.063,0.095 0.012,0.088 0.1208,-0.036 0.1582,-0.053 0.3006,-0.067 0.08,-0.01 0.1602,-0.01 0.2402,-0.01 0.011,0 0.01,-0.013 0,-0.013 -0.081,0 -0.1621,-0.01 -0.2432,-0.01 z m -0.3414,0.2421 c 0.074,0.01 0.1475,0.019 0.2216,0.027 0.1834,0.021 0.368,0.035 0.5519,0.052 0.057,0.01 0.079,0.01 0.1188,0.01 -0.041,0 -0.06,-0.01 -0.1183,-0.013 -0.1564,-0.016 -0.5067,-0.044 -0.774,-0.076 z m 0.8923,0.089 c 0.2462,0.028 0.2495,0.036 0.3322,0.035 -0.084,-0.021 -0.1067,-0.016 -0.3322,-0.035 z m 0.3322,0.035 c 0.031,0.01 0.073,0.019 0.1447,0.038 0.035,0 0.041,-0.038 0.01,-0.041 -0.079,0 -0.1207,0 -0.1508,0 z m -5.7191,-0.08 c -0.058,-0.01 -0.098,0.059 -0.036,0.091 0.211,0.1201 -0.068,-0.032 0.2284,0.098 0.043,0.019 0.081,0.044 0.1209,0.066 0.071,0.033 0.1275,-0.051 0.056,-0.084 -0.043,-0.018 -0.086,-0.034 -0.1274,-0.054 -0.3031,-0.1489 0.026,-0.01 -0.2161,-0.1082 -0.01,0 -0.017,-0.01 -0.026,-0.01 z"
       id="path7735" />
  </g>
</svg>
