<?xml version="1.0" encoding="UTF-8" standalone="no"?>
<svg
   xmlns:dc="http://purl.org/dc/elements/1.1/"
   xmlns:cc="http://creativecommons.org/ns#"
   xmlns:rdf="http://www.w3.org/1999/02/22-rdf-syntax-ns#"
   xmlns:svg="http://www.w3.org/2000/svg"
   xmlns="http://www.w3.org/2000/svg"
   xmlns:sodipodi="http://sodipodi.sourceforge.net/DTD/sodipodi-0.dtd"
   xmlns:inkscape="http://www.inkscape.org/namespaces/inkscape"
   inkscape:export-ydpi="96"
   inkscape:export-xdpi="96"
   inkscape:export-filename="D:\Calcatz\Icon Pack\Adventure Narative Inspired by Arrival\GUI\Navigation Buttons\Xbox\Dark\png\b.png"
   sodipodi:docname="b.svg"
   inkscape:version="1.0 (4035a4fb49, 2020-05-01)"
   id="svg4258"
   version="1.1"
   viewBox="0 0 8.4666662 8.4666662"
   height="31.999998"
   width="31.999998">
  <defs
     id="defs4252" />
  <sodipodi:namedview
     inkscape:window-maximized="1"
     inkscape:window-y="-8"
     inkscape:window-x="-8"
     inkscape:window-height="705"
     inkscape:window-width="1366"
     fit-margin-bottom="0"
     fit-margin-right="0"
     fit-margin-left="0"
     fit-margin-top="0"
     showgrid="false"
     inkscape:document-rotation="0"
     inkscape:current-layer="layer1"
     inkscape:document-units="mm"
     inkscape:cy="228.42411"
     inkscape:cx="168.74216"
     inkscape:zoom="0.87251276"
     inkscape:pageshadow="2"
     inkscape:pageopacity="0.0"
     borderopacity="1.0"
     bordercolor="#666666"
     pagecolor="#ffffff"
     id="base"
     units="px" />
  <metadata
     id="metadata4255">
    <rdf:RDF>
      <cc:Work
         rdf:about="">
        <dc:format>image/svg+xml</dc:format>
        <dc:type
           rdf:resource="http://purl.org/dc/dcmitype/StillImage" />
        <dc:title />
      </cc:Work>
    </rdf:RDF>
  </metadata>
  <g
     transform="translate(-47.804447,-168.4375)"
     id="layer1"
     inkscape:groupmode="layer"
     inkscape:label="Layer 1">
    <rect
       y="168.4375"
       x="47.804447"
       height="8.4666662"
       width="8.4666662"
       id="rect831"
       style="fill:#cccccc;fill-opacity:1;stroke-width:0.601667;stroke-linecap:round;paint-order:fill markers stroke" />
    <path
       style="fill:none;stroke:#ffffff;stroke-width:0.264583px;stroke-linecap:butt;stroke-linejoin:miter;stroke-opacity:1"
       d="m 51.400022,174.00616 v -2.68057 c 1.004641,-0.0713 1.41689,0.14749 1.41932,0.67007 0.002,0.39679 -0.33971,0.67635 -0.88648,0.67717 0,0 -0.11377,-0.002 -0.429749,-0.002 0.310819,0 0.431519,0.002 0.431519,0.002 0.74011,0 1.16157,0.25663 1.16157,0.71474 0,0.53002 -0.52389,0.7223 -1.69618,0.61859 z"
       id="path3650"
       sodipodi:nodetypes="ccsscssc" />
    <rect
       inkscape:export-ydpi="96"
       inkscape:export-xdpi="96"
       inkscape:export-filename="D:\Calcatz\Icon Pack\Adventure Narative Inspired by Arrival\GUI\Navigation Buttons\Xbox\Dark\png\64px\b.png"
       style="fill:#cccccc;fill-opacity:1;stroke-width:1.20333;stroke-linecap:round;paint-order:fill markers stroke"
       id="rect833"
       width="16.933332"
       height="16.933332"
       x="57.394505"
       y="168.4375" />
    <path
       sodipodi:nodetypes="ccsscssc"
       id="path835"
       d="m 64.585655,179.57482 v -5.36114 c 2.009282,-0.1426 2.83378,0.29498 2.83864,1.34014 0.004,0.79358 -0.67942,1.3527 -1.77296,1.35434 0,0 -0.22754,-0.004 -0.859498,-0.004 0.621638,0 0.863038,0.004 0.863038,0.004 1.48022,0 2.32314,0.51326 2.32314,1.42948 0,1.06004 -1.04778,1.4446 -3.39236,1.23718 z"
       style="fill:none;stroke:#ffffff;stroke-width:0.529166px;stroke-linecap:butt;stroke-linejoin:miter;stroke-opacity:1" />
    <rect
       inkscape:export-ydpi="96"
       inkscape:export-xdpi="96"
       inkscape:export-filename="D:\Calcatz\Icon Pack\Adventure Narative Inspired by Arrival\GUI\Navigation Buttons\Xbox\Dark\png\128px\b.png"
       y="168.4375"
       x="78.469887"
       height="33.866665"
       width="33.866665"
       id="rect837"
       style="fill:#cccccc;fill-opacity:1;stroke-width:2.40666;stroke-linecap:round;paint-order:fill markers stroke" />
    <path
       style="fill:none;stroke:#ffffff;stroke-width:1.05833px;stroke-linecap:butt;stroke-linejoin:miter;stroke-opacity:1"
       d="m 92.852191,190.71214 v -10.72228 c 4.018564,-0.2852 5.66756,0.58996 5.67728,2.68028 0.008,1.58716 -1.35884,2.7054 -3.54592,2.70868 0,0 -0.45508,-0.008 -1.718996,-0.008 1.243276,0 1.726076,0.008 1.726076,0.008 2.96044,0 4.64628,1.02652 4.64628,2.85896 0,2.12008 -2.09556,2.8892 -6.78472,2.47436 z"
       id="path839"
       sodipodi:nodetypes="ccsscssc" />
    <rect
       inkscape:export-ydpi="96"
       inkscape:export-xdpi="96"
       inkscape:export-filename="D:\Calcatz\Icon Pack\Adventure Narative Inspired by Arrival\GUI\Navigation Buttons\Xbox\Dark\png\256px\b.png"
       style="fill:#cccccc;fill-opacity:1;stroke-width:4.81332;stroke-linecap:round;paint-order:fill markers stroke"
       id="rect841"
       width="67.73333"
       height="67.73333"
       x="120.62066"
       y="168.4375" />
    <path
       sodipodi:nodetypes="ccsscssc"
       id="path843"
       d="m 149.38526,212.98678 v -21.44456 c 8.03712,-0.5704 11.33512,1.17992 11.35456,5.36056 0.016,3.17432 -2.71768,5.4108 -7.09184,5.41736 0,0 -0.91016,-0.016 -3.438,-0.016 2.48656,0 3.45216,0.016 3.45216,0.016 5.92088,0 9.29256,2.05304 9.29256,5.71792 0,4.24016 -4.19112,5.7784 -13.56944,4.94872 z"
       style="fill:none;stroke:#ffffff;stroke-width:2.11666px;stroke-linecap:butt;stroke-linejoin:miter;stroke-opacity:1" />
  </g>
</svg>
