<?xml version="1.0" encoding="UTF-8" standalone="no"?>
<svg
   xmlns:dc="http://purl.org/dc/elements/1.1/"
   xmlns:cc="http://creativecommons.org/ns#"
   xmlns:rdf="http://www.w3.org/1999/02/22-rdf-syntax-ns#"
   xmlns:svg="http://www.w3.org/2000/svg"
   xmlns="http://www.w3.org/2000/svg"
   xmlns:sodipodi="http://sodipodi.sourceforge.net/DTD/sodipodi-0.dtd"
   xmlns:inkscape="http://www.inkscape.org/namespaces/inkscape"
   inkscape:export-ydpi="96"
   inkscape:export-xdpi="96"
   inkscape:export-filename="D:\Calcatz\Icon Pack\Adventure Narative Inspired by Arrival\GUI\Navigation Buttons\Xbox\Dark\png\dpad_left.png"
   sodipodi:docname="dpad_left.svg"
   inkscape:version="1.0 (4035a4fb49, 2020-05-01)"
   id="svg6655"
   version="1.1"
   viewBox="0 0 8.4666662 8.4666662"
   height="31.999998"
   width="31.999998">
  <defs
     id="defs6649" />
  <sodipodi:namedview
     inkscape:window-maximized="1"
     inkscape:window-y="-8"
     inkscape:window-x="-8"
     inkscape:window-height="705"
     inkscape:window-width="1366"
     fit-margin-bottom="0"
     fit-margin-right="0"
     fit-margin-left="0"
     fit-margin-top="0"
     showgrid="false"
     inkscape:document-rotation="0"
     inkscape:current-layer="layer1"
     inkscape:document-units="mm"
     inkscape:cy="57.702952"
     inkscape:cx="297.21555"
     inkscape:zoom="1.2339194"
     inkscape:pageshadow="2"
     inkscape:pageopacity="0.0"
     borderopacity="1.0"
     bordercolor="#666666"
     pagecolor="#ffffff"
     id="base"
     units="px" />
  <metadata
     id="metadata6652">
    <rdf:RDF>
      <cc:Work
         rdf:about="">
        <dc:format>image/svg+xml</dc:format>
        <dc:type
           rdf:resource="http://purl.org/dc/dcmitype/StillImage" />
        <dc:title />
      </cc:Work>
    </rdf:RDF>
  </metadata>
  <g
     transform="translate(-91.169273,-148.72621)"
     id="layer1"
     inkscape:groupmode="layer"
     inkscape:label="Layer 1">
    <rect
       y="148.72621"
       x="91.169273"
       height="8.4666662"
       width="8.4666662"
       id="rect833"
       style="fill:#cccccc;fill-opacity:1;stroke-width:0.968954;stroke-linecap:round;paint-order:fill markers stroke" />
    <path
       d="m 93.623299,152.95955 a -1.7793123,-1.7793123 0 0 1 1.779312,-1.77931 -1.7793123,-1.7793123 0 0 1 1.779312,1.77931 -1.7793123,-1.7793123 0 0 1 -1.779312,1.77931 -1.7793123,-1.7793123 0 0 1 -1.779312,-1.77931"
       style="fill:none;fill-opacity:1;stroke:#676767;stroke-width:0.276;stroke-linecap:round;stroke-miterlimit:4;stroke-dasharray:none;stroke-dashoffset:0;stroke-opacity:1;paint-order:fill markers stroke"
       id="circle3701" />
    <path
       id="path3699"
       style="fill:#676767;fill-opacity:1;stroke:none;stroke-width:0.276;stroke-linecap:round;stroke-miterlimit:4;stroke-dasharray:none;stroke-opacity:1;paint-order:markers stroke fill"
       d="m 95.410319,154.47862 c 0.14253,-0.003 0.28419,-0.0267 0.42529,-0.0594 v -1.03042 h 1.03042 c 0.0705,-0.28726 0.0737,-0.57293 0,-0.85629 h -1.03042 v -1.03042 c -0.30779,-0.0958 -0.58685,-0.0686 -0.85627,0 v 0.82475 0.20567 0.85629 1.03042 c 0.14499,0.0466 0.28842,0.0629 0.43098,0.0594 z" />
    <path
       id="path3703"
       style="fill:#ffffff;fill-opacity:1;stroke:none;stroke-width:0.276;stroke-linecap:round;stroke-miterlimit:4;stroke-dasharray:none;stroke-opacity:1;paint-order:markers stroke fill"
       d="m 94.979339,153.38877 v -0.85629 h -1.02992 c -0.0814,0.28913 -0.09,0.57496 0,0.85629 z" />
    <rect
       inkscape:export-ydpi="96"
       inkscape:export-xdpi="96"
       inkscape:export-filename="D:\Calcatz\Icon Pack\Adventure Narative Inspired by Arrival\GUI\Navigation Buttons\Xbox\Dark\png\64px\dpad_left.png"
       style="fill:#cccccc;fill-opacity:1;stroke-width:1.93791;stroke-linecap:round;paint-order:fill markers stroke"
       id="rect835"
       width="16.933332"
       height="16.933332"
       x="101.66906"
       y="148.72621" />
    <path
       id="path837"
       style="fill:none;fill-opacity:1;stroke:#676767;stroke-width:0.552;stroke-linecap:round;stroke-miterlimit:4;stroke-dasharray:none;stroke-dashoffset:0;stroke-opacity:1;paint-order:fill markers stroke"
       d="m 106.57712,157.19289 a 3.5586246,3.5586246 0 0 1 3.55862,-3.55862 3.5586246,3.5586246 0 0 1 3.55862,3.55862 3.5586246,3.5586246 0 0 1 -3.55862,3.55862 3.5586246,3.5586246 0 0 1 -3.55862,-3.55862" />
    <path
       d="m 110.15116,160.23103 c 0.28506,-0.006 0.56838,-0.0534 0.85058,-0.1188 v -2.06084 h 2.06084 c 0.141,-0.57452 0.1474,-1.14586 0,-1.71258 h -2.06084 v -2.06084 c -0.61558,-0.1916 -1.1737,-0.1372 -1.71254,0 v 1.6495 0.41134 1.71258 2.06084 c 0.28998,0.0932 0.57684,0.1258 0.86196,0.1188 z"
       style="fill:#676767;fill-opacity:1;stroke:none;stroke-width:0.552;stroke-linecap:round;stroke-miterlimit:4;stroke-dasharray:none;stroke-opacity:1;paint-order:markers stroke fill"
       id="path839" />
    <path
       d="m 109.2892,158.05133 v -1.71258 h -2.05984 c -0.1628,0.57826 -0.18,1.14992 0,1.71258 z"
       style="fill:#ffffff;fill-opacity:1;stroke:none;stroke-width:0.552;stroke-linecap:round;stroke-miterlimit:4;stroke-dasharray:none;stroke-opacity:1;paint-order:markers stroke fill"
       id="path841" />
    <rect
       inkscape:export-ydpi="96"
       inkscape:export-xdpi="96"
       inkscape:export-filename="D:\Calcatz\Icon Pack\Adventure Narative Inspired by Arrival\GUI\Navigation Buttons\Xbox\Dark\png\128px\dpad_left.png"
       y="148.72621"
       x="121.71781"
       height="33.866665"
       width="33.866665"
       id="rect843"
       style="fill:#cccccc;fill-opacity:1;stroke-width:3.87582;stroke-linecap:round;paint-order:fill markers stroke" />
    <path
       d="m 131.53393,165.65957 a 7.1172492,7.1172492 0 0 1 7.11724,-7.11724 7.1172492,7.1172492 0 0 1 7.11724,7.11724 7.1172492,7.1172492 0 0 1 -7.11724,7.11724 7.1172492,7.1172492 0 0 1 -7.11724,-7.11724"
       style="fill:none;fill-opacity:1;stroke:#676767;stroke-width:1.104;stroke-linecap:round;stroke-miterlimit:4;stroke-dasharray:none;stroke-dashoffset:0;stroke-opacity:1;paint-order:fill markers stroke"
       id="path845" />
    <path
       id="path847"
       style="fill:#676767;fill-opacity:1;stroke:none;stroke-width:1.104;stroke-linecap:round;stroke-miterlimit:4;stroke-dasharray:none;stroke-opacity:1;paint-order:markers stroke fill"
       d="m 138.68201,171.73585 c 0.57012,-0.012 1.13676,-0.1068 1.70116,-0.2376 v -4.12168 h 4.12168 c 0.282,-1.14904 0.2948,-2.29172 0,-3.42516 h -4.12168 v -4.12168 c -1.23116,-0.3832 -2.3474,-0.2744 -3.42508,0 v 3.299 0.82268 3.42516 4.12168 c 0.57996,0.1864 1.15368,0.2516 1.72392,0.2376 z" />
    <path
       id="path849"
       style="fill:#ffffff;fill-opacity:1;stroke:none;stroke-width:1.104;stroke-linecap:round;stroke-miterlimit:4;stroke-dasharray:none;stroke-opacity:1;paint-order:markers stroke fill"
       d="m 136.95809,167.37645 v -3.42516 h -4.11968 c -0.3256,1.15652 -0.36,2.29984 0,3.42516 z" />
    <rect
       inkscape:export-ydpi="96"
       inkscape:export-xdpi="96"
       inkscape:export-filename="D:\Calcatz\Icon Pack\Adventure Narative Inspired by Arrival\GUI\Navigation Buttons\Xbox\Dark\png\256px\dpad_left.png"
       style="fill:#cccccc;fill-opacity:1;stroke-width:7.75164;stroke-linecap:round;paint-order:fill markers stroke"
       id="rect851"
       width="67.73333"
       height="67.73333"
       x="165.03169"
       y="148.72621" />
    <path
       id="path853"
       style="fill:none;fill-opacity:1;stroke:#676767;stroke-width:2.208;stroke-linecap:round;stroke-miterlimit:4;stroke-dasharray:none;stroke-dashoffset:0;stroke-opacity:1;paint-order:fill markers stroke"
       d="m 184.66393,182.59293 a 14.234498,14.234498 0 0 1 14.23448,-14.23448 14.234498,14.234498 0 0 1 14.23448,14.23448 14.234498,14.234498 0 0 1 -14.23448,14.23448 14.234498,14.234498 0 0 1 -14.23448,-14.23448" />
    <path
       d="m 198.96009,194.74549 c 1.14024,-0.024 2.27352,-0.2136 3.40232,-0.4752 v -8.24336 h 8.24336 c 0.564,-2.29808 0.5896,-4.58344 0,-6.85032 h -8.24336 v -8.24336 c -2.46232,-0.7664 -4.6948,-0.5488 -6.85016,0 v 6.598 1.64536 6.85032 8.24336 c 1.15992,0.3728 2.30736,0.5032 3.44784,0.4752 z"
       style="fill:#676767;fill-opacity:1;stroke:none;stroke-width:2.208;stroke-linecap:round;stroke-miterlimit:4;stroke-dasharray:none;stroke-opacity:1;paint-order:markers stroke fill"
       id="path855" />
    <path
       d="m 195.51225,186.02669 v -6.85032 h -8.23936 c -0.6512,2.31304 -0.72,4.59968 0,6.85032 z"
       style="fill:#ffffff;fill-opacity:1;stroke:none;stroke-width:2.208;stroke-linecap:round;stroke-miterlimit:4;stroke-dasharray:none;stroke-opacity:1;paint-order:markers stroke fill"
       id="path857" />
  </g>
</svg>
