<?xml version="1.0" encoding="UTF-8" standalone="no"?>
<svg
   xmlns:dc="http://purl.org/dc/elements/1.1/"
   xmlns:cc="http://creativecommons.org/ns#"
   xmlns:rdf="http://www.w3.org/1999/02/22-rdf-syntax-ns#"
   xmlns:svg="http://www.w3.org/2000/svg"
   xmlns="http://www.w3.org/2000/svg"
   xmlns:sodipodi="http://sodipodi.sourceforge.net/DTD/sodipodi-0.dtd"
   xmlns:inkscape="http://www.inkscape.org/namespaces/inkscape"
   inkscape:export-ydpi="96"
   inkscape:export-xdpi="96"
   inkscape:export-filename="D:\Calcatz\Icon Pack\Adventure Narative Inspired by Arrival\GUI\Navigation Buttons\Xbox\Dark\png\dpad_updown.png"
   sodipodi:docname="dpad_updown.svg"
   inkscape:version="1.0 (4035a4fb49, 2020-05-01)"
   id="svg7853"
   version="1.1"
   viewBox="0 0 8.4666662 8.4666662"
   height="31.999998"
   width="31.999998">
  <defs
     id="defs7847" />
  <sodipodi:namedview
     inkscape:window-maximized="1"
     inkscape:window-y="-8"
     inkscape:window-x="-8"
     inkscape:window-height="705"
     inkscape:window-width="1366"
     fit-margin-bottom="0"
     fit-margin-right="0"
     fit-margin-left="0"
     fit-margin-top="0"
     showgrid="false"
     inkscape:document-rotation="0"
     inkscape:current-layer="layer1"
     inkscape:document-units="mm"
     inkscape:cy="176.84286"
     inkscape:cx="212.35611"
     inkscape:zoom="0.87251276"
     inkscape:pageshadow="2"
     inkscape:pageopacity="0.0"
     borderopacity="1.0"
     bordercolor="#666666"
     pagecolor="#ffffff"
     id="base"
     units="px" />
  <metadata
     id="metadata7850">
    <rdf:RDF>
      <cc:Work
         rdf:about="">
        <dc:format>image/svg+xml</dc:format>
        <dc:type
           rdf:resource="http://purl.org/dc/dcmitype/StillImage" />
        <dc:title />
      </cc:Work>
    </rdf:RDF>
  </metadata>
  <g
     transform="translate(-121.13041,-138.47635)"
     id="layer1"
     inkscape:groupmode="layer"
     inkscape:label="Layer 1">
    <rect
       y="138.47635"
       x="121.13041"
       height="8.4666662"
       width="8.4666662"
       id="rect834"
       style="fill:#cccccc;stroke-width:0.427844;stroke-linecap:round;paint-order:fill markers stroke;fill-opacity:1" />
    <path
       id="path3715"
       style="fill:#676767;fill-opacity:1;stroke:none;stroke-width:0.276;stroke-linecap:round;stroke-miterlimit:4;stroke-dasharray:none;stroke-opacity:1;paint-order:markers stroke fill"
       d="m 123.90628,142.27679 c -0.0958,0.30779 -0.0686,0.58687 0,0.85629 h 0.82476 0.20566 0.85627 1.03044 c 0.0466,-0.14499 0.0629,-0.28842 0.0594,-0.43098 -0.003,-0.14253 -0.0267,-0.28421 -0.0594,-0.42531 h -0.95345 -0.077 -0.85627 z" />
    <path
       id="path3719"
       style="fill:#ffffff;fill-opacity:1;stroke:none;stroke-width:0.276;stroke-linecap:round;stroke-miterlimit:4;stroke-dasharray:none;stroke-opacity:1;paint-order:markers stroke fill"
       d="m 125.79275,143.13303 h -0.85629 v 1.02992 c 0.28913,0.0814 0.57496,0.09 0.85629,0 z" />
    <path
       d="m 125.36375,144.489 a 1.7793123,1.7793123 0 0 1 -1.77932,-1.77931 1.7793123,1.7793123 0 0 1 1.77932,-1.77932 1.7793123,1.7793123 0 0 1 1.77931,1.77932 1.7793123,1.7793123 0 0 1 -1.77931,1.77931"
       style="fill:none;fill-opacity:1;stroke:#676767;stroke-width:0.276;stroke-linecap:round;stroke-miterlimit:4;stroke-dasharray:none;stroke-dashoffset:0;stroke-opacity:1;paint-order:fill markers stroke"
       id="circle3717" />
    <path
       id="path3723"
       style="fill:#ffffff;fill-opacity:1;stroke:none;stroke-width:0.276;stroke-linecap:round;stroke-miterlimit:4;stroke-dasharray:none;stroke-opacity:1;paint-order:markers stroke fill"
       d="m 125.36302,141.1921 c -0.14274,0 -0.28464,0.0175 -0.42632,0.0543 v 1.03042 h 0.85627 v -1.03042 c -0.14362,-0.0353 -0.28721,-0.0539 -0.42995,-0.0543 z" />
    <rect
       inkscape:export-ydpi="96"
       inkscape:export-xdpi="96"
       inkscape:export-filename="D:\Calcatz\Icon Pack\Adventure Narative Inspired by Arrival\GUI\Navigation Buttons\Xbox\Dark\png\64px\dpad_updown.png"
       style="fill:#cccccc;fill-opacity:1;stroke-width:0.855688;stroke-linecap:round;paint-order:fill markers stroke"
       id="rect836"
       width="16.933332"
       height="16.933332"
       x="130.94035"
       y="138.47635" />
    <path
       d="m 136.49211,146.07723 c -0.1916,0.61558 -0.1372,1.17374 0,1.71258 h 1.64952 0.41132 1.71254 2.06088 c 0.0932,-0.28998 0.1258,-0.57684 0.1188,-0.86196 -0.006,-0.28506 -0.0534,-0.56842 -0.1188,-0.85062 h -1.9069 -0.154 -1.71254 z"
       style="fill:#676767;fill-opacity:1;stroke:none;stroke-width:0.552;stroke-linecap:round;stroke-miterlimit:4;stroke-dasharray:none;stroke-opacity:1;paint-order:markers stroke fill"
       id="path838" />
    <path
       d="m 140.26505,147.78971 h -1.71258 v 2.05984 c 0.57826,0.1628 1.14992,0.18 1.71258,0 z"
       style="fill:#ffffff;fill-opacity:1;stroke:none;stroke-width:0.552;stroke-linecap:round;stroke-miterlimit:4;stroke-dasharray:none;stroke-opacity:1;paint-order:markers stroke fill"
       id="path840" />
    <path
       id="path842"
       style="fill:none;fill-opacity:1;stroke:#676767;stroke-width:0.552;stroke-linecap:round;stroke-miterlimit:4;stroke-dasharray:none;stroke-dashoffset:0;stroke-opacity:1;paint-order:fill markers stroke"
       d="m 139.40705,150.50165 a 3.5586246,3.5586246 0 0 1 -3.55864,-3.55862 3.5586246,3.5586246 0 0 1 3.55864,-3.55864 3.5586246,3.5586246 0 0 1 3.55862,3.55864 3.5586246,3.5586246 0 0 1 -3.55862,3.55862" />
    <path
       d="m 139.40559,143.90785 c -0.28548,0 -0.56928,0.035 -0.85264,0.1086 v 2.06084 h 1.71254 v -2.06084 c -0.28724,-0.0706 -0.57442,-0.1078 -0.8599,-0.1086 z"
       style="fill:#ffffff;fill-opacity:1;stroke:none;stroke-width:0.552;stroke-linecap:round;stroke-miterlimit:4;stroke-dasharray:none;stroke-opacity:1;paint-order:markers stroke fill"
       id="path844" />
    <rect
       inkscape:export-ydpi="96"
       inkscape:export-xdpi="96"
       inkscape:export-filename="D:\Calcatz\Icon Pack\Adventure Narative Inspired by Arrival\GUI\Navigation Buttons\Xbox\Dark\png\128px\dpad_updown.png"
       y="138.47635"
       x="151.52516"
       height="33.866665"
       width="33.866665"
       id="rect846"
       style="fill:#cccccc;fill-opacity:1;stroke-width:1.71138;stroke-linecap:round;paint-order:fill markers stroke" />
    <path
       id="path848"
       style="fill:#676767;fill-opacity:1;stroke:none;stroke-width:1.104;stroke-linecap:round;stroke-miterlimit:4;stroke-dasharray:none;stroke-opacity:1;paint-order:markers stroke fill"
       d="m 162.62868,153.67811 c -0.3832,1.23116 -0.2744,2.34748 0,3.42516 h 3.29904 0.82264 3.42508 4.12176 c 0.1864,-0.57996 0.2516,-1.15368 0.2376,-1.72392 -0.012,-0.57012 -0.1068,-1.13684 -0.2376,-1.70124 h -3.8138 -0.308 -3.42508 z" />
    <path
       id="path850"
       style="fill:#ffffff;fill-opacity:1;stroke:none;stroke-width:1.104;stroke-linecap:round;stroke-miterlimit:4;stroke-dasharray:none;stroke-opacity:1;paint-order:markers stroke fill"
       d="m 170.17456,157.10307 h -3.42516 v 4.11968 c 1.15652,0.3256 2.29984,0.36 3.42516,0 z" />
    <path
       d="m 168.45856,162.52695 a 7.1172492,7.1172492 0 0 1 -7.11728,-7.11724 7.1172492,7.1172492 0 0 1 7.11728,-7.11728 7.1172492,7.1172492 0 0 1 7.11724,7.11728 7.1172492,7.1172492 0 0 1 -7.11724,7.11724"
       style="fill:none;fill-opacity:1;stroke:#676767;stroke-width:1.104;stroke-linecap:round;stroke-miterlimit:4;stroke-dasharray:none;stroke-dashoffset:0;stroke-opacity:1;paint-order:fill markers stroke"
       id="path852" />
    <path
       id="path854"
       style="fill:#ffffff;fill-opacity:1;stroke:none;stroke-width:1.104;stroke-linecap:round;stroke-miterlimit:4;stroke-dasharray:none;stroke-opacity:1;paint-order:markers stroke fill"
       d="m 168.45564,149.33935 c -0.57096,0 -1.13856,0.07 -1.70528,0.2172 v 4.12168 h 3.42508 v -4.12168 c -0.57448,-0.1412 -1.14884,-0.2156 -1.7198,-0.2172 z" />
    <rect
       inkscape:export-ydpi="96"
       inkscape:export-xdpi="96"
       inkscape:export-filename="D:\Calcatz\Icon Pack\Adventure Narative Inspired by Arrival\GUI\Navigation Buttons\Xbox\Dark\png\256px\dpad_updown.png"
       style="fill:#cccccc;fill-opacity:1;stroke-width:3.42276;stroke-linecap:round;paint-order:fill markers stroke"
       id="rect856"
       width="67.73333"
       height="67.73333"
       x="190.12169"
       y="138.47635" />
    <path
       d="m 212.32871,168.87987 c -0.7664,2.46232 -0.5488,4.69496 0,6.85032 h 6.59808 1.64528 6.85016 8.24352 c 0.3728,-1.15992 0.5032,-2.30736 0.4752,-3.44784 -0.024,-1.14024 -0.2136,-2.27368 -0.4752,-3.40248 h -7.6276 -0.616 -6.85016 z"
       style="fill:#676767;fill-opacity:1;stroke:none;stroke-width:2.208;stroke-linecap:round;stroke-miterlimit:4;stroke-dasharray:none;stroke-opacity:1;paint-order:markers stroke fill"
       id="path858" />
    <path
       d="m 227.42047,175.72979 h -6.85032 v 8.23936 c 2.31304,0.6512 4.59968,0.72 6.85032,0 z"
       style="fill:#ffffff;fill-opacity:1;stroke:none;stroke-width:2.208;stroke-linecap:round;stroke-miterlimit:4;stroke-dasharray:none;stroke-opacity:1;paint-order:markers stroke fill"
       id="path860" />
    <path
       id="path862"
       style="fill:none;fill-opacity:1;stroke:#676767;stroke-width:2.208;stroke-linecap:round;stroke-miterlimit:4;stroke-dasharray:none;stroke-dashoffset:0;stroke-opacity:1;paint-order:fill markers stroke"
       d="m 223.98847,186.57755 a 14.234498,14.234498 0 0 1 -14.23456,-14.23448 14.234498,14.234498 0 0 1 14.23456,-14.23456 14.234498,14.234498 0 0 1 14.23448,14.23456 14.234498,14.234498 0 0 1 -14.23448,14.23448" />
    <path
       d="m 223.98263,160.20235 c -1.14192,0 -2.27712,0.14 -3.41056,0.4344 v 8.24336 h 6.85016 v -8.24336 c -1.14896,-0.2824 -2.29768,-0.4312 -3.4396,-0.4344 z"
       style="fill:#ffffff;fill-opacity:1;stroke:none;stroke-width:2.208;stroke-linecap:round;stroke-miterlimit:4;stroke-dasharray:none;stroke-opacity:1;paint-order:markers stroke fill"
       id="path864" />
  </g>
</svg>
