<?xml version="1.0" encoding="UTF-8" standalone="no"?>
<svg
   xmlns:dc="http://purl.org/dc/elements/1.1/"
   xmlns:cc="http://creativecommons.org/ns#"
   xmlns:rdf="http://www.w3.org/1999/02/22-rdf-syntax-ns#"
   xmlns:svg="http://www.w3.org/2000/svg"
   xmlns="http://www.w3.org/2000/svg"
   xmlns:sodipodi="http://sodipodi.sourceforge.net/DTD/sodipodi-0.dtd"
   xmlns:inkscape="http://www.inkscape.org/namespaces/inkscape"
   inkscape:export-ydpi="96"
   inkscape:export-xdpi="96"
   inkscape:export-filename="D:\Calcatz\Icon Pack\Adventure Narative Inspired by Arrival\GUI\Navigation Buttons\Xbox\Dark\png\dpad_none.png"
   sodipodi:docname="dpad_none.svg"
   inkscape:version="1.0 (4035a4fb49, 2020-05-01)"
   id="svg9055"
   version="1.1"
   viewBox="0 0 8.4666662 8.4666662"
   height="31.999998"
   width="31.999998">
  <defs
     id="defs9049" />
  <sodipodi:namedview
     inkscape:window-maximized="1"
     inkscape:window-y="-8"
     inkscape:window-x="-8"
     inkscape:window-height="705"
     inkscape:window-width="1366"
     fit-margin-bottom="0"
     fit-margin-right="0"
     fit-margin-left="0"
     fit-margin-top="0"
     showgrid="false"
     inkscape:document-rotation="0"
     inkscape:current-layer="layer1"
     inkscape:document-units="mm"
     inkscape:cy="68.486112"
     inkscape:cx="257.90233"
     inkscape:zoom="1.2339194"
     inkscape:pageshadow="2"
     inkscape:pageopacity="0.0"
     borderopacity="1.0"
     bordercolor="#666666"
     pagecolor="#ffffff"
     id="base"
     units="px" />
  <metadata
     id="metadata9052">
    <rdf:RDF>
      <cc:Work
         rdf:about="">
        <dc:format>image/svg+xml</dc:format>
        <dc:type
           rdf:resource="http://purl.org/dc/dcmitype/StillImage" />
        <dc:title />
      </cc:Work>
    </rdf:RDF>
  </metadata>
  <g
     transform="translate(-48.592899,-149.51466)"
     id="layer1"
     inkscape:groupmode="layer"
     inkscape:label="Layer 1">
    <rect
       y="149.51466"
       x="48.592899"
       height="8.4666662"
       width="8.4666662"
       id="rect832"
       style="fill:#cccccc;fill-opacity:1;stroke-width:0.717517;stroke-linecap:round;paint-order:fill markers stroke" />
    <path
       sodipodi:nodetypes="ccccccccccccc"
       d="m 52.39323,152.28837 v 1.03045 h -1.03042 c -0.0705,0.28724 -0.0737,0.57292 0,0.85627 h 1.03042 v 1.03042 c 0.30778,0.0958 0.58685,0.0686 0.85627,0 v -1.03042 h 1.02992 c 0.0814,-0.28912 0.09,-0.57494 0,-0.85627 H 53.2495 v -1.03045 c -0.28998,-0.0933 -0.57404,-0.0654 -0.85627,0 z"
       style="fill:#676767;fill-opacity:1;stroke:none;stroke-width:0.276;stroke-linecap:round;stroke-miterlimit:4;stroke-dasharray:none;stroke-opacity:1;paint-order:markers stroke fill"
       id="path3711" />
    <path
       d="m 54.605553,153.748 a 1.7793123,1.7793123 0 0 1 -1.779312,1.77931 1.7793123,1.7793123 0 0 1 -1.779313,-1.77931 1.7793123,1.7793123 0 0 1 1.779313,-1.77931 1.7793123,1.7793123 0 0 1 1.779312,1.77931"
       style="fill:none;fill-opacity:1;stroke:#676767;stroke-width:0.276;stroke-linecap:round;stroke-miterlimit:4;stroke-dasharray:none;stroke-dashoffset:0;stroke-opacity:1;paint-order:fill markers stroke"
       id="circle3713" />
    <rect
       inkscape:export-ydpi="96"
       inkscape:export-xdpi="96"
       inkscape:export-filename="D:\Calcatz\Icon Pack\Adventure Narative Inspired by Arrival\GUI\Navigation Buttons\Xbox\Dark\png\64px\dpad_none.png"
       style="fill:#cccccc;fill-opacity:1;stroke-width:1.43503;stroke-linecap:round;paint-order:fill markers stroke"
       id="rect834"
       width="16.933332"
       height="16.933332"
       x="58.778095"
       y="149.51466" />
    <path
       id="path836"
       style="fill:#676767;fill-opacity:1;stroke:none;stroke-width:0.552;stroke-linecap:round;stroke-miterlimit:4;stroke-dasharray:none;stroke-opacity:1;paint-order:markers stroke fill"
       d="m 66.378753,155.06208 v 2.0609 h -2.06084 c -0.141,0.57448 -0.1474,1.14584 0,1.71254 h 2.06084 v 2.06084 c 0.61556,0.1916 1.1737,0.1372 1.71254,0 v -2.06084 h 2.05984 c 0.1628,-0.57824 0.18,-1.14988 0,-1.71254 h -2.05984 v -2.0609 c -0.57996,-0.1866 -1.14808,-0.1308 -1.71254,0 z"
       sodipodi:nodetypes="ccccccccccccc" />
    <path
       id="path838"
       style="fill:none;fill-opacity:1;stroke:#676767;stroke-width:0.552;stroke-linecap:round;stroke-miterlimit:4;stroke-dasharray:none;stroke-dashoffset:0;stroke-opacity:1;paint-order:fill markers stroke"
       d="m 70.803399,157.98134 a 3.5586246,3.5586246 0 0 1 -3.558624,3.55862 3.5586246,3.5586246 0 0 1 -3.558626,-3.55862 3.5586246,3.5586246 0 0 1 3.558626,-3.55862 3.5586246,3.5586246 0 0 1 3.558624,3.55862" />
    <rect
       inkscape:export-ydpi="96"
       inkscape:export-xdpi="96"
       inkscape:export-filename="D:\Calcatz\Icon Pack\Adventure Narative Inspired by Arrival\GUI\Navigation Buttons\Xbox\Dark\png\128px\dpad_none.png"
       y="149.51466"
       x="79.791756"
       height="33.866665"
       width="33.866665"
       id="rect840"
       style="fill:#cccccc;fill-opacity:1;stroke-width:2.87006;stroke-linecap:round;paint-order:fill markers stroke" />
    <path
       sodipodi:nodetypes="ccccccccccccc"
       d="m 94.993078,160.6095 v 4.1218 h -4.12168 c -0.282,1.14896 -0.2948,2.29168 0,3.42508 h 4.12168 v 4.12168 c 1.23112,0.3832 2.3474,0.2744 3.42508,0 v -4.12168 h 4.119682 c 0.3256,-1.15648 0.36,-2.29976 0,-3.42508 h -4.119682 v -4.1218 c -1.15992,-0.3732 -2.29616,-0.2616 -3.42508,0 z"
       style="fill:#676767;fill-opacity:1;stroke:none;stroke-width:1.104;stroke-linecap:round;stroke-miterlimit:4;stroke-dasharray:none;stroke-opacity:1;paint-order:markers stroke fill"
       id="path842" />
    <path
       d="m 103.84237,166.44802 a 7.1172492,7.1172492 0 0 1 -7.117248,7.11724 7.1172492,7.1172492 0 0 1 -7.117252,-7.11724 7.1172492,7.1172492 0 0 1 7.117252,-7.11724 7.1172492,7.1172492 0 0 1 7.117248,7.11724"
       style="fill:none;fill-opacity:1;stroke:#676767;stroke-width:1.104;stroke-linecap:round;stroke-miterlimit:4;stroke-dasharray:none;stroke-dashoffset:0;stroke-opacity:1;paint-order:fill markers stroke"
       id="path844" />
    <rect
       inkscape:export-ydpi="96"
       inkscape:export-xdpi="96"
       inkscape:export-filename="D:\Calcatz\Icon Pack\Adventure Narative Inspired by Arrival\GUI\Navigation Buttons\Xbox\Dark\png\256px\dpad_none.png"
       style="fill:#cccccc;fill-opacity:1;stroke-width:5.74012;stroke-linecap:round;paint-order:fill markers stroke"
       id="rect846"
       width="67.73333"
       height="67.73333"
       x="119.03156"
       y="149.51466" />
    <path
       id="path848"
       style="fill:#676767;fill-opacity:1;stroke:none;stroke-width:2.208;stroke-linecap:round;stroke-miterlimit:4;stroke-dasharray:none;stroke-opacity:1;paint-order:markers stroke fill"
       d="m 149.4342,171.70434 v 8.2436 h -8.24336 c -0.564,2.29792 -0.5896,4.58336 0,6.85016 h 8.24336 v 8.24336 c 2.46224,0.7664 4.6948,0.5488 6.85016,0 v -8.24336 h 8.23936 c 0.6512,-2.31296 0.72,-4.59952 0,-6.85016 h -8.23936 v -8.2436 c -2.31984,-0.7464 -4.59232,-0.5232 -6.85016,0 z"
       sodipodi:nodetypes="ccccccccccccc" />
    <path
       id="path850"
       style="fill:none;fill-opacity:1;stroke:#676767;stroke-width:2.208;stroke-linecap:round;stroke-miterlimit:4;stroke-dasharray:none;stroke-dashoffset:0;stroke-opacity:1;paint-order:fill markers stroke"
       d="m 167.13278,183.38138 a 14.234498,14.234498 0 0 1 -14.2345,14.23448 14.234498,14.234498 0 0 1 -14.2345,-14.23448 14.234498,14.234498 0 0 1 14.2345,-14.23448 14.234498,14.234498 0 0 1 14.2345,14.23448" />
  </g>
</svg>
