<?xml version="1.0" encoding="UTF-8" standalone="no"?>
<svg
   xmlns:dc="http://purl.org/dc/elements/1.1/"
   xmlns:cc="http://creativecommons.org/ns#"
   xmlns:rdf="http://www.w3.org/1999/02/22-rdf-syntax-ns#"
   xmlns:svg="http://www.w3.org/2000/svg"
   xmlns="http://www.w3.org/2000/svg"
   xmlns:sodipodi="http://sodipodi.sourceforge.net/DTD/sodipodi-0.dtd"
   xmlns:inkscape="http://www.inkscape.org/namespaces/inkscape"
   inkscape:export-ydpi="96"
   inkscape:export-xdpi="96"
   inkscape:export-filename="D:\Calcatz\Icon Pack\Adventure Narative Inspired by Arrival\GUI\Navigation Buttons\Xbox\Dark\png\dpad_down.png"
   sodipodi:docname="dpad_down.svg"
   inkscape:version="1.0 (4035a4fb49, 2020-05-01)"
   id="svg7254"
   version="1.1"
   viewBox="0 0 8.4666662 8.4666662"
   height="31.999998"
   width="31.999998">
  <defs
     id="defs7248" />
  <sodipodi:namedview
     inkscape:window-maximized="1"
     inkscape:window-y="-8"
     inkscape:window-x="-8"
     inkscape:window-height="705"
     inkscape:window-width="1366"
     fit-margin-bottom="0"
     fit-margin-right="0"
     fit-margin-left="0"
     fit-margin-top="0"
     showgrid="false"
     inkscape:document-rotation="0"
     inkscape:current-layer="layer1"
     inkscape:document-units="mm"
     inkscape:cy="134.29018"
     inkscape:cx="233.63431"
     inkscape:zoom="0.87251276"
     inkscape:pageshadow="2"
     inkscape:pageopacity="0.0"
     borderopacity="1.0"
     bordercolor="#666666"
     pagecolor="#ffffff"
     id="base"
     units="px" />
  <metadata
     id="metadata7251">
    <rdf:RDF>
      <cc:Work
         rdf:about="">
        <dc:format>image/svg+xml</dc:format>
        <dc:type
           rdf:resource="http://purl.org/dc/dcmitype/StillImage" />
        <dc:title />
      </cc:Work>
    </rdf:RDF>
  </metadata>
  <g
     transform="translate(-121.13041,-180.26427)"
     id="layer1"
     inkscape:groupmode="layer"
     inkscape:label="Layer 1">
    <rect
       y="180.26427"
       x="121.13041"
       height="8.4666662"
       width="8.4666662"
       id="rect833"
       style="fill:#cccccc;fill-opacity:1;stroke-width:0.379335;stroke-linecap:round;paint-order:fill markers stroke" />
    <path
       d="m 126.88171,184.49479 c -0.003,-0.14253 -0.0267,-0.28419 -0.0594,-0.42529 h -1.03042 v -1.03042 c -0.28726,-0.0705 -0.57293,-0.0737 -0.85629,0 v 1.03042 h -1.03042 c -0.0958,0.30779 -0.0686,0.58685 0,0.85627 h 0.82475 0.20567 0.85629 1.03042 c 0.0466,-0.14499 0.0629,-0.28842 0.0594,-0.43098 z"
       style="fill:#676767;fill-opacity:1;stroke:none;stroke-width:0.276;stroke-linecap:round;stroke-miterlimit:4;stroke-dasharray:none;stroke-opacity:1;paint-order:markers stroke fill"
       id="path3705" />
    <path
       d="m 125.36375,186.27692 a 1.7793123,1.7793123 0 0 1 -1.77932,-1.77932 1.7793123,1.7793123 0 0 1 1.77932,-1.77931 1.7793123,1.7793123 0 0 1 1.77931,1.77931 1.7793123,1.7793123 0 0 1 -1.77931,1.77932"
       style="fill:none;fill-opacity:1;stroke:#676767;stroke-width:0.276;stroke-linecap:round;stroke-miterlimit:4;stroke-dasharray:none;stroke-dashoffset:0;stroke-opacity:1;paint-order:fill markers stroke"
       id="circle3707" />
    <path
       d="m 125.79186,184.92577 h -0.85629 v 1.02992 c 0.28913,0.0814 0.57496,0.09 0.85629,0 z"
       style="fill:#ffffff;fill-opacity:1;stroke:none;stroke-width:0.276;stroke-linecap:round;stroke-miterlimit:4;stroke-dasharray:none;stroke-opacity:1;paint-order:markers stroke fill"
       id="path3709" />
    <rect
       inkscape:export-ydpi="96"
       inkscape:export-xdpi="96"
       inkscape:export-filename="D:\Calcatz\Icon Pack\Adventure Narative Inspired by Arrival\GUI\Navigation Buttons\Xbox\Dark\png\64px\dpad_down.png"
       style="fill:#cccccc;fill-opacity:1;stroke-width:0.75867;stroke-linecap:round;paint-order:fill markers stroke"
       id="rect835"
       width="16.933332"
       height="16.933332"
       x="131.53003"
       y="180.26427" />
    <path
       id="path837"
       style="fill:#676767;fill-opacity:1;stroke:none;stroke-width:0.552;stroke-linecap:round;stroke-miterlimit:4;stroke-dasharray:none;stroke-opacity:1;paint-order:markers stroke fill"
       d="m 143.03263,188.72531 c -0.006,-0.28506 -0.0534,-0.56838 -0.1188,-0.85058 h -2.06084 v -2.06084 c -0.57452,-0.141 -1.14586,-0.1474 -1.71258,0 v 2.06084 h -2.06084 c -0.1916,0.61558 -0.1372,1.1737 0,1.71254 h 1.6495 0.41134 1.71258 2.06084 c 0.0932,-0.28998 0.1258,-0.57684 0.1188,-0.86196 z" />
    <path
       id="path839"
       style="fill:none;fill-opacity:1;stroke:#676767;stroke-width:0.552;stroke-linecap:round;stroke-miterlimit:4;stroke-dasharray:none;stroke-dashoffset:0;stroke-opacity:1;paint-order:fill markers stroke"
       d="m 139.99671,192.28957 a 3.5586246,3.5586246 0 0 1 -3.55864,-3.55864 3.5586246,3.5586246 0 0 1 3.55864,-3.55862 3.5586246,3.5586246 0 0 1 3.55862,3.55862 3.5586246,3.5586246 0 0 1 -3.55862,3.55864" />
    <path
       id="path841"
       style="fill:#ffffff;fill-opacity:1;stroke:none;stroke-width:0.552;stroke-linecap:round;stroke-miterlimit:4;stroke-dasharray:none;stroke-opacity:1;paint-order:markers stroke fill"
       d="m 140.85293,189.58727 h -1.71258 v 2.05984 c 0.57826,0.1628 1.14992,0.18 1.71258,0 z" />
    <rect
       inkscape:export-ydpi="96"
       inkscape:export-xdpi="96"
       inkscape:export-filename="D:\Calcatz\Icon Pack\Adventure Narative Inspired by Arrival\GUI\Navigation Buttons\Xbox\Dark\png\128px\dpad_down.png"
       y="180.26427"
       x="152.97255"
       height="33.866665"
       width="33.866665"
       id="rect843"
       style="fill:#cccccc;fill-opacity:1;stroke-width:1.51734;stroke-linecap:round;paint-order:fill markers stroke" />
    <path
       d="m 175.97773,197.18635 c -0.012,-0.57012 -0.1068,-1.13676 -0.2376,-1.70116 h -4.12168 v -4.12168 c -1.14904,-0.282 -2.29172,-0.2948 -3.42516,0 v 4.12168 h -4.12168 c -0.3832,1.23116 -0.2744,2.3474 0,3.42508 h 3.299 0.82268 3.42516 4.12168 c 0.1864,-0.57996 0.2516,-1.15368 0.2376,-1.72392 z"
       style="fill:#676767;fill-opacity:1;stroke:none;stroke-width:1.104;stroke-linecap:round;stroke-miterlimit:4;stroke-dasharray:none;stroke-opacity:1;paint-order:markers stroke fill"
       id="path845" />
    <path
       d="m 169.90589,204.31487 a 7.1172492,7.1172492 0 0 1 -7.11728,-7.11728 7.1172492,7.1172492 0 0 1 7.11728,-7.11724 7.1172492,7.1172492 0 0 1 7.11724,7.11724 7.1172492,7.1172492 0 0 1 -7.11724,7.11728"
       style="fill:none;fill-opacity:1;stroke:#676767;stroke-width:1.104;stroke-linecap:round;stroke-miterlimit:4;stroke-dasharray:none;stroke-dashoffset:0;stroke-opacity:1;paint-order:fill markers stroke"
       id="path847" />
    <path
       d="m 171.61833,198.91027 h -3.42516 v 4.11968 c 1.15652,0.3256 2.29984,0.36 3.42516,0 z"
       style="fill:#ffffff;fill-opacity:1;stroke:none;stroke-width:1.104;stroke-linecap:round;stroke-miterlimit:4;stroke-dasharray:none;stroke-opacity:1;paint-order:markers stroke fill"
       id="path849" />
    <rect
       inkscape:export-ydpi="96"
       inkscape:export-xdpi="96"
       inkscape:export-filename="D:\Calcatz\Icon Pack\Adventure Narative Inspired by Arrival\GUI\Navigation Buttons\Xbox\Dark\png\256px\dpad_down.png"
       style="fill:#cccccc;fill-opacity:1;stroke-width:3.03468;stroke-linecap:round;paint-order:fill markers stroke"
       id="rect851"
       width="67.73333"
       height="67.73333"
       x="196.94278"
       y="180.26427" />
    <path
       id="path853"
       style="fill:#676767;fill-opacity:1;stroke:none;stroke-width:2.208;stroke-linecap:round;stroke-miterlimit:4;stroke-dasharray:none;stroke-opacity:1;paint-order:markers stroke fill"
       d="m 242.95314,214.10843 c -0.024,-1.14024 -0.2136,-2.27352 -0.4752,-3.40232 h -8.24336 v -8.24336 c -2.29808,-0.564 -4.58344,-0.5896 -6.85032,0 v 8.24336 h -8.24336 c -0.7664,2.46232 -0.5488,4.6948 0,6.85016 h 6.598 1.64536 6.85032 8.24336 c 0.3728,-1.15992 0.5032,-2.30736 0.4752,-3.44784 z" />
    <path
       id="path855"
       style="fill:none;fill-opacity:1;stroke:#676767;stroke-width:2.208;stroke-linecap:round;stroke-miterlimit:4;stroke-dasharray:none;stroke-dashoffset:0;stroke-opacity:1;paint-order:fill markers stroke"
       d="m 230.80946,228.36547 a 14.234498,14.234498 0 0 1 -14.23456,-14.23456 14.234498,14.234498 0 0 1 14.23456,-14.23448 14.234498,14.234498 0 0 1 14.23448,14.23448 14.234498,14.234498 0 0 1 -14.23448,14.23456" />
    <path
       id="path857"
       style="fill:#ffffff;fill-opacity:1;stroke:none;stroke-width:2.208;stroke-linecap:round;stroke-miterlimit:4;stroke-dasharray:none;stroke-opacity:1;paint-order:markers stroke fill"
       d="m 234.23434,217.55627 h -6.85032 v 8.23936 c 2.31304,0.6512 4.59968,0.72 6.85032,0 z" />
  </g>
</svg>
