<?xml version="1.0" encoding="UTF-8" standalone="no"?>
<svg
   xmlns:dc="http://purl.org/dc/elements/1.1/"
   xmlns:cc="http://creativecommons.org/ns#"
   xmlns:rdf="http://www.w3.org/1999/02/22-rdf-syntax-ns#"
   xmlns:svg="http://www.w3.org/2000/svg"
   xmlns="http://www.w3.org/2000/svg"
   xmlns:sodipodi="http://sodipodi.sourceforge.net/DTD/sodipodi-0.dtd"
   xmlns:inkscape="http://www.inkscape.org/namespaces/inkscape"
   inkscape:export-ydpi="96"
   inkscape:export-xdpi="96"
   inkscape:export-filename="D:\Calcatz\Icon Pack\Adventure Narative Inspired by Arrival\GUI\Navigation Buttons\Xbox\Dark\png\lb.png"
   sodipodi:docname="lb.svg"
   inkscape:version="1.0 (4035a4fb49, 2020-05-01)"
   id="svg3640"
   version="1.1"
   viewBox="0 0 8.4666662 8.4666662"
   height="31.999998"
   width="31.999998">
  <defs
     id="defs3634" />
  <sodipodi:namedview
     inkscape:window-maximized="1"
     inkscape:window-y="-8"
     inkscape:window-x="-8"
     inkscape:window-height="705"
     inkscape:window-width="1366"
     fit-margin-bottom="0"
     fit-margin-right="0"
     fit-margin-left="0"
     fit-margin-top="0"
     showgrid="false"
     inkscape:document-rotation="0"
     inkscape:current-layer="layer1"
     inkscape:document-units="mm"
     inkscape:cy="166.22411"
     inkscape:cx="153.07729"
     inkscape:zoom="0.87251276"
     inkscape:pageshadow="2"
     inkscape:pageopacity="0.0"
     borderopacity="1.0"
     bordercolor="#666666"
     pagecolor="#ffffff"
     id="base"
     units="px" />
  <metadata
     id="metadata3637">
    <rdf:RDF>
      <cc:Work
         rdf:about="">
        <dc:format>image/svg+xml</dc:format>
        <dc:type
           rdf:resource="http://purl.org/dc/dcmitype/StillImage" />
        <dc:title />
      </cc:Work>
    </rdf:RDF>
  </metadata>
  <g
     transform="translate(-115.61126,-127.43803)"
     id="layer1"
     inkscape:groupmode="layer"
     inkscape:label="Layer 1">
    <rect
       y="127.43803"
       x="115.61126"
       height="8.4666662"
       width="8.4666662"
       id="rect834"
       style="fill:#cccccc;fill-opacity:1;stroke-width:0.572503;stroke-linecap:round;paint-order:fill markers stroke" />
    <g
       style="font-weight:bold;font-size:2.11667px;line-height:1.05;font-family:'Overlock SC';-inkscape-font-specification:'Overlock SC Bold';text-align:end;text-anchor:end;fill:#ffffff;fill-opacity:1;stroke:#ffffff;stroke-width:0.905997;stroke-linecap:round;stroke-miterlimit:4;stroke-dasharray:none;stroke-opacity:1;paint-order:markers stroke fill"
       id="text4405"
       aria-label="LB">
      <path
         id="path4232"
         style="font-size:2.11667px;fill:#ffffff;fill-opacity:1;stroke:none;stroke-width:0.905997"
         d="m 118.94322,131.8989 v -0.43815 q 0,-0.29845 -0.0148,-0.49107 0.036,-0.006 0.0868,-0.006 0.10372,0 0.10372,0.0804 0,0.0127 -0.004,0.0868 -0.004,0.072 -0.008,0.18203 -0.004,0.10795 -0.004,0.20532 v 0.1905 q 0,0.44026 0.0148,0.5334 0.0889,0.004 0.1397,0.004 0.3302,0 0.42545,-0.0487 0.0148,0.0445 0.0148,0.0931 0,0.0381 -0.019,0.055 -0.036,0.0318 -0.32385,0.0318 -0.254,0 -0.3175,-0.004 -0.0572,-0.002 -0.0783,-0.0296 -0.019,-0.0275 -0.019,-0.091 0,-0.0339 0.002,-0.15663 0.002,-0.12277 0.002,-0.19685 z" />
      <path
         id="path4234"
         style="font-size:2.11667px;fill:#ffffff;fill-opacity:1;stroke:none;stroke-width:0.905997"
         d="m 120.17235,131.07763 q -0.0508,0 -0.14394,0.008 0.008,0.1778 0.008,0.47625 0.0677,0.004 0.11642,0.004 0.3937,0 0.3937,-0.2413 0,-0.24765 -0.37465,-0.24765 z m 0.1016,1.18745 q 0.13758,0 0.23071,-0.0762 0.0931,-0.0783 0.0931,-0.21167 0,-0.14816 -0.10584,-0.22648 -0.10371,-0.0783 -0.25611,-0.0783 -0.13759,0 -0.20109,0.0106 0,0.16933 -0.0275,0.50588 0.0402,0.0317 0.11641,0.055 0.0783,0.0212 0.15029,0.0212 z m -0.42969,-0.004 q 0.0339,-0.2413 0.0339,-0.70697 0,-0.3937 -0.0275,-0.57997 0.15664,-0.0254 0.33655,-0.0254 0.23072,0 0.37677,0.0847 0.14605,0.0847 0.14605,0.2794 0,0.21167 -0.18415,0.29422 0.23495,0.0995 0.23495,0.36195 0,0.20108 -0.13123,0.31326 -0.12912,0.11219 -0.3175,0.11219 -0.30692,0 -0.46779,-0.13335 z" />
    </g>
    <path
       sodipodi:nodetypes="cccssc"
       d="m 121.74797,130.22055 v 2.90164 h -4.05479 v -1.44471 c 0,-0.63992 0.81907,-1.45695 1.45693,-1.45695 z"
       style="fill:none;fill-opacity:1;stroke:#676767;stroke-width:0.276;stroke-linecap:round;stroke-miterlimit:4;stroke-dasharray:none;stroke-opacity:1;paint-order:markers stroke fill"
       id="path1879" />
    <rect
       inkscape:export-ydpi="96"
       inkscape:export-xdpi="96"
       inkscape:export-filename="D:\Calcatz\Icon Pack\Adventure Narative Inspired by Arrival\GUI\Navigation Buttons\Xbox\Dark\png\64px\lb.png"
       style="fill:#cccccc;fill-opacity:1;stroke-width:1.14501;stroke-linecap:round;paint-order:fill markers stroke"
       id="rect836"
       width="16.933332"
       height="16.933332"
       x="125.71604"
       y="127.43803" />
    <g
       transform="matrix(2,0,0,2,-105.50647,-127.43803)"
       aria-label="LB"
       id="g842"
       style="font-weight:bold;font-size:2.11667px;line-height:1.05;font-family:'Overlock SC';-inkscape-font-specification:'Overlock SC Bold';text-align:end;text-anchor:end;fill:#ffffff;fill-opacity:1;stroke:#ffffff;stroke-width:0.905997;stroke-linecap:round;stroke-miterlimit:4;stroke-dasharray:none;stroke-opacity:1;paint-order:markers stroke fill">
      <path
         d="m 118.94322,131.8989 v -0.43815 q 0,-0.29845 -0.0148,-0.49107 0.036,-0.006 0.0868,-0.006 0.10372,0 0.10372,0.0804 0,0.0127 -0.004,0.0868 -0.004,0.072 -0.008,0.18203 -0.004,0.10795 -0.004,0.20532 v 0.1905 q 0,0.44026 0.0148,0.5334 0.0889,0.004 0.1397,0.004 0.3302,0 0.42545,-0.0487 0.0148,0.0445 0.0148,0.0931 0,0.0381 -0.019,0.055 -0.036,0.0318 -0.32385,0.0318 -0.254,0 -0.3175,-0.004 -0.0572,-0.002 -0.0783,-0.0296 -0.019,-0.0275 -0.019,-0.091 0,-0.0339 0.002,-0.15663 0.002,-0.12277 0.002,-0.19685 z"
         style="font-size:2.11667px;fill:#ffffff;fill-opacity:1;stroke:none;stroke-width:0.905997"
         id="path838" />
      <path
         d="m 120.17235,131.07763 q -0.0508,0 -0.14394,0.008 0.008,0.1778 0.008,0.47625 0.0677,0.004 0.11642,0.004 0.3937,0 0.3937,-0.2413 0,-0.24765 -0.37465,-0.24765 z m 0.1016,1.18745 q 0.13758,0 0.23071,-0.0762 0.0931,-0.0783 0.0931,-0.21167 0,-0.14816 -0.10584,-0.22648 -0.10371,-0.0783 -0.25611,-0.0783 -0.13759,0 -0.20109,0.0106 0,0.16933 -0.0275,0.50588 0.0402,0.0317 0.11641,0.055 0.0783,0.0212 0.15029,0.0212 z m -0.42969,-0.004 q 0.0339,-0.2413 0.0339,-0.70697 0,-0.3937 -0.0275,-0.57997 0.15664,-0.0254 0.33655,-0.0254 0.23072,0 0.37677,0.0847 0.14605,0.0847 0.14605,0.2794 0,0.21167 -0.18415,0.29422 0.23495,0.0995 0.23495,0.36195 0,0.20108 -0.13123,0.31326 -0.12912,0.11219 -0.3175,0.11219 -0.30692,0 -0.46779,-0.13335 z"
         style="font-size:2.11667px;fill:#ffffff;fill-opacity:1;stroke:none;stroke-width:0.905997"
         id="path840" />
    </g>
    <path
       id="path844"
       style="fill:none;fill-opacity:1;stroke:#676767;stroke-width:0.552;stroke-linecap:round;stroke-miterlimit:4;stroke-dasharray:none;stroke-opacity:1;paint-order:markers stroke fill"
       d="m 137.98946,133.00307 v 5.80328 h -8.10958 v -2.88942 c 0,-1.27984 1.63814,-2.9139 2.91386,-2.9139 z"
       sodipodi:nodetypes="cccssc" />
    <rect
       inkscape:export-ydpi="96"
       inkscape:export-xdpi="96"
       inkscape:export-filename="D:\Calcatz\Icon Pack\Adventure Narative Inspired by Arrival\GUI\Navigation Buttons\Xbox\Dark\png\128px\lb.png"
       y="127.43803"
       x="145.04778"
       height="33.866665"
       width="33.866665"
       id="rect846"
       style="fill:#cccccc;fill-opacity:1;stroke-width:2.29002;stroke-linecap:round;paint-order:fill markers stroke" />
    <g
       style="font-weight:bold;font-size:2.11667px;line-height:1.05;font-family:'Overlock SC';-inkscape-font-specification:'Overlock SC Bold';text-align:end;text-anchor:end;fill:#ffffff;fill-opacity:1;stroke:#ffffff;stroke-width:0.905997;stroke-linecap:round;stroke-miterlimit:4;stroke-dasharray:none;stroke-opacity:1;paint-order:markers stroke fill"
       id="g852"
       aria-label="LB"
       transform="matrix(4,0,0,4,-317.39724,-382.31409)">
      <path
         id="path848"
         style="font-size:2.11667px;fill:#ffffff;fill-opacity:1;stroke:none;stroke-width:0.905997"
         d="m 118.94322,131.8989 v -0.43815 q 0,-0.29845 -0.0148,-0.49107 0.036,-0.006 0.0868,-0.006 0.10372,0 0.10372,0.0804 0,0.0127 -0.004,0.0868 -0.004,0.072 -0.008,0.18203 -0.004,0.10795 -0.004,0.20532 v 0.1905 q 0,0.44026 0.0148,0.5334 0.0889,0.004 0.1397,0.004 0.3302,0 0.42545,-0.0487 0.0148,0.0445 0.0148,0.0931 0,0.0381 -0.019,0.055 -0.036,0.0318 -0.32385,0.0318 -0.254,0 -0.3175,-0.004 -0.0572,-0.002 -0.0783,-0.0296 -0.019,-0.0275 -0.019,-0.091 0,-0.0339 0.002,-0.15663 0.002,-0.12277 0.002,-0.19685 z" />
      <path
         id="path850"
         style="font-size:2.11667px;fill:#ffffff;fill-opacity:1;stroke:none;stroke-width:0.905997"
         d="m 120.17235,131.07763 q -0.0508,0 -0.14394,0.008 0.008,0.1778 0.008,0.47625 0.0677,0.004 0.11642,0.004 0.3937,0 0.3937,-0.2413 0,-0.24765 -0.37465,-0.24765 z m 0.1016,1.18745 q 0.13758,0 0.23071,-0.0762 0.0931,-0.0783 0.0931,-0.21167 0,-0.14816 -0.10584,-0.22648 -0.10371,-0.0783 -0.25611,-0.0783 -0.13759,0 -0.20109,0.0106 0,0.16933 -0.0275,0.50588 0.0402,0.0317 0.11641,0.055 0.0783,0.0212 0.15029,0.0212 z m -0.42969,-0.004 q 0.0339,-0.2413 0.0339,-0.70697 0,-0.3937 -0.0275,-0.57997 0.15664,-0.0254 0.33655,-0.0254 0.23072,0 0.37677,0.0847 0.14605,0.0847 0.14605,0.2794 0,0.21167 -0.18415,0.29422 0.23495,0.0995 0.23495,0.36195 0,0.20108 -0.13123,0.31326 -0.12912,0.11219 -0.3175,0.11219 -0.30692,0 -0.46779,-0.13335 z" />
    </g>
    <path
       sodipodi:nodetypes="cccssc"
       d="m 169.59462,138.56811 v 11.60656 h -16.21916 v -5.77884 c 0,-2.55968 3.27628,-5.8278 5.82772,-5.8278 z"
       style="fill:none;fill-opacity:1;stroke:#676767;stroke-width:1.104;stroke-linecap:round;stroke-miterlimit:4;stroke-dasharray:none;stroke-opacity:1;paint-order:markers stroke fill"
       id="path854" />
    <rect
       inkscape:export-ydpi="96"
       inkscape:export-xdpi="96"
       inkscape:export-filename="D:\Calcatz\Icon Pack\Adventure Narative Inspired by Arrival\GUI\Navigation Buttons\Xbox\Dark\png\256px\lb.png"
       style="fill:#cccccc;fill-opacity:1;stroke-width:4.58004;stroke-linecap:round;paint-order:fill markers stroke"
       id="rect856"
       width="67.73333"
       height="67.73333"
       x="182.49828"
       y="127.43803" />
    <g
       transform="matrix(8,0,0,8,-742.39176,-892.06621)"
       aria-label="LB"
       id="g862"
       style="font-weight:bold;font-size:2.11667px;line-height:1.05;font-family:'Overlock SC';-inkscape-font-specification:'Overlock SC Bold';text-align:end;text-anchor:end;fill:#ffffff;fill-opacity:1;stroke:#ffffff;stroke-width:0.905997;stroke-linecap:round;stroke-miterlimit:4;stroke-dasharray:none;stroke-opacity:1;paint-order:markers stroke fill">
      <path
         d="m 118.94322,131.8989 v -0.43815 q 0,-0.29845 -0.0148,-0.49107 0.036,-0.006 0.0868,-0.006 0.10372,0 0.10372,0.0804 0,0.0127 -0.004,0.0868 -0.004,0.072 -0.008,0.18203 -0.004,0.10795 -0.004,0.20532 v 0.1905 q 0,0.44026 0.0148,0.5334 0.0889,0.004 0.1397,0.004 0.3302,0 0.42545,-0.0487 0.0148,0.0445 0.0148,0.0931 0,0.0381 -0.019,0.055 -0.036,0.0318 -0.32385,0.0318 -0.254,0 -0.3175,-0.004 -0.0572,-0.002 -0.0783,-0.0296 -0.019,-0.0275 -0.019,-0.091 0,-0.0339 0.002,-0.15663 0.002,-0.12277 0.002,-0.19685 z"
         style="font-size:2.11667px;fill:#ffffff;fill-opacity:1;stroke:none;stroke-width:0.905997"
         id="path858" />
      <path
         d="m 120.17235,131.07763 q -0.0508,0 -0.14394,0.008 0.008,0.1778 0.008,0.47625 0.0677,0.004 0.11642,0.004 0.3937,0 0.3937,-0.2413 0,-0.24765 -0.37465,-0.24765 z m 0.1016,1.18745 q 0.13758,0 0.23071,-0.0762 0.0931,-0.0783 0.0931,-0.21167 0,-0.14816 -0.10584,-0.22648 -0.10371,-0.0783 -0.25611,-0.0783 -0.13759,0 -0.20109,0.0106 0,0.16933 -0.0275,0.50588 0.0402,0.0317 0.11641,0.055 0.0783,0.0212 0.15029,0.0212 z m -0.42969,-0.004 q 0.0339,-0.2413 0.0339,-0.70697 0,-0.3937 -0.0275,-0.57997 0.15664,-0.0254 0.33655,-0.0254 0.23072,0 0.37677,0.0847 0.14605,0.0847 0.14605,0.2794 0,0.21167 -0.18415,0.29422 0.23495,0.0995 0.23495,0.36195 0,0.20108 -0.13123,0.31326 -0.12912,0.11219 -0.3175,0.11219 -0.30692,0 -0.46779,-0.13335 z"
         style="font-size:2.11667px;fill:#ffffff;fill-opacity:1;stroke:none;stroke-width:0.905997"
         id="path860" />
    </g>
    <path
       id="path864"
       style="fill:none;fill-opacity:1;stroke:#676767;stroke-width:2.208;stroke-linecap:round;stroke-miterlimit:4;stroke-dasharray:none;stroke-opacity:1;paint-order:markers stroke fill"
       d="m 231.59196,149.69819 v 23.21312 h -32.43832 v -11.55768 c 0,-5.11936 6.55256,-11.6556 11.65544,-11.6556 z"
       sodipodi:nodetypes="cccssc" />
  </g>
</svg>
