<?xml version="1.0" encoding="UTF-8" standalone="no"?>
<svg
   xmlns:dc="http://purl.org/dc/elements/1.1/"
   xmlns:cc="http://creativecommons.org/ns#"
   xmlns:rdf="http://www.w3.org/1999/02/22-rdf-syntax-ns#"
   xmlns:svg="http://www.w3.org/2000/svg"
   xmlns="http://www.w3.org/2000/svg"
   xmlns:sodipodi="http://sodipodi.sourceforge.net/DTD/sodipodi-0.dtd"
   xmlns:inkscape="http://www.inkscape.org/namespaces/inkscape"
   width="31.999998"
   height="31.999998"
   viewBox="0 0 8.4666662 8.4666662"
   version="1.1"
   id="svg6708"
   inkscape:version="1.0 (4035a4fb49, 2020-05-01)"
   sodipodi:docname="lstick_left.svg"
   inkscape:export-filename="D:\Calcatz\Icon Pack\Adventure Narative Inspired by Arrival\GUI\Navigation Buttons\Xbox\Dark\png\lstick_left.png"
   inkscape:export-xdpi="96"
   inkscape:export-ydpi="96">
  <defs
     id="defs6702" />
  <sodipodi:namedview
     units="px"
     id="base"
     pagecolor="#ffffff"
     bordercolor="#666666"
     borderopacity="1.0"
     inkscape:pageopacity="0.0"
     inkscape:pageshadow="2"
     inkscape:zoom="1.1830589"
     inkscape:cx="404.91736"
     inkscape:cy="181.26891"
     inkscape:document-units="mm"
     inkscape:current-layer="layer1"
     inkscape:document-rotation="0"
     showgrid="false"
     fit-margin-top="0"
     fit-margin-left="0"
     fit-margin-right="0"
     fit-margin-bottom="0"
     inkscape:window-width="1366"
     inkscape:window-height="705"
     inkscape:window-x="-8"
     inkscape:window-y="-8"
     inkscape:window-maximized="1" />
  <metadata
     id="metadata6705">
    <rdf:RDF>
      <cc:Work
         rdf:about="">
        <dc:format>image/svg+xml</dc:format>
        <dc:type
           rdf:resource="http://purl.org/dc/dcmitype/StillImage" />
        <dc:title />
      </cc:Work>
    </rdf:RDF>
  </metadata>
  <g
     inkscape:label="Layer 1"
     inkscape:groupmode="layer"
     id="layer1"
     transform="translate(-64.361931,-75.991585)">
    <rect
       y="75.991585"
       x="64.361931"
       height="8.4666662"
       width="8.4666662"
       id="rect834"
       style="fill:#cccccc;fill-opacity:1;stroke-width:0.279863;stroke-linecap:round;paint-order:fill markers stroke" />
    <g
       aria-label="L"
       id="text3052"
       style="font-weight:bold;font-size:2.64583px;line-height:1.05;font-family:'Overlock SC';-inkscape-font-specification:'Overlock SC Bold';text-align:end;text-anchor:end;fill:#ffffff;fill-opacity:1;stroke:#ffffff;stroke-width:0.905997;stroke-linecap:round;stroke-miterlimit:4;stroke-dasharray:none;stroke-opacity:1;paint-order:markers stroke fill">
      <path
         d="m 68.133559,80.510674 v -0.547687 q 0,-0.373062 -0.01852,-0.613832 0.04498,-0.0079 0.108479,-0.0079 0.129646,0 0.129646,0.100542 0,0.01587 -0.0053,0.108479 -0.0053,0.08996 -0.01058,0.227541 -0.0053,0.134938 -0.0053,0.256646 v 0.238125 q 0,0.550332 0.01852,0.666749 0.111125,0.0053 0.174625,0.0053 0.412749,0 0.531812,-0.06085 0.01852,0.05556 0.01852,0.116417 0,0.04762 -0.02381,0.06879 -0.04498,0.03969 -0.404812,0.03969 -0.3175,0 -0.396875,-0.0053 -0.07144,-0.0026 -0.0979,-0.03704 -0.02381,-0.0344 -0.02381,-0.113771 0,-0.04233 0.0026,-0.195792 0.0026,-0.153458 0.0026,-0.246062 z"
         style="font-size:2.64583px;fill:#ffffff;fill-opacity:1;stroke:none;stroke-width:0.905997"
         id="path7321" />
    </g>
    <path
       id="path3056"
       style="fill:#ffffff;fill-opacity:1;stroke:none;stroke-width:0.176;stroke-linecap:round;stroke-miterlimit:4;stroke-dasharray:none;stroke-opacity:1;paint-order:markers stroke fill"
       inkscape:transform-center-x="0.18452804"
       inkscape:transform-center-y="-8.8886874e-06"
       d="m 66.940178,80.875453 v -0.650544 -0.650544 l -0.553598,0.325272 -0.553592,0.325272 0.553592,0.325272 z" />
    <path
       id="path4567"
       style="fill:none;fill-opacity:1;stroke:#676767;stroke-width:0.276;stroke-linecap:round;stroke-miterlimit:4;stroke-dasharray:none;stroke-dashoffset:0;stroke-opacity:1;paint-order:fill markers stroke"
       d="m 66.725245,79.145355 a 2.1593168,2.1593168 0 0 1 2.428896,-1.006081 2.1593168,2.1593168 0 0 1 1.600444,2.08574 2.1593168,2.1593168 0 0 1 -1.600444,2.08574 2.1593168,2.1593168 0 0 1 -2.428896,-1.006082" />
    <rect
       inkscape:export-ydpi="96"
       inkscape:export-xdpi="96"
       inkscape:export-filename="D:\Calcatz\Icon Pack\Adventure Narative Inspired by Arrival\GUI\Navigation Buttons\Xbox\Dark\png\64px\lstick_left.png"
       style="fill:#cccccc;fill-opacity:1;stroke-width:0.559726;stroke-linecap:round;paint-order:fill markers stroke"
       id="rect836"
       width="16.933332"
       height="16.933332"
       x="75.036369"
       y="75.991585" />
    <g
       transform="matrix(2,0,0,2,-53.687499,-75.991585)"
       style="font-weight:bold;font-size:2.64583px;line-height:1.05;font-family:'Overlock SC';-inkscape-font-specification:'Overlock SC Bold';text-align:end;text-anchor:end;fill:#ffffff;fill-opacity:1;stroke:#ffffff;stroke-width:0.905997;stroke-linecap:round;stroke-miterlimit:4;stroke-dasharray:none;stroke-opacity:1;paint-order:markers stroke fill"
       id="g840"
       aria-label="L">
      <path
         id="path838"
         style="font-size:2.64583px;fill:#ffffff;fill-opacity:1;stroke:none;stroke-width:0.905997"
         d="m 68.133559,80.510674 v -0.547687 q 0,-0.373062 -0.01852,-0.613832 0.04498,-0.0079 0.108479,-0.0079 0.129646,0 0.129646,0.100542 0,0.01587 -0.0053,0.108479 -0.0053,0.08996 -0.01058,0.227541 -0.0053,0.134938 -0.0053,0.256646 v 0.238125 q 0,0.550332 0.01852,0.666749 0.111125,0.0053 0.174625,0.0053 0.412749,0 0.531812,-0.06085 0.01852,0.05556 0.01852,0.116417 0,0.04762 -0.02381,0.06879 -0.04498,0.03969 -0.404812,0.03969 -0.3175,0 -0.396875,-0.0053 -0.07144,-0.0026 -0.0979,-0.03704 -0.02381,-0.0344 -0.02381,-0.113771 0,-0.04233 0.0026,-0.195792 0.0026,-0.153458 0.0026,-0.246062 z" />
    </g>
    <path
       d="m 80.192857,85.759321 v -1.301088 -1.301088 l -1.107196,0.650544 -1.107184,0.650544 1.107184,0.650544 z"
       inkscape:transform-center-y="-1.7999543e-05"
       inkscape:transform-center-x="0.36905576"
       style="fill:#ffffff;fill-opacity:1;stroke:none;stroke-width:0.352;stroke-linecap:round;stroke-miterlimit:4;stroke-dasharray:none;stroke-opacity:1;paint-order:markers stroke fill"
       id="path842" />
    <path
       d="m 79.762991,82.299125 a 4.3186336,4.3186336 0 0 1 4.857792,-2.012162 4.3186336,4.3186336 0 0 1 3.200888,4.17148 4.3186336,4.3186336 0 0 1 -3.200888,4.17148 4.3186336,4.3186336 0 0 1 -4.857792,-2.012164"
       style="fill:none;fill-opacity:1;stroke:#676767;stroke-width:0.552;stroke-linecap:round;stroke-miterlimit:4;stroke-dasharray:none;stroke-dashoffset:0;stroke-opacity:1;paint-order:fill markers stroke"
       id="path844" />
    <rect
       inkscape:export-ydpi="96"
       inkscape:export-xdpi="96"
       inkscape:export-filename="D:\Calcatz\Icon Pack\Adventure Narative Inspired by Arrival\GUI\Navigation Buttons\Xbox\Dark\png\128px\lstick_left.png"
       y="75.991585"
       x="94.381523"
       height="33.866665"
       width="33.866665"
       id="rect846"
       style="fill:#cccccc;fill-opacity:1;stroke-width:1.11945;stroke-linecap:round;paint-order:fill markers stroke" />
    <g
       aria-label="L"
       id="g850"
       style="font-weight:bold;font-size:2.64583px;line-height:1.05;font-family:'Overlock SC';-inkscape-font-specification:'Overlock SC Bold';text-align:end;text-anchor:end;fill:#ffffff;fill-opacity:1;stroke:#ffffff;stroke-width:0.905997;stroke-linecap:round;stroke-miterlimit:4;stroke-dasharray:none;stroke-opacity:1;paint-order:markers stroke fill"
       transform="matrix(4,0,0,4,-163.06621,-227.97475)">
      <path
         d="m 68.133559,80.510674 v -0.547687 q 0,-0.373062 -0.01852,-0.613832 0.04498,-0.0079 0.108479,-0.0079 0.129646,0 0.129646,0.100542 0,0.01587 -0.0053,0.108479 -0.0053,0.08996 -0.01058,0.227541 -0.0053,0.134938 -0.0053,0.256646 v 0.238125 q 0,0.550332 0.01852,0.666749 0.111125,0.0053 0.174625,0.0053 0.412749,0 0.531812,-0.06085 0.01852,0.05556 0.01852,0.116417 0,0.04762 -0.02381,0.06879 -0.04498,0.03969 -0.404812,0.03969 -0.3175,0 -0.396875,-0.0053 -0.07144,-0.0026 -0.0979,-0.03704 -0.02381,-0.0344 -0.02381,-0.113771 0,-0.04233 0.0026,-0.195792 0.0026,-0.153458 0.0026,-0.246062 z"
         style="font-size:2.64583px;fill:#ffffff;fill-opacity:1;stroke:none;stroke-width:0.905997"
         id="path848" />
    </g>
    <path
       id="path852"
       style="fill:#ffffff;fill-opacity:1;stroke:none;stroke-width:0.704;stroke-linecap:round;stroke-miterlimit:4;stroke-dasharray:none;stroke-opacity:1;paint-order:markers stroke fill"
       inkscape:transform-center-x="0.73811439"
       inkscape:transform-center-y="-3.6221254e-05"
       d="m 104.6945,95.527057 v -2.602176 -2.602176 l -2.21439,1.301088 -2.21437,1.301088 2.21437,1.301088 z" />
    <path
       id="path854"
       style="fill:none;fill-opacity:1;stroke:#676767;stroke-width:1.104;stroke-linecap:round;stroke-miterlimit:4;stroke-dasharray:none;stroke-dashoffset:0;stroke-opacity:1;paint-order:fill markers stroke"
       d="m 103.83477,88.606665 a 8.6372672,8.6372672 0 0 1 9.71559,-4.024324 8.6372672,8.6372672 0 0 1 6.40178,8.34296 8.6372672,8.6372672 0 0 1 -6.40178,8.342959 8.6372672,8.6372672 0 0 1 -9.71559,-4.024327" />
    <rect
       inkscape:export-ydpi="96"
       inkscape:export-xdpi="96"
       inkscape:export-filename="D:\Calcatz\Icon Pack\Adventure Narative Inspired by Arrival\GUI\Navigation Buttons\Xbox\Dark\png\256px\lstick_left.png"
       style="fill:#cccccc;fill-opacity:1;stroke-width:2.2389;stroke-linecap:round;paint-order:fill markers stroke"
       id="rect856"
       width="67.73333"
       height="67.73333"
       x="134.63734"
       y="75.991585" />
    <g
       transform="matrix(8,0,0,8,-380.25812,-531.94108)"
       style="font-weight:bold;font-size:2.64583px;line-height:1.05;font-family:'Overlock SC';-inkscape-font-specification:'Overlock SC Bold';text-align:end;text-anchor:end;fill:#ffffff;fill-opacity:1;stroke:#ffffff;stroke-width:0.905997;stroke-linecap:round;stroke-miterlimit:4;stroke-dasharray:none;stroke-opacity:1;paint-order:markers stroke fill"
       id="g860"
       aria-label="L">
      <path
         id="path858"
         style="font-size:2.64583px;fill:#ffffff;fill-opacity:1;stroke:none;stroke-width:0.905997"
         d="m 68.133559,80.510674 v -0.547687 q 0,-0.373062 -0.01852,-0.613832 0.04498,-0.0079 0.108479,-0.0079 0.129646,0 0.129646,0.100542 0,0.01587 -0.0053,0.108479 -0.0053,0.08996 -0.01058,0.227541 -0.0053,0.134938 -0.0053,0.256646 v 0.238125 q 0,0.550332 0.01852,0.666749 0.111125,0.0053 0.174625,0.0053 0.412749,0 0.531812,-0.06085 0.01852,0.05556 0.01852,0.116417 0,0.04762 -0.02381,0.06879 -0.04498,0.03969 -0.404812,0.03969 -0.3175,0 -0.396875,-0.0053 -0.07144,-0.0026 -0.0979,-0.03704 -0.02381,-0.0344 -0.02381,-0.113771 0,-0.04233 0.0026,-0.195792 0.0026,-0.153458 0.0026,-0.246062 z" />
    </g>
    <path
       d="m 155.2633,115.06253 v -5.20435 -5.20435 l -4.42878,2.60217 -4.42874,2.60218 4.42874,2.60217 z"
       inkscape:transform-center-y="-6.9664676e-05"
       inkscape:transform-center-x="1.4762244"
       style="fill:#ffffff;fill-opacity:1;stroke:none;stroke-width:1.408;stroke-linecap:round;stroke-miterlimit:4;stroke-dasharray:none;stroke-opacity:1;paint-order:markers stroke fill"
       id="path862" />
    <path
       d="m 153.54384,101.22175 a 17.274534,17.274534 0 0 1 19.43118,-8.048653 17.274534,17.274534 0 0 1 12.80356,16.685923 17.274534,17.274534 0 0 1 -12.80356,16.68592 17.274534,17.274534 0 0 1 -19.43118,-8.04866"
       style="fill:none;fill-opacity:1;stroke:#676767;stroke-width:2.208;stroke-linecap:round;stroke-miterlimit:4;stroke-dasharray:none;stroke-dashoffset:0;stroke-opacity:1;paint-order:fill markers stroke"
       id="path864" />
  </g>
</svg>
