<?xml version="1.0" encoding="UTF-8" standalone="no"?>
<svg
   xmlns:dc="http://purl.org/dc/elements/1.1/"
   xmlns:cc="http://creativecommons.org/ns#"
   xmlns:rdf="http://www.w3.org/1999/02/22-rdf-syntax-ns#"
   xmlns:svg="http://www.w3.org/2000/svg"
   xmlns="http://www.w3.org/2000/svg"
   xmlns:sodipodi="http://sodipodi.sourceforge.net/DTD/sodipodi-0.dtd"
   xmlns:inkscape="http://www.inkscape.org/namespaces/inkscape"
   width="31.999998"
   height="31.999998"
   viewBox="0 0 8.4666662 8.4666662"
   version="1.1"
   id="svg7330"
   inkscape:version="1.0 (4035a4fb49, 2020-05-01)"
   sodipodi:docname="lstick_all.svg"
   inkscape:export-filename="D:\Calcatz\Icon Pack\Adventure Narative Inspired by Arrival\GUI\Navigation Buttons\Xbox\Dark\png\lstick_all.png"
   inkscape:export-xdpi="96"
   inkscape:export-ydpi="96">
  <defs
     id="defs7324" />
  <sodipodi:namedview
     units="px"
     id="base"
     pagecolor="#ffffff"
     bordercolor="#666666"
     borderopacity="1.0"
     inkscape:pageopacity="0.0"
     inkscape:pageshadow="2"
     inkscape:zoom="0.83654896"
     inkscape:cx="200.32262"
     inkscape:cy="188.6811"
     inkscape:document-units="mm"
     inkscape:current-layer="layer1"
     inkscape:document-rotation="0"
     showgrid="false"
     fit-margin-top="0"
     fit-margin-left="0"
     fit-margin-right="0"
     fit-margin-bottom="0"
     inkscape:window-width="1366"
     inkscape:window-height="705"
     inkscape:window-x="-8"
     inkscape:window-y="-8"
     inkscape:window-maximized="1" />
  <metadata
     id="metadata7327">
    <rdf:RDF>
      <cc:Work
         rdf:about="">
        <dc:format>image/svg+xml</dc:format>
        <dc:type
           rdf:resource="http://purl.org/dc/dcmitype/StillImage" />
        <dc:title />
      </cc:Work>
    </rdf:RDF>
  </metadata>
  <g
     inkscape:label="Layer 1"
     inkscape:groupmode="layer"
     id="layer1"
     transform="translate(-119.55352,-203.12935)">
    <rect
       y="203.12935"
       x="119.55352"
       height="8.4666662"
       width="8.4666662"
       id="rect839"
       style="fill:#cccccc;fill-opacity:1;stroke-width:0.215886;stroke-linecap:round;paint-order:fill markers stroke" />
    <text
       xml:space="preserve"
       style="font-weight:bold;font-size:2.64583px;line-height:1.05;font-family:'Overlock SC';-inkscape-font-specification:'Overlock SC Bold';text-align:end;text-anchor:end;fill:#ffffff;fill-opacity:1;stroke:#ffffff;stroke-width:0.905997;stroke-linecap:round;stroke-miterlimit:4;stroke-dasharray:none;stroke-opacity:1;paint-order:markers stroke fill"
       x="124.26888"
       y="208.2411"
       id="text5399"><tspan
         sodipodi:role="line"
         id="tspan5397"
         x="124.26888"
         y="208.2411"
         style="font-size:2.64583px;fill:#ffffff;fill-opacity:1;stroke:none;stroke-width:0.905997">L</tspan></text>
    <path
       id="path5401"
       style="fill:#ffffff;fill-opacity:1;stroke:none;stroke-width:0.176;stroke-linecap:round;stroke-miterlimit:4;stroke-dasharray:none;stroke-opacity:1;paint-order:markers stroke fill"
       inkscape:transform-center-x="9.9297713e-06"
       inkscape:transform-center-y="0.18452527"
       d="m 124.43738,208.95242 h -0.65054 -0.65054 l 0.32527,0.5536 0.32527,0.55359 0.32527,-0.55359 z" />
    <g
       aria-label="L"
       id="text5405"
       style="font-weight:bold;font-size:2.64583px;line-height:1.05;font-family:'Overlock SC';-inkscape-font-specification:'Overlock SC Bold';text-align:end;text-anchor:end;fill:#ffffff;fill-opacity:1;stroke:#ffffff;stroke-width:0.905997;stroke-linecap:round;stroke-miterlimit:4;stroke-dasharray:none;stroke-opacity:1;paint-order:markers stroke fill">
      <path
         d="m 123.32515,207.64844 v -0.54769 q 0,-0.37306 -0.0185,-0.61383 0.045,-0.008 0.10848,-0.008 0.12964,0 0.12964,0.10054 0,0.0159 -0.005,0.10848 -0.005,0.09 -0.0106,0.22754 -0.005,0.13494 -0.005,0.25665 v 0.23812 q 0,0.55034 0.0185,0.66675 0.11112,0.005 0.17462,0.005 0.41275,0 0.53181,-0.0608 0.0185,0.0556 0.0185,0.11642 0,0.0476 -0.0238,0.0688 -0.045,0.0397 -0.40481,0.0397 -0.3175,0 -0.39688,-0.005 -0.0714,-0.003 -0.0979,-0.037 -0.0238,-0.0344 -0.0238,-0.11377 0,-0.0423 0.003,-0.19579 0.003,-0.15346 0.003,-0.24606 z"
         style="font-size:2.64583px;fill:#ffffff;fill-opacity:1;stroke:none;stroke-width:0.905997"
         id="path7944" />
    </g>
    <path
       id="path5407"
       style="fill:#ffffff;fill-opacity:1;stroke:none;stroke-width:0.176;stroke-linecap:round;stroke-miterlimit:4;stroke-dasharray:none;stroke-opacity:1;paint-order:markers stroke fill"
       inkscape:transform-center-x="9.9297713e-06"
       inkscape:transform-center-y="-0.18452761"
       d="m 124.43738,205.8232 h -0.65054 -0.65054 l 0.32527,-0.5536 0.32527,-0.55359 0.32527,0.55359 z" />
    <path
       id="path5409"
       style="fill:#ffffff;fill-opacity:1;stroke:none;stroke-width:0.176;stroke-linecap:round;stroke-miterlimit:4;stroke-dasharray:none;stroke-opacity:1;paint-order:markers stroke fill"
       inkscape:transform-center-x="0.18452615"
       inkscape:transform-center-y="-9.047805e-06"
       d="m 122.1782,208.01322 v -0.65054 -0.65055 l -0.5536,0.32528 -0.55359,0.32527 0.55359,0.32527 z" />
    <path
       sodipodi:nodetypes="cccccccc"
       d="m 125.65743,208.44208 c -0.18976,0.32815 -0.46339,0.60172 -0.79158,0.79142 m -2.15966,-9.5e-4 c -0.32697,-0.18938 -0.59966,-0.46205 -0.78907,-0.78898 m 0,-2.16178 c 0.18932,-0.32677 0.46184,-0.59933 0.78859,-0.78868 m 2.15971,-0.001 c 0.3291,0.19012 0.60337,0.46457 0.79326,0.79382"
       style="fill:none;fill-opacity:1;stroke:#676767;stroke-width:0.276;stroke-linecap:round;stroke-miterlimit:4;stroke-dasharray:none;stroke-dashoffset:0;stroke-opacity:1;paint-order:fill markers stroke"
       id="circle5428" />
    <path
       id="path5411"
       style="fill:#ffffff;fill-opacity:1;stroke:none;stroke-width:0.176;stroke-linecap:round;stroke-miterlimit:4;stroke-dasharray:none;stroke-opacity:1;paint-order:markers stroke fill"
       inkscape:transform-center-x="-0.18452673"
       inkscape:transform-center-y="-9.047805e-06"
       d="m 125.30741,208.01322 v -0.65054 -0.65055 l 0.5536,0.32528 0.55359,0.32527 -0.55359,0.32527 z" />
    <rect
       inkscape:export-ydpi="96"
       inkscape:export-xdpi="96"
       inkscape:export-filename="D:\Calcatz\Icon Pack\Adventure Narative Inspired by Arrival\GUI\Navigation Buttons\Xbox\Dark\png\64px\lstick_all.png"
       style="fill:#cccccc;fill-opacity:1;stroke-width:0.431772;stroke-linecap:round;paint-order:fill markers stroke"
       id="rect841"
       width="16.933332"
       height="16.933332"
       x="129.79308"
       y="203.12935" />
    <text
       id="text845"
       y="213.35286"
       x="139.2238"
       style="font-weight:bold;font-size:5.29166px;line-height:1.05;font-family:'Overlock SC';-inkscape-font-specification:'Overlock SC Bold';text-align:end;text-anchor:end;fill:#ffffff;fill-opacity:1;stroke:#ffffff;stroke-width:1.81199;stroke-linecap:round;stroke-miterlimit:4;stroke-dasharray:none;stroke-opacity:1;paint-order:markers stroke fill"
       xml:space="preserve"><tspan
         style="font-size:5.29166px;fill:#ffffff;fill-opacity:1;stroke:none;stroke-width:1.81199"
         y="213.35286"
         x="139.2238"
         id="tspan843"
         sodipodi:role="line">L</tspan></text>
    <path
       d="m 139.56078,214.77549 h -1.30108 -1.30108 l 0.65054,1.1072 0.65054,1.10718 0.65054,-1.10718 z"
       inkscape:transform-center-y="0.36904929"
       inkscape:transform-center-x="2.4298019e-05"
       style="fill:#ffffff;fill-opacity:1;stroke:none;stroke-width:0.352;stroke-linecap:round;stroke-miterlimit:4;stroke-dasharray:none;stroke-opacity:1;paint-order:markers stroke fill"
       id="path847" />
    <g
       transform="matrix(2,0,0,2,-109.31397,-203.12935)"
       style="font-weight:bold;font-size:2.64583px;line-height:1.05;font-family:'Overlock SC';-inkscape-font-specification:'Overlock SC Bold';text-align:end;text-anchor:end;fill:#ffffff;fill-opacity:1;stroke:#ffffff;stroke-width:0.905997;stroke-linecap:round;stroke-miterlimit:4;stroke-dasharray:none;stroke-opacity:1;paint-order:markers stroke fill"
       id="g851"
       aria-label="L">
      <path
         id="path849"
         style="font-size:2.64583px;fill:#ffffff;fill-opacity:1;stroke:none;stroke-width:0.905997"
         d="m 123.32515,207.64844 v -0.54769 q 0,-0.37306 -0.0185,-0.61383 0.045,-0.008 0.10848,-0.008 0.12964,0 0.12964,0.10054 0,0.0159 -0.005,0.10848 -0.005,0.09 -0.0106,0.22754 -0.005,0.13494 -0.005,0.25665 v 0.23812 q 0,0.55034 0.0185,0.66675 0.11112,0.005 0.17462,0.005 0.41275,0 0.53181,-0.0608 0.0185,0.0556 0.0185,0.11642 0,0.0476 -0.0238,0.0688 -0.045,0.0397 -0.40481,0.0397 -0.3175,0 -0.39688,-0.005 -0.0714,-0.003 -0.0979,-0.037 -0.0238,-0.0344 -0.0238,-0.11377 0,-0.0423 0.003,-0.19579 0.003,-0.15346 0.003,-0.24606 z" />
    </g>
    <path
       d="m 139.56078,208.51705 h -1.30108 -1.30108 l 0.65054,-1.1072 0.65054,-1.10718 0.65054,1.10718 z"
       inkscape:transform-center-y="-0.36905647"
       inkscape:transform-center-x="2.4298019e-05"
       style="fill:#ffffff;fill-opacity:1;stroke:none;stroke-width:0.352;stroke-linecap:round;stroke-miterlimit:4;stroke-dasharray:none;stroke-opacity:1;paint-order:markers stroke fill"
       id="path853" />
    <path
       d="m 135.04242,212.89709 v -1.30108 -1.3011 l -1.1072,0.65056 -1.10718,0.65054 1.10718,0.65054 z"
       inkscape:transform-center-y="-1.9340727e-05"
       inkscape:transform-center-x="0.36905674"
       style="fill:#ffffff;fill-opacity:1;stroke:none;stroke-width:0.352;stroke-linecap:round;stroke-miterlimit:4;stroke-dasharray:none;stroke-opacity:1;paint-order:markers stroke fill"
       id="path855" />
    <path
       id="path857"
       style="fill:none;fill-opacity:1;stroke:#676767;stroke-width:0.552;stroke-linecap:round;stroke-miterlimit:4;stroke-dasharray:none;stroke-dashoffset:0;stroke-opacity:1;paint-order:fill markers stroke"
       d="m 142.00088,213.75481 c -0.37952,0.6563 -0.92678,1.20344 -1.58316,1.58284 m -4.31932,-0.002 c -0.65394,-0.37876 -1.19932,-0.9241 -1.57814,-1.57796 m 0,-4.32356 c 0.37864,-0.65354 0.92368,-1.19866 1.57718,-1.57736 m 4.31942,-0.002 c 0.6582,0.38024 1.20674,0.92914 1.58652,1.58764"
       sodipodi:nodetypes="cccccccc" />
    <path
       d="m 141.30084,212.89709 v -1.30108 -1.3011 l 1.1072,0.65056 1.10718,0.65054 -1.10718,0.65054 z"
       inkscape:transform-center-y="-1.9340727e-05"
       inkscape:transform-center-x="-0.36904902"
       style="fill:#ffffff;fill-opacity:1;stroke:none;stroke-width:0.352;stroke-linecap:round;stroke-miterlimit:4;stroke-dasharray:none;stroke-opacity:1;paint-order:markers stroke fill"
       id="path859" />
    <rect
       inkscape:export-ydpi="96"
       inkscape:export-xdpi="96"
       inkscape:export-filename="D:\Calcatz\Icon Pack\Adventure Narative Inspired by Arrival\GUI\Navigation Buttons\Xbox\Dark\png\128px\lstick_all.png"
       y="203.12935"
       x="153.05199"
       height="33.866665"
       width="33.866665"
       id="rect861"
       style="fill:#cccccc;fill-opacity:1;stroke-width:0.863544;stroke-linecap:round;paint-order:fill markers stroke" />
    <text
       xml:space="preserve"
       style="font-weight:bold;font-size:10.5833px;line-height:1.05;font-family:'Overlock SC';-inkscape-font-specification:'Overlock SC Bold';text-align:end;text-anchor:end;fill:#ffffff;fill-opacity:1;stroke:#ffffff;stroke-width:3.62398;stroke-linecap:round;stroke-miterlimit:4;stroke-dasharray:none;stroke-opacity:1;paint-order:markers stroke fill"
       x="171.91344"
       y="223.57637"
       id="text865"><tspan
         sodipodi:role="line"
         id="tspan863"
         x="171.91344"
         y="223.57637"
         style="font-size:10.5833px;fill:#ffffff;fill-opacity:1;stroke:none;stroke-width:3.62398">L</tspan></text>
    <path
       id="path867"
       style="fill:#ffffff;fill-opacity:1;stroke:none;stroke-width:0.704;stroke-linecap:round;stroke-miterlimit:4;stroke-dasharray:none;stroke-opacity:1;paint-order:markers stroke fill"
       inkscape:transform-center-x="5.1901702e-05"
       inkscape:transform-center-y="0.73809733"
       d="m 172.58741,226.42163 h -2.60216 -2.60216 l 1.30108,2.2144 1.30108,2.21436 1.30108,-2.21436 z" />
    <g
       aria-label="L"
       id="g871"
       style="font-weight:bold;font-size:2.64583px;line-height:1.05;font-family:'Overlock SC';-inkscape-font-specification:'Overlock SC Bold';text-align:end;text-anchor:end;fill:#ffffff;fill-opacity:1;stroke:#ffffff;stroke-width:0.905997;stroke-linecap:round;stroke-miterlimit:4;stroke-dasharray:none;stroke-opacity:1;paint-order:markers stroke fill"
       transform="matrix(4,0,0,4,-325.1621,-609.38805)">
      <path
         d="m 123.32515,207.64844 v -0.54769 q 0,-0.37306 -0.0185,-0.61383 0.045,-0.008 0.10848,-0.008 0.12964,0 0.12964,0.10054 0,0.0159 -0.005,0.10848 -0.005,0.09 -0.0106,0.22754 -0.005,0.13494 -0.005,0.25665 v 0.23812 q 0,0.55034 0.0185,0.66675 0.11112,0.005 0.17462,0.005 0.41275,0 0.53181,-0.0608 0.0185,0.0556 0.0185,0.11642 0,0.0476 -0.0238,0.0688 -0.045,0.0397 -0.40481,0.0397 -0.3175,0 -0.39688,-0.005 -0.0714,-0.003 -0.0979,-0.037 -0.0238,-0.0344 -0.0238,-0.11377 0,-0.0423 0.003,-0.19579 0.003,-0.15346 0.003,-0.24606 z"
         style="font-size:2.64583px;fill:#ffffff;fill-opacity:1;stroke:none;stroke-width:0.905997"
         id="path869" />
    </g>
    <path
       id="path873"
       style="fill:#ffffff;fill-opacity:1;stroke:none;stroke-width:0.704;stroke-linecap:round;stroke-miterlimit:4;stroke-dasharray:none;stroke-opacity:1;paint-order:markers stroke fill"
       inkscape:transform-center-x="5.1901702e-05"
       inkscape:transform-center-y="-0.73811419"
       d="m 172.58741,213.90475 h -2.60216 -2.60216 l 1.30108,-2.2144 1.30108,-2.21436 1.30108,2.21436 z" />
    <path
       id="path875"
       style="fill:#ffffff;fill-opacity:1;stroke:none;stroke-width:0.704;stroke-linecap:round;stroke-miterlimit:4;stroke-dasharray:none;stroke-opacity:1;paint-order:markers stroke fill"
       inkscape:transform-center-x="0.73811679"
       inkscape:transform-center-y="-3.9926571e-05"
       d="m 163.55069,222.66483 v -2.60216 -2.6022 l -2.2144,1.30112 -2.21436,1.30108 2.21436,1.30108 z" />
    <path
       sodipodi:nodetypes="cccccccc"
       d="m 177.46761,224.38027 c -0.75904,1.3126 -1.85356,2.40688 -3.16632,3.16568 m -8.63864,-0.004 c -1.30788,-0.75752 -2.39864,-1.8482 -3.15628,-3.15592 m 0,-8.64712 c 0.75728,-1.30708 1.84736,-2.39732 3.15436,-3.15472 m 8.63884,-0.004 c 1.3164,0.76048 2.41348,1.85828 3.17304,3.17528"
       style="fill:none;fill-opacity:1;stroke:#676767;stroke-width:1.104;stroke-linecap:round;stroke-miterlimit:4;stroke-dasharray:none;stroke-dashoffset:0;stroke-opacity:1;paint-order:fill markers stroke"
       id="path877" />
    <path
       id="path879"
       style="fill:#ffffff;fill-opacity:1;stroke:none;stroke-width:0.704;stroke-linecap:round;stroke-miterlimit:4;stroke-dasharray:none;stroke-opacity:1;paint-order:markers stroke fill"
       inkscape:transform-center-x="-0.73809473"
       inkscape:transform-center-y="-3.9926571e-05"
       d="m 176.06753,222.66483 v -2.60216 -2.6022 l 2.2144,1.30112 2.21436,1.30108 -2.21436,1.30108 z" />
    <rect
       inkscape:export-ydpi="96"
       inkscape:export-xdpi="96"
       inkscape:export-filename="D:\Calcatz\Icon Pack\Adventure Narative Inspired by Arrival\GUI\Navigation Buttons\Xbox\Dark\png\256px\lstick_all.png"
       style="fill:#cccccc;fill-opacity:1;stroke-width:1.72709;stroke-linecap:round;paint-order:fill markers stroke"
       id="rect881"
       width="67.73333"
       height="67.73333"
       x="192.90321"
       y="203.12935" />
    <text
       id="text885"
       y="244.02339"
       x="230.62611"
       style="font-weight:bold;font-size:21.1666px;line-height:1.05;font-family:'Overlock SC';-inkscape-font-specification:'Overlock SC Bold';text-align:end;text-anchor:end;fill:#ffffff;fill-opacity:1;stroke:#ffffff;stroke-width:7.24796;stroke-linecap:round;stroke-miterlimit:4;stroke-dasharray:none;stroke-opacity:1;paint-order:markers stroke fill"
       xml:space="preserve"><tspan
         style="font-size:21.1666px;fill:#ffffff;fill-opacity:1;stroke:none;stroke-width:7.24796"
         y="244.02339"
         x="230.62611"
         id="tspan883"
         sodipodi:role="line">L</tspan></text>
    <path
       d="m 231.97405,249.71391 h -5.20432 -5.20432 l 2.60216,4.4288 2.60216,4.42872 2.60216,-4.42872 z"
       inkscape:transform-center-y="1.4761934"
       inkscape:transform-center-x="0.00010030243"
       style="fill:#ffffff;fill-opacity:1;stroke:none;stroke-width:1.408;stroke-linecap:round;stroke-miterlimit:4;stroke-dasharray:none;stroke-opacity:1;paint-order:markers stroke fill"
       id="path887" />
    <g
       transform="matrix(8,0,0,8,-763.52497,-1421.9054)"
       style="font-weight:bold;font-size:2.64583px;line-height:1.05;font-family:'Overlock SC';-inkscape-font-specification:'Overlock SC Bold';text-align:end;text-anchor:end;fill:#ffffff;fill-opacity:1;stroke:#ffffff;stroke-width:0.905997;stroke-linecap:round;stroke-miterlimit:4;stroke-dasharray:none;stroke-opacity:1;paint-order:markers stroke fill"
       id="g891"
       aria-label="L">
      <path
         id="path889"
         style="font-size:2.64583px;fill:#ffffff;fill-opacity:1;stroke:none;stroke-width:0.905997"
         d="m 123.32515,207.64844 v -0.54769 q 0,-0.37306 -0.0185,-0.61383 0.045,-0.008 0.10848,-0.008 0.12964,0 0.12964,0.10054 0,0.0159 -0.005,0.10848 -0.005,0.09 -0.0106,0.22754 -0.005,0.13494 -0.005,0.25665 v 0.23812 q 0,0.55034 0.0185,0.66675 0.11112,0.005 0.17462,0.005 0.41275,0 0.53181,-0.0608 0.0185,0.0556 0.0185,0.11642 0,0.0476 -0.0238,0.0688 -0.045,0.0397 -0.40481,0.0397 -0.3175,0 -0.39688,-0.005 -0.0714,-0.003 -0.0979,-0.037 -0.0238,-0.0344 -0.0238,-0.11377 0,-0.0423 0.003,-0.19579 0.003,-0.15346 0.003,-0.24606 z" />
    </g>
    <path
       d="m 231.97405,224.68015 h -5.20432 -5.20432 l 2.60216,-4.4288 2.60216,-4.42872 2.60216,4.42872 z"
       inkscape:transform-center-y="-1.4762296"
       inkscape:transform-center-x="0.00010030243"
       style="fill:#ffffff;fill-opacity:1;stroke:none;stroke-width:1.408;stroke-linecap:round;stroke-miterlimit:4;stroke-dasharray:none;stroke-opacity:1;paint-order:markers stroke fill"
       id="path893" />
    <path
       d="m 213.90061,242.20031 v -5.20432 -5.2044 l -4.4288,2.60224 -4.42872,2.60216 4.42872,2.60216 z"
       inkscape:transform-center-y="-8.1098259e-05"
       inkscape:transform-center-x="1.4762301"
       style="fill:#ffffff;fill-opacity:1;stroke:none;stroke-width:1.408;stroke-linecap:round;stroke-miterlimit:4;stroke-dasharray:none;stroke-opacity:1;paint-order:markers stroke fill"
       id="path895" />
    <path
       id="path897"
       style="fill:none;fill-opacity:1;stroke:#676767;stroke-width:2.208;stroke-linecap:round;stroke-miterlimit:4;stroke-dasharray:none;stroke-dashoffset:0;stroke-opacity:1;paint-order:fill markers stroke"
       d="m 241.73445,245.63119 c -1.51808,2.6252 -3.70712,4.81376 -6.33264,6.33136 m -17.27728,-0.008 c -2.61576,-1.51504 -4.79728,-3.6964 -6.31256,-6.31184 m 0,-17.29424 c 1.51456,-2.61416 3.69472,-4.79464 6.30872,-6.30944 m 17.27768,-0.008 c 2.6328,1.52096 4.82696,3.71656 6.34608,6.35056"
       sodipodi:nodetypes="cccccccc" />
    <path
       d="m 238.93429,242.20031 v -5.20432 -5.2044 l 4.4288,2.60224 4.42872,2.60216 -4.42872,2.60216 z"
       inkscape:transform-center-y="-8.1098259e-05"
       inkscape:transform-center-x="-1.476193"
       style="fill:#ffffff;fill-opacity:1;stroke:none;stroke-width:1.408;stroke-linecap:round;stroke-miterlimit:4;stroke-dasharray:none;stroke-opacity:1;paint-order:markers stroke fill"
       id="path899" />
  </g>
</svg>
