<?xml version="1.0" encoding="UTF-8" standalone="no"?>
<svg
   xmlns:dc="http://purl.org/dc/elements/1.1/"
   xmlns:cc="http://creativecommons.org/ns#"
   xmlns:rdf="http://www.w3.org/1999/02/22-rdf-syntax-ns#"
   xmlns:svg="http://www.w3.org/2000/svg"
   xmlns="http://www.w3.org/2000/svg"
   xmlns:sodipodi="http://sodipodi.sourceforge.net/DTD/sodipodi-0.dtd"
   xmlns:inkscape="http://www.inkscape.org/namespaces/inkscape"
   inkscape:export-ydpi="96"
   inkscape:export-xdpi="96"
   inkscape:export-filename="D:\Calcatz\Icon Pack\Adventure Narative Inspired by Arrival\GUI\Navigation Buttons\Xbox\Dark\png\lt.png"
   sodipodi:docname="lt.svg"
   inkscape:version="1.0 (4035a4fb49, 2020-05-01)"
   id="svg4243"
   version="1.1"
   viewBox="0 0 8.4666662 8.4666662"
   height="31.999998"
   width="31.999998">
  <defs
     id="defs4237" />
  <sodipodi:namedview
     inkscape:window-maximized="1"
     inkscape:window-y="-8"
     inkscape:window-x="-8"
     inkscape:window-height="705"
     inkscape:window-width="1366"
     fit-margin-bottom="0"
     fit-margin-right="0"
     fit-margin-left="0"
     fit-margin-top="0"
     showgrid="false"
     inkscape:document-rotation="0"
     inkscape:current-layer="layer1"
     inkscape:document-units="mm"
     inkscape:cy="187.708"
     inkscape:cx="66.947652"
     inkscape:zoom="0.87251276"
     inkscape:pageshadow="2"
     inkscape:pageopacity="0.0"
     borderopacity="1.0"
     bordercolor="#666666"
     pagecolor="#ffffff"
     id="base"
     units="px" />
  <metadata
     id="metadata4240">
    <rdf:RDF>
      <cc:Work
         rdf:about="">
        <dc:format>image/svg+xml</dc:format>
        <dc:type
           rdf:resource="http://purl.org/dc/dcmitype/StillImage" />
        <dc:title />
      </cc:Work>
    </rdf:RDF>
  </metadata>
  <g
     transform="translate(-104.57294,-162.91833)"
     id="layer1"
     inkscape:groupmode="layer"
     inkscape:label="Layer 1">
    <rect
       y="162.91833"
       x="104.57294"
       height="8.4666662"
       width="8.4666662"
       id="rect834"
       style="fill:#cccccc;fill-opacity:1;stroke-width:0.796304;stroke-linecap:round;paint-order:fill markers stroke" />
    <g
       style="font-weight:bold;font-size:2.11667px;line-height:1.05;font-family:'Overlock SC';-inkscape-font-specification:'Overlock SC Bold';text-align:end;text-anchor:end;fill:#ffffff;fill-opacity:1;stroke:#ffffff;stroke-width:0.905997;stroke-linecap:round;stroke-miterlimit:4;stroke-dasharray:none;stroke-opacity:1;paint-order:markers stroke fill"
       id="text4421"
       aria-label="LT">
      <path
         id="path4835"
         style="font-size:2.11667px;fill:#ffffff;fill-opacity:1;stroke:none;stroke-width:0.905997"
         d="m 107.94405,167.3792 v -0.43815 q 0,-0.29845 -0.0148,-0.49107 0.036,-0.006 0.0868,-0.006 0.10371,0 0.10371,0.0804 0,0.0127 -0.004,0.0868 -0.004,0.072 -0.008,0.18203 -0.004,0.10795 -0.004,0.20532 v 0.1905 q 0,0.44027 0.0148,0.5334 0.0889,0.004 0.1397,0.004 0.3302,0 0.42545,-0.0487 0.0148,0.0445 0.0148,0.0931 0,0.0381 -0.0191,0.055 -0.036,0.0318 -0.32385,0.0318 -0.254,0 -0.3175,-0.004 -0.0572,-0.002 -0.0783,-0.0296 -0.0191,-0.0275 -0.0191,-0.091 0,-0.0339 0.002,-0.15663 0.002,-0.12277 0.002,-0.19685 z" />
      <path
         id="path4837"
         style="font-size:2.11667px;fill:#ffffff;fill-opacity:1;stroke:none;stroke-width:0.905997"
         d="m 109.11391,167.36438 v -0.42333 q 0,-0.19685 -0.006,-0.36195 -0.30057,0 -0.40217,0.008 -0.006,-0.019 -0.006,-0.0572 0,-0.0423 0.0212,-0.0571 0.0233,-0.0148 0.072,-0.0169 0.0529,-0.002 0.22649,-0.002 h 0.24976 q 0.33444,0 0.40852,-0.006 0.006,0.0191 0.006,0.055 0,0.0423 -0.0233,0.0571 -0.0212,0.0148 -0.0699,0.0169 -0.0656,0.002 -0.30269,0.002 -0.0148,0.30268 -0.0148,0.4191 v 0.42545 q 0,0.28575 0.0402,0.4191 -0.0381,0.0169 -0.0995,0.0169 -0.0614,0 -0.0825,-0.0275 -0.0212,-0.0275 -0.0212,-0.0931 0,-0.0339 0.002,-0.16721 0.002,-0.13335 0.002,-0.20744 z" />
    </g>
    <path
       sodipodi:nodetypes="ssccss"
       d="m 108.80629,165.04043 c -0.95541,0 -1.72445,0.76957 -1.72445,1.72495 v 1.76993 h 3.44887 v -1.76993 c 0,-0.95538 -0.76904,-1.72495 -1.72442,-1.72495 z"
       style="fill:none;stroke:#676767;stroke-width:0.276;stroke-linecap:round;stroke-miterlimit:4;stroke-dasharray:none;stroke-opacity:1;paint-order:markers stroke fill"
       id="path1888" />
    <rect
       inkscape:export-ydpi="96"
       inkscape:export-xdpi="96"
       inkscape:export-filename="D:\Calcatz\Icon Pack\Adventure Narative Inspired by Arrival\GUI\Navigation Buttons\Xbox\Dark\png\64px\lt.png"
       style="fill:#cccccc;fill-opacity:1;stroke-width:1.59261;stroke-linecap:round;paint-order:fill markers stroke"
       id="rect836"
       width="16.933332"
       height="16.933332"
       x="114.54205"
       y="162.91833" />
    <g
       transform="matrix(2,0,0,2,-94.60383,-162.91833)"
       aria-label="LT"
       id="g842"
       style="font-weight:bold;font-size:2.11667px;line-height:1.05;font-family:'Overlock SC';-inkscape-font-specification:'Overlock SC Bold';text-align:end;text-anchor:end;fill:#ffffff;fill-opacity:1;stroke:#ffffff;stroke-width:0.905997;stroke-linecap:round;stroke-miterlimit:4;stroke-dasharray:none;stroke-opacity:1;paint-order:markers stroke fill">
      <path
         d="m 107.94405,167.3792 v -0.43815 q 0,-0.29845 -0.0148,-0.49107 0.036,-0.006 0.0868,-0.006 0.10371,0 0.10371,0.0804 0,0.0127 -0.004,0.0868 -0.004,0.072 -0.008,0.18203 -0.004,0.10795 -0.004,0.20532 v 0.1905 q 0,0.44027 0.0148,0.5334 0.0889,0.004 0.1397,0.004 0.3302,0 0.42545,-0.0487 0.0148,0.0445 0.0148,0.0931 0,0.0381 -0.0191,0.055 -0.036,0.0318 -0.32385,0.0318 -0.254,0 -0.3175,-0.004 -0.0572,-0.002 -0.0783,-0.0296 -0.0191,-0.0275 -0.0191,-0.091 0,-0.0339 0.002,-0.15663 0.002,-0.12277 0.002,-0.19685 z"
         style="font-size:2.11667px;fill:#ffffff;fill-opacity:1;stroke:none;stroke-width:0.905997"
         id="path838" />
      <path
         d="m 109.11391,167.36438 v -0.42333 q 0,-0.19685 -0.006,-0.36195 -0.30057,0 -0.40217,0.008 -0.006,-0.019 -0.006,-0.0572 0,-0.0423 0.0212,-0.0571 0.0233,-0.0148 0.072,-0.0169 0.0529,-0.002 0.22649,-0.002 h 0.24976 q 0.33444,0 0.40852,-0.006 0.006,0.0191 0.006,0.055 0,0.0423 -0.0233,0.0571 -0.0212,0.0148 -0.0699,0.0169 -0.0656,0.002 -0.30269,0.002 -0.0148,0.30268 -0.0148,0.4191 v 0.42545 q 0,0.28575 0.0402,0.4191 -0.0381,0.0169 -0.0995,0.0169 -0.0614,0 -0.0825,-0.0275 -0.0212,-0.0275 -0.0212,-0.0931 0,-0.0339 0.002,-0.16721 0.002,-0.13335 0.002,-0.20744 z"
         style="font-size:2.11667px;fill:#ffffff;fill-opacity:1;stroke:none;stroke-width:0.905997"
         id="path840" />
    </g>
    <path
       id="path844"
       style="fill:none;stroke:#676767;stroke-width:0.552;stroke-linecap:round;stroke-miterlimit:4;stroke-dasharray:none;stroke-opacity:1;paint-order:markers stroke fill"
       d="m 123.00875,167.16253 c -1.91082,0 -3.4489,1.53914 -3.4489,3.4499 v 3.53986 h 6.89774 v -3.53986 c 0,-1.91076 -1.53808,-3.4499 -3.44884,-3.4499 z"
       sodipodi:nodetypes="ssccss" />
    <rect
       inkscape:export-ydpi="96"
       inkscape:export-xdpi="96"
       inkscape:export-filename="D:\Calcatz\Icon Pack\Adventure Narative Inspired by Arrival\GUI\Navigation Buttons\Xbox\Dark\png\128px\lt.png"
       y="162.91833"
       x="135.76906"
       height="33.866665"
       width="33.866665"
       id="rect846"
       style="fill:#cccccc;fill-opacity:1;stroke-width:3.18522;stroke-linecap:round;paint-order:fill markers stroke" />
    <g
       style="font-weight:bold;font-size:2.11667px;line-height:1.05;font-family:'Overlock SC';-inkscape-font-specification:'Overlock SC Bold';text-align:end;text-anchor:end;fill:#ffffff;fill-opacity:1;stroke:#ffffff;stroke-width:0.905997;stroke-linecap:round;stroke-miterlimit:4;stroke-dasharray:none;stroke-opacity:1;paint-order:markers stroke fill"
       id="g852"
       aria-label="LT"
       transform="matrix(4,0,0,4,-282.52271,-488.75499)">
      <path
         id="path848"
         style="font-size:2.11667px;fill:#ffffff;fill-opacity:1;stroke:none;stroke-width:0.905997"
         d="m 107.94405,167.3792 v -0.43815 q 0,-0.29845 -0.0148,-0.49107 0.036,-0.006 0.0868,-0.006 0.10371,0 0.10371,0.0804 0,0.0127 -0.004,0.0868 -0.004,0.072 -0.008,0.18203 -0.004,0.10795 -0.004,0.20532 v 0.1905 q 0,0.44027 0.0148,0.5334 0.0889,0.004 0.1397,0.004 0.3302,0 0.42545,-0.0487 0.0148,0.0445 0.0148,0.0931 0,0.0381 -0.0191,0.055 -0.036,0.0318 -0.32385,0.0318 -0.254,0 -0.3175,-0.004 -0.0572,-0.002 -0.0783,-0.0296 -0.0191,-0.0275 -0.0191,-0.091 0,-0.0339 0.002,-0.15663 0.002,-0.12277 0.002,-0.19685 z" />
      <path
         id="path850"
         style="font-size:2.11667px;fill:#ffffff;fill-opacity:1;stroke:none;stroke-width:0.905997"
         d="m 109.11391,167.36438 v -0.42333 q 0,-0.19685 -0.006,-0.36195 -0.30057,0 -0.40217,0.008 -0.006,-0.019 -0.006,-0.0572 0,-0.0423 0.0212,-0.0571 0.0233,-0.0148 0.072,-0.0169 0.0529,-0.002 0.22649,-0.002 h 0.24976 q 0.33444,0 0.40852,-0.006 0.006,0.0191 0.006,0.055 0,0.0423 -0.0233,0.0571 -0.0212,0.0148 -0.0699,0.0169 -0.0656,0.002 -0.30269,0.002 -0.0148,0.30268 -0.0148,0.4191 v 0.42545 q 0,0.28575 0.0402,0.4191 -0.0381,0.0169 -0.0995,0.0169 -0.0614,0 -0.0825,-0.0275 -0.0212,-0.0275 -0.0212,-0.0931 0,-0.0339 0.002,-0.16721 0.002,-0.13335 0.002,-0.20744 z" />
    </g>
    <path
       sodipodi:nodetypes="ssccss"
       d="m 152.70246,171.40673 c -3.82164,0 -6.8978,3.07828 -6.8978,6.8998 v 7.07972 h 13.79548 v -7.07972 c 0,-3.82152 -3.07616,-6.8998 -6.89768,-6.8998 z"
       style="fill:none;stroke:#676767;stroke-width:1.104;stroke-linecap:round;stroke-miterlimit:4;stroke-dasharray:none;stroke-opacity:1;paint-order:markers stroke fill"
       id="path854" />
    <rect
       inkscape:export-ydpi="96"
       inkscape:export-xdpi="96"
       inkscape:export-filename="D:\Calcatz\Icon Pack\Adventure Narative Inspired by Arrival\GUI\Navigation Buttons\Xbox\Dark\png\256px\lt.png"
       style="fill:#cccccc;fill-opacity:1;stroke-width:6.37044;stroke-linecap:round;paint-order:fill markers stroke"
       id="rect856"
       width="67.73333"
       height="67.73333"
       x="174.88739"
       y="162.91833" />
    <g
       transform="matrix(8,0,0,8,-661.69613,-1140.4283)"
       aria-label="LT"
       id="g862"
       style="font-weight:bold;font-size:2.11667px;line-height:1.05;font-family:'Overlock SC';-inkscape-font-specification:'Overlock SC Bold';text-align:end;text-anchor:end;fill:#ffffff;fill-opacity:1;stroke:#ffffff;stroke-width:0.905997;stroke-linecap:round;stroke-miterlimit:4;stroke-dasharray:none;stroke-opacity:1;paint-order:markers stroke fill">
      <path
         d="m 107.94405,167.3792 v -0.43815 q 0,-0.29845 -0.0148,-0.49107 0.036,-0.006 0.0868,-0.006 0.10371,0 0.10371,0.0804 0,0.0127 -0.004,0.0868 -0.004,0.072 -0.008,0.18203 -0.004,0.10795 -0.004,0.20532 v 0.1905 q 0,0.44027 0.0148,0.5334 0.0889,0.004 0.1397,0.004 0.3302,0 0.42545,-0.0487 0.0148,0.0445 0.0148,0.0931 0,0.0381 -0.0191,0.055 -0.036,0.0318 -0.32385,0.0318 -0.254,0 -0.3175,-0.004 -0.0572,-0.002 -0.0783,-0.0296 -0.0191,-0.0275 -0.0191,-0.091 0,-0.0339 0.002,-0.15663 0.002,-0.12277 0.002,-0.19685 z"
         style="font-size:2.11667px;fill:#ffffff;fill-opacity:1;stroke:none;stroke-width:0.905997"
         id="path858" />
      <path
         d="m 109.11391,167.36438 v -0.42333 q 0,-0.19685 -0.006,-0.36195 -0.30057,0 -0.40217,0.008 -0.006,-0.019 -0.006,-0.0572 0,-0.0423 0.0212,-0.0571 0.0233,-0.0148 0.072,-0.0169 0.0529,-0.002 0.22649,-0.002 h 0.24976 q 0.33444,0 0.40852,-0.006 0.006,0.0191 0.006,0.055 0,0.0423 -0.0233,0.0571 -0.0212,0.0148 -0.0699,0.0169 -0.0656,0.002 -0.30269,0.002 -0.0148,0.30268 -0.0148,0.4191 v 0.42545 q 0,0.28575 0.0402,0.4191 -0.0381,0.0169 -0.0995,0.0169 -0.0614,0 -0.0825,-0.0275 -0.0212,-0.0275 -0.0212,-0.0931 0,-0.0339 0.002,-0.16721 0.002,-0.13335 0.002,-0.20744 z"
         style="font-size:2.11667px;fill:#ffffff;fill-opacity:1;stroke:none;stroke-width:0.905997"
         id="path860" />
    </g>
    <path
       id="path864"
       style="fill:none;stroke:#676767;stroke-width:2.208;stroke-linecap:round;stroke-miterlimit:4;stroke-dasharray:none;stroke-opacity:1;paint-order:markers stroke fill"
       d="m 208.75421,179.89513 c -7.64328,0 -13.7956,6.15656 -13.7956,13.7996 v 14.15944 h 27.59096 v -14.15944 c 0,-7.64304 -6.15232,-13.7996 -13.79536,-13.7996 z"
       sodipodi:nodetypes="ssccss" />
  </g>
</svg>
