<?xml version="1.0" encoding="UTF-8" standalone="no"?>
<svg
   xmlns:dc="http://purl.org/dc/elements/1.1/"
   xmlns:cc="http://creativecommons.org/ns#"
   xmlns:rdf="http://www.w3.org/1999/02/22-rdf-syntax-ns#"
   xmlns:svg="http://www.w3.org/2000/svg"
   xmlns="http://www.w3.org/2000/svg"
   xmlns:sodipodi="http://sodipodi.sourceforge.net/DTD/sodipodi-0.dtd"
   xmlns:inkscape="http://www.inkscape.org/namespaces/inkscape"
   width="31.999998"
   height="31.999998"
   viewBox="0 0 8.4666662 8.4666662"
   version="1.1"
   id="svg9717"
   inkscape:version="1.0 (4035a4fb49, 2020-05-01)"
   sodipodi:docname="r3.svg"
   inkscape:export-filename="D:\Calcatz\Icon Pack\Adventure Narative Inspired by Arrival\GUI\Navigation Buttons\Xbox\Dark\png\r3.png"
   inkscape:export-xdpi="96"
   inkscape:export-ydpi="96">
  <defs
     id="defs9711" />
  <sodipodi:namedview
     units="px"
     id="base"
     pagecolor="#ffffff"
     bordercolor="#666666"
     borderopacity="1.0"
     inkscape:pageopacity="0.0"
     inkscape:pageshadow="2"
     inkscape:zoom="0.83654896"
     inkscape:cx="31.727149"
     inkscape:cy="181.17222"
     inkscape:document-units="mm"
     inkscape:current-layer="layer1"
     inkscape:document-rotation="0"
     showgrid="false"
     fit-margin-top="0"
     fit-margin-left="0"
     fit-margin-right="0"
     fit-margin-bottom="0"
     inkscape:window-width="1366"
     inkscape:window-height="705"
     inkscape:window-x="-8"
     inkscape:window-y="-8"
     inkscape:window-maximized="1" />
  <metadata
     id="metadata9714">
    <rdf:RDF>
      <cc:Work
         rdf:about="">
        <dc:format>image/svg+xml</dc:format>
        <dc:type
           rdf:resource="http://purl.org/dc/dcmitype/StillImage" />
        <dc:title />
      </cc:Work>
    </rdf:RDF>
  </metadata>
  <g
     inkscape:label="Layer 1"
     inkscape:groupmode="layer"
     id="layer1"
     transform="translate(-182.62962,-151.09157)">
    <rect
       y="151.09157"
       x="182.62962"
       height="8.4666662"
       width="8.4666662"
       id="rect835"
       style="fill:#cccccc;fill-opacity:1;stroke-width:0.436226;stroke-linecap:round;paint-order:fill markers stroke" />
    <g
       aria-label="R"
       id="text3231"
       style="font-weight:bold;font-size:2.64583px;line-height:1.05;font-family:'Overlock SC';-inkscape-font-specification:'Overlock SC Bold';text-align:end;text-anchor:end;fill:#ffffff;fill-opacity:1;stroke:#ffffff;stroke-width:0.905998;stroke-linecap:round;stroke-miterlimit:4;stroke-dasharray:none;stroke-opacity:1;paint-order:markers stroke fill">
      <path
         d="m 186.69623,155.97973 q 0.0688,0.0767 0.16933,0.0767 0.0318,0 0.0714,-0.008 0.0238,0.0476 0.0238,0.0794 0,0.10054 -0.19843,0.10054 -0.0503,0 -0.10054,-0.0238 -0.0503,-0.0238 -0.10055,-0.082 -0.0503,-0.0582 -0.0873,-0.10319 -0.0344,-0.045 -0.0873,-0.14023 -0.0503,-0.0952 -0.0714,-0.13494 -0.0212,-0.0423 -0.0714,-0.15081 -0.0503,-0.11113 -0.0582,-0.127 -0.0741,-0.0106 -0.0741,-0.0582 0,-0.0238 0.0132,-0.0714 0.0741,0.0132 0.12436,0.0132 0.17727,0 0.27781,-0.10318 0.10054,-0.10584 0.10054,-0.28575 0,-0.21167 -0.11112,-0.29369 -0.11113,-0.0847 -0.34132,-0.0847 -0.0847,0 -0.20637,0.0106 0.0106,0.15345 0.0106,0.53975 v 0.53181 q 0,0.35718 0.0503,0.52387 -0.0476,0.0212 -0.12435,0.0212 -0.0767,0 -0.10319,-0.0344 -0.0265,-0.0344 -0.0265,-0.11641 0,-0.0423 0.003,-0.20902 0.003,-0.16669 0.003,-0.2593 v -0.52916 q 0,-0.36513 -0.0344,-0.60854 0.19579,-0.0318 0.39423,-0.0318 0.70908,0 0.70908,0.52652 0,0.21696 -0.11906,0.35189 -0.11907,0.13229 -0.31486,0.16934 0,0.003 0.045,0.0979 0.045,0.0952 0.0609,0.127 0.0185,0.0317 0.0556,0.10319 0.037,0.0714 0.0635,0.11377 0.0291,0.0423 0.0556,0.0688 z"
         style="font-size:2.64583px;fill:#ffffff;fill-opacity:1;stroke:none;stroke-width:0.905998"
         id="path10323" />
    </g>
    <g
       aria-label="3"
       id="text3747"
       style="font-weight:bold;font-size:2.64583px;line-height:1.05;font-family:'Overlock SC';-inkscape-font-specification:'Overlock SC Bold';text-align:end;text-anchor:end;fill:#ffffff;fill-opacity:1;stroke:#ffffff;stroke-width:0.905998;stroke-linecap:round;stroke-miterlimit:4;stroke-dasharray:none;stroke-opacity:1;paint-order:markers stroke fill">
      <path
         d="m 187.25455,155.20782 q 0.24607,0 0.36777,-0.0926 0.12436,-0.0926 0.12436,-0.21961 0,-0.10054 -0.0741,-0.17462 -0.0714,-0.0767 -0.18786,-0.0767 -0.0926,0 -0.18256,0.0556 -0.0873,0.0556 -0.14023,0.15875 -0.0503,0 -0.082,-0.0265 -0.0317,-0.0265 -0.0317,-0.0608 0,-0.09 0.13494,-0.17992 0.13758,-0.0926 0.31221,-0.0926 0.20372,0 0.31749,0.11377 0.11642,0.11112 0.11642,0.26458 0,0.10584 -0.0661,0.20109 -0.0635,0.0926 -0.18786,0.14287 0.14288,0.045 0.22225,0.1614 0.082,0.11377 0.082,0.25929 0,0.23548 -0.17462,0.38364 -0.17463,0.15082 -0.47625,0.15082 -0.13229,0 -0.20373,-0.0397 -0.0688,-0.037 -0.0688,-0.0952 0,-0.0767 0.0873,-0.0979 0.0794,0.0794 0.2196,0.0794 0.20109,0 0.31486,-0.0979 0.11377,-0.0952 0.11377,-0.24606 0,-0.15875 -0.11906,-0.24871 -0.11907,-0.0926 -0.32544,-0.0926 -0.0503,0 -0.0741,-0.0159 -0.0212,-0.0159 -0.0212,-0.0767 z"
         style="font-size:2.64583px;fill:#ffffff;fill-opacity:1;stroke:none;stroke-width:0.905998"
         id="path10326" />
    </g>
    <path
       id="circle1589"
       style="fill:none;fill-opacity:1;stroke:#676767;stroke-width:0.276;stroke-linecap:round;stroke-miterlimit:4;stroke-dasharray:none;stroke-dashoffset:0;stroke-opacity:1;paint-order:fill markers stroke"
       d="m 186.86296,153.16559 a 2.1593168,2.1593168 0 0 1 2.15932,2.15932 2.1593168,2.1593168 0 0 1 -2.15932,2.15931 2.1593168,2.1593168 0 0 1 -2.15932,-2.15931 2.1593168,2.1593168 0 0 1 2.15932,-2.15932" />
    <rect
       inkscape:export-ydpi="96"
       inkscape:export-xdpi="96"
       inkscape:export-filename="D:\Calcatz\Icon Pack\Adventure Narative Inspired by Arrival\GUI\Navigation Buttons\Xbox\Dark\png\64px\r3.png"
       style="fill:#cccccc;fill-opacity:1;stroke-width:0.872452;stroke-linecap:round;paint-order:fill markers stroke"
       id="rect837"
       width="16.933332"
       height="16.933332"
       x="193.10638"
       y="151.09157" />
    <g
       transform="matrix(2,0,0,2,-172.15286,-151.09157)"
       style="font-weight:bold;font-size:2.64583px;line-height:1.05;font-family:'Overlock SC';-inkscape-font-specification:'Overlock SC Bold';text-align:end;text-anchor:end;fill:#ffffff;fill-opacity:1;stroke:#ffffff;stroke-width:0.905998;stroke-linecap:round;stroke-miterlimit:4;stroke-dasharray:none;stroke-opacity:1;paint-order:markers stroke fill"
       id="g841"
       aria-label="R">
      <path
         id="path839"
         style="font-size:2.64583px;fill:#ffffff;fill-opacity:1;stroke:none;stroke-width:0.905998"
         d="m 186.69623,155.97973 q 0.0688,0.0767 0.16933,0.0767 0.0318,0 0.0714,-0.008 0.0238,0.0476 0.0238,0.0794 0,0.10054 -0.19843,0.10054 -0.0503,0 -0.10054,-0.0238 -0.0503,-0.0238 -0.10055,-0.082 -0.0503,-0.0582 -0.0873,-0.10319 -0.0344,-0.045 -0.0873,-0.14023 -0.0503,-0.0952 -0.0714,-0.13494 -0.0212,-0.0423 -0.0714,-0.15081 -0.0503,-0.11113 -0.0582,-0.127 -0.0741,-0.0106 -0.0741,-0.0582 0,-0.0238 0.0132,-0.0714 0.0741,0.0132 0.12436,0.0132 0.17727,0 0.27781,-0.10318 0.10054,-0.10584 0.10054,-0.28575 0,-0.21167 -0.11112,-0.29369 -0.11113,-0.0847 -0.34132,-0.0847 -0.0847,0 -0.20637,0.0106 0.0106,0.15345 0.0106,0.53975 v 0.53181 q 0,0.35718 0.0503,0.52387 -0.0476,0.0212 -0.12435,0.0212 -0.0767,0 -0.10319,-0.0344 -0.0265,-0.0344 -0.0265,-0.11641 0,-0.0423 0.003,-0.20902 0.003,-0.16669 0.003,-0.2593 v -0.52916 q 0,-0.36513 -0.0344,-0.60854 0.19579,-0.0318 0.39423,-0.0318 0.70908,0 0.70908,0.52652 0,0.21696 -0.11906,0.35189 -0.11907,0.13229 -0.31486,0.16934 0,0.003 0.045,0.0979 0.045,0.0952 0.0609,0.127 0.0185,0.0317 0.0556,0.10319 0.037,0.0714 0.0635,0.11377 0.0291,0.0423 0.0556,0.0688 z" />
    </g>
    <g
       transform="matrix(2,0,0,2,-172.15286,-151.09157)"
       style="font-weight:bold;font-size:2.64583px;line-height:1.05;font-family:'Overlock SC';-inkscape-font-specification:'Overlock SC Bold';text-align:end;text-anchor:end;fill:#ffffff;fill-opacity:1;stroke:#ffffff;stroke-width:0.905998;stroke-linecap:round;stroke-miterlimit:4;stroke-dasharray:none;stroke-opacity:1;paint-order:markers stroke fill"
       id="g845"
       aria-label="3">
      <path
         id="path843"
         style="font-size:2.64583px;fill:#ffffff;fill-opacity:1;stroke:none;stroke-width:0.905998"
         d="m 187.25455,155.20782 q 0.24607,0 0.36777,-0.0926 0.12436,-0.0926 0.12436,-0.21961 0,-0.10054 -0.0741,-0.17462 -0.0714,-0.0767 -0.18786,-0.0767 -0.0926,0 -0.18256,0.0556 -0.0873,0.0556 -0.14023,0.15875 -0.0503,0 -0.082,-0.0265 -0.0317,-0.0265 -0.0317,-0.0608 0,-0.09 0.13494,-0.17992 0.13758,-0.0926 0.31221,-0.0926 0.20372,0 0.31749,0.11377 0.11642,0.11112 0.11642,0.26458 0,0.10584 -0.0661,0.20109 -0.0635,0.0926 -0.18786,0.14287 0.14288,0.045 0.22225,0.1614 0.082,0.11377 0.082,0.25929 0,0.23548 -0.17462,0.38364 -0.17463,0.15082 -0.47625,0.15082 -0.13229,0 -0.20373,-0.0397 -0.0688,-0.037 -0.0688,-0.0952 0,-0.0767 0.0873,-0.0979 0.0794,0.0794 0.2196,0.0794 0.20109,0 0.31486,-0.0979 0.11377,-0.0952 0.11377,-0.24606 0,-0.15875 -0.11906,-0.24871 -0.11907,-0.0926 -0.32544,-0.0926 -0.0503,0 -0.0741,-0.0159 -0.0212,-0.0159 -0.0212,-0.0767 z" />
    </g>
    <path
       d="m 201.57306,155.23961 a 4.3186336,4.3186336 0 0 1 4.31864,4.31864 4.3186336,4.3186336 0 0 1 -4.31864,4.31862 4.3186336,4.3186336 0 0 1 -4.31864,-4.31862 4.3186336,4.3186336 0 0 1 4.31864,-4.31864"
       style="fill:none;fill-opacity:1;stroke:#676767;stroke-width:0.552;stroke-linecap:round;stroke-miterlimit:4;stroke-dasharray:none;stroke-dashoffset:0;stroke-opacity:1;paint-order:fill markers stroke"
       id="path847" />
    <rect
       inkscape:export-ydpi="96"
       inkscape:export-xdpi="96"
       inkscape:export-filename="D:\Calcatz\Icon Pack\Adventure Narative Inspired by Arrival\GUI\Navigation Buttons\Xbox\Dark\png\128px\r3.png"
       y="151.09157"
       x="213.45793"
       height="33.866665"
       width="33.866665"
       id="rect849"
       style="fill:#cccccc;fill-opacity:1;stroke-width:1.7449;stroke-linecap:round;paint-order:fill markers stroke" />
    <g
       aria-label="R"
       id="g853"
       style="font-weight:bold;font-size:2.64583px;line-height:1.05;font-family:'Overlock SC';-inkscape-font-specification:'Overlock SC Bold';text-align:end;text-anchor:end;fill:#ffffff;fill-opacity:1;stroke:#ffffff;stroke-width:0.905998;stroke-linecap:round;stroke-miterlimit:4;stroke-dasharray:none;stroke-opacity:1;paint-order:markers stroke fill"
       transform="matrix(4,0,0,4,-517.06055,-453.27471)">
      <path
         d="m 186.69623,155.97973 q 0.0688,0.0767 0.16933,0.0767 0.0318,0 0.0714,-0.008 0.0238,0.0476 0.0238,0.0794 0,0.10054 -0.19843,0.10054 -0.0503,0 -0.10054,-0.0238 -0.0503,-0.0238 -0.10055,-0.082 -0.0503,-0.0582 -0.0873,-0.10319 -0.0344,-0.045 -0.0873,-0.14023 -0.0503,-0.0952 -0.0714,-0.13494 -0.0212,-0.0423 -0.0714,-0.15081 -0.0503,-0.11113 -0.0582,-0.127 -0.0741,-0.0106 -0.0741,-0.0582 0,-0.0238 0.0132,-0.0714 0.0741,0.0132 0.12436,0.0132 0.17727,0 0.27781,-0.10318 0.10054,-0.10584 0.10054,-0.28575 0,-0.21167 -0.11112,-0.29369 -0.11113,-0.0847 -0.34132,-0.0847 -0.0847,0 -0.20637,0.0106 0.0106,0.15345 0.0106,0.53975 v 0.53181 q 0,0.35718 0.0503,0.52387 -0.0476,0.0212 -0.12435,0.0212 -0.0767,0 -0.10319,-0.0344 -0.0265,-0.0344 -0.0265,-0.11641 0,-0.0423 0.003,-0.20902 0.003,-0.16669 0.003,-0.2593 v -0.52916 q 0,-0.36513 -0.0344,-0.60854 0.19579,-0.0318 0.39423,-0.0318 0.70908,0 0.70908,0.52652 0,0.21696 -0.11906,0.35189 -0.11907,0.13229 -0.31486,0.16934 0,0.003 0.045,0.0979 0.045,0.0952 0.0609,0.127 0.0185,0.0317 0.0556,0.10319 0.037,0.0714 0.0635,0.11377 0.0291,0.0423 0.0556,0.0688 z"
         style="font-size:2.64583px;fill:#ffffff;fill-opacity:1;stroke:none;stroke-width:0.905998"
         id="path851" />
    </g>
    <g
       aria-label="3"
       id="g857"
       style="font-weight:bold;font-size:2.64583px;line-height:1.05;font-family:'Overlock SC';-inkscape-font-specification:'Overlock SC Bold';text-align:end;text-anchor:end;fill:#ffffff;fill-opacity:1;stroke:#ffffff;stroke-width:0.905998;stroke-linecap:round;stroke-miterlimit:4;stroke-dasharray:none;stroke-opacity:1;paint-order:markers stroke fill"
       transform="matrix(4,0,0,4,-517.06055,-453.27471)">
      <path
         d="m 187.25455,155.20782 q 0.24607,0 0.36777,-0.0926 0.12436,-0.0926 0.12436,-0.21961 0,-0.10054 -0.0741,-0.17462 -0.0714,-0.0767 -0.18786,-0.0767 -0.0926,0 -0.18256,0.0556 -0.0873,0.0556 -0.14023,0.15875 -0.0503,0 -0.082,-0.0265 -0.0317,-0.0265 -0.0317,-0.0608 0,-0.09 0.13494,-0.17992 0.13758,-0.0926 0.31221,-0.0926 0.20372,0 0.31749,0.11377 0.11642,0.11112 0.11642,0.26458 0,0.10584 -0.0661,0.20109 -0.0635,0.0926 -0.18786,0.14287 0.14288,0.045 0.22225,0.1614 0.082,0.11377 0.082,0.25929 0,0.23548 -0.17462,0.38364 -0.17463,0.15082 -0.47625,0.15082 -0.13229,0 -0.20373,-0.0397 -0.0688,-0.037 -0.0688,-0.0952 0,-0.0767 0.0873,-0.0979 0.0794,0.0794 0.2196,0.0794 0.20109,0 0.31486,-0.0979 0.11377,-0.0952 0.11377,-0.24606 0,-0.15875 -0.11906,-0.24871 -0.11907,-0.0926 -0.32544,-0.0926 -0.0503,0 -0.0741,-0.0159 -0.0212,-0.0159 -0.0212,-0.0767 z"
         style="font-size:2.64583px;fill:#ffffff;fill-opacity:1;stroke:none;stroke-width:0.905998"
         id="path855" />
    </g>
    <path
       id="path859"
       style="fill:none;fill-opacity:1;stroke:#676767;stroke-width:1.104;stroke-linecap:round;stroke-miterlimit:4;stroke-dasharray:none;stroke-dashoffset:0;stroke-opacity:1;paint-order:fill markers stroke"
       d="m 230.39129,159.38765 a 8.6372672,8.6372672 0 0 1 8.63728,8.63728 8.6372672,8.6372672 0 0 1 -8.63728,8.63724 8.6372672,8.6372672 0 0 1 -8.63728,-8.63724 8.6372672,8.6372672 0 0 1 8.63728,-8.63728" />
    <rect
       inkscape:export-ydpi="96"
       inkscape:export-xdpi="96"
       inkscape:export-filename="D:\Calcatz\Icon Pack\Adventure Narative Inspired by Arrival\GUI\Navigation Buttons\Xbox\Dark\png\256px\r3.png"
       style="fill:#cccccc;fill-opacity:1;stroke-width:3.4898;stroke-linecap:round;paint-order:fill markers stroke"
       id="rect861"
       width="67.73333"
       height="67.73333"
       x="252.03642"
       y="151.09157" />
    <g
       transform="matrix(8,0,0,8,-1209.0005,-1057.641)"
       style="font-weight:bold;font-size:2.64583px;line-height:1.05;font-family:'Overlock SC';-inkscape-font-specification:'Overlock SC Bold';text-align:end;text-anchor:end;fill:#ffffff;fill-opacity:1;stroke:#ffffff;stroke-width:0.905998;stroke-linecap:round;stroke-miterlimit:4;stroke-dasharray:none;stroke-opacity:1;paint-order:markers stroke fill"
       id="g865"
       aria-label="R">
      <path
         id="path863"
         style="font-size:2.64583px;fill:#ffffff;fill-opacity:1;stroke:none;stroke-width:0.905998"
         d="m 186.69623,155.97973 q 0.0688,0.0767 0.16933,0.0767 0.0318,0 0.0714,-0.008 0.0238,0.0476 0.0238,0.0794 0,0.10054 -0.19843,0.10054 -0.0503,0 -0.10054,-0.0238 -0.0503,-0.0238 -0.10055,-0.082 -0.0503,-0.0582 -0.0873,-0.10319 -0.0344,-0.045 -0.0873,-0.14023 -0.0503,-0.0952 -0.0714,-0.13494 -0.0212,-0.0423 -0.0714,-0.15081 -0.0503,-0.11113 -0.0582,-0.127 -0.0741,-0.0106 -0.0741,-0.0582 0,-0.0238 0.0132,-0.0714 0.0741,0.0132 0.12436,0.0132 0.17727,0 0.27781,-0.10318 0.10054,-0.10584 0.10054,-0.28575 0,-0.21167 -0.11112,-0.29369 -0.11113,-0.0847 -0.34132,-0.0847 -0.0847,0 -0.20637,0.0106 0.0106,0.15345 0.0106,0.53975 v 0.53181 q 0,0.35718 0.0503,0.52387 -0.0476,0.0212 -0.12435,0.0212 -0.0767,0 -0.10319,-0.0344 -0.0265,-0.0344 -0.0265,-0.11641 0,-0.0423 0.003,-0.20902 0.003,-0.16669 0.003,-0.2593 v -0.52916 q 0,-0.36513 -0.0344,-0.60854 0.19579,-0.0318 0.39423,-0.0318 0.70908,0 0.70908,0.52652 0,0.21696 -0.11906,0.35189 -0.11907,0.13229 -0.31486,0.16934 0,0.003 0.045,0.0979 0.045,0.0952 0.0609,0.127 0.0185,0.0317 0.0556,0.10319 0.037,0.0714 0.0635,0.11377 0.0291,0.0423 0.0556,0.0688 z" />
    </g>
    <g
       transform="matrix(8,0,0,8,-1209.0005,-1057.641)"
       style="font-weight:bold;font-size:2.64583px;line-height:1.05;font-family:'Overlock SC';-inkscape-font-specification:'Overlock SC Bold';text-align:end;text-anchor:end;fill:#ffffff;fill-opacity:1;stroke:#ffffff;stroke-width:0.905998;stroke-linecap:round;stroke-miterlimit:4;stroke-dasharray:none;stroke-opacity:1;paint-order:markers stroke fill"
       id="g869"
       aria-label="3">
      <path
         id="path867"
         style="font-size:2.64583px;fill:#ffffff;fill-opacity:1;stroke:none;stroke-width:0.905998"
         d="m 187.25455,155.20782 q 0.24607,0 0.36777,-0.0926 0.12436,-0.0926 0.12436,-0.21961 0,-0.10054 -0.0741,-0.17462 -0.0714,-0.0767 -0.18786,-0.0767 -0.0926,0 -0.18256,0.0556 -0.0873,0.0556 -0.14023,0.15875 -0.0503,0 -0.082,-0.0265 -0.0317,-0.0265 -0.0317,-0.0608 0,-0.09 0.13494,-0.17992 0.13758,-0.0926 0.31221,-0.0926 0.20372,0 0.31749,0.11377 0.11642,0.11112 0.11642,0.26458 0,0.10584 -0.0661,0.20109 -0.0635,0.0926 -0.18786,0.14287 0.14288,0.045 0.22225,0.1614 0.082,0.11377 0.082,0.25929 0,0.23548 -0.17462,0.38364 -0.17463,0.15082 -0.47625,0.15082 -0.13229,0 -0.20373,-0.0397 -0.0688,-0.037 -0.0688,-0.0952 0,-0.0767 0.0873,-0.0979 0.0794,0.0794 0.2196,0.0794 0.20109,0 0.31486,-0.0979 0.11377,-0.0952 0.11377,-0.24606 0,-0.15875 -0.11906,-0.24871 -0.11907,-0.0926 -0.32544,-0.0926 -0.0503,0 -0.0741,-0.0159 -0.0212,-0.0159 -0.0212,-0.0767 z" />
    </g>
    <path
       d="m 285.90314,167.68373 a 17.274534,17.274534 0 0 1 17.27456,17.27456 17.274534,17.274534 0 0 1 -17.27456,17.27448 17.274534,17.274534 0 0 1 -17.27456,-17.27448 17.274534,17.274534 0 0 1 17.27456,-17.27456"
       style="fill:none;fill-opacity:1;stroke:#676767;stroke-width:2.208;stroke-linecap:round;stroke-miterlimit:4;stroke-dasharray:none;stroke-dashoffset:0;stroke-opacity:1;paint-order:fill markers stroke"
       id="path871" />
  </g>
</svg>
