<?xml version="1.0" encoding="UTF-8" standalone="no"?>
<svg
   xmlns:dc="http://purl.org/dc/elements/1.1/"
   xmlns:cc="http://creativecommons.org/ns#"
   xmlns:rdf="http://www.w3.org/1999/02/22-rdf-syntax-ns#"
   xmlns:svg="http://www.w3.org/2000/svg"
   xmlns="http://www.w3.org/2000/svg"
   xmlns:sodipodi="http://sodipodi.sourceforge.net/DTD/sodipodi-0.dtd"
   xmlns:inkscape="http://www.inkscape.org/namespaces/inkscape"
   inkscape:export-ydpi="96"
   inkscape:export-xdpi="96"
   inkscape:export-filename="D:\Calcatz\Icon Pack\Adventure Narative Inspired by Arrival\GUI\Navigation Buttons\Xbox\Dark\png\rb.png"
   sodipodi:docname="rb.svg"
   inkscape:version="1.0 (4035a4fb49, 2020-05-01)"
   id="svg2434"
   version="1.1"
   viewBox="0 0 8.4666662 8.4666662"
   height="31.999998"
   width="31.999998">
  <defs
     id="defs2428" />
  <sodipodi:namedview
     inkscape:window-maximized="1"
     inkscape:window-y="-8"
     inkscape:window-x="-8"
     inkscape:window-height="705"
     inkscape:window-width="1366"
     fit-margin-bottom="0"
     fit-margin-right="0"
     fit-margin-left="0"
     fit-margin-top="0"
     showgrid="false"
     inkscape:document-rotation="0"
     inkscape:current-layer="layer1"
     inkscape:document-units="mm"
     inkscape:cy="64.941991"
     inkscape:cx="324.194"
     inkscape:zoom="0.61695969"
     inkscape:pageshadow="2"
     inkscape:pageopacity="0.0"
     borderopacity="1.0"
     bordercolor="#666666"
     pagecolor="#ffffff"
     id="base"
     units="px" />
  <metadata
     id="metadata2431">
    <rdf:RDF>
      <cc:Work
         rdf:about="">
        <dc:format>image/svg+xml</dc:format>
        <dc:type
           rdf:resource="http://purl.org/dc/dcmitype/StillImage" />
        <dc:title />
      </cc:Work>
    </rdf:RDF>
  </metadata>
  <g
     transform="translate(-68.304184,-124.28422)"
     id="layer1"
     inkscape:groupmode="layer"
     inkscape:label="Layer 1">
    <rect
       y="124.28422"
       x="68.304184"
       height="8.4666662"
       width="8.4666662"
       id="rect834"
       style="fill:#cccccc;fill-opacity:1;stroke-width:0.528;stroke-linecap:round;paint-order:fill markers stroke" />
    <g
       style="font-weight:bold;font-size:2.11667px;line-height:1.05;font-family:'Overlock SC';-inkscape-font-specification:'Overlock SC Bold';text-align:end;text-anchor:end;fill:#ffffff;fill-opacity:1;stroke:#ffffff;stroke-width:0.905997;stroke-linecap:round;stroke-miterlimit:4;stroke-dasharray:none;stroke-opacity:1;paint-order:markers stroke fill"
       id="text4395"
       aria-label="RB"
       transform="translate(0,-1.1299438e-5)">
      <path
         id="path3026"
         style="font-size:2.11667px;fill:#ffffff;fill-opacity:1;stroke:none;stroke-width:0.905997"
         d="m 72.275783,129.04142 q 0.05503,0.0614 0.135466,0.0614 0.0254,0 0.05715,-0.006 0.01905,0.0381 0.01905,0.0635 0,0.0804 -0.158751,0.0804 -0.04022,0 -0.08043,-0.019 -0.04022,-0.019 -0.08043,-0.0656 -0.04022,-0.0466 -0.06985,-0.0825 -0.02752,-0.036 -0.06985,-0.11218 -0.04022,-0.0762 -0.05715,-0.10795 -0.01693,-0.0339 -0.05715,-0.12065 -0.04022,-0.0889 -0.04657,-0.1016 -0.05927,-0.008 -0.05927,-0.0466 0,-0.019 0.01058,-0.0571 0.05927,0.0106 0.09948,0.0106 0.141817,0 0.222251,-0.0825 0.08043,-0.0847 0.08043,-0.22861 0,-0.16933 -0.0889,-0.23495 -0.0889,-0.0677 -0.27305,-0.0677 -0.06773,0 -0.165101,0.008 0.0085,0.12276 0.0085,0.4318 v 0.42545 q 0,0.28575 0.04022,0.4191 -0.0381,0.0169 -0.09948,0.0169 -0.06138,0 -0.08255,-0.0275 -0.02117,-0.0275 -0.02117,-0.0931 0,-0.0339 0.0021,-0.16721 0.0021,-0.13335 0.0021,-0.20744 v -0.42333 q 0,-0.2921 -0.02752,-0.48684 0.156634,-0.0254 0.315384,-0.0254 0.567267,0 0.567267,0.42122 0,0.17357 -0.09525,0.28152 -0.09525,0.10583 -0.251883,0.13547 0,0.002 0.03598,0.0783 0.03598,0.0762 0.04868,0.1016 0.01482,0.0254 0.04445,0.0826 0.02963,0.0571 0.0508,0.091 0.02328,0.0339 0.04445,0.055 z" />
      <path
         id="path3028"
         style="font-size:2.11667px;fill:#ffffff;fill-opacity:1;stroke:none;stroke-width:0.905997"
         d="m 72.970679,127.92382 q -0.0508,0 -0.143934,0.008 0.0085,0.1778 0.0085,0.47625 0.06773,0.004 0.116417,0.004 0.3937,0 0.3937,-0.2413 0,-0.24765 -0.37465,-0.24765 z m 0.1016,1.18745 q 0.137583,0 0.230717,-0.0762 0.09313,-0.0783 0.09313,-0.21166 0,-0.14817 -0.105833,-0.22649 -0.103717,-0.0783 -0.256117,-0.0783 -0.137584,0 -0.201084,0.0106 0,0.16933 -0.02752,0.50588 0.04022,0.0318 0.116417,0.055 0.07832,0.0212 0.150284,0.0212 z m -0.429684,-0.004 q 0.03387,-0.2413 0.03387,-0.70697 0,-0.3937 -0.02752,-0.57997 0.156633,-0.0254 0.33655,-0.0254 0.230717,0 0.376768,0.0847 0.14605,0.0847 0.14605,0.2794 0,0.21167 -0.18415,0.29422 0.23495,0.0995 0.23495,0.36195 0,0.20108 -0.131234,0.31327 -0.129116,0.11218 -0.3175,0.11218 -0.306917,0 -0.467784,-0.13335 z" />
    </g>
    <path
       id="path1892"
       style="fill:none;fill-opacity:1;stroke:#676767;stroke-width:0.276;stroke-linecap:round;stroke-miterlimit:4;stroke-dasharray:none;stroke-opacity:1;paint-order:markers stroke fill"
       d="m 70.510125,127.06673 v 2.90164 h 4.05479 v -1.44471 c 0,-0.63992 -0.81907,-1.45695 -1.45693,-1.45695 z"
       sodipodi:nodetypes="cccssc" />
    <rect
       inkscape:export-ydpi="96"
       inkscape:export-xdpi="96"
       inkscape:export-filename="D:\Calcatz\Icon Pack\Adventure Narative Inspired by Arrival\GUI\Navigation Buttons\Xbox\Dark\png\64px\rb.png"
       style="fill:#cccccc;fill-opacity:1;stroke-width:1.056;stroke-linecap:round;paint-order:fill markers stroke"
       id="rect836"
       width="16.933332"
       height="16.933332"
       x="80.358093"
       y="124.28422" />
    <g
       transform="matrix(2,0,0,2,-56.250279,-124.28424)"
       aria-label="RB"
       id="g842"
       style="font-weight:bold;font-size:2.11667px;line-height:1.05;font-family:'Overlock SC';-inkscape-font-specification:'Overlock SC Bold';text-align:end;text-anchor:end;fill:#ffffff;fill-opacity:1;stroke:#ffffff;stroke-width:0.905997;stroke-linecap:round;stroke-miterlimit:4;stroke-dasharray:none;stroke-opacity:1;paint-order:markers stroke fill">
      <path
         d="m 72.275783,129.04142 q 0.05503,0.0614 0.135466,0.0614 0.0254,0 0.05715,-0.006 0.01905,0.0381 0.01905,0.0635 0,0.0804 -0.158751,0.0804 -0.04022,0 -0.08043,-0.019 -0.04022,-0.019 -0.08043,-0.0656 -0.04022,-0.0466 -0.06985,-0.0825 -0.02752,-0.036 -0.06985,-0.11218 -0.04022,-0.0762 -0.05715,-0.10795 -0.01693,-0.0339 -0.05715,-0.12065 -0.04022,-0.0889 -0.04657,-0.1016 -0.05927,-0.008 -0.05927,-0.0466 0,-0.019 0.01058,-0.0571 0.05927,0.0106 0.09948,0.0106 0.141817,0 0.222251,-0.0825 0.08043,-0.0847 0.08043,-0.22861 0,-0.16933 -0.0889,-0.23495 -0.0889,-0.0677 -0.27305,-0.0677 -0.06773,0 -0.165101,0.008 0.0085,0.12276 0.0085,0.4318 v 0.42545 q 0,0.28575 0.04022,0.4191 -0.0381,0.0169 -0.09948,0.0169 -0.06138,0 -0.08255,-0.0275 -0.02117,-0.0275 -0.02117,-0.0931 0,-0.0339 0.0021,-0.16721 0.0021,-0.13335 0.0021,-0.20744 v -0.42333 q 0,-0.2921 -0.02752,-0.48684 0.156634,-0.0254 0.315384,-0.0254 0.567267,0 0.567267,0.42122 0,0.17357 -0.09525,0.28152 -0.09525,0.10583 -0.251883,0.13547 0,0.002 0.03598,0.0783 0.03598,0.0762 0.04868,0.1016 0.01482,0.0254 0.04445,0.0826 0.02963,0.0571 0.0508,0.091 0.02328,0.0339 0.04445,0.055 z"
         style="font-size:2.11667px;fill:#ffffff;fill-opacity:1;stroke:none;stroke-width:0.905997"
         id="path838" />
      <path
         d="m 72.970679,127.92382 q -0.0508,0 -0.143934,0.008 0.0085,0.1778 0.0085,0.47625 0.06773,0.004 0.116417,0.004 0.3937,0 0.3937,-0.2413 0,-0.24765 -0.37465,-0.24765 z m 0.1016,1.18745 q 0.137583,0 0.230717,-0.0762 0.09313,-0.0783 0.09313,-0.21166 0,-0.14817 -0.105833,-0.22649 -0.103717,-0.0783 -0.256117,-0.0783 -0.137584,0 -0.201084,0.0106 0,0.16933 -0.02752,0.50588 0.04022,0.0318 0.116417,0.055 0.07832,0.0212 0.150284,0.0212 z m -0.429684,-0.004 q 0.03387,-0.2413 0.03387,-0.70697 0,-0.3937 -0.02752,-0.57997 0.156633,-0.0254 0.33655,-0.0254 0.230717,0 0.376768,0.0847 0.14605,0.0847 0.14605,0.2794 0,0.21167 -0.18415,0.29422 0.23495,0.0995 0.23495,0.36195 0,0.20108 -0.131234,0.31327 -0.129116,0.11218 -0.3175,0.11218 -0.306917,0 -0.467784,-0.13335 z"
         style="font-size:2.11667px;fill:#ffffff;fill-opacity:1;stroke:none;stroke-width:0.905997"
         id="path840" />
    </g>
    <path
       sodipodi:nodetypes="cccssc"
       d="m 84.769971,129.84924 v 5.80328 h 8.10958 v -2.88942 c 0,-1.27984 -1.63814,-2.9139 -2.91386,-2.9139 z"
       style="fill:none;fill-opacity:1;stroke:#676767;stroke-width:0.552;stroke-linecap:round;stroke-miterlimit:4;stroke-dasharray:none;stroke-opacity:1;paint-order:markers stroke fill"
       id="path844" />
    <rect
       inkscape:export-ydpi="96"
       inkscape:export-xdpi="96"
       inkscape:export-filename="D:\Calcatz\Icon Pack\Adventure Narative Inspired by Arrival\GUI\Navigation Buttons\Xbox\Dark\png\128px\rb.png"
       y="124.28422"
       x="99.76564"
       height="33.866665"
       width="33.866665"
       id="rect846"
       style="fill:#cccccc;fill-opacity:1;stroke-width:2.112;stroke-linecap:round;paint-order:fill markers stroke" />
    <g
       style="font-weight:bold;font-size:2.11667px;line-height:1.05;font-family:'Overlock SC';-inkscape-font-specification:'Overlock SC Bold';text-align:end;text-anchor:end;fill:#ffffff;fill-opacity:1;stroke:#ffffff;stroke-width:0.905997;stroke-linecap:round;stroke-miterlimit:4;stroke-dasharray:none;stroke-opacity:1;paint-order:markers stroke fill"
       id="g852"
       aria-label="RB"
       transform="matrix(4,0,0,4,-173.4511,-372.8527)">
      <path
         id="path848"
         style="font-size:2.11667px;fill:#ffffff;fill-opacity:1;stroke:none;stroke-width:0.905997"
         d="m 72.275783,129.04142 q 0.05503,0.0614 0.135466,0.0614 0.0254,0 0.05715,-0.006 0.01905,0.0381 0.01905,0.0635 0,0.0804 -0.158751,0.0804 -0.04022,0 -0.08043,-0.019 -0.04022,-0.019 -0.08043,-0.0656 -0.04022,-0.0466 -0.06985,-0.0825 -0.02752,-0.036 -0.06985,-0.11218 -0.04022,-0.0762 -0.05715,-0.10795 -0.01693,-0.0339 -0.05715,-0.12065 -0.04022,-0.0889 -0.04657,-0.1016 -0.05927,-0.008 -0.05927,-0.0466 0,-0.019 0.01058,-0.0571 0.05927,0.0106 0.09948,0.0106 0.141817,0 0.222251,-0.0825 0.08043,-0.0847 0.08043,-0.22861 0,-0.16933 -0.0889,-0.23495 -0.0889,-0.0677 -0.27305,-0.0677 -0.06773,0 -0.165101,0.008 0.0085,0.12276 0.0085,0.4318 v 0.42545 q 0,0.28575 0.04022,0.4191 -0.0381,0.0169 -0.09948,0.0169 -0.06138,0 -0.08255,-0.0275 -0.02117,-0.0275 -0.02117,-0.0931 0,-0.0339 0.0021,-0.16721 0.0021,-0.13335 0.0021,-0.20744 v -0.42333 q 0,-0.2921 -0.02752,-0.48684 0.156634,-0.0254 0.315384,-0.0254 0.567267,0 0.567267,0.42122 0,0.17357 -0.09525,0.28152 -0.09525,0.10583 -0.251883,0.13547 0,0.002 0.03598,0.0783 0.03598,0.0762 0.04868,0.1016 0.01482,0.0254 0.04445,0.0826 0.02963,0.0571 0.0508,0.091 0.02328,0.0339 0.04445,0.055 z" />
      <path
         id="path850"
         style="font-size:2.11667px;fill:#ffffff;fill-opacity:1;stroke:none;stroke-width:0.905997"
         d="m 72.970679,127.92382 q -0.0508,0 -0.143934,0.008 0.0085,0.1778 0.0085,0.47625 0.06773,0.004 0.116417,0.004 0.3937,0 0.3937,-0.2413 0,-0.24765 -0.37465,-0.24765 z m 0.1016,1.18745 q 0.137583,0 0.230717,-0.0762 0.09313,-0.0783 0.09313,-0.21166 0,-0.14817 -0.105833,-0.22649 -0.103717,-0.0783 -0.256117,-0.0783 -0.137584,0 -0.201084,0.0106 0,0.16933 -0.02752,0.50588 0.04022,0.0318 0.116417,0.055 0.07832,0.0212 0.150284,0.0212 z m -0.429684,-0.004 q 0.03387,-0.2413 0.03387,-0.70697 0,-0.3937 -0.02752,-0.57997 0.156633,-0.0254 0.33655,-0.0254 0.230717,0 0.376768,0.0847 0.14605,0.0847 0.14605,0.2794 0,0.21167 -0.18415,0.29422 0.23495,0.0995 0.23495,0.36195 0,0.20108 -0.131234,0.31327 -0.129116,0.11218 -0.3175,0.11218 -0.306917,0 -0.467784,-0.13335 z" />
    </g>
    <path
       id="path854"
       style="fill:none;fill-opacity:1;stroke:#676767;stroke-width:1.104;stroke-linecap:round;stroke-miterlimit:4;stroke-dasharray:none;stroke-opacity:1;paint-order:markers stroke fill"
       d="m 108.5894,135.41426 v 11.60656 h 16.21916 v -5.77884 c 0,-2.55968 -3.27628,-5.8278 -5.82772,-5.8278 z"
       sodipodi:nodetypes="cccssc" />
    <rect
       inkscape:export-ydpi="96"
       inkscape:export-xdpi="96"
       inkscape:export-filename="D:\Calcatz\Icon Pack\Adventure Narative Inspired by Arrival\GUI\Navigation Buttons\Xbox\Dark\png\256px\rb.png"
       style="fill:#cccccc;fill-opacity:1;stroke-width:4.224;stroke-linecap:round;paint-order:fill markers stroke"
       id="rect856"
       width="67.73333"
       height="67.73333"
       x="138.2775"
       y="124.28422" />
    <g
       transform="matrix(8,0,0,8,-408.156,-869.98962)"
       aria-label="RB"
       id="g862"
       style="font-weight:bold;font-size:2.11667px;line-height:1.05;font-family:'Overlock SC';-inkscape-font-specification:'Overlock SC Bold';text-align:end;text-anchor:end;fill:#ffffff;fill-opacity:1;stroke:#ffffff;stroke-width:0.905997;stroke-linecap:round;stroke-miterlimit:4;stroke-dasharray:none;stroke-opacity:1;paint-order:markers stroke fill">
      <path
         d="m 72.275783,129.04142 q 0.05503,0.0614 0.135466,0.0614 0.0254,0 0.05715,-0.006 0.01905,0.0381 0.01905,0.0635 0,0.0804 -0.158751,0.0804 -0.04022,0 -0.08043,-0.019 -0.04022,-0.019 -0.08043,-0.0656 -0.04022,-0.0466 -0.06985,-0.0825 -0.02752,-0.036 -0.06985,-0.11218 -0.04022,-0.0762 -0.05715,-0.10795 -0.01693,-0.0339 -0.05715,-0.12065 -0.04022,-0.0889 -0.04657,-0.1016 -0.05927,-0.008 -0.05927,-0.0466 0,-0.019 0.01058,-0.0571 0.05927,0.0106 0.09948,0.0106 0.141817,0 0.222251,-0.0825 0.08043,-0.0847 0.08043,-0.22861 0,-0.16933 -0.0889,-0.23495 -0.0889,-0.0677 -0.27305,-0.0677 -0.06773,0 -0.165101,0.008 0.0085,0.12276 0.0085,0.4318 v 0.42545 q 0,0.28575 0.04022,0.4191 -0.0381,0.0169 -0.09948,0.0169 -0.06138,0 -0.08255,-0.0275 -0.02117,-0.0275 -0.02117,-0.0931 0,-0.0339 0.0021,-0.16721 0.0021,-0.13335 0.0021,-0.20744 v -0.42333 q 0,-0.2921 -0.02752,-0.48684 0.156634,-0.0254 0.315384,-0.0254 0.567267,0 0.567267,0.42122 0,0.17357 -0.09525,0.28152 -0.09525,0.10583 -0.251883,0.13547 0,0.002 0.03598,0.0783 0.03598,0.0762 0.04868,0.1016 0.01482,0.0254 0.04445,0.0826 0.02963,0.0571 0.0508,0.091 0.02328,0.0339 0.04445,0.055 z"
         style="font-size:2.11667px;fill:#ffffff;fill-opacity:1;stroke:none;stroke-width:0.905997"
         id="path858" />
      <path
         d="m 72.970679,127.92382 q -0.0508,0 -0.143934,0.008 0.0085,0.1778 0.0085,0.47625 0.06773,0.004 0.116417,0.004 0.3937,0 0.3937,-0.2413 0,-0.24765 -0.37465,-0.24765 z m 0.1016,1.18745 q 0.137583,0 0.230717,-0.0762 0.09313,-0.0783 0.09313,-0.21166 0,-0.14817 -0.105833,-0.22649 -0.103717,-0.0783 -0.256117,-0.0783 -0.137584,0 -0.201084,0.0106 0,0.16933 -0.02752,0.50588 0.04022,0.0318 0.116417,0.055 0.07832,0.0212 0.150284,0.0212 z m -0.429684,-0.004 q 0.03387,-0.2413 0.03387,-0.70697 0,-0.3937 -0.02752,-0.57997 0.156633,-0.0254 0.33655,-0.0254 0.230717,0 0.376768,0.0847 0.14605,0.0847 0.14605,0.2794 0,0.21167 -0.18415,0.29422 0.23495,0.0995 0.23495,0.36195 0,0.20108 -0.131234,0.31327 -0.129116,0.11218 -0.3175,0.11218 -0.306917,0 -0.467784,-0.13335 z"
         style="font-size:2.11667px;fill:#ffffff;fill-opacity:1;stroke:none;stroke-width:0.905997"
         id="path860" />
    </g>
    <path
       sodipodi:nodetypes="cccssc"
       d="m 155.925,146.5443 v 23.21312 h 32.43832 v -11.55768 c 0,-5.11936 -6.55256,-11.6556 -11.65544,-11.6556 z"
       style="fill:none;fill-opacity:1;stroke:#676767;stroke-width:2.208;stroke-linecap:round;stroke-miterlimit:4;stroke-dasharray:none;stroke-opacity:1;paint-order:markers stroke fill"
       id="path864" />
  </g>
</svg>
