<?xml version="1.0" encoding="UTF-8" standalone="no"?>
<svg
   xmlns:dc="http://purl.org/dc/elements/1.1/"
   xmlns:cc="http://creativecommons.org/ns#"
   xmlns:rdf="http://www.w3.org/1999/02/22-rdf-syntax-ns#"
   xmlns:svg="http://www.w3.org/2000/svg"
   xmlns="http://www.w3.org/2000/svg"
   xmlns:sodipodi="http://sodipodi.sourceforge.net/DTD/sodipodi-0.dtd"
   xmlns:inkscape="http://www.inkscape.org/namespaces/inkscape"
   width="31.999998"
   height="31.999998"
   viewBox="0 0 8.4666662 8.4666662"
   version="1.1"
   id="svg4856"
   inkscape:version="1.0 (4035a4fb49, 2020-05-01)"
   sodipodi:docname="rstick_none.svg"
   inkscape:export-filename="D:\Calcatz\Icon Pack\Adventure Narative Inspired by Arrival\GUI\Navigation Buttons\Xbox\Dark\png\rstick_none.png"
   inkscape:export-xdpi="96"
   inkscape:export-ydpi="96">
  <defs
     id="defs4850" />
  <sodipodi:namedview
     units="px"
     id="base"
     pagecolor="#ffffff"
     bordercolor="#666666"
     borderopacity="1.0"
     inkscape:pageopacity="0.0"
     inkscape:pageshadow="2"
     inkscape:zoom="1.1830589"
     inkscape:cx="371.21853"
     inkscape:cy="156.11725"
     inkscape:document-units="mm"
     inkscape:current-layer="layer1"
     inkscape:document-rotation="0"
     showgrid="false"
     fit-margin-top="0"
     fit-margin-left="0"
     fit-margin-right="0"
     fit-margin-bottom="0"
     inkscape:window-width="1366"
     inkscape:window-height="705"
     inkscape:window-x="-8"
     inkscape:window-y="-8"
     inkscape:window-maximized="1" />
  <metadata
     id="metadata4853">
    <rdf:RDF>
      <cc:Work
         rdf:about="">
        <dc:format>image/svg+xml</dc:format>
        <dc:type
           rdf:resource="http://purl.org/dc/dcmitype/StillImage" />
        <dc:title />
      </cc:Work>
    </rdf:RDF>
  </metadata>
  <g
     inkscape:label="Layer 1"
     inkscape:groupmode="layer"
     id="layer1"
     transform="translate(-189.72568,-171.59131)">
    <rect
       y="171.59131"
       x="189.72568"
       height="8.4666662"
       width="8.4666662"
       id="rect833"
       style="fill:#cccccc;fill-opacity:1;stroke-width:0.214103;stroke-linecap:round;paint-order:fill markers stroke" />
    <g
       aria-label="R"
       id="text3143"
       style="font-weight:bold;font-size:2.64583px;line-height:1.05;font-family:'Overlock SC';-inkscape-font-specification:'Overlock SC Bold';text-align:end;text-anchor:end;fill:#ffffff;fill-opacity:1;stroke:#ffffff;stroke-width:0.905997;stroke-linecap:round;stroke-miterlimit:4;stroke-dasharray:none;stroke-opacity:1;paint-order:markers stroke fill">
      <path
         d="m 194.30165,176.47947 q 0.0688,0.0767 0.16934,0.0767 0.0317,0 0.0714,-0.008 0.0238,0.0476 0.0238,0.0794 0,0.10054 -0.19844,0.10054 -0.0503,0 -0.10054,-0.0238 -0.0503,-0.0238 -0.10054,-0.082 -0.0503,-0.0582 -0.0873,-0.10319 -0.0344,-0.045 -0.0873,-0.14023 -0.0503,-0.0952 -0.0714,-0.13494 -0.0212,-0.0423 -0.0714,-0.15081 -0.0503,-0.11112 -0.0582,-0.127 -0.0741,-0.0106 -0.0741,-0.0582 0,-0.0238 0.0132,-0.0714 0.0741,0.0132 0.12435,0.0132 0.17727,0 0.27781,-0.10318 0.10054,-0.10584 0.10054,-0.28575 0,-0.21167 -0.11112,-0.29369 -0.11113,-0.0847 -0.34131,-0.0847 -0.0847,0 -0.20638,0.0106 0.0106,0.15345 0.0106,0.53975 v 0.53181 q 0,0.35718 0.0503,0.52387 -0.0476,0.0212 -0.12436,0.0212 -0.0767,0 -0.10319,-0.0344 -0.0265,-0.0344 -0.0265,-0.11641 0,-0.0423 0.003,-0.20902 0.003,-0.16669 0.003,-0.2593 v -0.52916 q 0,-0.36513 -0.0344,-0.60854 0.19579,-0.0318 0.39423,-0.0318 0.70908,0 0.70908,0.52652 0,0.21696 -0.11906,0.35189 -0.11906,0.13229 -0.31485,0.16934 0,0.003 0.045,0.0979 0.045,0.0952 0.0608,0.127 0.0185,0.0317 0.0556,0.10319 0.037,0.0714 0.0635,0.11377 0.0291,0.0423 0.0556,0.0688 z"
         style="font-size:2.64583px;fill:#ffffff;fill-opacity:1;stroke:none;stroke-width:0.905997"
         id="path5449" />
    </g>
    <path
       id="circle1563"
       style="fill:none;fill-opacity:1;stroke:#676767;stroke-width:0.276;stroke-linecap:round;stroke-miterlimit:4;stroke-dasharray:none;stroke-dashoffset:0;stroke-opacity:1;paint-order:fill markers stroke"
       d="m 196.11833,175.82465 a 2.1593168,2.1593168 0 0 1 -2.15932,2.15931 2.1593168,2.1593168 0 0 1 -2.15931,-2.15931 2.1593168,2.1593168 0 0 1 2.15931,-2.15932 2.1593168,2.1593168 0 0 1 2.15932,2.15932" />
    <rect
       inkscape:export-ydpi="96"
       inkscape:export-xdpi="96"
       inkscape:export-filename="D:\Calcatz\Icon Pack\Adventure Narative Inspired by Arrival\GUI\Navigation Buttons\Xbox\Dark\png\64px\rstick_none.png"
       style="fill:#cccccc;fill-opacity:1;stroke-width:0.428206;stroke-linecap:round;paint-order:fill markers stroke"
       id="rect835"
       width="16.933332"
       height="16.933332"
       x="201.07558"
       y="171.59131" />
    <g
       transform="matrix(2,0,0,2,-178.37577,-171.59131)"
       style="font-weight:bold;font-size:2.64583px;line-height:1.05;font-family:'Overlock SC';-inkscape-font-specification:'Overlock SC Bold';text-align:end;text-anchor:end;fill:#ffffff;fill-opacity:1;stroke:#ffffff;stroke-width:0.905997;stroke-linecap:round;stroke-miterlimit:4;stroke-dasharray:none;stroke-opacity:1;paint-order:markers stroke fill"
       id="g839"
       aria-label="R">
      <path
         id="path837"
         style="font-size:2.64583px;fill:#ffffff;fill-opacity:1;stroke:none;stroke-width:0.905997"
         d="m 194.30165,176.47947 q 0.0688,0.0767 0.16934,0.0767 0.0317,0 0.0714,-0.008 0.0238,0.0476 0.0238,0.0794 0,0.10054 -0.19844,0.10054 -0.0503,0 -0.10054,-0.0238 -0.0503,-0.0238 -0.10054,-0.082 -0.0503,-0.0582 -0.0873,-0.10319 -0.0344,-0.045 -0.0873,-0.14023 -0.0503,-0.0952 -0.0714,-0.13494 -0.0212,-0.0423 -0.0714,-0.15081 -0.0503,-0.11112 -0.0582,-0.127 -0.0741,-0.0106 -0.0741,-0.0582 0,-0.0238 0.0132,-0.0714 0.0741,0.0132 0.12435,0.0132 0.17727,0 0.27781,-0.10318 0.10054,-0.10584 0.10054,-0.28575 0,-0.21167 -0.11112,-0.29369 -0.11113,-0.0847 -0.34131,-0.0847 -0.0847,0 -0.20638,0.0106 0.0106,0.15345 0.0106,0.53975 v 0.53181 q 0,0.35718 0.0503,0.52387 -0.0476,0.0212 -0.12436,0.0212 -0.0767,0 -0.10319,-0.0344 -0.0265,-0.0344 -0.0265,-0.11641 0,-0.0423 0.003,-0.20902 0.003,-0.16669 0.003,-0.2593 v -0.52916 q 0,-0.36513 -0.0344,-0.60854 0.19579,-0.0318 0.39423,-0.0318 0.70908,0 0.70908,0.52652 0,0.21696 -0.11906,0.35189 -0.11906,0.13229 -0.31485,0.16934 0,0.003 0.045,0.0979 0.045,0.0952 0.0608,0.127 0.0185,0.0317 0.0556,0.10319 0.037,0.0714 0.0635,0.11377 0.0291,0.0423 0.0556,0.0688 z" />
    </g>
    <path
       d="m 213.86088,180.05799 a 4.3186336,4.3186336 0 0 1 -4.31864,4.31862 4.3186336,4.3186336 0 0 1 -4.31862,-4.31862 4.3186336,4.3186336 0 0 1 4.31862,-4.31864 4.3186336,4.3186336 0 0 1 4.31864,4.31864"
       style="fill:none;fill-opacity:1;stroke:#676767;stroke-width:0.552;stroke-linecap:round;stroke-miterlimit:4;stroke-dasharray:none;stroke-dashoffset:0;stroke-opacity:1;paint-order:fill markers stroke"
       id="path841" />
    <rect
       inkscape:export-ydpi="96"
       inkscape:export-xdpi="96"
       inkscape:export-filename="D:\Calcatz\Icon Pack\Adventure Narative Inspired by Arrival\GUI\Navigation Buttons\Xbox\Dark\png\128px\rstick_none.png"
       y="171.59131"
       x="223.66356"
       height="33.866665"
       width="33.866665"
       id="rect843"
       style="fill:#cccccc;fill-opacity:1;stroke-width:0.856412;stroke-linecap:round;paint-order:fill markers stroke" />
    <g
       aria-label="R"
       id="g847"
       style="font-weight:bold;font-size:2.64583px;line-height:1.05;font-family:'Overlock SC';-inkscape-font-specification:'Overlock SC Bold';text-align:end;text-anchor:end;fill:#ffffff;fill-opacity:1;stroke:#ffffff;stroke-width:0.905997;stroke-linecap:round;stroke-miterlimit:4;stroke-dasharray:none;stroke-opacity:1;paint-order:markers stroke fill"
       transform="matrix(4,0,0,4,-535.23914,-514.77393)">
      <path
         d="m 194.30165,176.47947 q 0.0688,0.0767 0.16934,0.0767 0.0317,0 0.0714,-0.008 0.0238,0.0476 0.0238,0.0794 0,0.10054 -0.19844,0.10054 -0.0503,0 -0.10054,-0.0238 -0.0503,-0.0238 -0.10054,-0.082 -0.0503,-0.0582 -0.0873,-0.10319 -0.0344,-0.045 -0.0873,-0.14023 -0.0503,-0.0952 -0.0714,-0.13494 -0.0212,-0.0423 -0.0714,-0.15081 -0.0503,-0.11112 -0.0582,-0.127 -0.0741,-0.0106 -0.0741,-0.0582 0,-0.0238 0.0132,-0.0714 0.0741,0.0132 0.12435,0.0132 0.17727,0 0.27781,-0.10318 0.10054,-0.10584 0.10054,-0.28575 0,-0.21167 -0.11112,-0.29369 -0.11113,-0.0847 -0.34131,-0.0847 -0.0847,0 -0.20638,0.0106 0.0106,0.15345 0.0106,0.53975 v 0.53181 q 0,0.35718 0.0503,0.52387 -0.0476,0.0212 -0.12436,0.0212 -0.0767,0 -0.10319,-0.0344 -0.0265,-0.0344 -0.0265,-0.11641 0,-0.0423 0.003,-0.20902 0.003,-0.16669 0.003,-0.2593 v -0.52916 q 0,-0.36513 -0.0344,-0.60854 0.19579,-0.0318 0.39423,-0.0318 0.70908,0 0.70908,0.52652 0,0.21696 -0.11906,0.35189 -0.11906,0.13229 -0.31485,0.16934 0,0.003 0.045,0.0979 0.045,0.0952 0.0608,0.127 0.0185,0.0317 0.0556,0.10319 0.037,0.0714 0.0635,0.11377 0.0291,0.0423 0.0556,0.0688 z"
         style="font-size:2.64583px;fill:#ffffff;fill-opacity:1;stroke:none;stroke-width:0.905997"
         id="path845" />
    </g>
    <path
       id="path849"
       style="fill:none;fill-opacity:1;stroke:#676767;stroke-width:1.104;stroke-linecap:round;stroke-miterlimit:4;stroke-dasharray:none;stroke-dashoffset:0;stroke-opacity:1;paint-order:fill markers stroke"
       d="m 249.23416,188.52467 a 8.6372672,8.6372672 0 0 1 -8.63728,8.63724 8.6372672,8.6372672 0 0 1 -8.63724,-8.63724 8.6372672,8.6372672 0 0 1 8.63724,-8.63728 8.6372672,8.6372672 0 0 1 8.63728,8.63728" />
    <rect
       inkscape:export-ydpi="96"
       inkscape:export-xdpi="96"
       inkscape:export-filename="D:\Calcatz\Icon Pack\Adventure Narative Inspired by Arrival\GUI\Navigation Buttons\Xbox\Dark\png\256px\rstick_none.png"
       style="fill:#cccccc;fill-opacity:1;stroke-width:1.71282;stroke-linecap:round;paint-order:fill markers stroke"
       id="rect851"
       width="67.73333"
       height="67.73333"
       x="271.07596"
       y="171.59131" />
    <g
       transform="matrix(8,0,0,8,-1246.7294,-1201.1392)"
       style="font-weight:bold;font-size:2.64583px;line-height:1.05;font-family:'Overlock SC';-inkscape-font-specification:'Overlock SC Bold';text-align:end;text-anchor:end;fill:#ffffff;fill-opacity:1;stroke:#ffffff;stroke-width:0.905997;stroke-linecap:round;stroke-miterlimit:4;stroke-dasharray:none;stroke-opacity:1;paint-order:markers stroke fill"
       id="g855"
       aria-label="R">
      <path
         id="path853"
         style="font-size:2.64583px;fill:#ffffff;fill-opacity:1;stroke:none;stroke-width:0.905997"
         d="m 194.30165,176.47947 q 0.0688,0.0767 0.16934,0.0767 0.0317,0 0.0714,-0.008 0.0238,0.0476 0.0238,0.0794 0,0.10054 -0.19844,0.10054 -0.0503,0 -0.10054,-0.0238 -0.0503,-0.0238 -0.10054,-0.082 -0.0503,-0.0582 -0.0873,-0.10319 -0.0344,-0.045 -0.0873,-0.14023 -0.0503,-0.0952 -0.0714,-0.13494 -0.0212,-0.0423 -0.0714,-0.15081 -0.0503,-0.11112 -0.0582,-0.127 -0.0741,-0.0106 -0.0741,-0.0582 0,-0.0238 0.0132,-0.0714 0.0741,0.0132 0.12435,0.0132 0.17727,0 0.27781,-0.10318 0.10054,-0.10584 0.10054,-0.28575 0,-0.21167 -0.11112,-0.29369 -0.11113,-0.0847 -0.34131,-0.0847 -0.0847,0 -0.20638,0.0106 0.0106,0.15345 0.0106,0.53975 v 0.53181 q 0,0.35718 0.0503,0.52387 -0.0476,0.0212 -0.12436,0.0212 -0.0767,0 -0.10319,-0.0344 -0.0265,-0.0344 -0.0265,-0.11641 0,-0.0423 0.003,-0.20902 0.003,-0.16669 0.003,-0.2593 v -0.52916 q 0,-0.36513 -0.0344,-0.60854 0.19579,-0.0318 0.39423,-0.0318 0.70908,0 0.70908,0.52652 0,0.21696 -0.11906,0.35189 -0.11906,0.13229 -0.31485,0.16934 0,0.003 0.045,0.0979 0.045,0.0952 0.0608,0.127 0.0185,0.0317 0.0556,0.10319 0.037,0.0714 0.0635,0.11377 0.0291,0.0423 0.0556,0.0688 z" />
    </g>
    <path
       d="m 322.21716,205.45803 a 17.274534,17.274534 0 0 1 -17.27456,17.27448 17.274534,17.274534 0 0 1 -17.27448,-17.27448 17.274534,17.274534 0 0 1 17.27448,-17.27456 17.274534,17.274534 0 0 1 17.27456,17.27456"
       style="fill:none;fill-opacity:1;stroke:#676767;stroke-width:2.208;stroke-linecap:round;stroke-miterlimit:4;stroke-dasharray:none;stroke-dashoffset:0;stroke-opacity:1;paint-order:fill markers stroke"
       id="path857" />
  </g>
</svg>
