<?xml version="1.0" encoding="UTF-8" standalone="no"?>
<svg
   xmlns:dc="http://purl.org/dc/elements/1.1/"
   xmlns:cc="http://creativecommons.org/ns#"
   xmlns:rdf="http://www.w3.org/1999/02/22-rdf-syntax-ns#"
   xmlns:svg="http://www.w3.org/2000/svg"
   xmlns="http://www.w3.org/2000/svg"
   xmlns:sodipodi="http://sodipodi.sourceforge.net/DTD/sodipodi-0.dtd"
   xmlns:inkscape="http://www.inkscape.org/namespaces/inkscape"
   width="31.999998"
   height="31.999998"
   viewBox="0 0 8.4666662 8.4666662"
   version="1.1"
   id="svg8499"
   inkscape:version="1.0 (4035a4fb49, 2020-05-01)"
   sodipodi:docname="rstick_updown.svg"
   inkscape:export-filename="D:\Calcatz\Icon Pack\Adventure Narative Inspired by Arrival\GUI\Navigation Buttons\Xbox\Dark\png\rstick_updown.png"
   inkscape:export-xdpi="96"
   inkscape:export-ydpi="96">
  <defs
     id="defs8493" />
  <sodipodi:namedview
     units="px"
     id="base"
     pagecolor="#ffffff"
     bordercolor="#666666"
     borderopacity="1.0"
     inkscape:pageopacity="0.0"
     inkscape:pageshadow="2"
     inkscape:zoom="0.83654897"
     inkscape:cx="216.30794"
     inkscape:cy="97.457584"
     inkscape:document-units="mm"
     inkscape:current-layer="layer1"
     inkscape:document-rotation="0"
     showgrid="false"
     fit-margin-top="0"
     fit-margin-left="0"
     fit-margin-right="0"
     fit-margin-bottom="0"
     inkscape:window-width="1366"
     inkscape:window-height="705"
     inkscape:window-x="-8"
     inkscape:window-y="-8"
     inkscape:window-maximized="1" />
  <metadata
     id="metadata8496">
    <rdf:RDF>
      <cc:Work
         rdf:about="">
        <dc:format>image/svg+xml</dc:format>
        <dc:type
           rdf:resource="http://purl.org/dc/dcmitype/StillImage" />
        <dc:title />
      </cc:Work>
    </rdf:RDF>
  </metadata>
  <g
     inkscape:label="Layer 1"
     inkscape:groupmode="layer"
     id="layer1"
     transform="translate(-144.78397,-159.76453)">
    <rect
       y="159.76453"
       x="144.78397"
       height="8.4666662"
       width="8.4666662"
       id="rect835"
       style="opacity:0.999;fill:#cccccc;fill-opacity:1;stroke-width:0.696832;stroke-linecap:round;paint-order:fill markers stroke" />
    <g
       aria-label="R"
       id="text3189"
       style="font-weight:bold;font-size:2.64583px;line-height:1.05;font-family:'Overlock SC';-inkscape-font-specification:'Overlock SC Bold';text-align:end;text-anchor:end;fill:#ffffff;fill-opacity:1;stroke:#ffffff;stroke-width:0.905997;stroke-linecap:round;stroke-miterlimit:4;stroke-dasharray:none;stroke-opacity:1;paint-order:markers stroke fill">
      <path
         d="m 149.35994,164.65269 q 0.0688,0.0767 0.16934,0.0767 0.0317,0 0.0714,-0.008 0.0238,0.0476 0.0238,0.0794 0,0.10054 -0.19844,0.10054 -0.0503,0 -0.10054,-0.0238 -0.0503,-0.0238 -0.10054,-0.082 -0.0503,-0.0582 -0.0873,-0.10318 -0.0344,-0.045 -0.0873,-0.14023 -0.0503,-0.0953 -0.0714,-0.13494 -0.0212,-0.0423 -0.0714,-0.15081 -0.0503,-0.11113 -0.0582,-0.127 -0.0741,-0.0106 -0.0741,-0.0582 0,-0.0238 0.0132,-0.0714 0.0741,0.0132 0.12436,0.0132 0.17727,0 0.27781,-0.10319 0.10054,-0.10583 0.10054,-0.28575 0,-0.21166 -0.11112,-0.29368 -0.11113,-0.0847 -0.34132,-0.0847 -0.0847,0 -0.20637,0.0106 0.0106,0.15346 0.0106,0.53975 v 0.53182 q 0,0.35718 0.0503,0.52387 -0.0476,0.0212 -0.12435,0.0212 -0.0767,0 -0.10319,-0.0344 -0.0265,-0.0344 -0.0265,-0.11642 0,-0.0423 0.003,-0.20902 0.003,-0.16668 0.003,-0.25929 v -0.52916 q 0,-0.36513 -0.0344,-0.60854 0.19579,-0.0317 0.39423,-0.0317 0.70908,0 0.70908,0.52652 0,0.21695 -0.11906,0.35189 -0.11906,0.13229 -0.31485,0.16933 0,0.003 0.045,0.0979 0.045,0.0953 0.0609,0.127 0.0185,0.0317 0.0556,0.10319 0.037,0.0714 0.0635,0.11377 0.0291,0.0423 0.0556,0.0688 z"
         style="font-size:2.64583px;fill:#ffffff;fill-opacity:1;stroke:none;stroke-width:0.905997"
         id="path9098" />
    </g>
    <path
       id="path3193"
       style="fill:#ffffff;fill-opacity:1;stroke:none;stroke-width:0.276;stroke-linecap:round;stroke-miterlimit:4;stroke-dasharray:none;stroke-opacity:1;paint-order:markers stroke fill"
       inkscape:transform-center-x="9.9297713e-06"
       inkscape:transform-center-y="0.18452527"
       d="m 149.66784,165.58762 h -0.65054 -0.65054 l 0.32527,0.5536 0.32527,0.55359 0.32527,-0.55359 z" />
    <path
       id="path3215"
       style="fill:#ffffff;fill-opacity:1;stroke:none;stroke-width:0.276;stroke-linecap:round;stroke-miterlimit:4;stroke-dasharray:none;stroke-opacity:1;paint-order:markers stroke fill"
       inkscape:transform-center-x="9.9297713e-06"
       inkscape:transform-center-y="-0.18452761"
       d="m 149.66784,162.45841 h -0.65054 -0.65054 l 0.32527,-0.5536 0.32527,-0.55359 0.32527,0.55359 z" />
    <path
       id="path1583"
       style="fill:none;fill-opacity:1;stroke:#676767;stroke-width:0.276;stroke-linecap:round;stroke-miterlimit:4;stroke-dasharray:none;stroke-dashoffset:0;stroke-opacity:1;paint-order:fill markers stroke"
       d="m 147.93763,165.86795 c -0.84638,-0.48866 -1.25903,-1.48488 -1.00608,-2.4289 0.15219,-0.56797 0.52248,-1.03184 1.00619,-1.31127 m 2.15966,3.3e-4 c 0.48344,0.27946 0.8535,0.74319 1.00563,1.31094 0.25295,0.94402 -0.1597,1.94024 -1.00608,2.4289"
       sodipodi:nodetypes="csccsc" />
    <rect
       inkscape:export-ydpi="96"
       inkscape:export-xdpi="96"
       inkscape:export-filename="D:\Calcatz\Icon Pack\Adventure Narative Inspired by Arrival\GUI\Navigation Buttons\Xbox\Dark\png\64px\rstick_updown.png"
       style="opacity:0.999;fill:#cccccc;fill-opacity:1;stroke-width:1.39366;stroke-linecap:round;paint-order:fill markers stroke"
       id="rect837"
       width="16.933332"
       height="16.933332"
       x="155.23929"
       y="159.76453" />
    <g
       transform="matrix(2,0,0,2,-134.32863,-159.76453)"
       style="font-weight:bold;font-size:2.64583px;line-height:1.05;font-family:'Overlock SC';-inkscape-font-specification:'Overlock SC Bold';text-align:end;text-anchor:end;fill:#ffffff;fill-opacity:1;stroke:#ffffff;stroke-width:0.905997;stroke-linecap:round;stroke-miterlimit:4;stroke-dasharray:none;stroke-opacity:1;paint-order:markers stroke fill"
       id="g841"
       aria-label="R">
      <path
         id="path839"
         style="font-size:2.64583px;fill:#ffffff;fill-opacity:1;stroke:none;stroke-width:0.905997"
         d="m 149.35994,164.65269 q 0.0688,0.0767 0.16934,0.0767 0.0317,0 0.0714,-0.008 0.0238,0.0476 0.0238,0.0794 0,0.10054 -0.19844,0.10054 -0.0503,0 -0.10054,-0.0238 -0.0503,-0.0238 -0.10054,-0.082 -0.0503,-0.0582 -0.0873,-0.10318 -0.0344,-0.045 -0.0873,-0.14023 -0.0503,-0.0953 -0.0714,-0.13494 -0.0212,-0.0423 -0.0714,-0.15081 -0.0503,-0.11113 -0.0582,-0.127 -0.0741,-0.0106 -0.0741,-0.0582 0,-0.0238 0.0132,-0.0714 0.0741,0.0132 0.12436,0.0132 0.17727,0 0.27781,-0.10319 0.10054,-0.10583 0.10054,-0.28575 0,-0.21166 -0.11112,-0.29368 -0.11113,-0.0847 -0.34132,-0.0847 -0.0847,0 -0.20637,0.0106 0.0106,0.15346 0.0106,0.53975 v 0.53182 q 0,0.35718 0.0503,0.52387 -0.0476,0.0212 -0.12435,0.0212 -0.0767,0 -0.10319,-0.0344 -0.0265,-0.0344 -0.0265,-0.11642 0,-0.0423 0.003,-0.20902 0.003,-0.16668 0.003,-0.25929 v -0.52916 q 0,-0.36513 -0.0344,-0.60854 0.19579,-0.0317 0.39423,-0.0317 0.70908,0 0.70908,0.52652 0,0.21695 -0.11906,0.35189 -0.11906,0.13229 -0.31485,0.16933 0,0.003 0.045,0.0979 0.045,0.0953 0.0609,0.127 0.0185,0.0317 0.0556,0.10319 0.037,0.0714 0.0635,0.11377 0.0291,0.0423 0.0556,0.0688 z" />
    </g>
    <path
       d="m 165.00705,171.41071 h -1.30108 -1.30108 l 0.65054,1.1072 0.65054,1.10718 0.65054,-1.10718 z"
       inkscape:transform-center-y="0.36904691"
       inkscape:transform-center-x="2.1529464e-05"
       style="fill:#ffffff;fill-opacity:1;stroke:none;stroke-width:0.552;stroke-linecap:round;stroke-miterlimit:4;stroke-dasharray:none;stroke-opacity:1;paint-order:markers stroke fill"
       id="path843" />
    <path
       d="m 165.00705,165.15229 h -1.30108 -1.30108 l 0.65054,-1.1072 0.65054,-1.10718 0.65054,1.10718 z"
       inkscape:transform-center-y="-0.36905885"
       inkscape:transform-center-x="2.1529464e-05"
       style="fill:#ffffff;fill-opacity:1;stroke:none;stroke-width:0.552;stroke-linecap:round;stroke-miterlimit:4;stroke-dasharray:none;stroke-opacity:1;paint-order:markers stroke fill"
       id="path845" />
    <path
       sodipodi:nodetypes="csccsc"
       d="m 161.54663,171.97137 c -1.69276,-0.97732 -2.51806,-2.96976 -2.01216,-4.8578 0.30438,-1.13594 1.04496,-2.06368 2.01238,-2.62254 m 4.31932,6.6e-4 c 0.96688,0.55892 1.707,1.48638 2.01126,2.62188 0.5059,1.88804 -0.3194,3.88048 -2.01216,4.8578"
       style="fill:none;fill-opacity:1;stroke:#676767;stroke-width:0.552;stroke-linecap:round;stroke-miterlimit:4;stroke-dasharray:none;stroke-dashoffset:0;stroke-opacity:1;paint-order:fill markers stroke"
       id="path847" />
    <rect
       inkscape:export-ydpi="96"
       inkscape:export-xdpi="96"
       inkscape:export-filename="D:\Calcatz\Icon Pack\Adventure Narative Inspired by Arrival\GUI\Navigation Buttons\Xbox\Dark\png\128px\rstick_updown.png"
       y="159.76453"
       x="175.63931"
       height="33.866665"
       width="33.866665"
       id="rect849"
       style="opacity:0.999;fill:#cccccc;fill-opacity:1;stroke-width:2.78732;stroke-linecap:round;paint-order:fill markers stroke" />
    <g
       aria-label="R"
       id="g853"
       style="font-weight:bold;font-size:2.64583px;line-height:1.05;font-family:'Overlock SC';-inkscape-font-specification:'Overlock SC Bold';text-align:end;text-anchor:end;fill:#ffffff;fill-opacity:1;stroke:#ffffff;stroke-width:0.905997;stroke-linecap:round;stroke-miterlimit:4;stroke-dasharray:none;stroke-opacity:1;paint-order:markers stroke fill"
       transform="matrix(4,0,0,4,-403.49651,-479.29359)">
      <path
         d="m 149.35994,164.65269 q 0.0688,0.0767 0.16934,0.0767 0.0317,0 0.0714,-0.008 0.0238,0.0476 0.0238,0.0794 0,0.10054 -0.19844,0.10054 -0.0503,0 -0.10054,-0.0238 -0.0503,-0.0238 -0.10054,-0.082 -0.0503,-0.0582 -0.0873,-0.10318 -0.0344,-0.045 -0.0873,-0.14023 -0.0503,-0.0953 -0.0714,-0.13494 -0.0212,-0.0423 -0.0714,-0.15081 -0.0503,-0.11113 -0.0582,-0.127 -0.0741,-0.0106 -0.0741,-0.0582 0,-0.0238 0.0132,-0.0714 0.0741,0.0132 0.12436,0.0132 0.17727,0 0.27781,-0.10319 0.10054,-0.10583 0.10054,-0.28575 0,-0.21166 -0.11112,-0.29368 -0.11113,-0.0847 -0.34132,-0.0847 -0.0847,0 -0.20637,0.0106 0.0106,0.15346 0.0106,0.53975 v 0.53182 q 0,0.35718 0.0503,0.52387 -0.0476,0.0212 -0.12435,0.0212 -0.0767,0 -0.10319,-0.0344 -0.0265,-0.0344 -0.0265,-0.11642 0,-0.0423 0.003,-0.20902 0.003,-0.16668 0.003,-0.25929 v -0.52916 q 0,-0.36513 -0.0344,-0.60854 0.19579,-0.0317 0.39423,-0.0317 0.70908,0 0.70908,0.52652 0,0.21695 -0.11906,0.35189 -0.11906,0.13229 -0.31485,0.16933 0,0.003 0.045,0.0979 0.045,0.0953 0.0609,0.127 0.0185,0.0317 0.0556,0.10319 0.037,0.0714 0.0635,0.11377 0.0291,0.0423 0.0556,0.0688 z"
         style="font-size:2.64583px;fill:#ffffff;fill-opacity:1;stroke:none;stroke-width:0.905997"
         id="path851" />
    </g>
    <path
       id="path855"
       style="fill:#ffffff;fill-opacity:1;stroke:none;stroke-width:1.104;stroke-linecap:round;stroke-miterlimit:4;stroke-dasharray:none;stroke-opacity:1;paint-order:markers stroke fill"
       inkscape:transform-center-x="4.3664397e-05"
       inkscape:transform-center-y="0.73809019"
       d="m 195.17485,183.05689 h -2.60216 -2.60216 l 1.30108,2.2144 1.30108,2.21436 1.30108,-2.21436 z" />
    <path
       id="path857"
       style="fill:#ffffff;fill-opacity:1;stroke:none;stroke-width:1.104;stroke-linecap:round;stroke-miterlimit:4;stroke-dasharray:none;stroke-opacity:1;paint-order:markers stroke fill"
       inkscape:transform-center-x="4.3664397e-05"
       inkscape:transform-center-y="-0.73812133"
       d="m 195.17485,170.54005 h -2.60216 -2.60216 l 1.30108,-2.2144 1.30108,-2.21436 1.30108,2.21436 z" />
    <path
       id="path859"
       style="fill:none;fill-opacity:1;stroke:#676767;stroke-width:1.104;stroke-linecap:round;stroke-miterlimit:4;stroke-dasharray:none;stroke-dashoffset:0;stroke-opacity:1;paint-order:fill markers stroke"
       d="m 188.25401,184.17821 c -3.38552,-1.95464 -5.03612,-5.93952 -4.02432,-9.7156 0.60876,-2.27188 2.08992,-4.12736 4.02476,-5.24508 m 8.63864,10e-4 c 1.93376,1.11784 3.414,2.97276 4.02252,5.24376 1.0118,3.77608 -0.6388,7.76096 -4.02432,9.7156"
       sodipodi:nodetypes="csccsc" />
    <rect
       inkscape:export-ydpi="96"
       inkscape:export-xdpi="96"
       inkscape:export-filename="D:\Calcatz\Icon Pack\Adventure Narative Inspired by Arrival\GUI\Navigation Buttons\Xbox\Dark\png\256px\rstick_updown.png"
       style="opacity:0.999;fill:#cccccc;fill-opacity:1;stroke-width:5.57464;stroke-linecap:round;paint-order:fill markers stroke"
       id="rect861"
       width="67.73333"
       height="67.73333"
       x="214.5417"
       y="159.76453" />
    <g
       transform="matrix(8,0,0,8,-943.72996,-1118.3517)"
       style="font-weight:bold;font-size:2.64583px;line-height:1.05;font-family:'Overlock SC';-inkscape-font-specification:'Overlock SC Bold';text-align:end;text-anchor:end;fill:#ffffff;fill-opacity:1;stroke:#ffffff;stroke-width:0.905997;stroke-linecap:round;stroke-miterlimit:4;stroke-dasharray:none;stroke-opacity:1;paint-order:markers stroke fill"
       id="g865"
       aria-label="R">
      <path
         id="path863"
         style="font-size:2.64583px;fill:#ffffff;fill-opacity:1;stroke:none;stroke-width:0.905997"
         d="m 149.35994,164.65269 q 0.0688,0.0767 0.16934,0.0767 0.0317,0 0.0714,-0.008 0.0238,0.0476 0.0238,0.0794 0,0.10054 -0.19844,0.10054 -0.0503,0 -0.10054,-0.0238 -0.0503,-0.0238 -0.10054,-0.082 -0.0503,-0.0582 -0.0873,-0.10318 -0.0344,-0.045 -0.0873,-0.14023 -0.0503,-0.0953 -0.0714,-0.13494 -0.0212,-0.0423 -0.0714,-0.15081 -0.0503,-0.11113 -0.0582,-0.127 -0.0741,-0.0106 -0.0741,-0.0582 0,-0.0238 0.0132,-0.0714 0.0741,0.0132 0.12436,0.0132 0.17727,0 0.27781,-0.10319 0.10054,-0.10583 0.10054,-0.28575 0,-0.21166 -0.11112,-0.29368 -0.11113,-0.0847 -0.34132,-0.0847 -0.0847,0 -0.20637,0.0106 0.0106,0.15346 0.0106,0.53975 v 0.53182 q 0,0.35718 0.0503,0.52387 -0.0476,0.0212 -0.12435,0.0212 -0.0767,0 -0.10319,-0.0344 -0.0265,-0.0344 -0.0265,-0.11642 0,-0.0423 0.003,-0.20902 0.003,-0.16668 0.003,-0.25929 v -0.52916 q 0,-0.36513 -0.0344,-0.60854 0.19579,-0.0317 0.39423,-0.0317 0.70908,0 0.70908,0.52652 0,0.21695 -0.11906,0.35189 -0.11906,0.13229 -0.31485,0.16933 0,0.003 0.045,0.0979 0.045,0.0953 0.0609,0.127 0.0185,0.0317 0.0556,0.10319 0.037,0.0714 0.0635,0.11377 0.0291,0.0423 0.0556,0.0688 z" />
    </g>
    <path
       d="m 253.61276,206.34925 h -5.20432 -5.20432 l 2.60216,4.4288 2.60216,4.42872 2.60216,-4.42872 z"
       inkscape:transform-center-y="1.4761767"
       inkscape:transform-center-x="8.5058286e-05"
       style="fill:#ffffff;fill-opacity:1;stroke:none;stroke-width:2.208;stroke-linecap:round;stroke-miterlimit:4;stroke-dasharray:none;stroke-opacity:1;paint-order:markers stroke fill"
       id="path867" />
    <path
       d="m 253.61276,181.31557 h -5.20432 -5.20432 l 2.60216,-4.4288 2.60216,-4.42872 2.60216,4.42872 z"
       inkscape:transform-center-y="-1.4762463"
       inkscape:transform-center-x="8.5058286e-05"
       style="fill:#ffffff;fill-opacity:1;stroke:none;stroke-width:2.208;stroke-linecap:round;stroke-miterlimit:4;stroke-dasharray:none;stroke-opacity:1;paint-order:markers stroke fill"
       id="path869" />
    <path
       sodipodi:nodetypes="csccsc"
       d="m 239.77108,208.59189 c -6.77104,-3.90928 -10.07224,-11.87904 -8.04864,-19.4312 1.21752,-4.54376 4.17984,-8.25472 8.04952,-10.49016 m 17.27728,0.002 c 3.86752,2.23568 6.828,5.94552 8.04504,10.48752 2.0236,7.55216 -1.2776,15.52192 -8.04864,19.4312"
       style="fill:none;fill-opacity:1;stroke:#676767;stroke-width:2.208;stroke-linecap:round;stroke-miterlimit:4;stroke-dasharray:none;stroke-dashoffset:0;stroke-opacity:1;paint-order:fill markers stroke"
       id="path871" />
  </g>
</svg>
