<?xml version="1.0" encoding="UTF-8" standalone="no"?>
<svg
   xmlns:dc="http://purl.org/dc/elements/1.1/"
   xmlns:cc="http://creativecommons.org/ns#"
   xmlns:rdf="http://www.w3.org/1999/02/22-rdf-syntax-ns#"
   xmlns:svg="http://www.w3.org/2000/svg"
   xmlns="http://www.w3.org/2000/svg"
   xmlns:sodipodi="http://sodipodi.sourceforge.net/DTD/sodipodi-0.dtd"
   xmlns:inkscape="http://www.inkscape.org/namespaces/inkscape"
   width="31.999998"
   height="31.999998"
   viewBox="0 0 8.4666662 8.4666662"
   version="1.1"
   id="svg6670"
   inkscape:version="1.0 (4035a4fb49, 2020-05-01)"
   sodipodi:docname="rstick_left.svg"
   inkscape:export-filename="D:\Calcatz\Icon Pack\Adventure Narative Inspired by Arrival\GUI\Navigation Buttons\Xbox\Dark\png\rstick_left.png"
   inkscape:export-xdpi="96"
   inkscape:export-ydpi="96">
  <defs
     id="defs6664" />
  <sodipodi:namedview
     units="px"
     id="base"
     pagecolor="#ffffff"
     bordercolor="#666666"
     borderopacity="1.0"
     inkscape:pageopacity="0.0"
     inkscape:pageshadow="2"
     inkscape:zoom="0.59152945"
     inkscape:cx="376.24554"
     inkscape:cy="278.29833"
     inkscape:document-units="mm"
     inkscape:current-layer="layer1"
     inkscape:document-rotation="0"
     showgrid="false"
     fit-margin-top="0"
     fit-margin-left="0"
     fit-margin-right="0"
     fit-margin-bottom="0"
     inkscape:window-width="1366"
     inkscape:window-height="705"
     inkscape:window-x="-8"
     inkscape:window-y="-8"
     inkscape:window-maximized="1" />
  <metadata
     id="metadata6667">
    <rdf:RDF>
      <cc:Work
         rdf:about="">
        <dc:format>image/svg+xml</dc:format>
        <dc:type
           rdf:resource="http://purl.org/dc/dcmitype/StillImage" />
        <dc:title />
      </cc:Work>
    </rdf:RDF>
  </metadata>
  <g
     inkscape:label="Layer 1"
     inkscape:groupmode="layer"
     id="layer1"
     transform="translate(-104.57294,-174.7451)">
    <rect
       y="174.7451"
       x="104.57294"
       height="8.4666662"
       width="8.4666662"
       id="rect834"
       style="fill:#cccccc;fill-opacity:1;stroke-width:0.271339;stroke-linecap:round;paint-order:fill markers stroke" />
    <g
       aria-label="R"
       id="text3165"
       style="font-weight:bold;font-size:2.64583px;line-height:1.05;font-family:'Overlock SC';-inkscape-font-specification:'Overlock SC Bold';text-align:end;text-anchor:end;fill:#ffffff;fill-opacity:1;stroke:#ffffff;stroke-width:0.905997;stroke-linecap:round;stroke-miterlimit:4;stroke-dasharray:none;stroke-opacity:1;paint-order:markers stroke fill">
      <path
         d="m 109.14892,179.63326 q 0.0688,0.0767 0.16933,0.0767 0.0317,0 0.0714,-0.008 0.0238,0.0476 0.0238,0.0794 0,0.10054 -0.19843,0.10054 -0.0503,0 -0.10054,-0.0238 -0.0503,-0.0238 -0.10055,-0.082 -0.0503,-0.0582 -0.0873,-0.10319 -0.0344,-0.045 -0.0873,-0.14023 -0.0503,-0.0953 -0.0714,-0.13493 -0.0212,-0.0423 -0.0714,-0.15082 -0.0503,-0.11112 -0.0582,-0.127 -0.0741,-0.0106 -0.0741,-0.0582 0,-0.0238 0.0132,-0.0714 0.0741,0.0132 0.12436,0.0132 0.17727,0 0.27781,-0.10319 0.10054,-0.10583 0.10054,-0.28575 0,-0.21167 -0.11112,-0.29369 -0.11113,-0.0847 -0.34132,-0.0847 -0.0847,0 -0.20637,0.0106 0.0106,0.15346 0.0106,0.53975 v 0.53181 q 0,0.35719 0.0503,0.52388 -0.0476,0.0212 -0.12435,0.0212 -0.0767,0 -0.10319,-0.0344 -0.0265,-0.0344 -0.0265,-0.11642 0,-0.0423 0.003,-0.20902 0.003,-0.16669 0.003,-0.25929 v -0.52917 q 0,-0.36512 -0.0344,-0.60854 0.19579,-0.0317 0.39423,-0.0317 0.70908,0 0.70908,0.52652 0,0.21696 -0.11906,0.3519 -0.11906,0.13229 -0.31486,0.16933 0,0.003 0.045,0.0979 0.045,0.0952 0.0609,0.127 0.0185,0.0317 0.0556,0.10318 0.037,0.0714 0.0635,0.11377 0.0291,0.0423 0.0556,0.0688 z"
         style="font-size:2.64583px;fill:#ffffff;fill-opacity:1;stroke:none;stroke-width:0.905997"
         id="path7266" />
    </g>
    <path
       id="path3169"
       style="fill:#ffffff;fill-opacity:1;stroke:none;stroke-width:0.276;stroke-linecap:round;stroke-miterlimit:4;stroke-dasharray:none;stroke-opacity:1;paint-order:markers stroke fill"
       inkscape:transform-center-x="0.18452804"
       inkscape:transform-center-y="-8.8886874e-06"
       d="m 107.15125,179.65199 v -0.65054 -0.65054 l -0.5536,0.32527 -0.55359,0.32527 0.55359,0.32527 z" />
    <path
       id="path1575"
       style="fill:none;fill-opacity:1;stroke:#676767;stroke-width:0.276;stroke-linecap:round;stroke-miterlimit:4;stroke-dasharray:none;stroke-dashoffset:0;stroke-opacity:1;paint-order:fill markers stroke"
       d="m 106.93626,177.89878 a 2.1593168,2.1593168 0 0 1 2.42889,-1.00608 2.1593168,2.1593168 0 0 1 1.60045,2.08574 2.1593168,2.1593168 0 0 1 -1.60045,2.08574 2.1593168,2.1593168 0 0 1 -2.42889,-1.00608" />
    <rect
       inkscape:export-ydpi="96"
       inkscape:export-xdpi="96"
       inkscape:export-filename="D:\Calcatz\Icon Pack\Adventure Narative Inspired by Arrival\GUI\Navigation Buttons\Xbox\Dark\png\64px\rstick_left.png"
       style="fill:#cccccc;fill-opacity:1;stroke-width:0.542678;stroke-linecap:round;paint-order:fill markers stroke"
       id="rect836"
       width="16.933332"
       height="16.933332"
       x="115.53146"
       y="174.7451" />
    <g
       transform="matrix(2,0,0,2,-93.61441,-174.7451)"
       style="font-weight:bold;font-size:2.64583px;line-height:1.05;font-family:'Overlock SC';-inkscape-font-specification:'Overlock SC Bold';text-align:end;text-anchor:end;fill:#ffffff;fill-opacity:1;stroke:#ffffff;stroke-width:0.905997;stroke-linecap:round;stroke-miterlimit:4;stroke-dasharray:none;stroke-opacity:1;paint-order:markers stroke fill"
       id="g840"
       aria-label="R">
      <path
         id="path838"
         style="font-size:2.64583px;fill:#ffffff;fill-opacity:1;stroke:none;stroke-width:0.905997"
         d="m 109.14892,179.63326 q 0.0688,0.0767 0.16933,0.0767 0.0317,0 0.0714,-0.008 0.0238,0.0476 0.0238,0.0794 0,0.10054 -0.19843,0.10054 -0.0503,0 -0.10054,-0.0238 -0.0503,-0.0238 -0.10055,-0.082 -0.0503,-0.0582 -0.0873,-0.10319 -0.0344,-0.045 -0.0873,-0.14023 -0.0503,-0.0953 -0.0714,-0.13493 -0.0212,-0.0423 -0.0714,-0.15082 -0.0503,-0.11112 -0.0582,-0.127 -0.0741,-0.0106 -0.0741,-0.0582 0,-0.0238 0.0132,-0.0714 0.0741,0.0132 0.12436,0.0132 0.17727,0 0.27781,-0.10319 0.10054,-0.10583 0.10054,-0.28575 0,-0.21167 -0.11112,-0.29369 -0.11113,-0.0847 -0.34132,-0.0847 -0.0847,0 -0.20637,0.0106 0.0106,0.15346 0.0106,0.53975 v 0.53181 q 0,0.35719 0.0503,0.52388 -0.0476,0.0212 -0.12435,0.0212 -0.0767,0 -0.10319,-0.0344 -0.0265,-0.0344 -0.0265,-0.11642 0,-0.0423 0.003,-0.20902 0.003,-0.16669 0.003,-0.25929 v -0.52917 q 0,-0.36512 -0.0344,-0.60854 0.19579,-0.0317 0.39423,-0.0317 0.70908,0 0.70908,0.52652 0,0.21696 -0.11906,0.3519 -0.11906,0.13229 -0.31486,0.16933 0,0.003 0.045,0.0979 0.045,0.0952 0.0609,0.127 0.0185,0.0317 0.0556,0.10318 0.037,0.0714 0.0635,0.11377 0.0291,0.0423 0.0556,0.0688 z" />
    </g>
    <path
       d="m 120.6881,184.55888 v -1.30108 -1.30108 l -1.1072,0.65054 -1.10718,0.65054 1.10718,0.65054 z"
       inkscape:transform-center-y="-1.5848664e-05"
       inkscape:transform-center-x="0.36905246"
       style="fill:#ffffff;fill-opacity:1;stroke:none;stroke-width:0.552;stroke-linecap:round;stroke-miterlimit:4;stroke-dasharray:none;stroke-opacity:1;paint-order:markers stroke fill"
       id="path842" />
    <path
       d="m 120.25812,181.05246 a 4.3186336,4.3186336 0 0 1 4.85778,-2.01216 4.3186336,4.3186336 0 0 1 3.2009,4.17148 4.3186336,4.3186336 0 0 1 -3.2009,4.17148 4.3186336,4.3186336 0 0 1 -4.85778,-2.01216"
       style="fill:none;fill-opacity:1;stroke:#676767;stroke-width:0.552;stroke-linecap:round;stroke-miterlimit:4;stroke-dasharray:none;stroke-dashoffset:0;stroke-opacity:1;paint-order:fill markers stroke"
       id="path844" />
    <rect
       inkscape:export-ydpi="96"
       inkscape:export-xdpi="96"
       inkscape:export-filename="D:\Calcatz\Icon Pack\Adventure Narative Inspired by Arrival\GUI\Navigation Buttons\Xbox\Dark\png\128px\rstick_left.png"
       y="174.7451"
       x="137.03847"
       height="33.866665"
       width="33.866665"
       id="rect846"
       style="fill:#cccccc;fill-opacity:1;stroke-width:1.08536;stroke-linecap:round;paint-order:fill markers stroke" />
    <g
       aria-label="R"
       id="g850"
       style="font-weight:bold;font-size:2.64583px;line-height:1.05;font-family:'Overlock SC';-inkscape-font-specification:'Overlock SC Bold';text-align:end;text-anchor:end;fill:#ffffff;fill-opacity:1;stroke:#ffffff;stroke-width:0.905997;stroke-linecap:round;stroke-miterlimit:4;stroke-dasharray:none;stroke-opacity:1;paint-order:markers stroke fill"
       transform="matrix(4,0,0,4,-281.25327,-524.2353)">
      <path
         d="m 109.14892,179.63326 q 0.0688,0.0767 0.16933,0.0767 0.0317,0 0.0714,-0.008 0.0238,0.0476 0.0238,0.0794 0,0.10054 -0.19843,0.10054 -0.0503,0 -0.10054,-0.0238 -0.0503,-0.0238 -0.10055,-0.082 -0.0503,-0.0582 -0.0873,-0.10319 -0.0344,-0.045 -0.0873,-0.14023 -0.0503,-0.0953 -0.0714,-0.13493 -0.0212,-0.0423 -0.0714,-0.15082 -0.0503,-0.11112 -0.0582,-0.127 -0.0741,-0.0106 -0.0741,-0.0582 0,-0.0238 0.0132,-0.0714 0.0741,0.0132 0.12436,0.0132 0.17727,0 0.27781,-0.10319 0.10054,-0.10583 0.10054,-0.28575 0,-0.21167 -0.11112,-0.29369 -0.11113,-0.0847 -0.34132,-0.0847 -0.0847,0 -0.20637,0.0106 0.0106,0.15346 0.0106,0.53975 v 0.53181 q 0,0.35719 0.0503,0.52388 -0.0476,0.0212 -0.12435,0.0212 -0.0767,0 -0.10319,-0.0344 -0.0265,-0.0344 -0.0265,-0.11642 0,-0.0423 0.003,-0.20902 0.003,-0.16669 0.003,-0.25929 v -0.52917 q 0,-0.36512 -0.0344,-0.60854 0.19579,-0.0317 0.39423,-0.0317 0.70908,0 0.70908,0.52652 0,0.21696 -0.11906,0.3519 -0.11906,0.13229 -0.31486,0.16933 0,0.003 0.045,0.0979 0.045,0.0952 0.0609,0.127 0.0185,0.0317 0.0556,0.10318 0.037,0.0714 0.0635,0.11377 0.0291,0.0423 0.0556,0.0688 z"
         style="font-size:2.64583px;fill:#ffffff;fill-opacity:1;stroke:none;stroke-width:0.905997"
         id="path848" />
    </g>
    <path
       id="path852"
       style="fill:#ffffff;fill-opacity:1;stroke:none;stroke-width:1.104;stroke-linecap:round;stroke-miterlimit:4;stroke-dasharray:none;stroke-opacity:1;paint-order:markers stroke fill"
       inkscape:transform-center-x="0.73810751"
       inkscape:transform-center-y="-2.9768617e-05"
       d="m 147.35175,194.37266 v -2.60216 -2.60216 l -2.2144,1.30108 -2.21436,1.30108 2.21436,1.30108 z" />
    <path
       id="path854"
       style="fill:none;fill-opacity:1;stroke:#676767;stroke-width:1.104;stroke-linecap:round;stroke-miterlimit:4;stroke-dasharray:none;stroke-dashoffset:0;stroke-opacity:1;paint-order:fill markers stroke"
       d="m 146.49179,187.35982 a 8.6372672,8.6372672 0 0 1 9.71556,-4.02432 8.6372672,8.6372672 0 0 1 6.4018,8.34296 8.6372672,8.6372672 0 0 1 -6.4018,8.34296 8.6372672,8.6372672 0 0 1 -9.71556,-4.02432" />
    <rect
       inkscape:export-ydpi="96"
       inkscape:export-xdpi="96"
       inkscape:export-filename="D:\Calcatz\Icon Pack\Adventure Narative Inspired by Arrival\GUI\Navigation Buttons\Xbox\Dark\png\256px\rstick_left.png"
       style="fill:#cccccc;fill-opacity:1;stroke-width:2.17072;stroke-linecap:round;paint-order:fill markers stroke"
       id="rect856"
       width="67.73333"
       height="67.73333"
       x="175.15015"
       y="174.7451" />
    <g
       transform="matrix(8,0,0,8,-661.43331,-1223.2157)"
       style="font-weight:bold;font-size:2.64583px;line-height:1.05;font-family:'Overlock SC';-inkscape-font-specification:'Overlock SC Bold';text-align:end;text-anchor:end;fill:#ffffff;fill-opacity:1;stroke:#ffffff;stroke-width:0.905997;stroke-linecap:round;stroke-miterlimit:4;stroke-dasharray:none;stroke-opacity:1;paint-order:markers stroke fill"
       id="g860"
       aria-label="R">
      <path
         id="path858"
         style="font-size:2.64583px;fill:#ffffff;fill-opacity:1;stroke:none;stroke-width:0.905997"
         d="m 109.14892,179.63326 q 0.0688,0.0767 0.16933,0.0767 0.0317,0 0.0714,-0.008 0.0238,0.0476 0.0238,0.0794 0,0.10054 -0.19843,0.10054 -0.0503,0 -0.10054,-0.0238 -0.0503,-0.0238 -0.10055,-0.082 -0.0503,-0.0582 -0.0873,-0.10319 -0.0344,-0.045 -0.0873,-0.14023 -0.0503,-0.0953 -0.0714,-0.13493 -0.0212,-0.0423 -0.0714,-0.15082 -0.0503,-0.11112 -0.0582,-0.127 -0.0741,-0.0106 -0.0741,-0.0582 0,-0.0238 0.0132,-0.0714 0.0741,0.0132 0.12436,0.0132 0.17727,0 0.27781,-0.10319 0.10054,-0.10583 0.10054,-0.28575 0,-0.21167 -0.11112,-0.29369 -0.11113,-0.0847 -0.34132,-0.0847 -0.0847,0 -0.20637,0.0106 0.0106,0.15346 0.0106,0.53975 v 0.53181 q 0,0.35719 0.0503,0.52388 -0.0476,0.0212 -0.12435,0.0212 -0.0767,0 -0.10319,-0.0344 -0.0265,-0.0344 -0.0265,-0.11642 0,-0.0423 0.003,-0.20902 0.003,-0.16669 0.003,-0.25929 v -0.52917 q 0,-0.36512 -0.0344,-0.60854 0.19579,-0.0317 0.39423,-0.0317 0.70908,0 0.70908,0.52652 0,0.21696 -0.11906,0.3519 -0.11906,0.13229 -0.31486,0.16933 0,0.003 0.045,0.0979 0.045,0.0952 0.0609,0.127 0.0185,0.0317 0.0556,0.10318 0.037,0.0714 0.0635,0.11377 0.0291,0.0423 0.0556,0.0688 z" />
    </g>
    <path
       d="m 195.77673,214.00022 v -5.20432 -5.20432 l -4.4288,2.60216 -4.42872,2.60216 4.42872,2.60216 z"
       inkscape:transform-center-y="-5.7608523e-05"
       inkscape:transform-center-x="1.4762185"
       style="fill:#ffffff;fill-opacity:1;stroke:none;stroke-width:2.208;stroke-linecap:round;stroke-miterlimit:4;stroke-dasharray:none;stroke-opacity:1;paint-order:markers stroke fill"
       id="path862" />
    <path
       d="m 194.05681,199.97454 a 17.274534,17.274534 0 0 1 19.43112,-8.04864 17.274534,17.274534 0 0 1 12.8036,16.68592 17.274534,17.274534 0 0 1 -12.8036,16.68592 17.274534,17.274534 0 0 1 -19.43112,-8.04864"
       style="fill:none;fill-opacity:1;stroke:#676767;stroke-width:2.208;stroke-linecap:round;stroke-miterlimit:4;stroke-dasharray:none;stroke-dashoffset:0;stroke-opacity:1;paint-order:fill markers stroke"
       id="path864" />
  </g>
</svg>
