<?xml version="1.0" encoding="UTF-8" standalone="no"?>
<svg
   xmlns:dc="http://purl.org/dc/elements/1.1/"
   xmlns:cc="http://creativecommons.org/ns#"
   xmlns:rdf="http://www.w3.org/1999/02/22-rdf-syntax-ns#"
   xmlns:svg="http://www.w3.org/2000/svg"
   xmlns="http://www.w3.org/2000/svg"
   xmlns:sodipodi="http://sodipodi.sourceforge.net/DTD/sodipodi-0.dtd"
   xmlns:inkscape="http://www.inkscape.org/namespaces/inkscape"
   width="31.999998"
   height="31.999998"
   viewBox="0 0 8.4666662 8.4666662"
   version="1.1"
   id="svg7276"
   inkscape:version="1.0 (4035a4fb49, 2020-05-01)"
   sodipodi:docname="rstick_all.svg"
   inkscape:export-filename="D:\Calcatz\Icon Pack\Adventure Narative Inspired by Arrival\GUI\Navigation Buttons\Xbox\Dark\png\rstick_all.png"
   inkscape:export-xdpi="96"
   inkscape:export-ydpi="96">
  <defs
     id="defs7270" />
  <sodipodi:namedview
     units="px"
     id="base"
     pagecolor="#ffffff"
     bordercolor="#666666"
     borderopacity="1.0"
     inkscape:pageopacity="0.0"
     inkscape:pageshadow="2"
     inkscape:zoom="1.1830589"
     inkscape:cx="318.58338"
     inkscape:cy="158.5455"
     inkscape:document-units="mm"
     inkscape:current-layer="layer1"
     inkscape:document-rotation="0"
     showgrid="false"
     fit-margin-top="0"
     fit-margin-left="0"
     fit-margin-right="0"
     fit-margin-bottom="0"
     inkscape:window-width="1366"
     inkscape:window-height="705"
     inkscape:window-x="-8"
     inkscape:window-y="-8"
     inkscape:window-maximized="1" />
  <metadata
     id="metadata7273">
    <rdf:RDF>
      <cc:Work
         rdf:about="">
        <dc:format>image/svg+xml</dc:format>
        <dc:type
           rdf:resource="http://purl.org/dc/dcmitype/StillImage" />
        <dc:title />
      </cc:Work>
    </rdf:RDF>
  </metadata>
  <g
     inkscape:label="Layer 1"
     inkscape:groupmode="layer"
     id="layer1"
     transform="translate(-112.45745,-148.72621)">
    <rect
       y="148.72621"
       x="112.45745"
       height="8.4666662"
       width="8.4666662"
       id="rect837"
       style="fill:#cccccc;fill-opacity:1;stroke-width:0.492362;stroke-linecap:round;paint-order:fill markers stroke" />
    <path
       id="path5439"
       style="fill:#ffffff;fill-opacity:1;stroke:none;stroke-width:0.176;stroke-linecap:round;stroke-miterlimit:4;stroke-dasharray:none;stroke-opacity:1;paint-order:markers stroke fill"
       inkscape:transform-center-x="9.9297713e-06"
       inkscape:transform-center-y="0.18452527"
       d="m 117.34129,154.5493 h -0.65054 -0.65054 l 0.32527,0.5536 0.32527,0.55359 0.32527,-0.55359 z" />
    <path
       id="path5445"
       style="fill:#ffffff;fill-opacity:1;stroke:none;stroke-width:0.176;stroke-linecap:round;stroke-miterlimit:4;stroke-dasharray:none;stroke-opacity:1;paint-order:markers stroke fill"
       inkscape:transform-center-x="9.9297713e-06"
       inkscape:transform-center-y="-0.18452761"
       d="m 117.34129,151.42009 h -0.65054 -0.65054 l 0.32527,-0.5536 0.32527,-0.55359 0.32527,0.55359 z" />
    <path
       id="path5447"
       style="fill:#ffffff;fill-opacity:1;stroke:none;stroke-width:0.176;stroke-linecap:round;stroke-miterlimit:4;stroke-dasharray:none;stroke-opacity:1;paint-order:markers stroke fill"
       inkscape:transform-center-x="0.18452615"
       inkscape:transform-center-y="-9.047805e-06"
       d="m 115.08211,153.6101 v -0.65054 -0.65054 l -0.5536,0.32527 -0.55359,0.32527 0.55359,0.32527 z" />
    <path
       sodipodi:nodetypes="cccccccc"
       d="m 118.56135,154.03896 c -0.18976,0.32815 -0.46339,0.60172 -0.79158,0.79142 m -2.15966,-9.5e-4 c -0.32697,-0.18938 -0.59966,-0.46205 -0.78907,-0.78898 m 0,-2.16178 c 0.18932,-0.32677 0.46184,-0.59933 0.78859,-0.78868 m 2.15971,-0.001 c 0.3291,0.19012 0.60337,0.46457 0.79326,0.79382"
       style="fill:none;fill-opacity:1;stroke:#676767;stroke-width:0.276;stroke-linecap:round;stroke-miterlimit:4;stroke-dasharray:none;stroke-dashoffset:0;stroke-opacity:1;paint-order:fill markers stroke"
       id="path5449" />
    <path
       id="path5451"
       style="fill:#ffffff;fill-opacity:1;stroke:none;stroke-width:0.176;stroke-linecap:round;stroke-miterlimit:4;stroke-dasharray:none;stroke-opacity:1;paint-order:markers stroke fill"
       inkscape:transform-center-x="-0.18452673"
       inkscape:transform-center-y="-9.047805e-06"
       d="m 118.21133,153.6101 v -0.65054 -0.65054 l 0.5536,0.32527 0.55359,0.32527 -0.55359,0.32527 z" />
    <g
       aria-label="R"
       id="text5455"
       style="font-weight:bold;font-size:2.64583px;line-height:1.05;font-family:'Overlock SC';-inkscape-font-specification:'Overlock SC Bold';text-align:end;text-anchor:end;fill:#ffffff;fill-opacity:1;stroke:#ffffff;stroke-width:0.905997;stroke-linecap:round;stroke-miterlimit:4;stroke-dasharray:none;stroke-opacity:1;paint-order:markers stroke fill">
      <path
         d="m 117.03344,153.61437 q 0.0688,0.0767 0.16933,0.0767 0.0318,0 0.0714,-0.008 0.0238,0.0476 0.0238,0.0794 0,0.10054 -0.19844,0.10054 -0.0503,0 -0.10054,-0.0238 -0.0503,-0.0238 -0.10054,-0.082 -0.0503,-0.0582 -0.0873,-0.10319 -0.0344,-0.045 -0.0873,-0.14023 -0.0503,-0.0953 -0.0714,-0.13493 -0.0212,-0.0423 -0.0714,-0.15082 -0.0503,-0.11112 -0.0582,-0.127 -0.0741,-0.0106 -0.0741,-0.0582 0,-0.0238 0.0132,-0.0714 0.0741,0.0132 0.12435,0.0132 0.17727,0 0.27781,-0.10319 0.10054,-0.10583 0.10054,-0.28575 0,-0.21167 -0.11112,-0.29369 -0.11113,-0.0847 -0.34131,-0.0847 -0.0847,0 -0.20638,0.0106 0.0106,0.15346 0.0106,0.53975 v 0.53181 q 0,0.35719 0.0503,0.52387 -0.0476,0.0212 -0.12436,0.0212 -0.0767,0 -0.10319,-0.0344 -0.0264,-0.0344 -0.0264,-0.11642 0,-0.0423 0.003,-0.20902 0.003,-0.16669 0.003,-0.25929 v -0.52917 q 0,-0.36512 -0.0344,-0.60854 0.19579,-0.0317 0.39423,-0.0317 0.70908,0 0.70908,0.52652 0,0.21696 -0.11906,0.3519 -0.11906,0.13229 -0.31485,0.16933 0,0.003 0.045,0.0979 0.045,0.0953 0.0609,0.127 0.0185,0.0317 0.0556,0.10319 0.037,0.0714 0.0635,0.11377 0.0291,0.0423 0.0556,0.0688 z"
         style="font-size:2.64583px;fill:#ffffff;fill-opacity:1;stroke:none;stroke-width:0.905997"
         id="path7884" />
    </g>
    <rect
       inkscape:export-ydpi="96"
       inkscape:export-xdpi="96"
       inkscape:export-filename="D:\Calcatz\Icon Pack\Adventure Narative Inspired by Arrival\GUI\Navigation Buttons\Xbox\Dark\png\64px\rstick_all.png"
       style="fill:#cccccc;fill-opacity:1;stroke-width:0.984724;stroke-linecap:round;paint-order:fill markers stroke"
       id="rect839"
       width="16.933332"
       height="16.933332"
       x="123.41598"
       y="148.72621" />
    <path
       d="m 133.18366,160.37239 h -1.30108 -1.30108 l 0.65054,1.1072 0.65054,1.10718 0.65054,-1.10718 z"
       inkscape:transform-center-y="0.36905209"
       inkscape:transform-center-x="2.2381515e-05"
       style="fill:#ffffff;fill-opacity:1;stroke:none;stroke-width:0.352;stroke-linecap:round;stroke-miterlimit:4;stroke-dasharray:none;stroke-opacity:1;paint-order:markers stroke fill"
       id="path841" />
    <path
       d="m 133.18366,154.11397 h -1.30108 -1.30108 l 0.65054,-1.1072 0.65054,-1.10718 0.65054,1.10718 z"
       inkscape:transform-center-y="-0.36905367"
       inkscape:transform-center-x="2.2381515e-05"
       style="fill:#ffffff;fill-opacity:1;stroke:none;stroke-width:0.352;stroke-linecap:round;stroke-miterlimit:4;stroke-dasharray:none;stroke-opacity:1;paint-order:markers stroke fill"
       id="path843" />
    <path
       d="m 128.6653,158.49399 v -1.30108 -1.30108 l -1.1072,0.65054 -1.10718,0.65054 1.10718,0.65054 z"
       inkscape:transform-center-y="-1.6547758e-05"
       inkscape:transform-center-x="0.36905482"
       style="fill:#ffffff;fill-opacity:1;stroke:none;stroke-width:0.352;stroke-linecap:round;stroke-miterlimit:4;stroke-dasharray:none;stroke-opacity:1;paint-order:markers stroke fill"
       id="path845" />
    <path
       id="path847"
       style="fill:none;fill-opacity:1;stroke:#676767;stroke-width:0.552;stroke-linecap:round;stroke-miterlimit:4;stroke-dasharray:none;stroke-dashoffset:0;stroke-opacity:1;paint-order:fill markers stroke"
       d="m 135.62378,159.35171 c -0.37952,0.6563 -0.92678,1.20344 -1.58316,1.58284 m -4.31932,-0.002 c -0.65394,-0.37876 -1.19932,-0.9241 -1.57814,-1.57796 m 0,-4.32356 c 0.37864,-0.65354 0.92368,-1.19866 1.57718,-1.57736 m 4.31942,-0.002 c 0.6582,0.38024 1.20674,0.92914 1.58652,1.58764"
       sodipodi:nodetypes="cccccccc" />
    <path
       d="m 134.92374,158.49399 v -1.30108 -1.30108 l 1.1072,0.65054 1.10718,0.65054 -1.10718,0.65054 z"
       inkscape:transform-center-y="-1.6547758e-05"
       inkscape:transform-center-x="-0.36905094"
       style="fill:#ffffff;fill-opacity:1;stroke:none;stroke-width:0.352;stroke-linecap:round;stroke-miterlimit:4;stroke-dasharray:none;stroke-opacity:1;paint-order:markers stroke fill"
       id="path849" />
    <g
       transform="matrix(2,0,0,2,-101.49892,-148.72621)"
       style="font-weight:bold;font-size:2.64583px;line-height:1.05;font-family:'Overlock SC';-inkscape-font-specification:'Overlock SC Bold';text-align:end;text-anchor:end;fill:#ffffff;fill-opacity:1;stroke:#ffffff;stroke-width:0.905997;stroke-linecap:round;stroke-miterlimit:4;stroke-dasharray:none;stroke-opacity:1;paint-order:markers stroke fill"
       id="g853"
       aria-label="R">
      <path
         id="path851"
         style="font-size:2.64583px;fill:#ffffff;fill-opacity:1;stroke:none;stroke-width:0.905997"
         d="m 117.03344,153.61437 q 0.0688,0.0767 0.16933,0.0767 0.0318,0 0.0714,-0.008 0.0238,0.0476 0.0238,0.0794 0,0.10054 -0.19844,0.10054 -0.0503,0 -0.10054,-0.0238 -0.0503,-0.0238 -0.10054,-0.082 -0.0503,-0.0582 -0.0873,-0.10319 -0.0344,-0.045 -0.0873,-0.14023 -0.0503,-0.0953 -0.0714,-0.13493 -0.0212,-0.0423 -0.0714,-0.15082 -0.0503,-0.11112 -0.0582,-0.127 -0.0741,-0.0106 -0.0741,-0.0582 0,-0.0238 0.0132,-0.0714 0.0741,0.0132 0.12435,0.0132 0.17727,0 0.27781,-0.10319 0.10054,-0.10583 0.10054,-0.28575 0,-0.21167 -0.11112,-0.29369 -0.11113,-0.0847 -0.34131,-0.0847 -0.0847,0 -0.20638,0.0106 0.0106,0.15346 0.0106,0.53975 v 0.53181 q 0,0.35719 0.0503,0.52387 -0.0476,0.0212 -0.12436,0.0212 -0.0767,0 -0.10319,-0.0344 -0.0264,-0.0344 -0.0264,-0.11642 0,-0.0423 0.003,-0.20902 0.003,-0.16669 0.003,-0.25929 v -0.52917 q 0,-0.36512 -0.0344,-0.60854 0.19579,-0.0317 0.39423,-0.0317 0.70908,0 0.70908,0.52652 0,0.21696 -0.11906,0.3519 -0.11906,0.13229 -0.31485,0.16933 0,0.003 0.045,0.0979 0.045,0.0953 0.0609,0.127 0.0185,0.0317 0.0556,0.10319 0.037,0.0714 0.0635,0.11377 0.0291,0.0423 0.0556,0.0688 z" />
    </g>
    <rect
       inkscape:export-ydpi="96"
       inkscape:export-xdpi="96"
       inkscape:export-filename="D:\Calcatz\Icon Pack\Adventure Narative Inspired by Arrival\GUI\Navigation Buttons\Xbox\Dark\png\128px\rstick_all.png"
       y="148.72621"
       x="143.6557"
       height="33.866665"
       width="33.866665"
       id="rect855"
       style="fill:#cccccc;fill-opacity:1;stroke-width:1.96945;stroke-linecap:round;paint-order:fill markers stroke" />
    <path
       id="path857"
       style="fill:#ffffff;fill-opacity:1;stroke:none;stroke-width:0.704;stroke-linecap:round;stroke-miterlimit:4;stroke-dasharray:none;stroke-opacity:1;paint-order:markers stroke fill"
       inkscape:transform-center-x="4.4079436e-05"
       inkscape:transform-center-y="0.73810573"
       d="m 163.19108,172.01857 h -2.60216 -2.60216 l 1.30108,2.2144 1.30108,2.21436 1.30108,-2.21436 z" />
    <path
       id="path859"
       style="fill:#ffffff;fill-opacity:1;stroke:none;stroke-width:0.704;stroke-linecap:round;stroke-miterlimit:4;stroke-dasharray:none;stroke-opacity:1;paint-order:markers stroke fill"
       inkscape:transform-center-x="4.4079436e-05"
       inkscape:transform-center-y="-0.73810579"
       d="m 163.19108,159.50173 h -2.60216 -2.60216 l 1.30108,-2.2144 1.30108,-2.21436 1.30108,2.21436 z" />
    <path
       id="path861"
       style="fill:#ffffff;fill-opacity:1;stroke:none;stroke-width:0.704;stroke-linecap:round;stroke-miterlimit:4;stroke-dasharray:none;stroke-opacity:1;paint-order:markers stroke fill"
       inkscape:transform-center-x="0.73810896"
       inkscape:transform-center-y="-3.1547664e-05"
       d="m 154.15436,168.26177 v -2.60216 -2.60216 l -2.2144,1.30108 -2.21436,1.30108 2.21436,1.30108 z" />
    <path
       sodipodi:nodetypes="cccccccc"
       d="m 168.07132,169.97721 c -0.75904,1.3126 -1.85356,2.40688 -3.16632,3.16568 m -8.63864,-0.004 c -1.30788,-0.75752 -2.39864,-1.8482 -3.15628,-3.15592 m 0,-8.64712 c 0.75728,-1.30708 1.84736,-2.39732 3.15436,-3.15472 m 8.63884,-0.004 c 1.3164,0.76048 2.41348,1.85828 3.17304,3.17528"
       style="fill:none;fill-opacity:1;stroke:#676767;stroke-width:1.104;stroke-linecap:round;stroke-miterlimit:4;stroke-dasharray:none;stroke-dashoffset:0;stroke-opacity:1;paint-order:fill markers stroke"
       id="path863" />
    <path
       id="path865"
       style="fill:#ffffff;fill-opacity:1;stroke:none;stroke-width:0.704;stroke-linecap:round;stroke-miterlimit:4;stroke-dasharray:none;stroke-opacity:1;paint-order:markers stroke fill"
       inkscape:transform-center-x="-0.73810256"
       inkscape:transform-center-y="-3.1547664e-05"
       d="m 166.67124,168.26177 v -2.60216 -2.60216 l 2.2144,1.30108 2.21436,1.30108 -2.21436,1.30108 z" />
    <g
       aria-label="R"
       id="g869"
       style="font-weight:bold;font-size:2.64583px;line-height:1.05;font-family:'Overlock SC';-inkscape-font-specification:'Overlock SC Bold';text-align:end;text-anchor:end;fill:#ffffff;fill-opacity:1;stroke:#ffffff;stroke-width:0.905997;stroke-linecap:round;stroke-miterlimit:4;stroke-dasharray:none;stroke-opacity:1;paint-order:markers stroke fill"
       transform="matrix(4,0,0,4,-306.17408,-446.17863)">
      <path
         d="m 117.03344,153.61437 q 0.0688,0.0767 0.16933,0.0767 0.0318,0 0.0714,-0.008 0.0238,0.0476 0.0238,0.0794 0,0.10054 -0.19844,0.10054 -0.0503,0 -0.10054,-0.0238 -0.0503,-0.0238 -0.10054,-0.082 -0.0503,-0.0582 -0.0873,-0.10319 -0.0344,-0.045 -0.0873,-0.14023 -0.0503,-0.0953 -0.0714,-0.13493 -0.0212,-0.0423 -0.0714,-0.15082 -0.0503,-0.11112 -0.0582,-0.127 -0.0741,-0.0106 -0.0741,-0.0582 0,-0.0238 0.0132,-0.0714 0.0741,0.0132 0.12435,0.0132 0.17727,0 0.27781,-0.10319 0.10054,-0.10583 0.10054,-0.28575 0,-0.21167 -0.11112,-0.29369 -0.11113,-0.0847 -0.34131,-0.0847 -0.0847,0 -0.20638,0.0106 0.0106,0.15346 0.0106,0.53975 v 0.53181 q 0,0.35719 0.0503,0.52387 -0.0476,0.0212 -0.12436,0.0212 -0.0767,0 -0.10319,-0.0344 -0.0264,-0.0344 -0.0264,-0.11642 0,-0.0423 0.003,-0.20902 0.003,-0.16669 0.003,-0.25929 v -0.52917 q 0,-0.36512 -0.0344,-0.60854 0.19579,-0.0317 0.39423,-0.0317 0.70908,0 0.70908,0.52652 0,0.21696 -0.11906,0.3519 -0.11906,0.13229 -0.31485,0.16933 0,0.003 0.045,0.0979 0.045,0.0953 0.0609,0.127 0.0185,0.0317 0.0556,0.10319 0.037,0.0714 0.0635,0.11377 0.0291,0.0423 0.0556,0.0688 z"
         style="font-size:2.64583px;fill:#ffffff;fill-opacity:1;stroke:none;stroke-width:0.905997"
         id="path867" />
    </g>
    <rect
       inkscape:export-ydpi="96"
       inkscape:export-xdpi="96"
       inkscape:export-filename="D:\Calcatz\Icon Pack\Adventure Narative Inspired by Arrival\GUI\Navigation Buttons\Xbox\Dark\png\256px\rstick_all.png"
       style="fill:#cccccc;fill-opacity:1;stroke-width:3.9389;stroke-linecap:round;paint-order:fill markers stroke"
       id="rect871"
       width="67.73333"
       height="67.73333"
       x="186.03716"
       y="148.72621" />
    <path
       d="m 225.10792,195.31093 h -5.20432 -5.20432 l 2.60216,4.4288 2.60216,4.42872 2.60216,-4.42872 z"
       inkscape:transform-center-y="1.476213"
       inkscape:transform-center-x="9.3007505e-05"
       style="fill:#ffffff;fill-opacity:1;stroke:none;stroke-width:1.408;stroke-linecap:round;stroke-miterlimit:4;stroke-dasharray:none;stroke-opacity:1;paint-order:markers stroke fill"
       id="path873" />
    <path
       d="m 225.10792,170.27725 h -5.20432 -5.20432 l 2.60216,-4.4288 2.60216,-4.42872 2.60216,4.42872 z"
       inkscape:transform-center-y="-1.47621"
       inkscape:transform-center-x="9.3007505e-05"
       style="fill:#ffffff;fill-opacity:1;stroke:none;stroke-width:1.408;stroke-linecap:round;stroke-miterlimit:4;stroke-dasharray:none;stroke-opacity:1;paint-order:markers stroke fill"
       id="path875" />
    <path
       d="m 207.03448,187.79733 v -5.20432 -5.20432 l -4.4288,2.60216 -4.42872,2.60216 4.42872,2.60216 z"
       inkscape:transform-center-y="-6.1547476e-05"
       inkscape:transform-center-x="1.4762228"
       style="fill:#ffffff;fill-opacity:1;stroke:none;stroke-width:1.408;stroke-linecap:round;stroke-miterlimit:4;stroke-dasharray:none;stroke-opacity:1;paint-order:markers stroke fill"
       id="path877" />
    <path
       id="path879"
       style="fill:none;fill-opacity:1;stroke:#676767;stroke-width:2.208;stroke-linecap:round;stroke-miterlimit:4;stroke-dasharray:none;stroke-dashoffset:0;stroke-opacity:1;paint-order:fill markers stroke"
       d="m 234.8684,191.22821 c -1.51808,2.6252 -3.70712,4.81376 -6.33264,6.33136 m -17.27728,-0.008 c -2.61576,-1.51504 -4.79728,-3.6964 -6.31256,-6.31184 m 0,-17.29424 c 1.51456,-2.61416 3.69472,-4.79464 6.30872,-6.30944 m 17.27768,-0.008 c 2.6328,1.52096 4.82696,3.71656 6.34608,6.35056"
       sodipodi:nodetypes="cccccccc" />
    <path
       d="m 232.06824,187.79733 v -5.20432 -5.20432 l 4.4288,2.60216 4.42872,2.60216 -4.42872,2.60216 z"
       inkscape:transform-center-y="-6.1547476e-05"
       inkscape:transform-center-x="-1.4762003"
       style="fill:#ffffff;fill-opacity:1;stroke:none;stroke-width:1.408;stroke-linecap:round;stroke-miterlimit:4;stroke-dasharray:none;stroke-opacity:1;paint-order:markers stroke fill"
       id="path881" />
    <g
       transform="matrix(8,0,0,8,-713.6224,-1041.0835)"
       style="font-weight:bold;font-size:2.64583px;line-height:1.05;font-family:'Overlock SC';-inkscape-font-specification:'Overlock SC Bold';text-align:end;text-anchor:end;fill:#ffffff;fill-opacity:1;stroke:#ffffff;stroke-width:0.905997;stroke-linecap:round;stroke-miterlimit:4;stroke-dasharray:none;stroke-opacity:1;paint-order:markers stroke fill"
       id="g885"
       aria-label="R">
      <path
         id="path883"
         style="font-size:2.64583px;fill:#ffffff;fill-opacity:1;stroke:none;stroke-width:0.905997"
         d="m 117.03344,153.61437 q 0.0688,0.0767 0.16933,0.0767 0.0318,0 0.0714,-0.008 0.0238,0.0476 0.0238,0.0794 0,0.10054 -0.19844,0.10054 -0.0503,0 -0.10054,-0.0238 -0.0503,-0.0238 -0.10054,-0.082 -0.0503,-0.0582 -0.0873,-0.10319 -0.0344,-0.045 -0.0873,-0.14023 -0.0503,-0.0953 -0.0714,-0.13493 -0.0212,-0.0423 -0.0714,-0.15082 -0.0503,-0.11112 -0.0582,-0.127 -0.0741,-0.0106 -0.0741,-0.0582 0,-0.0238 0.0132,-0.0714 0.0741,0.0132 0.12435,0.0132 0.17727,0 0.27781,-0.10319 0.10054,-0.10583 0.10054,-0.28575 0,-0.21167 -0.11112,-0.29369 -0.11113,-0.0847 -0.34131,-0.0847 -0.0847,0 -0.20638,0.0106 0.0106,0.15346 0.0106,0.53975 v 0.53181 q 0,0.35719 0.0503,0.52387 -0.0476,0.0212 -0.12436,0.0212 -0.0767,0 -0.10319,-0.0344 -0.0264,-0.0344 -0.0264,-0.11642 0,-0.0423 0.003,-0.20902 0.003,-0.16669 0.003,-0.25929 v -0.52917 q 0,-0.36512 -0.0344,-0.60854 0.19579,-0.0317 0.39423,-0.0317 0.70908,0 0.70908,0.52652 0,0.21696 -0.11906,0.3519 -0.11906,0.13229 -0.31485,0.16933 0,0.003 0.045,0.0979 0.045,0.0953 0.0609,0.127 0.0185,0.0317 0.0556,0.10319 0.037,0.0714 0.0635,0.11377 0.0291,0.0423 0.0556,0.0688 z" />
    </g>
  </g>
</svg>
