<?xml version="1.0" encoding="UTF-8" standalone="no"?>
<svg
   xmlns:dc="http://purl.org/dc/elements/1.1/"
   xmlns:cc="http://creativecommons.org/ns#"
   xmlns:rdf="http://www.w3.org/1999/02/22-rdf-syntax-ns#"
   xmlns:svg="http://www.w3.org/2000/svg"
   xmlns="http://www.w3.org/2000/svg"
   xmlns:sodipodi="http://sodipodi.sourceforge.net/DTD/sodipodi-0.dtd"
   xmlns:inkscape="http://www.inkscape.org/namespaces/inkscape"
   width="31.999998"
   height="31.999998"
   viewBox="0 0 8.4666662 8.4666662"
   version="1.1"
   id="svg6064"
   inkscape:version="1.0 (4035a4fb49, 2020-05-01)"
   sodipodi:docname="rstick_right.svg"
   inkscape:export-filename="D:\Calcatz\Icon Pack\Adventure Narative Inspired by Arrival\GUI\Navigation Buttons\Xbox\Dark\png\rstick_right.png"
   inkscape:export-xdpi="96"
   inkscape:export-ydpi="96">
  <defs
     id="defs6058" />
  <sodipodi:namedview
     units="px"
     id="base"
     pagecolor="#ffffff"
     bordercolor="#666666"
     borderopacity="1.0"
     inkscape:pageopacity="0.0"
     inkscape:pageshadow="2"
     inkscape:zoom="0.59152945"
     inkscape:cx="118.9828"
     inkscape:cy="177.40089"
     inkscape:document-units="mm"
     inkscape:current-layer="layer1"
     inkscape:document-rotation="0"
     showgrid="false"
     fit-margin-top="0"
     fit-margin-left="0"
     fit-margin-right="0"
     fit-margin-bottom="0"
     inkscape:window-width="1366"
     inkscape:window-height="705"
     inkscape:window-x="-8"
     inkscape:window-y="-8"
     inkscape:window-maximized="1" />
  <metadata
     id="metadata6061">
    <rdf:RDF>
      <cc:Work
         rdf:about="">
        <dc:format>image/svg+xml</dc:format>
        <dc:type
           rdf:resource="http://purl.org/dc/dcmitype/StillImage" />
        <dc:title />
      </cc:Work>
    </rdf:RDF>
  </metadata>
  <g
     inkscape:label="Layer 1"
     inkscape:groupmode="layer"
     id="layer1"
     transform="translate(-68.304184,-162.91833)">
    <rect
       y="162.91833"
       x="68.304184"
       height="8.4666662"
       width="8.4666662"
       id="rect834"
       style="opacity:0.999;fill:#cccccc;fill-opacity:1;stroke-width:0.39153;stroke-linecap:round;paint-order:fill markers stroke" />
    <g
       aria-label="R"
       id="text3157"
       style="font-weight:bold;font-size:2.64583px;line-height:1.05;font-family:'Overlock SC';-inkscape-font-specification:'Overlock SC Bold';text-align:end;text-anchor:end;fill:#ffffff;fill-opacity:1;stroke:#ffffff;stroke-width:0.905997;stroke-linecap:round;stroke-miterlimit:4;stroke-dasharray:none;stroke-opacity:1;paint-order:markers stroke fill">
      <path
         d="m 72.880161,167.8065 q 0.06879,0.0767 0.169333,0.0767 0.03175,0 0.07144,-0.008 0.02381,0.0476 0.02381,0.0794 0,0.10055 -0.198437,0.10055 -0.05027,0 -0.100542,-0.0238 -0.05027,-0.0238 -0.100541,-0.082 -0.05027,-0.0582 -0.08731,-0.10318 -0.0344,-0.045 -0.08731,-0.14023 -0.05027,-0.0952 -0.07144,-0.13494 -0.02117,-0.0423 -0.07144,-0.15081 -0.05027,-0.11113 -0.05821,-0.127 -0.07408,-0.0106 -0.07408,-0.0582 0,-0.0238 0.01323,-0.0714 0.07408,0.0132 0.124354,0.0132 0.17727,0 0.277812,-0.10319 0.100541,-0.10583 0.100541,-0.28575 0,-0.21166 -0.111125,-0.29368 -0.111124,-0.0847 -0.341312,-0.0847 -0.08467,0 -0.206374,0.0106 0.01058,0.15346 0.01058,0.53975 v 0.53181 q 0,0.35719 0.05027,0.52388 -0.04763,0.0212 -0.124354,0.0212 -0.07673,0 -0.103188,-0.0344 -0.02646,-0.0344 -0.02646,-0.11642 0,-0.0423 0.0026,-0.20902 0.0026,-0.16669 0.0026,-0.25929 v -0.52917 q 0,-0.36512 -0.0344,-0.60854 0.195791,-0.0318 0.394229,-0.0318 0.709082,0 0.709082,0.52652 0,0.21696 -0.119062,0.3519 -0.119063,0.13229 -0.314854,0.16933 0,0.003 0.04498,0.0979 0.04498,0.0952 0.06085,0.127 0.01852,0.0318 0.05556,0.10319 0.03704,0.0714 0.0635,0.11377 0.02911,0.0423 0.05556,0.0688 z"
         style="font-size:2.64583px;fill:#ffffff;fill-opacity:1;stroke:none;stroke-width:0.905997"
         id="path6661" />
    </g>
    <path
       id="path3161"
       style="fill:#ffffff;fill-opacity:1;stroke:none;stroke-width:0.276;stroke-linecap:round;stroke-miterlimit:4;stroke-dasharray:none;stroke-opacity:1;paint-order:markers stroke fill"
       inkscape:transform-center-x="-0.18453202"
       inkscape:transform-center-y="-8.8886874e-06"
       d="m 74.193312,167.82522 v -0.65054 -0.65054 l 0.553598,0.32527 0.553592,0.32527 -0.553592,0.32527 z" />
    <path
       id="path1571"
       style="fill:none;fill-opacity:1;stroke:#676767;stroke-width:0.276;stroke-linecap:round;stroke-miterlimit:4;stroke-dasharray:none;stroke-dashoffset:0;stroke-opacity:1;paint-order:fill markers stroke"
       d="m 74.407544,168.23133 a 2.1593168,2.1593168 0 0 1 -2.428895,1.00608 2.1593168,2.1593168 0 0 1 -1.600444,-2.08574 2.1593168,2.1593168 0 0 1 1.600444,-2.08574 2.1593168,2.1593168 0 0 1 2.428896,1.00608" />
    <rect
       inkscape:export-ydpi="96"
       inkscape:export-xdpi="96"
       inkscape:export-filename="D:\Calcatz\Icon Pack\Adventure Narative Inspired by Arrival\GUI\Navigation Buttons\Xbox\Dark\png\64px\rstick_right.png"
       style="opacity:0.999;fill:#cccccc;fill-opacity:1;stroke-width:0.78306;stroke-linecap:round;paint-order:fill markers stroke"
       id="rect836"
       width="16.933332"
       height="16.933332"
       x="78.227455"
       y="162.91833" />
    <g
       transform="matrix(2,0,0,2,-58.380913,-162.91833)"
       style="font-weight:bold;font-size:2.64583px;line-height:1.05;font-family:'Overlock SC';-inkscape-font-specification:'Overlock SC Bold';text-align:end;text-anchor:end;fill:#ffffff;fill-opacity:1;stroke:#ffffff;stroke-width:0.905997;stroke-linecap:round;stroke-miterlimit:4;stroke-dasharray:none;stroke-opacity:1;paint-order:markers stroke fill"
       id="g840"
       aria-label="R">
      <path
         id="path838"
         style="font-size:2.64583px;fill:#ffffff;fill-opacity:1;stroke:none;stroke-width:0.905997"
         d="m 72.880161,167.8065 q 0.06879,0.0767 0.169333,0.0767 0.03175,0 0.07144,-0.008 0.02381,0.0476 0.02381,0.0794 0,0.10055 -0.198437,0.10055 -0.05027,0 -0.100542,-0.0238 -0.05027,-0.0238 -0.100541,-0.082 -0.05027,-0.0582 -0.08731,-0.10318 -0.0344,-0.045 -0.08731,-0.14023 -0.05027,-0.0952 -0.07144,-0.13494 -0.02117,-0.0423 -0.07144,-0.15081 -0.05027,-0.11113 -0.05821,-0.127 -0.07408,-0.0106 -0.07408,-0.0582 0,-0.0238 0.01323,-0.0714 0.07408,0.0132 0.124354,0.0132 0.17727,0 0.277812,-0.10319 0.100541,-0.10583 0.100541,-0.28575 0,-0.21166 -0.111125,-0.29368 -0.111124,-0.0847 -0.341312,-0.0847 -0.08467,0 -0.206374,0.0106 0.01058,0.15346 0.01058,0.53975 v 0.53181 q 0,0.35719 0.05027,0.52388 -0.04763,0.0212 -0.124354,0.0212 -0.07673,0 -0.103188,-0.0344 -0.02646,-0.0344 -0.02646,-0.11642 0,-0.0423 0.0026,-0.20902 0.0026,-0.16669 0.0026,-0.25929 v -0.52917 q 0,-0.36512 -0.0344,-0.60854 0.195791,-0.0318 0.394229,-0.0318 0.709082,0 0.709082,0.52652 0,0.21696 -0.119062,0.3519 -0.119063,0.13229 -0.314854,0.16933 0,0.003 0.04498,0.0979 0.04498,0.0952 0.06085,0.127 0.01852,0.0318 0.05556,0.10319 0.03704,0.0714 0.0635,0.11377 0.02911,0.0423 0.05556,0.0688 z" />
    </g>
    <path
       d="m 90.005711,172.73211 v -1.30108 -1.30108 l 1.107196,0.65054 1.107184,0.65054 -1.107184,0.65054 z"
       inkscape:transform-center-y="-1.2816437e-05"
       inkscape:transform-center-x="-0.36906418"
       style="fill:#ffffff;fill-opacity:1;stroke:none;stroke-width:0.552;stroke-linecap:round;stroke-miterlimit:4;stroke-dasharray:none;stroke-opacity:1;paint-order:markers stroke fill"
       id="path842" />
    <path
       d="m 90.434175,173.54433 a 4.3186336,4.3186336 0 0 1 -4.85779,2.01216 4.3186336,4.3186336 0 0 1 -3.200888,-4.17148 4.3186336,4.3186336 0 0 1 3.200888,-4.17148 4.3186336,4.3186336 0 0 1 4.857792,2.01216"
       style="fill:none;fill-opacity:1;stroke:#676767;stroke-width:0.552;stroke-linecap:round;stroke-miterlimit:4;stroke-dasharray:none;stroke-dashoffset:0;stroke-opacity:1;paint-order:fill markers stroke"
       id="path844" />
    <rect
       inkscape:export-ydpi="96"
       inkscape:export-xdpi="96"
       inkscape:export-filename="D:\Calcatz\Icon Pack\Adventure Narative Inspired by Arrival\GUI\Navigation Buttons\Xbox\Dark\png\128px\rstick_right.png"
       y="162.91833"
       x="98.355362"
       height="33.866665"
       width="33.866665"
       id="rect846"
       style="opacity:0.999;fill:#cccccc;fill-opacity:1;stroke-width:1.56612;stroke-linecap:round;paint-order:fill markers stroke" />
    <g
       aria-label="R"
       id="g850"
       style="font-weight:bold;font-size:2.64583px;line-height:1.05;font-family:'Overlock SC';-inkscape-font-specification:'Overlock SC Bold';text-align:end;text-anchor:end;fill:#ffffff;fill-opacity:1;stroke:#ffffff;stroke-width:0.905997;stroke-linecap:round;stroke-miterlimit:4;stroke-dasharray:none;stroke-opacity:1;paint-order:markers stroke fill"
       transform="matrix(4,0,0,4,-174.86137,-488.75499)">
      <path
         d="m 72.880161,167.8065 q 0.06879,0.0767 0.169333,0.0767 0.03175,0 0.07144,-0.008 0.02381,0.0476 0.02381,0.0794 0,0.10055 -0.198437,0.10055 -0.05027,0 -0.100542,-0.0238 -0.05027,-0.0238 -0.100541,-0.082 -0.05027,-0.0582 -0.08731,-0.10318 -0.0344,-0.045 -0.08731,-0.14023 -0.05027,-0.0952 -0.07144,-0.13494 -0.02117,-0.0423 -0.07144,-0.15081 -0.05027,-0.11113 -0.05821,-0.127 -0.07408,-0.0106 -0.07408,-0.0582 0,-0.0238 0.01323,-0.0714 0.07408,0.0132 0.124354,0.0132 0.17727,0 0.277812,-0.10319 0.100541,-0.10583 0.100541,-0.28575 0,-0.21166 -0.111125,-0.29368 -0.111124,-0.0847 -0.341312,-0.0847 -0.08467,0 -0.206374,0.0106 0.01058,0.15346 0.01058,0.53975 v 0.53181 q 0,0.35719 0.05027,0.52388 -0.04763,0.0212 -0.124354,0.0212 -0.07673,0 -0.103188,-0.0344 -0.02646,-0.0344 -0.02646,-0.11642 0,-0.0423 0.0026,-0.20902 0.0026,-0.16669 0.0026,-0.25929 v -0.52917 q 0,-0.36512 -0.0344,-0.60854 0.195791,-0.0318 0.394229,-0.0318 0.709082,0 0.709082,0.52652 0,0.21696 -0.119062,0.3519 -0.119063,0.13229 -0.314854,0.16933 0,0.003 0.04498,0.0979 0.04498,0.0952 0.06085,0.127 0.01852,0.0318 0.05556,0.10319 0.03704,0.0714 0.0635,0.11377 0.02911,0.0423 0.05556,0.0688 z"
         style="font-size:2.64583px;fill:#ffffff;fill-opacity:1;stroke:none;stroke-width:0.905997"
         id="path848" />
    </g>
    <path
       id="path852"
       style="fill:#ffffff;fill-opacity:1;stroke:none;stroke-width:1.104;stroke-linecap:round;stroke-miterlimit:4;stroke-dasharray:none;stroke-opacity:1;paint-order:markers stroke fill"
       inkscape:transform-center-x="-0.7381303"
       inkscape:transform-center-y="-2.0671936e-05"
       d="m 121.91188,182.54589 v -2.60216 -2.60216 l 2.21438,1.30108 2.21438,1.30108 -2.21438,1.30108 z" />
    <path
       id="path854"
       style="fill:none;fill-opacity:1;stroke:#676767;stroke-width:1.104;stroke-linecap:round;stroke-miterlimit:4;stroke-dasharray:none;stroke-dashoffset:0;stroke-opacity:1;paint-order:fill markers stroke"
       d="m 122.7688,184.17033 a 8.6372672,8.6372672 0 0 1 -9.71558,4.02432 8.6372672,8.6372672 0 0 1 -6.40178,-8.34296 8.6372672,8.6372672 0 0 1 6.40178,-8.34296 8.6372672,8.6372672 0 0 1 9.71558,4.02432" />
    <rect
       inkscape:export-ydpi="96"
       inkscape:export-xdpi="96"
       inkscape:export-filename="D:\Calcatz\Icon Pack\Adventure Narative Inspired by Arrival\GUI\Navigation Buttons\Xbox\Dark\png\256px\rstick_right.png"
       style="opacity:0.999;fill:#cccccc;fill-opacity:1;stroke-width:3.13224;stroke-linecap:round;paint-order:fill markers stroke"
       id="rect856"
       width="67.73333"
       height="67.73333"
       x="136.59839"
       y="162.91833" />
    <g
       transform="matrix(8,0,0,8,-409.83509,-1140.4283)"
       style="font-weight:bold;font-size:2.64583px;line-height:1.05;font-family:'Overlock SC';-inkscape-font-specification:'Overlock SC Bold';text-align:end;text-anchor:end;fill:#ffffff;fill-opacity:1;stroke:#ffffff;stroke-width:0.905997;stroke-linecap:round;stroke-miterlimit:4;stroke-dasharray:none;stroke-opacity:1;paint-order:markers stroke fill"
       id="g860"
       aria-label="R">
      <path
         id="path858"
         style="font-size:2.64583px;fill:#ffffff;fill-opacity:1;stroke:none;stroke-width:0.905997"
         d="m 72.880161,167.8065 q 0.06879,0.0767 0.169333,0.0767 0.03175,0 0.07144,-0.008 0.02381,0.0476 0.02381,0.0794 0,0.10055 -0.198437,0.10055 -0.05027,0 -0.100542,-0.0238 -0.05027,-0.0238 -0.100541,-0.082 -0.05027,-0.0582 -0.08731,-0.10318 -0.0344,-0.045 -0.08731,-0.14023 -0.05027,-0.0952 -0.07144,-0.13494 -0.02117,-0.0423 -0.07144,-0.15081 -0.05027,-0.11113 -0.05821,-0.127 -0.07408,-0.0106 -0.07408,-0.0582 0,-0.0238 0.01323,-0.0714 0.07408,0.0132 0.124354,0.0132 0.17727,0 0.277812,-0.10319 0.100541,-0.10583 0.100541,-0.28575 0,-0.21166 -0.111125,-0.29368 -0.111124,-0.0847 -0.341312,-0.0847 -0.08467,0 -0.206374,0.0106 0.01058,0.15346 0.01058,0.53975 v 0.53181 q 0,0.35719 0.05027,0.52388 -0.04763,0.0212 -0.124354,0.0212 -0.07673,0 -0.103188,-0.0344 -0.02646,-0.0344 -0.02646,-0.11642 0,-0.0423 0.0026,-0.20902 0.0026,-0.16669 0.0026,-0.25929 v -0.52917 q 0,-0.36512 -0.0344,-0.60854 0.195791,-0.0318 0.394229,-0.0318 0.709082,0 0.709082,0.52652 0,0.21696 -0.119062,0.3519 -0.119063,0.13229 -0.314854,0.16933 0,0.003 0.04498,0.0979 0.04498,0.0952 0.06085,0.127 0.01852,0.0318 0.05556,0.10319 0.03704,0.0714 0.0635,0.11377 0.02911,0.0423 0.05556,0.0688 z" />
    </g>
    <path
       d="m 183.71141,202.17345 v -5.20432 -5.20432 l 4.42876,2.60216 4.42876,2.60216 -4.42876,2.60216 z"
       inkscape:transform-center-y="-3.6382935e-05"
       inkscape:transform-center-x="-1.4762593"
       style="fill:#ffffff;fill-opacity:1;stroke:none;stroke-width:2.208;stroke-linecap:round;stroke-miterlimit:4;stroke-dasharray:none;stroke-opacity:1;paint-order:markers stroke fill"
       id="path862" />
    <path
       d="m 185.42525,205.42233 a 17.274534,17.274534 0 0 1 -19.43116,8.04864 17.274534,17.274534 0 0 1 -12.80356,-16.68592 17.274534,17.274534 0 0 1 12.80356,-16.68592 17.274534,17.274534 0 0 1 19.43116,8.04864"
       style="fill:none;fill-opacity:1;stroke:#676767;stroke-width:2.208;stroke-linecap:round;stroke-miterlimit:4;stroke-dasharray:none;stroke-dashoffset:0;stroke-opacity:1;paint-order:fill markers stroke"
       id="path864" />
  </g>
</svg>
