<?xml version="1.0" encoding="UTF-8" standalone="no"?>
<svg
   xmlns:dc="http://purl.org/dc/elements/1.1/"
   xmlns:cc="http://creativecommons.org/ns#"
   xmlns:rdf="http://www.w3.org/1999/02/22-rdf-syntax-ns#"
   xmlns:svg="http://www.w3.org/2000/svg"
   xmlns="http://www.w3.org/2000/svg"
   xmlns:sodipodi="http://sodipodi.sourceforge.net/DTD/sodipodi-0.dtd"
   xmlns:inkscape="http://www.inkscape.org/namespaces/inkscape"
   inkscape:export-ydpi="96"
   inkscape:export-xdpi="96"
   inkscape:export-filename="D:\Calcatz\Icon Pack\Adventure Narative Inspired by Arrival\GUI\Navigation Buttons\Xbox\Dark\png\rt.png"
   sodipodi:docname="rt.svg"
   inkscape:version="1.0 (4035a4fb49, 2020-05-01)"
   id="svg3037"
   version="1.1"
   viewBox="0 0 8.4666662 8.4666662"
   height="31.999998"
   width="31.999998">
  <defs
     id="defs3031" />
  <sodipodi:namedview
     inkscape:window-maximized="1"
     inkscape:window-y="-8"
     inkscape:window-x="-8"
     inkscape:window-height="705"
     inkscape:window-width="1366"
     fit-margin-bottom="0"
     fit-margin-right="0"
     fit-margin-left="0"
     fit-margin-top="0"
     showgrid="false"
     inkscape:document-rotation="0"
     inkscape:current-layer="layer1"
     inkscape:document-units="mm"
     inkscape:cy="89.421731"
     inkscape:cx="147.51458"
     inkscape:zoom="1.2339194"
     inkscape:pageshadow="2"
     inkscape:pageopacity="0.0"
     borderopacity="1.0"
     bordercolor="#666666"
     pagecolor="#ffffff"
     id="base"
     units="px" />
  <metadata
     id="metadata3034">
    <rdf:RDF>
      <cc:Work
         rdf:about="">
        <dc:format>image/svg+xml</dc:format>
        <dc:type
           rdf:resource="http://purl.org/dc/dcmitype/StillImage" />
        <dc:title />
      </cc:Work>
    </rdf:RDF>
  </metadata>
  <g
     transform="translate(-91.957726,-119.55352)"
     id="layer1"
     inkscape:groupmode="layer"
     inkscape:label="Layer 1">
    <rect
       y="119.55352"
       x="91.957726"
       height="8.4666662"
       width="8.4666662"
       id="rect834"
       style="opacity:0.999;fill:#cccccc;fill-opacity:1;stroke-width:0.364694;stroke-linecap:round;paint-order:fill markers stroke" />
    <g
       style="font-weight:bold;font-size:2.11667px;line-height:1.05;font-family:'Overlock SC';-inkscape-font-specification:'Overlock SC Bold';text-align:end;text-anchor:end;fill:#ffffff;fill-opacity:1;stroke:#ffffff;stroke-width:0.905997;stroke-linecap:round;stroke-miterlimit:4;stroke-dasharray:none;stroke-opacity:1;paint-order:markers stroke fill"
       id="text4413"
       aria-label="RT">
      <path
         id="path3629"
         style="font-size:2.11667px;fill:#ffffff;fill-opacity:1;stroke:none;stroke-width:0.905997"
         d="m 95.968497,124.31072 q 0.05503,0.0614 0.135467,0.0614 0.0254,0 0.05715,-0.006 0.01905,0.0381 0.01905,0.0635 0,0.0804 -0.15875,0.0804 -0.04022,0 -0.08043,-0.0191 -0.04022,-0.019 -0.08043,-0.0656 -0.04022,-0.0466 -0.06985,-0.0825 -0.02752,-0.036 -0.06985,-0.11219 -0.04022,-0.0762 -0.05715,-0.10795 -0.01693,-0.0339 -0.05715,-0.12065 -0.04022,-0.0889 -0.04657,-0.1016 -0.05927,-0.008 -0.05927,-0.0466 0,-0.0191 0.01058,-0.0572 0.05927,0.0106 0.09948,0.0106 0.141816,0 0.22225,-0.0825 0.08043,-0.0847 0.08043,-0.2286 0,-0.16933 -0.0889,-0.23495 -0.0889,-0.0677 -0.27305,-0.0677 -0.06773,0 -0.1651,0.008 0.0085,0.12277 0.0085,0.4318 v 0.42545 q 0,0.28575 0.04022,0.4191 -0.0381,0.0169 -0.09948,0.0169 -0.06138,0 -0.08255,-0.0275 -0.02117,-0.0275 -0.02117,-0.0931 0,-0.0339 0.0021,-0.16722 0.0021,-0.13335 0.0021,-0.20743 v -0.42334 q 0,-0.2921 -0.02752,-0.48683 0.156634,-0.0254 0.315384,-0.0254 0.567268,0 0.567268,0.42122 0,0.17356 -0.09525,0.28151 -0.09525,0.10584 -0.251884,0.13547 0,0.002 0.03598,0.0783 0.03598,0.0762 0.04868,0.1016 0.01482,0.0254 0.04445,0.0825 0.02963,0.0571 0.0508,0.091 0.02328,0.0339 0.04445,0.055 z" />
      <path
         id="path3631"
         style="font-size:2.11667px;fill:#ffffff;fill-opacity:1;stroke:none;stroke-width:0.905997"
         d="m 96.604126,123.99957 v -0.42334 q 0,-0.19685 -0.0063,-0.36195 -0.300567,0 -0.402167,0.008 -0.0063,-0.0191 -0.0063,-0.0572 0,-0.0423 0.02117,-0.0571 0.02328,-0.0148 0.07197,-0.0169 0.05292,-0.002 0.226484,-0.002 h 0.249767 q 0.334434,0 0.408517,-0.006 0.0063,0.019 0.0063,0.055 0,0.0423 -0.02328,0.0571 -0.02117,0.0148 -0.06985,0.0169 -0.06562,0.002 -0.302684,0.002 -0.01482,0.30269 -0.01482,0.4191 v 0.42545 q 0,0.28575 0.04022,0.4191 -0.0381,0.0169 -0.09948,0.0169 -0.06138,0 -0.08255,-0.0275 -0.02117,-0.0275 -0.02117,-0.0931 0,-0.0339 0.0021,-0.16722 0.0021,-0.13335 0.0021,-0.20743 z" />
    </g>
    <path
       id="rect1881"
       style="fill:none;stroke:#676767;stroke-width:0.276;stroke-linecap:round;stroke-miterlimit:4;stroke-dasharray:none;stroke-opacity:1;paint-order:markers stroke fill"
       d="m 96.191066,121.67561 c -0.95541,0 -1.72445,0.76957 -1.72445,1.72495 v 1.76993 h 3.44887 v -1.76993 c 0,-0.95538 -0.76904,-1.72495 -1.72442,-1.72495 z"
       sodipodi:nodetypes="ssccss" />
    <rect
       inkscape:export-ydpi="96"
       inkscape:export-xdpi="96"
       inkscape:export-filename="D:\Calcatz\Icon Pack\Adventure Narative Inspired by Arrival\GUI\Navigation Buttons\Xbox\Dark\png\64px\rt.png"
       style="opacity:0.999;fill:#cccccc;fill-opacity:1;stroke-width:0.729388;stroke-linecap:round;paint-order:fill markers stroke"
       id="rect836"
       width="16.933332"
       height="16.933332"
       x="102.49541"
       y="119.55352" />
    <g
       transform="matrix(2,0,0,2,-81.420023,-119.55352)"
       aria-label="RT"
       id="g842"
       style="font-weight:bold;font-size:2.11667px;line-height:1.05;font-family:'Overlock SC';-inkscape-font-specification:'Overlock SC Bold';text-align:end;text-anchor:end;fill:#ffffff;fill-opacity:1;stroke:#ffffff;stroke-width:0.905997;stroke-linecap:round;stroke-miterlimit:4;stroke-dasharray:none;stroke-opacity:1;paint-order:markers stroke fill">
      <path
         d="m 95.968497,124.31072 q 0.05503,0.0614 0.135467,0.0614 0.0254,0 0.05715,-0.006 0.01905,0.0381 0.01905,0.0635 0,0.0804 -0.15875,0.0804 -0.04022,0 -0.08043,-0.0191 -0.04022,-0.019 -0.08043,-0.0656 -0.04022,-0.0466 -0.06985,-0.0825 -0.02752,-0.036 -0.06985,-0.11219 -0.04022,-0.0762 -0.05715,-0.10795 -0.01693,-0.0339 -0.05715,-0.12065 -0.04022,-0.0889 -0.04657,-0.1016 -0.05927,-0.008 -0.05927,-0.0466 0,-0.0191 0.01058,-0.0572 0.05927,0.0106 0.09948,0.0106 0.141816,0 0.22225,-0.0825 0.08043,-0.0847 0.08043,-0.2286 0,-0.16933 -0.0889,-0.23495 -0.0889,-0.0677 -0.27305,-0.0677 -0.06773,0 -0.1651,0.008 0.0085,0.12277 0.0085,0.4318 v 0.42545 q 0,0.28575 0.04022,0.4191 -0.0381,0.0169 -0.09948,0.0169 -0.06138,0 -0.08255,-0.0275 -0.02117,-0.0275 -0.02117,-0.0931 0,-0.0339 0.0021,-0.16722 0.0021,-0.13335 0.0021,-0.20743 v -0.42334 q 0,-0.2921 -0.02752,-0.48683 0.156634,-0.0254 0.315384,-0.0254 0.567268,0 0.567268,0.42122 0,0.17356 -0.09525,0.28151 -0.09525,0.10584 -0.251884,0.13547 0,0.002 0.03598,0.0783 0.03598,0.0762 0.04868,0.1016 0.01482,0.0254 0.04445,0.0825 0.02963,0.0571 0.0508,0.091 0.02328,0.0339 0.04445,0.055 z"
         style="font-size:2.11667px;fill:#ffffff;fill-opacity:1;stroke:none;stroke-width:0.905997"
         id="path838" />
      <path
         d="m 96.604126,123.99957 v -0.42334 q 0,-0.19685 -0.0063,-0.36195 -0.300567,0 -0.402167,0.008 -0.0063,-0.0191 -0.0063,-0.0572 0,-0.0423 0.02117,-0.0571 0.02328,-0.0148 0.07197,-0.0169 0.05292,-0.002 0.226484,-0.002 h 0.249767 q 0.334434,0 0.408517,-0.006 0.0063,0.019 0.0063,0.055 0,0.0423 -0.02328,0.0571 -0.02117,0.0148 -0.06985,0.0169 -0.06562,0.002 -0.302684,0.002 -0.01482,0.30269 -0.01482,0.4191 v 0.42545 q 0,0.28575 0.04022,0.4191 -0.0381,0.0169 -0.09948,0.0169 -0.06138,0 -0.08255,-0.0275 -0.02117,-0.0275 -0.02117,-0.0931 0,-0.0339 0.0021,-0.16722 0.0021,-0.13335 0.0021,-0.20743 z"
         style="font-size:2.11667px;fill:#ffffff;fill-opacity:1;stroke:none;stroke-width:0.905997"
         id="path840" />
    </g>
    <path
       sodipodi:nodetypes="ssccss"
       d="m 110.96211,123.7977 c -1.91082,0 -3.4489,1.53914 -3.4489,3.4499 v 3.53986 h 6.89774 v -3.53986 c 0,-1.91076 -1.53808,-3.4499 -3.44884,-3.4499 z"
       style="fill:none;stroke:#676767;stroke-width:0.552;stroke-linecap:round;stroke-miterlimit:4;stroke-dasharray:none;stroke-opacity:1;paint-order:markers stroke fill"
       id="path844" />
    <rect
       inkscape:export-ydpi="96"
       inkscape:export-xdpi="96"
       inkscape:export-filename="D:\Calcatz\Icon Pack\Adventure Narative Inspired by Arrival\GUI\Navigation Buttons\Xbox\Dark\png\128px\rt.png"
       y="119.55352"
       x="122.64512"
       height="33.866665"
       width="33.866665"
       id="rect846"
       style="opacity:0.999;fill:#cccccc;fill-opacity:1;stroke-width:1.45878;stroke-linecap:round;paint-order:fill markers stroke" />
    <g
       style="font-weight:bold;font-size:2.11667px;line-height:1.05;font-family:'Overlock SC';-inkscape-font-specification:'Overlock SC Bold';text-align:end;text-anchor:end;fill:#ffffff;fill-opacity:1;stroke:#ffffff;stroke-width:0.905997;stroke-linecap:round;stroke-miterlimit:4;stroke-dasharray:none;stroke-opacity:1;paint-order:markers stroke fill"
       id="g852"
       aria-label="RT"
       transform="matrix(4,0,0,4,-245.18574,-358.66056)">
      <path
         id="path848"
         style="font-size:2.11667px;fill:#ffffff;fill-opacity:1;stroke:none;stroke-width:0.905997"
         d="m 95.968497,124.31072 q 0.05503,0.0614 0.135467,0.0614 0.0254,0 0.05715,-0.006 0.01905,0.0381 0.01905,0.0635 0,0.0804 -0.15875,0.0804 -0.04022,0 -0.08043,-0.0191 -0.04022,-0.019 -0.08043,-0.0656 -0.04022,-0.0466 -0.06985,-0.0825 -0.02752,-0.036 -0.06985,-0.11219 -0.04022,-0.0762 -0.05715,-0.10795 -0.01693,-0.0339 -0.05715,-0.12065 -0.04022,-0.0889 -0.04657,-0.1016 -0.05927,-0.008 -0.05927,-0.0466 0,-0.0191 0.01058,-0.0572 0.05927,0.0106 0.09948,0.0106 0.141816,0 0.22225,-0.0825 0.08043,-0.0847 0.08043,-0.2286 0,-0.16933 -0.0889,-0.23495 -0.0889,-0.0677 -0.27305,-0.0677 -0.06773,0 -0.1651,0.008 0.0085,0.12277 0.0085,0.4318 v 0.42545 q 0,0.28575 0.04022,0.4191 -0.0381,0.0169 -0.09948,0.0169 -0.06138,0 -0.08255,-0.0275 -0.02117,-0.0275 -0.02117,-0.0931 0,-0.0339 0.0021,-0.16722 0.0021,-0.13335 0.0021,-0.20743 v -0.42334 q 0,-0.2921 -0.02752,-0.48683 0.156634,-0.0254 0.315384,-0.0254 0.567268,0 0.567268,0.42122 0,0.17356 -0.09525,0.28151 -0.09525,0.10584 -0.251884,0.13547 0,0.002 0.03598,0.0783 0.03598,0.0762 0.04868,0.1016 0.01482,0.0254 0.04445,0.0825 0.02963,0.0571 0.0508,0.091 0.02328,0.0339 0.04445,0.055 z" />
      <path
         id="path850"
         style="font-size:2.11667px;fill:#ffffff;fill-opacity:1;stroke:none;stroke-width:0.905997"
         d="m 96.604126,123.99957 v -0.42334 q 0,-0.19685 -0.0063,-0.36195 -0.300567,0 -0.402167,0.008 -0.0063,-0.0191 -0.0063,-0.0572 0,-0.0423 0.02117,-0.0571 0.02328,-0.0148 0.07197,-0.0169 0.05292,-0.002 0.226484,-0.002 h 0.249767 q 0.334434,0 0.408517,-0.006 0.0063,0.019 0.0063,0.055 0,0.0423 -0.02328,0.0571 -0.02117,0.0148 -0.06985,0.0169 -0.06562,0.002 -0.302684,0.002 -0.01482,0.30269 -0.01482,0.4191 v 0.42545 q 0,0.28575 0.04022,0.4191 -0.0381,0.0169 -0.09948,0.0169 -0.06138,0 -0.08255,-0.0275 -0.02117,-0.0275 -0.02117,-0.0931 0,-0.0339 0.0021,-0.16722 0.0021,-0.13335 0.0021,-0.20743 z" />
    </g>
    <path
       id="path854"
       style="fill:none;stroke:#676767;stroke-width:1.104;stroke-linecap:round;stroke-miterlimit:4;stroke-dasharray:none;stroke-opacity:1;paint-order:markers stroke fill"
       d="m 139.57852,128.04188 c -3.82164,0 -6.8978,3.07828 -6.8978,6.8998 v 7.07972 h 13.79548 v -7.07972 c 0,-3.82152 -3.07616,-6.8998 -6.89768,-6.8998 z"
       sodipodi:nodetypes="ssccss" />
    <rect
       inkscape:export-ydpi="96"
       inkscape:export-xdpi="96"
       inkscape:export-filename="D:\Calcatz\Icon Pack\Adventure Narative Inspired by Arrival\GUI\Navigation Buttons\Xbox\Dark\png\256px\rt.png"
       style="opacity:0.999;fill:#cccccc;fill-opacity:1;stroke-width:2.91756;stroke-linecap:round;paint-order:fill markers stroke"
       id="rect856"
       width="67.73333"
       height="67.73333"
       x="160.38394"
       y="119.55352" />
    <g
       transform="matrix(8,0,0,8,-575.27778,-836.87464)"
       aria-label="RT"
       id="g862"
       style="font-weight:bold;font-size:2.11667px;line-height:1.05;font-family:'Overlock SC';-inkscape-font-specification:'Overlock SC Bold';text-align:end;text-anchor:end;fill:#ffffff;fill-opacity:1;stroke:#ffffff;stroke-width:0.905997;stroke-linecap:round;stroke-miterlimit:4;stroke-dasharray:none;stroke-opacity:1;paint-order:markers stroke fill">
      <path
         d="m 95.968497,124.31072 q 0.05503,0.0614 0.135467,0.0614 0.0254,0 0.05715,-0.006 0.01905,0.0381 0.01905,0.0635 0,0.0804 -0.15875,0.0804 -0.04022,0 -0.08043,-0.0191 -0.04022,-0.019 -0.08043,-0.0656 -0.04022,-0.0466 -0.06985,-0.0825 -0.02752,-0.036 -0.06985,-0.11219 -0.04022,-0.0762 -0.05715,-0.10795 -0.01693,-0.0339 -0.05715,-0.12065 -0.04022,-0.0889 -0.04657,-0.1016 -0.05927,-0.008 -0.05927,-0.0466 0,-0.0191 0.01058,-0.0572 0.05927,0.0106 0.09948,0.0106 0.141816,0 0.22225,-0.0825 0.08043,-0.0847 0.08043,-0.2286 0,-0.16933 -0.0889,-0.23495 -0.0889,-0.0677 -0.27305,-0.0677 -0.06773,0 -0.1651,0.008 0.0085,0.12277 0.0085,0.4318 v 0.42545 q 0,0.28575 0.04022,0.4191 -0.0381,0.0169 -0.09948,0.0169 -0.06138,0 -0.08255,-0.0275 -0.02117,-0.0275 -0.02117,-0.0931 0,-0.0339 0.0021,-0.16722 0.0021,-0.13335 0.0021,-0.20743 v -0.42334 q 0,-0.2921 -0.02752,-0.48683 0.156634,-0.0254 0.315384,-0.0254 0.567268,0 0.567268,0.42122 0,0.17356 -0.09525,0.28151 -0.09525,0.10584 -0.251884,0.13547 0,0.002 0.03598,0.0783 0.03598,0.0762 0.04868,0.1016 0.01482,0.0254 0.04445,0.0825 0.02963,0.0571 0.0508,0.091 0.02328,0.0339 0.04445,0.055 z"
         style="font-size:2.11667px;fill:#ffffff;fill-opacity:1;stroke:none;stroke-width:0.905997"
         id="path858" />
      <path
         d="m 96.604126,123.99957 v -0.42334 q 0,-0.19685 -0.0063,-0.36195 -0.300567,0 -0.402167,0.008 -0.0063,-0.0191 -0.0063,-0.0572 0,-0.0423 0.02117,-0.0571 0.02328,-0.0148 0.07197,-0.0169 0.05292,-0.002 0.226484,-0.002 h 0.249767 q 0.334434,0 0.408517,-0.006 0.0063,0.019 0.0063,0.055 0,0.0423 -0.02328,0.0571 -0.02117,0.0148 -0.06985,0.0169 -0.06562,0.002 -0.302684,0.002 -0.01482,0.30269 -0.01482,0.4191 v 0.42545 q 0,0.28575 0.04022,0.4191 -0.0381,0.0169 -0.09948,0.0169 -0.06138,0 -0.08255,-0.0275 -0.02117,-0.0275 -0.02117,-0.0931 0,-0.0339 0.0021,-0.16722 0.0021,-0.13335 0.0021,-0.20743 z"
         style="font-size:2.11667px;fill:#ffffff;fill-opacity:1;stroke:none;stroke-width:0.905997"
         id="path860" />
    </g>
    <path
       sodipodi:nodetypes="ssccss"
       d="m 194.25074,136.53024 c -7.64328,0 -13.7956,6.15656 -13.7956,13.7996 v 14.15944 h 27.59096 v -14.15944 c 0,-7.64304 -6.15232,-13.7996 -13.79536,-13.7996 z"
       style="fill:none;stroke:#676767;stroke-width:2.208;stroke-linecap:round;stroke-miterlimit:4;stroke-dasharray:none;stroke-opacity:1;paint-order:markers stroke fill"
       id="path864" />
  </g>
</svg>
